M48
;GenerationSoftware,Autodesk,EAGLE,9.5.2*%
;CreationDate,2020-03-22T18:46:16Z*%
FMAT,2
ICI,OFF
METRIC,TZ,000.000
T4C0.400
T3C0.550
T2C0.600
T1C1.000
%
G90
M71
T1
X23622Y6985
X98425Y22733
X95885Y25273
X31242Y4445
X98425Y25273
X93345Y25273
X100965Y25273
X100965Y22733
X103505Y25273
X36322Y4445
X93345Y22733
X36322Y6985
X95885Y22733
X106045Y22733
X33782Y6985
X31242Y6985
X103505Y22733
X106045Y25273
X33782Y4445
X28702Y4445
X28702Y6985
X26162Y4445
X26162Y6985
X23622Y4445
T2
X5080Y4064
X6350Y4064
X4572Y20701
X3556Y19685
X123317Y14859
X124587Y16764
X123317Y16764
X124587Y28194
X2794Y20447
X3810Y21463
X123317Y28194
X129667Y1524
X128397Y1524
X129667Y3429
X129667Y5334
X128397Y3429
X128397Y5334
X5080Y11049
X6350Y11049
X5080Y17399
X5080Y14859
X6350Y14859
X5080Y12954
X6350Y12954
X5080Y1524
X6350Y1524
X0Y28194
X1270Y28194
X0Y26289
X0Y24384
X124587Y18669
X1270Y26289
X1270Y24384
X124587Y25654
X123317Y25654
X125095Y9017
X126111Y10033
X126873Y9271
X125857Y8255
X6350Y17399
X123317Y18669
X124587Y12319
X123317Y12319
X124587Y14859
T3
X7493Y6604
X8890Y4064
X6223Y21590
X6350Y19304
X109728Y9906
X113030Y6731
X11303Y10922
X11303Y8382
X11303Y5842
X15367Y8382
X15367Y10922
X118364Y21336
X118364Y23876
X114300Y23876
X116840Y5461
X123444Y8128
X114300Y21336
X114300Y18796
X107188Y7366
X123317Y10414
X120777Y25654
X122174Y23114
X118364Y18796
X15367Y5842
X12827Y24257
X16637Y22987
X19939Y19812
X22479Y22352
T4
X50673Y8289
X44450Y3500
X44450Y4572
X50546Y1778
X43942Y1143
X79121Y27940
X54102Y2454
X75565Y27264
X49276Y1778
X75057Y22699
X28575Y8509
X80391Y27940
X91821Y24003
X90170Y26980
X114173Y8509
X75565Y25908
X85217Y26218
X15494Y21209
X101092Y21209
X54102Y3810
X85725Y28575
X85217Y25146
X78994Y21429
X70485Y24096
X70739Y27264
X39497Y2738
X58928Y2454
X59182Y5622
X54610Y7019
X37846Y5715
M30