G04 EAGLE Gerber X2 export*
%TF.Part,Single*%
%TF.FileFunction,Other,bottom copper*%
%TF.FilePolarity,Positive*%
%TF.GenerationSoftware,Autodesk,EAGLE,9.5.2*%
%TF.CreationDate,2020-03-22T18:46:16Z*%
G75*
%MOMM*%
%FSLAX34Y34*%
%LPD*%
%INbottom copper*%
%AMOC8*
5,1,8,0,0,1.08239X$1,22.5*%
G01*
%ADD10C,0.000000*%
%ADD11R,2.540000X1.270000*%
%ADD12R,1.270000X2.540000*%
%ADD13R,1.500000X1.500000*%
%ADD14C,1.500000*%
%ADD15C,1.020000*%
%ADD16C,0.304800*%
%ADD17C,0.609600*%
%ADD18C,0.254000*%
%ADD19C,0.935000*%
%ADD20C,0.406400*%
%ADD21C,0.203200*%
%ADD22C,0.680000*%
%ADD23C,0.508000*%


D10*
X0Y232410D02*
X50800Y181610D01*
X50800Y100330D01*
X60960Y90170D01*
X60960Y59690D01*
X50800Y49530D01*
X50800Y6350D01*
X55880Y1270D01*
X213360Y1270D01*
X0Y232410D02*
X0Y290830D01*
X5080Y295910D01*
X220980Y199390D02*
X220980Y142240D01*
X220980Y199390D02*
X228600Y207010D01*
X913130Y207010D01*
X895350Y295910D02*
X5080Y295910D01*
X913130Y207010D02*
X937260Y182880D01*
X1047750Y182880D01*
X911860Y279400D02*
X895350Y295910D01*
X911860Y279400D02*
X1066800Y279400D01*
X1075690Y270510D01*
X1245870Y115570D02*
X1296670Y64770D01*
X1245870Y115570D02*
X1245870Y196850D01*
X1235710Y207010D01*
X1235710Y237490D01*
X1245870Y247650D01*
X1245870Y290830D01*
X1240790Y295910D01*
X1083310Y295910D01*
X1296670Y64770D02*
X1296670Y6350D01*
X1291590Y1270D01*
X1075690Y97790D02*
X1075690Y154940D01*
X1075690Y97790D02*
X1068070Y90170D01*
X383540Y90170D01*
X401320Y1270D02*
X1291590Y1270D01*
X383540Y90170D02*
X359410Y114300D01*
X248920Y114300D01*
X384810Y17780D02*
X401320Y1270D01*
X384810Y17780D02*
X229870Y17780D01*
X1066800Y279400D02*
X1083310Y295910D01*
X1047750Y182880D02*
X1075690Y154940D01*
X248920Y114300D02*
X220980Y142240D01*
X229870Y17780D02*
X213360Y1270D01*
D11*
X50800Y173990D03*
X50800Y148590D03*
X50800Y129540D03*
X50800Y110490D03*
X50800Y40640D03*
X50800Y15240D03*
D12*
G36*
X15740Y202610D02*
X24720Y211590D01*
X42680Y193630D01*
X33700Y184650D01*
X15740Y202610D01*
G37*
G36*
X22090Y208960D02*
X31070Y217940D01*
X49030Y199980D01*
X40050Y191000D01*
X22090Y208960D01*
G37*
D13*
X1060450Y227330D03*
D14*
X1060450Y252730D03*
X1035050Y227330D03*
X1035050Y252730D03*
X1009650Y227330D03*
X1009650Y252730D03*
X958850Y252730D03*
D10*
X953850Y227330D02*
X953852Y227471D01*
X953858Y227612D01*
X953868Y227752D01*
X953882Y227892D01*
X953900Y228032D01*
X953921Y228171D01*
X953947Y228310D01*
X953976Y228448D01*
X954010Y228584D01*
X954047Y228720D01*
X954088Y228855D01*
X954133Y228989D01*
X954182Y229121D01*
X954234Y229252D01*
X954290Y229381D01*
X954350Y229508D01*
X954413Y229634D01*
X954479Y229758D01*
X954550Y229881D01*
X954623Y230001D01*
X954700Y230119D01*
X954780Y230235D01*
X954864Y230348D01*
X954950Y230459D01*
X955040Y230568D01*
X955133Y230674D01*
X955228Y230777D01*
X955327Y230878D01*
X955428Y230976D01*
X955532Y231071D01*
X955639Y231163D01*
X955748Y231252D01*
X955860Y231337D01*
X955974Y231420D01*
X956090Y231500D01*
X956209Y231576D01*
X956330Y231648D01*
X956452Y231718D01*
X956577Y231783D01*
X956703Y231846D01*
X956831Y231904D01*
X956961Y231959D01*
X957092Y232011D01*
X957225Y232058D01*
X957359Y232102D01*
X957494Y232143D01*
X957630Y232179D01*
X957767Y232211D01*
X957905Y232240D01*
X958043Y232265D01*
X958183Y232285D01*
X958323Y232302D01*
X958463Y232315D01*
X958604Y232324D01*
X958744Y232329D01*
X958885Y232330D01*
X959026Y232327D01*
X959167Y232320D01*
X959307Y232309D01*
X959447Y232294D01*
X959587Y232275D01*
X959726Y232253D01*
X959864Y232226D01*
X960002Y232196D01*
X960138Y232161D01*
X960274Y232123D01*
X960408Y232081D01*
X960542Y232035D01*
X960674Y231986D01*
X960804Y231932D01*
X960933Y231875D01*
X961060Y231815D01*
X961186Y231751D01*
X961309Y231683D01*
X961431Y231612D01*
X961551Y231538D01*
X961668Y231460D01*
X961783Y231379D01*
X961896Y231295D01*
X962007Y231208D01*
X962115Y231117D01*
X962220Y231024D01*
X962323Y230927D01*
X962423Y230828D01*
X962520Y230726D01*
X962614Y230621D01*
X962705Y230514D01*
X962793Y230404D01*
X962878Y230292D01*
X962960Y230177D01*
X963039Y230060D01*
X963114Y229941D01*
X963186Y229820D01*
X963254Y229697D01*
X963319Y229572D01*
X963381Y229445D01*
X963438Y229316D01*
X963493Y229186D01*
X963543Y229055D01*
X963590Y228922D01*
X963633Y228788D01*
X963672Y228652D01*
X963707Y228516D01*
X963739Y228379D01*
X963766Y228241D01*
X963790Y228102D01*
X963810Y227962D01*
X963826Y227822D01*
X963838Y227682D01*
X963846Y227541D01*
X963850Y227400D01*
X963850Y227260D01*
X963846Y227119D01*
X963838Y226978D01*
X963826Y226838D01*
X963810Y226698D01*
X963790Y226558D01*
X963766Y226419D01*
X963739Y226281D01*
X963707Y226144D01*
X963672Y226008D01*
X963633Y225872D01*
X963590Y225738D01*
X963543Y225605D01*
X963493Y225474D01*
X963438Y225344D01*
X963381Y225215D01*
X963319Y225088D01*
X963254Y224963D01*
X963186Y224840D01*
X963114Y224719D01*
X963039Y224600D01*
X962960Y224483D01*
X962878Y224368D01*
X962793Y224256D01*
X962705Y224146D01*
X962614Y224039D01*
X962520Y223934D01*
X962423Y223832D01*
X962323Y223733D01*
X962220Y223636D01*
X962115Y223543D01*
X962007Y223452D01*
X961896Y223365D01*
X961783Y223281D01*
X961668Y223200D01*
X961551Y223122D01*
X961431Y223048D01*
X961309Y222977D01*
X961186Y222909D01*
X961060Y222845D01*
X960933Y222785D01*
X960804Y222728D01*
X960674Y222674D01*
X960542Y222625D01*
X960408Y222579D01*
X960274Y222537D01*
X960138Y222499D01*
X960002Y222464D01*
X959864Y222434D01*
X959726Y222407D01*
X959587Y222385D01*
X959447Y222366D01*
X959307Y222351D01*
X959167Y222340D01*
X959026Y222333D01*
X958885Y222330D01*
X958744Y222331D01*
X958604Y222336D01*
X958463Y222345D01*
X958323Y222358D01*
X958183Y222375D01*
X958043Y222395D01*
X957905Y222420D01*
X957767Y222449D01*
X957630Y222481D01*
X957494Y222517D01*
X957359Y222558D01*
X957225Y222602D01*
X957092Y222649D01*
X956961Y222701D01*
X956831Y222756D01*
X956703Y222814D01*
X956577Y222877D01*
X956452Y222942D01*
X956330Y223012D01*
X956209Y223084D01*
X956090Y223160D01*
X955974Y223240D01*
X955860Y223323D01*
X955748Y223408D01*
X955639Y223497D01*
X955532Y223589D01*
X955428Y223684D01*
X955327Y223782D01*
X955228Y223883D01*
X955133Y223986D01*
X955040Y224092D01*
X954950Y224201D01*
X954864Y224312D01*
X954780Y224425D01*
X954700Y224541D01*
X954623Y224659D01*
X954550Y224779D01*
X954479Y224902D01*
X954413Y225026D01*
X954350Y225152D01*
X954290Y225279D01*
X954234Y225408D01*
X954182Y225539D01*
X954133Y225671D01*
X954088Y225805D01*
X954047Y225940D01*
X954010Y226076D01*
X953976Y226212D01*
X953947Y226350D01*
X953921Y226489D01*
X953900Y226628D01*
X953882Y226768D01*
X953868Y226908D01*
X953858Y227048D01*
X953852Y227189D01*
X953850Y227330D01*
X928450Y227330D02*
X928452Y227471D01*
X928458Y227612D01*
X928468Y227752D01*
X928482Y227892D01*
X928500Y228032D01*
X928521Y228171D01*
X928547Y228310D01*
X928576Y228448D01*
X928610Y228584D01*
X928647Y228720D01*
X928688Y228855D01*
X928733Y228989D01*
X928782Y229121D01*
X928834Y229252D01*
X928890Y229381D01*
X928950Y229508D01*
X929013Y229634D01*
X929079Y229758D01*
X929150Y229881D01*
X929223Y230001D01*
X929300Y230119D01*
X929380Y230235D01*
X929464Y230348D01*
X929550Y230459D01*
X929640Y230568D01*
X929733Y230674D01*
X929828Y230777D01*
X929927Y230878D01*
X930028Y230976D01*
X930132Y231071D01*
X930239Y231163D01*
X930348Y231252D01*
X930460Y231337D01*
X930574Y231420D01*
X930690Y231500D01*
X930809Y231576D01*
X930930Y231648D01*
X931052Y231718D01*
X931177Y231783D01*
X931303Y231846D01*
X931431Y231904D01*
X931561Y231959D01*
X931692Y232011D01*
X931825Y232058D01*
X931959Y232102D01*
X932094Y232143D01*
X932230Y232179D01*
X932367Y232211D01*
X932505Y232240D01*
X932643Y232265D01*
X932783Y232285D01*
X932923Y232302D01*
X933063Y232315D01*
X933204Y232324D01*
X933344Y232329D01*
X933485Y232330D01*
X933626Y232327D01*
X933767Y232320D01*
X933907Y232309D01*
X934047Y232294D01*
X934187Y232275D01*
X934326Y232253D01*
X934464Y232226D01*
X934602Y232196D01*
X934738Y232161D01*
X934874Y232123D01*
X935008Y232081D01*
X935142Y232035D01*
X935274Y231986D01*
X935404Y231932D01*
X935533Y231875D01*
X935660Y231815D01*
X935786Y231751D01*
X935909Y231683D01*
X936031Y231612D01*
X936151Y231538D01*
X936268Y231460D01*
X936383Y231379D01*
X936496Y231295D01*
X936607Y231208D01*
X936715Y231117D01*
X936820Y231024D01*
X936923Y230927D01*
X937023Y230828D01*
X937120Y230726D01*
X937214Y230621D01*
X937305Y230514D01*
X937393Y230404D01*
X937478Y230292D01*
X937560Y230177D01*
X937639Y230060D01*
X937714Y229941D01*
X937786Y229820D01*
X937854Y229697D01*
X937919Y229572D01*
X937981Y229445D01*
X938038Y229316D01*
X938093Y229186D01*
X938143Y229055D01*
X938190Y228922D01*
X938233Y228788D01*
X938272Y228652D01*
X938307Y228516D01*
X938339Y228379D01*
X938366Y228241D01*
X938390Y228102D01*
X938410Y227962D01*
X938426Y227822D01*
X938438Y227682D01*
X938446Y227541D01*
X938450Y227400D01*
X938450Y227260D01*
X938446Y227119D01*
X938438Y226978D01*
X938426Y226838D01*
X938410Y226698D01*
X938390Y226558D01*
X938366Y226419D01*
X938339Y226281D01*
X938307Y226144D01*
X938272Y226008D01*
X938233Y225872D01*
X938190Y225738D01*
X938143Y225605D01*
X938093Y225474D01*
X938038Y225344D01*
X937981Y225215D01*
X937919Y225088D01*
X937854Y224963D01*
X937786Y224840D01*
X937714Y224719D01*
X937639Y224600D01*
X937560Y224483D01*
X937478Y224368D01*
X937393Y224256D01*
X937305Y224146D01*
X937214Y224039D01*
X937120Y223934D01*
X937023Y223832D01*
X936923Y223733D01*
X936820Y223636D01*
X936715Y223543D01*
X936607Y223452D01*
X936496Y223365D01*
X936383Y223281D01*
X936268Y223200D01*
X936151Y223122D01*
X936031Y223048D01*
X935909Y222977D01*
X935786Y222909D01*
X935660Y222845D01*
X935533Y222785D01*
X935404Y222728D01*
X935274Y222674D01*
X935142Y222625D01*
X935008Y222579D01*
X934874Y222537D01*
X934738Y222499D01*
X934602Y222464D01*
X934464Y222434D01*
X934326Y222407D01*
X934187Y222385D01*
X934047Y222366D01*
X933907Y222351D01*
X933767Y222340D01*
X933626Y222333D01*
X933485Y222330D01*
X933344Y222331D01*
X933204Y222336D01*
X933063Y222345D01*
X932923Y222358D01*
X932783Y222375D01*
X932643Y222395D01*
X932505Y222420D01*
X932367Y222449D01*
X932230Y222481D01*
X932094Y222517D01*
X931959Y222558D01*
X931825Y222602D01*
X931692Y222649D01*
X931561Y222701D01*
X931431Y222756D01*
X931303Y222814D01*
X931177Y222877D01*
X931052Y222942D01*
X930930Y223012D01*
X930809Y223084D01*
X930690Y223160D01*
X930574Y223240D01*
X930460Y223323D01*
X930348Y223408D01*
X930239Y223497D01*
X930132Y223589D01*
X930028Y223684D01*
X929927Y223782D01*
X929828Y223883D01*
X929733Y223986D01*
X929640Y224092D01*
X929550Y224201D01*
X929464Y224312D01*
X929380Y224425D01*
X929300Y224541D01*
X929223Y224659D01*
X929150Y224779D01*
X929079Y224902D01*
X929013Y225026D01*
X928950Y225152D01*
X928890Y225279D01*
X928834Y225408D01*
X928782Y225539D01*
X928733Y225671D01*
X928688Y225805D01*
X928647Y225940D01*
X928610Y226076D01*
X928576Y226212D01*
X928547Y226350D01*
X928521Y226489D01*
X928500Y226628D01*
X928482Y226768D01*
X928468Y226908D01*
X928458Y227048D01*
X928452Y227189D01*
X928450Y227330D01*
X928450Y252730D02*
X928452Y252871D01*
X928458Y253012D01*
X928468Y253152D01*
X928482Y253292D01*
X928500Y253432D01*
X928521Y253571D01*
X928547Y253710D01*
X928576Y253848D01*
X928610Y253984D01*
X928647Y254120D01*
X928688Y254255D01*
X928733Y254389D01*
X928782Y254521D01*
X928834Y254652D01*
X928890Y254781D01*
X928950Y254908D01*
X929013Y255034D01*
X929079Y255158D01*
X929150Y255281D01*
X929223Y255401D01*
X929300Y255519D01*
X929380Y255635D01*
X929464Y255748D01*
X929550Y255859D01*
X929640Y255968D01*
X929733Y256074D01*
X929828Y256177D01*
X929927Y256278D01*
X930028Y256376D01*
X930132Y256471D01*
X930239Y256563D01*
X930348Y256652D01*
X930460Y256737D01*
X930574Y256820D01*
X930690Y256900D01*
X930809Y256976D01*
X930930Y257048D01*
X931052Y257118D01*
X931177Y257183D01*
X931303Y257246D01*
X931431Y257304D01*
X931561Y257359D01*
X931692Y257411D01*
X931825Y257458D01*
X931959Y257502D01*
X932094Y257543D01*
X932230Y257579D01*
X932367Y257611D01*
X932505Y257640D01*
X932643Y257665D01*
X932783Y257685D01*
X932923Y257702D01*
X933063Y257715D01*
X933204Y257724D01*
X933344Y257729D01*
X933485Y257730D01*
X933626Y257727D01*
X933767Y257720D01*
X933907Y257709D01*
X934047Y257694D01*
X934187Y257675D01*
X934326Y257653D01*
X934464Y257626D01*
X934602Y257596D01*
X934738Y257561D01*
X934874Y257523D01*
X935008Y257481D01*
X935142Y257435D01*
X935274Y257386D01*
X935404Y257332D01*
X935533Y257275D01*
X935660Y257215D01*
X935786Y257151D01*
X935909Y257083D01*
X936031Y257012D01*
X936151Y256938D01*
X936268Y256860D01*
X936383Y256779D01*
X936496Y256695D01*
X936607Y256608D01*
X936715Y256517D01*
X936820Y256424D01*
X936923Y256327D01*
X937023Y256228D01*
X937120Y256126D01*
X937214Y256021D01*
X937305Y255914D01*
X937393Y255804D01*
X937478Y255692D01*
X937560Y255577D01*
X937639Y255460D01*
X937714Y255341D01*
X937786Y255220D01*
X937854Y255097D01*
X937919Y254972D01*
X937981Y254845D01*
X938038Y254716D01*
X938093Y254586D01*
X938143Y254455D01*
X938190Y254322D01*
X938233Y254188D01*
X938272Y254052D01*
X938307Y253916D01*
X938339Y253779D01*
X938366Y253641D01*
X938390Y253502D01*
X938410Y253362D01*
X938426Y253222D01*
X938438Y253082D01*
X938446Y252941D01*
X938450Y252800D01*
X938450Y252660D01*
X938446Y252519D01*
X938438Y252378D01*
X938426Y252238D01*
X938410Y252098D01*
X938390Y251958D01*
X938366Y251819D01*
X938339Y251681D01*
X938307Y251544D01*
X938272Y251408D01*
X938233Y251272D01*
X938190Y251138D01*
X938143Y251005D01*
X938093Y250874D01*
X938038Y250744D01*
X937981Y250615D01*
X937919Y250488D01*
X937854Y250363D01*
X937786Y250240D01*
X937714Y250119D01*
X937639Y250000D01*
X937560Y249883D01*
X937478Y249768D01*
X937393Y249656D01*
X937305Y249546D01*
X937214Y249439D01*
X937120Y249334D01*
X937023Y249232D01*
X936923Y249133D01*
X936820Y249036D01*
X936715Y248943D01*
X936607Y248852D01*
X936496Y248765D01*
X936383Y248681D01*
X936268Y248600D01*
X936151Y248522D01*
X936031Y248448D01*
X935909Y248377D01*
X935786Y248309D01*
X935660Y248245D01*
X935533Y248185D01*
X935404Y248128D01*
X935274Y248074D01*
X935142Y248025D01*
X935008Y247979D01*
X934874Y247937D01*
X934738Y247899D01*
X934602Y247864D01*
X934464Y247834D01*
X934326Y247807D01*
X934187Y247785D01*
X934047Y247766D01*
X933907Y247751D01*
X933767Y247740D01*
X933626Y247733D01*
X933485Y247730D01*
X933344Y247731D01*
X933204Y247736D01*
X933063Y247745D01*
X932923Y247758D01*
X932783Y247775D01*
X932643Y247795D01*
X932505Y247820D01*
X932367Y247849D01*
X932230Y247881D01*
X932094Y247917D01*
X931959Y247958D01*
X931825Y248002D01*
X931692Y248049D01*
X931561Y248101D01*
X931431Y248156D01*
X931303Y248214D01*
X931177Y248277D01*
X931052Y248342D01*
X930930Y248412D01*
X930809Y248484D01*
X930690Y248560D01*
X930574Y248640D01*
X930460Y248723D01*
X930348Y248808D01*
X930239Y248897D01*
X930132Y248989D01*
X930028Y249084D01*
X929927Y249182D01*
X929828Y249283D01*
X929733Y249386D01*
X929640Y249492D01*
X929550Y249601D01*
X929464Y249712D01*
X929380Y249825D01*
X929300Y249941D01*
X929223Y250059D01*
X929150Y250179D01*
X929079Y250302D01*
X929013Y250426D01*
X928950Y250552D01*
X928890Y250679D01*
X928834Y250808D01*
X928782Y250939D01*
X928733Y251071D01*
X928688Y251205D01*
X928647Y251340D01*
X928610Y251476D01*
X928576Y251612D01*
X928547Y251750D01*
X928521Y251889D01*
X928500Y252028D01*
X928482Y252168D01*
X928468Y252308D01*
X928458Y252448D01*
X928452Y252589D01*
X928450Y252730D01*
D14*
X984250Y227330D03*
D10*
X979250Y252730D02*
X979252Y252871D01*
X979258Y253012D01*
X979268Y253152D01*
X979282Y253292D01*
X979300Y253432D01*
X979321Y253571D01*
X979347Y253710D01*
X979376Y253848D01*
X979410Y253984D01*
X979447Y254120D01*
X979488Y254255D01*
X979533Y254389D01*
X979582Y254521D01*
X979634Y254652D01*
X979690Y254781D01*
X979750Y254908D01*
X979813Y255034D01*
X979879Y255158D01*
X979950Y255281D01*
X980023Y255401D01*
X980100Y255519D01*
X980180Y255635D01*
X980264Y255748D01*
X980350Y255859D01*
X980440Y255968D01*
X980533Y256074D01*
X980628Y256177D01*
X980727Y256278D01*
X980828Y256376D01*
X980932Y256471D01*
X981039Y256563D01*
X981148Y256652D01*
X981260Y256737D01*
X981374Y256820D01*
X981490Y256900D01*
X981609Y256976D01*
X981730Y257048D01*
X981852Y257118D01*
X981977Y257183D01*
X982103Y257246D01*
X982231Y257304D01*
X982361Y257359D01*
X982492Y257411D01*
X982625Y257458D01*
X982759Y257502D01*
X982894Y257543D01*
X983030Y257579D01*
X983167Y257611D01*
X983305Y257640D01*
X983443Y257665D01*
X983583Y257685D01*
X983723Y257702D01*
X983863Y257715D01*
X984004Y257724D01*
X984144Y257729D01*
X984285Y257730D01*
X984426Y257727D01*
X984567Y257720D01*
X984707Y257709D01*
X984847Y257694D01*
X984987Y257675D01*
X985126Y257653D01*
X985264Y257626D01*
X985402Y257596D01*
X985538Y257561D01*
X985674Y257523D01*
X985808Y257481D01*
X985942Y257435D01*
X986074Y257386D01*
X986204Y257332D01*
X986333Y257275D01*
X986460Y257215D01*
X986586Y257151D01*
X986709Y257083D01*
X986831Y257012D01*
X986951Y256938D01*
X987068Y256860D01*
X987183Y256779D01*
X987296Y256695D01*
X987407Y256608D01*
X987515Y256517D01*
X987620Y256424D01*
X987723Y256327D01*
X987823Y256228D01*
X987920Y256126D01*
X988014Y256021D01*
X988105Y255914D01*
X988193Y255804D01*
X988278Y255692D01*
X988360Y255577D01*
X988439Y255460D01*
X988514Y255341D01*
X988586Y255220D01*
X988654Y255097D01*
X988719Y254972D01*
X988781Y254845D01*
X988838Y254716D01*
X988893Y254586D01*
X988943Y254455D01*
X988990Y254322D01*
X989033Y254188D01*
X989072Y254052D01*
X989107Y253916D01*
X989139Y253779D01*
X989166Y253641D01*
X989190Y253502D01*
X989210Y253362D01*
X989226Y253222D01*
X989238Y253082D01*
X989246Y252941D01*
X989250Y252800D01*
X989250Y252660D01*
X989246Y252519D01*
X989238Y252378D01*
X989226Y252238D01*
X989210Y252098D01*
X989190Y251958D01*
X989166Y251819D01*
X989139Y251681D01*
X989107Y251544D01*
X989072Y251408D01*
X989033Y251272D01*
X988990Y251138D01*
X988943Y251005D01*
X988893Y250874D01*
X988838Y250744D01*
X988781Y250615D01*
X988719Y250488D01*
X988654Y250363D01*
X988586Y250240D01*
X988514Y250119D01*
X988439Y250000D01*
X988360Y249883D01*
X988278Y249768D01*
X988193Y249656D01*
X988105Y249546D01*
X988014Y249439D01*
X987920Y249334D01*
X987823Y249232D01*
X987723Y249133D01*
X987620Y249036D01*
X987515Y248943D01*
X987407Y248852D01*
X987296Y248765D01*
X987183Y248681D01*
X987068Y248600D01*
X986951Y248522D01*
X986831Y248448D01*
X986709Y248377D01*
X986586Y248309D01*
X986460Y248245D01*
X986333Y248185D01*
X986204Y248128D01*
X986074Y248074D01*
X985942Y248025D01*
X985808Y247979D01*
X985674Y247937D01*
X985538Y247899D01*
X985402Y247864D01*
X985264Y247834D01*
X985126Y247807D01*
X984987Y247785D01*
X984847Y247766D01*
X984707Y247751D01*
X984567Y247740D01*
X984426Y247733D01*
X984285Y247730D01*
X984144Y247731D01*
X984004Y247736D01*
X983863Y247745D01*
X983723Y247758D01*
X983583Y247775D01*
X983443Y247795D01*
X983305Y247820D01*
X983167Y247849D01*
X983030Y247881D01*
X982894Y247917D01*
X982759Y247958D01*
X982625Y248002D01*
X982492Y248049D01*
X982361Y248101D01*
X982231Y248156D01*
X982103Y248214D01*
X981977Y248277D01*
X981852Y248342D01*
X981730Y248412D01*
X981609Y248484D01*
X981490Y248560D01*
X981374Y248640D01*
X981260Y248723D01*
X981148Y248808D01*
X981039Y248897D01*
X980932Y248989D01*
X980828Y249084D01*
X980727Y249182D01*
X980628Y249283D01*
X980533Y249386D01*
X980440Y249492D01*
X980350Y249601D01*
X980264Y249712D01*
X980180Y249825D01*
X980100Y249941D01*
X980023Y250059D01*
X979950Y250179D01*
X979879Y250302D01*
X979813Y250426D01*
X979750Y250552D01*
X979690Y250679D01*
X979634Y250808D01*
X979582Y250939D01*
X979533Y251071D01*
X979488Y251205D01*
X979447Y251340D01*
X979410Y251476D01*
X979376Y251612D01*
X979347Y251750D01*
X979321Y251889D01*
X979300Y252028D01*
X979282Y252168D01*
X979268Y252308D01*
X979258Y252448D01*
X979252Y252589D01*
X979250Y252730D01*
D11*
X0Y281940D03*
X0Y262890D03*
X0Y243840D03*
X1245870Y123190D03*
X1245870Y148590D03*
X1245870Y167640D03*
X1245870Y186690D03*
X1245870Y256540D03*
X1245870Y281940D03*
D12*
G36*
X1280930Y94570D02*
X1271950Y85590D01*
X1253990Y103550D01*
X1262970Y112530D01*
X1280930Y94570D01*
G37*
G36*
X1274580Y88220D02*
X1265600Y79240D01*
X1247640Y97200D01*
X1256620Y106180D01*
X1274580Y88220D01*
G37*
D13*
X236220Y69850D03*
D14*
X236220Y44450D03*
X261620Y69850D03*
X261620Y44450D03*
X287020Y69850D03*
X287020Y44450D03*
X337820Y44450D03*
D10*
X332820Y69850D02*
X332822Y69991D01*
X332828Y70132D01*
X332838Y70272D01*
X332852Y70412D01*
X332870Y70552D01*
X332891Y70691D01*
X332917Y70830D01*
X332946Y70968D01*
X332980Y71104D01*
X333017Y71240D01*
X333058Y71375D01*
X333103Y71509D01*
X333152Y71641D01*
X333204Y71772D01*
X333260Y71901D01*
X333320Y72028D01*
X333383Y72154D01*
X333449Y72278D01*
X333520Y72401D01*
X333593Y72521D01*
X333670Y72639D01*
X333750Y72755D01*
X333834Y72868D01*
X333920Y72979D01*
X334010Y73088D01*
X334103Y73194D01*
X334198Y73297D01*
X334297Y73398D01*
X334398Y73496D01*
X334502Y73591D01*
X334609Y73683D01*
X334718Y73772D01*
X334830Y73857D01*
X334944Y73940D01*
X335060Y74020D01*
X335179Y74096D01*
X335300Y74168D01*
X335422Y74238D01*
X335547Y74303D01*
X335673Y74366D01*
X335801Y74424D01*
X335931Y74479D01*
X336062Y74531D01*
X336195Y74578D01*
X336329Y74622D01*
X336464Y74663D01*
X336600Y74699D01*
X336737Y74731D01*
X336875Y74760D01*
X337013Y74785D01*
X337153Y74805D01*
X337293Y74822D01*
X337433Y74835D01*
X337574Y74844D01*
X337714Y74849D01*
X337855Y74850D01*
X337996Y74847D01*
X338137Y74840D01*
X338277Y74829D01*
X338417Y74814D01*
X338557Y74795D01*
X338696Y74773D01*
X338834Y74746D01*
X338972Y74716D01*
X339108Y74681D01*
X339244Y74643D01*
X339378Y74601D01*
X339512Y74555D01*
X339644Y74506D01*
X339774Y74452D01*
X339903Y74395D01*
X340030Y74335D01*
X340156Y74271D01*
X340279Y74203D01*
X340401Y74132D01*
X340521Y74058D01*
X340638Y73980D01*
X340753Y73899D01*
X340866Y73815D01*
X340977Y73728D01*
X341085Y73637D01*
X341190Y73544D01*
X341293Y73447D01*
X341393Y73348D01*
X341490Y73246D01*
X341584Y73141D01*
X341675Y73034D01*
X341763Y72924D01*
X341848Y72812D01*
X341930Y72697D01*
X342009Y72580D01*
X342084Y72461D01*
X342156Y72340D01*
X342224Y72217D01*
X342289Y72092D01*
X342351Y71965D01*
X342408Y71836D01*
X342463Y71706D01*
X342513Y71575D01*
X342560Y71442D01*
X342603Y71308D01*
X342642Y71172D01*
X342677Y71036D01*
X342709Y70899D01*
X342736Y70761D01*
X342760Y70622D01*
X342780Y70482D01*
X342796Y70342D01*
X342808Y70202D01*
X342816Y70061D01*
X342820Y69920D01*
X342820Y69780D01*
X342816Y69639D01*
X342808Y69498D01*
X342796Y69358D01*
X342780Y69218D01*
X342760Y69078D01*
X342736Y68939D01*
X342709Y68801D01*
X342677Y68664D01*
X342642Y68528D01*
X342603Y68392D01*
X342560Y68258D01*
X342513Y68125D01*
X342463Y67994D01*
X342408Y67864D01*
X342351Y67735D01*
X342289Y67608D01*
X342224Y67483D01*
X342156Y67360D01*
X342084Y67239D01*
X342009Y67120D01*
X341930Y67003D01*
X341848Y66888D01*
X341763Y66776D01*
X341675Y66666D01*
X341584Y66559D01*
X341490Y66454D01*
X341393Y66352D01*
X341293Y66253D01*
X341190Y66156D01*
X341085Y66063D01*
X340977Y65972D01*
X340866Y65885D01*
X340753Y65801D01*
X340638Y65720D01*
X340521Y65642D01*
X340401Y65568D01*
X340279Y65497D01*
X340156Y65429D01*
X340030Y65365D01*
X339903Y65305D01*
X339774Y65248D01*
X339644Y65194D01*
X339512Y65145D01*
X339378Y65099D01*
X339244Y65057D01*
X339108Y65019D01*
X338972Y64984D01*
X338834Y64954D01*
X338696Y64927D01*
X338557Y64905D01*
X338417Y64886D01*
X338277Y64871D01*
X338137Y64860D01*
X337996Y64853D01*
X337855Y64850D01*
X337714Y64851D01*
X337574Y64856D01*
X337433Y64865D01*
X337293Y64878D01*
X337153Y64895D01*
X337013Y64915D01*
X336875Y64940D01*
X336737Y64969D01*
X336600Y65001D01*
X336464Y65037D01*
X336329Y65078D01*
X336195Y65122D01*
X336062Y65169D01*
X335931Y65221D01*
X335801Y65276D01*
X335673Y65334D01*
X335547Y65397D01*
X335422Y65462D01*
X335300Y65532D01*
X335179Y65604D01*
X335060Y65680D01*
X334944Y65760D01*
X334830Y65843D01*
X334718Y65928D01*
X334609Y66017D01*
X334502Y66109D01*
X334398Y66204D01*
X334297Y66302D01*
X334198Y66403D01*
X334103Y66506D01*
X334010Y66612D01*
X333920Y66721D01*
X333834Y66832D01*
X333750Y66945D01*
X333670Y67061D01*
X333593Y67179D01*
X333520Y67299D01*
X333449Y67422D01*
X333383Y67546D01*
X333320Y67672D01*
X333260Y67799D01*
X333204Y67928D01*
X333152Y68059D01*
X333103Y68191D01*
X333058Y68325D01*
X333017Y68460D01*
X332980Y68596D01*
X332946Y68732D01*
X332917Y68870D01*
X332891Y69009D01*
X332870Y69148D01*
X332852Y69288D01*
X332838Y69428D01*
X332828Y69568D01*
X332822Y69709D01*
X332820Y69850D01*
X358220Y69850D02*
X358222Y69991D01*
X358228Y70132D01*
X358238Y70272D01*
X358252Y70412D01*
X358270Y70552D01*
X358291Y70691D01*
X358317Y70830D01*
X358346Y70968D01*
X358380Y71104D01*
X358417Y71240D01*
X358458Y71375D01*
X358503Y71509D01*
X358552Y71641D01*
X358604Y71772D01*
X358660Y71901D01*
X358720Y72028D01*
X358783Y72154D01*
X358849Y72278D01*
X358920Y72401D01*
X358993Y72521D01*
X359070Y72639D01*
X359150Y72755D01*
X359234Y72868D01*
X359320Y72979D01*
X359410Y73088D01*
X359503Y73194D01*
X359598Y73297D01*
X359697Y73398D01*
X359798Y73496D01*
X359902Y73591D01*
X360009Y73683D01*
X360118Y73772D01*
X360230Y73857D01*
X360344Y73940D01*
X360460Y74020D01*
X360579Y74096D01*
X360700Y74168D01*
X360822Y74238D01*
X360947Y74303D01*
X361073Y74366D01*
X361201Y74424D01*
X361331Y74479D01*
X361462Y74531D01*
X361595Y74578D01*
X361729Y74622D01*
X361864Y74663D01*
X362000Y74699D01*
X362137Y74731D01*
X362275Y74760D01*
X362413Y74785D01*
X362553Y74805D01*
X362693Y74822D01*
X362833Y74835D01*
X362974Y74844D01*
X363114Y74849D01*
X363255Y74850D01*
X363396Y74847D01*
X363537Y74840D01*
X363677Y74829D01*
X363817Y74814D01*
X363957Y74795D01*
X364096Y74773D01*
X364234Y74746D01*
X364372Y74716D01*
X364508Y74681D01*
X364644Y74643D01*
X364778Y74601D01*
X364912Y74555D01*
X365044Y74506D01*
X365174Y74452D01*
X365303Y74395D01*
X365430Y74335D01*
X365556Y74271D01*
X365679Y74203D01*
X365801Y74132D01*
X365921Y74058D01*
X366038Y73980D01*
X366153Y73899D01*
X366266Y73815D01*
X366377Y73728D01*
X366485Y73637D01*
X366590Y73544D01*
X366693Y73447D01*
X366793Y73348D01*
X366890Y73246D01*
X366984Y73141D01*
X367075Y73034D01*
X367163Y72924D01*
X367248Y72812D01*
X367330Y72697D01*
X367409Y72580D01*
X367484Y72461D01*
X367556Y72340D01*
X367624Y72217D01*
X367689Y72092D01*
X367751Y71965D01*
X367808Y71836D01*
X367863Y71706D01*
X367913Y71575D01*
X367960Y71442D01*
X368003Y71308D01*
X368042Y71172D01*
X368077Y71036D01*
X368109Y70899D01*
X368136Y70761D01*
X368160Y70622D01*
X368180Y70482D01*
X368196Y70342D01*
X368208Y70202D01*
X368216Y70061D01*
X368220Y69920D01*
X368220Y69780D01*
X368216Y69639D01*
X368208Y69498D01*
X368196Y69358D01*
X368180Y69218D01*
X368160Y69078D01*
X368136Y68939D01*
X368109Y68801D01*
X368077Y68664D01*
X368042Y68528D01*
X368003Y68392D01*
X367960Y68258D01*
X367913Y68125D01*
X367863Y67994D01*
X367808Y67864D01*
X367751Y67735D01*
X367689Y67608D01*
X367624Y67483D01*
X367556Y67360D01*
X367484Y67239D01*
X367409Y67120D01*
X367330Y67003D01*
X367248Y66888D01*
X367163Y66776D01*
X367075Y66666D01*
X366984Y66559D01*
X366890Y66454D01*
X366793Y66352D01*
X366693Y66253D01*
X366590Y66156D01*
X366485Y66063D01*
X366377Y65972D01*
X366266Y65885D01*
X366153Y65801D01*
X366038Y65720D01*
X365921Y65642D01*
X365801Y65568D01*
X365679Y65497D01*
X365556Y65429D01*
X365430Y65365D01*
X365303Y65305D01*
X365174Y65248D01*
X365044Y65194D01*
X364912Y65145D01*
X364778Y65099D01*
X364644Y65057D01*
X364508Y65019D01*
X364372Y64984D01*
X364234Y64954D01*
X364096Y64927D01*
X363957Y64905D01*
X363817Y64886D01*
X363677Y64871D01*
X363537Y64860D01*
X363396Y64853D01*
X363255Y64850D01*
X363114Y64851D01*
X362974Y64856D01*
X362833Y64865D01*
X362693Y64878D01*
X362553Y64895D01*
X362413Y64915D01*
X362275Y64940D01*
X362137Y64969D01*
X362000Y65001D01*
X361864Y65037D01*
X361729Y65078D01*
X361595Y65122D01*
X361462Y65169D01*
X361331Y65221D01*
X361201Y65276D01*
X361073Y65334D01*
X360947Y65397D01*
X360822Y65462D01*
X360700Y65532D01*
X360579Y65604D01*
X360460Y65680D01*
X360344Y65760D01*
X360230Y65843D01*
X360118Y65928D01*
X360009Y66017D01*
X359902Y66109D01*
X359798Y66204D01*
X359697Y66302D01*
X359598Y66403D01*
X359503Y66506D01*
X359410Y66612D01*
X359320Y66721D01*
X359234Y66832D01*
X359150Y66945D01*
X359070Y67061D01*
X358993Y67179D01*
X358920Y67299D01*
X358849Y67422D01*
X358783Y67546D01*
X358720Y67672D01*
X358660Y67799D01*
X358604Y67928D01*
X358552Y68059D01*
X358503Y68191D01*
X358458Y68325D01*
X358417Y68460D01*
X358380Y68596D01*
X358346Y68732D01*
X358317Y68870D01*
X358291Y69009D01*
X358270Y69148D01*
X358252Y69288D01*
X358238Y69428D01*
X358228Y69568D01*
X358222Y69709D01*
X358220Y69850D01*
X358220Y44450D02*
X358222Y44591D01*
X358228Y44732D01*
X358238Y44872D01*
X358252Y45012D01*
X358270Y45152D01*
X358291Y45291D01*
X358317Y45430D01*
X358346Y45568D01*
X358380Y45704D01*
X358417Y45840D01*
X358458Y45975D01*
X358503Y46109D01*
X358552Y46241D01*
X358604Y46372D01*
X358660Y46501D01*
X358720Y46628D01*
X358783Y46754D01*
X358849Y46878D01*
X358920Y47001D01*
X358993Y47121D01*
X359070Y47239D01*
X359150Y47355D01*
X359234Y47468D01*
X359320Y47579D01*
X359410Y47688D01*
X359503Y47794D01*
X359598Y47897D01*
X359697Y47998D01*
X359798Y48096D01*
X359902Y48191D01*
X360009Y48283D01*
X360118Y48372D01*
X360230Y48457D01*
X360344Y48540D01*
X360460Y48620D01*
X360579Y48696D01*
X360700Y48768D01*
X360822Y48838D01*
X360947Y48903D01*
X361073Y48966D01*
X361201Y49024D01*
X361331Y49079D01*
X361462Y49131D01*
X361595Y49178D01*
X361729Y49222D01*
X361864Y49263D01*
X362000Y49299D01*
X362137Y49331D01*
X362275Y49360D01*
X362413Y49385D01*
X362553Y49405D01*
X362693Y49422D01*
X362833Y49435D01*
X362974Y49444D01*
X363114Y49449D01*
X363255Y49450D01*
X363396Y49447D01*
X363537Y49440D01*
X363677Y49429D01*
X363817Y49414D01*
X363957Y49395D01*
X364096Y49373D01*
X364234Y49346D01*
X364372Y49316D01*
X364508Y49281D01*
X364644Y49243D01*
X364778Y49201D01*
X364912Y49155D01*
X365044Y49106D01*
X365174Y49052D01*
X365303Y48995D01*
X365430Y48935D01*
X365556Y48871D01*
X365679Y48803D01*
X365801Y48732D01*
X365921Y48658D01*
X366038Y48580D01*
X366153Y48499D01*
X366266Y48415D01*
X366377Y48328D01*
X366485Y48237D01*
X366590Y48144D01*
X366693Y48047D01*
X366793Y47948D01*
X366890Y47846D01*
X366984Y47741D01*
X367075Y47634D01*
X367163Y47524D01*
X367248Y47412D01*
X367330Y47297D01*
X367409Y47180D01*
X367484Y47061D01*
X367556Y46940D01*
X367624Y46817D01*
X367689Y46692D01*
X367751Y46565D01*
X367808Y46436D01*
X367863Y46306D01*
X367913Y46175D01*
X367960Y46042D01*
X368003Y45908D01*
X368042Y45772D01*
X368077Y45636D01*
X368109Y45499D01*
X368136Y45361D01*
X368160Y45222D01*
X368180Y45082D01*
X368196Y44942D01*
X368208Y44802D01*
X368216Y44661D01*
X368220Y44520D01*
X368220Y44380D01*
X368216Y44239D01*
X368208Y44098D01*
X368196Y43958D01*
X368180Y43818D01*
X368160Y43678D01*
X368136Y43539D01*
X368109Y43401D01*
X368077Y43264D01*
X368042Y43128D01*
X368003Y42992D01*
X367960Y42858D01*
X367913Y42725D01*
X367863Y42594D01*
X367808Y42464D01*
X367751Y42335D01*
X367689Y42208D01*
X367624Y42083D01*
X367556Y41960D01*
X367484Y41839D01*
X367409Y41720D01*
X367330Y41603D01*
X367248Y41488D01*
X367163Y41376D01*
X367075Y41266D01*
X366984Y41159D01*
X366890Y41054D01*
X366793Y40952D01*
X366693Y40853D01*
X366590Y40756D01*
X366485Y40663D01*
X366377Y40572D01*
X366266Y40485D01*
X366153Y40401D01*
X366038Y40320D01*
X365921Y40242D01*
X365801Y40168D01*
X365679Y40097D01*
X365556Y40029D01*
X365430Y39965D01*
X365303Y39905D01*
X365174Y39848D01*
X365044Y39794D01*
X364912Y39745D01*
X364778Y39699D01*
X364644Y39657D01*
X364508Y39619D01*
X364372Y39584D01*
X364234Y39554D01*
X364096Y39527D01*
X363957Y39505D01*
X363817Y39486D01*
X363677Y39471D01*
X363537Y39460D01*
X363396Y39453D01*
X363255Y39450D01*
X363114Y39451D01*
X362974Y39456D01*
X362833Y39465D01*
X362693Y39478D01*
X362553Y39495D01*
X362413Y39515D01*
X362275Y39540D01*
X362137Y39569D01*
X362000Y39601D01*
X361864Y39637D01*
X361729Y39678D01*
X361595Y39722D01*
X361462Y39769D01*
X361331Y39821D01*
X361201Y39876D01*
X361073Y39934D01*
X360947Y39997D01*
X360822Y40062D01*
X360700Y40132D01*
X360579Y40204D01*
X360460Y40280D01*
X360344Y40360D01*
X360230Y40443D01*
X360118Y40528D01*
X360009Y40617D01*
X359902Y40709D01*
X359798Y40804D01*
X359697Y40902D01*
X359598Y41003D01*
X359503Y41106D01*
X359410Y41212D01*
X359320Y41321D01*
X359234Y41432D01*
X359150Y41545D01*
X359070Y41661D01*
X358993Y41779D01*
X358920Y41899D01*
X358849Y42022D01*
X358783Y42146D01*
X358720Y42272D01*
X358660Y42399D01*
X358604Y42528D01*
X358552Y42659D01*
X358503Y42791D01*
X358458Y42925D01*
X358417Y43060D01*
X358380Y43196D01*
X358346Y43332D01*
X358317Y43470D01*
X358291Y43609D01*
X358270Y43748D01*
X358252Y43888D01*
X358238Y44028D01*
X358228Y44168D01*
X358222Y44309D01*
X358220Y44450D01*
D14*
X312420Y69850D03*
D10*
X307420Y44450D02*
X307422Y44591D01*
X307428Y44732D01*
X307438Y44872D01*
X307452Y45012D01*
X307470Y45152D01*
X307491Y45291D01*
X307517Y45430D01*
X307546Y45568D01*
X307580Y45704D01*
X307617Y45840D01*
X307658Y45975D01*
X307703Y46109D01*
X307752Y46241D01*
X307804Y46372D01*
X307860Y46501D01*
X307920Y46628D01*
X307983Y46754D01*
X308049Y46878D01*
X308120Y47001D01*
X308193Y47121D01*
X308270Y47239D01*
X308350Y47355D01*
X308434Y47468D01*
X308520Y47579D01*
X308610Y47688D01*
X308703Y47794D01*
X308798Y47897D01*
X308897Y47998D01*
X308998Y48096D01*
X309102Y48191D01*
X309209Y48283D01*
X309318Y48372D01*
X309430Y48457D01*
X309544Y48540D01*
X309660Y48620D01*
X309779Y48696D01*
X309900Y48768D01*
X310022Y48838D01*
X310147Y48903D01*
X310273Y48966D01*
X310401Y49024D01*
X310531Y49079D01*
X310662Y49131D01*
X310795Y49178D01*
X310929Y49222D01*
X311064Y49263D01*
X311200Y49299D01*
X311337Y49331D01*
X311475Y49360D01*
X311613Y49385D01*
X311753Y49405D01*
X311893Y49422D01*
X312033Y49435D01*
X312174Y49444D01*
X312314Y49449D01*
X312455Y49450D01*
X312596Y49447D01*
X312737Y49440D01*
X312877Y49429D01*
X313017Y49414D01*
X313157Y49395D01*
X313296Y49373D01*
X313434Y49346D01*
X313572Y49316D01*
X313708Y49281D01*
X313844Y49243D01*
X313978Y49201D01*
X314112Y49155D01*
X314244Y49106D01*
X314374Y49052D01*
X314503Y48995D01*
X314630Y48935D01*
X314756Y48871D01*
X314879Y48803D01*
X315001Y48732D01*
X315121Y48658D01*
X315238Y48580D01*
X315353Y48499D01*
X315466Y48415D01*
X315577Y48328D01*
X315685Y48237D01*
X315790Y48144D01*
X315893Y48047D01*
X315993Y47948D01*
X316090Y47846D01*
X316184Y47741D01*
X316275Y47634D01*
X316363Y47524D01*
X316448Y47412D01*
X316530Y47297D01*
X316609Y47180D01*
X316684Y47061D01*
X316756Y46940D01*
X316824Y46817D01*
X316889Y46692D01*
X316951Y46565D01*
X317008Y46436D01*
X317063Y46306D01*
X317113Y46175D01*
X317160Y46042D01*
X317203Y45908D01*
X317242Y45772D01*
X317277Y45636D01*
X317309Y45499D01*
X317336Y45361D01*
X317360Y45222D01*
X317380Y45082D01*
X317396Y44942D01*
X317408Y44802D01*
X317416Y44661D01*
X317420Y44520D01*
X317420Y44380D01*
X317416Y44239D01*
X317408Y44098D01*
X317396Y43958D01*
X317380Y43818D01*
X317360Y43678D01*
X317336Y43539D01*
X317309Y43401D01*
X317277Y43264D01*
X317242Y43128D01*
X317203Y42992D01*
X317160Y42858D01*
X317113Y42725D01*
X317063Y42594D01*
X317008Y42464D01*
X316951Y42335D01*
X316889Y42208D01*
X316824Y42083D01*
X316756Y41960D01*
X316684Y41839D01*
X316609Y41720D01*
X316530Y41603D01*
X316448Y41488D01*
X316363Y41376D01*
X316275Y41266D01*
X316184Y41159D01*
X316090Y41054D01*
X315993Y40952D01*
X315893Y40853D01*
X315790Y40756D01*
X315685Y40663D01*
X315577Y40572D01*
X315466Y40485D01*
X315353Y40401D01*
X315238Y40320D01*
X315121Y40242D01*
X315001Y40168D01*
X314879Y40097D01*
X314756Y40029D01*
X314630Y39965D01*
X314503Y39905D01*
X314374Y39848D01*
X314244Y39794D01*
X314112Y39745D01*
X313978Y39699D01*
X313844Y39657D01*
X313708Y39619D01*
X313572Y39584D01*
X313434Y39554D01*
X313296Y39527D01*
X313157Y39505D01*
X313017Y39486D01*
X312877Y39471D01*
X312737Y39460D01*
X312596Y39453D01*
X312455Y39450D01*
X312314Y39451D01*
X312174Y39456D01*
X312033Y39465D01*
X311893Y39478D01*
X311753Y39495D01*
X311613Y39515D01*
X311475Y39540D01*
X311337Y39569D01*
X311200Y39601D01*
X311064Y39637D01*
X310929Y39678D01*
X310795Y39722D01*
X310662Y39769D01*
X310531Y39821D01*
X310401Y39876D01*
X310273Y39934D01*
X310147Y39997D01*
X310022Y40062D01*
X309900Y40132D01*
X309779Y40204D01*
X309660Y40280D01*
X309544Y40360D01*
X309430Y40443D01*
X309318Y40528D01*
X309209Y40617D01*
X309102Y40709D01*
X308998Y40804D01*
X308897Y40902D01*
X308798Y41003D01*
X308703Y41106D01*
X308610Y41212D01*
X308520Y41321D01*
X308434Y41432D01*
X308350Y41545D01*
X308270Y41661D01*
X308193Y41779D01*
X308120Y41899D01*
X308049Y42022D01*
X307983Y42146D01*
X307920Y42272D01*
X307860Y42399D01*
X307804Y42528D01*
X307752Y42659D01*
X307703Y42791D01*
X307658Y42925D01*
X307617Y43060D01*
X307580Y43196D01*
X307546Y43332D01*
X307517Y43470D01*
X307491Y43609D01*
X307470Y43748D01*
X307452Y43888D01*
X307438Y44028D01*
X307428Y44168D01*
X307422Y44309D01*
X307420Y44450D01*
D11*
X1296670Y15240D03*
X1296670Y34290D03*
X1296670Y53340D03*
D15*
X50800Y40640D03*
X63500Y40640D03*
X45720Y207010D03*
X35560Y196850D03*
D16*
X55880Y40640D02*
X63500Y40640D01*
X55880Y40640D02*
X55880Y49530D01*
X57150Y50800D01*
X55880Y40640D02*
X54610Y39370D01*
X54610Y31750D01*
D17*
X63500Y40640D02*
X69850Y40640D01*
D18*
X63500Y44450D02*
X67310Y48260D01*
X63500Y44450D02*
X63500Y40640D01*
X63500Y36830D01*
X67310Y33020D01*
D19*
X74930Y66040D03*
X88900Y40640D03*
X62230Y215900D03*
X63500Y193040D03*
D20*
X45720Y207010D02*
X39370Y200660D01*
D21*
X26670Y213360D02*
X26670Y218440D01*
X26670Y213360D02*
X30480Y209550D01*
X35560Y204470D01*
X39370Y200660D02*
X54610Y200660D01*
X39370Y200660D02*
X35560Y204470D01*
X35560Y215900D01*
X36830Y217170D01*
X35560Y204470D02*
X48260Y204470D01*
X30480Y209550D02*
X30480Y220980D01*
D20*
X29210Y198120D02*
X34290Y198120D01*
X35560Y196850D01*
D15*
X27940Y204470D03*
X38100Y214630D03*
D22*
X755650Y272640D03*
X750570Y226990D03*
D21*
X55384Y40156D02*
X53816Y40156D01*
X53816Y41124D01*
X63016Y41124D01*
X63016Y40156D01*
X55384Y40156D01*
X994766Y225238D02*
X994766Y229422D01*
X993165Y233287D01*
X990962Y235490D01*
X1002990Y235490D01*
X1002799Y235351D01*
X1001629Y234181D01*
X1000656Y232842D01*
X999904Y231367D01*
X999393Y229793D01*
X999164Y228346D01*
X1008634Y228346D01*
X1008634Y226314D01*
X999164Y226314D01*
X999393Y224867D01*
X999904Y223293D01*
X1000656Y221818D01*
X1001629Y220479D01*
X1002799Y219309D01*
X1004138Y218336D01*
X1005613Y217584D01*
X1006917Y217161D01*
X1006386Y216630D01*
X931521Y216630D01*
X920210Y227941D01*
X917551Y230600D01*
X780439Y230600D01*
X777780Y227941D01*
X766469Y216630D01*
X228254Y216630D01*
X228433Y216704D01*
X229693Y217546D01*
X230764Y218617D01*
X231606Y219877D01*
X232185Y221277D01*
X232481Y222762D01*
X232481Y223161D01*
X225149Y223161D01*
X225149Y223879D01*
X232481Y223879D01*
X232481Y224278D01*
X232185Y225763D01*
X231606Y227163D01*
X230764Y228423D01*
X229693Y229494D01*
X228433Y230336D01*
X227033Y230915D01*
X225548Y231211D01*
X225149Y231211D01*
X225149Y223879D01*
X224431Y223879D01*
X224431Y231211D01*
X224032Y231211D01*
X222547Y230915D01*
X221147Y230336D01*
X219887Y229494D01*
X218816Y228423D01*
X217974Y227163D01*
X217395Y225763D01*
X217099Y224278D01*
X217099Y223879D01*
X224431Y223879D01*
X224431Y223161D01*
X217099Y223161D01*
X217099Y222762D01*
X217395Y221277D01*
X217974Y219877D01*
X218816Y218617D01*
X219887Y217546D01*
X221147Y216704D01*
X221326Y216630D01*
X159474Y216630D01*
X158574Y217529D01*
X156216Y218506D01*
X153664Y218506D01*
X151306Y217529D01*
X149501Y215724D01*
X148524Y213366D01*
X148524Y210814D01*
X149501Y208456D01*
X151306Y206651D01*
X153664Y205674D01*
X156216Y205674D01*
X158574Y206651D01*
X159474Y207550D01*
X224875Y207550D01*
X217964Y200639D01*
X217964Y143535D01*
X217932Y143503D01*
X217932Y10107D01*
X212111Y4286D01*
X84836Y4286D01*
X84836Y9684D01*
X100091Y9684D01*
X134381Y43974D01*
X137636Y47229D01*
X137636Y217409D01*
X173751Y253524D01*
X752298Y253524D01*
X754374Y252664D01*
X756926Y252664D01*
X759002Y253524D01*
X820181Y253524D01*
X823436Y256779D01*
X834151Y267494D01*
X846585Y267494D01*
X847498Y266581D01*
X846731Y265814D01*
X845754Y263456D01*
X845754Y260904D01*
X846731Y258546D01*
X848531Y256745D01*
X848080Y256444D01*
X847186Y255550D01*
X846484Y254499D01*
X846001Y253331D01*
X845754Y252092D01*
X845754Y251460D01*
X852170Y251460D01*
X852170Y251460D01*
X845754Y251460D01*
X845754Y250828D01*
X846001Y249589D01*
X846484Y248421D01*
X847186Y247370D01*
X848080Y246476D01*
X849131Y245774D01*
X850299Y245291D01*
X851538Y245044D01*
X852170Y245044D01*
X852170Y251460D01*
X852170Y251460D01*
X852170Y245044D01*
X852802Y245044D01*
X854041Y245291D01*
X855209Y245774D01*
X856260Y246476D01*
X857154Y247370D01*
X857856Y248421D01*
X858339Y249589D01*
X858586Y250828D01*
X858586Y251460D01*
X852170Y251460D01*
X852170Y251460D01*
X858586Y251460D01*
X858586Y252092D01*
X858339Y253331D01*
X857856Y254499D01*
X857154Y255550D01*
X856260Y256444D01*
X855809Y256745D01*
X857609Y258546D01*
X858586Y260904D01*
X858586Y263456D01*
X857609Y265814D01*
X856842Y266581D01*
X857755Y267494D01*
X879079Y267494D01*
X884714Y261859D01*
X884714Y261859D01*
X887969Y258604D01*
X927988Y258604D01*
X926654Y257271D01*
X925434Y254324D01*
X925434Y251136D01*
X926654Y248189D01*
X928909Y245934D01*
X931856Y244714D01*
X935044Y244714D01*
X937991Y245934D01*
X940246Y248189D01*
X941466Y251136D01*
X941466Y254324D01*
X940246Y257271D01*
X938912Y258604D01*
X945119Y258604D01*
X945779Y257944D01*
X948334Y251556D01*
X948334Y250638D01*
X949935Y246773D01*
X952138Y244570D01*
X922744Y244570D01*
X921844Y245469D01*
X919486Y246446D01*
X916934Y246446D01*
X914576Y245469D01*
X912771Y243664D01*
X911794Y241306D01*
X911794Y238754D01*
X912771Y236396D01*
X914576Y234591D01*
X916934Y233614D01*
X919486Y233614D01*
X921844Y234591D01*
X922744Y235490D01*
X977538Y235490D01*
X975335Y233287D01*
X973734Y229422D01*
X973734Y225238D01*
X975335Y221373D01*
X978293Y218415D01*
X982158Y216814D01*
X986342Y216814D01*
X990207Y218415D01*
X993165Y221373D01*
X994766Y225238D01*
X704850Y240960D02*
X704850Y247376D01*
X704850Y240960D02*
X704850Y240960D01*
X704850Y247376D01*
X704218Y247376D01*
X702979Y247129D01*
X701811Y246646D01*
X700760Y245944D01*
X699866Y245050D01*
X699164Y243999D01*
X698681Y242831D01*
X698434Y241592D01*
X698434Y240960D01*
X704850Y240960D01*
X704850Y240960D01*
X698434Y240960D01*
X698434Y240328D01*
X698681Y239089D01*
X699164Y237921D01*
X699866Y236870D01*
X700760Y235976D01*
X701811Y235274D01*
X702979Y234791D01*
X704218Y234544D01*
X704850Y234544D01*
X704850Y240960D01*
X704850Y240960D01*
X704850Y234544D01*
X705482Y234544D01*
X706721Y234791D01*
X707889Y235274D01*
X708940Y235976D01*
X709834Y236870D01*
X710536Y237921D01*
X711019Y239089D01*
X711266Y240328D01*
X711266Y240960D01*
X704850Y240960D01*
X704850Y240960D01*
X711266Y240960D01*
X711266Y241592D01*
X711019Y242831D01*
X710536Y243999D01*
X709834Y245050D01*
X708940Y245944D01*
X707889Y246646D01*
X706721Y247129D01*
X705482Y247376D01*
X704850Y247376D01*
X199749Y205811D02*
X199749Y198479D01*
X199031Y198479D01*
X199031Y205811D01*
X198632Y205811D01*
X197147Y205515D01*
X195747Y204936D01*
X194487Y204094D01*
X193416Y203023D01*
X192574Y201763D01*
X191995Y200363D01*
X191699Y198878D01*
X191699Y198479D01*
X199031Y198479D01*
X199031Y197761D01*
X191699Y197761D01*
X191699Y197362D01*
X191995Y195877D01*
X192574Y194477D01*
X193416Y193217D01*
X194487Y192146D01*
X195747Y191304D01*
X197147Y190725D01*
X198632Y190429D01*
X199031Y190429D01*
X199031Y197761D01*
X199749Y197761D01*
X199749Y190429D01*
X200148Y190429D01*
X201633Y190725D01*
X203033Y191304D01*
X204293Y192146D01*
X205364Y193217D01*
X206206Y194477D01*
X206785Y195877D01*
X207081Y197362D01*
X207081Y197761D01*
X199749Y197761D01*
X199749Y198479D01*
X207081Y198479D01*
X207081Y198878D01*
X206785Y200363D01*
X206206Y201763D01*
X205364Y203023D01*
X204293Y204094D01*
X203033Y204936D01*
X201633Y205515D01*
X200148Y205811D01*
X199749Y205811D01*
X154029Y116911D02*
X154029Y109579D01*
X153311Y109579D01*
X153311Y116911D01*
X152912Y116911D01*
X151427Y116615D01*
X150027Y116036D01*
X148767Y115194D01*
X147696Y114123D01*
X146854Y112863D01*
X146275Y111463D01*
X145979Y109978D01*
X145979Y109579D01*
X153311Y109579D01*
X153311Y108861D01*
X145979Y108861D01*
X145979Y108462D01*
X146275Y106977D01*
X146854Y105577D01*
X147696Y104317D01*
X148767Y103246D01*
X150027Y102404D01*
X151427Y101825D01*
X152912Y101529D01*
X153311Y101529D01*
X153311Y108861D01*
X154029Y108861D01*
X154029Y101529D01*
X154428Y101529D01*
X155913Y101825D01*
X157313Y102404D01*
X158573Y103246D01*
X159644Y104317D01*
X160486Y105577D01*
X161065Y106977D01*
X161361Y108462D01*
X161361Y108861D01*
X154029Y108861D01*
X154029Y109579D01*
X161361Y109579D01*
X161361Y109978D01*
X161065Y111463D01*
X160486Y112863D01*
X159644Y114123D01*
X158573Y115194D01*
X157313Y116036D01*
X155913Y116615D01*
X154428Y116911D01*
X154029Y116911D01*
X154029Y66111D02*
X154029Y58779D01*
X153311Y58779D01*
X153311Y66111D01*
X152912Y66111D01*
X151427Y65815D01*
X150027Y65236D01*
X148767Y64394D01*
X147696Y63323D01*
X146854Y62063D01*
X146275Y60663D01*
X145979Y59178D01*
X145979Y58779D01*
X153311Y58779D01*
X153311Y58061D01*
X145979Y58061D01*
X145979Y57662D01*
X146275Y56177D01*
X146854Y54777D01*
X147696Y53517D01*
X148767Y52446D01*
X150027Y51604D01*
X151427Y51025D01*
X152912Y50729D01*
X153311Y50729D01*
X153311Y58061D01*
X154029Y58061D01*
X154029Y50729D01*
X154428Y50729D01*
X155913Y51025D01*
X157313Y51604D01*
X158573Y52446D01*
X159644Y53517D01*
X160486Y54777D01*
X161065Y56177D01*
X161361Y57662D01*
X161361Y58061D01*
X154029Y58061D01*
X154029Y58779D01*
X161361Y58779D01*
X161361Y59178D01*
X161065Y60663D01*
X160486Y62063D01*
X159644Y63323D01*
X158573Y64394D01*
X157313Y65236D01*
X155913Y65815D01*
X154428Y66111D01*
X154029Y66111D01*
X750570Y226990D02*
X750570Y233406D01*
X750570Y226990D02*
X750570Y226990D01*
X750570Y233406D01*
X749938Y233406D01*
X748699Y233159D01*
X747531Y232676D01*
X746480Y231974D01*
X745586Y231080D01*
X744884Y230029D01*
X744401Y228861D01*
X744154Y227622D01*
X744154Y226990D01*
X750570Y226990D01*
X750570Y226990D01*
X744154Y226990D01*
X744154Y226358D01*
X744401Y225119D01*
X744884Y223951D01*
X745586Y222900D01*
X746480Y222006D01*
X747531Y221304D01*
X748699Y220821D01*
X749938Y220574D01*
X750570Y220574D01*
X750570Y226990D01*
X750570Y226990D01*
X750570Y220574D01*
X751202Y220574D01*
X752441Y220821D01*
X753609Y221304D01*
X754660Y222006D01*
X755554Y222900D01*
X756256Y223951D01*
X756739Y225119D01*
X756986Y226358D01*
X756986Y226990D01*
X750570Y226990D01*
X750570Y226990D01*
X756986Y226990D01*
X756986Y227622D01*
X756739Y228861D01*
X756256Y230029D01*
X755554Y231080D01*
X754660Y231974D01*
X753609Y232676D01*
X752441Y233159D01*
X751202Y233406D01*
X750570Y233406D01*
X941466Y228924D02*
X941466Y225736D01*
X941466Y228924D02*
X940246Y231871D01*
X937991Y234126D01*
X935044Y235346D01*
X931856Y235346D01*
X928909Y234126D01*
X926654Y231871D01*
X925434Y228924D01*
X925434Y225736D01*
X926654Y222789D01*
X928909Y220534D01*
X931856Y219314D01*
X935044Y219314D01*
X937991Y220534D01*
X940246Y222789D01*
X941466Y225736D01*
X966866Y225736D02*
X966866Y228924D01*
X965646Y231871D01*
X963391Y234126D01*
X960444Y235346D01*
X957256Y235346D01*
X954309Y234126D01*
X952054Y231871D01*
X950834Y228924D01*
X950834Y225736D01*
X952054Y222789D01*
X954309Y220534D01*
X957256Y219314D01*
X960444Y219314D01*
X963391Y220534D01*
X965646Y222789D01*
X966866Y225736D01*
X154029Y91511D02*
X154029Y84179D01*
X153311Y84179D01*
X153311Y91511D01*
X152912Y91511D01*
X151427Y91215D01*
X150027Y90636D01*
X148767Y89794D01*
X147696Y88723D01*
X146854Y87463D01*
X146275Y86063D01*
X145979Y84578D01*
X145979Y84179D01*
X153311Y84179D01*
X153311Y83461D01*
X145979Y83461D01*
X145979Y83062D01*
X146275Y81577D01*
X146854Y80177D01*
X147696Y78917D01*
X148767Y77846D01*
X150027Y77004D01*
X151427Y76425D01*
X152912Y76129D01*
X153311Y76129D01*
X153311Y83461D01*
X154029Y83461D01*
X154029Y76129D01*
X154428Y76129D01*
X155913Y76425D01*
X157313Y77004D01*
X158573Y77846D01*
X159644Y78917D01*
X160486Y80177D01*
X161065Y81577D01*
X161361Y83062D01*
X161361Y83461D01*
X154029Y83461D01*
X154029Y84179D01*
X161361Y84179D01*
X161361Y84578D01*
X161065Y86063D01*
X160486Y87463D01*
X159644Y88723D01*
X158573Y89794D01*
X157313Y90636D01*
X155913Y91215D01*
X154428Y91511D01*
X154029Y91511D01*
X166729Y230229D02*
X166729Y237561D01*
X166729Y230229D02*
X166011Y230229D01*
X166011Y237561D01*
X165612Y237561D01*
X164127Y237265D01*
X162727Y236686D01*
X161467Y235844D01*
X160396Y234773D01*
X159554Y233513D01*
X158975Y232113D01*
X158679Y230628D01*
X158679Y230229D01*
X166011Y230229D01*
X166011Y229511D01*
X158679Y229511D01*
X158679Y229112D01*
X158975Y227627D01*
X159554Y226227D01*
X160396Y224967D01*
X161467Y223896D01*
X162727Y223054D01*
X164127Y222475D01*
X165612Y222179D01*
X166011Y222179D01*
X166011Y229511D01*
X166729Y229511D01*
X166729Y222179D01*
X167128Y222179D01*
X168613Y222475D01*
X170013Y223054D01*
X171273Y223896D01*
X172344Y224967D01*
X173186Y226227D01*
X173765Y227627D01*
X174061Y229112D01*
X174061Y229511D01*
X166729Y229511D01*
X166729Y230229D01*
X174061Y230229D01*
X174061Y230628D01*
X173765Y232113D01*
X173186Y233513D01*
X172344Y234773D01*
X171273Y235844D01*
X170013Y236686D01*
X168613Y237265D01*
X167128Y237561D01*
X166729Y237561D01*
X810326Y278124D02*
X810326Y280676D01*
X809349Y283034D01*
X807544Y284839D01*
X805186Y285816D01*
X803555Y285816D01*
X796766Y292605D01*
X796477Y292894D01*
X894101Y292894D01*
X908844Y278151D01*
X910611Y276384D01*
X1065551Y276384D01*
X1072642Y269293D01*
X1072642Y212083D01*
X1046455Y185896D01*
X938509Y185896D01*
X914379Y210026D01*
X794750Y210026D01*
X794924Y210200D01*
X795626Y211251D01*
X796109Y212419D01*
X796356Y213658D01*
X796356Y214290D01*
X789940Y214290D01*
X789940Y214290D01*
X796356Y214290D01*
X796356Y214922D01*
X796109Y216161D01*
X795626Y217329D01*
X794924Y218380D01*
X794030Y219274D01*
X792979Y219976D01*
X791811Y220459D01*
X790572Y220706D01*
X789940Y220706D01*
X789940Y214290D01*
X789940Y214290D01*
X789940Y220706D01*
X789308Y220706D01*
X788069Y220459D01*
X786901Y219976D01*
X785850Y219274D01*
X784956Y218380D01*
X784254Y217329D01*
X783771Y216161D01*
X783524Y214922D01*
X783524Y214290D01*
X789940Y214290D01*
X789940Y214290D01*
X783524Y214290D01*
X783524Y213658D01*
X783771Y212419D01*
X784254Y211251D01*
X784956Y210200D01*
X785130Y210026D01*
X772706Y210026D01*
X784201Y221520D01*
X913789Y221520D01*
X927759Y207550D01*
X1006386Y207550D01*
X1007286Y206651D01*
X1009644Y205674D01*
X1012196Y205674D01*
X1014554Y206651D01*
X1016359Y208456D01*
X1017336Y210814D01*
X1017336Y213366D01*
X1016359Y215724D01*
X1014554Y217529D01*
X1014016Y217752D01*
X1015162Y218336D01*
X1016501Y219309D01*
X1017671Y220479D01*
X1018644Y221818D01*
X1019396Y223293D01*
X1019907Y224867D01*
X1020136Y226314D01*
X1010666Y226314D01*
X1010666Y228346D01*
X1020136Y228346D01*
X1019907Y229793D01*
X1019396Y231367D01*
X1018644Y232842D01*
X1017671Y234181D01*
X1016501Y235351D01*
X1016310Y235490D01*
X1028338Y235490D01*
X1026135Y233287D01*
X1024534Y229422D01*
X1024534Y225238D01*
X1026135Y221373D01*
X1029093Y218415D01*
X1032958Y216814D01*
X1037142Y216814D01*
X1041007Y218415D01*
X1043965Y221373D01*
X1045566Y225238D01*
X1045566Y229422D01*
X1043965Y233287D01*
X1041762Y235490D01*
X1049631Y235490D01*
X1049934Y235794D01*
X1049934Y218581D01*
X1051701Y216814D01*
X1069199Y216814D01*
X1070966Y218581D01*
X1070966Y236079D01*
X1069199Y237846D01*
X1051986Y237846D01*
X1052290Y238149D01*
X1055500Y241360D01*
X1058918Y242214D01*
X1062542Y242214D01*
X1066407Y243815D01*
X1069365Y246773D01*
X1070966Y250638D01*
X1070966Y254822D01*
X1069365Y258687D01*
X1066407Y261645D01*
X1062542Y263246D01*
X1058358Y263246D01*
X1054493Y261645D01*
X1051535Y258687D01*
X1049934Y254822D01*
X1049934Y251198D01*
X1049080Y247780D01*
X1045869Y244570D01*
X1041762Y244570D01*
X1043965Y246773D01*
X1045566Y250638D01*
X1045566Y254822D01*
X1043965Y258687D01*
X1041007Y261645D01*
X1037142Y263246D01*
X1032958Y263246D01*
X1029093Y261645D01*
X1026135Y258687D01*
X1024534Y254822D01*
X1024534Y250638D01*
X1026135Y246773D01*
X1028338Y244570D01*
X1016310Y244570D01*
X1016501Y244709D01*
X1017671Y245879D01*
X1018644Y247218D01*
X1019396Y248693D01*
X1019907Y250267D01*
X1020136Y251714D01*
X1010666Y251714D01*
X1010666Y253746D01*
X1020136Y253746D01*
X1019907Y255193D01*
X1019396Y256767D01*
X1018644Y258242D01*
X1017671Y259581D01*
X1016501Y260751D01*
X1015162Y261724D01*
X1013687Y262476D01*
X1012113Y262987D01*
X1010666Y263216D01*
X1010666Y253746D01*
X1008634Y253746D01*
X1008634Y263216D01*
X1007187Y262987D01*
X1005613Y262476D01*
X1004138Y261724D01*
X1002799Y260751D01*
X1001629Y259581D01*
X1000656Y258242D01*
X999904Y256767D01*
X999393Y255193D01*
X999164Y253746D01*
X1008634Y253746D01*
X1008634Y251714D01*
X999164Y251714D01*
X999393Y250267D01*
X999904Y248693D01*
X1000656Y247218D01*
X1001629Y245879D01*
X1002799Y244709D01*
X1002990Y244570D01*
X965562Y244570D01*
X967765Y246773D01*
X969366Y250638D01*
X969366Y254822D01*
X967765Y258687D01*
X964807Y261645D01*
X960942Y263246D01*
X959439Y263246D01*
X954568Y264870D01*
X952261Y267176D01*
X952261Y267176D01*
X949721Y269716D01*
X908116Y269716D01*
X908116Y271076D01*
X907139Y273434D01*
X905334Y275239D01*
X902976Y276216D01*
X900424Y276216D01*
X898066Y275239D01*
X896261Y273434D01*
X895284Y271076D01*
X895284Y269716D01*
X892571Y269716D01*
X886936Y275351D01*
X886936Y275351D01*
X883681Y278606D01*
X829549Y278606D01*
X815579Y264636D01*
X759002Y264636D01*
X756926Y265496D01*
X754374Y265496D01*
X752298Y264636D01*
X169149Y264636D01*
X129779Y225266D01*
X126524Y222011D01*
X126524Y51831D01*
X95489Y20796D01*
X84836Y20796D01*
X84836Y27091D01*
X84241Y27686D01*
X53816Y27686D01*
X53816Y31274D01*
X63897Y31274D01*
X64664Y31480D01*
X65352Y31877D01*
X65913Y32438D01*
X66230Y32986D01*
X67344Y33448D01*
X68674Y34336D01*
X69804Y35466D01*
X70692Y36796D01*
X71304Y38273D01*
X71616Y39841D01*
X71616Y40156D01*
X63984Y40156D01*
X63984Y41124D01*
X71616Y41124D01*
X71616Y41439D01*
X71304Y43007D01*
X70692Y44484D01*
X69804Y45814D01*
X68674Y46944D01*
X67344Y47832D01*
X66230Y48294D01*
X65913Y48842D01*
X65352Y49403D01*
X64664Y49800D01*
X63897Y50006D01*
X55541Y50006D01*
X63976Y58441D01*
X63976Y91419D01*
X63701Y91694D01*
X76621Y91694D01*
X77216Y92289D01*
X77216Y105950D01*
X78081Y105950D01*
X80740Y108609D01*
X80740Y112371D01*
X78081Y115030D01*
X77216Y115030D01*
X77216Y125000D01*
X78081Y125000D01*
X80740Y127659D01*
X80740Y131421D01*
X78081Y134080D01*
X77216Y134080D01*
X77216Y144050D01*
X78081Y144050D01*
X80740Y146709D01*
X80740Y150471D01*
X78081Y153130D01*
X77216Y153130D01*
X77216Y169450D01*
X78081Y169450D01*
X80740Y172109D01*
X80740Y175871D01*
X78081Y178530D01*
X77216Y178530D01*
X77216Y184571D01*
X76621Y185166D01*
X51509Y185166D01*
X44995Y191680D01*
X45094Y191778D01*
X45954Y192639D01*
X45625Y192968D01*
X45696Y193233D01*
X45696Y194027D01*
X45491Y194794D01*
X45094Y195482D01*
X43241Y197334D01*
X43676Y197334D01*
X43676Y197649D01*
X43641Y197826D01*
X47391Y194076D01*
X51444Y198128D01*
X51841Y198816D01*
X52046Y199583D01*
X52046Y200377D01*
X51841Y201144D01*
X51654Y201467D01*
X52024Y201836D01*
X52912Y203166D01*
X53524Y204643D01*
X53836Y206211D01*
X53836Y206526D01*
X46750Y206526D01*
X46204Y207071D01*
X46204Y207494D01*
X53836Y207494D01*
X53836Y207809D01*
X53524Y209377D01*
X52912Y210854D01*
X52024Y212184D01*
X50894Y213314D01*
X49564Y214202D01*
X48087Y214814D01*
X46519Y215126D01*
X46216Y215126D01*
X46216Y215429D01*
X45904Y216997D01*
X45292Y218474D01*
X44404Y219804D01*
X43274Y220934D01*
X41944Y221822D01*
X40467Y222434D01*
X38899Y222746D01*
X38584Y222746D01*
X38584Y215114D01*
X38161Y215114D01*
X37616Y215660D01*
X37616Y222746D01*
X37301Y222746D01*
X35733Y222434D01*
X34256Y221822D01*
X32926Y220934D01*
X32557Y220564D01*
X32234Y220751D01*
X31467Y220956D01*
X30673Y220956D01*
X29906Y220751D01*
X29218Y220354D01*
X25166Y216301D01*
X28916Y212551D01*
X28739Y212586D01*
X28424Y212586D01*
X28424Y212151D01*
X26572Y214004D01*
X25884Y214401D01*
X25117Y214606D01*
X24323Y214606D01*
X24058Y214535D01*
X23729Y214864D01*
X22868Y214004D01*
X22770Y213905D01*
X5281Y231394D01*
X25821Y231394D01*
X26416Y231989D01*
X26416Y239554D01*
X42415Y239554D01*
X83055Y280194D01*
X784355Y280194D01*
X784794Y279755D01*
X784794Y278124D01*
X785771Y275766D01*
X787576Y273961D01*
X789934Y272984D01*
X792486Y272984D01*
X794844Y273961D01*
X796649Y275766D01*
X797560Y277964D01*
X798471Y275766D01*
X800276Y273961D01*
X802634Y272984D01*
X805186Y272984D01*
X807544Y273961D01*
X809349Y275766D01*
X810326Y278124D01*
X128629Y250261D02*
X128629Y242929D01*
X127911Y242929D01*
X127911Y250261D01*
X127512Y250261D01*
X126027Y249965D01*
X124627Y249386D01*
X123367Y248544D01*
X122296Y247473D01*
X121454Y246213D01*
X120875Y244813D01*
X120579Y243328D01*
X120579Y242929D01*
X127911Y242929D01*
X127911Y242211D01*
X120579Y242211D01*
X120579Y241812D01*
X120875Y240327D01*
X121454Y238927D01*
X122296Y237667D01*
X123367Y236596D01*
X124627Y235754D01*
X126027Y235175D01*
X127512Y234879D01*
X127911Y234879D01*
X127911Y242211D01*
X128629Y242211D01*
X128629Y234879D01*
X129028Y234879D01*
X130513Y235175D01*
X131913Y235754D01*
X133173Y236596D01*
X134244Y237667D01*
X135086Y238927D01*
X135665Y240327D01*
X135961Y241812D01*
X135961Y242211D01*
X128629Y242211D01*
X128629Y242929D01*
X135961Y242929D01*
X135961Y243328D01*
X135665Y244813D01*
X135086Y246213D01*
X134244Y247473D01*
X133173Y248544D01*
X131913Y249386D01*
X130513Y249965D01*
X129028Y250261D01*
X128629Y250261D01*
X113389Y91511D02*
X113389Y84179D01*
X112671Y84179D01*
X112671Y91511D01*
X112272Y91511D01*
X110787Y91215D01*
X109387Y90636D01*
X108127Y89794D01*
X107056Y88723D01*
X106214Y87463D01*
X105635Y86063D01*
X105339Y84578D01*
X105339Y84179D01*
X112671Y84179D01*
X112671Y83461D01*
X105339Y83461D01*
X105339Y83062D01*
X105635Y81577D01*
X106214Y80177D01*
X107056Y78917D01*
X108127Y77846D01*
X109387Y77004D01*
X110787Y76425D01*
X112272Y76129D01*
X112671Y76129D01*
X112671Y83461D01*
X113389Y83461D01*
X113389Y76129D01*
X113788Y76129D01*
X115273Y76425D01*
X116673Y77004D01*
X117933Y77846D01*
X119004Y78917D01*
X119846Y80177D01*
X120425Y81577D01*
X120721Y83062D01*
X120721Y83461D01*
X113389Y83461D01*
X113389Y84179D01*
X120721Y84179D01*
X120721Y84578D01*
X120425Y86063D01*
X119846Y87463D01*
X119004Y88723D01*
X117933Y89794D01*
X116673Y90636D01*
X115273Y91215D01*
X113788Y91511D01*
X113389Y91511D01*
X63859Y193399D02*
X63859Y200731D01*
X63859Y193399D02*
X63141Y193399D01*
X63141Y200731D01*
X62742Y200731D01*
X61257Y200435D01*
X59857Y199856D01*
X58597Y199014D01*
X57526Y197943D01*
X56684Y196683D01*
X56105Y195283D01*
X55809Y193798D01*
X55809Y193399D01*
X63141Y193399D01*
X63141Y192681D01*
X55809Y192681D01*
X55809Y192282D01*
X56105Y190797D01*
X56684Y189397D01*
X57526Y188137D01*
X58597Y187066D01*
X59857Y186224D01*
X61257Y185645D01*
X62742Y185349D01*
X63141Y185349D01*
X63141Y192681D01*
X63859Y192681D01*
X63859Y185349D01*
X64258Y185349D01*
X65743Y185645D01*
X67143Y186224D01*
X68403Y187066D01*
X69474Y188137D01*
X70316Y189397D01*
X70895Y190797D01*
X71191Y192282D01*
X71191Y192681D01*
X63859Y192681D01*
X63859Y193399D01*
X71191Y193399D01*
X71191Y193798D01*
X70895Y195283D01*
X70316Y196683D01*
X69474Y197943D01*
X68403Y199014D01*
X67143Y199856D01*
X65743Y200435D01*
X64258Y200731D01*
X63859Y200731D01*
X89259Y48331D02*
X89259Y40999D01*
X88541Y40999D01*
X88541Y48331D01*
X88142Y48331D01*
X86657Y48035D01*
X85257Y47456D01*
X83997Y46614D01*
X82926Y45543D01*
X82084Y44283D01*
X81505Y42883D01*
X81209Y41398D01*
X81209Y40999D01*
X88541Y40999D01*
X88541Y40281D01*
X81209Y40281D01*
X81209Y39882D01*
X81505Y38397D01*
X82084Y36997D01*
X82926Y35737D01*
X83997Y34666D01*
X85257Y33824D01*
X86657Y33245D01*
X88142Y32949D01*
X88541Y32949D01*
X88541Y40281D01*
X89259Y40281D01*
X89259Y32949D01*
X89658Y32949D01*
X91143Y33245D01*
X92543Y33824D01*
X93803Y34666D01*
X94874Y35737D01*
X95716Y36997D01*
X96295Y38397D01*
X96591Y39882D01*
X96591Y40281D01*
X89259Y40281D01*
X89259Y40999D01*
X96591Y40999D01*
X96591Y41398D01*
X96295Y42883D01*
X95716Y44283D01*
X94874Y45543D01*
X93803Y46614D01*
X92543Y47456D01*
X91143Y48035D01*
X89658Y48331D01*
X89259Y48331D01*
X992266Y251136D02*
X992266Y254324D01*
X991046Y257271D01*
X988791Y259526D01*
X985844Y260746D01*
X982656Y260746D01*
X979709Y259526D01*
X977454Y257271D01*
X976234Y254324D01*
X976234Y251136D01*
X977454Y248189D01*
X979709Y245934D01*
X982656Y244714D01*
X985844Y244714D01*
X988791Y245934D01*
X991046Y248189D01*
X992266Y251136D01*
X75289Y73731D02*
X75289Y66399D01*
X74571Y66399D01*
X74571Y73731D01*
X74172Y73731D01*
X72687Y73435D01*
X71287Y72856D01*
X70027Y72014D01*
X68956Y70943D01*
X68114Y69683D01*
X67535Y68283D01*
X67239Y66798D01*
X67239Y66399D01*
X74571Y66399D01*
X74571Y65681D01*
X67239Y65681D01*
X67239Y65282D01*
X67535Y63797D01*
X68114Y62397D01*
X68956Y61137D01*
X70027Y60066D01*
X71287Y59224D01*
X72687Y58645D01*
X74172Y58349D01*
X74571Y58349D01*
X74571Y65681D01*
X75289Y65681D01*
X75289Y58349D01*
X75688Y58349D01*
X77173Y58645D01*
X78573Y59224D01*
X79833Y60066D01*
X80904Y61137D01*
X81746Y62397D01*
X82325Y63797D01*
X82621Y65282D01*
X82621Y65681D01*
X75289Y65681D01*
X75289Y66399D01*
X82621Y66399D01*
X82621Y66798D01*
X82325Y68283D01*
X81746Y69683D01*
X80904Y70943D01*
X79833Y72014D01*
X78573Y72856D01*
X77173Y73435D01*
X75688Y73731D01*
X75289Y73731D01*
X62589Y216259D02*
X62589Y223591D01*
X62589Y216259D02*
X61871Y216259D01*
X61871Y223591D01*
X61472Y223591D01*
X59987Y223295D01*
X58587Y222716D01*
X57327Y221874D01*
X56256Y220803D01*
X55414Y219543D01*
X54835Y218143D01*
X54539Y216658D01*
X54539Y216259D01*
X61871Y216259D01*
X61871Y215541D01*
X54539Y215541D01*
X54539Y215142D01*
X54835Y213657D01*
X55414Y212257D01*
X56256Y210997D01*
X57327Y209926D01*
X58587Y209084D01*
X59987Y208505D01*
X61472Y208209D01*
X61871Y208209D01*
X61871Y215541D01*
X62589Y215541D01*
X62589Y208209D01*
X62988Y208209D01*
X64473Y208505D01*
X65873Y209084D01*
X67133Y209926D01*
X68204Y210997D01*
X69046Y212257D01*
X69625Y213657D01*
X69921Y215142D01*
X69921Y215541D01*
X62589Y215541D01*
X62589Y216259D01*
X69921Y216259D01*
X69921Y216658D01*
X69625Y218143D01*
X69046Y219543D01*
X68204Y220803D01*
X67133Y221874D01*
X65873Y222716D01*
X64473Y223295D01*
X62988Y223591D01*
X62589Y223591D01*
X755650Y272640D02*
X755650Y279056D01*
X755650Y272640D02*
X755650Y272640D01*
X755650Y279056D01*
X755018Y279056D01*
X753779Y278809D01*
X752611Y278326D01*
X751560Y277624D01*
X750666Y276730D01*
X749964Y275679D01*
X749481Y274511D01*
X749234Y273272D01*
X749234Y272640D01*
X755650Y272640D01*
X755650Y272640D01*
X749234Y272640D01*
X749234Y272008D01*
X749481Y270769D01*
X749964Y269601D01*
X750666Y268550D01*
X751560Y267656D01*
X752611Y266954D01*
X753779Y266471D01*
X755018Y266224D01*
X755650Y266224D01*
X755650Y272640D01*
X755650Y272640D01*
X755650Y266224D01*
X756282Y266224D01*
X757521Y266471D01*
X758689Y266954D01*
X759740Y267656D01*
X760634Y268550D01*
X761336Y269601D01*
X761819Y270769D01*
X762066Y272008D01*
X762066Y272640D01*
X755650Y272640D01*
X755650Y272640D01*
X762066Y272640D01*
X762066Y273272D01*
X761819Y274511D01*
X761336Y275679D01*
X760634Y276730D01*
X759740Y277624D01*
X758689Y278326D01*
X757521Y278809D01*
X756282Y279056D01*
X755650Y279056D01*
X113389Y116911D02*
X113389Y109579D01*
X112671Y109579D01*
X112671Y116911D01*
X112272Y116911D01*
X110787Y116615D01*
X109387Y116036D01*
X108127Y115194D01*
X107056Y114123D01*
X106214Y112863D01*
X105635Y111463D01*
X105339Y109978D01*
X105339Y109579D01*
X112671Y109579D01*
X112671Y108861D01*
X105339Y108861D01*
X105339Y108462D01*
X105635Y106977D01*
X106214Y105577D01*
X107056Y104317D01*
X108127Y103246D01*
X109387Y102404D01*
X110787Y101825D01*
X112272Y101529D01*
X112671Y101529D01*
X112671Y108861D01*
X113389Y108861D01*
X113389Y101529D01*
X113788Y101529D01*
X115273Y101825D01*
X116673Y102404D01*
X117933Y103246D01*
X119004Y104317D01*
X119846Y105577D01*
X120425Y106977D01*
X120721Y108462D01*
X120721Y108861D01*
X113389Y108861D01*
X113389Y109579D01*
X120721Y109579D01*
X120721Y109978D01*
X120425Y111463D01*
X119846Y112863D01*
X119004Y114123D01*
X117933Y115194D01*
X116673Y116036D01*
X115273Y116615D01*
X113788Y116911D01*
X113389Y116911D01*
X113389Y66111D02*
X113389Y58779D01*
X112671Y58779D01*
X112671Y66111D01*
X112272Y66111D01*
X110787Y65815D01*
X109387Y65236D01*
X108127Y64394D01*
X107056Y63323D01*
X106214Y62063D01*
X105635Y60663D01*
X105339Y59178D01*
X105339Y58779D01*
X112671Y58779D01*
X112671Y58061D01*
X105339Y58061D01*
X105339Y57662D01*
X105635Y56177D01*
X106214Y54777D01*
X107056Y53517D01*
X108127Y52446D01*
X109387Y51604D01*
X110787Y51025D01*
X112272Y50729D01*
X112671Y50729D01*
X112671Y58061D01*
X113389Y58061D01*
X113389Y50729D01*
X113788Y50729D01*
X115273Y51025D01*
X116673Y51604D01*
X117933Y52446D01*
X119004Y53517D01*
X119846Y54777D01*
X120425Y56177D01*
X120721Y57662D01*
X120721Y58061D01*
X113389Y58061D01*
X113389Y58779D01*
X120721Y58779D01*
X120721Y59178D01*
X120425Y60663D01*
X119846Y62063D01*
X119004Y63323D01*
X117933Y64394D01*
X116673Y65236D01*
X115273Y65815D01*
X113788Y66111D01*
X113389Y66111D01*
X707390Y272640D02*
X707390Y279056D01*
X707390Y272640D02*
X707390Y272640D01*
X707390Y279056D01*
X706758Y279056D01*
X705519Y278809D01*
X704351Y278326D01*
X703300Y277624D01*
X702406Y276730D01*
X701704Y275679D01*
X701221Y274511D01*
X700974Y273272D01*
X700974Y272640D01*
X707390Y272640D01*
X707390Y272640D01*
X700974Y272640D01*
X700974Y272008D01*
X701221Y270769D01*
X701704Y269601D01*
X702406Y268550D01*
X703300Y267656D01*
X704351Y266954D01*
X705519Y266471D01*
X706758Y266224D01*
X707390Y266224D01*
X707390Y272640D01*
X707390Y272640D01*
X707390Y266224D01*
X708022Y266224D01*
X709261Y266471D01*
X710429Y266954D01*
X711480Y267656D01*
X712374Y268550D01*
X713076Y269601D01*
X713559Y270769D01*
X713806Y272008D01*
X713806Y272640D01*
X707390Y272640D01*
X707390Y272640D01*
X713806Y272640D01*
X713806Y273272D01*
X713559Y274511D01*
X713076Y275679D01*
X712374Y276730D01*
X711480Y277624D01*
X710429Y278326D01*
X709261Y278809D01*
X708022Y279056D01*
X707390Y279056D01*
X857250Y285750D02*
X857250Y292166D01*
X857250Y285750D02*
X857250Y285750D01*
X857250Y292166D01*
X856618Y292166D01*
X855379Y291919D01*
X854211Y291436D01*
X853160Y290734D01*
X852266Y289840D01*
X851564Y288789D01*
X851081Y287621D01*
X850834Y286382D01*
X850834Y285750D01*
X857250Y285750D01*
X857250Y285750D01*
X850834Y285750D01*
X850834Y285118D01*
X851081Y283879D01*
X851564Y282711D01*
X852266Y281660D01*
X853160Y280766D01*
X854211Y280064D01*
X855379Y279581D01*
X856618Y279334D01*
X857250Y279334D01*
X857250Y285750D01*
X857250Y285750D01*
X857250Y279334D01*
X857882Y279334D01*
X859121Y279581D01*
X860289Y280064D01*
X861340Y280766D01*
X862234Y281660D01*
X862936Y282711D01*
X863419Y283879D01*
X863666Y285118D01*
X863666Y285750D01*
X857250Y285750D01*
X857250Y285750D01*
X863666Y285750D01*
X863666Y286382D01*
X863419Y287621D01*
X862936Y288789D01*
X862234Y289840D01*
X861340Y290734D01*
X860289Y291436D01*
X859121Y291919D01*
X857882Y292166D01*
X857250Y292166D01*
X215953Y8128D02*
X84836Y8128D01*
X106663Y16256D02*
X217932Y16256D01*
X99077Y24384D02*
X84836Y24384D01*
X114791Y24384D02*
X217932Y24384D01*
X107205Y32512D02*
X65956Y32512D01*
X122919Y32512D02*
X217932Y32512D01*
X63016Y40640D02*
X53816Y40640D01*
X63984Y40640D02*
X88541Y40640D01*
X89259Y40640D02*
X115333Y40640D01*
X131047Y40640D02*
X217932Y40640D01*
X123461Y48768D02*
X65956Y48768D01*
X137636Y48768D02*
X217932Y48768D01*
X105491Y56896D02*
X62431Y56896D01*
X112671Y56896D02*
X113389Y56896D01*
X120569Y56896D02*
X126524Y56896D01*
X137636Y56896D02*
X146131Y56896D01*
X153311Y56896D02*
X154029Y56896D01*
X161209Y56896D02*
X217932Y56896D01*
X67290Y65024D02*
X63976Y65024D01*
X74571Y65024D02*
X75289Y65024D01*
X82570Y65024D02*
X109070Y65024D01*
X112671Y65024D02*
X113389Y65024D01*
X116990Y65024D02*
X126524Y65024D01*
X137636Y65024D02*
X149710Y65024D01*
X153311Y65024D02*
X154029Y65024D01*
X157630Y65024D02*
X217932Y65024D01*
X72002Y73152D02*
X63976Y73152D01*
X74571Y73152D02*
X75289Y73152D01*
X77858Y73152D02*
X126524Y73152D01*
X137636Y73152D02*
X217932Y73152D01*
X105757Y81280D02*
X63976Y81280D01*
X112671Y81280D02*
X113389Y81280D01*
X120303Y81280D02*
X126524Y81280D01*
X137636Y81280D02*
X146397Y81280D01*
X153311Y81280D02*
X154029Y81280D01*
X160943Y81280D02*
X217932Y81280D01*
X107741Y89408D02*
X63976Y89408D01*
X112671Y89408D02*
X113389Y89408D01*
X118319Y89408D02*
X126524Y89408D01*
X137636Y89408D02*
X148381Y89408D01*
X153311Y89408D02*
X154029Y89408D01*
X158959Y89408D02*
X217932Y89408D01*
X126524Y97536D02*
X77216Y97536D01*
X137636Y97536D02*
X217932Y97536D01*
X106178Y105664D02*
X77216Y105664D01*
X112671Y105664D02*
X113389Y105664D01*
X119882Y105664D02*
X126524Y105664D01*
X137636Y105664D02*
X146818Y105664D01*
X153311Y105664D02*
X154029Y105664D01*
X160522Y105664D02*
X217932Y105664D01*
X106835Y113792D02*
X79319Y113792D01*
X112671Y113792D02*
X113389Y113792D01*
X119225Y113792D02*
X126524Y113792D01*
X137636Y113792D02*
X147475Y113792D01*
X153311Y113792D02*
X154029Y113792D01*
X159865Y113792D02*
X217932Y113792D01*
X126524Y121920D02*
X77216Y121920D01*
X137636Y121920D02*
X217932Y121920D01*
X126524Y130048D02*
X80740Y130048D01*
X137636Y130048D02*
X217932Y130048D01*
X126524Y138176D02*
X77216Y138176D01*
X137636Y138176D02*
X217932Y138176D01*
X126524Y146304D02*
X80335Y146304D01*
X137636Y146304D02*
X217964Y146304D01*
X126524Y154432D02*
X77216Y154432D01*
X137636Y154432D02*
X217964Y154432D01*
X126524Y162560D02*
X77216Y162560D01*
X137636Y162560D02*
X217964Y162560D01*
X126524Y170688D02*
X79319Y170688D01*
X137636Y170688D02*
X217964Y170688D01*
X126524Y178816D02*
X77216Y178816D01*
X137636Y178816D02*
X217964Y178816D01*
X58780Y186944D02*
X49731Y186944D01*
X63141Y186944D02*
X63859Y186944D01*
X68220Y186944D02*
X126524Y186944D01*
X137636Y186944D02*
X217964Y186944D01*
X937461Y186944D02*
X1047504Y186944D01*
X46395Y195072D02*
X45330Y195072D01*
X48388Y195072D02*
X56063Y195072D01*
X63141Y195072D02*
X63859Y195072D01*
X70937Y195072D02*
X126524Y195072D01*
X137636Y195072D02*
X192328Y195072D01*
X199031Y195072D02*
X199749Y195072D01*
X206452Y195072D02*
X217964Y195072D01*
X929333Y195072D02*
X1055632Y195072D01*
X126524Y203200D02*
X52927Y203200D01*
X137636Y203200D02*
X193593Y203200D01*
X199031Y203200D02*
X199749Y203200D01*
X205187Y203200D02*
X220525Y203200D01*
X921205Y203200D02*
X1063760Y203200D01*
X56035Y211328D02*
X52596Y211328D01*
X61871Y211328D02*
X62589Y211328D01*
X68425Y211328D02*
X126524Y211328D01*
X137636Y211328D02*
X148524Y211328D01*
X774009Y211328D02*
X784222Y211328D01*
X795658Y211328D02*
X923981Y211328D01*
X1017336Y211328D02*
X1071888Y211328D01*
X28320Y219456D02*
X17219Y219456D01*
X37616Y219456D02*
X38584Y219456D01*
X44636Y219456D02*
X55378Y219456D01*
X61871Y219456D02*
X62589Y219456D01*
X69082Y219456D02*
X126524Y219456D01*
X139683Y219456D02*
X218256Y219456D01*
X231324Y219456D02*
X769295Y219456D01*
X782137Y219456D02*
X786123Y219456D01*
X789940Y219456D02*
X789940Y219456D01*
X793757Y219456D02*
X915853Y219456D01*
X928695Y219456D02*
X931513Y219456D01*
X935387Y219456D02*
X956913Y219456D01*
X960787Y219456D02*
X977252Y219456D01*
X991248Y219456D02*
X1002652Y219456D01*
X1016648Y219456D02*
X1028052Y219456D01*
X1042048Y219456D02*
X1049934Y219456D01*
X1070966Y219456D02*
X1072642Y219456D01*
X132097Y227584D02*
X9091Y227584D01*
X147811Y227584D02*
X158992Y227584D01*
X166011Y227584D02*
X166729Y227584D01*
X173748Y227584D02*
X218256Y227584D01*
X224431Y227584D02*
X225149Y227584D01*
X231324Y227584D02*
X744154Y227584D01*
X750570Y227584D02*
X750570Y227584D01*
X756986Y227584D02*
X777423Y227584D01*
X920567Y227584D02*
X925434Y227584D01*
X941466Y227584D02*
X950834Y227584D01*
X966866Y227584D02*
X973734Y227584D01*
X994766Y227584D02*
X1008634Y227584D01*
X1010666Y227584D02*
X1024534Y227584D01*
X1045566Y227584D02*
X1049934Y227584D01*
X1070966Y227584D02*
X1072642Y227584D01*
X124729Y235712D02*
X26416Y235712D01*
X127911Y235712D02*
X128629Y235712D01*
X131811Y235712D02*
X140225Y235712D01*
X155939Y235712D02*
X161335Y235712D01*
X166011Y235712D02*
X166729Y235712D01*
X171405Y235712D02*
X701156Y235712D01*
X704850Y235712D02*
X704850Y235712D01*
X708544Y235712D02*
X913454Y235712D01*
X1049853Y235712D02*
X1049934Y235712D01*
X1070966Y235712D02*
X1072642Y235712D01*
X120681Y243840D02*
X46701Y243840D01*
X127911Y243840D02*
X128629Y243840D01*
X135859Y243840D02*
X148353Y243840D01*
X164067Y243840D02*
X699098Y243840D01*
X704850Y243840D02*
X704850Y243840D01*
X710602Y243840D02*
X912946Y243840D01*
X1066432Y243840D02*
X1072642Y243840D01*
X156481Y251968D02*
X54829Y251968D01*
X172195Y251968D02*
X845754Y251968D01*
X858586Y251968D02*
X925434Y251968D01*
X941466Y251968D02*
X948169Y251968D01*
X969366Y251968D02*
X976234Y251968D01*
X992266Y251968D02*
X1008634Y251968D01*
X1010666Y251968D02*
X1024534Y251968D01*
X1045566Y251968D02*
X1049934Y251968D01*
X1070966Y251968D02*
X1072642Y251968D01*
X164609Y260096D02*
X62957Y260096D01*
X826753Y260096D02*
X846089Y260096D01*
X858251Y260096D02*
X886477Y260096D01*
X966356Y260096D02*
X981086Y260096D01*
X987414Y260096D02*
X1002144Y260096D01*
X1008634Y260096D02*
X1010666Y260096D01*
X1017156Y260096D02*
X1027544Y260096D01*
X1042556Y260096D02*
X1052944Y260096D01*
X1067956Y260096D02*
X1072642Y260096D01*
X702732Y268224D02*
X71085Y268224D01*
X707390Y268224D02*
X707390Y268224D01*
X712048Y268224D02*
X750992Y268224D01*
X755650Y268224D02*
X755650Y268224D01*
X760308Y268224D02*
X819167Y268224D01*
X951213Y268224D02*
X1072642Y268224D01*
X702154Y276352D02*
X79213Y276352D01*
X707390Y276352D02*
X707390Y276352D01*
X712626Y276352D02*
X750414Y276352D01*
X755650Y276352D02*
X755650Y276352D01*
X760886Y276352D02*
X785528Y276352D01*
X796892Y276352D02*
X798228Y276352D01*
X809592Y276352D02*
X827295Y276352D01*
X885935Y276352D02*
X1065583Y276352D01*
X850961Y284480D02*
X807904Y284480D01*
X857250Y284480D02*
X857250Y284480D01*
X863539Y284480D02*
X902515Y284480D01*
X894387Y292608D02*
X796763Y292608D01*
X8128Y231394D02*
X8128Y228547D01*
X16256Y231394D02*
X16256Y220419D01*
X24384Y214606D02*
X24384Y231394D01*
X32512Y239554D02*
X32512Y220590D01*
X40640Y222363D02*
X40640Y239554D01*
X48768Y195452D02*
X48768Y187907D01*
X48768Y206526D02*
X48768Y207494D01*
X48768Y214532D02*
X48768Y245907D01*
X56896Y31274D02*
X56896Y27686D01*
X56896Y40156D02*
X56896Y41124D01*
X56896Y50006D02*
X56896Y51361D01*
X56896Y185166D02*
X56896Y189080D01*
X56896Y192681D02*
X56896Y193399D01*
X56896Y197000D02*
X56896Y210357D01*
X56896Y215541D02*
X56896Y216259D01*
X56896Y221443D02*
X56896Y254035D01*
X65024Y31687D02*
X65024Y27686D01*
X65024Y40156D02*
X65024Y41124D01*
X65024Y49593D02*
X65024Y91694D01*
X65024Y185166D02*
X65024Y185501D01*
X65024Y192681D02*
X65024Y193399D01*
X65024Y200579D02*
X65024Y208733D01*
X65024Y215541D02*
X65024Y216259D01*
X65024Y223067D02*
X65024Y262163D01*
X73152Y58552D02*
X73152Y27686D01*
X73152Y65681D02*
X73152Y66399D01*
X73152Y73528D02*
X73152Y91694D01*
X73152Y185166D02*
X73152Y270291D01*
X81280Y39526D02*
X81280Y27686D01*
X81280Y40281D02*
X81280Y40999D01*
X81280Y41754D02*
X81280Y61700D01*
X81280Y65681D02*
X81280Y66399D01*
X81280Y70380D02*
X81280Y278419D01*
X89408Y9684D02*
X89408Y4286D01*
X89408Y20796D02*
X89408Y32949D01*
X89408Y40281D02*
X89408Y40999D01*
X89408Y48331D02*
X89408Y280194D01*
X97536Y9684D02*
X97536Y4286D01*
X97536Y22843D02*
X97536Y280194D01*
X105664Y15257D02*
X105664Y4286D01*
X105664Y30971D02*
X105664Y56106D01*
X105664Y58061D02*
X105664Y58779D01*
X105664Y60734D02*
X105664Y81506D01*
X105664Y83461D02*
X105664Y84179D01*
X105664Y86134D02*
X105664Y106906D01*
X105664Y108861D02*
X105664Y109579D01*
X105664Y111534D02*
X105664Y280194D01*
X113792Y23385D02*
X113792Y4286D01*
X113792Y39099D02*
X113792Y50730D01*
X113792Y58061D02*
X113792Y58779D01*
X113792Y66110D02*
X113792Y76130D01*
X113792Y83461D02*
X113792Y84179D01*
X113792Y91510D02*
X113792Y101530D01*
X113792Y108861D02*
X113792Y109579D01*
X113792Y116910D02*
X113792Y280194D01*
X121920Y31513D02*
X121920Y4286D01*
X121920Y47227D02*
X121920Y238230D01*
X121920Y242211D02*
X121920Y242929D01*
X121920Y246910D02*
X121920Y280194D01*
X130048Y39641D02*
X130048Y4286D01*
X130048Y225535D02*
X130048Y235082D01*
X130048Y242211D02*
X130048Y242929D01*
X130048Y250058D02*
X130048Y280194D01*
X138176Y217949D02*
X138176Y4286D01*
X138176Y233663D02*
X138176Y280194D01*
X146304Y56106D02*
X146304Y4286D01*
X146304Y58061D02*
X146304Y58779D01*
X146304Y60734D02*
X146304Y81506D01*
X146304Y83461D02*
X146304Y84179D01*
X146304Y86134D02*
X146304Y106906D01*
X146304Y108861D02*
X146304Y109579D01*
X146304Y111534D02*
X146304Y226077D01*
X146304Y241791D02*
X146304Y280194D01*
X154432Y50730D02*
X154432Y4286D01*
X154432Y58061D02*
X154432Y58779D01*
X154432Y66110D02*
X154432Y76130D01*
X154432Y83461D02*
X154432Y84179D01*
X154432Y91510D02*
X154432Y101530D01*
X154432Y108861D02*
X154432Y109579D01*
X154432Y116910D02*
X154432Y205674D01*
X154432Y218506D02*
X154432Y234205D01*
X154432Y249919D02*
X154432Y280194D01*
X162560Y207550D02*
X162560Y4286D01*
X162560Y216630D02*
X162560Y223166D01*
X162560Y229511D02*
X162560Y230229D01*
X162560Y236574D02*
X162560Y242333D01*
X162560Y258047D02*
X162560Y280194D01*
X170688Y207550D02*
X170688Y4286D01*
X170688Y216630D02*
X170688Y223505D01*
X170688Y229511D02*
X170688Y230229D01*
X170688Y236235D02*
X170688Y250461D01*
X170688Y264636D02*
X170688Y280194D01*
X178816Y207550D02*
X178816Y4286D01*
X178816Y216630D02*
X178816Y253524D01*
X178816Y264636D02*
X178816Y280194D01*
X186944Y207550D02*
X186944Y4286D01*
X186944Y216630D02*
X186944Y253524D01*
X186944Y264636D02*
X186944Y280194D01*
X195072Y191755D02*
X195072Y4286D01*
X195072Y197761D02*
X195072Y198479D01*
X195072Y204485D02*
X195072Y207550D01*
X195072Y216630D02*
X195072Y253524D01*
X195072Y264636D02*
X195072Y280194D01*
X203200Y191416D02*
X203200Y4286D01*
X203200Y197761D02*
X203200Y198479D01*
X203200Y204824D02*
X203200Y207550D01*
X203200Y216630D02*
X203200Y253524D01*
X203200Y264636D02*
X203200Y280194D01*
X211328Y207550D02*
X211328Y4286D01*
X211328Y216630D02*
X211328Y253524D01*
X211328Y264636D02*
X211328Y280194D01*
X219456Y207550D02*
X219456Y202131D01*
X219456Y216630D02*
X219456Y217977D01*
X219456Y223161D02*
X219456Y223879D01*
X219456Y229063D02*
X219456Y253524D01*
X219456Y264636D02*
X219456Y280194D01*
X227584Y223879D02*
X227584Y223161D01*
X227584Y230687D02*
X227584Y253524D01*
X227584Y264636D02*
X227584Y280194D01*
X235712Y253524D02*
X235712Y216630D01*
X235712Y264636D02*
X235712Y280194D01*
X243840Y253524D02*
X243840Y216630D01*
X243840Y264636D02*
X243840Y280194D01*
X251968Y253524D02*
X251968Y216630D01*
X251968Y264636D02*
X251968Y280194D01*
X260096Y253524D02*
X260096Y216630D01*
X260096Y264636D02*
X260096Y280194D01*
X268224Y253524D02*
X268224Y216630D01*
X268224Y264636D02*
X268224Y280194D01*
X276352Y253524D02*
X276352Y216630D01*
X276352Y264636D02*
X276352Y280194D01*
X284480Y253524D02*
X284480Y216630D01*
X284480Y264636D02*
X284480Y280194D01*
X292608Y253524D02*
X292608Y216630D01*
X292608Y264636D02*
X292608Y280194D01*
X300736Y253524D02*
X300736Y216630D01*
X300736Y264636D02*
X300736Y280194D01*
X308864Y253524D02*
X308864Y216630D01*
X308864Y264636D02*
X308864Y280194D01*
X316992Y253524D02*
X316992Y216630D01*
X316992Y264636D02*
X316992Y280194D01*
X325120Y253524D02*
X325120Y216630D01*
X325120Y264636D02*
X325120Y280194D01*
X333248Y253524D02*
X333248Y216630D01*
X333248Y264636D02*
X333248Y280194D01*
X341376Y253524D02*
X341376Y216630D01*
X341376Y264636D02*
X341376Y280194D01*
X349504Y253524D02*
X349504Y216630D01*
X349504Y264636D02*
X349504Y280194D01*
X357632Y253524D02*
X357632Y216630D01*
X357632Y264636D02*
X357632Y280194D01*
X365760Y253524D02*
X365760Y216630D01*
X365760Y264636D02*
X365760Y280194D01*
X373888Y253524D02*
X373888Y216630D01*
X373888Y264636D02*
X373888Y280194D01*
X382016Y253524D02*
X382016Y216630D01*
X382016Y264636D02*
X382016Y280194D01*
X390144Y253524D02*
X390144Y216630D01*
X390144Y264636D02*
X390144Y280194D01*
X398272Y253524D02*
X398272Y216630D01*
X398272Y264636D02*
X398272Y280194D01*
X406400Y253524D02*
X406400Y216630D01*
X406400Y264636D02*
X406400Y280194D01*
X414528Y253524D02*
X414528Y216630D01*
X414528Y264636D02*
X414528Y280194D01*
X422656Y253524D02*
X422656Y216630D01*
X422656Y264636D02*
X422656Y280194D01*
X430784Y253524D02*
X430784Y216630D01*
X430784Y264636D02*
X430784Y280194D01*
X438912Y253524D02*
X438912Y216630D01*
X438912Y264636D02*
X438912Y280194D01*
X447040Y253524D02*
X447040Y216630D01*
X447040Y264636D02*
X447040Y280194D01*
X455168Y253524D02*
X455168Y216630D01*
X455168Y264636D02*
X455168Y280194D01*
X463296Y253524D02*
X463296Y216630D01*
X463296Y264636D02*
X463296Y280194D01*
X471424Y253524D02*
X471424Y216630D01*
X471424Y264636D02*
X471424Y280194D01*
X479552Y253524D02*
X479552Y216630D01*
X479552Y264636D02*
X479552Y280194D01*
X487680Y253524D02*
X487680Y216630D01*
X487680Y264636D02*
X487680Y280194D01*
X495808Y253524D02*
X495808Y216630D01*
X495808Y264636D02*
X495808Y280194D01*
X503936Y253524D02*
X503936Y216630D01*
X503936Y264636D02*
X503936Y280194D01*
X512064Y253524D02*
X512064Y216630D01*
X512064Y264636D02*
X512064Y280194D01*
X520192Y253524D02*
X520192Y216630D01*
X520192Y264636D02*
X520192Y280194D01*
X528320Y253524D02*
X528320Y216630D01*
X528320Y264636D02*
X528320Y280194D01*
X536448Y253524D02*
X536448Y216630D01*
X536448Y264636D02*
X536448Y280194D01*
X544576Y253524D02*
X544576Y216630D01*
X544576Y264636D02*
X544576Y280194D01*
X552704Y253524D02*
X552704Y216630D01*
X552704Y264636D02*
X552704Y280194D01*
X560832Y253524D02*
X560832Y216630D01*
X560832Y264636D02*
X560832Y280194D01*
X568960Y253524D02*
X568960Y216630D01*
X568960Y264636D02*
X568960Y280194D01*
X577088Y253524D02*
X577088Y216630D01*
X577088Y264636D02*
X577088Y280194D01*
X585216Y253524D02*
X585216Y216630D01*
X585216Y264636D02*
X585216Y280194D01*
X593344Y253524D02*
X593344Y216630D01*
X593344Y264636D02*
X593344Y280194D01*
X601472Y253524D02*
X601472Y216630D01*
X601472Y264636D02*
X601472Y280194D01*
X609600Y253524D02*
X609600Y216630D01*
X609600Y264636D02*
X609600Y280194D01*
X617728Y253524D02*
X617728Y216630D01*
X617728Y264636D02*
X617728Y280194D01*
X625856Y253524D02*
X625856Y216630D01*
X625856Y264636D02*
X625856Y280194D01*
X633984Y253524D02*
X633984Y216630D01*
X633984Y264636D02*
X633984Y280194D01*
X642112Y253524D02*
X642112Y216630D01*
X642112Y264636D02*
X642112Y280194D01*
X650240Y253524D02*
X650240Y216630D01*
X650240Y264636D02*
X650240Y280194D01*
X658368Y253524D02*
X658368Y216630D01*
X658368Y264636D02*
X658368Y280194D01*
X666496Y253524D02*
X666496Y216630D01*
X666496Y264636D02*
X666496Y280194D01*
X674624Y253524D02*
X674624Y216630D01*
X674624Y264636D02*
X674624Y280194D01*
X682752Y253524D02*
X682752Y216630D01*
X682752Y264636D02*
X682752Y280194D01*
X690880Y253524D02*
X690880Y216630D01*
X690880Y264636D02*
X690880Y280194D01*
X699008Y238298D02*
X699008Y216630D01*
X699008Y240960D02*
X699008Y240960D01*
X699008Y243622D02*
X699008Y253524D01*
X699008Y264636D02*
X699008Y280194D01*
X707136Y234962D02*
X707136Y216630D01*
X707136Y240960D02*
X707136Y240960D01*
X707136Y246958D02*
X707136Y253524D01*
X707136Y264636D02*
X707136Y266224D01*
X707136Y272640D02*
X707136Y272640D01*
X707136Y279056D02*
X707136Y280194D01*
X715264Y253524D02*
X715264Y216630D01*
X715264Y264636D02*
X715264Y280194D01*
X723392Y253524D02*
X723392Y216630D01*
X723392Y264636D02*
X723392Y280194D01*
X731520Y253524D02*
X731520Y216630D01*
X731520Y264636D02*
X731520Y280194D01*
X739648Y253524D02*
X739648Y216630D01*
X739648Y264636D02*
X739648Y280194D01*
X747776Y221203D02*
X747776Y216630D01*
X747776Y226990D02*
X747776Y226990D01*
X747776Y232777D02*
X747776Y253524D01*
X747776Y264636D02*
X747776Y280194D01*
X755904Y223424D02*
X755904Y216630D01*
X755904Y226990D02*
X755904Y226990D01*
X755904Y230556D02*
X755904Y252664D01*
X755904Y265496D02*
X755904Y266224D01*
X755904Y272640D02*
X755904Y272640D01*
X755904Y279056D02*
X755904Y280194D01*
X764032Y253524D02*
X764032Y216630D01*
X764032Y264636D02*
X764032Y280194D01*
X772160Y253524D02*
X772160Y222321D01*
X772160Y264636D02*
X772160Y280194D01*
X780288Y217607D02*
X780288Y210026D01*
X780288Y230449D02*
X780288Y253524D01*
X780288Y264636D02*
X780288Y280194D01*
X788416Y214290D02*
X788416Y214290D01*
X788416Y220529D02*
X788416Y221520D01*
X788416Y230600D02*
X788416Y253524D01*
X788416Y264636D02*
X788416Y273613D01*
X796544Y221520D02*
X796544Y210026D01*
X796544Y230600D02*
X796544Y253524D01*
X796544Y264636D02*
X796544Y275660D01*
X796544Y292827D02*
X796544Y292894D01*
X804672Y221520D02*
X804672Y210026D01*
X804672Y230600D02*
X804672Y253524D01*
X804672Y264636D02*
X804672Y272984D01*
X804672Y285816D02*
X804672Y292894D01*
X812800Y221520D02*
X812800Y210026D01*
X812800Y230600D02*
X812800Y253524D01*
X812800Y264636D02*
X812800Y292894D01*
X820928Y221520D02*
X820928Y210026D01*
X820928Y230600D02*
X820928Y254271D01*
X820928Y269985D02*
X820928Y292894D01*
X829056Y221520D02*
X829056Y210026D01*
X829056Y230600D02*
X829056Y262399D01*
X829056Y278113D02*
X829056Y292894D01*
X837184Y221520D02*
X837184Y210026D01*
X837184Y230600D02*
X837184Y267494D01*
X837184Y278606D02*
X837184Y292894D01*
X845312Y221520D02*
X845312Y210026D01*
X845312Y230600D02*
X845312Y267494D01*
X845312Y278606D02*
X845312Y292894D01*
X853440Y221520D02*
X853440Y210026D01*
X853440Y230600D02*
X853440Y245171D01*
X853440Y251460D02*
X853440Y251460D01*
X853440Y278606D02*
X853440Y280579D01*
X853440Y285750D02*
X853440Y285750D01*
X853440Y290921D02*
X853440Y292894D01*
X861568Y221520D02*
X861568Y210026D01*
X861568Y230600D02*
X861568Y267494D01*
X861568Y278606D02*
X861568Y280994D01*
X861568Y285750D02*
X861568Y285750D01*
X861568Y290506D02*
X861568Y292894D01*
X869696Y221520D02*
X869696Y210026D01*
X869696Y230600D02*
X869696Y267494D01*
X869696Y278606D02*
X869696Y292894D01*
X877824Y221520D02*
X877824Y210026D01*
X877824Y230600D02*
X877824Y267494D01*
X877824Y278606D02*
X877824Y292894D01*
X885952Y221520D02*
X885952Y210026D01*
X885952Y230600D02*
X885952Y260621D01*
X885952Y276335D02*
X885952Y292894D01*
X894080Y221520D02*
X894080Y210026D01*
X894080Y230600D02*
X894080Y258604D01*
X894080Y269716D02*
X894080Y292894D01*
X902208Y221520D02*
X902208Y210026D01*
X902208Y230600D02*
X902208Y258604D01*
X902208Y276216D02*
X902208Y284787D01*
X910336Y221520D02*
X910336Y210026D01*
X910336Y230600D02*
X910336Y258604D01*
X910336Y269716D02*
X910336Y276659D01*
X918464Y216845D02*
X918464Y205941D01*
X918464Y229687D02*
X918464Y233614D01*
X918464Y246446D02*
X918464Y258604D01*
X918464Y269716D02*
X918464Y276384D01*
X926592Y208717D02*
X926592Y197813D01*
X926592Y221559D02*
X926592Y222940D01*
X926592Y231720D02*
X926592Y235490D01*
X926592Y244570D02*
X926592Y248340D01*
X926592Y257120D02*
X926592Y258604D01*
X926592Y269716D02*
X926592Y276384D01*
X934720Y207550D02*
X934720Y189685D01*
X934720Y216630D02*
X934720Y219314D01*
X934720Y235346D02*
X934720Y235490D01*
X934720Y244570D02*
X934720Y244714D01*
X934720Y269716D02*
X934720Y276384D01*
X942848Y207550D02*
X942848Y185896D01*
X942848Y216630D02*
X942848Y235490D01*
X942848Y244570D02*
X942848Y258604D01*
X942848Y269716D02*
X942848Y276384D01*
X950976Y207550D02*
X950976Y185896D01*
X950976Y216630D02*
X950976Y225393D01*
X950976Y229267D02*
X950976Y235490D01*
X950976Y244570D02*
X950976Y245732D01*
X950976Y268461D02*
X950976Y276384D01*
X959104Y207550D02*
X959104Y185896D01*
X959104Y216630D02*
X959104Y219314D01*
X959104Y235346D02*
X959104Y235490D01*
X959104Y263358D02*
X959104Y276384D01*
X967232Y207550D02*
X967232Y185896D01*
X967232Y216630D02*
X967232Y235490D01*
X967232Y244570D02*
X967232Y246240D01*
X967232Y259220D02*
X967232Y276384D01*
X975360Y207550D02*
X975360Y185896D01*
X975360Y216630D02*
X975360Y221348D01*
X975360Y233312D02*
X975360Y235490D01*
X975360Y244570D02*
X975360Y276384D01*
X983488Y207550D02*
X983488Y185896D01*
X983488Y216630D02*
X983488Y216814D01*
X983488Y244570D02*
X983488Y244714D01*
X983488Y260746D02*
X983488Y276384D01*
X991616Y207550D02*
X991616Y185896D01*
X991616Y216630D02*
X991616Y219824D01*
X991616Y234836D02*
X991616Y235490D01*
X991616Y244570D02*
X991616Y249566D01*
X991616Y255894D02*
X991616Y276384D01*
X999744Y207550D02*
X999744Y185896D01*
X999744Y216630D02*
X999744Y223787D01*
X999744Y226314D02*
X999744Y228346D01*
X999744Y230873D02*
X999744Y235490D01*
X999744Y244570D02*
X999744Y249187D01*
X999744Y251714D02*
X999744Y253746D01*
X999744Y256273D02*
X999744Y276384D01*
X1007872Y206408D02*
X1007872Y185896D01*
X1007872Y226314D02*
X1007872Y228346D01*
X1007872Y251714D02*
X1007872Y253746D01*
X1007872Y263095D02*
X1007872Y276384D01*
X1016000Y208096D02*
X1016000Y185896D01*
X1016000Y216084D02*
X1016000Y218945D01*
X1016000Y226314D02*
X1016000Y228346D01*
X1016000Y251714D02*
X1016000Y253746D01*
X1016000Y261115D02*
X1016000Y276384D01*
X1024128Y235490D02*
X1024128Y185896D01*
X1024128Y244570D02*
X1024128Y276384D01*
X1032256Y217105D02*
X1032256Y185896D01*
X1032256Y262955D02*
X1032256Y276384D01*
X1040384Y218157D02*
X1040384Y185896D01*
X1040384Y261903D02*
X1040384Y276384D01*
X1048512Y235490D02*
X1048512Y187953D01*
X1048512Y247213D02*
X1048512Y276384D01*
X1056640Y216814D02*
X1056640Y196081D01*
X1056640Y237846D02*
X1056640Y241645D01*
X1056640Y262534D02*
X1056640Y276384D01*
X1064768Y216814D02*
X1064768Y204209D01*
X1064768Y237846D02*
X1064768Y243136D01*
X1064768Y262324D02*
X1064768Y276384D01*
D19*
X113030Y109220D03*
X113030Y83820D03*
X113030Y58420D03*
X153670Y58420D03*
X153670Y83820D03*
X153670Y109220D03*
X224790Y223520D03*
X199390Y198120D03*
X166370Y229870D03*
X128270Y242570D03*
D22*
X707390Y272640D03*
X704850Y240960D03*
X789940Y214290D03*
X852170Y251460D03*
X857250Y285750D03*
D15*
X50800Y110490D03*
X63500Y110490D03*
D16*
X50800Y110490D02*
X76200Y110490D01*
D15*
X50800Y173990D03*
X63500Y173990D03*
D16*
X50800Y173990D02*
X76200Y173990D01*
D22*
X1010920Y212090D03*
X154940Y212090D03*
D16*
X929640Y212090D02*
X1010920Y212090D01*
X768350Y212090D02*
X154940Y212090D01*
X768350Y212090D02*
X782320Y226060D01*
X915670Y226060D02*
X929640Y212090D01*
X915670Y226060D02*
X782320Y226060D01*
D15*
X50800Y148590D03*
X63500Y148590D03*
D16*
X50800Y148590D02*
X76200Y148590D01*
D15*
X50800Y129540D03*
X63500Y129540D03*
D16*
X50800Y129540D02*
X76200Y129540D01*
D15*
X50800Y15240D03*
X63500Y15240D03*
D20*
X50800Y15240D01*
D23*
X857250Y273050D02*
X881380Y273050D01*
X857250Y273050D02*
X852170Y273050D01*
X847090Y273050D01*
D22*
X852170Y262180D03*
D18*
X852170Y267970D02*
X852170Y273050D01*
X852170Y267970D02*
X847090Y273050D01*
X852170Y267970D02*
X852170Y262180D01*
X852170Y267970D02*
X857250Y273050D01*
D23*
X97790Y15240D02*
X63500Y15240D01*
X132080Y219710D02*
X171450Y259080D01*
X132080Y49530D02*
X97790Y15240D01*
X132080Y49530D02*
X132080Y219710D01*
X949960Y261620D02*
X958850Y252730D01*
X949960Y261620D02*
X948690Y262890D01*
X947420Y264160D01*
X890270Y264160D02*
X881380Y273050D01*
X906780Y264160D02*
X947420Y264160D01*
X906780Y264160D02*
X901700Y264160D01*
X896620Y264160D01*
X890270Y264160D01*
D16*
X948690Y262890D02*
X953770Y250190D01*
X961390Y257810D02*
X949960Y261620D01*
D22*
X755650Y259080D03*
D23*
X171450Y259080D01*
X831850Y273050D02*
X847090Y273050D01*
X831850Y273050D02*
X817880Y259080D01*
X755650Y259080D01*
D22*
X901700Y269800D03*
D16*
X901700Y269240D02*
X896620Y264160D01*
X901700Y269240D02*
X906780Y264160D01*
X901700Y264160D02*
X901700Y269800D01*
D21*
X0Y281940D02*
X-3620Y278320D01*
D15*
X0Y281940D03*
D16*
X25400Y281940D01*
D15*
X12700Y281940D03*
D16*
X1052830Y245110D02*
X1060450Y252730D01*
X1052830Y245110D02*
X1047750Y240030D01*
X918210Y240030D01*
D18*
X1052830Y245110D02*
X1062990Y247650D01*
X1052830Y245110D02*
X1055370Y255270D01*
D22*
X918210Y240030D03*
D15*
X0Y262890D03*
D22*
X803910Y279400D03*
D18*
X792480Y290830D01*
X78740Y290830D02*
X50800Y262890D01*
X0Y262890D01*
X78740Y290830D02*
X792480Y290830D01*
D15*
X0Y243840D03*
D22*
X791210Y279400D03*
D18*
X786130Y284480D01*
X40640Y243840D02*
X0Y243840D01*
X81280Y284480D02*
X786130Y284480D01*
X81280Y284480D02*
X40640Y243840D01*
D15*
X12700Y262890D03*
X12700Y243840D03*
X1245870Y256540D03*
X1233170Y256540D03*
X1250950Y90170D03*
X1261110Y100330D03*
D16*
X1240790Y256540D02*
X1233170Y256540D01*
X1240790Y256540D02*
X1240790Y247650D01*
X1239520Y246380D01*
X1240790Y256540D02*
X1242060Y257810D01*
X1242060Y265430D01*
D17*
X1233170Y256540D02*
X1226820Y256540D01*
D18*
X1233170Y252730D02*
X1229360Y248920D01*
X1233170Y252730D02*
X1233170Y256540D01*
X1233170Y260350D01*
X1229360Y264160D01*
D19*
X1221740Y231140D03*
X1207770Y256540D03*
X1234440Y81280D03*
X1233170Y104140D03*
D20*
X1250950Y90170D02*
X1257300Y96520D01*
D21*
X1270000Y83820D02*
X1270000Y78740D01*
X1270000Y83820D02*
X1266190Y87630D01*
X1261110Y92710D01*
X1257300Y96520D02*
X1242060Y96520D01*
X1257300Y96520D02*
X1261110Y92710D01*
X1261110Y81280D01*
X1259840Y80010D01*
X1261110Y92710D02*
X1248410Y92710D01*
X1266190Y87630D02*
X1266190Y76200D01*
D20*
X1267460Y99060D02*
X1262380Y99060D01*
X1261110Y100330D01*
D15*
X1268730Y92710D03*
X1258570Y82550D03*
D22*
X541020Y24540D03*
X546100Y70190D03*
D21*
X1237754Y257024D02*
X1242854Y257024D01*
X1242854Y256056D01*
X1233654Y256056D01*
X1233654Y257024D01*
X1237754Y257024D01*
X322936Y71942D02*
X322936Y67758D01*
X322936Y71942D02*
X321335Y75807D01*
X318377Y78765D01*
X314512Y80366D01*
X310328Y80366D01*
X306463Y78765D01*
X303505Y75807D01*
X301904Y71942D01*
X301904Y67758D01*
X303505Y63893D01*
X305708Y61690D01*
X293680Y61690D01*
X293871Y61829D01*
X295041Y62999D01*
X296014Y64338D01*
X296766Y65813D01*
X297277Y67387D01*
X297506Y68834D01*
X288036Y68834D01*
X288036Y70866D01*
X297506Y70866D01*
X297277Y72313D01*
X296766Y73887D01*
X296014Y75362D01*
X295041Y76701D01*
X293871Y77871D01*
X292532Y78844D01*
X291057Y79596D01*
X289753Y80019D01*
X290284Y80550D01*
X365149Y80550D01*
X376460Y69239D01*
X379119Y66580D01*
X516231Y66580D01*
X518890Y69239D01*
X530201Y80550D01*
X1068416Y80550D01*
X1068237Y80476D01*
X1066977Y79634D01*
X1065906Y78563D01*
X1065064Y77303D01*
X1064485Y75903D01*
X1064189Y74418D01*
X1064189Y74019D01*
X1071521Y74019D01*
X1071521Y73301D01*
X1064189Y73301D01*
X1064189Y72902D01*
X1064485Y71417D01*
X1065064Y70017D01*
X1065906Y68757D01*
X1066977Y67686D01*
X1068237Y66844D01*
X1069637Y66265D01*
X1071122Y65969D01*
X1071521Y65969D01*
X1071521Y73301D01*
X1072239Y73301D01*
X1072239Y65969D01*
X1072638Y65969D01*
X1074123Y66265D01*
X1075523Y66844D01*
X1076783Y67686D01*
X1077854Y68757D01*
X1078696Y70017D01*
X1079275Y71417D01*
X1079571Y72902D01*
X1079571Y73301D01*
X1072239Y73301D01*
X1072239Y74019D01*
X1079571Y74019D01*
X1079571Y74418D01*
X1079275Y75903D01*
X1078696Y77303D01*
X1077854Y78563D01*
X1076783Y79634D01*
X1075523Y80476D01*
X1075344Y80550D01*
X1137196Y80550D01*
X1138096Y79651D01*
X1140454Y78674D01*
X1143006Y78674D01*
X1145364Y79651D01*
X1147169Y81456D01*
X1148146Y83814D01*
X1148146Y86366D01*
X1147169Y88724D01*
X1145364Y90529D01*
X1143006Y91506D01*
X1140454Y91506D01*
X1138096Y90529D01*
X1137196Y89630D01*
X1071795Y89630D01*
X1078706Y96541D01*
X1078706Y153646D01*
X1078738Y153677D01*
X1078738Y287073D01*
X1084559Y292894D01*
X1211834Y292894D01*
X1211834Y287496D01*
X1196579Y287496D01*
X1162289Y253206D01*
X1159034Y249951D01*
X1159034Y79771D01*
X1122919Y43656D01*
X544372Y43656D01*
X542296Y44516D01*
X539744Y44516D01*
X537668Y43656D01*
X476489Y43656D01*
X473234Y40401D01*
X462519Y29686D01*
X450085Y29686D01*
X449172Y30599D01*
X449939Y31366D01*
X450916Y33724D01*
X450916Y36276D01*
X449939Y38634D01*
X448139Y40435D01*
X448590Y40736D01*
X449484Y41630D01*
X450186Y42681D01*
X450669Y43849D01*
X450916Y45088D01*
X450916Y45720D01*
X444500Y45720D01*
X444500Y45720D01*
X450916Y45720D01*
X450916Y46352D01*
X450669Y47591D01*
X450186Y48759D01*
X449484Y49810D01*
X448590Y50704D01*
X447539Y51406D01*
X446371Y51889D01*
X445132Y52136D01*
X444500Y52136D01*
X444500Y45720D01*
X444500Y45720D01*
X444500Y52136D01*
X443868Y52136D01*
X442629Y51889D01*
X441461Y51406D01*
X440410Y50704D01*
X439516Y49810D01*
X438814Y48759D01*
X438331Y47591D01*
X438084Y46352D01*
X438084Y45720D01*
X444500Y45720D01*
X444500Y45720D01*
X438084Y45720D01*
X438084Y45088D01*
X438331Y43849D01*
X438814Y42681D01*
X439516Y41630D01*
X440410Y40736D01*
X440861Y40435D01*
X439061Y38634D01*
X438084Y36276D01*
X438084Y33724D01*
X439061Y31366D01*
X439828Y30599D01*
X438915Y29686D01*
X417591Y29686D01*
X411956Y35321D01*
X408701Y38576D01*
X368682Y38576D01*
X370016Y39909D01*
X371236Y42856D01*
X371236Y46044D01*
X370016Y48991D01*
X367761Y51246D01*
X364814Y52466D01*
X361626Y52466D01*
X358679Y51246D01*
X356424Y48991D01*
X355204Y46044D01*
X355204Y42856D01*
X356424Y39909D01*
X357758Y38576D01*
X351551Y38576D01*
X350891Y39236D01*
X348336Y45624D01*
X348336Y46542D01*
X346735Y50407D01*
X344532Y52610D01*
X373926Y52610D01*
X374826Y51711D01*
X377184Y50734D01*
X379736Y50734D01*
X382094Y51711D01*
X383899Y53516D01*
X384876Y55874D01*
X384876Y58426D01*
X383899Y60784D01*
X382094Y62589D01*
X379736Y63566D01*
X377184Y63566D01*
X374826Y62589D01*
X373926Y61690D01*
X319132Y61690D01*
X321335Y63893D01*
X322936Y67758D01*
X591820Y62636D02*
X591820Y56220D01*
X591820Y56220D01*
X591820Y62636D01*
X591188Y62636D01*
X589949Y62389D01*
X588781Y61906D01*
X587730Y61204D01*
X586836Y60310D01*
X586134Y59259D01*
X585651Y58091D01*
X585404Y56852D01*
X585404Y56220D01*
X591820Y56220D01*
X591820Y56220D01*
X585404Y56220D01*
X585404Y55588D01*
X585651Y54349D01*
X586134Y53181D01*
X586836Y52130D01*
X587730Y51236D01*
X588781Y50534D01*
X589949Y50051D01*
X591188Y49804D01*
X591820Y49804D01*
X591820Y56220D01*
X591820Y56220D01*
X591820Y49804D01*
X592452Y49804D01*
X593691Y50051D01*
X594859Y50534D01*
X595910Y51236D01*
X596804Y52130D01*
X597506Y53181D01*
X597989Y54349D01*
X598236Y55588D01*
X598236Y56220D01*
X591820Y56220D01*
X591820Y56220D01*
X598236Y56220D01*
X598236Y56852D01*
X597989Y58091D01*
X597506Y59259D01*
X596804Y60310D01*
X595910Y61204D01*
X594859Y61906D01*
X593691Y62389D01*
X592452Y62636D01*
X591820Y62636D01*
X1097639Y99419D02*
X1097639Y106751D01*
X1097639Y99419D02*
X1096921Y99419D01*
X1096921Y106751D01*
X1096522Y106751D01*
X1095037Y106455D01*
X1093637Y105876D01*
X1092377Y105034D01*
X1091306Y103963D01*
X1090464Y102703D01*
X1089885Y101303D01*
X1089589Y99818D01*
X1089589Y99419D01*
X1096921Y99419D01*
X1096921Y98701D01*
X1089589Y98701D01*
X1089589Y98302D01*
X1089885Y96817D01*
X1090464Y95417D01*
X1091306Y94157D01*
X1092377Y93086D01*
X1093637Y92244D01*
X1095037Y91665D01*
X1096522Y91369D01*
X1096921Y91369D01*
X1096921Y98701D01*
X1097639Y98701D01*
X1097639Y91369D01*
X1098038Y91369D01*
X1099523Y91665D01*
X1100923Y92244D01*
X1102183Y93086D01*
X1103254Y94157D01*
X1104096Y95417D01*
X1104675Y96817D01*
X1104971Y98302D01*
X1104971Y98701D01*
X1097639Y98701D01*
X1097639Y99419D01*
X1104971Y99419D01*
X1104971Y99818D01*
X1104675Y101303D01*
X1104096Y102703D01*
X1103254Y103963D01*
X1102183Y105034D01*
X1100923Y105876D01*
X1099523Y106455D01*
X1098038Y106751D01*
X1097639Y106751D01*
X1143359Y188319D02*
X1143359Y195651D01*
X1143359Y188319D02*
X1142641Y188319D01*
X1142641Y195651D01*
X1142242Y195651D01*
X1140757Y195355D01*
X1139357Y194776D01*
X1138097Y193934D01*
X1137026Y192863D01*
X1136184Y191603D01*
X1135605Y190203D01*
X1135309Y188718D01*
X1135309Y188319D01*
X1142641Y188319D01*
X1142641Y187601D01*
X1135309Y187601D01*
X1135309Y187202D01*
X1135605Y185717D01*
X1136184Y184317D01*
X1137026Y183057D01*
X1138097Y181986D01*
X1139357Y181144D01*
X1140757Y180565D01*
X1142242Y180269D01*
X1142641Y180269D01*
X1142641Y187601D01*
X1143359Y187601D01*
X1143359Y180269D01*
X1143758Y180269D01*
X1145243Y180565D01*
X1146643Y181144D01*
X1147903Y181986D01*
X1148974Y183057D01*
X1149816Y184317D01*
X1150395Y185717D01*
X1150691Y187202D01*
X1150691Y187601D01*
X1143359Y187601D01*
X1143359Y188319D01*
X1150691Y188319D01*
X1150691Y188718D01*
X1150395Y190203D01*
X1149816Y191603D01*
X1148974Y192863D01*
X1147903Y193934D01*
X1146643Y194776D01*
X1145243Y195355D01*
X1143758Y195651D01*
X1143359Y195651D01*
X1143359Y239119D02*
X1143359Y246451D01*
X1143359Y239119D02*
X1142641Y239119D01*
X1142641Y246451D01*
X1142242Y246451D01*
X1140757Y246155D01*
X1139357Y245576D01*
X1138097Y244734D01*
X1137026Y243663D01*
X1136184Y242403D01*
X1135605Y241003D01*
X1135309Y239518D01*
X1135309Y239119D01*
X1142641Y239119D01*
X1142641Y238401D01*
X1135309Y238401D01*
X1135309Y238002D01*
X1135605Y236517D01*
X1136184Y235117D01*
X1137026Y233857D01*
X1138097Y232786D01*
X1139357Y231944D01*
X1140757Y231365D01*
X1142242Y231069D01*
X1142641Y231069D01*
X1142641Y238401D01*
X1143359Y238401D01*
X1143359Y231069D01*
X1143758Y231069D01*
X1145243Y231365D01*
X1146643Y231944D01*
X1147903Y232786D01*
X1148974Y233857D01*
X1149816Y235117D01*
X1150395Y236517D01*
X1150691Y238002D01*
X1150691Y238401D01*
X1143359Y238401D01*
X1143359Y239119D01*
X1150691Y239119D01*
X1150691Y239518D01*
X1150395Y241003D01*
X1149816Y242403D01*
X1148974Y243663D01*
X1147903Y244734D01*
X1146643Y245576D01*
X1145243Y246155D01*
X1143758Y246451D01*
X1143359Y246451D01*
X546100Y76606D02*
X546100Y70190D01*
X546100Y70190D01*
X546100Y76606D01*
X545468Y76606D01*
X544229Y76359D01*
X543061Y75876D01*
X542010Y75174D01*
X541116Y74280D01*
X540414Y73229D01*
X539931Y72061D01*
X539684Y70822D01*
X539684Y70190D01*
X546100Y70190D01*
X546100Y70190D01*
X539684Y70190D01*
X539684Y69558D01*
X539931Y68319D01*
X540414Y67151D01*
X541116Y66100D01*
X542010Y65206D01*
X543061Y64504D01*
X544229Y64021D01*
X545468Y63774D01*
X546100Y63774D01*
X546100Y70190D01*
X546100Y70190D01*
X546100Y63774D01*
X546732Y63774D01*
X547971Y64021D01*
X549139Y64504D01*
X550190Y65206D01*
X551084Y66100D01*
X551786Y67151D01*
X552269Y68319D01*
X552516Y69558D01*
X552516Y70190D01*
X546100Y70190D01*
X546100Y70190D01*
X552516Y70190D01*
X552516Y70822D01*
X552269Y72061D01*
X551786Y73229D01*
X551084Y74280D01*
X550190Y75174D01*
X549139Y75876D01*
X547971Y76359D01*
X546732Y76606D01*
X546100Y76606D01*
X371236Y71444D02*
X371236Y68256D01*
X371236Y71444D02*
X370016Y74391D01*
X367761Y76646D01*
X364814Y77866D01*
X361626Y77866D01*
X358679Y76646D01*
X356424Y74391D01*
X355204Y71444D01*
X355204Y68256D01*
X356424Y65309D01*
X358679Y63054D01*
X361626Y61834D01*
X364814Y61834D01*
X367761Y63054D01*
X370016Y65309D01*
X371236Y68256D01*
X345836Y68256D02*
X345836Y71444D01*
X344616Y74391D01*
X342361Y76646D01*
X339414Y77866D01*
X336226Y77866D01*
X333279Y76646D01*
X331024Y74391D01*
X329804Y71444D01*
X329804Y68256D01*
X331024Y65309D01*
X333279Y63054D01*
X336226Y61834D01*
X339414Y61834D01*
X342361Y63054D01*
X344616Y65309D01*
X345836Y68256D01*
X1143359Y213719D02*
X1143359Y221051D01*
X1143359Y213719D02*
X1142641Y213719D01*
X1142641Y221051D01*
X1142242Y221051D01*
X1140757Y220755D01*
X1139357Y220176D01*
X1138097Y219334D01*
X1137026Y218263D01*
X1136184Y217003D01*
X1135605Y215603D01*
X1135309Y214118D01*
X1135309Y213719D01*
X1142641Y213719D01*
X1142641Y213001D01*
X1135309Y213001D01*
X1135309Y212602D01*
X1135605Y211117D01*
X1136184Y209717D01*
X1137026Y208457D01*
X1138097Y207386D01*
X1139357Y206544D01*
X1140757Y205965D01*
X1142242Y205669D01*
X1142641Y205669D01*
X1142641Y213001D01*
X1143359Y213001D01*
X1143359Y205669D01*
X1143758Y205669D01*
X1145243Y205965D01*
X1146643Y206544D01*
X1147903Y207386D01*
X1148974Y208457D01*
X1149816Y209717D01*
X1150395Y211117D01*
X1150691Y212602D01*
X1150691Y213001D01*
X1143359Y213001D01*
X1143359Y213719D01*
X1150691Y213719D01*
X1150691Y214118D01*
X1150395Y215603D01*
X1149816Y217003D01*
X1148974Y218263D01*
X1147903Y219334D01*
X1146643Y220176D01*
X1145243Y220755D01*
X1143758Y221051D01*
X1143359Y221051D01*
X1130659Y75001D02*
X1130659Y67669D01*
X1129941Y67669D01*
X1129941Y75001D01*
X1129542Y75001D01*
X1128057Y74705D01*
X1126657Y74126D01*
X1125397Y73284D01*
X1124326Y72213D01*
X1123484Y70953D01*
X1122905Y69553D01*
X1122609Y68068D01*
X1122609Y67669D01*
X1129941Y67669D01*
X1129941Y66951D01*
X1122609Y66951D01*
X1122609Y66552D01*
X1122905Y65067D01*
X1123484Y63667D01*
X1124326Y62407D01*
X1125397Y61336D01*
X1126657Y60494D01*
X1128057Y59915D01*
X1129542Y59619D01*
X1129941Y59619D01*
X1129941Y66951D01*
X1130659Y66951D01*
X1130659Y59619D01*
X1131058Y59619D01*
X1132543Y59915D01*
X1133943Y60494D01*
X1135203Y61336D01*
X1136274Y62407D01*
X1137116Y63667D01*
X1137695Y65067D01*
X1137991Y66552D01*
X1137991Y66951D01*
X1130659Y66951D01*
X1130659Y67669D01*
X1137991Y67669D01*
X1137991Y68068D01*
X1137695Y69553D01*
X1137116Y70953D01*
X1136274Y72213D01*
X1135203Y73284D01*
X1133943Y74126D01*
X1132543Y74705D01*
X1131058Y75001D01*
X1130659Y75001D01*
X498199Y21414D02*
X496394Y23219D01*
X494036Y24196D01*
X491484Y24196D01*
X489126Y23219D01*
X487321Y21414D01*
X486344Y19056D01*
X486344Y16504D01*
X487321Y14146D01*
X489126Y12341D01*
X491484Y11364D01*
X493115Y11364D01*
X499904Y4575D01*
X500193Y4286D01*
X402569Y4286D01*
X387826Y19029D01*
X386059Y20796D01*
X228621Y20796D01*
X224028Y16203D01*
X224028Y85097D01*
X250215Y111284D01*
X358161Y111284D01*
X382291Y87154D01*
X501920Y87154D01*
X501746Y86980D01*
X501044Y85929D01*
X500561Y84761D01*
X500314Y83522D01*
X500314Y82890D01*
X506730Y82890D01*
X506730Y82890D01*
X500314Y82890D01*
X500314Y82258D01*
X500561Y81019D01*
X501044Y79851D01*
X501746Y78800D01*
X502640Y77906D01*
X503691Y77204D01*
X504859Y76721D01*
X506098Y76474D01*
X506730Y76474D01*
X506730Y82890D01*
X506730Y82890D01*
X506730Y76474D01*
X507362Y76474D01*
X508601Y76721D01*
X509769Y77204D01*
X510820Y77906D01*
X511714Y78800D01*
X512416Y79851D01*
X512899Y81019D01*
X513146Y82258D01*
X513146Y82890D01*
X506730Y82890D01*
X506730Y82890D01*
X513146Y82890D01*
X513146Y83522D01*
X512899Y84761D01*
X512416Y85929D01*
X511714Y86980D01*
X511540Y87154D01*
X523964Y87154D01*
X512469Y75660D01*
X382881Y75660D01*
X368911Y89630D01*
X290284Y89630D01*
X289384Y90529D01*
X287026Y91506D01*
X284474Y91506D01*
X282116Y90529D01*
X280311Y88724D01*
X279334Y86366D01*
X279334Y83814D01*
X280311Y81456D01*
X282116Y79651D01*
X282654Y79428D01*
X281508Y78844D01*
X280169Y77871D01*
X278999Y76701D01*
X278026Y75362D01*
X277274Y73887D01*
X276763Y72313D01*
X276534Y70866D01*
X286004Y70866D01*
X286004Y68834D01*
X276534Y68834D01*
X276763Y67387D01*
X277274Y65813D01*
X278026Y64338D01*
X278999Y62999D01*
X280169Y61829D01*
X280360Y61690D01*
X268332Y61690D01*
X270535Y63893D01*
X272136Y67758D01*
X272136Y71942D01*
X270535Y75807D01*
X267577Y78765D01*
X263712Y80366D01*
X259528Y80366D01*
X255663Y78765D01*
X252705Y75807D01*
X251104Y71942D01*
X251104Y67758D01*
X252705Y63893D01*
X254908Y61690D01*
X247039Y61690D01*
X246736Y61386D01*
X246736Y78599D01*
X244969Y80366D01*
X227471Y80366D01*
X225704Y78599D01*
X225704Y61101D01*
X227471Y59334D01*
X244684Y59334D01*
X244380Y59031D01*
X241170Y55820D01*
X237752Y54966D01*
X234128Y54966D01*
X230263Y53365D01*
X227305Y50407D01*
X225704Y46542D01*
X225704Y42358D01*
X227305Y38493D01*
X230263Y35535D01*
X234128Y33934D01*
X238312Y33934D01*
X242177Y35535D01*
X245135Y38493D01*
X246736Y42358D01*
X246736Y45982D01*
X247590Y49400D01*
X250801Y52610D01*
X254908Y52610D01*
X252705Y50407D01*
X251104Y46542D01*
X251104Y42358D01*
X252705Y38493D01*
X255663Y35535D01*
X259528Y33934D01*
X263712Y33934D01*
X267577Y35535D01*
X270535Y38493D01*
X272136Y42358D01*
X272136Y46542D01*
X270535Y50407D01*
X268332Y52610D01*
X280360Y52610D01*
X280169Y52471D01*
X278999Y51301D01*
X278026Y49962D01*
X277274Y48487D01*
X276763Y46913D01*
X276534Y45466D01*
X286004Y45466D01*
X286004Y43434D01*
X276534Y43434D01*
X276763Y41987D01*
X277274Y40413D01*
X278026Y38938D01*
X278999Y37599D01*
X280169Y36429D01*
X281508Y35456D01*
X282983Y34704D01*
X284557Y34193D01*
X286004Y33964D01*
X286004Y43434D01*
X288036Y43434D01*
X288036Y33964D01*
X289483Y34193D01*
X291057Y34704D01*
X292532Y35456D01*
X293871Y36429D01*
X295041Y37599D01*
X296014Y38938D01*
X296766Y40413D01*
X297277Y41987D01*
X297506Y43434D01*
X288036Y43434D01*
X288036Y45466D01*
X297506Y45466D01*
X297277Y46913D01*
X296766Y48487D01*
X296014Y49962D01*
X295041Y51301D01*
X293871Y52471D01*
X293680Y52610D01*
X331108Y52610D01*
X328905Y50407D01*
X327304Y46542D01*
X327304Y42358D01*
X328905Y38493D01*
X331863Y35535D01*
X335728Y33934D01*
X337231Y33934D01*
X342102Y32310D01*
X342424Y31989D01*
X343694Y30719D01*
X346949Y27464D01*
X388554Y27464D01*
X388554Y26104D01*
X389531Y23746D01*
X391336Y21941D01*
X393694Y20964D01*
X396246Y20964D01*
X398604Y21941D01*
X400409Y23746D01*
X401386Y26104D01*
X401386Y27464D01*
X404099Y27464D01*
X412989Y18574D01*
X467121Y18574D01*
X481091Y32544D01*
X537668Y32544D01*
X539744Y31684D01*
X542296Y31684D01*
X544372Y32544D01*
X1127521Y32544D01*
X1130776Y35799D01*
X1130776Y35799D01*
X1166891Y71914D01*
X1170146Y75169D01*
X1170146Y245349D01*
X1201181Y276384D01*
X1211834Y276384D01*
X1211834Y270089D01*
X1212429Y269494D01*
X1242854Y269494D01*
X1242854Y265906D01*
X1232773Y265906D01*
X1232006Y265700D01*
X1231318Y265303D01*
X1230757Y264742D01*
X1230440Y264194D01*
X1229326Y263732D01*
X1227996Y262844D01*
X1226866Y261714D01*
X1225978Y260384D01*
X1225366Y258907D01*
X1225054Y257339D01*
X1225054Y257024D01*
X1232686Y257024D01*
X1232686Y256056D01*
X1225054Y256056D01*
X1225054Y255741D01*
X1225366Y254173D01*
X1225978Y252696D01*
X1226866Y251366D01*
X1227996Y250236D01*
X1229326Y249348D01*
X1230440Y248886D01*
X1230757Y248338D01*
X1231318Y247777D01*
X1232006Y247380D01*
X1232773Y247174D01*
X1241129Y247174D01*
X1232694Y238739D01*
X1232694Y205761D01*
X1232969Y205486D01*
X1220049Y205486D01*
X1219454Y204891D01*
X1219454Y191230D01*
X1218589Y191230D01*
X1215930Y188571D01*
X1215930Y184809D01*
X1218589Y182150D01*
X1219454Y182150D01*
X1219454Y172180D01*
X1218589Y172180D01*
X1215930Y169521D01*
X1215930Y165759D01*
X1218589Y163100D01*
X1219454Y163100D01*
X1219454Y153130D01*
X1218589Y153130D01*
X1215930Y150471D01*
X1215930Y146709D01*
X1218589Y144050D01*
X1219454Y144050D01*
X1219454Y127730D01*
X1218589Y127730D01*
X1215930Y125071D01*
X1215930Y121309D01*
X1218589Y118650D01*
X1219454Y118650D01*
X1219454Y112609D01*
X1220049Y112014D01*
X1245161Y112014D01*
X1251675Y105500D01*
X1250716Y104541D01*
X1251045Y104212D01*
X1250974Y103947D01*
X1250974Y103153D01*
X1251179Y102386D01*
X1251576Y101698D01*
X1253429Y99846D01*
X1252994Y99846D01*
X1252994Y99531D01*
X1253029Y99354D01*
X1249279Y103104D01*
X1245226Y99052D01*
X1244829Y98364D01*
X1244624Y97597D01*
X1244624Y96803D01*
X1244829Y96036D01*
X1245016Y95713D01*
X1244646Y95344D01*
X1243758Y94014D01*
X1243146Y92537D01*
X1242834Y90969D01*
X1242834Y90654D01*
X1249920Y90654D01*
X1250466Y90109D01*
X1250466Y89686D01*
X1242834Y89686D01*
X1242834Y89371D01*
X1243146Y87803D01*
X1243758Y86326D01*
X1244646Y84996D01*
X1245776Y83866D01*
X1247106Y82978D01*
X1248583Y82366D01*
X1250151Y82054D01*
X1250454Y82054D01*
X1250454Y81751D01*
X1250766Y80183D01*
X1251378Y78706D01*
X1252266Y77376D01*
X1253396Y76246D01*
X1254726Y75358D01*
X1256203Y74746D01*
X1257771Y74434D01*
X1258086Y74434D01*
X1258086Y82066D01*
X1258509Y82066D01*
X1259054Y81520D01*
X1259054Y74434D01*
X1259369Y74434D01*
X1260937Y74746D01*
X1262414Y75358D01*
X1263744Y76246D01*
X1264113Y76616D01*
X1264436Y76429D01*
X1265203Y76224D01*
X1265997Y76224D01*
X1266764Y76429D01*
X1267452Y76826D01*
X1271504Y80879D01*
X1267754Y84629D01*
X1267931Y84594D01*
X1268246Y84594D01*
X1268246Y85029D01*
X1270098Y83176D01*
X1270786Y82779D01*
X1271553Y82574D01*
X1272347Y82574D01*
X1272612Y82645D01*
X1272941Y82316D01*
X1273900Y83275D01*
X1291389Y65786D01*
X1270849Y65786D01*
X1270254Y65191D01*
X1270254Y57626D01*
X1254255Y57626D01*
X1213615Y16986D01*
X512315Y16986D01*
X511876Y17425D01*
X511876Y19056D01*
X510899Y21414D01*
X509094Y23219D01*
X506736Y24196D01*
X504184Y24196D01*
X501826Y23219D01*
X500021Y21414D01*
X499110Y19215D01*
X498199Y21414D01*
X1168759Y54969D02*
X1168759Y62301D01*
X1168759Y54969D02*
X1168041Y54969D01*
X1168041Y62301D01*
X1167642Y62301D01*
X1166157Y62005D01*
X1164757Y61426D01*
X1163497Y60584D01*
X1162426Y59513D01*
X1161584Y58253D01*
X1161005Y56853D01*
X1160709Y55368D01*
X1160709Y54969D01*
X1168041Y54969D01*
X1168041Y54251D01*
X1160709Y54251D01*
X1160709Y53852D01*
X1161005Y52367D01*
X1161584Y50967D01*
X1162426Y49707D01*
X1163497Y48636D01*
X1164757Y47794D01*
X1166157Y47215D01*
X1167642Y46919D01*
X1168041Y46919D01*
X1168041Y54251D01*
X1168759Y54251D01*
X1168759Y46919D01*
X1169158Y46919D01*
X1170643Y47215D01*
X1172043Y47794D01*
X1173303Y48636D01*
X1174374Y49707D01*
X1175216Y50967D01*
X1175795Y52367D01*
X1176091Y53852D01*
X1176091Y54251D01*
X1168759Y54251D01*
X1168759Y54969D01*
X1176091Y54969D01*
X1176091Y55368D01*
X1175795Y56853D01*
X1175216Y58253D01*
X1174374Y59513D01*
X1173303Y60584D01*
X1172043Y61426D01*
X1170643Y62005D01*
X1169158Y62301D01*
X1168759Y62301D01*
X1183999Y213719D02*
X1183999Y221051D01*
X1183999Y213719D02*
X1183281Y213719D01*
X1183281Y221051D01*
X1182882Y221051D01*
X1181397Y220755D01*
X1179997Y220176D01*
X1178737Y219334D01*
X1177666Y218263D01*
X1176824Y217003D01*
X1176245Y215603D01*
X1175949Y214118D01*
X1175949Y213719D01*
X1183281Y213719D01*
X1183281Y213001D01*
X1175949Y213001D01*
X1175949Y212602D01*
X1176245Y211117D01*
X1176824Y209717D01*
X1177666Y208457D01*
X1178737Y207386D01*
X1179997Y206544D01*
X1181397Y205965D01*
X1182882Y205669D01*
X1183281Y205669D01*
X1183281Y213001D01*
X1183999Y213001D01*
X1183999Y205669D01*
X1184398Y205669D01*
X1185883Y205965D01*
X1187283Y206544D01*
X1188543Y207386D01*
X1189614Y208457D01*
X1190456Y209717D01*
X1191035Y211117D01*
X1191331Y212602D01*
X1191331Y213001D01*
X1183999Y213001D01*
X1183999Y213719D01*
X1191331Y213719D01*
X1191331Y214118D01*
X1191035Y215603D01*
X1190456Y217003D01*
X1189614Y218263D01*
X1188543Y219334D01*
X1187283Y220176D01*
X1185883Y220755D01*
X1184398Y221051D01*
X1183999Y221051D01*
X1233529Y111831D02*
X1233529Y104499D01*
X1232811Y104499D01*
X1232811Y111831D01*
X1232412Y111831D01*
X1230927Y111535D01*
X1229527Y110956D01*
X1228267Y110114D01*
X1227196Y109043D01*
X1226354Y107783D01*
X1225775Y106383D01*
X1225479Y104898D01*
X1225479Y104499D01*
X1232811Y104499D01*
X1232811Y103781D01*
X1225479Y103781D01*
X1225479Y103382D01*
X1225775Y101897D01*
X1226354Y100497D01*
X1227196Y99237D01*
X1228267Y98166D01*
X1229527Y97324D01*
X1230927Y96745D01*
X1232412Y96449D01*
X1232811Y96449D01*
X1232811Y103781D01*
X1233529Y103781D01*
X1233529Y96449D01*
X1233928Y96449D01*
X1235413Y96745D01*
X1236813Y97324D01*
X1238073Y98166D01*
X1239144Y99237D01*
X1239986Y100497D01*
X1240565Y101897D01*
X1240861Y103382D01*
X1240861Y103781D01*
X1233529Y103781D01*
X1233529Y104499D01*
X1240861Y104499D01*
X1240861Y104898D01*
X1240565Y106383D01*
X1239986Y107783D01*
X1239144Y109043D01*
X1238073Y110114D01*
X1236813Y110956D01*
X1235413Y111535D01*
X1233928Y111831D01*
X1233529Y111831D01*
X1208129Y256899D02*
X1208129Y264231D01*
X1208129Y256899D02*
X1207411Y256899D01*
X1207411Y264231D01*
X1207012Y264231D01*
X1205527Y263935D01*
X1204127Y263356D01*
X1202867Y262514D01*
X1201796Y261443D01*
X1200954Y260183D01*
X1200375Y258783D01*
X1200079Y257298D01*
X1200079Y256899D01*
X1207411Y256899D01*
X1207411Y256181D01*
X1200079Y256181D01*
X1200079Y255782D01*
X1200375Y254297D01*
X1200954Y252897D01*
X1201796Y251637D01*
X1202867Y250566D01*
X1204127Y249724D01*
X1205527Y249145D01*
X1207012Y248849D01*
X1207411Y248849D01*
X1207411Y256181D01*
X1208129Y256181D01*
X1208129Y248849D01*
X1208528Y248849D01*
X1210013Y249145D01*
X1211413Y249724D01*
X1212673Y250566D01*
X1213744Y251637D01*
X1214586Y252897D01*
X1215165Y254297D01*
X1215461Y255782D01*
X1215461Y256181D01*
X1208129Y256181D01*
X1208129Y256899D01*
X1215461Y256899D01*
X1215461Y257298D01*
X1215165Y258783D01*
X1214586Y260183D01*
X1213744Y261443D01*
X1212673Y262514D01*
X1211413Y263356D01*
X1210013Y263935D01*
X1208528Y264231D01*
X1208129Y264231D01*
X320436Y46044D02*
X320436Y42856D01*
X320436Y46044D02*
X319216Y48991D01*
X316961Y51246D01*
X314014Y52466D01*
X310826Y52466D01*
X307879Y51246D01*
X305624Y48991D01*
X304404Y46044D01*
X304404Y42856D01*
X305624Y39909D01*
X307879Y37654D01*
X310826Y36434D01*
X314014Y36434D01*
X316961Y37654D01*
X319216Y39909D01*
X320436Y42856D01*
X1222099Y231499D02*
X1222099Y238831D01*
X1222099Y231499D02*
X1221381Y231499D01*
X1221381Y238831D01*
X1220982Y238831D01*
X1219497Y238535D01*
X1218097Y237956D01*
X1216837Y237114D01*
X1215766Y236043D01*
X1214924Y234783D01*
X1214345Y233383D01*
X1214049Y231898D01*
X1214049Y231499D01*
X1221381Y231499D01*
X1221381Y230781D01*
X1214049Y230781D01*
X1214049Y230382D01*
X1214345Y228897D01*
X1214924Y227497D01*
X1215766Y226237D01*
X1216837Y225166D01*
X1218097Y224324D01*
X1219497Y223745D01*
X1220982Y223449D01*
X1221381Y223449D01*
X1221381Y230781D01*
X1222099Y230781D01*
X1222099Y223449D01*
X1222498Y223449D01*
X1223983Y223745D01*
X1225383Y224324D01*
X1226643Y225166D01*
X1227714Y226237D01*
X1228556Y227497D01*
X1229135Y228897D01*
X1229431Y230382D01*
X1229431Y230781D01*
X1222099Y230781D01*
X1222099Y231499D01*
X1229431Y231499D01*
X1229431Y231898D01*
X1229135Y233383D01*
X1228556Y234783D01*
X1227714Y236043D01*
X1226643Y237114D01*
X1225383Y237956D01*
X1223983Y238535D01*
X1222498Y238831D01*
X1222099Y238831D01*
X1234799Y88971D02*
X1234799Y81639D01*
X1234081Y81639D01*
X1234081Y88971D01*
X1233682Y88971D01*
X1232197Y88675D01*
X1230797Y88096D01*
X1229537Y87254D01*
X1228466Y86183D01*
X1227624Y84923D01*
X1227045Y83523D01*
X1226749Y82038D01*
X1226749Y81639D01*
X1234081Y81639D01*
X1234081Y80921D01*
X1226749Y80921D01*
X1226749Y80522D01*
X1227045Y79037D01*
X1227624Y77637D01*
X1228466Y76377D01*
X1229537Y75306D01*
X1230797Y74464D01*
X1232197Y73885D01*
X1233682Y73589D01*
X1234081Y73589D01*
X1234081Y80921D01*
X1234799Y80921D01*
X1234799Y73589D01*
X1235198Y73589D01*
X1236683Y73885D01*
X1238083Y74464D01*
X1239343Y75306D01*
X1240414Y76377D01*
X1241256Y77637D01*
X1241835Y79037D01*
X1242131Y80522D01*
X1242131Y80921D01*
X1234799Y80921D01*
X1234799Y81639D01*
X1242131Y81639D01*
X1242131Y82038D01*
X1241835Y83523D01*
X1241256Y84923D01*
X1240414Y86183D01*
X1239343Y87254D01*
X1238083Y88096D01*
X1236683Y88675D01*
X1235198Y88971D01*
X1234799Y88971D01*
X541020Y30956D02*
X541020Y24540D01*
X541020Y24540D01*
X541020Y30956D01*
X540388Y30956D01*
X539149Y30709D01*
X537981Y30226D01*
X536930Y29524D01*
X536036Y28630D01*
X535334Y27579D01*
X534851Y26411D01*
X534604Y25172D01*
X534604Y24540D01*
X541020Y24540D01*
X541020Y24540D01*
X534604Y24540D01*
X534604Y23908D01*
X534851Y22669D01*
X535334Y21501D01*
X536036Y20450D01*
X536930Y19556D01*
X537981Y18854D01*
X539149Y18371D01*
X540388Y18124D01*
X541020Y18124D01*
X541020Y24540D01*
X541020Y24540D01*
X541020Y18124D01*
X541652Y18124D01*
X542891Y18371D01*
X544059Y18854D01*
X545110Y19556D01*
X546004Y20450D01*
X546706Y21501D01*
X547189Y22669D01*
X547436Y23908D01*
X547436Y24540D01*
X541020Y24540D01*
X541020Y24540D01*
X547436Y24540D01*
X547436Y25172D01*
X547189Y26411D01*
X546706Y27579D01*
X546004Y28630D01*
X545110Y29524D01*
X544059Y30226D01*
X542891Y30709D01*
X541652Y30956D01*
X541020Y30956D01*
X1183999Y188319D02*
X1183999Y195651D01*
X1183999Y188319D02*
X1183281Y188319D01*
X1183281Y195651D01*
X1182882Y195651D01*
X1181397Y195355D01*
X1179997Y194776D01*
X1178737Y193934D01*
X1177666Y192863D01*
X1176824Y191603D01*
X1176245Y190203D01*
X1175949Y188718D01*
X1175949Y188319D01*
X1183281Y188319D01*
X1183281Y187601D01*
X1175949Y187601D01*
X1175949Y187202D01*
X1176245Y185717D01*
X1176824Y184317D01*
X1177666Y183057D01*
X1178737Y181986D01*
X1179997Y181144D01*
X1181397Y180565D01*
X1182882Y180269D01*
X1183281Y180269D01*
X1183281Y187601D01*
X1183999Y187601D01*
X1183999Y180269D01*
X1184398Y180269D01*
X1185883Y180565D01*
X1187283Y181144D01*
X1188543Y181986D01*
X1189614Y183057D01*
X1190456Y184317D01*
X1191035Y185717D01*
X1191331Y187202D01*
X1191331Y187601D01*
X1183999Y187601D01*
X1183999Y188319D01*
X1191331Y188319D01*
X1191331Y188718D01*
X1191035Y190203D01*
X1190456Y191603D01*
X1189614Y192863D01*
X1188543Y193934D01*
X1187283Y194776D01*
X1185883Y195355D01*
X1184398Y195651D01*
X1183999Y195651D01*
X1183999Y239119D02*
X1183999Y246451D01*
X1183999Y239119D02*
X1183281Y239119D01*
X1183281Y246451D01*
X1182882Y246451D01*
X1181397Y246155D01*
X1179997Y245576D01*
X1178737Y244734D01*
X1177666Y243663D01*
X1176824Y242403D01*
X1176245Y241003D01*
X1175949Y239518D01*
X1175949Y239119D01*
X1183281Y239119D01*
X1183281Y238401D01*
X1175949Y238401D01*
X1175949Y238002D01*
X1176245Y236517D01*
X1176824Y235117D01*
X1177666Y233857D01*
X1178737Y232786D01*
X1179997Y231944D01*
X1181397Y231365D01*
X1182882Y231069D01*
X1183281Y231069D01*
X1183281Y238401D01*
X1183999Y238401D01*
X1183999Y231069D01*
X1184398Y231069D01*
X1185883Y231365D01*
X1187283Y231944D01*
X1188543Y232786D01*
X1189614Y233857D01*
X1190456Y235117D01*
X1191035Y236517D01*
X1191331Y238002D01*
X1191331Y238401D01*
X1183999Y238401D01*
X1183999Y239119D01*
X1191331Y239119D01*
X1191331Y239518D01*
X1191035Y241003D01*
X1190456Y242403D01*
X1189614Y243663D01*
X1188543Y244734D01*
X1187283Y245576D01*
X1185883Y246155D01*
X1184398Y246451D01*
X1183999Y246451D01*
X589280Y30956D02*
X589280Y24540D01*
X589280Y24540D01*
X589280Y30956D01*
X588648Y30956D01*
X587409Y30709D01*
X586241Y30226D01*
X585190Y29524D01*
X584296Y28630D01*
X583594Y27579D01*
X583111Y26411D01*
X582864Y25172D01*
X582864Y24540D01*
X589280Y24540D01*
X589280Y24540D01*
X582864Y24540D01*
X582864Y23908D01*
X583111Y22669D01*
X583594Y21501D01*
X584296Y20450D01*
X585190Y19556D01*
X586241Y18854D01*
X587409Y18371D01*
X588648Y18124D01*
X589280Y18124D01*
X589280Y24540D01*
X589280Y24540D01*
X589280Y18124D01*
X589912Y18124D01*
X591151Y18371D01*
X592319Y18854D01*
X593370Y19556D01*
X594264Y20450D01*
X594966Y21501D01*
X595449Y22669D01*
X595696Y23908D01*
X595696Y24540D01*
X589280Y24540D01*
X589280Y24540D01*
X595696Y24540D01*
X595696Y25172D01*
X595449Y26411D01*
X594966Y27579D01*
X594264Y28630D01*
X593370Y29524D01*
X592319Y30226D01*
X591151Y30709D01*
X589912Y30956D01*
X589280Y30956D01*
X439420Y17846D02*
X439420Y11430D01*
X439420Y11430D01*
X439420Y17846D01*
X438788Y17846D01*
X437549Y17599D01*
X436381Y17116D01*
X435330Y16414D01*
X434436Y15520D01*
X433734Y14469D01*
X433251Y13301D01*
X433004Y12062D01*
X433004Y11430D01*
X439420Y11430D01*
X439420Y11430D01*
X433004Y11430D01*
X433004Y10798D01*
X433251Y9559D01*
X433734Y8391D01*
X434436Y7340D01*
X435330Y6446D01*
X436381Y5744D01*
X437549Y5261D01*
X438788Y5014D01*
X439420Y5014D01*
X439420Y11430D01*
X439420Y11430D01*
X439420Y5014D01*
X440052Y5014D01*
X441291Y5261D01*
X442459Y5744D01*
X443510Y6446D01*
X444404Y7340D01*
X445106Y8391D01*
X445589Y9559D01*
X445836Y10798D01*
X445836Y11430D01*
X439420Y11430D01*
X439420Y11430D01*
X445836Y11430D01*
X445836Y12062D01*
X445589Y13301D01*
X445106Y14469D01*
X444404Y15520D01*
X443510Y16414D01*
X442459Y17116D01*
X441291Y17599D01*
X440052Y17846D01*
X439420Y17846D01*
X433910Y8128D02*
X398727Y8128D01*
X439420Y8128D02*
X439420Y8128D01*
X444930Y8128D02*
X496351Y8128D01*
X224081Y16256D02*
X224028Y16256D01*
X390599Y16256D02*
X435172Y16256D01*
X439420Y16256D02*
X439420Y16256D01*
X443668Y16256D02*
X486447Y16256D01*
X389266Y24384D02*
X224028Y24384D01*
X400674Y24384D02*
X407179Y24384D01*
X472931Y24384D02*
X534604Y24384D01*
X541020Y24384D02*
X541020Y24384D01*
X547436Y24384D02*
X582864Y24384D01*
X589280Y24384D02*
X589280Y24384D01*
X595696Y24384D02*
X1221013Y24384D01*
X341497Y32512D02*
X224028Y32512D01*
X414765Y32512D02*
X438586Y32512D01*
X450414Y32512D02*
X465345Y32512D01*
X481059Y32512D02*
X537745Y32512D01*
X544295Y32512D02*
X1229141Y32512D01*
X226416Y40640D02*
X224028Y40640D01*
X246024Y40640D02*
X251816Y40640D01*
X271424Y40640D02*
X277201Y40640D01*
X286004Y40640D02*
X288036Y40640D01*
X296839Y40640D02*
X305322Y40640D01*
X319518Y40640D02*
X328016Y40640D01*
X350330Y40640D02*
X356122Y40640D01*
X370318Y40640D02*
X440554Y40640D01*
X448446Y40640D02*
X473473Y40640D01*
X1135617Y40640D02*
X1237269Y40640D01*
X226626Y48768D02*
X224028Y48768D01*
X247432Y48768D02*
X252026Y48768D01*
X271214Y48768D02*
X277418Y48768D01*
X296622Y48768D02*
X305532Y48768D01*
X319308Y48768D02*
X328226Y48768D01*
X347414Y48768D02*
X356332Y48768D01*
X370108Y48768D02*
X438820Y48768D01*
X444500Y48768D02*
X444500Y48768D01*
X450180Y48768D02*
X1128031Y48768D01*
X1143745Y48768D02*
X1163365Y48768D01*
X1168041Y48768D02*
X1168759Y48768D01*
X1173435Y48768D02*
X1245397Y48768D01*
X242246Y56896D02*
X224028Y56896D01*
X384876Y56896D02*
X585413Y56896D01*
X591820Y56896D02*
X591820Y56896D01*
X598227Y56896D02*
X1136159Y56896D01*
X1151873Y56896D02*
X1161022Y56896D01*
X1168041Y56896D02*
X1168759Y56896D01*
X1175778Y56896D02*
X1253525Y56896D01*
X225704Y65024D02*
X224028Y65024D01*
X246736Y65024D02*
X252237Y65024D01*
X271003Y65024D02*
X277677Y65024D01*
X296363Y65024D02*
X303037Y65024D01*
X321803Y65024D02*
X331310Y65024D01*
X344330Y65024D02*
X356710Y65024D01*
X369730Y65024D02*
X542283Y65024D01*
X546100Y65024D02*
X546100Y65024D01*
X549917Y65024D02*
X1122922Y65024D01*
X1129941Y65024D02*
X1130659Y65024D01*
X1137678Y65024D02*
X1144287Y65024D01*
X1160001Y65024D02*
X1270254Y65024D01*
X225704Y73152D02*
X224028Y73152D01*
X246736Y73152D02*
X251605Y73152D01*
X271635Y73152D02*
X277036Y73152D01*
X297004Y73152D02*
X302405Y73152D01*
X322435Y73152D02*
X330511Y73152D01*
X345129Y73152D02*
X355911Y73152D01*
X370529Y73152D02*
X372547Y73152D01*
X522803Y73152D02*
X540382Y73152D01*
X546100Y73152D02*
X546100Y73152D01*
X551818Y73152D02*
X1064189Y73152D01*
X1071521Y73152D02*
X1072239Y73152D01*
X1079571Y73152D02*
X1125265Y73152D01*
X1129941Y73152D02*
X1130659Y73152D01*
X1135335Y73152D02*
X1152415Y73152D01*
X1168129Y73152D02*
X1284023Y73152D01*
X280486Y81280D02*
X224028Y81280D01*
X377261Y81280D02*
X500509Y81280D01*
X506730Y81280D02*
X506730Y81280D01*
X512951Y81280D02*
X518090Y81280D01*
X1146994Y81280D02*
X1159034Y81280D01*
X1170146Y81280D02*
X1234081Y81280D01*
X1234799Y81280D02*
X1250548Y81280D01*
X1258086Y81280D02*
X1259054Y81280D01*
X1271103Y81280D02*
X1275895Y81280D01*
X280994Y89408D02*
X228339Y89408D01*
X369133Y89408D02*
X380037Y89408D01*
X1146486Y89408D02*
X1159034Y89408D01*
X1170146Y89408D02*
X1242834Y89408D01*
X371909Y97536D02*
X236467Y97536D01*
X1078706Y97536D02*
X1089741Y97536D01*
X1096921Y97536D02*
X1097639Y97536D01*
X1104819Y97536D02*
X1159034Y97536D01*
X1170146Y97536D02*
X1229210Y97536D01*
X1232811Y97536D02*
X1233529Y97536D01*
X1237130Y97536D02*
X1244624Y97536D01*
X363781Y105664D02*
X244595Y105664D01*
X1078706Y105664D02*
X1093320Y105664D01*
X1096921Y105664D02*
X1097639Y105664D01*
X1101240Y105664D02*
X1159034Y105664D01*
X1170146Y105664D02*
X1225631Y105664D01*
X1232811Y105664D02*
X1233529Y105664D01*
X1240709Y105664D02*
X1251511Y105664D01*
X1159034Y113792D02*
X1078706Y113792D01*
X1170146Y113792D02*
X1219454Y113792D01*
X1159034Y121920D02*
X1078706Y121920D01*
X1170146Y121920D02*
X1215930Y121920D01*
X1159034Y130048D02*
X1078706Y130048D01*
X1170146Y130048D02*
X1219454Y130048D01*
X1159034Y138176D02*
X1078706Y138176D01*
X1170146Y138176D02*
X1219454Y138176D01*
X1159034Y146304D02*
X1078706Y146304D01*
X1170146Y146304D02*
X1216335Y146304D01*
X1159034Y154432D02*
X1078738Y154432D01*
X1170146Y154432D02*
X1219454Y154432D01*
X1159034Y162560D02*
X1078738Y162560D01*
X1170146Y162560D02*
X1219454Y162560D01*
X1159034Y170688D02*
X1078738Y170688D01*
X1170146Y170688D02*
X1217097Y170688D01*
X1159034Y178816D02*
X1078738Y178816D01*
X1170146Y178816D02*
X1219454Y178816D01*
X1135360Y186944D02*
X1078738Y186944D01*
X1142641Y186944D02*
X1143359Y186944D01*
X1150640Y186944D02*
X1159034Y186944D01*
X1170146Y186944D02*
X1176000Y186944D01*
X1183281Y186944D02*
X1183999Y186944D01*
X1191280Y186944D02*
X1215930Y186944D01*
X1140072Y195072D02*
X1078738Y195072D01*
X1142641Y195072D02*
X1143359Y195072D01*
X1145928Y195072D02*
X1159034Y195072D01*
X1170146Y195072D02*
X1180712Y195072D01*
X1183281Y195072D02*
X1183999Y195072D01*
X1186568Y195072D02*
X1219454Y195072D01*
X1159034Y203200D02*
X1078738Y203200D01*
X1170146Y203200D02*
X1219454Y203200D01*
X1135563Y211328D02*
X1078738Y211328D01*
X1142641Y211328D02*
X1143359Y211328D01*
X1150437Y211328D02*
X1159034Y211328D01*
X1170146Y211328D02*
X1176203Y211328D01*
X1183281Y211328D02*
X1183999Y211328D01*
X1191077Y211328D02*
X1232694Y211328D01*
X1138280Y219456D02*
X1078738Y219456D01*
X1142641Y219456D02*
X1143359Y219456D01*
X1147720Y219456D02*
X1159034Y219456D01*
X1170146Y219456D02*
X1178920Y219456D01*
X1183281Y219456D02*
X1183999Y219456D01*
X1188360Y219456D02*
X1232694Y219456D01*
X1159034Y227584D02*
X1078738Y227584D01*
X1170146Y227584D02*
X1214888Y227584D01*
X1221381Y227584D02*
X1222099Y227584D01*
X1228592Y227584D02*
X1232694Y227584D01*
X1135938Y235712D02*
X1078738Y235712D01*
X1142641Y235712D02*
X1143359Y235712D01*
X1150062Y235712D02*
X1159034Y235712D01*
X1170146Y235712D02*
X1176578Y235712D01*
X1183281Y235712D02*
X1183999Y235712D01*
X1190702Y235712D02*
X1215545Y235712D01*
X1221381Y235712D02*
X1222099Y235712D01*
X1227935Y235712D02*
X1232694Y235712D01*
X1137203Y243840D02*
X1078738Y243840D01*
X1142641Y243840D02*
X1143359Y243840D01*
X1148797Y243840D02*
X1159034Y243840D01*
X1170146Y243840D02*
X1177843Y243840D01*
X1183281Y243840D02*
X1183999Y243840D01*
X1189437Y243840D02*
X1237795Y243840D01*
X1161051Y251968D02*
X1078738Y251968D01*
X1176765Y251968D02*
X1201575Y251968D01*
X1207411Y251968D02*
X1208129Y251968D01*
X1213965Y251968D02*
X1226464Y251968D01*
X1169179Y260096D02*
X1078738Y260096D01*
X1184893Y260096D02*
X1200918Y260096D01*
X1207411Y260096D02*
X1208129Y260096D01*
X1214622Y260096D02*
X1225858Y260096D01*
X1177307Y268224D02*
X1078738Y268224D01*
X1193021Y268224D02*
X1242854Y268224D01*
X1185435Y276352D02*
X1078738Y276352D01*
X1201149Y276352D02*
X1211834Y276352D01*
X1193563Y284480D02*
X1078738Y284480D01*
X1084273Y292608D02*
X1211834Y292608D01*
X227584Y38214D02*
X227584Y19759D01*
X227584Y50686D02*
X227584Y59334D01*
X227584Y80366D02*
X227584Y88654D01*
X235712Y33934D02*
X235712Y20796D01*
X235712Y54966D02*
X235712Y59334D01*
X235712Y80366D02*
X235712Y96782D01*
X243840Y37198D02*
X243840Y20796D01*
X243840Y58491D02*
X243840Y59334D01*
X243840Y80366D02*
X243840Y104910D01*
X251968Y40272D02*
X251968Y20796D01*
X251968Y48628D02*
X251968Y52610D01*
X251968Y61690D02*
X251968Y65672D01*
X251968Y74028D02*
X251968Y111284D01*
X260096Y33934D02*
X260096Y20796D01*
X260096Y80366D02*
X260096Y111284D01*
X268224Y36182D02*
X268224Y20796D01*
X268224Y78118D02*
X268224Y111284D01*
X276352Y52610D02*
X276352Y20796D01*
X276352Y61690D02*
X276352Y111284D01*
X284480Y34218D02*
X284480Y20796D01*
X284480Y43434D02*
X284480Y45466D01*
X284480Y68834D02*
X284480Y70866D01*
X284480Y91506D02*
X284480Y111284D01*
X292608Y35511D02*
X292608Y20796D01*
X292608Y43434D02*
X292608Y45466D01*
X292608Y68834D02*
X292608Y70866D01*
X292608Y78789D02*
X292608Y80550D01*
X292608Y89630D02*
X292608Y111284D01*
X300736Y52610D02*
X300736Y20796D01*
X300736Y61690D02*
X300736Y80550D01*
X300736Y89630D02*
X300736Y111284D01*
X308864Y37246D02*
X308864Y20796D01*
X308864Y51654D02*
X308864Y52610D01*
X308864Y79759D02*
X308864Y80550D01*
X308864Y89630D02*
X308864Y111284D01*
X316992Y37686D02*
X316992Y20796D01*
X316992Y51214D02*
X316992Y52610D01*
X316992Y79339D02*
X316992Y80550D01*
X316992Y89630D02*
X316992Y111284D01*
X325120Y52610D02*
X325120Y20796D01*
X325120Y61690D02*
X325120Y80550D01*
X325120Y89630D02*
X325120Y111284D01*
X333248Y34961D02*
X333248Y20796D01*
X333248Y61690D02*
X333248Y63086D01*
X333248Y76614D02*
X333248Y80550D01*
X333248Y89630D02*
X333248Y111284D01*
X341376Y32552D02*
X341376Y20796D01*
X341376Y61690D02*
X341376Y62646D01*
X341376Y77053D02*
X341376Y80550D01*
X341376Y89630D02*
X341376Y111284D01*
X349504Y27464D02*
X349504Y20796D01*
X349504Y42704D02*
X349504Y52610D01*
X349504Y61690D02*
X349504Y80550D01*
X349504Y89630D02*
X349504Y111284D01*
X357632Y27464D02*
X357632Y20796D01*
X357632Y38576D02*
X357632Y38702D01*
X357632Y50198D02*
X357632Y52610D01*
X357632Y61690D02*
X357632Y64102D01*
X357632Y75598D02*
X357632Y80550D01*
X357632Y89630D02*
X357632Y111284D01*
X365760Y27464D02*
X365760Y20796D01*
X365760Y52074D02*
X365760Y52610D01*
X365760Y61690D02*
X365760Y62226D01*
X365760Y77474D02*
X365760Y79939D01*
X365760Y89630D02*
X365760Y103685D01*
X373888Y27464D02*
X373888Y20796D01*
X373888Y38576D02*
X373888Y52610D01*
X373888Y61690D02*
X373888Y71811D01*
X373888Y84653D02*
X373888Y95557D01*
X382016Y27464D02*
X382016Y20796D01*
X382016Y38576D02*
X382016Y51678D01*
X382016Y62622D02*
X382016Y66580D01*
X382016Y76525D02*
X382016Y87429D01*
X390144Y23132D02*
X390144Y16711D01*
X390144Y38576D02*
X390144Y66580D01*
X390144Y75660D02*
X390144Y87154D01*
X398272Y21803D02*
X398272Y8583D01*
X398272Y38576D02*
X398272Y66580D01*
X398272Y75660D02*
X398272Y87154D01*
X406400Y25163D02*
X406400Y4286D01*
X406400Y38576D02*
X406400Y66580D01*
X406400Y75660D02*
X406400Y87154D01*
X414528Y18574D02*
X414528Y4286D01*
X414528Y32749D02*
X414528Y66580D01*
X414528Y75660D02*
X414528Y87154D01*
X422656Y18574D02*
X422656Y4286D01*
X422656Y29686D02*
X422656Y66580D01*
X422656Y75660D02*
X422656Y87154D01*
X430784Y18574D02*
X430784Y4286D01*
X430784Y29686D02*
X430784Y66580D01*
X430784Y75660D02*
X430784Y87154D01*
X438912Y5014D02*
X438912Y4286D01*
X438912Y11430D02*
X438912Y11430D01*
X438912Y17846D02*
X438912Y18574D01*
X438912Y29686D02*
X438912Y31725D01*
X438912Y38275D02*
X438912Y42535D01*
X438912Y45720D02*
X438912Y45720D01*
X438912Y48905D02*
X438912Y66580D01*
X438912Y75660D02*
X438912Y87154D01*
X447040Y18574D02*
X447040Y4286D01*
X447040Y45720D02*
X447040Y45720D01*
X447040Y51612D02*
X447040Y66580D01*
X447040Y75660D02*
X447040Y87154D01*
X455168Y18574D02*
X455168Y4286D01*
X455168Y29686D02*
X455168Y66580D01*
X455168Y75660D02*
X455168Y87154D01*
X463296Y18574D02*
X463296Y4286D01*
X463296Y30463D02*
X463296Y66580D01*
X463296Y75660D02*
X463296Y87154D01*
X471424Y22877D02*
X471424Y4286D01*
X471424Y38591D02*
X471424Y66580D01*
X471424Y75660D02*
X471424Y87154D01*
X479552Y31005D02*
X479552Y4286D01*
X479552Y43656D02*
X479552Y66580D01*
X479552Y75660D02*
X479552Y87154D01*
X487680Y13786D02*
X487680Y4286D01*
X487680Y21774D02*
X487680Y32544D01*
X487680Y43656D02*
X487680Y66580D01*
X487680Y75660D02*
X487680Y87154D01*
X495808Y8671D02*
X495808Y4286D01*
X495808Y23462D02*
X495808Y32544D01*
X495808Y43656D02*
X495808Y66580D01*
X495808Y75660D02*
X495808Y87154D01*
X503936Y32544D02*
X503936Y24093D01*
X503936Y43656D02*
X503936Y66580D01*
X503936Y75660D02*
X503936Y77103D01*
X503936Y82890D02*
X503936Y82890D01*
X512064Y32544D02*
X512064Y17237D01*
X512064Y43656D02*
X512064Y66580D01*
X512064Y75660D02*
X512064Y79324D01*
X512064Y82890D02*
X512064Y82890D01*
X512064Y86456D02*
X512064Y87154D01*
X520192Y32544D02*
X520192Y16986D01*
X520192Y43656D02*
X520192Y70541D01*
X520192Y83383D02*
X520192Y87154D01*
X528320Y32544D02*
X528320Y16986D01*
X528320Y43656D02*
X528320Y78669D01*
X536448Y20038D02*
X536448Y16986D01*
X536448Y24540D02*
X536448Y24540D01*
X536448Y29042D02*
X536448Y32544D01*
X536448Y43656D02*
X536448Y80550D01*
X544576Y19200D02*
X544576Y16986D01*
X544576Y24540D02*
X544576Y24540D01*
X544576Y29880D02*
X544576Y32544D01*
X544576Y43656D02*
X544576Y63951D01*
X544576Y70190D02*
X544576Y70190D01*
X544576Y76429D02*
X544576Y80550D01*
X552704Y32544D02*
X552704Y16986D01*
X552704Y43656D02*
X552704Y80550D01*
X560832Y32544D02*
X560832Y16986D01*
X560832Y43656D02*
X560832Y80550D01*
X568960Y32544D02*
X568960Y16986D01*
X568960Y43656D02*
X568960Y80550D01*
X577088Y32544D02*
X577088Y16986D01*
X577088Y43656D02*
X577088Y80550D01*
X585216Y19539D02*
X585216Y16986D01*
X585216Y24540D02*
X585216Y24540D01*
X585216Y29541D02*
X585216Y32544D01*
X585216Y43656D02*
X585216Y80550D01*
X593344Y19539D02*
X593344Y16986D01*
X593344Y24540D02*
X593344Y24540D01*
X593344Y29541D02*
X593344Y32544D01*
X593344Y43656D02*
X593344Y49981D01*
X593344Y56220D02*
X593344Y56220D01*
X593344Y62459D02*
X593344Y80550D01*
X601472Y32544D02*
X601472Y16986D01*
X601472Y43656D02*
X601472Y80550D01*
X609600Y32544D02*
X609600Y16986D01*
X609600Y43656D02*
X609600Y80550D01*
X617728Y32544D02*
X617728Y16986D01*
X617728Y43656D02*
X617728Y80550D01*
X625856Y32544D02*
X625856Y16986D01*
X625856Y43656D02*
X625856Y80550D01*
X633984Y32544D02*
X633984Y16986D01*
X633984Y43656D02*
X633984Y80550D01*
X642112Y32544D02*
X642112Y16986D01*
X642112Y43656D02*
X642112Y80550D01*
X650240Y32544D02*
X650240Y16986D01*
X650240Y43656D02*
X650240Y80550D01*
X658368Y32544D02*
X658368Y16986D01*
X658368Y43656D02*
X658368Y80550D01*
X666496Y32544D02*
X666496Y16986D01*
X666496Y43656D02*
X666496Y80550D01*
X674624Y32544D02*
X674624Y16986D01*
X674624Y43656D02*
X674624Y80550D01*
X682752Y32544D02*
X682752Y16986D01*
X682752Y43656D02*
X682752Y80550D01*
X690880Y32544D02*
X690880Y16986D01*
X690880Y43656D02*
X690880Y80550D01*
X699008Y32544D02*
X699008Y16986D01*
X699008Y43656D02*
X699008Y80550D01*
X707136Y32544D02*
X707136Y16986D01*
X707136Y43656D02*
X707136Y80550D01*
X715264Y32544D02*
X715264Y16986D01*
X715264Y43656D02*
X715264Y80550D01*
X723392Y32544D02*
X723392Y16986D01*
X723392Y43656D02*
X723392Y80550D01*
X731520Y32544D02*
X731520Y16986D01*
X731520Y43656D02*
X731520Y80550D01*
X739648Y32544D02*
X739648Y16986D01*
X739648Y43656D02*
X739648Y80550D01*
X747776Y32544D02*
X747776Y16986D01*
X747776Y43656D02*
X747776Y80550D01*
X755904Y32544D02*
X755904Y16986D01*
X755904Y43656D02*
X755904Y80550D01*
X764032Y32544D02*
X764032Y16986D01*
X764032Y43656D02*
X764032Y80550D01*
X772160Y32544D02*
X772160Y16986D01*
X772160Y43656D02*
X772160Y80550D01*
X780288Y32544D02*
X780288Y16986D01*
X780288Y43656D02*
X780288Y80550D01*
X788416Y32544D02*
X788416Y16986D01*
X788416Y43656D02*
X788416Y80550D01*
X796544Y32544D02*
X796544Y16986D01*
X796544Y43656D02*
X796544Y80550D01*
X804672Y32544D02*
X804672Y16986D01*
X804672Y43656D02*
X804672Y80550D01*
X812800Y32544D02*
X812800Y16986D01*
X812800Y43656D02*
X812800Y80550D01*
X820928Y32544D02*
X820928Y16986D01*
X820928Y43656D02*
X820928Y80550D01*
X829056Y32544D02*
X829056Y16986D01*
X829056Y43656D02*
X829056Y80550D01*
X837184Y32544D02*
X837184Y16986D01*
X837184Y43656D02*
X837184Y80550D01*
X845312Y32544D02*
X845312Y16986D01*
X845312Y43656D02*
X845312Y80550D01*
X853440Y32544D02*
X853440Y16986D01*
X853440Y43656D02*
X853440Y80550D01*
X861568Y32544D02*
X861568Y16986D01*
X861568Y43656D02*
X861568Y80550D01*
X869696Y32544D02*
X869696Y16986D01*
X869696Y43656D02*
X869696Y80550D01*
X877824Y32544D02*
X877824Y16986D01*
X877824Y43656D02*
X877824Y80550D01*
X885952Y32544D02*
X885952Y16986D01*
X885952Y43656D02*
X885952Y80550D01*
X894080Y32544D02*
X894080Y16986D01*
X894080Y43656D02*
X894080Y80550D01*
X902208Y32544D02*
X902208Y16986D01*
X902208Y43656D02*
X902208Y80550D01*
X910336Y32544D02*
X910336Y16986D01*
X910336Y43656D02*
X910336Y80550D01*
X918464Y32544D02*
X918464Y16986D01*
X918464Y43656D02*
X918464Y80550D01*
X926592Y32544D02*
X926592Y16986D01*
X926592Y43656D02*
X926592Y80550D01*
X934720Y32544D02*
X934720Y16986D01*
X934720Y43656D02*
X934720Y80550D01*
X942848Y32544D02*
X942848Y16986D01*
X942848Y43656D02*
X942848Y80550D01*
X950976Y32544D02*
X950976Y16986D01*
X950976Y43656D02*
X950976Y80550D01*
X959104Y32544D02*
X959104Y16986D01*
X959104Y43656D02*
X959104Y80550D01*
X967232Y32544D02*
X967232Y16986D01*
X967232Y43656D02*
X967232Y80550D01*
X975360Y32544D02*
X975360Y16986D01*
X975360Y43656D02*
X975360Y80550D01*
X983488Y32544D02*
X983488Y16986D01*
X983488Y43656D02*
X983488Y80550D01*
X991616Y32544D02*
X991616Y16986D01*
X991616Y43656D02*
X991616Y80550D01*
X999744Y32544D02*
X999744Y16986D01*
X999744Y43656D02*
X999744Y80550D01*
X1007872Y32544D02*
X1007872Y16986D01*
X1007872Y43656D02*
X1007872Y80550D01*
X1016000Y32544D02*
X1016000Y16986D01*
X1016000Y43656D02*
X1016000Y80550D01*
X1024128Y32544D02*
X1024128Y16986D01*
X1024128Y43656D02*
X1024128Y80550D01*
X1032256Y32544D02*
X1032256Y16986D01*
X1032256Y43656D02*
X1032256Y80550D01*
X1040384Y32544D02*
X1040384Y16986D01*
X1040384Y43656D02*
X1040384Y80550D01*
X1048512Y32544D02*
X1048512Y16986D01*
X1048512Y43656D02*
X1048512Y80550D01*
X1056640Y32544D02*
X1056640Y16986D01*
X1056640Y43656D02*
X1056640Y80550D01*
X1064768Y32544D02*
X1064768Y16986D01*
X1064768Y43656D02*
X1064768Y70732D01*
X1064768Y73301D02*
X1064768Y74019D01*
X1064768Y76588D02*
X1064768Y80550D01*
X1072896Y32544D02*
X1072896Y16986D01*
X1072896Y43656D02*
X1072896Y66020D01*
X1072896Y73301D02*
X1072896Y74019D01*
X1072896Y89630D02*
X1072896Y90731D01*
X1081024Y32544D02*
X1081024Y16986D01*
X1081024Y43656D02*
X1081024Y80550D01*
X1081024Y89630D02*
X1081024Y289359D01*
X1089152Y32544D02*
X1089152Y16986D01*
X1089152Y43656D02*
X1089152Y80550D01*
X1089152Y89630D02*
X1089152Y292894D01*
X1097280Y32544D02*
X1097280Y16986D01*
X1097280Y43656D02*
X1097280Y80550D01*
X1097280Y89630D02*
X1097280Y98701D01*
X1097280Y99419D02*
X1097280Y292894D01*
X1105408Y32544D02*
X1105408Y16986D01*
X1105408Y43656D02*
X1105408Y80550D01*
X1105408Y89630D02*
X1105408Y292894D01*
X1113536Y32544D02*
X1113536Y16986D01*
X1113536Y43656D02*
X1113536Y80550D01*
X1113536Y89630D02*
X1113536Y292894D01*
X1121664Y32544D02*
X1121664Y16986D01*
X1121664Y43656D02*
X1121664Y80550D01*
X1121664Y89630D02*
X1121664Y292894D01*
X1129792Y34815D02*
X1129792Y16986D01*
X1129792Y50529D02*
X1129792Y59619D01*
X1129792Y66951D02*
X1129792Y67669D01*
X1129792Y75001D02*
X1129792Y80550D01*
X1129792Y89630D02*
X1129792Y292894D01*
X1137920Y42943D02*
X1137920Y16986D01*
X1137920Y58657D02*
X1137920Y66196D01*
X1137920Y66951D02*
X1137920Y67669D01*
X1137920Y68424D02*
X1137920Y79826D01*
X1137920Y90354D02*
X1137920Y182163D01*
X1137920Y187601D02*
X1137920Y188319D01*
X1137920Y193757D02*
X1137920Y207563D01*
X1137920Y213001D02*
X1137920Y213719D01*
X1137920Y219157D02*
X1137920Y232963D01*
X1137920Y238401D02*
X1137920Y239119D01*
X1137920Y244557D02*
X1137920Y292894D01*
X1146048Y51071D02*
X1146048Y16986D01*
X1146048Y66785D02*
X1146048Y80334D01*
X1146048Y89846D02*
X1146048Y180898D01*
X1146048Y187601D02*
X1146048Y188319D01*
X1146048Y195022D02*
X1146048Y206298D01*
X1146048Y213001D02*
X1146048Y213719D01*
X1146048Y220422D02*
X1146048Y231698D01*
X1146048Y238401D02*
X1146048Y239119D01*
X1146048Y245822D02*
X1146048Y292894D01*
X1154176Y59199D02*
X1154176Y16986D01*
X1154176Y74913D02*
X1154176Y292894D01*
X1162304Y49890D02*
X1162304Y16986D01*
X1162304Y54251D02*
X1162304Y54969D01*
X1162304Y59330D02*
X1162304Y67327D01*
X1162304Y253221D02*
X1162304Y292894D01*
X1170432Y47173D02*
X1170432Y16986D01*
X1170432Y54251D02*
X1170432Y54969D01*
X1170432Y62047D02*
X1170432Y245635D01*
X1170432Y261349D02*
X1170432Y292894D01*
X1178560Y182163D02*
X1178560Y16986D01*
X1178560Y187601D02*
X1178560Y188319D01*
X1178560Y193757D02*
X1178560Y207563D01*
X1178560Y213001D02*
X1178560Y213719D01*
X1178560Y219157D02*
X1178560Y232963D01*
X1178560Y238401D02*
X1178560Y239119D01*
X1178560Y244557D02*
X1178560Y253763D01*
X1178560Y269477D02*
X1178560Y292894D01*
X1186688Y180898D02*
X1186688Y16986D01*
X1186688Y187601D02*
X1186688Y188319D01*
X1186688Y195022D02*
X1186688Y206298D01*
X1186688Y213001D02*
X1186688Y213719D01*
X1186688Y220422D02*
X1186688Y231698D01*
X1186688Y238401D02*
X1186688Y239119D01*
X1186688Y245822D02*
X1186688Y261891D01*
X1186688Y277605D02*
X1186688Y292894D01*
X1194816Y270019D02*
X1194816Y16986D01*
X1194816Y285733D02*
X1194816Y292894D01*
X1202944Y250515D02*
X1202944Y16986D01*
X1202944Y256181D02*
X1202944Y256899D01*
X1202944Y262565D02*
X1202944Y276384D01*
X1202944Y287496D02*
X1202944Y292894D01*
X1211072Y249583D02*
X1211072Y16986D01*
X1211072Y256181D02*
X1211072Y256899D01*
X1211072Y263497D02*
X1211072Y276384D01*
X1211072Y287496D02*
X1211072Y292894D01*
X1219200Y118650D02*
X1219200Y22571D01*
X1219200Y127730D02*
X1219200Y144050D01*
X1219200Y153130D02*
X1219200Y163100D01*
X1219200Y172180D02*
X1219200Y182150D01*
X1219200Y191230D02*
X1219200Y223867D01*
X1219200Y230781D02*
X1219200Y231499D01*
X1219200Y238413D02*
X1219200Y269494D01*
X1227328Y78352D02*
X1227328Y30699D01*
X1227328Y80921D02*
X1227328Y81639D01*
X1227328Y84208D02*
X1227328Y99105D01*
X1227328Y103781D02*
X1227328Y104499D01*
X1227328Y109175D02*
X1227328Y112014D01*
X1227328Y205486D02*
X1227328Y225851D01*
X1227328Y230781D02*
X1227328Y231499D01*
X1227328Y236429D02*
X1227328Y250904D01*
X1227328Y256056D02*
X1227328Y257024D01*
X1227328Y262176D02*
X1227328Y269494D01*
X1235456Y73640D02*
X1235456Y38827D01*
X1235456Y80921D02*
X1235456Y81639D01*
X1235456Y88920D02*
X1235456Y96762D01*
X1235456Y103781D02*
X1235456Y104499D01*
X1235456Y111518D02*
X1235456Y112014D01*
X1235456Y241501D02*
X1235456Y247174D01*
X1235456Y256056D02*
X1235456Y257024D01*
X1235456Y265906D02*
X1235456Y269494D01*
X1243584Y86745D02*
X1243584Y46955D01*
X1243584Y89686D02*
X1243584Y90654D01*
X1243584Y93595D02*
X1243584Y112014D01*
X1251712Y78205D02*
X1251712Y55083D01*
X1251712Y100671D02*
X1251712Y101563D01*
X1259840Y74528D02*
X1259840Y57626D01*
X1267968Y57626D02*
X1267968Y77342D01*
X1267968Y84415D02*
X1267968Y84594D01*
X1276096Y81079D02*
X1276096Y65786D01*
X1284224Y65786D02*
X1284224Y72951D01*
D19*
X1183640Y187960D03*
X1183640Y213360D03*
X1183640Y238760D03*
X1143000Y238760D03*
X1143000Y213360D03*
X1143000Y187960D03*
X1071880Y73660D03*
X1097280Y99060D03*
X1130300Y67310D03*
X1168400Y54610D03*
D22*
X589280Y24540D03*
X591820Y56220D03*
X506730Y82890D03*
X444500Y45720D03*
X439420Y11430D03*
D15*
X1245870Y186690D03*
X1233170Y186690D03*
D16*
X1245870Y186690D02*
X1220470Y186690D01*
D15*
X1245870Y123190D03*
X1233170Y123190D03*
D16*
X1245870Y123190D02*
X1220470Y123190D01*
D22*
X285750Y85090D03*
X1141730Y85090D03*
D16*
X367030Y85090D02*
X285750Y85090D01*
X528320Y85090D02*
X1141730Y85090D01*
X528320Y85090D02*
X514350Y71120D01*
X381000Y71120D02*
X367030Y85090D01*
X381000Y71120D02*
X514350Y71120D01*
D15*
X1245870Y148590D03*
X1233170Y148590D03*
D16*
X1245870Y148590D02*
X1220470Y148590D01*
D15*
X1245870Y167640D03*
X1233170Y167640D03*
D16*
X1245870Y167640D02*
X1220470Y167640D01*
D15*
X1245870Y281940D03*
X1233170Y281940D03*
D20*
X1245870Y281940D01*
D23*
X439420Y24130D02*
X415290Y24130D01*
X439420Y24130D02*
X444500Y24130D01*
X449580Y24130D01*
D22*
X444500Y35000D03*
D18*
X444500Y29210D02*
X444500Y24130D01*
X444500Y29210D02*
X449580Y24130D01*
X444500Y29210D02*
X444500Y35000D01*
X444500Y29210D02*
X439420Y24130D01*
D23*
X1198880Y281940D02*
X1233170Y281940D01*
X1164590Y77470D02*
X1125220Y38100D01*
X1164590Y247650D02*
X1198880Y281940D01*
X1164590Y247650D02*
X1164590Y77470D01*
X346710Y35560D02*
X337820Y44450D01*
X346710Y35560D02*
X347980Y34290D01*
X349250Y33020D01*
X406400Y33020D02*
X415290Y24130D01*
X389890Y33020D02*
X349250Y33020D01*
X389890Y33020D02*
X394970Y33020D01*
X400050Y33020D01*
X406400Y33020D01*
D16*
X347980Y34290D02*
X342900Y46990D01*
X335280Y39370D02*
X346710Y35560D01*
D22*
X541020Y38100D03*
D23*
X1125220Y38100D01*
X464820Y24130D02*
X449580Y24130D01*
X464820Y24130D02*
X478790Y38100D01*
X541020Y38100D01*
D22*
X394970Y27380D03*
D16*
X394970Y27940D02*
X400050Y33020D01*
X394970Y27940D02*
X389890Y33020D01*
X394970Y33020D02*
X394970Y27380D01*
D21*
X1296670Y15240D02*
X1300290Y18860D01*
D15*
X1296670Y15240D03*
D16*
X1271270Y15240D01*
D15*
X1283970Y15240D03*
D16*
X243840Y52070D02*
X236220Y44450D01*
X243840Y52070D02*
X248920Y57150D01*
X378460Y57150D01*
D18*
X243840Y52070D02*
X233680Y49530D01*
X243840Y52070D02*
X241300Y41910D01*
D22*
X378460Y57150D03*
D15*
X1296670Y34290D03*
D22*
X492760Y17780D03*
D18*
X504190Y6350D01*
X1217930Y6350D02*
X1245870Y34290D01*
X1296670Y34290D01*
X1217930Y6350D02*
X504190Y6350D01*
D15*
X1296670Y53340D03*
D22*
X505460Y17780D03*
D18*
X510540Y12700D01*
X1256030Y53340D02*
X1296670Y53340D01*
X1215390Y12700D02*
X510540Y12700D01*
X1215390Y12700D02*
X1256030Y53340D01*
D15*
X1283970Y34290D03*
X1283970Y53340D03*
M02*
