G04 EAGLE Gerber X2 export*
%TF.Part,Single*%
%TF.FileFunction,Other,silk bottom*%
%TF.FilePolarity,Positive*%
%TF.GenerationSoftware,Autodesk,EAGLE,9.5.2*%
%TF.CreationDate,2020-03-22T18:46:16Z*%
G75*
%MOMM*%
%FSLAX34Y34*%
%LPD*%
%INsilk bottom*%
%AMOC8*
5,1,8,0,0,1.08239X$1,22.5*%
G01*
%ADD10C,0.000000*%
%ADD11C,0.152400*%


D10*
X0Y232410D02*
X50800Y181610D01*
X50800Y100330D01*
X60960Y90170D01*
X60960Y59690D01*
X50800Y49530D01*
X50800Y6350D01*
X55880Y1270D01*
X213360Y1270D01*
D11*
X627380Y212090D02*
X635034Y219744D01*
X642105Y226815D02*
X649759Y234469D01*
X656830Y241540D02*
X664484Y249194D01*
X671556Y256266D02*
X679210Y263920D01*
X686281Y270991D02*
X693935Y278645D01*
X701006Y285716D02*
X708660Y293370D01*
X694882Y287020D02*
X688776Y293127D01*
X694882Y287020D02*
X693186Y285324D01*
X693186Y285323D02*
X693131Y285272D01*
X693074Y285223D01*
X693014Y285177D01*
X692952Y285134D01*
X692888Y285095D01*
X692821Y285059D01*
X692753Y285026D01*
X692684Y284998D01*
X692613Y284972D01*
X692540Y284951D01*
X692467Y284933D01*
X692393Y284920D01*
X692318Y284910D01*
X692243Y284904D01*
X692168Y284902D01*
X692093Y284904D01*
X692018Y284910D01*
X691943Y284920D01*
X691869Y284933D01*
X691796Y284951D01*
X691723Y284972D01*
X691652Y284998D01*
X691583Y285026D01*
X691515Y285059D01*
X691449Y285095D01*
X691384Y285134D01*
X691322Y285177D01*
X691262Y285223D01*
X691205Y285272D01*
X691151Y285323D01*
X691151Y285324D02*
X689115Y287359D01*
X689065Y287412D01*
X689018Y287468D01*
X688973Y287525D01*
X688931Y287585D01*
X688893Y287647D01*
X688858Y287711D01*
X688825Y287776D01*
X688797Y287843D01*
X688771Y287912D01*
X688750Y287981D01*
X688731Y288052D01*
X688717Y288123D01*
X688706Y288195D01*
X688698Y288268D01*
X688694Y288341D01*
X688694Y288413D01*
X688698Y288486D01*
X688706Y288559D01*
X688717Y288631D01*
X688731Y288702D01*
X688750Y288773D01*
X688771Y288842D01*
X688797Y288911D01*
X688825Y288978D01*
X688858Y289043D01*
X688893Y289107D01*
X688931Y289169D01*
X688973Y289229D01*
X689018Y289286D01*
X689065Y289342D01*
X689115Y289395D01*
X690811Y291091D01*
X688309Y280446D02*
X686613Y278750D01*
X688309Y280446D02*
X688359Y280499D01*
X688406Y280555D01*
X688451Y280612D01*
X688493Y280672D01*
X688531Y280734D01*
X688566Y280798D01*
X688599Y280863D01*
X688627Y280930D01*
X688653Y280999D01*
X688674Y281068D01*
X688693Y281139D01*
X688707Y281210D01*
X688718Y281282D01*
X688726Y281355D01*
X688730Y281428D01*
X688730Y281500D01*
X688726Y281573D01*
X688718Y281646D01*
X688707Y281718D01*
X688693Y281789D01*
X688674Y281860D01*
X688653Y281929D01*
X688627Y281998D01*
X688599Y282065D01*
X688566Y282130D01*
X688531Y282194D01*
X688493Y282256D01*
X688451Y282316D01*
X688406Y282373D01*
X688359Y282429D01*
X688309Y282482D01*
X686613Y284178D01*
X686550Y284238D01*
X686484Y284296D01*
X686416Y284350D01*
X686345Y284401D01*
X686272Y284449D01*
X686197Y284494D01*
X686119Y284535D01*
X686041Y284572D01*
X685960Y284606D01*
X685878Y284636D01*
X685795Y284663D01*
X685710Y284685D01*
X685625Y284704D01*
X685539Y284719D01*
X685452Y284730D01*
X685365Y284737D01*
X685278Y284740D01*
X685190Y284739D01*
X685103Y284734D01*
X685016Y284725D01*
X684930Y284712D01*
X684844Y284695D01*
X684759Y284675D01*
X684675Y284650D01*
X684593Y284622D01*
X684512Y284590D01*
X684432Y284554D01*
X684354Y284515D01*
X684278Y284472D01*
X684204Y284426D01*
X684132Y284376D01*
X684062Y284323D01*
X683995Y284267D01*
X683930Y284208D01*
X683869Y284147D01*
X683810Y284082D01*
X683754Y284015D01*
X683701Y283945D01*
X683651Y283873D01*
X683605Y283799D01*
X683562Y283723D01*
X683523Y283645D01*
X683487Y283565D01*
X683455Y283484D01*
X683427Y283402D01*
X683402Y283318D01*
X683382Y283233D01*
X683365Y283147D01*
X683352Y283061D01*
X683343Y282974D01*
X683338Y282887D01*
X683337Y282799D01*
X683340Y282712D01*
X683347Y282625D01*
X683358Y282538D01*
X683373Y282452D01*
X683392Y282367D01*
X683414Y282282D01*
X683441Y282199D01*
X683471Y282117D01*
X683505Y282037D01*
X683542Y281958D01*
X683583Y281880D01*
X683628Y281805D01*
X683676Y281732D01*
X683727Y281661D01*
X683781Y281593D01*
X683839Y281527D01*
X683899Y281464D01*
X684577Y280786D01*
X687291Y283500D01*
X683507Y275645D02*
X679436Y279716D01*
X677740Y278020D01*
X677689Y277965D01*
X677640Y277908D01*
X677594Y277848D01*
X677551Y277786D01*
X677512Y277722D01*
X677476Y277655D01*
X677443Y277587D01*
X677415Y277518D01*
X677389Y277447D01*
X677368Y277374D01*
X677350Y277301D01*
X677337Y277227D01*
X677327Y277152D01*
X677321Y277077D01*
X677319Y277002D01*
X677321Y276927D01*
X677327Y276852D01*
X677337Y276777D01*
X677350Y276703D01*
X677368Y276630D01*
X677389Y276557D01*
X677415Y276486D01*
X677443Y276417D01*
X677476Y276349D01*
X677512Y276283D01*
X677551Y276218D01*
X677594Y276156D01*
X677640Y276096D01*
X677689Y276039D01*
X677740Y275985D01*
X677740Y275984D02*
X680793Y272931D01*
X675022Y267160D02*
X668916Y273266D01*
X675022Y267160D02*
X676719Y268856D01*
X676769Y268909D01*
X676816Y268965D01*
X676861Y269022D01*
X676903Y269082D01*
X676941Y269144D01*
X676976Y269208D01*
X677009Y269273D01*
X677037Y269340D01*
X677063Y269409D01*
X677084Y269478D01*
X677103Y269549D01*
X677117Y269620D01*
X677128Y269692D01*
X677136Y269765D01*
X677140Y269838D01*
X677140Y269910D01*
X677136Y269983D01*
X677128Y270056D01*
X677117Y270128D01*
X677103Y270199D01*
X677084Y270270D01*
X677063Y270339D01*
X677037Y270408D01*
X677009Y270475D01*
X676976Y270540D01*
X676941Y270604D01*
X676903Y270666D01*
X676861Y270726D01*
X676816Y270783D01*
X676769Y270839D01*
X676719Y270892D01*
X676719Y270891D02*
X674683Y272927D01*
X674628Y272978D01*
X674571Y273027D01*
X674511Y273073D01*
X674449Y273116D01*
X674385Y273155D01*
X674318Y273191D01*
X674250Y273224D01*
X674181Y273252D01*
X674110Y273278D01*
X674037Y273299D01*
X673964Y273317D01*
X673890Y273330D01*
X673815Y273340D01*
X673740Y273346D01*
X673665Y273348D01*
X673590Y273346D01*
X673515Y273340D01*
X673440Y273330D01*
X673366Y273317D01*
X673293Y273299D01*
X673220Y273278D01*
X673149Y273252D01*
X673080Y273224D01*
X673012Y273191D01*
X672946Y273155D01*
X672881Y273116D01*
X672819Y273073D01*
X672759Y273027D01*
X672702Y272978D01*
X672647Y272927D01*
X670951Y271231D01*
X667392Y259530D02*
X666035Y258173D01*
X667393Y259529D02*
X667443Y259582D01*
X667490Y259638D01*
X667535Y259695D01*
X667577Y259755D01*
X667615Y259817D01*
X667650Y259881D01*
X667683Y259946D01*
X667711Y260013D01*
X667737Y260082D01*
X667758Y260151D01*
X667777Y260222D01*
X667791Y260293D01*
X667802Y260365D01*
X667810Y260438D01*
X667814Y260511D01*
X667814Y260583D01*
X667810Y260656D01*
X667802Y260729D01*
X667791Y260801D01*
X667777Y260872D01*
X667758Y260943D01*
X667737Y261012D01*
X667711Y261081D01*
X667683Y261148D01*
X667650Y261213D01*
X667615Y261277D01*
X667577Y261339D01*
X667535Y261399D01*
X667490Y261456D01*
X667443Y261512D01*
X667393Y261565D01*
X667392Y261565D02*
X665357Y263601D01*
X665302Y263652D01*
X665245Y263701D01*
X665185Y263747D01*
X665123Y263790D01*
X665059Y263829D01*
X664992Y263865D01*
X664924Y263898D01*
X664855Y263926D01*
X664784Y263952D01*
X664711Y263973D01*
X664638Y263991D01*
X664564Y264004D01*
X664489Y264014D01*
X664414Y264020D01*
X664339Y264022D01*
X664264Y264020D01*
X664189Y264014D01*
X664114Y264004D01*
X664040Y263991D01*
X663967Y263973D01*
X663894Y263952D01*
X663823Y263926D01*
X663754Y263898D01*
X663686Y263865D01*
X663620Y263829D01*
X663555Y263790D01*
X663493Y263747D01*
X663433Y263701D01*
X663376Y263652D01*
X663321Y263601D01*
X661964Y262244D01*
X659950Y256836D02*
X658423Y255310D01*
X659950Y256836D02*
X660008Y256892D01*
X660070Y256945D01*
X660134Y256995D01*
X660200Y257042D01*
X660268Y257086D01*
X660339Y257126D01*
X660411Y257163D01*
X660485Y257196D01*
X660561Y257226D01*
X660637Y257252D01*
X660716Y257274D01*
X660795Y257293D01*
X660874Y257307D01*
X660955Y257318D01*
X661036Y257325D01*
X661117Y257328D01*
X661198Y257327D01*
X661279Y257322D01*
X661359Y257313D01*
X661440Y257300D01*
X661519Y257284D01*
X661598Y257264D01*
X661675Y257239D01*
X661751Y257212D01*
X661826Y257180D01*
X661899Y257145D01*
X661971Y257106D01*
X662040Y257064D01*
X662107Y257019D01*
X662172Y256971D01*
X662235Y256919D01*
X662295Y256865D01*
X662353Y256807D01*
X662407Y256747D01*
X662459Y256684D01*
X662507Y256619D01*
X662552Y256552D01*
X662594Y256483D01*
X662633Y256411D01*
X662668Y256338D01*
X662700Y256263D01*
X662727Y256187D01*
X662752Y256110D01*
X662772Y256031D01*
X662788Y255952D01*
X662801Y255871D01*
X662810Y255791D01*
X662815Y255710D01*
X662816Y255629D01*
X662813Y255548D01*
X662806Y255467D01*
X662795Y255386D01*
X662781Y255307D01*
X662762Y255228D01*
X662740Y255149D01*
X662714Y255073D01*
X662684Y254997D01*
X662651Y254923D01*
X662614Y254851D01*
X662574Y254780D01*
X662530Y254712D01*
X662483Y254646D01*
X662433Y254582D01*
X662380Y254520D01*
X662324Y254462D01*
X660798Y252935D01*
X657744Y255988D01*
X657694Y256041D01*
X657647Y256097D01*
X657602Y256154D01*
X657560Y256214D01*
X657522Y256276D01*
X657487Y256340D01*
X657454Y256405D01*
X657426Y256472D01*
X657400Y256541D01*
X657379Y256610D01*
X657360Y256681D01*
X657346Y256752D01*
X657335Y256824D01*
X657327Y256897D01*
X657323Y256970D01*
X657323Y257042D01*
X657327Y257115D01*
X657335Y257188D01*
X657346Y257260D01*
X657360Y257331D01*
X657379Y257402D01*
X657400Y257471D01*
X657426Y257540D01*
X657454Y257607D01*
X657487Y257672D01*
X657522Y257736D01*
X657560Y257798D01*
X657602Y257858D01*
X657647Y257915D01*
X657694Y257971D01*
X657745Y258024D01*
X657744Y258024D02*
X659101Y259381D01*
X651275Y255625D02*
X657381Y249518D01*
X655685Y247822D01*
X655630Y247771D01*
X655573Y247722D01*
X655513Y247676D01*
X655451Y247633D01*
X655387Y247594D01*
X655320Y247558D01*
X655252Y247525D01*
X655183Y247497D01*
X655112Y247471D01*
X655039Y247450D01*
X654966Y247432D01*
X654892Y247419D01*
X654817Y247409D01*
X654742Y247403D01*
X654667Y247401D01*
X654592Y247403D01*
X654517Y247409D01*
X654442Y247419D01*
X654368Y247432D01*
X654295Y247450D01*
X654222Y247471D01*
X654151Y247497D01*
X654082Y247525D01*
X654014Y247558D01*
X653948Y247594D01*
X653883Y247633D01*
X653821Y247676D01*
X653761Y247722D01*
X653704Y247771D01*
X653650Y247822D01*
X651614Y249858D01*
X651614Y249857D02*
X651564Y249910D01*
X651517Y249966D01*
X651472Y250023D01*
X651430Y250083D01*
X651392Y250145D01*
X651357Y250209D01*
X651324Y250274D01*
X651296Y250341D01*
X651270Y250410D01*
X651249Y250479D01*
X651230Y250550D01*
X651216Y250621D01*
X651205Y250693D01*
X651197Y250766D01*
X651193Y250839D01*
X651193Y250911D01*
X651197Y250984D01*
X651205Y251057D01*
X651216Y251129D01*
X651230Y251200D01*
X651249Y251271D01*
X651270Y251340D01*
X651296Y251409D01*
X651324Y251476D01*
X651357Y251541D01*
X651392Y251605D01*
X651430Y251667D01*
X651472Y251727D01*
X651517Y251784D01*
X651564Y251840D01*
X651614Y251893D01*
X653310Y253590D01*
X645692Y250042D02*
X650781Y244953D01*
X650832Y244898D01*
X650881Y244841D01*
X650927Y244781D01*
X650970Y244719D01*
X651009Y244655D01*
X651045Y244588D01*
X651078Y244520D01*
X651106Y244451D01*
X651132Y244380D01*
X651153Y244307D01*
X651171Y244234D01*
X651184Y244160D01*
X651194Y244085D01*
X651200Y244010D01*
X651202Y243935D01*
X651200Y243860D01*
X651194Y243785D01*
X651184Y243710D01*
X651171Y243636D01*
X651153Y243563D01*
X651132Y243490D01*
X651106Y243419D01*
X651078Y243350D01*
X651045Y243282D01*
X651009Y243216D01*
X650970Y243151D01*
X650927Y243089D01*
X650881Y243029D01*
X650832Y242972D01*
X650781Y242917D01*
X647360Y239497D02*
X645663Y237800D01*
X647360Y239496D02*
X647410Y239549D01*
X647457Y239605D01*
X647502Y239662D01*
X647544Y239722D01*
X647582Y239784D01*
X647617Y239848D01*
X647650Y239913D01*
X647678Y239980D01*
X647704Y240049D01*
X647725Y240118D01*
X647744Y240189D01*
X647758Y240260D01*
X647769Y240332D01*
X647777Y240405D01*
X647781Y240478D01*
X647781Y240550D01*
X647777Y240623D01*
X647769Y240696D01*
X647758Y240768D01*
X647744Y240839D01*
X647725Y240910D01*
X647704Y240979D01*
X647678Y241048D01*
X647650Y241115D01*
X647617Y241180D01*
X647582Y241244D01*
X647544Y241306D01*
X647502Y241366D01*
X647457Y241423D01*
X647410Y241479D01*
X647360Y241532D01*
X645663Y243228D01*
X645600Y243288D01*
X645534Y243346D01*
X645466Y243400D01*
X645395Y243451D01*
X645322Y243499D01*
X645247Y243544D01*
X645169Y243585D01*
X645091Y243622D01*
X645010Y243656D01*
X644928Y243686D01*
X644845Y243713D01*
X644760Y243735D01*
X644675Y243754D01*
X644589Y243769D01*
X644502Y243780D01*
X644415Y243787D01*
X644328Y243790D01*
X644240Y243789D01*
X644153Y243784D01*
X644066Y243775D01*
X643980Y243762D01*
X643894Y243745D01*
X643809Y243725D01*
X643725Y243700D01*
X643643Y243672D01*
X643562Y243640D01*
X643482Y243604D01*
X643404Y243565D01*
X643328Y243522D01*
X643254Y243476D01*
X643182Y243426D01*
X643112Y243373D01*
X643045Y243317D01*
X642980Y243258D01*
X642919Y243197D01*
X642860Y243132D01*
X642804Y243065D01*
X642751Y242995D01*
X642701Y242923D01*
X642655Y242849D01*
X642612Y242773D01*
X642573Y242695D01*
X642537Y242615D01*
X642505Y242534D01*
X642477Y242452D01*
X642452Y242368D01*
X642432Y242283D01*
X642415Y242197D01*
X642402Y242111D01*
X642393Y242024D01*
X642388Y241937D01*
X642387Y241849D01*
X642390Y241762D01*
X642397Y241675D01*
X642408Y241588D01*
X642423Y241502D01*
X642442Y241417D01*
X642464Y241332D01*
X642491Y241249D01*
X642521Y241167D01*
X642555Y241087D01*
X642592Y241008D01*
X642633Y240930D01*
X642678Y240855D01*
X642726Y240782D01*
X642777Y240711D01*
X642831Y240643D01*
X642889Y240577D01*
X642949Y240514D01*
X643628Y239836D01*
X646342Y242550D01*
X639110Y231247D02*
X633003Y237353D01*
X635039Y235318D02*
X633342Y233621D01*
X633342Y233622D02*
X633291Y233567D01*
X633242Y233510D01*
X633196Y233450D01*
X633153Y233388D01*
X633114Y233324D01*
X633078Y233257D01*
X633045Y233189D01*
X633017Y233120D01*
X632991Y233049D01*
X632970Y232976D01*
X632952Y232903D01*
X632939Y232829D01*
X632929Y232754D01*
X632923Y232679D01*
X632921Y232604D01*
X632923Y232529D01*
X632929Y232454D01*
X632939Y232379D01*
X632952Y232305D01*
X632970Y232232D01*
X632991Y232159D01*
X633017Y232088D01*
X633045Y232019D01*
X633078Y231951D01*
X633114Y231885D01*
X633153Y231820D01*
X633196Y231758D01*
X633242Y231698D01*
X633291Y231641D01*
X633342Y231587D01*
X633342Y231586D02*
X636396Y228533D01*
X632273Y224410D02*
X630577Y222713D01*
X632273Y224409D02*
X632323Y224462D01*
X632370Y224518D01*
X632415Y224575D01*
X632457Y224635D01*
X632495Y224697D01*
X632530Y224761D01*
X632563Y224826D01*
X632591Y224893D01*
X632617Y224962D01*
X632638Y225031D01*
X632657Y225102D01*
X632671Y225173D01*
X632682Y225245D01*
X632690Y225318D01*
X632694Y225391D01*
X632694Y225463D01*
X632690Y225536D01*
X632682Y225609D01*
X632671Y225681D01*
X632657Y225752D01*
X632638Y225823D01*
X632617Y225892D01*
X632591Y225961D01*
X632563Y226028D01*
X632530Y226093D01*
X632495Y226157D01*
X632457Y226219D01*
X632415Y226279D01*
X632370Y226336D01*
X632323Y226392D01*
X632273Y226445D01*
X630577Y228141D01*
X630514Y228201D01*
X630448Y228259D01*
X630380Y228313D01*
X630309Y228364D01*
X630236Y228412D01*
X630161Y228457D01*
X630083Y228498D01*
X630005Y228535D01*
X629924Y228569D01*
X629842Y228599D01*
X629759Y228626D01*
X629674Y228648D01*
X629589Y228667D01*
X629503Y228682D01*
X629416Y228693D01*
X629329Y228700D01*
X629242Y228703D01*
X629154Y228702D01*
X629067Y228697D01*
X628980Y228688D01*
X628894Y228675D01*
X628808Y228658D01*
X628723Y228638D01*
X628639Y228613D01*
X628557Y228585D01*
X628476Y228553D01*
X628396Y228517D01*
X628318Y228478D01*
X628242Y228435D01*
X628168Y228389D01*
X628096Y228339D01*
X628026Y228286D01*
X627959Y228230D01*
X627894Y228171D01*
X627833Y228110D01*
X627774Y228045D01*
X627718Y227978D01*
X627665Y227908D01*
X627615Y227836D01*
X627569Y227762D01*
X627526Y227686D01*
X627487Y227608D01*
X627451Y227528D01*
X627419Y227447D01*
X627391Y227365D01*
X627366Y227281D01*
X627346Y227196D01*
X627329Y227110D01*
X627316Y227024D01*
X627307Y226937D01*
X627302Y226850D01*
X627301Y226762D01*
X627304Y226675D01*
X627311Y226588D01*
X627322Y226501D01*
X627337Y226415D01*
X627356Y226330D01*
X627378Y226245D01*
X627405Y226162D01*
X627435Y226080D01*
X627469Y226000D01*
X627506Y225921D01*
X627547Y225843D01*
X627592Y225768D01*
X627640Y225695D01*
X627691Y225624D01*
X627745Y225556D01*
X627803Y225490D01*
X627863Y225427D01*
X628541Y224749D01*
X631255Y227463D01*
X627417Y219554D02*
X623346Y223625D01*
X621311Y221590D01*
X621989Y220911D01*
X622143Y214280D02*
X620447Y212584D01*
X622144Y214280D02*
X622194Y214333D01*
X622241Y214389D01*
X622286Y214446D01*
X622328Y214506D01*
X622366Y214568D01*
X622401Y214632D01*
X622434Y214697D01*
X622462Y214764D01*
X622488Y214833D01*
X622509Y214902D01*
X622528Y214973D01*
X622542Y215044D01*
X622553Y215116D01*
X622561Y215189D01*
X622565Y215262D01*
X622565Y215334D01*
X622561Y215407D01*
X622553Y215480D01*
X622542Y215552D01*
X622528Y215623D01*
X622509Y215694D01*
X622488Y215763D01*
X622462Y215832D01*
X622434Y215899D01*
X622401Y215964D01*
X622366Y216028D01*
X622328Y216090D01*
X622286Y216150D01*
X622241Y216207D01*
X622194Y216263D01*
X622144Y216316D01*
X622143Y216315D02*
X620447Y218012D01*
X620384Y218072D01*
X620318Y218130D01*
X620250Y218184D01*
X620179Y218235D01*
X620106Y218283D01*
X620031Y218328D01*
X619953Y218369D01*
X619875Y218406D01*
X619794Y218440D01*
X619712Y218470D01*
X619629Y218497D01*
X619544Y218519D01*
X619459Y218538D01*
X619373Y218553D01*
X619286Y218564D01*
X619199Y218571D01*
X619112Y218574D01*
X619024Y218573D01*
X618937Y218568D01*
X618850Y218559D01*
X618764Y218546D01*
X618678Y218529D01*
X618593Y218509D01*
X618509Y218484D01*
X618427Y218456D01*
X618346Y218424D01*
X618266Y218388D01*
X618188Y218349D01*
X618112Y218306D01*
X618038Y218260D01*
X617966Y218210D01*
X617896Y218157D01*
X617829Y218101D01*
X617764Y218042D01*
X617703Y217981D01*
X617644Y217916D01*
X617588Y217849D01*
X617535Y217779D01*
X617485Y217707D01*
X617439Y217633D01*
X617396Y217557D01*
X617357Y217479D01*
X617321Y217399D01*
X617289Y217318D01*
X617261Y217236D01*
X617236Y217152D01*
X617216Y217067D01*
X617199Y216981D01*
X617186Y216895D01*
X617177Y216808D01*
X617172Y216721D01*
X617171Y216633D01*
X617174Y216546D01*
X617181Y216459D01*
X617192Y216372D01*
X617207Y216286D01*
X617226Y216201D01*
X617248Y216116D01*
X617275Y216033D01*
X617305Y215951D01*
X617339Y215871D01*
X617376Y215792D01*
X617417Y215714D01*
X617462Y215639D01*
X617510Y215566D01*
X617561Y215495D01*
X617615Y215427D01*
X617673Y215361D01*
X617733Y215298D01*
X618411Y214619D01*
X621125Y217333D01*
X107188Y145020D02*
X98552Y145020D01*
X98552Y147419D01*
X98554Y147494D01*
X98560Y147569D01*
X98570Y147644D01*
X98583Y147718D01*
X98601Y147791D01*
X98622Y147864D01*
X98648Y147935D01*
X98676Y148004D01*
X98709Y148072D01*
X98745Y148138D01*
X98784Y148203D01*
X98827Y148265D01*
X98873Y148325D01*
X98922Y148382D01*
X98973Y148437D01*
X99028Y148488D01*
X99085Y148537D01*
X99145Y148583D01*
X99207Y148626D01*
X99271Y148665D01*
X99338Y148701D01*
X99406Y148734D01*
X99475Y148762D01*
X99546Y148788D01*
X99619Y148809D01*
X99692Y148827D01*
X99766Y148840D01*
X99841Y148850D01*
X99916Y148856D01*
X99991Y148858D01*
X102870Y148858D01*
X102945Y148856D01*
X103020Y148850D01*
X103095Y148840D01*
X103169Y148827D01*
X103242Y148809D01*
X103315Y148788D01*
X103386Y148762D01*
X103455Y148734D01*
X103523Y148701D01*
X103590Y148665D01*
X103654Y148626D01*
X103716Y148583D01*
X103776Y148537D01*
X103833Y148488D01*
X103888Y148437D01*
X103939Y148382D01*
X103988Y148325D01*
X104034Y148265D01*
X104077Y148203D01*
X104116Y148139D01*
X104152Y148072D01*
X104185Y148004D01*
X104213Y147935D01*
X104239Y147864D01*
X104260Y147791D01*
X104278Y147718D01*
X104291Y147644D01*
X104301Y147569D01*
X104307Y147494D01*
X104309Y147419D01*
X104309Y145020D01*
X98552Y154317D02*
X98552Y156715D01*
X98552Y154317D02*
X98554Y154242D01*
X98560Y154167D01*
X98570Y154092D01*
X98583Y154018D01*
X98601Y153945D01*
X98622Y153872D01*
X98648Y153801D01*
X98676Y153732D01*
X98709Y153664D01*
X98745Y153598D01*
X98784Y153533D01*
X98827Y153471D01*
X98873Y153411D01*
X98922Y153354D01*
X98973Y153299D01*
X99028Y153248D01*
X99085Y153199D01*
X99145Y153153D01*
X99207Y153110D01*
X99272Y153071D01*
X99338Y153035D01*
X99406Y153002D01*
X99475Y152974D01*
X99546Y152948D01*
X99619Y152927D01*
X99692Y152909D01*
X99766Y152896D01*
X99841Y152886D01*
X99916Y152880D01*
X99991Y152878D01*
X99991Y152877D02*
X102390Y152877D01*
X102476Y152879D01*
X102562Y152885D01*
X102648Y152894D01*
X102733Y152908D01*
X102817Y152925D01*
X102901Y152946D01*
X102983Y152971D01*
X103064Y152999D01*
X103144Y153031D01*
X103223Y153067D01*
X103299Y153106D01*
X103374Y153149D01*
X103447Y153194D01*
X103518Y153243D01*
X103586Y153296D01*
X103653Y153351D01*
X103716Y153409D01*
X103777Y153470D01*
X103835Y153533D01*
X103890Y153600D01*
X103943Y153668D01*
X103992Y153739D01*
X104037Y153812D01*
X104080Y153887D01*
X104119Y153963D01*
X104155Y154042D01*
X104187Y154122D01*
X104215Y154203D01*
X104240Y154285D01*
X104261Y154369D01*
X104278Y154453D01*
X104292Y154538D01*
X104301Y154624D01*
X104307Y154710D01*
X104309Y154796D01*
X104307Y154882D01*
X104301Y154968D01*
X104292Y155054D01*
X104278Y155139D01*
X104261Y155223D01*
X104240Y155307D01*
X104215Y155389D01*
X104187Y155470D01*
X104155Y155550D01*
X104119Y155629D01*
X104080Y155705D01*
X104037Y155780D01*
X103992Y155853D01*
X103943Y155924D01*
X103890Y155992D01*
X103835Y156059D01*
X103777Y156122D01*
X103716Y156183D01*
X103653Y156241D01*
X103586Y156296D01*
X103518Y156349D01*
X103447Y156398D01*
X103374Y156443D01*
X103299Y156486D01*
X103223Y156525D01*
X103144Y156561D01*
X103064Y156593D01*
X102983Y156621D01*
X102901Y156646D01*
X102817Y156667D01*
X102733Y156684D01*
X102648Y156698D01*
X102562Y156707D01*
X102476Y156713D01*
X102390Y156715D01*
X101431Y156715D01*
X101431Y152877D01*
X104309Y161107D02*
X98552Y161107D01*
X104309Y161107D02*
X104309Y163506D01*
X104307Y163581D01*
X104301Y163656D01*
X104291Y163731D01*
X104278Y163805D01*
X104260Y163878D01*
X104239Y163951D01*
X104213Y164022D01*
X104185Y164091D01*
X104152Y164159D01*
X104116Y164226D01*
X104077Y164290D01*
X104034Y164352D01*
X103988Y164412D01*
X103939Y164469D01*
X103888Y164524D01*
X103833Y164575D01*
X103776Y164624D01*
X103716Y164670D01*
X103654Y164713D01*
X103590Y164752D01*
X103523Y164788D01*
X103455Y164821D01*
X103386Y164849D01*
X103315Y164875D01*
X103242Y164896D01*
X103169Y164914D01*
X103095Y164927D01*
X103020Y164937D01*
X102945Y164943D01*
X102870Y164945D01*
X98552Y164945D01*
X98552Y173107D02*
X107188Y173107D01*
X98552Y173107D02*
X98552Y170708D01*
X98554Y170633D01*
X98560Y170558D01*
X98570Y170483D01*
X98583Y170409D01*
X98601Y170336D01*
X98622Y170263D01*
X98648Y170192D01*
X98676Y170123D01*
X98709Y170055D01*
X98745Y169989D01*
X98784Y169924D01*
X98827Y169862D01*
X98873Y169802D01*
X98922Y169745D01*
X98973Y169690D01*
X99028Y169639D01*
X99085Y169590D01*
X99145Y169544D01*
X99207Y169501D01*
X99272Y169462D01*
X99338Y169426D01*
X99406Y169393D01*
X99475Y169365D01*
X99546Y169339D01*
X99619Y169318D01*
X99692Y169300D01*
X99766Y169287D01*
X99841Y169277D01*
X99916Y169271D01*
X99991Y169269D01*
X102870Y169269D01*
X102945Y169271D01*
X103020Y169277D01*
X103095Y169287D01*
X103169Y169300D01*
X103242Y169318D01*
X103315Y169339D01*
X103386Y169365D01*
X103455Y169393D01*
X103523Y169426D01*
X103590Y169462D01*
X103654Y169501D01*
X103716Y169544D01*
X103776Y169590D01*
X103833Y169639D01*
X103888Y169690D01*
X103939Y169745D01*
X103988Y169802D01*
X104034Y169862D01*
X104077Y169924D01*
X104116Y169989D01*
X104152Y170055D01*
X104185Y170123D01*
X104213Y170192D01*
X104239Y170263D01*
X104260Y170336D01*
X104278Y170409D01*
X104291Y170483D01*
X104301Y170558D01*
X104307Y170633D01*
X104309Y170708D01*
X104309Y173107D01*
X101910Y184054D02*
X101910Y186213D01*
X101910Y184054D02*
X101908Y183973D01*
X101902Y183892D01*
X101892Y183811D01*
X101879Y183731D01*
X101861Y183652D01*
X101840Y183574D01*
X101815Y183497D01*
X101786Y183421D01*
X101754Y183346D01*
X101718Y183274D01*
X101678Y183203D01*
X101635Y183134D01*
X101589Y183067D01*
X101540Y183003D01*
X101488Y182941D01*
X101432Y182881D01*
X101374Y182825D01*
X101314Y182771D01*
X101250Y182720D01*
X101185Y182672D01*
X101117Y182628D01*
X101047Y182587D01*
X100975Y182549D01*
X100902Y182515D01*
X100826Y182484D01*
X100750Y182457D01*
X100672Y182434D01*
X100593Y182415D01*
X100514Y182399D01*
X100433Y182387D01*
X100353Y182379D01*
X100272Y182375D01*
X100190Y182375D01*
X100109Y182379D01*
X100029Y182387D01*
X99948Y182399D01*
X99869Y182415D01*
X99790Y182434D01*
X99712Y182457D01*
X99636Y182484D01*
X99560Y182515D01*
X99487Y182549D01*
X99415Y182587D01*
X99345Y182628D01*
X99277Y182672D01*
X99212Y182720D01*
X99148Y182771D01*
X99088Y182825D01*
X99030Y182881D01*
X98974Y182941D01*
X98922Y183003D01*
X98873Y183067D01*
X98827Y183134D01*
X98784Y183203D01*
X98744Y183274D01*
X98708Y183346D01*
X98676Y183421D01*
X98647Y183497D01*
X98622Y183574D01*
X98601Y183652D01*
X98583Y183731D01*
X98570Y183811D01*
X98560Y183892D01*
X98554Y183973D01*
X98552Y184054D01*
X98552Y186213D01*
X102870Y186213D01*
X102945Y186211D01*
X103020Y186205D01*
X103095Y186195D01*
X103169Y186182D01*
X103242Y186164D01*
X103315Y186143D01*
X103386Y186117D01*
X103455Y186089D01*
X103523Y186056D01*
X103590Y186020D01*
X103654Y185981D01*
X103716Y185938D01*
X103776Y185892D01*
X103833Y185843D01*
X103888Y185792D01*
X103939Y185737D01*
X103988Y185680D01*
X104034Y185620D01*
X104077Y185558D01*
X104116Y185494D01*
X104152Y185427D01*
X104185Y185359D01*
X104213Y185290D01*
X104239Y185219D01*
X104260Y185146D01*
X104278Y185073D01*
X104291Y184999D01*
X104301Y184924D01*
X104307Y184849D01*
X104309Y184774D01*
X104309Y182855D01*
X104309Y191053D02*
X98552Y191053D01*
X104309Y191053D02*
X104309Y193932D01*
X103350Y193932D01*
X102390Y197073D02*
X100471Y197073D01*
X102390Y197073D02*
X102476Y197075D01*
X102562Y197081D01*
X102648Y197090D01*
X102733Y197104D01*
X102817Y197121D01*
X102901Y197142D01*
X102983Y197167D01*
X103064Y197195D01*
X103144Y197227D01*
X103223Y197263D01*
X103299Y197302D01*
X103374Y197345D01*
X103447Y197390D01*
X103518Y197439D01*
X103586Y197492D01*
X103653Y197547D01*
X103716Y197605D01*
X103777Y197666D01*
X103835Y197729D01*
X103890Y197796D01*
X103943Y197864D01*
X103992Y197935D01*
X104037Y198008D01*
X104080Y198083D01*
X104119Y198159D01*
X104155Y198238D01*
X104187Y198318D01*
X104215Y198399D01*
X104240Y198481D01*
X104261Y198565D01*
X104278Y198649D01*
X104292Y198734D01*
X104301Y198820D01*
X104307Y198906D01*
X104309Y198992D01*
X104307Y199078D01*
X104301Y199164D01*
X104292Y199250D01*
X104278Y199335D01*
X104261Y199419D01*
X104240Y199503D01*
X104215Y199585D01*
X104187Y199666D01*
X104155Y199746D01*
X104119Y199825D01*
X104080Y199901D01*
X104037Y199976D01*
X103992Y200049D01*
X103943Y200120D01*
X103890Y200188D01*
X103835Y200255D01*
X103777Y200318D01*
X103716Y200379D01*
X103653Y200437D01*
X103586Y200492D01*
X103518Y200545D01*
X103447Y200594D01*
X103374Y200639D01*
X103299Y200682D01*
X103223Y200721D01*
X103144Y200757D01*
X103064Y200789D01*
X102983Y200817D01*
X102901Y200842D01*
X102817Y200863D01*
X102733Y200880D01*
X102648Y200894D01*
X102562Y200903D01*
X102476Y200909D01*
X102390Y200911D01*
X100471Y200911D01*
X100385Y200909D01*
X100299Y200903D01*
X100213Y200894D01*
X100128Y200880D01*
X100044Y200863D01*
X99960Y200842D01*
X99878Y200817D01*
X99797Y200789D01*
X99717Y200757D01*
X99638Y200721D01*
X99562Y200682D01*
X99487Y200639D01*
X99414Y200594D01*
X99343Y200545D01*
X99275Y200492D01*
X99208Y200437D01*
X99145Y200379D01*
X99084Y200318D01*
X99026Y200255D01*
X98971Y200188D01*
X98918Y200120D01*
X98869Y200049D01*
X98824Y199976D01*
X98781Y199901D01*
X98742Y199825D01*
X98706Y199746D01*
X98674Y199666D01*
X98646Y199585D01*
X98621Y199503D01*
X98600Y199419D01*
X98583Y199335D01*
X98569Y199250D01*
X98560Y199164D01*
X98554Y199078D01*
X98552Y198992D01*
X98554Y198906D01*
X98560Y198820D01*
X98569Y198734D01*
X98583Y198649D01*
X98600Y198565D01*
X98621Y198481D01*
X98646Y198399D01*
X98674Y198318D01*
X98706Y198238D01*
X98742Y198159D01*
X98781Y198083D01*
X98824Y198008D01*
X98869Y197935D01*
X98918Y197864D01*
X98971Y197796D01*
X99026Y197729D01*
X99084Y197666D01*
X99145Y197605D01*
X99208Y197547D01*
X99275Y197492D01*
X99343Y197439D01*
X99414Y197390D01*
X99487Y197345D01*
X99562Y197302D01*
X99638Y197263D01*
X99717Y197227D01*
X99797Y197195D01*
X99878Y197167D01*
X99960Y197142D01*
X100044Y197121D01*
X100128Y197104D01*
X100213Y197090D01*
X100299Y197081D01*
X100385Y197075D01*
X100471Y197073D01*
X99991Y205303D02*
X104309Y205303D01*
X99991Y205303D02*
X99916Y205305D01*
X99841Y205311D01*
X99766Y205321D01*
X99692Y205334D01*
X99619Y205352D01*
X99546Y205373D01*
X99475Y205399D01*
X99406Y205427D01*
X99338Y205460D01*
X99272Y205496D01*
X99207Y205535D01*
X99145Y205578D01*
X99085Y205624D01*
X99028Y205673D01*
X98973Y205724D01*
X98922Y205779D01*
X98873Y205836D01*
X98827Y205896D01*
X98784Y205958D01*
X98745Y206023D01*
X98709Y206089D01*
X98676Y206157D01*
X98648Y206226D01*
X98622Y206297D01*
X98601Y206370D01*
X98583Y206443D01*
X98570Y206517D01*
X98560Y206592D01*
X98554Y206667D01*
X98552Y206742D01*
X98552Y209141D01*
X104309Y209141D01*
X104309Y213837D02*
X98552Y213837D01*
X104309Y213837D02*
X104309Y216236D01*
X104307Y216311D01*
X104301Y216386D01*
X104291Y216461D01*
X104278Y216535D01*
X104260Y216608D01*
X104239Y216681D01*
X104213Y216752D01*
X104185Y216821D01*
X104152Y216889D01*
X104116Y216956D01*
X104077Y217020D01*
X104034Y217082D01*
X103988Y217142D01*
X103939Y217199D01*
X103888Y217254D01*
X103833Y217305D01*
X103776Y217354D01*
X103716Y217400D01*
X103654Y217443D01*
X103590Y217482D01*
X103523Y217518D01*
X103455Y217551D01*
X103386Y217579D01*
X103315Y217605D01*
X103242Y217626D01*
X103169Y217644D01*
X103095Y217657D01*
X103020Y217667D01*
X102945Y217673D01*
X102870Y217675D01*
X98552Y217675D01*
X98552Y225837D02*
X107188Y225837D01*
X98552Y225837D02*
X98552Y223438D01*
X98554Y223363D01*
X98560Y223288D01*
X98570Y223213D01*
X98583Y223139D01*
X98601Y223066D01*
X98622Y222993D01*
X98648Y222922D01*
X98676Y222853D01*
X98709Y222785D01*
X98745Y222719D01*
X98784Y222654D01*
X98827Y222592D01*
X98873Y222532D01*
X98922Y222475D01*
X98973Y222420D01*
X99028Y222369D01*
X99085Y222320D01*
X99145Y222274D01*
X99207Y222231D01*
X99272Y222192D01*
X99338Y222156D01*
X99406Y222123D01*
X99475Y222095D01*
X99546Y222069D01*
X99619Y222048D01*
X99692Y222030D01*
X99766Y222017D01*
X99841Y222007D01*
X99916Y222001D01*
X99991Y221999D01*
X102870Y221999D01*
X102945Y222001D01*
X103020Y222007D01*
X103095Y222017D01*
X103169Y222030D01*
X103242Y222048D01*
X103315Y222069D01*
X103386Y222095D01*
X103455Y222123D01*
X103523Y222156D01*
X103590Y222192D01*
X103654Y222231D01*
X103716Y222274D01*
X103776Y222320D01*
X103833Y222369D01*
X103888Y222420D01*
X103939Y222475D01*
X103988Y222532D01*
X104034Y222592D01*
X104077Y222654D01*
X104116Y222719D01*
X104152Y222785D01*
X104185Y222853D01*
X104213Y222922D01*
X104239Y222993D01*
X104260Y223066D01*
X104278Y223139D01*
X104291Y223213D01*
X104301Y223288D01*
X104307Y223363D01*
X104309Y223438D01*
X104309Y225837D01*
X107188Y235478D02*
X98552Y235478D01*
X104309Y235478D02*
X104309Y237876D01*
X104307Y237951D01*
X104301Y238026D01*
X104291Y238101D01*
X104278Y238175D01*
X104260Y238248D01*
X104239Y238321D01*
X104213Y238392D01*
X104185Y238461D01*
X104152Y238529D01*
X104116Y238596D01*
X104077Y238660D01*
X104034Y238722D01*
X103988Y238782D01*
X103939Y238839D01*
X103888Y238894D01*
X103833Y238945D01*
X103776Y238994D01*
X103716Y239040D01*
X103654Y239083D01*
X103590Y239122D01*
X103523Y239158D01*
X103455Y239191D01*
X103386Y239219D01*
X103315Y239245D01*
X103242Y239266D01*
X103169Y239284D01*
X103095Y239297D01*
X103020Y239307D01*
X102945Y239313D01*
X102870Y239315D01*
X102870Y239316D02*
X98552Y239316D01*
X98552Y245146D02*
X98552Y247545D01*
X98552Y245146D02*
X98554Y245071D01*
X98560Y244996D01*
X98570Y244921D01*
X98583Y244847D01*
X98601Y244774D01*
X98622Y244701D01*
X98648Y244630D01*
X98676Y244561D01*
X98709Y244493D01*
X98745Y244427D01*
X98784Y244362D01*
X98827Y244300D01*
X98873Y244240D01*
X98922Y244183D01*
X98973Y244128D01*
X99028Y244077D01*
X99085Y244028D01*
X99145Y243982D01*
X99207Y243939D01*
X99272Y243900D01*
X99338Y243864D01*
X99406Y243831D01*
X99475Y243803D01*
X99546Y243777D01*
X99619Y243756D01*
X99692Y243738D01*
X99766Y243725D01*
X99841Y243715D01*
X99916Y243709D01*
X99991Y243707D01*
X102390Y243707D01*
X102476Y243709D01*
X102562Y243715D01*
X102648Y243724D01*
X102733Y243738D01*
X102817Y243755D01*
X102901Y243776D01*
X102983Y243801D01*
X103064Y243829D01*
X103144Y243861D01*
X103223Y243897D01*
X103299Y243936D01*
X103374Y243979D01*
X103447Y244024D01*
X103518Y244073D01*
X103586Y244126D01*
X103653Y244181D01*
X103716Y244239D01*
X103777Y244300D01*
X103835Y244363D01*
X103890Y244430D01*
X103943Y244498D01*
X103992Y244569D01*
X104037Y244642D01*
X104080Y244717D01*
X104119Y244793D01*
X104155Y244872D01*
X104187Y244952D01*
X104215Y245033D01*
X104240Y245115D01*
X104261Y245199D01*
X104278Y245283D01*
X104292Y245368D01*
X104301Y245454D01*
X104307Y245540D01*
X104309Y245626D01*
X104307Y245712D01*
X104301Y245798D01*
X104292Y245884D01*
X104278Y245969D01*
X104261Y246053D01*
X104240Y246137D01*
X104215Y246219D01*
X104187Y246300D01*
X104155Y246380D01*
X104119Y246459D01*
X104080Y246535D01*
X104037Y246610D01*
X103992Y246683D01*
X103943Y246754D01*
X103890Y246822D01*
X103835Y246889D01*
X103777Y246952D01*
X103716Y247013D01*
X103653Y247071D01*
X103586Y247126D01*
X103518Y247179D01*
X103447Y247228D01*
X103374Y247273D01*
X103299Y247316D01*
X103223Y247355D01*
X103144Y247391D01*
X103064Y247423D01*
X102983Y247451D01*
X102901Y247476D01*
X102817Y247497D01*
X102733Y247514D01*
X102648Y247528D01*
X102562Y247537D01*
X102476Y247543D01*
X102390Y247545D01*
X101431Y247545D01*
X101431Y243707D01*
X101910Y253243D02*
X101910Y255402D01*
X101910Y253243D02*
X101908Y253162D01*
X101902Y253081D01*
X101892Y253000D01*
X101879Y252920D01*
X101861Y252841D01*
X101840Y252763D01*
X101815Y252686D01*
X101786Y252610D01*
X101754Y252535D01*
X101718Y252463D01*
X101678Y252392D01*
X101635Y252323D01*
X101589Y252256D01*
X101540Y252192D01*
X101488Y252130D01*
X101432Y252070D01*
X101374Y252014D01*
X101314Y251960D01*
X101250Y251909D01*
X101185Y251861D01*
X101117Y251817D01*
X101047Y251776D01*
X100975Y251738D01*
X100902Y251704D01*
X100826Y251673D01*
X100750Y251646D01*
X100672Y251623D01*
X100593Y251604D01*
X100514Y251588D01*
X100433Y251576D01*
X100353Y251568D01*
X100272Y251564D01*
X100190Y251564D01*
X100109Y251568D01*
X100029Y251576D01*
X99948Y251588D01*
X99869Y251604D01*
X99790Y251623D01*
X99712Y251646D01*
X99636Y251673D01*
X99560Y251704D01*
X99487Y251738D01*
X99415Y251776D01*
X99345Y251817D01*
X99277Y251861D01*
X99212Y251909D01*
X99148Y251960D01*
X99088Y252014D01*
X99030Y252070D01*
X98974Y252130D01*
X98922Y252192D01*
X98873Y252256D01*
X98827Y252323D01*
X98784Y252392D01*
X98744Y252463D01*
X98708Y252535D01*
X98676Y252610D01*
X98647Y252686D01*
X98622Y252763D01*
X98601Y252841D01*
X98583Y252920D01*
X98570Y253000D01*
X98560Y253081D01*
X98554Y253162D01*
X98552Y253243D01*
X98552Y255402D01*
X102870Y255402D01*
X102945Y255400D01*
X103020Y255394D01*
X103095Y255384D01*
X103169Y255371D01*
X103242Y255353D01*
X103315Y255332D01*
X103386Y255306D01*
X103455Y255278D01*
X103523Y255245D01*
X103590Y255209D01*
X103654Y255170D01*
X103716Y255127D01*
X103776Y255081D01*
X103833Y255032D01*
X103888Y254981D01*
X103939Y254926D01*
X103988Y254869D01*
X104034Y254809D01*
X104077Y254747D01*
X104116Y254683D01*
X104152Y254616D01*
X104185Y254548D01*
X104213Y254479D01*
X104239Y254408D01*
X104260Y254335D01*
X104278Y254262D01*
X104291Y254188D01*
X104301Y254113D01*
X104307Y254038D01*
X104309Y253963D01*
X104309Y252044D01*
X104309Y259016D02*
X104309Y261894D01*
X107188Y259975D02*
X99991Y259975D01*
X99991Y259976D02*
X99918Y259978D01*
X99845Y259983D01*
X99773Y259993D01*
X99701Y260005D01*
X99630Y260022D01*
X99560Y260042D01*
X99491Y260066D01*
X99424Y260093D01*
X99357Y260123D01*
X99293Y260157D01*
X99230Y260194D01*
X99169Y260234D01*
X99110Y260277D01*
X99054Y260323D01*
X99000Y260372D01*
X98948Y260424D01*
X98899Y260478D01*
X98853Y260534D01*
X98810Y260593D01*
X98770Y260654D01*
X98733Y260717D01*
X98699Y260781D01*
X98669Y260848D01*
X98642Y260915D01*
X98618Y260984D01*
X98598Y261054D01*
X98581Y261125D01*
X98569Y261197D01*
X98559Y261269D01*
X98554Y261342D01*
X98552Y261415D01*
X98552Y261894D01*
X101910Y266372D02*
X100951Y268771D01*
X101910Y266372D02*
X101937Y266309D01*
X101968Y266247D01*
X102003Y266187D01*
X102040Y266129D01*
X102081Y266073D01*
X102124Y266020D01*
X102171Y265969D01*
X102220Y265921D01*
X102272Y265875D01*
X102327Y265833D01*
X102384Y265793D01*
X102442Y265757D01*
X102503Y265724D01*
X102566Y265695D01*
X102629Y265669D01*
X102695Y265646D01*
X102761Y265628D01*
X102829Y265613D01*
X102897Y265601D01*
X102965Y265594D01*
X103034Y265590D01*
X103103Y265591D01*
X103172Y265595D01*
X103241Y265603D01*
X103309Y265614D01*
X103376Y265630D01*
X103443Y265649D01*
X103508Y265671D01*
X103572Y265698D01*
X103634Y265728D01*
X103694Y265761D01*
X103753Y265798D01*
X103809Y265837D01*
X103864Y265880D01*
X103915Y265926D01*
X103964Y265974D01*
X104011Y266026D01*
X104054Y266079D01*
X104094Y266135D01*
X104131Y266194D01*
X104165Y266254D01*
X104196Y266316D01*
X104223Y266379D01*
X104246Y266444D01*
X104266Y266510D01*
X104282Y266577D01*
X104295Y266645D01*
X104303Y266714D01*
X104308Y266783D01*
X104309Y266852D01*
X104306Y266991D01*
X104298Y267130D01*
X104287Y267269D01*
X104273Y267407D01*
X104255Y267545D01*
X104234Y267683D01*
X104209Y267820D01*
X104180Y267956D01*
X104148Y268092D01*
X104113Y268226D01*
X104074Y268360D01*
X104032Y268493D01*
X103986Y268624D01*
X103937Y268754D01*
X103885Y268883D01*
X103830Y269011D01*
X100951Y268771D02*
X100924Y268834D01*
X100893Y268896D01*
X100858Y268956D01*
X100821Y269014D01*
X100780Y269070D01*
X100737Y269123D01*
X100690Y269174D01*
X100641Y269222D01*
X100589Y269268D01*
X100534Y269310D01*
X100477Y269350D01*
X100419Y269386D01*
X100358Y269419D01*
X100296Y269448D01*
X100232Y269474D01*
X100166Y269497D01*
X100100Y269515D01*
X100032Y269530D01*
X99964Y269542D01*
X99896Y269549D01*
X99827Y269553D01*
X99758Y269552D01*
X99689Y269548D01*
X99620Y269540D01*
X99552Y269529D01*
X99485Y269513D01*
X99418Y269494D01*
X99353Y269472D01*
X99289Y269445D01*
X99227Y269415D01*
X99167Y269382D01*
X99108Y269345D01*
X99052Y269306D01*
X98997Y269263D01*
X98946Y269217D01*
X98897Y269169D01*
X98850Y269117D01*
X98807Y269064D01*
X98767Y269008D01*
X98730Y268949D01*
X98696Y268889D01*
X98665Y268827D01*
X98638Y268764D01*
X98615Y268699D01*
X98595Y268633D01*
X98579Y268566D01*
X98566Y268498D01*
X98558Y268429D01*
X98553Y268360D01*
X98552Y268291D01*
X98552Y268292D02*
X98557Y268099D01*
X98566Y267907D01*
X98581Y267715D01*
X98599Y267524D01*
X98622Y267333D01*
X98650Y267142D01*
X98682Y266952D01*
X98719Y266763D01*
X98760Y266575D01*
X98806Y266388D01*
X98856Y266203D01*
X98910Y266018D01*
X98969Y265835D01*
X99032Y265653D01*
X98552Y273363D02*
X104309Y273363D01*
X106708Y273123D02*
X107188Y273123D01*
X107188Y273603D01*
X106708Y273603D01*
X106708Y273123D01*
X104309Y277540D02*
X98552Y277540D01*
X104309Y277540D02*
X104309Y279939D01*
X104307Y280014D01*
X104301Y280089D01*
X104291Y280164D01*
X104278Y280238D01*
X104260Y280311D01*
X104239Y280384D01*
X104213Y280455D01*
X104185Y280524D01*
X104152Y280592D01*
X104116Y280659D01*
X104077Y280723D01*
X104034Y280785D01*
X103988Y280845D01*
X103939Y280902D01*
X103888Y280957D01*
X103833Y281008D01*
X103776Y281057D01*
X103716Y281103D01*
X103654Y281146D01*
X103590Y281185D01*
X103523Y281221D01*
X103455Y281254D01*
X103386Y281282D01*
X103315Y281308D01*
X103242Y281329D01*
X103169Y281347D01*
X103095Y281360D01*
X103020Y281370D01*
X102945Y281376D01*
X102870Y281378D01*
X98552Y281378D01*
X98552Y286230D02*
X107188Y286230D01*
X104309Y290068D02*
X101431Y286230D01*
X102630Y287909D02*
X98552Y290068D01*
D10*
X0Y290830D02*
X0Y232410D01*
X0Y290830D02*
X5080Y295910D01*
X220980Y199390D02*
X220980Y142240D01*
X220980Y199390D02*
X228600Y207010D01*
X913130Y207010D01*
X895350Y295910D02*
X5080Y295910D01*
X913130Y207010D02*
X937260Y182880D01*
X1047750Y182880D01*
D11*
X322580Y292100D02*
X314926Y284446D01*
X307855Y277375D02*
X300201Y269721D01*
X293130Y262650D02*
X285476Y254996D01*
X278404Y247924D02*
X270750Y240270D01*
X263679Y233199D02*
X256025Y225545D01*
X248954Y218474D02*
X241300Y210820D01*
X236220Y212090D02*
X314960Y290830D01*
X236220Y290830D02*
X236220Y212090D01*
X236220Y290830D02*
X314960Y290830D01*
X243586Y219456D02*
X236220Y219456D01*
X236220Y227584D02*
X251714Y227584D01*
X259842Y235712D02*
X236220Y235712D01*
X236220Y243840D02*
X267970Y243840D01*
X276098Y251968D02*
X236220Y251968D01*
X236220Y260096D02*
X284226Y260096D01*
X292354Y268224D02*
X236220Y268224D01*
X236220Y276352D02*
X300482Y276352D01*
X308610Y284480D02*
X236220Y284480D01*
X243840Y290830D02*
X243840Y219710D01*
X251968Y227838D02*
X251968Y290830D01*
X260096Y290830D02*
X260096Y235966D01*
X268224Y244094D02*
X268224Y290830D01*
X276352Y290830D02*
X276352Y252222D01*
X284480Y260350D02*
X284480Y290830D01*
X292608Y290830D02*
X292608Y268478D01*
X300736Y276606D02*
X300736Y290830D01*
X308864Y290830D02*
X308864Y284734D01*
X324286Y290587D02*
X330392Y284480D01*
X328696Y282784D01*
X328696Y282783D02*
X328641Y282732D01*
X328584Y282683D01*
X328524Y282637D01*
X328462Y282594D01*
X328398Y282555D01*
X328331Y282519D01*
X328263Y282486D01*
X328194Y282458D01*
X328123Y282432D01*
X328050Y282411D01*
X327977Y282393D01*
X327903Y282380D01*
X327828Y282370D01*
X327753Y282364D01*
X327678Y282362D01*
X327603Y282364D01*
X327528Y282370D01*
X327453Y282380D01*
X327379Y282393D01*
X327306Y282411D01*
X327233Y282432D01*
X327162Y282458D01*
X327093Y282486D01*
X327025Y282519D01*
X326959Y282555D01*
X326894Y282594D01*
X326832Y282637D01*
X326772Y282683D01*
X326715Y282732D01*
X326661Y282783D01*
X326661Y282784D02*
X324625Y284819D01*
X324575Y284872D01*
X324528Y284928D01*
X324483Y284985D01*
X324441Y285045D01*
X324403Y285107D01*
X324368Y285171D01*
X324335Y285236D01*
X324307Y285303D01*
X324281Y285372D01*
X324260Y285441D01*
X324241Y285512D01*
X324227Y285583D01*
X324216Y285655D01*
X324208Y285728D01*
X324204Y285801D01*
X324204Y285873D01*
X324208Y285946D01*
X324216Y286019D01*
X324227Y286091D01*
X324241Y286162D01*
X324260Y286233D01*
X324281Y286302D01*
X324307Y286371D01*
X324335Y286438D01*
X324368Y286503D01*
X324403Y286567D01*
X324441Y286629D01*
X324483Y286689D01*
X324528Y286746D01*
X324575Y286802D01*
X324625Y286855D01*
X326321Y288551D01*
X323819Y277906D02*
X322123Y276210D01*
X323819Y277906D02*
X323869Y277959D01*
X323916Y278015D01*
X323961Y278072D01*
X324003Y278132D01*
X324041Y278194D01*
X324076Y278258D01*
X324109Y278323D01*
X324137Y278390D01*
X324163Y278459D01*
X324184Y278528D01*
X324203Y278599D01*
X324217Y278670D01*
X324228Y278742D01*
X324236Y278815D01*
X324240Y278888D01*
X324240Y278960D01*
X324236Y279033D01*
X324228Y279106D01*
X324217Y279178D01*
X324203Y279249D01*
X324184Y279320D01*
X324163Y279389D01*
X324137Y279458D01*
X324109Y279525D01*
X324076Y279590D01*
X324041Y279654D01*
X324003Y279716D01*
X323961Y279776D01*
X323916Y279833D01*
X323869Y279889D01*
X323819Y279942D01*
X322123Y281638D01*
X322060Y281698D01*
X321994Y281756D01*
X321926Y281810D01*
X321855Y281861D01*
X321782Y281909D01*
X321707Y281954D01*
X321629Y281995D01*
X321551Y282032D01*
X321470Y282066D01*
X321388Y282096D01*
X321305Y282123D01*
X321220Y282145D01*
X321135Y282164D01*
X321049Y282179D01*
X320962Y282190D01*
X320875Y282197D01*
X320788Y282200D01*
X320700Y282199D01*
X320613Y282194D01*
X320526Y282185D01*
X320440Y282172D01*
X320354Y282155D01*
X320269Y282135D01*
X320185Y282110D01*
X320103Y282082D01*
X320022Y282050D01*
X319942Y282014D01*
X319864Y281975D01*
X319788Y281932D01*
X319714Y281886D01*
X319642Y281836D01*
X319572Y281783D01*
X319505Y281727D01*
X319440Y281668D01*
X319379Y281607D01*
X319320Y281542D01*
X319264Y281475D01*
X319211Y281405D01*
X319161Y281333D01*
X319115Y281259D01*
X319072Y281183D01*
X319033Y281105D01*
X318997Y281025D01*
X318965Y280944D01*
X318937Y280862D01*
X318912Y280778D01*
X318892Y280693D01*
X318875Y280607D01*
X318862Y280521D01*
X318853Y280434D01*
X318848Y280347D01*
X318847Y280259D01*
X318850Y280172D01*
X318857Y280085D01*
X318868Y279998D01*
X318883Y279912D01*
X318902Y279827D01*
X318924Y279742D01*
X318951Y279659D01*
X318981Y279577D01*
X319015Y279497D01*
X319052Y279418D01*
X319093Y279340D01*
X319138Y279265D01*
X319186Y279192D01*
X319237Y279121D01*
X319291Y279053D01*
X319349Y278987D01*
X319409Y278924D01*
X320087Y278246D01*
X322801Y280960D01*
X319017Y273105D02*
X314946Y277176D01*
X313250Y275480D01*
X313199Y275425D01*
X313150Y275368D01*
X313104Y275308D01*
X313061Y275246D01*
X313022Y275182D01*
X312986Y275115D01*
X312953Y275047D01*
X312925Y274978D01*
X312899Y274907D01*
X312878Y274834D01*
X312860Y274761D01*
X312847Y274687D01*
X312837Y274612D01*
X312831Y274537D01*
X312829Y274462D01*
X312831Y274387D01*
X312837Y274312D01*
X312847Y274237D01*
X312860Y274163D01*
X312878Y274090D01*
X312899Y274017D01*
X312925Y273946D01*
X312953Y273877D01*
X312986Y273809D01*
X313022Y273743D01*
X313061Y273678D01*
X313104Y273616D01*
X313150Y273556D01*
X313199Y273499D01*
X313250Y273445D01*
X313250Y273444D02*
X316303Y270391D01*
X310532Y264620D02*
X304426Y270726D01*
X310532Y264620D02*
X312229Y266316D01*
X312279Y266369D01*
X312326Y266425D01*
X312371Y266482D01*
X312413Y266542D01*
X312451Y266604D01*
X312486Y266668D01*
X312519Y266733D01*
X312547Y266800D01*
X312573Y266869D01*
X312594Y266938D01*
X312613Y267009D01*
X312627Y267080D01*
X312638Y267152D01*
X312646Y267225D01*
X312650Y267298D01*
X312650Y267370D01*
X312646Y267443D01*
X312638Y267516D01*
X312627Y267588D01*
X312613Y267659D01*
X312594Y267730D01*
X312573Y267799D01*
X312547Y267868D01*
X312519Y267935D01*
X312486Y268000D01*
X312451Y268064D01*
X312413Y268126D01*
X312371Y268186D01*
X312326Y268243D01*
X312279Y268299D01*
X312229Y268352D01*
X312229Y268351D02*
X310193Y270387D01*
X310138Y270438D01*
X310081Y270487D01*
X310021Y270533D01*
X309959Y270576D01*
X309895Y270615D01*
X309828Y270651D01*
X309760Y270684D01*
X309691Y270712D01*
X309620Y270738D01*
X309547Y270759D01*
X309474Y270777D01*
X309400Y270790D01*
X309325Y270800D01*
X309250Y270806D01*
X309175Y270808D01*
X309100Y270806D01*
X309025Y270800D01*
X308950Y270790D01*
X308876Y270777D01*
X308803Y270759D01*
X308730Y270738D01*
X308659Y270712D01*
X308590Y270684D01*
X308522Y270651D01*
X308456Y270615D01*
X308391Y270576D01*
X308329Y270533D01*
X308269Y270487D01*
X308212Y270438D01*
X308157Y270387D01*
X306461Y268691D01*
X302902Y256990D02*
X301545Y255633D01*
X302903Y256989D02*
X302953Y257042D01*
X303000Y257098D01*
X303045Y257155D01*
X303087Y257215D01*
X303125Y257277D01*
X303160Y257341D01*
X303193Y257406D01*
X303221Y257473D01*
X303247Y257542D01*
X303268Y257611D01*
X303287Y257682D01*
X303301Y257753D01*
X303312Y257825D01*
X303320Y257898D01*
X303324Y257971D01*
X303324Y258043D01*
X303320Y258116D01*
X303312Y258189D01*
X303301Y258261D01*
X303287Y258332D01*
X303268Y258403D01*
X303247Y258472D01*
X303221Y258541D01*
X303193Y258608D01*
X303160Y258673D01*
X303125Y258737D01*
X303087Y258799D01*
X303045Y258859D01*
X303000Y258916D01*
X302953Y258972D01*
X302903Y259025D01*
X302902Y259025D02*
X300867Y261061D01*
X300812Y261112D01*
X300755Y261161D01*
X300695Y261207D01*
X300633Y261250D01*
X300569Y261289D01*
X300502Y261325D01*
X300434Y261358D01*
X300365Y261386D01*
X300294Y261412D01*
X300221Y261433D01*
X300148Y261451D01*
X300074Y261464D01*
X299999Y261474D01*
X299924Y261480D01*
X299849Y261482D01*
X299774Y261480D01*
X299699Y261474D01*
X299624Y261464D01*
X299550Y261451D01*
X299477Y261433D01*
X299404Y261412D01*
X299333Y261386D01*
X299264Y261358D01*
X299196Y261325D01*
X299130Y261289D01*
X299065Y261250D01*
X299003Y261207D01*
X298943Y261161D01*
X298886Y261112D01*
X298831Y261061D01*
X297474Y259704D01*
X295460Y254296D02*
X293933Y252770D01*
X295460Y254296D02*
X295518Y254352D01*
X295580Y254405D01*
X295644Y254455D01*
X295710Y254502D01*
X295778Y254546D01*
X295849Y254586D01*
X295921Y254623D01*
X295995Y254656D01*
X296071Y254686D01*
X296147Y254712D01*
X296226Y254734D01*
X296305Y254753D01*
X296384Y254767D01*
X296465Y254778D01*
X296546Y254785D01*
X296627Y254788D01*
X296708Y254787D01*
X296789Y254782D01*
X296869Y254773D01*
X296950Y254760D01*
X297029Y254744D01*
X297108Y254724D01*
X297185Y254699D01*
X297261Y254672D01*
X297336Y254640D01*
X297409Y254605D01*
X297481Y254566D01*
X297550Y254524D01*
X297617Y254479D01*
X297682Y254431D01*
X297745Y254379D01*
X297805Y254325D01*
X297863Y254267D01*
X297917Y254207D01*
X297969Y254144D01*
X298017Y254079D01*
X298062Y254012D01*
X298104Y253943D01*
X298143Y253871D01*
X298178Y253798D01*
X298210Y253723D01*
X298237Y253647D01*
X298262Y253570D01*
X298282Y253491D01*
X298298Y253412D01*
X298311Y253331D01*
X298320Y253251D01*
X298325Y253170D01*
X298326Y253089D01*
X298323Y253008D01*
X298316Y252927D01*
X298305Y252846D01*
X298291Y252767D01*
X298272Y252688D01*
X298250Y252609D01*
X298224Y252533D01*
X298194Y252457D01*
X298161Y252383D01*
X298124Y252311D01*
X298084Y252240D01*
X298040Y252172D01*
X297993Y252106D01*
X297943Y252042D01*
X297890Y251980D01*
X297834Y251922D01*
X296308Y250395D01*
X293254Y253448D01*
X293204Y253501D01*
X293157Y253557D01*
X293112Y253614D01*
X293070Y253674D01*
X293032Y253736D01*
X292997Y253800D01*
X292964Y253865D01*
X292936Y253932D01*
X292910Y254001D01*
X292889Y254070D01*
X292870Y254141D01*
X292856Y254212D01*
X292845Y254284D01*
X292837Y254357D01*
X292833Y254430D01*
X292833Y254502D01*
X292837Y254575D01*
X292845Y254648D01*
X292856Y254720D01*
X292870Y254791D01*
X292889Y254862D01*
X292910Y254931D01*
X292936Y255000D01*
X292964Y255067D01*
X292997Y255132D01*
X293032Y255196D01*
X293070Y255258D01*
X293112Y255318D01*
X293157Y255375D01*
X293204Y255431D01*
X293255Y255484D01*
X293254Y255484D02*
X294611Y256841D01*
X286785Y253085D02*
X292891Y246978D01*
X291195Y245282D01*
X291140Y245231D01*
X291083Y245182D01*
X291023Y245136D01*
X290961Y245093D01*
X290897Y245054D01*
X290830Y245018D01*
X290762Y244985D01*
X290693Y244957D01*
X290622Y244931D01*
X290549Y244910D01*
X290476Y244892D01*
X290402Y244879D01*
X290327Y244869D01*
X290252Y244863D01*
X290177Y244861D01*
X290102Y244863D01*
X290027Y244869D01*
X289952Y244879D01*
X289878Y244892D01*
X289805Y244910D01*
X289732Y244931D01*
X289661Y244957D01*
X289592Y244985D01*
X289524Y245018D01*
X289458Y245054D01*
X289393Y245093D01*
X289331Y245136D01*
X289271Y245182D01*
X289214Y245231D01*
X289160Y245282D01*
X287124Y247318D01*
X287124Y247317D02*
X287074Y247370D01*
X287027Y247426D01*
X286982Y247483D01*
X286940Y247543D01*
X286902Y247605D01*
X286867Y247669D01*
X286834Y247734D01*
X286806Y247801D01*
X286780Y247870D01*
X286759Y247939D01*
X286740Y248010D01*
X286726Y248081D01*
X286715Y248153D01*
X286707Y248226D01*
X286703Y248299D01*
X286703Y248371D01*
X286707Y248444D01*
X286715Y248517D01*
X286726Y248589D01*
X286740Y248660D01*
X286759Y248731D01*
X286780Y248800D01*
X286806Y248869D01*
X286834Y248936D01*
X286867Y249001D01*
X286902Y249065D01*
X286940Y249127D01*
X286982Y249187D01*
X287027Y249244D01*
X287074Y249300D01*
X287124Y249353D01*
X288820Y251050D01*
X281202Y247502D02*
X286291Y242413D01*
X286342Y242358D01*
X286391Y242301D01*
X286437Y242241D01*
X286480Y242179D01*
X286519Y242115D01*
X286555Y242048D01*
X286588Y241980D01*
X286616Y241911D01*
X286642Y241840D01*
X286663Y241767D01*
X286681Y241694D01*
X286694Y241620D01*
X286704Y241545D01*
X286710Y241470D01*
X286712Y241395D01*
X286710Y241320D01*
X286704Y241245D01*
X286694Y241170D01*
X286681Y241096D01*
X286663Y241023D01*
X286642Y240950D01*
X286616Y240879D01*
X286588Y240810D01*
X286555Y240742D01*
X286519Y240676D01*
X286480Y240611D01*
X286437Y240549D01*
X286391Y240489D01*
X286342Y240432D01*
X286291Y240377D01*
X282870Y236957D02*
X281173Y235260D01*
X282870Y236956D02*
X282920Y237009D01*
X282967Y237065D01*
X283012Y237122D01*
X283054Y237182D01*
X283092Y237244D01*
X283127Y237308D01*
X283160Y237373D01*
X283188Y237440D01*
X283214Y237509D01*
X283235Y237578D01*
X283254Y237649D01*
X283268Y237720D01*
X283279Y237792D01*
X283287Y237865D01*
X283291Y237938D01*
X283291Y238010D01*
X283287Y238083D01*
X283279Y238156D01*
X283268Y238228D01*
X283254Y238299D01*
X283235Y238370D01*
X283214Y238439D01*
X283188Y238508D01*
X283160Y238575D01*
X283127Y238640D01*
X283092Y238704D01*
X283054Y238766D01*
X283012Y238826D01*
X282967Y238883D01*
X282920Y238939D01*
X282870Y238992D01*
X281173Y240688D01*
X281110Y240748D01*
X281044Y240806D01*
X280976Y240860D01*
X280905Y240911D01*
X280832Y240959D01*
X280757Y241004D01*
X280679Y241045D01*
X280601Y241082D01*
X280520Y241116D01*
X280438Y241146D01*
X280355Y241173D01*
X280270Y241195D01*
X280185Y241214D01*
X280099Y241229D01*
X280012Y241240D01*
X279925Y241247D01*
X279838Y241250D01*
X279750Y241249D01*
X279663Y241244D01*
X279576Y241235D01*
X279490Y241222D01*
X279404Y241205D01*
X279319Y241185D01*
X279235Y241160D01*
X279153Y241132D01*
X279072Y241100D01*
X278992Y241064D01*
X278914Y241025D01*
X278838Y240982D01*
X278764Y240936D01*
X278692Y240886D01*
X278622Y240833D01*
X278555Y240777D01*
X278490Y240718D01*
X278429Y240657D01*
X278370Y240592D01*
X278314Y240525D01*
X278261Y240455D01*
X278211Y240383D01*
X278165Y240309D01*
X278122Y240233D01*
X278083Y240155D01*
X278047Y240075D01*
X278015Y239994D01*
X277987Y239912D01*
X277962Y239828D01*
X277942Y239743D01*
X277925Y239657D01*
X277912Y239571D01*
X277903Y239484D01*
X277898Y239397D01*
X277897Y239309D01*
X277900Y239222D01*
X277907Y239135D01*
X277918Y239048D01*
X277933Y238962D01*
X277952Y238877D01*
X277974Y238792D01*
X278001Y238709D01*
X278031Y238627D01*
X278065Y238547D01*
X278102Y238468D01*
X278143Y238390D01*
X278188Y238315D01*
X278236Y238242D01*
X278287Y238171D01*
X278341Y238103D01*
X278399Y238037D01*
X278459Y237974D01*
X279138Y237296D01*
X281852Y240010D01*
X274620Y228707D02*
X268513Y234813D01*
X270549Y232778D02*
X268852Y231081D01*
X268852Y231082D02*
X268801Y231027D01*
X268752Y230970D01*
X268706Y230910D01*
X268663Y230848D01*
X268624Y230784D01*
X268588Y230717D01*
X268555Y230649D01*
X268527Y230580D01*
X268501Y230509D01*
X268480Y230436D01*
X268462Y230363D01*
X268449Y230289D01*
X268439Y230214D01*
X268433Y230139D01*
X268431Y230064D01*
X268433Y229989D01*
X268439Y229914D01*
X268449Y229839D01*
X268462Y229765D01*
X268480Y229692D01*
X268501Y229619D01*
X268527Y229548D01*
X268555Y229479D01*
X268588Y229411D01*
X268624Y229345D01*
X268663Y229280D01*
X268706Y229218D01*
X268752Y229158D01*
X268801Y229101D01*
X268852Y229047D01*
X268852Y229046D02*
X271906Y225993D01*
X267783Y221870D02*
X266087Y220173D01*
X267783Y221869D02*
X267833Y221922D01*
X267880Y221978D01*
X267925Y222035D01*
X267967Y222095D01*
X268005Y222157D01*
X268040Y222221D01*
X268073Y222286D01*
X268101Y222353D01*
X268127Y222422D01*
X268148Y222491D01*
X268167Y222562D01*
X268181Y222633D01*
X268192Y222705D01*
X268200Y222778D01*
X268204Y222851D01*
X268204Y222923D01*
X268200Y222996D01*
X268192Y223069D01*
X268181Y223141D01*
X268167Y223212D01*
X268148Y223283D01*
X268127Y223352D01*
X268101Y223421D01*
X268073Y223488D01*
X268040Y223553D01*
X268005Y223617D01*
X267967Y223679D01*
X267925Y223739D01*
X267880Y223796D01*
X267833Y223852D01*
X267783Y223905D01*
X266087Y225601D01*
X266024Y225661D01*
X265958Y225719D01*
X265890Y225773D01*
X265819Y225824D01*
X265746Y225872D01*
X265671Y225917D01*
X265593Y225958D01*
X265515Y225995D01*
X265434Y226029D01*
X265352Y226059D01*
X265269Y226086D01*
X265184Y226108D01*
X265099Y226127D01*
X265013Y226142D01*
X264926Y226153D01*
X264839Y226160D01*
X264752Y226163D01*
X264664Y226162D01*
X264577Y226157D01*
X264490Y226148D01*
X264404Y226135D01*
X264318Y226118D01*
X264233Y226098D01*
X264149Y226073D01*
X264067Y226045D01*
X263986Y226013D01*
X263906Y225977D01*
X263828Y225938D01*
X263752Y225895D01*
X263678Y225849D01*
X263606Y225799D01*
X263536Y225746D01*
X263469Y225690D01*
X263404Y225631D01*
X263343Y225570D01*
X263284Y225505D01*
X263228Y225438D01*
X263175Y225368D01*
X263125Y225296D01*
X263079Y225222D01*
X263036Y225146D01*
X262997Y225068D01*
X262961Y224988D01*
X262929Y224907D01*
X262901Y224825D01*
X262876Y224741D01*
X262856Y224656D01*
X262839Y224570D01*
X262826Y224484D01*
X262817Y224397D01*
X262812Y224310D01*
X262811Y224222D01*
X262814Y224135D01*
X262821Y224048D01*
X262832Y223961D01*
X262847Y223875D01*
X262866Y223790D01*
X262888Y223705D01*
X262915Y223622D01*
X262945Y223540D01*
X262979Y223460D01*
X263016Y223381D01*
X263057Y223303D01*
X263102Y223228D01*
X263150Y223155D01*
X263201Y223084D01*
X263255Y223016D01*
X263313Y222950D01*
X263373Y222887D01*
X264051Y222209D01*
X266765Y224923D01*
X262927Y217014D02*
X258856Y221085D01*
X256821Y219050D01*
X257499Y218371D01*
X257653Y211740D02*
X255957Y210044D01*
X257654Y211740D02*
X257704Y211793D01*
X257751Y211849D01*
X257796Y211906D01*
X257838Y211966D01*
X257876Y212028D01*
X257911Y212092D01*
X257944Y212157D01*
X257972Y212224D01*
X257998Y212293D01*
X258019Y212362D01*
X258038Y212433D01*
X258052Y212504D01*
X258063Y212576D01*
X258071Y212649D01*
X258075Y212722D01*
X258075Y212794D01*
X258071Y212867D01*
X258063Y212940D01*
X258052Y213012D01*
X258038Y213083D01*
X258019Y213154D01*
X257998Y213223D01*
X257972Y213292D01*
X257944Y213359D01*
X257911Y213424D01*
X257876Y213488D01*
X257838Y213550D01*
X257796Y213610D01*
X257751Y213667D01*
X257704Y213723D01*
X257654Y213776D01*
X257653Y213775D02*
X255957Y215472D01*
X255894Y215532D01*
X255828Y215590D01*
X255760Y215644D01*
X255689Y215695D01*
X255616Y215743D01*
X255541Y215788D01*
X255463Y215829D01*
X255385Y215866D01*
X255304Y215900D01*
X255222Y215930D01*
X255139Y215957D01*
X255054Y215979D01*
X254969Y215998D01*
X254883Y216013D01*
X254796Y216024D01*
X254709Y216031D01*
X254622Y216034D01*
X254534Y216033D01*
X254447Y216028D01*
X254360Y216019D01*
X254274Y216006D01*
X254188Y215989D01*
X254103Y215969D01*
X254019Y215944D01*
X253937Y215916D01*
X253856Y215884D01*
X253776Y215848D01*
X253698Y215809D01*
X253622Y215766D01*
X253548Y215720D01*
X253476Y215670D01*
X253406Y215617D01*
X253339Y215561D01*
X253274Y215502D01*
X253213Y215441D01*
X253154Y215376D01*
X253098Y215309D01*
X253045Y215239D01*
X252995Y215167D01*
X252949Y215093D01*
X252906Y215017D01*
X252867Y214939D01*
X252831Y214859D01*
X252799Y214778D01*
X252771Y214696D01*
X252746Y214612D01*
X252726Y214527D01*
X252709Y214441D01*
X252696Y214355D01*
X252687Y214268D01*
X252682Y214181D01*
X252681Y214093D01*
X252684Y214006D01*
X252691Y213919D01*
X252702Y213832D01*
X252717Y213746D01*
X252736Y213661D01*
X252758Y213576D01*
X252785Y213493D01*
X252815Y213411D01*
X252849Y213331D01*
X252886Y213252D01*
X252927Y213174D01*
X252972Y213099D01*
X253020Y213026D01*
X253071Y212955D01*
X253125Y212887D01*
X253183Y212821D01*
X253243Y212758D01*
X253921Y212079D01*
X256635Y214793D01*
X111760Y293370D02*
X111760Y6350D01*
X111760Y293370D02*
X215900Y293370D01*
X215900Y6350D01*
X111760Y6350D01*
X111760Y8128D02*
X215900Y8128D01*
X215900Y16256D02*
X111760Y16256D01*
X111760Y24384D02*
X215900Y24384D01*
X215900Y32512D02*
X111760Y32512D01*
X111760Y40640D02*
X215900Y40640D01*
X215900Y48768D02*
X111760Y48768D01*
X111760Y56896D02*
X215900Y56896D01*
X215900Y65024D02*
X111760Y65024D01*
X111760Y73152D02*
X215900Y73152D01*
X215900Y81280D02*
X111760Y81280D01*
X111760Y89408D02*
X215900Y89408D01*
X215900Y97536D02*
X111760Y97536D01*
X111760Y105664D02*
X215900Y105664D01*
X215900Y113792D02*
X111760Y113792D01*
X111760Y121920D02*
X215900Y121920D01*
X215900Y130048D02*
X111760Y130048D01*
X111760Y138176D02*
X215900Y138176D01*
X215900Y146304D02*
X111760Y146304D01*
X111760Y154432D02*
X215900Y154432D01*
X215900Y162560D02*
X111760Y162560D01*
X111760Y170688D02*
X215900Y170688D01*
X215900Y178816D02*
X111760Y178816D01*
X111760Y186944D02*
X215900Y186944D01*
X215900Y195072D02*
X111760Y195072D01*
X111760Y203200D02*
X215900Y203200D01*
X215900Y211328D02*
X111760Y211328D01*
X111760Y219456D02*
X215900Y219456D01*
X215900Y227584D02*
X111760Y227584D01*
X111760Y235712D02*
X215900Y235712D01*
X215900Y243840D02*
X111760Y243840D01*
X111760Y251968D02*
X215900Y251968D01*
X215900Y260096D02*
X111760Y260096D01*
X111760Y268224D02*
X215900Y268224D01*
X215900Y276352D02*
X111760Y276352D01*
X111760Y284480D02*
X215900Y284480D01*
X215900Y292608D02*
X111760Y292608D01*
X113792Y293370D02*
X113792Y6350D01*
X121920Y6350D02*
X121920Y293370D01*
X130048Y293370D02*
X130048Y6350D01*
X138176Y6350D02*
X138176Y293370D01*
X146304Y293370D02*
X146304Y6350D01*
X154432Y6350D02*
X154432Y293370D01*
X162560Y293370D02*
X162560Y6350D01*
X170688Y6350D02*
X170688Y293370D01*
X178816Y293370D02*
X178816Y6350D01*
X186944Y6350D02*
X186944Y293370D01*
X195072Y293370D02*
X195072Y6350D01*
X203200Y6350D02*
X203200Y293370D01*
X211328Y293370D02*
X211328Y6350D01*
D10*
X895350Y295910D02*
X911860Y279400D01*
X1066800Y279400D01*
X1075690Y270510D01*
X1245870Y115570D02*
X1296670Y64770D01*
X1245870Y115570D02*
X1245870Y196850D01*
X1235710Y207010D01*
X1235710Y237490D01*
X1245870Y247650D01*
X1245870Y290830D01*
X1240790Y295910D01*
X1083310Y295910D01*
D11*
X669290Y85090D02*
X661636Y77436D01*
X654565Y70365D02*
X646911Y62711D01*
X639840Y55640D02*
X632186Y47986D01*
X625114Y40914D02*
X617460Y33260D01*
X610389Y26189D02*
X602735Y18535D01*
X595664Y11464D02*
X588010Y3810D01*
X601788Y10160D02*
X607894Y4053D01*
X601788Y10160D02*
X603484Y11856D01*
X603539Y11907D01*
X603596Y11956D01*
X603656Y12002D01*
X603718Y12045D01*
X603782Y12084D01*
X603849Y12120D01*
X603917Y12153D01*
X603986Y12181D01*
X604057Y12207D01*
X604130Y12228D01*
X604203Y12246D01*
X604277Y12259D01*
X604352Y12269D01*
X604427Y12275D01*
X604502Y12277D01*
X604577Y12275D01*
X604652Y12269D01*
X604727Y12259D01*
X604801Y12246D01*
X604874Y12228D01*
X604947Y12207D01*
X605018Y12181D01*
X605087Y12153D01*
X605155Y12120D01*
X605221Y12084D01*
X605286Y12045D01*
X605348Y12002D01*
X605408Y11956D01*
X605465Y11907D01*
X605519Y11856D01*
X607555Y9821D01*
X607605Y9768D01*
X607652Y9712D01*
X607697Y9655D01*
X607739Y9595D01*
X607777Y9533D01*
X607812Y9469D01*
X607845Y9404D01*
X607873Y9337D01*
X607899Y9268D01*
X607920Y9199D01*
X607939Y9128D01*
X607953Y9057D01*
X607964Y8985D01*
X607972Y8912D01*
X607976Y8839D01*
X607976Y8767D01*
X607972Y8694D01*
X607964Y8621D01*
X607953Y8549D01*
X607939Y8478D01*
X607920Y8407D01*
X607899Y8338D01*
X607873Y8269D01*
X607845Y8202D01*
X607812Y8137D01*
X607777Y8073D01*
X607739Y8011D01*
X607697Y7951D01*
X607652Y7894D01*
X607605Y7838D01*
X607555Y7785D01*
X605859Y6089D01*
X608361Y16733D02*
X610058Y18430D01*
X608361Y16734D02*
X608310Y16679D01*
X608261Y16622D01*
X608215Y16562D01*
X608172Y16500D01*
X608133Y16436D01*
X608097Y16369D01*
X608064Y16301D01*
X608036Y16232D01*
X608010Y16161D01*
X607989Y16088D01*
X607971Y16015D01*
X607958Y15941D01*
X607948Y15866D01*
X607942Y15791D01*
X607940Y15716D01*
X607942Y15641D01*
X607948Y15566D01*
X607958Y15491D01*
X607971Y15417D01*
X607989Y15344D01*
X608010Y15271D01*
X608036Y15200D01*
X608064Y15131D01*
X608097Y15063D01*
X608133Y14997D01*
X608172Y14932D01*
X608215Y14870D01*
X608261Y14810D01*
X608310Y14753D01*
X608361Y14698D01*
X610058Y13002D01*
X610120Y12943D01*
X610185Y12886D01*
X610252Y12832D01*
X610322Y12782D01*
X610394Y12734D01*
X610468Y12690D01*
X610544Y12649D01*
X610621Y12612D01*
X610701Y12578D01*
X610781Y12548D01*
X610863Y12521D01*
X610946Y12498D01*
X611030Y12479D01*
X611115Y12464D01*
X611200Y12452D01*
X611286Y12444D01*
X611372Y12440D01*
X611458Y12440D01*
X611544Y12444D01*
X611630Y12452D01*
X611715Y12464D01*
X611800Y12479D01*
X611884Y12498D01*
X611967Y12521D01*
X612049Y12548D01*
X612129Y12578D01*
X612209Y12612D01*
X612286Y12649D01*
X612362Y12690D01*
X612436Y12734D01*
X612508Y12782D01*
X612578Y12832D01*
X612645Y12886D01*
X612710Y12943D01*
X612772Y13002D01*
X612831Y13064D01*
X612888Y13129D01*
X612942Y13196D01*
X612992Y13266D01*
X613040Y13338D01*
X613084Y13412D01*
X613125Y13488D01*
X613162Y13565D01*
X613196Y13645D01*
X613226Y13725D01*
X613253Y13807D01*
X613276Y13890D01*
X613295Y13974D01*
X613310Y14059D01*
X613322Y14144D01*
X613330Y14230D01*
X613334Y14316D01*
X613334Y14402D01*
X613330Y14488D01*
X613322Y14574D01*
X613310Y14659D01*
X613295Y14744D01*
X613276Y14828D01*
X613253Y14911D01*
X613226Y14993D01*
X613196Y15073D01*
X613162Y15153D01*
X613125Y15230D01*
X613084Y15306D01*
X613040Y15380D01*
X612992Y15452D01*
X612942Y15522D01*
X612888Y15589D01*
X612831Y15654D01*
X612772Y15716D01*
X612093Y16394D01*
X609379Y13680D01*
X613163Y21535D02*
X617234Y17464D01*
X618930Y19160D01*
X618981Y19215D01*
X619030Y19272D01*
X619076Y19332D01*
X619119Y19394D01*
X619158Y19458D01*
X619194Y19525D01*
X619227Y19593D01*
X619255Y19662D01*
X619281Y19733D01*
X619302Y19806D01*
X619320Y19879D01*
X619333Y19953D01*
X619343Y20028D01*
X619349Y20103D01*
X619351Y20178D01*
X619349Y20253D01*
X619343Y20328D01*
X619333Y20403D01*
X619320Y20477D01*
X619302Y20550D01*
X619281Y20623D01*
X619255Y20694D01*
X619227Y20763D01*
X619194Y20831D01*
X619158Y20897D01*
X619119Y20962D01*
X619076Y21024D01*
X619030Y21084D01*
X618981Y21141D01*
X618930Y21195D01*
X618930Y21196D02*
X615877Y24249D01*
X621648Y30020D02*
X627755Y23914D01*
X621648Y30020D02*
X619952Y28324D01*
X619901Y28269D01*
X619852Y28212D01*
X619806Y28152D01*
X619763Y28090D01*
X619724Y28026D01*
X619688Y27959D01*
X619655Y27891D01*
X619627Y27822D01*
X619601Y27751D01*
X619580Y27678D01*
X619562Y27605D01*
X619549Y27531D01*
X619539Y27456D01*
X619533Y27381D01*
X619531Y27306D01*
X619533Y27231D01*
X619539Y27156D01*
X619549Y27081D01*
X619562Y27007D01*
X619580Y26934D01*
X619601Y26861D01*
X619627Y26790D01*
X619655Y26721D01*
X619688Y26653D01*
X619724Y26587D01*
X619763Y26522D01*
X619806Y26460D01*
X619852Y26400D01*
X619901Y26343D01*
X619952Y26288D01*
X621987Y24253D01*
X622042Y24202D01*
X622099Y24153D01*
X622159Y24107D01*
X622221Y24064D01*
X622286Y24025D01*
X622352Y23989D01*
X622420Y23956D01*
X622489Y23928D01*
X622560Y23902D01*
X622633Y23881D01*
X622706Y23863D01*
X622780Y23850D01*
X622855Y23840D01*
X622930Y23834D01*
X623005Y23832D01*
X623080Y23834D01*
X623155Y23840D01*
X623230Y23850D01*
X623304Y23863D01*
X623377Y23881D01*
X623450Y23902D01*
X623521Y23928D01*
X623590Y23956D01*
X623658Y23989D01*
X623725Y24025D01*
X623789Y24064D01*
X623851Y24107D01*
X623911Y24153D01*
X623968Y24202D01*
X624023Y24253D01*
X625719Y25949D01*
X629278Y37650D02*
X630635Y39007D01*
X629278Y37650D02*
X629227Y37595D01*
X629178Y37538D01*
X629132Y37478D01*
X629089Y37416D01*
X629050Y37352D01*
X629014Y37285D01*
X628981Y37217D01*
X628953Y37148D01*
X628927Y37077D01*
X628906Y37004D01*
X628888Y36931D01*
X628875Y36857D01*
X628865Y36782D01*
X628859Y36707D01*
X628857Y36632D01*
X628859Y36557D01*
X628865Y36482D01*
X628875Y36407D01*
X628888Y36333D01*
X628906Y36260D01*
X628927Y36187D01*
X628953Y36116D01*
X628981Y36047D01*
X629014Y35979D01*
X629050Y35913D01*
X629089Y35848D01*
X629132Y35786D01*
X629178Y35726D01*
X629227Y35669D01*
X629278Y35614D01*
X629278Y35615D02*
X631314Y33579D01*
X631313Y33579D02*
X631368Y33528D01*
X631425Y33479D01*
X631485Y33433D01*
X631547Y33390D01*
X631612Y33351D01*
X631678Y33315D01*
X631746Y33282D01*
X631815Y33254D01*
X631886Y33228D01*
X631959Y33207D01*
X632032Y33189D01*
X632106Y33176D01*
X632181Y33166D01*
X632256Y33160D01*
X632331Y33158D01*
X632406Y33160D01*
X632481Y33166D01*
X632556Y33176D01*
X632630Y33189D01*
X632703Y33207D01*
X632776Y33228D01*
X632847Y33254D01*
X632916Y33282D01*
X632984Y33315D01*
X633051Y33351D01*
X633115Y33390D01*
X633177Y33433D01*
X633237Y33479D01*
X633294Y33528D01*
X633349Y33579D01*
X634706Y34936D01*
X636721Y40343D02*
X638248Y41870D01*
X636721Y40344D02*
X636663Y40288D01*
X636601Y40235D01*
X636537Y40185D01*
X636471Y40138D01*
X636403Y40094D01*
X636332Y40054D01*
X636260Y40017D01*
X636186Y39984D01*
X636110Y39954D01*
X636034Y39928D01*
X635955Y39906D01*
X635876Y39887D01*
X635797Y39873D01*
X635716Y39862D01*
X635635Y39855D01*
X635554Y39852D01*
X635473Y39853D01*
X635392Y39858D01*
X635312Y39867D01*
X635231Y39880D01*
X635152Y39896D01*
X635073Y39916D01*
X634996Y39941D01*
X634920Y39968D01*
X634845Y40000D01*
X634772Y40035D01*
X634700Y40074D01*
X634631Y40116D01*
X634564Y40161D01*
X634499Y40209D01*
X634436Y40261D01*
X634376Y40315D01*
X634318Y40373D01*
X634264Y40433D01*
X634212Y40496D01*
X634164Y40561D01*
X634119Y40628D01*
X634077Y40697D01*
X634038Y40769D01*
X634003Y40842D01*
X633971Y40917D01*
X633944Y40993D01*
X633919Y41070D01*
X633899Y41149D01*
X633883Y41228D01*
X633870Y41309D01*
X633861Y41389D01*
X633856Y41470D01*
X633855Y41551D01*
X633858Y41632D01*
X633865Y41713D01*
X633876Y41794D01*
X633890Y41873D01*
X633909Y41952D01*
X633931Y42031D01*
X633957Y42107D01*
X633987Y42183D01*
X634020Y42257D01*
X634057Y42329D01*
X634097Y42400D01*
X634141Y42468D01*
X634188Y42534D01*
X634238Y42598D01*
X634291Y42660D01*
X634347Y42718D01*
X634346Y42718D02*
X635873Y44245D01*
X638926Y41191D01*
X638926Y41192D02*
X638976Y41139D01*
X639023Y41083D01*
X639068Y41026D01*
X639110Y40966D01*
X639148Y40904D01*
X639183Y40840D01*
X639216Y40775D01*
X639244Y40708D01*
X639270Y40639D01*
X639291Y40570D01*
X639310Y40499D01*
X639324Y40428D01*
X639335Y40356D01*
X639343Y40283D01*
X639347Y40210D01*
X639347Y40138D01*
X639343Y40065D01*
X639335Y39992D01*
X639324Y39920D01*
X639310Y39849D01*
X639291Y39778D01*
X639270Y39709D01*
X639244Y39640D01*
X639216Y39573D01*
X639183Y39508D01*
X639148Y39444D01*
X639110Y39382D01*
X639068Y39322D01*
X639023Y39265D01*
X638976Y39209D01*
X638925Y39156D01*
X638926Y39156D02*
X637569Y37799D01*
X645396Y41554D02*
X639289Y47661D01*
X640985Y49357D01*
X640985Y49358D02*
X641040Y49409D01*
X641097Y49458D01*
X641157Y49504D01*
X641219Y49547D01*
X641283Y49586D01*
X641350Y49622D01*
X641418Y49655D01*
X641487Y49683D01*
X641558Y49709D01*
X641631Y49730D01*
X641704Y49748D01*
X641778Y49761D01*
X641853Y49771D01*
X641928Y49777D01*
X642003Y49779D01*
X642078Y49777D01*
X642153Y49771D01*
X642228Y49761D01*
X642302Y49748D01*
X642375Y49730D01*
X642448Y49709D01*
X642519Y49683D01*
X642588Y49655D01*
X642656Y49622D01*
X642722Y49586D01*
X642787Y49547D01*
X642849Y49504D01*
X642909Y49458D01*
X642966Y49409D01*
X643020Y49358D01*
X643021Y49357D02*
X645057Y47322D01*
X645107Y47269D01*
X645154Y47213D01*
X645199Y47156D01*
X645241Y47096D01*
X645279Y47034D01*
X645314Y46970D01*
X645347Y46905D01*
X645375Y46838D01*
X645401Y46769D01*
X645422Y46700D01*
X645441Y46629D01*
X645455Y46558D01*
X645466Y46486D01*
X645474Y46413D01*
X645478Y46340D01*
X645478Y46268D01*
X645474Y46195D01*
X645466Y46122D01*
X645455Y46050D01*
X645441Y45979D01*
X645422Y45908D01*
X645401Y45839D01*
X645375Y45770D01*
X645347Y45703D01*
X645314Y45638D01*
X645279Y45574D01*
X645241Y45512D01*
X645199Y45452D01*
X645154Y45395D01*
X645107Y45339D01*
X645057Y45286D01*
X643360Y43590D01*
X650979Y47138D02*
X645890Y52226D01*
X645840Y52279D01*
X645793Y52335D01*
X645748Y52392D01*
X645706Y52452D01*
X645668Y52514D01*
X645633Y52578D01*
X645600Y52643D01*
X645572Y52710D01*
X645546Y52779D01*
X645525Y52848D01*
X645506Y52919D01*
X645492Y52990D01*
X645481Y53062D01*
X645473Y53135D01*
X645469Y53208D01*
X645469Y53280D01*
X645473Y53353D01*
X645481Y53426D01*
X645492Y53498D01*
X645506Y53569D01*
X645525Y53640D01*
X645546Y53709D01*
X645572Y53778D01*
X645600Y53845D01*
X645633Y53910D01*
X645668Y53974D01*
X645706Y54036D01*
X645748Y54096D01*
X645793Y54153D01*
X645840Y54209D01*
X645890Y54262D01*
X649311Y57683D02*
X651007Y59379D01*
X649311Y57683D02*
X649260Y57628D01*
X649211Y57571D01*
X649165Y57511D01*
X649122Y57449D01*
X649083Y57385D01*
X649047Y57318D01*
X649014Y57250D01*
X648986Y57181D01*
X648960Y57110D01*
X648939Y57037D01*
X648921Y56964D01*
X648908Y56890D01*
X648898Y56815D01*
X648892Y56740D01*
X648890Y56665D01*
X648892Y56590D01*
X648898Y56515D01*
X648908Y56440D01*
X648921Y56366D01*
X648939Y56293D01*
X648960Y56220D01*
X648986Y56149D01*
X649014Y56080D01*
X649047Y56012D01*
X649083Y55946D01*
X649122Y55881D01*
X649165Y55819D01*
X649211Y55759D01*
X649260Y55702D01*
X649311Y55647D01*
X651007Y53951D01*
X651069Y53892D01*
X651134Y53835D01*
X651201Y53781D01*
X651271Y53731D01*
X651343Y53683D01*
X651417Y53639D01*
X651493Y53598D01*
X651570Y53561D01*
X651650Y53527D01*
X651730Y53497D01*
X651812Y53470D01*
X651895Y53447D01*
X651979Y53428D01*
X652064Y53413D01*
X652149Y53401D01*
X652235Y53393D01*
X652321Y53389D01*
X652407Y53389D01*
X652493Y53393D01*
X652579Y53401D01*
X652664Y53413D01*
X652749Y53428D01*
X652833Y53447D01*
X652916Y53470D01*
X652998Y53497D01*
X653078Y53527D01*
X653158Y53561D01*
X653235Y53598D01*
X653311Y53639D01*
X653385Y53683D01*
X653457Y53731D01*
X653527Y53781D01*
X653594Y53835D01*
X653659Y53892D01*
X653721Y53951D01*
X653780Y54013D01*
X653837Y54078D01*
X653891Y54145D01*
X653941Y54215D01*
X653989Y54287D01*
X654033Y54361D01*
X654074Y54437D01*
X654111Y54514D01*
X654145Y54594D01*
X654175Y54674D01*
X654202Y54756D01*
X654225Y54839D01*
X654244Y54923D01*
X654259Y55008D01*
X654271Y55093D01*
X654279Y55179D01*
X654283Y55265D01*
X654283Y55351D01*
X654279Y55437D01*
X654271Y55523D01*
X654259Y55608D01*
X654244Y55693D01*
X654225Y55777D01*
X654202Y55860D01*
X654175Y55942D01*
X654145Y56022D01*
X654111Y56102D01*
X654074Y56179D01*
X654033Y56255D01*
X653989Y56329D01*
X653941Y56401D01*
X653891Y56471D01*
X653837Y56538D01*
X653780Y56603D01*
X653721Y56665D01*
X653043Y57344D01*
X650329Y54630D01*
X657561Y65933D02*
X663668Y59826D01*
X661632Y61862D02*
X663328Y63558D01*
X663329Y63558D02*
X663380Y63613D01*
X663429Y63670D01*
X663475Y63730D01*
X663518Y63792D01*
X663557Y63856D01*
X663593Y63923D01*
X663626Y63991D01*
X663654Y64060D01*
X663680Y64131D01*
X663701Y64204D01*
X663719Y64277D01*
X663732Y64351D01*
X663742Y64426D01*
X663748Y64501D01*
X663750Y64576D01*
X663748Y64651D01*
X663742Y64726D01*
X663732Y64801D01*
X663719Y64875D01*
X663701Y64948D01*
X663680Y65021D01*
X663654Y65092D01*
X663626Y65161D01*
X663593Y65229D01*
X663557Y65295D01*
X663518Y65360D01*
X663475Y65422D01*
X663429Y65482D01*
X663380Y65539D01*
X663329Y65593D01*
X663328Y65593D02*
X660275Y68647D01*
X664398Y72770D02*
X666094Y74466D01*
X664398Y72770D02*
X664347Y72715D01*
X664298Y72658D01*
X664252Y72598D01*
X664209Y72536D01*
X664170Y72472D01*
X664134Y72405D01*
X664101Y72337D01*
X664073Y72268D01*
X664047Y72197D01*
X664026Y72124D01*
X664008Y72051D01*
X663995Y71977D01*
X663985Y71902D01*
X663979Y71827D01*
X663977Y71752D01*
X663979Y71677D01*
X663985Y71602D01*
X663995Y71527D01*
X664008Y71453D01*
X664026Y71380D01*
X664047Y71307D01*
X664073Y71236D01*
X664101Y71167D01*
X664134Y71099D01*
X664170Y71033D01*
X664209Y70968D01*
X664252Y70906D01*
X664298Y70846D01*
X664347Y70789D01*
X664398Y70734D01*
X666094Y69038D01*
X666156Y68979D01*
X666221Y68922D01*
X666288Y68868D01*
X666358Y68818D01*
X666430Y68770D01*
X666504Y68726D01*
X666580Y68685D01*
X666657Y68648D01*
X666737Y68614D01*
X666817Y68584D01*
X666899Y68557D01*
X666982Y68534D01*
X667066Y68515D01*
X667151Y68500D01*
X667236Y68488D01*
X667322Y68480D01*
X667408Y68476D01*
X667494Y68476D01*
X667580Y68480D01*
X667666Y68488D01*
X667751Y68500D01*
X667836Y68515D01*
X667920Y68534D01*
X668003Y68557D01*
X668085Y68584D01*
X668165Y68614D01*
X668245Y68648D01*
X668322Y68685D01*
X668398Y68726D01*
X668472Y68770D01*
X668544Y68818D01*
X668614Y68868D01*
X668681Y68922D01*
X668746Y68979D01*
X668808Y69038D01*
X668867Y69100D01*
X668924Y69165D01*
X668978Y69232D01*
X669028Y69302D01*
X669076Y69374D01*
X669120Y69448D01*
X669161Y69524D01*
X669198Y69601D01*
X669232Y69681D01*
X669262Y69761D01*
X669289Y69843D01*
X669312Y69926D01*
X669331Y70010D01*
X669346Y70095D01*
X669358Y70180D01*
X669366Y70266D01*
X669370Y70352D01*
X669370Y70438D01*
X669366Y70524D01*
X669358Y70610D01*
X669346Y70695D01*
X669331Y70780D01*
X669312Y70864D01*
X669289Y70947D01*
X669262Y71029D01*
X669232Y71109D01*
X669198Y71189D01*
X669161Y71266D01*
X669120Y71342D01*
X669076Y71416D01*
X669028Y71488D01*
X668978Y71558D01*
X668924Y71625D01*
X668867Y71690D01*
X668808Y71752D01*
X668130Y72430D01*
X665416Y69716D01*
X669253Y77625D02*
X673325Y73554D01*
X675360Y75589D01*
X674682Y76268D01*
X674528Y82899D02*
X676224Y84595D01*
X674528Y82899D02*
X674477Y82844D01*
X674428Y82787D01*
X674382Y82727D01*
X674339Y82665D01*
X674300Y82601D01*
X674264Y82534D01*
X674231Y82466D01*
X674203Y82397D01*
X674177Y82326D01*
X674156Y82253D01*
X674138Y82180D01*
X674125Y82106D01*
X674115Y82031D01*
X674109Y81956D01*
X674107Y81881D01*
X674109Y81806D01*
X674115Y81731D01*
X674125Y81656D01*
X674138Y81582D01*
X674156Y81509D01*
X674177Y81436D01*
X674203Y81365D01*
X674231Y81296D01*
X674264Y81228D01*
X674300Y81162D01*
X674339Y81097D01*
X674382Y81035D01*
X674428Y80975D01*
X674477Y80918D01*
X674528Y80863D01*
X674528Y80864D02*
X676224Y79167D01*
X676286Y79108D01*
X676351Y79051D01*
X676418Y78997D01*
X676488Y78947D01*
X676560Y78899D01*
X676634Y78855D01*
X676710Y78814D01*
X676787Y78777D01*
X676867Y78743D01*
X676947Y78713D01*
X677029Y78686D01*
X677112Y78663D01*
X677196Y78644D01*
X677281Y78629D01*
X677366Y78617D01*
X677452Y78609D01*
X677538Y78605D01*
X677624Y78605D01*
X677710Y78609D01*
X677796Y78617D01*
X677881Y78629D01*
X677966Y78644D01*
X678050Y78663D01*
X678133Y78686D01*
X678215Y78713D01*
X678295Y78743D01*
X678375Y78777D01*
X678452Y78814D01*
X678528Y78855D01*
X678602Y78899D01*
X678674Y78947D01*
X678744Y78997D01*
X678811Y79051D01*
X678876Y79108D01*
X678938Y79167D01*
X678997Y79229D01*
X679054Y79294D01*
X679108Y79361D01*
X679158Y79431D01*
X679206Y79503D01*
X679250Y79577D01*
X679291Y79653D01*
X679328Y79730D01*
X679362Y79810D01*
X679392Y79890D01*
X679419Y79972D01*
X679442Y80055D01*
X679461Y80139D01*
X679476Y80224D01*
X679488Y80309D01*
X679496Y80395D01*
X679500Y80481D01*
X679500Y80567D01*
X679496Y80653D01*
X679488Y80739D01*
X679476Y80824D01*
X679461Y80909D01*
X679442Y80993D01*
X679419Y81076D01*
X679392Y81158D01*
X679362Y81238D01*
X679328Y81318D01*
X679291Y81395D01*
X679250Y81471D01*
X679206Y81545D01*
X679158Y81617D01*
X679108Y81687D01*
X679054Y81754D01*
X678997Y81819D01*
X678938Y81881D01*
X678260Y82560D01*
X675546Y79846D01*
X1189482Y7112D02*
X1198118Y7112D01*
X1189482Y7112D02*
X1189482Y9511D01*
X1189484Y9586D01*
X1189490Y9661D01*
X1189500Y9736D01*
X1189513Y9810D01*
X1189531Y9883D01*
X1189552Y9956D01*
X1189578Y10027D01*
X1189606Y10096D01*
X1189639Y10164D01*
X1189675Y10230D01*
X1189714Y10295D01*
X1189757Y10357D01*
X1189803Y10417D01*
X1189852Y10474D01*
X1189903Y10529D01*
X1189958Y10580D01*
X1190015Y10629D01*
X1190075Y10675D01*
X1190137Y10718D01*
X1190201Y10757D01*
X1190268Y10793D01*
X1190336Y10826D01*
X1190405Y10854D01*
X1190476Y10880D01*
X1190549Y10901D01*
X1190622Y10919D01*
X1190696Y10932D01*
X1190771Y10942D01*
X1190846Y10948D01*
X1190921Y10950D01*
X1193800Y10950D01*
X1193875Y10948D01*
X1193950Y10942D01*
X1194025Y10932D01*
X1194099Y10919D01*
X1194172Y10901D01*
X1194245Y10880D01*
X1194316Y10854D01*
X1194385Y10826D01*
X1194453Y10793D01*
X1194520Y10757D01*
X1194584Y10718D01*
X1194646Y10675D01*
X1194706Y10629D01*
X1194763Y10580D01*
X1194818Y10529D01*
X1194869Y10474D01*
X1194918Y10417D01*
X1194964Y10357D01*
X1195007Y10295D01*
X1195046Y10231D01*
X1195082Y10164D01*
X1195115Y10096D01*
X1195143Y10027D01*
X1195169Y9956D01*
X1195190Y9883D01*
X1195208Y9810D01*
X1195221Y9736D01*
X1195231Y9661D01*
X1195237Y9586D01*
X1195239Y9511D01*
X1195239Y7112D01*
X1189482Y16408D02*
X1189482Y18807D01*
X1189482Y16408D02*
X1189484Y16333D01*
X1189490Y16258D01*
X1189500Y16183D01*
X1189513Y16109D01*
X1189531Y16036D01*
X1189552Y15963D01*
X1189578Y15892D01*
X1189606Y15823D01*
X1189639Y15755D01*
X1189675Y15689D01*
X1189714Y15624D01*
X1189757Y15562D01*
X1189803Y15502D01*
X1189852Y15445D01*
X1189903Y15390D01*
X1189958Y15339D01*
X1190015Y15290D01*
X1190075Y15244D01*
X1190137Y15201D01*
X1190202Y15162D01*
X1190268Y15126D01*
X1190336Y15093D01*
X1190405Y15065D01*
X1190476Y15039D01*
X1190549Y15018D01*
X1190622Y15000D01*
X1190696Y14987D01*
X1190771Y14977D01*
X1190846Y14971D01*
X1190921Y14969D01*
X1193320Y14969D01*
X1193406Y14971D01*
X1193492Y14977D01*
X1193578Y14986D01*
X1193663Y15000D01*
X1193747Y15017D01*
X1193831Y15038D01*
X1193913Y15063D01*
X1193994Y15091D01*
X1194074Y15123D01*
X1194153Y15159D01*
X1194229Y15198D01*
X1194304Y15241D01*
X1194377Y15286D01*
X1194448Y15335D01*
X1194516Y15388D01*
X1194583Y15443D01*
X1194646Y15501D01*
X1194707Y15562D01*
X1194765Y15625D01*
X1194820Y15692D01*
X1194873Y15760D01*
X1194922Y15831D01*
X1194967Y15904D01*
X1195010Y15979D01*
X1195049Y16055D01*
X1195085Y16134D01*
X1195117Y16214D01*
X1195145Y16295D01*
X1195170Y16377D01*
X1195191Y16461D01*
X1195208Y16545D01*
X1195222Y16630D01*
X1195231Y16716D01*
X1195237Y16802D01*
X1195239Y16888D01*
X1195237Y16974D01*
X1195231Y17060D01*
X1195222Y17146D01*
X1195208Y17231D01*
X1195191Y17315D01*
X1195170Y17399D01*
X1195145Y17481D01*
X1195117Y17562D01*
X1195085Y17642D01*
X1195049Y17721D01*
X1195010Y17797D01*
X1194967Y17872D01*
X1194922Y17945D01*
X1194873Y18016D01*
X1194820Y18084D01*
X1194765Y18151D01*
X1194707Y18214D01*
X1194646Y18275D01*
X1194583Y18333D01*
X1194516Y18388D01*
X1194448Y18441D01*
X1194377Y18490D01*
X1194304Y18535D01*
X1194229Y18578D01*
X1194153Y18617D01*
X1194074Y18653D01*
X1193994Y18685D01*
X1193913Y18713D01*
X1193831Y18738D01*
X1193747Y18759D01*
X1193663Y18776D01*
X1193578Y18790D01*
X1193492Y18799D01*
X1193406Y18805D01*
X1193320Y18807D01*
X1192361Y18807D01*
X1192361Y14969D01*
X1195239Y23199D02*
X1189482Y23199D01*
X1195239Y23199D02*
X1195239Y25597D01*
X1195237Y25672D01*
X1195231Y25747D01*
X1195221Y25822D01*
X1195208Y25896D01*
X1195190Y25969D01*
X1195169Y26042D01*
X1195143Y26113D01*
X1195115Y26182D01*
X1195082Y26250D01*
X1195046Y26317D01*
X1195007Y26381D01*
X1194964Y26443D01*
X1194918Y26503D01*
X1194869Y26560D01*
X1194818Y26615D01*
X1194763Y26666D01*
X1194706Y26715D01*
X1194646Y26761D01*
X1194584Y26804D01*
X1194520Y26843D01*
X1194453Y26879D01*
X1194385Y26912D01*
X1194316Y26940D01*
X1194245Y26966D01*
X1194172Y26987D01*
X1194099Y27005D01*
X1194025Y27018D01*
X1193950Y27028D01*
X1193875Y27034D01*
X1193800Y27036D01*
X1193800Y27037D02*
X1189482Y27037D01*
X1189482Y35199D02*
X1198118Y35199D01*
X1189482Y35199D02*
X1189482Y32800D01*
X1189484Y32725D01*
X1189490Y32650D01*
X1189500Y32575D01*
X1189513Y32501D01*
X1189531Y32428D01*
X1189552Y32355D01*
X1189578Y32284D01*
X1189606Y32215D01*
X1189639Y32147D01*
X1189675Y32081D01*
X1189714Y32016D01*
X1189757Y31954D01*
X1189803Y31894D01*
X1189852Y31837D01*
X1189903Y31782D01*
X1189958Y31731D01*
X1190015Y31682D01*
X1190075Y31636D01*
X1190137Y31593D01*
X1190202Y31554D01*
X1190268Y31518D01*
X1190336Y31485D01*
X1190405Y31457D01*
X1190476Y31431D01*
X1190549Y31410D01*
X1190622Y31392D01*
X1190696Y31379D01*
X1190771Y31369D01*
X1190846Y31363D01*
X1190921Y31361D01*
X1190921Y31360D02*
X1193800Y31360D01*
X1193800Y31361D02*
X1193875Y31363D01*
X1193950Y31369D01*
X1194025Y31379D01*
X1194099Y31392D01*
X1194172Y31410D01*
X1194245Y31431D01*
X1194316Y31457D01*
X1194385Y31485D01*
X1194453Y31518D01*
X1194520Y31554D01*
X1194584Y31593D01*
X1194646Y31636D01*
X1194706Y31682D01*
X1194763Y31731D01*
X1194818Y31782D01*
X1194869Y31837D01*
X1194918Y31894D01*
X1194964Y31954D01*
X1195007Y32016D01*
X1195046Y32081D01*
X1195082Y32147D01*
X1195115Y32215D01*
X1195143Y32284D01*
X1195169Y32355D01*
X1195190Y32428D01*
X1195208Y32501D01*
X1195221Y32575D01*
X1195231Y32650D01*
X1195237Y32725D01*
X1195239Y32800D01*
X1195239Y35199D01*
X1192840Y46146D02*
X1192840Y48305D01*
X1192840Y46146D02*
X1192838Y46065D01*
X1192832Y45984D01*
X1192822Y45903D01*
X1192809Y45823D01*
X1192791Y45744D01*
X1192770Y45666D01*
X1192745Y45589D01*
X1192716Y45513D01*
X1192684Y45438D01*
X1192648Y45366D01*
X1192608Y45295D01*
X1192565Y45226D01*
X1192519Y45159D01*
X1192470Y45095D01*
X1192418Y45033D01*
X1192362Y44973D01*
X1192304Y44917D01*
X1192244Y44863D01*
X1192180Y44812D01*
X1192115Y44764D01*
X1192047Y44720D01*
X1191977Y44679D01*
X1191905Y44641D01*
X1191832Y44607D01*
X1191756Y44576D01*
X1191680Y44549D01*
X1191602Y44526D01*
X1191523Y44507D01*
X1191444Y44491D01*
X1191363Y44479D01*
X1191283Y44471D01*
X1191202Y44467D01*
X1191120Y44467D01*
X1191039Y44471D01*
X1190959Y44479D01*
X1190878Y44491D01*
X1190799Y44507D01*
X1190720Y44526D01*
X1190642Y44549D01*
X1190566Y44576D01*
X1190490Y44607D01*
X1190417Y44641D01*
X1190345Y44679D01*
X1190275Y44720D01*
X1190207Y44764D01*
X1190142Y44812D01*
X1190078Y44863D01*
X1190018Y44917D01*
X1189960Y44973D01*
X1189904Y45033D01*
X1189852Y45095D01*
X1189803Y45159D01*
X1189757Y45226D01*
X1189714Y45295D01*
X1189674Y45366D01*
X1189638Y45438D01*
X1189606Y45513D01*
X1189577Y45589D01*
X1189552Y45666D01*
X1189531Y45744D01*
X1189513Y45823D01*
X1189500Y45903D01*
X1189490Y45984D01*
X1189484Y46065D01*
X1189482Y46146D01*
X1189482Y48305D01*
X1193800Y48305D01*
X1193875Y48303D01*
X1193950Y48297D01*
X1194025Y48287D01*
X1194099Y48274D01*
X1194172Y48256D01*
X1194245Y48235D01*
X1194316Y48209D01*
X1194385Y48181D01*
X1194453Y48148D01*
X1194520Y48112D01*
X1194584Y48073D01*
X1194646Y48030D01*
X1194706Y47984D01*
X1194763Y47935D01*
X1194818Y47884D01*
X1194869Y47829D01*
X1194918Y47772D01*
X1194964Y47712D01*
X1195007Y47650D01*
X1195046Y47586D01*
X1195082Y47519D01*
X1195115Y47451D01*
X1195143Y47382D01*
X1195169Y47311D01*
X1195190Y47238D01*
X1195208Y47165D01*
X1195221Y47091D01*
X1195231Y47016D01*
X1195237Y46941D01*
X1195239Y46866D01*
X1195239Y44946D01*
X1195239Y53145D02*
X1189482Y53145D01*
X1195239Y53145D02*
X1195239Y56024D01*
X1194280Y56024D01*
X1193320Y59165D02*
X1191401Y59165D01*
X1193320Y59165D02*
X1193406Y59167D01*
X1193492Y59173D01*
X1193578Y59182D01*
X1193663Y59196D01*
X1193747Y59213D01*
X1193831Y59234D01*
X1193913Y59259D01*
X1193994Y59287D01*
X1194074Y59319D01*
X1194153Y59355D01*
X1194229Y59394D01*
X1194304Y59437D01*
X1194377Y59482D01*
X1194448Y59531D01*
X1194516Y59584D01*
X1194583Y59639D01*
X1194646Y59697D01*
X1194707Y59758D01*
X1194765Y59821D01*
X1194820Y59888D01*
X1194873Y59956D01*
X1194922Y60027D01*
X1194967Y60100D01*
X1195010Y60175D01*
X1195049Y60251D01*
X1195085Y60330D01*
X1195117Y60410D01*
X1195145Y60491D01*
X1195170Y60573D01*
X1195191Y60657D01*
X1195208Y60741D01*
X1195222Y60826D01*
X1195231Y60912D01*
X1195237Y60998D01*
X1195239Y61084D01*
X1195237Y61170D01*
X1195231Y61256D01*
X1195222Y61342D01*
X1195208Y61427D01*
X1195191Y61511D01*
X1195170Y61595D01*
X1195145Y61677D01*
X1195117Y61758D01*
X1195085Y61838D01*
X1195049Y61917D01*
X1195010Y61993D01*
X1194967Y62068D01*
X1194922Y62141D01*
X1194873Y62212D01*
X1194820Y62280D01*
X1194765Y62347D01*
X1194707Y62410D01*
X1194646Y62471D01*
X1194583Y62529D01*
X1194516Y62584D01*
X1194448Y62637D01*
X1194377Y62686D01*
X1194304Y62731D01*
X1194229Y62774D01*
X1194153Y62813D01*
X1194074Y62849D01*
X1193994Y62881D01*
X1193913Y62909D01*
X1193831Y62934D01*
X1193747Y62955D01*
X1193663Y62972D01*
X1193578Y62986D01*
X1193492Y62995D01*
X1193406Y63001D01*
X1193320Y63003D01*
X1191401Y63003D01*
X1191315Y63001D01*
X1191229Y62995D01*
X1191143Y62986D01*
X1191058Y62972D01*
X1190974Y62955D01*
X1190890Y62934D01*
X1190808Y62909D01*
X1190727Y62881D01*
X1190647Y62849D01*
X1190568Y62813D01*
X1190492Y62774D01*
X1190417Y62731D01*
X1190344Y62686D01*
X1190273Y62637D01*
X1190205Y62584D01*
X1190138Y62529D01*
X1190075Y62471D01*
X1190014Y62410D01*
X1189956Y62347D01*
X1189901Y62280D01*
X1189848Y62212D01*
X1189799Y62141D01*
X1189754Y62068D01*
X1189711Y61993D01*
X1189672Y61917D01*
X1189636Y61838D01*
X1189604Y61758D01*
X1189576Y61677D01*
X1189551Y61595D01*
X1189530Y61511D01*
X1189513Y61427D01*
X1189499Y61342D01*
X1189490Y61256D01*
X1189484Y61170D01*
X1189482Y61084D01*
X1189484Y60998D01*
X1189490Y60912D01*
X1189499Y60826D01*
X1189513Y60741D01*
X1189530Y60657D01*
X1189551Y60573D01*
X1189576Y60491D01*
X1189604Y60410D01*
X1189636Y60330D01*
X1189672Y60251D01*
X1189711Y60175D01*
X1189754Y60100D01*
X1189799Y60027D01*
X1189848Y59956D01*
X1189901Y59888D01*
X1189956Y59821D01*
X1190014Y59758D01*
X1190075Y59697D01*
X1190138Y59639D01*
X1190205Y59584D01*
X1190273Y59531D01*
X1190344Y59482D01*
X1190417Y59437D01*
X1190492Y59394D01*
X1190568Y59355D01*
X1190647Y59319D01*
X1190727Y59287D01*
X1190808Y59259D01*
X1190890Y59234D01*
X1190974Y59213D01*
X1191058Y59196D01*
X1191143Y59182D01*
X1191229Y59173D01*
X1191315Y59167D01*
X1191401Y59165D01*
X1190921Y67394D02*
X1195239Y67394D01*
X1190921Y67395D02*
X1190846Y67397D01*
X1190771Y67403D01*
X1190696Y67413D01*
X1190622Y67426D01*
X1190549Y67444D01*
X1190476Y67465D01*
X1190405Y67491D01*
X1190336Y67519D01*
X1190268Y67552D01*
X1190202Y67588D01*
X1190137Y67627D01*
X1190075Y67670D01*
X1190015Y67716D01*
X1189958Y67765D01*
X1189903Y67816D01*
X1189852Y67871D01*
X1189803Y67928D01*
X1189757Y67988D01*
X1189714Y68050D01*
X1189675Y68115D01*
X1189639Y68181D01*
X1189606Y68249D01*
X1189578Y68318D01*
X1189552Y68389D01*
X1189531Y68462D01*
X1189513Y68535D01*
X1189500Y68609D01*
X1189490Y68684D01*
X1189484Y68759D01*
X1189482Y68834D01*
X1189482Y71233D01*
X1195239Y71233D01*
X1195239Y75929D02*
X1189482Y75929D01*
X1195239Y75929D02*
X1195239Y78328D01*
X1195237Y78403D01*
X1195231Y78478D01*
X1195221Y78553D01*
X1195208Y78627D01*
X1195190Y78700D01*
X1195169Y78773D01*
X1195143Y78844D01*
X1195115Y78913D01*
X1195082Y78981D01*
X1195046Y79048D01*
X1195007Y79112D01*
X1194964Y79174D01*
X1194918Y79234D01*
X1194869Y79291D01*
X1194818Y79346D01*
X1194763Y79397D01*
X1194706Y79446D01*
X1194646Y79492D01*
X1194584Y79535D01*
X1194520Y79574D01*
X1194453Y79610D01*
X1194385Y79643D01*
X1194316Y79671D01*
X1194245Y79697D01*
X1194172Y79718D01*
X1194099Y79736D01*
X1194025Y79749D01*
X1193950Y79759D01*
X1193875Y79765D01*
X1193800Y79767D01*
X1189482Y79767D01*
X1189482Y87929D02*
X1198118Y87929D01*
X1189482Y87929D02*
X1189482Y85530D01*
X1189484Y85455D01*
X1189490Y85380D01*
X1189500Y85305D01*
X1189513Y85231D01*
X1189531Y85158D01*
X1189552Y85085D01*
X1189578Y85014D01*
X1189606Y84945D01*
X1189639Y84877D01*
X1189675Y84811D01*
X1189714Y84746D01*
X1189757Y84684D01*
X1189803Y84624D01*
X1189852Y84567D01*
X1189903Y84512D01*
X1189958Y84461D01*
X1190015Y84412D01*
X1190075Y84366D01*
X1190137Y84323D01*
X1190202Y84284D01*
X1190268Y84248D01*
X1190336Y84215D01*
X1190405Y84187D01*
X1190476Y84161D01*
X1190549Y84140D01*
X1190622Y84122D01*
X1190696Y84109D01*
X1190771Y84099D01*
X1190846Y84093D01*
X1190921Y84091D01*
X1190921Y84090D02*
X1193800Y84090D01*
X1193800Y84091D02*
X1193875Y84093D01*
X1193950Y84099D01*
X1194025Y84109D01*
X1194099Y84122D01*
X1194172Y84140D01*
X1194245Y84161D01*
X1194316Y84187D01*
X1194385Y84215D01*
X1194453Y84248D01*
X1194520Y84284D01*
X1194584Y84323D01*
X1194646Y84366D01*
X1194706Y84412D01*
X1194763Y84461D01*
X1194818Y84512D01*
X1194869Y84567D01*
X1194918Y84624D01*
X1194964Y84684D01*
X1195007Y84746D01*
X1195046Y84811D01*
X1195082Y84877D01*
X1195115Y84945D01*
X1195143Y85014D01*
X1195169Y85085D01*
X1195190Y85158D01*
X1195208Y85231D01*
X1195221Y85305D01*
X1195231Y85380D01*
X1195237Y85455D01*
X1195239Y85530D01*
X1195239Y87929D01*
X1198118Y97569D02*
X1189482Y97569D01*
X1195239Y97569D02*
X1195239Y99968D01*
X1195237Y100043D01*
X1195231Y100118D01*
X1195221Y100193D01*
X1195208Y100267D01*
X1195190Y100340D01*
X1195169Y100413D01*
X1195143Y100484D01*
X1195115Y100553D01*
X1195082Y100621D01*
X1195046Y100688D01*
X1195007Y100752D01*
X1194964Y100814D01*
X1194918Y100874D01*
X1194869Y100931D01*
X1194818Y100986D01*
X1194763Y101037D01*
X1194706Y101086D01*
X1194646Y101132D01*
X1194584Y101175D01*
X1194520Y101214D01*
X1194453Y101250D01*
X1194385Y101283D01*
X1194316Y101311D01*
X1194245Y101337D01*
X1194172Y101358D01*
X1194099Y101376D01*
X1194025Y101389D01*
X1193950Y101399D01*
X1193875Y101405D01*
X1193800Y101407D01*
X1193800Y101408D02*
X1189482Y101408D01*
X1189482Y107238D02*
X1189482Y109637D01*
X1189482Y107238D02*
X1189484Y107163D01*
X1189490Y107088D01*
X1189500Y107013D01*
X1189513Y106939D01*
X1189531Y106866D01*
X1189552Y106793D01*
X1189578Y106722D01*
X1189606Y106653D01*
X1189639Y106585D01*
X1189675Y106519D01*
X1189714Y106454D01*
X1189757Y106392D01*
X1189803Y106332D01*
X1189852Y106275D01*
X1189903Y106220D01*
X1189958Y106169D01*
X1190015Y106120D01*
X1190075Y106074D01*
X1190137Y106031D01*
X1190202Y105992D01*
X1190268Y105956D01*
X1190336Y105923D01*
X1190405Y105895D01*
X1190476Y105869D01*
X1190549Y105848D01*
X1190622Y105830D01*
X1190696Y105817D01*
X1190771Y105807D01*
X1190846Y105801D01*
X1190921Y105799D01*
X1193320Y105799D01*
X1193406Y105801D01*
X1193492Y105807D01*
X1193578Y105816D01*
X1193663Y105830D01*
X1193747Y105847D01*
X1193831Y105868D01*
X1193913Y105893D01*
X1193994Y105921D01*
X1194074Y105953D01*
X1194153Y105989D01*
X1194229Y106028D01*
X1194304Y106071D01*
X1194377Y106116D01*
X1194448Y106165D01*
X1194516Y106218D01*
X1194583Y106273D01*
X1194646Y106331D01*
X1194707Y106392D01*
X1194765Y106455D01*
X1194820Y106522D01*
X1194873Y106590D01*
X1194922Y106661D01*
X1194967Y106734D01*
X1195010Y106809D01*
X1195049Y106885D01*
X1195085Y106964D01*
X1195117Y107044D01*
X1195145Y107125D01*
X1195170Y107207D01*
X1195191Y107291D01*
X1195208Y107375D01*
X1195222Y107460D01*
X1195231Y107546D01*
X1195237Y107632D01*
X1195239Y107718D01*
X1195237Y107804D01*
X1195231Y107890D01*
X1195222Y107976D01*
X1195208Y108061D01*
X1195191Y108145D01*
X1195170Y108229D01*
X1195145Y108311D01*
X1195117Y108392D01*
X1195085Y108472D01*
X1195049Y108551D01*
X1195010Y108627D01*
X1194967Y108702D01*
X1194922Y108775D01*
X1194873Y108846D01*
X1194820Y108914D01*
X1194765Y108981D01*
X1194707Y109044D01*
X1194646Y109105D01*
X1194583Y109163D01*
X1194516Y109218D01*
X1194448Y109271D01*
X1194377Y109320D01*
X1194304Y109365D01*
X1194229Y109408D01*
X1194153Y109447D01*
X1194074Y109483D01*
X1193994Y109515D01*
X1193913Y109543D01*
X1193831Y109568D01*
X1193747Y109589D01*
X1193663Y109606D01*
X1193578Y109620D01*
X1193492Y109629D01*
X1193406Y109635D01*
X1193320Y109637D01*
X1192361Y109637D01*
X1192361Y105799D01*
X1192840Y115335D02*
X1192840Y117494D01*
X1192840Y115335D02*
X1192838Y115254D01*
X1192832Y115173D01*
X1192822Y115092D01*
X1192809Y115012D01*
X1192791Y114933D01*
X1192770Y114855D01*
X1192745Y114778D01*
X1192716Y114702D01*
X1192684Y114627D01*
X1192648Y114555D01*
X1192608Y114484D01*
X1192565Y114415D01*
X1192519Y114348D01*
X1192470Y114284D01*
X1192418Y114222D01*
X1192362Y114162D01*
X1192304Y114106D01*
X1192244Y114052D01*
X1192180Y114001D01*
X1192115Y113953D01*
X1192047Y113909D01*
X1191977Y113868D01*
X1191905Y113830D01*
X1191832Y113796D01*
X1191756Y113765D01*
X1191680Y113738D01*
X1191602Y113715D01*
X1191523Y113696D01*
X1191444Y113680D01*
X1191363Y113668D01*
X1191283Y113660D01*
X1191202Y113656D01*
X1191120Y113656D01*
X1191039Y113660D01*
X1190959Y113668D01*
X1190878Y113680D01*
X1190799Y113696D01*
X1190720Y113715D01*
X1190642Y113738D01*
X1190566Y113765D01*
X1190490Y113796D01*
X1190417Y113830D01*
X1190345Y113868D01*
X1190275Y113909D01*
X1190207Y113953D01*
X1190142Y114001D01*
X1190078Y114052D01*
X1190018Y114106D01*
X1189960Y114162D01*
X1189904Y114222D01*
X1189852Y114284D01*
X1189803Y114348D01*
X1189757Y114415D01*
X1189714Y114484D01*
X1189674Y114555D01*
X1189638Y114627D01*
X1189606Y114702D01*
X1189577Y114778D01*
X1189552Y114855D01*
X1189531Y114933D01*
X1189513Y115012D01*
X1189500Y115092D01*
X1189490Y115173D01*
X1189484Y115254D01*
X1189482Y115335D01*
X1189482Y117494D01*
X1193800Y117494D01*
X1193875Y117492D01*
X1193950Y117486D01*
X1194025Y117476D01*
X1194099Y117463D01*
X1194172Y117445D01*
X1194245Y117424D01*
X1194316Y117398D01*
X1194385Y117370D01*
X1194453Y117337D01*
X1194520Y117301D01*
X1194584Y117262D01*
X1194646Y117219D01*
X1194706Y117173D01*
X1194763Y117124D01*
X1194818Y117073D01*
X1194869Y117018D01*
X1194918Y116961D01*
X1194964Y116901D01*
X1195007Y116839D01*
X1195046Y116775D01*
X1195082Y116708D01*
X1195115Y116640D01*
X1195143Y116571D01*
X1195169Y116500D01*
X1195190Y116427D01*
X1195208Y116354D01*
X1195221Y116280D01*
X1195231Y116205D01*
X1195237Y116130D01*
X1195239Y116055D01*
X1195239Y114136D01*
X1195239Y121108D02*
X1195239Y123986D01*
X1198118Y122067D02*
X1190921Y122067D01*
X1190848Y122069D01*
X1190775Y122074D01*
X1190703Y122084D01*
X1190631Y122096D01*
X1190560Y122113D01*
X1190490Y122133D01*
X1190421Y122157D01*
X1190354Y122184D01*
X1190287Y122214D01*
X1190223Y122248D01*
X1190160Y122285D01*
X1190099Y122325D01*
X1190040Y122368D01*
X1189984Y122414D01*
X1189930Y122463D01*
X1189878Y122515D01*
X1189829Y122569D01*
X1189783Y122625D01*
X1189740Y122684D01*
X1189700Y122745D01*
X1189663Y122808D01*
X1189629Y122872D01*
X1189599Y122939D01*
X1189572Y123006D01*
X1189548Y123075D01*
X1189528Y123145D01*
X1189511Y123216D01*
X1189499Y123288D01*
X1189489Y123360D01*
X1189484Y123433D01*
X1189482Y123506D01*
X1189482Y123986D01*
X1192840Y128464D02*
X1191881Y130863D01*
X1192840Y128464D02*
X1192867Y128401D01*
X1192898Y128339D01*
X1192933Y128279D01*
X1192970Y128221D01*
X1193011Y128165D01*
X1193054Y128112D01*
X1193101Y128061D01*
X1193150Y128013D01*
X1193202Y127967D01*
X1193257Y127925D01*
X1193314Y127885D01*
X1193372Y127849D01*
X1193433Y127816D01*
X1193496Y127787D01*
X1193559Y127761D01*
X1193625Y127738D01*
X1193691Y127720D01*
X1193759Y127705D01*
X1193827Y127693D01*
X1193895Y127686D01*
X1193964Y127682D01*
X1194033Y127683D01*
X1194102Y127687D01*
X1194171Y127695D01*
X1194239Y127706D01*
X1194306Y127722D01*
X1194373Y127741D01*
X1194438Y127763D01*
X1194502Y127790D01*
X1194564Y127820D01*
X1194624Y127853D01*
X1194683Y127890D01*
X1194739Y127929D01*
X1194794Y127972D01*
X1194845Y128018D01*
X1194894Y128066D01*
X1194941Y128118D01*
X1194984Y128171D01*
X1195024Y128227D01*
X1195061Y128286D01*
X1195095Y128346D01*
X1195126Y128408D01*
X1195153Y128471D01*
X1195176Y128536D01*
X1195196Y128602D01*
X1195212Y128669D01*
X1195225Y128737D01*
X1195233Y128806D01*
X1195238Y128875D01*
X1195239Y128944D01*
X1195236Y129083D01*
X1195228Y129222D01*
X1195217Y129361D01*
X1195203Y129499D01*
X1195185Y129637D01*
X1195164Y129775D01*
X1195139Y129912D01*
X1195110Y130048D01*
X1195078Y130184D01*
X1195043Y130318D01*
X1195004Y130452D01*
X1194962Y130585D01*
X1194916Y130716D01*
X1194867Y130846D01*
X1194815Y130975D01*
X1194760Y131103D01*
X1191881Y130863D02*
X1191854Y130926D01*
X1191823Y130988D01*
X1191788Y131048D01*
X1191751Y131106D01*
X1191710Y131162D01*
X1191667Y131215D01*
X1191620Y131266D01*
X1191571Y131314D01*
X1191519Y131360D01*
X1191464Y131402D01*
X1191407Y131442D01*
X1191349Y131478D01*
X1191288Y131511D01*
X1191226Y131540D01*
X1191162Y131566D01*
X1191096Y131589D01*
X1191030Y131607D01*
X1190962Y131622D01*
X1190894Y131634D01*
X1190826Y131641D01*
X1190757Y131645D01*
X1190688Y131644D01*
X1190619Y131640D01*
X1190550Y131632D01*
X1190482Y131621D01*
X1190415Y131605D01*
X1190348Y131586D01*
X1190283Y131564D01*
X1190219Y131537D01*
X1190157Y131507D01*
X1190097Y131474D01*
X1190038Y131437D01*
X1189982Y131398D01*
X1189927Y131355D01*
X1189876Y131309D01*
X1189827Y131261D01*
X1189780Y131209D01*
X1189737Y131156D01*
X1189697Y131100D01*
X1189660Y131041D01*
X1189626Y130981D01*
X1189595Y130919D01*
X1189568Y130856D01*
X1189545Y130791D01*
X1189525Y130725D01*
X1189509Y130658D01*
X1189496Y130590D01*
X1189488Y130521D01*
X1189483Y130452D01*
X1189482Y130383D01*
X1189487Y130190D01*
X1189496Y129998D01*
X1189511Y129806D01*
X1189529Y129615D01*
X1189552Y129424D01*
X1189580Y129233D01*
X1189612Y129043D01*
X1189649Y128854D01*
X1189690Y128666D01*
X1189736Y128479D01*
X1189786Y128294D01*
X1189840Y128109D01*
X1189899Y127926D01*
X1189962Y127744D01*
X1189482Y135455D02*
X1195239Y135455D01*
X1197638Y135215D02*
X1198118Y135215D01*
X1198118Y135694D01*
X1197638Y135694D01*
X1197638Y135215D01*
X1195239Y139631D02*
X1189482Y139631D01*
X1195239Y139631D02*
X1195239Y142030D01*
X1195237Y142105D01*
X1195231Y142180D01*
X1195221Y142255D01*
X1195208Y142329D01*
X1195190Y142402D01*
X1195169Y142475D01*
X1195143Y142546D01*
X1195115Y142615D01*
X1195082Y142683D01*
X1195046Y142750D01*
X1195007Y142814D01*
X1194964Y142876D01*
X1194918Y142936D01*
X1194869Y142993D01*
X1194818Y143048D01*
X1194763Y143099D01*
X1194706Y143148D01*
X1194646Y143194D01*
X1194584Y143237D01*
X1194520Y143276D01*
X1194453Y143312D01*
X1194385Y143345D01*
X1194316Y143373D01*
X1194245Y143399D01*
X1194172Y143420D01*
X1194099Y143438D01*
X1194025Y143451D01*
X1193950Y143461D01*
X1193875Y143467D01*
X1193800Y143469D01*
X1193800Y143470D02*
X1189482Y143470D01*
X1189482Y148322D02*
X1198118Y148322D01*
X1195239Y152160D02*
X1192361Y148322D01*
X1193560Y150001D02*
X1189482Y152160D01*
D10*
X1296670Y64770D02*
X1296670Y6350D01*
X1291590Y1270D01*
X1075690Y97790D02*
X1075690Y154940D01*
X1075690Y97790D02*
X1068070Y90170D01*
X383540Y90170D01*
X401320Y1270D02*
X1291590Y1270D01*
X383540Y90170D02*
X359410Y114300D01*
X248920Y114300D01*
D11*
X974090Y5080D02*
X981744Y12734D01*
X988815Y19805D02*
X996469Y27459D01*
X1003540Y34530D02*
X1011194Y42184D01*
X1018266Y49256D02*
X1025920Y56910D01*
X1032991Y63981D02*
X1040645Y71635D01*
X1047716Y78706D02*
X1055370Y86360D01*
X1060450Y85090D02*
X981710Y6350D01*
X1060450Y6350D02*
X1060450Y85090D01*
X1060450Y6350D02*
X981710Y6350D01*
X983488Y8128D02*
X1060450Y8128D01*
X1060450Y16256D02*
X991616Y16256D01*
X999744Y24384D02*
X1060450Y24384D01*
X1060450Y32512D02*
X1007872Y32512D01*
X1016000Y40640D02*
X1060450Y40640D01*
X1060450Y48768D02*
X1024128Y48768D01*
X1032256Y56896D02*
X1060450Y56896D01*
X1060450Y65024D02*
X1040384Y65024D01*
X1048512Y73152D02*
X1060450Y73152D01*
X1060450Y81280D02*
X1056640Y81280D01*
X983488Y8128D02*
X983488Y6350D01*
X991616Y6350D02*
X991616Y16256D01*
X999744Y24384D02*
X999744Y6350D01*
X1007872Y6350D02*
X1007872Y32512D01*
X1016000Y40640D02*
X1016000Y6350D01*
X1024128Y6350D02*
X1024128Y48768D01*
X1032256Y56896D02*
X1032256Y6350D01*
X1040384Y6350D02*
X1040384Y65024D01*
X1048512Y73152D02*
X1048512Y6350D01*
X1056640Y6350D02*
X1056640Y81280D01*
X972384Y6593D02*
X966278Y12700D01*
X967974Y14396D01*
X968029Y14447D01*
X968086Y14496D01*
X968146Y14542D01*
X968208Y14585D01*
X968272Y14624D01*
X968339Y14660D01*
X968407Y14693D01*
X968476Y14721D01*
X968547Y14747D01*
X968620Y14768D01*
X968693Y14786D01*
X968767Y14799D01*
X968842Y14809D01*
X968917Y14815D01*
X968992Y14817D01*
X969067Y14815D01*
X969142Y14809D01*
X969217Y14799D01*
X969291Y14786D01*
X969364Y14768D01*
X969437Y14747D01*
X969508Y14721D01*
X969577Y14693D01*
X969645Y14660D01*
X969711Y14624D01*
X969776Y14585D01*
X969838Y14542D01*
X969898Y14496D01*
X969955Y14447D01*
X970009Y14396D01*
X972045Y12361D01*
X972095Y12308D01*
X972142Y12252D01*
X972187Y12195D01*
X972229Y12135D01*
X972267Y12073D01*
X972302Y12009D01*
X972335Y11944D01*
X972363Y11877D01*
X972389Y11808D01*
X972410Y11739D01*
X972429Y11668D01*
X972443Y11597D01*
X972454Y11525D01*
X972462Y11452D01*
X972466Y11379D01*
X972466Y11307D01*
X972462Y11234D01*
X972454Y11161D01*
X972443Y11089D01*
X972429Y11018D01*
X972410Y10947D01*
X972389Y10878D01*
X972363Y10809D01*
X972335Y10742D01*
X972302Y10677D01*
X972267Y10613D01*
X972229Y10551D01*
X972187Y10491D01*
X972142Y10434D01*
X972095Y10378D01*
X972045Y10325D01*
X970349Y8629D01*
X972851Y19273D02*
X974548Y20970D01*
X972851Y19274D02*
X972800Y19219D01*
X972751Y19162D01*
X972705Y19102D01*
X972662Y19040D01*
X972623Y18976D01*
X972587Y18909D01*
X972554Y18841D01*
X972526Y18772D01*
X972500Y18701D01*
X972479Y18628D01*
X972461Y18555D01*
X972448Y18481D01*
X972438Y18406D01*
X972432Y18331D01*
X972430Y18256D01*
X972432Y18181D01*
X972438Y18106D01*
X972448Y18031D01*
X972461Y17957D01*
X972479Y17884D01*
X972500Y17811D01*
X972526Y17740D01*
X972554Y17671D01*
X972587Y17603D01*
X972623Y17537D01*
X972662Y17472D01*
X972705Y17410D01*
X972751Y17350D01*
X972800Y17293D01*
X972851Y17238D01*
X974548Y15542D01*
X974610Y15483D01*
X974675Y15426D01*
X974742Y15372D01*
X974812Y15322D01*
X974884Y15274D01*
X974958Y15230D01*
X975034Y15189D01*
X975111Y15152D01*
X975191Y15118D01*
X975271Y15088D01*
X975353Y15061D01*
X975436Y15038D01*
X975520Y15019D01*
X975605Y15004D01*
X975690Y14992D01*
X975776Y14984D01*
X975862Y14980D01*
X975948Y14980D01*
X976034Y14984D01*
X976120Y14992D01*
X976205Y15004D01*
X976290Y15019D01*
X976374Y15038D01*
X976457Y15061D01*
X976539Y15088D01*
X976619Y15118D01*
X976699Y15152D01*
X976776Y15189D01*
X976852Y15230D01*
X976926Y15274D01*
X976998Y15322D01*
X977068Y15372D01*
X977135Y15426D01*
X977200Y15483D01*
X977262Y15542D01*
X977321Y15604D01*
X977378Y15669D01*
X977432Y15736D01*
X977482Y15806D01*
X977530Y15878D01*
X977574Y15952D01*
X977615Y16028D01*
X977652Y16105D01*
X977686Y16185D01*
X977716Y16265D01*
X977743Y16347D01*
X977766Y16430D01*
X977785Y16514D01*
X977800Y16599D01*
X977812Y16684D01*
X977820Y16770D01*
X977824Y16856D01*
X977824Y16942D01*
X977820Y17028D01*
X977812Y17114D01*
X977800Y17199D01*
X977785Y17284D01*
X977766Y17368D01*
X977743Y17451D01*
X977716Y17533D01*
X977686Y17613D01*
X977652Y17693D01*
X977615Y17770D01*
X977574Y17846D01*
X977530Y17920D01*
X977482Y17992D01*
X977432Y18062D01*
X977378Y18129D01*
X977321Y18194D01*
X977262Y18256D01*
X976583Y18934D01*
X973869Y16220D01*
X977653Y24075D02*
X981724Y20004D01*
X983420Y21700D01*
X983471Y21755D01*
X983520Y21812D01*
X983566Y21872D01*
X983609Y21934D01*
X983648Y21998D01*
X983684Y22065D01*
X983717Y22133D01*
X983745Y22202D01*
X983771Y22273D01*
X983792Y22346D01*
X983810Y22419D01*
X983823Y22493D01*
X983833Y22568D01*
X983839Y22643D01*
X983841Y22718D01*
X983839Y22793D01*
X983833Y22868D01*
X983823Y22943D01*
X983810Y23017D01*
X983792Y23090D01*
X983771Y23163D01*
X983745Y23234D01*
X983717Y23303D01*
X983684Y23371D01*
X983648Y23437D01*
X983609Y23502D01*
X983566Y23564D01*
X983520Y23624D01*
X983471Y23681D01*
X983420Y23735D01*
X983420Y23736D02*
X980367Y26789D01*
X986138Y32560D02*
X992245Y26454D01*
X986138Y32560D02*
X984442Y30864D01*
X984391Y30809D01*
X984342Y30752D01*
X984296Y30692D01*
X984253Y30630D01*
X984214Y30566D01*
X984178Y30499D01*
X984145Y30431D01*
X984117Y30362D01*
X984091Y30291D01*
X984070Y30218D01*
X984052Y30145D01*
X984039Y30071D01*
X984029Y29996D01*
X984023Y29921D01*
X984021Y29846D01*
X984023Y29771D01*
X984029Y29696D01*
X984039Y29621D01*
X984052Y29547D01*
X984070Y29474D01*
X984091Y29401D01*
X984117Y29330D01*
X984145Y29261D01*
X984178Y29193D01*
X984214Y29127D01*
X984253Y29062D01*
X984296Y29000D01*
X984342Y28940D01*
X984391Y28883D01*
X984442Y28828D01*
X986477Y26793D01*
X986532Y26742D01*
X986589Y26693D01*
X986649Y26647D01*
X986711Y26604D01*
X986776Y26565D01*
X986842Y26529D01*
X986910Y26496D01*
X986979Y26468D01*
X987050Y26442D01*
X987123Y26421D01*
X987196Y26403D01*
X987270Y26390D01*
X987345Y26380D01*
X987420Y26374D01*
X987495Y26372D01*
X987570Y26374D01*
X987645Y26380D01*
X987720Y26390D01*
X987794Y26403D01*
X987867Y26421D01*
X987940Y26442D01*
X988011Y26468D01*
X988080Y26496D01*
X988148Y26529D01*
X988215Y26565D01*
X988279Y26604D01*
X988341Y26647D01*
X988401Y26693D01*
X988458Y26742D01*
X988513Y26793D01*
X990209Y28489D01*
X993768Y40190D02*
X995125Y41547D01*
X993768Y40190D02*
X993717Y40135D01*
X993668Y40078D01*
X993622Y40018D01*
X993579Y39956D01*
X993540Y39892D01*
X993504Y39825D01*
X993471Y39757D01*
X993443Y39688D01*
X993417Y39617D01*
X993396Y39544D01*
X993378Y39471D01*
X993365Y39397D01*
X993355Y39322D01*
X993349Y39247D01*
X993347Y39172D01*
X993349Y39097D01*
X993355Y39022D01*
X993365Y38947D01*
X993378Y38873D01*
X993396Y38800D01*
X993417Y38727D01*
X993443Y38656D01*
X993471Y38587D01*
X993504Y38519D01*
X993540Y38453D01*
X993579Y38388D01*
X993622Y38326D01*
X993668Y38266D01*
X993717Y38209D01*
X993768Y38154D01*
X993768Y38155D02*
X995804Y36119D01*
X995803Y36119D02*
X995858Y36068D01*
X995915Y36019D01*
X995975Y35973D01*
X996037Y35930D01*
X996102Y35891D01*
X996168Y35855D01*
X996236Y35822D01*
X996305Y35794D01*
X996376Y35768D01*
X996449Y35747D01*
X996522Y35729D01*
X996596Y35716D01*
X996671Y35706D01*
X996746Y35700D01*
X996821Y35698D01*
X996896Y35700D01*
X996971Y35706D01*
X997046Y35716D01*
X997120Y35729D01*
X997193Y35747D01*
X997266Y35768D01*
X997337Y35794D01*
X997406Y35822D01*
X997474Y35855D01*
X997541Y35891D01*
X997605Y35930D01*
X997667Y35973D01*
X997727Y36019D01*
X997784Y36068D01*
X997839Y36119D01*
X999196Y37476D01*
X1001211Y42883D02*
X1002738Y44410D01*
X1001211Y42884D02*
X1001153Y42828D01*
X1001091Y42775D01*
X1001027Y42725D01*
X1000961Y42678D01*
X1000893Y42634D01*
X1000822Y42594D01*
X1000750Y42557D01*
X1000676Y42524D01*
X1000600Y42494D01*
X1000524Y42468D01*
X1000445Y42446D01*
X1000366Y42427D01*
X1000287Y42413D01*
X1000206Y42402D01*
X1000125Y42395D01*
X1000044Y42392D01*
X999963Y42393D01*
X999882Y42398D01*
X999802Y42407D01*
X999721Y42420D01*
X999642Y42436D01*
X999563Y42456D01*
X999486Y42481D01*
X999410Y42508D01*
X999335Y42540D01*
X999262Y42575D01*
X999190Y42614D01*
X999121Y42656D01*
X999054Y42701D01*
X998989Y42749D01*
X998926Y42801D01*
X998866Y42855D01*
X998808Y42913D01*
X998754Y42973D01*
X998702Y43036D01*
X998654Y43101D01*
X998609Y43168D01*
X998567Y43237D01*
X998528Y43309D01*
X998493Y43382D01*
X998461Y43457D01*
X998434Y43533D01*
X998409Y43610D01*
X998389Y43689D01*
X998373Y43768D01*
X998360Y43849D01*
X998351Y43929D01*
X998346Y44010D01*
X998345Y44091D01*
X998348Y44172D01*
X998355Y44253D01*
X998366Y44334D01*
X998380Y44413D01*
X998399Y44492D01*
X998421Y44571D01*
X998447Y44647D01*
X998477Y44723D01*
X998510Y44797D01*
X998547Y44869D01*
X998587Y44940D01*
X998631Y45008D01*
X998678Y45074D01*
X998728Y45138D01*
X998781Y45200D01*
X998837Y45258D01*
X998836Y45258D02*
X1000363Y46785D01*
X1003416Y43731D01*
X1003416Y43732D02*
X1003466Y43679D01*
X1003513Y43623D01*
X1003558Y43566D01*
X1003600Y43506D01*
X1003638Y43444D01*
X1003673Y43380D01*
X1003706Y43315D01*
X1003734Y43248D01*
X1003760Y43179D01*
X1003781Y43110D01*
X1003800Y43039D01*
X1003814Y42968D01*
X1003825Y42896D01*
X1003833Y42823D01*
X1003837Y42750D01*
X1003837Y42678D01*
X1003833Y42605D01*
X1003825Y42532D01*
X1003814Y42460D01*
X1003800Y42389D01*
X1003781Y42318D01*
X1003760Y42249D01*
X1003734Y42180D01*
X1003706Y42113D01*
X1003673Y42048D01*
X1003638Y41984D01*
X1003600Y41922D01*
X1003558Y41862D01*
X1003513Y41805D01*
X1003466Y41749D01*
X1003415Y41696D01*
X1003416Y41696D02*
X1002059Y40339D01*
X1009886Y44094D02*
X1003779Y50201D01*
X1005475Y51897D01*
X1005475Y51898D02*
X1005530Y51949D01*
X1005587Y51998D01*
X1005647Y52044D01*
X1005709Y52087D01*
X1005773Y52126D01*
X1005840Y52162D01*
X1005908Y52195D01*
X1005977Y52223D01*
X1006048Y52249D01*
X1006121Y52270D01*
X1006194Y52288D01*
X1006268Y52301D01*
X1006343Y52311D01*
X1006418Y52317D01*
X1006493Y52319D01*
X1006568Y52317D01*
X1006643Y52311D01*
X1006718Y52301D01*
X1006792Y52288D01*
X1006865Y52270D01*
X1006938Y52249D01*
X1007009Y52223D01*
X1007078Y52195D01*
X1007146Y52162D01*
X1007212Y52126D01*
X1007277Y52087D01*
X1007339Y52044D01*
X1007399Y51998D01*
X1007456Y51949D01*
X1007510Y51898D01*
X1007511Y51897D02*
X1009547Y49862D01*
X1009597Y49809D01*
X1009644Y49753D01*
X1009689Y49696D01*
X1009731Y49636D01*
X1009769Y49574D01*
X1009804Y49510D01*
X1009837Y49445D01*
X1009865Y49378D01*
X1009891Y49309D01*
X1009912Y49240D01*
X1009931Y49169D01*
X1009945Y49098D01*
X1009956Y49026D01*
X1009964Y48953D01*
X1009968Y48880D01*
X1009968Y48808D01*
X1009964Y48735D01*
X1009956Y48662D01*
X1009945Y48590D01*
X1009931Y48519D01*
X1009912Y48448D01*
X1009891Y48379D01*
X1009865Y48310D01*
X1009837Y48243D01*
X1009804Y48178D01*
X1009769Y48114D01*
X1009731Y48052D01*
X1009689Y47992D01*
X1009644Y47935D01*
X1009597Y47879D01*
X1009547Y47826D01*
X1007850Y46130D01*
X1015469Y49678D02*
X1010380Y54766D01*
X1010330Y54819D01*
X1010283Y54875D01*
X1010238Y54932D01*
X1010196Y54992D01*
X1010158Y55054D01*
X1010123Y55118D01*
X1010090Y55183D01*
X1010062Y55250D01*
X1010036Y55319D01*
X1010015Y55388D01*
X1009996Y55459D01*
X1009982Y55530D01*
X1009971Y55602D01*
X1009963Y55675D01*
X1009959Y55748D01*
X1009959Y55820D01*
X1009963Y55893D01*
X1009971Y55966D01*
X1009982Y56038D01*
X1009996Y56109D01*
X1010015Y56180D01*
X1010036Y56249D01*
X1010062Y56318D01*
X1010090Y56385D01*
X1010123Y56450D01*
X1010158Y56514D01*
X1010196Y56576D01*
X1010238Y56636D01*
X1010283Y56693D01*
X1010330Y56749D01*
X1010380Y56802D01*
X1013801Y60223D02*
X1015497Y61919D01*
X1013801Y60223D02*
X1013750Y60168D01*
X1013701Y60111D01*
X1013655Y60051D01*
X1013612Y59989D01*
X1013573Y59925D01*
X1013537Y59858D01*
X1013504Y59790D01*
X1013476Y59721D01*
X1013450Y59650D01*
X1013429Y59577D01*
X1013411Y59504D01*
X1013398Y59430D01*
X1013388Y59355D01*
X1013382Y59280D01*
X1013380Y59205D01*
X1013382Y59130D01*
X1013388Y59055D01*
X1013398Y58980D01*
X1013411Y58906D01*
X1013429Y58833D01*
X1013450Y58760D01*
X1013476Y58689D01*
X1013504Y58620D01*
X1013537Y58552D01*
X1013573Y58486D01*
X1013612Y58421D01*
X1013655Y58359D01*
X1013701Y58299D01*
X1013750Y58242D01*
X1013801Y58187D01*
X1015497Y56491D01*
X1015559Y56432D01*
X1015624Y56375D01*
X1015691Y56321D01*
X1015761Y56271D01*
X1015833Y56223D01*
X1015907Y56179D01*
X1015983Y56138D01*
X1016060Y56101D01*
X1016140Y56067D01*
X1016220Y56037D01*
X1016302Y56010D01*
X1016385Y55987D01*
X1016469Y55968D01*
X1016554Y55953D01*
X1016639Y55941D01*
X1016725Y55933D01*
X1016811Y55929D01*
X1016897Y55929D01*
X1016983Y55933D01*
X1017069Y55941D01*
X1017154Y55953D01*
X1017239Y55968D01*
X1017323Y55987D01*
X1017406Y56010D01*
X1017488Y56037D01*
X1017568Y56067D01*
X1017648Y56101D01*
X1017725Y56138D01*
X1017801Y56179D01*
X1017875Y56223D01*
X1017947Y56271D01*
X1018017Y56321D01*
X1018084Y56375D01*
X1018149Y56432D01*
X1018211Y56491D01*
X1018270Y56553D01*
X1018327Y56618D01*
X1018381Y56685D01*
X1018431Y56755D01*
X1018479Y56827D01*
X1018523Y56901D01*
X1018564Y56977D01*
X1018601Y57054D01*
X1018635Y57134D01*
X1018665Y57214D01*
X1018692Y57296D01*
X1018715Y57379D01*
X1018734Y57463D01*
X1018749Y57548D01*
X1018761Y57633D01*
X1018769Y57719D01*
X1018773Y57805D01*
X1018773Y57891D01*
X1018769Y57977D01*
X1018761Y58063D01*
X1018749Y58148D01*
X1018734Y58233D01*
X1018715Y58317D01*
X1018692Y58400D01*
X1018665Y58482D01*
X1018635Y58562D01*
X1018601Y58642D01*
X1018564Y58719D01*
X1018523Y58795D01*
X1018479Y58869D01*
X1018431Y58941D01*
X1018381Y59011D01*
X1018327Y59078D01*
X1018270Y59143D01*
X1018211Y59205D01*
X1017533Y59884D01*
X1014819Y57170D01*
X1022051Y68473D02*
X1028158Y62366D01*
X1026122Y64402D02*
X1027818Y66098D01*
X1027819Y66098D02*
X1027870Y66153D01*
X1027919Y66210D01*
X1027965Y66270D01*
X1028008Y66332D01*
X1028047Y66396D01*
X1028083Y66463D01*
X1028116Y66531D01*
X1028144Y66600D01*
X1028170Y66671D01*
X1028191Y66744D01*
X1028209Y66817D01*
X1028222Y66891D01*
X1028232Y66966D01*
X1028238Y67041D01*
X1028240Y67116D01*
X1028238Y67191D01*
X1028232Y67266D01*
X1028222Y67341D01*
X1028209Y67415D01*
X1028191Y67488D01*
X1028170Y67561D01*
X1028144Y67632D01*
X1028116Y67701D01*
X1028083Y67769D01*
X1028047Y67835D01*
X1028008Y67900D01*
X1027965Y67962D01*
X1027919Y68022D01*
X1027870Y68079D01*
X1027819Y68133D01*
X1027818Y68133D02*
X1024765Y71187D01*
X1028888Y75310D02*
X1030584Y77006D01*
X1028888Y75310D02*
X1028837Y75255D01*
X1028788Y75198D01*
X1028742Y75138D01*
X1028699Y75076D01*
X1028660Y75012D01*
X1028624Y74945D01*
X1028591Y74877D01*
X1028563Y74808D01*
X1028537Y74737D01*
X1028516Y74664D01*
X1028498Y74591D01*
X1028485Y74517D01*
X1028475Y74442D01*
X1028469Y74367D01*
X1028467Y74292D01*
X1028469Y74217D01*
X1028475Y74142D01*
X1028485Y74067D01*
X1028498Y73993D01*
X1028516Y73920D01*
X1028537Y73847D01*
X1028563Y73776D01*
X1028591Y73707D01*
X1028624Y73639D01*
X1028660Y73573D01*
X1028699Y73508D01*
X1028742Y73446D01*
X1028788Y73386D01*
X1028837Y73329D01*
X1028888Y73274D01*
X1030584Y71578D01*
X1030646Y71519D01*
X1030711Y71462D01*
X1030778Y71408D01*
X1030848Y71358D01*
X1030920Y71310D01*
X1030994Y71266D01*
X1031070Y71225D01*
X1031147Y71188D01*
X1031227Y71154D01*
X1031307Y71124D01*
X1031389Y71097D01*
X1031472Y71074D01*
X1031556Y71055D01*
X1031641Y71040D01*
X1031726Y71028D01*
X1031812Y71020D01*
X1031898Y71016D01*
X1031984Y71016D01*
X1032070Y71020D01*
X1032156Y71028D01*
X1032241Y71040D01*
X1032326Y71055D01*
X1032410Y71074D01*
X1032493Y71097D01*
X1032575Y71124D01*
X1032655Y71154D01*
X1032735Y71188D01*
X1032812Y71225D01*
X1032888Y71266D01*
X1032962Y71310D01*
X1033034Y71358D01*
X1033104Y71408D01*
X1033171Y71462D01*
X1033236Y71519D01*
X1033298Y71578D01*
X1033357Y71640D01*
X1033414Y71705D01*
X1033468Y71772D01*
X1033518Y71842D01*
X1033566Y71914D01*
X1033610Y71988D01*
X1033651Y72064D01*
X1033688Y72141D01*
X1033722Y72221D01*
X1033752Y72301D01*
X1033779Y72383D01*
X1033802Y72466D01*
X1033821Y72550D01*
X1033836Y72635D01*
X1033848Y72720D01*
X1033856Y72806D01*
X1033860Y72892D01*
X1033860Y72978D01*
X1033856Y73064D01*
X1033848Y73150D01*
X1033836Y73235D01*
X1033821Y73320D01*
X1033802Y73404D01*
X1033779Y73487D01*
X1033752Y73569D01*
X1033722Y73649D01*
X1033688Y73729D01*
X1033651Y73806D01*
X1033610Y73882D01*
X1033566Y73956D01*
X1033518Y74028D01*
X1033468Y74098D01*
X1033414Y74165D01*
X1033357Y74230D01*
X1033298Y74292D01*
X1032620Y74970D01*
X1029906Y72256D01*
X1033743Y80165D02*
X1037815Y76094D01*
X1039850Y78129D01*
X1039172Y78808D01*
X1039018Y85439D02*
X1040714Y87135D01*
X1039018Y85439D02*
X1038967Y85384D01*
X1038918Y85327D01*
X1038872Y85267D01*
X1038829Y85205D01*
X1038790Y85141D01*
X1038754Y85074D01*
X1038721Y85006D01*
X1038693Y84937D01*
X1038667Y84866D01*
X1038646Y84793D01*
X1038628Y84720D01*
X1038615Y84646D01*
X1038605Y84571D01*
X1038599Y84496D01*
X1038597Y84421D01*
X1038599Y84346D01*
X1038605Y84271D01*
X1038615Y84196D01*
X1038628Y84122D01*
X1038646Y84049D01*
X1038667Y83976D01*
X1038693Y83905D01*
X1038721Y83836D01*
X1038754Y83768D01*
X1038790Y83702D01*
X1038829Y83637D01*
X1038872Y83575D01*
X1038918Y83515D01*
X1038967Y83458D01*
X1039018Y83403D01*
X1039018Y83404D02*
X1040714Y81707D01*
X1040776Y81648D01*
X1040841Y81591D01*
X1040908Y81537D01*
X1040978Y81487D01*
X1041050Y81439D01*
X1041124Y81395D01*
X1041200Y81354D01*
X1041277Y81317D01*
X1041357Y81283D01*
X1041437Y81253D01*
X1041519Y81226D01*
X1041602Y81203D01*
X1041686Y81184D01*
X1041771Y81169D01*
X1041856Y81157D01*
X1041942Y81149D01*
X1042028Y81145D01*
X1042114Y81145D01*
X1042200Y81149D01*
X1042286Y81157D01*
X1042371Y81169D01*
X1042456Y81184D01*
X1042540Y81203D01*
X1042623Y81226D01*
X1042705Y81253D01*
X1042785Y81283D01*
X1042865Y81317D01*
X1042942Y81354D01*
X1043018Y81395D01*
X1043092Y81439D01*
X1043164Y81487D01*
X1043234Y81537D01*
X1043301Y81591D01*
X1043366Y81648D01*
X1043428Y81707D01*
X1043487Y81769D01*
X1043544Y81834D01*
X1043598Y81901D01*
X1043648Y81971D01*
X1043696Y82043D01*
X1043740Y82117D01*
X1043781Y82193D01*
X1043818Y82270D01*
X1043852Y82350D01*
X1043882Y82430D01*
X1043909Y82512D01*
X1043932Y82595D01*
X1043951Y82679D01*
X1043966Y82764D01*
X1043978Y82849D01*
X1043986Y82935D01*
X1043990Y83021D01*
X1043990Y83107D01*
X1043986Y83193D01*
X1043978Y83279D01*
X1043966Y83364D01*
X1043951Y83449D01*
X1043932Y83533D01*
X1043909Y83616D01*
X1043882Y83698D01*
X1043852Y83778D01*
X1043818Y83858D01*
X1043781Y83935D01*
X1043740Y84011D01*
X1043696Y84085D01*
X1043648Y84157D01*
X1043598Y84227D01*
X1043544Y84294D01*
X1043487Y84359D01*
X1043428Y84421D01*
X1042750Y85100D01*
X1040036Y82386D01*
X1184910Y3810D02*
X1184910Y290830D01*
X1184910Y3810D02*
X1080770Y3810D01*
X1080770Y290830D01*
X1184910Y290830D01*
X1184910Y8128D02*
X1080770Y8128D01*
X1080770Y16256D02*
X1184910Y16256D01*
X1184910Y24384D02*
X1080770Y24384D01*
X1080770Y32512D02*
X1184910Y32512D01*
X1184910Y40640D02*
X1080770Y40640D01*
X1080770Y48768D02*
X1184910Y48768D01*
X1184910Y56896D02*
X1080770Y56896D01*
X1080770Y65024D02*
X1184910Y65024D01*
X1184910Y73152D02*
X1080770Y73152D01*
X1080770Y81280D02*
X1184910Y81280D01*
X1184910Y89408D02*
X1080770Y89408D01*
X1080770Y97536D02*
X1184910Y97536D01*
X1184910Y105664D02*
X1080770Y105664D01*
X1080770Y113792D02*
X1184910Y113792D01*
X1184910Y121920D02*
X1080770Y121920D01*
X1080770Y130048D02*
X1184910Y130048D01*
X1184910Y138176D02*
X1080770Y138176D01*
X1080770Y146304D02*
X1184910Y146304D01*
X1184910Y154432D02*
X1080770Y154432D01*
X1080770Y162560D02*
X1184910Y162560D01*
X1184910Y170688D02*
X1080770Y170688D01*
X1080770Y178816D02*
X1184910Y178816D01*
X1184910Y186944D02*
X1080770Y186944D01*
X1080770Y195072D02*
X1184910Y195072D01*
X1184910Y203200D02*
X1080770Y203200D01*
X1080770Y211328D02*
X1184910Y211328D01*
X1184910Y219456D02*
X1080770Y219456D01*
X1080770Y227584D02*
X1184910Y227584D01*
X1184910Y235712D02*
X1080770Y235712D01*
X1080770Y243840D02*
X1184910Y243840D01*
X1184910Y251968D02*
X1080770Y251968D01*
X1080770Y260096D02*
X1184910Y260096D01*
X1184910Y268224D02*
X1080770Y268224D01*
X1080770Y276352D02*
X1184910Y276352D01*
X1184910Y284480D02*
X1080770Y284480D01*
X1081024Y290830D02*
X1081024Y3810D01*
X1089152Y3810D02*
X1089152Y290830D01*
X1097280Y290830D02*
X1097280Y3810D01*
X1105408Y3810D02*
X1105408Y290830D01*
X1113536Y290830D02*
X1113536Y3810D01*
X1121664Y3810D02*
X1121664Y290830D01*
X1129792Y290830D02*
X1129792Y3810D01*
X1137920Y3810D02*
X1137920Y290830D01*
X1146048Y290830D02*
X1146048Y3810D01*
X1154176Y3810D02*
X1154176Y290830D01*
X1162304Y290830D02*
X1162304Y3810D01*
X1170432Y3810D02*
X1170432Y290830D01*
X1178560Y290830D02*
X1178560Y3810D01*
D10*
X401320Y1270D02*
X384810Y17780D01*
X229870Y17780D01*
X1066800Y279400D02*
X1083310Y295910D01*
X1047750Y182880D02*
X1075690Y154940D01*
X248920Y114300D02*
X220980Y142240D01*
X229870Y17780D02*
X213360Y1270D01*
D11*
X237851Y103231D02*
X247650Y113030D01*
X230779Y96159D02*
X220980Y86360D01*
X220980Y75445D01*
X220980Y65445D02*
X220980Y54530D01*
X220980Y44530D02*
X220980Y33615D01*
X220980Y23615D02*
X220980Y12700D01*
X220980Y86360D02*
X220980Y97473D01*
X220980Y107473D02*
X220980Y118587D01*
X220980Y128587D02*
X220980Y139700D01*
X1075690Y274518D02*
X1075690Y285750D01*
X1075690Y264518D02*
X1075690Y253285D01*
X1075690Y243285D02*
X1075690Y232053D01*
X1075690Y222053D02*
X1075690Y210820D01*
X1058819Y193949D02*
X1049020Y184150D01*
X1065891Y201021D02*
X1075690Y210820D01*
X1075690Y199707D01*
X1075690Y189707D02*
X1075690Y178593D01*
X1075690Y168593D02*
X1075690Y157480D01*
D10*
X953850Y227330D02*
X953852Y227471D01*
X953858Y227612D01*
X953868Y227752D01*
X953882Y227892D01*
X953900Y228032D01*
X953921Y228171D01*
X953947Y228310D01*
X953976Y228448D01*
X954010Y228584D01*
X954047Y228720D01*
X954088Y228855D01*
X954133Y228989D01*
X954182Y229121D01*
X954234Y229252D01*
X954290Y229381D01*
X954350Y229508D01*
X954413Y229634D01*
X954479Y229758D01*
X954550Y229881D01*
X954623Y230001D01*
X954700Y230119D01*
X954780Y230235D01*
X954864Y230348D01*
X954950Y230459D01*
X955040Y230568D01*
X955133Y230674D01*
X955228Y230777D01*
X955327Y230878D01*
X955428Y230976D01*
X955532Y231071D01*
X955639Y231163D01*
X955748Y231252D01*
X955860Y231337D01*
X955974Y231420D01*
X956090Y231500D01*
X956209Y231576D01*
X956330Y231648D01*
X956452Y231718D01*
X956577Y231783D01*
X956703Y231846D01*
X956831Y231904D01*
X956961Y231959D01*
X957092Y232011D01*
X957225Y232058D01*
X957359Y232102D01*
X957494Y232143D01*
X957630Y232179D01*
X957767Y232211D01*
X957905Y232240D01*
X958043Y232265D01*
X958183Y232285D01*
X958323Y232302D01*
X958463Y232315D01*
X958604Y232324D01*
X958744Y232329D01*
X958885Y232330D01*
X959026Y232327D01*
X959167Y232320D01*
X959307Y232309D01*
X959447Y232294D01*
X959587Y232275D01*
X959726Y232253D01*
X959864Y232226D01*
X960002Y232196D01*
X960138Y232161D01*
X960274Y232123D01*
X960408Y232081D01*
X960542Y232035D01*
X960674Y231986D01*
X960804Y231932D01*
X960933Y231875D01*
X961060Y231815D01*
X961186Y231751D01*
X961309Y231683D01*
X961431Y231612D01*
X961551Y231538D01*
X961668Y231460D01*
X961783Y231379D01*
X961896Y231295D01*
X962007Y231208D01*
X962115Y231117D01*
X962220Y231024D01*
X962323Y230927D01*
X962423Y230828D01*
X962520Y230726D01*
X962614Y230621D01*
X962705Y230514D01*
X962793Y230404D01*
X962878Y230292D01*
X962960Y230177D01*
X963039Y230060D01*
X963114Y229941D01*
X963186Y229820D01*
X963254Y229697D01*
X963319Y229572D01*
X963381Y229445D01*
X963438Y229316D01*
X963493Y229186D01*
X963543Y229055D01*
X963590Y228922D01*
X963633Y228788D01*
X963672Y228652D01*
X963707Y228516D01*
X963739Y228379D01*
X963766Y228241D01*
X963790Y228102D01*
X963810Y227962D01*
X963826Y227822D01*
X963838Y227682D01*
X963846Y227541D01*
X963850Y227400D01*
X963850Y227260D01*
X963846Y227119D01*
X963838Y226978D01*
X963826Y226838D01*
X963810Y226698D01*
X963790Y226558D01*
X963766Y226419D01*
X963739Y226281D01*
X963707Y226144D01*
X963672Y226008D01*
X963633Y225872D01*
X963590Y225738D01*
X963543Y225605D01*
X963493Y225474D01*
X963438Y225344D01*
X963381Y225215D01*
X963319Y225088D01*
X963254Y224963D01*
X963186Y224840D01*
X963114Y224719D01*
X963039Y224600D01*
X962960Y224483D01*
X962878Y224368D01*
X962793Y224256D01*
X962705Y224146D01*
X962614Y224039D01*
X962520Y223934D01*
X962423Y223832D01*
X962323Y223733D01*
X962220Y223636D01*
X962115Y223543D01*
X962007Y223452D01*
X961896Y223365D01*
X961783Y223281D01*
X961668Y223200D01*
X961551Y223122D01*
X961431Y223048D01*
X961309Y222977D01*
X961186Y222909D01*
X961060Y222845D01*
X960933Y222785D01*
X960804Y222728D01*
X960674Y222674D01*
X960542Y222625D01*
X960408Y222579D01*
X960274Y222537D01*
X960138Y222499D01*
X960002Y222464D01*
X959864Y222434D01*
X959726Y222407D01*
X959587Y222385D01*
X959447Y222366D01*
X959307Y222351D01*
X959167Y222340D01*
X959026Y222333D01*
X958885Y222330D01*
X958744Y222331D01*
X958604Y222336D01*
X958463Y222345D01*
X958323Y222358D01*
X958183Y222375D01*
X958043Y222395D01*
X957905Y222420D01*
X957767Y222449D01*
X957630Y222481D01*
X957494Y222517D01*
X957359Y222558D01*
X957225Y222602D01*
X957092Y222649D01*
X956961Y222701D01*
X956831Y222756D01*
X956703Y222814D01*
X956577Y222877D01*
X956452Y222942D01*
X956330Y223012D01*
X956209Y223084D01*
X956090Y223160D01*
X955974Y223240D01*
X955860Y223323D01*
X955748Y223408D01*
X955639Y223497D01*
X955532Y223589D01*
X955428Y223684D01*
X955327Y223782D01*
X955228Y223883D01*
X955133Y223986D01*
X955040Y224092D01*
X954950Y224201D01*
X954864Y224312D01*
X954780Y224425D01*
X954700Y224541D01*
X954623Y224659D01*
X954550Y224779D01*
X954479Y224902D01*
X954413Y225026D01*
X954350Y225152D01*
X954290Y225279D01*
X954234Y225408D01*
X954182Y225539D01*
X954133Y225671D01*
X954088Y225805D01*
X954047Y225940D01*
X954010Y226076D01*
X953976Y226212D01*
X953947Y226350D01*
X953921Y226489D01*
X953900Y226628D01*
X953882Y226768D01*
X953868Y226908D01*
X953858Y227048D01*
X953852Y227189D01*
X953850Y227330D01*
X928450Y227330D02*
X928452Y227471D01*
X928458Y227612D01*
X928468Y227752D01*
X928482Y227892D01*
X928500Y228032D01*
X928521Y228171D01*
X928547Y228310D01*
X928576Y228448D01*
X928610Y228584D01*
X928647Y228720D01*
X928688Y228855D01*
X928733Y228989D01*
X928782Y229121D01*
X928834Y229252D01*
X928890Y229381D01*
X928950Y229508D01*
X929013Y229634D01*
X929079Y229758D01*
X929150Y229881D01*
X929223Y230001D01*
X929300Y230119D01*
X929380Y230235D01*
X929464Y230348D01*
X929550Y230459D01*
X929640Y230568D01*
X929733Y230674D01*
X929828Y230777D01*
X929927Y230878D01*
X930028Y230976D01*
X930132Y231071D01*
X930239Y231163D01*
X930348Y231252D01*
X930460Y231337D01*
X930574Y231420D01*
X930690Y231500D01*
X930809Y231576D01*
X930930Y231648D01*
X931052Y231718D01*
X931177Y231783D01*
X931303Y231846D01*
X931431Y231904D01*
X931561Y231959D01*
X931692Y232011D01*
X931825Y232058D01*
X931959Y232102D01*
X932094Y232143D01*
X932230Y232179D01*
X932367Y232211D01*
X932505Y232240D01*
X932643Y232265D01*
X932783Y232285D01*
X932923Y232302D01*
X933063Y232315D01*
X933204Y232324D01*
X933344Y232329D01*
X933485Y232330D01*
X933626Y232327D01*
X933767Y232320D01*
X933907Y232309D01*
X934047Y232294D01*
X934187Y232275D01*
X934326Y232253D01*
X934464Y232226D01*
X934602Y232196D01*
X934738Y232161D01*
X934874Y232123D01*
X935008Y232081D01*
X935142Y232035D01*
X935274Y231986D01*
X935404Y231932D01*
X935533Y231875D01*
X935660Y231815D01*
X935786Y231751D01*
X935909Y231683D01*
X936031Y231612D01*
X936151Y231538D01*
X936268Y231460D01*
X936383Y231379D01*
X936496Y231295D01*
X936607Y231208D01*
X936715Y231117D01*
X936820Y231024D01*
X936923Y230927D01*
X937023Y230828D01*
X937120Y230726D01*
X937214Y230621D01*
X937305Y230514D01*
X937393Y230404D01*
X937478Y230292D01*
X937560Y230177D01*
X937639Y230060D01*
X937714Y229941D01*
X937786Y229820D01*
X937854Y229697D01*
X937919Y229572D01*
X937981Y229445D01*
X938038Y229316D01*
X938093Y229186D01*
X938143Y229055D01*
X938190Y228922D01*
X938233Y228788D01*
X938272Y228652D01*
X938307Y228516D01*
X938339Y228379D01*
X938366Y228241D01*
X938390Y228102D01*
X938410Y227962D01*
X938426Y227822D01*
X938438Y227682D01*
X938446Y227541D01*
X938450Y227400D01*
X938450Y227260D01*
X938446Y227119D01*
X938438Y226978D01*
X938426Y226838D01*
X938410Y226698D01*
X938390Y226558D01*
X938366Y226419D01*
X938339Y226281D01*
X938307Y226144D01*
X938272Y226008D01*
X938233Y225872D01*
X938190Y225738D01*
X938143Y225605D01*
X938093Y225474D01*
X938038Y225344D01*
X937981Y225215D01*
X937919Y225088D01*
X937854Y224963D01*
X937786Y224840D01*
X937714Y224719D01*
X937639Y224600D01*
X937560Y224483D01*
X937478Y224368D01*
X937393Y224256D01*
X937305Y224146D01*
X937214Y224039D01*
X937120Y223934D01*
X937023Y223832D01*
X936923Y223733D01*
X936820Y223636D01*
X936715Y223543D01*
X936607Y223452D01*
X936496Y223365D01*
X936383Y223281D01*
X936268Y223200D01*
X936151Y223122D01*
X936031Y223048D01*
X935909Y222977D01*
X935786Y222909D01*
X935660Y222845D01*
X935533Y222785D01*
X935404Y222728D01*
X935274Y222674D01*
X935142Y222625D01*
X935008Y222579D01*
X934874Y222537D01*
X934738Y222499D01*
X934602Y222464D01*
X934464Y222434D01*
X934326Y222407D01*
X934187Y222385D01*
X934047Y222366D01*
X933907Y222351D01*
X933767Y222340D01*
X933626Y222333D01*
X933485Y222330D01*
X933344Y222331D01*
X933204Y222336D01*
X933063Y222345D01*
X932923Y222358D01*
X932783Y222375D01*
X932643Y222395D01*
X932505Y222420D01*
X932367Y222449D01*
X932230Y222481D01*
X932094Y222517D01*
X931959Y222558D01*
X931825Y222602D01*
X931692Y222649D01*
X931561Y222701D01*
X931431Y222756D01*
X931303Y222814D01*
X931177Y222877D01*
X931052Y222942D01*
X930930Y223012D01*
X930809Y223084D01*
X930690Y223160D01*
X930574Y223240D01*
X930460Y223323D01*
X930348Y223408D01*
X930239Y223497D01*
X930132Y223589D01*
X930028Y223684D01*
X929927Y223782D01*
X929828Y223883D01*
X929733Y223986D01*
X929640Y224092D01*
X929550Y224201D01*
X929464Y224312D01*
X929380Y224425D01*
X929300Y224541D01*
X929223Y224659D01*
X929150Y224779D01*
X929079Y224902D01*
X929013Y225026D01*
X928950Y225152D01*
X928890Y225279D01*
X928834Y225408D01*
X928782Y225539D01*
X928733Y225671D01*
X928688Y225805D01*
X928647Y225940D01*
X928610Y226076D01*
X928576Y226212D01*
X928547Y226350D01*
X928521Y226489D01*
X928500Y226628D01*
X928482Y226768D01*
X928468Y226908D01*
X928458Y227048D01*
X928452Y227189D01*
X928450Y227330D01*
X928450Y252730D02*
X928452Y252871D01*
X928458Y253012D01*
X928468Y253152D01*
X928482Y253292D01*
X928500Y253432D01*
X928521Y253571D01*
X928547Y253710D01*
X928576Y253848D01*
X928610Y253984D01*
X928647Y254120D01*
X928688Y254255D01*
X928733Y254389D01*
X928782Y254521D01*
X928834Y254652D01*
X928890Y254781D01*
X928950Y254908D01*
X929013Y255034D01*
X929079Y255158D01*
X929150Y255281D01*
X929223Y255401D01*
X929300Y255519D01*
X929380Y255635D01*
X929464Y255748D01*
X929550Y255859D01*
X929640Y255968D01*
X929733Y256074D01*
X929828Y256177D01*
X929927Y256278D01*
X930028Y256376D01*
X930132Y256471D01*
X930239Y256563D01*
X930348Y256652D01*
X930460Y256737D01*
X930574Y256820D01*
X930690Y256900D01*
X930809Y256976D01*
X930930Y257048D01*
X931052Y257118D01*
X931177Y257183D01*
X931303Y257246D01*
X931431Y257304D01*
X931561Y257359D01*
X931692Y257411D01*
X931825Y257458D01*
X931959Y257502D01*
X932094Y257543D01*
X932230Y257579D01*
X932367Y257611D01*
X932505Y257640D01*
X932643Y257665D01*
X932783Y257685D01*
X932923Y257702D01*
X933063Y257715D01*
X933204Y257724D01*
X933344Y257729D01*
X933485Y257730D01*
X933626Y257727D01*
X933767Y257720D01*
X933907Y257709D01*
X934047Y257694D01*
X934187Y257675D01*
X934326Y257653D01*
X934464Y257626D01*
X934602Y257596D01*
X934738Y257561D01*
X934874Y257523D01*
X935008Y257481D01*
X935142Y257435D01*
X935274Y257386D01*
X935404Y257332D01*
X935533Y257275D01*
X935660Y257215D01*
X935786Y257151D01*
X935909Y257083D01*
X936031Y257012D01*
X936151Y256938D01*
X936268Y256860D01*
X936383Y256779D01*
X936496Y256695D01*
X936607Y256608D01*
X936715Y256517D01*
X936820Y256424D01*
X936923Y256327D01*
X937023Y256228D01*
X937120Y256126D01*
X937214Y256021D01*
X937305Y255914D01*
X937393Y255804D01*
X937478Y255692D01*
X937560Y255577D01*
X937639Y255460D01*
X937714Y255341D01*
X937786Y255220D01*
X937854Y255097D01*
X937919Y254972D01*
X937981Y254845D01*
X938038Y254716D01*
X938093Y254586D01*
X938143Y254455D01*
X938190Y254322D01*
X938233Y254188D01*
X938272Y254052D01*
X938307Y253916D01*
X938339Y253779D01*
X938366Y253641D01*
X938390Y253502D01*
X938410Y253362D01*
X938426Y253222D01*
X938438Y253082D01*
X938446Y252941D01*
X938450Y252800D01*
X938450Y252660D01*
X938446Y252519D01*
X938438Y252378D01*
X938426Y252238D01*
X938410Y252098D01*
X938390Y251958D01*
X938366Y251819D01*
X938339Y251681D01*
X938307Y251544D01*
X938272Y251408D01*
X938233Y251272D01*
X938190Y251138D01*
X938143Y251005D01*
X938093Y250874D01*
X938038Y250744D01*
X937981Y250615D01*
X937919Y250488D01*
X937854Y250363D01*
X937786Y250240D01*
X937714Y250119D01*
X937639Y250000D01*
X937560Y249883D01*
X937478Y249768D01*
X937393Y249656D01*
X937305Y249546D01*
X937214Y249439D01*
X937120Y249334D01*
X937023Y249232D01*
X936923Y249133D01*
X936820Y249036D01*
X936715Y248943D01*
X936607Y248852D01*
X936496Y248765D01*
X936383Y248681D01*
X936268Y248600D01*
X936151Y248522D01*
X936031Y248448D01*
X935909Y248377D01*
X935786Y248309D01*
X935660Y248245D01*
X935533Y248185D01*
X935404Y248128D01*
X935274Y248074D01*
X935142Y248025D01*
X935008Y247979D01*
X934874Y247937D01*
X934738Y247899D01*
X934602Y247864D01*
X934464Y247834D01*
X934326Y247807D01*
X934187Y247785D01*
X934047Y247766D01*
X933907Y247751D01*
X933767Y247740D01*
X933626Y247733D01*
X933485Y247730D01*
X933344Y247731D01*
X933204Y247736D01*
X933063Y247745D01*
X932923Y247758D01*
X932783Y247775D01*
X932643Y247795D01*
X932505Y247820D01*
X932367Y247849D01*
X932230Y247881D01*
X932094Y247917D01*
X931959Y247958D01*
X931825Y248002D01*
X931692Y248049D01*
X931561Y248101D01*
X931431Y248156D01*
X931303Y248214D01*
X931177Y248277D01*
X931052Y248342D01*
X930930Y248412D01*
X930809Y248484D01*
X930690Y248560D01*
X930574Y248640D01*
X930460Y248723D01*
X930348Y248808D01*
X930239Y248897D01*
X930132Y248989D01*
X930028Y249084D01*
X929927Y249182D01*
X929828Y249283D01*
X929733Y249386D01*
X929640Y249492D01*
X929550Y249601D01*
X929464Y249712D01*
X929380Y249825D01*
X929300Y249941D01*
X929223Y250059D01*
X929150Y250179D01*
X929079Y250302D01*
X929013Y250426D01*
X928950Y250552D01*
X928890Y250679D01*
X928834Y250808D01*
X928782Y250939D01*
X928733Y251071D01*
X928688Y251205D01*
X928647Y251340D01*
X928610Y251476D01*
X928576Y251612D01*
X928547Y251750D01*
X928521Y251889D01*
X928500Y252028D01*
X928482Y252168D01*
X928468Y252308D01*
X928458Y252448D01*
X928452Y252589D01*
X928450Y252730D01*
X979250Y252730D02*
X979252Y252871D01*
X979258Y253012D01*
X979268Y253152D01*
X979282Y253292D01*
X979300Y253432D01*
X979321Y253571D01*
X979347Y253710D01*
X979376Y253848D01*
X979410Y253984D01*
X979447Y254120D01*
X979488Y254255D01*
X979533Y254389D01*
X979582Y254521D01*
X979634Y254652D01*
X979690Y254781D01*
X979750Y254908D01*
X979813Y255034D01*
X979879Y255158D01*
X979950Y255281D01*
X980023Y255401D01*
X980100Y255519D01*
X980180Y255635D01*
X980264Y255748D01*
X980350Y255859D01*
X980440Y255968D01*
X980533Y256074D01*
X980628Y256177D01*
X980727Y256278D01*
X980828Y256376D01*
X980932Y256471D01*
X981039Y256563D01*
X981148Y256652D01*
X981260Y256737D01*
X981374Y256820D01*
X981490Y256900D01*
X981609Y256976D01*
X981730Y257048D01*
X981852Y257118D01*
X981977Y257183D01*
X982103Y257246D01*
X982231Y257304D01*
X982361Y257359D01*
X982492Y257411D01*
X982625Y257458D01*
X982759Y257502D01*
X982894Y257543D01*
X983030Y257579D01*
X983167Y257611D01*
X983305Y257640D01*
X983443Y257665D01*
X983583Y257685D01*
X983723Y257702D01*
X983863Y257715D01*
X984004Y257724D01*
X984144Y257729D01*
X984285Y257730D01*
X984426Y257727D01*
X984567Y257720D01*
X984707Y257709D01*
X984847Y257694D01*
X984987Y257675D01*
X985126Y257653D01*
X985264Y257626D01*
X985402Y257596D01*
X985538Y257561D01*
X985674Y257523D01*
X985808Y257481D01*
X985942Y257435D01*
X986074Y257386D01*
X986204Y257332D01*
X986333Y257275D01*
X986460Y257215D01*
X986586Y257151D01*
X986709Y257083D01*
X986831Y257012D01*
X986951Y256938D01*
X987068Y256860D01*
X987183Y256779D01*
X987296Y256695D01*
X987407Y256608D01*
X987515Y256517D01*
X987620Y256424D01*
X987723Y256327D01*
X987823Y256228D01*
X987920Y256126D01*
X988014Y256021D01*
X988105Y255914D01*
X988193Y255804D01*
X988278Y255692D01*
X988360Y255577D01*
X988439Y255460D01*
X988514Y255341D01*
X988586Y255220D01*
X988654Y255097D01*
X988719Y254972D01*
X988781Y254845D01*
X988838Y254716D01*
X988893Y254586D01*
X988943Y254455D01*
X988990Y254322D01*
X989033Y254188D01*
X989072Y254052D01*
X989107Y253916D01*
X989139Y253779D01*
X989166Y253641D01*
X989190Y253502D01*
X989210Y253362D01*
X989226Y253222D01*
X989238Y253082D01*
X989246Y252941D01*
X989250Y252800D01*
X989250Y252660D01*
X989246Y252519D01*
X989238Y252378D01*
X989226Y252238D01*
X989210Y252098D01*
X989190Y251958D01*
X989166Y251819D01*
X989139Y251681D01*
X989107Y251544D01*
X989072Y251408D01*
X989033Y251272D01*
X988990Y251138D01*
X988943Y251005D01*
X988893Y250874D01*
X988838Y250744D01*
X988781Y250615D01*
X988719Y250488D01*
X988654Y250363D01*
X988586Y250240D01*
X988514Y250119D01*
X988439Y250000D01*
X988360Y249883D01*
X988278Y249768D01*
X988193Y249656D01*
X988105Y249546D01*
X988014Y249439D01*
X987920Y249334D01*
X987823Y249232D01*
X987723Y249133D01*
X987620Y249036D01*
X987515Y248943D01*
X987407Y248852D01*
X987296Y248765D01*
X987183Y248681D01*
X987068Y248600D01*
X986951Y248522D01*
X986831Y248448D01*
X986709Y248377D01*
X986586Y248309D01*
X986460Y248245D01*
X986333Y248185D01*
X986204Y248128D01*
X986074Y248074D01*
X985942Y248025D01*
X985808Y247979D01*
X985674Y247937D01*
X985538Y247899D01*
X985402Y247864D01*
X985264Y247834D01*
X985126Y247807D01*
X984987Y247785D01*
X984847Y247766D01*
X984707Y247751D01*
X984567Y247740D01*
X984426Y247733D01*
X984285Y247730D01*
X984144Y247731D01*
X984004Y247736D01*
X983863Y247745D01*
X983723Y247758D01*
X983583Y247775D01*
X983443Y247795D01*
X983305Y247820D01*
X983167Y247849D01*
X983030Y247881D01*
X982894Y247917D01*
X982759Y247958D01*
X982625Y248002D01*
X982492Y248049D01*
X982361Y248101D01*
X982231Y248156D01*
X982103Y248214D01*
X981977Y248277D01*
X981852Y248342D01*
X981730Y248412D01*
X981609Y248484D01*
X981490Y248560D01*
X981374Y248640D01*
X981260Y248723D01*
X981148Y248808D01*
X981039Y248897D01*
X980932Y248989D01*
X980828Y249084D01*
X980727Y249182D01*
X980628Y249283D01*
X980533Y249386D01*
X980440Y249492D01*
X980350Y249601D01*
X980264Y249712D01*
X980180Y249825D01*
X980100Y249941D01*
X980023Y250059D01*
X979950Y250179D01*
X979879Y250302D01*
X979813Y250426D01*
X979750Y250552D01*
X979690Y250679D01*
X979634Y250808D01*
X979582Y250939D01*
X979533Y251071D01*
X979488Y251205D01*
X979447Y251340D01*
X979410Y251476D01*
X979376Y251612D01*
X979347Y251750D01*
X979321Y251889D01*
X979300Y252028D01*
X979282Y252168D01*
X979268Y252308D01*
X979258Y252448D01*
X979252Y252589D01*
X979250Y252730D01*
X332820Y69850D02*
X332822Y69991D01*
X332828Y70132D01*
X332838Y70272D01*
X332852Y70412D01*
X332870Y70552D01*
X332891Y70691D01*
X332917Y70830D01*
X332946Y70968D01*
X332980Y71104D01*
X333017Y71240D01*
X333058Y71375D01*
X333103Y71509D01*
X333152Y71641D01*
X333204Y71772D01*
X333260Y71901D01*
X333320Y72028D01*
X333383Y72154D01*
X333449Y72278D01*
X333520Y72401D01*
X333593Y72521D01*
X333670Y72639D01*
X333750Y72755D01*
X333834Y72868D01*
X333920Y72979D01*
X334010Y73088D01*
X334103Y73194D01*
X334198Y73297D01*
X334297Y73398D01*
X334398Y73496D01*
X334502Y73591D01*
X334609Y73683D01*
X334718Y73772D01*
X334830Y73857D01*
X334944Y73940D01*
X335060Y74020D01*
X335179Y74096D01*
X335300Y74168D01*
X335422Y74238D01*
X335547Y74303D01*
X335673Y74366D01*
X335801Y74424D01*
X335931Y74479D01*
X336062Y74531D01*
X336195Y74578D01*
X336329Y74622D01*
X336464Y74663D01*
X336600Y74699D01*
X336737Y74731D01*
X336875Y74760D01*
X337013Y74785D01*
X337153Y74805D01*
X337293Y74822D01*
X337433Y74835D01*
X337574Y74844D01*
X337714Y74849D01*
X337855Y74850D01*
X337996Y74847D01*
X338137Y74840D01*
X338277Y74829D01*
X338417Y74814D01*
X338557Y74795D01*
X338696Y74773D01*
X338834Y74746D01*
X338972Y74716D01*
X339108Y74681D01*
X339244Y74643D01*
X339378Y74601D01*
X339512Y74555D01*
X339644Y74506D01*
X339774Y74452D01*
X339903Y74395D01*
X340030Y74335D01*
X340156Y74271D01*
X340279Y74203D01*
X340401Y74132D01*
X340521Y74058D01*
X340638Y73980D01*
X340753Y73899D01*
X340866Y73815D01*
X340977Y73728D01*
X341085Y73637D01*
X341190Y73544D01*
X341293Y73447D01*
X341393Y73348D01*
X341490Y73246D01*
X341584Y73141D01*
X341675Y73034D01*
X341763Y72924D01*
X341848Y72812D01*
X341930Y72697D01*
X342009Y72580D01*
X342084Y72461D01*
X342156Y72340D01*
X342224Y72217D01*
X342289Y72092D01*
X342351Y71965D01*
X342408Y71836D01*
X342463Y71706D01*
X342513Y71575D01*
X342560Y71442D01*
X342603Y71308D01*
X342642Y71172D01*
X342677Y71036D01*
X342709Y70899D01*
X342736Y70761D01*
X342760Y70622D01*
X342780Y70482D01*
X342796Y70342D01*
X342808Y70202D01*
X342816Y70061D01*
X342820Y69920D01*
X342820Y69780D01*
X342816Y69639D01*
X342808Y69498D01*
X342796Y69358D01*
X342780Y69218D01*
X342760Y69078D01*
X342736Y68939D01*
X342709Y68801D01*
X342677Y68664D01*
X342642Y68528D01*
X342603Y68392D01*
X342560Y68258D01*
X342513Y68125D01*
X342463Y67994D01*
X342408Y67864D01*
X342351Y67735D01*
X342289Y67608D01*
X342224Y67483D01*
X342156Y67360D01*
X342084Y67239D01*
X342009Y67120D01*
X341930Y67003D01*
X341848Y66888D01*
X341763Y66776D01*
X341675Y66666D01*
X341584Y66559D01*
X341490Y66454D01*
X341393Y66352D01*
X341293Y66253D01*
X341190Y66156D01*
X341085Y66063D01*
X340977Y65972D01*
X340866Y65885D01*
X340753Y65801D01*
X340638Y65720D01*
X340521Y65642D01*
X340401Y65568D01*
X340279Y65497D01*
X340156Y65429D01*
X340030Y65365D01*
X339903Y65305D01*
X339774Y65248D01*
X339644Y65194D01*
X339512Y65145D01*
X339378Y65099D01*
X339244Y65057D01*
X339108Y65019D01*
X338972Y64984D01*
X338834Y64954D01*
X338696Y64927D01*
X338557Y64905D01*
X338417Y64886D01*
X338277Y64871D01*
X338137Y64860D01*
X337996Y64853D01*
X337855Y64850D01*
X337714Y64851D01*
X337574Y64856D01*
X337433Y64865D01*
X337293Y64878D01*
X337153Y64895D01*
X337013Y64915D01*
X336875Y64940D01*
X336737Y64969D01*
X336600Y65001D01*
X336464Y65037D01*
X336329Y65078D01*
X336195Y65122D01*
X336062Y65169D01*
X335931Y65221D01*
X335801Y65276D01*
X335673Y65334D01*
X335547Y65397D01*
X335422Y65462D01*
X335300Y65532D01*
X335179Y65604D01*
X335060Y65680D01*
X334944Y65760D01*
X334830Y65843D01*
X334718Y65928D01*
X334609Y66017D01*
X334502Y66109D01*
X334398Y66204D01*
X334297Y66302D01*
X334198Y66403D01*
X334103Y66506D01*
X334010Y66612D01*
X333920Y66721D01*
X333834Y66832D01*
X333750Y66945D01*
X333670Y67061D01*
X333593Y67179D01*
X333520Y67299D01*
X333449Y67422D01*
X333383Y67546D01*
X333320Y67672D01*
X333260Y67799D01*
X333204Y67928D01*
X333152Y68059D01*
X333103Y68191D01*
X333058Y68325D01*
X333017Y68460D01*
X332980Y68596D01*
X332946Y68732D01*
X332917Y68870D01*
X332891Y69009D01*
X332870Y69148D01*
X332852Y69288D01*
X332838Y69428D01*
X332828Y69568D01*
X332822Y69709D01*
X332820Y69850D01*
X358220Y69850D02*
X358222Y69991D01*
X358228Y70132D01*
X358238Y70272D01*
X358252Y70412D01*
X358270Y70552D01*
X358291Y70691D01*
X358317Y70830D01*
X358346Y70968D01*
X358380Y71104D01*
X358417Y71240D01*
X358458Y71375D01*
X358503Y71509D01*
X358552Y71641D01*
X358604Y71772D01*
X358660Y71901D01*
X358720Y72028D01*
X358783Y72154D01*
X358849Y72278D01*
X358920Y72401D01*
X358993Y72521D01*
X359070Y72639D01*
X359150Y72755D01*
X359234Y72868D01*
X359320Y72979D01*
X359410Y73088D01*
X359503Y73194D01*
X359598Y73297D01*
X359697Y73398D01*
X359798Y73496D01*
X359902Y73591D01*
X360009Y73683D01*
X360118Y73772D01*
X360230Y73857D01*
X360344Y73940D01*
X360460Y74020D01*
X360579Y74096D01*
X360700Y74168D01*
X360822Y74238D01*
X360947Y74303D01*
X361073Y74366D01*
X361201Y74424D01*
X361331Y74479D01*
X361462Y74531D01*
X361595Y74578D01*
X361729Y74622D01*
X361864Y74663D01*
X362000Y74699D01*
X362137Y74731D01*
X362275Y74760D01*
X362413Y74785D01*
X362553Y74805D01*
X362693Y74822D01*
X362833Y74835D01*
X362974Y74844D01*
X363114Y74849D01*
X363255Y74850D01*
X363396Y74847D01*
X363537Y74840D01*
X363677Y74829D01*
X363817Y74814D01*
X363957Y74795D01*
X364096Y74773D01*
X364234Y74746D01*
X364372Y74716D01*
X364508Y74681D01*
X364644Y74643D01*
X364778Y74601D01*
X364912Y74555D01*
X365044Y74506D01*
X365174Y74452D01*
X365303Y74395D01*
X365430Y74335D01*
X365556Y74271D01*
X365679Y74203D01*
X365801Y74132D01*
X365921Y74058D01*
X366038Y73980D01*
X366153Y73899D01*
X366266Y73815D01*
X366377Y73728D01*
X366485Y73637D01*
X366590Y73544D01*
X366693Y73447D01*
X366793Y73348D01*
X366890Y73246D01*
X366984Y73141D01*
X367075Y73034D01*
X367163Y72924D01*
X367248Y72812D01*
X367330Y72697D01*
X367409Y72580D01*
X367484Y72461D01*
X367556Y72340D01*
X367624Y72217D01*
X367689Y72092D01*
X367751Y71965D01*
X367808Y71836D01*
X367863Y71706D01*
X367913Y71575D01*
X367960Y71442D01*
X368003Y71308D01*
X368042Y71172D01*
X368077Y71036D01*
X368109Y70899D01*
X368136Y70761D01*
X368160Y70622D01*
X368180Y70482D01*
X368196Y70342D01*
X368208Y70202D01*
X368216Y70061D01*
X368220Y69920D01*
X368220Y69780D01*
X368216Y69639D01*
X368208Y69498D01*
X368196Y69358D01*
X368180Y69218D01*
X368160Y69078D01*
X368136Y68939D01*
X368109Y68801D01*
X368077Y68664D01*
X368042Y68528D01*
X368003Y68392D01*
X367960Y68258D01*
X367913Y68125D01*
X367863Y67994D01*
X367808Y67864D01*
X367751Y67735D01*
X367689Y67608D01*
X367624Y67483D01*
X367556Y67360D01*
X367484Y67239D01*
X367409Y67120D01*
X367330Y67003D01*
X367248Y66888D01*
X367163Y66776D01*
X367075Y66666D01*
X366984Y66559D01*
X366890Y66454D01*
X366793Y66352D01*
X366693Y66253D01*
X366590Y66156D01*
X366485Y66063D01*
X366377Y65972D01*
X366266Y65885D01*
X366153Y65801D01*
X366038Y65720D01*
X365921Y65642D01*
X365801Y65568D01*
X365679Y65497D01*
X365556Y65429D01*
X365430Y65365D01*
X365303Y65305D01*
X365174Y65248D01*
X365044Y65194D01*
X364912Y65145D01*
X364778Y65099D01*
X364644Y65057D01*
X364508Y65019D01*
X364372Y64984D01*
X364234Y64954D01*
X364096Y64927D01*
X363957Y64905D01*
X363817Y64886D01*
X363677Y64871D01*
X363537Y64860D01*
X363396Y64853D01*
X363255Y64850D01*
X363114Y64851D01*
X362974Y64856D01*
X362833Y64865D01*
X362693Y64878D01*
X362553Y64895D01*
X362413Y64915D01*
X362275Y64940D01*
X362137Y64969D01*
X362000Y65001D01*
X361864Y65037D01*
X361729Y65078D01*
X361595Y65122D01*
X361462Y65169D01*
X361331Y65221D01*
X361201Y65276D01*
X361073Y65334D01*
X360947Y65397D01*
X360822Y65462D01*
X360700Y65532D01*
X360579Y65604D01*
X360460Y65680D01*
X360344Y65760D01*
X360230Y65843D01*
X360118Y65928D01*
X360009Y66017D01*
X359902Y66109D01*
X359798Y66204D01*
X359697Y66302D01*
X359598Y66403D01*
X359503Y66506D01*
X359410Y66612D01*
X359320Y66721D01*
X359234Y66832D01*
X359150Y66945D01*
X359070Y67061D01*
X358993Y67179D01*
X358920Y67299D01*
X358849Y67422D01*
X358783Y67546D01*
X358720Y67672D01*
X358660Y67799D01*
X358604Y67928D01*
X358552Y68059D01*
X358503Y68191D01*
X358458Y68325D01*
X358417Y68460D01*
X358380Y68596D01*
X358346Y68732D01*
X358317Y68870D01*
X358291Y69009D01*
X358270Y69148D01*
X358252Y69288D01*
X358238Y69428D01*
X358228Y69568D01*
X358222Y69709D01*
X358220Y69850D01*
X358220Y44450D02*
X358222Y44591D01*
X358228Y44732D01*
X358238Y44872D01*
X358252Y45012D01*
X358270Y45152D01*
X358291Y45291D01*
X358317Y45430D01*
X358346Y45568D01*
X358380Y45704D01*
X358417Y45840D01*
X358458Y45975D01*
X358503Y46109D01*
X358552Y46241D01*
X358604Y46372D01*
X358660Y46501D01*
X358720Y46628D01*
X358783Y46754D01*
X358849Y46878D01*
X358920Y47001D01*
X358993Y47121D01*
X359070Y47239D01*
X359150Y47355D01*
X359234Y47468D01*
X359320Y47579D01*
X359410Y47688D01*
X359503Y47794D01*
X359598Y47897D01*
X359697Y47998D01*
X359798Y48096D01*
X359902Y48191D01*
X360009Y48283D01*
X360118Y48372D01*
X360230Y48457D01*
X360344Y48540D01*
X360460Y48620D01*
X360579Y48696D01*
X360700Y48768D01*
X360822Y48838D01*
X360947Y48903D01*
X361073Y48966D01*
X361201Y49024D01*
X361331Y49079D01*
X361462Y49131D01*
X361595Y49178D01*
X361729Y49222D01*
X361864Y49263D01*
X362000Y49299D01*
X362137Y49331D01*
X362275Y49360D01*
X362413Y49385D01*
X362553Y49405D01*
X362693Y49422D01*
X362833Y49435D01*
X362974Y49444D01*
X363114Y49449D01*
X363255Y49450D01*
X363396Y49447D01*
X363537Y49440D01*
X363677Y49429D01*
X363817Y49414D01*
X363957Y49395D01*
X364096Y49373D01*
X364234Y49346D01*
X364372Y49316D01*
X364508Y49281D01*
X364644Y49243D01*
X364778Y49201D01*
X364912Y49155D01*
X365044Y49106D01*
X365174Y49052D01*
X365303Y48995D01*
X365430Y48935D01*
X365556Y48871D01*
X365679Y48803D01*
X365801Y48732D01*
X365921Y48658D01*
X366038Y48580D01*
X366153Y48499D01*
X366266Y48415D01*
X366377Y48328D01*
X366485Y48237D01*
X366590Y48144D01*
X366693Y48047D01*
X366793Y47948D01*
X366890Y47846D01*
X366984Y47741D01*
X367075Y47634D01*
X367163Y47524D01*
X367248Y47412D01*
X367330Y47297D01*
X367409Y47180D01*
X367484Y47061D01*
X367556Y46940D01*
X367624Y46817D01*
X367689Y46692D01*
X367751Y46565D01*
X367808Y46436D01*
X367863Y46306D01*
X367913Y46175D01*
X367960Y46042D01*
X368003Y45908D01*
X368042Y45772D01*
X368077Y45636D01*
X368109Y45499D01*
X368136Y45361D01*
X368160Y45222D01*
X368180Y45082D01*
X368196Y44942D01*
X368208Y44802D01*
X368216Y44661D01*
X368220Y44520D01*
X368220Y44380D01*
X368216Y44239D01*
X368208Y44098D01*
X368196Y43958D01*
X368180Y43818D01*
X368160Y43678D01*
X368136Y43539D01*
X368109Y43401D01*
X368077Y43264D01*
X368042Y43128D01*
X368003Y42992D01*
X367960Y42858D01*
X367913Y42725D01*
X367863Y42594D01*
X367808Y42464D01*
X367751Y42335D01*
X367689Y42208D01*
X367624Y42083D01*
X367556Y41960D01*
X367484Y41839D01*
X367409Y41720D01*
X367330Y41603D01*
X367248Y41488D01*
X367163Y41376D01*
X367075Y41266D01*
X366984Y41159D01*
X366890Y41054D01*
X366793Y40952D01*
X366693Y40853D01*
X366590Y40756D01*
X366485Y40663D01*
X366377Y40572D01*
X366266Y40485D01*
X366153Y40401D01*
X366038Y40320D01*
X365921Y40242D01*
X365801Y40168D01*
X365679Y40097D01*
X365556Y40029D01*
X365430Y39965D01*
X365303Y39905D01*
X365174Y39848D01*
X365044Y39794D01*
X364912Y39745D01*
X364778Y39699D01*
X364644Y39657D01*
X364508Y39619D01*
X364372Y39584D01*
X364234Y39554D01*
X364096Y39527D01*
X363957Y39505D01*
X363817Y39486D01*
X363677Y39471D01*
X363537Y39460D01*
X363396Y39453D01*
X363255Y39450D01*
X363114Y39451D01*
X362974Y39456D01*
X362833Y39465D01*
X362693Y39478D01*
X362553Y39495D01*
X362413Y39515D01*
X362275Y39540D01*
X362137Y39569D01*
X362000Y39601D01*
X361864Y39637D01*
X361729Y39678D01*
X361595Y39722D01*
X361462Y39769D01*
X361331Y39821D01*
X361201Y39876D01*
X361073Y39934D01*
X360947Y39997D01*
X360822Y40062D01*
X360700Y40132D01*
X360579Y40204D01*
X360460Y40280D01*
X360344Y40360D01*
X360230Y40443D01*
X360118Y40528D01*
X360009Y40617D01*
X359902Y40709D01*
X359798Y40804D01*
X359697Y40902D01*
X359598Y41003D01*
X359503Y41106D01*
X359410Y41212D01*
X359320Y41321D01*
X359234Y41432D01*
X359150Y41545D01*
X359070Y41661D01*
X358993Y41779D01*
X358920Y41899D01*
X358849Y42022D01*
X358783Y42146D01*
X358720Y42272D01*
X358660Y42399D01*
X358604Y42528D01*
X358552Y42659D01*
X358503Y42791D01*
X358458Y42925D01*
X358417Y43060D01*
X358380Y43196D01*
X358346Y43332D01*
X358317Y43470D01*
X358291Y43609D01*
X358270Y43748D01*
X358252Y43888D01*
X358238Y44028D01*
X358228Y44168D01*
X358222Y44309D01*
X358220Y44450D01*
X307420Y44450D02*
X307422Y44591D01*
X307428Y44732D01*
X307438Y44872D01*
X307452Y45012D01*
X307470Y45152D01*
X307491Y45291D01*
X307517Y45430D01*
X307546Y45568D01*
X307580Y45704D01*
X307617Y45840D01*
X307658Y45975D01*
X307703Y46109D01*
X307752Y46241D01*
X307804Y46372D01*
X307860Y46501D01*
X307920Y46628D01*
X307983Y46754D01*
X308049Y46878D01*
X308120Y47001D01*
X308193Y47121D01*
X308270Y47239D01*
X308350Y47355D01*
X308434Y47468D01*
X308520Y47579D01*
X308610Y47688D01*
X308703Y47794D01*
X308798Y47897D01*
X308897Y47998D01*
X308998Y48096D01*
X309102Y48191D01*
X309209Y48283D01*
X309318Y48372D01*
X309430Y48457D01*
X309544Y48540D01*
X309660Y48620D01*
X309779Y48696D01*
X309900Y48768D01*
X310022Y48838D01*
X310147Y48903D01*
X310273Y48966D01*
X310401Y49024D01*
X310531Y49079D01*
X310662Y49131D01*
X310795Y49178D01*
X310929Y49222D01*
X311064Y49263D01*
X311200Y49299D01*
X311337Y49331D01*
X311475Y49360D01*
X311613Y49385D01*
X311753Y49405D01*
X311893Y49422D01*
X312033Y49435D01*
X312174Y49444D01*
X312314Y49449D01*
X312455Y49450D01*
X312596Y49447D01*
X312737Y49440D01*
X312877Y49429D01*
X313017Y49414D01*
X313157Y49395D01*
X313296Y49373D01*
X313434Y49346D01*
X313572Y49316D01*
X313708Y49281D01*
X313844Y49243D01*
X313978Y49201D01*
X314112Y49155D01*
X314244Y49106D01*
X314374Y49052D01*
X314503Y48995D01*
X314630Y48935D01*
X314756Y48871D01*
X314879Y48803D01*
X315001Y48732D01*
X315121Y48658D01*
X315238Y48580D01*
X315353Y48499D01*
X315466Y48415D01*
X315577Y48328D01*
X315685Y48237D01*
X315790Y48144D01*
X315893Y48047D01*
X315993Y47948D01*
X316090Y47846D01*
X316184Y47741D01*
X316275Y47634D01*
X316363Y47524D01*
X316448Y47412D01*
X316530Y47297D01*
X316609Y47180D01*
X316684Y47061D01*
X316756Y46940D01*
X316824Y46817D01*
X316889Y46692D01*
X316951Y46565D01*
X317008Y46436D01*
X317063Y46306D01*
X317113Y46175D01*
X317160Y46042D01*
X317203Y45908D01*
X317242Y45772D01*
X317277Y45636D01*
X317309Y45499D01*
X317336Y45361D01*
X317360Y45222D01*
X317380Y45082D01*
X317396Y44942D01*
X317408Y44802D01*
X317416Y44661D01*
X317420Y44520D01*
X317420Y44380D01*
X317416Y44239D01*
X317408Y44098D01*
X317396Y43958D01*
X317380Y43818D01*
X317360Y43678D01*
X317336Y43539D01*
X317309Y43401D01*
X317277Y43264D01*
X317242Y43128D01*
X317203Y42992D01*
X317160Y42858D01*
X317113Y42725D01*
X317063Y42594D01*
X317008Y42464D01*
X316951Y42335D01*
X316889Y42208D01*
X316824Y42083D01*
X316756Y41960D01*
X316684Y41839D01*
X316609Y41720D01*
X316530Y41603D01*
X316448Y41488D01*
X316363Y41376D01*
X316275Y41266D01*
X316184Y41159D01*
X316090Y41054D01*
X315993Y40952D01*
X315893Y40853D01*
X315790Y40756D01*
X315685Y40663D01*
X315577Y40572D01*
X315466Y40485D01*
X315353Y40401D01*
X315238Y40320D01*
X315121Y40242D01*
X315001Y40168D01*
X314879Y40097D01*
X314756Y40029D01*
X314630Y39965D01*
X314503Y39905D01*
X314374Y39848D01*
X314244Y39794D01*
X314112Y39745D01*
X313978Y39699D01*
X313844Y39657D01*
X313708Y39619D01*
X313572Y39584D01*
X313434Y39554D01*
X313296Y39527D01*
X313157Y39505D01*
X313017Y39486D01*
X312877Y39471D01*
X312737Y39460D01*
X312596Y39453D01*
X312455Y39450D01*
X312314Y39451D01*
X312174Y39456D01*
X312033Y39465D01*
X311893Y39478D01*
X311753Y39495D01*
X311613Y39515D01*
X311475Y39540D01*
X311337Y39569D01*
X311200Y39601D01*
X311064Y39637D01*
X310929Y39678D01*
X310795Y39722D01*
X310662Y39769D01*
X310531Y39821D01*
X310401Y39876D01*
X310273Y39934D01*
X310147Y39997D01*
X310022Y40062D01*
X309900Y40132D01*
X309779Y40204D01*
X309660Y40280D01*
X309544Y40360D01*
X309430Y40443D01*
X309318Y40528D01*
X309209Y40617D01*
X309102Y40709D01*
X308998Y40804D01*
X308897Y40902D01*
X308798Y41003D01*
X308703Y41106D01*
X308610Y41212D01*
X308520Y41321D01*
X308434Y41432D01*
X308350Y41545D01*
X308270Y41661D01*
X308193Y41779D01*
X308120Y41899D01*
X308049Y42022D01*
X307983Y42146D01*
X307920Y42272D01*
X307860Y42399D01*
X307804Y42528D01*
X307752Y42659D01*
X307703Y42791D01*
X307658Y42925D01*
X307617Y43060D01*
X307580Y43196D01*
X307546Y43332D01*
X307517Y43470D01*
X307491Y43609D01*
X307470Y43748D01*
X307452Y43888D01*
X307438Y44028D01*
X307428Y44168D01*
X307422Y44309D01*
X307420Y44450D01*
M02*
