M48
;GenerationSoftware,Autodesk,EAGLE,9.2.2*%
;CreationDate,2018-12-07T13:05:13Z*%
FMAT,2
ICI,OFF
METRIC,TZ,000.000
T6C0.400
T5C0.500
T4C0.700
T3C1.000
T2C1.800
T1C3.200
%
G90
M71
T1
X40894Y3048
T2
X31115Y18415
T3
X13208Y3302
X10668Y5842
X10668Y3302
X8128Y5842
X8128Y3302
X15748Y3302
X5588Y5842
X13208Y5842
X5588Y3302
X15748Y5842
X31115Y15748
X31115Y21082
X33782Y18415
X28448Y18415
T4
X29527Y16764
X29527Y20003
X32766Y20003
X32702Y16764
T5
X12065Y35560
X3556Y8890
X2032Y8890
X17653Y8890
X57658Y13716
X63500Y17145
X21209Y29083
X19939Y27813
X63500Y15240
X60960Y12065
X57658Y8128
X56134Y31369
X62992Y26924
X12065Y36957
X10668Y35560
X10668Y34163
X12065Y29210
X10668Y29210
X12065Y27813
X10668Y27813
X54229Y32004
X58928Y30734
X55118Y27432
X5080Y8890
X57912Y11176
X1905Y13970
X3810Y35560
X59055Y27432
X20066Y25146
X13208Y25146
X15748Y28702
X18542Y28702
X51816Y23876
X44704Y23114
X47244Y24574
X46672Y18034
X10668Y36957
X12065Y34163
X13462Y27813
X13462Y29210
X61468Y8128
X59563Y8128
X61468Y6096
X63500Y8128
X63500Y6096
X22860Y36449
X24130Y36449
X14478Y31242
X6350Y29210
X5080Y30480
X5080Y27940
X7620Y27940
X7620Y30480
X3937Y13970
T6
X26035Y5461
X33401Y8255
X39624Y14478
X42037Y19685
X33147Y28829
X22098Y21590
X26289Y30861
X28702Y33401
X24638Y18161
X31496Y5461
X24765Y30099
X23749Y23495
X20447Y20193
X21717Y9779
X24638Y6858
X35179Y4445
X37846Y12700
X34798Y9652
X42672Y12573
X36449Y25654
X40640Y21336
X8509Y18542
X12446Y14478
X14224Y10541
X40640Y29972
X23368Y28702
X32546Y30099
X28448Y4064
X34290Y33020
X35306Y26670
X42037Y26416
X22352Y27686
X21844Y14478
X27178Y27178
X19304Y19558
X37211Y29464
X30988Y33782
X22606Y34671
X20066Y29591
X55372Y2286
X33655Y26035
X1905Y27305
X37465Y22225
X60325Y17780
X57785Y24384
X41275Y32385
X14478Y35560
X36830Y33020
X30480Y28829
X49149Y11176
X54356Y14097
X53340Y22733
X48895Y30480
X46609Y35941
X19685Y4572
X54356Y13081
X55372Y4191
X50800Y15875
X40640Y11112
X54193Y20994
X56896Y19050
X18923Y5842
X23876Y12446
X16129Y11938
X5588Y13970
X22860Y13208
X14605Y17653
X7620Y13716
X17653Y14605
X25908Y12192
X10160Y22860
X58420Y4191
X5969Y26670
X57150Y2286
X5969Y25019
X26924Y9525
X6604Y8890
X27940Y8509
X14732Y12192
X39370Y22479
X36703Y17272
X47371Y9906
X23495Y8255
X24765Y889
X37465Y36195
X13462Y16637
X29591Y3302
X19939Y2032
X56515Y17780
M30