G04 EAGLE Gerber RS-274X export*
G75*
%MOMM*%
%FSLAX34Y34*%
%LPD*%
%INl15 Kupfer*%
%IPPOS*%
%AMOC8*
5,1,8,0,0,1.08239X$1,22.5*%
G01*
%ADD10C,0.000000*%
%ADD11C,0.203200*%
%ADD12C,1.508000*%
%ADD13C,0.704800*%
%ADD14C,0.804800*%
%ADD15C,0.812800*%
%ADD16C,0.406400*%
%ADD17C,0.304800*%
%ADD18C,0.381000*%
%ADD19C,0.254000*%
%ADD20C,4.216000*%
%ADD21C,1.500000*%
%ADD22C,2.700000*%
%ADD23C,1.050000*%

G36*
X243148Y2012D02*
X243148Y2012D01*
X243249Y2014D01*
X243321Y2032D01*
X243395Y2041D01*
X243489Y2074D01*
X243587Y2099D01*
X243653Y2133D01*
X243723Y2158D01*
X243807Y2213D01*
X243897Y2259D01*
X243953Y2307D01*
X244016Y2347D01*
X244086Y2419D01*
X244162Y2484D01*
X244206Y2544D01*
X244258Y2598D01*
X244310Y2684D01*
X244369Y2765D01*
X244399Y2833D01*
X244437Y2897D01*
X244467Y2993D01*
X244507Y3085D01*
X244520Y3158D01*
X244543Y3229D01*
X244551Y3329D01*
X244569Y3428D01*
X244565Y3502D01*
X244571Y3576D01*
X244556Y3676D01*
X244551Y3776D01*
X244530Y3847D01*
X244519Y3921D01*
X244482Y4014D01*
X244454Y4111D01*
X244418Y4176D01*
X244391Y4245D01*
X244333Y4327D01*
X244284Y4415D01*
X244219Y4491D01*
X244192Y4531D01*
X244165Y4555D01*
X244126Y4601D01*
X242966Y5761D01*
X242125Y7791D01*
X242125Y9989D01*
X242966Y12020D01*
X244520Y13574D01*
X246551Y14415D01*
X248749Y14415D01*
X249023Y14301D01*
X250780Y13574D01*
X252334Y12020D01*
X253175Y9989D01*
X253175Y7791D01*
X252334Y5761D01*
X251174Y4601D01*
X251112Y4522D01*
X251042Y4450D01*
X251004Y4386D01*
X250958Y4328D01*
X250915Y4237D01*
X250863Y4151D01*
X250840Y4080D01*
X250809Y4013D01*
X250788Y3915D01*
X250757Y3819D01*
X250751Y3745D01*
X250735Y3672D01*
X250737Y3572D01*
X250729Y3472D01*
X250740Y3398D01*
X250741Y3324D01*
X250766Y3227D01*
X250781Y3127D01*
X250808Y3058D01*
X250826Y2986D01*
X250872Y2897D01*
X250909Y2803D01*
X250952Y2742D01*
X250986Y2676D01*
X251051Y2600D01*
X251108Y2517D01*
X251163Y2467D01*
X251212Y2411D01*
X251292Y2351D01*
X251367Y2284D01*
X251432Y2248D01*
X251492Y2203D01*
X251584Y2164D01*
X251672Y2115D01*
X251744Y2095D01*
X251812Y2065D01*
X251911Y2048D01*
X252008Y2020D01*
X252108Y2012D01*
X252155Y2004D01*
X252191Y2006D01*
X252251Y2001D01*
X634810Y2001D01*
X634936Y2015D01*
X635062Y2022D01*
X635109Y2035D01*
X635157Y2041D01*
X635275Y2083D01*
X635397Y2118D01*
X635439Y2142D01*
X635485Y2158D01*
X635591Y2227D01*
X635701Y2288D01*
X635747Y2328D01*
X635777Y2347D01*
X635811Y2382D01*
X635887Y2447D01*
X646523Y13083D01*
X646602Y13182D01*
X646686Y13275D01*
X646710Y13318D01*
X646740Y13356D01*
X646794Y13470D01*
X646855Y13581D01*
X646868Y13627D01*
X646889Y13671D01*
X646915Y13794D01*
X646950Y13916D01*
X646955Y13977D01*
X646962Y14011D01*
X646961Y14059D01*
X646969Y14160D01*
X646969Y48292D01*
X646966Y48318D01*
X646968Y48344D01*
X646946Y48491D01*
X646929Y48638D01*
X646921Y48663D01*
X646917Y48689D01*
X646862Y48826D01*
X646812Y48966D01*
X646798Y48988D01*
X646788Y49013D01*
X646703Y49134D01*
X646623Y49259D01*
X646604Y49277D01*
X646589Y49299D01*
X646479Y49398D01*
X646372Y49501D01*
X646350Y49515D01*
X646330Y49532D01*
X646200Y49604D01*
X646073Y49680D01*
X646048Y49688D01*
X646025Y49701D01*
X645882Y49741D01*
X645741Y49786D01*
X645715Y49788D01*
X645690Y49796D01*
X645446Y49815D01*
X587210Y49815D01*
X587160Y49810D01*
X587109Y49812D01*
X586987Y49790D01*
X586863Y49775D01*
X586816Y49758D01*
X586767Y49749D01*
X586652Y49700D01*
X586535Y49658D01*
X586493Y49631D01*
X586447Y49611D01*
X586347Y49536D01*
X586243Y49469D01*
X586208Y49433D01*
X586167Y49403D01*
X586087Y49308D01*
X586000Y49218D01*
X585974Y49175D01*
X585942Y49137D01*
X585885Y49026D01*
X585822Y48919D01*
X585806Y48871D01*
X585783Y48826D01*
X585753Y48706D01*
X585715Y48587D01*
X585711Y48537D01*
X585699Y48488D01*
X585697Y48364D01*
X585687Y48240D01*
X585695Y48190D01*
X585694Y48140D01*
X585721Y48018D01*
X585739Y47895D01*
X585758Y47848D01*
X585768Y47799D01*
X585822Y47687D01*
X585868Y47571D01*
X585896Y47530D01*
X585918Y47484D01*
X585996Y47387D01*
X586067Y47285D01*
X586104Y47251D01*
X586135Y47212D01*
X586233Y47135D01*
X586325Y47052D01*
X586370Y47027D01*
X586409Y46996D01*
X586627Y46885D01*
X587330Y46594D01*
X588884Y45040D01*
X589725Y43009D01*
X589725Y40811D01*
X588884Y38780D01*
X587330Y37226D01*
X585299Y36385D01*
X583101Y36385D01*
X581070Y37226D01*
X579516Y38780D01*
X578675Y40811D01*
X578675Y43009D01*
X579516Y45040D01*
X581070Y46594D01*
X581773Y46885D01*
X581817Y46909D01*
X581865Y46926D01*
X581969Y46994D01*
X582078Y47054D01*
X582115Y47088D01*
X582157Y47115D01*
X582244Y47205D01*
X582336Y47288D01*
X582365Y47330D01*
X582400Y47366D01*
X582463Y47473D01*
X582534Y47575D01*
X582553Y47622D01*
X582578Y47665D01*
X582616Y47783D01*
X582662Y47899D01*
X582669Y47949D01*
X582685Y47997D01*
X582695Y48121D01*
X582713Y48244D01*
X582709Y48294D01*
X582713Y48344D01*
X582694Y48467D01*
X582684Y48591D01*
X582668Y48639D01*
X582661Y48689D01*
X582615Y48804D01*
X582577Y48923D01*
X582551Y48966D01*
X582532Y49013D01*
X582461Y49115D01*
X582397Y49221D01*
X582362Y49258D01*
X582333Y49299D01*
X582241Y49382D01*
X582154Y49471D01*
X582112Y49499D01*
X582075Y49532D01*
X581966Y49592D01*
X581861Y49660D01*
X581814Y49677D01*
X581770Y49701D01*
X581650Y49735D01*
X581533Y49776D01*
X581483Y49782D01*
X581434Y49796D01*
X581190Y49815D01*
X559880Y49815D01*
X550195Y59500D01*
X550195Y96969D01*
X550181Y97095D01*
X550174Y97221D01*
X550161Y97267D01*
X550155Y97315D01*
X550113Y97434D01*
X550078Y97556D01*
X550054Y97598D01*
X550038Y97643D01*
X549969Y97750D01*
X549908Y97860D01*
X549868Y97906D01*
X549849Y97936D01*
X549814Y97970D01*
X549749Y98046D01*
X547626Y100169D01*
X547527Y100248D01*
X547433Y100332D01*
X547391Y100356D01*
X547353Y100386D01*
X547239Y100440D01*
X547128Y100501D01*
X547082Y100514D01*
X547038Y100535D01*
X546915Y100561D01*
X546793Y100596D01*
X546732Y100601D01*
X546697Y100608D01*
X546649Y100607D01*
X546549Y100615D01*
X488760Y100615D01*
X481615Y107760D01*
X481615Y169100D01*
X488760Y176245D01*
X523689Y176245D01*
X523815Y176259D01*
X523941Y176266D01*
X523987Y176279D01*
X524035Y176285D01*
X524154Y176327D01*
X524276Y176362D01*
X524318Y176386D01*
X524363Y176402D01*
X524470Y176471D01*
X524580Y176532D01*
X524626Y176572D01*
X524656Y176591D01*
X524690Y176626D01*
X524766Y176691D01*
X526889Y178814D01*
X526968Y178913D01*
X527052Y179007D01*
X527076Y179049D01*
X527106Y179087D01*
X527160Y179201D01*
X527221Y179312D01*
X527234Y179358D01*
X527255Y179402D01*
X527281Y179525D01*
X527316Y179647D01*
X527321Y179708D01*
X527328Y179743D01*
X527327Y179791D01*
X527335Y179891D01*
X527335Y206189D01*
X527321Y206315D01*
X527314Y206441D01*
X527301Y206487D01*
X527295Y206535D01*
X527253Y206654D01*
X527218Y206776D01*
X527194Y206818D01*
X527178Y206863D01*
X527109Y206970D01*
X527048Y207080D01*
X527008Y207126D01*
X526989Y207156D01*
X526954Y207190D01*
X526889Y207266D01*
X479046Y255109D01*
X478947Y255188D01*
X478853Y255272D01*
X478811Y255296D01*
X478773Y255326D01*
X478659Y255380D01*
X478548Y255441D01*
X478502Y255454D01*
X478458Y255475D01*
X478335Y255501D01*
X478213Y255536D01*
X478152Y255541D01*
X478117Y255548D01*
X478069Y255547D01*
X477969Y255555D01*
X460820Y255555D01*
X453675Y262700D01*
X453675Y317949D01*
X453661Y318075D01*
X453654Y318201D01*
X453641Y318247D01*
X453635Y318295D01*
X453593Y318414D01*
X453558Y318536D01*
X453534Y318578D01*
X453518Y318623D01*
X453449Y318730D01*
X453388Y318840D01*
X453348Y318886D01*
X453329Y318916D01*
X453294Y318950D01*
X453229Y319026D01*
X451106Y321149D01*
X451007Y321228D01*
X450913Y321312D01*
X450871Y321336D01*
X450833Y321366D01*
X450719Y321420D01*
X450608Y321481D01*
X450562Y321494D01*
X450518Y321515D01*
X450395Y321541D01*
X450273Y321576D01*
X450212Y321581D01*
X450177Y321588D01*
X450129Y321587D01*
X450029Y321595D01*
X418814Y321595D01*
X418738Y321587D01*
X418661Y321588D01*
X418565Y321567D01*
X418468Y321555D01*
X418396Y321530D01*
X418321Y321513D01*
X418232Y321471D01*
X418139Y321438D01*
X418075Y321396D01*
X418006Y321364D01*
X417929Y321302D01*
X417847Y321249D01*
X417793Y321194D01*
X417734Y321146D01*
X417673Y321069D01*
X417604Y320998D01*
X417565Y320933D01*
X417518Y320873D01*
X417450Y320740D01*
X417445Y320732D01*
X415880Y319166D01*
X413849Y318325D01*
X411651Y318325D01*
X409620Y319166D01*
X408051Y320736D01*
X408028Y320793D01*
X407972Y320873D01*
X407924Y320959D01*
X407873Y321016D01*
X407829Y321079D01*
X407756Y321145D01*
X407690Y321218D01*
X407627Y321261D01*
X407570Y321312D01*
X407484Y321360D01*
X407403Y321416D01*
X407332Y321444D01*
X407265Y321481D01*
X407171Y321508D01*
X407079Y321544D01*
X407004Y321555D01*
X406930Y321576D01*
X406781Y321588D01*
X406734Y321595D01*
X406715Y321593D01*
X406686Y321595D01*
X399860Y321595D01*
X390175Y331280D01*
X390175Y373666D01*
X390172Y373692D01*
X390174Y373718D01*
X390152Y373865D01*
X390135Y374012D01*
X390127Y374037D01*
X390123Y374063D01*
X390068Y374201D01*
X390018Y374340D01*
X390004Y374362D01*
X389994Y374387D01*
X389909Y374508D01*
X389829Y374633D01*
X389810Y374651D01*
X389795Y374673D01*
X389685Y374772D01*
X389578Y374875D01*
X389556Y374889D01*
X389536Y374906D01*
X389406Y374978D01*
X389279Y375054D01*
X389254Y375062D01*
X389231Y375075D01*
X389088Y375115D01*
X388947Y375160D01*
X388921Y375162D01*
X388896Y375170D01*
X388652Y375189D01*
X129540Y375189D01*
X129514Y375186D01*
X129488Y375188D01*
X129341Y375166D01*
X129194Y375149D01*
X129169Y375141D01*
X129143Y375137D01*
X129005Y375082D01*
X128866Y375032D01*
X128844Y375018D01*
X128819Y375008D01*
X128698Y374923D01*
X128573Y374843D01*
X128555Y374824D01*
X128533Y374809D01*
X128434Y374699D01*
X128331Y374592D01*
X128317Y374570D01*
X128300Y374550D01*
X128228Y374420D01*
X128152Y374293D01*
X128144Y374268D01*
X128131Y374245D01*
X128091Y374102D01*
X128046Y373961D01*
X128044Y373935D01*
X128036Y373910D01*
X128017Y373666D01*
X128017Y334263D01*
X99313Y334263D01*
X99313Y373666D01*
X99310Y373692D01*
X99312Y373718D01*
X99290Y373865D01*
X99273Y374012D01*
X99265Y374037D01*
X99261Y374063D01*
X99206Y374201D01*
X99156Y374340D01*
X99142Y374362D01*
X99132Y374387D01*
X99047Y374508D01*
X98967Y374633D01*
X98948Y374651D01*
X98933Y374673D01*
X98823Y374772D01*
X98716Y374875D01*
X98694Y374889D01*
X98674Y374906D01*
X98544Y374978D01*
X98417Y375054D01*
X98392Y375062D01*
X98369Y375075D01*
X98226Y375115D01*
X98085Y375160D01*
X98059Y375162D01*
X98034Y375170D01*
X97790Y375189D01*
X37020Y375189D01*
X36894Y375175D01*
X36768Y375168D01*
X36721Y375155D01*
X36673Y375149D01*
X36554Y375107D01*
X36433Y375072D01*
X36391Y375048D01*
X36345Y375032D01*
X36239Y374963D01*
X36129Y374902D01*
X36083Y374862D01*
X36053Y374843D01*
X36019Y374808D01*
X35943Y374743D01*
X6257Y345057D01*
X6178Y344958D01*
X6094Y344865D01*
X6070Y344822D01*
X6040Y344784D01*
X5986Y344670D01*
X5925Y344559D01*
X5912Y344513D01*
X5891Y344469D01*
X5865Y344346D01*
X5830Y344224D01*
X5825Y344163D01*
X5818Y344129D01*
X5819Y344081D01*
X5811Y343980D01*
X5811Y14160D01*
X5812Y14145D01*
X5812Y14135D01*
X5820Y14077D01*
X5825Y14034D01*
X5832Y13908D01*
X5845Y13861D01*
X5851Y13813D01*
X5893Y13694D01*
X5928Y13573D01*
X5952Y13531D01*
X5968Y13485D01*
X6037Y13379D01*
X6098Y13269D01*
X6138Y13223D01*
X6157Y13193D01*
X6192Y13159D01*
X6257Y13083D01*
X16893Y2447D01*
X16992Y2368D01*
X17085Y2284D01*
X17128Y2260D01*
X17166Y2230D01*
X17280Y2176D01*
X17390Y2115D01*
X17437Y2102D01*
X17481Y2081D01*
X17604Y2055D01*
X17726Y2020D01*
X17787Y2015D01*
X17821Y2008D01*
X17869Y2009D01*
X17970Y2001D01*
X243049Y2001D01*
X243148Y2012D01*
G37*
G36*
X645472Y51820D02*
X645472Y51820D01*
X645498Y51818D01*
X645645Y51840D01*
X645792Y51857D01*
X645817Y51865D01*
X645843Y51869D01*
X645981Y51924D01*
X646120Y51974D01*
X646142Y51988D01*
X646167Y51998D01*
X646288Y52083D01*
X646413Y52163D01*
X646431Y52182D01*
X646453Y52197D01*
X646552Y52307D01*
X646655Y52414D01*
X646669Y52436D01*
X646686Y52456D01*
X646758Y52586D01*
X646834Y52713D01*
X646842Y52738D01*
X646855Y52761D01*
X646895Y52904D01*
X646940Y53045D01*
X646942Y53071D01*
X646950Y53096D01*
X646969Y53340D01*
X646969Y265240D01*
X646955Y265366D01*
X646948Y265492D01*
X646935Y265539D01*
X646929Y265587D01*
X646887Y265705D01*
X646852Y265827D01*
X646828Y265869D01*
X646812Y265915D01*
X646743Y266021D01*
X646682Y266131D01*
X646642Y266177D01*
X646623Y266207D01*
X646588Y266241D01*
X646523Y266317D01*
X597439Y315401D01*
X597439Y369380D01*
X597425Y369506D01*
X597418Y369632D01*
X597405Y369679D01*
X597399Y369727D01*
X597357Y369845D01*
X597322Y369967D01*
X597298Y370009D01*
X597282Y370055D01*
X597213Y370161D01*
X597152Y370271D01*
X597112Y370317D01*
X597093Y370347D01*
X597058Y370381D01*
X596993Y370457D01*
X592707Y374743D01*
X592608Y374822D01*
X592515Y374906D01*
X592472Y374930D01*
X592434Y374960D01*
X592320Y375014D01*
X592209Y375075D01*
X592163Y375088D01*
X592119Y375109D01*
X591996Y375135D01*
X591874Y375170D01*
X591813Y375175D01*
X591779Y375182D01*
X591731Y375181D01*
X591630Y375189D01*
X393700Y375189D01*
X393674Y375186D01*
X393648Y375188D01*
X393501Y375166D01*
X393354Y375149D01*
X393329Y375141D01*
X393303Y375137D01*
X393165Y375082D01*
X393026Y375032D01*
X393004Y375018D01*
X392979Y375008D01*
X392858Y374923D01*
X392733Y374843D01*
X392715Y374824D01*
X392693Y374809D01*
X392594Y374699D01*
X392491Y374592D01*
X392477Y374570D01*
X392460Y374550D01*
X392388Y374420D01*
X392312Y374293D01*
X392304Y374268D01*
X392291Y374245D01*
X392251Y374102D01*
X392206Y373961D01*
X392204Y373935D01*
X392196Y373910D01*
X392177Y373666D01*
X392177Y332740D01*
X392191Y332614D01*
X392198Y332488D01*
X392211Y332442D01*
X392217Y332394D01*
X392259Y332275D01*
X392294Y332153D01*
X392318Y332111D01*
X392334Y332066D01*
X392403Y331959D01*
X392464Y331849D01*
X392504Y331803D01*
X392523Y331773D01*
X392558Y331739D01*
X392623Y331663D01*
X400243Y324043D01*
X400342Y323964D01*
X400436Y323880D01*
X400478Y323856D01*
X400516Y323826D01*
X400630Y323772D01*
X400741Y323711D01*
X400787Y323698D01*
X400831Y323677D01*
X400954Y323651D01*
X401076Y323616D01*
X401137Y323612D01*
X401172Y323604D01*
X401220Y323605D01*
X401320Y323597D01*
X405702Y323597D01*
X405728Y323600D01*
X405754Y323598D01*
X405901Y323620D01*
X406048Y323637D01*
X406073Y323645D01*
X406099Y323649D01*
X406237Y323704D01*
X406376Y323754D01*
X406398Y323768D01*
X406423Y323778D01*
X406544Y323863D01*
X406669Y323943D01*
X406687Y323962D01*
X406709Y323977D01*
X406808Y324087D01*
X406911Y324194D01*
X406925Y324216D01*
X406942Y324236D01*
X407014Y324366D01*
X407090Y324493D01*
X407098Y324518D01*
X407111Y324541D01*
X407151Y324684D01*
X407196Y324825D01*
X407198Y324851D01*
X407206Y324876D01*
X407208Y324908D01*
X408066Y326980D01*
X409620Y328534D01*
X411651Y329375D01*
X413849Y329375D01*
X415880Y328534D01*
X417434Y326980D01*
X418302Y324883D01*
X418315Y324774D01*
X418323Y324749D01*
X418327Y324723D01*
X418382Y324585D01*
X418432Y324446D01*
X418446Y324424D01*
X418456Y324399D01*
X418541Y324278D01*
X418621Y324153D01*
X418640Y324135D01*
X418655Y324113D01*
X418765Y324014D01*
X418872Y323911D01*
X418894Y323897D01*
X418914Y323880D01*
X419044Y323808D01*
X419171Y323732D01*
X419196Y323724D01*
X419219Y323711D01*
X419362Y323671D01*
X419503Y323626D01*
X419529Y323624D01*
X419554Y323616D01*
X419798Y323597D01*
X451489Y323597D01*
X455677Y319409D01*
X455677Y264160D01*
X455691Y264034D01*
X455698Y263908D01*
X455711Y263862D01*
X455717Y263814D01*
X455759Y263695D01*
X455794Y263573D01*
X455818Y263531D01*
X455834Y263486D01*
X455903Y263379D01*
X455964Y263269D01*
X456004Y263223D01*
X456023Y263193D01*
X456058Y263159D01*
X456123Y263083D01*
X461203Y258003D01*
X461302Y257924D01*
X461396Y257840D01*
X461438Y257816D01*
X461476Y257786D01*
X461590Y257732D01*
X461701Y257671D01*
X461747Y257658D01*
X461791Y257637D01*
X461914Y257611D01*
X462036Y257576D01*
X462097Y257572D01*
X462132Y257564D01*
X462180Y257565D01*
X462280Y257557D01*
X479429Y257557D01*
X529337Y207649D01*
X529337Y178431D01*
X525149Y174243D01*
X490220Y174243D01*
X490094Y174229D01*
X489968Y174222D01*
X489922Y174209D01*
X489874Y174203D01*
X489755Y174161D01*
X489633Y174126D01*
X489591Y174102D01*
X489546Y174086D01*
X489439Y174017D01*
X489329Y173956D01*
X489283Y173916D01*
X489253Y173897D01*
X489219Y173862D01*
X489143Y173797D01*
X484063Y168717D01*
X483984Y168618D01*
X483900Y168524D01*
X483876Y168482D01*
X483846Y168444D01*
X483792Y168330D01*
X483731Y168219D01*
X483718Y168173D01*
X483697Y168129D01*
X483671Y168006D01*
X483636Y167884D01*
X483632Y167823D01*
X483624Y167788D01*
X483625Y167740D01*
X483617Y167640D01*
X483617Y109220D01*
X483631Y109094D01*
X483638Y108968D01*
X483651Y108922D01*
X483657Y108874D01*
X483699Y108755D01*
X483734Y108633D01*
X483758Y108591D01*
X483774Y108546D01*
X483843Y108439D01*
X483904Y108329D01*
X483944Y108283D01*
X483963Y108253D01*
X483998Y108219D01*
X484063Y108143D01*
X489143Y103063D01*
X489242Y102984D01*
X489336Y102900D01*
X489378Y102876D01*
X489416Y102846D01*
X489530Y102792D01*
X489641Y102731D01*
X489687Y102718D01*
X489731Y102697D01*
X489854Y102671D01*
X489976Y102636D01*
X490037Y102632D01*
X490072Y102624D01*
X490120Y102625D01*
X490220Y102617D01*
X548009Y102617D01*
X552197Y98429D01*
X552197Y60960D01*
X552202Y60913D01*
X552201Y60904D01*
X552209Y60853D01*
X552211Y60834D01*
X552218Y60708D01*
X552231Y60662D01*
X552237Y60614D01*
X552251Y60574D01*
X552253Y60559D01*
X552280Y60491D01*
X552314Y60373D01*
X552338Y60331D01*
X552354Y60286D01*
X552374Y60254D01*
X552382Y60235D01*
X552431Y60165D01*
X552484Y60069D01*
X552524Y60023D01*
X552543Y59993D01*
X552566Y59971D01*
X552581Y59949D01*
X552605Y59928D01*
X552643Y59883D01*
X560263Y52263D01*
X560362Y52184D01*
X560456Y52100D01*
X560498Y52076D01*
X560536Y52046D01*
X560650Y51992D01*
X560761Y51931D01*
X560807Y51918D01*
X560851Y51897D01*
X560974Y51871D01*
X561096Y51836D01*
X561157Y51832D01*
X561192Y51824D01*
X561240Y51825D01*
X561340Y51817D01*
X645446Y51817D01*
X645472Y51820D01*
G37*
%LPC*%
G36*
X259251Y49085D02*
X259251Y49085D01*
X257220Y49926D01*
X256889Y50258D01*
X256790Y50337D01*
X256696Y50421D01*
X256654Y50445D01*
X256616Y50475D01*
X256502Y50529D01*
X256391Y50590D01*
X256344Y50603D01*
X256301Y50624D01*
X256177Y50650D01*
X256055Y50685D01*
X255995Y50690D01*
X255960Y50697D01*
X255912Y50696D01*
X255812Y50704D01*
X239682Y50704D01*
X172624Y117762D01*
X172624Y141512D01*
X172610Y141637D01*
X172603Y141763D01*
X172590Y141810D01*
X172584Y141858D01*
X172542Y141977D01*
X172507Y142098D01*
X172483Y142140D01*
X172467Y142186D01*
X172398Y142292D01*
X172337Y142402D01*
X172297Y142449D01*
X172278Y142479D01*
X172243Y142512D01*
X172178Y142589D01*
X171846Y142920D01*
X171005Y144951D01*
X171005Y147149D01*
X171846Y149180D01*
X173400Y150734D01*
X175431Y151575D01*
X175721Y151575D01*
X175846Y151589D01*
X175972Y151596D01*
X176019Y151609D01*
X176067Y151615D01*
X176186Y151657D01*
X176307Y151692D01*
X176349Y151716D01*
X176395Y151732D01*
X176501Y151801D01*
X176612Y151862D01*
X176658Y151902D01*
X176688Y151921D01*
X176721Y151956D01*
X176798Y152021D01*
X216501Y191724D01*
X216580Y191823D01*
X216664Y191917D01*
X216688Y191959D01*
X216718Y191997D01*
X216772Y192111D01*
X216833Y192222D01*
X216846Y192269D01*
X216867Y192312D01*
X216893Y192436D01*
X216928Y192558D01*
X216933Y192618D01*
X216940Y192653D01*
X216939Y192701D01*
X216947Y192801D01*
X216947Y211489D01*
X216933Y211614D01*
X216926Y211740D01*
X216913Y211787D01*
X216907Y211835D01*
X216865Y211954D01*
X216830Y212075D01*
X216806Y212117D01*
X216790Y212163D01*
X216721Y212269D01*
X216660Y212379D01*
X216620Y212426D01*
X216601Y212456D01*
X216566Y212489D01*
X216501Y212566D01*
X216296Y212770D01*
X215455Y214801D01*
X215455Y216999D01*
X216296Y219030D01*
X216501Y219234D01*
X216580Y219333D01*
X216664Y219427D01*
X216688Y219469D01*
X216718Y219507D01*
X216772Y219621D01*
X216833Y219732D01*
X216846Y219779D01*
X216867Y219822D01*
X216893Y219946D01*
X216928Y220068D01*
X216933Y220128D01*
X216940Y220163D01*
X216939Y220211D01*
X216947Y220311D01*
X216947Y254239D01*
X216933Y254364D01*
X216926Y254490D01*
X216913Y254537D01*
X216907Y254585D01*
X216865Y254704D01*
X216830Y254825D01*
X216806Y254867D01*
X216790Y254913D01*
X216721Y255019D01*
X216660Y255129D01*
X216620Y255176D01*
X216601Y255206D01*
X216566Y255239D01*
X216501Y255316D01*
X200198Y271619D01*
X200099Y271698D01*
X200005Y271782D01*
X199963Y271806D01*
X199925Y271836D01*
X199811Y271890D01*
X199700Y271951D01*
X199653Y271964D01*
X199610Y271985D01*
X199486Y272011D01*
X199364Y272046D01*
X199304Y272051D01*
X199269Y272058D01*
X199221Y272057D01*
X199121Y272065D01*
X198184Y272065D01*
X195955Y272989D01*
X194249Y274695D01*
X193325Y276924D01*
X193325Y279336D01*
X194249Y281565D01*
X200468Y287785D01*
X200530Y287863D01*
X200600Y287936D01*
X200639Y288000D01*
X200685Y288058D01*
X200728Y288149D01*
X200779Y288235D01*
X200802Y288306D01*
X200834Y288373D01*
X200855Y288471D01*
X200885Y288567D01*
X200891Y288641D01*
X200907Y288714D01*
X200905Y288814D01*
X200913Y288914D01*
X200902Y288988D01*
X200901Y289062D01*
X200877Y289159D01*
X200862Y289259D01*
X200834Y289328D01*
X200816Y289400D01*
X200770Y289490D01*
X200733Y289583D01*
X200691Y289644D01*
X200656Y289710D01*
X200591Y289787D01*
X200534Y289869D01*
X200479Y289919D01*
X200431Y289975D01*
X200350Y290035D01*
X200275Y290102D01*
X200210Y290138D01*
X200150Y290183D01*
X200058Y290222D01*
X199970Y290271D01*
X199899Y290291D01*
X199830Y290321D01*
X199731Y290338D01*
X199635Y290366D01*
X199602Y290368D01*
X197530Y291226D01*
X195976Y292780D01*
X195135Y294811D01*
X195135Y297009D01*
X195976Y299040D01*
X197530Y300594D01*
X199561Y301435D01*
X201759Y301435D01*
X203790Y300594D01*
X205344Y299040D01*
X206199Y296975D01*
X206216Y296907D01*
X206225Y296833D01*
X206258Y296738D01*
X206283Y296641D01*
X206317Y296575D01*
X206342Y296505D01*
X206397Y296420D01*
X206443Y296331D01*
X206491Y296274D01*
X206531Y296212D01*
X206604Y296142D01*
X206669Y296065D01*
X206728Y296021D01*
X206782Y295970D01*
X206868Y295918D01*
X206949Y295858D01*
X207017Y295829D01*
X207081Y295791D01*
X207177Y295760D01*
X207269Y295720D01*
X207342Y295707D01*
X207413Y295685D01*
X207513Y295677D01*
X207612Y295659D01*
X207686Y295663D01*
X207760Y295657D01*
X207860Y295672D01*
X207960Y295677D01*
X208031Y295697D01*
X208105Y295708D01*
X208198Y295746D01*
X208295Y295773D01*
X208360Y295810D01*
X208429Y295837D01*
X208511Y295894D01*
X208599Y295944D01*
X208610Y295953D01*
X210884Y296895D01*
X211821Y296895D01*
X211946Y296909D01*
X212072Y296916D01*
X212119Y296929D01*
X212167Y296935D01*
X212286Y296977D01*
X212407Y297012D01*
X212449Y297036D01*
X212495Y297052D01*
X212601Y297121D01*
X212711Y297182D01*
X212758Y297222D01*
X212788Y297241D01*
X212821Y297276D01*
X212898Y297341D01*
X228200Y312643D01*
X258479Y312643D01*
X258604Y312657D01*
X258730Y312664D01*
X258777Y312677D01*
X258825Y312683D01*
X258944Y312725D01*
X259065Y312760D01*
X259107Y312784D01*
X259153Y312800D01*
X259259Y312869D01*
X259369Y312930D01*
X259416Y312970D01*
X259446Y312989D01*
X259479Y313024D01*
X259556Y313089D01*
X259760Y313294D01*
X261791Y314135D01*
X263989Y314135D01*
X266020Y313294D01*
X267574Y311740D01*
X268415Y309709D01*
X268415Y309419D01*
X268429Y309294D01*
X268436Y309168D01*
X268449Y309121D01*
X268455Y309073D01*
X268497Y308954D01*
X268532Y308833D01*
X268556Y308791D01*
X268572Y308745D01*
X268641Y308639D01*
X268702Y308529D01*
X268742Y308482D01*
X268761Y308452D01*
X268796Y308419D01*
X268861Y308342D01*
X304754Y272449D01*
X304853Y272370D01*
X304947Y272286D01*
X304989Y272262D01*
X305027Y272232D01*
X305141Y272178D01*
X305252Y272117D01*
X305299Y272104D01*
X305342Y272083D01*
X305466Y272057D01*
X305588Y272022D01*
X305648Y272017D01*
X305683Y272010D01*
X305731Y272011D01*
X305831Y272003D01*
X311844Y272003D01*
X311846Y272003D01*
X311849Y272003D01*
X312022Y272023D01*
X312190Y272043D01*
X312192Y272043D01*
X312195Y272044D01*
X312356Y272102D01*
X312518Y272160D01*
X312520Y272162D01*
X312523Y272162D01*
X312665Y272255D01*
X312811Y272349D01*
X312813Y272351D01*
X312815Y272352D01*
X312990Y272523D01*
X325568Y286898D01*
X325612Y286960D01*
X325662Y287017D01*
X325710Y287103D01*
X325766Y287185D01*
X325794Y287255D01*
X325831Y287322D01*
X325858Y287417D01*
X325894Y287509D01*
X325905Y287584D01*
X325926Y287657D01*
X325938Y287807D01*
X325945Y287854D01*
X325943Y287873D01*
X325945Y287901D01*
X325945Y289389D01*
X326786Y291420D01*
X328340Y292974D01*
X330371Y293815D01*
X332569Y293815D01*
X334600Y292974D01*
X336154Y291420D01*
X336995Y289389D01*
X336995Y287191D01*
X336154Y285160D01*
X334600Y283606D01*
X332569Y282765D01*
X332011Y282765D01*
X332008Y282765D01*
X332006Y282765D01*
X331833Y282745D01*
X331664Y282725D01*
X331662Y282725D01*
X331659Y282724D01*
X331500Y282667D01*
X331336Y282608D01*
X331334Y282606D01*
X331332Y282606D01*
X331186Y282511D01*
X331043Y282419D01*
X331042Y282417D01*
X331040Y282416D01*
X330864Y282245D01*
X318100Y267657D01*
X318056Y267594D01*
X318006Y267538D01*
X317958Y267451D01*
X317902Y267370D01*
X317874Y267300D01*
X317837Y267233D01*
X317810Y267138D01*
X317774Y267046D01*
X317763Y266971D01*
X317742Y266898D01*
X317730Y266748D01*
X317723Y266701D01*
X317725Y266682D01*
X317723Y266654D01*
X317723Y260111D01*
X317737Y259986D01*
X317744Y259860D01*
X317757Y259813D01*
X317763Y259765D01*
X317805Y259646D01*
X317840Y259525D01*
X317864Y259483D01*
X317880Y259437D01*
X317949Y259331D01*
X318010Y259221D01*
X318050Y259174D01*
X318069Y259144D01*
X318104Y259111D01*
X318169Y259034D01*
X393654Y183549D01*
X393753Y183470D01*
X393847Y183386D01*
X393889Y183362D01*
X393927Y183332D01*
X394041Y183278D01*
X394152Y183217D01*
X394199Y183204D01*
X394242Y183183D01*
X394366Y183157D01*
X394488Y183122D01*
X394548Y183117D01*
X394583Y183110D01*
X394631Y183111D01*
X394731Y183103D01*
X402277Y183103D01*
X402403Y183117D01*
X402529Y183124D01*
X402575Y183137D01*
X402623Y183143D01*
X402742Y183185D01*
X402864Y183220D01*
X402906Y183244D01*
X402951Y183260D01*
X403058Y183329D01*
X403168Y183390D01*
X403214Y183430D01*
X403244Y183449D01*
X403278Y183484D01*
X403354Y183549D01*
X413814Y194009D01*
X413838Y194039D01*
X413955Y194172D01*
X414541Y194952D01*
X414550Y194968D01*
X414562Y194982D01*
X414638Y195119D01*
X414716Y195253D01*
X414722Y195271D01*
X414731Y195287D01*
X414773Y195437D01*
X414819Y195586D01*
X414821Y195604D01*
X414826Y195622D01*
X414845Y195866D01*
X414845Y197949D01*
X415686Y199980D01*
X417240Y201534D01*
X419271Y202375D01*
X421469Y202375D01*
X423500Y201534D01*
X425054Y199980D01*
X425895Y197949D01*
X425895Y195751D01*
X425054Y193720D01*
X423500Y192166D01*
X421416Y191303D01*
X421409Y191302D01*
X421262Y191285D01*
X421237Y191277D01*
X421211Y191273D01*
X421073Y191218D01*
X420934Y191168D01*
X420912Y191154D01*
X420887Y191144D01*
X420766Y191059D01*
X420641Y190979D01*
X420623Y190960D01*
X420601Y190945D01*
X420502Y190835D01*
X420399Y190728D01*
X420385Y190706D01*
X420368Y190686D01*
X420296Y190556D01*
X420244Y190469D01*
X419306Y189531D01*
X419282Y189501D01*
X419165Y189368D01*
X418479Y188454D01*
X418387Y188430D01*
X418371Y188422D01*
X418353Y188416D01*
X418216Y188340D01*
X418079Y188268D01*
X418065Y188255D01*
X418049Y188246D01*
X417863Y188088D01*
X408339Y178564D01*
X408260Y178465D01*
X408176Y178371D01*
X408152Y178329D01*
X408122Y178291D01*
X408068Y178177D01*
X408007Y178066D01*
X407994Y178020D01*
X407973Y177976D01*
X407947Y177853D01*
X407912Y177731D01*
X407907Y177670D01*
X407900Y177635D01*
X407901Y177587D01*
X407893Y177487D01*
X407893Y150730D01*
X402211Y145048D01*
X402132Y144949D01*
X402048Y144855D01*
X402024Y144813D01*
X401994Y144775D01*
X401940Y144661D01*
X401879Y144550D01*
X401866Y144503D01*
X401845Y144460D01*
X401819Y144336D01*
X401784Y144214D01*
X401779Y144154D01*
X401772Y144119D01*
X401773Y144071D01*
X401765Y143971D01*
X401765Y143681D01*
X400924Y141650D01*
X400592Y141319D01*
X400513Y141220D01*
X400429Y141126D01*
X400405Y141084D01*
X400375Y141046D01*
X400321Y140932D01*
X400260Y140821D01*
X400247Y140774D01*
X400226Y140731D01*
X400200Y140607D01*
X400165Y140485D01*
X400160Y140425D01*
X400153Y140390D01*
X400154Y140342D01*
X400146Y140242D01*
X400146Y120302D01*
X361222Y81378D01*
X358488Y78644D01*
X338548Y78644D01*
X338423Y78630D01*
X338296Y78623D01*
X338250Y78610D01*
X338202Y78604D01*
X338083Y78562D01*
X337962Y78527D01*
X337920Y78503D01*
X337874Y78487D01*
X337768Y78418D01*
X337657Y78357D01*
X337611Y78317D01*
X337581Y78298D01*
X337548Y78263D01*
X337471Y78198D01*
X337139Y77866D01*
X335109Y77025D01*
X332911Y77025D01*
X330880Y77866D01*
X329326Y79420D01*
X328485Y81451D01*
X328485Y83649D01*
X329326Y85680D01*
X330880Y87234D01*
X332911Y88075D01*
X335109Y88075D01*
X337139Y87234D01*
X337471Y86902D01*
X337570Y86823D01*
X337664Y86739D01*
X337706Y86715D01*
X337744Y86685D01*
X337858Y86631D01*
X337969Y86570D01*
X338016Y86557D01*
X338059Y86536D01*
X338183Y86510D01*
X338305Y86475D01*
X338365Y86470D01*
X338400Y86463D01*
X338448Y86464D01*
X338548Y86456D01*
X354621Y86456D01*
X354747Y86470D01*
X354873Y86477D01*
X354919Y86490D01*
X354967Y86496D01*
X355086Y86538D01*
X355208Y86573D01*
X355250Y86597D01*
X355296Y86613D01*
X355402Y86682D01*
X355512Y86743D01*
X355558Y86783D01*
X355588Y86802D01*
X355622Y86837D01*
X355698Y86902D01*
X391888Y123092D01*
X391967Y123191D01*
X392051Y123285D01*
X392075Y123327D01*
X392105Y123365D01*
X392159Y123479D01*
X392220Y123590D01*
X392233Y123636D01*
X392254Y123680D01*
X392280Y123803D01*
X392315Y123925D01*
X392320Y123986D01*
X392327Y124020D01*
X392326Y124068D01*
X392334Y124169D01*
X392334Y140242D01*
X392320Y140367D01*
X392313Y140493D01*
X392300Y140540D01*
X392294Y140588D01*
X392252Y140707D01*
X392217Y140828D01*
X392193Y140870D01*
X392177Y140916D01*
X392108Y141022D01*
X392047Y141132D01*
X392007Y141179D01*
X391988Y141209D01*
X391953Y141242D01*
X391888Y141319D01*
X391556Y141650D01*
X390715Y143681D01*
X390715Y145879D01*
X391556Y147910D01*
X393110Y149464D01*
X395141Y150305D01*
X395431Y150305D01*
X395556Y150319D01*
X395682Y150326D01*
X395729Y150339D01*
X395777Y150345D01*
X395896Y150387D01*
X396017Y150422D01*
X396059Y150446D01*
X396105Y150462D01*
X396211Y150531D01*
X396321Y150592D01*
X396368Y150632D01*
X396398Y150651D01*
X396431Y150686D01*
X396508Y150751D01*
X399381Y153624D01*
X399460Y153723D01*
X399544Y153817D01*
X399568Y153859D01*
X399598Y153897D01*
X399652Y154011D01*
X399713Y154122D01*
X399726Y154169D01*
X399747Y154212D01*
X399773Y154336D01*
X399808Y154458D01*
X399813Y154518D01*
X399820Y154553D01*
X399819Y154601D01*
X399827Y154701D01*
X399827Y165339D01*
X399813Y165464D01*
X399806Y165590D01*
X399793Y165637D01*
X399787Y165685D01*
X399745Y165804D01*
X399710Y165925D01*
X399686Y165967D01*
X399670Y166013D01*
X399601Y166119D01*
X399540Y166229D01*
X399500Y166276D01*
X399481Y166306D01*
X399446Y166339D01*
X399381Y166416D01*
X263158Y302639D01*
X263059Y302718D01*
X262965Y302802D01*
X262923Y302826D01*
X262885Y302856D01*
X262771Y302910D01*
X262660Y302971D01*
X262613Y302984D01*
X262570Y303005D01*
X262446Y303031D01*
X262324Y303066D01*
X262264Y303071D01*
X262229Y303078D01*
X262181Y303077D01*
X262081Y303085D01*
X261791Y303085D01*
X259760Y303926D01*
X259556Y304131D01*
X259457Y304210D01*
X259363Y304294D01*
X259321Y304318D01*
X259283Y304348D01*
X259169Y304402D01*
X259058Y304463D01*
X259011Y304476D01*
X258968Y304497D01*
X258844Y304523D01*
X258722Y304558D01*
X258662Y304563D01*
X258627Y304570D01*
X258579Y304569D01*
X258479Y304577D01*
X232171Y304577D01*
X232046Y304563D01*
X231920Y304556D01*
X231873Y304543D01*
X231825Y304537D01*
X231706Y304495D01*
X231585Y304460D01*
X231543Y304436D01*
X231497Y304420D01*
X231391Y304351D01*
X231281Y304290D01*
X231234Y304250D01*
X231204Y304231D01*
X231171Y304196D01*
X231094Y304131D01*
X218601Y291638D01*
X218522Y291539D01*
X218438Y291445D01*
X218414Y291403D01*
X218384Y291365D01*
X218330Y291251D01*
X218269Y291140D01*
X218256Y291093D01*
X218235Y291050D01*
X218209Y290926D01*
X218174Y290804D01*
X218169Y290744D01*
X218162Y290709D01*
X218163Y290661D01*
X218155Y290561D01*
X218155Y289624D01*
X217231Y287395D01*
X207607Y277770D01*
X207591Y277750D01*
X207571Y277733D01*
X207482Y277613D01*
X207390Y277497D01*
X207379Y277474D01*
X207364Y277452D01*
X207305Y277316D01*
X207242Y277182D01*
X207236Y277156D01*
X207226Y277132D01*
X207199Y276986D01*
X207168Y276841D01*
X207169Y276815D01*
X207164Y276789D01*
X207172Y276641D01*
X207174Y276493D01*
X207181Y276468D01*
X207182Y276441D01*
X207223Y276299D01*
X207259Y276155D01*
X207271Y276132D01*
X207278Y276106D01*
X207351Y275977D01*
X207419Y275845D01*
X207436Y275825D01*
X207449Y275802D01*
X207607Y275616D01*
X222204Y261019D01*
X225013Y258210D01*
X225013Y220311D01*
X225027Y220186D01*
X225034Y220060D01*
X225047Y220013D01*
X225053Y219965D01*
X225095Y219846D01*
X225130Y219725D01*
X225154Y219683D01*
X225170Y219637D01*
X225239Y219531D01*
X225300Y219421D01*
X225340Y219374D01*
X225359Y219344D01*
X225394Y219311D01*
X225459Y219234D01*
X225664Y219030D01*
X226505Y216999D01*
X226505Y214801D01*
X225664Y212770D01*
X225459Y212566D01*
X225380Y212467D01*
X225296Y212373D01*
X225272Y212331D01*
X225242Y212293D01*
X225188Y212179D01*
X225127Y212068D01*
X225114Y212021D01*
X225093Y211978D01*
X225067Y211854D01*
X225032Y211732D01*
X225027Y211672D01*
X225020Y211637D01*
X225021Y211589D01*
X225013Y211489D01*
X225013Y188830D01*
X222204Y186021D01*
X182501Y146318D01*
X182422Y146219D01*
X182338Y146125D01*
X182314Y146083D01*
X182284Y146045D01*
X182230Y145931D01*
X182169Y145820D01*
X182156Y145773D01*
X182135Y145730D01*
X182109Y145606D01*
X182074Y145484D01*
X182069Y145424D01*
X182062Y145389D01*
X182063Y145341D01*
X182055Y145241D01*
X182055Y144951D01*
X181214Y142920D01*
X180882Y142589D01*
X180803Y142490D01*
X180719Y142396D01*
X180695Y142354D01*
X180665Y142316D01*
X180611Y142202D01*
X180550Y142091D01*
X180537Y142044D01*
X180516Y142001D01*
X180490Y141877D01*
X180455Y141755D01*
X180450Y141695D01*
X180443Y141660D01*
X180444Y141612D01*
X180436Y141512D01*
X180436Y121629D01*
X180450Y121503D01*
X180457Y121377D01*
X180470Y121331D01*
X180476Y121283D01*
X180518Y121164D01*
X180553Y121042D01*
X180577Y121000D01*
X180593Y120954D01*
X180662Y120848D01*
X180723Y120738D01*
X180763Y120692D01*
X180782Y120662D01*
X180817Y120628D01*
X180882Y120552D01*
X242472Y58962D01*
X242571Y58883D01*
X242665Y58799D01*
X242707Y58775D01*
X242745Y58745D01*
X242859Y58691D01*
X242970Y58630D01*
X243016Y58617D01*
X243060Y58596D01*
X243183Y58570D01*
X243305Y58535D01*
X243366Y58530D01*
X243400Y58523D01*
X243448Y58524D01*
X243549Y58516D01*
X255812Y58516D01*
X255937Y58530D01*
X256063Y58537D01*
X256110Y58550D01*
X256158Y58556D01*
X256277Y58598D01*
X256398Y58633D01*
X256440Y58657D01*
X256486Y58673D01*
X256592Y58742D01*
X256702Y58803D01*
X256749Y58843D01*
X256779Y58862D01*
X256812Y58897D01*
X256889Y58962D01*
X257220Y59294D01*
X259251Y60135D01*
X261449Y60135D01*
X263480Y59294D01*
X265034Y57740D01*
X265875Y55709D01*
X265875Y53511D01*
X265034Y51480D01*
X263480Y49926D01*
X261449Y49085D01*
X259251Y49085D01*
G37*
%LPD*%
%LPC*%
G36*
X198291Y14795D02*
X198291Y14795D01*
X196260Y15636D01*
X194706Y17190D01*
X193865Y19221D01*
X193865Y21419D01*
X194706Y23450D01*
X196260Y25004D01*
X198291Y25845D01*
X199658Y25845D01*
X199784Y25859D01*
X199910Y25866D01*
X199956Y25879D01*
X200004Y25885D01*
X200123Y25927D01*
X200245Y25962D01*
X200287Y25986D01*
X200333Y26002D01*
X200439Y26071D01*
X200549Y26132D01*
X200595Y26172D01*
X200625Y26191D01*
X200659Y26226D01*
X200735Y26291D01*
X204385Y29941D01*
X268524Y29941D01*
X268650Y29955D01*
X268776Y29962D01*
X268822Y29975D01*
X268870Y29981D01*
X268989Y30023D01*
X269111Y30058D01*
X269153Y30082D01*
X269199Y30098D01*
X269305Y30167D01*
X269415Y30228D01*
X269461Y30268D01*
X269491Y30287D01*
X269525Y30322D01*
X269601Y30387D01*
X278509Y39295D01*
X278588Y39394D01*
X278672Y39488D01*
X278696Y39530D01*
X278726Y39568D01*
X278780Y39682D01*
X278841Y39793D01*
X278854Y39839D01*
X278875Y39883D01*
X278901Y40006D01*
X278936Y40128D01*
X278941Y40189D01*
X278948Y40223D01*
X278947Y40271D01*
X278955Y40372D01*
X278955Y41739D01*
X279796Y43770D01*
X281350Y45324D01*
X283381Y46165D01*
X283671Y46165D01*
X283796Y46179D01*
X283922Y46186D01*
X283969Y46199D01*
X284017Y46205D01*
X284136Y46247D01*
X284257Y46282D01*
X284299Y46306D01*
X284345Y46322D01*
X284451Y46391D01*
X284561Y46452D01*
X284608Y46492D01*
X284638Y46511D01*
X284647Y46521D01*
X284648Y46521D01*
X284673Y46548D01*
X284748Y46611D01*
X306940Y68803D01*
X387589Y68803D01*
X387714Y68817D01*
X387840Y68824D01*
X387887Y68837D01*
X387935Y68843D01*
X388054Y68885D01*
X388175Y68920D01*
X388217Y68944D01*
X388263Y68960D01*
X388369Y69029D01*
X388479Y69090D01*
X388526Y69130D01*
X388556Y69149D01*
X388589Y69184D01*
X388666Y69249D01*
X447641Y128224D01*
X447720Y128323D01*
X447804Y128417D01*
X447828Y128459D01*
X447858Y128497D01*
X447912Y128611D01*
X447973Y128722D01*
X447986Y128769D01*
X448007Y128812D01*
X448033Y128936D01*
X448068Y129058D01*
X448073Y129118D01*
X448080Y129153D01*
X448079Y129201D01*
X448087Y129301D01*
X448087Y211059D01*
X448073Y211184D01*
X448066Y211310D01*
X448053Y211357D01*
X448047Y211405D01*
X448005Y211524D01*
X447970Y211645D01*
X447946Y211687D01*
X447930Y211733D01*
X447861Y211839D01*
X447800Y211949D01*
X447760Y211996D01*
X447741Y212026D01*
X447706Y212059D01*
X447641Y212136D01*
X397556Y262221D01*
X397457Y262300D01*
X397363Y262384D01*
X397321Y262408D01*
X397283Y262438D01*
X397169Y262492D01*
X397058Y262553D01*
X397011Y262566D01*
X396968Y262587D01*
X396844Y262613D01*
X396722Y262648D01*
X396662Y262653D01*
X396627Y262660D01*
X396579Y262659D01*
X396479Y262667D01*
X357471Y262667D01*
X357346Y262653D01*
X357219Y262646D01*
X357173Y262633D01*
X357125Y262627D01*
X357006Y262585D01*
X356885Y262550D01*
X356843Y262526D01*
X356797Y262510D01*
X356691Y262441D01*
X356580Y262380D01*
X356534Y262340D01*
X356504Y262321D01*
X356471Y262286D01*
X356394Y262221D01*
X356189Y262016D01*
X354159Y261175D01*
X351961Y261175D01*
X349930Y262016D01*
X348376Y263570D01*
X347535Y265601D01*
X347535Y267799D01*
X348376Y269829D01*
X348581Y270034D01*
X348660Y270133D01*
X348744Y270227D01*
X348768Y270269D01*
X348798Y270307D01*
X348852Y270421D01*
X348913Y270532D01*
X348926Y270579D01*
X348947Y270622D01*
X348973Y270746D01*
X349008Y270868D01*
X349013Y270928D01*
X349020Y270963D01*
X349019Y271011D01*
X349027Y271111D01*
X349027Y317739D01*
X349013Y317864D01*
X349006Y317990D01*
X348993Y318037D01*
X348987Y318085D01*
X348945Y318204D01*
X348910Y318325D01*
X348886Y318368D01*
X348870Y318413D01*
X348801Y318519D01*
X348740Y318630D01*
X348700Y318676D01*
X348681Y318706D01*
X348646Y318739D01*
X348581Y318816D01*
X343168Y324229D01*
X343069Y324308D01*
X342975Y324392D01*
X342933Y324416D01*
X342895Y324446D01*
X342781Y324500D01*
X342670Y324561D01*
X342623Y324574D01*
X342580Y324595D01*
X342456Y324621D01*
X342334Y324656D01*
X342274Y324661D01*
X342239Y324668D01*
X342191Y324667D01*
X342091Y324675D01*
X341801Y324675D01*
X339770Y325516D01*
X338216Y327070D01*
X337375Y329101D01*
X337375Y329391D01*
X337361Y329516D01*
X337354Y329642D01*
X337341Y329689D01*
X337335Y329737D01*
X337293Y329856D01*
X337258Y329977D01*
X337234Y330019D01*
X337218Y330065D01*
X337149Y330171D01*
X337088Y330281D01*
X337048Y330328D01*
X337029Y330358D01*
X336994Y330391D01*
X336929Y330468D01*
X307386Y360011D01*
X307287Y360090D01*
X307193Y360174D01*
X307151Y360198D01*
X307113Y360228D01*
X306999Y360282D01*
X306888Y360343D01*
X306841Y360356D01*
X306798Y360377D01*
X306674Y360403D01*
X306552Y360438D01*
X306492Y360443D01*
X306457Y360450D01*
X306409Y360449D01*
X306309Y360457D01*
X246418Y360457D01*
X246293Y360443D01*
X246167Y360436D01*
X246120Y360423D01*
X246072Y360417D01*
X245953Y360375D01*
X245832Y360340D01*
X245790Y360316D01*
X245744Y360300D01*
X245638Y360231D01*
X245528Y360170D01*
X245481Y360130D01*
X245451Y360111D01*
X245418Y360076D01*
X245341Y360011D01*
X244713Y359383D01*
X242498Y358465D01*
X240102Y358465D01*
X237887Y359383D01*
X236027Y361243D01*
X236006Y361259D01*
X235990Y361279D01*
X235870Y361367D01*
X235754Y361459D01*
X235730Y361470D01*
X235709Y361486D01*
X235573Y361545D01*
X235439Y361608D01*
X235413Y361614D01*
X235389Y361624D01*
X235243Y361650D01*
X235098Y361682D01*
X235072Y361681D01*
X235046Y361686D01*
X234898Y361678D01*
X234750Y361676D01*
X234724Y361669D01*
X234698Y361668D01*
X234556Y361627D01*
X234412Y361591D01*
X234389Y361579D01*
X234363Y361571D01*
X234234Y361499D01*
X234102Y361431D01*
X234082Y361414D01*
X234059Y361401D01*
X233873Y361243D01*
X232013Y359383D01*
X229798Y358465D01*
X227402Y358465D01*
X225187Y359383D01*
X223493Y361077D01*
X222575Y363292D01*
X222575Y365688D01*
X223493Y367903D01*
X225187Y369597D01*
X227402Y370515D01*
X229798Y370515D01*
X232013Y369597D01*
X233873Y367737D01*
X233893Y367721D01*
X233910Y367701D01*
X234030Y367613D01*
X234146Y367521D01*
X234170Y367510D01*
X234191Y367494D01*
X234327Y367435D01*
X234461Y367372D01*
X234487Y367366D01*
X234511Y367356D01*
X234657Y367330D01*
X234802Y367298D01*
X234828Y367299D01*
X234854Y367294D01*
X235002Y367302D01*
X235150Y367304D01*
X235176Y367311D01*
X235202Y367312D01*
X235344Y367353D01*
X235488Y367389D01*
X235511Y367401D01*
X235537Y367409D01*
X235666Y367481D01*
X235798Y367549D01*
X235818Y367566D01*
X235841Y367579D01*
X236027Y367737D01*
X237887Y369597D01*
X240102Y370515D01*
X242498Y370515D01*
X244713Y369597D01*
X245341Y368969D01*
X245440Y368890D01*
X245534Y368806D01*
X245577Y368782D01*
X245614Y368752D01*
X245729Y368698D01*
X245839Y368637D01*
X245886Y368624D01*
X245929Y368603D01*
X246053Y368577D01*
X246175Y368542D01*
X246235Y368537D01*
X246270Y368530D01*
X246318Y368531D01*
X246418Y368523D01*
X310280Y368523D01*
X342632Y336171D01*
X342731Y336092D01*
X342825Y336008D01*
X342867Y335984D01*
X342905Y335954D01*
X343019Y335900D01*
X343130Y335839D01*
X343177Y335826D01*
X343220Y335805D01*
X343344Y335779D01*
X343466Y335744D01*
X343526Y335739D01*
X343561Y335732D01*
X343609Y335733D01*
X343709Y335725D01*
X343999Y335725D01*
X346030Y334884D01*
X347584Y333330D01*
X348425Y331299D01*
X348425Y331009D01*
X348427Y330989D01*
X348426Y330971D01*
X348439Y330878D01*
X348446Y330758D01*
X348459Y330711D01*
X348465Y330663D01*
X348477Y330629D01*
X348477Y330626D01*
X348484Y330609D01*
X348507Y330544D01*
X348542Y330423D01*
X348566Y330381D01*
X348582Y330335D01*
X348651Y330229D01*
X348712Y330119D01*
X348752Y330072D01*
X348771Y330042D01*
X348806Y330009D01*
X348871Y329932D01*
X354284Y324519D01*
X357093Y321710D01*
X357093Y279161D01*
X357107Y279036D01*
X357114Y278910D01*
X357127Y278863D01*
X357133Y278815D01*
X357175Y278696D01*
X357210Y278575D01*
X357234Y278533D01*
X357250Y278487D01*
X357319Y278381D01*
X357380Y278271D01*
X357420Y278224D01*
X357439Y278194D01*
X357474Y278161D01*
X357539Y278084D01*
X364444Y271179D01*
X364543Y271100D01*
X364637Y271016D01*
X364679Y270992D01*
X364717Y270962D01*
X364831Y270908D01*
X364942Y270847D01*
X364989Y270834D01*
X365032Y270813D01*
X365156Y270787D01*
X365278Y270752D01*
X365338Y270747D01*
X365373Y270740D01*
X365421Y270741D01*
X365521Y270733D01*
X400450Y270733D01*
X438768Y232416D01*
X438885Y232322D01*
X439000Y232225D01*
X439022Y232214D01*
X439041Y232199D01*
X439177Y232135D01*
X439310Y232066D01*
X439334Y232060D01*
X439356Y232050D01*
X439503Y232018D01*
X439649Y231982D01*
X439673Y231982D01*
X439696Y231977D01*
X439846Y231979D01*
X439997Y231977D01*
X440021Y231982D01*
X440045Y231983D01*
X440190Y232019D01*
X440337Y232051D01*
X440359Y232062D01*
X440383Y232068D01*
X440517Y232137D01*
X440652Y232201D01*
X440671Y232216D01*
X440693Y232227D01*
X440807Y232325D01*
X440925Y232418D01*
X440940Y232437D01*
X440958Y232453D01*
X441047Y232574D01*
X441141Y232692D01*
X441154Y232718D01*
X441165Y232733D01*
X441184Y232777D01*
X441252Y232910D01*
X441933Y234553D01*
X443627Y236247D01*
X445842Y237165D01*
X448238Y237165D01*
X450453Y236247D01*
X452147Y234553D01*
X453065Y232338D01*
X453065Y229942D01*
X452147Y227727D01*
X450453Y226033D01*
X448810Y225352D01*
X448679Y225279D01*
X448545Y225210D01*
X448526Y225194D01*
X448505Y225183D01*
X448394Y225082D01*
X448279Y224984D01*
X448265Y224965D01*
X448247Y224948D01*
X448161Y224825D01*
X448072Y224704D01*
X448063Y224682D01*
X448049Y224662D01*
X447994Y224522D01*
X447934Y224384D01*
X447930Y224360D01*
X447921Y224338D01*
X447899Y224189D01*
X447872Y224041D01*
X447874Y224017D01*
X447870Y223993D01*
X447883Y223843D01*
X447890Y223693D01*
X447897Y223670D01*
X447899Y223645D01*
X447945Y223502D01*
X447987Y223358D01*
X447999Y223337D01*
X448006Y223314D01*
X448084Y223185D01*
X448157Y223054D01*
X448176Y223032D01*
X448186Y223015D01*
X448219Y222981D01*
X448316Y222868D01*
X456153Y215030D01*
X456153Y125330D01*
X391560Y60737D01*
X320323Y60737D01*
X320224Y60726D01*
X320123Y60724D01*
X320051Y60706D01*
X319977Y60697D01*
X319882Y60664D01*
X319785Y60639D01*
X319719Y60605D01*
X319649Y60580D01*
X319565Y60525D01*
X319475Y60479D01*
X319419Y60431D01*
X319356Y60391D01*
X319286Y60319D01*
X319210Y60254D01*
X319166Y60194D01*
X319114Y60140D01*
X319062Y60054D01*
X319003Y59973D01*
X318973Y59905D01*
X318935Y59841D01*
X318905Y59746D01*
X318865Y59653D01*
X318852Y59580D01*
X318829Y59509D01*
X318821Y59409D01*
X318803Y59310D01*
X318807Y59236D01*
X318801Y59162D01*
X318816Y59063D01*
X318821Y58962D01*
X318842Y58891D01*
X318853Y58817D01*
X318890Y58724D01*
X318918Y58627D01*
X318954Y58562D01*
X318981Y58493D01*
X319039Y58411D01*
X319088Y58323D01*
X319153Y58247D01*
X319180Y58207D01*
X319207Y58183D01*
X319246Y58137D01*
X319644Y57739D01*
X320485Y55709D01*
X320485Y53511D01*
X319644Y51480D01*
X318090Y49926D01*
X316059Y49085D01*
X313861Y49085D01*
X311830Y49926D01*
X310276Y51480D01*
X309435Y53511D01*
X309435Y55709D01*
X309463Y55775D01*
X309477Y55824D01*
X309498Y55869D01*
X309524Y55990D01*
X309558Y56110D01*
X309561Y56161D01*
X309571Y56210D01*
X309569Y56334D01*
X309575Y56458D01*
X309566Y56508D01*
X309565Y56558D01*
X309535Y56679D01*
X309513Y56801D01*
X309493Y56847D01*
X309480Y56896D01*
X309423Y57007D01*
X309374Y57121D01*
X309344Y57161D01*
X309321Y57206D01*
X309240Y57301D01*
X309166Y57400D01*
X309128Y57433D01*
X309095Y57471D01*
X308995Y57545D01*
X308900Y57626D01*
X308855Y57649D01*
X308815Y57679D01*
X308701Y57728D01*
X308590Y57784D01*
X308541Y57797D01*
X308495Y57817D01*
X308372Y57839D01*
X308252Y57869D01*
X308201Y57869D01*
X308152Y57878D01*
X308028Y57872D01*
X307903Y57874D01*
X307854Y57863D01*
X307804Y57860D01*
X307684Y57826D01*
X307563Y57799D01*
X307517Y57778D01*
X307469Y57764D01*
X307360Y57703D01*
X307248Y57650D01*
X307209Y57618D01*
X307165Y57594D01*
X306978Y57435D01*
X290451Y40908D01*
X290372Y40809D01*
X290288Y40715D01*
X290264Y40673D01*
X290234Y40635D01*
X290180Y40521D01*
X290119Y40410D01*
X290106Y40363D01*
X290085Y40320D01*
X290059Y40196D01*
X290024Y40074D01*
X290019Y40014D01*
X290012Y39979D01*
X290013Y39931D01*
X290005Y39831D01*
X290005Y39541D01*
X289673Y38741D01*
X289659Y38692D01*
X289638Y38647D01*
X289612Y38525D01*
X289578Y38406D01*
X289575Y38355D01*
X289564Y38306D01*
X289567Y38182D01*
X289561Y38058D01*
X289570Y38008D01*
X289570Y37958D01*
X289601Y37837D01*
X289623Y37715D01*
X289643Y37668D01*
X289656Y37620D01*
X289712Y37509D01*
X289762Y37395D01*
X289792Y37355D01*
X289815Y37310D01*
X289896Y37215D01*
X289970Y37115D01*
X290008Y37083D01*
X290041Y37044D01*
X290141Y36971D01*
X290236Y36890D01*
X290281Y36867D01*
X290321Y36837D01*
X290435Y36788D01*
X290546Y36731D01*
X290595Y36719D01*
X290641Y36699D01*
X290764Y36677D01*
X290884Y36647D01*
X290935Y36647D01*
X290984Y36638D01*
X291108Y36644D01*
X291233Y36642D01*
X291282Y36653D01*
X291332Y36656D01*
X291451Y36690D01*
X291573Y36716D01*
X291619Y36738D01*
X291667Y36752D01*
X291776Y36813D01*
X291888Y36866D01*
X291927Y36898D01*
X291971Y36922D01*
X292158Y37081D01*
X292781Y37704D01*
X294811Y38545D01*
X297009Y38545D01*
X299040Y37704D01*
X300594Y36150D01*
X301435Y34119D01*
X301435Y31921D01*
X300594Y29890D01*
X299040Y28336D01*
X297009Y27495D01*
X294811Y27495D01*
X294120Y27782D01*
X292780Y28336D01*
X291226Y29890D01*
X290385Y31921D01*
X290385Y34119D01*
X290717Y34919D01*
X290731Y34968D01*
X290752Y35013D01*
X290778Y35135D01*
X290812Y35254D01*
X290815Y35305D01*
X290826Y35354D01*
X290823Y35478D01*
X290829Y35602D01*
X290820Y35652D01*
X290820Y35702D01*
X290789Y35823D01*
X290767Y35945D01*
X290747Y35992D01*
X290734Y36040D01*
X290678Y36151D01*
X290628Y36265D01*
X290598Y36305D01*
X290575Y36350D01*
X290494Y36445D01*
X290420Y36545D01*
X290382Y36577D01*
X290349Y36616D01*
X290249Y36689D01*
X290154Y36770D01*
X290109Y36793D01*
X290069Y36823D01*
X289955Y36872D01*
X289844Y36929D01*
X289795Y36941D01*
X289749Y36961D01*
X289626Y36983D01*
X289506Y37013D01*
X289455Y37013D01*
X289406Y37022D01*
X289282Y37016D01*
X289157Y37018D01*
X289108Y37007D01*
X289058Y37004D01*
X288939Y36970D01*
X288817Y36944D01*
X288771Y36922D01*
X288723Y36908D01*
X288614Y36847D01*
X288502Y36794D01*
X288463Y36762D01*
X288419Y36738D01*
X288232Y36579D01*
X287609Y35956D01*
X285579Y35115D01*
X284212Y35115D01*
X284086Y35101D01*
X283960Y35094D01*
X283914Y35081D01*
X283866Y35075D01*
X283747Y35033D01*
X283625Y34998D01*
X283583Y34974D01*
X283537Y34958D01*
X283431Y34889D01*
X283321Y34828D01*
X283275Y34788D01*
X283245Y34769D01*
X283211Y34734D01*
X283135Y34669D01*
X271865Y23399D01*
X207726Y23399D01*
X207600Y23385D01*
X207474Y23378D01*
X207428Y23365D01*
X207380Y23359D01*
X207261Y23317D01*
X207139Y23282D01*
X207097Y23258D01*
X207051Y23242D01*
X206945Y23173D01*
X206835Y23112D01*
X206789Y23072D01*
X206759Y23053D01*
X206725Y23018D01*
X206649Y22953D01*
X205361Y21665D01*
X205282Y21566D01*
X205198Y21472D01*
X205174Y21430D01*
X205144Y21392D01*
X205090Y21278D01*
X205029Y21167D01*
X205016Y21121D01*
X204995Y21077D01*
X204969Y20954D01*
X204934Y20832D01*
X204929Y20771D01*
X204922Y20737D01*
X204923Y20689D01*
X204915Y20588D01*
X204915Y19221D01*
X204074Y17190D01*
X202520Y15636D01*
X200489Y14795D01*
X198291Y14795D01*
G37*
%LPD*%
%LPC*%
G36*
X309260Y147979D02*
X309260Y147979D01*
X305768Y149426D01*
X303096Y152098D01*
X301649Y155590D01*
X301649Y159370D01*
X301823Y159790D01*
X301837Y159838D01*
X301859Y159884D01*
X301885Y160005D01*
X301919Y160125D01*
X301921Y160175D01*
X301932Y160224D01*
X301930Y160349D01*
X301936Y160473D01*
X301927Y160522D01*
X301926Y160573D01*
X301896Y160694D01*
X301873Y160816D01*
X301853Y160862D01*
X301841Y160911D01*
X301784Y161021D01*
X301734Y161135D01*
X301704Y161176D01*
X301681Y161221D01*
X301601Y161315D01*
X301527Y161415D01*
X301488Y161448D01*
X301455Y161486D01*
X301356Y161560D01*
X301261Y161640D01*
X301216Y161663D01*
X301175Y161693D01*
X301061Y161742D01*
X300950Y161799D01*
X300901Y161811D01*
X300855Y161831D01*
X300732Y161853D01*
X300612Y161883D01*
X300562Y161884D01*
X300512Y161893D01*
X300388Y161886D01*
X300264Y161888D01*
X300214Y161877D01*
X300164Y161875D01*
X300045Y161840D01*
X299923Y161814D01*
X299878Y161792D01*
X299829Y161778D01*
X299721Y161718D01*
X299608Y161664D01*
X299569Y161633D01*
X299525Y161608D01*
X299397Y161499D01*
X296717Y160389D01*
X293833Y160389D01*
X291168Y161493D01*
X289128Y163533D01*
X288024Y166198D01*
X288024Y169082D01*
X289128Y171747D01*
X290618Y173237D01*
X290649Y173276D01*
X290686Y173310D01*
X290757Y173412D01*
X290834Y173510D01*
X290856Y173555D01*
X290885Y173597D01*
X290930Y173713D01*
X290983Y173825D01*
X290994Y173874D01*
X291012Y173921D01*
X291031Y174044D01*
X291057Y174166D01*
X291056Y174216D01*
X291063Y174266D01*
X291053Y174390D01*
X291051Y174514D01*
X291038Y174563D01*
X291034Y174613D01*
X290996Y174732D01*
X290966Y174852D01*
X290943Y174897D01*
X290927Y174945D01*
X290863Y175051D01*
X290806Y175162D01*
X290774Y175200D01*
X290747Y175243D01*
X290661Y175333D01*
X290580Y175427D01*
X290540Y175457D01*
X290505Y175493D01*
X290400Y175561D01*
X290300Y175634D01*
X290254Y175654D01*
X290211Y175682D01*
X290094Y175723D01*
X289980Y175772D01*
X289930Y175781D01*
X289883Y175798D01*
X289759Y175812D01*
X289637Y175834D01*
X289587Y175832D01*
X289537Y175837D01*
X289413Y175823D01*
X289289Y175816D01*
X289241Y175802D01*
X289190Y175796D01*
X288958Y175721D01*
X288954Y175720D01*
X286370Y174649D01*
X282590Y174649D01*
X280447Y175537D01*
X279098Y176096D01*
X276426Y178768D01*
X274979Y182260D01*
X274979Y186040D01*
X276426Y189532D01*
X279098Y192204D01*
X282590Y193651D01*
X286370Y193651D01*
X287874Y193028D01*
X287922Y193014D01*
X287968Y192992D01*
X288089Y192966D01*
X288209Y192932D01*
X288259Y192930D01*
X288308Y192919D01*
X288433Y192921D01*
X288557Y192915D01*
X288606Y192924D01*
X288657Y192925D01*
X288777Y192955D01*
X288900Y192978D01*
X288946Y192998D01*
X288995Y193010D01*
X289105Y193067D01*
X289219Y193117D01*
X289260Y193147D01*
X289305Y193170D01*
X289399Y193250D01*
X289499Y193324D01*
X289532Y193363D01*
X289570Y193396D01*
X289644Y193496D01*
X289724Y193590D01*
X289747Y193635D01*
X289777Y193676D01*
X289826Y193790D01*
X289883Y193901D01*
X289895Y193950D01*
X289915Y193996D01*
X289937Y194118D01*
X289967Y194239D01*
X289968Y194289D01*
X289977Y194339D01*
X289970Y194463D01*
X289972Y194587D01*
X289962Y194637D01*
X289959Y194687D01*
X289924Y194806D01*
X289898Y194928D01*
X289876Y194973D01*
X289862Y195022D01*
X289802Y195130D01*
X289748Y195243D01*
X289717Y195282D01*
X289692Y195326D01*
X289534Y195512D01*
X289128Y195918D01*
X288024Y198583D01*
X288024Y201467D01*
X289128Y204132D01*
X291168Y206172D01*
X293833Y207276D01*
X296717Y207276D01*
X299382Y206172D01*
X299788Y205766D01*
X299827Y205735D01*
X299861Y205698D01*
X299964Y205627D01*
X300061Y205550D01*
X300106Y205528D01*
X300148Y205500D01*
X300264Y205454D01*
X300376Y205401D01*
X300425Y205390D01*
X300472Y205372D01*
X300595Y205353D01*
X300717Y205327D01*
X300767Y205328D01*
X300817Y205321D01*
X300941Y205331D01*
X301065Y205333D01*
X301114Y205346D01*
X301164Y205350D01*
X301282Y205388D01*
X301403Y205418D01*
X301448Y205441D01*
X301496Y205457D01*
X301602Y205521D01*
X301713Y205578D01*
X301751Y205611D01*
X301794Y205637D01*
X301884Y205723D01*
X301978Y205804D01*
X302008Y205844D01*
X302044Y205879D01*
X302112Y205984D01*
X302185Y206084D01*
X302205Y206130D01*
X302233Y206173D01*
X302274Y206290D01*
X302323Y206404D01*
X302332Y206454D01*
X302349Y206501D01*
X302363Y206625D01*
X302385Y206747D01*
X302383Y206797D01*
X302388Y206847D01*
X302374Y206971D01*
X302367Y207095D01*
X302353Y207144D01*
X302347Y207194D01*
X302272Y207426D01*
X301649Y208930D01*
X301649Y212710D01*
X303096Y216202D01*
X305768Y218874D01*
X309260Y220321D01*
X313040Y220321D01*
X313959Y219940D01*
X316532Y218874D01*
X319204Y216202D01*
X320651Y212710D01*
X320651Y208930D01*
X319579Y206342D01*
X319565Y206294D01*
X319543Y206248D01*
X319517Y206127D01*
X319483Y206007D01*
X319481Y205957D01*
X319470Y205908D01*
X319472Y205783D01*
X319466Y205659D01*
X319475Y205610D01*
X319476Y205559D01*
X319506Y205438D01*
X319529Y205316D01*
X319549Y205270D01*
X319561Y205221D01*
X319618Y205110D01*
X319668Y204997D01*
X319698Y204956D01*
X319721Y204911D01*
X319801Y204817D01*
X319875Y204717D01*
X319914Y204684D01*
X319947Y204646D01*
X320047Y204572D01*
X320141Y204492D01*
X320186Y204469D01*
X320227Y204439D01*
X320341Y204390D01*
X320452Y204333D01*
X320501Y204321D01*
X320547Y204301D01*
X320669Y204279D01*
X320790Y204249D01*
X320840Y204248D01*
X320890Y204239D01*
X321014Y204246D01*
X321138Y204244D01*
X321188Y204254D01*
X321238Y204257D01*
X321357Y204292D01*
X321479Y204318D01*
X321524Y204340D01*
X321573Y204354D01*
X321681Y204414D01*
X321794Y204468D01*
X321833Y204499D01*
X321877Y204524D01*
X322063Y204682D01*
X323553Y206172D01*
X326218Y207276D01*
X329102Y207276D01*
X331767Y206172D01*
X333807Y204132D01*
X334911Y201467D01*
X334911Y198583D01*
X333802Y195907D01*
X333782Y195888D01*
X333711Y195786D01*
X333634Y195688D01*
X333612Y195643D01*
X333584Y195601D01*
X333538Y195486D01*
X333485Y195373D01*
X333474Y195324D01*
X333456Y195277D01*
X333438Y195154D01*
X333411Y195033D01*
X333412Y194982D01*
X333405Y194932D01*
X333415Y194808D01*
X333417Y194684D01*
X333430Y194635D01*
X333434Y194585D01*
X333472Y194467D01*
X333502Y194346D01*
X333525Y194301D01*
X333541Y194253D01*
X333605Y194147D01*
X333662Y194036D01*
X333695Y193998D01*
X333721Y193955D01*
X333807Y193865D01*
X333888Y193771D01*
X333928Y193741D01*
X333963Y193705D01*
X334068Y193638D01*
X334168Y193564D01*
X334214Y193544D01*
X334257Y193516D01*
X334374Y193475D01*
X334488Y193426D01*
X334538Y193417D01*
X334585Y193400D01*
X334709Y193386D01*
X334831Y193364D01*
X334881Y193367D01*
X334931Y193361D01*
X335055Y193375D01*
X335179Y193382D01*
X335228Y193396D01*
X335278Y193402D01*
X335510Y193477D01*
X335930Y193651D01*
X339710Y193651D01*
X343202Y192204D01*
X345874Y189532D01*
X347321Y186040D01*
X347321Y182260D01*
X345874Y178768D01*
X343202Y176096D01*
X339710Y174649D01*
X335930Y174649D01*
X333342Y175721D01*
X333294Y175735D01*
X333248Y175757D01*
X333127Y175783D01*
X333007Y175817D01*
X332957Y175819D01*
X332908Y175830D01*
X332783Y175828D01*
X332659Y175834D01*
X332610Y175825D01*
X332559Y175824D01*
X332439Y175794D01*
X332316Y175771D01*
X332270Y175751D01*
X332221Y175739D01*
X332110Y175682D01*
X331997Y175632D01*
X331956Y175602D01*
X331911Y175579D01*
X331817Y175499D01*
X331717Y175425D01*
X331684Y175386D01*
X331646Y175353D01*
X331572Y175253D01*
X331492Y175159D01*
X331469Y175114D01*
X331439Y175073D01*
X331390Y174959D01*
X331333Y174848D01*
X331321Y174799D01*
X331301Y174753D01*
X331279Y174631D01*
X331249Y174510D01*
X331248Y174460D01*
X331239Y174410D01*
X331246Y174286D01*
X331244Y174162D01*
X331254Y174112D01*
X331257Y174062D01*
X331292Y173943D01*
X331318Y173821D01*
X331340Y173776D01*
X331354Y173727D01*
X331414Y173619D01*
X331468Y173506D01*
X331499Y173467D01*
X331524Y173423D01*
X331682Y173237D01*
X333172Y171747D01*
X334276Y169082D01*
X334276Y166198D01*
X333172Y163533D01*
X331132Y161493D01*
X328467Y160389D01*
X325583Y160389D01*
X322907Y161498D01*
X322888Y161518D01*
X322786Y161589D01*
X322688Y161666D01*
X322643Y161688D01*
X322601Y161716D01*
X322486Y161762D01*
X322373Y161815D01*
X322324Y161826D01*
X322277Y161844D01*
X322154Y161862D01*
X322033Y161889D01*
X321982Y161888D01*
X321932Y161895D01*
X321808Y161885D01*
X321684Y161883D01*
X321635Y161870D01*
X321585Y161866D01*
X321467Y161828D01*
X321346Y161798D01*
X321301Y161775D01*
X321253Y161759D01*
X321147Y161695D01*
X321036Y161638D01*
X320998Y161605D01*
X320955Y161579D01*
X320865Y161493D01*
X320771Y161412D01*
X320741Y161372D01*
X320705Y161337D01*
X320638Y161232D01*
X320564Y161132D01*
X320544Y161086D01*
X320516Y161043D01*
X320475Y160926D01*
X320426Y160812D01*
X320417Y160762D01*
X320400Y160715D01*
X320386Y160591D01*
X320364Y160469D01*
X320367Y160419D01*
X320361Y160369D01*
X320375Y160245D01*
X320382Y160121D01*
X320396Y160072D01*
X320402Y160022D01*
X320477Y159790D01*
X320651Y159370D01*
X320651Y155590D01*
X319204Y152098D01*
X316532Y149426D01*
X313040Y147979D01*
X309260Y147979D01*
G37*
%LPD*%
%LPC*%
G36*
X404349Y7399D02*
X404349Y7399D01*
X395866Y10913D01*
X389373Y17406D01*
X385859Y25889D01*
X385859Y35071D01*
X389373Y43554D01*
X395866Y50047D01*
X404349Y53561D01*
X413531Y53561D01*
X422014Y50047D01*
X428507Y43554D01*
X432021Y35071D01*
X432021Y25889D01*
X428507Y17406D01*
X422014Y10913D01*
X413531Y7399D01*
X404349Y7399D01*
G37*
%LPD*%
%LPC*%
G36*
X480440Y8921D02*
X480440Y8921D01*
X478821Y10540D01*
X478821Y25020D01*
X480440Y26639D01*
X530226Y26639D01*
X531845Y25020D01*
X531845Y10540D01*
X530226Y8921D01*
X480440Y8921D01*
G37*
%LPD*%
%LPC*%
G36*
X53982Y23479D02*
X53982Y23479D01*
X50476Y24932D01*
X47792Y27616D01*
X46339Y31122D01*
X46339Y34918D01*
X47792Y38424D01*
X50476Y41108D01*
X53982Y42561D01*
X57778Y42561D01*
X61284Y41108D01*
X63968Y38424D01*
X65421Y34918D01*
X65421Y31122D01*
X63968Y27616D01*
X61284Y24932D01*
X57778Y23479D01*
X53982Y23479D01*
G37*
%LPD*%
%LPC*%
G36*
X79382Y23479D02*
X79382Y23479D01*
X75876Y24932D01*
X73192Y27616D01*
X71739Y31122D01*
X71739Y34918D01*
X73192Y38424D01*
X75876Y41108D01*
X79382Y42561D01*
X83178Y42561D01*
X86684Y41108D01*
X89368Y38424D01*
X90821Y34918D01*
X90821Y31122D01*
X89368Y27616D01*
X86684Y24932D01*
X83178Y23479D01*
X79382Y23479D01*
G37*
%LPD*%
%LPC*%
G36*
X104782Y23479D02*
X104782Y23479D01*
X101276Y24932D01*
X98592Y27616D01*
X97139Y31122D01*
X97139Y34918D01*
X98592Y38424D01*
X101276Y41108D01*
X104782Y42561D01*
X108578Y42561D01*
X112084Y41108D01*
X114768Y38424D01*
X116221Y34918D01*
X116221Y31122D01*
X114768Y27616D01*
X112084Y24932D01*
X108578Y23479D01*
X104782Y23479D01*
G37*
%LPD*%
%LPC*%
G36*
X104782Y48879D02*
X104782Y48879D01*
X101276Y50332D01*
X98592Y53016D01*
X97139Y56522D01*
X97139Y60318D01*
X98592Y63824D01*
X101276Y66508D01*
X104782Y67961D01*
X108578Y67961D01*
X112084Y66508D01*
X114768Y63824D01*
X116221Y60318D01*
X116221Y56522D01*
X114768Y53016D01*
X112084Y50332D01*
X108578Y48879D01*
X104782Y48879D01*
G37*
%LPD*%
%LPC*%
G36*
X53982Y48879D02*
X53982Y48879D01*
X50476Y50332D01*
X47792Y53016D01*
X46339Y56522D01*
X46339Y60318D01*
X47792Y63824D01*
X50476Y66508D01*
X53982Y67961D01*
X57778Y67961D01*
X61284Y66508D01*
X63968Y63824D01*
X65421Y60318D01*
X65421Y56522D01*
X63968Y53016D01*
X61284Y50332D01*
X57778Y48879D01*
X53982Y48879D01*
G37*
%LPD*%
%LPC*%
G36*
X130182Y23479D02*
X130182Y23479D01*
X126676Y24932D01*
X123992Y27616D01*
X122539Y31122D01*
X122539Y34918D01*
X123992Y38424D01*
X126676Y41108D01*
X130182Y42561D01*
X133978Y42561D01*
X137484Y41108D01*
X140168Y38424D01*
X141621Y34918D01*
X141621Y31122D01*
X140168Y27616D01*
X137484Y24932D01*
X133978Y23479D01*
X130182Y23479D01*
G37*
%LPD*%
%LPC*%
G36*
X155582Y23479D02*
X155582Y23479D01*
X152076Y24932D01*
X149392Y27616D01*
X147939Y31122D01*
X147939Y34918D01*
X149392Y38424D01*
X152076Y41108D01*
X155582Y42561D01*
X159378Y42561D01*
X162884Y41108D01*
X165568Y38424D01*
X167021Y34918D01*
X167021Y31122D01*
X165568Y27616D01*
X162884Y24932D01*
X159378Y23479D01*
X155582Y23479D01*
G37*
%LPD*%
%LPC*%
G36*
X155582Y48879D02*
X155582Y48879D01*
X152076Y50332D01*
X149392Y53016D01*
X147939Y56522D01*
X147939Y60318D01*
X149392Y63824D01*
X152076Y66508D01*
X155582Y67961D01*
X159378Y67961D01*
X162884Y66508D01*
X165568Y63824D01*
X167021Y60318D01*
X167021Y56522D01*
X165568Y53016D01*
X162884Y50332D01*
X159378Y48879D01*
X155582Y48879D01*
G37*
%LPD*%
%LPC*%
G36*
X130182Y48879D02*
X130182Y48879D01*
X126676Y50332D01*
X123992Y53016D01*
X122539Y56522D01*
X122539Y60318D01*
X123992Y63824D01*
X126676Y66508D01*
X130182Y67961D01*
X133978Y67961D01*
X137484Y66508D01*
X140168Y63824D01*
X141621Y60318D01*
X141621Y56522D01*
X140168Y53016D01*
X137484Y50332D01*
X133978Y48879D01*
X130182Y48879D01*
G37*
%LPD*%
%LPC*%
G36*
X564051Y172275D02*
X564051Y172275D01*
X562020Y173116D01*
X560466Y174670D01*
X559625Y176701D01*
X559625Y178899D01*
X560466Y180930D01*
X562020Y182484D01*
X564051Y183325D01*
X564645Y183325D01*
X564745Y183336D01*
X564845Y183338D01*
X564917Y183356D01*
X564991Y183365D01*
X565085Y183398D01*
X565183Y183423D01*
X565249Y183457D01*
X565319Y183482D01*
X565403Y183537D01*
X565493Y183583D01*
X565549Y183631D01*
X565612Y183671D01*
X565682Y183743D01*
X565758Y183808D01*
X565802Y183868D01*
X565854Y183922D01*
X565906Y184008D01*
X565965Y184089D01*
X565995Y184157D01*
X566033Y184221D01*
X566063Y184317D01*
X566103Y184409D01*
X566116Y184482D01*
X566139Y184553D01*
X566147Y184653D01*
X566165Y184752D01*
X566161Y184826D01*
X566167Y184900D01*
X566152Y185000D01*
X566147Y185100D01*
X566126Y185171D01*
X566115Y185245D01*
X566078Y185338D01*
X566050Y185435D01*
X566014Y185500D01*
X565987Y185569D01*
X565929Y185651D01*
X565880Y185739D01*
X565815Y185815D01*
X565788Y185855D01*
X565761Y185879D01*
X565722Y185925D01*
X564276Y187371D01*
X563435Y189401D01*
X563435Y191599D01*
X564276Y193630D01*
X565830Y195184D01*
X567861Y196025D01*
X570059Y196025D01*
X572090Y195184D01*
X573644Y193630D01*
X574485Y191599D01*
X574485Y189401D01*
X573644Y187370D01*
X572090Y185816D01*
X570059Y184975D01*
X569465Y184975D01*
X569365Y184964D01*
X569265Y184962D01*
X569193Y184944D01*
X569119Y184935D01*
X569025Y184902D01*
X568927Y184877D01*
X568861Y184843D01*
X568791Y184818D01*
X568707Y184763D01*
X568617Y184717D01*
X568561Y184669D01*
X568498Y184629D01*
X568428Y184557D01*
X568352Y184492D01*
X568308Y184432D01*
X568256Y184378D01*
X568204Y184292D01*
X568145Y184211D01*
X568115Y184143D01*
X568077Y184079D01*
X568047Y183983D01*
X568007Y183891D01*
X567994Y183818D01*
X567971Y183747D01*
X567963Y183647D01*
X567945Y183548D01*
X567949Y183474D01*
X567943Y183400D01*
X567958Y183300D01*
X567963Y183200D01*
X567984Y183129D01*
X567995Y183055D01*
X568032Y182962D01*
X568060Y182865D01*
X568096Y182800D01*
X568123Y182731D01*
X568181Y182649D01*
X568230Y182561D01*
X568295Y182485D01*
X568322Y182445D01*
X568349Y182421D01*
X568388Y182375D01*
X569834Y180929D01*
X570675Y178899D01*
X570675Y176701D01*
X569834Y174670D01*
X568280Y173116D01*
X566249Y172275D01*
X564051Y172275D01*
G37*
%LPD*%
%LPC*%
G36*
X633802Y165425D02*
X633802Y165425D01*
X631587Y166343D01*
X629893Y168037D01*
X628975Y170252D01*
X628975Y172648D01*
X629893Y174863D01*
X631587Y176557D01*
X633802Y177475D01*
X636198Y177475D01*
X638413Y176557D01*
X640107Y174863D01*
X641025Y172648D01*
X641025Y170252D01*
X640107Y168037D01*
X638413Y166343D01*
X636198Y165425D01*
X633802Y165425D01*
G37*
%LPD*%
%LPC*%
G36*
X36902Y349575D02*
X36902Y349575D01*
X34687Y350493D01*
X32993Y352187D01*
X32075Y354402D01*
X32075Y356798D01*
X32993Y359013D01*
X34687Y360707D01*
X36902Y361625D01*
X39298Y361625D01*
X41513Y360707D01*
X43207Y359013D01*
X44125Y356798D01*
X44125Y354402D01*
X43207Y352187D01*
X41513Y350493D01*
X39298Y349575D01*
X36902Y349575D01*
G37*
%LPD*%
%LPC*%
G36*
X633802Y146375D02*
X633802Y146375D01*
X631587Y147293D01*
X629893Y148987D01*
X628975Y151202D01*
X628975Y153598D01*
X629893Y155813D01*
X631587Y157507D01*
X633802Y158425D01*
X636198Y158425D01*
X638413Y157507D01*
X640107Y155813D01*
X641025Y153598D01*
X641025Y151202D01*
X640107Y148987D01*
X638413Y147293D01*
X636198Y146375D01*
X633802Y146375D01*
G37*
%LPD*%
%LPC*%
G36*
X38172Y133675D02*
X38172Y133675D01*
X35957Y134593D01*
X34263Y136287D01*
X33345Y138502D01*
X33345Y140898D01*
X34263Y143113D01*
X35957Y144807D01*
X38172Y145725D01*
X40568Y145725D01*
X42783Y144807D01*
X44477Y143113D01*
X45395Y140898D01*
X45395Y138502D01*
X44477Y136287D01*
X42783Y134593D01*
X40568Y133675D01*
X38172Y133675D01*
G37*
%LPD*%
%LPC*%
G36*
X575382Y131135D02*
X575382Y131135D01*
X573167Y132053D01*
X571473Y133747D01*
X570555Y135962D01*
X570555Y138358D01*
X571473Y140573D01*
X573167Y142267D01*
X575382Y143185D01*
X577778Y143185D01*
X579993Y142267D01*
X581687Y140573D01*
X582605Y138358D01*
X582605Y135962D01*
X581687Y133747D01*
X579993Y132053D01*
X577778Y131135D01*
X575382Y131135D01*
G37*
%LPD*%
%LPC*%
G36*
X17852Y128595D02*
X17852Y128595D01*
X15637Y129513D01*
X13943Y131207D01*
X13025Y133422D01*
X13025Y135818D01*
X13943Y138033D01*
X15637Y139727D01*
X17852Y140645D01*
X20248Y140645D01*
X22463Y139727D01*
X24157Y138033D01*
X25075Y135818D01*
X25075Y133422D01*
X24157Y131207D01*
X22463Y129513D01*
X20248Y128595D01*
X17852Y128595D01*
G37*
%LPD*%
%LPC*%
G36*
X608402Y114625D02*
X608402Y114625D01*
X606187Y115543D01*
X604493Y117237D01*
X603575Y119452D01*
X603575Y121848D01*
X604493Y124063D01*
X606187Y125757D01*
X608402Y126675D01*
X610798Y126675D01*
X613013Y125757D01*
X614707Y124063D01*
X615625Y121848D01*
X615625Y119452D01*
X614707Y117237D01*
X613013Y115543D01*
X610798Y114625D01*
X608402Y114625D01*
G37*
%LPD*%
%LPC*%
G36*
X541092Y314015D02*
X541092Y314015D01*
X538877Y314933D01*
X537183Y316627D01*
X536265Y318842D01*
X536265Y321238D01*
X537183Y323453D01*
X538877Y325147D01*
X541092Y326065D01*
X543488Y326065D01*
X545703Y325147D01*
X547397Y323453D01*
X548315Y321238D01*
X548315Y318842D01*
X547397Y316627D01*
X545703Y314933D01*
X543488Y314015D01*
X541092Y314015D01*
G37*
%LPD*%
%LPC*%
G36*
X560142Y307665D02*
X560142Y307665D01*
X557927Y308583D01*
X556233Y310277D01*
X555315Y312492D01*
X555315Y314888D01*
X556233Y317103D01*
X557927Y318797D01*
X560142Y319715D01*
X562538Y319715D01*
X564753Y318797D01*
X566447Y317103D01*
X567365Y314888D01*
X567365Y312492D01*
X566447Y310277D01*
X564753Y308583D01*
X562538Y307665D01*
X560142Y307665D01*
G37*
%LPD*%
%LPC*%
G36*
X143582Y306395D02*
X143582Y306395D01*
X141367Y307313D01*
X139673Y309007D01*
X138755Y311222D01*
X138755Y313618D01*
X139673Y315833D01*
X141367Y317527D01*
X143582Y318445D01*
X145978Y318445D01*
X148193Y317527D01*
X149887Y315833D01*
X150805Y313618D01*
X150805Y311222D01*
X149887Y309007D01*
X148193Y307313D01*
X145978Y306395D01*
X143582Y306395D01*
G37*
%LPD*%
%LPC*%
G36*
X588082Y301315D02*
X588082Y301315D01*
X585867Y302233D01*
X584173Y303927D01*
X583255Y306142D01*
X583255Y308538D01*
X584173Y310753D01*
X585867Y312447D01*
X588082Y313365D01*
X590478Y313365D01*
X592693Y312447D01*
X594387Y310753D01*
X595305Y308538D01*
X595305Y306142D01*
X594387Y303927D01*
X592693Y302233D01*
X590478Y301315D01*
X588082Y301315D01*
G37*
%LPD*%
%LPC*%
G36*
X49602Y298775D02*
X49602Y298775D01*
X47387Y299693D01*
X45693Y301387D01*
X44775Y303602D01*
X44775Y305998D01*
X45693Y308213D01*
X47387Y309907D01*
X49602Y310825D01*
X51998Y310825D01*
X54213Y309907D01*
X55907Y308213D01*
X56825Y305998D01*
X56825Y303602D01*
X55907Y301387D01*
X54213Y299693D01*
X51998Y298775D01*
X49602Y298775D01*
G37*
%LPD*%
%LPC*%
G36*
X75002Y298775D02*
X75002Y298775D01*
X72787Y299693D01*
X71093Y301387D01*
X70175Y303602D01*
X70175Y305998D01*
X71093Y308213D01*
X72787Y309907D01*
X75002Y310825D01*
X77398Y310825D01*
X79613Y309907D01*
X81307Y308213D01*
X82225Y305998D01*
X82225Y303602D01*
X81307Y301387D01*
X79613Y299693D01*
X77398Y298775D01*
X75002Y298775D01*
G37*
%LPD*%
%LPC*%
G36*
X577922Y105735D02*
X577922Y105735D01*
X575707Y106653D01*
X574013Y108347D01*
X573095Y110562D01*
X573095Y112958D01*
X574013Y115173D01*
X575707Y116867D01*
X577922Y117785D01*
X580318Y117785D01*
X582533Y116867D01*
X584227Y115173D01*
X585145Y112958D01*
X585145Y110562D01*
X584227Y108347D01*
X582533Y106653D01*
X580318Y105735D01*
X577922Y105735D01*
G37*
%LPD*%
%LPC*%
G36*
X87702Y286075D02*
X87702Y286075D01*
X85487Y286993D01*
X83793Y288687D01*
X82875Y290902D01*
X82875Y293298D01*
X83793Y295513D01*
X85487Y297207D01*
X87702Y298125D01*
X90098Y298125D01*
X92313Y297207D01*
X94007Y295513D01*
X94925Y293298D01*
X94925Y290902D01*
X94007Y288687D01*
X92313Y286993D01*
X90098Y286075D01*
X87702Y286075D01*
G37*
%LPD*%
%LPC*%
G36*
X62302Y286075D02*
X62302Y286075D01*
X60087Y286993D01*
X58393Y288687D01*
X57475Y290902D01*
X57475Y293298D01*
X58393Y295513D01*
X60087Y297207D01*
X62302Y298125D01*
X64698Y298125D01*
X66913Y297207D01*
X68607Y295513D01*
X69525Y293298D01*
X69525Y290902D01*
X68607Y288687D01*
X66913Y286993D01*
X64698Y286075D01*
X62302Y286075D01*
G37*
%LPD*%
%LPC*%
G36*
X175332Y82875D02*
X175332Y82875D01*
X173117Y83793D01*
X171423Y85487D01*
X170505Y87702D01*
X170505Y90098D01*
X171423Y92313D01*
X173117Y94007D01*
X175332Y94925D01*
X177728Y94925D01*
X179943Y94007D01*
X181637Y92313D01*
X182555Y90098D01*
X182555Y87702D01*
X181637Y85487D01*
X179943Y83793D01*
X177728Y82875D01*
X175332Y82875D01*
G37*
%LPD*%
%LPC*%
G36*
X156282Y280995D02*
X156282Y280995D01*
X154067Y281913D01*
X152373Y283607D01*
X151455Y285822D01*
X151455Y288218D01*
X152373Y290433D01*
X154067Y292127D01*
X156282Y293045D01*
X158678Y293045D01*
X160893Y292127D01*
X162587Y290433D01*
X163505Y288218D01*
X163505Y285822D01*
X162587Y283607D01*
X160893Y281913D01*
X158678Y280995D01*
X156282Y280995D01*
G37*
%LPD*%
%LPC*%
G36*
X184222Y280995D02*
X184222Y280995D01*
X182007Y281913D01*
X180313Y283607D01*
X179395Y285822D01*
X179395Y288218D01*
X180313Y290433D01*
X182007Y292127D01*
X184222Y293045D01*
X186618Y293045D01*
X188833Y292127D01*
X190527Y290433D01*
X191445Y288218D01*
X191445Y285822D01*
X190527Y283607D01*
X188833Y281913D01*
X186618Y280995D01*
X184222Y280995D01*
G37*
%LPD*%
%LPC*%
G36*
X75002Y273375D02*
X75002Y273375D01*
X72787Y274293D01*
X71093Y275987D01*
X70175Y278202D01*
X70175Y280598D01*
X71093Y282813D01*
X72787Y284507D01*
X75002Y285425D01*
X77398Y285425D01*
X79613Y284507D01*
X81307Y282813D01*
X82225Y280598D01*
X82225Y278202D01*
X81307Y275987D01*
X79613Y274293D01*
X77398Y273375D01*
X75002Y273375D01*
G37*
%LPD*%
%LPC*%
G36*
X49602Y82875D02*
X49602Y82875D01*
X47387Y83793D01*
X45693Y85487D01*
X44775Y87702D01*
X44775Y90098D01*
X45693Y92313D01*
X47387Y94007D01*
X49602Y94925D01*
X51998Y94925D01*
X54213Y94007D01*
X55907Y92313D01*
X56825Y90098D01*
X56825Y87702D01*
X55907Y85487D01*
X54213Y83793D01*
X51998Y82875D01*
X49602Y82875D01*
G37*
%LPD*%
%LPC*%
G36*
X549982Y268295D02*
X549982Y268295D01*
X547767Y269213D01*
X546073Y270907D01*
X545155Y273122D01*
X545155Y275518D01*
X546073Y277733D01*
X547767Y279427D01*
X549982Y280345D01*
X552378Y280345D01*
X554593Y279427D01*
X556287Y277733D01*
X557205Y275518D01*
X557205Y273122D01*
X556287Y270907D01*
X554593Y269213D01*
X552378Y268295D01*
X549982Y268295D01*
G37*
%LPD*%
%LPC*%
G36*
X589352Y268295D02*
X589352Y268295D01*
X587137Y269213D01*
X585443Y270907D01*
X584525Y273122D01*
X584525Y275518D01*
X585443Y277733D01*
X587137Y279427D01*
X589352Y280345D01*
X591748Y280345D01*
X593963Y279427D01*
X595657Y277733D01*
X596575Y275518D01*
X596575Y273122D01*
X595657Y270907D01*
X593963Y269213D01*
X591748Y268295D01*
X589352Y268295D01*
G37*
%LPD*%
%LPC*%
G36*
X34362Y82875D02*
X34362Y82875D01*
X32147Y83793D01*
X30453Y85487D01*
X29535Y87702D01*
X29535Y90098D01*
X30453Y92313D01*
X32147Y94007D01*
X34362Y94925D01*
X36758Y94925D01*
X38973Y94007D01*
X40667Y92313D01*
X41585Y90098D01*
X41585Y87702D01*
X40667Y85487D01*
X38973Y83793D01*
X36758Y82875D01*
X34362Y82875D01*
G37*
%LPD*%
%LPC*%
G36*
X19122Y82875D02*
X19122Y82875D01*
X16907Y83793D01*
X15213Y85487D01*
X14295Y87702D01*
X14295Y90098D01*
X15213Y92313D01*
X16907Y94007D01*
X19122Y94925D01*
X21518Y94925D01*
X23733Y94007D01*
X25427Y92313D01*
X26345Y90098D01*
X26345Y87702D01*
X25427Y85487D01*
X23733Y83793D01*
X21518Y82875D01*
X19122Y82875D01*
G37*
%LPD*%
%LPC*%
G36*
X628722Y263215D02*
X628722Y263215D01*
X626507Y264133D01*
X624813Y265827D01*
X623895Y268042D01*
X623895Y270438D01*
X624813Y272653D01*
X626507Y274347D01*
X628722Y275265D01*
X631118Y275265D01*
X633333Y274347D01*
X635027Y272653D01*
X635945Y270438D01*
X635945Y268042D01*
X635027Y265827D01*
X633333Y264133D01*
X631118Y263215D01*
X628722Y263215D01*
G37*
%LPD*%
%LPC*%
G36*
X199462Y245435D02*
X199462Y245435D01*
X197247Y246353D01*
X195553Y248047D01*
X194635Y250262D01*
X194635Y252658D01*
X195553Y254873D01*
X197247Y256567D01*
X199462Y257485D01*
X201858Y257485D01*
X204073Y256567D01*
X205767Y254873D01*
X206685Y252658D01*
X206685Y250262D01*
X205767Y248047D01*
X204073Y246353D01*
X201858Y245435D01*
X199462Y245435D01*
G37*
%LPD*%
%LPC*%
G36*
X130882Y245435D02*
X130882Y245435D01*
X128667Y246353D01*
X126973Y248047D01*
X126055Y250262D01*
X126055Y252658D01*
X126973Y254873D01*
X128667Y256567D01*
X130882Y257485D01*
X133278Y257485D01*
X135493Y256567D01*
X137187Y254873D01*
X138105Y252658D01*
X138105Y250262D01*
X137187Y248047D01*
X135493Y246353D01*
X133278Y245435D01*
X130882Y245435D01*
G37*
%LPD*%
%LPC*%
G36*
X471242Y239720D02*
X471242Y239720D01*
X469027Y240638D01*
X467333Y242332D01*
X466415Y244547D01*
X466415Y246943D01*
X467333Y249158D01*
X469027Y250852D01*
X471242Y251770D01*
X473638Y251770D01*
X475853Y250852D01*
X477547Y249158D01*
X478465Y246943D01*
X478465Y244547D01*
X477547Y242332D01*
X475853Y240638D01*
X473638Y239720D01*
X471242Y239720D01*
G37*
%LPD*%
%LPC*%
G36*
X516962Y232735D02*
X516962Y232735D01*
X514747Y233653D01*
X513053Y235347D01*
X512135Y237562D01*
X512135Y239958D01*
X513053Y242173D01*
X514747Y243867D01*
X516962Y244785D01*
X519358Y244785D01*
X521573Y243867D01*
X523267Y242173D01*
X524185Y239958D01*
X524185Y237562D01*
X523267Y235347D01*
X521573Y233653D01*
X519358Y232735D01*
X516962Y232735D01*
G37*
%LPD*%
%LPC*%
G36*
X465527Y174315D02*
X465527Y174315D01*
X463312Y175233D01*
X461618Y176927D01*
X460700Y179142D01*
X460700Y181538D01*
X461618Y183753D01*
X463312Y185447D01*
X465527Y186365D01*
X467923Y186365D01*
X470138Y185447D01*
X471832Y183753D01*
X472750Y181538D01*
X472750Y179142D01*
X471832Y176927D01*
X470138Y175233D01*
X467923Y174315D01*
X465527Y174315D01*
G37*
%LPD*%
%LPC*%
G36*
X419271Y258635D02*
X419271Y258635D01*
X417629Y259316D01*
X417240Y259476D01*
X415686Y261030D01*
X414845Y263061D01*
X414845Y265259D01*
X415686Y267290D01*
X417240Y268844D01*
X419271Y269685D01*
X421469Y269685D01*
X423500Y268844D01*
X425054Y267290D01*
X425895Y265259D01*
X425895Y263061D01*
X425054Y261030D01*
X423500Y259476D01*
X421469Y258635D01*
X419271Y258635D01*
G37*
%LPD*%
%LPC*%
G36*
X245281Y176085D02*
X245281Y176085D01*
X243250Y176926D01*
X241696Y178480D01*
X240855Y180511D01*
X240855Y182709D01*
X241696Y184740D01*
X243250Y186294D01*
X245281Y187135D01*
X247479Y187135D01*
X249184Y186428D01*
X249510Y186294D01*
X251064Y184740D01*
X251905Y182709D01*
X251905Y180511D01*
X251064Y178480D01*
X249510Y176926D01*
X247479Y176085D01*
X245281Y176085D01*
G37*
%LPD*%
%LPC*%
G36*
X285921Y328485D02*
X285921Y328485D01*
X283890Y329326D01*
X282336Y330880D01*
X281495Y332911D01*
X281495Y335109D01*
X282336Y337140D01*
X283890Y338694D01*
X285921Y339535D01*
X288119Y339535D01*
X290005Y338753D01*
X290150Y338694D01*
X291704Y337140D01*
X292545Y335109D01*
X292545Y332911D01*
X291704Y330880D01*
X290150Y329326D01*
X288119Y328485D01*
X285921Y328485D01*
G37*
%LPD*%
%LPC*%
G36*
X64941Y83375D02*
X64941Y83375D01*
X63090Y84142D01*
X62910Y84216D01*
X61356Y85770D01*
X60515Y87801D01*
X60515Y89999D01*
X61356Y92030D01*
X62910Y93584D01*
X64941Y94425D01*
X67139Y94425D01*
X69170Y93584D01*
X70724Y92030D01*
X71565Y89999D01*
X71565Y87801D01*
X70724Y85770D01*
X69170Y84216D01*
X67139Y83375D01*
X64941Y83375D01*
G37*
%LPD*%
%LPC*%
G36*
X373551Y356425D02*
X373551Y356425D01*
X371520Y357266D01*
X369966Y358820D01*
X369125Y360851D01*
X369125Y363049D01*
X369966Y365080D01*
X371520Y366634D01*
X373551Y367475D01*
X375749Y367475D01*
X377780Y366634D01*
X379334Y365080D01*
X380175Y363049D01*
X380175Y360851D01*
X379334Y358820D01*
X377780Y357266D01*
X375749Y356425D01*
X373551Y356425D01*
G37*
%LPD*%
%LPC*%
G36*
X143681Y350075D02*
X143681Y350075D01*
X141650Y350916D01*
X140096Y352470D01*
X139255Y354501D01*
X139255Y356699D01*
X140096Y358730D01*
X141650Y360284D01*
X143681Y361125D01*
X145879Y361125D01*
X147910Y360284D01*
X149464Y358730D01*
X150305Y356699D01*
X150305Y354501D01*
X149464Y352470D01*
X147910Y350916D01*
X145879Y350075D01*
X143681Y350075D01*
G37*
%LPD*%
%LPC*%
G36*
X224961Y341185D02*
X224961Y341185D01*
X222930Y342026D01*
X221376Y343580D01*
X220535Y345611D01*
X220535Y347809D01*
X221376Y349840D01*
X222930Y351394D01*
X224961Y352235D01*
X227159Y352235D01*
X229190Y351394D01*
X230744Y349840D01*
X231585Y347809D01*
X231585Y345611D01*
X230744Y343580D01*
X229190Y342026D01*
X227159Y341185D01*
X224961Y341185D01*
G37*
%LPD*%
%LPC*%
G36*
X570401Y17335D02*
X570401Y17335D01*
X568370Y18176D01*
X566816Y19730D01*
X565975Y21761D01*
X565975Y23959D01*
X566816Y25990D01*
X568370Y27544D01*
X570401Y28385D01*
X572599Y28385D01*
X574630Y27544D01*
X576184Y25990D01*
X577025Y23959D01*
X577025Y21761D01*
X576184Y19730D01*
X574630Y18176D01*
X572599Y17335D01*
X570401Y17335D01*
G37*
%LPD*%
%LPC*%
G36*
X367201Y324675D02*
X367201Y324675D01*
X365170Y325516D01*
X363616Y327070D01*
X362775Y329101D01*
X362775Y331299D01*
X363616Y333330D01*
X365170Y334884D01*
X367201Y335725D01*
X369399Y335725D01*
X371430Y334884D01*
X372984Y333330D01*
X373825Y331299D01*
X373825Y329101D01*
X372984Y327070D01*
X371430Y325516D01*
X369399Y324675D01*
X367201Y324675D01*
G37*
%LPD*%
%LPC*%
G36*
X552621Y17335D02*
X552621Y17335D01*
X550590Y18176D01*
X549036Y19730D01*
X548195Y21761D01*
X548195Y23959D01*
X549036Y25990D01*
X550590Y27544D01*
X552621Y28385D01*
X554819Y28385D01*
X556850Y27544D01*
X558404Y25990D01*
X559245Y23959D01*
X559245Y21761D01*
X558404Y19730D01*
X556850Y18176D01*
X554819Y17335D01*
X552621Y17335D01*
G37*
%LPD*%
%LPC*%
G36*
X303701Y282765D02*
X303701Y282765D01*
X301670Y283606D01*
X300116Y285160D01*
X299275Y287191D01*
X299275Y289389D01*
X300116Y291420D01*
X301670Y292974D01*
X303701Y293815D01*
X305899Y293815D01*
X307930Y292974D01*
X309484Y291420D01*
X310325Y289389D01*
X310325Y287191D01*
X309484Y285160D01*
X307930Y283606D01*
X305899Y282765D01*
X303701Y282765D01*
G37*
%LPD*%
%LPC*%
G36*
X222421Y271335D02*
X222421Y271335D01*
X220390Y272176D01*
X218836Y273730D01*
X217995Y275761D01*
X217995Y277959D01*
X218836Y279990D01*
X220390Y281544D01*
X222421Y282385D01*
X224619Y282385D01*
X226650Y281544D01*
X228204Y279990D01*
X229045Y277959D01*
X229045Y275761D01*
X228204Y273730D01*
X226650Y272176D01*
X224619Y271335D01*
X222421Y271335D01*
G37*
%LPD*%
%LPC*%
G36*
X34461Y268795D02*
X34461Y268795D01*
X32430Y269636D01*
X30876Y271190D01*
X30035Y273221D01*
X30035Y275419D01*
X30876Y277450D01*
X32430Y279004D01*
X34461Y279845D01*
X36659Y279845D01*
X38690Y279004D01*
X40244Y277450D01*
X41085Y275419D01*
X41085Y273221D01*
X40244Y271190D01*
X38690Y269636D01*
X36659Y268795D01*
X34461Y268795D01*
G37*
%LPD*%
%LPC*%
G36*
X270681Y266255D02*
X270681Y266255D01*
X268650Y267096D01*
X267096Y268650D01*
X266255Y270681D01*
X266255Y272879D01*
X267096Y274910D01*
X268650Y276464D01*
X270681Y277305D01*
X272879Y277305D01*
X274910Y276464D01*
X276464Y274910D01*
X277305Y272879D01*
X277305Y270681D01*
X276464Y268650D01*
X274910Y267096D01*
X272879Y266255D01*
X270681Y266255D01*
G37*
%LPD*%
%LPC*%
G36*
X75101Y131635D02*
X75101Y131635D01*
X73070Y132476D01*
X71516Y134030D01*
X70675Y136061D01*
X70675Y138259D01*
X71516Y140290D01*
X73070Y141844D01*
X75101Y142685D01*
X77299Y142685D01*
X79330Y141844D01*
X80884Y140290D01*
X81725Y138259D01*
X81725Y136061D01*
X80884Y134030D01*
X79330Y132476D01*
X77299Y131635D01*
X75101Y131635D01*
G37*
%LPD*%
%LPC*%
G36*
X133521Y160845D02*
X133521Y160845D01*
X131490Y161686D01*
X129936Y163240D01*
X129095Y165271D01*
X129095Y167469D01*
X129936Y169500D01*
X131490Y171054D01*
X133521Y171895D01*
X135719Y171895D01*
X137750Y171054D01*
X139304Y169500D01*
X140145Y167469D01*
X140145Y165271D01*
X139304Y163240D01*
X137750Y161686D01*
X135719Y160845D01*
X133521Y160845D01*
G37*
%LPD*%
%LPC*%
G36*
X257981Y116395D02*
X257981Y116395D01*
X255950Y117236D01*
X254396Y118790D01*
X253555Y120821D01*
X253555Y123019D01*
X254396Y125050D01*
X255950Y126604D01*
X257981Y127445D01*
X260179Y127445D01*
X262210Y126604D01*
X263764Y125050D01*
X264605Y123019D01*
X264605Y120821D01*
X263764Y118790D01*
X262210Y117236D01*
X260179Y116395D01*
X257981Y116395D01*
G37*
%LPD*%
%LPC*%
G36*
X506901Y153225D02*
X506901Y153225D01*
X504870Y154066D01*
X503316Y155620D01*
X502475Y157651D01*
X502475Y159849D01*
X503316Y161880D01*
X504870Y163434D01*
X506901Y164275D01*
X509099Y164275D01*
X511130Y163434D01*
X512684Y161880D01*
X513525Y159849D01*
X513525Y157651D01*
X512684Y155620D01*
X511130Y154066D01*
X509099Y153225D01*
X506901Y153225D01*
G37*
%LPD*%
%LPC*%
G36*
X160191Y113855D02*
X160191Y113855D01*
X158160Y114696D01*
X156606Y116250D01*
X155765Y118281D01*
X155765Y120479D01*
X156606Y122510D01*
X158160Y124064D01*
X160191Y124905D01*
X162389Y124905D01*
X164420Y124064D01*
X165974Y122510D01*
X166815Y120479D01*
X166815Y118281D01*
X165974Y116250D01*
X164420Y114696D01*
X162389Y113855D01*
X160191Y113855D01*
G37*
%LPD*%
%LPC*%
G36*
X144951Y171005D02*
X144951Y171005D01*
X142920Y171846D01*
X141366Y173400D01*
X140525Y175431D01*
X140525Y177629D01*
X141366Y179660D01*
X142920Y181214D01*
X144951Y182055D01*
X147149Y182055D01*
X149180Y181214D01*
X150734Y179660D01*
X151575Y177629D01*
X151575Y175431D01*
X150734Y173400D01*
X149180Y171846D01*
X147149Y171005D01*
X144951Y171005D01*
G37*
%LPD*%
%LPC*%
G36*
X268141Y89725D02*
X268141Y89725D01*
X266110Y90566D01*
X264556Y92120D01*
X263715Y94151D01*
X263715Y96349D01*
X264556Y98380D01*
X266110Y99934D01*
X268141Y100775D01*
X270339Y100775D01*
X272370Y99934D01*
X273924Y98380D01*
X274765Y96349D01*
X274765Y94151D01*
X273924Y92120D01*
X272370Y90566D01*
X270339Y89725D01*
X268141Y89725D01*
G37*
%LPD*%
%LPC*%
G36*
X365931Y167195D02*
X365931Y167195D01*
X363900Y168036D01*
X362346Y169590D01*
X361505Y171621D01*
X361505Y173819D01*
X362346Y175850D01*
X363900Y177404D01*
X365931Y178245D01*
X368129Y178245D01*
X370160Y177404D01*
X371714Y175850D01*
X372555Y173819D01*
X372555Y171621D01*
X371714Y169590D01*
X370160Y168036D01*
X368129Y167195D01*
X365931Y167195D01*
G37*
%LPD*%
%LPC*%
G36*
X54781Y134175D02*
X54781Y134175D01*
X52750Y135016D01*
X51196Y136570D01*
X50355Y138601D01*
X50355Y140799D01*
X51196Y142830D01*
X52750Y144384D01*
X54781Y145225D01*
X56979Y145225D01*
X59010Y144384D01*
X60564Y142830D01*
X61405Y140799D01*
X61405Y138601D01*
X60564Y136570D01*
X59010Y135016D01*
X56979Y134175D01*
X54781Y134175D01*
G37*
%LPD*%
%LPC*%
G36*
X472611Y93535D02*
X472611Y93535D01*
X470580Y94376D01*
X469026Y95930D01*
X468185Y97961D01*
X468185Y100159D01*
X469026Y102190D01*
X470580Y103744D01*
X472611Y104585D01*
X474809Y104585D01*
X476840Y103744D01*
X478394Y102190D01*
X479235Y100159D01*
X479235Y97961D01*
X478394Y95930D01*
X476840Y94376D01*
X474809Y93535D01*
X472611Y93535D01*
G37*
%LPD*%
%LPC*%
G36*
X233851Y77025D02*
X233851Y77025D01*
X231820Y77866D01*
X230266Y79420D01*
X229425Y81451D01*
X229425Y83649D01*
X230266Y85680D01*
X231820Y87234D01*
X233851Y88075D01*
X236049Y88075D01*
X238080Y87234D01*
X239634Y85680D01*
X240475Y83649D01*
X240475Y81451D01*
X239634Y79420D01*
X238080Y77866D01*
X236049Y77025D01*
X233851Y77025D01*
G37*
%LPD*%
%LPC*%
G36*
X191941Y190055D02*
X191941Y190055D01*
X189910Y190896D01*
X188356Y192450D01*
X187515Y194481D01*
X187515Y196679D01*
X188356Y198710D01*
X189910Y200264D01*
X191941Y201105D01*
X194139Y201105D01*
X196170Y200264D01*
X197724Y198710D01*
X198565Y196679D01*
X198565Y194481D01*
X197724Y192450D01*
X196170Y190896D01*
X194139Y190055D01*
X191941Y190055D01*
G37*
%LPD*%
%LPC*%
G36*
X540831Y204415D02*
X540831Y204415D01*
X538800Y205256D01*
X537246Y206810D01*
X536405Y208841D01*
X536405Y211039D01*
X537246Y213070D01*
X538800Y214624D01*
X540831Y215465D01*
X543029Y215465D01*
X545060Y214624D01*
X546614Y213070D01*
X547455Y211039D01*
X547455Y208841D01*
X546614Y206810D01*
X545060Y205256D01*
X543029Y204415D01*
X540831Y204415D01*
G37*
%LPD*%
%LPC*%
G36*
X373551Y216725D02*
X373551Y216725D01*
X371520Y217566D01*
X369966Y219120D01*
X369125Y221151D01*
X369125Y223349D01*
X369966Y225380D01*
X371520Y226934D01*
X373551Y227775D01*
X375749Y227775D01*
X377780Y226934D01*
X379334Y225380D01*
X380175Y223349D01*
X380175Y221151D01*
X379334Y219120D01*
X377780Y217566D01*
X375749Y216725D01*
X373551Y216725D01*
G37*
%LPD*%
%LPC*%
G36*
X188131Y52895D02*
X188131Y52895D01*
X186100Y53736D01*
X184546Y55290D01*
X183705Y57321D01*
X183705Y59519D01*
X184546Y61550D01*
X186100Y63104D01*
X188131Y63945D01*
X190329Y63945D01*
X192360Y63104D01*
X193914Y61550D01*
X194755Y59519D01*
X194755Y57321D01*
X193914Y55290D01*
X192360Y53736D01*
X190329Y52895D01*
X188131Y52895D01*
G37*
%LPD*%
%LPC*%
G36*
X602151Y172275D02*
X602151Y172275D01*
X600120Y173116D01*
X598566Y174670D01*
X597725Y176701D01*
X597725Y178899D01*
X598566Y180930D01*
X600120Y182484D01*
X602151Y183325D01*
X604349Y183325D01*
X606380Y182484D01*
X607934Y180930D01*
X608775Y178899D01*
X608775Y176701D01*
X607934Y174670D01*
X606380Y173116D01*
X604349Y172275D01*
X602151Y172275D01*
G37*
%LPD*%
%LPC*%
G36*
X100501Y223075D02*
X100501Y223075D01*
X98470Y223916D01*
X96916Y225470D01*
X96075Y227501D01*
X96075Y229699D01*
X96916Y231730D01*
X98470Y233284D01*
X100501Y234125D01*
X102699Y234125D01*
X104730Y233284D01*
X106284Y231730D01*
X107125Y229699D01*
X107125Y227501D01*
X106284Y225470D01*
X104730Y223916D01*
X102699Y223075D01*
X100501Y223075D01*
G37*
%LPD*%
%LPC*%
G36*
X195751Y40195D02*
X195751Y40195D01*
X193720Y41036D01*
X192166Y42590D01*
X191325Y44621D01*
X191325Y46819D01*
X192166Y48850D01*
X193720Y50404D01*
X195751Y51245D01*
X197949Y51245D01*
X199980Y50404D01*
X201534Y48850D01*
X202375Y46819D01*
X202375Y44621D01*
X201534Y42590D01*
X199980Y41036D01*
X197949Y40195D01*
X195751Y40195D01*
G37*
%LPD*%
%LPC*%
G36*
X552621Y36385D02*
X552621Y36385D01*
X550590Y37226D01*
X549036Y38780D01*
X548195Y40811D01*
X548195Y43009D01*
X549036Y45040D01*
X550590Y46594D01*
X552621Y47435D01*
X554819Y47435D01*
X556850Y46594D01*
X558404Y45040D01*
X559245Y43009D01*
X559245Y40811D01*
X558404Y38780D01*
X556850Y37226D01*
X554819Y36385D01*
X552621Y36385D01*
G37*
%LPD*%
%LPC*%
G36*
X576751Y238315D02*
X576751Y238315D01*
X574720Y239156D01*
X573166Y240710D01*
X572325Y242741D01*
X572325Y244939D01*
X573166Y246970D01*
X574720Y248524D01*
X576751Y249365D01*
X578949Y249365D01*
X580980Y248524D01*
X582534Y246970D01*
X583375Y244939D01*
X583375Y242741D01*
X582534Y240710D01*
X580980Y239156D01*
X578949Y238315D01*
X576751Y238315D01*
G37*
%LPD*%
%LPC*%
G36*
X58591Y244665D02*
X58591Y244665D01*
X56560Y245506D01*
X55006Y247060D01*
X54165Y249091D01*
X54165Y251289D01*
X55006Y253320D01*
X56560Y254874D01*
X58591Y255715D01*
X60789Y255715D01*
X62820Y254874D01*
X64374Y253320D01*
X65215Y251289D01*
X65215Y249091D01*
X64374Y247060D01*
X62820Y245506D01*
X60789Y244665D01*
X58591Y244665D01*
G37*
%LPD*%
%LPC*%
G36*
X58591Y260475D02*
X58591Y260475D01*
X56560Y261316D01*
X55006Y262870D01*
X54165Y264901D01*
X54165Y267099D01*
X55006Y269130D01*
X56560Y270684D01*
X58591Y271525D01*
X60789Y271525D01*
X62820Y270684D01*
X64374Y269130D01*
X65215Y267099D01*
X65215Y264901D01*
X64374Y262870D01*
X62820Y261316D01*
X60789Y260475D01*
X58591Y260475D01*
G37*
%LPD*%
%LPC*%
G36*
X371011Y289115D02*
X371011Y289115D01*
X369405Y289781D01*
X368980Y289956D01*
X367426Y291510D01*
X366585Y293541D01*
X366585Y295739D01*
X367426Y297770D01*
X368980Y299324D01*
X371011Y300165D01*
X373209Y300165D01*
X375240Y299324D01*
X376794Y297770D01*
X377635Y295739D01*
X377635Y293541D01*
X376794Y291510D01*
X375240Y289956D01*
X373209Y289115D01*
X371011Y289115D01*
G37*
%LPD*%
%LPC*%
G36*
X392601Y219265D02*
X392601Y219265D01*
X391525Y219711D01*
X390570Y220106D01*
X389016Y221660D01*
X388175Y223691D01*
X388175Y225889D01*
X389016Y227920D01*
X390570Y229474D01*
X392601Y230315D01*
X394799Y230315D01*
X396830Y229474D01*
X398384Y227920D01*
X399225Y225889D01*
X399225Y223691D01*
X398384Y221660D01*
X396830Y220106D01*
X394799Y219265D01*
X392601Y219265D01*
G37*
%LPD*%
%LPC*%
G36*
X217341Y139255D02*
X217341Y139255D01*
X215310Y140096D01*
X213756Y141650D01*
X212915Y143681D01*
X212915Y145879D01*
X213756Y147910D01*
X215310Y149464D01*
X217341Y150305D01*
X219539Y150305D01*
X220587Y149870D01*
X220588Y149870D01*
X221570Y149464D01*
X223124Y147910D01*
X223965Y145879D01*
X223965Y143681D01*
X223124Y141650D01*
X221570Y140096D01*
X219539Y139255D01*
X217341Y139255D01*
G37*
%LPD*%
%LPC*%
G36*
X405301Y105600D02*
X405301Y105600D01*
X403270Y106441D01*
X401716Y107995D01*
X400875Y110026D01*
X400875Y112224D01*
X401716Y114255D01*
X403270Y115809D01*
X405301Y116650D01*
X407499Y116650D01*
X408201Y116359D01*
X409530Y115809D01*
X411084Y114255D01*
X411925Y112224D01*
X411925Y110026D01*
X411084Y107995D01*
X409530Y106441D01*
X407499Y105600D01*
X405301Y105600D01*
G37*
%LPD*%
%LPC*%
G36*
X335451Y254825D02*
X335451Y254825D01*
X333420Y255666D01*
X331866Y257220D01*
X331025Y259251D01*
X331025Y261449D01*
X331866Y263480D01*
X333420Y265034D01*
X335451Y265875D01*
X337649Y265875D01*
X338222Y265637D01*
X339680Y265034D01*
X341234Y263480D01*
X342075Y261449D01*
X342075Y259251D01*
X341234Y257220D01*
X339680Y255666D01*
X337649Y254825D01*
X335451Y254825D01*
G37*
%LPD*%
%LPC*%
G36*
X308781Y332295D02*
X308781Y332295D01*
X308452Y332432D01*
X306750Y333136D01*
X305196Y334690D01*
X304355Y336721D01*
X304355Y338919D01*
X305196Y340950D01*
X306750Y342504D01*
X308781Y343345D01*
X310979Y343345D01*
X313010Y342504D01*
X314564Y340950D01*
X315405Y338919D01*
X315405Y336721D01*
X314564Y334690D01*
X313010Y333136D01*
X310979Y332295D01*
X308781Y332295D01*
G37*
%LPD*%
%LPC*%
G36*
X83779Y60919D02*
X83779Y60919D01*
X83779Y68207D01*
X85150Y67762D01*
X86563Y67042D01*
X87847Y66109D01*
X88969Y64987D01*
X89902Y63703D01*
X90622Y62290D01*
X91067Y60919D01*
X83779Y60919D01*
G37*
%LPD*%
%LPC*%
G36*
X83779Y55921D02*
X83779Y55921D01*
X91067Y55921D01*
X90622Y54550D01*
X89902Y53137D01*
X88969Y51853D01*
X87847Y50731D01*
X86563Y49798D01*
X85150Y49078D01*
X83779Y48633D01*
X83779Y55921D01*
G37*
%LPD*%
%LPC*%
G36*
X71493Y60919D02*
X71493Y60919D01*
X71938Y62290D01*
X72658Y63703D01*
X73591Y64987D01*
X74713Y66109D01*
X75997Y67042D01*
X77410Y67762D01*
X78781Y68207D01*
X78781Y60919D01*
X71493Y60919D01*
G37*
%LPD*%
%LPC*%
G36*
X77410Y49078D02*
X77410Y49078D01*
X75997Y49798D01*
X74713Y50731D01*
X73591Y51853D01*
X72658Y53137D01*
X71938Y54550D01*
X71493Y55921D01*
X78781Y55921D01*
X78781Y48633D01*
X77410Y49078D01*
G37*
%LPD*%
D10*
X16510Y0D02*
X3810Y12700D01*
X3810Y345440D01*
X35560Y377190D01*
X593090Y377190D01*
X599440Y370840D01*
X599440Y316230D01*
X648970Y266700D01*
X648970Y12700D01*
X636270Y0D02*
X16510Y0D01*
X636270Y0D02*
X648970Y12700D01*
D11*
X510372Y21851D02*
X509016Y20495D01*
X510372Y21851D02*
X513083Y21851D01*
X514439Y20495D01*
X514439Y19139D01*
X513083Y17783D01*
X511728Y17783D01*
X513083Y17783D02*
X514439Y16428D01*
X514439Y15072D01*
X513083Y13716D01*
X510372Y13716D01*
X509016Y15072D01*
D12*
X55880Y33020D03*
X55880Y58420D03*
X81280Y33020D03*
X81280Y58420D03*
X106680Y33020D03*
X106680Y58420D03*
X132080Y33020D03*
X132080Y58420D03*
X157480Y33020D03*
X157480Y58420D03*
D13*
X176530Y146050D03*
X260350Y54610D03*
X334010Y82550D03*
X396240Y144780D03*
X420370Y196850D03*
X331470Y288290D03*
D14*
X212090Y290830D03*
D15*
X199390Y278130D01*
D14*
X199390Y278130D03*
D13*
X220980Y215900D03*
D16*
X220980Y190500D01*
D13*
X262890Y308610D03*
D16*
X229870Y308610D02*
X212090Y290830D01*
X229870Y308610D02*
X262890Y308610D01*
X303530Y267970D01*
X313690Y267970D01*
X311150Y260350D02*
X313690Y257810D01*
X311150Y260350D02*
X306070Y265430D01*
X303530Y267970D01*
X306070Y265430D02*
X311150Y265430D01*
X311150Y260350D01*
X313690Y257810D02*
X313690Y267970D01*
D17*
X331470Y288290D01*
D16*
X313690Y257810D02*
X392430Y179070D01*
X403860Y179070D01*
X403860Y167640D01*
X401320Y170180D01*
X394970Y176530D01*
X392430Y179070D01*
X394970Y176530D02*
X401320Y176530D01*
X401320Y170180D01*
D17*
X403860Y179070D02*
X416560Y191770D01*
X420370Y196850D01*
D16*
X403860Y167640D02*
X403860Y152400D01*
X396240Y144780D01*
D18*
X176530Y146050D02*
X176530Y119380D01*
X241300Y54610D02*
X260350Y54610D01*
X241300Y54610D02*
X176530Y119380D01*
X396240Y121920D02*
X396240Y144780D01*
X396240Y121920D02*
X356870Y82550D01*
X334010Y82550D01*
D16*
X220980Y190500D02*
X176530Y146050D01*
X220980Y256540D02*
X199390Y278130D01*
X220980Y256540D02*
X220980Y215900D01*
D13*
X287020Y334010D03*
X246380Y181610D03*
X314960Y54610D03*
D14*
X120650Y369570D03*
X106680Y355600D03*
X106680Y341630D03*
X120650Y292100D03*
X106680Y292100D03*
X120650Y278130D03*
X106680Y278130D03*
D13*
X233680Y287020D03*
X247650Y300990D03*
X237490Y234950D03*
X204470Y201930D03*
X217170Y97790D03*
X246380Y68580D03*
X351790Y44450D03*
X378460Y127000D03*
X347980Y96520D03*
X426720Y125730D03*
X364490Y256540D03*
X406400Y213360D03*
X85090Y185420D03*
X124460Y144780D03*
X142240Y105410D03*
X406400Y299720D03*
D14*
X106680Y369570D03*
X120650Y341630D03*
X134620Y278130D03*
X134620Y292100D03*
X120650Y355600D03*
D13*
X325460Y300990D03*
X284480Y40640D03*
X342900Y330200D03*
X353060Y266700D03*
D14*
X228600Y364490D03*
X241300Y364490D03*
D16*
X308610Y364490D01*
X342900Y330200D01*
X353060Y320040D01*
D13*
X199390Y20320D03*
D19*
X270510Y26670D02*
X284480Y40640D01*
D16*
X452120Y127000D02*
X452120Y213360D01*
X452120Y127000D02*
X389890Y64770D01*
X308610Y64770D01*
X284480Y40640D01*
D19*
X270510Y26670D02*
X205740Y26670D01*
X199390Y20320D01*
D16*
X353060Y276860D02*
X353060Y320040D01*
X353060Y276860D02*
X353060Y266700D01*
X363220Y266700D01*
X358140Y271780D01*
X357505Y272415D02*
X353060Y276860D01*
X353060Y267970D02*
X353060Y266700D01*
X353060Y267970D02*
X357505Y272415D01*
X358140Y271780D02*
X358140Y266700D01*
X358140Y271780D02*
X357505Y272415D01*
X363220Y266700D02*
X398780Y266700D01*
X452120Y213360D01*
D20*
X408940Y30480D03*
D14*
X144780Y312420D03*
D13*
X295910Y33020D03*
D14*
X63500Y292100D03*
X50800Y304800D03*
X88900Y292100D03*
X76200Y279400D03*
X76200Y304800D03*
D21*
X284480Y184150D03*
D22*
X311150Y184150D03*
D14*
X39370Y139700D03*
X35560Y88900D03*
X20320Y88900D03*
X176530Y88900D03*
D13*
X134620Y166370D03*
X374650Y361950D03*
X247650Y8890D03*
X234950Y82550D03*
X473710Y99060D03*
X367030Y172720D03*
X393700Y224790D03*
X304800Y288290D03*
X200660Y295910D03*
X226060Y346710D03*
X309880Y337820D03*
X144780Y355600D03*
X412750Y323850D03*
X577850Y243840D03*
X603250Y177800D03*
D14*
X576580Y137160D03*
X635000Y171450D03*
X635000Y152400D03*
X609600Y120650D03*
X542290Y320040D03*
X561340Y313690D03*
X629920Y269240D03*
X589280Y307340D03*
X551180Y274320D03*
D13*
X553720Y22860D03*
X336550Y260350D03*
X374650Y222250D03*
X196850Y45720D03*
X553720Y41910D03*
D14*
X50800Y88900D03*
X579120Y111760D03*
X19050Y134620D03*
D23*
X295275Y200025D03*
X295275Y167640D03*
X327025Y167640D03*
X327660Y200025D03*
D13*
X368300Y330200D03*
D14*
X38100Y355600D03*
X590550Y274320D03*
D13*
X508000Y158750D03*
X406400Y111125D03*
X420370Y264160D03*
X223520Y276860D03*
X218440Y144780D03*
X271780Y271780D03*
X193040Y195580D03*
X372110Y294640D03*
D21*
X337820Y184150D03*
X311150Y210820D03*
X311150Y157480D03*
D14*
X200660Y251460D03*
X132080Y251460D03*
X157480Y287020D03*
X185420Y287020D03*
X518160Y238760D03*
X447040Y231140D03*
X472440Y245745D03*
X466725Y180340D03*
X614680Y81280D03*
X576580Y81280D03*
D13*
X491490Y111760D03*
X543560Y140970D03*
X533400Y227330D03*
X488950Y304800D03*
X466090Y359410D03*
D14*
X595630Y81280D03*
D13*
X543560Y130810D03*
D14*
X614680Y60960D03*
X635000Y81280D03*
X635000Y60960D03*
D13*
X541930Y209940D03*
X568960Y190500D03*
X189230Y58420D03*
X161290Y119380D03*
X55880Y139700D03*
X146050Y176530D03*
X76200Y137160D03*
X565150Y177800D03*
X259080Y121920D03*
X101600Y228600D03*
X584200Y41910D03*
X59690Y266000D03*
X571500Y22860D03*
X59690Y250190D03*
X35560Y274320D03*
X269240Y95250D03*
X66040Y88900D03*
M02*
