G04 EAGLE Gerber RS-274X export*
G75*
%MOMM*%
%FSLAX34Y34*%
%LPD*%
%INl15 Kupfer*%
%IPPOS*%
%AMOC8*
5,1,8,0,0,1.08239X$1,22.5*%
G01*
%ADD10C,0.000000*%
%ADD11C,0.203200*%
%ADD12C,1.508000*%
%ADD13C,0.704800*%
%ADD14C,0.804800*%
%ADD15C,0.812800*%
%ADD16C,0.406400*%
%ADD17C,0.304800*%
%ADD18C,0.381000*%
%ADD19C,0.254000*%
%ADD20C,4.216000*%
%ADD21C,1.500000*%
%ADD22C,3.416000*%
%ADD23C,1.050000*%

G36*
X243148Y2012D02*
X243148Y2012D01*
X243249Y2014D01*
X243321Y2032D01*
X243395Y2041D01*
X243489Y2074D01*
X243587Y2099D01*
X243653Y2133D01*
X243723Y2158D01*
X243807Y2213D01*
X243897Y2259D01*
X243953Y2307D01*
X244016Y2347D01*
X244086Y2419D01*
X244162Y2484D01*
X244206Y2544D01*
X244258Y2598D01*
X244310Y2684D01*
X244369Y2765D01*
X244399Y2833D01*
X244437Y2897D01*
X244467Y2993D01*
X244507Y3085D01*
X244520Y3158D01*
X244543Y3229D01*
X244551Y3329D01*
X244569Y3428D01*
X244565Y3502D01*
X244571Y3576D01*
X244556Y3676D01*
X244551Y3776D01*
X244530Y3847D01*
X244519Y3921D01*
X244482Y4014D01*
X244454Y4111D01*
X244418Y4176D01*
X244391Y4245D01*
X244333Y4327D01*
X244284Y4415D01*
X244219Y4491D01*
X244192Y4531D01*
X244165Y4555D01*
X244126Y4601D01*
X242966Y5761D01*
X242125Y7791D01*
X242125Y9989D01*
X242966Y12020D01*
X244520Y13574D01*
X246551Y14415D01*
X248749Y14415D01*
X249023Y14301D01*
X250780Y13574D01*
X252334Y12020D01*
X253175Y9989D01*
X253175Y7791D01*
X252334Y5761D01*
X251174Y4601D01*
X251112Y4522D01*
X251042Y4450D01*
X251004Y4386D01*
X250958Y4328D01*
X250915Y4237D01*
X250863Y4151D01*
X250840Y4080D01*
X250809Y4013D01*
X250788Y3915D01*
X250757Y3819D01*
X250751Y3745D01*
X250735Y3672D01*
X250737Y3572D01*
X250729Y3472D01*
X250740Y3398D01*
X250741Y3324D01*
X250766Y3227D01*
X250781Y3127D01*
X250808Y3058D01*
X250826Y2986D01*
X250872Y2897D01*
X250909Y2803D01*
X250952Y2742D01*
X250986Y2676D01*
X251051Y2600D01*
X251108Y2517D01*
X251163Y2467D01*
X251212Y2411D01*
X251292Y2351D01*
X251367Y2284D01*
X251432Y2248D01*
X251492Y2203D01*
X251584Y2164D01*
X251672Y2115D01*
X251744Y2095D01*
X251812Y2065D01*
X251911Y2048D01*
X252008Y2020D01*
X252108Y2012D01*
X252155Y2004D01*
X252191Y2006D01*
X252251Y2001D01*
X634810Y2001D01*
X634936Y2015D01*
X635062Y2022D01*
X635109Y2035D01*
X635157Y2041D01*
X635275Y2083D01*
X635397Y2118D01*
X635439Y2142D01*
X635485Y2158D01*
X635591Y2227D01*
X635701Y2288D01*
X635747Y2328D01*
X635777Y2347D01*
X635811Y2382D01*
X635887Y2447D01*
X646523Y13083D01*
X646602Y13182D01*
X646686Y13275D01*
X646710Y13318D01*
X646740Y13356D01*
X646794Y13470D01*
X646855Y13581D01*
X646868Y13627D01*
X646889Y13671D01*
X646915Y13794D01*
X646950Y13916D01*
X646955Y13977D01*
X646962Y14011D01*
X646961Y14059D01*
X646969Y14160D01*
X646969Y48292D01*
X646966Y48318D01*
X646968Y48344D01*
X646946Y48491D01*
X646929Y48638D01*
X646921Y48663D01*
X646917Y48689D01*
X646862Y48826D01*
X646812Y48966D01*
X646798Y48988D01*
X646788Y49013D01*
X646703Y49134D01*
X646623Y49259D01*
X646604Y49277D01*
X646589Y49299D01*
X646479Y49398D01*
X646372Y49501D01*
X646350Y49515D01*
X646330Y49532D01*
X646200Y49604D01*
X646073Y49680D01*
X646048Y49688D01*
X646025Y49701D01*
X645882Y49741D01*
X645741Y49786D01*
X645715Y49788D01*
X645690Y49796D01*
X645446Y49815D01*
X587210Y49815D01*
X587160Y49810D01*
X587109Y49812D01*
X586987Y49790D01*
X586863Y49775D01*
X586816Y49758D01*
X586767Y49749D01*
X586652Y49700D01*
X586535Y49658D01*
X586493Y49631D01*
X586447Y49611D01*
X586347Y49536D01*
X586243Y49469D01*
X586208Y49433D01*
X586167Y49403D01*
X586087Y49308D01*
X586000Y49218D01*
X585974Y49175D01*
X585942Y49137D01*
X585885Y49026D01*
X585822Y48919D01*
X585806Y48871D01*
X585783Y48826D01*
X585753Y48706D01*
X585715Y48587D01*
X585711Y48537D01*
X585699Y48488D01*
X585697Y48364D01*
X585687Y48240D01*
X585695Y48190D01*
X585694Y48140D01*
X585721Y48018D01*
X585739Y47895D01*
X585758Y47848D01*
X585768Y47799D01*
X585822Y47687D01*
X585868Y47571D01*
X585896Y47530D01*
X585918Y47484D01*
X585996Y47387D01*
X586067Y47285D01*
X586104Y47251D01*
X586135Y47212D01*
X586233Y47135D01*
X586325Y47052D01*
X586370Y47027D01*
X586409Y46996D01*
X586627Y46885D01*
X587330Y46594D01*
X588884Y45040D01*
X589725Y43009D01*
X589725Y40811D01*
X588884Y38780D01*
X587330Y37226D01*
X585299Y36385D01*
X583101Y36385D01*
X581070Y37226D01*
X579516Y38780D01*
X578675Y40811D01*
X578675Y43009D01*
X579516Y45040D01*
X581070Y46594D01*
X581773Y46885D01*
X581817Y46909D01*
X581865Y46926D01*
X581969Y46994D01*
X582078Y47054D01*
X582115Y47088D01*
X582157Y47115D01*
X582244Y47205D01*
X582336Y47288D01*
X582365Y47330D01*
X582400Y47366D01*
X582463Y47473D01*
X582534Y47575D01*
X582553Y47622D01*
X582578Y47665D01*
X582616Y47783D01*
X582662Y47899D01*
X582669Y47949D01*
X582685Y47997D01*
X582695Y48121D01*
X582713Y48244D01*
X582709Y48294D01*
X582713Y48344D01*
X582694Y48467D01*
X582684Y48591D01*
X582668Y48639D01*
X582661Y48689D01*
X582615Y48804D01*
X582577Y48923D01*
X582551Y48966D01*
X582532Y49013D01*
X582461Y49115D01*
X582397Y49221D01*
X582362Y49258D01*
X582333Y49299D01*
X582241Y49382D01*
X582154Y49471D01*
X582112Y49499D01*
X582075Y49532D01*
X581966Y49592D01*
X581861Y49660D01*
X581814Y49677D01*
X581770Y49701D01*
X581650Y49735D01*
X581533Y49776D01*
X581483Y49782D01*
X581434Y49796D01*
X581190Y49815D01*
X559880Y49815D01*
X550195Y59500D01*
X550195Y96969D01*
X550181Y97095D01*
X550174Y97221D01*
X550161Y97267D01*
X550155Y97315D01*
X550113Y97434D01*
X550078Y97556D01*
X550054Y97598D01*
X550038Y97643D01*
X549969Y97750D01*
X549908Y97860D01*
X549868Y97906D01*
X549849Y97936D01*
X549814Y97970D01*
X549749Y98046D01*
X547626Y100169D01*
X547527Y100248D01*
X547433Y100332D01*
X547391Y100356D01*
X547353Y100386D01*
X547239Y100440D01*
X547128Y100501D01*
X547082Y100514D01*
X547038Y100535D01*
X546915Y100561D01*
X546793Y100596D01*
X546732Y100601D01*
X546697Y100608D01*
X546649Y100607D01*
X546549Y100615D01*
X488760Y100615D01*
X481615Y107760D01*
X481615Y169100D01*
X488760Y176245D01*
X523689Y176245D01*
X523815Y176259D01*
X523941Y176266D01*
X523987Y176279D01*
X524035Y176285D01*
X524154Y176327D01*
X524276Y176362D01*
X524318Y176386D01*
X524363Y176402D01*
X524470Y176471D01*
X524580Y176532D01*
X524626Y176572D01*
X524656Y176591D01*
X524690Y176626D01*
X524766Y176691D01*
X526889Y178814D01*
X526968Y178913D01*
X527052Y179007D01*
X527076Y179049D01*
X527106Y179087D01*
X527160Y179201D01*
X527221Y179312D01*
X527234Y179358D01*
X527255Y179402D01*
X527281Y179525D01*
X527316Y179647D01*
X527321Y179708D01*
X527328Y179743D01*
X527327Y179791D01*
X527335Y179891D01*
X527335Y206189D01*
X527321Y206315D01*
X527314Y206441D01*
X527301Y206487D01*
X527295Y206535D01*
X527253Y206654D01*
X527218Y206776D01*
X527194Y206818D01*
X527178Y206863D01*
X527109Y206970D01*
X527048Y207080D01*
X527008Y207126D01*
X526989Y207156D01*
X526954Y207190D01*
X526889Y207266D01*
X479046Y255109D01*
X478947Y255188D01*
X478853Y255272D01*
X478811Y255296D01*
X478773Y255326D01*
X478659Y255380D01*
X478548Y255441D01*
X478502Y255454D01*
X478458Y255475D01*
X478335Y255501D01*
X478213Y255536D01*
X478152Y255541D01*
X478117Y255548D01*
X478069Y255547D01*
X477969Y255555D01*
X460820Y255555D01*
X453675Y262700D01*
X453675Y317949D01*
X453661Y318075D01*
X453654Y318201D01*
X453641Y318247D01*
X453635Y318295D01*
X453593Y318414D01*
X453558Y318536D01*
X453534Y318578D01*
X453518Y318623D01*
X453449Y318730D01*
X453388Y318840D01*
X453348Y318886D01*
X453329Y318916D01*
X453294Y318950D01*
X453229Y319026D01*
X451106Y321149D01*
X451007Y321228D01*
X450913Y321312D01*
X450871Y321336D01*
X450833Y321366D01*
X450719Y321420D01*
X450608Y321481D01*
X450562Y321494D01*
X450518Y321515D01*
X450395Y321541D01*
X450273Y321576D01*
X450212Y321581D01*
X450177Y321588D01*
X450129Y321587D01*
X450029Y321595D01*
X418814Y321595D01*
X418738Y321587D01*
X418661Y321588D01*
X418565Y321567D01*
X418468Y321555D01*
X418396Y321530D01*
X418321Y321513D01*
X418232Y321471D01*
X418139Y321438D01*
X418075Y321396D01*
X418006Y321364D01*
X417929Y321302D01*
X417847Y321249D01*
X417793Y321194D01*
X417734Y321146D01*
X417673Y321069D01*
X417604Y320998D01*
X417565Y320933D01*
X417518Y320873D01*
X417450Y320740D01*
X417445Y320732D01*
X415880Y319166D01*
X413849Y318325D01*
X411651Y318325D01*
X409620Y319166D01*
X408051Y320736D01*
X408028Y320793D01*
X407972Y320873D01*
X407924Y320959D01*
X407873Y321016D01*
X407829Y321079D01*
X407756Y321145D01*
X407690Y321218D01*
X407627Y321261D01*
X407570Y321312D01*
X407484Y321360D01*
X407403Y321416D01*
X407332Y321444D01*
X407265Y321481D01*
X407171Y321508D01*
X407079Y321544D01*
X407004Y321555D01*
X406930Y321576D01*
X406781Y321588D01*
X406734Y321595D01*
X406715Y321593D01*
X406686Y321595D01*
X399860Y321595D01*
X397349Y324106D01*
X394745Y326710D01*
X394667Y326773D01*
X394594Y326842D01*
X394530Y326881D01*
X394472Y326927D01*
X394381Y326970D01*
X394295Y327021D01*
X394224Y327044D01*
X394157Y327076D01*
X394059Y327097D01*
X393963Y327127D01*
X393889Y327133D01*
X393816Y327149D01*
X393716Y327147D01*
X393616Y327155D01*
X393542Y327144D01*
X393468Y327143D01*
X393371Y327119D01*
X393271Y327104D01*
X393202Y327076D01*
X393130Y327058D01*
X393041Y327012D01*
X392947Y326975D01*
X392886Y326933D01*
X392820Y326899D01*
X392744Y326833D01*
X392661Y326776D01*
X392611Y326721D01*
X392555Y326673D01*
X392495Y326592D01*
X392428Y326517D01*
X392392Y326452D01*
X392347Y326392D01*
X392308Y326300D01*
X392259Y326212D01*
X392239Y326141D01*
X392209Y326072D01*
X392192Y325974D01*
X392164Y325877D01*
X392156Y325777D01*
X392148Y325729D01*
X392150Y325694D01*
X392145Y325633D01*
X392145Y278951D01*
X392159Y278825D01*
X392166Y278699D01*
X392179Y278653D01*
X392185Y278605D01*
X392227Y278486D01*
X392262Y278364D01*
X392286Y278322D01*
X392302Y278277D01*
X392371Y278170D01*
X392432Y278060D01*
X392472Y278014D01*
X392491Y277984D01*
X392526Y277950D01*
X392591Y277874D01*
X399286Y271179D01*
X399385Y271100D01*
X399479Y271016D01*
X399521Y270992D01*
X399559Y270962D01*
X399673Y270908D01*
X399784Y270847D01*
X399830Y270834D01*
X399874Y270813D01*
X399997Y270787D01*
X400119Y270752D01*
X400180Y270747D01*
X400215Y270740D01*
X400263Y270741D01*
X400363Y270733D01*
X400450Y270733D01*
X438768Y232416D01*
X438885Y232322D01*
X439000Y232225D01*
X439022Y232214D01*
X439041Y232199D01*
X439177Y232135D01*
X439310Y232066D01*
X439334Y232060D01*
X439356Y232050D01*
X439503Y232018D01*
X439649Y231982D01*
X439673Y231982D01*
X439696Y231977D01*
X439846Y231979D01*
X439997Y231977D01*
X440021Y231982D01*
X440045Y231983D01*
X440190Y232019D01*
X440337Y232051D01*
X440359Y232062D01*
X440383Y232068D01*
X440517Y232137D01*
X440652Y232201D01*
X440671Y232216D01*
X440693Y232227D01*
X440807Y232325D01*
X440925Y232418D01*
X440940Y232437D01*
X440958Y232453D01*
X441047Y232574D01*
X441141Y232692D01*
X441154Y232718D01*
X441165Y232733D01*
X441184Y232777D01*
X441252Y232910D01*
X441933Y234553D01*
X443627Y236247D01*
X445842Y237165D01*
X448238Y237165D01*
X450453Y236247D01*
X452147Y234553D01*
X453065Y232338D01*
X453065Y229942D01*
X452147Y227727D01*
X450453Y226033D01*
X448810Y225352D01*
X448679Y225279D01*
X448545Y225210D01*
X448526Y225194D01*
X448505Y225183D01*
X448394Y225082D01*
X448279Y224984D01*
X448265Y224965D01*
X448247Y224948D01*
X448161Y224825D01*
X448072Y224704D01*
X448063Y224682D01*
X448049Y224662D01*
X447994Y224522D01*
X447934Y224384D01*
X447930Y224360D01*
X447921Y224338D01*
X447899Y224189D01*
X447872Y224041D01*
X447874Y224017D01*
X447870Y223993D01*
X447883Y223843D01*
X447890Y223693D01*
X447897Y223670D01*
X447899Y223645D01*
X447945Y223502D01*
X447987Y223358D01*
X447999Y223337D01*
X448006Y223314D01*
X448084Y223185D01*
X448157Y223054D01*
X448176Y223032D01*
X448186Y223015D01*
X448219Y222981D01*
X448316Y222868D01*
X456153Y215030D01*
X456153Y125330D01*
X391560Y60737D01*
X391473Y60737D01*
X391347Y60723D01*
X391221Y60716D01*
X391175Y60703D01*
X391127Y60697D01*
X391008Y60655D01*
X390886Y60620D01*
X390844Y60596D01*
X390799Y60580D01*
X390692Y60511D01*
X390582Y60450D01*
X390536Y60410D01*
X390506Y60391D01*
X390472Y60356D01*
X390396Y60291D01*
X351980Y21875D01*
X288100Y21875D01*
X280935Y29040D01*
X280924Y29085D01*
X280915Y29159D01*
X280882Y29253D01*
X280857Y29350D01*
X280823Y29417D01*
X280798Y29487D01*
X280743Y29571D01*
X280697Y29660D01*
X280649Y29717D01*
X280609Y29779D01*
X280537Y29849D01*
X280472Y29926D01*
X280412Y29970D01*
X280358Y30022D01*
X280272Y30073D01*
X280191Y30133D01*
X280123Y30162D01*
X280059Y30200D01*
X279963Y30231D01*
X279871Y30271D01*
X279798Y30284D01*
X279727Y30307D01*
X279627Y30315D01*
X279528Y30333D01*
X279454Y30329D01*
X279380Y30335D01*
X279280Y30320D01*
X279180Y30315D01*
X279109Y30294D01*
X279035Y30283D01*
X278942Y30246D01*
X278845Y30218D01*
X278780Y30182D01*
X278711Y30154D01*
X278629Y30097D01*
X278541Y30048D01*
X278465Y29983D01*
X278425Y29955D01*
X278401Y29929D01*
X278355Y29889D01*
X274227Y25761D01*
X271865Y23399D01*
X207726Y23399D01*
X207600Y23385D01*
X207474Y23378D01*
X207428Y23365D01*
X207380Y23359D01*
X207261Y23317D01*
X207139Y23282D01*
X207097Y23258D01*
X207051Y23242D01*
X206945Y23173D01*
X206835Y23112D01*
X206789Y23072D01*
X206759Y23053D01*
X206725Y23018D01*
X206649Y22953D01*
X205361Y21665D01*
X205282Y21566D01*
X205198Y21472D01*
X205174Y21430D01*
X205144Y21392D01*
X205090Y21278D01*
X205029Y21167D01*
X205016Y21121D01*
X204995Y21077D01*
X204969Y20954D01*
X204934Y20832D01*
X204929Y20771D01*
X204922Y20737D01*
X204923Y20689D01*
X204915Y20588D01*
X204915Y19221D01*
X204074Y17190D01*
X202520Y15636D01*
X200489Y14795D01*
X198291Y14795D01*
X196260Y15636D01*
X194706Y17190D01*
X193865Y19221D01*
X193865Y21419D01*
X194706Y23450D01*
X196260Y25004D01*
X198291Y25845D01*
X199658Y25845D01*
X199784Y25859D01*
X199910Y25866D01*
X199956Y25879D01*
X200004Y25885D01*
X200123Y25927D01*
X200245Y25962D01*
X200287Y25986D01*
X200333Y26002D01*
X200439Y26071D01*
X200549Y26132D01*
X200595Y26172D01*
X200625Y26191D01*
X200659Y26226D01*
X200735Y26291D01*
X204385Y29941D01*
X268524Y29941D01*
X268650Y29955D01*
X268776Y29962D01*
X268822Y29975D01*
X268870Y29981D01*
X268989Y30023D01*
X269111Y30058D01*
X269153Y30082D01*
X269199Y30098D01*
X269305Y30167D01*
X269415Y30228D01*
X269461Y30268D01*
X269491Y30287D01*
X269525Y30322D01*
X269601Y30387D01*
X278509Y39295D01*
X278588Y39394D01*
X278672Y39488D01*
X278696Y39530D01*
X278726Y39568D01*
X278780Y39682D01*
X278841Y39793D01*
X278854Y39839D01*
X278875Y39883D01*
X278901Y40006D01*
X278936Y40128D01*
X278941Y40189D01*
X278948Y40223D01*
X278947Y40271D01*
X278955Y40372D01*
X278955Y41739D01*
X279796Y43770D01*
X280509Y44482D01*
X280588Y44581D01*
X280672Y44675D01*
X280696Y44717D01*
X280726Y44755D01*
X280780Y44869D01*
X280841Y44980D01*
X280854Y45027D01*
X280875Y45070D01*
X280901Y45194D01*
X280936Y45316D01*
X280941Y45376D01*
X280948Y45411D01*
X280947Y45459D01*
X280955Y45559D01*
X280955Y77660D01*
X349506Y146211D01*
X367890Y164595D01*
X367953Y164673D01*
X368022Y164746D01*
X368061Y164810D01*
X368107Y164868D01*
X368150Y164959D01*
X368201Y165045D01*
X368224Y165116D01*
X368256Y165183D01*
X368277Y165281D01*
X368307Y165377D01*
X368313Y165451D01*
X368329Y165524D01*
X368327Y165624D01*
X368335Y165724D01*
X368324Y165798D01*
X368323Y165872D01*
X368299Y165969D01*
X368284Y166069D01*
X368256Y166138D01*
X368238Y166210D01*
X368192Y166300D01*
X368155Y166393D01*
X368113Y166454D01*
X368079Y166520D01*
X368013Y166597D01*
X367956Y166679D01*
X367901Y166729D01*
X367853Y166785D01*
X367772Y166845D01*
X367697Y166912D01*
X367632Y166948D01*
X367572Y166993D01*
X367480Y167032D01*
X367392Y167081D01*
X367321Y167101D01*
X367252Y167131D01*
X367154Y167148D01*
X367057Y167176D01*
X366957Y167184D01*
X366909Y167192D01*
X366874Y167190D01*
X366813Y167195D01*
X365931Y167195D01*
X363900Y168036D01*
X362346Y169590D01*
X361505Y171621D01*
X361505Y173819D01*
X362346Y175850D01*
X363900Y177404D01*
X365931Y178245D01*
X368129Y178245D01*
X370289Y177350D01*
X370434Y177309D01*
X370577Y177263D01*
X370601Y177261D01*
X370624Y177254D01*
X370775Y177247D01*
X370924Y177235D01*
X370948Y177238D01*
X370972Y177237D01*
X371120Y177264D01*
X371269Y177287D01*
X371291Y177296D01*
X371315Y177300D01*
X371453Y177360D01*
X371593Y177415D01*
X371613Y177429D01*
X371635Y177439D01*
X371756Y177529D01*
X371879Y177614D01*
X371895Y177632D01*
X371915Y177647D01*
X372012Y177762D01*
X372112Y177873D01*
X372124Y177894D01*
X372140Y177913D01*
X372208Y178046D01*
X372281Y178178D01*
X372287Y178201D01*
X372298Y178223D01*
X372335Y178368D01*
X372376Y178513D01*
X372378Y178543D01*
X372383Y178561D01*
X372383Y178608D01*
X372395Y178757D01*
X372395Y192771D01*
X372381Y192896D01*
X372374Y193022D01*
X372361Y193069D01*
X372355Y193117D01*
X372313Y193236D01*
X372278Y193357D01*
X372254Y193399D01*
X372238Y193445D01*
X372169Y193551D01*
X372108Y193661D01*
X372068Y193708D01*
X372049Y193738D01*
X372014Y193771D01*
X371949Y193848D01*
X263158Y302639D01*
X263059Y302718D01*
X262965Y302802D01*
X262923Y302826D01*
X262885Y302856D01*
X262771Y302910D01*
X262660Y302971D01*
X262613Y302984D01*
X262570Y303005D01*
X262446Y303031D01*
X262324Y303066D01*
X262264Y303071D01*
X262229Y303078D01*
X262181Y303077D01*
X262081Y303085D01*
X261791Y303085D01*
X259760Y303926D01*
X259556Y304131D01*
X259457Y304210D01*
X259363Y304294D01*
X259321Y304318D01*
X259283Y304348D01*
X259169Y304402D01*
X259058Y304463D01*
X259011Y304476D01*
X258968Y304497D01*
X258844Y304523D01*
X258722Y304558D01*
X258662Y304563D01*
X258627Y304570D01*
X258579Y304569D01*
X258479Y304577D01*
X232171Y304577D01*
X232046Y304563D01*
X231920Y304556D01*
X231873Y304543D01*
X231825Y304537D01*
X231706Y304495D01*
X231585Y304460D01*
X231543Y304436D01*
X231497Y304420D01*
X231391Y304351D01*
X231281Y304290D01*
X231234Y304250D01*
X231204Y304231D01*
X231171Y304196D01*
X231094Y304131D01*
X217331Y290368D01*
X217252Y290269D01*
X217168Y290175D01*
X217144Y290133D01*
X217114Y290095D01*
X217060Y289981D01*
X216999Y289870D01*
X216986Y289823D01*
X216965Y289780D01*
X216939Y289656D01*
X216904Y289534D01*
X216899Y289474D01*
X216892Y289439D01*
X216893Y289391D01*
X216885Y289291D01*
X216885Y288354D01*
X215961Y286125D01*
X207607Y277770D01*
X207591Y277750D01*
X207571Y277733D01*
X207482Y277613D01*
X207390Y277497D01*
X207379Y277474D01*
X207364Y277452D01*
X207305Y277316D01*
X207242Y277182D01*
X207236Y277156D01*
X207226Y277132D01*
X207199Y276986D01*
X207168Y276841D01*
X207169Y276815D01*
X207164Y276789D01*
X207172Y276641D01*
X207174Y276493D01*
X207181Y276468D01*
X207182Y276441D01*
X207223Y276299D01*
X207259Y276155D01*
X207271Y276132D01*
X207278Y276106D01*
X207351Y275977D01*
X207419Y275845D01*
X207436Y275825D01*
X207449Y275802D01*
X207607Y275616D01*
X222204Y261019D01*
X225013Y258210D01*
X225013Y220311D01*
X225027Y220186D01*
X225034Y220060D01*
X225047Y220013D01*
X225053Y219965D01*
X225095Y219846D01*
X225130Y219725D01*
X225154Y219683D01*
X225170Y219637D01*
X225239Y219531D01*
X225300Y219421D01*
X225340Y219374D01*
X225359Y219344D01*
X225394Y219311D01*
X225459Y219234D01*
X225664Y219030D01*
X226505Y216999D01*
X226505Y214801D01*
X225664Y212770D01*
X225459Y212566D01*
X225380Y212467D01*
X225296Y212373D01*
X225272Y212331D01*
X225242Y212293D01*
X225188Y212179D01*
X225127Y212068D01*
X225114Y212021D01*
X225093Y211978D01*
X225067Y211854D01*
X225032Y211732D01*
X225027Y211672D01*
X225020Y211637D01*
X225021Y211589D01*
X225013Y211489D01*
X225013Y188830D01*
X222204Y186021D01*
X182501Y146318D01*
X182422Y146219D01*
X182338Y146125D01*
X182314Y146083D01*
X182284Y146045D01*
X182230Y145931D01*
X182169Y145820D01*
X182156Y145773D01*
X182135Y145730D01*
X182109Y145606D01*
X182074Y145484D01*
X182069Y145424D01*
X182062Y145389D01*
X182063Y145341D01*
X182055Y145241D01*
X182055Y144951D01*
X181214Y142920D01*
X180882Y142589D01*
X180803Y142490D01*
X180719Y142396D01*
X180695Y142354D01*
X180665Y142316D01*
X180611Y142202D01*
X180550Y142091D01*
X180537Y142044D01*
X180516Y142001D01*
X180490Y141877D01*
X180455Y141755D01*
X180450Y141695D01*
X180443Y141660D01*
X180444Y141612D01*
X180436Y141512D01*
X180436Y121629D01*
X180450Y121503D01*
X180457Y121377D01*
X180470Y121331D01*
X180476Y121283D01*
X180518Y121164D01*
X180553Y121042D01*
X180577Y121000D01*
X180593Y120954D01*
X180662Y120848D01*
X180723Y120738D01*
X180763Y120692D01*
X180782Y120662D01*
X180817Y120628D01*
X180882Y120552D01*
X242472Y58962D01*
X242571Y58883D01*
X242665Y58799D01*
X242707Y58775D01*
X242745Y58745D01*
X242859Y58691D01*
X242970Y58630D01*
X243016Y58617D01*
X243060Y58596D01*
X243183Y58570D01*
X243305Y58535D01*
X243366Y58530D01*
X243400Y58523D01*
X243448Y58524D01*
X243549Y58516D01*
X255812Y58516D01*
X255937Y58530D01*
X256063Y58537D01*
X256110Y58550D01*
X256158Y58556D01*
X256277Y58598D01*
X256398Y58633D01*
X256440Y58657D01*
X256486Y58673D01*
X256592Y58742D01*
X256702Y58803D01*
X256749Y58843D01*
X256779Y58862D01*
X256812Y58897D01*
X256889Y58962D01*
X257220Y59294D01*
X259251Y60135D01*
X261449Y60135D01*
X263480Y59294D01*
X265034Y57740D01*
X265875Y55709D01*
X265875Y53511D01*
X265034Y51480D01*
X263480Y49926D01*
X261449Y49085D01*
X259251Y49085D01*
X257220Y49926D01*
X256889Y50258D01*
X256790Y50337D01*
X256696Y50421D01*
X256654Y50445D01*
X256616Y50475D01*
X256502Y50529D01*
X256391Y50590D01*
X256344Y50603D01*
X256301Y50624D01*
X256177Y50650D01*
X256055Y50685D01*
X255995Y50690D01*
X255960Y50697D01*
X255912Y50696D01*
X255812Y50704D01*
X239682Y50704D01*
X172624Y117762D01*
X172624Y141512D01*
X172610Y141637D01*
X172603Y141763D01*
X172590Y141810D01*
X172584Y141858D01*
X172542Y141977D01*
X172507Y142098D01*
X172483Y142140D01*
X172467Y142186D01*
X172398Y142292D01*
X172337Y142402D01*
X172297Y142449D01*
X172278Y142479D01*
X172243Y142512D01*
X172178Y142589D01*
X171846Y142920D01*
X171005Y144951D01*
X171005Y147149D01*
X171846Y149180D01*
X173400Y150734D01*
X175431Y151575D01*
X175721Y151575D01*
X175846Y151589D01*
X175972Y151596D01*
X176019Y151609D01*
X176067Y151615D01*
X176186Y151657D01*
X176307Y151692D01*
X176349Y151716D01*
X176395Y151732D01*
X176501Y151801D01*
X176612Y151862D01*
X176658Y151902D01*
X176688Y151921D01*
X176721Y151956D01*
X176798Y152021D01*
X216501Y191724D01*
X216580Y191823D01*
X216664Y191917D01*
X216688Y191959D01*
X216718Y191997D01*
X216772Y192111D01*
X216833Y192222D01*
X216846Y192269D01*
X216867Y192312D01*
X216893Y192436D01*
X216928Y192558D01*
X216933Y192618D01*
X216940Y192653D01*
X216939Y192701D01*
X216947Y192801D01*
X216947Y211489D01*
X216933Y211614D01*
X216926Y211740D01*
X216913Y211787D01*
X216907Y211835D01*
X216865Y211954D01*
X216830Y212075D01*
X216806Y212117D01*
X216790Y212163D01*
X216721Y212269D01*
X216660Y212379D01*
X216620Y212426D01*
X216601Y212456D01*
X216566Y212489D01*
X216501Y212566D01*
X216296Y212770D01*
X215455Y214801D01*
X215455Y216999D01*
X216296Y219030D01*
X216501Y219234D01*
X216580Y219333D01*
X216664Y219427D01*
X216688Y219469D01*
X216718Y219507D01*
X216772Y219621D01*
X216833Y219732D01*
X216846Y219779D01*
X216867Y219822D01*
X216893Y219946D01*
X216928Y220068D01*
X216933Y220128D01*
X216940Y220163D01*
X216939Y220211D01*
X216947Y220311D01*
X216947Y254239D01*
X216933Y254364D01*
X216926Y254490D01*
X216913Y254537D01*
X216907Y254585D01*
X216865Y254704D01*
X216830Y254825D01*
X216806Y254867D01*
X216790Y254913D01*
X216721Y255019D01*
X216660Y255129D01*
X216620Y255176D01*
X216601Y255206D01*
X216566Y255239D01*
X216501Y255316D01*
X200198Y271619D01*
X200099Y271698D01*
X200005Y271782D01*
X199963Y271806D01*
X199925Y271836D01*
X199811Y271890D01*
X199700Y271951D01*
X199653Y271964D01*
X199610Y271985D01*
X199486Y272011D01*
X199364Y272046D01*
X199304Y272051D01*
X199269Y272058D01*
X199221Y272057D01*
X199121Y272065D01*
X198184Y272065D01*
X195955Y272989D01*
X194249Y274695D01*
X193325Y276924D01*
X193325Y279336D01*
X194249Y281565D01*
X200468Y287785D01*
X200530Y287863D01*
X200600Y287936D01*
X200639Y288000D01*
X200685Y288058D01*
X200728Y288149D01*
X200779Y288235D01*
X200802Y288306D01*
X200834Y288373D01*
X200855Y288471D01*
X200885Y288567D01*
X200891Y288641D01*
X200907Y288714D01*
X200905Y288814D01*
X200913Y288914D01*
X200902Y288988D01*
X200901Y289062D01*
X200877Y289159D01*
X200862Y289259D01*
X200834Y289328D01*
X200816Y289400D01*
X200770Y289490D01*
X200733Y289583D01*
X200691Y289644D01*
X200656Y289710D01*
X200591Y289787D01*
X200534Y289869D01*
X200479Y289919D01*
X200431Y289975D01*
X200350Y290035D01*
X200275Y290102D01*
X200210Y290138D01*
X200150Y290183D01*
X200058Y290222D01*
X199970Y290271D01*
X199899Y290291D01*
X199830Y290321D01*
X199731Y290338D01*
X199635Y290366D01*
X199602Y290368D01*
X197530Y291226D01*
X195976Y292780D01*
X195135Y294811D01*
X195135Y297009D01*
X195976Y299040D01*
X197530Y300594D01*
X199561Y301435D01*
X201759Y301435D01*
X203790Y300594D01*
X205344Y299040D01*
X206185Y297009D01*
X206185Y296484D01*
X206202Y296335D01*
X206214Y296185D01*
X206222Y296162D01*
X206225Y296138D01*
X206275Y295997D01*
X206321Y295853D01*
X206334Y295833D01*
X206342Y295810D01*
X206424Y295683D01*
X206501Y295555D01*
X206518Y295537D01*
X206531Y295517D01*
X206640Y295412D01*
X206744Y295305D01*
X206764Y295292D01*
X206782Y295275D01*
X206911Y295198D01*
X207037Y295116D01*
X207060Y295108D01*
X207081Y295096D01*
X207224Y295050D01*
X207366Y295000D01*
X207390Y294997D01*
X207413Y294990D01*
X207562Y294978D01*
X207712Y294961D01*
X207736Y294964D01*
X207760Y294962D01*
X207908Y294984D01*
X208058Y295002D01*
X208086Y295011D01*
X208105Y295013D01*
X208148Y295031D01*
X208291Y295077D01*
X209614Y295625D01*
X210551Y295625D01*
X210676Y295639D01*
X210802Y295646D01*
X210849Y295659D01*
X210897Y295665D01*
X211016Y295707D01*
X211137Y295742D01*
X211179Y295766D01*
X211225Y295782D01*
X211331Y295851D01*
X211441Y295912D01*
X211488Y295952D01*
X211518Y295971D01*
X211551Y296006D01*
X211628Y296071D01*
X228200Y312643D01*
X258479Y312643D01*
X258604Y312657D01*
X258730Y312664D01*
X258777Y312677D01*
X258825Y312683D01*
X258944Y312725D01*
X259065Y312760D01*
X259107Y312784D01*
X259153Y312800D01*
X259259Y312869D01*
X259369Y312930D01*
X259416Y312970D01*
X259446Y312989D01*
X259479Y313024D01*
X259556Y313089D01*
X259760Y313294D01*
X261791Y314135D01*
X263989Y314135D01*
X266020Y313294D01*
X267574Y311740D01*
X268415Y309709D01*
X268415Y309419D01*
X268429Y309294D01*
X268436Y309168D01*
X268449Y309121D01*
X268455Y309073D01*
X268497Y308954D01*
X268532Y308833D01*
X268556Y308791D01*
X268572Y308745D01*
X268641Y308639D01*
X268702Y308529D01*
X268742Y308482D01*
X268761Y308452D01*
X268796Y308419D01*
X268861Y308342D01*
X304754Y272449D01*
X304853Y272370D01*
X304947Y272286D01*
X304989Y272262D01*
X305027Y272232D01*
X305141Y272178D01*
X305252Y272117D01*
X305299Y272104D01*
X305342Y272083D01*
X305466Y272057D01*
X305588Y272022D01*
X305648Y272017D01*
X305683Y272010D01*
X305731Y272011D01*
X305831Y272003D01*
X311844Y272003D01*
X311846Y272003D01*
X311849Y272003D01*
X312022Y272023D01*
X312190Y272043D01*
X312192Y272043D01*
X312195Y272044D01*
X312356Y272102D01*
X312518Y272160D01*
X312520Y272162D01*
X312523Y272162D01*
X312665Y272255D01*
X312811Y272349D01*
X312813Y272351D01*
X312815Y272352D01*
X312990Y272523D01*
X325568Y286898D01*
X325612Y286960D01*
X325662Y287017D01*
X325710Y287103D01*
X325766Y287185D01*
X325794Y287255D01*
X325831Y287322D01*
X325858Y287417D01*
X325894Y287509D01*
X325905Y287584D01*
X325926Y287657D01*
X325938Y287807D01*
X325945Y287854D01*
X325943Y287873D01*
X325945Y287901D01*
X325945Y289389D01*
X326786Y291420D01*
X328340Y292974D01*
X330371Y293815D01*
X332569Y293815D01*
X334600Y292974D01*
X336154Y291420D01*
X336995Y289389D01*
X336995Y287191D01*
X336154Y285160D01*
X334600Y283606D01*
X332569Y282765D01*
X332011Y282765D01*
X332008Y282765D01*
X332006Y282765D01*
X331833Y282745D01*
X331664Y282725D01*
X331662Y282725D01*
X331659Y282724D01*
X331500Y282667D01*
X331336Y282608D01*
X331334Y282606D01*
X331332Y282606D01*
X331186Y282511D01*
X331043Y282419D01*
X331042Y282417D01*
X331040Y282416D01*
X330864Y282245D01*
X318100Y267657D01*
X318056Y267594D01*
X318006Y267538D01*
X317958Y267451D01*
X317902Y267370D01*
X317874Y267300D01*
X317837Y267233D01*
X317810Y267138D01*
X317774Y267046D01*
X317763Y266971D01*
X317742Y266898D01*
X317730Y266748D01*
X317723Y266701D01*
X317725Y266682D01*
X317723Y266654D01*
X317723Y260111D01*
X317737Y259986D01*
X317744Y259860D01*
X317757Y259813D01*
X317763Y259765D01*
X317805Y259646D01*
X317840Y259525D01*
X317864Y259483D01*
X317880Y259437D01*
X317949Y259331D01*
X318010Y259221D01*
X318050Y259174D01*
X318069Y259144D01*
X318104Y259111D01*
X318169Y259034D01*
X369795Y207408D01*
X369873Y207346D01*
X369946Y207276D01*
X370010Y207238D01*
X370068Y207192D01*
X370159Y207149D01*
X370245Y207097D01*
X370316Y207074D01*
X370383Y207043D01*
X370481Y207022D01*
X370577Y206991D01*
X370651Y206985D01*
X370724Y206969D01*
X370824Y206971D01*
X370924Y206963D01*
X370998Y206974D01*
X371072Y206975D01*
X371169Y207000D01*
X371269Y207015D01*
X371338Y207042D01*
X371410Y207060D01*
X371500Y207106D01*
X371593Y207143D01*
X371654Y207186D01*
X371720Y207220D01*
X371797Y207285D01*
X371879Y207342D01*
X371929Y207397D01*
X371985Y207446D01*
X372045Y207527D01*
X372112Y207601D01*
X372148Y207666D01*
X372193Y207726D01*
X372232Y207818D01*
X372281Y207906D01*
X372301Y207978D01*
X372331Y208046D01*
X372348Y208145D01*
X372376Y208242D01*
X372384Y208342D01*
X372392Y208389D01*
X372390Y208425D01*
X372395Y208485D01*
X372395Y216186D01*
X372387Y216262D01*
X372388Y216339D01*
X372367Y216435D01*
X372355Y216532D01*
X372330Y216604D01*
X372313Y216679D01*
X372271Y216768D01*
X372238Y216861D01*
X372196Y216925D01*
X372164Y216994D01*
X372102Y217071D01*
X372049Y217153D01*
X371994Y217207D01*
X371946Y217266D01*
X371869Y217327D01*
X371798Y217396D01*
X371733Y217435D01*
X371673Y217482D01*
X371540Y217550D01*
X371532Y217555D01*
X369966Y219120D01*
X369125Y221151D01*
X369125Y223349D01*
X369966Y225380D01*
X371536Y226949D01*
X371593Y226972D01*
X371673Y227028D01*
X371759Y227076D01*
X371816Y227127D01*
X371879Y227171D01*
X371945Y227244D01*
X372018Y227310D01*
X372061Y227373D01*
X372112Y227430D01*
X372160Y227516D01*
X372216Y227597D01*
X372244Y227668D01*
X372281Y227735D01*
X372308Y227829D01*
X372344Y227921D01*
X372355Y227996D01*
X372376Y228070D01*
X372388Y228219D01*
X372395Y228266D01*
X372393Y228285D01*
X372395Y228314D01*
X372395Y259529D01*
X372381Y259655D01*
X372374Y259781D01*
X372361Y259827D01*
X372355Y259875D01*
X372313Y259994D01*
X372278Y260116D01*
X372254Y260158D01*
X372238Y260203D01*
X372169Y260310D01*
X372108Y260420D01*
X372068Y260466D01*
X372049Y260496D01*
X372014Y260530D01*
X371949Y260606D01*
X370334Y262221D01*
X370235Y262300D01*
X370141Y262384D01*
X370099Y262408D01*
X370061Y262438D01*
X369947Y262492D01*
X369836Y262553D01*
X369790Y262566D01*
X369746Y262587D01*
X369623Y262613D01*
X369501Y262648D01*
X369440Y262653D01*
X369405Y262660D01*
X369357Y262659D01*
X369257Y262667D01*
X357471Y262667D01*
X357346Y262653D01*
X357219Y262646D01*
X357173Y262633D01*
X357125Y262627D01*
X357006Y262585D01*
X356885Y262550D01*
X356843Y262526D01*
X356797Y262510D01*
X356691Y262441D01*
X356580Y262380D01*
X356534Y262340D01*
X356504Y262321D01*
X356471Y262286D01*
X356394Y262221D01*
X356189Y262016D01*
X354159Y261175D01*
X351961Y261175D01*
X349930Y262016D01*
X348376Y263570D01*
X347535Y265601D01*
X347535Y267799D01*
X348376Y269829D01*
X348581Y270034D01*
X348660Y270133D01*
X348744Y270227D01*
X348768Y270269D01*
X348798Y270307D01*
X348852Y270421D01*
X348913Y270532D01*
X348926Y270579D01*
X348947Y270622D01*
X348973Y270746D01*
X349008Y270868D01*
X349013Y270928D01*
X349020Y270963D01*
X349019Y271011D01*
X349027Y271111D01*
X349027Y317739D01*
X349013Y317864D01*
X349006Y317990D01*
X348993Y318037D01*
X348987Y318085D01*
X348945Y318204D01*
X348910Y318325D01*
X348886Y318368D01*
X348870Y318413D01*
X348801Y318519D01*
X348740Y318630D01*
X348700Y318676D01*
X348681Y318706D01*
X348646Y318739D01*
X348581Y318816D01*
X343168Y324229D01*
X343069Y324308D01*
X342975Y324392D01*
X342933Y324416D01*
X342895Y324446D01*
X342781Y324500D01*
X342670Y324561D01*
X342623Y324574D01*
X342580Y324595D01*
X342456Y324621D01*
X342334Y324656D01*
X342274Y324661D01*
X342239Y324668D01*
X342191Y324667D01*
X342091Y324675D01*
X341801Y324675D01*
X339770Y325516D01*
X338216Y327070D01*
X337717Y328275D01*
X337680Y328342D01*
X337652Y328413D01*
X337596Y328494D01*
X337548Y328580D01*
X337497Y328636D01*
X337453Y328699D01*
X337380Y328765D01*
X337314Y328838D01*
X337251Y328881D01*
X337194Y328932D01*
X337108Y328980D01*
X337027Y329036D01*
X336956Y329064D01*
X336889Y329101D01*
X336795Y329128D01*
X336703Y329164D01*
X336628Y329175D01*
X336554Y329196D01*
X336405Y329208D01*
X336358Y329215D01*
X336339Y329213D01*
X336310Y329215D01*
X290184Y329215D01*
X290182Y329215D01*
X290180Y329215D01*
X290009Y329195D01*
X289838Y329175D01*
X289836Y329175D01*
X289834Y329174D01*
X289601Y329099D01*
X288119Y328485D01*
X285921Y328485D01*
X284439Y329099D01*
X284437Y329100D01*
X284435Y329101D01*
X284268Y329148D01*
X284104Y329195D01*
X284101Y329195D01*
X284099Y329196D01*
X283856Y329215D01*
X128080Y329215D01*
X126015Y331280D01*
X126015Y332740D01*
X126012Y332766D01*
X126014Y332792D01*
X125992Y332939D01*
X125975Y333086D01*
X125967Y333111D01*
X125963Y333137D01*
X125908Y333275D01*
X125858Y333414D01*
X125844Y333436D01*
X125834Y333461D01*
X125749Y333582D01*
X125669Y333707D01*
X125650Y333725D01*
X125635Y333747D01*
X125525Y333846D01*
X125418Y333949D01*
X125396Y333963D01*
X125376Y333980D01*
X125246Y334052D01*
X125119Y334128D01*
X125094Y334136D01*
X125071Y334149D01*
X124928Y334189D01*
X124787Y334234D01*
X124761Y334236D01*
X124736Y334244D01*
X124492Y334263D01*
X99313Y334263D01*
X99313Y373666D01*
X99310Y373692D01*
X99312Y373718D01*
X99290Y373865D01*
X99273Y374012D01*
X99265Y374037D01*
X99261Y374063D01*
X99206Y374201D01*
X99156Y374340D01*
X99142Y374362D01*
X99132Y374387D01*
X99047Y374508D01*
X98967Y374633D01*
X98948Y374651D01*
X98933Y374673D01*
X98823Y374772D01*
X98716Y374875D01*
X98694Y374889D01*
X98674Y374906D01*
X98544Y374978D01*
X98417Y375054D01*
X98392Y375062D01*
X98369Y375075D01*
X98226Y375115D01*
X98085Y375160D01*
X98059Y375162D01*
X98034Y375170D01*
X97790Y375189D01*
X37020Y375189D01*
X36894Y375175D01*
X36768Y375168D01*
X36721Y375155D01*
X36673Y375149D01*
X36554Y375107D01*
X36433Y375072D01*
X36391Y375048D01*
X36345Y375032D01*
X36239Y374963D01*
X36129Y374902D01*
X36083Y374862D01*
X36053Y374843D01*
X36019Y374808D01*
X35943Y374743D01*
X6257Y345057D01*
X6178Y344958D01*
X6094Y344865D01*
X6070Y344822D01*
X6040Y344784D01*
X5986Y344670D01*
X5925Y344559D01*
X5912Y344513D01*
X5891Y344469D01*
X5865Y344346D01*
X5830Y344224D01*
X5825Y344163D01*
X5818Y344129D01*
X5819Y344081D01*
X5811Y343980D01*
X5811Y14160D01*
X5812Y14145D01*
X5812Y14135D01*
X5820Y14077D01*
X5825Y14034D01*
X5832Y13908D01*
X5845Y13861D01*
X5851Y13813D01*
X5893Y13694D01*
X5928Y13573D01*
X5952Y13531D01*
X5968Y13485D01*
X6037Y13379D01*
X6098Y13269D01*
X6138Y13223D01*
X6157Y13193D01*
X6192Y13159D01*
X6257Y13083D01*
X16893Y2447D01*
X16992Y2368D01*
X17085Y2284D01*
X17128Y2260D01*
X17166Y2230D01*
X17280Y2176D01*
X17390Y2115D01*
X17437Y2102D01*
X17481Y2081D01*
X17604Y2055D01*
X17726Y2020D01*
X17787Y2015D01*
X17821Y2008D01*
X17869Y2009D01*
X17970Y2001D01*
X243049Y2001D01*
X243148Y2012D01*
G37*
G36*
X645472Y51820D02*
X645472Y51820D01*
X645498Y51818D01*
X645645Y51840D01*
X645792Y51857D01*
X645817Y51865D01*
X645843Y51869D01*
X645981Y51924D01*
X646120Y51974D01*
X646142Y51988D01*
X646167Y51998D01*
X646288Y52083D01*
X646413Y52163D01*
X646431Y52182D01*
X646453Y52197D01*
X646552Y52307D01*
X646655Y52414D01*
X646669Y52436D01*
X646686Y52456D01*
X646758Y52586D01*
X646834Y52713D01*
X646842Y52738D01*
X646855Y52761D01*
X646895Y52904D01*
X646940Y53045D01*
X646942Y53071D01*
X646950Y53096D01*
X646969Y53340D01*
X646969Y265240D01*
X646955Y265366D01*
X646948Y265492D01*
X646935Y265539D01*
X646929Y265587D01*
X646887Y265705D01*
X646852Y265827D01*
X646828Y265869D01*
X646812Y265915D01*
X646743Y266021D01*
X646682Y266131D01*
X646642Y266177D01*
X646623Y266207D01*
X646588Y266241D01*
X646523Y266317D01*
X597439Y315401D01*
X597439Y369380D01*
X597425Y369506D01*
X597418Y369632D01*
X597405Y369679D01*
X597399Y369727D01*
X597357Y369845D01*
X597322Y369967D01*
X597298Y370009D01*
X597282Y370055D01*
X597213Y370161D01*
X597152Y370271D01*
X597112Y370317D01*
X597093Y370347D01*
X597058Y370381D01*
X596993Y370457D01*
X592707Y374743D01*
X592608Y374822D01*
X592515Y374906D01*
X592472Y374930D01*
X592434Y374960D01*
X592320Y375014D01*
X592209Y375075D01*
X592163Y375088D01*
X592119Y375109D01*
X591996Y375135D01*
X591874Y375170D01*
X591813Y375175D01*
X591779Y375182D01*
X591731Y375181D01*
X591630Y375189D01*
X393700Y375189D01*
X393674Y375186D01*
X393648Y375188D01*
X393501Y375166D01*
X393354Y375149D01*
X393329Y375141D01*
X393303Y375137D01*
X393165Y375082D01*
X393026Y375032D01*
X393004Y375018D01*
X392979Y375008D01*
X392858Y374923D01*
X392733Y374843D01*
X392715Y374824D01*
X392693Y374809D01*
X392594Y374699D01*
X392491Y374592D01*
X392477Y374570D01*
X392460Y374550D01*
X392388Y374420D01*
X392312Y374293D01*
X392304Y374268D01*
X392291Y374245D01*
X392251Y374102D01*
X392206Y373961D01*
X392204Y373935D01*
X392196Y373910D01*
X392177Y373666D01*
X392177Y332740D01*
X392191Y332614D01*
X392198Y332488D01*
X392211Y332442D01*
X392217Y332394D01*
X392259Y332275D01*
X392294Y332153D01*
X392318Y332111D01*
X392334Y332066D01*
X392403Y331959D01*
X392464Y331849D01*
X392504Y331803D01*
X392523Y331773D01*
X392558Y331739D01*
X392623Y331663D01*
X400243Y324043D01*
X400342Y323964D01*
X400436Y323880D01*
X400478Y323856D01*
X400516Y323826D01*
X400630Y323772D01*
X400741Y323711D01*
X400787Y323698D01*
X400831Y323677D01*
X400954Y323651D01*
X401076Y323616D01*
X401137Y323612D01*
X401172Y323604D01*
X401220Y323605D01*
X401320Y323597D01*
X405702Y323597D01*
X405728Y323600D01*
X405754Y323598D01*
X405901Y323620D01*
X406048Y323637D01*
X406073Y323645D01*
X406099Y323649D01*
X406237Y323704D01*
X406376Y323754D01*
X406398Y323768D01*
X406423Y323778D01*
X406544Y323863D01*
X406669Y323943D01*
X406687Y323962D01*
X406709Y323977D01*
X406808Y324087D01*
X406911Y324194D01*
X406925Y324216D01*
X406942Y324236D01*
X407014Y324366D01*
X407090Y324493D01*
X407098Y324518D01*
X407111Y324541D01*
X407151Y324684D01*
X407196Y324825D01*
X407198Y324851D01*
X407206Y324876D01*
X407208Y324908D01*
X408066Y326980D01*
X409620Y328534D01*
X411651Y329375D01*
X413849Y329375D01*
X415880Y328534D01*
X417434Y326980D01*
X418302Y324883D01*
X418315Y324774D01*
X418323Y324749D01*
X418327Y324723D01*
X418382Y324585D01*
X418432Y324446D01*
X418446Y324424D01*
X418456Y324399D01*
X418541Y324278D01*
X418621Y324153D01*
X418640Y324135D01*
X418655Y324113D01*
X418765Y324014D01*
X418872Y323911D01*
X418894Y323897D01*
X418914Y323880D01*
X419044Y323808D01*
X419171Y323732D01*
X419196Y323724D01*
X419219Y323711D01*
X419362Y323671D01*
X419503Y323626D01*
X419529Y323624D01*
X419554Y323616D01*
X419798Y323597D01*
X451489Y323597D01*
X455677Y319409D01*
X455677Y264160D01*
X455691Y264034D01*
X455698Y263908D01*
X455711Y263862D01*
X455717Y263814D01*
X455759Y263695D01*
X455794Y263573D01*
X455818Y263531D01*
X455834Y263486D01*
X455903Y263379D01*
X455964Y263269D01*
X456004Y263223D01*
X456023Y263193D01*
X456058Y263159D01*
X456123Y263083D01*
X461203Y258003D01*
X461302Y257924D01*
X461396Y257840D01*
X461438Y257816D01*
X461476Y257786D01*
X461590Y257732D01*
X461701Y257671D01*
X461747Y257658D01*
X461791Y257637D01*
X461914Y257611D01*
X462036Y257576D01*
X462097Y257572D01*
X462132Y257564D01*
X462180Y257565D01*
X462280Y257557D01*
X479429Y257557D01*
X529337Y207649D01*
X529337Y178431D01*
X525149Y174243D01*
X490220Y174243D01*
X490094Y174229D01*
X489968Y174222D01*
X489922Y174209D01*
X489874Y174203D01*
X489755Y174161D01*
X489633Y174126D01*
X489591Y174102D01*
X489546Y174086D01*
X489439Y174017D01*
X489329Y173956D01*
X489283Y173916D01*
X489253Y173897D01*
X489219Y173862D01*
X489143Y173797D01*
X484063Y168717D01*
X483984Y168618D01*
X483900Y168524D01*
X483876Y168482D01*
X483846Y168444D01*
X483792Y168330D01*
X483731Y168219D01*
X483718Y168173D01*
X483697Y168129D01*
X483671Y168006D01*
X483636Y167884D01*
X483632Y167823D01*
X483624Y167788D01*
X483625Y167740D01*
X483617Y167640D01*
X483617Y109220D01*
X483631Y109094D01*
X483638Y108968D01*
X483651Y108922D01*
X483657Y108874D01*
X483699Y108755D01*
X483734Y108633D01*
X483758Y108591D01*
X483774Y108546D01*
X483843Y108439D01*
X483904Y108329D01*
X483944Y108283D01*
X483963Y108253D01*
X483998Y108219D01*
X484063Y108143D01*
X489143Y103063D01*
X489242Y102984D01*
X489336Y102900D01*
X489378Y102876D01*
X489416Y102846D01*
X489530Y102792D01*
X489641Y102731D01*
X489687Y102718D01*
X489731Y102697D01*
X489854Y102671D01*
X489976Y102636D01*
X490037Y102632D01*
X490072Y102624D01*
X490120Y102625D01*
X490220Y102617D01*
X548009Y102617D01*
X552197Y98429D01*
X552197Y60960D01*
X552202Y60913D01*
X552201Y60904D01*
X552209Y60853D01*
X552211Y60834D01*
X552218Y60708D01*
X552231Y60662D01*
X552237Y60614D01*
X552251Y60574D01*
X552253Y60559D01*
X552280Y60491D01*
X552314Y60373D01*
X552338Y60331D01*
X552354Y60286D01*
X552374Y60254D01*
X552382Y60235D01*
X552431Y60165D01*
X552484Y60069D01*
X552524Y60023D01*
X552543Y59993D01*
X552566Y59971D01*
X552581Y59949D01*
X552605Y59928D01*
X552643Y59883D01*
X560263Y52263D01*
X560362Y52184D01*
X560456Y52100D01*
X560498Y52076D01*
X560536Y52046D01*
X560650Y51992D01*
X560761Y51931D01*
X560807Y51918D01*
X560851Y51897D01*
X560974Y51871D01*
X561096Y51836D01*
X561157Y51832D01*
X561192Y51824D01*
X561240Y51825D01*
X561340Y51817D01*
X645446Y51817D01*
X645472Y51820D01*
G37*
G36*
X350646Y23891D02*
X350646Y23891D01*
X350772Y23898D01*
X350818Y23911D01*
X350866Y23917D01*
X350985Y23959D01*
X351107Y23994D01*
X351149Y24018D01*
X351194Y24034D01*
X351301Y24103D01*
X351411Y24164D01*
X351457Y24204D01*
X351487Y24223D01*
X351521Y24258D01*
X351597Y24323D01*
X453197Y125923D01*
X453276Y126022D01*
X453360Y126116D01*
X453384Y126158D01*
X453414Y126196D01*
X453468Y126310D01*
X453529Y126421D01*
X453542Y126467D01*
X453563Y126511D01*
X453589Y126634D01*
X453624Y126756D01*
X453629Y126817D01*
X453636Y126852D01*
X453635Y126900D01*
X453643Y127000D01*
X453643Y213360D01*
X453629Y213486D01*
X453622Y213612D01*
X453609Y213658D01*
X453603Y213706D01*
X453561Y213825D01*
X453526Y213947D01*
X453502Y213989D01*
X453486Y214034D01*
X453417Y214141D01*
X453356Y214251D01*
X453316Y214297D01*
X453297Y214327D01*
X453262Y214361D01*
X453197Y214437D01*
X390143Y277491D01*
X390143Y373666D01*
X390140Y373692D01*
X390142Y373718D01*
X390120Y373865D01*
X390103Y374012D01*
X390095Y374037D01*
X390091Y374063D01*
X390036Y374201D01*
X389986Y374340D01*
X389972Y374362D01*
X389962Y374387D01*
X389877Y374508D01*
X389797Y374633D01*
X389778Y374651D01*
X389763Y374673D01*
X389653Y374772D01*
X389546Y374875D01*
X389524Y374889D01*
X389504Y374906D01*
X389374Y374978D01*
X389247Y375054D01*
X389222Y375062D01*
X389199Y375075D01*
X389056Y375115D01*
X388915Y375160D01*
X388889Y375162D01*
X388864Y375170D01*
X388620Y375189D01*
X129540Y375189D01*
X129514Y375186D01*
X129488Y375188D01*
X129341Y375166D01*
X129194Y375149D01*
X129169Y375141D01*
X129143Y375137D01*
X129005Y375082D01*
X128866Y375032D01*
X128844Y375018D01*
X128819Y375008D01*
X128698Y374923D01*
X128573Y374843D01*
X128555Y374824D01*
X128533Y374809D01*
X128434Y374699D01*
X128331Y374592D01*
X128317Y374570D01*
X128300Y374550D01*
X128228Y374420D01*
X128152Y374293D01*
X128144Y374268D01*
X128131Y374245D01*
X128091Y374102D01*
X128046Y373961D01*
X128044Y373935D01*
X128036Y373910D01*
X128017Y373666D01*
X128017Y332740D01*
X128020Y332714D01*
X128018Y332688D01*
X128040Y332541D01*
X128057Y332394D01*
X128065Y332369D01*
X128069Y332343D01*
X128124Y332205D01*
X128174Y332066D01*
X128188Y332044D01*
X128198Y332019D01*
X128283Y331898D01*
X128363Y331773D01*
X128382Y331755D01*
X128397Y331733D01*
X128507Y331634D01*
X128614Y331531D01*
X128636Y331517D01*
X128656Y331500D01*
X128786Y331428D01*
X128913Y331352D01*
X128938Y331344D01*
X128961Y331331D01*
X129104Y331291D01*
X129245Y331246D01*
X129271Y331244D01*
X129296Y331236D01*
X129540Y331217D01*
X279972Y331217D01*
X279998Y331220D01*
X280024Y331218D01*
X280171Y331240D01*
X280318Y331257D01*
X280343Y331265D01*
X280369Y331269D01*
X280507Y331324D01*
X280646Y331374D01*
X280668Y331388D01*
X280693Y331398D01*
X280814Y331483D01*
X280939Y331563D01*
X280957Y331582D01*
X280979Y331597D01*
X281078Y331707D01*
X281181Y331814D01*
X281195Y331836D01*
X281212Y331856D01*
X281284Y331986D01*
X281360Y332113D01*
X281368Y332138D01*
X281381Y332161D01*
X281421Y332304D01*
X281466Y332445D01*
X281468Y332471D01*
X281476Y332496D01*
X281495Y332740D01*
X281495Y335109D01*
X282336Y337140D01*
X283890Y338694D01*
X285921Y339535D01*
X288119Y339535D01*
X290150Y338694D01*
X291704Y337140D01*
X292545Y335109D01*
X292545Y332740D01*
X292548Y332714D01*
X292546Y332688D01*
X292568Y332541D01*
X292585Y332394D01*
X292593Y332369D01*
X292597Y332343D01*
X292652Y332205D01*
X292702Y332066D01*
X292716Y332044D01*
X292726Y332019D01*
X292811Y331898D01*
X292891Y331773D01*
X292910Y331755D01*
X292925Y331733D01*
X293035Y331634D01*
X293142Y331531D01*
X293164Y331517D01*
X293184Y331500D01*
X293314Y331428D01*
X293441Y331352D01*
X293466Y331344D01*
X293489Y331331D01*
X293632Y331291D01*
X293773Y331246D01*
X293799Y331244D01*
X293824Y331236D01*
X294068Y331217D01*
X304993Y331217D01*
X305092Y331228D01*
X305193Y331230D01*
X305265Y331248D01*
X305339Y331257D01*
X305434Y331291D01*
X305531Y331315D01*
X305597Y331349D01*
X305667Y331374D01*
X305751Y331429D01*
X305841Y331475D01*
X305897Y331523D01*
X305960Y331563D01*
X306030Y331635D01*
X306106Y331700D01*
X306150Y331760D01*
X306202Y331814D01*
X306254Y331900D01*
X306313Y331981D01*
X306343Y332049D01*
X306381Y332113D01*
X306411Y332209D01*
X306451Y332301D01*
X306464Y332374D01*
X306487Y332445D01*
X306495Y332545D01*
X306513Y332644D01*
X306509Y332718D01*
X306515Y332792D01*
X306500Y332892D01*
X306495Y332992D01*
X306474Y333063D01*
X306463Y333137D01*
X306426Y333230D01*
X306398Y333327D01*
X306362Y333392D01*
X306335Y333461D01*
X306277Y333543D01*
X306228Y333631D01*
X306163Y333707D01*
X306136Y333747D01*
X306109Y333771D01*
X306070Y333817D01*
X305196Y334691D01*
X304355Y336721D01*
X304355Y338919D01*
X305196Y340950D01*
X306750Y342504D01*
X308781Y343345D01*
X310979Y343345D01*
X313010Y342504D01*
X314564Y340950D01*
X315405Y338919D01*
X315405Y336721D01*
X314564Y334691D01*
X313690Y333817D01*
X313628Y333738D01*
X313558Y333666D01*
X313520Y333602D01*
X313474Y333544D01*
X313431Y333453D01*
X313379Y333367D01*
X313357Y333296D01*
X313325Y333229D01*
X313304Y333131D01*
X313273Y333035D01*
X313267Y332961D01*
X313251Y332888D01*
X313253Y332788D01*
X313245Y332688D01*
X313256Y332614D01*
X313257Y332540D01*
X313282Y332443D01*
X313297Y332343D01*
X313324Y332274D01*
X313342Y332202D01*
X313388Y332113D01*
X313425Y332019D01*
X313468Y331958D01*
X313502Y331892D01*
X313567Y331816D01*
X313624Y331733D01*
X313680Y331683D01*
X313728Y331627D01*
X313809Y331567D01*
X313883Y331500D01*
X313948Y331464D01*
X314008Y331420D01*
X314100Y331380D01*
X314188Y331331D01*
X314260Y331311D01*
X314328Y331281D01*
X314427Y331264D01*
X314524Y331236D01*
X314624Y331228D01*
X314671Y331220D01*
X314707Y331222D01*
X314767Y331217D01*
X339729Y331217D01*
X351537Y319409D01*
X351537Y266700D01*
X351540Y266674D01*
X351538Y266648D01*
X351560Y266501D01*
X351577Y266354D01*
X351585Y266329D01*
X351589Y266303D01*
X351644Y266165D01*
X351694Y266026D01*
X351708Y266004D01*
X351718Y265979D01*
X351803Y265858D01*
X351883Y265733D01*
X351902Y265715D01*
X351917Y265693D01*
X352027Y265594D01*
X352134Y265491D01*
X352156Y265477D01*
X352176Y265460D01*
X352306Y265388D01*
X352433Y265312D01*
X352458Y265304D01*
X352481Y265291D01*
X352624Y265251D01*
X352765Y265206D01*
X352791Y265204D01*
X352816Y265196D01*
X353060Y265177D01*
X370209Y265177D01*
X374397Y260989D01*
X374397Y229298D01*
X374400Y229272D01*
X374398Y229246D01*
X374420Y229099D01*
X374437Y228952D01*
X374445Y228927D01*
X374449Y228901D01*
X374504Y228763D01*
X374554Y228624D01*
X374568Y228602D01*
X374578Y228577D01*
X374663Y228456D01*
X374743Y228331D01*
X374762Y228313D01*
X374777Y228291D01*
X374887Y228192D01*
X374994Y228089D01*
X375016Y228075D01*
X375036Y228058D01*
X375166Y227986D01*
X375293Y227910D01*
X375318Y227902D01*
X375341Y227889D01*
X375484Y227849D01*
X375625Y227804D01*
X375651Y227802D01*
X375676Y227794D01*
X375708Y227792D01*
X377780Y226934D01*
X379334Y225380D01*
X380175Y223349D01*
X380175Y221151D01*
X379334Y219120D01*
X377780Y217566D01*
X375683Y216698D01*
X375574Y216685D01*
X375549Y216677D01*
X375523Y216673D01*
X375385Y216618D01*
X375246Y216568D01*
X375224Y216554D01*
X375199Y216544D01*
X375078Y216459D01*
X374953Y216379D01*
X374935Y216360D01*
X374913Y216345D01*
X374814Y216235D01*
X374711Y216128D01*
X374697Y216106D01*
X374680Y216086D01*
X374608Y215956D01*
X374532Y215829D01*
X374524Y215804D01*
X374511Y215781D01*
X374471Y215638D01*
X374426Y215497D01*
X374424Y215471D01*
X374416Y215446D01*
X374397Y215202D01*
X374397Y203437D01*
X374411Y203312D01*
X374418Y203186D01*
X374431Y203139D01*
X374437Y203091D01*
X374479Y202972D01*
X374514Y202851D01*
X374538Y202809D01*
X374554Y202763D01*
X374623Y202657D01*
X374684Y202546D01*
X374724Y202500D01*
X374743Y202470D01*
X374778Y202437D01*
X374843Y202360D01*
X393654Y183549D01*
X393753Y183470D01*
X393847Y183386D01*
X393889Y183362D01*
X393927Y183332D01*
X394041Y183278D01*
X394152Y183217D01*
X394199Y183204D01*
X394242Y183183D01*
X394366Y183157D01*
X394488Y183122D01*
X394548Y183117D01*
X394583Y183110D01*
X394631Y183111D01*
X394731Y183103D01*
X402277Y183103D01*
X402403Y183117D01*
X402529Y183124D01*
X402575Y183137D01*
X402623Y183143D01*
X402742Y183185D01*
X402864Y183220D01*
X402906Y183244D01*
X402951Y183260D01*
X403058Y183329D01*
X403168Y183390D01*
X403214Y183430D01*
X403244Y183449D01*
X403278Y183484D01*
X403354Y183549D01*
X413814Y194009D01*
X413838Y194039D01*
X413955Y194172D01*
X414541Y194952D01*
X414550Y194968D01*
X414562Y194982D01*
X414638Y195118D01*
X414716Y195253D01*
X414722Y195271D01*
X414731Y195287D01*
X414773Y195437D01*
X414819Y195586D01*
X414821Y195604D01*
X414826Y195622D01*
X414845Y195866D01*
X414845Y197949D01*
X415686Y199980D01*
X417240Y201534D01*
X419271Y202375D01*
X421469Y202375D01*
X423500Y201534D01*
X425054Y199980D01*
X425895Y197949D01*
X425895Y195751D01*
X425054Y193720D01*
X423500Y192166D01*
X421416Y191303D01*
X421409Y191302D01*
X421262Y191285D01*
X421237Y191277D01*
X421211Y191273D01*
X421073Y191218D01*
X420934Y191168D01*
X420912Y191154D01*
X420887Y191144D01*
X420766Y191059D01*
X420641Y190979D01*
X420623Y190960D01*
X420601Y190945D01*
X420502Y190835D01*
X420399Y190728D01*
X420385Y190706D01*
X420368Y190686D01*
X420296Y190556D01*
X420244Y190469D01*
X419306Y189531D01*
X419282Y189501D01*
X419165Y189368D01*
X418479Y188454D01*
X418387Y188430D01*
X418371Y188422D01*
X418353Y188416D01*
X418216Y188340D01*
X418079Y188268D01*
X418065Y188255D01*
X418049Y188246D01*
X417863Y188088D01*
X408339Y178564D01*
X408260Y178465D01*
X408176Y178371D01*
X408152Y178329D01*
X408122Y178291D01*
X408068Y178177D01*
X408007Y178066D01*
X407994Y178020D01*
X407973Y177976D01*
X407947Y177853D01*
X407912Y177731D01*
X407907Y177670D01*
X407900Y177635D01*
X407901Y177587D01*
X407893Y177487D01*
X407893Y150730D01*
X402211Y145048D01*
X402132Y144949D01*
X402048Y144855D01*
X402024Y144813D01*
X401994Y144775D01*
X401940Y144661D01*
X401879Y144550D01*
X401866Y144503D01*
X401845Y144460D01*
X401819Y144336D01*
X401784Y144214D01*
X401779Y144154D01*
X401772Y144119D01*
X401773Y144071D01*
X401765Y143971D01*
X401765Y143681D01*
X400924Y141650D01*
X400592Y141319D01*
X400513Y141220D01*
X400429Y141126D01*
X400405Y141084D01*
X400375Y141046D01*
X400321Y140932D01*
X400260Y140821D01*
X400247Y140774D01*
X400226Y140731D01*
X400200Y140607D01*
X400165Y140485D01*
X400160Y140425D01*
X400153Y140390D01*
X400154Y140342D01*
X400146Y140242D01*
X400146Y120302D01*
X358488Y78644D01*
X338548Y78644D01*
X338423Y78630D01*
X338297Y78623D01*
X338250Y78610D01*
X338202Y78604D01*
X338083Y78562D01*
X337962Y78527D01*
X337920Y78503D01*
X337874Y78487D01*
X337768Y78418D01*
X337658Y78357D01*
X337611Y78317D01*
X337581Y78298D01*
X337548Y78263D01*
X337471Y78198D01*
X337140Y77866D01*
X335109Y77025D01*
X332911Y77025D01*
X330880Y77866D01*
X329326Y79420D01*
X328485Y81451D01*
X328485Y83649D01*
X329326Y85680D01*
X330880Y87234D01*
X332911Y88075D01*
X335109Y88075D01*
X337140Y87234D01*
X337471Y86902D01*
X337570Y86823D01*
X337664Y86739D01*
X337706Y86715D01*
X337744Y86685D01*
X337858Y86631D01*
X337969Y86570D01*
X338016Y86557D01*
X338059Y86536D01*
X338183Y86510D01*
X338305Y86475D01*
X338365Y86470D01*
X338400Y86463D01*
X338448Y86464D01*
X338548Y86456D01*
X354621Y86456D01*
X354747Y86470D01*
X354873Y86477D01*
X354919Y86490D01*
X354967Y86496D01*
X355086Y86538D01*
X355208Y86573D01*
X355250Y86597D01*
X355296Y86613D01*
X355402Y86682D01*
X355512Y86743D01*
X355558Y86783D01*
X355588Y86802D01*
X355622Y86837D01*
X355698Y86902D01*
X391888Y123092D01*
X391967Y123191D01*
X392051Y123285D01*
X392075Y123327D01*
X392105Y123365D01*
X392159Y123479D01*
X392220Y123590D01*
X392233Y123636D01*
X392254Y123680D01*
X392280Y123803D01*
X392315Y123925D01*
X392320Y123986D01*
X392327Y124020D01*
X392326Y124068D01*
X392334Y124169D01*
X392334Y140242D01*
X392320Y140367D01*
X392313Y140493D01*
X392300Y140540D01*
X392294Y140588D01*
X392252Y140707D01*
X392217Y140828D01*
X392193Y140870D01*
X392177Y140916D01*
X392108Y141022D01*
X392047Y141132D01*
X392007Y141179D01*
X391988Y141209D01*
X391953Y141242D01*
X391888Y141319D01*
X391556Y141650D01*
X390715Y143681D01*
X390715Y145879D01*
X391556Y147910D01*
X393110Y149464D01*
X395141Y150305D01*
X395431Y150305D01*
X395556Y150319D01*
X395682Y150326D01*
X395729Y150339D01*
X395777Y150345D01*
X395896Y150387D01*
X396017Y150422D01*
X396059Y150446D01*
X396105Y150462D01*
X396211Y150531D01*
X396321Y150592D01*
X396368Y150632D01*
X396398Y150651D01*
X396399Y150653D01*
X396400Y150653D01*
X396432Y150686D01*
X396508Y150751D01*
X399381Y153624D01*
X399460Y153723D01*
X399544Y153817D01*
X399568Y153859D01*
X399598Y153897D01*
X399652Y154011D01*
X399713Y154122D01*
X399726Y154169D01*
X399747Y154212D01*
X399773Y154336D01*
X399808Y154458D01*
X399813Y154518D01*
X399820Y154553D01*
X399819Y154601D01*
X399827Y154701D01*
X399827Y165339D01*
X399813Y165464D01*
X399806Y165590D01*
X399793Y165637D01*
X399787Y165685D01*
X399745Y165804D01*
X399710Y165925D01*
X399686Y165967D01*
X399670Y166013D01*
X399601Y166119D01*
X399540Y166229D01*
X399500Y166276D01*
X399481Y166306D01*
X399446Y166339D01*
X399381Y166416D01*
X387951Y177846D01*
X376997Y188800D01*
X376919Y188862D01*
X376846Y188932D01*
X376782Y188970D01*
X376724Y189016D01*
X376633Y189059D01*
X376547Y189111D01*
X376476Y189133D01*
X376409Y189165D01*
X376311Y189186D01*
X376215Y189217D01*
X376141Y189223D01*
X376068Y189239D01*
X375968Y189237D01*
X375868Y189245D01*
X375794Y189234D01*
X375720Y189233D01*
X375623Y189208D01*
X375523Y189193D01*
X375454Y189166D01*
X375382Y189148D01*
X375292Y189102D01*
X375199Y189065D01*
X375138Y189022D01*
X375072Y188988D01*
X374995Y188923D01*
X374913Y188866D01*
X374863Y188811D01*
X374807Y188762D01*
X374747Y188681D01*
X374680Y188607D01*
X374644Y188542D01*
X374599Y188482D01*
X374560Y188390D01*
X374511Y188302D01*
X374491Y188230D01*
X374461Y188162D01*
X374444Y188063D01*
X374416Y187966D01*
X374408Y187866D01*
X374400Y187819D01*
X374402Y187783D01*
X374397Y187723D01*
X374397Y168271D01*
X283403Y77277D01*
X283324Y77178D01*
X283240Y77084D01*
X283216Y77042D01*
X283186Y77004D01*
X283132Y76890D01*
X283071Y76779D01*
X283058Y76733D01*
X283037Y76689D01*
X283011Y76566D01*
X282976Y76444D01*
X282972Y76383D01*
X282964Y76348D01*
X282965Y76300D01*
X282957Y76200D01*
X282957Y30480D01*
X282971Y30354D01*
X282978Y30228D01*
X282991Y30182D01*
X282997Y30134D01*
X283039Y30015D01*
X283074Y29893D01*
X283098Y29851D01*
X283114Y29806D01*
X283183Y29699D01*
X283244Y29589D01*
X283284Y29543D01*
X283303Y29513D01*
X283338Y29479D01*
X283403Y29403D01*
X288483Y24323D01*
X288582Y24244D01*
X288676Y24160D01*
X288718Y24136D01*
X288756Y24106D01*
X288870Y24052D01*
X288981Y23991D01*
X289027Y23978D01*
X289071Y23957D01*
X289194Y23931D01*
X289316Y23896D01*
X289377Y23892D01*
X289412Y23884D01*
X289460Y23885D01*
X289560Y23877D01*
X350520Y23877D01*
X350646Y23891D01*
G37*
%LPC*%
G36*
X290023Y156579D02*
X290023Y156579D01*
X287358Y157683D01*
X285318Y159723D01*
X284214Y162388D01*
X284214Y165272D01*
X285318Y167937D01*
X287358Y169977D01*
X290023Y171081D01*
X292907Y171081D01*
X293220Y170951D01*
X293269Y170937D01*
X293314Y170916D01*
X293436Y170890D01*
X293555Y170855D01*
X293606Y170853D01*
X293655Y170842D01*
X293779Y170845D01*
X293904Y170838D01*
X293953Y170848D01*
X294004Y170848D01*
X294124Y170879D01*
X294246Y170901D01*
X294293Y170921D01*
X294342Y170933D01*
X294452Y170990D01*
X294566Y171040D01*
X294606Y171070D01*
X294651Y171093D01*
X294746Y171174D01*
X294846Y171248D01*
X294878Y171286D01*
X294917Y171319D01*
X294991Y171419D01*
X295071Y171514D01*
X295094Y171559D01*
X295124Y171599D01*
X295173Y171713D01*
X295230Y171824D01*
X295242Y171873D01*
X295262Y171919D01*
X295284Y172042D01*
X295314Y172162D01*
X295314Y172213D01*
X295323Y172262D01*
X295317Y172386D01*
X295319Y172511D01*
X295308Y172560D01*
X295305Y172610D01*
X295271Y172730D01*
X295245Y172851D01*
X295223Y172897D01*
X295209Y172945D01*
X295148Y173054D01*
X295095Y173166D01*
X295063Y173205D01*
X295039Y173249D01*
X294987Y173310D01*
X292069Y180355D01*
X292069Y187945D01*
X294808Y194557D01*
X294836Y194654D01*
X294872Y194747D01*
X294883Y194820D01*
X294904Y194892D01*
X294908Y194992D01*
X294923Y195092D01*
X294917Y195166D01*
X294921Y195240D01*
X294902Y195339D01*
X294894Y195439D01*
X294871Y195510D01*
X294858Y195583D01*
X294818Y195675D01*
X294787Y195771D01*
X294749Y195835D01*
X294719Y195903D01*
X294659Y195983D01*
X294607Y196069D01*
X294556Y196123D01*
X294511Y196182D01*
X294434Y196247D01*
X294364Y196319D01*
X294302Y196359D01*
X294245Y196408D01*
X294156Y196453D01*
X294071Y196508D01*
X294001Y196532D01*
X293935Y196566D01*
X293837Y196591D01*
X293743Y196624D01*
X293669Y196632D01*
X293597Y196650D01*
X293496Y196652D01*
X293396Y196663D01*
X293323Y196654D01*
X293248Y196655D01*
X293150Y196634D01*
X293050Y196622D01*
X292955Y196591D01*
X292922Y196584D01*
X290023Y196584D01*
X287358Y197688D01*
X285318Y199728D01*
X284214Y202393D01*
X284214Y205277D01*
X285318Y207942D01*
X287358Y209982D01*
X290023Y211086D01*
X292907Y211086D01*
X295572Y209982D01*
X297612Y207942D01*
X298716Y205277D01*
X298716Y202362D01*
X298688Y202292D01*
X298678Y202219D01*
X298657Y202147D01*
X298652Y202047D01*
X298638Y201948D01*
X298644Y201873D01*
X298640Y201799D01*
X298658Y201701D01*
X298667Y201600D01*
X298689Y201530D01*
X298703Y201456D01*
X298743Y201364D01*
X298774Y201269D01*
X298812Y201205D01*
X298842Y201137D01*
X298902Y201056D01*
X298953Y200970D01*
X299005Y200917D01*
X299049Y200857D01*
X299126Y200792D01*
X299196Y200720D01*
X299259Y200680D01*
X299315Y200632D01*
X299405Y200586D01*
X299489Y200532D01*
X299560Y200507D01*
X299626Y200473D01*
X299723Y200449D01*
X299818Y200415D01*
X299892Y200407D01*
X299964Y200389D01*
X300064Y200387D01*
X300164Y200376D01*
X300238Y200385D01*
X300312Y200384D01*
X300411Y200405D01*
X300510Y200417D01*
X300606Y200448D01*
X300653Y200458D01*
X300685Y200473D01*
X300743Y200492D01*
X307355Y203231D01*
X314945Y203231D01*
X321998Y200309D01*
X322040Y200280D01*
X322137Y200203D01*
X322183Y200182D01*
X322224Y200153D01*
X322340Y200107D01*
X322452Y200054D01*
X322502Y200044D01*
X322549Y200025D01*
X322672Y200007D01*
X322793Y199981D01*
X322844Y199982D01*
X322894Y199974D01*
X323018Y199985D01*
X323142Y199987D01*
X323190Y199999D01*
X323241Y200003D01*
X323359Y200041D01*
X323480Y200072D01*
X323524Y200095D01*
X323572Y200110D01*
X323679Y200174D01*
X323789Y200231D01*
X323828Y200264D01*
X323871Y200290D01*
X323960Y200377D01*
X324055Y200457D01*
X324085Y200498D01*
X324121Y200533D01*
X324188Y200637D01*
X324262Y200737D01*
X324282Y200784D01*
X324309Y200826D01*
X324351Y200943D01*
X324400Y201057D01*
X324409Y201107D01*
X324426Y201155D01*
X324440Y201278D01*
X324462Y201400D01*
X324459Y201451D01*
X324465Y201501D01*
X324450Y201624D01*
X324444Y201748D01*
X324430Y201797D01*
X324424Y201847D01*
X324349Y202080D01*
X324219Y202393D01*
X324219Y205277D01*
X325323Y207942D01*
X327363Y209982D01*
X330028Y211086D01*
X332912Y211086D01*
X335577Y209982D01*
X337617Y207942D01*
X338721Y205277D01*
X338721Y202393D01*
X337617Y199728D01*
X335577Y197688D01*
X332912Y196584D01*
X330028Y196584D01*
X329351Y196865D01*
X329254Y196892D01*
X329161Y196929D01*
X329087Y196940D01*
X329016Y196960D01*
X328928Y196965D01*
X328910Y196966D01*
X328816Y196980D01*
X328778Y196977D01*
X328777Y196977D01*
X328770Y196977D01*
X328746Y196974D01*
X328742Y196974D01*
X328668Y196977D01*
X328569Y196959D01*
X328469Y196951D01*
X328426Y196937D01*
X328423Y196937D01*
X328407Y196931D01*
X328398Y196928D01*
X328325Y196915D01*
X328233Y196875D01*
X328137Y196844D01*
X328098Y196820D01*
X328095Y196819D01*
X328079Y196809D01*
X328073Y196805D01*
X328005Y196776D01*
X327924Y196716D01*
X327838Y196664D01*
X327806Y196633D01*
X327802Y196630D01*
X327785Y196612D01*
X327725Y196568D01*
X327660Y196491D01*
X327589Y196421D01*
X327565Y196385D01*
X327560Y196380D01*
X327546Y196356D01*
X327500Y196302D01*
X327455Y196213D01*
X327400Y196128D01*
X327386Y196089D01*
X327381Y196081D01*
X327372Y196052D01*
X327341Y195992D01*
X327317Y195894D01*
X327284Y195800D01*
X327279Y195762D01*
X327275Y195749D01*
X327272Y195714D01*
X327257Y195654D01*
X327256Y195553D01*
X327245Y195453D01*
X327249Y195419D01*
X327247Y195401D01*
X327253Y195362D01*
X327252Y195305D01*
X327274Y195207D01*
X327285Y195107D01*
X327296Y195073D01*
X327299Y195057D01*
X327314Y195018D01*
X327316Y195012D01*
X327327Y194965D01*
X327342Y194932D01*
X327361Y194874D01*
X330231Y187945D01*
X330231Y180355D01*
X327309Y173302D01*
X327280Y173260D01*
X327203Y173163D01*
X327182Y173117D01*
X327153Y173076D01*
X327107Y172960D01*
X327054Y172848D01*
X327044Y172798D01*
X327025Y172751D01*
X327007Y172628D01*
X326981Y172507D01*
X326982Y172456D01*
X326974Y172406D01*
X326985Y172282D01*
X326987Y172158D01*
X326999Y172110D01*
X327003Y172059D01*
X327041Y171941D01*
X327072Y171820D01*
X327095Y171776D01*
X327110Y171728D01*
X327174Y171621D01*
X327231Y171511D01*
X327264Y171472D01*
X327290Y171429D01*
X327377Y171340D01*
X327457Y171245D01*
X327498Y171215D01*
X327533Y171179D01*
X327637Y171112D01*
X327737Y171038D01*
X327784Y171018D01*
X327826Y170991D01*
X327943Y170949D01*
X328057Y170900D01*
X328107Y170891D01*
X328155Y170874D01*
X328278Y170860D01*
X328400Y170838D01*
X328451Y170841D01*
X328501Y170835D01*
X328624Y170850D01*
X328748Y170856D01*
X328797Y170870D01*
X328847Y170876D01*
X329080Y170951D01*
X329083Y170953D01*
X329393Y171081D01*
X332277Y171081D01*
X334942Y169977D01*
X336982Y167937D01*
X338086Y165272D01*
X338086Y162388D01*
X336982Y159723D01*
X334942Y157683D01*
X332277Y156579D01*
X329393Y156579D01*
X326728Y157683D01*
X324688Y159723D01*
X323584Y162388D01*
X323584Y165272D01*
X323865Y165949D01*
X323892Y166046D01*
X323929Y166139D01*
X323938Y166200D01*
X323943Y166217D01*
X323944Y166228D01*
X323960Y166284D01*
X323965Y166385D01*
X323980Y166484D01*
X323974Y166558D01*
X323977Y166632D01*
X323959Y166731D01*
X323951Y166831D01*
X323928Y166902D01*
X323915Y166975D01*
X323875Y167067D01*
X323844Y167163D01*
X323805Y167227D01*
X323776Y167295D01*
X323716Y167376D01*
X323664Y167462D01*
X323612Y167515D01*
X323568Y167575D01*
X323491Y167640D01*
X323421Y167711D01*
X323359Y167752D01*
X323302Y167800D01*
X323213Y167845D01*
X323128Y167900D01*
X323058Y167925D01*
X322992Y167959D01*
X322894Y167983D01*
X322800Y168016D01*
X322726Y168025D01*
X322654Y168043D01*
X322553Y168044D01*
X322453Y168055D01*
X322379Y168047D01*
X322305Y168048D01*
X322207Y168026D01*
X322107Y168015D01*
X322012Y167984D01*
X321965Y167973D01*
X321932Y167958D01*
X321874Y167939D01*
X314945Y165069D01*
X307355Y165069D01*
X300426Y167939D01*
X300329Y167967D01*
X300236Y168004D01*
X300162Y168015D01*
X300090Y168035D01*
X299990Y168040D01*
X299891Y168055D01*
X299817Y168048D01*
X299742Y168052D01*
X299644Y168034D01*
X299543Y168026D01*
X299473Y168003D01*
X299399Y167989D01*
X299307Y167949D01*
X299212Y167919D01*
X299148Y167880D01*
X299080Y167851D01*
X298999Y167791D01*
X298913Y167739D01*
X298860Y167687D01*
X298800Y167643D01*
X298735Y167566D01*
X298663Y167496D01*
X298623Y167433D01*
X298575Y167377D01*
X298529Y167287D01*
X298475Y167203D01*
X298450Y167133D01*
X298416Y167066D01*
X298392Y166969D01*
X298358Y166874D01*
X298350Y166800D01*
X298332Y166728D01*
X298331Y166628D01*
X298319Y166528D01*
X298328Y166454D01*
X298327Y166380D01*
X298348Y166281D01*
X298360Y166182D01*
X298379Y166123D01*
X298380Y166115D01*
X298388Y166096D01*
X298391Y166086D01*
X298401Y166039D01*
X298417Y166007D01*
X298435Y165949D01*
X298716Y165272D01*
X298716Y162388D01*
X297612Y159723D01*
X295572Y157683D01*
X292907Y156579D01*
X290023Y156579D01*
G37*
%LPD*%
%LPC*%
G36*
X404349Y7399D02*
X404349Y7399D01*
X395866Y10913D01*
X389373Y17406D01*
X385859Y25889D01*
X385859Y35071D01*
X389373Y43554D01*
X395866Y50047D01*
X404349Y53561D01*
X413531Y53561D01*
X422014Y50047D01*
X428507Y43554D01*
X432021Y35071D01*
X432021Y25889D01*
X428507Y17406D01*
X422014Y10913D01*
X413531Y7399D01*
X404349Y7399D01*
G37*
%LPD*%
%LPC*%
G36*
X480440Y8921D02*
X480440Y8921D01*
X478821Y10540D01*
X478821Y25020D01*
X480440Y26639D01*
X530226Y26639D01*
X531845Y25020D01*
X531845Y10540D01*
X530226Y8921D01*
X480440Y8921D01*
G37*
%LPD*%
%LPC*%
G36*
X53982Y48879D02*
X53982Y48879D01*
X50476Y50332D01*
X47792Y53016D01*
X46339Y56522D01*
X46339Y60318D01*
X47792Y63824D01*
X50476Y66508D01*
X53982Y67961D01*
X57778Y67961D01*
X61284Y66508D01*
X63968Y63824D01*
X65421Y60318D01*
X65421Y56522D01*
X63968Y53016D01*
X61284Y50332D01*
X57778Y48879D01*
X53982Y48879D01*
G37*
%LPD*%
%LPC*%
G36*
X104782Y48879D02*
X104782Y48879D01*
X101276Y50332D01*
X98592Y53016D01*
X97139Y56522D01*
X97139Y60318D01*
X98592Y63824D01*
X101276Y66508D01*
X104782Y67961D01*
X108578Y67961D01*
X112084Y66508D01*
X114768Y63824D01*
X116221Y60318D01*
X116221Y56522D01*
X114768Y53016D01*
X112084Y50332D01*
X108578Y48879D01*
X104782Y48879D01*
G37*
%LPD*%
%LPC*%
G36*
X130182Y48879D02*
X130182Y48879D01*
X126676Y50332D01*
X123992Y53016D01*
X122539Y56522D01*
X122539Y60318D01*
X123992Y63824D01*
X126676Y66508D01*
X130182Y67961D01*
X133978Y67961D01*
X137484Y66508D01*
X140168Y63824D01*
X141621Y60318D01*
X141621Y56522D01*
X140168Y53016D01*
X137484Y50332D01*
X133978Y48879D01*
X130182Y48879D01*
G37*
%LPD*%
%LPC*%
G36*
X53982Y23479D02*
X53982Y23479D01*
X50476Y24932D01*
X47792Y27616D01*
X46339Y31122D01*
X46339Y34918D01*
X47792Y38424D01*
X50476Y41108D01*
X53982Y42561D01*
X57778Y42561D01*
X61284Y41108D01*
X63968Y38424D01*
X65421Y34918D01*
X65421Y31122D01*
X63968Y27616D01*
X61284Y24932D01*
X57778Y23479D01*
X53982Y23479D01*
G37*
%LPD*%
%LPC*%
G36*
X79382Y23479D02*
X79382Y23479D01*
X75876Y24932D01*
X73192Y27616D01*
X71739Y31122D01*
X71739Y34918D01*
X73192Y38424D01*
X75876Y41108D01*
X79382Y42561D01*
X83178Y42561D01*
X86684Y41108D01*
X89368Y38424D01*
X90821Y34918D01*
X90821Y31122D01*
X89368Y27616D01*
X86684Y24932D01*
X83178Y23479D01*
X79382Y23479D01*
G37*
%LPD*%
%LPC*%
G36*
X104782Y23479D02*
X104782Y23479D01*
X101276Y24932D01*
X98592Y27616D01*
X97139Y31122D01*
X97139Y34918D01*
X98592Y38424D01*
X101276Y41108D01*
X104782Y42561D01*
X108578Y42561D01*
X112084Y41108D01*
X114768Y38424D01*
X116221Y34918D01*
X116221Y31122D01*
X114768Y27616D01*
X112084Y24932D01*
X108578Y23479D01*
X104782Y23479D01*
G37*
%LPD*%
%LPC*%
G36*
X130182Y23479D02*
X130182Y23479D01*
X126676Y24932D01*
X123992Y27616D01*
X122539Y31122D01*
X122539Y34918D01*
X123992Y38424D01*
X126676Y41108D01*
X130182Y42561D01*
X133978Y42561D01*
X137484Y41108D01*
X140168Y38424D01*
X141621Y34918D01*
X141621Y31122D01*
X140168Y27616D01*
X137484Y24932D01*
X133978Y23479D01*
X130182Y23479D01*
G37*
%LPD*%
%LPC*%
G36*
X155582Y23479D02*
X155582Y23479D01*
X152076Y24932D01*
X149392Y27616D01*
X147939Y31122D01*
X147939Y34918D01*
X149392Y38424D01*
X152076Y41108D01*
X155582Y42561D01*
X159378Y42561D01*
X162884Y41108D01*
X165568Y38424D01*
X167021Y34918D01*
X167021Y31122D01*
X165568Y27616D01*
X162884Y24932D01*
X159378Y23479D01*
X155582Y23479D01*
G37*
%LPD*%
%LPC*%
G36*
X155582Y48879D02*
X155582Y48879D01*
X152076Y50332D01*
X149392Y53016D01*
X147939Y56522D01*
X147939Y60318D01*
X149392Y63824D01*
X152076Y66508D01*
X155582Y67961D01*
X159378Y67961D01*
X162884Y66508D01*
X165568Y63824D01*
X167021Y60318D01*
X167021Y56522D01*
X165568Y53016D01*
X162884Y50332D01*
X159378Y48879D01*
X155582Y48879D01*
G37*
%LPD*%
%LPC*%
G36*
X309260Y206399D02*
X309260Y206399D01*
X305768Y207846D01*
X303096Y210518D01*
X301649Y214010D01*
X301649Y217790D01*
X303096Y221282D01*
X305768Y223954D01*
X309260Y225401D01*
X313040Y225401D01*
X316532Y223954D01*
X319204Y221282D01*
X320651Y217790D01*
X320651Y214010D01*
X319204Y210518D01*
X316532Y207846D01*
X313040Y206399D01*
X309260Y206399D01*
G37*
%LPD*%
%LPC*%
G36*
X309260Y142899D02*
X309260Y142899D01*
X305768Y144346D01*
X303096Y147018D01*
X301649Y150510D01*
X301649Y154290D01*
X303096Y157782D01*
X305768Y160454D01*
X309260Y161901D01*
X313040Y161901D01*
X316532Y160454D01*
X319204Y157782D01*
X320651Y154290D01*
X320651Y150510D01*
X319204Y147018D01*
X316532Y144346D01*
X313040Y142899D01*
X309260Y142899D01*
G37*
%LPD*%
%LPC*%
G36*
X341010Y174649D02*
X341010Y174649D01*
X338867Y175537D01*
X337518Y176096D01*
X334846Y178768D01*
X333399Y182260D01*
X333399Y186040D01*
X334846Y189532D01*
X337518Y192204D01*
X341010Y193651D01*
X344790Y193651D01*
X348282Y192204D01*
X350954Y189532D01*
X352401Y186040D01*
X352401Y182260D01*
X350954Y178768D01*
X348282Y176096D01*
X344790Y174649D01*
X341010Y174649D01*
G37*
%LPD*%
%LPC*%
G36*
X274970Y174649D02*
X274970Y174649D01*
X272827Y175537D01*
X271478Y176096D01*
X268806Y178768D01*
X267359Y182260D01*
X267359Y186040D01*
X268806Y189532D01*
X271478Y192204D01*
X274970Y193651D01*
X278750Y193651D01*
X282242Y192204D01*
X284914Y189532D01*
X286361Y186040D01*
X286361Y182260D01*
X284914Y178768D01*
X282242Y176096D01*
X278750Y174649D01*
X274970Y174649D01*
G37*
%LPD*%
%LPC*%
G36*
X564051Y172275D02*
X564051Y172275D01*
X562020Y173116D01*
X560466Y174670D01*
X559625Y176701D01*
X559625Y178899D01*
X560466Y180930D01*
X562020Y182484D01*
X564051Y183325D01*
X564645Y183325D01*
X564745Y183336D01*
X564845Y183338D01*
X564917Y183356D01*
X564991Y183365D01*
X565085Y183398D01*
X565183Y183423D01*
X565249Y183457D01*
X565319Y183482D01*
X565403Y183537D01*
X565493Y183583D01*
X565549Y183631D01*
X565612Y183671D01*
X565682Y183743D01*
X565758Y183808D01*
X565802Y183868D01*
X565854Y183922D01*
X565906Y184008D01*
X565965Y184089D01*
X565995Y184157D01*
X566033Y184221D01*
X566063Y184317D01*
X566103Y184409D01*
X566116Y184482D01*
X566139Y184553D01*
X566147Y184653D01*
X566165Y184752D01*
X566161Y184826D01*
X566167Y184900D01*
X566152Y185000D01*
X566147Y185100D01*
X566126Y185171D01*
X566115Y185245D01*
X566078Y185338D01*
X566050Y185435D01*
X566014Y185500D01*
X565987Y185569D01*
X565929Y185651D01*
X565880Y185739D01*
X565815Y185815D01*
X565788Y185855D01*
X565761Y185879D01*
X565722Y185925D01*
X564276Y187371D01*
X563435Y189401D01*
X563435Y191599D01*
X564276Y193630D01*
X565830Y195184D01*
X567861Y196025D01*
X570059Y196025D01*
X572090Y195184D01*
X573644Y193630D01*
X574485Y191599D01*
X574485Y189401D01*
X573644Y187370D01*
X572090Y185816D01*
X570059Y184975D01*
X569465Y184975D01*
X569365Y184964D01*
X569265Y184962D01*
X569193Y184944D01*
X569119Y184935D01*
X569025Y184902D01*
X568927Y184877D01*
X568861Y184843D01*
X568791Y184818D01*
X568707Y184763D01*
X568617Y184717D01*
X568561Y184669D01*
X568498Y184629D01*
X568428Y184557D01*
X568352Y184492D01*
X568308Y184432D01*
X568256Y184378D01*
X568204Y184292D01*
X568145Y184211D01*
X568115Y184143D01*
X568077Y184079D01*
X568047Y183983D01*
X568007Y183891D01*
X567994Y183818D01*
X567971Y183747D01*
X567963Y183647D01*
X567945Y183548D01*
X567949Y183474D01*
X567943Y183400D01*
X567958Y183300D01*
X567963Y183200D01*
X567984Y183129D01*
X567995Y183055D01*
X568032Y182962D01*
X568060Y182865D01*
X568096Y182800D01*
X568123Y182731D01*
X568181Y182649D01*
X568230Y182561D01*
X568295Y182485D01*
X568322Y182445D01*
X568349Y182421D01*
X568388Y182375D01*
X569834Y180929D01*
X570675Y178899D01*
X570675Y176701D01*
X569834Y174670D01*
X568280Y173116D01*
X566249Y172275D01*
X564051Y172275D01*
G37*
%LPD*%
%LPC*%
G36*
X575382Y131135D02*
X575382Y131135D01*
X573167Y132053D01*
X571473Y133747D01*
X570555Y135962D01*
X570555Y138358D01*
X571473Y140573D01*
X573167Y142267D01*
X575382Y143185D01*
X577778Y143185D01*
X579993Y142267D01*
X581687Y140573D01*
X582605Y138358D01*
X582605Y135962D01*
X581687Y133747D01*
X579993Y132053D01*
X577778Y131135D01*
X575382Y131135D01*
G37*
%LPD*%
%LPC*%
G36*
X36902Y349575D02*
X36902Y349575D01*
X34687Y350493D01*
X32993Y352187D01*
X32075Y354402D01*
X32075Y356798D01*
X32993Y359013D01*
X34687Y360707D01*
X36902Y361625D01*
X39298Y361625D01*
X41513Y360707D01*
X43207Y359013D01*
X44125Y356798D01*
X44125Y354402D01*
X43207Y352187D01*
X41513Y350493D01*
X39298Y349575D01*
X36902Y349575D01*
G37*
%LPD*%
%LPC*%
G36*
X17852Y128595D02*
X17852Y128595D01*
X15637Y129513D01*
X13943Y131207D01*
X13025Y133422D01*
X13025Y135818D01*
X13943Y138033D01*
X15637Y139727D01*
X17852Y140645D01*
X20248Y140645D01*
X22463Y139727D01*
X24157Y138033D01*
X25075Y135818D01*
X25075Y133422D01*
X24157Y131207D01*
X22463Y129513D01*
X20248Y128595D01*
X17852Y128595D01*
G37*
%LPD*%
%LPC*%
G36*
X608402Y114625D02*
X608402Y114625D01*
X606187Y115543D01*
X604493Y117237D01*
X603575Y119452D01*
X603575Y121848D01*
X604493Y124063D01*
X606187Y125757D01*
X608402Y126675D01*
X610798Y126675D01*
X613013Y125757D01*
X614707Y124063D01*
X615625Y121848D01*
X615625Y119452D01*
X614707Y117237D01*
X613013Y115543D01*
X610798Y114625D01*
X608402Y114625D01*
G37*
%LPD*%
%LPC*%
G36*
X577922Y105735D02*
X577922Y105735D01*
X575707Y106653D01*
X574013Y108347D01*
X573095Y110562D01*
X573095Y112958D01*
X574013Y115173D01*
X575707Y116867D01*
X577922Y117785D01*
X580318Y117785D01*
X582533Y116867D01*
X584227Y115173D01*
X585145Y112958D01*
X585145Y110562D01*
X584227Y108347D01*
X582533Y106653D01*
X580318Y105735D01*
X577922Y105735D01*
G37*
%LPD*%
%LPC*%
G36*
X541092Y314015D02*
X541092Y314015D01*
X538877Y314933D01*
X537183Y316627D01*
X536265Y318842D01*
X536265Y321238D01*
X537183Y323453D01*
X538877Y325147D01*
X541092Y326065D01*
X543488Y326065D01*
X545703Y325147D01*
X547397Y323453D01*
X548315Y321238D01*
X548315Y318842D01*
X547397Y316627D01*
X545703Y314933D01*
X543488Y314015D01*
X541092Y314015D01*
G37*
%LPD*%
%LPC*%
G36*
X560142Y307665D02*
X560142Y307665D01*
X557927Y308583D01*
X556233Y310277D01*
X555315Y312492D01*
X555315Y314888D01*
X556233Y317103D01*
X557927Y318797D01*
X560142Y319715D01*
X562538Y319715D01*
X564753Y318797D01*
X566447Y317103D01*
X567365Y314888D01*
X567365Y312492D01*
X566447Y310277D01*
X564753Y308583D01*
X562538Y307665D01*
X560142Y307665D01*
G37*
%LPD*%
%LPC*%
G36*
X143582Y306395D02*
X143582Y306395D01*
X141367Y307313D01*
X139673Y309007D01*
X138755Y311222D01*
X138755Y313618D01*
X139673Y315833D01*
X141367Y317527D01*
X143582Y318445D01*
X145978Y318445D01*
X148193Y317527D01*
X149887Y315833D01*
X150805Y313618D01*
X150805Y311222D01*
X149887Y309007D01*
X148193Y307313D01*
X145978Y306395D01*
X143582Y306395D01*
G37*
%LPD*%
%LPC*%
G36*
X49602Y298775D02*
X49602Y298775D01*
X47387Y299693D01*
X45693Y301387D01*
X44775Y303602D01*
X44775Y305998D01*
X45693Y308213D01*
X47387Y309907D01*
X49602Y310825D01*
X51998Y310825D01*
X54213Y309907D01*
X55907Y308213D01*
X56825Y305998D01*
X56825Y303602D01*
X55907Y301387D01*
X54213Y299693D01*
X51998Y298775D01*
X49602Y298775D01*
G37*
%LPD*%
%LPC*%
G36*
X75002Y298775D02*
X75002Y298775D01*
X72787Y299693D01*
X71093Y301387D01*
X70175Y303602D01*
X70175Y305998D01*
X71093Y308213D01*
X72787Y309907D01*
X75002Y310825D01*
X77398Y310825D01*
X79613Y309907D01*
X81307Y308213D01*
X82225Y305998D01*
X82225Y303602D01*
X81307Y301387D01*
X79613Y299693D01*
X77398Y298775D01*
X75002Y298775D01*
G37*
%LPD*%
%LPC*%
G36*
X175332Y82875D02*
X175332Y82875D01*
X173117Y83793D01*
X171423Y85487D01*
X170505Y87702D01*
X170505Y90098D01*
X171423Y92313D01*
X173117Y94007D01*
X175332Y94925D01*
X177728Y94925D01*
X179943Y94007D01*
X181637Y92313D01*
X182555Y90098D01*
X182555Y87702D01*
X181637Y85487D01*
X179943Y83793D01*
X177728Y82875D01*
X175332Y82875D01*
G37*
%LPD*%
%LPC*%
G36*
X62302Y286075D02*
X62302Y286075D01*
X60087Y286993D01*
X58393Y288687D01*
X57475Y290902D01*
X57475Y293298D01*
X58393Y295513D01*
X60087Y297207D01*
X62302Y298125D01*
X64698Y298125D01*
X66913Y297207D01*
X68607Y295513D01*
X69525Y293298D01*
X69525Y290902D01*
X68607Y288687D01*
X66913Y286993D01*
X64698Y286075D01*
X62302Y286075D01*
G37*
%LPD*%
%LPC*%
G36*
X87702Y286075D02*
X87702Y286075D01*
X85487Y286993D01*
X83793Y288687D01*
X82875Y290902D01*
X82875Y293298D01*
X83793Y295513D01*
X85487Y297207D01*
X87702Y298125D01*
X90098Y298125D01*
X92313Y297207D01*
X94007Y295513D01*
X94925Y293298D01*
X94925Y290902D01*
X94007Y288687D01*
X92313Y286993D01*
X90098Y286075D01*
X87702Y286075D01*
G37*
%LPD*%
%LPC*%
G36*
X19122Y82875D02*
X19122Y82875D01*
X16907Y83793D01*
X15213Y85487D01*
X14295Y87702D01*
X14295Y90098D01*
X15213Y92313D01*
X16907Y94007D01*
X19122Y94925D01*
X21518Y94925D01*
X23733Y94007D01*
X25427Y92313D01*
X26345Y90098D01*
X26345Y87702D01*
X25427Y85487D01*
X23733Y83793D01*
X21518Y82875D01*
X19122Y82875D01*
G37*
%LPD*%
%LPC*%
G36*
X156282Y280995D02*
X156282Y280995D01*
X154067Y281913D01*
X152373Y283607D01*
X151455Y285822D01*
X151455Y288218D01*
X152373Y290433D01*
X154067Y292127D01*
X156282Y293045D01*
X158678Y293045D01*
X160893Y292127D01*
X162587Y290433D01*
X163505Y288218D01*
X163505Y285822D01*
X162587Y283607D01*
X160893Y281913D01*
X158678Y280995D01*
X156282Y280995D01*
G37*
%LPD*%
%LPC*%
G36*
X184222Y280995D02*
X184222Y280995D01*
X182007Y281913D01*
X180313Y283607D01*
X179395Y285822D01*
X179395Y288218D01*
X180313Y290433D01*
X182007Y292127D01*
X184222Y293045D01*
X186618Y293045D01*
X188833Y292127D01*
X190527Y290433D01*
X191445Y288218D01*
X191445Y285822D01*
X190527Y283607D01*
X188833Y281913D01*
X186618Y280995D01*
X184222Y280995D01*
G37*
%LPD*%
%LPC*%
G36*
X75002Y273375D02*
X75002Y273375D01*
X72787Y274293D01*
X71093Y275987D01*
X70175Y278202D01*
X70175Y280598D01*
X71093Y282813D01*
X72787Y284507D01*
X75002Y285425D01*
X77398Y285425D01*
X79613Y284507D01*
X81307Y282813D01*
X82225Y280598D01*
X82225Y278202D01*
X81307Y275987D01*
X79613Y274293D01*
X77398Y273375D01*
X75002Y273375D01*
G37*
%LPD*%
%LPC*%
G36*
X34362Y82875D02*
X34362Y82875D01*
X32147Y83793D01*
X30453Y85487D01*
X29535Y87702D01*
X29535Y90098D01*
X30453Y92313D01*
X32147Y94007D01*
X34362Y94925D01*
X36758Y94925D01*
X38973Y94007D01*
X40667Y92313D01*
X41585Y90098D01*
X41585Y87702D01*
X40667Y85487D01*
X38973Y83793D01*
X36758Y82875D01*
X34362Y82875D01*
G37*
%LPD*%
%LPC*%
G36*
X549982Y268295D02*
X549982Y268295D01*
X547767Y269213D01*
X546073Y270907D01*
X545155Y273122D01*
X545155Y275518D01*
X546073Y277733D01*
X547767Y279427D01*
X549982Y280345D01*
X552378Y280345D01*
X554593Y279427D01*
X556287Y277733D01*
X557205Y275518D01*
X557205Y273122D01*
X556287Y270907D01*
X554593Y269213D01*
X552378Y268295D01*
X549982Y268295D01*
G37*
%LPD*%
%LPC*%
G36*
X589352Y268295D02*
X589352Y268295D01*
X587137Y269213D01*
X585443Y270907D01*
X584525Y273122D01*
X584525Y275518D01*
X585443Y277733D01*
X587137Y279427D01*
X589352Y280345D01*
X591748Y280345D01*
X593963Y279427D01*
X595657Y277733D01*
X596575Y275518D01*
X596575Y273122D01*
X595657Y270907D01*
X593963Y269213D01*
X591748Y268295D01*
X589352Y268295D01*
G37*
%LPD*%
%LPC*%
G36*
X49602Y82875D02*
X49602Y82875D01*
X47387Y83793D01*
X45693Y85487D01*
X44775Y87702D01*
X44775Y90098D01*
X45693Y92313D01*
X47387Y94007D01*
X49602Y94925D01*
X51998Y94925D01*
X54213Y94007D01*
X55907Y92313D01*
X56825Y90098D01*
X56825Y87702D01*
X55907Y85487D01*
X54213Y83793D01*
X51998Y82875D01*
X49602Y82875D01*
G37*
%LPD*%
%LPC*%
G36*
X628722Y263215D02*
X628722Y263215D01*
X626507Y264133D01*
X624813Y265827D01*
X623895Y268042D01*
X623895Y270438D01*
X624813Y272653D01*
X626507Y274347D01*
X628722Y275265D01*
X631118Y275265D01*
X633333Y274347D01*
X635027Y272653D01*
X635945Y270438D01*
X635945Y268042D01*
X635027Y265827D01*
X633333Y264133D01*
X631118Y263215D01*
X628722Y263215D01*
G37*
%LPD*%
%LPC*%
G36*
X130882Y245435D02*
X130882Y245435D01*
X128667Y246353D01*
X126973Y248047D01*
X126055Y250262D01*
X126055Y252658D01*
X126973Y254873D01*
X128667Y256567D01*
X130882Y257485D01*
X133278Y257485D01*
X135493Y256567D01*
X137187Y254873D01*
X138105Y252658D01*
X138105Y250262D01*
X137187Y248047D01*
X135493Y246353D01*
X133278Y245435D01*
X130882Y245435D01*
G37*
%LPD*%
%LPC*%
G36*
X199462Y245435D02*
X199462Y245435D01*
X197247Y246353D01*
X195553Y248047D01*
X194635Y250262D01*
X194635Y252658D01*
X195553Y254873D01*
X197247Y256567D01*
X199462Y257485D01*
X201858Y257485D01*
X204073Y256567D01*
X205767Y254873D01*
X206685Y252658D01*
X206685Y250262D01*
X205767Y248047D01*
X204073Y246353D01*
X201858Y245435D01*
X199462Y245435D01*
G37*
%LPD*%
%LPC*%
G36*
X471242Y239720D02*
X471242Y239720D01*
X469027Y240638D01*
X467333Y242332D01*
X466415Y244547D01*
X466415Y246943D01*
X467333Y249158D01*
X469027Y250852D01*
X471242Y251770D01*
X473638Y251770D01*
X475853Y250852D01*
X477547Y249158D01*
X478465Y246943D01*
X478465Y244547D01*
X477547Y242332D01*
X475853Y240638D01*
X473638Y239720D01*
X471242Y239720D01*
G37*
%LPD*%
%LPC*%
G36*
X516962Y232735D02*
X516962Y232735D01*
X514747Y233653D01*
X513053Y235347D01*
X512135Y237562D01*
X512135Y239958D01*
X513053Y242173D01*
X514747Y243867D01*
X516962Y244785D01*
X519358Y244785D01*
X521573Y243867D01*
X523267Y242173D01*
X524185Y239958D01*
X524185Y237562D01*
X523267Y235347D01*
X521573Y233653D01*
X519358Y232735D01*
X516962Y232735D01*
G37*
%LPD*%
%LPC*%
G36*
X465527Y174315D02*
X465527Y174315D01*
X463312Y175233D01*
X461618Y176927D01*
X460700Y179142D01*
X460700Y181538D01*
X461618Y183753D01*
X463312Y185447D01*
X465527Y186365D01*
X467923Y186365D01*
X470138Y185447D01*
X471832Y183753D01*
X472750Y181538D01*
X472750Y179142D01*
X471832Y176927D01*
X470138Y175233D01*
X467923Y174315D01*
X465527Y174315D01*
G37*
%LPD*%
%LPC*%
G36*
X588082Y301315D02*
X588082Y301315D01*
X585867Y302233D01*
X584173Y303927D01*
X583255Y306142D01*
X583255Y308538D01*
X584173Y310753D01*
X585867Y312447D01*
X588082Y313365D01*
X590478Y313365D01*
X592693Y312447D01*
X594387Y310753D01*
X595305Y308538D01*
X595305Y306142D01*
X594387Y303927D01*
X592693Y302233D01*
X590478Y301315D01*
X588082Y301315D01*
G37*
%LPD*%
%LPC*%
G36*
X633802Y165425D02*
X633802Y165425D01*
X631587Y166343D01*
X629893Y168037D01*
X628975Y170252D01*
X628975Y172648D01*
X629893Y174863D01*
X631587Y176557D01*
X633802Y177475D01*
X636198Y177475D01*
X638413Y176557D01*
X640107Y174863D01*
X641025Y172648D01*
X641025Y170252D01*
X640107Y168037D01*
X638413Y166343D01*
X636198Y165425D01*
X633802Y165425D01*
G37*
%LPD*%
%LPC*%
G36*
X633802Y146375D02*
X633802Y146375D01*
X631587Y147293D01*
X629893Y148987D01*
X628975Y151202D01*
X628975Y153598D01*
X629893Y155813D01*
X631587Y157507D01*
X633802Y158425D01*
X636198Y158425D01*
X638413Y157507D01*
X640107Y155813D01*
X641025Y153598D01*
X641025Y151202D01*
X640107Y148987D01*
X638413Y147293D01*
X636198Y146375D01*
X633802Y146375D01*
G37*
%LPD*%
%LPC*%
G36*
X38172Y133675D02*
X38172Y133675D01*
X35957Y134593D01*
X34263Y136287D01*
X33345Y138502D01*
X33345Y140898D01*
X34263Y143113D01*
X35957Y144807D01*
X38172Y145725D01*
X40568Y145725D01*
X42783Y144807D01*
X44477Y143113D01*
X45395Y140898D01*
X45395Y138502D01*
X44477Y136287D01*
X42783Y134593D01*
X40568Y133675D01*
X38172Y133675D01*
G37*
%LPD*%
%LPC*%
G36*
X313861Y49085D02*
X313861Y49085D01*
X312479Y49658D01*
X311830Y49926D01*
X310276Y51480D01*
X309435Y53511D01*
X309435Y55709D01*
X310276Y57740D01*
X311830Y59294D01*
X313861Y60135D01*
X316059Y60135D01*
X318090Y59294D01*
X319644Y57740D01*
X320485Y55709D01*
X320485Y53511D01*
X319644Y51480D01*
X318090Y49926D01*
X316059Y49085D01*
X313861Y49085D01*
G37*
%LPD*%
%LPC*%
G36*
X419271Y258635D02*
X419271Y258635D01*
X417629Y259316D01*
X417240Y259476D01*
X415686Y261030D01*
X414845Y263061D01*
X414845Y265259D01*
X415686Y267290D01*
X417240Y268844D01*
X419271Y269685D01*
X421469Y269685D01*
X423500Y268844D01*
X425054Y267290D01*
X425895Y265259D01*
X425895Y263061D01*
X425054Y261030D01*
X423500Y259476D01*
X421469Y258635D01*
X419271Y258635D01*
G37*
%LPD*%
%LPC*%
G36*
X245281Y176085D02*
X245281Y176085D01*
X243250Y176926D01*
X241696Y178480D01*
X240855Y180511D01*
X240855Y182709D01*
X241696Y184740D01*
X243250Y186294D01*
X245281Y187135D01*
X247479Y187135D01*
X249184Y186428D01*
X249510Y186294D01*
X251064Y184740D01*
X251905Y182709D01*
X251905Y180511D01*
X251064Y178480D01*
X249510Y176926D01*
X247479Y176085D01*
X245281Y176085D01*
G37*
%LPD*%
%LPC*%
G36*
X64941Y83375D02*
X64941Y83375D01*
X63090Y84142D01*
X62910Y84216D01*
X61356Y85770D01*
X60515Y87801D01*
X60515Y89999D01*
X61356Y92030D01*
X62910Y93584D01*
X64941Y94425D01*
X67139Y94425D01*
X69170Y93584D01*
X70724Y92030D01*
X71565Y89999D01*
X71565Y87801D01*
X70724Y85770D01*
X69170Y84216D01*
X67139Y83375D01*
X64941Y83375D01*
G37*
%LPD*%
%LPC*%
G36*
X373551Y356425D02*
X373551Y356425D01*
X371520Y357266D01*
X369966Y358820D01*
X369125Y360851D01*
X369125Y363049D01*
X369966Y365080D01*
X371520Y366634D01*
X373551Y367475D01*
X375749Y367475D01*
X377780Y366634D01*
X379334Y365080D01*
X380175Y363049D01*
X380175Y360851D01*
X379334Y358820D01*
X377780Y357266D01*
X375749Y356425D01*
X373551Y356425D01*
G37*
%LPD*%
%LPC*%
G36*
X233851Y77025D02*
X233851Y77025D01*
X231820Y77866D01*
X230266Y79420D01*
X229425Y81451D01*
X229425Y83649D01*
X230266Y85680D01*
X231820Y87234D01*
X233851Y88075D01*
X236049Y88075D01*
X238080Y87234D01*
X239634Y85680D01*
X240475Y83649D01*
X240475Y81451D01*
X239634Y79420D01*
X238080Y77866D01*
X236049Y77025D01*
X233851Y77025D01*
G37*
%LPD*%
%LPC*%
G36*
X224961Y341185D02*
X224961Y341185D01*
X222930Y342026D01*
X221376Y343580D01*
X220535Y345611D01*
X220535Y347809D01*
X221376Y349840D01*
X222930Y351394D01*
X224961Y352235D01*
X227159Y352235D01*
X229190Y351394D01*
X230744Y349840D01*
X231585Y347809D01*
X231585Y345611D01*
X230744Y343580D01*
X229190Y342026D01*
X227159Y341185D01*
X224961Y341185D01*
G37*
%LPD*%
%LPC*%
G36*
X367201Y324675D02*
X367201Y324675D01*
X365170Y325516D01*
X363616Y327070D01*
X362775Y329101D01*
X362775Y331299D01*
X363616Y333330D01*
X365170Y334884D01*
X367201Y335725D01*
X369399Y335725D01*
X371430Y334884D01*
X372984Y333330D01*
X373825Y331299D01*
X373825Y329101D01*
X372984Y327070D01*
X371430Y325516D01*
X369399Y324675D01*
X367201Y324675D01*
G37*
%LPD*%
%LPC*%
G36*
X371011Y289115D02*
X371011Y289115D01*
X368980Y289956D01*
X367426Y291510D01*
X366585Y293541D01*
X366585Y295739D01*
X367426Y297770D01*
X368980Y299324D01*
X371011Y300165D01*
X373209Y300165D01*
X375240Y299324D01*
X376794Y297770D01*
X377635Y295739D01*
X377635Y293541D01*
X376794Y291510D01*
X375240Y289956D01*
X373209Y289115D01*
X371011Y289115D01*
G37*
%LPD*%
%LPC*%
G36*
X303701Y282765D02*
X303701Y282765D01*
X301670Y283606D01*
X300116Y285160D01*
X299275Y287191D01*
X299275Y289389D01*
X300116Y291420D01*
X301670Y292974D01*
X303701Y293815D01*
X305899Y293815D01*
X307930Y292974D01*
X309484Y291420D01*
X310325Y289389D01*
X310325Y287191D01*
X309484Y285160D01*
X307930Y283606D01*
X305899Y282765D01*
X303701Y282765D01*
G37*
%LPD*%
%LPC*%
G36*
X222421Y271335D02*
X222421Y271335D01*
X220390Y272176D01*
X218836Y273730D01*
X217995Y275761D01*
X217995Y277959D01*
X218836Y279990D01*
X220390Y281544D01*
X222421Y282385D01*
X224619Y282385D01*
X226650Y281544D01*
X228204Y279990D01*
X229045Y277959D01*
X229045Y275761D01*
X228204Y273730D01*
X226650Y272176D01*
X224619Y271335D01*
X222421Y271335D01*
G37*
%LPD*%
%LPC*%
G36*
X34461Y268795D02*
X34461Y268795D01*
X32430Y269636D01*
X30876Y271190D01*
X30035Y273221D01*
X30035Y275419D01*
X30876Y277450D01*
X32430Y279004D01*
X34461Y279845D01*
X36659Y279845D01*
X38690Y279004D01*
X40244Y277450D01*
X41085Y275419D01*
X41085Y273221D01*
X40244Y271190D01*
X38690Y269636D01*
X36659Y268795D01*
X34461Y268795D01*
G37*
%LPD*%
%LPC*%
G36*
X257981Y116395D02*
X257981Y116395D01*
X255950Y117236D01*
X254396Y118790D01*
X253555Y120821D01*
X253555Y123019D01*
X254396Y125050D01*
X255950Y126604D01*
X257981Y127445D01*
X260179Y127445D01*
X262210Y126604D01*
X263764Y125050D01*
X264605Y123019D01*
X264605Y120821D01*
X263764Y118790D01*
X262210Y117236D01*
X260179Y116395D01*
X257981Y116395D01*
G37*
%LPD*%
%LPC*%
G36*
X144951Y171005D02*
X144951Y171005D01*
X142920Y171846D01*
X141366Y173400D01*
X140525Y175431D01*
X140525Y177629D01*
X141366Y179660D01*
X142920Y181214D01*
X144951Y182055D01*
X147149Y182055D01*
X149180Y181214D01*
X150734Y179660D01*
X151575Y177629D01*
X151575Y175431D01*
X150734Y173400D01*
X149180Y171846D01*
X147149Y171005D01*
X144951Y171005D01*
G37*
%LPD*%
%LPC*%
G36*
X160191Y113855D02*
X160191Y113855D01*
X158160Y114696D01*
X156606Y116250D01*
X155765Y118281D01*
X155765Y120479D01*
X156606Y122510D01*
X158160Y124064D01*
X160191Y124905D01*
X162389Y124905D01*
X164420Y124064D01*
X165974Y122510D01*
X166815Y120479D01*
X166815Y118281D01*
X165974Y116250D01*
X164420Y114696D01*
X162389Y113855D01*
X160191Y113855D01*
G37*
%LPD*%
%LPC*%
G36*
X472611Y93535D02*
X472611Y93535D01*
X470580Y94376D01*
X469026Y95930D01*
X468185Y97961D01*
X468185Y100159D01*
X469026Y102190D01*
X470580Y103744D01*
X472611Y104585D01*
X474809Y104585D01*
X476840Y103744D01*
X478394Y102190D01*
X479235Y100159D01*
X479235Y97961D01*
X478394Y95930D01*
X476840Y94376D01*
X474809Y93535D01*
X472611Y93535D01*
G37*
%LPD*%
%LPC*%
G36*
X268141Y89725D02*
X268141Y89725D01*
X266110Y90566D01*
X264556Y92120D01*
X263715Y94151D01*
X263715Y96349D01*
X264556Y98380D01*
X266110Y99934D01*
X268141Y100775D01*
X270339Y100775D01*
X272370Y99934D01*
X273924Y98380D01*
X274765Y96349D01*
X274765Y94151D01*
X273924Y92120D01*
X272370Y90566D01*
X270339Y89725D01*
X268141Y89725D01*
G37*
%LPD*%
%LPC*%
G36*
X133521Y160845D02*
X133521Y160845D01*
X131490Y161686D01*
X129936Y163240D01*
X129095Y165271D01*
X129095Y167469D01*
X129936Y169500D01*
X131490Y171054D01*
X133521Y171895D01*
X135719Y171895D01*
X137750Y171054D01*
X139304Y169500D01*
X140145Y167469D01*
X140145Y165271D01*
X139304Y163240D01*
X137750Y161686D01*
X135719Y160845D01*
X133521Y160845D01*
G37*
%LPD*%
%LPC*%
G36*
X54781Y134175D02*
X54781Y134175D01*
X52750Y135016D01*
X51196Y136570D01*
X50355Y138601D01*
X50355Y140799D01*
X51196Y142830D01*
X52750Y144384D01*
X54781Y145225D01*
X56979Y145225D01*
X59010Y144384D01*
X60564Y142830D01*
X61405Y140799D01*
X61405Y138601D01*
X60564Y136570D01*
X59010Y135016D01*
X56979Y134175D01*
X54781Y134175D01*
G37*
%LPD*%
%LPC*%
G36*
X506901Y153225D02*
X506901Y153225D01*
X504870Y154066D01*
X503316Y155620D01*
X502475Y157651D01*
X502475Y159849D01*
X503316Y161880D01*
X504870Y163434D01*
X506901Y164275D01*
X509099Y164275D01*
X511130Y163434D01*
X512684Y161880D01*
X513525Y159849D01*
X513525Y157651D01*
X512684Y155620D01*
X511130Y154066D01*
X509099Y153225D01*
X506901Y153225D01*
G37*
%LPD*%
%LPC*%
G36*
X75101Y131635D02*
X75101Y131635D01*
X73070Y132476D01*
X71516Y134030D01*
X70675Y136061D01*
X70675Y138259D01*
X71516Y140290D01*
X73070Y141844D01*
X75101Y142685D01*
X77299Y142685D01*
X79330Y141844D01*
X80884Y140290D01*
X81725Y138259D01*
X81725Y136061D01*
X80884Y134030D01*
X79330Y132476D01*
X77299Y131635D01*
X75101Y131635D01*
G37*
%LPD*%
%LPC*%
G36*
X191941Y190055D02*
X191941Y190055D01*
X189910Y190896D01*
X188356Y192450D01*
X187515Y194481D01*
X187515Y196679D01*
X188356Y198710D01*
X189910Y200264D01*
X191941Y201105D01*
X194139Y201105D01*
X196170Y200264D01*
X197724Y198710D01*
X198565Y196679D01*
X198565Y194481D01*
X197724Y192450D01*
X196170Y190896D01*
X194139Y190055D01*
X191941Y190055D01*
G37*
%LPD*%
%LPC*%
G36*
X576751Y238315D02*
X576751Y238315D01*
X574720Y239156D01*
X573166Y240710D01*
X572325Y242741D01*
X572325Y244939D01*
X573166Y246970D01*
X574720Y248524D01*
X576751Y249365D01*
X578949Y249365D01*
X580980Y248524D01*
X582534Y246970D01*
X583375Y244939D01*
X583375Y242741D01*
X582534Y240710D01*
X580980Y239156D01*
X578949Y238315D01*
X576751Y238315D01*
G37*
%LPD*%
%LPC*%
G36*
X540831Y204415D02*
X540831Y204415D01*
X538800Y205256D01*
X537246Y206810D01*
X536405Y208841D01*
X536405Y211039D01*
X537246Y213070D01*
X538800Y214624D01*
X540831Y215465D01*
X543029Y215465D01*
X545060Y214624D01*
X546614Y213070D01*
X547455Y211039D01*
X547455Y208841D01*
X546614Y206810D01*
X545060Y205256D01*
X543029Y204415D01*
X540831Y204415D01*
G37*
%LPD*%
%LPC*%
G36*
X392601Y219265D02*
X392601Y219265D01*
X390570Y220106D01*
X389016Y221660D01*
X388175Y223691D01*
X388175Y225889D01*
X389016Y227920D01*
X390570Y229474D01*
X392601Y230315D01*
X394799Y230315D01*
X396830Y229474D01*
X398384Y227920D01*
X399225Y225889D01*
X399225Y223691D01*
X398384Y221660D01*
X396830Y220106D01*
X394799Y219265D01*
X392601Y219265D01*
G37*
%LPD*%
%LPC*%
G36*
X100501Y223075D02*
X100501Y223075D01*
X98470Y223916D01*
X96916Y225470D01*
X96075Y227501D01*
X96075Y229699D01*
X96916Y231730D01*
X98470Y233284D01*
X100501Y234125D01*
X102699Y234125D01*
X104730Y233284D01*
X106284Y231730D01*
X107125Y229699D01*
X107125Y227501D01*
X106284Y225470D01*
X104730Y223916D01*
X102699Y223075D01*
X100501Y223075D01*
G37*
%LPD*%
%LPC*%
G36*
X188131Y52895D02*
X188131Y52895D01*
X186100Y53736D01*
X184546Y55290D01*
X183705Y57321D01*
X183705Y59519D01*
X184546Y61550D01*
X186100Y63104D01*
X188131Y63945D01*
X190329Y63945D01*
X192360Y63104D01*
X193914Y61550D01*
X194755Y59519D01*
X194755Y57321D01*
X193914Y55290D01*
X192360Y53736D01*
X190329Y52895D01*
X188131Y52895D01*
G37*
%LPD*%
%LPC*%
G36*
X602151Y172275D02*
X602151Y172275D01*
X600120Y173116D01*
X598566Y174670D01*
X597725Y176701D01*
X597725Y178899D01*
X598566Y180930D01*
X600120Y182484D01*
X602151Y183325D01*
X604349Y183325D01*
X606380Y182484D01*
X607934Y180930D01*
X608775Y178899D01*
X608775Y176701D01*
X607934Y174670D01*
X606380Y173116D01*
X604349Y172275D01*
X602151Y172275D01*
G37*
%LPD*%
%LPC*%
G36*
X195751Y40195D02*
X195751Y40195D01*
X193720Y41036D01*
X192166Y42590D01*
X191325Y44621D01*
X191325Y46819D01*
X192166Y48850D01*
X193720Y50404D01*
X195751Y51245D01*
X197949Y51245D01*
X199980Y50404D01*
X201534Y48850D01*
X202375Y46819D01*
X202375Y44621D01*
X201534Y42590D01*
X199980Y41036D01*
X197949Y40195D01*
X195751Y40195D01*
G37*
%LPD*%
%LPC*%
G36*
X552621Y36385D02*
X552621Y36385D01*
X550590Y37226D01*
X549036Y38780D01*
X548195Y40811D01*
X548195Y43009D01*
X549036Y45040D01*
X550590Y46594D01*
X552621Y47435D01*
X554819Y47435D01*
X556850Y46594D01*
X558404Y45040D01*
X559245Y43009D01*
X559245Y40811D01*
X558404Y38780D01*
X556850Y37226D01*
X554819Y36385D01*
X552621Y36385D01*
G37*
%LPD*%
%LPC*%
G36*
X58591Y244665D02*
X58591Y244665D01*
X56560Y245506D01*
X55006Y247060D01*
X54165Y249091D01*
X54165Y251289D01*
X55006Y253320D01*
X56560Y254874D01*
X58591Y255715D01*
X60789Y255715D01*
X62820Y254874D01*
X64374Y253320D01*
X65215Y251289D01*
X65215Y249091D01*
X64374Y247060D01*
X62820Y245506D01*
X60789Y244665D01*
X58591Y244665D01*
G37*
%LPD*%
%LPC*%
G36*
X58591Y260475D02*
X58591Y260475D01*
X56560Y261316D01*
X55006Y262870D01*
X54165Y264901D01*
X54165Y267099D01*
X55006Y269130D01*
X56560Y270684D01*
X58591Y271525D01*
X60789Y271525D01*
X62820Y270684D01*
X64374Y269130D01*
X65215Y267099D01*
X65215Y264901D01*
X64374Y262870D01*
X62820Y261316D01*
X60789Y260475D01*
X58591Y260475D01*
G37*
%LPD*%
%LPC*%
G36*
X270681Y266255D02*
X270681Y266255D01*
X268650Y267096D01*
X267096Y268650D01*
X266255Y270681D01*
X266255Y272879D01*
X267096Y274910D01*
X268650Y276464D01*
X270681Y277305D01*
X272879Y277305D01*
X274910Y276464D01*
X276464Y274910D01*
X277305Y272879D01*
X277305Y270681D01*
X276464Y268650D01*
X274910Y267096D01*
X272879Y266255D01*
X270681Y266255D01*
G37*
%LPD*%
%LPC*%
G36*
X294811Y27495D02*
X294811Y27495D01*
X292780Y28336D01*
X291226Y29890D01*
X290385Y31921D01*
X290385Y34119D01*
X291226Y36150D01*
X292780Y37704D01*
X294811Y38545D01*
X297009Y38545D01*
X299040Y37704D01*
X300594Y36150D01*
X301435Y34119D01*
X301435Y31921D01*
X300594Y29890D01*
X299040Y28336D01*
X297009Y27495D01*
X294811Y27495D01*
G37*
%LPD*%
%LPC*%
G36*
X570401Y17335D02*
X570401Y17335D01*
X568370Y18176D01*
X566816Y19730D01*
X565975Y21761D01*
X565975Y23959D01*
X566816Y25990D01*
X568370Y27544D01*
X570401Y28385D01*
X572599Y28385D01*
X574630Y27544D01*
X576184Y25990D01*
X577025Y23959D01*
X577025Y21761D01*
X576184Y19730D01*
X574630Y18176D01*
X572599Y17335D01*
X570401Y17335D01*
G37*
%LPD*%
%LPC*%
G36*
X552621Y17335D02*
X552621Y17335D01*
X550590Y18176D01*
X549036Y19730D01*
X548195Y21761D01*
X548195Y23959D01*
X549036Y25990D01*
X550590Y27544D01*
X552621Y28385D01*
X554819Y28385D01*
X556850Y27544D01*
X558404Y25990D01*
X559245Y23959D01*
X559245Y21761D01*
X558404Y19730D01*
X556850Y18176D01*
X554819Y17335D01*
X552621Y17335D01*
G37*
%LPD*%
%LPC*%
G36*
X143681Y350075D02*
X143681Y350075D01*
X141650Y350916D01*
X140096Y352470D01*
X139255Y354501D01*
X139255Y356699D01*
X140096Y358730D01*
X141650Y360284D01*
X143681Y361125D01*
X145879Y361125D01*
X147075Y360629D01*
X147910Y360284D01*
X149464Y358730D01*
X150305Y356699D01*
X150305Y354501D01*
X149464Y352470D01*
X147910Y350916D01*
X145879Y350075D01*
X143681Y350075D01*
G37*
%LPD*%
%LPC*%
G36*
X217341Y139255D02*
X217341Y139255D01*
X215310Y140096D01*
X213756Y141650D01*
X212915Y143681D01*
X212915Y145879D01*
X213756Y147910D01*
X215310Y149464D01*
X217341Y150305D01*
X219539Y150305D01*
X220587Y149870D01*
X220588Y149870D01*
X221570Y149464D01*
X223124Y147910D01*
X223965Y145879D01*
X223965Y143681D01*
X223124Y141650D01*
X221570Y140096D01*
X219539Y139255D01*
X217341Y139255D01*
G37*
%LPD*%
%LPC*%
G36*
X405301Y105600D02*
X405301Y105600D01*
X404293Y106018D01*
X403270Y106441D01*
X401716Y107995D01*
X400875Y110026D01*
X400875Y112224D01*
X401716Y114255D01*
X403270Y115809D01*
X405301Y116650D01*
X407499Y116650D01*
X409530Y115809D01*
X411084Y114255D01*
X411925Y112224D01*
X411925Y110026D01*
X411084Y107995D01*
X409530Y106441D01*
X407499Y105600D01*
X405301Y105600D01*
G37*
%LPD*%
%LPC*%
G36*
X335451Y254825D02*
X335451Y254825D01*
X333420Y255666D01*
X331866Y257220D01*
X331025Y259251D01*
X331025Y261449D01*
X331866Y263480D01*
X333420Y265034D01*
X335451Y265875D01*
X337649Y265875D01*
X338222Y265637D01*
X339680Y265034D01*
X341234Y263480D01*
X342075Y261449D01*
X342075Y259251D01*
X341234Y257220D01*
X339680Y255666D01*
X337649Y254825D01*
X335451Y254825D01*
G37*
%LPD*%
%LPC*%
G36*
X83779Y60919D02*
X83779Y60919D01*
X83779Y68207D01*
X85150Y67762D01*
X86563Y67042D01*
X87847Y66109D01*
X88969Y64987D01*
X89902Y63703D01*
X90622Y62290D01*
X91067Y60919D01*
X83779Y60919D01*
G37*
%LPD*%
%LPC*%
G36*
X71493Y60919D02*
X71493Y60919D01*
X71938Y62290D01*
X72658Y63703D01*
X73591Y64987D01*
X74713Y66109D01*
X75997Y67042D01*
X77410Y67762D01*
X78781Y68207D01*
X78781Y60919D01*
X71493Y60919D01*
G37*
%LPD*%
%LPC*%
G36*
X83779Y55921D02*
X83779Y55921D01*
X91067Y55921D01*
X90622Y54550D01*
X89902Y53137D01*
X88969Y51853D01*
X87847Y50731D01*
X86563Y49798D01*
X85150Y49078D01*
X83779Y48633D01*
X83779Y55921D01*
G37*
%LPD*%
%LPC*%
G36*
X77410Y49078D02*
X77410Y49078D01*
X75997Y49798D01*
X74713Y50731D01*
X73591Y51853D01*
X72658Y53137D01*
X71938Y54550D01*
X71493Y55921D01*
X78781Y55921D01*
X78781Y48633D01*
X77410Y49078D01*
G37*
%LPD*%
D10*
X16510Y0D02*
X3810Y12700D01*
X3810Y345440D01*
X35560Y377190D01*
X593090Y377190D01*
X599440Y370840D01*
X599440Y316230D01*
X648970Y266700D01*
X648970Y12700D01*
X636270Y0D02*
X16510Y0D01*
X636270Y0D02*
X648970Y12700D01*
D11*
X510372Y21851D02*
X509016Y20495D01*
X510372Y21851D02*
X513083Y21851D01*
X514439Y20495D01*
X514439Y19139D01*
X513083Y17783D01*
X511728Y17783D01*
X513083Y17783D02*
X514439Y16428D01*
X514439Y15072D01*
X513083Y13716D01*
X510372Y13716D01*
X509016Y15072D01*
D12*
X55880Y33020D03*
X55880Y58420D03*
X81280Y33020D03*
X81280Y58420D03*
X106680Y33020D03*
X106680Y58420D03*
X132080Y33020D03*
X132080Y58420D03*
X157480Y33020D03*
X157480Y58420D03*
D13*
X176530Y146050D03*
X260350Y54610D03*
X334010Y82550D03*
X396240Y144780D03*
X420370Y196850D03*
X331470Y288290D03*
D14*
X210820Y289560D03*
D15*
X199390Y278130D01*
D14*
X199390Y278130D03*
D13*
X220980Y215900D03*
D16*
X220980Y190500D01*
D13*
X262890Y308610D03*
D16*
X229870Y308610D02*
X210820Y289560D01*
X229870Y308610D02*
X262890Y308610D01*
X303530Y267970D01*
X313690Y267970D01*
X311150Y260350D02*
X313690Y257810D01*
X311150Y260350D02*
X306070Y265430D01*
X303530Y267970D01*
X306070Y265430D02*
X311150Y265430D01*
X311150Y260350D01*
X313690Y257810D02*
X313690Y267970D01*
D17*
X331470Y288290D01*
D16*
X313690Y257810D02*
X392430Y179070D01*
X403860Y179070D01*
X403860Y167640D01*
X401320Y170180D01*
X394970Y176530D01*
X392430Y179070D01*
X394970Y176530D02*
X401320Y176530D01*
X401320Y170180D01*
D17*
X403860Y179070D02*
X416560Y191770D01*
X420370Y196850D01*
D16*
X403860Y167640D02*
X403860Y152400D01*
X396240Y144780D01*
D18*
X176530Y146050D02*
X176530Y119380D01*
X241300Y54610D02*
X260350Y54610D01*
X241300Y54610D02*
X176530Y119380D01*
X396240Y121920D02*
X396240Y144780D01*
X396240Y121920D02*
X356870Y82550D01*
X334010Y82550D01*
D16*
X220980Y190500D02*
X176530Y146050D01*
X220980Y256540D02*
X199390Y278130D01*
X220980Y256540D02*
X220980Y215900D01*
D13*
X287020Y334010D03*
X246380Y181610D03*
X314960Y54610D03*
D14*
X120650Y369570D03*
X106680Y355600D03*
X106680Y341630D03*
X120650Y292100D03*
X106680Y292100D03*
X120650Y278130D03*
X106680Y278130D03*
D13*
X233680Y287020D03*
X247650Y300990D03*
X237490Y234950D03*
X204470Y201930D03*
X217170Y97790D03*
X246380Y68580D03*
X364490Y256540D03*
X85090Y185420D03*
X124460Y144780D03*
X142240Y105410D03*
X406400Y299720D03*
D14*
X106680Y369570D03*
X120650Y341630D03*
X134620Y278130D03*
X134620Y292100D03*
X120650Y355600D03*
D13*
X325460Y300990D03*
X284480Y40640D03*
X342900Y330200D03*
X353060Y266700D03*
D14*
X228600Y364490D03*
X241300Y364490D03*
D16*
X308610Y364490D01*
X342900Y330200D01*
X353060Y320040D01*
D13*
X199390Y20320D03*
D19*
X270510Y26670D02*
X284480Y40640D01*
D16*
X452120Y127000D02*
X452120Y213360D01*
X452120Y127000D02*
X389890Y64770D01*
X308610Y64770D01*
X284480Y40640D01*
D19*
X270510Y26670D02*
X205740Y26670D01*
X199390Y20320D01*
D16*
X353060Y276860D02*
X353060Y320040D01*
X353060Y276860D02*
X353060Y266700D01*
X363220Y266700D01*
X358140Y271780D01*
X357505Y272415D02*
X353060Y276860D01*
X353060Y267970D02*
X353060Y266700D01*
X353060Y267970D02*
X357505Y272415D01*
X358140Y271780D02*
X358140Y266700D01*
X358140Y271780D02*
X357505Y272415D01*
X363220Y266700D02*
X398780Y266700D01*
X452120Y213360D01*
D13*
X351790Y44450D03*
X378460Y127000D03*
X347980Y96520D03*
X426720Y125730D03*
X406400Y213360D03*
D14*
X254000Y364490D03*
D20*
X408940Y30480D03*
D14*
X144780Y312420D03*
D13*
X295910Y33020D03*
D14*
X63500Y292100D03*
X50800Y304800D03*
X88900Y292100D03*
X76200Y279400D03*
X76200Y304800D03*
D21*
X276860Y184150D03*
D22*
X311150Y184150D03*
D14*
X39370Y139700D03*
X35560Y88900D03*
X20320Y88900D03*
X176530Y88900D03*
D13*
X134620Y166370D03*
X374650Y361950D03*
X247650Y8890D03*
X234950Y82550D03*
X473710Y99060D03*
X367030Y172720D03*
X393700Y224790D03*
X304800Y288290D03*
X200660Y295910D03*
X226060Y346710D03*
X309880Y337820D03*
X144780Y355600D03*
X412750Y323850D03*
X577850Y243840D03*
X603250Y177800D03*
D14*
X576580Y137160D03*
X635000Y171450D03*
X635000Y152400D03*
X609600Y120650D03*
X542290Y320040D03*
X561340Y313690D03*
X629920Y269240D03*
X589280Y307340D03*
X551180Y274320D03*
D13*
X553720Y22860D03*
X336550Y260350D03*
X374650Y222250D03*
X196850Y45720D03*
X553720Y41910D03*
D14*
X50800Y88900D03*
X579120Y111760D03*
X19050Y134620D03*
D23*
X291465Y203835D03*
X291465Y163830D03*
X330835Y163830D03*
X331470Y203835D03*
D13*
X368300Y330200D03*
D14*
X38100Y355600D03*
X590550Y274320D03*
D13*
X508000Y158750D03*
X406400Y111125D03*
X420370Y264160D03*
X223520Y276860D03*
X218440Y144780D03*
X271780Y271780D03*
X193040Y195580D03*
X372110Y294640D03*
D21*
X342900Y184150D03*
X311150Y215900D03*
X311150Y152400D03*
D14*
X200660Y251460D03*
X132080Y251460D03*
X157480Y287020D03*
X185420Y287020D03*
X518160Y238760D03*
X447040Y231140D03*
X472440Y245745D03*
X466725Y180340D03*
X614680Y81280D03*
X576580Y81280D03*
D13*
X491490Y111760D03*
X543560Y140970D03*
X533400Y227330D03*
X488950Y304800D03*
X466090Y359410D03*
D14*
X595630Y81280D03*
D13*
X543560Y130810D03*
D14*
X614680Y60960D03*
X635000Y81280D03*
X635000Y60960D03*
D13*
X541930Y209940D03*
X568960Y190500D03*
X189230Y58420D03*
X161290Y119380D03*
X55880Y139700D03*
X146050Y176530D03*
X76200Y137160D03*
X565150Y177800D03*
X259080Y121920D03*
X101600Y228600D03*
X584200Y41910D03*
X59690Y266000D03*
X571500Y22860D03*
X59690Y250190D03*
X35560Y274320D03*
X269240Y95250D03*
X66040Y88900D03*
M02*
