%
M48
M72
T01C0.0138
T02C0.0157
T03C0.0197
T04C0.0394
%
T01
X15650Y11450
X11400Y10050
X14758Y8200
T02
X3000Y13100
X7200Y12000
X7200Y12650
X9000Y12400
X4400Y13270
X6200Y12050
X6500Y8700
X6500Y10200
X8300Y10700
X11400Y10650
X3550Y5300
X12300Y11550
X14300Y8550
X14950Y9300
X14950Y9980
X15550Y12500
X19650Y12250
X6800Y6550
X8550Y6550
X8300Y4500
X11550Y2450
X10150Y2450
X13500Y2300
X16800Y4800
X19300Y3800
X10050Y12400
X13520Y12610
X7300Y5800
X12100Y5350
X10800Y5800
X8750Y8700
X10000Y9450
X10250Y6950
X14090Y2800
X1550Y12300
X11900Y13100
X18020Y12470
X4700Y11550
X4700Y11050
X17500Y9130
X11200Y7300
X10550Y12000
X7820Y12000
X7620Y4200
X10380Y4200
X5000Y8700
X4800Y6060
X6550Y5800
X4330Y4570
X11200Y8200
X6800Y8200
X7800Y10400
X19000Y8950
X19000Y8200
X19000Y7450
X13750Y7609
X16300Y9375
X16285Y8525
X12900Y3550
X18250Y10400
X17750Y10450
X7410Y2930
X3150Y5050
X7750Y1900
X2800Y4700
X1550Y8700
X2780Y9670
X2050Y8300
X2460Y9360
X14550Y10300
X12700Y8400
X14150Y9850
X12700Y7806
X9000Y10650
X9197Y5800
T03
X2920Y10660
X2170Y10670
X2920Y10080
X1000Y10150
X3850Y10100
X17550Y6650
X17300Y5950
X18050Y5950
X18800Y7000
X18800Y5950
X16800Y6900
X16800Y7550
X19800Y9530
X19060Y9540
X18570Y10060
X18770Y10710
X17290Y10880
X8980Y1600
X2550Y6290
X2320Y4280
X1890Y5540
X2560Y1790
X790Y4290
X1290Y1800
X7270Y2380
X3850Y10650
X3850Y11150
X4400Y10650
X5500Y11350
X6050Y11350
X16050Y12500
X16050Y11950
T04
X2500Y2450
X2500Y3450
X3500Y2450
X3500Y3450
X4500Y2450
X4500Y3450
X5500Y2450
X5500Y3450
X6500Y2450
X6500Y3450
M30
