G75*
%MOIN*%
%OFA0B0*%
%FSLAX25Y25*%
%IPPOS*%
%LPD*%
%AMOC8*
5,1,8,0,0,1.08239X$1,22.5*
%
%ADD10C,0.00000*%
%ADD11C,0.00500*%
%ADD12C,0.00600*%
%ADD13C,0.01200*%
%ADD14C,0.00800*%
%ADD15C,0.00787*%
%ADD16C,0.00400*%
%ADD17C,0.01000*%
%ADD18C,0.00300*%
%ADD19R,0.04133X0.01182*%
%ADD20R,0.04133X0.01181*%
%ADD21R,0.01182X0.04133*%
%ADD22R,0.01181X0.04133*%
D10*
X0005500Y0013000D02*
X0003000Y0015500D01*
X0003000Y0133000D01*
X0005500Y0135500D01*
X0199500Y0135500D01*
X0202000Y0133000D01*
X0202000Y0015500D01*
X0199500Y0013000D01*
X0005500Y0013000D01*
D11*
X0042348Y0057150D02*
X0042348Y0058501D01*
X0042798Y0058952D01*
X0043699Y0058952D01*
X0044149Y0058501D01*
X0044149Y0057150D01*
X0044149Y0058051D02*
X0045050Y0058952D01*
X0045050Y0060097D02*
X0042348Y0060097D01*
X0045050Y0061898D01*
X0042348Y0061898D01*
X0043248Y0063043D02*
X0042348Y0063944D01*
X0045050Y0063944D01*
X0045050Y0063043D02*
X0045050Y0064845D01*
X0044600Y0065990D02*
X0042798Y0067791D01*
X0044600Y0067791D01*
X0045050Y0067341D01*
X0045050Y0066440D01*
X0044600Y0065990D01*
X0042798Y0065990D01*
X0042348Y0066440D01*
X0042348Y0067341D01*
X0042798Y0067791D01*
X0042448Y0072150D02*
X0042448Y0073501D01*
X0042898Y0073952D01*
X0043799Y0073952D01*
X0044249Y0073501D01*
X0044249Y0072150D01*
X0044249Y0073051D02*
X0045150Y0073952D01*
X0045150Y0075097D02*
X0042448Y0075097D01*
X0045150Y0076898D01*
X0042448Y0076898D01*
X0043348Y0078043D02*
X0042448Y0078944D01*
X0045150Y0078944D01*
X0045150Y0078043D02*
X0045150Y0079845D01*
X0045150Y0080990D02*
X0045150Y0082791D01*
X0045150Y0081890D02*
X0042448Y0081890D01*
X0043348Y0080990D01*
X0042548Y0086950D02*
X0042548Y0088301D01*
X0042998Y0088752D01*
X0043899Y0088752D01*
X0044349Y0088301D01*
X0044349Y0086950D01*
X0044349Y0087851D02*
X0045250Y0088752D01*
X0045250Y0089897D02*
X0042548Y0089897D01*
X0045250Y0091698D01*
X0042548Y0091698D01*
X0043448Y0092843D02*
X0042548Y0093744D01*
X0045250Y0093744D01*
X0045250Y0092843D02*
X0045250Y0094645D01*
X0045250Y0095790D02*
X0043448Y0097591D01*
X0042998Y0097591D01*
X0042548Y0097141D01*
X0042548Y0096240D01*
X0042998Y0095790D01*
X0045250Y0095790D02*
X0045250Y0097591D01*
X0045250Y0086950D02*
X0042548Y0086950D01*
X0024391Y0094750D02*
X0023040Y0096101D01*
X0022590Y0095651D02*
X0024391Y0097452D01*
X0022590Y0097452D02*
X0022590Y0094750D01*
X0021445Y0094750D02*
X0019643Y0094750D01*
X0019643Y0097452D01*
X0018498Y0097002D02*
X0018048Y0097452D01*
X0017147Y0097452D01*
X0016697Y0097002D01*
X0016697Y0095200D01*
X0017147Y0094750D01*
X0018048Y0094750D01*
X0018498Y0095200D01*
X0018048Y0092452D02*
X0016697Y0092452D01*
X0016697Y0089750D01*
X0018048Y0089750D01*
X0018498Y0090200D01*
X0018498Y0092002D01*
X0018048Y0092452D01*
X0019643Y0092002D02*
X0019643Y0091552D01*
X0020093Y0091101D01*
X0020994Y0091101D01*
X0021445Y0090651D01*
X0021445Y0090200D01*
X0020994Y0089750D01*
X0020093Y0089750D01*
X0019643Y0090200D01*
X0019643Y0092002D02*
X0020093Y0092452D01*
X0020994Y0092452D01*
X0021445Y0092002D01*
X0015552Y0092452D02*
X0013750Y0089750D01*
X0013750Y0094750D02*
X0015552Y0097452D01*
X0015449Y0080971D02*
X0014999Y0080521D01*
X0014999Y0079170D01*
X0015900Y0079170D01*
X0016350Y0079620D01*
X0016350Y0080521D01*
X0015900Y0080971D01*
X0015449Y0080971D01*
X0014098Y0080071D02*
X0014999Y0079170D01*
X0014098Y0080071D02*
X0013648Y0080971D01*
X0014098Y0078025D02*
X0013648Y0077574D01*
X0013648Y0076223D01*
X0016350Y0076223D01*
X0016350Y0077574D01*
X0015900Y0078025D01*
X0014098Y0078025D01*
X0014999Y0075078D02*
X0014999Y0073277D01*
X0014098Y0072132D02*
X0015900Y0072132D01*
X0016350Y0071681D01*
X0016350Y0070781D01*
X0015900Y0070330D01*
X0014098Y0072132D01*
X0013648Y0071681D01*
X0013648Y0070781D01*
X0014098Y0070330D01*
X0015900Y0070330D01*
X0015900Y0069185D02*
X0014098Y0069185D01*
X0013648Y0068735D01*
X0013648Y0067384D01*
X0016350Y0067384D01*
X0016350Y0068735D01*
X0015900Y0069185D01*
X0042448Y0072150D02*
X0045150Y0072150D01*
X0045050Y0057150D02*
X0042348Y0057150D01*
X0080484Y0079406D02*
X0081484Y0079406D01*
X0081984Y0080406D01*
X0083984Y0080406D01*
X0084484Y0079406D01*
X0088984Y0079406D01*
X0088984Y0083657D01*
X0090484Y0083657D01*
X0092484Y0083657D01*
X0092484Y0082657D01*
X0090484Y0082657D01*
X0090484Y0083657D01*
X0090484Y0084657D01*
X0094732Y0084657D01*
X0094484Y0083657D02*
X0093732Y0083657D01*
X0093732Y0082657D01*
X0094484Y0082657D01*
X0094528Y0082659D01*
X0094571Y0082665D01*
X0094613Y0082674D01*
X0094655Y0082687D01*
X0094695Y0082704D01*
X0094734Y0082724D01*
X0094771Y0082747D01*
X0094805Y0082774D01*
X0094838Y0082803D01*
X0094867Y0082836D01*
X0094894Y0082870D01*
X0094917Y0082907D01*
X0094937Y0082946D01*
X0094954Y0082986D01*
X0094967Y0083028D01*
X0094976Y0083070D01*
X0094982Y0083113D01*
X0094984Y0083157D01*
X0094982Y0083201D01*
X0094976Y0083244D01*
X0094967Y0083286D01*
X0094954Y0083328D01*
X0094937Y0083368D01*
X0094917Y0083407D01*
X0094894Y0083444D01*
X0094867Y0083478D01*
X0094838Y0083511D01*
X0094805Y0083540D01*
X0094771Y0083567D01*
X0094734Y0083590D01*
X0094695Y0083610D01*
X0094655Y0083627D01*
X0094613Y0083640D01*
X0094571Y0083649D01*
X0094528Y0083655D01*
X0094484Y0083657D01*
X0094733Y0084658D02*
X0094809Y0084649D01*
X0094886Y0084637D01*
X0094961Y0084621D01*
X0095036Y0084601D01*
X0095109Y0084577D01*
X0095182Y0084550D01*
X0095252Y0084519D01*
X0095321Y0084484D01*
X0095389Y0084446D01*
X0095454Y0084405D01*
X0095517Y0084360D01*
X0095577Y0084312D01*
X0095636Y0084261D01*
X0095691Y0084208D01*
X0095744Y0084151D01*
X0095793Y0084092D01*
X0095840Y0084030D01*
X0095883Y0083967D01*
X0095924Y0083901D01*
X0095960Y0083833D01*
X0095994Y0083763D01*
X0096023Y0083692D01*
X0096049Y0083619D01*
X0096071Y0083545D01*
X0096090Y0083470D01*
X0096104Y0083394D01*
X0096115Y0083317D01*
X0096122Y0083240D01*
X0096125Y0083163D01*
X0096124Y0083086D01*
X0096119Y0083009D01*
X0096110Y0082932D01*
X0096097Y0082856D01*
X0096081Y0082781D01*
X0096060Y0082706D01*
X0096036Y0082633D01*
X0096008Y0082561D01*
X0095977Y0082490D01*
X0095941Y0082421D01*
X0095903Y0082354D01*
X0095861Y0082290D01*
X0095816Y0082227D01*
X0095768Y0082167D01*
X0095716Y0082109D01*
X0095662Y0082054D01*
X0095605Y0082001D01*
X0095546Y0081952D01*
X0095484Y0081906D01*
X0095484Y0081908D02*
X0095535Y0081883D01*
X0095585Y0081853D01*
X0095632Y0081821D01*
X0095678Y0081786D01*
X0095721Y0081748D01*
X0095762Y0081707D01*
X0095800Y0081664D01*
X0095835Y0081619D01*
X0095867Y0081571D01*
X0095896Y0081521D01*
X0095921Y0081470D01*
X0095944Y0081417D01*
X0095962Y0081362D01*
X0095978Y0081307D01*
X0095990Y0081250D01*
X0095998Y0081193D01*
X0096002Y0081136D01*
X0096003Y0081079D01*
X0096000Y0081021D01*
X0095993Y0080964D01*
X0095983Y0080907D01*
X0095984Y0081157D02*
X0097484Y0084657D01*
X0098484Y0084657D01*
X0100484Y0079406D01*
X0099484Y0079406D01*
X0098984Y0080406D01*
X0096984Y0080406D01*
X0096484Y0079406D01*
X0094732Y0079406D01*
X0094732Y0081157D01*
X0094730Y0081201D01*
X0094724Y0081244D01*
X0094715Y0081286D01*
X0094702Y0081328D01*
X0094685Y0081368D01*
X0094665Y0081407D01*
X0094642Y0081444D01*
X0094615Y0081478D01*
X0094586Y0081511D01*
X0094553Y0081540D01*
X0094519Y0081567D01*
X0094482Y0081590D01*
X0094443Y0081610D01*
X0094403Y0081627D01*
X0094361Y0081640D01*
X0094319Y0081649D01*
X0094276Y0081655D01*
X0094232Y0081657D01*
X0093732Y0081657D01*
X0093732Y0079406D01*
X0089232Y0079406D01*
X0087984Y0080406D02*
X0086232Y0080406D01*
X0086232Y0083657D01*
X0087984Y0083657D01*
X0087984Y0080406D01*
X0090484Y0080657D02*
X0090484Y0081657D01*
X0092484Y0081657D01*
X0092484Y0080657D01*
X0090484Y0080657D01*
X0086232Y0083657D02*
X0086232Y0084657D01*
X0090484Y0084657D01*
X0086232Y0084657D02*
X0085232Y0084657D01*
X0085232Y0080406D01*
X0083484Y0084657D01*
X0082484Y0084657D01*
X0080484Y0079406D01*
X0082232Y0081406D02*
X0083732Y0081406D01*
X0082984Y0083657D01*
X0082232Y0081406D01*
X0097232Y0081406D02*
X0097984Y0083657D01*
X0098732Y0081406D01*
X0097232Y0081406D01*
X0132650Y0049952D02*
X0134001Y0049952D01*
X0134452Y0049502D01*
X0134452Y0048601D01*
X0134001Y0048151D01*
X0132650Y0048151D01*
X0133551Y0048151D02*
X0134452Y0047250D01*
X0135597Y0047250D02*
X0137398Y0047250D01*
X0136497Y0047250D02*
X0136497Y0049952D01*
X0135597Y0049052D01*
X0138543Y0049502D02*
X0138993Y0049952D01*
X0139894Y0049952D01*
X0140345Y0049502D01*
X0140345Y0049052D01*
X0139894Y0048601D01*
X0140345Y0048151D01*
X0140345Y0047700D01*
X0139894Y0047250D01*
X0138993Y0047250D01*
X0138543Y0047700D01*
X0139444Y0048601D02*
X0139894Y0048601D01*
X0132650Y0047250D02*
X0132650Y0049952D01*
X0124444Y0040352D02*
X0124444Y0037650D01*
X0123543Y0037650D02*
X0125345Y0037650D01*
X0123543Y0039452D02*
X0124444Y0040352D01*
X0122398Y0039902D02*
X0122398Y0039452D01*
X0121948Y0039001D01*
X0122398Y0038551D01*
X0122398Y0038100D01*
X0121948Y0037650D01*
X0121047Y0037650D01*
X0120597Y0038100D01*
X0119452Y0037650D02*
X0118551Y0038551D01*
X0119001Y0038551D02*
X0117650Y0038551D01*
X0117650Y0037650D02*
X0117650Y0040352D01*
X0119001Y0040352D01*
X0119452Y0039902D01*
X0119452Y0039001D01*
X0119001Y0038551D01*
X0120597Y0039902D02*
X0121047Y0040352D01*
X0121948Y0040352D01*
X0122398Y0039902D01*
X0121948Y0039001D02*
X0121497Y0039001D01*
X0113145Y0039452D02*
X0113145Y0039902D01*
X0112694Y0040352D01*
X0111793Y0040352D01*
X0111343Y0039902D01*
X0110198Y0039902D02*
X0110198Y0039452D01*
X0109748Y0039001D01*
X0110198Y0038551D01*
X0110198Y0038100D01*
X0109748Y0037650D01*
X0108847Y0037650D01*
X0108397Y0038100D01*
X0107252Y0037650D02*
X0106351Y0038551D01*
X0106801Y0038551D02*
X0105450Y0038551D01*
X0105450Y0037650D02*
X0105450Y0040352D01*
X0106801Y0040352D01*
X0107252Y0039902D01*
X0107252Y0039001D01*
X0106801Y0038551D01*
X0108397Y0039902D02*
X0108847Y0040352D01*
X0109748Y0040352D01*
X0110198Y0039902D01*
X0109748Y0039001D02*
X0109297Y0039001D01*
X0111343Y0037650D02*
X0113145Y0039452D01*
X0113145Y0037650D02*
X0111343Y0037650D01*
X0148250Y0041200D02*
X0148700Y0040750D01*
X0149601Y0040750D01*
X0150052Y0041200D01*
X0151197Y0041200D02*
X0151647Y0040750D01*
X0152548Y0040750D01*
X0152998Y0041200D01*
X0152998Y0041651D01*
X0152548Y0042101D01*
X0152097Y0042101D01*
X0152548Y0042101D02*
X0152998Y0042552D01*
X0152998Y0043002D01*
X0152548Y0043452D01*
X0151647Y0043452D01*
X0151197Y0043002D01*
X0150052Y0043002D02*
X0149601Y0043452D01*
X0148700Y0043452D01*
X0148250Y0043002D01*
X0148250Y0041200D01*
X0154143Y0040750D02*
X0155945Y0040750D01*
X0155044Y0040750D02*
X0155044Y0043452D01*
X0154143Y0042552D01*
X0166850Y0042902D02*
X0166850Y0041100D01*
X0167300Y0040650D01*
X0168201Y0040650D01*
X0168652Y0041100D01*
X0169797Y0041100D02*
X0170247Y0040650D01*
X0171148Y0040650D01*
X0171598Y0041100D01*
X0171598Y0041551D01*
X0171148Y0042001D01*
X0170697Y0042001D01*
X0171148Y0042001D02*
X0171598Y0042452D01*
X0171598Y0042902D01*
X0171148Y0043352D01*
X0170247Y0043352D01*
X0169797Y0042902D01*
X0168652Y0042902D02*
X0168201Y0043352D01*
X0167300Y0043352D01*
X0166850Y0042902D01*
X0172743Y0042902D02*
X0173193Y0043352D01*
X0174094Y0043352D01*
X0174545Y0042902D01*
X0174545Y0042452D01*
X0174094Y0042001D01*
X0174545Y0041551D01*
X0174545Y0041100D01*
X0174094Y0040650D01*
X0173193Y0040650D01*
X0172743Y0041100D01*
X0173644Y0042001D02*
X0174094Y0042001D01*
X0179450Y0041352D02*
X0180801Y0041352D01*
X0181252Y0040902D01*
X0181252Y0040001D01*
X0180801Y0039551D01*
X0179450Y0039551D01*
X0180351Y0039551D02*
X0181252Y0038650D01*
X0182397Y0039100D02*
X0182847Y0038650D01*
X0183748Y0038650D01*
X0184198Y0039100D01*
X0184198Y0039551D01*
X0183748Y0040001D01*
X0183297Y0040001D01*
X0183748Y0040001D02*
X0184198Y0040452D01*
X0184198Y0040902D01*
X0183748Y0041352D01*
X0182847Y0041352D01*
X0182397Y0040902D01*
X0185343Y0040902D02*
X0185793Y0041352D01*
X0186694Y0041352D01*
X0187145Y0040902D01*
X0187145Y0040452D01*
X0186694Y0040001D01*
X0187145Y0039551D01*
X0187145Y0039100D01*
X0186694Y0038650D01*
X0185793Y0038650D01*
X0185343Y0039100D01*
X0186244Y0040001D02*
X0186694Y0040001D01*
X0179450Y0038650D02*
X0179450Y0041352D01*
X0156694Y0031552D02*
X0156694Y0028850D01*
X0157145Y0030201D02*
X0155343Y0030201D01*
X0156694Y0031552D01*
X0154198Y0031102D02*
X0154198Y0030652D01*
X0153748Y0030201D01*
X0154198Y0029751D01*
X0154198Y0029300D01*
X0153748Y0028850D01*
X0152847Y0028850D01*
X0152397Y0029300D01*
X0151252Y0029300D02*
X0150801Y0028850D01*
X0149900Y0028850D01*
X0149450Y0029300D01*
X0149450Y0031102D01*
X0149900Y0031552D01*
X0150801Y0031552D01*
X0151252Y0031102D01*
X0152397Y0031102D02*
X0152847Y0031552D01*
X0153748Y0031552D01*
X0154198Y0031102D01*
X0153748Y0030201D02*
X0153297Y0030201D01*
X0166750Y0120250D02*
X0166750Y0122952D01*
X0168101Y0122952D01*
X0168552Y0122502D01*
X0168552Y0121601D01*
X0168101Y0121151D01*
X0166750Y0121151D01*
X0167651Y0121151D02*
X0168552Y0120250D01*
X0169697Y0120250D02*
X0171498Y0122052D01*
X0171498Y0122502D01*
X0171048Y0122952D01*
X0170147Y0122952D01*
X0169697Y0122502D01*
X0169697Y0120250D02*
X0171498Y0120250D01*
X0172643Y0120250D02*
X0174445Y0120250D01*
X0173544Y0120250D02*
X0173544Y0122952D01*
X0172643Y0122052D01*
X0173697Y0128750D02*
X0175048Y0128750D01*
X0175498Y0129200D01*
X0175498Y0129651D01*
X0175048Y0130101D01*
X0173697Y0130101D01*
X0175048Y0130101D02*
X0175498Y0130552D01*
X0175498Y0131002D01*
X0175048Y0131452D01*
X0173697Y0131452D01*
X0173697Y0128750D01*
X0171651Y0130101D02*
X0170750Y0130101D01*
X0170750Y0128750D02*
X0170750Y0131452D01*
X0172552Y0131452D01*
X0176643Y0131002D02*
X0177093Y0131452D01*
X0177994Y0131452D01*
X0178445Y0131002D01*
X0178445Y0130552D01*
X0176643Y0128750D01*
X0178445Y0128750D01*
X0189250Y0124602D02*
X0189250Y0122800D01*
X0189700Y0122350D01*
X0190601Y0122350D01*
X0191052Y0122800D01*
X0192197Y0123701D02*
X0193998Y0123701D01*
X0193548Y0122350D02*
X0193548Y0125052D01*
X0192197Y0123701D01*
X0191052Y0124602D02*
X0190601Y0125052D01*
X0189700Y0125052D01*
X0189250Y0124602D01*
X0147498Y0124101D02*
X0147498Y0123200D01*
X0147048Y0122750D01*
X0146147Y0122750D01*
X0145697Y0123200D01*
X0145697Y0124101D02*
X0146597Y0124552D01*
X0147048Y0124552D01*
X0147498Y0124101D01*
X0147498Y0125452D02*
X0145697Y0125452D01*
X0145697Y0124101D01*
X0144552Y0123200D02*
X0144101Y0122750D01*
X0143200Y0122750D01*
X0142750Y0123200D01*
X0142750Y0125002D01*
X0143200Y0125452D01*
X0144101Y0125452D01*
X0144552Y0125002D01*
X0051250Y0124647D02*
X0050800Y0124197D01*
X0051250Y0124647D02*
X0051250Y0125548D01*
X0050800Y0125998D01*
X0050349Y0125998D01*
X0049899Y0125548D01*
X0049899Y0125097D01*
X0049899Y0125548D02*
X0049448Y0125998D01*
X0048998Y0125998D01*
X0048548Y0125548D01*
X0048548Y0124647D01*
X0048998Y0124197D01*
X0048998Y0123052D02*
X0048548Y0122601D01*
X0048548Y0121700D01*
X0048998Y0121250D01*
X0050800Y0121250D01*
X0051250Y0121700D01*
X0051250Y0122601D01*
X0050800Y0123052D01*
X0045250Y0122601D02*
X0044800Y0123052D01*
X0045250Y0122601D02*
X0045250Y0121700D01*
X0044800Y0121250D01*
X0042998Y0121250D01*
X0042548Y0121700D01*
X0042548Y0122601D01*
X0042998Y0123052D01*
X0042998Y0124197D02*
X0042548Y0124647D01*
X0042548Y0125548D01*
X0042998Y0125998D01*
X0043448Y0125998D01*
X0045250Y0124197D01*
X0045250Y0125998D01*
X0030545Y0121450D02*
X0028743Y0121450D01*
X0029644Y0121450D02*
X0029644Y0124152D01*
X0028743Y0123252D01*
X0027598Y0123252D02*
X0027148Y0122801D01*
X0025797Y0122801D01*
X0027148Y0122801D02*
X0027598Y0122351D01*
X0027598Y0121900D01*
X0027148Y0121450D01*
X0025797Y0121450D01*
X0025797Y0124152D01*
X0027148Y0124152D01*
X0027598Y0123702D01*
X0027598Y0123252D01*
X0024652Y0124152D02*
X0022850Y0124152D01*
X0022850Y0121450D01*
X0022850Y0122801D02*
X0023751Y0122801D01*
X0023601Y0127250D02*
X0024052Y0127700D01*
X0023601Y0127250D02*
X0022700Y0127250D01*
X0022250Y0127700D01*
X0022250Y0129502D01*
X0022700Y0129952D01*
X0023601Y0129952D01*
X0024052Y0129502D01*
X0025197Y0129052D02*
X0026097Y0129952D01*
X0026097Y0127250D01*
X0025197Y0127250D02*
X0026998Y0127250D01*
D12*
X0035400Y0124000D02*
X0035400Y0121000D01*
X0040600Y0121000D02*
X0040600Y0124000D01*
X0052900Y0124500D02*
X0052900Y0121500D01*
X0058100Y0121500D02*
X0058100Y0124500D01*
X0069600Y0130367D02*
X0070167Y0129800D01*
X0070734Y0129800D01*
X0071301Y0130367D01*
X0071301Y0133203D01*
X0070734Y0133203D02*
X0071869Y0133203D01*
X0073283Y0132069D02*
X0074417Y0133203D01*
X0074417Y0129800D01*
X0073283Y0129800D02*
X0075552Y0129800D01*
X0076966Y0129800D02*
X0079235Y0129800D01*
X0078101Y0129800D02*
X0078101Y0133203D01*
X0076966Y0132069D01*
X0080500Y0133500D02*
X0080500Y0127500D01*
X0080502Y0127440D01*
X0080507Y0127379D01*
X0080516Y0127320D01*
X0080529Y0127261D01*
X0080545Y0127202D01*
X0080565Y0127145D01*
X0080588Y0127090D01*
X0080615Y0127035D01*
X0080644Y0126983D01*
X0080677Y0126932D01*
X0080713Y0126883D01*
X0080751Y0126837D01*
X0080793Y0126793D01*
X0080837Y0126751D01*
X0080883Y0126713D01*
X0080932Y0126677D01*
X0080983Y0126644D01*
X0081035Y0126615D01*
X0081090Y0126588D01*
X0081145Y0126565D01*
X0081202Y0126545D01*
X0081261Y0126529D01*
X0081320Y0126516D01*
X0081379Y0126507D01*
X0081440Y0126502D01*
X0081500Y0126500D01*
X0098500Y0126500D01*
X0098560Y0126502D01*
X0098621Y0126507D01*
X0098680Y0126516D01*
X0098739Y0126529D01*
X0098798Y0126545D01*
X0098855Y0126565D01*
X0098910Y0126588D01*
X0098965Y0126615D01*
X0099017Y0126644D01*
X0099068Y0126677D01*
X0099117Y0126713D01*
X0099163Y0126751D01*
X0099207Y0126793D01*
X0099249Y0126837D01*
X0099287Y0126883D01*
X0099323Y0126932D01*
X0099356Y0126983D01*
X0099385Y0127035D01*
X0099412Y0127090D01*
X0099435Y0127145D01*
X0099455Y0127202D01*
X0099471Y0127261D01*
X0099484Y0127320D01*
X0099493Y0127379D01*
X0099498Y0127440D01*
X0099500Y0127500D01*
X0099500Y0133500D01*
X0099498Y0133560D01*
X0099493Y0133621D01*
X0099484Y0133680D01*
X0099471Y0133739D01*
X0099455Y0133798D01*
X0099435Y0133855D01*
X0099412Y0133910D01*
X0099385Y0133965D01*
X0099356Y0134017D01*
X0099323Y0134068D01*
X0099287Y0134117D01*
X0099249Y0134163D01*
X0099207Y0134207D01*
X0099163Y0134249D01*
X0099117Y0134287D01*
X0099068Y0134323D01*
X0099017Y0134356D01*
X0098965Y0134385D01*
X0098910Y0134412D01*
X0098855Y0134435D01*
X0098798Y0134455D01*
X0098739Y0134471D01*
X0098680Y0134484D01*
X0098621Y0134493D01*
X0098560Y0134498D01*
X0098500Y0134500D01*
X0081500Y0134500D01*
X0081440Y0134498D01*
X0081379Y0134493D01*
X0081320Y0134484D01*
X0081261Y0134471D01*
X0081202Y0134455D01*
X0081145Y0134435D01*
X0081090Y0134412D01*
X0081035Y0134385D01*
X0080983Y0134356D01*
X0080932Y0134323D01*
X0080883Y0134287D01*
X0080837Y0134249D01*
X0080793Y0134207D01*
X0080751Y0134163D01*
X0080713Y0134117D01*
X0080677Y0134068D01*
X0080644Y0134017D01*
X0080615Y0133965D01*
X0080588Y0133910D01*
X0080565Y0133855D01*
X0080545Y0133798D01*
X0080529Y0133739D01*
X0080516Y0133680D01*
X0080507Y0133621D01*
X0080502Y0133560D01*
X0080500Y0133500D01*
X0103300Y0127733D02*
X0105569Y0127733D01*
X0106983Y0127733D02*
X0109252Y0127733D01*
X0110666Y0128300D02*
X0112935Y0131703D01*
X0114349Y0131703D02*
X0115484Y0130569D01*
X0115484Y0129434D01*
X0114349Y0128300D01*
X0116805Y0127733D02*
X0119073Y0127733D01*
X0120488Y0127733D02*
X0122757Y0127733D01*
X0124171Y0128300D02*
X0126440Y0131703D01*
X0127854Y0131703D02*
X0128989Y0130569D01*
X0128989Y0129434D01*
X0127854Y0128300D01*
X0130310Y0127733D02*
X0132578Y0127733D01*
X0143500Y0126900D02*
X0146500Y0126900D01*
X0146500Y0132100D02*
X0143500Y0132100D01*
X0162750Y0131062D02*
X0165250Y0131062D01*
X0165250Y0127937D02*
X0162750Y0127937D01*
X0169250Y0118062D02*
X0171750Y0118062D01*
X0171750Y0114937D02*
X0169250Y0114937D01*
X0179800Y0116901D02*
X0182069Y0116901D01*
X0183483Y0116901D02*
X0184617Y0117469D01*
X0185185Y0117469D01*
X0185752Y0116901D01*
X0185752Y0115767D01*
X0185185Y0115200D01*
X0184050Y0115200D01*
X0183483Y0115767D01*
X0183483Y0116901D02*
X0183483Y0118603D01*
X0185752Y0118603D01*
X0187166Y0118603D02*
X0187166Y0116334D01*
X0188301Y0115200D01*
X0189435Y0116334D01*
X0189435Y0118603D01*
X0180934Y0118036D02*
X0180934Y0115767D01*
X0166280Y0105622D02*
X0165295Y0106606D01*
X0140689Y0106606D01*
X0138720Y0104638D01*
X0138720Y0080031D01*
X0139705Y0079047D01*
X0165295Y0079047D01*
X0166280Y0080031D01*
X0166280Y0105622D01*
X0185100Y0091703D02*
X0186801Y0091703D01*
X0187369Y0091136D01*
X0187369Y0090001D01*
X0186801Y0089434D01*
X0185100Y0089434D01*
X0185100Y0088300D02*
X0185100Y0091703D01*
X0186234Y0089434D02*
X0187369Y0088300D01*
X0186801Y0084103D02*
X0185667Y0084103D01*
X0185100Y0083536D01*
X0185100Y0081267D01*
X0185667Y0080700D01*
X0186801Y0080700D01*
X0187369Y0081267D01*
X0187369Y0082401D01*
X0186234Y0082401D01*
X0187369Y0083536D02*
X0186801Y0084103D01*
X0186801Y0076703D02*
X0185100Y0076703D01*
X0185100Y0073300D01*
X0186801Y0073300D01*
X0187369Y0073867D01*
X0187369Y0074434D01*
X0186801Y0075001D01*
X0185100Y0075001D01*
X0186801Y0075001D02*
X0187369Y0075569D01*
X0187369Y0076136D01*
X0186801Y0076703D01*
X0186866Y0066303D02*
X0188568Y0066303D01*
X0189135Y0065736D01*
X0189135Y0063467D01*
X0188568Y0062900D01*
X0186866Y0062900D01*
X0186866Y0066303D01*
X0185452Y0066303D02*
X0185452Y0062900D01*
X0183183Y0066303D01*
X0183183Y0062900D01*
X0181769Y0063467D02*
X0181769Y0064601D01*
X0180634Y0064601D01*
X0179500Y0063467D02*
X0180067Y0062900D01*
X0181201Y0062900D01*
X0181769Y0063467D01*
X0179500Y0063467D02*
X0179500Y0065736D01*
X0180067Y0066303D01*
X0181201Y0066303D01*
X0181769Y0065736D01*
X0182001Y0056303D02*
X0182001Y0052900D01*
X0180867Y0052900D02*
X0180867Y0056303D01*
X0180300Y0055169D02*
X0182001Y0055169D01*
X0182569Y0055169D01*
X0182569Y0054034D02*
X0180300Y0054034D01*
X0183983Y0053467D02*
X0183983Y0055736D01*
X0184550Y0056303D01*
X0185685Y0056303D01*
X0186252Y0055736D01*
X0187666Y0055736D02*
X0187666Y0055169D01*
X0188233Y0054601D01*
X0189368Y0054601D01*
X0189935Y0054034D01*
X0189935Y0053467D01*
X0189368Y0052900D01*
X0188233Y0052900D01*
X0187666Y0053467D01*
X0186252Y0053467D02*
X0185685Y0052900D01*
X0184550Y0052900D01*
X0183983Y0053467D01*
X0187666Y0055736D02*
X0188233Y0056303D01*
X0189368Y0056303D01*
X0189935Y0055736D01*
X0190301Y0048703D02*
X0188033Y0048703D01*
X0188033Y0047001D01*
X0189167Y0047569D01*
X0189734Y0047569D01*
X0190301Y0047001D01*
X0190301Y0045867D01*
X0189734Y0045300D01*
X0188600Y0045300D01*
X0188033Y0045867D01*
X0186618Y0048136D02*
X0184349Y0045867D01*
X0184349Y0045300D01*
X0182935Y0045867D02*
X0182935Y0046434D01*
X0182368Y0047001D01*
X0181233Y0047001D01*
X0180666Y0047569D01*
X0180666Y0048136D01*
X0181233Y0048703D01*
X0182368Y0048703D01*
X0182935Y0048136D01*
X0184349Y0048703D02*
X0186618Y0048703D01*
X0186618Y0048136D01*
X0182935Y0045867D02*
X0182368Y0045300D01*
X0181233Y0045300D01*
X0180666Y0045867D01*
X0179252Y0045867D02*
X0178685Y0045300D01*
X0177550Y0045300D01*
X0176983Y0045867D01*
X0176983Y0048136D01*
X0177550Y0048703D01*
X0178685Y0048703D01*
X0179252Y0048136D01*
X0175569Y0047569D02*
X0175001Y0047569D01*
X0173300Y0047569D01*
X0173300Y0046434D02*
X0175569Y0046434D01*
X0175001Y0045300D02*
X0175001Y0048703D01*
X0173867Y0048703D02*
X0173867Y0045300D01*
X0175000Y0032500D02*
X0175000Y0027500D01*
X0177467Y0024903D02*
X0177467Y0021500D01*
X0178601Y0021500D02*
X0178601Y0024903D01*
X0178601Y0023769D02*
X0179169Y0023769D01*
X0178601Y0023769D02*
X0176900Y0023769D01*
X0176900Y0022634D02*
X0179169Y0022634D01*
X0180583Y0022634D02*
X0182285Y0022634D01*
X0182852Y0023201D01*
X0182852Y0024336D01*
X0182285Y0024903D01*
X0180583Y0024903D01*
X0180583Y0021500D01*
X0181717Y0022634D02*
X0182852Y0021500D01*
X0184266Y0022067D02*
X0184833Y0021500D01*
X0185968Y0021500D01*
X0186535Y0022067D01*
X0186535Y0022634D01*
X0185968Y0023201D01*
X0184833Y0023201D01*
X0184266Y0023769D01*
X0184266Y0024336D01*
X0184833Y0024903D01*
X0185968Y0024903D01*
X0186535Y0024336D01*
X0187949Y0024903D02*
X0190218Y0024903D01*
X0189084Y0024903D02*
X0189084Y0021500D01*
X0187949Y0018903D02*
X0187949Y0015500D01*
X0190218Y0015500D01*
X0186535Y0015500D02*
X0185401Y0016634D01*
X0185968Y0016634D02*
X0184266Y0016634D01*
X0184266Y0015500D02*
X0184266Y0018903D01*
X0185968Y0018903D01*
X0186535Y0018336D01*
X0186535Y0017201D01*
X0185968Y0016634D01*
X0182852Y0018903D02*
X0180583Y0018903D01*
X0181717Y0018903D02*
X0181717Y0015500D01*
X0179169Y0016067D02*
X0178601Y0015500D01*
X0177467Y0015500D01*
X0176900Y0016067D01*
X0176900Y0018336D01*
X0177467Y0018903D01*
X0178601Y0018903D01*
X0179169Y0018336D01*
X0165000Y0027500D02*
X0165000Y0032500D01*
X0155000Y0027125D02*
X0150000Y0027125D01*
X0150000Y0020875D02*
X0155000Y0020875D01*
X0138937Y0029539D02*
X0138937Y0031131D01*
X0131063Y0031131D01*
X0131063Y0034461D01*
X0138937Y0034461D01*
X0138937Y0031131D01*
X0138937Y0029539D02*
X0131063Y0029539D01*
X0131063Y0031131D01*
X0129885Y0027503D02*
X0128750Y0027503D01*
X0128183Y0026936D01*
X0126769Y0027503D02*
X0126769Y0024667D01*
X0126201Y0024100D01*
X0125067Y0024100D01*
X0124500Y0024667D01*
X0124500Y0027503D01*
X0128183Y0024667D02*
X0128750Y0024100D01*
X0129885Y0024100D01*
X0130452Y0024667D01*
X0130452Y0025234D01*
X0129885Y0025801D01*
X0129317Y0025801D01*
X0129885Y0025801D02*
X0130452Y0026369D01*
X0130452Y0026936D01*
X0129885Y0027503D01*
X0122250Y0032437D02*
X0119750Y0032437D01*
X0119750Y0035563D02*
X0122250Y0035563D01*
X0110250Y0035563D02*
X0107750Y0035563D01*
X0107750Y0032437D02*
X0110250Y0032437D01*
X0099500Y0032667D02*
X0099500Y0033234D01*
X0098933Y0033801D01*
X0096097Y0033801D01*
X0096097Y0033234D02*
X0096097Y0034369D01*
X0097231Y0035783D02*
X0096097Y0036917D01*
X0099500Y0036917D01*
X0099500Y0035783D02*
X0099500Y0038052D01*
X0099500Y0039466D02*
X0097231Y0041735D01*
X0096664Y0041735D01*
X0096097Y0041168D01*
X0096097Y0040033D01*
X0096664Y0039466D01*
X0099500Y0039466D02*
X0099500Y0041735D01*
X0094500Y0042600D02*
X0094500Y0025600D01*
X0094498Y0025540D01*
X0094493Y0025479D01*
X0094484Y0025420D01*
X0094471Y0025361D01*
X0094455Y0025302D01*
X0094435Y0025245D01*
X0094412Y0025190D01*
X0094385Y0025135D01*
X0094356Y0025083D01*
X0094323Y0025032D01*
X0094287Y0024983D01*
X0094249Y0024937D01*
X0094207Y0024893D01*
X0094163Y0024851D01*
X0094117Y0024813D01*
X0094068Y0024777D01*
X0094017Y0024744D01*
X0093965Y0024715D01*
X0093910Y0024688D01*
X0093855Y0024665D01*
X0093798Y0024645D01*
X0093739Y0024629D01*
X0093680Y0024616D01*
X0093621Y0024607D01*
X0093560Y0024602D01*
X0093500Y0024600D01*
X0087500Y0024600D01*
X0087440Y0024602D01*
X0087379Y0024607D01*
X0087320Y0024616D01*
X0087261Y0024629D01*
X0087202Y0024645D01*
X0087145Y0024665D01*
X0087090Y0024688D01*
X0087035Y0024715D01*
X0086983Y0024744D01*
X0086932Y0024777D01*
X0086883Y0024813D01*
X0086837Y0024851D01*
X0086793Y0024893D01*
X0086751Y0024937D01*
X0086713Y0024983D01*
X0086677Y0025032D01*
X0086644Y0025083D01*
X0086615Y0025135D01*
X0086588Y0025190D01*
X0086565Y0025245D01*
X0086545Y0025302D01*
X0086529Y0025361D01*
X0086516Y0025420D01*
X0086507Y0025479D01*
X0086502Y0025540D01*
X0086500Y0025600D01*
X0086500Y0042600D01*
X0086502Y0042660D01*
X0086507Y0042721D01*
X0086516Y0042780D01*
X0086529Y0042839D01*
X0086545Y0042898D01*
X0086565Y0042955D01*
X0086588Y0043010D01*
X0086615Y0043065D01*
X0086644Y0043117D01*
X0086677Y0043168D01*
X0086713Y0043217D01*
X0086751Y0043263D01*
X0086793Y0043307D01*
X0086837Y0043349D01*
X0086883Y0043387D01*
X0086932Y0043423D01*
X0086983Y0043456D01*
X0087035Y0043485D01*
X0087090Y0043512D01*
X0087145Y0043535D01*
X0087202Y0043555D01*
X0087261Y0043571D01*
X0087320Y0043584D01*
X0087379Y0043593D01*
X0087440Y0043598D01*
X0087500Y0043600D01*
X0093500Y0043600D01*
X0093560Y0043598D01*
X0093621Y0043593D01*
X0093680Y0043584D01*
X0093739Y0043571D01*
X0093798Y0043555D01*
X0093855Y0043535D01*
X0093910Y0043512D01*
X0093965Y0043485D01*
X0094017Y0043456D01*
X0094068Y0043423D01*
X0094117Y0043387D01*
X0094163Y0043349D01*
X0094207Y0043307D01*
X0094249Y0043263D01*
X0094287Y0043217D01*
X0094323Y0043168D01*
X0094356Y0043117D01*
X0094385Y0043065D01*
X0094412Y0043010D01*
X0094435Y0042955D01*
X0094455Y0042898D01*
X0094471Y0042839D01*
X0094484Y0042780D01*
X0094493Y0042721D01*
X0094498Y0042660D01*
X0094500Y0042600D01*
X0099500Y0032667D02*
X0098933Y0032100D01*
X0134750Y0041938D02*
X0137250Y0041938D01*
X0137250Y0045062D02*
X0134750Y0045062D01*
X0150500Y0039100D02*
X0153500Y0039100D01*
X0153500Y0033900D02*
X0150500Y0033900D01*
X0180937Y0033250D02*
X0180937Y0030750D01*
X0184062Y0030750D02*
X0184062Y0033250D01*
X0144335Y0058100D02*
X0142066Y0058100D01*
X0143201Y0058100D02*
X0143201Y0061503D01*
X0142066Y0060369D01*
X0140652Y0060369D02*
X0140652Y0060936D01*
X0140085Y0061503D01*
X0138950Y0061503D01*
X0138383Y0060936D01*
X0136969Y0061503D02*
X0135834Y0061503D01*
X0136401Y0061503D02*
X0136401Y0058667D01*
X0135834Y0058100D01*
X0135267Y0058100D01*
X0134700Y0058667D01*
X0138383Y0058100D02*
X0140652Y0060369D01*
X0140652Y0058100D02*
X0138383Y0058100D01*
X0135000Y0063000D02*
X0146000Y0063000D01*
X0146060Y0063002D01*
X0146121Y0063007D01*
X0146180Y0063016D01*
X0146239Y0063029D01*
X0146298Y0063045D01*
X0146355Y0063065D01*
X0146410Y0063088D01*
X0146465Y0063115D01*
X0146517Y0063144D01*
X0146568Y0063177D01*
X0146617Y0063213D01*
X0146663Y0063251D01*
X0146707Y0063293D01*
X0146749Y0063337D01*
X0146787Y0063383D01*
X0146823Y0063432D01*
X0146856Y0063483D01*
X0146885Y0063535D01*
X0146912Y0063590D01*
X0146935Y0063645D01*
X0146955Y0063702D01*
X0146971Y0063761D01*
X0146984Y0063820D01*
X0146993Y0063879D01*
X0146998Y0063940D01*
X0147000Y0064000D01*
X0147000Y0070000D01*
X0146998Y0070060D01*
X0146993Y0070121D01*
X0146984Y0070180D01*
X0146971Y0070239D01*
X0146955Y0070298D01*
X0146935Y0070355D01*
X0146912Y0070410D01*
X0146885Y0070465D01*
X0146856Y0070517D01*
X0146823Y0070568D01*
X0146787Y0070617D01*
X0146749Y0070663D01*
X0146707Y0070707D01*
X0146663Y0070749D01*
X0146617Y0070787D01*
X0146568Y0070823D01*
X0146517Y0070856D01*
X0146465Y0070885D01*
X0146410Y0070912D01*
X0146355Y0070935D01*
X0146298Y0070955D01*
X0146239Y0070971D01*
X0146180Y0070984D01*
X0146121Y0070993D01*
X0146060Y0070998D01*
X0146000Y0071000D01*
X0135000Y0071000D01*
X0134940Y0070998D01*
X0134879Y0070993D01*
X0134820Y0070984D01*
X0134761Y0070971D01*
X0134702Y0070955D01*
X0134645Y0070935D01*
X0134590Y0070912D01*
X0134535Y0070885D01*
X0134483Y0070856D01*
X0134432Y0070823D01*
X0134383Y0070787D01*
X0134337Y0070749D01*
X0134293Y0070707D01*
X0134251Y0070663D01*
X0134213Y0070617D01*
X0134177Y0070568D01*
X0134144Y0070517D01*
X0134115Y0070465D01*
X0134088Y0070410D01*
X0134065Y0070355D01*
X0134045Y0070298D01*
X0134029Y0070239D01*
X0134016Y0070180D01*
X0134007Y0070121D01*
X0134002Y0070060D01*
X0134000Y0070000D01*
X0134000Y0064000D01*
X0134002Y0063940D01*
X0134007Y0063879D01*
X0134016Y0063820D01*
X0134029Y0063761D01*
X0134045Y0063702D01*
X0134065Y0063645D01*
X0134088Y0063590D01*
X0134115Y0063535D01*
X0134144Y0063483D01*
X0134177Y0063432D01*
X0134213Y0063383D01*
X0134251Y0063337D01*
X0134293Y0063293D01*
X0134337Y0063251D01*
X0134383Y0063213D01*
X0134432Y0063177D01*
X0134483Y0063144D01*
X0134535Y0063115D01*
X0134590Y0063088D01*
X0134645Y0063065D01*
X0134702Y0063045D01*
X0134761Y0063029D01*
X0134820Y0063016D01*
X0134879Y0063007D01*
X0134940Y0063002D01*
X0135000Y0063000D01*
X0190500Y0099067D02*
X0190500Y0101336D01*
X0191067Y0101903D01*
X0192201Y0101903D01*
X0192769Y0101336D01*
X0192769Y0100201D02*
X0191634Y0100201D01*
X0192769Y0100201D02*
X0192769Y0099067D01*
X0192201Y0098500D01*
X0191067Y0098500D01*
X0190500Y0099067D01*
X0194183Y0098500D02*
X0194183Y0101903D01*
X0196452Y0098500D01*
X0196452Y0101903D01*
X0197866Y0101903D02*
X0199568Y0101903D01*
X0200135Y0101336D01*
X0200135Y0099067D01*
X0199568Y0098500D01*
X0197866Y0098500D01*
X0197866Y0101903D01*
X0192500Y0126900D02*
X0189500Y0126900D01*
X0189500Y0132100D02*
X0192500Y0132100D01*
X0140689Y0103654D02*
X0140691Y0103716D01*
X0140697Y0103779D01*
X0140707Y0103840D01*
X0140721Y0103901D01*
X0140738Y0103961D01*
X0140759Y0104020D01*
X0140785Y0104077D01*
X0140813Y0104132D01*
X0140845Y0104186D01*
X0140881Y0104237D01*
X0140919Y0104287D01*
X0140961Y0104333D01*
X0141005Y0104377D01*
X0141053Y0104418D01*
X0141102Y0104456D01*
X0141154Y0104490D01*
X0141208Y0104521D01*
X0141264Y0104549D01*
X0141322Y0104573D01*
X0141381Y0104594D01*
X0141441Y0104610D01*
X0141502Y0104623D01*
X0141564Y0104632D01*
X0141626Y0104637D01*
X0141689Y0104638D01*
X0141751Y0104635D01*
X0141813Y0104628D01*
X0141875Y0104617D01*
X0141935Y0104602D01*
X0141995Y0104584D01*
X0142053Y0104562D01*
X0142110Y0104536D01*
X0142165Y0104506D01*
X0142218Y0104473D01*
X0142269Y0104437D01*
X0142317Y0104398D01*
X0142363Y0104355D01*
X0142406Y0104310D01*
X0142446Y0104262D01*
X0142483Y0104212D01*
X0142517Y0104159D01*
X0142548Y0104105D01*
X0142574Y0104049D01*
X0142598Y0103991D01*
X0142617Y0103931D01*
X0142633Y0103871D01*
X0142645Y0103809D01*
X0142653Y0103748D01*
X0142657Y0103685D01*
X0142657Y0103623D01*
X0142653Y0103560D01*
X0142645Y0103499D01*
X0142633Y0103437D01*
X0142617Y0103377D01*
X0142598Y0103317D01*
X0142574Y0103259D01*
X0142548Y0103203D01*
X0142517Y0103149D01*
X0142483Y0103096D01*
X0142446Y0103046D01*
X0142406Y0102998D01*
X0142363Y0102953D01*
X0142317Y0102910D01*
X0142269Y0102871D01*
X0142218Y0102835D01*
X0142165Y0102802D01*
X0142110Y0102772D01*
X0142053Y0102746D01*
X0141995Y0102724D01*
X0141935Y0102706D01*
X0141875Y0102691D01*
X0141813Y0102680D01*
X0141751Y0102673D01*
X0141689Y0102670D01*
X0141626Y0102671D01*
X0141564Y0102676D01*
X0141502Y0102685D01*
X0141441Y0102698D01*
X0141381Y0102714D01*
X0141322Y0102735D01*
X0141264Y0102759D01*
X0141208Y0102787D01*
X0141154Y0102818D01*
X0141102Y0102852D01*
X0141053Y0102890D01*
X0141005Y0102931D01*
X0140961Y0102975D01*
X0140919Y0103021D01*
X0140881Y0103071D01*
X0140845Y0103122D01*
X0140813Y0103176D01*
X0140785Y0103231D01*
X0140759Y0103288D01*
X0140738Y0103347D01*
X0140721Y0103407D01*
X0140707Y0103468D01*
X0140697Y0103529D01*
X0140691Y0103592D01*
X0140689Y0103654D01*
X0135352Y0111000D02*
X0133083Y0111000D01*
X0135352Y0113269D01*
X0135352Y0113836D01*
X0134785Y0114403D01*
X0133650Y0114403D01*
X0133083Y0113836D01*
X0131669Y0114403D02*
X0131669Y0111567D01*
X0131101Y0111000D01*
X0129967Y0111000D01*
X0129400Y0111567D01*
X0129400Y0114403D01*
X0053352Y0104600D02*
X0051083Y0104600D01*
X0052217Y0104600D02*
X0052217Y0108003D01*
X0051083Y0106869D01*
X0049669Y0108003D02*
X0049669Y0105167D01*
X0049101Y0104600D01*
X0047967Y0104600D01*
X0047400Y0105167D01*
X0047400Y0108003D01*
X0034500Y0109000D02*
X0020000Y0109000D01*
X0015000Y0114000D01*
X0017000Y0113000D01*
X0016000Y0112000D02*
X0015000Y0114000D01*
X0019300Y0111501D02*
X0021569Y0111501D01*
X0020434Y0110367D02*
X0020434Y0112636D01*
X0022983Y0112636D02*
X0023550Y0113203D01*
X0024685Y0113203D01*
X0025252Y0112636D01*
X0025252Y0112069D01*
X0024685Y0111501D01*
X0025252Y0110934D01*
X0025252Y0110367D01*
X0024685Y0109800D01*
X0023550Y0109800D01*
X0022983Y0110367D01*
X0024117Y0111501D02*
X0024685Y0111501D01*
X0026666Y0110367D02*
X0026666Y0109800D01*
X0027233Y0109800D01*
X0027233Y0110367D01*
X0026666Y0110367D01*
X0028508Y0110367D02*
X0029075Y0109800D01*
X0030209Y0109800D01*
X0030776Y0110367D01*
X0030776Y0110934D01*
X0030209Y0111501D01*
X0029642Y0111501D01*
X0030209Y0111501D02*
X0030776Y0112069D01*
X0030776Y0112636D01*
X0030209Y0113203D01*
X0029075Y0113203D01*
X0028508Y0112636D01*
X0027250Y0115437D02*
X0024750Y0115437D01*
X0024750Y0118562D02*
X0027250Y0118562D01*
X0032191Y0113203D02*
X0032191Y0110934D01*
X0033325Y0109800D01*
X0034460Y0110934D01*
X0034460Y0113203D01*
X0024868Y0103703D02*
X0023166Y0103703D01*
X0023166Y0100300D01*
X0024868Y0100300D01*
X0025435Y0100867D01*
X0025435Y0103136D01*
X0024868Y0103703D01*
X0021752Y0103703D02*
X0021752Y0100300D01*
X0019483Y0103703D01*
X0019483Y0100300D01*
X0018069Y0100867D02*
X0018069Y0102001D01*
X0016934Y0102001D01*
X0015800Y0100867D02*
X0016367Y0100300D01*
X0017501Y0100300D01*
X0018069Y0100867D01*
X0018069Y0103136D02*
X0017501Y0103703D01*
X0016367Y0103703D01*
X0015800Y0103136D01*
X0015800Y0100867D01*
X0011500Y0089500D02*
X0012000Y0089000D01*
X0012000Y0075500D01*
X0013000Y0074500D01*
X0012000Y0073500D01*
X0012000Y0055000D01*
X0011500Y0054500D01*
X0010500Y0054500D01*
X0016700Y0050936D02*
X0016700Y0048667D01*
X0017267Y0048100D01*
X0018401Y0048100D01*
X0018969Y0048667D01*
X0018969Y0049801D01*
X0017834Y0049801D01*
X0016700Y0050936D02*
X0017267Y0051503D01*
X0018401Y0051503D01*
X0018969Y0050936D01*
X0020383Y0051503D02*
X0022652Y0048100D01*
X0022652Y0051503D01*
X0024066Y0051503D02*
X0025768Y0051503D01*
X0026335Y0050936D01*
X0026335Y0048667D01*
X0025768Y0048100D01*
X0024066Y0048100D01*
X0024066Y0051503D01*
X0020383Y0051503D02*
X0020383Y0048100D01*
X0019085Y0040703D02*
X0017950Y0040703D01*
X0017383Y0040136D01*
X0015969Y0040703D02*
X0014834Y0040703D01*
X0015401Y0040703D02*
X0015401Y0037867D01*
X0014834Y0037300D01*
X0014267Y0037300D01*
X0013700Y0037867D01*
X0017383Y0037867D02*
X0017950Y0037300D01*
X0019085Y0037300D01*
X0019652Y0037867D01*
X0019652Y0038434D01*
X0019085Y0039001D01*
X0018517Y0039001D01*
X0019085Y0039001D02*
X0019652Y0039569D01*
X0019652Y0040136D01*
X0019085Y0040703D01*
X0011500Y0089500D02*
X0010500Y0089500D01*
X0012000Y0125900D02*
X0015000Y0125900D01*
X0015000Y0131100D02*
X0012000Y0131100D01*
D13*
X0083500Y0123800D02*
X0083502Y0123844D01*
X0083508Y0123888D01*
X0083518Y0123931D01*
X0083531Y0123973D01*
X0083548Y0124014D01*
X0083569Y0124053D01*
X0083593Y0124090D01*
X0083620Y0124125D01*
X0083650Y0124157D01*
X0083683Y0124187D01*
X0083719Y0124213D01*
X0083756Y0124237D01*
X0083796Y0124256D01*
X0083837Y0124273D01*
X0083880Y0124285D01*
X0083923Y0124294D01*
X0083967Y0124299D01*
X0084011Y0124300D01*
X0084055Y0124297D01*
X0084099Y0124290D01*
X0084142Y0124279D01*
X0084184Y0124265D01*
X0084224Y0124247D01*
X0084263Y0124225D01*
X0084299Y0124201D01*
X0084333Y0124173D01*
X0084365Y0124142D01*
X0084394Y0124108D01*
X0084420Y0124072D01*
X0084442Y0124034D01*
X0084461Y0123994D01*
X0084476Y0123952D01*
X0084488Y0123910D01*
X0084496Y0123866D01*
X0084500Y0123822D01*
X0084500Y0123778D01*
X0084496Y0123734D01*
X0084488Y0123690D01*
X0084476Y0123648D01*
X0084461Y0123606D01*
X0084442Y0123566D01*
X0084420Y0123528D01*
X0084394Y0123492D01*
X0084365Y0123458D01*
X0084333Y0123427D01*
X0084299Y0123399D01*
X0084263Y0123375D01*
X0084224Y0123353D01*
X0084184Y0123335D01*
X0084142Y0123321D01*
X0084099Y0123310D01*
X0084055Y0123303D01*
X0084011Y0123300D01*
X0083967Y0123301D01*
X0083923Y0123306D01*
X0083880Y0123315D01*
X0083837Y0123327D01*
X0083796Y0123344D01*
X0083756Y0123363D01*
X0083719Y0123387D01*
X0083683Y0123413D01*
X0083650Y0123443D01*
X0083620Y0123475D01*
X0083593Y0123510D01*
X0083569Y0123547D01*
X0083548Y0123586D01*
X0083531Y0123627D01*
X0083518Y0123669D01*
X0083508Y0123712D01*
X0083502Y0123756D01*
X0083500Y0123800D01*
X0097200Y0028000D02*
X0097202Y0028044D01*
X0097208Y0028088D01*
X0097218Y0028131D01*
X0097231Y0028173D01*
X0097248Y0028214D01*
X0097269Y0028253D01*
X0097293Y0028290D01*
X0097320Y0028325D01*
X0097350Y0028357D01*
X0097383Y0028387D01*
X0097419Y0028413D01*
X0097456Y0028437D01*
X0097496Y0028456D01*
X0097537Y0028473D01*
X0097580Y0028485D01*
X0097623Y0028494D01*
X0097667Y0028499D01*
X0097711Y0028500D01*
X0097755Y0028497D01*
X0097799Y0028490D01*
X0097842Y0028479D01*
X0097884Y0028465D01*
X0097924Y0028447D01*
X0097963Y0028425D01*
X0097999Y0028401D01*
X0098033Y0028373D01*
X0098065Y0028342D01*
X0098094Y0028308D01*
X0098120Y0028272D01*
X0098142Y0028234D01*
X0098161Y0028194D01*
X0098176Y0028152D01*
X0098188Y0028110D01*
X0098196Y0028066D01*
X0098200Y0028022D01*
X0098200Y0027978D01*
X0098196Y0027934D01*
X0098188Y0027890D01*
X0098176Y0027848D01*
X0098161Y0027806D01*
X0098142Y0027766D01*
X0098120Y0027728D01*
X0098094Y0027692D01*
X0098065Y0027658D01*
X0098033Y0027627D01*
X0097999Y0027599D01*
X0097963Y0027575D01*
X0097924Y0027553D01*
X0097884Y0027535D01*
X0097842Y0027521D01*
X0097799Y0027510D01*
X0097755Y0027503D01*
X0097711Y0027500D01*
X0097667Y0027501D01*
X0097623Y0027506D01*
X0097580Y0027515D01*
X0097537Y0027527D01*
X0097496Y0027544D01*
X0097456Y0027563D01*
X0097419Y0027587D01*
X0097383Y0027613D01*
X0097350Y0027643D01*
X0097320Y0027675D01*
X0097293Y0027710D01*
X0097269Y0027747D01*
X0097248Y0027786D01*
X0097231Y0027827D01*
X0097218Y0027869D01*
X0097208Y0027912D01*
X0097202Y0027956D01*
X0097200Y0028000D01*
D14*
X0098200Y0019904D02*
X0101403Y0015100D01*
X0101403Y0019904D01*
X0098200Y0019904D02*
X0098200Y0015100D01*
X0103356Y0015901D02*
X0103356Y0017502D01*
X0105758Y0017502D01*
X0106559Y0016701D01*
X0106559Y0015901D01*
X0105758Y0015100D01*
X0104157Y0015100D01*
X0103356Y0015901D01*
X0103356Y0017502D02*
X0104958Y0019103D01*
X0106559Y0019904D01*
X0108513Y0017502D02*
X0111716Y0017502D01*
X0113669Y0016701D02*
X0116071Y0016701D01*
X0116872Y0017502D01*
X0116872Y0019103D01*
X0116071Y0019904D01*
X0113669Y0019904D01*
X0113669Y0015100D01*
X0115271Y0016701D02*
X0116872Y0015100D01*
X0118826Y0015901D02*
X0119626Y0015100D01*
X0121228Y0015100D01*
X0122028Y0015901D01*
X0122028Y0017502D01*
X0120427Y0017502D01*
X0122028Y0019103D02*
X0121228Y0019904D01*
X0119626Y0019904D01*
X0118826Y0019103D01*
X0118826Y0015901D01*
X0123982Y0015100D02*
X0126384Y0015100D01*
X0127185Y0015901D01*
X0127185Y0016701D01*
X0126384Y0017502D01*
X0123982Y0017502D01*
X0126384Y0017502D02*
X0127185Y0018303D01*
X0127185Y0019103D01*
X0126384Y0019904D01*
X0123982Y0019904D01*
X0123982Y0015100D01*
X0129138Y0018303D02*
X0130740Y0015100D01*
X0132341Y0018303D01*
X0134295Y0019103D02*
X0135095Y0019904D01*
X0136697Y0019904D01*
X0137498Y0019103D01*
X0137498Y0018303D01*
X0134295Y0015100D01*
X0137498Y0015100D01*
X0110915Y0015100D02*
X0110915Y0019904D01*
X0108513Y0017502D01*
X0084370Y0012965D02*
X0068378Y0012965D01*
X0068378Y0014146D01*
X0062555Y0014146D01*
X0062555Y0012965D01*
X0052413Y0012965D01*
X0037587Y0012965D01*
X0005630Y0012965D01*
X0005630Y0046035D01*
X0084370Y0046035D01*
X0084370Y0012965D01*
X0079941Y0016606D02*
X0052413Y0016606D01*
X0052413Y0019067D02*
X0052413Y0012965D01*
X0052413Y0019067D02*
X0037587Y0019067D01*
X0037587Y0012965D01*
X0037587Y0016606D02*
X0010059Y0016606D01*
X0010059Y0042394D01*
X0079941Y0042394D01*
X0079941Y0016606D01*
D15*
X0149518Y0052781D02*
X0149518Y0064698D01*
X0152491Y0063485D01*
X0155085Y0064532D01*
X0156476Y0061713D01*
X0156476Y0055742D01*
X0152491Y0063485D01*
X0152254Y0065590D02*
X0149518Y0064698D01*
X0152254Y0065590D02*
X0155085Y0064532D01*
X0155156Y0064389D02*
X0156738Y0067279D01*
X0159485Y0068243D01*
X0162269Y0067291D01*
X0159592Y0066233D01*
X0156738Y0067279D01*
X0159592Y0066233D02*
X0157202Y0062129D01*
X0159592Y0063093D01*
X0162697Y0061820D01*
X0166717Y0056123D01*
X0166717Y0063462D01*
X0169726Y0064698D01*
X0169726Y0052781D01*
X0166871Y0051603D01*
X0162589Y0057134D01*
X0162589Y0054042D01*
X0162589Y0049855D01*
X0159628Y0048630D01*
X0156679Y0049843D01*
X0152361Y0057693D01*
X0152361Y0051615D01*
X0149518Y0052781D01*
X0152361Y0051615D02*
X0155085Y0052733D01*
X0152361Y0057693D01*
X0156476Y0061713D02*
X0156476Y0061844D01*
X0159628Y0060559D01*
X0159628Y0048630D01*
X0163565Y0052745D02*
X0166871Y0051603D01*
X0163565Y0052745D02*
X0162589Y0054042D01*
X0159628Y0060559D02*
X0162697Y0061820D01*
X0161709Y0062225D01*
X0159592Y0063093D01*
X0156476Y0061844D01*
X0157202Y0062129D01*
X0156476Y0061713D02*
X0155156Y0064389D01*
X0161709Y0062225D02*
X0163933Y0064520D01*
X0166717Y0063462D01*
X0166871Y0065733D02*
X0163933Y0064520D01*
X0162269Y0062807D02*
X0162269Y0067291D01*
X0166871Y0065733D02*
X0169726Y0064698D01*
D16*
X0037953Y0068102D02*
X0032047Y0068102D01*
X0032047Y0070898D02*
X0037953Y0070898D01*
X0037953Y0083102D02*
X0032047Y0083102D01*
X0032047Y0085898D02*
X0037953Y0085898D01*
X0037953Y0098102D02*
X0032047Y0098102D01*
X0032047Y0055898D02*
X0037953Y0055898D01*
D17*
X0062441Y0055425D02*
X0062441Y0106606D01*
X0065394Y0109559D01*
X0116575Y0109559D01*
X0117559Y0108575D01*
X0117559Y0055425D01*
X0116575Y0054441D01*
X0063425Y0054441D01*
X0062441Y0055425D01*
X0065394Y0105622D02*
X0065396Y0105684D01*
X0065402Y0105747D01*
X0065412Y0105808D01*
X0065426Y0105869D01*
X0065443Y0105929D01*
X0065464Y0105988D01*
X0065490Y0106045D01*
X0065518Y0106100D01*
X0065550Y0106154D01*
X0065586Y0106205D01*
X0065624Y0106255D01*
X0065666Y0106301D01*
X0065710Y0106345D01*
X0065758Y0106386D01*
X0065807Y0106424D01*
X0065859Y0106458D01*
X0065913Y0106489D01*
X0065969Y0106517D01*
X0066027Y0106541D01*
X0066086Y0106562D01*
X0066146Y0106578D01*
X0066207Y0106591D01*
X0066269Y0106600D01*
X0066331Y0106605D01*
X0066394Y0106606D01*
X0066456Y0106603D01*
X0066518Y0106596D01*
X0066580Y0106585D01*
X0066640Y0106570D01*
X0066700Y0106552D01*
X0066758Y0106530D01*
X0066815Y0106504D01*
X0066870Y0106474D01*
X0066923Y0106441D01*
X0066974Y0106405D01*
X0067022Y0106366D01*
X0067068Y0106323D01*
X0067111Y0106278D01*
X0067151Y0106230D01*
X0067188Y0106180D01*
X0067222Y0106127D01*
X0067253Y0106073D01*
X0067279Y0106017D01*
X0067303Y0105959D01*
X0067322Y0105899D01*
X0067338Y0105839D01*
X0067350Y0105777D01*
X0067358Y0105716D01*
X0067362Y0105653D01*
X0067362Y0105591D01*
X0067358Y0105528D01*
X0067350Y0105467D01*
X0067338Y0105405D01*
X0067322Y0105345D01*
X0067303Y0105285D01*
X0067279Y0105227D01*
X0067253Y0105171D01*
X0067222Y0105117D01*
X0067188Y0105064D01*
X0067151Y0105014D01*
X0067111Y0104966D01*
X0067068Y0104921D01*
X0067022Y0104878D01*
X0066974Y0104839D01*
X0066923Y0104803D01*
X0066870Y0104770D01*
X0066815Y0104740D01*
X0066758Y0104714D01*
X0066700Y0104692D01*
X0066640Y0104674D01*
X0066580Y0104659D01*
X0066518Y0104648D01*
X0066456Y0104641D01*
X0066394Y0104638D01*
X0066331Y0104639D01*
X0066269Y0104644D01*
X0066207Y0104653D01*
X0066146Y0104666D01*
X0066086Y0104682D01*
X0066027Y0104703D01*
X0065969Y0104727D01*
X0065913Y0104755D01*
X0065859Y0104786D01*
X0065807Y0104820D01*
X0065758Y0104858D01*
X0065710Y0104899D01*
X0065666Y0104943D01*
X0065624Y0104989D01*
X0065586Y0105039D01*
X0065550Y0105090D01*
X0065518Y0105144D01*
X0065490Y0105199D01*
X0065464Y0105256D01*
X0065443Y0105315D01*
X0065426Y0105375D01*
X0065412Y0105436D01*
X0065402Y0105497D01*
X0065396Y0105560D01*
X0065394Y0105622D01*
D18*
X0079087Y0075288D02*
X0081022Y0075288D01*
X0080054Y0075288D02*
X0080054Y0072386D01*
X0082034Y0072870D02*
X0082517Y0072386D01*
X0083485Y0072386D01*
X0083969Y0072870D01*
X0083969Y0074805D01*
X0083485Y0075288D01*
X0082517Y0075288D01*
X0082034Y0074805D01*
X0082034Y0072870D01*
X0083001Y0073353D02*
X0083969Y0072386D01*
X0084980Y0072386D02*
X0084980Y0075288D01*
X0086915Y0075288D01*
X0087927Y0075288D02*
X0089378Y0075288D01*
X0089862Y0074805D01*
X0089862Y0073837D01*
X0089378Y0073353D01*
X0087927Y0073353D01*
X0087927Y0072386D02*
X0087927Y0075288D01*
X0085948Y0073837D02*
X0084980Y0073837D01*
X0093820Y0074321D02*
X0094787Y0075288D01*
X0094787Y0072386D01*
X0093820Y0072386D02*
X0095755Y0072386D01*
X0096766Y0072870D02*
X0098701Y0074805D01*
X0098701Y0072870D01*
X0098217Y0072386D01*
X0097250Y0072386D01*
X0096766Y0072870D01*
X0096766Y0074805D01*
X0097250Y0075288D01*
X0098217Y0075288D01*
X0098701Y0074805D01*
X0099713Y0074805D02*
X0100196Y0075288D01*
X0101164Y0075288D01*
X0101648Y0074805D01*
X0099713Y0072870D01*
X0100196Y0072386D01*
X0101164Y0072386D01*
X0101648Y0072870D01*
X0101648Y0074805D01*
X0099713Y0074805D02*
X0099713Y0072870D01*
D19*
X0120217Y0074126D03*
X0120217Y0078063D03*
X0120217Y0082000D03*
X0120217Y0085937D03*
X0120217Y0089874D03*
X0120217Y0093811D03*
X0120217Y0097748D03*
X0120217Y0101685D03*
X0120217Y0105622D03*
X0120217Y0070189D03*
X0120217Y0066252D03*
X0120217Y0062315D03*
X0120217Y0058378D03*
X0059783Y0058378D03*
X0059783Y0062315D03*
X0059783Y0066252D03*
X0059783Y0070189D03*
X0059783Y0074126D03*
X0059783Y0078063D03*
X0059783Y0082000D03*
X0059783Y0085937D03*
X0059783Y0089874D03*
X0059783Y0093811D03*
X0059783Y0097748D03*
X0059783Y0101685D03*
X0059783Y0105622D03*
D20*
X0059783Y0103654D03*
X0059783Y0099717D03*
X0059783Y0095780D03*
X0059783Y0091843D03*
X0059783Y0087906D03*
X0059783Y0083969D03*
X0059783Y0080031D03*
X0059783Y0076094D03*
X0059783Y0072157D03*
X0059783Y0068220D03*
X0059783Y0064283D03*
X0059783Y0060346D03*
X0120217Y0060346D03*
X0120217Y0064283D03*
X0120217Y0068220D03*
X0120217Y0072157D03*
X0120217Y0076094D03*
X0120217Y0080031D03*
X0120217Y0083969D03*
X0120217Y0087906D03*
X0120217Y0091843D03*
X0120217Y0095780D03*
X0120217Y0099717D03*
X0120217Y0103654D03*
D21*
X0113622Y0112217D03*
X0109685Y0112217D03*
X0105748Y0112217D03*
X0101811Y0112217D03*
X0097874Y0112217D03*
X0093937Y0112217D03*
X0090000Y0112217D03*
X0086063Y0112217D03*
X0082126Y0112217D03*
X0078189Y0112217D03*
X0074252Y0112217D03*
X0070315Y0112217D03*
X0066378Y0112217D03*
X0066378Y0051783D03*
X0070315Y0051783D03*
X0074252Y0051783D03*
X0078189Y0051783D03*
X0082126Y0051783D03*
X0086063Y0051783D03*
X0090000Y0051783D03*
X0093937Y0051783D03*
X0097874Y0051783D03*
X0101811Y0051783D03*
X0105748Y0051783D03*
X0109685Y0051783D03*
X0113622Y0051783D03*
D22*
X0111654Y0051783D03*
X0107717Y0051783D03*
X0103780Y0051783D03*
X0099843Y0051783D03*
X0095906Y0051783D03*
X0091969Y0051783D03*
X0088031Y0051783D03*
X0084094Y0051783D03*
X0080157Y0051783D03*
X0076220Y0051783D03*
X0072283Y0051783D03*
X0068346Y0051783D03*
X0068346Y0112217D03*
X0072283Y0112217D03*
X0076220Y0112217D03*
X0080157Y0112217D03*
X0084094Y0112217D03*
X0088031Y0112217D03*
X0091969Y0112217D03*
X0095906Y0112217D03*
X0099843Y0112217D03*
X0103780Y0112217D03*
X0107717Y0112217D03*
X0111654Y0112217D03*
M02*
