G75*
%MOIN*%
%OFA0B0*%
%FSLAX25Y25*%
%IPPOS*%
%LPD*%
%AMOC8*
5,1,8,0,0,1.08239X$1,22.5*
%
%ADD10C,0.00000*%
%ADD11R,0.04337X0.04731*%
%ADD12R,0.04731X0.04337*%
%ADD13R,0.02362X0.03937*%
%ADD14R,0.02565X0.05124*%
%ADD15C,0.06337*%
%ADD16R,0.06700X0.05000*%
%ADD17R,0.07200X0.00600*%
D10*
X0005500Y0013000D02*
X0003000Y0015500D01*
X0003000Y0133000D01*
X0005500Y0135500D01*
X0199500Y0135500D01*
X0202000Y0133000D01*
X0202000Y0015500D01*
X0199500Y0013000D01*
X0005500Y0013000D01*
D11*
X0043154Y0050500D03*
X0049846Y0050500D03*
X0068000Y0072154D03*
X0068000Y0078846D03*
X0112000Y0085154D03*
X0112000Y0091846D03*
X0137500Y0071346D03*
X0145000Y0071346D03*
X0145000Y0064654D03*
X0137500Y0064654D03*
X0112000Y0063654D03*
X0112000Y0070346D03*
X0129000Y0032846D03*
X0129000Y0026154D03*
X0145154Y0116500D03*
X0151846Y0116500D03*
X0066000Y0124154D03*
X0066000Y0130846D03*
X0036000Y0130846D03*
X0036000Y0124154D03*
D12*
X0066000Y0113346D03*
X0066000Y0106654D03*
X0090654Y0104000D03*
X0097346Y0104000D03*
X0105654Y0126000D03*
X0112346Y0126000D03*
X0084846Y0126000D03*
X0078154Y0126000D03*
X0045846Y0087000D03*
X0039154Y0087000D03*
X0065500Y0054346D03*
X0065500Y0047654D03*
X0076654Y0037000D03*
X0083346Y0037000D03*
X0097154Y0037000D03*
X0103846Y0037000D03*
X0098846Y0060500D03*
X0092154Y0060500D03*
X0156154Y0081500D03*
X0162846Y0081500D03*
X0162846Y0089000D03*
X0156154Y0089000D03*
X0156154Y0096500D03*
X0162846Y0096500D03*
X0168154Y0096500D03*
X0174846Y0096500D03*
X0174846Y0104000D03*
X0168154Y0104000D03*
X0162846Y0104000D03*
X0156154Y0104000D03*
X0013000Y0033846D03*
X0013000Y0027154D03*
D13*
X0172776Y0071350D03*
X0175925Y0071350D03*
X0179075Y0071350D03*
X0182224Y0071350D03*
X0182224Y0077650D03*
X0179075Y0077650D03*
X0175925Y0077650D03*
X0172776Y0077650D03*
D14*
X0054740Y0120882D03*
X0051000Y0120882D03*
X0047260Y0120882D03*
X0047260Y0131118D03*
X0054740Y0131118D03*
D15*
X0055000Y0034500D03*
X0045000Y0034500D03*
X0035000Y0034500D03*
X0025000Y0034500D03*
X0025000Y0024500D03*
X0035000Y0024500D03*
X0045000Y0024500D03*
X0055000Y0024500D03*
X0065000Y0024500D03*
X0065000Y0034500D03*
D16*
X0078000Y0092500D03*
X0078000Y0098500D03*
D17*
X0078000Y0095500D03*
M02*
