G75*
%MOIN*%
%OFA0B0*%
%FSLAX25Y25*%
%IPPOS*%
%LPD*%
%AMOC8*
5,1,8,0,0,1.08239X$1,22.5*
%
%ADD10C,0.00000*%
%ADD11R,0.10000X0.05000*%
%ADD12R,0.05118X0.05906*%
%ADD13R,0.06299X0.07087*%
%ADD14R,0.10630X0.06299*%
%ADD15R,0.05906X0.05118*%
%ADD16R,0.06299X0.03150*%
%ADD17R,0.03937X0.04331*%
%ADD18R,0.04600X0.06300*%
%ADD19R,0.04331X0.03937*%
%ADD20R,0.03543X0.01969*%
%ADD21R,0.05906X0.02520*%
%ADD22R,0.05906X0.01260*%
%ADD23R,0.02520X0.05906*%
%ADD24R,0.01260X0.05906*%
%ADD25R,0.03937X0.02362*%
%ADD26R,0.03937X0.01181*%
%ADD27R,0.02362X0.03937*%
%ADD28R,0.01181X0.03937*%
%ADD29R,0.01575X0.04134*%
%ADD30C,0.05937*%
%ADD31R,0.06300X0.04600*%
%ADD32C,0.01000*%
%ADD33C,0.03169*%
%ADD34C,0.02775*%
%ADD35C,0.01400*%
%ADD36C,0.04000*%
%ADD37C,0.03200*%
%ADD38C,0.03150*%
%ADD39C,0.01200*%
%ADD40C,0.00800*%
%ADD41C,0.02400*%
%ADD42C,0.01600*%
%ADD43C,0.02578*%
D10*
X0005500Y0013000D02*
X0003000Y0015500D01*
X0003000Y0133000D01*
X0005500Y0135500D01*
X0199500Y0135500D01*
X0202000Y0133000D01*
X0202000Y0015500D01*
X0199500Y0013000D01*
X0005500Y0013000D01*
D11*
X0009100Y0049700D03*
X0009000Y0107000D03*
X0009000Y0117000D03*
X0196000Y0117000D03*
X0196000Y0107000D03*
X0196000Y0089500D03*
X0196000Y0082000D03*
X0196000Y0074500D03*
X0196000Y0064500D03*
X0196000Y0054500D03*
X0196000Y0047000D03*
X0196000Y0029500D03*
X0196000Y0022000D03*
D12*
X0155740Y0036500D03*
X0148260Y0036500D03*
X0148740Y0129500D03*
X0141260Y0129500D03*
X0187260Y0129500D03*
X0194740Y0129500D03*
X0017240Y0128500D03*
X0009760Y0128500D03*
D13*
X0146988Y0024000D03*
X0158012Y0024000D03*
D14*
X0170000Y0024488D03*
X0170000Y0035512D03*
D15*
X0055500Y0119260D03*
X0055500Y0126740D03*
X0038000Y0126240D03*
X0038000Y0118760D03*
D16*
X0007500Y0097000D03*
X0007500Y0092000D03*
X0007500Y0087000D03*
X0007500Y0082000D03*
X0007500Y0077000D03*
X0007500Y0072000D03*
X0007500Y0067000D03*
X0007500Y0062000D03*
X0007500Y0057000D03*
D17*
X0022654Y0117000D03*
X0029346Y0117000D03*
X0132654Y0043500D03*
X0139346Y0043500D03*
X0124346Y0034000D03*
X0117654Y0034000D03*
X0112346Y0034000D03*
X0105654Y0034000D03*
X0167154Y0116500D03*
X0173846Y0116500D03*
X0167346Y0129500D03*
X0160654Y0129500D03*
D18*
X0096000Y0130500D03*
X0090000Y0130500D03*
X0084000Y0130500D03*
X0137500Y0067000D03*
X0143500Y0067000D03*
D19*
X0182500Y0035346D03*
X0182500Y0028654D03*
D20*
X0038150Y0057276D03*
X0038150Y0060425D03*
X0038150Y0063575D03*
X0038150Y0066724D03*
X0031850Y0066724D03*
X0031850Y0063575D03*
X0031850Y0060425D03*
X0031850Y0057276D03*
X0031850Y0072276D03*
X0031850Y0075425D03*
X0031850Y0078575D03*
X0031850Y0081724D03*
X0038150Y0081724D03*
X0038150Y0078575D03*
X0038150Y0075425D03*
X0038150Y0072276D03*
X0038150Y0087276D03*
X0038150Y0090425D03*
X0038150Y0093575D03*
X0038150Y0096724D03*
X0031850Y0096724D03*
X0031850Y0093575D03*
X0031850Y0090425D03*
X0031850Y0087276D03*
D21*
X0058504Y0106252D03*
X0121496Y0106252D03*
X0121496Y0057748D03*
X0058504Y0057748D03*
D22*
X0058504Y0060346D03*
X0058504Y0062315D03*
X0058504Y0064283D03*
X0058504Y0066252D03*
X0058504Y0068220D03*
X0058504Y0070189D03*
X0058504Y0072157D03*
X0058504Y0074126D03*
X0058504Y0076094D03*
X0058504Y0078063D03*
X0058504Y0080031D03*
X0058504Y0082000D03*
X0058504Y0083969D03*
X0058504Y0085937D03*
X0058504Y0087906D03*
X0058504Y0089874D03*
X0058504Y0091843D03*
X0058504Y0093811D03*
X0058504Y0095780D03*
X0058504Y0097748D03*
X0058504Y0099717D03*
X0058504Y0101685D03*
X0058504Y0103654D03*
X0121496Y0103654D03*
X0121496Y0101685D03*
X0121496Y0099717D03*
X0121496Y0097748D03*
X0121496Y0095780D03*
X0121496Y0093811D03*
X0121496Y0091843D03*
X0121496Y0089874D03*
X0121496Y0087906D03*
X0121496Y0085937D03*
X0121496Y0083969D03*
X0121496Y0082000D03*
X0121496Y0080031D03*
X0121496Y0078063D03*
X0121496Y0076094D03*
X0121496Y0074126D03*
X0121496Y0072157D03*
X0121496Y0070189D03*
X0121496Y0068220D03*
X0121496Y0066252D03*
X0121496Y0064283D03*
X0121496Y0062315D03*
X0121496Y0060346D03*
D23*
X0114252Y0050504D03*
X0065748Y0050504D03*
X0065748Y0113496D03*
X0114252Y0113496D03*
D24*
X0111654Y0113496D03*
X0109685Y0113496D03*
X0107717Y0113496D03*
X0105748Y0113496D03*
X0103780Y0113496D03*
X0101811Y0113496D03*
X0099843Y0113496D03*
X0097874Y0113496D03*
X0095906Y0113496D03*
X0093937Y0113496D03*
X0091969Y0113496D03*
X0090000Y0113496D03*
X0088031Y0113496D03*
X0086063Y0113496D03*
X0084094Y0113496D03*
X0082126Y0113496D03*
X0080157Y0113496D03*
X0078189Y0113496D03*
X0076220Y0113496D03*
X0074252Y0113496D03*
X0072283Y0113496D03*
X0070315Y0113496D03*
X0068346Y0113496D03*
X0068346Y0050504D03*
X0070315Y0050504D03*
X0072283Y0050504D03*
X0074252Y0050504D03*
X0076220Y0050504D03*
X0078189Y0050504D03*
X0080157Y0050504D03*
X0082126Y0050504D03*
X0084094Y0050504D03*
X0086063Y0050504D03*
X0088031Y0050504D03*
X0090000Y0050504D03*
X0091969Y0050504D03*
X0093937Y0050504D03*
X0095906Y0050504D03*
X0097874Y0050504D03*
X0099843Y0050504D03*
X0101811Y0050504D03*
X0103780Y0050504D03*
X0105748Y0050504D03*
X0107717Y0050504D03*
X0109685Y0050504D03*
X0111654Y0050504D03*
D25*
X0135768Y0081409D03*
X0135768Y0104244D03*
X0169232Y0104244D03*
X0169232Y0081409D03*
D26*
X0169232Y0083969D03*
X0169232Y0085937D03*
X0169232Y0087906D03*
X0169232Y0089874D03*
X0169232Y0091843D03*
X0169232Y0093811D03*
X0169232Y0095780D03*
X0169232Y0097748D03*
X0169232Y0099717D03*
X0169232Y0101685D03*
X0135768Y0101685D03*
X0135768Y0099717D03*
X0135768Y0097748D03*
X0135768Y0095780D03*
X0135768Y0093811D03*
X0135768Y0091843D03*
X0135768Y0089874D03*
X0135768Y0087906D03*
X0135768Y0085937D03*
X0135768Y0083969D03*
D27*
X0141083Y0076094D03*
X0163917Y0076094D03*
X0163917Y0109559D03*
X0141083Y0109559D03*
D28*
X0143642Y0109559D03*
X0145610Y0109559D03*
X0147579Y0109559D03*
X0149547Y0109559D03*
X0151516Y0109559D03*
X0153484Y0109559D03*
X0155453Y0109559D03*
X0157421Y0109559D03*
X0159390Y0109559D03*
X0161358Y0109559D03*
X0161358Y0076094D03*
X0159390Y0076094D03*
X0157421Y0076094D03*
X0155453Y0076094D03*
X0153484Y0076094D03*
X0151516Y0076094D03*
X0149547Y0076094D03*
X0147579Y0076094D03*
X0145610Y0076094D03*
X0143642Y0076094D03*
D29*
X0137559Y0035642D03*
X0135000Y0035642D03*
X0132441Y0035642D03*
X0132441Y0028358D03*
X0135000Y0028358D03*
X0137559Y0028358D03*
D30*
X0065000Y0024500D03*
X0055000Y0024500D03*
X0045000Y0024500D03*
X0035000Y0024500D03*
X0025000Y0024500D03*
X0025000Y0034500D03*
X0035000Y0034500D03*
X0045000Y0034500D03*
X0055000Y0034500D03*
X0065000Y0034500D03*
D31*
X0090500Y0034100D03*
X0090500Y0028100D03*
X0090500Y0040100D03*
D32*
X0086250Y0039960D02*
X0077943Y0039960D01*
X0077715Y0039732D02*
X0078468Y0040485D01*
X0078875Y0041468D01*
X0078875Y0042532D01*
X0078468Y0043515D01*
X0077820Y0044162D01*
X0077820Y0046051D01*
X0078189Y0046051D01*
X0079016Y0046051D01*
X0079398Y0046153D01*
X0079740Y0046351D01*
X0079840Y0046451D01*
X0086380Y0046451D01*
X0086481Y0046351D01*
X0086823Y0046153D01*
X0087204Y0046051D01*
X0088031Y0046051D01*
X0088031Y0050504D01*
X0088031Y0054957D01*
X0087204Y0054957D01*
X0086823Y0054854D01*
X0086481Y0054657D01*
X0086380Y0054557D01*
X0079840Y0054557D01*
X0079740Y0054657D01*
X0079398Y0054854D01*
X0079016Y0054957D01*
X0078189Y0054957D01*
X0078189Y0050504D01*
X0078189Y0050504D01*
X0078189Y0054957D01*
X0077362Y0054957D01*
X0076980Y0054854D01*
X0076638Y0054657D01*
X0076538Y0054557D01*
X0064178Y0054557D01*
X0065134Y0055513D01*
X0065995Y0055513D01*
X0066909Y0055891D01*
X0067609Y0056591D01*
X0067987Y0057505D01*
X0067987Y0058495D01*
X0067609Y0059409D01*
X0067000Y0060018D01*
X0067000Y0060621D01*
X0063806Y0063815D01*
X0062557Y0063815D01*
X0062557Y0080400D01*
X0065817Y0080400D01*
X0066485Y0079732D01*
X0067468Y0079325D01*
X0068532Y0079325D01*
X0069515Y0079732D01*
X0069883Y0080100D01*
X0110117Y0080100D01*
X0110485Y0079732D01*
X0111468Y0079325D01*
X0112532Y0079325D01*
X0113515Y0079732D01*
X0114183Y0080400D01*
X0117443Y0080400D01*
X0117443Y0077746D01*
X0117343Y0077645D01*
X0117146Y0077303D01*
X0117043Y0076922D01*
X0117043Y0076095D01*
X0121496Y0076095D01*
X0121496Y0076094D01*
X0117043Y0076094D01*
X0117043Y0075726D01*
X0115337Y0075726D01*
X0114211Y0074600D01*
X0113918Y0074600D01*
X0113409Y0075109D01*
X0112495Y0075487D01*
X0111505Y0075487D01*
X0110591Y0075109D01*
X0109891Y0074409D01*
X0109513Y0073495D01*
X0109513Y0072505D01*
X0109891Y0071591D01*
X0110591Y0070891D01*
X0111505Y0070513D01*
X0112495Y0070513D01*
X0113409Y0070891D01*
X0113918Y0071400D01*
X0115537Y0071400D01*
X0116663Y0072526D01*
X0117443Y0072526D01*
X0117443Y0056033D01*
X0118088Y0055388D01*
X0124904Y0055388D01*
X0125197Y0055681D01*
X0125500Y0055379D01*
X0125879Y0055000D01*
X0125500Y0054621D01*
X0122883Y0052004D01*
X0116612Y0052004D01*
X0116612Y0053912D01*
X0115967Y0054557D01*
X0107399Y0054557D01*
X0107299Y0054657D01*
X0106957Y0054854D01*
X0106575Y0054957D01*
X0105748Y0054957D01*
X0104921Y0054957D01*
X0104539Y0054854D01*
X0104197Y0054657D01*
X0104097Y0054557D01*
X0093568Y0054557D01*
X0093568Y0056082D01*
X0094077Y0056591D01*
X0094456Y0057505D01*
X0094456Y0058495D01*
X0094077Y0059409D01*
X0093377Y0060109D01*
X0092463Y0060487D01*
X0091474Y0060487D01*
X0090559Y0060109D01*
X0089860Y0059409D01*
X0089481Y0058495D01*
X0089481Y0057505D01*
X0089860Y0056591D01*
X0090369Y0056082D01*
X0090369Y0054557D01*
X0089683Y0054557D01*
X0089582Y0054657D01*
X0089240Y0054854D01*
X0088859Y0054957D01*
X0088032Y0054957D01*
X0088032Y0050504D01*
X0088031Y0050504D01*
X0088032Y0050504D01*
X0088032Y0046051D01*
X0088500Y0046051D01*
X0088500Y0043500D01*
X0086894Y0043500D01*
X0086250Y0042856D01*
X0086250Y0037421D01*
X0086150Y0037321D01*
X0085952Y0036979D01*
X0085850Y0036597D01*
X0085850Y0034600D01*
X0090000Y0034600D01*
X0090000Y0033600D01*
X0085850Y0033600D01*
X0085850Y0031603D01*
X0085952Y0031221D01*
X0086150Y0030879D01*
X0086250Y0030779D01*
X0086250Y0025344D01*
X0086894Y0024700D01*
X0094106Y0024700D01*
X0094750Y0025344D01*
X0094750Y0026829D01*
X0097100Y0029179D01*
X0097100Y0044221D01*
X0096221Y0045100D01*
X0095437Y0045884D01*
X0095437Y0046451D01*
X0098243Y0046451D01*
X0098243Y0039495D01*
X0099900Y0037837D01*
X0100837Y0036900D01*
X0102377Y0036900D01*
X0102287Y0036744D01*
X0102185Y0036363D01*
X0102185Y0034484D01*
X0105169Y0034484D01*
X0105169Y0033516D01*
X0102185Y0033516D01*
X0102185Y0031637D01*
X0102287Y0031256D01*
X0102485Y0030914D01*
X0102764Y0030634D01*
X0103106Y0030437D01*
X0103488Y0030335D01*
X0105169Y0030335D01*
X0105169Y0033516D01*
X0106138Y0033516D01*
X0106138Y0034484D01*
X0109122Y0034484D01*
X0109122Y0034500D01*
X0109278Y0034500D01*
X0109278Y0031379D01*
X0109922Y0030735D01*
X0110746Y0030735D01*
X0110746Y0029991D01*
X0111684Y0029054D01*
X0111900Y0028837D01*
X0112837Y0027900D01*
X0129837Y0027900D01*
X0130554Y0027184D01*
X0130554Y0025836D01*
X0131198Y0025191D01*
X0133191Y0025191D01*
X0133292Y0025091D01*
X0133634Y0024894D01*
X0134015Y0024791D01*
X0135000Y0024791D01*
X0135959Y0024791D01*
X0135959Y0024778D01*
X0137400Y0023337D01*
X0138337Y0022400D01*
X0142739Y0022400D01*
X0142739Y0020001D01*
X0143383Y0019357D01*
X0150593Y0019357D01*
X0151238Y0020001D01*
X0151238Y0027999D01*
X0150593Y0028643D01*
X0143383Y0028643D01*
X0142739Y0027999D01*
X0142739Y0025600D01*
X0139663Y0025600D01*
X0139437Y0025826D01*
X0139446Y0025836D01*
X0139446Y0030881D01*
X0138802Y0031525D01*
X0136809Y0031525D01*
X0136708Y0031625D01*
X0136366Y0031823D01*
X0135985Y0031925D01*
X0135000Y0031925D01*
X0135000Y0028358D01*
X0135000Y0024791D01*
X0135000Y0028358D01*
X0135000Y0028358D01*
X0135000Y0031925D01*
X0134015Y0031925D01*
X0133634Y0031823D01*
X0133292Y0031625D01*
X0133191Y0031525D01*
X0132100Y0031525D01*
X0132100Y0032475D01*
X0133684Y0032475D01*
X0133720Y0032511D01*
X0133757Y0032475D01*
X0136243Y0032475D01*
X0136280Y0032511D01*
X0136316Y0032475D01*
X0138463Y0032475D01*
X0140601Y0030337D01*
X0141538Y0029400D01*
X0163163Y0029400D01*
X0164100Y0030337D01*
X0164100Y0030337D01*
X0165025Y0031262D01*
X0175771Y0031262D01*
X0176415Y0031907D01*
X0176415Y0039117D01*
X0175771Y0039761D01*
X0164229Y0039761D01*
X0163585Y0039117D01*
X0163585Y0034348D01*
X0161837Y0032600D01*
X0159473Y0032600D01*
X0159499Y0032626D01*
X0159697Y0032968D01*
X0159799Y0033350D01*
X0159799Y0036000D01*
X0156240Y0036000D01*
X0156240Y0037000D01*
X0155900Y0037000D01*
X0155900Y0038856D01*
X0155256Y0039500D01*
X0155240Y0039500D01*
X0155240Y0040953D01*
X0154900Y0040953D01*
X0154900Y0041900D01*
X0155163Y0041900D01*
X0166163Y0052900D01*
X0189900Y0052900D01*
X0189900Y0051544D01*
X0190544Y0050900D01*
X0200500Y0050900D01*
X0200500Y0050600D01*
X0190544Y0050600D01*
X0189900Y0049956D01*
X0189900Y0048600D01*
X0185337Y0048600D01*
X0184400Y0047663D01*
X0180900Y0044163D01*
X0180900Y0038415D01*
X0179879Y0038415D01*
X0179235Y0037771D01*
X0179235Y0032922D01*
X0179879Y0032278D01*
X0185121Y0032278D01*
X0185765Y0032922D01*
X0185765Y0037771D01*
X0185121Y0038415D01*
X0184100Y0038415D01*
X0184100Y0042837D01*
X0186663Y0045400D01*
X0189900Y0045400D01*
X0189900Y0044044D01*
X0190544Y0043400D01*
X0200500Y0043400D01*
X0200500Y0033100D01*
X0190544Y0033100D01*
X0189900Y0032456D01*
X0189900Y0029021D01*
X0179879Y0019000D01*
X0100121Y0019000D01*
X0096700Y0022421D01*
X0095821Y0023300D01*
X0082221Y0023300D01*
X0076587Y0028934D01*
X0076587Y0029795D01*
X0076209Y0030709D01*
X0075509Y0031409D01*
X0074595Y0031787D01*
X0073605Y0031787D01*
X0072691Y0031409D01*
X0071991Y0030709D01*
X0071613Y0029795D01*
X0071613Y0028805D01*
X0071991Y0027891D01*
X0072691Y0027191D01*
X0073605Y0026813D01*
X0074466Y0026813D01*
X0080779Y0020500D01*
X0079518Y0020500D01*
X0078909Y0021109D01*
X0077995Y0021487D01*
X0077005Y0021487D01*
X0076091Y0021109D01*
X0075391Y0020409D01*
X0075013Y0019495D01*
X0075013Y0018505D01*
X0075391Y0017591D01*
X0076091Y0016891D01*
X0077005Y0016513D01*
X0077995Y0016513D01*
X0078909Y0016891D01*
X0079518Y0017500D01*
X0094379Y0017500D01*
X0097379Y0014500D01*
X0006121Y0014500D01*
X0004500Y0016121D01*
X0004500Y0045700D01*
X0008600Y0045700D01*
X0008600Y0049200D01*
X0009600Y0049200D01*
X0009600Y0050200D01*
X0008600Y0050200D01*
X0008600Y0053700D01*
X0008600Y0054325D01*
X0011105Y0054325D01*
X0011750Y0054970D01*
X0011750Y0055500D01*
X0014121Y0055500D01*
X0023846Y0065224D01*
X0029039Y0065224D01*
X0029114Y0065150D01*
X0028979Y0065015D01*
X0028979Y0062135D01*
X0029114Y0062000D01*
X0029039Y0061925D01*
X0028804Y0061925D01*
X0027379Y0060500D01*
X0026500Y0059621D01*
X0026500Y0049018D01*
X0025891Y0048409D01*
X0025513Y0047495D01*
X0025513Y0046505D01*
X0025891Y0045591D01*
X0026591Y0044891D01*
X0027505Y0044513D01*
X0028495Y0044513D01*
X0029409Y0044891D01*
X0030109Y0045591D01*
X0030487Y0046505D01*
X0030487Y0047495D01*
X0030121Y0048379D01*
X0031005Y0048013D01*
X0031995Y0048013D01*
X0032909Y0048391D01*
X0033609Y0049091D01*
X0033987Y0050005D01*
X0033987Y0050995D01*
X0033609Y0051909D01*
X0033000Y0052518D01*
X0033000Y0054879D01*
X0033313Y0055191D01*
X0034078Y0055191D01*
X0034274Y0055388D01*
X0034462Y0055200D01*
X0035538Y0055200D01*
X0035726Y0055388D01*
X0035922Y0055191D01*
X0040187Y0055191D01*
X0034296Y0049300D01*
X0033300Y0048304D01*
X0033300Y0038200D01*
X0032695Y0037949D01*
X0031551Y0036805D01*
X0030931Y0035309D01*
X0030931Y0033691D01*
X0031551Y0032195D01*
X0032695Y0031051D01*
X0032861Y0030982D01*
X0032000Y0030121D01*
X0028518Y0026639D01*
X0028449Y0026805D01*
X0027305Y0027949D01*
X0025809Y0028568D01*
X0024191Y0028568D01*
X0022695Y0027949D01*
X0021551Y0026805D01*
X0020931Y0025309D01*
X0020931Y0023691D01*
X0021551Y0022195D01*
X0022695Y0021051D01*
X0024191Y0020431D01*
X0025809Y0020431D01*
X0027305Y0021051D01*
X0028449Y0022195D01*
X0028782Y0023000D01*
X0029121Y0023000D01*
X0030931Y0024810D01*
X0030931Y0023691D01*
X0031551Y0022195D01*
X0032695Y0021051D01*
X0033500Y0020718D01*
X0033500Y0017879D01*
X0034000Y0017379D01*
X0035000Y0016379D01*
X0035879Y0015500D01*
X0058121Y0015500D01*
X0061000Y0018379D01*
X0061000Y0023525D01*
X0061551Y0022195D01*
X0062695Y0021051D01*
X0064191Y0020431D01*
X0065809Y0020431D01*
X0067305Y0021051D01*
X0068449Y0022195D01*
X0069068Y0023691D01*
X0069068Y0025309D01*
X0068735Y0026114D01*
X0071500Y0028879D01*
X0071500Y0038121D01*
X0070621Y0039000D01*
X0068621Y0041000D01*
X0065621Y0041000D01*
X0063500Y0043121D01*
X0063500Y0046984D01*
X0064033Y0046451D01*
X0074620Y0046451D01*
X0074620Y0044203D01*
X0073932Y0043515D01*
X0073525Y0042532D01*
X0073525Y0041468D01*
X0073932Y0040485D01*
X0074685Y0039732D01*
X0075668Y0039325D01*
X0076732Y0039325D01*
X0077715Y0039732D01*
X0078664Y0040958D02*
X0086250Y0040958D01*
X0086250Y0041957D02*
X0078875Y0041957D01*
X0078699Y0042955D02*
X0086350Y0042955D01*
X0088500Y0043954D02*
X0078029Y0043954D01*
X0077820Y0044952D02*
X0088500Y0044952D01*
X0088500Y0045951D02*
X0077820Y0045951D01*
X0078189Y0046051D02*
X0078189Y0050504D01*
X0078189Y0046051D01*
X0078189Y0046949D02*
X0078189Y0046949D01*
X0078189Y0047948D02*
X0078189Y0047948D01*
X0078189Y0048946D02*
X0078189Y0048946D01*
X0078189Y0049945D02*
X0078189Y0049945D01*
X0078189Y0050504D02*
X0078189Y0050504D01*
X0078189Y0050943D02*
X0078189Y0050943D01*
X0078189Y0051942D02*
X0078189Y0051942D01*
X0078189Y0052940D02*
X0078189Y0052940D01*
X0078189Y0053939D02*
X0078189Y0053939D01*
X0078189Y0054937D02*
X0078189Y0054937D01*
X0079088Y0054937D02*
X0087132Y0054937D01*
X0088031Y0054937D02*
X0088032Y0054937D01*
X0088931Y0054937D02*
X0090369Y0054937D01*
X0090369Y0055936D02*
X0066954Y0055936D01*
X0067751Y0056934D02*
X0089717Y0056934D01*
X0089481Y0057933D02*
X0067987Y0057933D01*
X0067806Y0058932D02*
X0089662Y0058932D01*
X0090381Y0059930D02*
X0067088Y0059930D01*
X0066693Y0060929D02*
X0117443Y0060929D01*
X0117443Y0061927D02*
X0065694Y0061927D01*
X0064696Y0062926D02*
X0117443Y0062926D01*
X0117443Y0063924D02*
X0062557Y0063924D01*
X0062557Y0064923D02*
X0117443Y0064923D01*
X0117443Y0065921D02*
X0062557Y0065921D01*
X0062557Y0066920D02*
X0117443Y0066920D01*
X0117443Y0067918D02*
X0062557Y0067918D01*
X0062557Y0068917D02*
X0117443Y0068917D01*
X0117443Y0069915D02*
X0062557Y0069915D01*
X0062557Y0070914D02*
X0110569Y0070914D01*
X0109758Y0071912D02*
X0062557Y0071912D01*
X0062557Y0072911D02*
X0109513Y0072911D01*
X0109684Y0073909D02*
X0062557Y0073909D01*
X0062557Y0074908D02*
X0110390Y0074908D01*
X0112000Y0073000D02*
X0114874Y0073000D01*
X0116000Y0074126D01*
X0121496Y0074126D01*
X0121370Y0074000D01*
X0117443Y0071912D02*
X0116049Y0071912D01*
X0117443Y0070914D02*
X0113431Y0070914D01*
X0113610Y0074908D02*
X0114519Y0074908D01*
X0117043Y0075906D02*
X0062557Y0075906D01*
X0062557Y0076905D02*
X0117043Y0076905D01*
X0117443Y0077903D02*
X0062557Y0077903D01*
X0062557Y0078902D02*
X0117443Y0078902D01*
X0117443Y0079900D02*
X0113683Y0079900D01*
X0112000Y0082000D02*
X0121496Y0082000D01*
X0121496Y0085937D02*
X0117043Y0085937D01*
X0117043Y0085468D01*
X0116653Y0085468D01*
X0115500Y0086621D01*
X0115500Y0098621D01*
X0116389Y0099510D01*
X0116389Y0101490D01*
X0114990Y0102889D01*
X0113010Y0102889D01*
X0111611Y0101490D01*
X0111611Y0099510D01*
X0112500Y0098621D01*
X0112500Y0085379D01*
X0113379Y0084500D01*
X0114279Y0083600D01*
X0114183Y0083600D01*
X0113515Y0084268D01*
X0112532Y0084675D01*
X0111468Y0084675D01*
X0110485Y0084268D01*
X0110117Y0083900D01*
X0069900Y0083900D01*
X0069900Y0100213D01*
X0070900Y0101213D01*
X0071787Y0102100D01*
X0076382Y0102100D01*
X0076591Y0101891D01*
X0077505Y0101513D01*
X0078495Y0101513D01*
X0079409Y0101891D01*
X0080109Y0102591D01*
X0080487Y0103505D01*
X0080487Y0104495D01*
X0080109Y0105409D01*
X0079409Y0106109D01*
X0078495Y0106487D01*
X0077505Y0106487D01*
X0076591Y0106109D01*
X0076382Y0105900D01*
X0068787Y0105900D01*
X0065244Y0109443D01*
X0074569Y0109443D01*
X0074670Y0109343D01*
X0075012Y0109146D01*
X0075393Y0109043D01*
X0076220Y0109043D01*
X0076220Y0113496D01*
X0076221Y0113496D01*
X0076221Y0109043D01*
X0077048Y0109043D01*
X0077429Y0109146D01*
X0077771Y0109343D01*
X0077872Y0109443D01*
X0078506Y0109443D01*
X0078607Y0109343D01*
X0078949Y0109146D01*
X0079330Y0109043D01*
X0080157Y0109043D01*
X0080157Y0113496D01*
X0080158Y0113496D01*
X0080158Y0109043D01*
X0080985Y0109043D01*
X0081366Y0109146D01*
X0081708Y0109343D01*
X0081809Y0109443D01*
X0084412Y0109443D01*
X0084512Y0109343D01*
X0084854Y0109146D01*
X0085236Y0109043D01*
X0086063Y0109043D01*
X0086890Y0109043D01*
X0087272Y0109146D01*
X0087614Y0109343D01*
X0087714Y0109443D01*
X0088400Y0109443D01*
X0088400Y0108418D01*
X0087891Y0107909D01*
X0087513Y0106995D01*
X0087513Y0106005D01*
X0087891Y0105091D01*
X0088591Y0104391D01*
X0089505Y0104013D01*
X0090495Y0104013D01*
X0091409Y0104391D01*
X0092109Y0105091D01*
X0092487Y0106005D01*
X0092487Y0106995D01*
X0092109Y0107909D01*
X0091600Y0108418D01*
X0091600Y0109443D01*
X0106065Y0109443D01*
X0106166Y0109343D01*
X0106508Y0109146D01*
X0106889Y0109043D01*
X0107716Y0109043D01*
X0107716Y0113496D01*
X0107717Y0113496D01*
X0107717Y0109043D01*
X0108544Y0109043D01*
X0108925Y0109146D01*
X0109267Y0109343D01*
X0109368Y0109443D01*
X0115967Y0109443D01*
X0116612Y0110088D01*
X0116612Y0116740D01*
X0117871Y0118000D01*
X0127879Y0118000D01*
X0122879Y0113000D01*
X0122879Y0113000D01*
X0122000Y0112121D01*
X0122000Y0108612D01*
X0118088Y0108612D01*
X0117443Y0107967D01*
X0117443Y0087588D01*
X0117343Y0087488D01*
X0117146Y0087146D01*
X0117043Y0086764D01*
X0117043Y0085937D01*
X0121496Y0085937D01*
X0121496Y0085937D01*
X0117043Y0085891D02*
X0116230Y0085891D01*
X0115500Y0086890D02*
X0117077Y0086890D01*
X0117443Y0087888D02*
X0115500Y0087888D01*
X0115500Y0088887D02*
X0117443Y0088887D01*
X0117443Y0089885D02*
X0115500Y0089885D01*
X0115500Y0090884D02*
X0117443Y0090884D01*
X0117443Y0091882D02*
X0115500Y0091882D01*
X0115500Y0092881D02*
X0117443Y0092881D01*
X0117443Y0093879D02*
X0115500Y0093879D01*
X0115500Y0094878D02*
X0117443Y0094878D01*
X0117443Y0095876D02*
X0115500Y0095876D01*
X0115500Y0096875D02*
X0117443Y0096875D01*
X0117443Y0097873D02*
X0115500Y0097873D01*
X0115750Y0098872D02*
X0117443Y0098872D01*
X0117443Y0099870D02*
X0116389Y0099870D01*
X0116389Y0100869D02*
X0117443Y0100869D01*
X0117443Y0101868D02*
X0116011Y0101868D01*
X0115012Y0102866D02*
X0117443Y0102866D01*
X0117443Y0103865D02*
X0080487Y0103865D01*
X0080335Y0104863D02*
X0088119Y0104863D01*
X0087572Y0105862D02*
X0079656Y0105862D01*
X0080223Y0102866D02*
X0112987Y0102866D01*
X0111989Y0101868D02*
X0079352Y0101868D01*
X0076648Y0101868D02*
X0071555Y0101868D01*
X0070556Y0100869D02*
X0111611Y0100869D01*
X0111611Y0099870D02*
X0069900Y0099870D01*
X0069900Y0098872D02*
X0112249Y0098872D01*
X0112500Y0097873D02*
X0069900Y0097873D01*
X0069900Y0096875D02*
X0112500Y0096875D01*
X0112500Y0095876D02*
X0069900Y0095876D01*
X0069900Y0094878D02*
X0112500Y0094878D01*
X0112500Y0093879D02*
X0069900Y0093879D01*
X0069900Y0092881D02*
X0112500Y0092881D01*
X0112500Y0091882D02*
X0069900Y0091882D01*
X0069900Y0090884D02*
X0112500Y0090884D01*
X0112500Y0089885D02*
X0069900Y0089885D01*
X0069900Y0088887D02*
X0112500Y0088887D01*
X0112500Y0087888D02*
X0069900Y0087888D01*
X0069900Y0086890D02*
X0112500Y0086890D01*
X0112500Y0085891D02*
X0069900Y0085891D01*
X0069900Y0084893D02*
X0112986Y0084893D01*
X0113379Y0084500D02*
X0113379Y0084500D01*
X0113888Y0083894D02*
X0113984Y0083894D01*
X0110317Y0079900D02*
X0069683Y0079900D01*
X0068000Y0082000D02*
X0058504Y0082000D01*
X0062557Y0083600D02*
X0062557Y0084286D01*
X0062657Y0084386D01*
X0062854Y0084728D01*
X0062957Y0085110D01*
X0062957Y0085937D01*
X0062957Y0086764D01*
X0062915Y0086921D01*
X0062957Y0087078D01*
X0062957Y0087905D01*
X0062138Y0087905D01*
X0062138Y0087906D01*
X0062957Y0087906D01*
X0062957Y0088733D01*
X0062854Y0089114D01*
X0062657Y0089456D01*
X0062557Y0089557D01*
X0062557Y0090191D01*
X0062657Y0090292D01*
X0062854Y0090634D01*
X0062957Y0091015D01*
X0062957Y0091842D01*
X0058504Y0091842D01*
X0058504Y0091843D01*
X0062957Y0091843D01*
X0062957Y0092670D01*
X0062854Y0093051D01*
X0062657Y0093393D01*
X0062557Y0093494D01*
X0062557Y0103971D01*
X0062657Y0104071D01*
X0062854Y0104413D01*
X0062957Y0104795D01*
X0062957Y0106122D01*
X0058634Y0106122D01*
X0058634Y0106382D01*
X0062931Y0106382D01*
X0066100Y0103213D01*
X0066100Y0083883D01*
X0065817Y0083600D01*
X0062557Y0083600D01*
X0062557Y0083894D02*
X0066100Y0083894D01*
X0066100Y0084893D02*
X0062899Y0084893D01*
X0062957Y0085891D02*
X0066100Y0085891D01*
X0066100Y0086890D02*
X0062923Y0086890D01*
X0062957Y0085937D02*
X0062138Y0085937D01*
X0062138Y0085937D01*
X0062957Y0085937D01*
X0063937Y0085937D02*
X0065000Y0087000D01*
X0064094Y0087906D01*
X0058504Y0087906D01*
X0058504Y0087905D02*
X0058504Y0087905D01*
X0058504Y0085937D01*
X0063937Y0085937D01*
X0062957Y0087888D02*
X0066100Y0087888D01*
X0066100Y0088887D02*
X0062915Y0088887D01*
X0062557Y0089885D02*
X0066100Y0089885D01*
X0066100Y0090884D02*
X0062922Y0090884D01*
X0062957Y0091882D02*
X0066100Y0091882D01*
X0066100Y0092881D02*
X0062900Y0092881D01*
X0062557Y0093879D02*
X0066100Y0093879D01*
X0066100Y0094878D02*
X0062557Y0094878D01*
X0062557Y0095876D02*
X0066100Y0095876D01*
X0066100Y0096875D02*
X0062557Y0096875D01*
X0062557Y0097873D02*
X0066100Y0097873D01*
X0066100Y0098872D02*
X0062557Y0098872D01*
X0062557Y0099870D02*
X0066100Y0099870D01*
X0066100Y0100869D02*
X0062557Y0100869D01*
X0062557Y0101868D02*
X0066100Y0101868D01*
X0066100Y0102866D02*
X0062557Y0102866D01*
X0062557Y0103865D02*
X0065448Y0103865D01*
X0064450Y0104863D02*
X0062957Y0104863D01*
X0062957Y0105862D02*
X0063451Y0105862D01*
X0066828Y0107859D02*
X0087870Y0107859D01*
X0087513Y0106860D02*
X0067827Y0106860D01*
X0065830Y0108857D02*
X0088400Y0108857D01*
X0086063Y0109043D02*
X0086063Y0113496D01*
X0086063Y0113496D01*
X0086063Y0109043D01*
X0086063Y0109856D02*
X0086063Y0109856D01*
X0086063Y0110854D02*
X0086063Y0110854D01*
X0086063Y0111853D02*
X0086063Y0111853D01*
X0086063Y0112851D02*
X0086063Y0112851D01*
X0086063Y0113496D02*
X0086063Y0117949D01*
X0086063Y0113496D01*
X0086063Y0113496D01*
X0086063Y0113850D02*
X0086063Y0113850D01*
X0086063Y0114848D02*
X0086063Y0114848D01*
X0086063Y0115847D02*
X0086063Y0115847D01*
X0086063Y0116845D02*
X0086063Y0116845D01*
X0086063Y0117844D02*
X0086063Y0117844D01*
X0086063Y0117949D02*
X0085236Y0117949D01*
X0084854Y0117847D01*
X0084512Y0117649D01*
X0084412Y0117549D01*
X0081809Y0117549D01*
X0081708Y0117649D01*
X0081366Y0117847D01*
X0080985Y0117949D01*
X0080158Y0117949D01*
X0080158Y0113496D01*
X0080157Y0113496D01*
X0080157Y0117949D01*
X0079789Y0117949D01*
X0079789Y0118071D01*
X0080309Y0118591D01*
X0080687Y0119505D01*
X0080687Y0120495D01*
X0080309Y0121409D01*
X0079609Y0122109D01*
X0078695Y0122487D01*
X0077705Y0122487D01*
X0076791Y0122109D01*
X0076091Y0121409D01*
X0075713Y0120495D01*
X0075713Y0119505D01*
X0076091Y0118591D01*
X0076589Y0118093D01*
X0076589Y0117949D01*
X0076221Y0117949D01*
X0076221Y0113496D01*
X0076220Y0113496D01*
X0076220Y0117949D01*
X0075393Y0117949D01*
X0075012Y0117847D01*
X0074670Y0117649D01*
X0074569Y0117549D01*
X0064033Y0117549D01*
X0063444Y0116960D01*
X0062704Y0117700D01*
X0060700Y0119704D01*
X0060700Y0119704D01*
X0059704Y0120700D01*
X0059553Y0120700D01*
X0059553Y0122275D01*
X0059039Y0122788D01*
X0059374Y0122981D01*
X0059653Y0123260D01*
X0059851Y0123602D01*
X0059953Y0123984D01*
X0059953Y0126240D01*
X0056000Y0126240D01*
X0056000Y0127240D01*
X0059953Y0127240D01*
X0059953Y0129497D01*
X0059851Y0129878D01*
X0059653Y0130220D01*
X0059374Y0130499D01*
X0059032Y0130697D01*
X0058650Y0130799D01*
X0056000Y0130799D01*
X0056000Y0127240D01*
X0055000Y0127240D01*
X0055000Y0126240D01*
X0051047Y0126240D01*
X0051047Y0123984D01*
X0051149Y0123602D01*
X0051347Y0123260D01*
X0051626Y0122981D01*
X0051961Y0122788D01*
X0051447Y0122275D01*
X0051447Y0120700D01*
X0051296Y0120700D01*
X0050296Y0119700D01*
X0050296Y0119700D01*
X0049300Y0118704D01*
X0049300Y0113296D01*
X0050800Y0111796D01*
X0051796Y0110800D01*
X0053418Y0110800D01*
X0054383Y0110400D01*
X0054710Y0110400D01*
X0058279Y0109012D01*
X0055354Y0109012D01*
X0054972Y0108910D01*
X0054630Y0108712D01*
X0054351Y0108433D01*
X0054153Y0108091D01*
X0054051Y0107709D01*
X0054051Y0106382D01*
X0058374Y0106382D01*
X0058374Y0106122D01*
X0054051Y0106122D01*
X0054051Y0104795D01*
X0054153Y0104413D01*
X0054351Y0104071D01*
X0054451Y0103971D01*
X0054451Y0097280D01*
X0044942Y0097280D01*
X0043997Y0098224D01*
X0040961Y0098224D01*
X0040377Y0098809D01*
X0035922Y0098809D01*
X0035726Y0098612D01*
X0035538Y0098800D01*
X0034462Y0098800D01*
X0034274Y0098612D01*
X0034078Y0098809D01*
X0029623Y0098809D01*
X0029416Y0098602D01*
X0029209Y0098809D01*
X0028295Y0099187D01*
X0027305Y0099187D01*
X0026391Y0098809D01*
X0025691Y0098109D01*
X0025313Y0097195D01*
X0025313Y0096205D01*
X0025417Y0095954D01*
X0025095Y0096087D01*
X0024105Y0096087D01*
X0023191Y0095709D01*
X0022491Y0095009D01*
X0022113Y0094095D01*
X0022113Y0093105D01*
X0022491Y0092191D01*
X0022757Y0091925D01*
X0021696Y0091925D01*
X0015121Y0098500D01*
X0011750Y0098500D01*
X0011750Y0099030D01*
X0011105Y0099675D01*
X0004500Y0099675D01*
X0004500Y0103000D01*
X0008500Y0103000D01*
X0008500Y0106500D01*
X0009500Y0106500D01*
X0009500Y0107500D01*
X0008500Y0107500D01*
X0008500Y0111000D01*
X0004500Y0111000D01*
X0004500Y0113400D01*
X0014456Y0113400D01*
X0015100Y0114044D01*
X0015100Y0114300D01*
X0019664Y0114300D01*
X0020229Y0113735D01*
X0025078Y0113735D01*
X0025722Y0114379D01*
X0025722Y0119621D01*
X0025078Y0120265D01*
X0020229Y0120265D01*
X0019664Y0119700D01*
X0015100Y0119700D01*
X0015100Y0119956D01*
X0014456Y0120600D01*
X0012460Y0120600D01*
X0012460Y0124447D01*
X0012775Y0124447D01*
X0013288Y0124961D01*
X0013481Y0124626D01*
X0013760Y0124347D01*
X0014102Y0124149D01*
X0014484Y0124047D01*
X0016740Y0124047D01*
X0016740Y0128000D01*
X0017740Y0128000D01*
X0017740Y0124047D01*
X0019997Y0124047D01*
X0020378Y0124149D01*
X0020720Y0124347D01*
X0020999Y0124626D01*
X0021197Y0124968D01*
X0021299Y0125350D01*
X0021299Y0128000D01*
X0017740Y0128000D01*
X0017740Y0129000D01*
X0016740Y0129000D01*
X0016740Y0132953D01*
X0014484Y0132953D01*
X0014102Y0132851D01*
X0013760Y0132653D01*
X0013481Y0132374D01*
X0013288Y0132039D01*
X0012775Y0132553D01*
X0006745Y0132553D01*
X0006101Y0131908D01*
X0006101Y0125092D01*
X0006745Y0124447D01*
X0007060Y0124447D01*
X0007060Y0120600D01*
X0004500Y0120600D01*
X0004500Y0132379D01*
X0006121Y0134000D01*
X0080600Y0134000D01*
X0080600Y0126894D01*
X0081244Y0126250D01*
X0082500Y0126250D01*
X0082500Y0121879D01*
X0083379Y0121000D01*
X0084879Y0119500D01*
X0091879Y0119500D01*
X0092437Y0118942D01*
X0092437Y0117549D01*
X0087714Y0117549D01*
X0087614Y0117649D01*
X0087272Y0117847D01*
X0086890Y0117949D01*
X0086063Y0117949D01*
X0087277Y0117844D02*
X0092437Y0117844D01*
X0092437Y0118842D02*
X0080413Y0118842D01*
X0080157Y0117844D02*
X0080158Y0117844D01*
X0080157Y0116845D02*
X0080158Y0116845D01*
X0080157Y0115847D02*
X0080158Y0115847D01*
X0080157Y0114848D02*
X0080158Y0114848D01*
X0080157Y0113850D02*
X0080158Y0113850D01*
X0080157Y0112851D02*
X0080158Y0112851D01*
X0080157Y0111853D02*
X0080158Y0111853D01*
X0080157Y0110854D02*
X0080158Y0110854D01*
X0080157Y0109856D02*
X0080158Y0109856D01*
X0076221Y0109856D02*
X0076220Y0109856D01*
X0076220Y0110854D02*
X0076221Y0110854D01*
X0076220Y0111853D02*
X0076221Y0111853D01*
X0076220Y0112851D02*
X0076221Y0112851D01*
X0076220Y0113850D02*
X0076221Y0113850D01*
X0076220Y0114848D02*
X0076221Y0114848D01*
X0076220Y0115847D02*
X0076221Y0115847D01*
X0076220Y0116845D02*
X0076221Y0116845D01*
X0076220Y0117844D02*
X0076221Y0117844D01*
X0075987Y0118842D02*
X0061562Y0118842D01*
X0062560Y0117844D02*
X0075007Y0117844D01*
X0075713Y0119841D02*
X0060563Y0119841D01*
X0059553Y0120839D02*
X0075855Y0120839D01*
X0076520Y0121838D02*
X0059553Y0121838D01*
X0059123Y0122836D02*
X0082500Y0122836D01*
X0082500Y0123835D02*
X0059913Y0123835D01*
X0059953Y0124833D02*
X0082500Y0124833D01*
X0082500Y0125832D02*
X0059953Y0125832D01*
X0059953Y0127829D02*
X0080600Y0127829D01*
X0080600Y0128827D02*
X0059953Y0128827D01*
X0059865Y0129826D02*
X0080600Y0129826D01*
X0080600Y0130824D02*
X0021299Y0130824D01*
X0021299Y0131650D02*
X0021299Y0129000D01*
X0017740Y0129000D01*
X0017740Y0132953D01*
X0019997Y0132953D01*
X0020378Y0132851D01*
X0020720Y0132653D01*
X0020999Y0132374D01*
X0021197Y0132032D01*
X0021299Y0131650D01*
X0021253Y0131823D02*
X0080600Y0131823D01*
X0080600Y0132821D02*
X0020429Y0132821D01*
X0017740Y0132821D02*
X0016740Y0132821D01*
X0016740Y0131823D02*
X0017740Y0131823D01*
X0017740Y0130824D02*
X0016740Y0130824D01*
X0016740Y0129826D02*
X0017740Y0129826D01*
X0017740Y0128827D02*
X0033547Y0128827D01*
X0033547Y0128997D02*
X0033547Y0126740D01*
X0037500Y0126740D01*
X0037500Y0125740D01*
X0033547Y0125740D01*
X0033547Y0123484D01*
X0033649Y0123102D01*
X0033847Y0122760D01*
X0034126Y0122481D01*
X0034461Y0122288D01*
X0033947Y0121775D01*
X0033947Y0119700D01*
X0032336Y0119700D01*
X0031771Y0120265D01*
X0026922Y0120265D01*
X0026278Y0119621D01*
X0026278Y0114379D01*
X0026922Y0113735D01*
X0031771Y0113735D01*
X0032336Y0114300D01*
X0035400Y0114300D01*
X0035400Y0105337D01*
X0035786Y0104951D01*
X0035872Y0104744D01*
X0036744Y0103872D01*
X0036951Y0103786D01*
X0037337Y0103400D01*
X0045663Y0103400D01*
X0046163Y0103900D01*
X0047100Y0104837D01*
X0047100Y0107663D01*
X0046714Y0108049D01*
X0046628Y0108256D01*
X0045756Y0109128D01*
X0045549Y0109214D01*
X0041600Y0113163D01*
X0041600Y0115292D01*
X0042053Y0115745D01*
X0042053Y0121775D01*
X0041539Y0122288D01*
X0041874Y0122481D01*
X0042153Y0122760D01*
X0042351Y0123102D01*
X0042453Y0123484D01*
X0042453Y0125740D01*
X0038500Y0125740D01*
X0038500Y0126740D01*
X0042453Y0126740D01*
X0042453Y0128997D01*
X0042351Y0129378D01*
X0042153Y0129720D01*
X0041874Y0129999D01*
X0041532Y0130197D01*
X0041150Y0130299D01*
X0038500Y0130299D01*
X0038500Y0126740D01*
X0037500Y0126740D01*
X0037500Y0130299D01*
X0034850Y0130299D01*
X0034468Y0130197D01*
X0034126Y0129999D01*
X0033847Y0129720D01*
X0033649Y0129378D01*
X0033547Y0128997D01*
X0033953Y0129826D02*
X0021299Y0129826D01*
X0021299Y0127829D02*
X0033547Y0127829D01*
X0033547Y0126830D02*
X0021299Y0126830D01*
X0021299Y0125832D02*
X0037500Y0125832D01*
X0037500Y0126830D02*
X0038500Y0126830D01*
X0038500Y0125832D02*
X0051047Y0125832D01*
X0051047Y0124833D02*
X0042453Y0124833D01*
X0042453Y0123835D02*
X0051087Y0123835D01*
X0051877Y0122836D02*
X0042197Y0122836D01*
X0041990Y0121838D02*
X0051447Y0121838D01*
X0051447Y0120839D02*
X0042053Y0120839D01*
X0042053Y0119841D02*
X0050437Y0119841D01*
X0049438Y0118842D02*
X0042053Y0118842D01*
X0042053Y0117844D02*
X0049300Y0117844D01*
X0049300Y0116845D02*
X0042053Y0116845D01*
X0042053Y0115847D02*
X0049300Y0115847D01*
X0049300Y0114848D02*
X0041600Y0114848D01*
X0041600Y0113850D02*
X0049300Y0113850D01*
X0049745Y0112851D02*
X0041912Y0112851D01*
X0042910Y0111853D02*
X0050743Y0111853D01*
X0051742Y0110854D02*
X0043909Y0110854D01*
X0044907Y0109856D02*
X0056110Y0109856D01*
X0054881Y0108857D02*
X0046027Y0108857D01*
X0046904Y0107859D02*
X0054091Y0107859D01*
X0054051Y0106860D02*
X0047100Y0106860D01*
X0047100Y0105862D02*
X0054051Y0105862D01*
X0054051Y0104863D02*
X0047100Y0104863D01*
X0046127Y0103865D02*
X0054451Y0103865D01*
X0054451Y0102866D02*
X0004500Y0102866D01*
X0004500Y0101868D02*
X0054451Y0101868D01*
X0054451Y0100869D02*
X0004500Y0100869D01*
X0004500Y0099870D02*
X0054451Y0099870D01*
X0054451Y0098872D02*
X0029056Y0098872D01*
X0026544Y0098872D02*
X0011750Y0098872D01*
X0015748Y0097873D02*
X0025594Y0097873D01*
X0025313Y0096875D02*
X0016746Y0096875D01*
X0017745Y0095876D02*
X0023596Y0095876D01*
X0022437Y0094878D02*
X0018743Y0094878D01*
X0019742Y0093879D02*
X0022113Y0093879D01*
X0022205Y0092881D02*
X0020740Y0092881D01*
X0014921Y0103300D02*
X0014579Y0103102D01*
X0014197Y0103000D01*
X0009500Y0103000D01*
X0009500Y0106500D01*
X0015500Y0106500D01*
X0015500Y0104303D01*
X0015398Y0103921D01*
X0015200Y0103579D01*
X0014921Y0103300D01*
X0015365Y0103865D02*
X0036762Y0103865D01*
X0035823Y0104863D02*
X0015500Y0104863D01*
X0015500Y0105862D02*
X0035400Y0105862D01*
X0035400Y0106860D02*
X0009500Y0106860D01*
X0009500Y0107500D02*
X0015500Y0107500D01*
X0015500Y0109697D01*
X0015398Y0110079D01*
X0015200Y0110421D01*
X0014921Y0110700D01*
X0014579Y0110898D01*
X0014197Y0111000D01*
X0009500Y0111000D01*
X0009500Y0107500D01*
X0009500Y0107859D02*
X0008500Y0107859D01*
X0008500Y0108857D02*
X0009500Y0108857D01*
X0009500Y0109856D02*
X0008500Y0109856D01*
X0008500Y0110854D02*
X0009500Y0110854D01*
X0004500Y0111853D02*
X0035400Y0111853D01*
X0035400Y0112851D02*
X0004500Y0112851D01*
X0008500Y0105862D02*
X0009500Y0105862D01*
X0009500Y0104863D02*
X0008500Y0104863D01*
X0008500Y0103865D02*
X0009500Y0103865D01*
X0015500Y0107859D02*
X0035400Y0107859D01*
X0035400Y0108857D02*
X0015500Y0108857D01*
X0015458Y0109856D02*
X0035400Y0109856D01*
X0035400Y0110854D02*
X0014655Y0110854D01*
X0014905Y0113850D02*
X0020114Y0113850D01*
X0025193Y0113850D02*
X0026807Y0113850D01*
X0026278Y0114848D02*
X0025722Y0114848D01*
X0025722Y0115847D02*
X0026278Y0115847D01*
X0026278Y0116845D02*
X0025722Y0116845D01*
X0025722Y0117844D02*
X0026278Y0117844D01*
X0026278Y0118842D02*
X0025722Y0118842D01*
X0025502Y0119841D02*
X0026498Y0119841D01*
X0032195Y0119841D02*
X0033947Y0119841D01*
X0033947Y0120839D02*
X0012460Y0120839D01*
X0012460Y0121838D02*
X0034010Y0121838D01*
X0033803Y0122836D02*
X0012460Y0122836D01*
X0012460Y0123835D02*
X0033547Y0123835D01*
X0033547Y0124833D02*
X0021119Y0124833D01*
X0017740Y0124833D02*
X0016740Y0124833D01*
X0016740Y0125832D02*
X0017740Y0125832D01*
X0017740Y0126830D02*
X0016740Y0126830D01*
X0016740Y0127829D02*
X0017740Y0127829D01*
X0013361Y0124833D02*
X0013161Y0124833D01*
X0007060Y0123835D02*
X0004500Y0123835D01*
X0004500Y0124833D02*
X0006359Y0124833D01*
X0006101Y0125832D02*
X0004500Y0125832D01*
X0004500Y0126830D02*
X0006101Y0126830D01*
X0006101Y0127829D02*
X0004500Y0127829D01*
X0004500Y0128827D02*
X0006101Y0128827D01*
X0006101Y0129826D02*
X0004500Y0129826D01*
X0004500Y0130824D02*
X0006101Y0130824D01*
X0006101Y0131823D02*
X0004500Y0131823D01*
X0004943Y0132821D02*
X0014052Y0132821D01*
X0005941Y0133820D02*
X0080600Y0133820D01*
X0089500Y0130000D02*
X0090500Y0130000D01*
X0090500Y0125850D01*
X0092497Y0125850D01*
X0092879Y0125952D01*
X0093221Y0126150D01*
X0093321Y0126250D01*
X0094406Y0126250D01*
X0094406Y0121216D01*
X0094000Y0121621D01*
X0094000Y0121621D01*
X0093121Y0122500D01*
X0086121Y0122500D01*
X0085500Y0123121D01*
X0085500Y0126250D01*
X0086679Y0126250D01*
X0086779Y0126150D01*
X0087121Y0125952D01*
X0087503Y0125850D01*
X0089500Y0125850D01*
X0089500Y0130000D01*
X0089500Y0129826D02*
X0090500Y0129826D01*
X0090500Y0128827D02*
X0089500Y0128827D01*
X0089500Y0127829D02*
X0090500Y0127829D01*
X0090500Y0126830D02*
X0089500Y0126830D01*
X0085500Y0125832D02*
X0094406Y0125832D01*
X0094406Y0124833D02*
X0085500Y0124833D01*
X0085500Y0123835D02*
X0094406Y0123835D01*
X0094406Y0122836D02*
X0085785Y0122836D01*
X0082541Y0121838D02*
X0079880Y0121838D01*
X0080545Y0120839D02*
X0083539Y0120839D01*
X0084538Y0119841D02*
X0080687Y0119841D01*
X0081371Y0117844D02*
X0084849Y0117844D01*
X0090000Y0113496D02*
X0090000Y0106500D01*
X0091881Y0104863D02*
X0117443Y0104863D01*
X0117443Y0105862D02*
X0092428Y0105862D01*
X0092487Y0106860D02*
X0117443Y0106860D01*
X0117443Y0107859D02*
X0092130Y0107859D01*
X0091600Y0108857D02*
X0122000Y0108857D01*
X0122000Y0109856D02*
X0116380Y0109856D01*
X0116612Y0110854D02*
X0122000Y0110854D01*
X0122000Y0111853D02*
X0116612Y0111853D01*
X0116612Y0112851D02*
X0122730Y0112851D01*
X0123728Y0113850D02*
X0116612Y0113850D01*
X0116612Y0114848D02*
X0124727Y0114848D01*
X0125725Y0115847D02*
X0116612Y0115847D01*
X0116716Y0116845D02*
X0126724Y0116845D01*
X0127722Y0117844D02*
X0117715Y0117844D01*
X0111466Y0121838D02*
X0107180Y0121838D01*
X0106909Y0122109D02*
X0105995Y0122487D01*
X0105005Y0122487D01*
X0104091Y0122109D01*
X0103391Y0121409D01*
X0103013Y0120495D01*
X0103013Y0119505D01*
X0103391Y0118591D01*
X0104091Y0117891D01*
X0104148Y0117868D01*
X0104148Y0117549D01*
X0097405Y0117549D01*
X0097405Y0126250D01*
X0098756Y0126250D01*
X0099400Y0126894D01*
X0099400Y0134000D01*
X0198879Y0134000D01*
X0200500Y0132379D01*
X0200500Y0120600D01*
X0190544Y0120600D01*
X0189900Y0119956D01*
X0189900Y0119918D01*
X0188794Y0121024D01*
X0188794Y0125447D01*
X0190275Y0125447D01*
X0190788Y0125961D01*
X0190981Y0125626D01*
X0191260Y0125347D01*
X0191602Y0125149D01*
X0191984Y0125047D01*
X0194240Y0125047D01*
X0194240Y0129000D01*
X0195240Y0129000D01*
X0195240Y0125047D01*
X0197497Y0125047D01*
X0197878Y0125149D01*
X0198220Y0125347D01*
X0198499Y0125626D01*
X0198697Y0125968D01*
X0198799Y0126350D01*
X0198799Y0129000D01*
X0195240Y0129000D01*
X0195240Y0130000D01*
X0194240Y0130000D01*
X0194240Y0133953D01*
X0191984Y0133953D01*
X0191602Y0133851D01*
X0191260Y0133653D01*
X0190981Y0133374D01*
X0190788Y0133039D01*
X0190275Y0133553D01*
X0184245Y0133553D01*
X0183601Y0132908D01*
X0183601Y0132600D01*
X0169936Y0132600D01*
X0169771Y0132765D01*
X0164922Y0132765D01*
X0164278Y0132121D01*
X0164278Y0130193D01*
X0164246Y0130117D01*
X0164246Y0128883D01*
X0164278Y0128807D01*
X0164278Y0126879D01*
X0164922Y0126235D01*
X0169771Y0126235D01*
X0169936Y0126400D01*
X0183394Y0126400D01*
X0183394Y0119368D01*
X0183806Y0118376D01*
X0184565Y0117617D01*
X0186711Y0115471D01*
X0187471Y0114711D01*
X0188463Y0114300D01*
X0189900Y0114300D01*
X0189900Y0114044D01*
X0190544Y0113400D01*
X0196900Y0113400D01*
X0196900Y0111000D01*
X0196500Y0111000D01*
X0196500Y0107500D01*
X0195500Y0107500D01*
X0195500Y0111000D01*
X0190803Y0111000D01*
X0190421Y0110898D01*
X0190079Y0110700D01*
X0189800Y0110421D01*
X0189602Y0110079D01*
X0189500Y0109697D01*
X0189500Y0107500D01*
X0195500Y0107500D01*
X0195500Y0106500D01*
X0196500Y0106500D01*
X0196500Y0103000D01*
X0200500Y0103000D01*
X0200500Y0093100D01*
X0190544Y0093100D01*
X0189900Y0092456D01*
X0189900Y0091987D01*
X0189775Y0091987D01*
X0181192Y0100571D01*
X0182134Y0101513D01*
X0182995Y0101513D01*
X0183909Y0101891D01*
X0184609Y0102591D01*
X0184987Y0103505D01*
X0184987Y0104495D01*
X0184609Y0105409D01*
X0183909Y0106109D01*
X0182995Y0106487D01*
X0182005Y0106487D01*
X0181091Y0106109D01*
X0180391Y0105409D01*
X0180013Y0104495D01*
X0180013Y0103634D01*
X0179707Y0103328D01*
X0179987Y0104005D01*
X0179987Y0104995D01*
X0179609Y0105909D01*
X0178909Y0106609D01*
X0177995Y0106987D01*
X0177005Y0106987D01*
X0176091Y0106609D01*
X0175482Y0106000D01*
X0172182Y0106000D01*
X0171656Y0106525D01*
X0166808Y0106525D01*
X0166164Y0105881D01*
X0166164Y0105383D01*
X0165859Y0105003D01*
X0165476Y0104621D01*
X0165476Y0104529D01*
X0165418Y0104456D01*
X0165476Y0103919D01*
X0165476Y0103379D01*
X0165542Y0103313D01*
X0165552Y0103221D01*
X0165973Y0102882D01*
X0166164Y0102691D01*
X0166164Y0099360D01*
X0166063Y0099260D01*
X0165866Y0098918D01*
X0165764Y0098536D01*
X0165764Y0097748D01*
X0165764Y0096960D01*
X0165866Y0096578D01*
X0166063Y0096236D01*
X0166164Y0096136D01*
X0166164Y0095423D01*
X0166063Y0095323D01*
X0165866Y0094981D01*
X0165764Y0094599D01*
X0165764Y0093811D01*
X0165764Y0093443D01*
X0165675Y0093443D01*
X0165675Y0094282D01*
X0165268Y0095265D01*
X0164515Y0096018D01*
X0163532Y0096425D01*
X0162468Y0096425D01*
X0161485Y0096018D01*
X0160732Y0095265D01*
X0160325Y0094282D01*
X0160325Y0093218D01*
X0160732Y0092235D01*
X0161485Y0091482D01*
X0162468Y0091075D01*
X0163025Y0091075D01*
X0161246Y0089297D01*
X0161246Y0087433D01*
X0160579Y0086765D01*
X0160172Y0085782D01*
X0160172Y0084718D01*
X0160579Y0083735D01*
X0161331Y0082982D01*
X0162314Y0082575D01*
X0163379Y0082575D01*
X0164362Y0082982D01*
X0165114Y0083735D01*
X0165521Y0084718D01*
X0165521Y0085782D01*
X0165114Y0086765D01*
X0164446Y0087433D01*
X0164446Y0087972D01*
X0164749Y0088274D01*
X0166164Y0088274D01*
X0166164Y0087549D01*
X0166063Y0087449D01*
X0165866Y0087107D01*
X0165764Y0086725D01*
X0165764Y0085937D01*
X0165764Y0085149D01*
X0165816Y0084953D01*
X0165764Y0084757D01*
X0165764Y0083969D01*
X0166650Y0083969D01*
X0166650Y0083968D01*
X0165764Y0083968D01*
X0165764Y0083180D01*
X0165816Y0082984D01*
X0165764Y0082788D01*
X0165764Y0081500D01*
X0169142Y0081500D01*
X0169142Y0081878D01*
X0169232Y0081878D01*
X0169232Y0083968D01*
X0169232Y0083968D01*
X0169232Y0081878D01*
X0169323Y0081878D01*
X0169323Y0081500D01*
X0172701Y0081500D01*
X0172701Y0082788D01*
X0172648Y0082984D01*
X0172701Y0083180D01*
X0172701Y0083968D01*
X0171814Y0083968D01*
X0171814Y0083969D01*
X0172701Y0083969D01*
X0172701Y0084757D01*
X0172648Y0084953D01*
X0172701Y0085149D01*
X0172701Y0085937D01*
X0172701Y0086306D01*
X0175932Y0086306D01*
X0187513Y0074725D01*
X0187513Y0074005D01*
X0187891Y0073091D01*
X0188591Y0072391D01*
X0189505Y0072013D01*
X0189900Y0072013D01*
X0189900Y0071544D01*
X0190544Y0070900D01*
X0196900Y0070900D01*
X0196900Y0068500D01*
X0196500Y0068500D01*
X0196500Y0065000D01*
X0195500Y0065000D01*
X0195500Y0068500D01*
X0190803Y0068500D01*
X0190421Y0068398D01*
X0190079Y0068200D01*
X0189800Y0067921D01*
X0189602Y0067579D01*
X0189500Y0067197D01*
X0189500Y0065000D01*
X0195500Y0065000D01*
X0195500Y0064000D01*
X0196500Y0064000D01*
X0196500Y0060500D01*
X0196900Y0060500D01*
X0196900Y0058100D01*
X0190544Y0058100D01*
X0189900Y0057456D01*
X0189900Y0056100D01*
X0164837Y0056100D01*
X0153837Y0045100D01*
X0142415Y0045100D01*
X0142415Y0046121D01*
X0142036Y0046500D01*
X0155121Y0046500D01*
X0165417Y0056796D01*
X0165417Y0073026D01*
X0165554Y0073026D01*
X0166198Y0073670D01*
X0166198Y0078519D01*
X0165554Y0079163D01*
X0149079Y0079163D01*
X0149079Y0080121D01*
X0149968Y0081010D01*
X0149968Y0082990D01*
X0148568Y0084389D01*
X0146589Y0084389D01*
X0145190Y0082990D01*
X0145190Y0081010D01*
X0146079Y0080121D01*
X0146079Y0079563D01*
X0145610Y0079563D01*
X0144822Y0079563D01*
X0144626Y0079510D01*
X0144430Y0079563D01*
X0143642Y0079563D01*
X0143642Y0078676D01*
X0143642Y0079563D01*
X0142854Y0079563D01*
X0142472Y0079461D01*
X0142130Y0079263D01*
X0142030Y0079163D01*
X0139686Y0079163D01*
X0138836Y0080012D01*
X0138836Y0098217D01*
X0139013Y0098217D01*
X0139013Y0098005D01*
X0139391Y0097091D01*
X0140091Y0096391D01*
X0141005Y0096013D01*
X0141995Y0096013D01*
X0142909Y0096391D01*
X0143609Y0097091D01*
X0143987Y0098005D01*
X0143987Y0098995D01*
X0143609Y0099909D01*
X0142909Y0100609D01*
X0141995Y0100987D01*
X0141134Y0100987D01*
X0140905Y0101217D01*
X0139236Y0101217D01*
X0139236Y0101685D01*
X0138349Y0101685D01*
X0138350Y0101685D01*
X0139236Y0101685D01*
X0139236Y0102473D01*
X0139184Y0102669D01*
X0139236Y0102866D01*
X0143013Y0102866D01*
X0143013Y0102505D02*
X0143391Y0101591D01*
X0144091Y0100891D01*
X0145005Y0100513D01*
X0145995Y0100513D01*
X0146909Y0100891D01*
X0147518Y0101500D01*
X0154121Y0101500D01*
X0156953Y0104331D01*
X0156953Y0106091D01*
X0157421Y0106091D01*
X0157421Y0106977D01*
X0157421Y0106091D01*
X0158209Y0106091D01*
X0158406Y0106143D01*
X0158602Y0106091D01*
X0159390Y0106091D01*
X0160178Y0106091D01*
X0160559Y0106193D01*
X0160901Y0106390D01*
X0161002Y0106491D01*
X0165554Y0106491D01*
X0166198Y0107135D01*
X0166198Y0111983D01*
X0165554Y0112628D01*
X0165417Y0112628D01*
X0165417Y0113235D01*
X0169578Y0113235D01*
X0170222Y0113879D01*
X0170222Y0119121D01*
X0169578Y0119765D01*
X0164729Y0119765D01*
X0164085Y0119121D01*
X0164085Y0117706D01*
X0162417Y0116039D01*
X0162417Y0112628D01*
X0162416Y0112628D01*
X0161980Y0113064D01*
X0161016Y0114028D01*
X0159094Y0114028D01*
X0158889Y0114232D01*
X0158889Y0115490D01*
X0157490Y0116889D01*
X0155510Y0116889D01*
X0154984Y0116363D01*
X0154984Y0117137D01*
X0148250Y0123871D01*
X0147371Y0124750D01*
X0114379Y0124750D01*
X0113500Y0123871D01*
X0108185Y0118556D01*
X0108185Y0117949D01*
X0107717Y0117949D01*
X0107717Y0113496D01*
X0107716Y0113496D01*
X0107716Y0117949D01*
X0107348Y0117949D01*
X0107348Y0118330D01*
X0107609Y0118591D01*
X0107987Y0119505D01*
X0107987Y0120495D01*
X0107609Y0121409D01*
X0106909Y0122109D01*
X0107845Y0120839D02*
X0110468Y0120839D01*
X0109469Y0119841D02*
X0107987Y0119841D01*
X0107713Y0118842D02*
X0108471Y0118842D01*
X0107717Y0117844D02*
X0107716Y0117844D01*
X0107716Y0116845D02*
X0107717Y0116845D01*
X0107716Y0115847D02*
X0107717Y0115847D01*
X0107716Y0114848D02*
X0107717Y0114848D01*
X0107716Y0113850D02*
X0107717Y0113850D01*
X0107716Y0112851D02*
X0107717Y0112851D01*
X0107716Y0111853D02*
X0107717Y0111853D01*
X0107716Y0110854D02*
X0107717Y0110854D01*
X0107716Y0109856D02*
X0107717Y0109856D01*
X0105748Y0113496D02*
X0105748Y0119752D01*
X0105500Y0120000D01*
X0103820Y0121838D02*
X0097405Y0121838D01*
X0097405Y0122836D02*
X0112465Y0122836D01*
X0113463Y0123835D02*
X0097405Y0123835D01*
X0097405Y0124833D02*
X0157400Y0124833D01*
X0157400Y0125617D02*
X0157400Y0118883D01*
X0157872Y0117744D01*
X0158744Y0116872D01*
X0159883Y0116400D01*
X0161117Y0116400D01*
X0162256Y0116872D01*
X0163128Y0117744D01*
X0163600Y0118883D01*
X0163600Y0125617D01*
X0163266Y0126423D01*
X0163722Y0126879D01*
X0163722Y0132121D01*
X0163078Y0132765D01*
X0158229Y0132765D01*
X0157664Y0132200D01*
X0152399Y0132200D01*
X0152399Y0132908D01*
X0151755Y0133553D01*
X0145725Y0133553D01*
X0145212Y0133039D01*
X0145019Y0133374D01*
X0144740Y0133653D01*
X0144398Y0133851D01*
X0144016Y0133953D01*
X0141760Y0133953D01*
X0141760Y0130000D01*
X0140760Y0130000D01*
X0140760Y0133953D01*
X0138503Y0133953D01*
X0138122Y0133851D01*
X0137780Y0133653D01*
X0137500Y0133374D01*
X0137303Y0133032D01*
X0137201Y0132650D01*
X0137201Y0130000D01*
X0140760Y0130000D01*
X0140760Y0129000D01*
X0141760Y0129000D01*
X0141760Y0125047D01*
X0144016Y0125047D01*
X0144398Y0125149D01*
X0144740Y0125347D01*
X0145019Y0125626D01*
X0145212Y0125961D01*
X0145725Y0125447D01*
X0151755Y0125447D01*
X0152399Y0126092D01*
X0152399Y0126800D01*
X0157664Y0126800D01*
X0157800Y0126664D01*
X0157800Y0126582D01*
X0157400Y0125617D01*
X0157489Y0125832D02*
X0152139Y0125832D01*
X0149285Y0122836D02*
X0157400Y0122836D01*
X0157400Y0121838D02*
X0150284Y0121838D01*
X0151282Y0120839D02*
X0157400Y0120839D01*
X0157400Y0119841D02*
X0152281Y0119841D01*
X0153279Y0118842D02*
X0157417Y0118842D01*
X0157831Y0117844D02*
X0154278Y0117844D01*
X0154984Y0116845D02*
X0155467Y0116845D01*
X0157533Y0116845D02*
X0158809Y0116845D01*
X0158532Y0115847D02*
X0162417Y0115847D01*
X0162417Y0114848D02*
X0158889Y0114848D01*
X0161194Y0113850D02*
X0162417Y0113850D01*
X0162417Y0112851D02*
X0162192Y0112851D01*
X0165417Y0112851D02*
X0171619Y0112851D01*
X0171680Y0112835D02*
X0173362Y0112835D01*
X0173362Y0116016D01*
X0170378Y0116016D01*
X0170378Y0114137D01*
X0170480Y0113756D01*
X0170678Y0113414D01*
X0170957Y0113134D01*
X0171299Y0112937D01*
X0171680Y0112835D01*
X0170455Y0113850D02*
X0170193Y0113850D01*
X0170222Y0114848D02*
X0170378Y0114848D01*
X0170378Y0115847D02*
X0170222Y0115847D01*
X0170222Y0116845D02*
X0173362Y0116845D01*
X0173362Y0116984D02*
X0173362Y0116016D01*
X0174331Y0116016D01*
X0174331Y0116984D01*
X0177315Y0116984D01*
X0177315Y0118863D01*
X0177213Y0119244D01*
X0177015Y0119586D01*
X0176736Y0119866D01*
X0176394Y0120063D01*
X0176012Y0120165D01*
X0174331Y0120165D01*
X0174331Y0116984D01*
X0173362Y0116984D01*
X0170378Y0116984D01*
X0170378Y0118863D01*
X0170480Y0119244D01*
X0170678Y0119586D01*
X0170957Y0119866D01*
X0171299Y0120063D01*
X0171680Y0120165D01*
X0173362Y0120165D01*
X0173362Y0116984D01*
X0173362Y0117844D02*
X0174331Y0117844D01*
X0174331Y0118842D02*
X0173362Y0118842D01*
X0173362Y0119841D02*
X0174331Y0119841D01*
X0176761Y0119841D02*
X0183394Y0119841D01*
X0183394Y0120839D02*
X0163600Y0120839D01*
X0163600Y0119841D02*
X0170932Y0119841D01*
X0170378Y0118842D02*
X0170222Y0118842D01*
X0170222Y0117844D02*
X0170378Y0117844D01*
X0173362Y0115847D02*
X0174331Y0115847D01*
X0174331Y0116016D02*
X0174331Y0112835D01*
X0176012Y0112835D01*
X0176394Y0112937D01*
X0176736Y0113134D01*
X0177015Y0113414D01*
X0177213Y0113756D01*
X0177315Y0114137D01*
X0177315Y0116016D01*
X0174331Y0116016D01*
X0174331Y0116845D02*
X0185336Y0116845D01*
X0184338Y0117844D02*
X0177315Y0117844D01*
X0177315Y0118842D02*
X0183612Y0118842D01*
X0183394Y0121838D02*
X0163600Y0121838D01*
X0163600Y0122836D02*
X0183394Y0122836D01*
X0183394Y0123835D02*
X0163600Y0123835D01*
X0163600Y0124833D02*
X0183394Y0124833D01*
X0183394Y0125832D02*
X0163511Y0125832D01*
X0163673Y0126830D02*
X0164327Y0126830D01*
X0164278Y0127829D02*
X0163722Y0127829D01*
X0163722Y0128827D02*
X0164270Y0128827D01*
X0164246Y0129826D02*
X0163722Y0129826D01*
X0163722Y0130824D02*
X0164278Y0130824D01*
X0164278Y0131823D02*
X0163722Y0131823D01*
X0157400Y0123835D02*
X0148287Y0123835D01*
X0145341Y0125832D02*
X0145138Y0125832D01*
X0141760Y0125832D02*
X0140760Y0125832D01*
X0140760Y0125047D02*
X0138503Y0125047D01*
X0138122Y0125149D01*
X0137780Y0125347D01*
X0137500Y0125626D01*
X0137303Y0125968D01*
X0137201Y0126350D01*
X0137201Y0129000D01*
X0140760Y0129000D01*
X0140760Y0125047D01*
X0140760Y0126830D02*
X0141760Y0126830D01*
X0141760Y0127829D02*
X0140760Y0127829D01*
X0140760Y0128827D02*
X0141760Y0128827D01*
X0140760Y0129826D02*
X0099400Y0129826D01*
X0099400Y0130824D02*
X0137201Y0130824D01*
X0137201Y0131823D02*
X0099400Y0131823D01*
X0099400Y0132821D02*
X0137247Y0132821D01*
X0138069Y0133820D02*
X0099400Y0133820D01*
X0099400Y0128827D02*
X0137201Y0128827D01*
X0137201Y0127829D02*
X0099400Y0127829D01*
X0099336Y0126830D02*
X0137201Y0126830D01*
X0137382Y0125832D02*
X0097405Y0125832D01*
X0094406Y0121838D02*
X0093784Y0121838D01*
X0097405Y0120839D02*
X0103155Y0120839D01*
X0103013Y0119841D02*
X0097405Y0119841D01*
X0097405Y0118842D02*
X0103287Y0118842D01*
X0104148Y0117844D02*
X0097405Y0117844D01*
X0080664Y0126830D02*
X0056000Y0126830D01*
X0056000Y0127829D02*
X0055000Y0127829D01*
X0055000Y0127240D02*
X0055000Y0130799D01*
X0052350Y0130799D01*
X0051968Y0130697D01*
X0051626Y0130499D01*
X0051347Y0130220D01*
X0051149Y0129878D01*
X0051047Y0129497D01*
X0051047Y0127240D01*
X0055000Y0127240D01*
X0055000Y0126830D02*
X0042453Y0126830D01*
X0042453Y0127829D02*
X0051047Y0127829D01*
X0051047Y0128827D02*
X0042453Y0128827D01*
X0042047Y0129826D02*
X0051135Y0129826D01*
X0055000Y0129826D02*
X0056000Y0129826D01*
X0056000Y0128827D02*
X0055000Y0128827D01*
X0062704Y0117700D02*
X0062704Y0117700D01*
X0078189Y0119811D02*
X0078189Y0113496D01*
X0078189Y0119811D02*
X0078200Y0120000D01*
X0054451Y0097873D02*
X0044348Y0097873D01*
X0045000Y0105000D02*
X0038000Y0105000D01*
X0037000Y0106000D01*
X0037000Y0112500D01*
X0037500Y0113000D01*
X0039500Y0113000D01*
X0045500Y0107000D01*
X0045500Y0105500D01*
X0045000Y0105000D01*
X0045500Y0105862D02*
X0037138Y0105862D01*
X0037000Y0106860D02*
X0045500Y0106860D01*
X0044641Y0107859D02*
X0037000Y0107859D01*
X0037000Y0108857D02*
X0043643Y0108857D01*
X0042644Y0109856D02*
X0037000Y0109856D01*
X0037000Y0110854D02*
X0041646Y0110854D01*
X0040647Y0111853D02*
X0037000Y0111853D01*
X0037351Y0112851D02*
X0039649Y0112851D01*
X0035400Y0113850D02*
X0031886Y0113850D01*
X0019805Y0119841D02*
X0015100Y0119841D01*
X0007060Y0120839D02*
X0004500Y0120839D01*
X0004500Y0121838D02*
X0007060Y0121838D01*
X0007060Y0122836D02*
X0004500Y0122836D01*
X0037500Y0127829D02*
X0038500Y0127829D01*
X0038500Y0128827D02*
X0037500Y0128827D01*
X0037500Y0129826D02*
X0038500Y0129826D01*
X0052874Y0089874D02*
X0058504Y0089874D01*
X0058504Y0087905D02*
X0058504Y0085937D01*
X0058504Y0085937D01*
X0058504Y0086890D02*
X0058504Y0086890D01*
X0058504Y0087888D02*
X0058504Y0087888D01*
X0052874Y0089874D02*
X0050000Y0087000D01*
X0062557Y0079900D02*
X0066317Y0079900D01*
X0093556Y0059930D02*
X0117443Y0059930D01*
X0117443Y0058932D02*
X0094275Y0058932D01*
X0094456Y0057933D02*
X0117443Y0057933D01*
X0117443Y0056934D02*
X0094219Y0056934D01*
X0093568Y0055936D02*
X0117540Y0055936D01*
X0116585Y0053939D02*
X0124818Y0053939D01*
X0125816Y0054937D02*
X0106647Y0054937D01*
X0105748Y0054937D02*
X0105748Y0054937D01*
X0105748Y0054957D02*
X0105748Y0050504D01*
X0105748Y0050504D01*
X0105748Y0054957D01*
X0104849Y0054937D02*
X0093568Y0054937D01*
X0091969Y0058000D02*
X0091969Y0050504D01*
X0088032Y0050943D02*
X0088031Y0050943D01*
X0088031Y0049945D02*
X0088032Y0049945D01*
X0088031Y0048946D02*
X0088032Y0048946D01*
X0088031Y0047948D02*
X0088032Y0047948D01*
X0088031Y0046949D02*
X0088032Y0046949D01*
X0095437Y0045951D02*
X0098243Y0045951D01*
X0098243Y0044952D02*
X0096369Y0044952D01*
X0097100Y0043954D02*
X0098243Y0043954D01*
X0098243Y0042955D02*
X0097100Y0042955D01*
X0097100Y0041957D02*
X0098243Y0041957D01*
X0098243Y0040958D02*
X0097100Y0040958D01*
X0097100Y0039960D02*
X0098243Y0039960D01*
X0098776Y0038961D02*
X0097100Y0038961D01*
X0097100Y0037963D02*
X0099774Y0037963D01*
X0100773Y0036964D02*
X0097100Y0036964D01*
X0097100Y0035966D02*
X0102185Y0035966D01*
X0102185Y0034967D02*
X0097100Y0034967D01*
X0097100Y0033969D02*
X0105169Y0033969D01*
X0106138Y0033969D02*
X0109278Y0033969D01*
X0109122Y0033516D02*
X0106138Y0033516D01*
X0106138Y0030335D01*
X0107820Y0030335D01*
X0108201Y0030437D01*
X0108543Y0030634D01*
X0108822Y0030914D01*
X0109020Y0031256D01*
X0109122Y0031637D01*
X0109122Y0033516D01*
X0109122Y0032970D02*
X0109278Y0032970D01*
X0109278Y0031972D02*
X0109122Y0031972D01*
X0108857Y0030973D02*
X0109684Y0030973D01*
X0110763Y0029975D02*
X0097100Y0029975D01*
X0097100Y0030973D02*
X0102450Y0030973D01*
X0102185Y0031972D02*
X0097100Y0031972D01*
X0097100Y0032970D02*
X0102185Y0032970D01*
X0105169Y0032970D02*
X0106138Y0032970D01*
X0106138Y0031972D02*
X0105169Y0031972D01*
X0105169Y0030973D02*
X0106138Y0030973D01*
X0111684Y0029054D02*
X0111684Y0029054D01*
X0111761Y0028976D02*
X0096898Y0028976D01*
X0095899Y0027978D02*
X0112760Y0027978D01*
X0113500Y0029500D02*
X0112346Y0030654D01*
X0112346Y0034000D01*
X0113500Y0029500D02*
X0123000Y0029500D01*
X0130500Y0029500D01*
X0131642Y0028358D01*
X0132441Y0028358D01*
X0132299Y0029500D01*
X0130500Y0029500D01*
X0132100Y0031972D02*
X0138966Y0031972D01*
X0139354Y0030973D02*
X0139965Y0030973D01*
X0139446Y0029975D02*
X0140963Y0029975D01*
X0142201Y0031000D02*
X0143200Y0031000D01*
X0143200Y0031200D01*
X0141000Y0033400D01*
X0141400Y0033000D01*
X0140201Y0033000D01*
X0137559Y0035642D01*
X0142201Y0031000D01*
X0143200Y0031000D02*
X0162500Y0031000D01*
X0167012Y0035512D01*
X0170000Y0035512D01*
X0176415Y0035966D02*
X0179235Y0035966D01*
X0179235Y0036964D02*
X0176415Y0036964D01*
X0176415Y0037963D02*
X0179427Y0037963D01*
X0180900Y0038961D02*
X0176415Y0038961D01*
X0176415Y0034967D02*
X0179235Y0034967D01*
X0179235Y0033969D02*
X0176415Y0033969D01*
X0176415Y0032970D02*
X0179235Y0032970D01*
X0179879Y0031722D02*
X0179235Y0031078D01*
X0179235Y0026229D01*
X0179376Y0026088D01*
X0176415Y0026088D01*
X0176415Y0028093D01*
X0175771Y0028738D01*
X0164229Y0028738D01*
X0163892Y0028400D01*
X0161860Y0028400D01*
X0161617Y0028643D01*
X0154407Y0028643D01*
X0153762Y0027999D01*
X0153762Y0020001D01*
X0154407Y0019357D01*
X0161617Y0019357D01*
X0162261Y0020001D01*
X0162261Y0022500D01*
X0163585Y0022500D01*
X0163585Y0020883D01*
X0164229Y0020239D01*
X0175771Y0020239D01*
X0176415Y0020883D01*
X0176415Y0022888D01*
X0181651Y0022888D01*
X0183163Y0024400D01*
X0184100Y0025337D01*
X0184100Y0025585D01*
X0185121Y0025585D01*
X0185765Y0026229D01*
X0185765Y0031078D01*
X0185121Y0031722D01*
X0179879Y0031722D01*
X0179235Y0030973D02*
X0164736Y0030973D01*
X0163737Y0029975D02*
X0179235Y0029975D01*
X0179235Y0028976D02*
X0139446Y0028976D01*
X0139446Y0027978D02*
X0142739Y0027978D01*
X0142739Y0026979D02*
X0139446Y0026979D01*
X0139446Y0025981D02*
X0142739Y0025981D01*
X0139000Y0024000D02*
X0146988Y0024000D01*
X0151238Y0023984D02*
X0153762Y0023984D01*
X0153762Y0024982D02*
X0151238Y0024982D01*
X0151238Y0025981D02*
X0153762Y0025981D01*
X0153762Y0026979D02*
X0151238Y0026979D01*
X0151238Y0027978D02*
X0153762Y0027978D01*
X0159697Y0032970D02*
X0162208Y0032970D01*
X0163206Y0033969D02*
X0159799Y0033969D01*
X0159799Y0034967D02*
X0163585Y0034967D01*
X0163585Y0035966D02*
X0159799Y0035966D01*
X0159799Y0037000D02*
X0159799Y0039650D01*
X0159697Y0040032D01*
X0159499Y0040374D01*
X0159220Y0040653D01*
X0158878Y0040851D01*
X0158497Y0040953D01*
X0156240Y0040953D01*
X0156240Y0037000D01*
X0159799Y0037000D01*
X0159799Y0037963D02*
X0163585Y0037963D01*
X0163585Y0038961D02*
X0159799Y0038961D01*
X0159716Y0039960D02*
X0180900Y0039960D01*
X0180900Y0040958D02*
X0154900Y0040958D01*
X0155220Y0041957D02*
X0180900Y0041957D01*
X0180900Y0042955D02*
X0156218Y0042955D01*
X0157217Y0043954D02*
X0180900Y0043954D01*
X0181690Y0044952D02*
X0158215Y0044952D01*
X0159214Y0045951D02*
X0182688Y0045951D01*
X0183687Y0046949D02*
X0160212Y0046949D01*
X0161211Y0047948D02*
X0184685Y0047948D01*
X0186000Y0047000D02*
X0196000Y0047000D01*
X0200500Y0042955D02*
X0184218Y0042955D01*
X0184100Y0041957D02*
X0200500Y0041957D01*
X0200500Y0040958D02*
X0184100Y0040958D01*
X0184100Y0039960D02*
X0200500Y0039960D01*
X0200500Y0038961D02*
X0184100Y0038961D01*
X0185573Y0037963D02*
X0200500Y0037963D01*
X0200500Y0036964D02*
X0185765Y0036964D01*
X0185765Y0035966D02*
X0200500Y0035966D01*
X0200500Y0034967D02*
X0185765Y0034967D01*
X0185765Y0033969D02*
X0200500Y0033969D01*
X0190415Y0032970D02*
X0185765Y0032970D01*
X0185765Y0030973D02*
X0189900Y0030973D01*
X0189900Y0029975D02*
X0185765Y0029975D01*
X0185765Y0028976D02*
X0189855Y0028976D01*
X0188856Y0027978D02*
X0185765Y0027978D01*
X0185765Y0026979D02*
X0187858Y0026979D01*
X0186859Y0025981D02*
X0185517Y0025981D01*
X0185861Y0024982D02*
X0183745Y0024982D01*
X0182746Y0023984D02*
X0184862Y0023984D01*
X0183864Y0022985D02*
X0181748Y0022985D01*
X0182865Y0021987D02*
X0176415Y0021987D01*
X0176415Y0020988D02*
X0181867Y0020988D01*
X0180868Y0019990D02*
X0162250Y0019990D01*
X0162261Y0020988D02*
X0163585Y0020988D01*
X0163585Y0021987D02*
X0162261Y0021987D01*
X0170000Y0024488D02*
X0180988Y0024488D01*
X0182500Y0026000D01*
X0182500Y0028654D01*
X0179235Y0027978D02*
X0176415Y0027978D01*
X0176415Y0026979D02*
X0179235Y0026979D01*
X0176415Y0031972D02*
X0189900Y0031972D01*
X0182500Y0035346D02*
X0182500Y0043500D01*
X0186000Y0047000D01*
X0186215Y0044952D02*
X0189900Y0044952D01*
X0189991Y0043954D02*
X0185217Y0043954D01*
X0189900Y0048946D02*
X0162209Y0048946D01*
X0163208Y0049945D02*
X0189900Y0049945D01*
X0190501Y0050943D02*
X0164206Y0050943D01*
X0165205Y0051942D02*
X0189900Y0051942D01*
X0189900Y0056934D02*
X0165417Y0056934D01*
X0165417Y0057933D02*
X0190377Y0057933D01*
X0190803Y0060500D02*
X0195500Y0060500D01*
X0195500Y0064000D01*
X0189500Y0064000D01*
X0189500Y0061803D01*
X0189602Y0061421D01*
X0189800Y0061079D01*
X0190079Y0060800D01*
X0190421Y0060602D01*
X0190803Y0060500D01*
X0189950Y0060929D02*
X0165417Y0060929D01*
X0165417Y0061927D02*
X0189500Y0061927D01*
X0189500Y0062926D02*
X0165417Y0062926D01*
X0165417Y0063924D02*
X0189500Y0063924D01*
X0189500Y0065921D02*
X0165417Y0065921D01*
X0165417Y0064923D02*
X0195500Y0064923D01*
X0195500Y0065921D02*
X0196500Y0065921D01*
X0196500Y0066920D02*
X0195500Y0066920D01*
X0195500Y0067918D02*
X0196500Y0067918D01*
X0196900Y0068917D02*
X0165417Y0068917D01*
X0165417Y0069915D02*
X0196900Y0069915D01*
X0196000Y0074500D02*
X0190000Y0074500D01*
X0176594Y0087906D01*
X0169232Y0087906D01*
X0169232Y0089874D02*
X0164086Y0089874D01*
X0162846Y0088634D01*
X0162846Y0085250D01*
X0160704Y0086890D02*
X0138836Y0086890D01*
X0138836Y0087888D02*
X0161246Y0087888D01*
X0161246Y0088887D02*
X0138836Y0088887D01*
X0138836Y0089885D02*
X0161835Y0089885D01*
X0162833Y0090884D02*
X0138836Y0090884D01*
X0138836Y0091882D02*
X0161085Y0091882D01*
X0160465Y0092881D02*
X0138836Y0092881D01*
X0138836Y0093879D02*
X0160325Y0093879D01*
X0160572Y0094878D02*
X0138836Y0094878D01*
X0138836Y0095876D02*
X0161344Y0095876D01*
X0163000Y0093750D02*
X0164907Y0091843D01*
X0169232Y0091843D01*
X0169232Y0093811D02*
X0165764Y0093811D01*
X0169232Y0093811D01*
X0169232Y0093811D01*
X0172701Y0093811D01*
X0172701Y0094180D01*
X0175558Y0094180D01*
X0187513Y0082225D01*
X0187513Y0081505D01*
X0187891Y0080591D01*
X0188591Y0079891D01*
X0189505Y0079513D01*
X0189900Y0079513D01*
X0189900Y0079044D01*
X0190544Y0078400D01*
X0200500Y0078400D01*
X0200500Y0078100D01*
X0190544Y0078100D01*
X0189900Y0077456D01*
X0189900Y0076987D01*
X0189775Y0076987D01*
X0177257Y0089505D01*
X0175932Y0089505D01*
X0172301Y0089505D01*
X0172301Y0092199D01*
X0172401Y0092299D01*
X0172599Y0092641D01*
X0172701Y0093023D01*
X0172701Y0093811D01*
X0169232Y0093811D01*
X0169232Y0093811D01*
X0169232Y0095780D02*
X0176220Y0095780D01*
X0190000Y0082000D01*
X0196000Y0082000D01*
X0200500Y0085600D02*
X0190544Y0085600D01*
X0189900Y0084956D01*
X0189900Y0084487D01*
X0189775Y0084487D01*
X0176883Y0097380D01*
X0175558Y0097380D01*
X0172701Y0097380D01*
X0172701Y0097748D01*
X0169232Y0097748D01*
X0165764Y0097748D01*
X0169232Y0097748D01*
X0169232Y0097748D01*
X0172701Y0097748D01*
X0172701Y0098117D01*
X0179121Y0098117D01*
X0187513Y0089725D01*
X0187513Y0089005D01*
X0187891Y0088091D01*
X0188591Y0087391D01*
X0189505Y0087013D01*
X0189900Y0087013D01*
X0189900Y0086544D01*
X0190544Y0085900D01*
X0200500Y0085900D01*
X0200500Y0085600D01*
X0200500Y0085891D02*
X0188371Y0085891D01*
X0187373Y0086890D02*
X0189900Y0086890D01*
X0188094Y0087888D02*
X0186374Y0087888D01*
X0185376Y0088887D02*
X0187562Y0088887D01*
X0187352Y0089885D02*
X0184377Y0089885D01*
X0183379Y0090884D02*
X0186353Y0090884D01*
X0185355Y0091882D02*
X0182380Y0091882D01*
X0181382Y0092881D02*
X0184356Y0092881D01*
X0183358Y0093879D02*
X0180383Y0093879D01*
X0179385Y0094878D02*
X0182359Y0094878D01*
X0181361Y0095876D02*
X0178386Y0095876D01*
X0177388Y0096875D02*
X0180362Y0096875D01*
X0179364Y0097873D02*
X0172701Y0097873D01*
X0169232Y0097748D02*
X0169232Y0097748D01*
X0169232Y0099717D02*
X0179783Y0099717D01*
X0190000Y0089500D01*
X0196000Y0089500D01*
X0190325Y0092881D02*
X0188882Y0092881D01*
X0187883Y0093879D02*
X0200500Y0093879D01*
X0200500Y0094878D02*
X0186885Y0094878D01*
X0185886Y0095876D02*
X0200500Y0095876D01*
X0200500Y0096875D02*
X0184888Y0096875D01*
X0183889Y0097873D02*
X0200500Y0097873D01*
X0200500Y0098872D02*
X0182891Y0098872D01*
X0181892Y0099870D02*
X0200500Y0099870D01*
X0200500Y0100869D02*
X0181490Y0100869D01*
X0183852Y0101868D02*
X0200500Y0101868D01*
X0200500Y0102866D02*
X0184723Y0102866D01*
X0184987Y0103865D02*
X0189635Y0103865D01*
X0189602Y0103921D02*
X0189800Y0103579D01*
X0190079Y0103300D01*
X0190421Y0103102D01*
X0190803Y0103000D01*
X0195500Y0103000D01*
X0195500Y0106500D01*
X0189500Y0106500D01*
X0189500Y0104303D01*
X0189602Y0103921D01*
X0189500Y0104863D02*
X0184835Y0104863D01*
X0184156Y0105862D02*
X0189500Y0105862D01*
X0189500Y0107859D02*
X0166198Y0107859D01*
X0166198Y0108857D02*
X0189500Y0108857D01*
X0189542Y0109856D02*
X0166198Y0109856D01*
X0166198Y0110854D02*
X0190345Y0110854D01*
X0190095Y0113850D02*
X0177238Y0113850D01*
X0177315Y0114848D02*
X0187333Y0114848D01*
X0186335Y0115847D02*
X0177315Y0115847D01*
X0174331Y0114848D02*
X0173362Y0114848D01*
X0173362Y0113850D02*
X0174331Y0113850D01*
X0174331Y0112851D02*
X0173362Y0112851D01*
X0176074Y0112851D02*
X0196900Y0112851D01*
X0196900Y0111853D02*
X0166198Y0111853D01*
X0163224Y0116845D02*
X0162191Y0116845D01*
X0163169Y0117844D02*
X0164085Y0117844D01*
X0164085Y0118842D02*
X0163583Y0118842D01*
X0159390Y0109559D02*
X0159390Y0105500D01*
X0159390Y0106091D02*
X0159390Y0106977D01*
X0159390Y0106977D01*
X0159390Y0106091D01*
X0159390Y0106860D02*
X0159390Y0106860D01*
X0157421Y0106860D02*
X0157421Y0106860D01*
X0157421Y0106977D02*
X0157421Y0106977D01*
X0156953Y0105862D02*
X0166164Y0105862D01*
X0165924Y0106860D02*
X0176698Y0106860D01*
X0178302Y0106860D02*
X0195500Y0106860D01*
X0195500Y0105862D02*
X0196500Y0105862D01*
X0196500Y0104863D02*
X0195500Y0104863D01*
X0195500Y0103865D02*
X0196500Y0103865D01*
X0196500Y0107859D02*
X0195500Y0107859D01*
X0195500Y0108857D02*
X0196500Y0108857D01*
X0196500Y0109856D02*
X0195500Y0109856D01*
X0195500Y0110854D02*
X0196500Y0110854D01*
X0200500Y0120839D02*
X0188979Y0120839D01*
X0188794Y0121838D02*
X0200500Y0121838D01*
X0200500Y0122836D02*
X0188794Y0122836D01*
X0188794Y0123835D02*
X0200500Y0123835D01*
X0200500Y0124833D02*
X0188794Y0124833D01*
X0190659Y0125832D02*
X0190862Y0125832D01*
X0194240Y0125832D02*
X0195240Y0125832D01*
X0195240Y0126830D02*
X0194240Y0126830D01*
X0194240Y0127829D02*
X0195240Y0127829D01*
X0195240Y0128827D02*
X0194240Y0128827D01*
X0195240Y0129826D02*
X0200500Y0129826D01*
X0200500Y0130824D02*
X0198799Y0130824D01*
X0198799Y0130000D02*
X0198799Y0132650D01*
X0198697Y0133032D01*
X0198499Y0133374D01*
X0198220Y0133653D01*
X0197878Y0133851D01*
X0197497Y0133953D01*
X0195240Y0133953D01*
X0195240Y0130000D01*
X0198799Y0130000D01*
X0198799Y0128827D02*
X0200500Y0128827D01*
X0200500Y0127829D02*
X0198799Y0127829D01*
X0198799Y0126830D02*
X0200500Y0126830D01*
X0200500Y0125832D02*
X0198618Y0125832D01*
X0195240Y0130824D02*
X0194240Y0130824D01*
X0194240Y0131823D02*
X0195240Y0131823D01*
X0195240Y0132821D02*
X0194240Y0132821D01*
X0194240Y0133820D02*
X0195240Y0133820D01*
X0197931Y0133820D02*
X0199059Y0133820D01*
X0198753Y0132821D02*
X0200057Y0132821D01*
X0200500Y0131823D02*
X0198799Y0131823D01*
X0191549Y0133820D02*
X0144451Y0133820D01*
X0141760Y0133820D02*
X0140760Y0133820D01*
X0140760Y0132821D02*
X0141760Y0132821D01*
X0141760Y0131823D02*
X0140760Y0131823D01*
X0140760Y0130824D02*
X0141760Y0130824D01*
X0152399Y0132821D02*
X0183601Y0132821D01*
X0159390Y0109559D02*
X0157421Y0109559D01*
X0157421Y0105500D01*
X0156953Y0104863D02*
X0165718Y0104863D01*
X0165476Y0103865D02*
X0156486Y0103865D01*
X0155487Y0102866D02*
X0165989Y0102866D01*
X0166164Y0101868D02*
X0154489Y0101868D01*
X0152879Y0104500D02*
X0147518Y0104500D01*
X0146909Y0105109D01*
X0145995Y0105487D01*
X0145005Y0105487D01*
X0144091Y0105109D01*
X0143391Y0104409D01*
X0143013Y0103495D01*
X0143013Y0102505D01*
X0143277Y0101868D02*
X0139236Y0101868D01*
X0139815Y0101685D02*
X0135768Y0101685D01*
X0132685Y0101685D01*
X0132299Y0101685D02*
X0132299Y0101600D01*
X0131500Y0101600D01*
X0131500Y0107379D01*
X0132180Y0108059D01*
X0138802Y0108059D01*
X0138802Y0107135D01*
X0139446Y0106491D01*
X0153953Y0106491D01*
X0153953Y0105574D01*
X0152879Y0104500D01*
X0153242Y0104863D02*
X0147155Y0104863D01*
X0143845Y0104863D02*
X0139236Y0104863D01*
X0139236Y0104335D02*
X0139236Y0105623D01*
X0139134Y0106004D01*
X0138937Y0106346D01*
X0138657Y0106625D01*
X0138315Y0106823D01*
X0137934Y0106925D01*
X0135858Y0106925D01*
X0135858Y0104335D01*
X0135677Y0104335D01*
X0135677Y0106925D01*
X0133602Y0106925D01*
X0133220Y0106823D01*
X0132878Y0106625D01*
X0132599Y0106346D01*
X0132401Y0106004D01*
X0132299Y0105623D01*
X0132299Y0104335D01*
X0135677Y0104335D01*
X0135677Y0104154D01*
X0132299Y0104154D01*
X0132299Y0102866D01*
X0131500Y0102866D01*
X0132299Y0102866D02*
X0132352Y0102669D01*
X0132299Y0102473D01*
X0132299Y0101685D01*
X0133186Y0101685D01*
X0133186Y0101685D01*
X0132299Y0101685D01*
X0132299Y0101868D02*
X0131500Y0101868D01*
X0131500Y0103865D02*
X0132299Y0103865D01*
X0132299Y0104863D02*
X0131500Y0104863D01*
X0131500Y0105862D02*
X0132363Y0105862D01*
X0131500Y0106860D02*
X0133359Y0106860D01*
X0131980Y0107859D02*
X0138802Y0107859D01*
X0139076Y0106860D02*
X0138177Y0106860D01*
X0139172Y0105862D02*
X0153953Y0105862D01*
X0157421Y0109559D02*
X0157421Y0109559D01*
X0159390Y0109559D01*
X0159390Y0109559D01*
X0166164Y0100869D02*
X0146855Y0100869D01*
X0144145Y0100869D02*
X0142281Y0100869D01*
X0143625Y0099870D02*
X0166164Y0099870D01*
X0165854Y0098872D02*
X0143987Y0098872D01*
X0143933Y0097873D02*
X0165764Y0097873D01*
X0165787Y0096875D02*
X0143393Y0096875D01*
X0139607Y0096875D02*
X0138836Y0096875D01*
X0138836Y0097873D02*
X0139067Y0097873D01*
X0138000Y0101685D02*
X0135768Y0101685D01*
X0135768Y0101685D01*
X0135768Y0103776D01*
X0135858Y0103776D01*
X0135858Y0104153D01*
X0135677Y0104153D01*
X0135677Y0103776D01*
X0135768Y0103776D01*
X0135768Y0101685D01*
X0135768Y0101868D02*
X0135768Y0101868D01*
X0135768Y0102866D02*
X0135768Y0102866D01*
X0135677Y0103865D02*
X0135858Y0103865D01*
X0135858Y0104154D02*
X0135858Y0104335D01*
X0139236Y0104335D01*
X0139236Y0104154D02*
X0135858Y0104154D01*
X0135858Y0104863D02*
X0135677Y0104863D01*
X0135677Y0105862D02*
X0135858Y0105862D01*
X0135858Y0106860D02*
X0135677Y0106860D01*
X0139236Y0104154D02*
X0139236Y0102866D01*
X0139236Y0103865D02*
X0143166Y0103865D01*
X0164656Y0095876D02*
X0166164Y0095876D01*
X0165839Y0094878D02*
X0165428Y0094878D01*
X0165675Y0093879D02*
X0165764Y0093879D01*
X0172301Y0091882D02*
X0177855Y0091882D01*
X0178853Y0090884D02*
X0172301Y0090884D01*
X0172301Y0089885D02*
X0179852Y0089885D01*
X0180850Y0088887D02*
X0177876Y0088887D01*
X0178874Y0087888D02*
X0181849Y0087888D01*
X0182847Y0086890D02*
X0179873Y0086890D01*
X0180871Y0085891D02*
X0183846Y0085891D01*
X0184844Y0084893D02*
X0181870Y0084893D01*
X0182868Y0083894D02*
X0185843Y0083894D01*
X0186841Y0082896D02*
X0183867Y0082896D01*
X0184865Y0081897D02*
X0187513Y0081897D01*
X0187764Y0080899D02*
X0185864Y0080899D01*
X0186862Y0079900D02*
X0188582Y0079900D01*
X0187861Y0078902D02*
X0190043Y0078902D01*
X0190348Y0077903D02*
X0188859Y0077903D01*
X0186331Y0075906D02*
X0166198Y0075906D01*
X0166198Y0074908D02*
X0187330Y0074908D01*
X0187552Y0073909D02*
X0166198Y0073909D01*
X0165417Y0072911D02*
X0188072Y0072911D01*
X0189900Y0071912D02*
X0165417Y0071912D01*
X0165417Y0070914D02*
X0190531Y0070914D01*
X0189798Y0067918D02*
X0165417Y0067918D01*
X0165417Y0066920D02*
X0189500Y0066920D01*
X0195500Y0063924D02*
X0196500Y0063924D01*
X0196500Y0062926D02*
X0195500Y0062926D01*
X0195500Y0061927D02*
X0196500Y0061927D01*
X0196500Y0060929D02*
X0195500Y0060929D01*
X0196900Y0059930D02*
X0165417Y0059930D01*
X0165417Y0058932D02*
X0196900Y0058932D01*
X0196000Y0054500D02*
X0165500Y0054500D01*
X0154500Y0043500D01*
X0139346Y0043500D01*
X0142415Y0045951D02*
X0154688Y0045951D01*
X0155571Y0046949D02*
X0155687Y0046949D01*
X0156569Y0047948D02*
X0156685Y0047948D01*
X0157568Y0048946D02*
X0157684Y0048946D01*
X0158566Y0049945D02*
X0158682Y0049945D01*
X0159565Y0050943D02*
X0159681Y0050943D01*
X0160563Y0051942D02*
X0160679Y0051942D01*
X0161562Y0052940D02*
X0161678Y0052940D01*
X0162560Y0053939D02*
X0162676Y0053939D01*
X0163559Y0054937D02*
X0163675Y0054937D01*
X0164557Y0055936D02*
X0164673Y0055936D01*
X0148047Y0066100D02*
X0147300Y0066100D01*
X0147300Y0066500D01*
X0144000Y0066500D01*
X0144000Y0067500D01*
X0143000Y0067500D01*
X0143000Y0071650D01*
X0142600Y0071650D01*
X0142600Y0072694D01*
X0142854Y0072626D01*
X0143642Y0072626D01*
X0144430Y0072626D01*
X0144626Y0072679D01*
X0144822Y0072626D01*
X0145610Y0072626D01*
X0145610Y0073513D01*
X0145610Y0072626D01*
X0146398Y0072626D01*
X0146780Y0072728D01*
X0147122Y0072926D01*
X0147222Y0073026D01*
X0148047Y0073026D01*
X0148047Y0066100D01*
X0148047Y0066920D02*
X0144000Y0066920D01*
X0144000Y0067500D02*
X0147300Y0067500D01*
X0147300Y0070347D01*
X0147198Y0070729D01*
X0147000Y0071071D01*
X0146721Y0071350D01*
X0146379Y0071548D01*
X0145997Y0071650D01*
X0144000Y0071650D01*
X0144000Y0067500D01*
X0144000Y0067918D02*
X0143000Y0067918D01*
X0143000Y0068917D02*
X0144000Y0068917D01*
X0144000Y0069915D02*
X0143000Y0069915D01*
X0143000Y0070914D02*
X0144000Y0070914D01*
X0143642Y0072500D02*
X0143642Y0076094D01*
X0145610Y0076094D01*
X0145610Y0076095D01*
X0143642Y0076095D01*
X0143642Y0076094D01*
X0145610Y0076094D01*
X0145610Y0080500D01*
X0145301Y0080899D02*
X0138836Y0080899D01*
X0138836Y0081897D02*
X0145190Y0081897D01*
X0145190Y0082896D02*
X0138836Y0082896D01*
X0138836Y0083894D02*
X0146095Y0083894D01*
X0149063Y0083894D02*
X0160513Y0083894D01*
X0160172Y0084893D02*
X0138836Y0084893D01*
X0138836Y0085891D02*
X0160217Y0085891D01*
X0161540Y0082896D02*
X0149968Y0082896D01*
X0149968Y0081897D02*
X0165764Y0081897D01*
X0165764Y0081319D02*
X0165764Y0080031D01*
X0165866Y0079649D01*
X0166063Y0079307D01*
X0166343Y0079028D01*
X0166685Y0078831D01*
X0167066Y0078728D01*
X0169142Y0078728D01*
X0169142Y0081319D01*
X0169323Y0081319D01*
X0169323Y0081500D01*
X0169142Y0081500D01*
X0169142Y0081319D01*
X0165764Y0081319D01*
X0165764Y0080899D02*
X0149856Y0080899D01*
X0149079Y0079900D02*
X0165799Y0079900D01*
X0165815Y0078902D02*
X0166562Y0078902D01*
X0166198Y0077903D02*
X0184334Y0077903D01*
X0185333Y0076905D02*
X0166198Y0076905D01*
X0169142Y0078902D02*
X0169323Y0078902D01*
X0169323Y0078728D02*
X0171398Y0078728D01*
X0171780Y0078831D01*
X0172122Y0079028D01*
X0172401Y0079307D01*
X0172599Y0079649D01*
X0172701Y0080031D01*
X0172701Y0081319D01*
X0169323Y0081319D01*
X0169323Y0078728D01*
X0169323Y0079900D02*
X0169142Y0079900D01*
X0169142Y0080899D02*
X0169323Y0080899D01*
X0169232Y0081409D02*
X0169232Y0083969D01*
X0169232Y0085937D01*
X0169232Y0085937D01*
X0174000Y0085937D01*
X0172701Y0085937D02*
X0171814Y0085937D01*
X0171814Y0085937D01*
X0172701Y0085937D01*
X0172701Y0085891D02*
X0176346Y0085891D01*
X0177344Y0084893D02*
X0172664Y0084893D01*
X0172701Y0083894D02*
X0178343Y0083894D01*
X0179341Y0082896D02*
X0172672Y0082896D01*
X0172701Y0081897D02*
X0180340Y0081897D01*
X0181338Y0080899D02*
X0172701Y0080899D01*
X0172666Y0079900D02*
X0182337Y0079900D01*
X0183336Y0078902D02*
X0171903Y0078902D01*
X0169232Y0081897D02*
X0169232Y0081897D01*
X0169232Y0082896D02*
X0169232Y0082896D01*
X0169232Y0083894D02*
X0169232Y0083894D01*
X0169232Y0083969D02*
X0174000Y0083969D01*
X0171814Y0083969D02*
X0171814Y0083969D01*
X0169232Y0083969D02*
X0169232Y0085937D01*
X0169232Y0083969D01*
X0169232Y0083969D01*
X0169232Y0084893D02*
X0169232Y0084893D01*
X0169232Y0085891D02*
X0169232Y0085891D01*
X0166651Y0085937D02*
X0166650Y0085937D01*
X0165764Y0085937D01*
X0166651Y0085937D01*
X0165764Y0085891D02*
X0165476Y0085891D01*
X0165521Y0084893D02*
X0165800Y0084893D01*
X0165764Y0083894D02*
X0165180Y0083894D01*
X0165793Y0082896D02*
X0164152Y0082896D01*
X0166650Y0083968D02*
X0166650Y0083968D01*
X0165808Y0086890D02*
X0164989Y0086890D01*
X0164446Y0087888D02*
X0166164Y0087888D01*
X0172663Y0092881D02*
X0176856Y0092881D01*
X0175858Y0093879D02*
X0172701Y0093879D01*
X0179929Y0103865D02*
X0180013Y0103865D01*
X0179987Y0104863D02*
X0180165Y0104863D01*
X0179628Y0105862D02*
X0180844Y0105862D01*
X0189370Y0084893D02*
X0189900Y0084893D01*
X0148047Y0072911D02*
X0147096Y0072911D01*
X0148047Y0071912D02*
X0142600Y0071912D01*
X0143642Y0072626D02*
X0143642Y0073513D01*
X0143642Y0073513D01*
X0143642Y0072626D01*
X0143642Y0072911D02*
X0143642Y0072911D01*
X0145610Y0072911D02*
X0145610Y0072911D01*
X0145610Y0072500D02*
X0145610Y0076094D01*
X0143642Y0076094D02*
X0143642Y0080500D01*
X0143642Y0078902D02*
X0143642Y0078902D01*
X0143642Y0078676D02*
X0143642Y0078676D01*
X0145610Y0078676D02*
X0145610Y0079563D01*
X0145610Y0078676D01*
X0145610Y0078676D01*
X0145610Y0078902D02*
X0145610Y0078902D01*
X0146079Y0079900D02*
X0138948Y0079900D01*
X0145610Y0073513D02*
X0145610Y0073513D01*
X0147091Y0070914D02*
X0148047Y0070914D01*
X0148047Y0069915D02*
X0147300Y0069915D01*
X0147300Y0068917D02*
X0148047Y0068917D01*
X0148047Y0067918D02*
X0147300Y0067918D01*
X0123819Y0052940D02*
X0116612Y0052940D01*
X0105748Y0052940D02*
X0105748Y0052940D01*
X0105748Y0051942D02*
X0105748Y0051942D01*
X0105748Y0050943D02*
X0105748Y0050943D01*
X0103780Y0050504D02*
X0103780Y0042120D01*
X0103800Y0042000D01*
X0101500Y0038500D02*
X0099843Y0040157D01*
X0099843Y0050504D01*
X0105748Y0053939D02*
X0105748Y0053939D01*
X0088032Y0053939D02*
X0088031Y0053939D01*
X0088031Y0052940D02*
X0088032Y0052940D01*
X0088031Y0051942D02*
X0088032Y0051942D01*
X0077290Y0054937D02*
X0064559Y0054937D01*
X0063534Y0046949D02*
X0063500Y0046949D01*
X0063500Y0045951D02*
X0074620Y0045951D01*
X0074620Y0044952D02*
X0063500Y0044952D01*
X0063500Y0043954D02*
X0074371Y0043954D01*
X0073701Y0042955D02*
X0063666Y0042955D01*
X0064664Y0041957D02*
X0073525Y0041957D01*
X0073736Y0040958D02*
X0068663Y0040958D01*
X0069662Y0039960D02*
X0074457Y0039960D01*
X0076200Y0042000D02*
X0076220Y0042220D01*
X0076220Y0050504D01*
X0070660Y0038961D02*
X0086250Y0038961D01*
X0086250Y0037963D02*
X0071500Y0037963D01*
X0071500Y0036964D02*
X0085948Y0036964D01*
X0085850Y0035966D02*
X0071500Y0035966D01*
X0071500Y0034967D02*
X0085850Y0034967D01*
X0085850Y0032970D02*
X0071500Y0032970D01*
X0071500Y0031972D02*
X0085850Y0031972D01*
X0086095Y0030973D02*
X0075945Y0030973D01*
X0076513Y0029975D02*
X0086250Y0029975D01*
X0086250Y0028976D02*
X0076587Y0028976D01*
X0077544Y0027978D02*
X0086250Y0027978D01*
X0086250Y0026979D02*
X0078542Y0026979D01*
X0079541Y0025981D02*
X0086250Y0025981D01*
X0086612Y0024982D02*
X0080539Y0024982D01*
X0081538Y0023984D02*
X0136754Y0023984D01*
X0137752Y0022985D02*
X0096136Y0022985D01*
X0097135Y0021987D02*
X0142739Y0021987D01*
X0142739Y0020988D02*
X0098133Y0020988D01*
X0099132Y0019990D02*
X0142750Y0019990D01*
X0139000Y0024000D02*
X0137559Y0025441D01*
X0137559Y0028358D01*
X0135000Y0028358D02*
X0135000Y0028358D01*
X0135000Y0027978D02*
X0135000Y0027978D01*
X0135000Y0028976D02*
X0135000Y0028976D01*
X0135000Y0029975D02*
X0135000Y0029975D01*
X0135000Y0030973D02*
X0135000Y0030973D01*
X0138758Y0035642D02*
X0141000Y0033400D01*
X0138758Y0035642D02*
X0137559Y0035642D01*
X0135000Y0026979D02*
X0135000Y0026979D01*
X0135000Y0025981D02*
X0135000Y0025981D01*
X0135000Y0024982D02*
X0135000Y0024982D01*
X0133480Y0024982D02*
X0094388Y0024982D01*
X0094750Y0025981D02*
X0130554Y0025981D01*
X0130554Y0026979D02*
X0094900Y0026979D01*
X0090000Y0033969D02*
X0071500Y0033969D01*
X0071500Y0030973D02*
X0072255Y0030973D01*
X0071687Y0029975D02*
X0071500Y0029975D01*
X0071500Y0028976D02*
X0071613Y0028976D01*
X0071955Y0027978D02*
X0070599Y0027978D01*
X0069600Y0026979D02*
X0073203Y0026979D01*
X0075298Y0025981D02*
X0068790Y0025981D01*
X0069068Y0024982D02*
X0076297Y0024982D01*
X0077295Y0023984D02*
X0069068Y0023984D01*
X0068776Y0022985D02*
X0078294Y0022985D01*
X0079292Y0021987D02*
X0068240Y0021987D01*
X0067153Y0020988D02*
X0075970Y0020988D01*
X0075218Y0019990D02*
X0061000Y0019990D01*
X0061000Y0020988D02*
X0062847Y0020988D01*
X0061760Y0021987D02*
X0061000Y0021987D01*
X0061000Y0022985D02*
X0061224Y0022985D01*
X0061000Y0018991D02*
X0075013Y0018991D01*
X0075225Y0017993D02*
X0060614Y0017993D01*
X0059615Y0016994D02*
X0075988Y0016994D01*
X0079012Y0016994D02*
X0094885Y0016994D01*
X0095883Y0015996D02*
X0058617Y0015996D01*
X0079030Y0020988D02*
X0080291Y0020988D01*
X0096882Y0014997D02*
X0005624Y0014997D01*
X0004626Y0015996D02*
X0035383Y0015996D01*
X0034385Y0016994D02*
X0004500Y0016994D01*
X0004500Y0017993D02*
X0033500Y0017993D01*
X0033500Y0018991D02*
X0004500Y0018991D01*
X0004500Y0019990D02*
X0033500Y0019990D01*
X0032847Y0020988D02*
X0027153Y0020988D01*
X0028240Y0021987D02*
X0031760Y0021987D01*
X0031224Y0022985D02*
X0028776Y0022985D01*
X0030105Y0023984D02*
X0030931Y0023984D01*
X0028858Y0026979D02*
X0028275Y0026979D01*
X0027236Y0027978D02*
X0029856Y0027978D01*
X0030855Y0028976D02*
X0004500Y0028976D01*
X0004500Y0027978D02*
X0022764Y0027978D01*
X0021725Y0026979D02*
X0004500Y0026979D01*
X0004500Y0025981D02*
X0021210Y0025981D01*
X0020931Y0024982D02*
X0004500Y0024982D01*
X0004500Y0023984D02*
X0020931Y0023984D01*
X0021224Y0022985D02*
X0004500Y0022985D01*
X0004500Y0021987D02*
X0021760Y0021987D01*
X0022847Y0020988D02*
X0004500Y0020988D01*
X0004500Y0029975D02*
X0031853Y0029975D01*
X0032852Y0030973D02*
X0027748Y0030973D01*
X0027911Y0031092D02*
X0028408Y0031589D01*
X0028822Y0032158D01*
X0029141Y0032785D01*
X0029358Y0033454D01*
X0029447Y0034016D01*
X0025484Y0034016D01*
X0025484Y0030052D01*
X0026046Y0030142D01*
X0026715Y0030359D01*
X0027342Y0030678D01*
X0027911Y0031092D01*
X0028686Y0031972D02*
X0031775Y0031972D01*
X0031230Y0032970D02*
X0029201Y0032970D01*
X0029440Y0033969D02*
X0030931Y0033969D01*
X0030931Y0034967D02*
X0025484Y0034967D01*
X0025484Y0034984D02*
X0029447Y0034984D01*
X0029358Y0035546D01*
X0029141Y0036215D01*
X0028822Y0036842D01*
X0028408Y0037411D01*
X0027911Y0037908D01*
X0027342Y0038322D01*
X0026715Y0038641D01*
X0026046Y0038858D01*
X0025484Y0038947D01*
X0025484Y0034984D01*
X0025484Y0034016D01*
X0024516Y0034016D01*
X0024516Y0030052D01*
X0023954Y0030142D01*
X0023285Y0030359D01*
X0022658Y0030678D01*
X0022089Y0031092D01*
X0021592Y0031589D01*
X0021178Y0032158D01*
X0020859Y0032785D01*
X0020642Y0033454D01*
X0020552Y0034016D01*
X0024516Y0034016D01*
X0024516Y0034984D01*
X0020552Y0034984D01*
X0020642Y0035546D01*
X0020859Y0036215D01*
X0021178Y0036842D01*
X0021592Y0037411D01*
X0022089Y0037908D01*
X0022658Y0038322D01*
X0023285Y0038641D01*
X0023954Y0038858D01*
X0024516Y0038947D01*
X0024516Y0034984D01*
X0025484Y0034984D01*
X0024516Y0034967D02*
X0004500Y0034967D01*
X0004500Y0033969D02*
X0020560Y0033969D01*
X0020799Y0032970D02*
X0004500Y0032970D01*
X0004500Y0031972D02*
X0021314Y0031972D01*
X0022252Y0030973D02*
X0004500Y0030973D01*
X0004500Y0035966D02*
X0020778Y0035966D01*
X0021267Y0036964D02*
X0004500Y0036964D01*
X0004500Y0037963D02*
X0022164Y0037963D01*
X0024516Y0037963D02*
X0025484Y0037963D01*
X0025484Y0036964D02*
X0024516Y0036964D01*
X0024516Y0035966D02*
X0025484Y0035966D01*
X0025484Y0033969D02*
X0024516Y0033969D01*
X0024516Y0032970D02*
X0025484Y0032970D01*
X0025484Y0031972D02*
X0024516Y0031972D01*
X0024516Y0030973D02*
X0025484Y0030973D01*
X0029222Y0035966D02*
X0031203Y0035966D01*
X0031711Y0036964D02*
X0028733Y0036964D01*
X0027836Y0037963D02*
X0032728Y0037963D01*
X0033300Y0038961D02*
X0004500Y0038961D01*
X0004500Y0039960D02*
X0033300Y0039960D01*
X0033300Y0040958D02*
X0004500Y0040958D01*
X0004500Y0041957D02*
X0033300Y0041957D01*
X0033300Y0042955D02*
X0004500Y0042955D01*
X0004500Y0043954D02*
X0033300Y0043954D01*
X0033300Y0044952D02*
X0029470Y0044952D01*
X0030258Y0045951D02*
X0033300Y0045951D01*
X0033300Y0046949D02*
X0030487Y0046949D01*
X0030300Y0047948D02*
X0033300Y0047948D01*
X0033464Y0048946D02*
X0033942Y0048946D01*
X0033962Y0049945D02*
X0034941Y0049945D01*
X0033987Y0050943D02*
X0035939Y0050943D01*
X0036938Y0051942D02*
X0033576Y0051942D01*
X0033000Y0052940D02*
X0037936Y0052940D01*
X0038935Y0053939D02*
X0033000Y0053939D01*
X0033059Y0054937D02*
X0039933Y0054937D01*
X0029041Y0061927D02*
X0020548Y0061927D01*
X0019550Y0060929D02*
X0027807Y0060929D01*
X0026809Y0059930D02*
X0018551Y0059930D01*
X0017553Y0058932D02*
X0026500Y0058932D01*
X0026500Y0057933D02*
X0016554Y0057933D01*
X0015556Y0056934D02*
X0026500Y0056934D01*
X0026500Y0055936D02*
X0014557Y0055936D01*
X0014297Y0053700D02*
X0009600Y0053700D01*
X0009600Y0050200D01*
X0015600Y0050200D01*
X0015600Y0052397D01*
X0015498Y0052779D01*
X0015300Y0053121D01*
X0015021Y0053400D01*
X0014679Y0053598D01*
X0014297Y0053700D01*
X0015405Y0052940D02*
X0026500Y0052940D01*
X0026500Y0051942D02*
X0015600Y0051942D01*
X0015600Y0050943D02*
X0026500Y0050943D01*
X0026500Y0049945D02*
X0009600Y0049945D01*
X0009600Y0049200D02*
X0015600Y0049200D01*
X0015600Y0047003D01*
X0015498Y0046621D01*
X0015300Y0046279D01*
X0015021Y0046000D01*
X0014679Y0045802D01*
X0014297Y0045700D01*
X0009600Y0045700D01*
X0009600Y0049200D01*
X0009600Y0048946D02*
X0008600Y0048946D01*
X0008600Y0047948D02*
X0009600Y0047948D01*
X0009600Y0046949D02*
X0008600Y0046949D01*
X0008600Y0045951D02*
X0009600Y0045951D01*
X0004500Y0044952D02*
X0026530Y0044952D01*
X0025742Y0045951D02*
X0014936Y0045951D01*
X0015586Y0046949D02*
X0025513Y0046949D01*
X0025700Y0047948D02*
X0015600Y0047948D01*
X0015600Y0048946D02*
X0026429Y0048946D01*
X0026500Y0053939D02*
X0008600Y0053939D01*
X0008600Y0053700D02*
X0008600Y0053700D01*
X0008600Y0052940D02*
X0009600Y0052940D01*
X0009600Y0051942D02*
X0008600Y0051942D01*
X0008600Y0050943D02*
X0009600Y0050943D01*
X0011718Y0054937D02*
X0026500Y0054937D01*
X0028979Y0062926D02*
X0021547Y0062926D01*
X0022545Y0063924D02*
X0028979Y0063924D01*
X0028979Y0064923D02*
X0023544Y0064923D01*
X0101500Y0038500D02*
X0116000Y0038500D01*
X0119000Y0038500D01*
X0117500Y0037000D01*
X0117500Y0034154D01*
X0117654Y0034000D01*
X0117500Y0037000D02*
X0117500Y0038000D01*
X0117500Y0037000D02*
X0116000Y0038500D01*
X0119000Y0038500D02*
X0124000Y0038500D01*
X0129000Y0043500D01*
X0132654Y0043500D01*
X0124346Y0034000D02*
X0124500Y0033846D01*
X0124500Y0030000D01*
X0123500Y0030000D01*
X0123000Y0029500D01*
X0123500Y0030000D02*
X0124500Y0031000D01*
X0126000Y0029500D01*
X0151238Y0022985D02*
X0153762Y0022985D01*
X0153762Y0021987D02*
X0151238Y0021987D01*
X0151238Y0020988D02*
X0153762Y0020988D01*
X0153774Y0019990D02*
X0151226Y0019990D01*
X0156240Y0036964D02*
X0163585Y0036964D01*
X0156240Y0037963D02*
X0155900Y0037963D01*
X0155794Y0038961D02*
X0156240Y0038961D01*
X0156240Y0039960D02*
X0155240Y0039960D01*
D33*
X0173000Y0059500D03*
X0180500Y0059500D03*
X0188000Y0059500D03*
X0175500Y0066500D03*
X0168000Y0069000D03*
X0168000Y0075500D03*
X0188000Y0070000D03*
X0190600Y0095400D03*
X0198000Y0095300D03*
X0185700Y0100600D03*
X0187700Y0107100D03*
X0172900Y0108800D03*
X0160500Y0119500D03*
X0160500Y0125000D03*
X0060500Y0113500D03*
X0055000Y0113500D03*
X0044000Y0106500D03*
X0038500Y0106500D03*
X0038500Y0111500D03*
X0029200Y0106600D03*
X0029200Y0100800D03*
X0038500Y0101000D03*
X0021700Y0106700D03*
X0010000Y0101500D03*
X0025500Y0062900D03*
X0018900Y0055400D03*
X0023200Y0042800D03*
X0007900Y0042900D03*
X0012900Y0018000D03*
X0025600Y0017900D03*
X0072700Y0023800D03*
X0089800Y0016000D03*
D34*
X0077500Y0019000D03*
X0074100Y0029300D03*
X0083000Y0045000D03*
X0091969Y0058000D03*
X0085500Y0065500D03*
X0073000Y0058000D03*
X0065500Y0058000D03*
X0068000Y0065500D03*
X0043300Y0045700D03*
X0035500Y0053000D03*
X0031500Y0050500D03*
X0028000Y0047000D03*
X0020500Y0083000D03*
X0015500Y0087000D03*
X0024600Y0093600D03*
X0027800Y0096700D03*
X0047000Y0110500D03*
X0047000Y0115500D03*
X0062000Y0120500D03*
X0072000Y0120000D03*
X0078200Y0120000D03*
X0072000Y0126500D03*
X0090000Y0124000D03*
X0100500Y0124000D03*
X0105500Y0120000D03*
X0119000Y0131000D03*
X0135200Y0126100D03*
X0123000Y0115500D03*
X0114000Y0106500D03*
X0100000Y0094500D03*
X0087500Y0087000D03*
X0065000Y0087000D03*
X0065000Y0102000D03*
X0078000Y0104000D03*
X0083000Y0107000D03*
X0090000Y0106500D03*
X0127000Y0084000D03*
X0127000Y0078063D03*
X0143000Y0085500D03*
X0149500Y0093000D03*
X0141500Y0098500D03*
X0145500Y0103000D03*
X0149500Y0099800D03*
X0175000Y0091300D03*
X0190000Y0089500D03*
X0190000Y0082000D03*
X0190000Y0074500D03*
X0168000Y0048000D03*
X0193000Y0038000D03*
X0140900Y0028000D03*
X0135000Y0023000D03*
X0115500Y0024500D03*
X0101500Y0024500D03*
X0121000Y0053500D03*
X0108000Y0058000D03*
X0102500Y0069500D03*
X0112000Y0073000D03*
X0177500Y0104500D03*
X0182500Y0104000D03*
X0196500Y0122500D03*
X0180200Y0124700D03*
X0155500Y0125000D03*
X0044000Y0132700D03*
X0030000Y0131000D03*
X0015500Y0123000D03*
D35*
X0165500Y0081409D02*
X0169232Y0081409D01*
X0174000Y0081409D01*
D36*
X0160500Y0119500D02*
X0160500Y0125000D01*
X0167346Y0129500D02*
X0187260Y0129500D01*
X0141260Y0129500D02*
X0132000Y0129500D01*
X0060500Y0113500D02*
X0055000Y0113500D01*
X0044000Y0106500D02*
X0038500Y0106500D01*
X0038500Y0116500D01*
D37*
X0037094Y0117906D01*
X0038000Y0118760D01*
X0038000Y0117000D01*
X0029346Y0117000D01*
X0022654Y0117000D02*
X0010500Y0117000D01*
X0009760Y0117740D01*
X0009760Y0128500D01*
X0009594Y0117000D02*
X0009000Y0117000D01*
X0010500Y0117000D01*
X0148740Y0129500D02*
X0160654Y0129500D01*
X0160500Y0129346D01*
X0160500Y0125000D01*
X0186094Y0123000D02*
X0186094Y0119906D01*
X0189000Y0117000D01*
X0193000Y0117000D01*
X0192900Y0116900D01*
X0193000Y0117000D02*
X0196000Y0117000D01*
X0186094Y0123000D02*
X0186094Y0128500D01*
X0187260Y0129500D01*
D38*
X0163000Y0093750D03*
X0162846Y0085250D03*
X0137500Y0076094D03*
X0112000Y0082000D03*
X0068000Y0082000D03*
X0050000Y0087000D03*
X0048000Y0060600D03*
X0076200Y0042000D03*
X0103800Y0042000D03*
X0129000Y0035500D03*
D39*
X0129142Y0035642D01*
X0132441Y0035642D01*
X0135000Y0035642D01*
X0135000Y0038500D01*
X0136000Y0039500D01*
X0140094Y0039500D01*
X0143094Y0036500D01*
X0148260Y0036500D01*
X0141083Y0076094D02*
X0137500Y0076094D01*
X0063000Y0109000D02*
X0054000Y0112500D01*
X0052500Y0112500D01*
X0051000Y0114000D01*
X0051000Y0118000D01*
X0052000Y0119000D01*
X0059000Y0119000D01*
X0062000Y0116000D01*
X0062000Y0114000D01*
X0063000Y0109000D01*
X0062784Y0110079D02*
X0060224Y0110079D01*
X0062544Y0111278D02*
X0057142Y0111278D01*
X0054061Y0112476D02*
X0062305Y0112476D01*
X0062065Y0113675D02*
X0051325Y0113675D01*
X0051000Y0114873D02*
X0062000Y0114873D01*
X0061928Y0116072D02*
X0051000Y0116072D01*
X0051000Y0117270D02*
X0060730Y0117270D01*
X0059531Y0118469D02*
X0051469Y0118469D01*
X0048000Y0060600D02*
X0035000Y0047600D01*
X0035000Y0034500D01*
D40*
X0040000Y0031500D02*
X0040000Y0042400D01*
X0043300Y0045700D01*
X0048200Y0050600D01*
X0048200Y0056200D01*
X0051400Y0059400D01*
X0051400Y0062400D01*
X0053283Y0064283D01*
X0058504Y0064283D01*
X0058504Y0066252D02*
X0049252Y0066252D01*
X0040276Y0057276D01*
X0038150Y0057276D01*
X0038150Y0060425D02*
X0040425Y0060425D01*
X0048220Y0068220D01*
X0058504Y0068220D01*
X0058504Y0070189D02*
X0047189Y0070189D01*
X0043724Y0066724D01*
X0038150Y0066724D01*
X0031850Y0066724D02*
X0023224Y0066724D01*
X0013500Y0057000D01*
X0007500Y0057000D01*
X0007500Y0062000D02*
X0015000Y0062000D01*
X0025276Y0072276D01*
X0031850Y0072276D01*
X0031850Y0075425D02*
X0031776Y0075500D01*
X0025500Y0075500D01*
X0017000Y0067000D01*
X0007500Y0067000D01*
X0007500Y0072000D02*
X0018500Y0072000D01*
X0025075Y0078575D01*
X0031850Y0078575D01*
X0031850Y0081724D02*
X0024724Y0081724D01*
X0020000Y0077000D01*
X0007500Y0077000D01*
X0007500Y0082000D02*
X0008500Y0083000D01*
X0020500Y0083000D01*
X0020724Y0087276D02*
X0016000Y0092000D01*
X0007500Y0092000D01*
X0007500Y0087000D02*
X0015500Y0087000D01*
X0020724Y0087276D02*
X0031850Y0087276D01*
X0031826Y0087300D01*
X0031850Y0090425D02*
X0021075Y0090425D01*
X0014500Y0097000D01*
X0007500Y0097000D01*
X0024600Y0093600D02*
X0031825Y0093600D01*
X0031850Y0093575D01*
X0031826Y0096700D02*
X0027800Y0096700D01*
X0031826Y0096700D02*
X0031850Y0096724D01*
X0038150Y0096724D02*
X0043376Y0096724D01*
X0044320Y0095780D01*
X0058504Y0095780D01*
X0058504Y0093811D02*
X0038386Y0093811D01*
X0038150Y0093575D01*
X0038150Y0090425D02*
X0038175Y0090400D01*
X0042300Y0090400D01*
X0048731Y0083969D01*
X0058504Y0083969D01*
X0058504Y0080031D02*
X0048969Y0080031D01*
X0042000Y0087000D01*
X0038425Y0087000D01*
X0038150Y0087276D01*
X0038150Y0081724D02*
X0044776Y0081724D01*
X0048437Y0078063D01*
X0058504Y0078063D01*
X0058504Y0076094D02*
X0047406Y0076094D01*
X0044925Y0078575D01*
X0038150Y0078575D01*
X0038150Y0075425D02*
X0044075Y0075425D01*
X0045374Y0074126D01*
X0058504Y0074126D01*
X0058504Y0072157D02*
X0038268Y0072157D01*
X0038150Y0072276D01*
X0031850Y0060425D02*
X0029425Y0060425D01*
X0028000Y0059000D01*
X0028000Y0047000D01*
X0031500Y0050500D02*
X0031500Y0056925D01*
X0031850Y0057276D01*
X0032918Y0056918D02*
X0030500Y0056918D01*
X0030500Y0056500D02*
X0030500Y0057500D01*
X0033000Y0057500D01*
X0033000Y0057000D01*
X0031500Y0055500D01*
X0030500Y0056500D01*
X0030880Y0056120D02*
X0032120Y0056120D01*
X0050000Y0055500D02*
X0054846Y0060346D01*
X0058504Y0060346D01*
X0058504Y0062315D02*
X0063185Y0062315D01*
X0065500Y0060000D01*
X0065500Y0058000D01*
X0062000Y0054500D01*
X0062000Y0042500D01*
X0065000Y0039500D01*
X0068000Y0039500D01*
X0070000Y0037500D01*
X0070000Y0029500D01*
X0065000Y0024500D01*
X0059500Y0019000D02*
X0059500Y0056752D01*
X0058504Y0057748D01*
X0059500Y0057717D02*
X0056500Y0057717D01*
X0056500Y0058000D02*
X0059500Y0058000D01*
X0059500Y0054000D01*
X0056500Y0057000D01*
X0056500Y0058000D01*
X0056582Y0056918D02*
X0059500Y0056918D01*
X0059500Y0056120D02*
X0057380Y0056120D01*
X0058179Y0055321D02*
X0059500Y0055321D01*
X0059500Y0054523D02*
X0058977Y0054523D01*
X0050000Y0055500D02*
X0050000Y0021500D01*
X0048000Y0019500D01*
X0042000Y0019500D01*
X0040000Y0021500D01*
X0040000Y0027500D01*
X0038000Y0029500D01*
X0033500Y0029500D01*
X0028500Y0024500D01*
X0025000Y0024500D01*
X0035000Y0024500D02*
X0035000Y0018500D01*
X0036500Y0017000D01*
X0057500Y0017000D01*
X0059500Y0019000D01*
X0045000Y0024500D02*
X0045000Y0026500D01*
X0040000Y0031500D01*
X0035500Y0018000D02*
X0036500Y0017000D01*
X0074100Y0029300D02*
X0081600Y0021800D01*
X0095200Y0021800D01*
X0099500Y0017500D01*
X0180500Y0017500D01*
X0192500Y0029500D01*
X0196000Y0029500D01*
X0196000Y0022000D02*
X0189000Y0022000D01*
X0182500Y0015500D01*
X0098500Y0015500D01*
X0095000Y0019000D01*
X0077500Y0019000D01*
X0090500Y0028100D02*
X0093900Y0028100D01*
X0095600Y0029800D01*
X0095600Y0043600D01*
X0093937Y0045263D01*
X0093937Y0050504D01*
X0090000Y0050504D02*
X0090000Y0040200D01*
X0090400Y0040200D01*
X0090500Y0040100D01*
X0107717Y0044783D02*
X0107717Y0050504D01*
X0109685Y0050504D02*
X0109685Y0045815D01*
X0112000Y0043500D01*
X0122500Y0043500D01*
X0129000Y0050000D01*
X0153500Y0050000D01*
X0161358Y0057858D01*
X0161358Y0076094D01*
X0159390Y0076094D02*
X0159390Y0058890D01*
X0152500Y0052000D01*
X0128000Y0052000D01*
X0121500Y0045500D01*
X0113000Y0045500D01*
X0111654Y0046846D01*
X0111654Y0050504D01*
X0114252Y0050504D02*
X0123504Y0050504D01*
X0127000Y0054000D01*
X0151500Y0054000D01*
X0157421Y0059921D01*
X0157421Y0076094D01*
X0155453Y0076094D02*
X0155453Y0060953D01*
X0150500Y0056000D01*
X0127000Y0056000D01*
X0125500Y0057500D01*
X0121744Y0057500D01*
X0121496Y0057748D01*
X0121496Y0060346D02*
X0125654Y0060346D01*
X0128000Y0058000D01*
X0149500Y0058000D01*
X0153484Y0061984D01*
X0153484Y0076094D01*
X0151516Y0076094D02*
X0151516Y0063016D01*
X0148500Y0060000D01*
X0129000Y0060000D01*
X0126685Y0062315D01*
X0121496Y0062315D01*
X0121496Y0064283D02*
X0127717Y0064283D01*
X0130000Y0062000D01*
X0147500Y0062000D01*
X0149547Y0064047D01*
X0149547Y0076094D01*
X0147579Y0076094D02*
X0147579Y0082000D01*
X0136268Y0080268D02*
X0134500Y0078500D01*
X0134500Y0072000D01*
X0130720Y0068220D01*
X0121496Y0068220D01*
X0121496Y0066252D02*
X0135752Y0066252D01*
X0137500Y0067000D01*
X0132000Y0072500D02*
X0129689Y0070189D01*
X0121496Y0070189D01*
X0121496Y0072157D02*
X0128657Y0072157D01*
X0130000Y0073500D01*
X0130000Y0084500D01*
X0131437Y0085937D01*
X0135768Y0085937D01*
X0135768Y0083969D02*
X0132969Y0083969D01*
X0132000Y0083000D01*
X0132000Y0072500D01*
X0127000Y0078063D02*
X0121496Y0078063D01*
X0121496Y0080031D02*
X0125031Y0080031D01*
X0127000Y0082000D01*
X0127000Y0084000D01*
X0121496Y0083969D02*
X0116031Y0083969D01*
X0114000Y0086000D01*
X0114000Y0100500D01*
X0121496Y0099717D02*
X0128717Y0099717D01*
X0130000Y0101000D01*
X0130000Y0108000D01*
X0131559Y0109559D01*
X0141083Y0109559D01*
X0143642Y0109559D02*
X0143642Y0111858D01*
X0142000Y0113500D01*
X0132000Y0113500D01*
X0128000Y0109500D01*
X0128000Y0102500D01*
X0127185Y0101685D01*
X0121496Y0101685D01*
X0121496Y0103654D02*
X0125154Y0103654D01*
X0126000Y0104500D01*
X0126000Y0111000D01*
X0130500Y0115500D01*
X0143000Y0115500D01*
X0145610Y0112890D01*
X0145610Y0109559D01*
X0147579Y0109559D02*
X0147579Y0113921D01*
X0144000Y0117500D01*
X0129500Y0117500D01*
X0123500Y0111500D01*
X0123500Y0107000D01*
X0124000Y0106500D01*
X0121744Y0106500D01*
X0121496Y0106252D01*
X0114252Y0113496D02*
X0114252Y0116502D01*
X0117250Y0119500D01*
X0144750Y0119500D01*
X0149500Y0114750D01*
X0149500Y0109606D01*
X0149547Y0109559D01*
X0151516Y0109559D02*
X0151516Y0115734D01*
X0146000Y0121250D01*
X0116000Y0121250D01*
X0111654Y0116904D01*
X0111654Y0113496D01*
X0109685Y0113496D02*
X0109685Y0117935D01*
X0115000Y0123250D01*
X0146750Y0123250D01*
X0153484Y0116516D01*
X0153484Y0109559D01*
X0155453Y0109559D02*
X0155453Y0104953D01*
X0153500Y0103000D01*
X0145500Y0103000D01*
X0141500Y0098500D02*
X0140283Y0099717D01*
X0135768Y0099717D01*
X0135768Y0097748D02*
X0121496Y0097748D01*
X0121496Y0095780D02*
X0135768Y0095780D01*
X0135768Y0093811D02*
X0121496Y0093811D01*
X0121496Y0091843D02*
X0135768Y0091843D01*
X0135768Y0089874D02*
X0121496Y0089874D01*
X0121496Y0087906D02*
X0135768Y0087906D01*
X0135768Y0081409D02*
X0134409Y0081409D01*
X0134500Y0081500D01*
X0134500Y0079500D01*
X0135768Y0080768D01*
X0135768Y0081409D01*
X0136268Y0080268D01*
X0134500Y0079500D02*
X0134500Y0078500D01*
X0163917Y0076094D02*
X0163917Y0057417D01*
X0154500Y0048000D01*
X0130000Y0048000D01*
X0123500Y0041500D01*
X0111000Y0041500D01*
X0107717Y0044783D01*
X0158012Y0024000D02*
X0169512Y0024000D01*
X0170000Y0024488D01*
X0169232Y0101685D02*
X0180185Y0101685D01*
X0182500Y0104000D01*
X0177500Y0104500D02*
X0167476Y0104500D01*
X0166976Y0104000D01*
X0169232Y0104244D01*
X0163917Y0109559D02*
X0163917Y0115417D01*
X0165000Y0116500D01*
X0167154Y0116500D01*
X0161358Y0111564D02*
X0160395Y0112528D01*
X0158472Y0112528D01*
X0156500Y0114500D01*
X0161358Y0111564D02*
X0161358Y0109559D01*
X0186094Y0123000D02*
X0186094Y0123800D01*
X0096000Y0130500D02*
X0095906Y0130406D01*
X0095906Y0113496D01*
X0093937Y0113496D02*
X0093937Y0119563D01*
X0092500Y0121000D01*
X0085500Y0121000D01*
X0084000Y0122500D01*
X0084000Y0130500D01*
D41*
X0056094Y0117906D02*
X0055000Y0113500D01*
X0054906Y0114000D01*
X0056094Y0117906D02*
X0055500Y0119260D01*
D42*
X0060500Y0113500D02*
X0060500Y0111500D01*
X0068000Y0104000D01*
X0068000Y0082000D01*
X0112000Y0082000D01*
X0078000Y0104000D02*
X0071000Y0104000D01*
X0069000Y0102000D01*
X0069000Y0104000D01*
X0068000Y0104000D01*
X0069000Y0104000D02*
X0071000Y0104000D01*
X0069000Y0102000D02*
X0068000Y0101000D01*
D43*
X0114000Y0100500D03*
X0147579Y0082000D03*
X0156500Y0114500D03*
M02*
