G75*
%MOIN*%
%OFA0B0*%
%FSLAX25Y25*%
%IPPOS*%
%LPD*%
%AMOC8*
5,1,8,0,0,1.08239X$1,22.5*
%
%ADD10C,0.00000*%
%ADD11C,0.00500*%
%ADD12C,0.00600*%
%ADD13C,0.02000*%
%ADD14C,0.00400*%
D10*
X0005500Y0013000D02*
X0003000Y0015500D01*
X0003000Y0133000D01*
X0005500Y0135500D01*
X0199500Y0135500D01*
X0202000Y0133000D01*
X0202000Y0015500D01*
X0199500Y0013000D01*
X0005500Y0013000D01*
D11*
X0006150Y0025610D02*
X0008852Y0025610D01*
X0008852Y0026962D01*
X0008402Y0027412D01*
X0007501Y0027412D01*
X0007051Y0026962D01*
X0007051Y0025610D01*
X0007051Y0026511D02*
X0006150Y0027412D01*
X0006150Y0028557D02*
X0006150Y0030359D01*
X0006150Y0029458D02*
X0008852Y0029458D01*
X0007952Y0028557D01*
X0008402Y0031503D02*
X0006600Y0031503D01*
X0008402Y0033305D01*
X0006600Y0033305D01*
X0006150Y0032855D01*
X0006150Y0031954D01*
X0006600Y0031503D01*
X0008402Y0031503D02*
X0008852Y0031954D01*
X0008852Y0032855D01*
X0008402Y0033305D01*
X0042455Y0054550D02*
X0044257Y0054550D01*
X0043356Y0054550D02*
X0043356Y0057252D01*
X0044257Y0056352D01*
X0045402Y0054550D02*
X0047203Y0054550D01*
X0046303Y0054550D02*
X0046303Y0057252D01*
X0047203Y0056352D01*
X0048348Y0056802D02*
X0048348Y0055901D01*
X0048799Y0055451D01*
X0050150Y0055451D01*
X0049249Y0055451D02*
X0048348Y0054550D01*
X0050150Y0054550D02*
X0050150Y0057252D01*
X0048799Y0057252D01*
X0048348Y0056802D01*
X0070450Y0054945D02*
X0070450Y0053143D01*
X0072252Y0054945D01*
X0072702Y0054945D01*
X0073152Y0054494D01*
X0073152Y0053593D01*
X0072702Y0053143D01*
X0070450Y0051998D02*
X0070450Y0050197D01*
X0070450Y0051097D02*
X0073152Y0051097D01*
X0072252Y0050197D01*
X0072702Y0049052D02*
X0071801Y0049052D01*
X0071351Y0048601D01*
X0071351Y0047250D01*
X0071351Y0048151D02*
X0070450Y0049052D01*
X0072702Y0049052D02*
X0073152Y0048601D01*
X0073152Y0047250D01*
X0070450Y0047250D01*
X0078455Y0042952D02*
X0080257Y0042952D01*
X0080257Y0041601D01*
X0079356Y0042052D01*
X0078906Y0042052D01*
X0078455Y0041601D01*
X0078455Y0040700D01*
X0078906Y0040250D01*
X0079807Y0040250D01*
X0080257Y0040700D01*
X0081402Y0040250D02*
X0083203Y0040250D01*
X0082303Y0040250D02*
X0082303Y0042952D01*
X0083203Y0042052D01*
X0084348Y0042502D02*
X0084799Y0042952D01*
X0085700Y0042952D01*
X0086150Y0042502D01*
X0086150Y0040700D01*
X0085700Y0040250D01*
X0084799Y0040250D01*
X0084348Y0040700D01*
X0093755Y0041100D02*
X0093755Y0041551D01*
X0094206Y0042001D01*
X0095557Y0042001D01*
X0095557Y0041100D01*
X0095107Y0040650D01*
X0094206Y0040650D01*
X0093755Y0041100D01*
X0094656Y0042902D02*
X0095557Y0042001D01*
X0094656Y0042902D02*
X0093755Y0043352D01*
X0097603Y0043352D02*
X0097603Y0040650D01*
X0098503Y0040650D02*
X0096702Y0040650D01*
X0098503Y0042452D02*
X0097603Y0043352D01*
X0099648Y0042902D02*
X0100099Y0043352D01*
X0101000Y0043352D01*
X0101450Y0042902D01*
X0101450Y0041100D01*
X0101000Y0040650D01*
X0100099Y0040650D01*
X0099648Y0041100D01*
X0122650Y0031905D02*
X0122650Y0030103D01*
X0124452Y0031905D01*
X0124902Y0031905D01*
X0125352Y0031455D01*
X0125352Y0030554D01*
X0124902Y0030103D01*
X0124902Y0028959D02*
X0124452Y0028959D01*
X0124001Y0028508D01*
X0123551Y0028959D01*
X0123100Y0028959D01*
X0122650Y0028508D01*
X0122650Y0027607D01*
X0123100Y0027157D01*
X0123100Y0026012D02*
X0122650Y0025562D01*
X0122650Y0024661D01*
X0123100Y0024210D01*
X0124902Y0024210D01*
X0125352Y0024661D01*
X0125352Y0025562D01*
X0124902Y0026012D01*
X0124902Y0027157D02*
X0125352Y0027607D01*
X0125352Y0028508D01*
X0124902Y0028959D01*
X0124001Y0028508D02*
X0124001Y0028058D01*
X0131800Y0063410D02*
X0131350Y0063861D01*
X0131350Y0064762D01*
X0131800Y0065212D01*
X0131350Y0066357D02*
X0133152Y0068159D01*
X0133602Y0068159D01*
X0134052Y0067708D01*
X0134052Y0066807D01*
X0133602Y0066357D01*
X0133602Y0065212D02*
X0134052Y0064762D01*
X0134052Y0063861D01*
X0133602Y0063410D01*
X0131800Y0063410D01*
X0131350Y0066357D02*
X0131350Y0068159D01*
X0131350Y0069303D02*
X0131350Y0071105D01*
X0131350Y0070204D02*
X0134052Y0070204D01*
X0133152Y0069303D01*
X0147950Y0069754D02*
X0148400Y0069303D01*
X0150202Y0071105D01*
X0148400Y0071105D01*
X0147950Y0070655D01*
X0147950Y0069754D01*
X0148400Y0069303D02*
X0150202Y0069303D01*
X0150652Y0069754D01*
X0150652Y0070655D01*
X0150202Y0071105D01*
X0150202Y0068159D02*
X0150652Y0067708D01*
X0150652Y0066807D01*
X0150202Y0066357D01*
X0150202Y0065212D02*
X0150652Y0064762D01*
X0150652Y0063861D01*
X0150202Y0063410D01*
X0148400Y0063410D01*
X0147950Y0063861D01*
X0147950Y0064762D01*
X0148400Y0065212D01*
X0147950Y0066357D02*
X0149752Y0068159D01*
X0150202Y0068159D01*
X0147950Y0068159D02*
X0147950Y0066357D01*
X0156106Y0074550D02*
X0157007Y0074550D01*
X0157457Y0075000D01*
X0158602Y0074550D02*
X0160403Y0074550D01*
X0158602Y0076352D01*
X0158602Y0076802D01*
X0159052Y0077252D01*
X0159953Y0077252D01*
X0160403Y0076802D01*
X0161548Y0076802D02*
X0161999Y0077252D01*
X0162900Y0077252D01*
X0163350Y0076802D01*
X0163350Y0075000D01*
X0162900Y0074550D01*
X0161999Y0074550D01*
X0161548Y0075000D01*
X0157457Y0076802D02*
X0157007Y0077252D01*
X0156106Y0077252D01*
X0155655Y0076802D01*
X0155655Y0076352D01*
X0156106Y0075901D01*
X0155655Y0075451D01*
X0155655Y0075000D01*
X0156106Y0074550D01*
X0156106Y0075901D02*
X0156556Y0075901D01*
X0152100Y0087850D02*
X0151199Y0087850D01*
X0150748Y0088300D01*
X0149603Y0087850D02*
X0147802Y0087850D01*
X0146657Y0087850D02*
X0144855Y0089652D01*
X0144855Y0090102D01*
X0145306Y0090552D01*
X0146207Y0090552D01*
X0146657Y0090102D01*
X0147802Y0090102D02*
X0148252Y0090552D01*
X0149153Y0090552D01*
X0149603Y0090102D01*
X0150748Y0090102D02*
X0151199Y0090552D01*
X0152100Y0090552D01*
X0152550Y0090102D01*
X0152550Y0088300D01*
X0152100Y0087850D01*
X0149603Y0087850D02*
X0147802Y0089652D01*
X0147802Y0090102D01*
X0146657Y0087850D02*
X0144855Y0087850D01*
X0145406Y0095250D02*
X0145406Y0097952D01*
X0146757Y0096601D01*
X0144955Y0096601D01*
X0147902Y0097052D02*
X0147902Y0097502D01*
X0148352Y0097952D01*
X0149253Y0097952D01*
X0149703Y0097502D01*
X0150848Y0097502D02*
X0151299Y0097952D01*
X0152200Y0097952D01*
X0152650Y0097502D01*
X0152650Y0095700D01*
X0152200Y0095250D01*
X0151299Y0095250D01*
X0150848Y0095700D01*
X0149703Y0095250D02*
X0147902Y0097052D01*
X0147902Y0095250D02*
X0149703Y0095250D01*
X0156106Y0107450D02*
X0157007Y0107450D01*
X0157457Y0107900D01*
X0157457Y0108801D02*
X0156556Y0109252D01*
X0156106Y0109252D01*
X0155655Y0108801D01*
X0155655Y0107900D01*
X0156106Y0107450D01*
X0157457Y0108801D02*
X0157457Y0110152D01*
X0155655Y0110152D01*
X0158602Y0109702D02*
X0159052Y0110152D01*
X0159953Y0110152D01*
X0160403Y0109702D01*
X0161548Y0109702D02*
X0161999Y0110152D01*
X0162900Y0110152D01*
X0163350Y0109702D01*
X0163350Y0107900D01*
X0162900Y0107450D01*
X0161999Y0107450D01*
X0161548Y0107900D01*
X0160403Y0107450D02*
X0158602Y0109252D01*
X0158602Y0109702D01*
X0158602Y0107450D02*
X0160403Y0107450D01*
X0175555Y0109502D02*
X0177357Y0107700D01*
X0177357Y0107250D01*
X0178502Y0107250D02*
X0180303Y0107250D01*
X0178502Y0109052D01*
X0178502Y0109502D01*
X0178952Y0109952D01*
X0179853Y0109952D01*
X0180303Y0109502D01*
X0181448Y0109502D02*
X0181899Y0109952D01*
X0182800Y0109952D01*
X0183250Y0109502D01*
X0183250Y0107700D01*
X0182800Y0107250D01*
X0181899Y0107250D01*
X0181448Y0107700D01*
X0177357Y0109952D02*
X0175555Y0109952D01*
X0175555Y0109502D01*
X0151950Y0120150D02*
X0151950Y0122852D01*
X0150599Y0122852D01*
X0150148Y0122402D01*
X0150148Y0121501D01*
X0150599Y0121051D01*
X0151950Y0121051D01*
X0151049Y0121051D02*
X0150148Y0120150D01*
X0149003Y0120150D02*
X0147202Y0121952D01*
X0147202Y0122402D01*
X0147652Y0122852D01*
X0148553Y0122852D01*
X0149003Y0122402D01*
X0149003Y0120150D02*
X0147202Y0120150D01*
X0146057Y0120150D02*
X0144255Y0121952D01*
X0144255Y0122402D01*
X0144706Y0122852D01*
X0145607Y0122852D01*
X0146057Y0122402D01*
X0146057Y0120150D02*
X0144255Y0120150D01*
X0110550Y0129900D02*
X0110100Y0129450D01*
X0109199Y0129450D01*
X0108748Y0129900D01*
X0107603Y0129450D02*
X0105802Y0129450D01*
X0106703Y0129450D02*
X0106703Y0132152D01*
X0107603Y0131252D01*
X0108748Y0131702D02*
X0109199Y0132152D01*
X0110100Y0132152D01*
X0110550Y0131702D01*
X0110550Y0129900D01*
X0104657Y0129900D02*
X0104657Y0130351D01*
X0104207Y0130801D01*
X0103306Y0130801D01*
X0102855Y0130351D01*
X0102855Y0129900D01*
X0103306Y0129450D01*
X0104207Y0129450D01*
X0104657Y0129900D01*
X0104207Y0130801D02*
X0104657Y0131252D01*
X0104657Y0131702D01*
X0104207Y0132152D01*
X0103306Y0132152D01*
X0102855Y0131702D01*
X0102855Y0131252D01*
X0103306Y0130801D01*
X0084950Y0129900D02*
X0084500Y0129450D01*
X0083599Y0129450D01*
X0083148Y0129900D01*
X0082003Y0129450D02*
X0080202Y0129450D01*
X0081103Y0129450D02*
X0081103Y0132152D01*
X0082003Y0131252D01*
X0083148Y0131702D02*
X0083599Y0132152D01*
X0084500Y0132152D01*
X0084950Y0131702D01*
X0084950Y0129900D01*
X0079057Y0129900D02*
X0078607Y0129450D01*
X0077706Y0129450D01*
X0077255Y0129900D01*
X0077255Y0131702D01*
X0077706Y0132152D01*
X0078607Y0132152D01*
X0079057Y0131702D01*
X0079057Y0131252D01*
X0078607Y0130801D01*
X0077255Y0130801D01*
X0062652Y0130855D02*
X0062652Y0129954D01*
X0062202Y0129503D01*
X0062652Y0130855D02*
X0062202Y0131305D01*
X0061752Y0131305D01*
X0059950Y0129503D01*
X0059950Y0131305D01*
X0061301Y0128359D02*
X0061301Y0126557D01*
X0062652Y0127908D01*
X0059950Y0127908D01*
X0060400Y0125412D02*
X0059950Y0124962D01*
X0059950Y0124061D01*
X0060400Y0123610D01*
X0062202Y0123610D01*
X0062652Y0124061D01*
X0062652Y0124962D01*
X0062202Y0125412D01*
X0070800Y0114345D02*
X0070350Y0113894D01*
X0070350Y0112993D01*
X0070800Y0112543D01*
X0070800Y0111398D02*
X0070350Y0110948D01*
X0070350Y0109597D01*
X0073052Y0109597D01*
X0073052Y0110948D01*
X0072602Y0111398D01*
X0072152Y0111398D01*
X0071701Y0110948D01*
X0071701Y0109597D01*
X0071701Y0110948D02*
X0071251Y0111398D01*
X0070800Y0111398D01*
X0072602Y0112543D02*
X0073052Y0112993D01*
X0073052Y0113894D01*
X0072602Y0114345D01*
X0072152Y0114345D01*
X0071701Y0113894D01*
X0071251Y0114345D01*
X0070800Y0114345D01*
X0071701Y0113894D02*
X0071701Y0113444D01*
X0073052Y0108452D02*
X0073052Y0106650D01*
X0070350Y0106650D01*
X0071701Y0106650D02*
X0071701Y0107551D01*
X0083650Y0102886D02*
X0084551Y0103786D01*
X0085452Y0103786D01*
X0086352Y0102886D01*
X0085452Y0101741D02*
X0085452Y0100390D01*
X0085001Y0099939D01*
X0084551Y0100390D01*
X0084551Y0101290D01*
X0084100Y0101741D01*
X0083650Y0101290D01*
X0083650Y0099939D01*
X0083650Y0098794D02*
X0083650Y0096993D01*
X0086352Y0096993D01*
X0086352Y0098794D01*
X0085001Y0097893D02*
X0085001Y0096993D01*
X0083650Y0095848D02*
X0083650Y0094046D01*
X0086352Y0094046D01*
X0085902Y0092901D02*
X0084100Y0092901D01*
X0083650Y0092451D01*
X0083650Y0091550D01*
X0084100Y0091100D01*
X0085902Y0092901D01*
X0086352Y0092451D01*
X0086352Y0091550D01*
X0085902Y0091100D01*
X0084100Y0091100D01*
X0085902Y0089955D02*
X0084100Y0088153D01*
X0083650Y0088153D01*
X0084100Y0087008D02*
X0083650Y0086558D01*
X0083650Y0085657D01*
X0084100Y0085207D01*
X0085001Y0085207D02*
X0085452Y0086107D01*
X0085452Y0086558D01*
X0085001Y0087008D01*
X0084100Y0087008D01*
X0085001Y0085207D02*
X0086352Y0085207D01*
X0086352Y0087008D01*
X0086352Y0088153D02*
X0086352Y0089955D01*
X0085902Y0089955D01*
X0086352Y0084143D02*
X0085452Y0083242D01*
X0084551Y0083242D01*
X0083650Y0084143D01*
X0074052Y0079094D02*
X0073602Y0079545D01*
X0071800Y0077743D01*
X0071350Y0078193D01*
X0071350Y0079094D01*
X0071800Y0079545D01*
X0073602Y0079545D01*
X0074052Y0079094D02*
X0074052Y0078193D01*
X0073602Y0077743D01*
X0071800Y0077743D01*
X0071350Y0076598D02*
X0071350Y0074797D01*
X0071350Y0075697D02*
X0074052Y0075697D01*
X0073152Y0074797D01*
X0073602Y0073652D02*
X0074052Y0073201D01*
X0074052Y0072300D01*
X0073602Y0071850D01*
X0071800Y0071850D01*
X0071350Y0072300D01*
X0071350Y0073201D01*
X0071800Y0073652D01*
X0091956Y0067152D02*
X0091956Y0064450D01*
X0092857Y0064450D02*
X0091055Y0064450D01*
X0092857Y0066252D02*
X0091956Y0067152D01*
X0094903Y0067152D02*
X0094903Y0064450D01*
X0095803Y0064450D02*
X0094002Y0064450D01*
X0095803Y0066252D02*
X0094903Y0067152D01*
X0096948Y0066702D02*
X0097399Y0067152D01*
X0098300Y0067152D01*
X0098750Y0066702D01*
X0098750Y0064900D01*
X0098300Y0064450D01*
X0097399Y0064450D01*
X0096948Y0064900D01*
X0105550Y0064262D02*
X0105550Y0063361D01*
X0106000Y0062910D01*
X0107802Y0062910D01*
X0108252Y0063361D01*
X0108252Y0064262D01*
X0107802Y0064712D01*
X0107352Y0065857D02*
X0108252Y0066758D01*
X0105550Y0066758D01*
X0105550Y0065857D02*
X0105550Y0067659D01*
X0105550Y0068803D02*
X0106000Y0068803D01*
X0107802Y0070605D01*
X0108252Y0070605D01*
X0108252Y0068803D01*
X0106000Y0064712D02*
X0105550Y0064262D01*
X0105800Y0083310D02*
X0105350Y0083761D01*
X0105350Y0084662D01*
X0105800Y0085112D01*
X0105350Y0086257D02*
X0105350Y0088059D01*
X0105350Y0087158D02*
X0108052Y0087158D01*
X0107152Y0086257D01*
X0107602Y0085112D02*
X0108052Y0084662D01*
X0108052Y0083761D01*
X0107602Y0083310D01*
X0105800Y0083310D01*
X0105350Y0089203D02*
X0107152Y0091005D01*
X0107602Y0091005D01*
X0108052Y0090555D01*
X0108052Y0089654D01*
X0107602Y0089203D01*
X0105350Y0089203D02*
X0105350Y0091005D01*
X0098900Y0107650D02*
X0097999Y0107650D01*
X0097548Y0108100D01*
X0096403Y0107650D02*
X0094602Y0107650D01*
X0095503Y0107650D02*
X0095503Y0110352D01*
X0096403Y0109452D01*
X0097548Y0109902D02*
X0097999Y0110352D01*
X0098900Y0110352D01*
X0099350Y0109902D01*
X0099350Y0108100D01*
X0098900Y0107650D01*
X0093457Y0108100D02*
X0093007Y0107650D01*
X0092106Y0107650D01*
X0091655Y0108100D01*
X0091655Y0108551D01*
X0092106Y0109001D01*
X0092556Y0109001D01*
X0092106Y0109001D02*
X0091655Y0109452D01*
X0091655Y0109902D01*
X0092106Y0110352D01*
X0093007Y0110352D01*
X0093457Y0109902D01*
X0046150Y0092502D02*
X0046150Y0090700D01*
X0045700Y0090250D01*
X0044799Y0090250D01*
X0044348Y0090700D01*
X0043203Y0090250D02*
X0041402Y0090250D01*
X0042303Y0090250D02*
X0042303Y0092952D01*
X0043203Y0092052D01*
X0044348Y0092502D02*
X0044799Y0092952D01*
X0045700Y0092952D01*
X0046150Y0092502D01*
X0040257Y0091601D02*
X0038455Y0091601D01*
X0038906Y0090250D02*
X0038906Y0092952D01*
X0040257Y0091601D01*
X0012850Y0092382D02*
X0012850Y0093283D01*
X0012400Y0093733D01*
X0011499Y0093733D01*
X0011048Y0093283D01*
X0011048Y0092382D01*
X0011499Y0091932D01*
X0011949Y0091932D01*
X0011949Y0093733D01*
X0012400Y0094878D02*
X0011949Y0095329D01*
X0011949Y0096229D01*
X0011499Y0096680D01*
X0011048Y0096229D01*
X0011048Y0094878D01*
X0012400Y0094878D02*
X0012850Y0095329D01*
X0012850Y0096680D01*
X0012850Y0097825D02*
X0011048Y0097825D01*
X0011048Y0099626D02*
X0012400Y0099626D01*
X0012850Y0099176D01*
X0012850Y0097825D01*
X0008050Y0097825D02*
X0006248Y0097825D01*
X0006699Y0096680D02*
X0006248Y0096229D01*
X0006248Y0094878D01*
X0007149Y0095329D02*
X0007149Y0096229D01*
X0006699Y0096680D01*
X0008050Y0096680D02*
X0008050Y0095329D01*
X0007600Y0094878D01*
X0007149Y0095329D01*
X0007149Y0093733D02*
X0007149Y0091932D01*
X0006699Y0091932D01*
X0006248Y0092382D01*
X0006248Y0093283D01*
X0006699Y0093733D01*
X0007600Y0093733D01*
X0008050Y0093283D01*
X0008050Y0092382D01*
X0007600Y0087840D02*
X0005348Y0087840D01*
X0005348Y0086039D02*
X0007600Y0086039D01*
X0008050Y0086489D01*
X0008050Y0087390D01*
X0007600Y0087840D01*
X0010148Y0087840D02*
X0010148Y0086039D01*
X0010148Y0084894D02*
X0010148Y0083543D01*
X0010598Y0083092D01*
X0011048Y0083092D01*
X0011499Y0083543D01*
X0011499Y0084894D01*
X0012850Y0084894D02*
X0012850Y0083543D01*
X0012400Y0083092D01*
X0011949Y0083092D01*
X0011499Y0083543D01*
X0012400Y0081947D02*
X0012850Y0081497D01*
X0012850Y0080596D01*
X0012400Y0080146D01*
X0011949Y0080146D01*
X0011499Y0080596D01*
X0011499Y0081046D01*
X0011499Y0080596D02*
X0011048Y0080146D01*
X0010598Y0080146D01*
X0010148Y0080596D01*
X0010148Y0081497D01*
X0010598Y0081947D01*
X0008951Y0081947D02*
X0008050Y0081046D01*
X0008050Y0081497D01*
X0007600Y0081497D01*
X0007600Y0081046D01*
X0008050Y0081046D01*
X0007600Y0079983D02*
X0005798Y0079983D01*
X0005348Y0079532D01*
X0005348Y0078632D01*
X0005798Y0078181D01*
X0006699Y0077036D02*
X0006699Y0075235D01*
X0006248Y0074090D02*
X0005348Y0073189D01*
X0008050Y0073189D01*
X0008050Y0074090D02*
X0008050Y0072288D01*
X0008951Y0071143D02*
X0008050Y0070243D01*
X0008050Y0070693D01*
X0007600Y0070693D01*
X0007600Y0070243D01*
X0008050Y0070243D01*
X0007600Y0069179D02*
X0005798Y0069179D01*
X0005348Y0068729D01*
X0005348Y0067828D01*
X0005798Y0067377D01*
X0006699Y0066232D02*
X0006699Y0064431D01*
X0008050Y0064881D02*
X0005348Y0064881D01*
X0006699Y0066232D01*
X0007600Y0067377D02*
X0008050Y0067828D01*
X0008050Y0068729D01*
X0007600Y0069179D01*
X0008050Y0063286D02*
X0006248Y0061484D01*
X0005798Y0061484D01*
X0005348Y0061935D01*
X0005348Y0062836D01*
X0005798Y0063286D01*
X0008050Y0063286D02*
X0008050Y0061484D01*
X0008050Y0075685D02*
X0005348Y0075685D01*
X0006699Y0077036D01*
X0007600Y0078181D02*
X0008050Y0078632D01*
X0008050Y0079532D01*
X0007600Y0079983D01*
X0009697Y0079001D02*
X0011499Y0079001D01*
X0012400Y0079001D02*
X0012850Y0079001D01*
X0012850Y0078019D02*
X0012400Y0078019D01*
X0011499Y0078019D02*
X0009697Y0078019D01*
X0009697Y0077036D02*
X0011499Y0077036D01*
X0012400Y0077036D02*
X0012850Y0077036D01*
X0008050Y0083543D02*
X0005348Y0083543D01*
X0006699Y0084894D01*
X0006699Y0083092D01*
X0010148Y0084894D02*
X0012850Y0084894D01*
X0011499Y0086939D02*
X0011499Y0087840D01*
X0012850Y0087840D02*
X0010148Y0087840D01*
X0008050Y0097825D02*
X0008050Y0099176D01*
X0007600Y0099626D01*
X0006248Y0099626D01*
X0006248Y0103636D02*
X0006248Y0104537D01*
X0005798Y0104087D02*
X0007600Y0104087D01*
X0008050Y0103636D01*
X0009697Y0105560D02*
X0010598Y0105560D01*
X0011048Y0106010D01*
X0011499Y0107155D02*
X0012850Y0107155D01*
X0011499Y0107155D02*
X0011048Y0107606D01*
X0011048Y0108957D01*
X0012850Y0108957D01*
X0012400Y0110102D02*
X0011499Y0110102D01*
X0011048Y0110552D01*
X0011048Y0111453D01*
X0011499Y0111903D01*
X0012400Y0111903D01*
X0012850Y0111453D01*
X0012850Y0110552D01*
X0012400Y0110102D01*
X0012400Y0113048D02*
X0010598Y0113048D01*
X0010148Y0113499D01*
X0010148Y0114850D01*
X0012850Y0114850D01*
X0012850Y0113499D01*
X0012400Y0113048D01*
X0008050Y0113499D02*
X0007600Y0113048D01*
X0005798Y0113048D01*
X0005348Y0113499D01*
X0005348Y0114850D01*
X0008050Y0114850D01*
X0008050Y0113499D01*
X0007600Y0111903D02*
X0008050Y0111453D01*
X0008050Y0110552D01*
X0007600Y0110102D01*
X0006699Y0110102D01*
X0006248Y0110552D01*
X0006248Y0111453D01*
X0006699Y0111903D01*
X0007600Y0111903D01*
X0008050Y0108957D02*
X0006248Y0108957D01*
X0006248Y0107606D01*
X0006699Y0107155D01*
X0008050Y0107155D01*
X0006248Y0106010D02*
X0005798Y0105560D01*
X0004897Y0105560D01*
X0010598Y0104087D02*
X0012400Y0104087D01*
X0012850Y0103636D01*
X0011048Y0103636D02*
X0011048Y0104537D01*
X0008050Y0117131D02*
X0008050Y0117582D01*
X0007600Y0117582D01*
X0007600Y0117131D01*
X0008050Y0117131D01*
X0006699Y0117131D02*
X0006699Y0117582D01*
X0006248Y0117582D01*
X0006248Y0117131D01*
X0006699Y0117131D01*
X0008050Y0118645D02*
X0008050Y0119546D01*
X0008050Y0119096D02*
X0005348Y0119096D01*
X0005348Y0119546D02*
X0005348Y0118645D01*
X0005348Y0120610D02*
X0005348Y0121510D01*
X0005348Y0121060D02*
X0008050Y0121060D01*
X0008050Y0121510D02*
X0008050Y0120610D01*
X0008050Y0122655D02*
X0006248Y0124457D01*
X0006699Y0125602D02*
X0008050Y0125602D01*
X0008050Y0126953D01*
X0007600Y0127403D01*
X0007149Y0126953D01*
X0007149Y0125602D01*
X0006699Y0125602D02*
X0006248Y0126052D01*
X0006248Y0126953D01*
X0005348Y0128548D02*
X0008050Y0128548D01*
X0008050Y0130350D02*
X0005348Y0130350D01*
X0006248Y0129449D01*
X0005348Y0128548D01*
X0010148Y0128548D02*
X0012850Y0128548D01*
X0012400Y0127403D02*
X0011949Y0126953D01*
X0011949Y0125602D01*
X0011499Y0125602D02*
X0012850Y0125602D01*
X0012850Y0126953D01*
X0012400Y0127403D01*
X0011048Y0126953D02*
X0011048Y0126052D01*
X0011499Y0125602D01*
X0011048Y0124457D02*
X0012850Y0122655D01*
X0011949Y0121510D02*
X0012850Y0120610D01*
X0011949Y0119709D01*
X0010148Y0119709D01*
X0011048Y0118564D02*
X0011499Y0118564D01*
X0011499Y0118114D01*
X0011048Y0118114D01*
X0011048Y0118564D01*
X0012400Y0118564D02*
X0012850Y0118564D01*
X0012850Y0118114D01*
X0012400Y0118114D01*
X0012400Y0118564D01*
X0011949Y0121510D02*
X0010148Y0121510D01*
X0011048Y0122655D02*
X0012850Y0124457D01*
X0008050Y0124457D02*
X0006248Y0122655D01*
X0010148Y0128548D02*
X0011048Y0129449D01*
X0010148Y0130350D01*
X0012850Y0130350D01*
X0030150Y0128305D02*
X0030150Y0126503D01*
X0030150Y0127404D02*
X0032852Y0127404D01*
X0031952Y0126503D01*
X0031501Y0125359D02*
X0031501Y0123557D01*
X0032852Y0124908D01*
X0030150Y0124908D01*
X0030600Y0122412D02*
X0030150Y0121962D01*
X0030150Y0121061D01*
X0030600Y0120610D01*
X0032402Y0120610D01*
X0032852Y0121061D01*
X0032852Y0121962D01*
X0032402Y0122412D01*
X0172109Y0083002D02*
X0172109Y0082552D01*
X0172559Y0082101D01*
X0172109Y0081651D01*
X0172109Y0081200D01*
X0172559Y0080750D01*
X0173460Y0080750D01*
X0173910Y0081200D01*
X0175055Y0080750D02*
X0176857Y0080750D01*
X0175055Y0082552D01*
X0175055Y0083002D01*
X0175506Y0083452D01*
X0176407Y0083452D01*
X0176857Y0083002D01*
X0178002Y0083452D02*
X0178002Y0080750D01*
X0179803Y0083452D01*
X0179803Y0080750D01*
X0180948Y0080750D02*
X0181849Y0081651D01*
X0181399Y0081651D02*
X0182750Y0081651D01*
X0182750Y0080750D02*
X0182750Y0083452D01*
X0181399Y0083452D01*
X0180948Y0083002D01*
X0180948Y0082101D01*
X0181399Y0081651D01*
X0173910Y0083002D02*
X0173460Y0083452D01*
X0172559Y0083452D01*
X0172109Y0083002D01*
X0172559Y0082101D02*
X0173010Y0082101D01*
X0178206Y0090650D02*
X0179107Y0090650D01*
X0179557Y0091100D01*
X0179557Y0091551D01*
X0179107Y0092001D01*
X0178206Y0092001D01*
X0177755Y0091551D01*
X0177755Y0091100D01*
X0178206Y0090650D01*
X0178206Y0092001D02*
X0177755Y0092452D01*
X0177755Y0092902D01*
X0178206Y0093352D01*
X0179107Y0093352D01*
X0179557Y0092902D01*
X0179557Y0092452D01*
X0179107Y0092001D01*
X0180702Y0092452D02*
X0180702Y0092902D01*
X0181152Y0093352D01*
X0182053Y0093352D01*
X0182503Y0092902D01*
X0183648Y0092902D02*
X0184099Y0093352D01*
X0185000Y0093352D01*
X0185450Y0092902D01*
X0185450Y0091100D01*
X0185000Y0090650D01*
X0184099Y0090650D01*
X0183648Y0091100D01*
X0182503Y0090650D02*
X0180702Y0090650D01*
X0182503Y0090650D02*
X0180702Y0092452D01*
D12*
X0172750Y0094937D02*
X0170250Y0094937D01*
X0170250Y0098062D02*
X0172750Y0098062D01*
X0172750Y0102437D02*
X0170250Y0102437D01*
X0170250Y0105562D02*
X0172750Y0105562D01*
X0160750Y0105562D02*
X0158250Y0105562D01*
X0158250Y0102437D02*
X0160750Y0102437D01*
X0160750Y0098062D02*
X0158250Y0098062D01*
X0158250Y0094937D02*
X0160750Y0094937D01*
X0160750Y0090562D02*
X0158250Y0090562D01*
X0158250Y0087437D02*
X0160750Y0087437D01*
X0160750Y0083063D02*
X0158250Y0083063D01*
X0158250Y0079938D02*
X0160750Y0079938D01*
X0146563Y0069250D02*
X0146563Y0066750D01*
X0143438Y0066750D02*
X0143438Y0069250D01*
X0139063Y0069250D02*
X0139063Y0066750D01*
X0135938Y0066750D02*
X0135938Y0069250D01*
X0113562Y0068250D02*
X0113562Y0065750D01*
X0110437Y0065750D02*
X0110437Y0068250D01*
X0096750Y0062062D02*
X0094250Y0062062D01*
X0094250Y0058937D02*
X0096750Y0058937D01*
X0069563Y0074250D02*
X0069563Y0076750D01*
X0066438Y0076750D02*
X0066438Y0074250D01*
X0075000Y0089000D02*
X0081000Y0089000D01*
X0081060Y0089002D01*
X0081121Y0089007D01*
X0081180Y0089016D01*
X0081239Y0089029D01*
X0081298Y0089045D01*
X0081355Y0089065D01*
X0081410Y0089088D01*
X0081465Y0089115D01*
X0081517Y0089144D01*
X0081568Y0089177D01*
X0081617Y0089213D01*
X0081663Y0089251D01*
X0081707Y0089293D01*
X0081749Y0089337D01*
X0081787Y0089383D01*
X0081823Y0089432D01*
X0081856Y0089483D01*
X0081885Y0089535D01*
X0081912Y0089590D01*
X0081935Y0089645D01*
X0081955Y0089702D01*
X0081971Y0089761D01*
X0081984Y0089820D01*
X0081993Y0089879D01*
X0081998Y0089940D01*
X0082000Y0090000D01*
X0082000Y0101000D01*
X0081998Y0101060D01*
X0081993Y0101121D01*
X0081984Y0101180D01*
X0081971Y0101239D01*
X0081955Y0101298D01*
X0081935Y0101355D01*
X0081912Y0101410D01*
X0081885Y0101465D01*
X0081856Y0101517D01*
X0081823Y0101568D01*
X0081787Y0101617D01*
X0081749Y0101663D01*
X0081707Y0101707D01*
X0081663Y0101749D01*
X0081617Y0101787D01*
X0081568Y0101823D01*
X0081517Y0101856D01*
X0081465Y0101885D01*
X0081410Y0101912D01*
X0081355Y0101935D01*
X0081298Y0101955D01*
X0081239Y0101971D01*
X0081180Y0101984D01*
X0081121Y0101993D01*
X0081060Y0101998D01*
X0081000Y0102000D01*
X0075000Y0102000D01*
X0074940Y0101998D01*
X0074879Y0101993D01*
X0074820Y0101984D01*
X0074761Y0101971D01*
X0074702Y0101955D01*
X0074645Y0101935D01*
X0074590Y0101912D01*
X0074535Y0101885D01*
X0074483Y0101856D01*
X0074432Y0101823D01*
X0074383Y0101787D01*
X0074337Y0101749D01*
X0074293Y0101707D01*
X0074251Y0101663D01*
X0074213Y0101617D01*
X0074177Y0101568D01*
X0074144Y0101517D01*
X0074115Y0101465D01*
X0074088Y0101410D01*
X0074065Y0101355D01*
X0074045Y0101298D01*
X0074029Y0101239D01*
X0074016Y0101180D01*
X0074007Y0101121D01*
X0074002Y0101060D01*
X0074000Y0101000D01*
X0074000Y0090000D01*
X0074002Y0089940D01*
X0074007Y0089879D01*
X0074016Y0089820D01*
X0074029Y0089761D01*
X0074045Y0089702D01*
X0074065Y0089645D01*
X0074088Y0089590D01*
X0074115Y0089535D01*
X0074144Y0089483D01*
X0074177Y0089432D01*
X0074213Y0089383D01*
X0074251Y0089337D01*
X0074293Y0089293D01*
X0074337Y0089251D01*
X0074383Y0089213D01*
X0074432Y0089177D01*
X0074483Y0089144D01*
X0074535Y0089115D01*
X0074590Y0089088D01*
X0074645Y0089065D01*
X0074702Y0089045D01*
X0074761Y0089029D01*
X0074820Y0089016D01*
X0074879Y0089007D01*
X0074940Y0089002D01*
X0075000Y0089000D01*
X0088800Y0092867D02*
X0088800Y0093434D01*
X0089367Y0094001D01*
X0092203Y0094001D01*
X0092203Y0093434D02*
X0092203Y0094569D01*
X0091069Y0095983D02*
X0092203Y0097117D01*
X0088800Y0097117D01*
X0088800Y0095983D02*
X0088800Y0098252D01*
X0092750Y0102437D02*
X0095250Y0102437D01*
X0095250Y0105562D02*
X0092750Y0105562D01*
X0088800Y0092867D02*
X0089367Y0092300D01*
X0074500Y0103000D02*
X0074500Y0107781D01*
X0074500Y0111719D02*
X0074500Y0116500D01*
X0058000Y0116500D01*
X0058000Y0111719D01*
X0058000Y0107781D02*
X0058000Y0103000D01*
X0064281Y0103000D01*
X0068219Y0103000D02*
X0074500Y0103000D01*
X0067563Y0108750D02*
X0067563Y0111250D01*
X0064437Y0111250D02*
X0064437Y0108750D01*
X0058000Y0116500D02*
X0053453Y0116500D01*
X0049516Y0116500D02*
X0044969Y0116500D01*
X0041031Y0116500D02*
X0036484Y0116500D01*
X0032547Y0116500D02*
X0028000Y0116500D01*
X0028000Y0123531D01*
X0023706Y0124922D02*
X0019495Y0124922D01*
X0019359Y0125520D02*
X0023869Y0125520D01*
X0024032Y0126119D02*
X0019223Y0126119D01*
X0019087Y0126717D02*
X0024196Y0126717D01*
X0024359Y0127316D02*
X0018951Y0127316D01*
X0018815Y0127914D02*
X0024522Y0127914D01*
X0024685Y0128513D02*
X0018679Y0128513D01*
X0018543Y0129111D02*
X0024848Y0129111D01*
X0025012Y0129710D02*
X0018407Y0129710D01*
X0018271Y0130308D02*
X0025175Y0130308D01*
X0025338Y0130907D02*
X0018135Y0130907D01*
X0018000Y0131500D02*
X0020500Y0120500D01*
X0022500Y0120500D01*
X0025500Y0131500D01*
X0018000Y0131500D01*
X0014000Y0132000D02*
X0014000Y0127500D01*
X0014000Y0123563D02*
X0014000Y0119062D01*
X0014000Y0115125D02*
X0014000Y0110625D01*
X0014000Y0106688D02*
X0014000Y0102187D01*
X0014000Y0098250D02*
X0014000Y0093750D01*
X0014000Y0089813D02*
X0014000Y0085312D01*
X0014000Y0081375D02*
X0014000Y0076875D01*
X0014000Y0072938D02*
X0014000Y0068437D01*
X0014000Y0064500D02*
X0014000Y0060000D01*
X0004000Y0060000D01*
X0004000Y0064500D01*
X0004000Y0068437D02*
X0004000Y0072938D01*
X0004000Y0076875D02*
X0004000Y0081375D01*
X0004000Y0085312D02*
X0004000Y0089813D01*
X0004000Y0093750D02*
X0004000Y0098250D01*
X0004000Y0102187D02*
X0004000Y0106688D01*
X0004000Y0110625D02*
X0004000Y0115125D01*
X0004000Y0119062D02*
X0004000Y0123563D01*
X0004000Y0127500D02*
X0004000Y0132000D01*
X0004500Y0132000D01*
X0014000Y0132000D01*
X0019631Y0124323D02*
X0023543Y0124323D01*
X0023379Y0123725D02*
X0019767Y0123725D01*
X0019903Y0123126D02*
X0023216Y0123126D01*
X0023053Y0122528D02*
X0020039Y0122528D01*
X0020175Y0121929D02*
X0022890Y0121929D01*
X0022727Y0121331D02*
X0020311Y0121331D01*
X0020447Y0120732D02*
X0022563Y0120732D01*
X0028000Y0127469D02*
X0028000Y0134500D01*
X0032469Y0134500D01*
X0036406Y0134500D02*
X0040875Y0134500D01*
X0044812Y0134500D02*
X0049281Y0134500D01*
X0053219Y0134500D02*
X0057688Y0134500D01*
X0061625Y0134500D02*
X0066094Y0134500D01*
X0070031Y0134500D02*
X0074500Y0134500D01*
X0074500Y0127469D01*
X0074500Y0123531D02*
X0074500Y0116500D01*
X0080250Y0124437D02*
X0082750Y0124437D01*
X0082750Y0127562D02*
X0080250Y0127562D01*
X0067563Y0128750D02*
X0067563Y0126250D01*
X0064437Y0126250D02*
X0064437Y0128750D01*
X0056598Y0129189D02*
X0056598Y0122811D01*
X0056228Y0122811D01*
X0053055Y0122811D02*
X0052685Y0122811D01*
X0049315Y0122811D02*
X0048945Y0122811D01*
X0045772Y0122811D02*
X0045402Y0122811D01*
X0045402Y0129189D01*
X0045772Y0129189D01*
X0044103Y0127518D02*
X0042401Y0125817D01*
X0042401Y0128085D01*
X0040700Y0127518D02*
X0044103Y0127518D01*
X0044103Y0124402D02*
X0041267Y0124402D01*
X0040700Y0123835D01*
X0040700Y0122701D01*
X0041267Y0122134D01*
X0044103Y0122134D01*
X0037563Y0126250D02*
X0037563Y0128750D01*
X0034438Y0128750D02*
X0034438Y0126250D01*
X0048945Y0129189D02*
X0053055Y0129189D01*
X0056228Y0129189D02*
X0056598Y0129189D01*
X0107750Y0127562D02*
X0110250Y0127562D01*
X0110250Y0124437D02*
X0107750Y0124437D01*
X0147250Y0118062D02*
X0149750Y0118062D01*
X0149750Y0114937D02*
X0147250Y0114937D01*
X0113562Y0089750D02*
X0113562Y0087250D01*
X0110437Y0087250D02*
X0110437Y0089750D01*
X0067063Y0052250D02*
X0067063Y0049750D01*
X0063937Y0049750D02*
X0063937Y0052250D01*
X0047750Y0052062D02*
X0045250Y0052062D01*
X0045250Y0048937D02*
X0047750Y0048937D01*
X0078750Y0038563D02*
X0081250Y0038563D01*
X0081250Y0035438D02*
X0078750Y0035438D01*
X0099250Y0035438D02*
X0101750Y0035438D01*
X0101750Y0038563D02*
X0099250Y0038563D01*
X0127437Y0030750D02*
X0127437Y0028250D01*
X0130562Y0028250D02*
X0130562Y0030750D01*
X0137808Y0019703D02*
X0140076Y0019703D01*
X0140076Y0018001D01*
X0138942Y0018569D01*
X0138375Y0018569D01*
X0137808Y0018001D01*
X0137808Y0016867D01*
X0138375Y0016300D01*
X0139509Y0016300D01*
X0140076Y0016867D01*
X0141491Y0016867D02*
X0142058Y0016300D01*
X0143192Y0016300D01*
X0143760Y0016867D01*
X0141491Y0019136D01*
X0141491Y0016867D01*
X0143760Y0016867D02*
X0143760Y0019136D01*
X0143192Y0019703D01*
X0142058Y0019703D01*
X0141491Y0019136D01*
X0145174Y0019136D02*
X0145741Y0019703D01*
X0146876Y0019703D01*
X0147443Y0019136D01*
X0148857Y0019136D02*
X0151126Y0016867D01*
X0150559Y0016300D01*
X0149424Y0016300D01*
X0148857Y0016867D01*
X0148857Y0019136D01*
X0149424Y0019703D01*
X0150559Y0019703D01*
X0151126Y0019136D01*
X0151126Y0016867D01*
X0152540Y0016867D02*
X0153108Y0016300D01*
X0154242Y0016300D01*
X0154809Y0016867D01*
X0154809Y0017434D01*
X0154242Y0018001D01*
X0153108Y0018001D01*
X0152540Y0017434D01*
X0152540Y0016867D01*
X0153108Y0018001D02*
X0152540Y0018569D01*
X0152540Y0019136D01*
X0153108Y0019703D01*
X0154242Y0019703D01*
X0154809Y0019136D01*
X0154809Y0018569D01*
X0154242Y0018001D01*
X0156224Y0016300D02*
X0158492Y0016300D01*
X0157358Y0016300D02*
X0157358Y0019703D01*
X0158492Y0018569D01*
X0159907Y0019136D02*
X0159907Y0016867D01*
X0160474Y0016300D01*
X0161608Y0016300D01*
X0162175Y0016867D01*
X0159907Y0019136D01*
X0160474Y0019703D01*
X0161608Y0019703D01*
X0162175Y0019136D01*
X0162175Y0016867D01*
X0163590Y0016300D02*
X0165858Y0016300D01*
X0163590Y0018569D01*
X0163590Y0019136D01*
X0164157Y0019703D01*
X0165291Y0019703D01*
X0165858Y0019136D01*
X0167273Y0015733D02*
X0169542Y0015733D01*
X0170956Y0016300D02*
X0173225Y0016300D01*
X0170956Y0018569D01*
X0170956Y0019136D01*
X0171523Y0019703D01*
X0172658Y0019703D01*
X0173225Y0019136D01*
X0174639Y0018569D02*
X0175774Y0016300D01*
X0176908Y0018569D01*
X0178322Y0018569D02*
X0178890Y0018001D01*
X0180591Y0018001D01*
X0182006Y0018001D02*
X0183140Y0018001D01*
X0182006Y0018001D02*
X0182006Y0016867D01*
X0182573Y0016300D01*
X0183707Y0016300D01*
X0184274Y0016867D01*
X0184274Y0019136D01*
X0183707Y0019703D01*
X0182573Y0019703D01*
X0182006Y0019136D01*
X0180591Y0019703D02*
X0178890Y0019703D01*
X0178322Y0019136D01*
X0178322Y0018569D01*
X0178890Y0018001D02*
X0178322Y0017434D01*
X0178322Y0016867D01*
X0178890Y0016300D01*
X0180591Y0016300D01*
X0180591Y0019703D01*
X0185689Y0019136D02*
X0185689Y0018001D01*
X0186256Y0017434D01*
X0187957Y0017434D01*
X0186823Y0017434D02*
X0185689Y0016300D01*
X0187957Y0016300D02*
X0187957Y0019703D01*
X0186256Y0019703D01*
X0185689Y0019136D01*
X0189372Y0018001D02*
X0191640Y0018001D01*
X0189939Y0019703D01*
X0189939Y0016300D01*
X0193055Y0016867D02*
X0193622Y0016300D01*
X0194756Y0016300D01*
X0195324Y0016867D01*
X0195324Y0018001D01*
X0193622Y0018001D01*
X0193055Y0017434D01*
X0193055Y0016867D01*
X0194189Y0019136D02*
X0195324Y0018001D01*
X0194189Y0019136D02*
X0193055Y0019703D01*
X0196738Y0019703D02*
X0196738Y0016300D01*
X0199007Y0019703D01*
X0199007Y0016300D01*
X0147443Y0016300D02*
X0145174Y0018569D01*
X0145174Y0019136D01*
X0145174Y0016300D02*
X0147443Y0016300D01*
X0043750Y0085438D02*
X0041250Y0085438D01*
X0041250Y0088562D02*
X0043750Y0088562D01*
X0014562Y0031750D02*
X0014562Y0029250D01*
X0011437Y0029250D02*
X0011437Y0031750D01*
D13*
X0020900Y0117500D02*
X0020902Y0117549D01*
X0020908Y0117597D01*
X0020918Y0117645D01*
X0020932Y0117692D01*
X0020949Y0117738D01*
X0020970Y0117782D01*
X0020995Y0117824D01*
X0021023Y0117864D01*
X0021055Y0117902D01*
X0021089Y0117937D01*
X0021126Y0117969D01*
X0021165Y0117998D01*
X0021207Y0118024D01*
X0021251Y0118046D01*
X0021296Y0118064D01*
X0021343Y0118079D01*
X0021390Y0118090D01*
X0021439Y0118097D01*
X0021488Y0118100D01*
X0021537Y0118099D01*
X0021585Y0118094D01*
X0021634Y0118085D01*
X0021681Y0118072D01*
X0021727Y0118055D01*
X0021771Y0118035D01*
X0021814Y0118011D01*
X0021855Y0117984D01*
X0021893Y0117953D01*
X0021929Y0117920D01*
X0021961Y0117884D01*
X0021991Y0117845D01*
X0022018Y0117804D01*
X0022041Y0117760D01*
X0022060Y0117715D01*
X0022076Y0117669D01*
X0022088Y0117622D01*
X0022096Y0117573D01*
X0022100Y0117524D01*
X0022100Y0117476D01*
X0022096Y0117427D01*
X0022088Y0117378D01*
X0022076Y0117331D01*
X0022060Y0117285D01*
X0022041Y0117240D01*
X0022018Y0117196D01*
X0021991Y0117155D01*
X0021961Y0117116D01*
X0021929Y0117080D01*
X0021893Y0117047D01*
X0021855Y0117016D01*
X0021814Y0116989D01*
X0021771Y0116965D01*
X0021727Y0116945D01*
X0021681Y0116928D01*
X0021634Y0116915D01*
X0021585Y0116906D01*
X0021537Y0116901D01*
X0021488Y0116900D01*
X0021439Y0116903D01*
X0021390Y0116910D01*
X0021343Y0116921D01*
X0021296Y0116936D01*
X0021251Y0116954D01*
X0021207Y0116976D01*
X0021165Y0117002D01*
X0021126Y0117031D01*
X0021089Y0117063D01*
X0021055Y0117098D01*
X0021023Y0117136D01*
X0020995Y0117176D01*
X0020970Y0117218D01*
X0020949Y0117262D01*
X0020932Y0117308D01*
X0020918Y0117355D01*
X0020908Y0117403D01*
X0020902Y0117451D01*
X0020900Y0117500D01*
D14*
X0171398Y0077453D02*
X0171398Y0071547D01*
X0183602Y0071547D02*
X0183602Y0077453D01*
M02*
