G75*
%MOIN*%
%OFA0B0*%
%FSLAX25Y25*%
%IPPOS*%
%LPD*%
%AMOC8*
5,1,8,0,0,1.08239X$1,22.5*
%
%ADD10C,0.00000*%
%ADD11R,0.10400X0.05400*%
%ADD12R,0.05518X0.06306*%
%ADD13R,0.06699X0.07487*%
%ADD14R,0.11030X0.06699*%
%ADD15R,0.06306X0.05518*%
%ADD16R,0.06699X0.03550*%
%ADD17R,0.04337X0.04731*%
%ADD18R,0.05000X0.06700*%
%ADD19R,0.00600X0.07200*%
%ADD20R,0.04731X0.04337*%
%ADD21R,0.03937X0.02362*%
%ADD22R,0.06306X0.02920*%
%ADD23R,0.06306X0.01660*%
%ADD24R,0.02920X0.06306*%
%ADD25R,0.01660X0.06306*%
%ADD26R,0.04337X0.02762*%
%ADD27R,0.04337X0.01581*%
%ADD28R,0.02762X0.04337*%
%ADD29R,0.01581X0.04337*%
%ADD30R,0.01975X0.04534*%
%ADD31C,0.06337*%
%ADD32R,0.06700X0.05000*%
D10*
X0005500Y0013000D02*
X0003000Y0015500D01*
X0003000Y0133000D01*
X0005500Y0135500D01*
X0199500Y0135500D01*
X0202000Y0133000D01*
X0202000Y0015500D01*
X0199500Y0013000D01*
X0005500Y0013000D01*
D11*
X0009100Y0049700D03*
X0009000Y0107000D03*
X0009000Y0117000D03*
X0196000Y0117000D03*
X0196000Y0107000D03*
X0196000Y0089500D03*
X0196000Y0082000D03*
X0196000Y0074500D03*
X0196000Y0064500D03*
X0196000Y0054500D03*
X0196000Y0047000D03*
X0196000Y0029500D03*
X0196000Y0022000D03*
D12*
X0155740Y0036500D03*
X0148260Y0036500D03*
X0148740Y0129500D03*
X0141260Y0129500D03*
X0187260Y0129500D03*
X0194740Y0129500D03*
X0017240Y0128500D03*
X0009760Y0128500D03*
D13*
X0146988Y0024000D03*
X0158012Y0024000D03*
D14*
X0170000Y0024488D03*
X0170000Y0035512D03*
D15*
X0055500Y0119260D03*
X0055500Y0126740D03*
X0038000Y0126240D03*
X0038000Y0118760D03*
D16*
X0007500Y0097000D03*
X0007500Y0092000D03*
X0007500Y0087000D03*
X0007500Y0082000D03*
X0007500Y0077000D03*
X0007500Y0072000D03*
X0007500Y0067000D03*
X0007500Y0062000D03*
X0007500Y0057000D03*
D17*
X0022654Y0117000D03*
X0029346Y0117000D03*
X0132654Y0043500D03*
X0139346Y0043500D03*
X0124346Y0034000D03*
X0117654Y0034000D03*
X0112346Y0034000D03*
X0105654Y0034000D03*
X0167154Y0116500D03*
X0173846Y0116500D03*
X0167346Y0129500D03*
X0160654Y0129500D03*
D18*
X0096000Y0130500D03*
X0090000Y0130500D03*
X0084000Y0130500D03*
X0137500Y0067000D03*
X0143500Y0067000D03*
D19*
X0140500Y0067000D03*
D20*
X0182500Y0035346D03*
X0182500Y0028654D03*
D21*
X0038150Y0057276D03*
X0038150Y0060425D03*
X0038150Y0063575D03*
X0038150Y0066724D03*
X0031850Y0066724D03*
X0031850Y0063575D03*
X0031850Y0060425D03*
X0031850Y0057276D03*
X0031850Y0072276D03*
X0031850Y0075425D03*
X0031850Y0078575D03*
X0031850Y0081724D03*
X0038150Y0081724D03*
X0038150Y0078575D03*
X0038150Y0075425D03*
X0038150Y0072276D03*
X0038150Y0087276D03*
X0038150Y0090425D03*
X0038150Y0093575D03*
X0038150Y0096724D03*
X0031850Y0096724D03*
X0031850Y0093575D03*
X0031850Y0090425D03*
X0031850Y0087276D03*
D22*
X0058504Y0106252D03*
X0121496Y0106252D03*
X0121496Y0057748D03*
X0058504Y0057748D03*
D23*
X0058504Y0060346D03*
X0058504Y0062315D03*
X0058504Y0064283D03*
X0058504Y0066252D03*
X0058504Y0068220D03*
X0058504Y0070189D03*
X0058504Y0072157D03*
X0058504Y0074126D03*
X0058504Y0076094D03*
X0058504Y0078063D03*
X0058504Y0080031D03*
X0058504Y0082000D03*
X0058504Y0083969D03*
X0058504Y0085937D03*
X0058504Y0087906D03*
X0058504Y0089874D03*
X0058504Y0091843D03*
X0058504Y0093811D03*
X0058504Y0095780D03*
X0058504Y0097748D03*
X0058504Y0099717D03*
X0058504Y0101685D03*
X0058504Y0103654D03*
X0121496Y0103654D03*
X0121496Y0101685D03*
X0121496Y0099717D03*
X0121496Y0097748D03*
X0121496Y0095780D03*
X0121496Y0093811D03*
X0121496Y0091843D03*
X0121496Y0089874D03*
X0121496Y0087906D03*
X0121496Y0085937D03*
X0121496Y0083969D03*
X0121496Y0082000D03*
X0121496Y0080031D03*
X0121496Y0078063D03*
X0121496Y0076094D03*
X0121496Y0074126D03*
X0121496Y0072157D03*
X0121496Y0070189D03*
X0121496Y0068220D03*
X0121496Y0066252D03*
X0121496Y0064283D03*
X0121496Y0062315D03*
X0121496Y0060346D03*
D24*
X0114252Y0050504D03*
X0065748Y0050504D03*
X0065748Y0113496D03*
X0114252Y0113496D03*
D25*
X0111654Y0113496D03*
X0109685Y0113496D03*
X0107717Y0113496D03*
X0105748Y0113496D03*
X0103780Y0113496D03*
X0101811Y0113496D03*
X0099843Y0113496D03*
X0097874Y0113496D03*
X0095906Y0113496D03*
X0093937Y0113496D03*
X0091969Y0113496D03*
X0090000Y0113496D03*
X0088031Y0113496D03*
X0086063Y0113496D03*
X0084094Y0113496D03*
X0082126Y0113496D03*
X0080157Y0113496D03*
X0078189Y0113496D03*
X0076220Y0113496D03*
X0074252Y0113496D03*
X0072283Y0113496D03*
X0070315Y0113496D03*
X0068346Y0113496D03*
X0068346Y0050504D03*
X0070315Y0050504D03*
X0072283Y0050504D03*
X0074252Y0050504D03*
X0076220Y0050504D03*
X0078189Y0050504D03*
X0080157Y0050504D03*
X0082126Y0050504D03*
X0084094Y0050504D03*
X0086063Y0050504D03*
X0088031Y0050504D03*
X0090000Y0050504D03*
X0091969Y0050504D03*
X0093937Y0050504D03*
X0095906Y0050504D03*
X0097874Y0050504D03*
X0099843Y0050504D03*
X0101811Y0050504D03*
X0103780Y0050504D03*
X0105748Y0050504D03*
X0107717Y0050504D03*
X0109685Y0050504D03*
X0111654Y0050504D03*
D26*
X0135768Y0081409D03*
X0135768Y0104244D03*
X0169232Y0104244D03*
X0169232Y0081409D03*
D27*
X0169232Y0083969D03*
X0169232Y0085937D03*
X0169232Y0087906D03*
X0169232Y0089874D03*
X0169232Y0091843D03*
X0169232Y0093811D03*
X0169232Y0095780D03*
X0169232Y0097748D03*
X0169232Y0099717D03*
X0169232Y0101685D03*
X0135768Y0101685D03*
X0135768Y0099717D03*
X0135768Y0097748D03*
X0135768Y0095780D03*
X0135768Y0093811D03*
X0135768Y0091843D03*
X0135768Y0089874D03*
X0135768Y0087906D03*
X0135768Y0085937D03*
X0135768Y0083969D03*
D28*
X0141083Y0076094D03*
X0163917Y0076094D03*
X0163917Y0109559D03*
X0141083Y0109559D03*
D29*
X0143642Y0109559D03*
X0145610Y0109559D03*
X0147579Y0109559D03*
X0149547Y0109559D03*
X0151516Y0109559D03*
X0153484Y0109559D03*
X0155453Y0109559D03*
X0157421Y0109559D03*
X0159390Y0109559D03*
X0161358Y0109559D03*
X0161358Y0076094D03*
X0159390Y0076094D03*
X0157421Y0076094D03*
X0155453Y0076094D03*
X0153484Y0076094D03*
X0151516Y0076094D03*
X0149547Y0076094D03*
X0147579Y0076094D03*
X0145610Y0076094D03*
X0143642Y0076094D03*
D30*
X0137559Y0035642D03*
X0135000Y0035642D03*
X0132441Y0035642D03*
X0132441Y0028358D03*
X0135000Y0028358D03*
X0137559Y0028358D03*
D31*
X0065000Y0024500D03*
X0055000Y0024500D03*
X0045000Y0024500D03*
X0035000Y0024500D03*
X0025000Y0024500D03*
X0025000Y0034500D03*
X0035000Y0034500D03*
X0045000Y0034500D03*
X0055000Y0034500D03*
X0065000Y0034500D03*
D32*
X0090500Y0034100D03*
X0090500Y0028100D03*
X0090500Y0040100D03*
M02*
