G04 EAGLE Gerber X2 export*
%TF.Part,Single*%
%TF.FileFunction,Other,top copper*%
%TF.FilePolarity,Positive*%
%TF.GenerationSoftware,Autodesk,EAGLE,9.5.2*%
%TF.CreationDate,2020-02-09T10:15:54Z*%
G75*
%MOMM*%
%FSLAX34Y34*%
%LPD*%
%INtop copper*%
%AMOC8*
5,1,8,0,0,1.08239X$1,22.5*%
G01*
%ADD10C,0.000000*%
%ADD11R,2.540000X1.270000*%
%ADD12R,1.270000X2.540000*%
%ADD13R,1.500000X1.500000*%
%ADD14C,1.500000*%
%ADD15R,1.168400X1.600200*%
%ADD16R,1.300000X1.500000*%
%ADD17R,1.600000X0.350000*%
%ADD18R,0.900000X0.500000*%
%ADD19R,1.100000X1.000000*%
%ADD20R,0.508000X0.889000*%
%ADD21R,1.600200X1.168400*%
%ADD22R,0.990000X0.690000*%
%ADD23C,0.203200*%
%ADD24C,1.020000*%
%ADD25C,0.304800*%
%ADD26C,0.406400*%
%ADD27C,0.935000*%
%ADD28C,0.680000*%
%ADD29C,0.254000*%
%ADD30C,0.812800*%


D10*
X0Y232410D02*
X50800Y181610D01*
X50800Y100330D01*
X60960Y90170D01*
X60960Y59690D01*
X50800Y49530D01*
X50800Y6350D01*
X55880Y1270D01*
X213360Y1270D01*
X1075690Y210820D02*
X1075690Y270510D01*
X0Y290830D02*
X0Y232410D01*
X0Y290830D02*
X5080Y295910D01*
X220980Y8890D02*
X213360Y1270D01*
X220980Y8890D02*
X220980Y199390D01*
X228600Y207010D01*
X913130Y207010D01*
X895350Y295910D02*
X5080Y295910D01*
X913130Y207010D02*
X937260Y182880D01*
X1047750Y182880D01*
X1075690Y210820D01*
X911860Y279400D02*
X895350Y295910D01*
X911860Y279400D02*
X1066800Y279400D01*
X1075690Y270510D01*
D11*
X63500Y110490D03*
X63500Y173990D03*
X63500Y129540D03*
X63500Y40640D03*
D12*
G36*
X55380Y206330D02*
X46400Y197350D01*
X28440Y215310D01*
X37420Y224290D01*
X55380Y206330D01*
G37*
D11*
X63500Y15240D03*
X63500Y148590D03*
D12*
G36*
X49030Y199980D02*
X40050Y191000D01*
X22090Y208960D01*
X31070Y217940D01*
X49030Y199980D01*
G37*
D13*
X1060450Y227330D03*
D14*
X1060450Y252730D03*
X1035050Y227330D03*
X1035050Y252730D03*
X1009650Y227330D03*
X1009650Y252730D03*
X958850Y252730D03*
D10*
X953850Y227330D02*
X953852Y227471D01*
X953858Y227612D01*
X953868Y227752D01*
X953882Y227892D01*
X953900Y228032D01*
X953921Y228171D01*
X953947Y228310D01*
X953976Y228448D01*
X954010Y228584D01*
X954047Y228720D01*
X954088Y228855D01*
X954133Y228989D01*
X954182Y229121D01*
X954234Y229252D01*
X954290Y229381D01*
X954350Y229508D01*
X954413Y229634D01*
X954479Y229758D01*
X954550Y229881D01*
X954623Y230001D01*
X954700Y230119D01*
X954780Y230235D01*
X954864Y230348D01*
X954950Y230459D01*
X955040Y230568D01*
X955133Y230674D01*
X955228Y230777D01*
X955327Y230878D01*
X955428Y230976D01*
X955532Y231071D01*
X955639Y231163D01*
X955748Y231252D01*
X955860Y231337D01*
X955974Y231420D01*
X956090Y231500D01*
X956209Y231576D01*
X956330Y231648D01*
X956452Y231718D01*
X956577Y231783D01*
X956703Y231846D01*
X956831Y231904D01*
X956961Y231959D01*
X957092Y232011D01*
X957225Y232058D01*
X957359Y232102D01*
X957494Y232143D01*
X957630Y232179D01*
X957767Y232211D01*
X957905Y232240D01*
X958043Y232265D01*
X958183Y232285D01*
X958323Y232302D01*
X958463Y232315D01*
X958604Y232324D01*
X958744Y232329D01*
X958885Y232330D01*
X959026Y232327D01*
X959167Y232320D01*
X959307Y232309D01*
X959447Y232294D01*
X959587Y232275D01*
X959726Y232253D01*
X959864Y232226D01*
X960002Y232196D01*
X960138Y232161D01*
X960274Y232123D01*
X960408Y232081D01*
X960542Y232035D01*
X960674Y231986D01*
X960804Y231932D01*
X960933Y231875D01*
X961060Y231815D01*
X961186Y231751D01*
X961309Y231683D01*
X961431Y231612D01*
X961551Y231538D01*
X961668Y231460D01*
X961783Y231379D01*
X961896Y231295D01*
X962007Y231208D01*
X962115Y231117D01*
X962220Y231024D01*
X962323Y230927D01*
X962423Y230828D01*
X962520Y230726D01*
X962614Y230621D01*
X962705Y230514D01*
X962793Y230404D01*
X962878Y230292D01*
X962960Y230177D01*
X963039Y230060D01*
X963114Y229941D01*
X963186Y229820D01*
X963254Y229697D01*
X963319Y229572D01*
X963381Y229445D01*
X963438Y229316D01*
X963493Y229186D01*
X963543Y229055D01*
X963590Y228922D01*
X963633Y228788D01*
X963672Y228652D01*
X963707Y228516D01*
X963739Y228379D01*
X963766Y228241D01*
X963790Y228102D01*
X963810Y227962D01*
X963826Y227822D01*
X963838Y227682D01*
X963846Y227541D01*
X963850Y227400D01*
X963850Y227260D01*
X963846Y227119D01*
X963838Y226978D01*
X963826Y226838D01*
X963810Y226698D01*
X963790Y226558D01*
X963766Y226419D01*
X963739Y226281D01*
X963707Y226144D01*
X963672Y226008D01*
X963633Y225872D01*
X963590Y225738D01*
X963543Y225605D01*
X963493Y225474D01*
X963438Y225344D01*
X963381Y225215D01*
X963319Y225088D01*
X963254Y224963D01*
X963186Y224840D01*
X963114Y224719D01*
X963039Y224600D01*
X962960Y224483D01*
X962878Y224368D01*
X962793Y224256D01*
X962705Y224146D01*
X962614Y224039D01*
X962520Y223934D01*
X962423Y223832D01*
X962323Y223733D01*
X962220Y223636D01*
X962115Y223543D01*
X962007Y223452D01*
X961896Y223365D01*
X961783Y223281D01*
X961668Y223200D01*
X961551Y223122D01*
X961431Y223048D01*
X961309Y222977D01*
X961186Y222909D01*
X961060Y222845D01*
X960933Y222785D01*
X960804Y222728D01*
X960674Y222674D01*
X960542Y222625D01*
X960408Y222579D01*
X960274Y222537D01*
X960138Y222499D01*
X960002Y222464D01*
X959864Y222434D01*
X959726Y222407D01*
X959587Y222385D01*
X959447Y222366D01*
X959307Y222351D01*
X959167Y222340D01*
X959026Y222333D01*
X958885Y222330D01*
X958744Y222331D01*
X958604Y222336D01*
X958463Y222345D01*
X958323Y222358D01*
X958183Y222375D01*
X958043Y222395D01*
X957905Y222420D01*
X957767Y222449D01*
X957630Y222481D01*
X957494Y222517D01*
X957359Y222558D01*
X957225Y222602D01*
X957092Y222649D01*
X956961Y222701D01*
X956831Y222756D01*
X956703Y222814D01*
X956577Y222877D01*
X956452Y222942D01*
X956330Y223012D01*
X956209Y223084D01*
X956090Y223160D01*
X955974Y223240D01*
X955860Y223323D01*
X955748Y223408D01*
X955639Y223497D01*
X955532Y223589D01*
X955428Y223684D01*
X955327Y223782D01*
X955228Y223883D01*
X955133Y223986D01*
X955040Y224092D01*
X954950Y224201D01*
X954864Y224312D01*
X954780Y224425D01*
X954700Y224541D01*
X954623Y224659D01*
X954550Y224779D01*
X954479Y224902D01*
X954413Y225026D01*
X954350Y225152D01*
X954290Y225279D01*
X954234Y225408D01*
X954182Y225539D01*
X954133Y225671D01*
X954088Y225805D01*
X954047Y225940D01*
X954010Y226076D01*
X953976Y226212D01*
X953947Y226350D01*
X953921Y226489D01*
X953900Y226628D01*
X953882Y226768D01*
X953868Y226908D01*
X953858Y227048D01*
X953852Y227189D01*
X953850Y227330D01*
X928450Y227330D02*
X928452Y227471D01*
X928458Y227612D01*
X928468Y227752D01*
X928482Y227892D01*
X928500Y228032D01*
X928521Y228171D01*
X928547Y228310D01*
X928576Y228448D01*
X928610Y228584D01*
X928647Y228720D01*
X928688Y228855D01*
X928733Y228989D01*
X928782Y229121D01*
X928834Y229252D01*
X928890Y229381D01*
X928950Y229508D01*
X929013Y229634D01*
X929079Y229758D01*
X929150Y229881D01*
X929223Y230001D01*
X929300Y230119D01*
X929380Y230235D01*
X929464Y230348D01*
X929550Y230459D01*
X929640Y230568D01*
X929733Y230674D01*
X929828Y230777D01*
X929927Y230878D01*
X930028Y230976D01*
X930132Y231071D01*
X930239Y231163D01*
X930348Y231252D01*
X930460Y231337D01*
X930574Y231420D01*
X930690Y231500D01*
X930809Y231576D01*
X930930Y231648D01*
X931052Y231718D01*
X931177Y231783D01*
X931303Y231846D01*
X931431Y231904D01*
X931561Y231959D01*
X931692Y232011D01*
X931825Y232058D01*
X931959Y232102D01*
X932094Y232143D01*
X932230Y232179D01*
X932367Y232211D01*
X932505Y232240D01*
X932643Y232265D01*
X932783Y232285D01*
X932923Y232302D01*
X933063Y232315D01*
X933204Y232324D01*
X933344Y232329D01*
X933485Y232330D01*
X933626Y232327D01*
X933767Y232320D01*
X933907Y232309D01*
X934047Y232294D01*
X934187Y232275D01*
X934326Y232253D01*
X934464Y232226D01*
X934602Y232196D01*
X934738Y232161D01*
X934874Y232123D01*
X935008Y232081D01*
X935142Y232035D01*
X935274Y231986D01*
X935404Y231932D01*
X935533Y231875D01*
X935660Y231815D01*
X935786Y231751D01*
X935909Y231683D01*
X936031Y231612D01*
X936151Y231538D01*
X936268Y231460D01*
X936383Y231379D01*
X936496Y231295D01*
X936607Y231208D01*
X936715Y231117D01*
X936820Y231024D01*
X936923Y230927D01*
X937023Y230828D01*
X937120Y230726D01*
X937214Y230621D01*
X937305Y230514D01*
X937393Y230404D01*
X937478Y230292D01*
X937560Y230177D01*
X937639Y230060D01*
X937714Y229941D01*
X937786Y229820D01*
X937854Y229697D01*
X937919Y229572D01*
X937981Y229445D01*
X938038Y229316D01*
X938093Y229186D01*
X938143Y229055D01*
X938190Y228922D01*
X938233Y228788D01*
X938272Y228652D01*
X938307Y228516D01*
X938339Y228379D01*
X938366Y228241D01*
X938390Y228102D01*
X938410Y227962D01*
X938426Y227822D01*
X938438Y227682D01*
X938446Y227541D01*
X938450Y227400D01*
X938450Y227260D01*
X938446Y227119D01*
X938438Y226978D01*
X938426Y226838D01*
X938410Y226698D01*
X938390Y226558D01*
X938366Y226419D01*
X938339Y226281D01*
X938307Y226144D01*
X938272Y226008D01*
X938233Y225872D01*
X938190Y225738D01*
X938143Y225605D01*
X938093Y225474D01*
X938038Y225344D01*
X937981Y225215D01*
X937919Y225088D01*
X937854Y224963D01*
X937786Y224840D01*
X937714Y224719D01*
X937639Y224600D01*
X937560Y224483D01*
X937478Y224368D01*
X937393Y224256D01*
X937305Y224146D01*
X937214Y224039D01*
X937120Y223934D01*
X937023Y223832D01*
X936923Y223733D01*
X936820Y223636D01*
X936715Y223543D01*
X936607Y223452D01*
X936496Y223365D01*
X936383Y223281D01*
X936268Y223200D01*
X936151Y223122D01*
X936031Y223048D01*
X935909Y222977D01*
X935786Y222909D01*
X935660Y222845D01*
X935533Y222785D01*
X935404Y222728D01*
X935274Y222674D01*
X935142Y222625D01*
X935008Y222579D01*
X934874Y222537D01*
X934738Y222499D01*
X934602Y222464D01*
X934464Y222434D01*
X934326Y222407D01*
X934187Y222385D01*
X934047Y222366D01*
X933907Y222351D01*
X933767Y222340D01*
X933626Y222333D01*
X933485Y222330D01*
X933344Y222331D01*
X933204Y222336D01*
X933063Y222345D01*
X932923Y222358D01*
X932783Y222375D01*
X932643Y222395D01*
X932505Y222420D01*
X932367Y222449D01*
X932230Y222481D01*
X932094Y222517D01*
X931959Y222558D01*
X931825Y222602D01*
X931692Y222649D01*
X931561Y222701D01*
X931431Y222756D01*
X931303Y222814D01*
X931177Y222877D01*
X931052Y222942D01*
X930930Y223012D01*
X930809Y223084D01*
X930690Y223160D01*
X930574Y223240D01*
X930460Y223323D01*
X930348Y223408D01*
X930239Y223497D01*
X930132Y223589D01*
X930028Y223684D01*
X929927Y223782D01*
X929828Y223883D01*
X929733Y223986D01*
X929640Y224092D01*
X929550Y224201D01*
X929464Y224312D01*
X929380Y224425D01*
X929300Y224541D01*
X929223Y224659D01*
X929150Y224779D01*
X929079Y224902D01*
X929013Y225026D01*
X928950Y225152D01*
X928890Y225279D01*
X928834Y225408D01*
X928782Y225539D01*
X928733Y225671D01*
X928688Y225805D01*
X928647Y225940D01*
X928610Y226076D01*
X928576Y226212D01*
X928547Y226350D01*
X928521Y226489D01*
X928500Y226628D01*
X928482Y226768D01*
X928468Y226908D01*
X928458Y227048D01*
X928452Y227189D01*
X928450Y227330D01*
X928450Y252730D02*
X928452Y252871D01*
X928458Y253012D01*
X928468Y253152D01*
X928482Y253292D01*
X928500Y253432D01*
X928521Y253571D01*
X928547Y253710D01*
X928576Y253848D01*
X928610Y253984D01*
X928647Y254120D01*
X928688Y254255D01*
X928733Y254389D01*
X928782Y254521D01*
X928834Y254652D01*
X928890Y254781D01*
X928950Y254908D01*
X929013Y255034D01*
X929079Y255158D01*
X929150Y255281D01*
X929223Y255401D01*
X929300Y255519D01*
X929380Y255635D01*
X929464Y255748D01*
X929550Y255859D01*
X929640Y255968D01*
X929733Y256074D01*
X929828Y256177D01*
X929927Y256278D01*
X930028Y256376D01*
X930132Y256471D01*
X930239Y256563D01*
X930348Y256652D01*
X930460Y256737D01*
X930574Y256820D01*
X930690Y256900D01*
X930809Y256976D01*
X930930Y257048D01*
X931052Y257118D01*
X931177Y257183D01*
X931303Y257246D01*
X931431Y257304D01*
X931561Y257359D01*
X931692Y257411D01*
X931825Y257458D01*
X931959Y257502D01*
X932094Y257543D01*
X932230Y257579D01*
X932367Y257611D01*
X932505Y257640D01*
X932643Y257665D01*
X932783Y257685D01*
X932923Y257702D01*
X933063Y257715D01*
X933204Y257724D01*
X933344Y257729D01*
X933485Y257730D01*
X933626Y257727D01*
X933767Y257720D01*
X933907Y257709D01*
X934047Y257694D01*
X934187Y257675D01*
X934326Y257653D01*
X934464Y257626D01*
X934602Y257596D01*
X934738Y257561D01*
X934874Y257523D01*
X935008Y257481D01*
X935142Y257435D01*
X935274Y257386D01*
X935404Y257332D01*
X935533Y257275D01*
X935660Y257215D01*
X935786Y257151D01*
X935909Y257083D01*
X936031Y257012D01*
X936151Y256938D01*
X936268Y256860D01*
X936383Y256779D01*
X936496Y256695D01*
X936607Y256608D01*
X936715Y256517D01*
X936820Y256424D01*
X936923Y256327D01*
X937023Y256228D01*
X937120Y256126D01*
X937214Y256021D01*
X937305Y255914D01*
X937393Y255804D01*
X937478Y255692D01*
X937560Y255577D01*
X937639Y255460D01*
X937714Y255341D01*
X937786Y255220D01*
X937854Y255097D01*
X937919Y254972D01*
X937981Y254845D01*
X938038Y254716D01*
X938093Y254586D01*
X938143Y254455D01*
X938190Y254322D01*
X938233Y254188D01*
X938272Y254052D01*
X938307Y253916D01*
X938339Y253779D01*
X938366Y253641D01*
X938390Y253502D01*
X938410Y253362D01*
X938426Y253222D01*
X938438Y253082D01*
X938446Y252941D01*
X938450Y252800D01*
X938450Y252660D01*
X938446Y252519D01*
X938438Y252378D01*
X938426Y252238D01*
X938410Y252098D01*
X938390Y251958D01*
X938366Y251819D01*
X938339Y251681D01*
X938307Y251544D01*
X938272Y251408D01*
X938233Y251272D01*
X938190Y251138D01*
X938143Y251005D01*
X938093Y250874D01*
X938038Y250744D01*
X937981Y250615D01*
X937919Y250488D01*
X937854Y250363D01*
X937786Y250240D01*
X937714Y250119D01*
X937639Y250000D01*
X937560Y249883D01*
X937478Y249768D01*
X937393Y249656D01*
X937305Y249546D01*
X937214Y249439D01*
X937120Y249334D01*
X937023Y249232D01*
X936923Y249133D01*
X936820Y249036D01*
X936715Y248943D01*
X936607Y248852D01*
X936496Y248765D01*
X936383Y248681D01*
X936268Y248600D01*
X936151Y248522D01*
X936031Y248448D01*
X935909Y248377D01*
X935786Y248309D01*
X935660Y248245D01*
X935533Y248185D01*
X935404Y248128D01*
X935274Y248074D01*
X935142Y248025D01*
X935008Y247979D01*
X934874Y247937D01*
X934738Y247899D01*
X934602Y247864D01*
X934464Y247834D01*
X934326Y247807D01*
X934187Y247785D01*
X934047Y247766D01*
X933907Y247751D01*
X933767Y247740D01*
X933626Y247733D01*
X933485Y247730D01*
X933344Y247731D01*
X933204Y247736D01*
X933063Y247745D01*
X932923Y247758D01*
X932783Y247775D01*
X932643Y247795D01*
X932505Y247820D01*
X932367Y247849D01*
X932230Y247881D01*
X932094Y247917D01*
X931959Y247958D01*
X931825Y248002D01*
X931692Y248049D01*
X931561Y248101D01*
X931431Y248156D01*
X931303Y248214D01*
X931177Y248277D01*
X931052Y248342D01*
X930930Y248412D01*
X930809Y248484D01*
X930690Y248560D01*
X930574Y248640D01*
X930460Y248723D01*
X930348Y248808D01*
X930239Y248897D01*
X930132Y248989D01*
X930028Y249084D01*
X929927Y249182D01*
X929828Y249283D01*
X929733Y249386D01*
X929640Y249492D01*
X929550Y249601D01*
X929464Y249712D01*
X929380Y249825D01*
X929300Y249941D01*
X929223Y250059D01*
X929150Y250179D01*
X929079Y250302D01*
X929013Y250426D01*
X928950Y250552D01*
X928890Y250679D01*
X928834Y250808D01*
X928782Y250939D01*
X928733Y251071D01*
X928688Y251205D01*
X928647Y251340D01*
X928610Y251476D01*
X928576Y251612D01*
X928547Y251750D01*
X928521Y251889D01*
X928500Y252028D01*
X928482Y252168D01*
X928468Y252308D01*
X928458Y252448D01*
X928452Y252589D01*
X928450Y252730D01*
D14*
X984250Y227330D03*
D10*
X979250Y252730D02*
X979252Y252871D01*
X979258Y253012D01*
X979268Y253152D01*
X979282Y253292D01*
X979300Y253432D01*
X979321Y253571D01*
X979347Y253710D01*
X979376Y253848D01*
X979410Y253984D01*
X979447Y254120D01*
X979488Y254255D01*
X979533Y254389D01*
X979582Y254521D01*
X979634Y254652D01*
X979690Y254781D01*
X979750Y254908D01*
X979813Y255034D01*
X979879Y255158D01*
X979950Y255281D01*
X980023Y255401D01*
X980100Y255519D01*
X980180Y255635D01*
X980264Y255748D01*
X980350Y255859D01*
X980440Y255968D01*
X980533Y256074D01*
X980628Y256177D01*
X980727Y256278D01*
X980828Y256376D01*
X980932Y256471D01*
X981039Y256563D01*
X981148Y256652D01*
X981260Y256737D01*
X981374Y256820D01*
X981490Y256900D01*
X981609Y256976D01*
X981730Y257048D01*
X981852Y257118D01*
X981977Y257183D01*
X982103Y257246D01*
X982231Y257304D01*
X982361Y257359D01*
X982492Y257411D01*
X982625Y257458D01*
X982759Y257502D01*
X982894Y257543D01*
X983030Y257579D01*
X983167Y257611D01*
X983305Y257640D01*
X983443Y257665D01*
X983583Y257685D01*
X983723Y257702D01*
X983863Y257715D01*
X984004Y257724D01*
X984144Y257729D01*
X984285Y257730D01*
X984426Y257727D01*
X984567Y257720D01*
X984707Y257709D01*
X984847Y257694D01*
X984987Y257675D01*
X985126Y257653D01*
X985264Y257626D01*
X985402Y257596D01*
X985538Y257561D01*
X985674Y257523D01*
X985808Y257481D01*
X985942Y257435D01*
X986074Y257386D01*
X986204Y257332D01*
X986333Y257275D01*
X986460Y257215D01*
X986586Y257151D01*
X986709Y257083D01*
X986831Y257012D01*
X986951Y256938D01*
X987068Y256860D01*
X987183Y256779D01*
X987296Y256695D01*
X987407Y256608D01*
X987515Y256517D01*
X987620Y256424D01*
X987723Y256327D01*
X987823Y256228D01*
X987920Y256126D01*
X988014Y256021D01*
X988105Y255914D01*
X988193Y255804D01*
X988278Y255692D01*
X988360Y255577D01*
X988439Y255460D01*
X988514Y255341D01*
X988586Y255220D01*
X988654Y255097D01*
X988719Y254972D01*
X988781Y254845D01*
X988838Y254716D01*
X988893Y254586D01*
X988943Y254455D01*
X988990Y254322D01*
X989033Y254188D01*
X989072Y254052D01*
X989107Y253916D01*
X989139Y253779D01*
X989166Y253641D01*
X989190Y253502D01*
X989210Y253362D01*
X989226Y253222D01*
X989238Y253082D01*
X989246Y252941D01*
X989250Y252800D01*
X989250Y252660D01*
X989246Y252519D01*
X989238Y252378D01*
X989226Y252238D01*
X989210Y252098D01*
X989190Y251958D01*
X989166Y251819D01*
X989139Y251681D01*
X989107Y251544D01*
X989072Y251408D01*
X989033Y251272D01*
X988990Y251138D01*
X988943Y251005D01*
X988893Y250874D01*
X988838Y250744D01*
X988781Y250615D01*
X988719Y250488D01*
X988654Y250363D01*
X988586Y250240D01*
X988514Y250119D01*
X988439Y250000D01*
X988360Y249883D01*
X988278Y249768D01*
X988193Y249656D01*
X988105Y249546D01*
X988014Y249439D01*
X987920Y249334D01*
X987823Y249232D01*
X987723Y249133D01*
X987620Y249036D01*
X987515Y248943D01*
X987407Y248852D01*
X987296Y248765D01*
X987183Y248681D01*
X987068Y248600D01*
X986951Y248522D01*
X986831Y248448D01*
X986709Y248377D01*
X986586Y248309D01*
X986460Y248245D01*
X986333Y248185D01*
X986204Y248128D01*
X986074Y248074D01*
X985942Y248025D01*
X985808Y247979D01*
X985674Y247937D01*
X985538Y247899D01*
X985402Y247864D01*
X985264Y247834D01*
X985126Y247807D01*
X984987Y247785D01*
X984847Y247766D01*
X984707Y247751D01*
X984567Y247740D01*
X984426Y247733D01*
X984285Y247730D01*
X984144Y247731D01*
X984004Y247736D01*
X983863Y247745D01*
X983723Y247758D01*
X983583Y247775D01*
X983443Y247795D01*
X983305Y247820D01*
X983167Y247849D01*
X983030Y247881D01*
X982894Y247917D01*
X982759Y247958D01*
X982625Y248002D01*
X982492Y248049D01*
X982361Y248101D01*
X982231Y248156D01*
X982103Y248214D01*
X981977Y248277D01*
X981852Y248342D01*
X981730Y248412D01*
X981609Y248484D01*
X981490Y248560D01*
X981374Y248640D01*
X981260Y248723D01*
X981148Y248808D01*
X981039Y248897D01*
X980932Y248989D01*
X980828Y249084D01*
X980727Y249182D01*
X980628Y249283D01*
X980533Y249386D01*
X980440Y249492D01*
X980350Y249601D01*
X980264Y249712D01*
X980180Y249825D01*
X980100Y249941D01*
X980023Y250059D01*
X979950Y250179D01*
X979879Y250302D01*
X979813Y250426D01*
X979750Y250552D01*
X979690Y250679D01*
X979634Y250808D01*
X979582Y250939D01*
X979533Y251071D01*
X979488Y251205D01*
X979447Y251340D01*
X979410Y251476D01*
X979376Y251612D01*
X979347Y251750D01*
X979321Y251889D01*
X979300Y252028D01*
X979282Y252168D01*
X979268Y252308D01*
X979258Y252448D01*
X979252Y252589D01*
X979250Y252730D01*
D15*
X1026160Y198120D03*
X1010920Y198120D03*
X995680Y198120D03*
D16*
X722020Y264160D03*
X741020Y264160D03*
D17*
X774640Y277870D03*
X774640Y271370D03*
X774640Y264870D03*
X774640Y258370D03*
X774640Y251870D03*
X774640Y245370D03*
X774640Y238870D03*
X774640Y232370D03*
X774640Y225870D03*
X774640Y219370D03*
X830640Y219370D03*
X830640Y225870D03*
X830640Y232370D03*
X830640Y238870D03*
X830640Y245370D03*
X830640Y251870D03*
X830640Y258370D03*
X830640Y264870D03*
X830640Y271370D03*
X830640Y277870D03*
D18*
X739520Y220410D03*
X739520Y228410D03*
X739520Y236410D03*
X739520Y244410D03*
X723520Y244410D03*
X723520Y236410D03*
X723520Y228410D03*
X723520Y220410D03*
D11*
X12700Y243840D03*
X12700Y262890D03*
X12700Y281940D03*
D18*
X868300Y238060D03*
X868300Y230060D03*
X868300Y222060D03*
X868300Y214060D03*
X884300Y214060D03*
X884300Y222060D03*
X884300Y230060D03*
X884300Y238060D03*
D19*
X741290Y284480D03*
X724290Y284480D03*
D20*
X802640Y247650D03*
X810260Y247650D03*
X802640Y233680D03*
X810260Y233680D03*
X802640Y219710D03*
X810260Y219710D03*
D21*
X82550Y281940D03*
X82550Y266700D03*
X82550Y251460D03*
D22*
X863400Y269850D03*
X863400Y260350D03*
X863400Y250850D03*
X889300Y250850D03*
X889300Y269850D03*
D19*
X884800Y285750D03*
X867800Y285750D03*
D23*
X841080Y219370D02*
X830640Y219370D01*
X846390Y214060D02*
X868300Y214060D01*
X846390Y214060D02*
X841080Y219370D01*
X868300Y214060D02*
X874460Y214060D01*
X876300Y215900D01*
X879500Y250850D02*
X889300Y250850D01*
X876300Y247650D02*
X876300Y215900D01*
X876300Y247650D02*
X879500Y250850D01*
D24*
X50800Y40640D03*
X63500Y40640D03*
X45720Y207010D03*
X35560Y196850D03*
D25*
X50800Y40640D02*
X63500Y40640D01*
D26*
X78740Y40640D01*
X88900Y40640D01*
X63500Y40640D02*
X63500Y50800D01*
X63500Y54610D01*
X74930Y66040D01*
D27*
X74930Y66040D03*
X88900Y40640D03*
D26*
X69850Y44450D02*
X63500Y50800D01*
X57150Y44450D01*
X74930Y44450D02*
X78740Y40640D01*
X74930Y36830D01*
D27*
X62230Y215900D03*
X63500Y193040D03*
D26*
X62230Y215900D02*
X48260Y215900D01*
X45720Y213360D01*
X45720Y207010D01*
X46990Y193040D02*
X63500Y193040D01*
X46990Y193040D02*
X36830Y203200D01*
X35560Y204470D01*
X43180Y204470D01*
X45720Y207010D01*
X49530Y207010D02*
X63500Y193040D01*
X49530Y207010D02*
X45720Y207010D01*
X53340Y207010D02*
X62230Y215900D01*
X53340Y207010D02*
X49530Y207010D01*
X62230Y215900D02*
X53562Y224568D01*
X36830Y219710D02*
X36830Y203200D01*
X41688Y224568D02*
X53562Y224568D01*
X41688Y224568D02*
X36830Y219710D01*
D24*
X27940Y204470D03*
X38100Y214630D03*
D28*
X755650Y272640D03*
X750570Y226990D03*
D27*
X113030Y109220D03*
X113030Y83820D03*
X113030Y58420D03*
X153670Y58420D03*
X153670Y83820D03*
X153670Y109220D03*
D26*
X113030Y109220D01*
X113030Y83820D02*
X153670Y83820D01*
X153670Y58420D02*
X113030Y58420D01*
D29*
X755650Y272640D02*
X756920Y271370D01*
X774640Y271370D01*
X774640Y277870D02*
X760880Y277870D01*
X755650Y272640D01*
X763420Y264870D02*
X774640Y264870D01*
X763420Y264870D02*
X755650Y272640D01*
D27*
X224790Y223520D03*
X199390Y198120D03*
D26*
X224790Y223520D01*
D27*
X166370Y229870D03*
X128270Y242570D03*
D26*
X166370Y229870D01*
D28*
X707390Y272640D03*
D25*
X719230Y284480D02*
X724290Y284480D01*
X719230Y284480D02*
X707390Y272640D01*
X712060Y264160D02*
X722020Y264160D01*
X712060Y264160D02*
X707390Y268830D01*
X707390Y272640D01*
D28*
X704850Y240960D03*
X789940Y214290D03*
D29*
X784860Y219370D02*
X774640Y219370D01*
X784860Y219370D02*
X789940Y214290D01*
X743990Y220410D02*
X739520Y220410D01*
X743990Y220410D02*
X750570Y226990D01*
X723520Y244410D02*
X708300Y244410D01*
X705020Y241130D01*
X704850Y240960D01*
X709740Y236410D02*
X723520Y236410D01*
X709740Y236410D02*
X705020Y241130D01*
D30*
X1009650Y252730D02*
X1009650Y227330D01*
D28*
X852170Y251460D03*
D29*
X851760Y251870D01*
X830640Y251870D01*
D25*
X830640Y245370D01*
X852780Y250850D02*
X863400Y250850D01*
X852780Y250850D02*
X852170Y251460D01*
D28*
X857250Y285750D03*
D25*
X867800Y285750D01*
D24*
X50800Y110490D03*
X63500Y110490D03*
D25*
X78740Y110490D01*
X63500Y110490D02*
X50800Y110490D01*
X74930Y114300D02*
X78740Y110490D01*
X74930Y106680D01*
X78740Y110490D02*
X86360Y110490D01*
X209550Y233680D01*
X774640Y225870D02*
X793940Y225870D01*
X797560Y222250D01*
X802640Y222250D01*
D29*
X802640Y219710D01*
D25*
X679450Y233680D02*
X209550Y233680D01*
X679450Y233680D02*
X692720Y220410D01*
X717550Y220410D01*
X723520Y220410D01*
X761810Y225870D02*
X774640Y225870D01*
X723520Y220410D02*
X723520Y216280D01*
X748030Y212090D02*
X761810Y225870D01*
X748030Y212090D02*
X727710Y212090D01*
X723520Y216280D01*
X717550Y220410D01*
X797560Y222250D02*
X802640Y217170D01*
D24*
X50800Y173990D03*
X63500Y173990D03*
D25*
X50800Y173990D01*
X80010Y173990D02*
X93980Y173990D01*
X80010Y173990D02*
X63500Y173990D01*
X74930Y177800D02*
X80010Y173990D01*
X74930Y170180D01*
X93980Y173990D02*
X101600Y181610D01*
X101600Y209550D01*
X82550Y228600D02*
X82550Y242570D01*
X82550Y251460D01*
X82550Y228600D02*
X101600Y209550D01*
X82550Y242570D02*
X87630Y250190D01*
X82550Y242570D02*
X77470Y250190D01*
X1010920Y212090D02*
X1010920Y198120D01*
D28*
X1010920Y212090D03*
X154940Y212090D03*
D25*
X125730Y212090D01*
X106680Y231140D02*
X106680Y256540D01*
X96520Y266700D01*
X93980Y266700D01*
X82550Y266700D01*
X106680Y231140D02*
X125730Y212090D01*
X93980Y266700D02*
X87630Y262890D01*
X93980Y266700D02*
X87630Y270510D01*
D24*
X50800Y148590D03*
X63500Y148590D03*
D25*
X78740Y148590D01*
X63500Y148590D02*
X50800Y148590D01*
X74930Y144780D02*
X78740Y148590D01*
X74930Y152400D01*
X768240Y238870D02*
X774640Y238870D01*
X201930Y246380D02*
X104140Y148590D01*
X78740Y148590D01*
X774640Y238870D02*
X788780Y238870D01*
X797560Y247650D02*
X802640Y247650D01*
X797560Y247650D02*
X788780Y238870D01*
X688340Y246380D02*
X201930Y246380D01*
X688340Y246380D02*
X694690Y252730D01*
X738980Y250030D02*
X739520Y249490D01*
X738980Y250030D02*
X736280Y252730D01*
X739520Y249490D02*
X739520Y244410D01*
X736280Y252730D02*
X694690Y252730D01*
X764430Y238870D02*
X774640Y238870D01*
X758890Y244410D02*
X748030Y244410D01*
X739520Y244410D01*
X758890Y244410D02*
X764430Y238870D01*
X748030Y244410D02*
X738980Y250030D01*
D24*
X50800Y129540D03*
X63500Y129540D03*
D25*
X78740Y129540D01*
X63500Y129540D02*
X50800Y129540D01*
X74930Y125730D02*
X78740Y129540D01*
X74930Y133350D01*
X78740Y129540D02*
X95250Y129540D01*
X205740Y240030D01*
X683260Y240030D01*
X694880Y228410D01*
X723520Y228410D01*
X739520Y228410D01*
X739520Y236410D01*
X760770Y232370D02*
X774640Y232370D01*
X756730Y236410D02*
X739520Y236410D01*
X756730Y236410D02*
X760770Y232370D01*
X774640Y232370D02*
X801330Y232370D01*
X802640Y233680D01*
D24*
X50800Y15240D03*
X63500Y15240D03*
D26*
X78740Y15240D01*
X74930Y19050D01*
X78740Y15240D02*
X74930Y11430D01*
X63500Y15240D02*
X54832Y15240D01*
D29*
X848360Y258370D02*
X852170Y262180D01*
X848360Y258370D02*
X830640Y258370D01*
D28*
X852170Y262180D03*
D26*
X95250Y15240D02*
X78740Y15240D01*
X63500Y15240D02*
X63500Y26670D01*
X63500Y15240D02*
X63500Y6350D01*
D25*
X741020Y265960D02*
X741290Y266230D01*
X741020Y265960D02*
X741020Y264160D01*
X741290Y266230D02*
X741290Y284480D01*
D28*
X755650Y259080D03*
D26*
X746100Y259080D01*
X741020Y264160D01*
D25*
X762860Y251870D02*
X774640Y251870D01*
X762860Y251870D02*
X755650Y259080D01*
D28*
X901700Y269800D03*
D25*
X889350Y269800D01*
X889300Y269850D01*
X886460Y272690D01*
X886460Y284090D02*
X884800Y285750D01*
X886460Y275590D02*
X886460Y272690D01*
X886460Y275590D02*
X886460Y278130D01*
X886460Y284090D01*
X881380Y283210D02*
X886460Y278130D01*
X886460Y275590D02*
X891540Y270510D01*
X1027430Y219710D02*
X1035050Y227330D01*
D29*
X1037590Y222250D02*
X1027430Y219710D01*
X1029970Y229870D01*
D25*
X1027430Y219710D02*
X1026160Y218440D01*
X1026160Y198120D01*
D24*
X0Y281940D03*
D29*
X12700Y281940D02*
X31750Y281940D01*
D25*
X22860Y278130D01*
X22860Y285750D02*
X31750Y281940D01*
X71120Y281940D01*
X82550Y281940D01*
X76200Y285750D02*
X71120Y281940D01*
X76200Y278130D01*
D24*
X12700Y281940D03*
D25*
X984250Y227330D02*
X984250Y215900D01*
X984250Y203200D01*
X989330Y198120D02*
X995680Y198120D01*
X989330Y198120D02*
X984250Y203200D01*
D29*
X984250Y215900D02*
X979170Y224790D01*
X989330Y224790D02*
X984250Y215900D01*
D25*
X830640Y225870D02*
X817761Y225870D01*
D29*
X810260Y222250D02*
X810260Y219710D01*
D25*
X814141Y222250D02*
X817761Y225870D01*
D29*
X814141Y222250D02*
X814070Y222250D01*
D25*
X810260Y222250D01*
X849250Y222060D02*
X868300Y222060D01*
X849250Y222060D02*
X845440Y225870D01*
X830640Y225870D01*
X814070Y222250D02*
X810260Y217170D01*
X810260Y232370D02*
X830640Y232370D01*
X810260Y232370D02*
X810260Y233680D01*
X855600Y230060D02*
X868300Y230060D01*
X855600Y230060D02*
X853290Y232370D01*
X830640Y232370D01*
X908240Y230060D02*
X918210Y240030D01*
X908240Y230060D02*
X884300Y230060D01*
D28*
X918210Y240030D03*
D25*
X830640Y238870D02*
X820310Y238870D01*
X814070Y245110D01*
X810260Y245110D01*
X810260Y247650D01*
X867490Y238870D02*
X868300Y238060D01*
X867490Y238870D02*
X830640Y238870D01*
X814070Y245110D02*
X810260Y248920D01*
X914210Y222060D02*
X928370Y236220D01*
X965200Y236220D02*
X972820Y243840D01*
X972820Y259080D02*
X979170Y265430D01*
X1022350Y265430D01*
X1027430Y260350D01*
X1035050Y252730D01*
X914210Y222060D02*
X884300Y222060D01*
X928370Y236220D02*
X965200Y236220D01*
X972820Y243840D02*
X972820Y259080D01*
X1027430Y260350D02*
X1038860Y256540D01*
X1031240Y248920D02*
X1027430Y260350D01*
D24*
X0Y262890D03*
D29*
X12700Y262890D02*
X26670Y262890D01*
X31750Y262890D01*
X22860Y259080D01*
X22860Y266700D02*
X31750Y262890D01*
X774640Y245370D02*
X786390Y245370D01*
X36830Y262890D02*
X31750Y262890D01*
X26670Y262890D02*
X25400Y261620D01*
X25400Y264160D01*
X786390Y245370D02*
X803910Y262890D01*
D28*
X803910Y279400D03*
D29*
X803910Y262890D01*
D23*
X803910Y279400D02*
X807720Y283210D01*
X855370Y269850D02*
X863400Y269850D01*
X842010Y283210D02*
X807720Y283210D01*
X842010Y283210D02*
X855370Y269850D01*
D24*
X0Y243840D03*
D29*
X12700Y243840D02*
X26670Y243840D01*
X31750Y243840D01*
X22860Y247650D01*
X24130Y240030D02*
X31750Y243840D01*
X36830Y243840D01*
X26670Y243840D02*
X25400Y241300D01*
X26670Y243840D02*
X25400Y245110D01*
X774640Y258370D02*
X781610Y258370D01*
X786690Y258370D02*
X774640Y258370D01*
X786690Y258370D02*
X791210Y262890D01*
X791210Y279400D01*
D28*
X791210Y279400D03*
D23*
X800100Y288290D01*
X871220Y276860D02*
X875030Y273050D01*
X875030Y262890D01*
X872490Y260350D01*
X863400Y260350D01*
X843280Y288290D02*
X800100Y288290D01*
X843280Y288290D02*
X854710Y276860D01*
X871220Y276860D01*
D24*
X12700Y262890D03*
X12700Y243840D03*
D25*
X1047750Y240030D02*
X1051560Y236220D01*
X1060450Y227330D01*
X1036320Y273050D02*
X919480Y273050D01*
X1036320Y273050D02*
X1047750Y261620D01*
X1047750Y240030D01*
X1051560Y236220D02*
X1065530Y232410D01*
X1055370Y222250D02*
X1051560Y236220D01*
X909320Y244030D02*
X903350Y238060D01*
X884300Y238060D01*
X909320Y262890D02*
X919480Y273050D01*
X909320Y262890D02*
X909320Y244030D01*
M02*
