G04 EAGLE Gerber X2 export*
%TF.Part,Single*%
%TF.FileFunction,Other,stiffener on bottom layer*%
%TF.FilePolarity,Positive*%
%TF.GenerationSoftware,Autodesk,EAGLE,9.5.2*%
%TF.CreationDate,2020-02-09T10:15:54Z*%
G75*
%MOMM*%
%FSLAX34Y34*%
%LPD*%
%INstiffener bottom*%
%AMOC8*
5,1,8,0,0,1.08239X$1,22.5*%
G01*

G36*
X895468Y208296D02*
X895468Y208296D01*
X895587Y208303D01*
X895625Y208316D01*
X895666Y208321D01*
X895776Y208364D01*
X895889Y208401D01*
X895924Y208423D01*
X895961Y208438D01*
X896057Y208508D01*
X896158Y208571D01*
X896186Y208601D01*
X896219Y208624D01*
X896295Y208716D01*
X896376Y208803D01*
X896396Y208838D01*
X896421Y208869D01*
X896472Y208977D01*
X896530Y209081D01*
X896540Y209121D01*
X896557Y209157D01*
X896579Y209274D01*
X896609Y209389D01*
X896613Y209450D01*
X896617Y209470D01*
X896615Y209490D01*
X896619Y209550D01*
X896619Y292100D01*
X896604Y292218D01*
X896597Y292337D01*
X896584Y292375D01*
X896579Y292416D01*
X896536Y292526D01*
X896499Y292639D01*
X896477Y292674D01*
X896462Y292711D01*
X896393Y292807D01*
X896329Y292908D01*
X896299Y292936D01*
X896276Y292969D01*
X896184Y293045D01*
X896097Y293126D01*
X896062Y293146D01*
X896031Y293171D01*
X895923Y293222D01*
X895819Y293280D01*
X895779Y293290D01*
X895743Y293307D01*
X895626Y293329D01*
X895511Y293359D01*
X895451Y293363D01*
X895431Y293367D01*
X895410Y293365D01*
X895350Y293369D01*
X717550Y293369D01*
X717432Y293354D01*
X717313Y293347D01*
X717275Y293334D01*
X717234Y293329D01*
X717124Y293286D01*
X717011Y293249D01*
X716976Y293227D01*
X716939Y293212D01*
X716843Y293143D01*
X716742Y293079D01*
X716714Y293049D01*
X716681Y293026D01*
X716606Y292934D01*
X716524Y292847D01*
X716504Y292812D01*
X716479Y292781D01*
X716428Y292673D01*
X716370Y292569D01*
X716360Y292529D01*
X716343Y292493D01*
X716321Y292376D01*
X716291Y292261D01*
X716287Y292201D01*
X716283Y292181D01*
X716285Y292160D01*
X716281Y292100D01*
X716281Y209550D01*
X716296Y209432D01*
X716303Y209313D01*
X716316Y209275D01*
X716321Y209234D01*
X716364Y209124D01*
X716401Y209011D01*
X716423Y208976D01*
X716438Y208939D01*
X716508Y208843D01*
X716571Y208742D01*
X716601Y208714D01*
X716624Y208681D01*
X716716Y208606D01*
X716803Y208524D01*
X716838Y208504D01*
X716869Y208479D01*
X716977Y208428D01*
X717081Y208370D01*
X717121Y208360D01*
X717157Y208343D01*
X717274Y208321D01*
X717389Y208291D01*
X717450Y208287D01*
X717470Y208283D01*
X717490Y208285D01*
X717550Y208281D01*
X895350Y208281D01*
X895468Y208296D01*
G37*
M02*
