M48
;GenerationSoftware,Autodesk,EAGLE,9.5.2*%
;CreationDate,2020-02-09T10:15:54Z*%
FMAT,2
ICI,OFF
METRIC,TZ,000.000
T4C0.400
T3C0.550
T2C0.600
T1C1.000
%
G90
M71
T1
X95885Y25273
X98425Y22733
X106045Y22733
X95885Y22733
X93345Y22733
X93345Y25273
X98425Y25273
X106045Y25273
X103505Y22733
X103505Y25273
X100965Y22733
X100965Y25273
T2
X6350Y17399
X6350Y12954
X5080Y12954
X6350Y1524
X6350Y14859
X5080Y4064
X1270Y28194
X0Y26289
X0Y24384
X6350Y4064
X1270Y26289
X1270Y24384
X4572Y20701
X3556Y19685
X5080Y11049
X6350Y11049
X5080Y17399
X2794Y20447
X3810Y21463
X0Y28194
X5080Y1524
X5080Y14859
T3
X6223Y21590
X11303Y10922
X11303Y8382
X11303Y5842
X15367Y5842
X15367Y8382
X15367Y10922
X22479Y22352
X19939Y19812
X16637Y22987
X12827Y24257
X6350Y19304
X7493Y6604
X8890Y4064
T4
X70485Y24096
X70739Y27264
X75057Y22699
X101092Y21209
X85217Y26218
X75565Y25908
X90170Y26980
X78994Y21429
X75565Y27264
X15494Y21209
X91821Y24003
X85725Y28575
X80391Y27940
X85217Y25146
X79121Y27940
M30