G04 EAGLE Gerber X2 export*
%TF.Part,Single*%
%TF.FileFunction,Other,bottom copper*%
%TF.FilePolarity,Positive*%
%TF.GenerationSoftware,Autodesk,EAGLE,9.5.2*%
%TF.CreationDate,2020-02-09T10:15:54Z*%
G75*
%MOMM*%
%FSLAX34Y34*%
%LPD*%
%INbottom copper*%
%AMOC8*
5,1,8,0,0,1.08239X$1,22.5*%
G01*
%ADD10C,0.000000*%
%ADD11R,2.540000X1.270000*%
%ADD12R,1.270000X2.540000*%
%ADD13R,1.500000X1.500000*%
%ADD14C,1.500000*%
%ADD15C,1.020000*%
%ADD16C,0.304800*%
%ADD17C,0.609600*%
%ADD18C,0.254000*%
%ADD19C,0.935000*%
%ADD20C,0.406400*%
%ADD21C,0.203200*%
%ADD22C,0.680000*%
%ADD23C,0.508000*%


D10*
X0Y232410D02*
X50800Y181610D01*
X50800Y100330D01*
X60960Y90170D01*
X60960Y59690D01*
X50800Y49530D01*
X50800Y6350D01*
X55880Y1270D01*
X213360Y1270D01*
X1075690Y210820D02*
X1075690Y270510D01*
X0Y290830D02*
X0Y232410D01*
X0Y290830D02*
X5080Y295910D01*
X220980Y8890D02*
X213360Y1270D01*
X220980Y8890D02*
X220980Y199390D01*
X228600Y207010D01*
X913130Y207010D01*
X895350Y295910D02*
X5080Y295910D01*
X913130Y207010D02*
X937260Y182880D01*
X1047750Y182880D01*
X1075690Y210820D01*
X911860Y279400D02*
X895350Y295910D01*
X911860Y279400D02*
X1066800Y279400D01*
X1075690Y270510D01*
D11*
X50800Y173990D03*
X50800Y148590D03*
X50800Y129540D03*
X50800Y110490D03*
X50800Y40640D03*
X50800Y15240D03*
D12*
G36*
X15740Y202610D02*
X24720Y211590D01*
X42680Y193630D01*
X33700Y184650D01*
X15740Y202610D01*
G37*
G36*
X22090Y208960D02*
X31070Y217940D01*
X49030Y199980D01*
X40050Y191000D01*
X22090Y208960D01*
G37*
D13*
X1060450Y227330D03*
D14*
X1060450Y252730D03*
X1035050Y227330D03*
X1035050Y252730D03*
X1009650Y227330D03*
X1009650Y252730D03*
X958850Y252730D03*
D10*
X953850Y227330D02*
X953852Y227471D01*
X953858Y227612D01*
X953868Y227752D01*
X953882Y227892D01*
X953900Y228032D01*
X953921Y228171D01*
X953947Y228310D01*
X953976Y228448D01*
X954010Y228584D01*
X954047Y228720D01*
X954088Y228855D01*
X954133Y228989D01*
X954182Y229121D01*
X954234Y229252D01*
X954290Y229381D01*
X954350Y229508D01*
X954413Y229634D01*
X954479Y229758D01*
X954550Y229881D01*
X954623Y230001D01*
X954700Y230119D01*
X954780Y230235D01*
X954864Y230348D01*
X954950Y230459D01*
X955040Y230568D01*
X955133Y230674D01*
X955228Y230777D01*
X955327Y230878D01*
X955428Y230976D01*
X955532Y231071D01*
X955639Y231163D01*
X955748Y231252D01*
X955860Y231337D01*
X955974Y231420D01*
X956090Y231500D01*
X956209Y231576D01*
X956330Y231648D01*
X956452Y231718D01*
X956577Y231783D01*
X956703Y231846D01*
X956831Y231904D01*
X956961Y231959D01*
X957092Y232011D01*
X957225Y232058D01*
X957359Y232102D01*
X957494Y232143D01*
X957630Y232179D01*
X957767Y232211D01*
X957905Y232240D01*
X958043Y232265D01*
X958183Y232285D01*
X958323Y232302D01*
X958463Y232315D01*
X958604Y232324D01*
X958744Y232329D01*
X958885Y232330D01*
X959026Y232327D01*
X959167Y232320D01*
X959307Y232309D01*
X959447Y232294D01*
X959587Y232275D01*
X959726Y232253D01*
X959864Y232226D01*
X960002Y232196D01*
X960138Y232161D01*
X960274Y232123D01*
X960408Y232081D01*
X960542Y232035D01*
X960674Y231986D01*
X960804Y231932D01*
X960933Y231875D01*
X961060Y231815D01*
X961186Y231751D01*
X961309Y231683D01*
X961431Y231612D01*
X961551Y231538D01*
X961668Y231460D01*
X961783Y231379D01*
X961896Y231295D01*
X962007Y231208D01*
X962115Y231117D01*
X962220Y231024D01*
X962323Y230927D01*
X962423Y230828D01*
X962520Y230726D01*
X962614Y230621D01*
X962705Y230514D01*
X962793Y230404D01*
X962878Y230292D01*
X962960Y230177D01*
X963039Y230060D01*
X963114Y229941D01*
X963186Y229820D01*
X963254Y229697D01*
X963319Y229572D01*
X963381Y229445D01*
X963438Y229316D01*
X963493Y229186D01*
X963543Y229055D01*
X963590Y228922D01*
X963633Y228788D01*
X963672Y228652D01*
X963707Y228516D01*
X963739Y228379D01*
X963766Y228241D01*
X963790Y228102D01*
X963810Y227962D01*
X963826Y227822D01*
X963838Y227682D01*
X963846Y227541D01*
X963850Y227400D01*
X963850Y227260D01*
X963846Y227119D01*
X963838Y226978D01*
X963826Y226838D01*
X963810Y226698D01*
X963790Y226558D01*
X963766Y226419D01*
X963739Y226281D01*
X963707Y226144D01*
X963672Y226008D01*
X963633Y225872D01*
X963590Y225738D01*
X963543Y225605D01*
X963493Y225474D01*
X963438Y225344D01*
X963381Y225215D01*
X963319Y225088D01*
X963254Y224963D01*
X963186Y224840D01*
X963114Y224719D01*
X963039Y224600D01*
X962960Y224483D01*
X962878Y224368D01*
X962793Y224256D01*
X962705Y224146D01*
X962614Y224039D01*
X962520Y223934D01*
X962423Y223832D01*
X962323Y223733D01*
X962220Y223636D01*
X962115Y223543D01*
X962007Y223452D01*
X961896Y223365D01*
X961783Y223281D01*
X961668Y223200D01*
X961551Y223122D01*
X961431Y223048D01*
X961309Y222977D01*
X961186Y222909D01*
X961060Y222845D01*
X960933Y222785D01*
X960804Y222728D01*
X960674Y222674D01*
X960542Y222625D01*
X960408Y222579D01*
X960274Y222537D01*
X960138Y222499D01*
X960002Y222464D01*
X959864Y222434D01*
X959726Y222407D01*
X959587Y222385D01*
X959447Y222366D01*
X959307Y222351D01*
X959167Y222340D01*
X959026Y222333D01*
X958885Y222330D01*
X958744Y222331D01*
X958604Y222336D01*
X958463Y222345D01*
X958323Y222358D01*
X958183Y222375D01*
X958043Y222395D01*
X957905Y222420D01*
X957767Y222449D01*
X957630Y222481D01*
X957494Y222517D01*
X957359Y222558D01*
X957225Y222602D01*
X957092Y222649D01*
X956961Y222701D01*
X956831Y222756D01*
X956703Y222814D01*
X956577Y222877D01*
X956452Y222942D01*
X956330Y223012D01*
X956209Y223084D01*
X956090Y223160D01*
X955974Y223240D01*
X955860Y223323D01*
X955748Y223408D01*
X955639Y223497D01*
X955532Y223589D01*
X955428Y223684D01*
X955327Y223782D01*
X955228Y223883D01*
X955133Y223986D01*
X955040Y224092D01*
X954950Y224201D01*
X954864Y224312D01*
X954780Y224425D01*
X954700Y224541D01*
X954623Y224659D01*
X954550Y224779D01*
X954479Y224902D01*
X954413Y225026D01*
X954350Y225152D01*
X954290Y225279D01*
X954234Y225408D01*
X954182Y225539D01*
X954133Y225671D01*
X954088Y225805D01*
X954047Y225940D01*
X954010Y226076D01*
X953976Y226212D01*
X953947Y226350D01*
X953921Y226489D01*
X953900Y226628D01*
X953882Y226768D01*
X953868Y226908D01*
X953858Y227048D01*
X953852Y227189D01*
X953850Y227330D01*
X928450Y227330D02*
X928452Y227471D01*
X928458Y227612D01*
X928468Y227752D01*
X928482Y227892D01*
X928500Y228032D01*
X928521Y228171D01*
X928547Y228310D01*
X928576Y228448D01*
X928610Y228584D01*
X928647Y228720D01*
X928688Y228855D01*
X928733Y228989D01*
X928782Y229121D01*
X928834Y229252D01*
X928890Y229381D01*
X928950Y229508D01*
X929013Y229634D01*
X929079Y229758D01*
X929150Y229881D01*
X929223Y230001D01*
X929300Y230119D01*
X929380Y230235D01*
X929464Y230348D01*
X929550Y230459D01*
X929640Y230568D01*
X929733Y230674D01*
X929828Y230777D01*
X929927Y230878D01*
X930028Y230976D01*
X930132Y231071D01*
X930239Y231163D01*
X930348Y231252D01*
X930460Y231337D01*
X930574Y231420D01*
X930690Y231500D01*
X930809Y231576D01*
X930930Y231648D01*
X931052Y231718D01*
X931177Y231783D01*
X931303Y231846D01*
X931431Y231904D01*
X931561Y231959D01*
X931692Y232011D01*
X931825Y232058D01*
X931959Y232102D01*
X932094Y232143D01*
X932230Y232179D01*
X932367Y232211D01*
X932505Y232240D01*
X932643Y232265D01*
X932783Y232285D01*
X932923Y232302D01*
X933063Y232315D01*
X933204Y232324D01*
X933344Y232329D01*
X933485Y232330D01*
X933626Y232327D01*
X933767Y232320D01*
X933907Y232309D01*
X934047Y232294D01*
X934187Y232275D01*
X934326Y232253D01*
X934464Y232226D01*
X934602Y232196D01*
X934738Y232161D01*
X934874Y232123D01*
X935008Y232081D01*
X935142Y232035D01*
X935274Y231986D01*
X935404Y231932D01*
X935533Y231875D01*
X935660Y231815D01*
X935786Y231751D01*
X935909Y231683D01*
X936031Y231612D01*
X936151Y231538D01*
X936268Y231460D01*
X936383Y231379D01*
X936496Y231295D01*
X936607Y231208D01*
X936715Y231117D01*
X936820Y231024D01*
X936923Y230927D01*
X937023Y230828D01*
X937120Y230726D01*
X937214Y230621D01*
X937305Y230514D01*
X937393Y230404D01*
X937478Y230292D01*
X937560Y230177D01*
X937639Y230060D01*
X937714Y229941D01*
X937786Y229820D01*
X937854Y229697D01*
X937919Y229572D01*
X937981Y229445D01*
X938038Y229316D01*
X938093Y229186D01*
X938143Y229055D01*
X938190Y228922D01*
X938233Y228788D01*
X938272Y228652D01*
X938307Y228516D01*
X938339Y228379D01*
X938366Y228241D01*
X938390Y228102D01*
X938410Y227962D01*
X938426Y227822D01*
X938438Y227682D01*
X938446Y227541D01*
X938450Y227400D01*
X938450Y227260D01*
X938446Y227119D01*
X938438Y226978D01*
X938426Y226838D01*
X938410Y226698D01*
X938390Y226558D01*
X938366Y226419D01*
X938339Y226281D01*
X938307Y226144D01*
X938272Y226008D01*
X938233Y225872D01*
X938190Y225738D01*
X938143Y225605D01*
X938093Y225474D01*
X938038Y225344D01*
X937981Y225215D01*
X937919Y225088D01*
X937854Y224963D01*
X937786Y224840D01*
X937714Y224719D01*
X937639Y224600D01*
X937560Y224483D01*
X937478Y224368D01*
X937393Y224256D01*
X937305Y224146D01*
X937214Y224039D01*
X937120Y223934D01*
X937023Y223832D01*
X936923Y223733D01*
X936820Y223636D01*
X936715Y223543D01*
X936607Y223452D01*
X936496Y223365D01*
X936383Y223281D01*
X936268Y223200D01*
X936151Y223122D01*
X936031Y223048D01*
X935909Y222977D01*
X935786Y222909D01*
X935660Y222845D01*
X935533Y222785D01*
X935404Y222728D01*
X935274Y222674D01*
X935142Y222625D01*
X935008Y222579D01*
X934874Y222537D01*
X934738Y222499D01*
X934602Y222464D01*
X934464Y222434D01*
X934326Y222407D01*
X934187Y222385D01*
X934047Y222366D01*
X933907Y222351D01*
X933767Y222340D01*
X933626Y222333D01*
X933485Y222330D01*
X933344Y222331D01*
X933204Y222336D01*
X933063Y222345D01*
X932923Y222358D01*
X932783Y222375D01*
X932643Y222395D01*
X932505Y222420D01*
X932367Y222449D01*
X932230Y222481D01*
X932094Y222517D01*
X931959Y222558D01*
X931825Y222602D01*
X931692Y222649D01*
X931561Y222701D01*
X931431Y222756D01*
X931303Y222814D01*
X931177Y222877D01*
X931052Y222942D01*
X930930Y223012D01*
X930809Y223084D01*
X930690Y223160D01*
X930574Y223240D01*
X930460Y223323D01*
X930348Y223408D01*
X930239Y223497D01*
X930132Y223589D01*
X930028Y223684D01*
X929927Y223782D01*
X929828Y223883D01*
X929733Y223986D01*
X929640Y224092D01*
X929550Y224201D01*
X929464Y224312D01*
X929380Y224425D01*
X929300Y224541D01*
X929223Y224659D01*
X929150Y224779D01*
X929079Y224902D01*
X929013Y225026D01*
X928950Y225152D01*
X928890Y225279D01*
X928834Y225408D01*
X928782Y225539D01*
X928733Y225671D01*
X928688Y225805D01*
X928647Y225940D01*
X928610Y226076D01*
X928576Y226212D01*
X928547Y226350D01*
X928521Y226489D01*
X928500Y226628D01*
X928482Y226768D01*
X928468Y226908D01*
X928458Y227048D01*
X928452Y227189D01*
X928450Y227330D01*
X928450Y252730D02*
X928452Y252871D01*
X928458Y253012D01*
X928468Y253152D01*
X928482Y253292D01*
X928500Y253432D01*
X928521Y253571D01*
X928547Y253710D01*
X928576Y253848D01*
X928610Y253984D01*
X928647Y254120D01*
X928688Y254255D01*
X928733Y254389D01*
X928782Y254521D01*
X928834Y254652D01*
X928890Y254781D01*
X928950Y254908D01*
X929013Y255034D01*
X929079Y255158D01*
X929150Y255281D01*
X929223Y255401D01*
X929300Y255519D01*
X929380Y255635D01*
X929464Y255748D01*
X929550Y255859D01*
X929640Y255968D01*
X929733Y256074D01*
X929828Y256177D01*
X929927Y256278D01*
X930028Y256376D01*
X930132Y256471D01*
X930239Y256563D01*
X930348Y256652D01*
X930460Y256737D01*
X930574Y256820D01*
X930690Y256900D01*
X930809Y256976D01*
X930930Y257048D01*
X931052Y257118D01*
X931177Y257183D01*
X931303Y257246D01*
X931431Y257304D01*
X931561Y257359D01*
X931692Y257411D01*
X931825Y257458D01*
X931959Y257502D01*
X932094Y257543D01*
X932230Y257579D01*
X932367Y257611D01*
X932505Y257640D01*
X932643Y257665D01*
X932783Y257685D01*
X932923Y257702D01*
X933063Y257715D01*
X933204Y257724D01*
X933344Y257729D01*
X933485Y257730D01*
X933626Y257727D01*
X933767Y257720D01*
X933907Y257709D01*
X934047Y257694D01*
X934187Y257675D01*
X934326Y257653D01*
X934464Y257626D01*
X934602Y257596D01*
X934738Y257561D01*
X934874Y257523D01*
X935008Y257481D01*
X935142Y257435D01*
X935274Y257386D01*
X935404Y257332D01*
X935533Y257275D01*
X935660Y257215D01*
X935786Y257151D01*
X935909Y257083D01*
X936031Y257012D01*
X936151Y256938D01*
X936268Y256860D01*
X936383Y256779D01*
X936496Y256695D01*
X936607Y256608D01*
X936715Y256517D01*
X936820Y256424D01*
X936923Y256327D01*
X937023Y256228D01*
X937120Y256126D01*
X937214Y256021D01*
X937305Y255914D01*
X937393Y255804D01*
X937478Y255692D01*
X937560Y255577D01*
X937639Y255460D01*
X937714Y255341D01*
X937786Y255220D01*
X937854Y255097D01*
X937919Y254972D01*
X937981Y254845D01*
X938038Y254716D01*
X938093Y254586D01*
X938143Y254455D01*
X938190Y254322D01*
X938233Y254188D01*
X938272Y254052D01*
X938307Y253916D01*
X938339Y253779D01*
X938366Y253641D01*
X938390Y253502D01*
X938410Y253362D01*
X938426Y253222D01*
X938438Y253082D01*
X938446Y252941D01*
X938450Y252800D01*
X938450Y252660D01*
X938446Y252519D01*
X938438Y252378D01*
X938426Y252238D01*
X938410Y252098D01*
X938390Y251958D01*
X938366Y251819D01*
X938339Y251681D01*
X938307Y251544D01*
X938272Y251408D01*
X938233Y251272D01*
X938190Y251138D01*
X938143Y251005D01*
X938093Y250874D01*
X938038Y250744D01*
X937981Y250615D01*
X937919Y250488D01*
X937854Y250363D01*
X937786Y250240D01*
X937714Y250119D01*
X937639Y250000D01*
X937560Y249883D01*
X937478Y249768D01*
X937393Y249656D01*
X937305Y249546D01*
X937214Y249439D01*
X937120Y249334D01*
X937023Y249232D01*
X936923Y249133D01*
X936820Y249036D01*
X936715Y248943D01*
X936607Y248852D01*
X936496Y248765D01*
X936383Y248681D01*
X936268Y248600D01*
X936151Y248522D01*
X936031Y248448D01*
X935909Y248377D01*
X935786Y248309D01*
X935660Y248245D01*
X935533Y248185D01*
X935404Y248128D01*
X935274Y248074D01*
X935142Y248025D01*
X935008Y247979D01*
X934874Y247937D01*
X934738Y247899D01*
X934602Y247864D01*
X934464Y247834D01*
X934326Y247807D01*
X934187Y247785D01*
X934047Y247766D01*
X933907Y247751D01*
X933767Y247740D01*
X933626Y247733D01*
X933485Y247730D01*
X933344Y247731D01*
X933204Y247736D01*
X933063Y247745D01*
X932923Y247758D01*
X932783Y247775D01*
X932643Y247795D01*
X932505Y247820D01*
X932367Y247849D01*
X932230Y247881D01*
X932094Y247917D01*
X931959Y247958D01*
X931825Y248002D01*
X931692Y248049D01*
X931561Y248101D01*
X931431Y248156D01*
X931303Y248214D01*
X931177Y248277D01*
X931052Y248342D01*
X930930Y248412D01*
X930809Y248484D01*
X930690Y248560D01*
X930574Y248640D01*
X930460Y248723D01*
X930348Y248808D01*
X930239Y248897D01*
X930132Y248989D01*
X930028Y249084D01*
X929927Y249182D01*
X929828Y249283D01*
X929733Y249386D01*
X929640Y249492D01*
X929550Y249601D01*
X929464Y249712D01*
X929380Y249825D01*
X929300Y249941D01*
X929223Y250059D01*
X929150Y250179D01*
X929079Y250302D01*
X929013Y250426D01*
X928950Y250552D01*
X928890Y250679D01*
X928834Y250808D01*
X928782Y250939D01*
X928733Y251071D01*
X928688Y251205D01*
X928647Y251340D01*
X928610Y251476D01*
X928576Y251612D01*
X928547Y251750D01*
X928521Y251889D01*
X928500Y252028D01*
X928482Y252168D01*
X928468Y252308D01*
X928458Y252448D01*
X928452Y252589D01*
X928450Y252730D01*
D14*
X984250Y227330D03*
D10*
X979250Y252730D02*
X979252Y252871D01*
X979258Y253012D01*
X979268Y253152D01*
X979282Y253292D01*
X979300Y253432D01*
X979321Y253571D01*
X979347Y253710D01*
X979376Y253848D01*
X979410Y253984D01*
X979447Y254120D01*
X979488Y254255D01*
X979533Y254389D01*
X979582Y254521D01*
X979634Y254652D01*
X979690Y254781D01*
X979750Y254908D01*
X979813Y255034D01*
X979879Y255158D01*
X979950Y255281D01*
X980023Y255401D01*
X980100Y255519D01*
X980180Y255635D01*
X980264Y255748D01*
X980350Y255859D01*
X980440Y255968D01*
X980533Y256074D01*
X980628Y256177D01*
X980727Y256278D01*
X980828Y256376D01*
X980932Y256471D01*
X981039Y256563D01*
X981148Y256652D01*
X981260Y256737D01*
X981374Y256820D01*
X981490Y256900D01*
X981609Y256976D01*
X981730Y257048D01*
X981852Y257118D01*
X981977Y257183D01*
X982103Y257246D01*
X982231Y257304D01*
X982361Y257359D01*
X982492Y257411D01*
X982625Y257458D01*
X982759Y257502D01*
X982894Y257543D01*
X983030Y257579D01*
X983167Y257611D01*
X983305Y257640D01*
X983443Y257665D01*
X983583Y257685D01*
X983723Y257702D01*
X983863Y257715D01*
X984004Y257724D01*
X984144Y257729D01*
X984285Y257730D01*
X984426Y257727D01*
X984567Y257720D01*
X984707Y257709D01*
X984847Y257694D01*
X984987Y257675D01*
X985126Y257653D01*
X985264Y257626D01*
X985402Y257596D01*
X985538Y257561D01*
X985674Y257523D01*
X985808Y257481D01*
X985942Y257435D01*
X986074Y257386D01*
X986204Y257332D01*
X986333Y257275D01*
X986460Y257215D01*
X986586Y257151D01*
X986709Y257083D01*
X986831Y257012D01*
X986951Y256938D01*
X987068Y256860D01*
X987183Y256779D01*
X987296Y256695D01*
X987407Y256608D01*
X987515Y256517D01*
X987620Y256424D01*
X987723Y256327D01*
X987823Y256228D01*
X987920Y256126D01*
X988014Y256021D01*
X988105Y255914D01*
X988193Y255804D01*
X988278Y255692D01*
X988360Y255577D01*
X988439Y255460D01*
X988514Y255341D01*
X988586Y255220D01*
X988654Y255097D01*
X988719Y254972D01*
X988781Y254845D01*
X988838Y254716D01*
X988893Y254586D01*
X988943Y254455D01*
X988990Y254322D01*
X989033Y254188D01*
X989072Y254052D01*
X989107Y253916D01*
X989139Y253779D01*
X989166Y253641D01*
X989190Y253502D01*
X989210Y253362D01*
X989226Y253222D01*
X989238Y253082D01*
X989246Y252941D01*
X989250Y252800D01*
X989250Y252660D01*
X989246Y252519D01*
X989238Y252378D01*
X989226Y252238D01*
X989210Y252098D01*
X989190Y251958D01*
X989166Y251819D01*
X989139Y251681D01*
X989107Y251544D01*
X989072Y251408D01*
X989033Y251272D01*
X988990Y251138D01*
X988943Y251005D01*
X988893Y250874D01*
X988838Y250744D01*
X988781Y250615D01*
X988719Y250488D01*
X988654Y250363D01*
X988586Y250240D01*
X988514Y250119D01*
X988439Y250000D01*
X988360Y249883D01*
X988278Y249768D01*
X988193Y249656D01*
X988105Y249546D01*
X988014Y249439D01*
X987920Y249334D01*
X987823Y249232D01*
X987723Y249133D01*
X987620Y249036D01*
X987515Y248943D01*
X987407Y248852D01*
X987296Y248765D01*
X987183Y248681D01*
X987068Y248600D01*
X986951Y248522D01*
X986831Y248448D01*
X986709Y248377D01*
X986586Y248309D01*
X986460Y248245D01*
X986333Y248185D01*
X986204Y248128D01*
X986074Y248074D01*
X985942Y248025D01*
X985808Y247979D01*
X985674Y247937D01*
X985538Y247899D01*
X985402Y247864D01*
X985264Y247834D01*
X985126Y247807D01*
X984987Y247785D01*
X984847Y247766D01*
X984707Y247751D01*
X984567Y247740D01*
X984426Y247733D01*
X984285Y247730D01*
X984144Y247731D01*
X984004Y247736D01*
X983863Y247745D01*
X983723Y247758D01*
X983583Y247775D01*
X983443Y247795D01*
X983305Y247820D01*
X983167Y247849D01*
X983030Y247881D01*
X982894Y247917D01*
X982759Y247958D01*
X982625Y248002D01*
X982492Y248049D01*
X982361Y248101D01*
X982231Y248156D01*
X982103Y248214D01*
X981977Y248277D01*
X981852Y248342D01*
X981730Y248412D01*
X981609Y248484D01*
X981490Y248560D01*
X981374Y248640D01*
X981260Y248723D01*
X981148Y248808D01*
X981039Y248897D01*
X980932Y248989D01*
X980828Y249084D01*
X980727Y249182D01*
X980628Y249283D01*
X980533Y249386D01*
X980440Y249492D01*
X980350Y249601D01*
X980264Y249712D01*
X980180Y249825D01*
X980100Y249941D01*
X980023Y250059D01*
X979950Y250179D01*
X979879Y250302D01*
X979813Y250426D01*
X979750Y250552D01*
X979690Y250679D01*
X979634Y250808D01*
X979582Y250939D01*
X979533Y251071D01*
X979488Y251205D01*
X979447Y251340D01*
X979410Y251476D01*
X979376Y251612D01*
X979347Y251750D01*
X979321Y251889D01*
X979300Y252028D01*
X979282Y252168D01*
X979268Y252308D01*
X979258Y252448D01*
X979252Y252589D01*
X979250Y252730D01*
D11*
X0Y281940D03*
X0Y262890D03*
X0Y243840D03*
D15*
X50800Y40640D03*
X63500Y40640D03*
X45720Y207010D03*
X35560Y196850D03*
D16*
X55880Y40640D02*
X63500Y40640D01*
X55880Y40640D02*
X55880Y49530D01*
X57150Y50800D01*
X55880Y40640D02*
X54610Y39370D01*
X54610Y31750D01*
D17*
X63500Y40640D02*
X69850Y40640D01*
D18*
X63500Y44450D02*
X67310Y48260D01*
X63500Y44450D02*
X63500Y40640D01*
X63500Y36830D01*
X67310Y33020D01*
D19*
X74930Y66040D03*
X88900Y40640D03*
X62230Y215900D03*
X63500Y193040D03*
D20*
X45720Y207010D02*
X39370Y200660D01*
D21*
X26670Y213360D02*
X26670Y218440D01*
X26670Y213360D02*
X30480Y209550D01*
X35560Y204470D01*
X39370Y200660D02*
X54610Y200660D01*
X39370Y200660D02*
X35560Y204470D01*
X35560Y215900D01*
X36830Y217170D01*
X35560Y204470D02*
X48260Y204470D01*
X30480Y209550D02*
X30480Y220980D01*
D20*
X29210Y198120D02*
X34290Y198120D01*
X35560Y196850D01*
D15*
X27940Y204470D03*
X38100Y214630D03*
D22*
X755650Y272640D03*
X750570Y226990D03*
D21*
X58916Y40156D02*
X53816Y40156D01*
X53816Y41124D01*
X63016Y41124D01*
X63016Y40156D01*
X58916Y40156D01*
X994766Y225238D02*
X994766Y229422D01*
X993165Y233287D01*
X990962Y235490D01*
X1002990Y235490D01*
X1002799Y235351D01*
X1001629Y234181D01*
X1000656Y232842D01*
X999904Y231367D01*
X999393Y229793D01*
X999164Y228346D01*
X1008634Y228346D01*
X1008634Y226314D01*
X999164Y226314D01*
X999393Y224867D01*
X999904Y223293D01*
X1000656Y221818D01*
X1001629Y220479D01*
X1002799Y219309D01*
X1004138Y218336D01*
X1005613Y217584D01*
X1006917Y217161D01*
X1006386Y216630D01*
X931521Y216630D01*
X920210Y227941D01*
X917551Y230600D01*
X780439Y230600D01*
X777780Y227941D01*
X766469Y216630D01*
X228254Y216630D01*
X228433Y216704D01*
X229693Y217546D01*
X230764Y218617D01*
X231606Y219877D01*
X232185Y221277D01*
X232481Y222762D01*
X232481Y223161D01*
X225149Y223161D01*
X225149Y223879D01*
X232481Y223879D01*
X232481Y224278D01*
X232185Y225763D01*
X231606Y227163D01*
X230764Y228423D01*
X229693Y229494D01*
X228433Y230336D01*
X227033Y230915D01*
X225548Y231211D01*
X225149Y231211D01*
X225149Y223879D01*
X224431Y223879D01*
X224431Y231211D01*
X224032Y231211D01*
X222547Y230915D01*
X221147Y230336D01*
X219887Y229494D01*
X218816Y228423D01*
X217974Y227163D01*
X217395Y225763D01*
X217099Y224278D01*
X217099Y223879D01*
X224431Y223879D01*
X224431Y223161D01*
X217099Y223161D01*
X217099Y222762D01*
X217395Y221277D01*
X217974Y219877D01*
X218816Y218617D01*
X219887Y217546D01*
X221147Y216704D01*
X221326Y216630D01*
X159474Y216630D01*
X158574Y217529D01*
X156216Y218506D01*
X153664Y218506D01*
X151306Y217529D01*
X149501Y215724D01*
X148524Y213366D01*
X148524Y210814D01*
X149501Y208456D01*
X151306Y206651D01*
X153664Y205674D01*
X156216Y205674D01*
X158574Y206651D01*
X159474Y207550D01*
X224875Y207550D01*
X217964Y200639D01*
X217964Y10139D01*
X212111Y4286D01*
X84836Y4286D01*
X84836Y9684D01*
X100091Y9684D01*
X134381Y43974D01*
X137636Y47229D01*
X137636Y217409D01*
X173751Y253524D01*
X752298Y253524D01*
X754374Y252664D01*
X756926Y252664D01*
X759002Y253524D01*
X820181Y253524D01*
X823436Y256779D01*
X834151Y267494D01*
X846585Y267494D01*
X847498Y266581D01*
X846731Y265814D01*
X845754Y263456D01*
X845754Y260904D01*
X846731Y258546D01*
X848531Y256745D01*
X848080Y256444D01*
X847186Y255550D01*
X846484Y254499D01*
X846001Y253331D01*
X845754Y252092D01*
X845754Y251460D01*
X852170Y251460D01*
X852170Y251460D01*
X845754Y251460D01*
X845754Y250828D01*
X846001Y249589D01*
X846484Y248421D01*
X847186Y247370D01*
X848080Y246476D01*
X849131Y245774D01*
X850299Y245291D01*
X851538Y245044D01*
X852170Y245044D01*
X852170Y251460D01*
X852170Y251460D01*
X852170Y245044D01*
X852802Y245044D01*
X854041Y245291D01*
X855209Y245774D01*
X856260Y246476D01*
X857154Y247370D01*
X857856Y248421D01*
X858339Y249589D01*
X858586Y250828D01*
X858586Y251460D01*
X852170Y251460D01*
X852170Y251460D01*
X858586Y251460D01*
X858586Y252092D01*
X858339Y253331D01*
X857856Y254499D01*
X857154Y255550D01*
X856260Y256444D01*
X855809Y256745D01*
X857609Y258546D01*
X858586Y260904D01*
X858586Y263456D01*
X857609Y265814D01*
X856842Y266581D01*
X857755Y267494D01*
X879079Y267494D01*
X884714Y261859D01*
X887969Y258604D01*
X927988Y258604D01*
X926654Y257271D01*
X925434Y254324D01*
X925434Y251136D01*
X926654Y248189D01*
X928909Y245934D01*
X931856Y244714D01*
X935044Y244714D01*
X937991Y245934D01*
X940246Y248189D01*
X941466Y251136D01*
X941466Y254324D01*
X940246Y257271D01*
X938912Y258604D01*
X945119Y258604D01*
X945779Y257944D01*
X948334Y251556D01*
X948334Y250638D01*
X949935Y246773D01*
X952138Y244570D01*
X922744Y244570D01*
X921844Y245469D01*
X919486Y246446D01*
X916934Y246446D01*
X914576Y245469D01*
X912771Y243664D01*
X911794Y241306D01*
X911794Y238754D01*
X912771Y236396D01*
X914576Y234591D01*
X916934Y233614D01*
X919486Y233614D01*
X921844Y234591D01*
X922744Y235490D01*
X977538Y235490D01*
X975335Y233287D01*
X973734Y229422D01*
X973734Y225238D01*
X975335Y221373D01*
X978293Y218415D01*
X982158Y216814D01*
X986342Y216814D01*
X990207Y218415D01*
X993165Y221373D01*
X994766Y225238D01*
X704850Y240960D02*
X704850Y247376D01*
X704850Y240960D02*
X704850Y240960D01*
X704850Y247376D01*
X704218Y247376D01*
X702979Y247129D01*
X701811Y246646D01*
X700760Y245944D01*
X699866Y245050D01*
X699164Y243999D01*
X698681Y242831D01*
X698434Y241592D01*
X698434Y240960D01*
X704850Y240960D01*
X704850Y240960D01*
X698434Y240960D01*
X698434Y240328D01*
X698681Y239089D01*
X699164Y237921D01*
X699866Y236870D01*
X700760Y235976D01*
X701811Y235274D01*
X702979Y234791D01*
X704218Y234544D01*
X704850Y234544D01*
X704850Y240960D01*
X704850Y240960D01*
X704850Y234544D01*
X705482Y234544D01*
X706721Y234791D01*
X707889Y235274D01*
X708940Y235976D01*
X709834Y236870D01*
X710536Y237921D01*
X711019Y239089D01*
X711266Y240328D01*
X711266Y240960D01*
X704850Y240960D01*
X704850Y240960D01*
X711266Y240960D01*
X711266Y241592D01*
X711019Y242831D01*
X710536Y243999D01*
X709834Y245050D01*
X708940Y245944D01*
X707889Y246646D01*
X706721Y247129D01*
X705482Y247376D01*
X704850Y247376D01*
X199749Y205811D02*
X199749Y198479D01*
X199031Y198479D01*
X199031Y205811D01*
X198632Y205811D01*
X197147Y205515D01*
X195747Y204936D01*
X194487Y204094D01*
X193416Y203023D01*
X192574Y201763D01*
X191995Y200363D01*
X191699Y198878D01*
X191699Y198479D01*
X199031Y198479D01*
X199031Y197761D01*
X191699Y197761D01*
X191699Y197362D01*
X191995Y195877D01*
X192574Y194477D01*
X193416Y193217D01*
X194487Y192146D01*
X195747Y191304D01*
X197147Y190725D01*
X198632Y190429D01*
X199031Y190429D01*
X199031Y197761D01*
X199749Y197761D01*
X199749Y190429D01*
X200148Y190429D01*
X201633Y190725D01*
X203033Y191304D01*
X204293Y192146D01*
X205364Y193217D01*
X206206Y194477D01*
X206785Y195877D01*
X207081Y197362D01*
X207081Y197761D01*
X199749Y197761D01*
X199749Y198479D01*
X207081Y198479D01*
X207081Y198878D01*
X206785Y200363D01*
X206206Y201763D01*
X205364Y203023D01*
X204293Y204094D01*
X203033Y204936D01*
X201633Y205515D01*
X200148Y205811D01*
X199749Y205811D01*
X154029Y116911D02*
X154029Y109579D01*
X153311Y109579D01*
X153311Y116911D01*
X152912Y116911D01*
X151427Y116615D01*
X150027Y116036D01*
X148767Y115194D01*
X147696Y114123D01*
X146854Y112863D01*
X146275Y111463D01*
X145979Y109978D01*
X145979Y109579D01*
X153311Y109579D01*
X153311Y108861D01*
X145979Y108861D01*
X145979Y108462D01*
X146275Y106977D01*
X146854Y105577D01*
X147696Y104317D01*
X148767Y103246D01*
X150027Y102404D01*
X151427Y101825D01*
X152912Y101529D01*
X153311Y101529D01*
X153311Y108861D01*
X154029Y108861D01*
X154029Y101529D01*
X154428Y101529D01*
X155913Y101825D01*
X157313Y102404D01*
X158573Y103246D01*
X159644Y104317D01*
X160486Y105577D01*
X161065Y106977D01*
X161361Y108462D01*
X161361Y108861D01*
X154029Y108861D01*
X154029Y109579D01*
X161361Y109579D01*
X161361Y109978D01*
X161065Y111463D01*
X160486Y112863D01*
X159644Y114123D01*
X158573Y115194D01*
X157313Y116036D01*
X155913Y116615D01*
X154428Y116911D01*
X154029Y116911D01*
X154029Y66111D02*
X154029Y58779D01*
X153311Y58779D01*
X153311Y66111D01*
X152912Y66111D01*
X151427Y65815D01*
X150027Y65236D01*
X148767Y64394D01*
X147696Y63323D01*
X146854Y62063D01*
X146275Y60663D01*
X145979Y59178D01*
X145979Y58779D01*
X153311Y58779D01*
X153311Y58061D01*
X145979Y58061D01*
X145979Y57662D01*
X146275Y56177D01*
X146854Y54777D01*
X147696Y53517D01*
X148767Y52446D01*
X150027Y51604D01*
X151427Y51025D01*
X152912Y50729D01*
X153311Y50729D01*
X153311Y58061D01*
X154029Y58061D01*
X154029Y50729D01*
X154428Y50729D01*
X155913Y51025D01*
X157313Y51604D01*
X158573Y52446D01*
X159644Y53517D01*
X160486Y54777D01*
X161065Y56177D01*
X161361Y57662D01*
X161361Y58061D01*
X154029Y58061D01*
X154029Y58779D01*
X161361Y58779D01*
X161361Y59178D01*
X161065Y60663D01*
X160486Y62063D01*
X159644Y63323D01*
X158573Y64394D01*
X157313Y65236D01*
X155913Y65815D01*
X154428Y66111D01*
X154029Y66111D01*
X750570Y226990D02*
X750570Y233406D01*
X750570Y226990D02*
X750570Y226990D01*
X750570Y233406D01*
X749938Y233406D01*
X748699Y233159D01*
X747531Y232676D01*
X746480Y231974D01*
X745586Y231080D01*
X744884Y230029D01*
X744401Y228861D01*
X744154Y227622D01*
X744154Y226990D01*
X750570Y226990D01*
X750570Y226990D01*
X744154Y226990D01*
X744154Y226358D01*
X744401Y225119D01*
X744884Y223951D01*
X745586Y222900D01*
X746480Y222006D01*
X747531Y221304D01*
X748699Y220821D01*
X749938Y220574D01*
X750570Y220574D01*
X750570Y226990D01*
X750570Y226990D01*
X750570Y220574D01*
X751202Y220574D01*
X752441Y220821D01*
X753609Y221304D01*
X754660Y222006D01*
X755554Y222900D01*
X756256Y223951D01*
X756739Y225119D01*
X756986Y226358D01*
X756986Y226990D01*
X750570Y226990D01*
X750570Y226990D01*
X756986Y226990D01*
X756986Y227622D01*
X756739Y228861D01*
X756256Y230029D01*
X755554Y231080D01*
X754660Y231974D01*
X753609Y232676D01*
X752441Y233159D01*
X751202Y233406D01*
X750570Y233406D01*
X941466Y228924D02*
X941466Y225736D01*
X941466Y228924D02*
X940246Y231871D01*
X937991Y234126D01*
X935044Y235346D01*
X931856Y235346D01*
X928909Y234126D01*
X926654Y231871D01*
X925434Y228924D01*
X925434Y225736D01*
X926654Y222789D01*
X928909Y220534D01*
X931856Y219314D01*
X935044Y219314D01*
X937991Y220534D01*
X940246Y222789D01*
X941466Y225736D01*
X966866Y225736D02*
X966866Y228924D01*
X965646Y231871D01*
X963391Y234126D01*
X960444Y235346D01*
X957256Y235346D01*
X954309Y234126D01*
X952054Y231871D01*
X950834Y228924D01*
X950834Y225736D01*
X952054Y222789D01*
X954309Y220534D01*
X957256Y219314D01*
X960444Y219314D01*
X963391Y220534D01*
X965646Y222789D01*
X966866Y225736D01*
X154029Y91511D02*
X154029Y84179D01*
X153311Y84179D01*
X153311Y91511D01*
X152912Y91511D01*
X151427Y91215D01*
X150027Y90636D01*
X148767Y89794D01*
X147696Y88723D01*
X146854Y87463D01*
X146275Y86063D01*
X145979Y84578D01*
X145979Y84179D01*
X153311Y84179D01*
X153311Y83461D01*
X145979Y83461D01*
X145979Y83062D01*
X146275Y81577D01*
X146854Y80177D01*
X147696Y78917D01*
X148767Y77846D01*
X150027Y77004D01*
X151427Y76425D01*
X152912Y76129D01*
X153311Y76129D01*
X153311Y83461D01*
X154029Y83461D01*
X154029Y76129D01*
X154428Y76129D01*
X155913Y76425D01*
X157313Y77004D01*
X158573Y77846D01*
X159644Y78917D01*
X160486Y80177D01*
X161065Y81577D01*
X161361Y83062D01*
X161361Y83461D01*
X154029Y83461D01*
X154029Y84179D01*
X161361Y84179D01*
X161361Y84578D01*
X161065Y86063D01*
X160486Y87463D01*
X159644Y88723D01*
X158573Y89794D01*
X157313Y90636D01*
X155913Y91215D01*
X154428Y91511D01*
X154029Y91511D01*
X166729Y230229D02*
X166729Y237561D01*
X166729Y230229D02*
X166011Y230229D01*
X166011Y237561D01*
X165612Y237561D01*
X164127Y237265D01*
X162727Y236686D01*
X161467Y235844D01*
X160396Y234773D01*
X159554Y233513D01*
X158975Y232113D01*
X158679Y230628D01*
X158679Y230229D01*
X166011Y230229D01*
X166011Y229511D01*
X158679Y229511D01*
X158679Y229112D01*
X158975Y227627D01*
X159554Y226227D01*
X160396Y224967D01*
X161467Y223896D01*
X162727Y223054D01*
X164127Y222475D01*
X165612Y222179D01*
X166011Y222179D01*
X166011Y229511D01*
X166729Y229511D01*
X166729Y222179D01*
X167128Y222179D01*
X168613Y222475D01*
X170013Y223054D01*
X171273Y223896D01*
X172344Y224967D01*
X173186Y226227D01*
X173765Y227627D01*
X174061Y229112D01*
X174061Y229511D01*
X166729Y229511D01*
X166729Y230229D01*
X174061Y230229D01*
X174061Y230628D01*
X173765Y232113D01*
X173186Y233513D01*
X172344Y234773D01*
X171273Y235844D01*
X170013Y236686D01*
X168613Y237265D01*
X167128Y237561D01*
X166729Y237561D01*
X810326Y278124D02*
X810326Y280676D01*
X809349Y283034D01*
X807544Y284839D01*
X805186Y285816D01*
X803555Y285816D01*
X796766Y292605D01*
X796477Y292894D01*
X894101Y292894D01*
X908844Y278151D01*
X910611Y276384D01*
X1065551Y276384D01*
X1072674Y269261D01*
X1072674Y212069D01*
X1046501Y185896D01*
X938509Y185896D01*
X914379Y210026D01*
X794750Y210026D01*
X794924Y210200D01*
X795626Y211251D01*
X796109Y212419D01*
X796356Y213658D01*
X796356Y214290D01*
X789940Y214290D01*
X789940Y214290D01*
X796356Y214290D01*
X796356Y214922D01*
X796109Y216161D01*
X795626Y217329D01*
X794924Y218380D01*
X794030Y219274D01*
X792979Y219976D01*
X791811Y220459D01*
X790572Y220706D01*
X789940Y220706D01*
X789940Y214290D01*
X789940Y214290D01*
X789940Y220706D01*
X789308Y220706D01*
X788069Y220459D01*
X786901Y219976D01*
X785850Y219274D01*
X784956Y218380D01*
X784254Y217329D01*
X783771Y216161D01*
X783524Y214922D01*
X783524Y214290D01*
X789940Y214290D01*
X789940Y214290D01*
X783524Y214290D01*
X783524Y213658D01*
X783771Y212419D01*
X784254Y211251D01*
X784956Y210200D01*
X785130Y210026D01*
X772706Y210026D01*
X784201Y221520D01*
X913789Y221520D01*
X927759Y207550D01*
X1006386Y207550D01*
X1007286Y206651D01*
X1009644Y205674D01*
X1012196Y205674D01*
X1014554Y206651D01*
X1016359Y208456D01*
X1017336Y210814D01*
X1017336Y213366D01*
X1016359Y215724D01*
X1014554Y217529D01*
X1014016Y217752D01*
X1015162Y218336D01*
X1016501Y219309D01*
X1017671Y220479D01*
X1018644Y221818D01*
X1019396Y223293D01*
X1019907Y224867D01*
X1020136Y226314D01*
X1010666Y226314D01*
X1010666Y228346D01*
X1020136Y228346D01*
X1019907Y229793D01*
X1019396Y231367D01*
X1018644Y232842D01*
X1017671Y234181D01*
X1016501Y235351D01*
X1016310Y235490D01*
X1028338Y235490D01*
X1026135Y233287D01*
X1024534Y229422D01*
X1024534Y225238D01*
X1026135Y221373D01*
X1029093Y218415D01*
X1032958Y216814D01*
X1037142Y216814D01*
X1041007Y218415D01*
X1043965Y221373D01*
X1045566Y225238D01*
X1045566Y229422D01*
X1043965Y233287D01*
X1041762Y235490D01*
X1049631Y235490D01*
X1049934Y235794D01*
X1049934Y218581D01*
X1051701Y216814D01*
X1069199Y216814D01*
X1070966Y218581D01*
X1070966Y236079D01*
X1069199Y237846D01*
X1051986Y237846D01*
X1052290Y238149D01*
X1055500Y241360D01*
X1058918Y242214D01*
X1062542Y242214D01*
X1066407Y243815D01*
X1069365Y246773D01*
X1070966Y250638D01*
X1070966Y254822D01*
X1069365Y258687D01*
X1066407Y261645D01*
X1062542Y263246D01*
X1058358Y263246D01*
X1054493Y261645D01*
X1051535Y258687D01*
X1049934Y254822D01*
X1049934Y251198D01*
X1049080Y247780D01*
X1045869Y244570D01*
X1041762Y244570D01*
X1043965Y246773D01*
X1045566Y250638D01*
X1045566Y254822D01*
X1043965Y258687D01*
X1041007Y261645D01*
X1037142Y263246D01*
X1032958Y263246D01*
X1029093Y261645D01*
X1026135Y258687D01*
X1024534Y254822D01*
X1024534Y250638D01*
X1026135Y246773D01*
X1028338Y244570D01*
X1016310Y244570D01*
X1016501Y244709D01*
X1017671Y245879D01*
X1018644Y247218D01*
X1019396Y248693D01*
X1019907Y250267D01*
X1020136Y251714D01*
X1010666Y251714D01*
X1010666Y253746D01*
X1020136Y253746D01*
X1019907Y255193D01*
X1019396Y256767D01*
X1018644Y258242D01*
X1017671Y259581D01*
X1016501Y260751D01*
X1015162Y261724D01*
X1013687Y262476D01*
X1012113Y262987D01*
X1010666Y263216D01*
X1010666Y253746D01*
X1008634Y253746D01*
X1008634Y263216D01*
X1007187Y262987D01*
X1005613Y262476D01*
X1004138Y261724D01*
X1002799Y260751D01*
X1001629Y259581D01*
X1000656Y258242D01*
X999904Y256767D01*
X999393Y255193D01*
X999164Y253746D01*
X1008634Y253746D01*
X1008634Y251714D01*
X999164Y251714D01*
X999393Y250267D01*
X999904Y248693D01*
X1000656Y247218D01*
X1001629Y245879D01*
X1002799Y244709D01*
X1002990Y244570D01*
X965562Y244570D01*
X967765Y246773D01*
X969366Y250638D01*
X969366Y254822D01*
X967765Y258687D01*
X964807Y261645D01*
X960942Y263246D01*
X959439Y263246D01*
X954568Y264870D01*
X954246Y265191D01*
X952976Y266461D01*
X949721Y269716D01*
X908116Y269716D01*
X908116Y271076D01*
X907139Y273434D01*
X905334Y275239D01*
X902976Y276216D01*
X900424Y276216D01*
X898066Y275239D01*
X896261Y273434D01*
X895284Y271076D01*
X895284Y269716D01*
X892571Y269716D01*
X883681Y278606D01*
X829549Y278606D01*
X815579Y264636D01*
X759002Y264636D01*
X756926Y265496D01*
X754374Y265496D01*
X752298Y264636D01*
X169149Y264636D01*
X165894Y261381D01*
X165894Y261381D01*
X129779Y225266D01*
X126524Y222011D01*
X126524Y51831D01*
X95489Y20796D01*
X84836Y20796D01*
X84836Y27091D01*
X84241Y27686D01*
X53816Y27686D01*
X53816Y31274D01*
X63897Y31274D01*
X64664Y31480D01*
X65352Y31877D01*
X65913Y32438D01*
X66230Y32986D01*
X67344Y33448D01*
X68674Y34336D01*
X69804Y35466D01*
X70692Y36796D01*
X71304Y38273D01*
X71616Y39841D01*
X71616Y40156D01*
X63984Y40156D01*
X63984Y41124D01*
X71616Y41124D01*
X71616Y41439D01*
X71304Y43007D01*
X70692Y44484D01*
X69804Y45814D01*
X68674Y46944D01*
X67344Y47832D01*
X66230Y48294D01*
X65913Y48842D01*
X65352Y49403D01*
X64664Y49800D01*
X63897Y50006D01*
X55541Y50006D01*
X63976Y58441D01*
X63976Y91419D01*
X63701Y91694D01*
X76621Y91694D01*
X77216Y92289D01*
X77216Y105950D01*
X78081Y105950D01*
X80740Y108609D01*
X80740Y112371D01*
X78081Y115030D01*
X77216Y115030D01*
X77216Y125000D01*
X78081Y125000D01*
X80740Y127659D01*
X80740Y131421D01*
X78081Y134080D01*
X77216Y134080D01*
X77216Y144050D01*
X78081Y144050D01*
X80740Y146709D01*
X80740Y150471D01*
X78081Y153130D01*
X77216Y153130D01*
X77216Y169450D01*
X78081Y169450D01*
X80740Y172109D01*
X80740Y175871D01*
X78081Y178530D01*
X77216Y178530D01*
X77216Y184571D01*
X76621Y185166D01*
X51509Y185166D01*
X44995Y191680D01*
X45094Y191778D01*
X45094Y191778D01*
X45954Y192639D01*
X45625Y192968D01*
X45696Y193233D01*
X45696Y194027D01*
X45491Y194794D01*
X45094Y195482D01*
X43241Y197334D01*
X43676Y197334D01*
X43676Y197649D01*
X43641Y197826D01*
X47391Y194076D01*
X51444Y198128D01*
X51841Y198816D01*
X52046Y199583D01*
X52046Y200377D01*
X51841Y201144D01*
X51654Y201467D01*
X52024Y201836D01*
X52912Y203166D01*
X53524Y204643D01*
X53836Y206211D01*
X53836Y206526D01*
X46750Y206526D01*
X46204Y207071D01*
X46204Y207494D01*
X53836Y207494D01*
X53836Y207809D01*
X53524Y209377D01*
X52912Y210854D01*
X52024Y212184D01*
X50894Y213314D01*
X49564Y214202D01*
X48087Y214814D01*
X46519Y215126D01*
X46216Y215126D01*
X46216Y215429D01*
X45904Y216997D01*
X45292Y218474D01*
X44404Y219804D01*
X43274Y220934D01*
X41944Y221822D01*
X40467Y222434D01*
X38899Y222746D01*
X38584Y222746D01*
X38584Y215114D01*
X38161Y215114D01*
X37616Y215660D01*
X37616Y222746D01*
X37301Y222746D01*
X35733Y222434D01*
X34256Y221822D01*
X32926Y220934D01*
X32557Y220564D01*
X32234Y220751D01*
X31467Y220956D01*
X30673Y220956D01*
X29906Y220751D01*
X29218Y220354D01*
X25166Y216301D01*
X28916Y212551D01*
X28739Y212586D01*
X28424Y212586D01*
X28424Y212151D01*
X26572Y214004D01*
X25884Y214401D01*
X25117Y214606D01*
X24323Y214606D01*
X24058Y214535D01*
X23729Y214864D01*
X22868Y214004D01*
X22868Y214004D01*
X22770Y213905D01*
X5281Y231394D01*
X25821Y231394D01*
X26416Y231989D01*
X26416Y239554D01*
X42415Y239554D01*
X83055Y280194D01*
X784355Y280194D01*
X784794Y279755D01*
X784794Y278124D01*
X785771Y275766D01*
X787576Y273961D01*
X789934Y272984D01*
X792486Y272984D01*
X794844Y273961D01*
X796649Y275766D01*
X797560Y277965D01*
X798471Y275766D01*
X800276Y273961D01*
X802634Y272984D01*
X805186Y272984D01*
X807544Y273961D01*
X809349Y275766D01*
X810326Y278124D01*
X128629Y250261D02*
X128629Y242929D01*
X127911Y242929D01*
X127911Y250261D01*
X127512Y250261D01*
X126027Y249965D01*
X124627Y249386D01*
X123367Y248544D01*
X122296Y247473D01*
X121454Y246213D01*
X120875Y244813D01*
X120579Y243328D01*
X120579Y242929D01*
X127911Y242929D01*
X127911Y242211D01*
X120579Y242211D01*
X120579Y241812D01*
X120875Y240327D01*
X121454Y238927D01*
X122296Y237667D01*
X123367Y236596D01*
X124627Y235754D01*
X126027Y235175D01*
X127512Y234879D01*
X127911Y234879D01*
X127911Y242211D01*
X128629Y242211D01*
X128629Y234879D01*
X129028Y234879D01*
X130513Y235175D01*
X131913Y235754D01*
X133173Y236596D01*
X134244Y237667D01*
X135086Y238927D01*
X135665Y240327D01*
X135961Y241812D01*
X135961Y242211D01*
X128629Y242211D01*
X128629Y242929D01*
X135961Y242929D01*
X135961Y243328D01*
X135665Y244813D01*
X135086Y246213D01*
X134244Y247473D01*
X133173Y248544D01*
X131913Y249386D01*
X130513Y249965D01*
X129028Y250261D01*
X128629Y250261D01*
X113389Y91511D02*
X113389Y84179D01*
X112671Y84179D01*
X112671Y91511D01*
X112272Y91511D01*
X110787Y91215D01*
X109387Y90636D01*
X108127Y89794D01*
X107056Y88723D01*
X106214Y87463D01*
X105635Y86063D01*
X105339Y84578D01*
X105339Y84179D01*
X112671Y84179D01*
X112671Y83461D01*
X105339Y83461D01*
X105339Y83062D01*
X105635Y81577D01*
X106214Y80177D01*
X107056Y78917D01*
X108127Y77846D01*
X109387Y77004D01*
X110787Y76425D01*
X112272Y76129D01*
X112671Y76129D01*
X112671Y83461D01*
X113389Y83461D01*
X113389Y76129D01*
X113788Y76129D01*
X115273Y76425D01*
X116673Y77004D01*
X117933Y77846D01*
X119004Y78917D01*
X119846Y80177D01*
X120425Y81577D01*
X120721Y83062D01*
X120721Y83461D01*
X113389Y83461D01*
X113389Y84179D01*
X120721Y84179D01*
X120721Y84578D01*
X120425Y86063D01*
X119846Y87463D01*
X119004Y88723D01*
X117933Y89794D01*
X116673Y90636D01*
X115273Y91215D01*
X113788Y91511D01*
X113389Y91511D01*
X63859Y193399D02*
X63859Y200731D01*
X63859Y193399D02*
X63141Y193399D01*
X63141Y200731D01*
X62742Y200731D01*
X61257Y200435D01*
X59857Y199856D01*
X58597Y199014D01*
X57526Y197943D01*
X56684Y196683D01*
X56105Y195283D01*
X55809Y193798D01*
X55809Y193399D01*
X63141Y193399D01*
X63141Y192681D01*
X55809Y192681D01*
X55809Y192282D01*
X56105Y190797D01*
X56684Y189397D01*
X57526Y188137D01*
X58597Y187066D01*
X59857Y186224D01*
X61257Y185645D01*
X62742Y185349D01*
X63141Y185349D01*
X63141Y192681D01*
X63859Y192681D01*
X63859Y185349D01*
X64258Y185349D01*
X65743Y185645D01*
X67143Y186224D01*
X68403Y187066D01*
X69474Y188137D01*
X70316Y189397D01*
X70895Y190797D01*
X71191Y192282D01*
X71191Y192681D01*
X63859Y192681D01*
X63859Y193399D01*
X71191Y193399D01*
X71191Y193798D01*
X70895Y195283D01*
X70316Y196683D01*
X69474Y197943D01*
X68403Y199014D01*
X67143Y199856D01*
X65743Y200435D01*
X64258Y200731D01*
X63859Y200731D01*
X89259Y48331D02*
X89259Y40999D01*
X88541Y40999D01*
X88541Y48331D01*
X88142Y48331D01*
X86657Y48035D01*
X85257Y47456D01*
X83997Y46614D01*
X82926Y45543D01*
X82084Y44283D01*
X81505Y42883D01*
X81209Y41398D01*
X81209Y40999D01*
X88541Y40999D01*
X88541Y40281D01*
X81209Y40281D01*
X81209Y39882D01*
X81505Y38397D01*
X82084Y36997D01*
X82926Y35737D01*
X83997Y34666D01*
X85257Y33824D01*
X86657Y33245D01*
X88142Y32949D01*
X88541Y32949D01*
X88541Y40281D01*
X89259Y40281D01*
X89259Y32949D01*
X89658Y32949D01*
X91143Y33245D01*
X92543Y33824D01*
X93803Y34666D01*
X94874Y35737D01*
X95716Y36997D01*
X96295Y38397D01*
X96591Y39882D01*
X96591Y40281D01*
X89259Y40281D01*
X89259Y40999D01*
X96591Y40999D01*
X96591Y41398D01*
X96295Y42883D01*
X95716Y44283D01*
X94874Y45543D01*
X93803Y46614D01*
X92543Y47456D01*
X91143Y48035D01*
X89658Y48331D01*
X89259Y48331D01*
X992266Y251136D02*
X992266Y254324D01*
X991046Y257271D01*
X988791Y259526D01*
X985844Y260746D01*
X982656Y260746D01*
X979709Y259526D01*
X977454Y257271D01*
X976234Y254324D01*
X976234Y251136D01*
X977454Y248189D01*
X979709Y245934D01*
X982656Y244714D01*
X985844Y244714D01*
X988791Y245934D01*
X991046Y248189D01*
X992266Y251136D01*
X75289Y73731D02*
X75289Y66399D01*
X74571Y66399D01*
X74571Y73731D01*
X74172Y73731D01*
X72687Y73435D01*
X71287Y72856D01*
X70027Y72014D01*
X68956Y70943D01*
X68114Y69683D01*
X67535Y68283D01*
X67239Y66798D01*
X67239Y66399D01*
X74571Y66399D01*
X74571Y65681D01*
X67239Y65681D01*
X67239Y65282D01*
X67535Y63797D01*
X68114Y62397D01*
X68956Y61137D01*
X70027Y60066D01*
X71287Y59224D01*
X72687Y58645D01*
X74172Y58349D01*
X74571Y58349D01*
X74571Y65681D01*
X75289Y65681D01*
X75289Y58349D01*
X75688Y58349D01*
X77173Y58645D01*
X78573Y59224D01*
X79833Y60066D01*
X80904Y61137D01*
X81746Y62397D01*
X82325Y63797D01*
X82621Y65282D01*
X82621Y65681D01*
X75289Y65681D01*
X75289Y66399D01*
X82621Y66399D01*
X82621Y66798D01*
X82325Y68283D01*
X81746Y69683D01*
X80904Y70943D01*
X79833Y72014D01*
X78573Y72856D01*
X77173Y73435D01*
X75688Y73731D01*
X75289Y73731D01*
X62589Y216259D02*
X62589Y223591D01*
X62589Y216259D02*
X61871Y216259D01*
X61871Y223591D01*
X61472Y223591D01*
X59987Y223295D01*
X58587Y222716D01*
X57327Y221874D01*
X56256Y220803D01*
X55414Y219543D01*
X54835Y218143D01*
X54539Y216658D01*
X54539Y216259D01*
X61871Y216259D01*
X61871Y215541D01*
X54539Y215541D01*
X54539Y215142D01*
X54835Y213657D01*
X55414Y212257D01*
X56256Y210997D01*
X57327Y209926D01*
X58587Y209084D01*
X59987Y208505D01*
X61472Y208209D01*
X61871Y208209D01*
X61871Y215541D01*
X62589Y215541D01*
X62589Y208209D01*
X62988Y208209D01*
X64473Y208505D01*
X65873Y209084D01*
X67133Y209926D01*
X68204Y210997D01*
X69046Y212257D01*
X69625Y213657D01*
X69921Y215142D01*
X69921Y215541D01*
X62589Y215541D01*
X62589Y216259D01*
X69921Y216259D01*
X69921Y216658D01*
X69625Y218143D01*
X69046Y219543D01*
X68204Y220803D01*
X67133Y221874D01*
X65873Y222716D01*
X64473Y223295D01*
X62988Y223591D01*
X62589Y223591D01*
X755650Y272640D02*
X755650Y279056D01*
X755650Y272640D02*
X755650Y272640D01*
X755650Y279056D01*
X755018Y279056D01*
X753779Y278809D01*
X752611Y278326D01*
X751560Y277624D01*
X750666Y276730D01*
X749964Y275679D01*
X749481Y274511D01*
X749234Y273272D01*
X749234Y272640D01*
X755650Y272640D01*
X755650Y272640D01*
X749234Y272640D01*
X749234Y272008D01*
X749481Y270769D01*
X749964Y269601D01*
X750666Y268550D01*
X751560Y267656D01*
X752611Y266954D01*
X753779Y266471D01*
X755018Y266224D01*
X755650Y266224D01*
X755650Y272640D01*
X755650Y272640D01*
X755650Y266224D01*
X756282Y266224D01*
X757521Y266471D01*
X758689Y266954D01*
X759740Y267656D01*
X760634Y268550D01*
X761336Y269601D01*
X761819Y270769D01*
X762066Y272008D01*
X762066Y272640D01*
X755650Y272640D01*
X755650Y272640D01*
X762066Y272640D01*
X762066Y273272D01*
X761819Y274511D01*
X761336Y275679D01*
X760634Y276730D01*
X759740Y277624D01*
X758689Y278326D01*
X757521Y278809D01*
X756282Y279056D01*
X755650Y279056D01*
X113389Y116911D02*
X113389Y109579D01*
X112671Y109579D01*
X112671Y116911D01*
X112272Y116911D01*
X110787Y116615D01*
X109387Y116036D01*
X108127Y115194D01*
X107056Y114123D01*
X106214Y112863D01*
X105635Y111463D01*
X105339Y109978D01*
X105339Y109579D01*
X112671Y109579D01*
X112671Y108861D01*
X105339Y108861D01*
X105339Y108462D01*
X105635Y106977D01*
X106214Y105577D01*
X107056Y104317D01*
X108127Y103246D01*
X109387Y102404D01*
X110787Y101825D01*
X112272Y101529D01*
X112671Y101529D01*
X112671Y108861D01*
X113389Y108861D01*
X113389Y101529D01*
X113788Y101529D01*
X115273Y101825D01*
X116673Y102404D01*
X117933Y103246D01*
X119004Y104317D01*
X119846Y105577D01*
X120425Y106977D01*
X120721Y108462D01*
X120721Y108861D01*
X113389Y108861D01*
X113389Y109579D01*
X120721Y109579D01*
X120721Y109978D01*
X120425Y111463D01*
X119846Y112863D01*
X119004Y114123D01*
X117933Y115194D01*
X116673Y116036D01*
X115273Y116615D01*
X113788Y116911D01*
X113389Y116911D01*
X113389Y66111D02*
X113389Y58779D01*
X112671Y58779D01*
X112671Y66111D01*
X112272Y66111D01*
X110787Y65815D01*
X109387Y65236D01*
X108127Y64394D01*
X107056Y63323D01*
X106214Y62063D01*
X105635Y60663D01*
X105339Y59178D01*
X105339Y58779D01*
X112671Y58779D01*
X112671Y58061D01*
X105339Y58061D01*
X105339Y57662D01*
X105635Y56177D01*
X106214Y54777D01*
X107056Y53517D01*
X108127Y52446D01*
X109387Y51604D01*
X110787Y51025D01*
X112272Y50729D01*
X112671Y50729D01*
X112671Y58061D01*
X113389Y58061D01*
X113389Y50729D01*
X113788Y50729D01*
X115273Y51025D01*
X116673Y51604D01*
X117933Y52446D01*
X119004Y53517D01*
X119846Y54777D01*
X120425Y56177D01*
X120721Y57662D01*
X120721Y58061D01*
X113389Y58061D01*
X113389Y58779D01*
X120721Y58779D01*
X120721Y59178D01*
X120425Y60663D01*
X119846Y62063D01*
X119004Y63323D01*
X117933Y64394D01*
X116673Y65236D01*
X115273Y65815D01*
X113788Y66111D01*
X113389Y66111D01*
X707390Y272640D02*
X707390Y279056D01*
X707390Y272640D02*
X707390Y272640D01*
X707390Y279056D01*
X706758Y279056D01*
X705519Y278809D01*
X704351Y278326D01*
X703300Y277624D01*
X702406Y276730D01*
X701704Y275679D01*
X701221Y274511D01*
X700974Y273272D01*
X700974Y272640D01*
X707390Y272640D01*
X707390Y272640D01*
X700974Y272640D01*
X700974Y272008D01*
X701221Y270769D01*
X701704Y269601D01*
X702406Y268550D01*
X703300Y267656D01*
X704351Y266954D01*
X705519Y266471D01*
X706758Y266224D01*
X707390Y266224D01*
X707390Y272640D01*
X707390Y272640D01*
X707390Y266224D01*
X708022Y266224D01*
X709261Y266471D01*
X710429Y266954D01*
X711480Y267656D01*
X712374Y268550D01*
X713076Y269601D01*
X713559Y270769D01*
X713806Y272008D01*
X713806Y272640D01*
X707390Y272640D01*
X707390Y272640D01*
X713806Y272640D01*
X713806Y273272D01*
X713559Y274511D01*
X713076Y275679D01*
X712374Y276730D01*
X711480Y277624D01*
X710429Y278326D01*
X709261Y278809D01*
X708022Y279056D01*
X707390Y279056D01*
X857250Y285750D02*
X857250Y292166D01*
X857250Y285750D02*
X857250Y285750D01*
X857250Y292166D01*
X856618Y292166D01*
X855379Y291919D01*
X854211Y291436D01*
X853160Y290734D01*
X852266Y289840D01*
X851564Y288789D01*
X851081Y287621D01*
X850834Y286382D01*
X850834Y285750D01*
X857250Y285750D01*
X857250Y285750D01*
X850834Y285750D01*
X850834Y285118D01*
X851081Y283879D01*
X851564Y282711D01*
X852266Y281660D01*
X853160Y280766D01*
X854211Y280064D01*
X855379Y279581D01*
X856618Y279334D01*
X857250Y279334D01*
X857250Y285750D01*
X857250Y285750D01*
X857250Y279334D01*
X857882Y279334D01*
X859121Y279581D01*
X860289Y280064D01*
X861340Y280766D01*
X862234Y281660D01*
X862936Y282711D01*
X863419Y283879D01*
X863666Y285118D01*
X863666Y285750D01*
X857250Y285750D01*
X857250Y285750D01*
X863666Y285750D01*
X863666Y286382D01*
X863419Y287621D01*
X862936Y288789D01*
X862234Y289840D01*
X861340Y290734D01*
X860289Y291436D01*
X859121Y291919D01*
X857882Y292166D01*
X857250Y292166D01*
X215953Y8128D02*
X84836Y8128D01*
X106663Y16256D02*
X217964Y16256D01*
X99077Y24384D02*
X84836Y24384D01*
X114791Y24384D02*
X217964Y24384D01*
X107205Y32512D02*
X65956Y32512D01*
X122919Y32512D02*
X217964Y32512D01*
X63016Y40640D02*
X53816Y40640D01*
X63984Y40640D02*
X88541Y40640D01*
X89259Y40640D02*
X115333Y40640D01*
X131047Y40640D02*
X217964Y40640D01*
X123461Y48768D02*
X65956Y48768D01*
X137636Y48768D02*
X217964Y48768D01*
X105491Y56896D02*
X62431Y56896D01*
X112671Y56896D02*
X113389Y56896D01*
X120569Y56896D02*
X126524Y56896D01*
X137636Y56896D02*
X146131Y56896D01*
X153311Y56896D02*
X154029Y56896D01*
X161209Y56896D02*
X217964Y56896D01*
X67290Y65024D02*
X63976Y65024D01*
X74571Y65024D02*
X75289Y65024D01*
X82570Y65024D02*
X109070Y65024D01*
X112671Y65024D02*
X113389Y65024D01*
X116990Y65024D02*
X126524Y65024D01*
X137636Y65024D02*
X149710Y65024D01*
X153311Y65024D02*
X154029Y65024D01*
X157630Y65024D02*
X217964Y65024D01*
X72002Y73152D02*
X63976Y73152D01*
X74571Y73152D02*
X75289Y73152D01*
X77858Y73152D02*
X126524Y73152D01*
X137636Y73152D02*
X217964Y73152D01*
X105757Y81280D02*
X63976Y81280D01*
X112671Y81280D02*
X113389Y81280D01*
X120303Y81280D02*
X126524Y81280D01*
X137636Y81280D02*
X146397Y81280D01*
X153311Y81280D02*
X154029Y81280D01*
X160943Y81280D02*
X217964Y81280D01*
X107741Y89408D02*
X63976Y89408D01*
X112671Y89408D02*
X113389Y89408D01*
X118319Y89408D02*
X126524Y89408D01*
X137636Y89408D02*
X148381Y89408D01*
X153311Y89408D02*
X154029Y89408D01*
X158959Y89408D02*
X217964Y89408D01*
X126524Y97536D02*
X77216Y97536D01*
X137636Y97536D02*
X217964Y97536D01*
X106178Y105664D02*
X77216Y105664D01*
X112671Y105664D02*
X113389Y105664D01*
X119882Y105664D02*
X126524Y105664D01*
X137636Y105664D02*
X146818Y105664D01*
X153311Y105664D02*
X154029Y105664D01*
X160522Y105664D02*
X217964Y105664D01*
X106835Y113792D02*
X79319Y113792D01*
X112671Y113792D02*
X113389Y113792D01*
X119225Y113792D02*
X126524Y113792D01*
X137636Y113792D02*
X147475Y113792D01*
X153311Y113792D02*
X154029Y113792D01*
X159865Y113792D02*
X217964Y113792D01*
X126524Y121920D02*
X77216Y121920D01*
X137636Y121920D02*
X217964Y121920D01*
X126524Y130048D02*
X80740Y130048D01*
X137636Y130048D02*
X217964Y130048D01*
X126524Y138176D02*
X77216Y138176D01*
X137636Y138176D02*
X217964Y138176D01*
X126524Y146304D02*
X80335Y146304D01*
X137636Y146304D02*
X217964Y146304D01*
X126524Y154432D02*
X77216Y154432D01*
X137636Y154432D02*
X217964Y154432D01*
X126524Y162560D02*
X77216Y162560D01*
X137636Y162560D02*
X217964Y162560D01*
X126524Y170688D02*
X79319Y170688D01*
X137636Y170688D02*
X217964Y170688D01*
X126524Y178816D02*
X77216Y178816D01*
X137636Y178816D02*
X217964Y178816D01*
X58780Y186944D02*
X49731Y186944D01*
X63141Y186944D02*
X63859Y186944D01*
X68220Y186944D02*
X126524Y186944D01*
X137636Y186944D02*
X217964Y186944D01*
X937461Y186944D02*
X1047549Y186944D01*
X46395Y195072D02*
X45330Y195072D01*
X48388Y195072D02*
X56063Y195072D01*
X63141Y195072D02*
X63859Y195072D01*
X70937Y195072D02*
X126524Y195072D01*
X137636Y195072D02*
X192328Y195072D01*
X199031Y195072D02*
X199749Y195072D01*
X206452Y195072D02*
X217964Y195072D01*
X929333Y195072D02*
X1055677Y195072D01*
X126524Y203200D02*
X52927Y203200D01*
X137636Y203200D02*
X193593Y203200D01*
X199031Y203200D02*
X199749Y203200D01*
X205187Y203200D02*
X220525Y203200D01*
X921205Y203200D02*
X1063805Y203200D01*
X56035Y211328D02*
X52596Y211328D01*
X61871Y211328D02*
X62589Y211328D01*
X68425Y211328D02*
X126524Y211328D01*
X137636Y211328D02*
X148524Y211328D01*
X774009Y211328D02*
X784222Y211328D01*
X795658Y211328D02*
X923981Y211328D01*
X1017336Y211328D02*
X1071933Y211328D01*
X28320Y219456D02*
X17219Y219456D01*
X37616Y219456D02*
X38584Y219456D01*
X44636Y219456D02*
X55378Y219456D01*
X61871Y219456D02*
X62589Y219456D01*
X69082Y219456D02*
X126524Y219456D01*
X139683Y219456D02*
X218256Y219456D01*
X231324Y219456D02*
X769295Y219456D01*
X782137Y219456D02*
X786123Y219456D01*
X789940Y219456D02*
X789940Y219456D01*
X793757Y219456D02*
X915853Y219456D01*
X928695Y219456D02*
X931513Y219456D01*
X935387Y219456D02*
X956913Y219456D01*
X960787Y219456D02*
X977252Y219456D01*
X991248Y219456D02*
X1002652Y219456D01*
X1016648Y219456D02*
X1028052Y219456D01*
X1042048Y219456D02*
X1049934Y219456D01*
X1070966Y219456D02*
X1072674Y219456D01*
X132097Y227584D02*
X9091Y227584D01*
X147811Y227584D02*
X158992Y227584D01*
X166011Y227584D02*
X166729Y227584D01*
X173748Y227584D02*
X218256Y227584D01*
X224431Y227584D02*
X225149Y227584D01*
X231324Y227584D02*
X744154Y227584D01*
X750570Y227584D02*
X750570Y227584D01*
X756986Y227584D02*
X777423Y227584D01*
X920567Y227584D02*
X925434Y227584D01*
X941466Y227584D02*
X950834Y227584D01*
X966866Y227584D02*
X973734Y227584D01*
X994766Y227584D02*
X1008634Y227584D01*
X1010666Y227584D02*
X1024534Y227584D01*
X1045566Y227584D02*
X1049934Y227584D01*
X1070966Y227584D02*
X1072674Y227584D01*
X124729Y235712D02*
X26416Y235712D01*
X127911Y235712D02*
X128629Y235712D01*
X131811Y235712D02*
X140225Y235712D01*
X155939Y235712D02*
X161335Y235712D01*
X166011Y235712D02*
X166729Y235712D01*
X171405Y235712D02*
X701156Y235712D01*
X704850Y235712D02*
X704850Y235712D01*
X708544Y235712D02*
X913454Y235712D01*
X1049853Y235712D02*
X1049934Y235712D01*
X1070966Y235712D02*
X1072674Y235712D01*
X120681Y243840D02*
X46701Y243840D01*
X127911Y243840D02*
X128629Y243840D01*
X135859Y243840D02*
X148353Y243840D01*
X164067Y243840D02*
X699098Y243840D01*
X704850Y243840D02*
X704850Y243840D01*
X710602Y243840D02*
X912946Y243840D01*
X1066432Y243840D02*
X1072674Y243840D01*
X156481Y251968D02*
X54829Y251968D01*
X172195Y251968D02*
X845754Y251968D01*
X858586Y251968D02*
X925434Y251968D01*
X941466Y251968D02*
X948169Y251968D01*
X969366Y251968D02*
X976234Y251968D01*
X992266Y251968D02*
X1008634Y251968D01*
X1010666Y251968D02*
X1024534Y251968D01*
X1045566Y251968D02*
X1049934Y251968D01*
X1070966Y251968D02*
X1072674Y251968D01*
X164609Y260096D02*
X62957Y260096D01*
X826753Y260096D02*
X846089Y260096D01*
X858251Y260096D02*
X886477Y260096D01*
X966356Y260096D02*
X981086Y260096D01*
X987414Y260096D02*
X1002144Y260096D01*
X1008634Y260096D02*
X1010666Y260096D01*
X1017156Y260096D02*
X1027544Y260096D01*
X1042556Y260096D02*
X1052944Y260096D01*
X1067956Y260096D02*
X1072674Y260096D01*
X702732Y268224D02*
X71085Y268224D01*
X707390Y268224D02*
X707390Y268224D01*
X712048Y268224D02*
X750992Y268224D01*
X755650Y268224D02*
X755650Y268224D01*
X760308Y268224D02*
X819167Y268224D01*
X951213Y268224D02*
X1072674Y268224D01*
X702154Y276352D02*
X79213Y276352D01*
X707390Y276352D02*
X707390Y276352D01*
X712626Y276352D02*
X750414Y276352D01*
X755650Y276352D02*
X755650Y276352D01*
X760886Y276352D02*
X785528Y276352D01*
X796892Y276352D02*
X798228Y276352D01*
X809592Y276352D02*
X827295Y276352D01*
X885935Y276352D02*
X1065583Y276352D01*
X850961Y284480D02*
X807904Y284480D01*
X857250Y284480D02*
X857250Y284480D01*
X863539Y284480D02*
X902515Y284480D01*
X894387Y292608D02*
X796763Y292608D01*
X8128Y231394D02*
X8128Y228547D01*
X16256Y231394D02*
X16256Y220419D01*
X24384Y214606D02*
X24384Y231394D01*
X32512Y239554D02*
X32512Y220590D01*
X40640Y222363D02*
X40640Y239554D01*
X48768Y195452D02*
X48768Y187907D01*
X48768Y206526D02*
X48768Y207494D01*
X48768Y214532D02*
X48768Y245907D01*
X56896Y31274D02*
X56896Y27686D01*
X56896Y40156D02*
X56896Y41124D01*
X56896Y50006D02*
X56896Y51361D01*
X56896Y185166D02*
X56896Y189080D01*
X56896Y192681D02*
X56896Y193399D01*
X56896Y197000D02*
X56896Y210357D01*
X56896Y215541D02*
X56896Y216259D01*
X56896Y221443D02*
X56896Y254035D01*
X65024Y31687D02*
X65024Y27686D01*
X65024Y40156D02*
X65024Y41124D01*
X65024Y49593D02*
X65024Y91694D01*
X65024Y185166D02*
X65024Y185501D01*
X65024Y192681D02*
X65024Y193399D01*
X65024Y200579D02*
X65024Y208733D01*
X65024Y215541D02*
X65024Y216259D01*
X65024Y223067D02*
X65024Y262163D01*
X73152Y58552D02*
X73152Y27686D01*
X73152Y65681D02*
X73152Y66399D01*
X73152Y73528D02*
X73152Y91694D01*
X73152Y185166D02*
X73152Y270291D01*
X81280Y39526D02*
X81280Y27686D01*
X81280Y40281D02*
X81280Y40999D01*
X81280Y41754D02*
X81280Y61700D01*
X81280Y65681D02*
X81280Y66399D01*
X81280Y70380D02*
X81280Y278419D01*
X89408Y9684D02*
X89408Y4286D01*
X89408Y20796D02*
X89408Y32949D01*
X89408Y40281D02*
X89408Y40999D01*
X89408Y48331D02*
X89408Y280194D01*
X97536Y9684D02*
X97536Y4286D01*
X97536Y22843D02*
X97536Y280194D01*
X105664Y15257D02*
X105664Y4286D01*
X105664Y30971D02*
X105664Y56106D01*
X105664Y58061D02*
X105664Y58779D01*
X105664Y60734D02*
X105664Y81506D01*
X105664Y83461D02*
X105664Y84179D01*
X105664Y86134D02*
X105664Y106906D01*
X105664Y108861D02*
X105664Y109579D01*
X105664Y111534D02*
X105664Y280194D01*
X113792Y23385D02*
X113792Y4286D01*
X113792Y39099D02*
X113792Y50730D01*
X113792Y58061D02*
X113792Y58779D01*
X113792Y66110D02*
X113792Y76130D01*
X113792Y83461D02*
X113792Y84179D01*
X113792Y91510D02*
X113792Y101530D01*
X113792Y108861D02*
X113792Y109579D01*
X113792Y116910D02*
X113792Y280194D01*
X121920Y31513D02*
X121920Y4286D01*
X121920Y47227D02*
X121920Y238230D01*
X121920Y242211D02*
X121920Y242929D01*
X121920Y246910D02*
X121920Y280194D01*
X130048Y39641D02*
X130048Y4286D01*
X130048Y225535D02*
X130048Y235082D01*
X130048Y242211D02*
X130048Y242929D01*
X130048Y250058D02*
X130048Y280194D01*
X138176Y217949D02*
X138176Y4286D01*
X138176Y233663D02*
X138176Y280194D01*
X146304Y56106D02*
X146304Y4286D01*
X146304Y58061D02*
X146304Y58779D01*
X146304Y60734D02*
X146304Y81506D01*
X146304Y83461D02*
X146304Y84179D01*
X146304Y86134D02*
X146304Y106906D01*
X146304Y108861D02*
X146304Y109579D01*
X146304Y111534D02*
X146304Y226077D01*
X146304Y241791D02*
X146304Y280194D01*
X154432Y50730D02*
X154432Y4286D01*
X154432Y58061D02*
X154432Y58779D01*
X154432Y66110D02*
X154432Y76130D01*
X154432Y83461D02*
X154432Y84179D01*
X154432Y91510D02*
X154432Y101530D01*
X154432Y108861D02*
X154432Y109579D01*
X154432Y116910D02*
X154432Y205674D01*
X154432Y218506D02*
X154432Y234205D01*
X154432Y249919D02*
X154432Y280194D01*
X162560Y207550D02*
X162560Y4286D01*
X162560Y216630D02*
X162560Y223166D01*
X162560Y229511D02*
X162560Y230229D01*
X162560Y236574D02*
X162560Y242333D01*
X162560Y258047D02*
X162560Y280194D01*
X170688Y207550D02*
X170688Y4286D01*
X170688Y216630D02*
X170688Y223505D01*
X170688Y229511D02*
X170688Y230229D01*
X170688Y236235D02*
X170688Y250461D01*
X170688Y264636D02*
X170688Y280194D01*
X178816Y207550D02*
X178816Y4286D01*
X178816Y216630D02*
X178816Y253524D01*
X178816Y264636D02*
X178816Y280194D01*
X186944Y207550D02*
X186944Y4286D01*
X186944Y216630D02*
X186944Y253524D01*
X186944Y264636D02*
X186944Y280194D01*
X195072Y191755D02*
X195072Y4286D01*
X195072Y197761D02*
X195072Y198479D01*
X195072Y204485D02*
X195072Y207550D01*
X195072Y216630D02*
X195072Y253524D01*
X195072Y264636D02*
X195072Y280194D01*
X203200Y191416D02*
X203200Y4286D01*
X203200Y197761D02*
X203200Y198479D01*
X203200Y204824D02*
X203200Y207550D01*
X203200Y216630D02*
X203200Y253524D01*
X203200Y264636D02*
X203200Y280194D01*
X211328Y207550D02*
X211328Y4286D01*
X211328Y216630D02*
X211328Y253524D01*
X211328Y264636D02*
X211328Y280194D01*
X219456Y207550D02*
X219456Y202131D01*
X219456Y216630D02*
X219456Y217977D01*
X219456Y223161D02*
X219456Y223879D01*
X219456Y229063D02*
X219456Y253524D01*
X219456Y264636D02*
X219456Y280194D01*
X227584Y223879D02*
X227584Y223161D01*
X227584Y230687D02*
X227584Y253524D01*
X227584Y264636D02*
X227584Y280194D01*
X235712Y253524D02*
X235712Y216630D01*
X235712Y264636D02*
X235712Y280194D01*
X243840Y253524D02*
X243840Y216630D01*
X243840Y264636D02*
X243840Y280194D01*
X251968Y253524D02*
X251968Y216630D01*
X251968Y264636D02*
X251968Y280194D01*
X260096Y253524D02*
X260096Y216630D01*
X260096Y264636D02*
X260096Y280194D01*
X268224Y253524D02*
X268224Y216630D01*
X268224Y264636D02*
X268224Y280194D01*
X276352Y253524D02*
X276352Y216630D01*
X276352Y264636D02*
X276352Y280194D01*
X284480Y253524D02*
X284480Y216630D01*
X284480Y264636D02*
X284480Y280194D01*
X292608Y253524D02*
X292608Y216630D01*
X292608Y264636D02*
X292608Y280194D01*
X300736Y253524D02*
X300736Y216630D01*
X300736Y264636D02*
X300736Y280194D01*
X308864Y253524D02*
X308864Y216630D01*
X308864Y264636D02*
X308864Y280194D01*
X316992Y253524D02*
X316992Y216630D01*
X316992Y264636D02*
X316992Y280194D01*
X325120Y253524D02*
X325120Y216630D01*
X325120Y264636D02*
X325120Y280194D01*
X333248Y253524D02*
X333248Y216630D01*
X333248Y264636D02*
X333248Y280194D01*
X341376Y253524D02*
X341376Y216630D01*
X341376Y264636D02*
X341376Y280194D01*
X349504Y253524D02*
X349504Y216630D01*
X349504Y264636D02*
X349504Y280194D01*
X357632Y253524D02*
X357632Y216630D01*
X357632Y264636D02*
X357632Y280194D01*
X365760Y253524D02*
X365760Y216630D01*
X365760Y264636D02*
X365760Y280194D01*
X373888Y253524D02*
X373888Y216630D01*
X373888Y264636D02*
X373888Y280194D01*
X382016Y253524D02*
X382016Y216630D01*
X382016Y264636D02*
X382016Y280194D01*
X390144Y253524D02*
X390144Y216630D01*
X390144Y264636D02*
X390144Y280194D01*
X398272Y253524D02*
X398272Y216630D01*
X398272Y264636D02*
X398272Y280194D01*
X406400Y253524D02*
X406400Y216630D01*
X406400Y264636D02*
X406400Y280194D01*
X414528Y253524D02*
X414528Y216630D01*
X414528Y264636D02*
X414528Y280194D01*
X422656Y253524D02*
X422656Y216630D01*
X422656Y264636D02*
X422656Y280194D01*
X430784Y253524D02*
X430784Y216630D01*
X430784Y264636D02*
X430784Y280194D01*
X438912Y253524D02*
X438912Y216630D01*
X438912Y264636D02*
X438912Y280194D01*
X447040Y253524D02*
X447040Y216630D01*
X447040Y264636D02*
X447040Y280194D01*
X455168Y253524D02*
X455168Y216630D01*
X455168Y264636D02*
X455168Y280194D01*
X463296Y253524D02*
X463296Y216630D01*
X463296Y264636D02*
X463296Y280194D01*
X471424Y253524D02*
X471424Y216630D01*
X471424Y264636D02*
X471424Y280194D01*
X479552Y253524D02*
X479552Y216630D01*
X479552Y264636D02*
X479552Y280194D01*
X487680Y253524D02*
X487680Y216630D01*
X487680Y264636D02*
X487680Y280194D01*
X495808Y253524D02*
X495808Y216630D01*
X495808Y264636D02*
X495808Y280194D01*
X503936Y253524D02*
X503936Y216630D01*
X503936Y264636D02*
X503936Y280194D01*
X512064Y253524D02*
X512064Y216630D01*
X512064Y264636D02*
X512064Y280194D01*
X520192Y253524D02*
X520192Y216630D01*
X520192Y264636D02*
X520192Y280194D01*
X528320Y253524D02*
X528320Y216630D01*
X528320Y264636D02*
X528320Y280194D01*
X536448Y253524D02*
X536448Y216630D01*
X536448Y264636D02*
X536448Y280194D01*
X544576Y253524D02*
X544576Y216630D01*
X544576Y264636D02*
X544576Y280194D01*
X552704Y253524D02*
X552704Y216630D01*
X552704Y264636D02*
X552704Y280194D01*
X560832Y253524D02*
X560832Y216630D01*
X560832Y264636D02*
X560832Y280194D01*
X568960Y253524D02*
X568960Y216630D01*
X568960Y264636D02*
X568960Y280194D01*
X577088Y253524D02*
X577088Y216630D01*
X577088Y264636D02*
X577088Y280194D01*
X585216Y253524D02*
X585216Y216630D01*
X585216Y264636D02*
X585216Y280194D01*
X593344Y253524D02*
X593344Y216630D01*
X593344Y264636D02*
X593344Y280194D01*
X601472Y253524D02*
X601472Y216630D01*
X601472Y264636D02*
X601472Y280194D01*
X609600Y253524D02*
X609600Y216630D01*
X609600Y264636D02*
X609600Y280194D01*
X617728Y253524D02*
X617728Y216630D01*
X617728Y264636D02*
X617728Y280194D01*
X625856Y253524D02*
X625856Y216630D01*
X625856Y264636D02*
X625856Y280194D01*
X633984Y253524D02*
X633984Y216630D01*
X633984Y264636D02*
X633984Y280194D01*
X642112Y253524D02*
X642112Y216630D01*
X642112Y264636D02*
X642112Y280194D01*
X650240Y253524D02*
X650240Y216630D01*
X650240Y264636D02*
X650240Y280194D01*
X658368Y253524D02*
X658368Y216630D01*
X658368Y264636D02*
X658368Y280194D01*
X666496Y253524D02*
X666496Y216630D01*
X666496Y264636D02*
X666496Y280194D01*
X674624Y253524D02*
X674624Y216630D01*
X674624Y264636D02*
X674624Y280194D01*
X682752Y253524D02*
X682752Y216630D01*
X682752Y264636D02*
X682752Y280194D01*
X690880Y253524D02*
X690880Y216630D01*
X690880Y264636D02*
X690880Y280194D01*
X699008Y238298D02*
X699008Y216630D01*
X699008Y240960D02*
X699008Y240960D01*
X699008Y243622D02*
X699008Y253524D01*
X699008Y264636D02*
X699008Y280194D01*
X707136Y234962D02*
X707136Y216630D01*
X707136Y240960D02*
X707136Y240960D01*
X707136Y246958D02*
X707136Y253524D01*
X707136Y264636D02*
X707136Y266224D01*
X707136Y272640D02*
X707136Y272640D01*
X707136Y279056D02*
X707136Y280194D01*
X715264Y253524D02*
X715264Y216630D01*
X715264Y264636D02*
X715264Y280194D01*
X723392Y253524D02*
X723392Y216630D01*
X723392Y264636D02*
X723392Y280194D01*
X731520Y253524D02*
X731520Y216630D01*
X731520Y264636D02*
X731520Y280194D01*
X739648Y253524D02*
X739648Y216630D01*
X739648Y264636D02*
X739648Y280194D01*
X747776Y221203D02*
X747776Y216630D01*
X747776Y226990D02*
X747776Y226990D01*
X747776Y232777D02*
X747776Y253524D01*
X747776Y264636D02*
X747776Y280194D01*
X755904Y223424D02*
X755904Y216630D01*
X755904Y226990D02*
X755904Y226990D01*
X755904Y230556D02*
X755904Y252664D01*
X755904Y265496D02*
X755904Y266224D01*
X755904Y272640D02*
X755904Y272640D01*
X755904Y279056D02*
X755904Y280194D01*
X764032Y253524D02*
X764032Y216630D01*
X764032Y264636D02*
X764032Y280194D01*
X772160Y253524D02*
X772160Y222321D01*
X772160Y264636D02*
X772160Y280194D01*
X780288Y217607D02*
X780288Y210026D01*
X780288Y230449D02*
X780288Y253524D01*
X780288Y264636D02*
X780288Y280194D01*
X788416Y214290D02*
X788416Y214290D01*
X788416Y220529D02*
X788416Y221520D01*
X788416Y230600D02*
X788416Y253524D01*
X788416Y264636D02*
X788416Y273613D01*
X796544Y221520D02*
X796544Y210026D01*
X796544Y230600D02*
X796544Y253524D01*
X796544Y264636D02*
X796544Y275660D01*
X796544Y292827D02*
X796544Y292894D01*
X804672Y221520D02*
X804672Y210026D01*
X804672Y230600D02*
X804672Y253524D01*
X804672Y264636D02*
X804672Y272984D01*
X804672Y285816D02*
X804672Y292894D01*
X812800Y221520D02*
X812800Y210026D01*
X812800Y230600D02*
X812800Y253524D01*
X812800Y264636D02*
X812800Y292894D01*
X820928Y221520D02*
X820928Y210026D01*
X820928Y230600D02*
X820928Y254271D01*
X820928Y269985D02*
X820928Y292894D01*
X829056Y221520D02*
X829056Y210026D01*
X829056Y230600D02*
X829056Y262399D01*
X829056Y278113D02*
X829056Y292894D01*
X837184Y221520D02*
X837184Y210026D01*
X837184Y230600D02*
X837184Y267494D01*
X837184Y278606D02*
X837184Y292894D01*
X845312Y221520D02*
X845312Y210026D01*
X845312Y230600D02*
X845312Y267494D01*
X845312Y278606D02*
X845312Y292894D01*
X853440Y221520D02*
X853440Y210026D01*
X853440Y230600D02*
X853440Y245171D01*
X853440Y251460D02*
X853440Y251460D01*
X853440Y278606D02*
X853440Y280579D01*
X853440Y285750D02*
X853440Y285750D01*
X853440Y290921D02*
X853440Y292894D01*
X861568Y221520D02*
X861568Y210026D01*
X861568Y230600D02*
X861568Y267494D01*
X861568Y278606D02*
X861568Y280994D01*
X861568Y285750D02*
X861568Y285750D01*
X861568Y290506D02*
X861568Y292894D01*
X869696Y221520D02*
X869696Y210026D01*
X869696Y230600D02*
X869696Y267494D01*
X869696Y278606D02*
X869696Y292894D01*
X877824Y221520D02*
X877824Y210026D01*
X877824Y230600D02*
X877824Y267494D01*
X877824Y278606D02*
X877824Y292894D01*
X885952Y221520D02*
X885952Y210026D01*
X885952Y230600D02*
X885952Y260621D01*
X885952Y276335D02*
X885952Y292894D01*
X894080Y221520D02*
X894080Y210026D01*
X894080Y230600D02*
X894080Y258604D01*
X894080Y269716D02*
X894080Y292894D01*
X902208Y221520D02*
X902208Y210026D01*
X902208Y230600D02*
X902208Y258604D01*
X902208Y276216D02*
X902208Y284787D01*
X910336Y221520D02*
X910336Y210026D01*
X910336Y230600D02*
X910336Y258604D01*
X910336Y269716D02*
X910336Y276659D01*
X918464Y216845D02*
X918464Y205941D01*
X918464Y229687D02*
X918464Y233614D01*
X918464Y246446D02*
X918464Y258604D01*
X918464Y269716D02*
X918464Y276384D01*
X926592Y208717D02*
X926592Y197813D01*
X926592Y221559D02*
X926592Y222940D01*
X926592Y231720D02*
X926592Y235490D01*
X926592Y244570D02*
X926592Y248340D01*
X926592Y257120D02*
X926592Y258604D01*
X926592Y269716D02*
X926592Y276384D01*
X934720Y207550D02*
X934720Y189685D01*
X934720Y216630D02*
X934720Y219314D01*
X934720Y235346D02*
X934720Y235490D01*
X934720Y244570D02*
X934720Y244714D01*
X934720Y269716D02*
X934720Y276384D01*
X942848Y207550D02*
X942848Y185896D01*
X942848Y216630D02*
X942848Y235490D01*
X942848Y244570D02*
X942848Y258604D01*
X942848Y269716D02*
X942848Y276384D01*
X950976Y207550D02*
X950976Y185896D01*
X950976Y216630D02*
X950976Y225393D01*
X950976Y229267D02*
X950976Y235490D01*
X950976Y244570D02*
X950976Y245732D01*
X950976Y268461D02*
X950976Y276384D01*
X959104Y207550D02*
X959104Y185896D01*
X959104Y216630D02*
X959104Y219314D01*
X959104Y235346D02*
X959104Y235490D01*
X959104Y263358D02*
X959104Y276384D01*
X967232Y207550D02*
X967232Y185896D01*
X967232Y216630D02*
X967232Y235490D01*
X967232Y244570D02*
X967232Y246240D01*
X967232Y259220D02*
X967232Y276384D01*
X975360Y207550D02*
X975360Y185896D01*
X975360Y216630D02*
X975360Y221348D01*
X975360Y233312D02*
X975360Y235490D01*
X975360Y244570D02*
X975360Y276384D01*
X983488Y207550D02*
X983488Y185896D01*
X983488Y216630D02*
X983488Y216814D01*
X983488Y244570D02*
X983488Y244714D01*
X983488Y260746D02*
X983488Y276384D01*
X991616Y207550D02*
X991616Y185896D01*
X991616Y216630D02*
X991616Y219824D01*
X991616Y234836D02*
X991616Y235490D01*
X991616Y244570D02*
X991616Y249566D01*
X991616Y255894D02*
X991616Y276384D01*
X999744Y207550D02*
X999744Y185896D01*
X999744Y216630D02*
X999744Y223787D01*
X999744Y226314D02*
X999744Y228346D01*
X999744Y230873D02*
X999744Y235490D01*
X999744Y244570D02*
X999744Y249187D01*
X999744Y251714D02*
X999744Y253746D01*
X999744Y256273D02*
X999744Y276384D01*
X1007872Y206408D02*
X1007872Y185896D01*
X1007872Y226314D02*
X1007872Y228346D01*
X1007872Y251714D02*
X1007872Y253746D01*
X1007872Y263095D02*
X1007872Y276384D01*
X1016000Y208096D02*
X1016000Y185896D01*
X1016000Y216084D02*
X1016000Y218945D01*
X1016000Y226314D02*
X1016000Y228346D01*
X1016000Y251714D02*
X1016000Y253746D01*
X1016000Y261115D02*
X1016000Y276384D01*
X1024128Y235490D02*
X1024128Y185896D01*
X1024128Y244570D02*
X1024128Y276384D01*
X1032256Y217105D02*
X1032256Y185896D01*
X1032256Y262955D02*
X1032256Y276384D01*
X1040384Y218157D02*
X1040384Y185896D01*
X1040384Y261903D02*
X1040384Y276384D01*
X1048512Y235490D02*
X1048512Y187907D01*
X1048512Y247213D02*
X1048512Y276384D01*
X1056640Y216814D02*
X1056640Y196035D01*
X1056640Y237846D02*
X1056640Y241645D01*
X1056640Y262534D02*
X1056640Y276384D01*
X1064768Y216814D02*
X1064768Y204163D01*
X1064768Y237846D02*
X1064768Y243136D01*
X1064768Y262324D02*
X1064768Y276384D01*
D19*
X113030Y109220D03*
X113030Y83820D03*
X113030Y58420D03*
X153670Y58420D03*
X153670Y83820D03*
X153670Y109220D03*
X224790Y223520D03*
X199390Y198120D03*
X166370Y229870D03*
X128270Y242570D03*
D22*
X707390Y272640D03*
X704850Y240960D03*
X789940Y214290D03*
X852170Y251460D03*
X857250Y285750D03*
D15*
X50800Y110490D03*
X63500Y110490D03*
D16*
X50800Y110490D02*
X76200Y110490D01*
D15*
X50800Y173990D03*
X63500Y173990D03*
D16*
X50800Y173990D02*
X76200Y173990D01*
D22*
X1010920Y212090D03*
X154940Y212090D03*
D16*
X929640Y212090D02*
X1010920Y212090D01*
X768350Y212090D02*
X154940Y212090D01*
X768350Y212090D02*
X782320Y226060D01*
X915670Y226060D02*
X929640Y212090D01*
X915670Y226060D02*
X782320Y226060D01*
D15*
X50800Y148590D03*
X63500Y148590D03*
D16*
X50800Y148590D02*
X76200Y148590D01*
D15*
X50800Y129540D03*
X63500Y129540D03*
D16*
X50800Y129540D02*
X76200Y129540D01*
D15*
X50800Y15240D03*
X63500Y15240D03*
D20*
X50800Y15240D01*
D23*
X857250Y273050D02*
X881380Y273050D01*
X857250Y273050D02*
X852170Y273050D01*
X847090Y273050D01*
D22*
X852170Y262180D03*
D18*
X852170Y267970D02*
X852170Y273050D01*
X852170Y267970D02*
X847090Y273050D01*
X852170Y267970D02*
X852170Y262180D01*
X852170Y267970D02*
X857250Y273050D01*
D23*
X97790Y15240D02*
X63500Y15240D01*
X132080Y219710D02*
X171450Y259080D01*
X132080Y49530D02*
X97790Y15240D01*
X132080Y49530D02*
X132080Y219710D01*
X949960Y261620D02*
X958850Y252730D01*
X949960Y261620D02*
X948690Y262890D01*
X947420Y264160D01*
X890270Y264160D02*
X881380Y273050D01*
X906780Y264160D02*
X947420Y264160D01*
X906780Y264160D02*
X901700Y264160D01*
X896620Y264160D01*
X890270Y264160D01*
D16*
X948690Y262890D02*
X953770Y250190D01*
X961390Y257810D02*
X949960Y261620D01*
D22*
X755650Y259080D03*
D23*
X171450Y259080D01*
X831850Y273050D02*
X847090Y273050D01*
X831850Y273050D02*
X817880Y259080D01*
X755650Y259080D01*
D22*
X901700Y269800D03*
D16*
X901700Y269240D02*
X896620Y264160D01*
X901700Y269240D02*
X906780Y264160D01*
X901700Y264160D02*
X901700Y269800D01*
D21*
X0Y281940D02*
X-3620Y278320D01*
D15*
X0Y281940D03*
D16*
X25400Y281940D01*
D15*
X12700Y281940D03*
D16*
X1052830Y245110D02*
X1060450Y252730D01*
X1052830Y245110D02*
X1047750Y240030D01*
X918210Y240030D01*
D18*
X1052830Y245110D02*
X1062990Y247650D01*
X1052830Y245110D02*
X1055370Y255270D01*
D22*
X918210Y240030D03*
D15*
X0Y262890D03*
D22*
X803910Y279400D03*
D18*
X792480Y290830D01*
X78740Y290830D02*
X50800Y262890D01*
X0Y262890D01*
X78740Y290830D02*
X792480Y290830D01*
D15*
X0Y243840D03*
D22*
X791210Y279400D03*
D18*
X786130Y284480D01*
X40640Y243840D02*
X0Y243840D01*
X81280Y284480D02*
X786130Y284480D01*
X81280Y284480D02*
X40640Y243840D01*
D15*
X12700Y262890D03*
X12700Y243840D03*
M02*
