G04 EAGLE Gerber X2 export*
%TF.Part,Single*%
%TF.FileFunction,Other,top copper*%
%TF.FilePolarity,Positive*%
%TF.GenerationSoftware,Autodesk,EAGLE,9.0.0*%
%TF.CreationDate,2018-05-26T20:21:05Z*%
G75*
%MOMM*%
%FSLAX34Y34*%
%LPD*%
%AMOC8*
5,1,8,0,0,1.08239X$1,22.5*%
G01*
%ADD10C,0.203200*%
%ADD11C,0.000000*%
%ADD12R,0.900000X0.500000*%
%ADD13R,1.270000X1.524000*%
%ADD14R,1.300000X0.300000*%
%ADD15R,3.000000X2.500000*%
%ADD16R,1.350000X0.450000*%
%ADD17R,0.450000X1.350000*%
%ADD18R,0.500000X0.900000*%
%ADD19C,0.400000*%
%ADD20C,0.254000*%
%ADD21C,0.450000*%
%ADD22C,0.406400*%
%ADD23C,0.550000*%
%ADD24C,0.304800*%
%ADD25C,0.750000*%
%ADD26C,0.812800*%
%ADD27C,0.609600*%
%ADD28C,0.762000*%
%ADD29C,0.152400*%


D10*
X131016Y-76984D02*
X131016Y-66316D01*
X133979Y-66316D01*
X134086Y-66318D01*
X134193Y-66324D01*
X134299Y-66333D01*
X134405Y-66347D01*
X134511Y-66364D01*
X134616Y-66385D01*
X134720Y-66410D01*
X134823Y-66439D01*
X134925Y-66471D01*
X135026Y-66507D01*
X135125Y-66547D01*
X135223Y-66590D01*
X135319Y-66637D01*
X135414Y-66687D01*
X135507Y-66740D01*
X135597Y-66797D01*
X135686Y-66857D01*
X135772Y-66920D01*
X135856Y-66986D01*
X135938Y-67056D01*
X136017Y-67128D01*
X136093Y-67203D01*
X136167Y-67281D01*
X136237Y-67361D01*
X136305Y-67444D01*
X136370Y-67529D01*
X136431Y-67616D01*
X136490Y-67706D01*
X136545Y-67798D01*
X136597Y-67891D01*
X136645Y-67987D01*
X136690Y-68084D01*
X136732Y-68182D01*
X136769Y-68282D01*
X136804Y-68384D01*
X136834Y-68486D01*
X136861Y-68590D01*
X136884Y-68694D01*
X136903Y-68800D01*
X136918Y-68906D01*
X136930Y-69012D01*
X136938Y-69119D01*
X136942Y-69226D01*
X136942Y-69332D01*
X136938Y-69439D01*
X136930Y-69546D01*
X136918Y-69652D01*
X136903Y-69758D01*
X136884Y-69864D01*
X136861Y-69968D01*
X136834Y-70072D01*
X136804Y-70174D01*
X136769Y-70276D01*
X136732Y-70376D01*
X136690Y-70474D01*
X136645Y-70571D01*
X136597Y-70667D01*
X136545Y-70761D01*
X136490Y-70852D01*
X136431Y-70942D01*
X136370Y-71029D01*
X136305Y-71114D01*
X136237Y-71197D01*
X136167Y-71277D01*
X136093Y-71355D01*
X136017Y-71430D01*
X135938Y-71502D01*
X135856Y-71572D01*
X135772Y-71638D01*
X135686Y-71701D01*
X135597Y-71761D01*
X135507Y-71818D01*
X135414Y-71871D01*
X135319Y-71921D01*
X135223Y-71968D01*
X135125Y-72011D01*
X135026Y-72051D01*
X134925Y-72087D01*
X134823Y-72119D01*
X134720Y-72148D01*
X134616Y-72173D01*
X134511Y-72194D01*
X134405Y-72211D01*
X134299Y-72225D01*
X134193Y-72234D01*
X134086Y-72240D01*
X133979Y-72242D01*
X133979Y-72243D02*
X131016Y-72243D01*
X134572Y-72243D02*
X136943Y-76984D01*
X143055Y-72835D02*
X146019Y-74021D01*
X143055Y-72836D02*
X142984Y-72805D01*
X142914Y-72771D01*
X142846Y-72734D01*
X142781Y-72693D01*
X142717Y-72648D01*
X142656Y-72601D01*
X142597Y-72550D01*
X142540Y-72497D01*
X142487Y-72441D01*
X142436Y-72382D01*
X142389Y-72321D01*
X142344Y-72257D01*
X142303Y-72192D01*
X142265Y-72124D01*
X142231Y-72054D01*
X142200Y-71983D01*
X142173Y-71911D01*
X142150Y-71837D01*
X142130Y-71762D01*
X142114Y-71686D01*
X142102Y-71609D01*
X142094Y-71532D01*
X142090Y-71455D01*
X142089Y-71377D01*
X142093Y-71300D01*
X142100Y-71222D01*
X142112Y-71146D01*
X142127Y-71070D01*
X142146Y-70994D01*
X142169Y-70920D01*
X142195Y-70847D01*
X142225Y-70776D01*
X142259Y-70706D01*
X142296Y-70638D01*
X142337Y-70572D01*
X142381Y-70508D01*
X142428Y-70446D01*
X142478Y-70387D01*
X142531Y-70331D01*
X142587Y-70277D01*
X142645Y-70226D01*
X142706Y-70178D01*
X142769Y-70133D01*
X142835Y-70091D01*
X142902Y-70053D01*
X142972Y-70018D01*
X143043Y-69987D01*
X143115Y-69959D01*
X143189Y-69936D01*
X143264Y-69915D01*
X143339Y-69899D01*
X143416Y-69886D01*
X143493Y-69878D01*
X143570Y-69873D01*
X143648Y-69872D01*
X143810Y-69876D01*
X143972Y-69884D01*
X144133Y-69896D01*
X144294Y-69912D01*
X144455Y-69932D01*
X144615Y-69955D01*
X144774Y-69983D01*
X144933Y-70014D01*
X145091Y-70049D01*
X145248Y-70088D01*
X145404Y-70131D01*
X145559Y-70177D01*
X145713Y-70227D01*
X145866Y-70281D01*
X146017Y-70339D01*
X146167Y-70400D01*
X146315Y-70464D01*
X146019Y-74020D02*
X146090Y-74051D01*
X146160Y-74085D01*
X146228Y-74122D01*
X146293Y-74163D01*
X146357Y-74208D01*
X146418Y-74255D01*
X146477Y-74306D01*
X146534Y-74359D01*
X146587Y-74415D01*
X146638Y-74474D01*
X146685Y-74535D01*
X146730Y-74599D01*
X146771Y-74664D01*
X146809Y-74732D01*
X146843Y-74802D01*
X146874Y-74873D01*
X146901Y-74945D01*
X146924Y-75019D01*
X146944Y-75094D01*
X146960Y-75170D01*
X146972Y-75247D01*
X146980Y-75324D01*
X146984Y-75401D01*
X146985Y-75479D01*
X146981Y-75556D01*
X146974Y-75634D01*
X146962Y-75710D01*
X146947Y-75786D01*
X146928Y-75862D01*
X146905Y-75936D01*
X146879Y-76009D01*
X146849Y-76080D01*
X146815Y-76150D01*
X146778Y-76218D01*
X146737Y-76284D01*
X146693Y-76348D01*
X146646Y-76410D01*
X146596Y-76469D01*
X146543Y-76525D01*
X146487Y-76579D01*
X146429Y-76630D01*
X146368Y-76678D01*
X146305Y-76723D01*
X146239Y-76765D01*
X146172Y-76803D01*
X146102Y-76838D01*
X146032Y-76869D01*
X145959Y-76897D01*
X145885Y-76920D01*
X145810Y-76941D01*
X145735Y-76957D01*
X145658Y-76970D01*
X145581Y-76978D01*
X145504Y-76983D01*
X145426Y-76984D01*
X145425Y-76984D02*
X145188Y-76978D01*
X144950Y-76966D01*
X144713Y-76949D01*
X144477Y-76925D01*
X144241Y-76897D01*
X144005Y-76863D01*
X143771Y-76823D01*
X143538Y-76778D01*
X143305Y-76727D01*
X143074Y-76671D01*
X142845Y-76609D01*
X142617Y-76542D01*
X142390Y-76469D01*
X142166Y-76391D01*
X151002Y-69872D02*
X154558Y-69872D01*
X152188Y-66316D02*
X152188Y-75206D01*
X152190Y-75288D01*
X152196Y-75370D01*
X152205Y-75452D01*
X152218Y-75533D01*
X152235Y-75613D01*
X152256Y-75693D01*
X152280Y-75771D01*
X152308Y-75848D01*
X152339Y-75924D01*
X152374Y-75999D01*
X152413Y-76071D01*
X152454Y-76142D01*
X152499Y-76211D01*
X152547Y-76277D01*
X152598Y-76342D01*
X152652Y-76404D01*
X152709Y-76463D01*
X152768Y-76520D01*
X152830Y-76574D01*
X152895Y-76625D01*
X152961Y-76673D01*
X153030Y-76718D01*
X153101Y-76759D01*
X153173Y-76798D01*
X153248Y-76833D01*
X153324Y-76864D01*
X153401Y-76892D01*
X153479Y-76916D01*
X153559Y-76937D01*
X153639Y-76954D01*
X153720Y-76967D01*
X153802Y-76976D01*
X153884Y-76982D01*
X153966Y-76984D01*
X154558Y-76984D01*
X75757Y-76984D02*
X73387Y-76984D01*
X73292Y-76982D01*
X73196Y-76976D01*
X73101Y-76967D01*
X73007Y-76953D01*
X72913Y-76936D01*
X72820Y-76915D01*
X72727Y-76890D01*
X72636Y-76862D01*
X72546Y-76830D01*
X72458Y-76794D01*
X72371Y-76755D01*
X72285Y-76712D01*
X72202Y-76666D01*
X72120Y-76617D01*
X72040Y-76564D01*
X71963Y-76508D01*
X71887Y-76450D01*
X71815Y-76388D01*
X71745Y-76323D01*
X71677Y-76255D01*
X71612Y-76185D01*
X71550Y-76113D01*
X71492Y-76037D01*
X71436Y-75960D01*
X71383Y-75880D01*
X71334Y-75799D01*
X71288Y-75715D01*
X71245Y-75629D01*
X71206Y-75542D01*
X71170Y-75454D01*
X71138Y-75364D01*
X71110Y-75273D01*
X71085Y-75180D01*
X71064Y-75087D01*
X71047Y-74993D01*
X71033Y-74899D01*
X71024Y-74804D01*
X71018Y-74709D01*
X71016Y-74613D01*
X71016Y-68687D01*
X71018Y-68592D01*
X71024Y-68496D01*
X71033Y-68401D01*
X71047Y-68307D01*
X71064Y-68213D01*
X71085Y-68120D01*
X71110Y-68027D01*
X71138Y-67936D01*
X71170Y-67846D01*
X71206Y-67758D01*
X71245Y-67671D01*
X71288Y-67585D01*
X71334Y-67502D01*
X71383Y-67420D01*
X71436Y-67340D01*
X71492Y-67263D01*
X71550Y-67187D01*
X71612Y-67115D01*
X71677Y-67045D01*
X71745Y-66977D01*
X71815Y-66912D01*
X71887Y-66850D01*
X71963Y-66792D01*
X72040Y-66736D01*
X72120Y-66683D01*
X72201Y-66634D01*
X72285Y-66588D01*
X72371Y-66545D01*
X72458Y-66506D01*
X72546Y-66470D01*
X72636Y-66438D01*
X72727Y-66410D01*
X72820Y-66385D01*
X72913Y-66364D01*
X73007Y-66347D01*
X73101Y-66333D01*
X73196Y-66324D01*
X73291Y-66318D01*
X73387Y-66316D01*
X75757Y-66316D01*
X79352Y-69872D02*
X82908Y-69872D01*
X80537Y-66316D02*
X80537Y-75206D01*
X80539Y-75288D01*
X80545Y-75370D01*
X80554Y-75452D01*
X80567Y-75533D01*
X80584Y-75613D01*
X80605Y-75693D01*
X80629Y-75771D01*
X80657Y-75848D01*
X80688Y-75924D01*
X80723Y-75999D01*
X80762Y-76071D01*
X80803Y-76142D01*
X80848Y-76211D01*
X80896Y-76277D01*
X80947Y-76342D01*
X81001Y-76404D01*
X81058Y-76463D01*
X81117Y-76520D01*
X81179Y-76574D01*
X81244Y-76625D01*
X81310Y-76673D01*
X81379Y-76718D01*
X81450Y-76759D01*
X81522Y-76798D01*
X81597Y-76833D01*
X81673Y-76864D01*
X81750Y-76892D01*
X81828Y-76916D01*
X81908Y-76937D01*
X81988Y-76954D01*
X82069Y-76967D01*
X82151Y-76976D01*
X82233Y-76982D01*
X82315Y-76984D01*
X82908Y-76984D01*
X88141Y-76984D02*
X88141Y-69872D01*
X91697Y-69872D01*
X91697Y-71057D01*
X95695Y-75206D02*
X95695Y-66316D01*
X95695Y-75206D02*
X95697Y-75288D01*
X95703Y-75370D01*
X95712Y-75452D01*
X95725Y-75533D01*
X95742Y-75613D01*
X95763Y-75693D01*
X95787Y-75771D01*
X95815Y-75848D01*
X95846Y-75924D01*
X95881Y-75999D01*
X95920Y-76071D01*
X95961Y-76142D01*
X96006Y-76211D01*
X96054Y-76277D01*
X96105Y-76342D01*
X96159Y-76404D01*
X96216Y-76463D01*
X96275Y-76520D01*
X96337Y-76574D01*
X96402Y-76625D01*
X96468Y-76673D01*
X96537Y-76718D01*
X96608Y-76759D01*
X96680Y-76798D01*
X96755Y-76833D01*
X96831Y-76864D01*
X96908Y-76892D01*
X96986Y-76916D01*
X97066Y-76937D01*
X97146Y-76954D01*
X97227Y-76967D01*
X97309Y-76976D01*
X97391Y-76982D01*
X97473Y-76984D01*
X97979Y127516D02*
X95016Y127516D01*
X97979Y127516D02*
X98086Y127518D01*
X98193Y127524D01*
X98299Y127533D01*
X98405Y127547D01*
X98511Y127564D01*
X98616Y127585D01*
X98720Y127610D01*
X98823Y127639D01*
X98925Y127671D01*
X99026Y127707D01*
X99125Y127747D01*
X99223Y127790D01*
X99319Y127837D01*
X99414Y127887D01*
X99507Y127940D01*
X99597Y127997D01*
X99686Y128057D01*
X99772Y128120D01*
X99856Y128186D01*
X99938Y128256D01*
X100017Y128328D01*
X100093Y128403D01*
X100167Y128481D01*
X100237Y128561D01*
X100305Y128644D01*
X100370Y128729D01*
X100431Y128816D01*
X100490Y128906D01*
X100545Y128997D01*
X100597Y129091D01*
X100645Y129187D01*
X100690Y129284D01*
X100732Y129382D01*
X100769Y129482D01*
X100804Y129584D01*
X100834Y129686D01*
X100861Y129790D01*
X100884Y129894D01*
X100903Y130000D01*
X100918Y130106D01*
X100930Y130212D01*
X100938Y130319D01*
X100942Y130426D01*
X100942Y130532D01*
X100938Y130639D01*
X100930Y130746D01*
X100918Y130852D01*
X100903Y130958D01*
X100884Y131064D01*
X100861Y131168D01*
X100834Y131272D01*
X100804Y131374D01*
X100769Y131476D01*
X100732Y131576D01*
X100690Y131674D01*
X100645Y131771D01*
X100597Y131867D01*
X100545Y131960D01*
X100490Y132052D01*
X100431Y132142D01*
X100370Y132229D01*
X100305Y132314D01*
X100237Y132397D01*
X100167Y132477D01*
X100093Y132555D01*
X100017Y132630D01*
X99938Y132702D01*
X99856Y132772D01*
X99772Y132838D01*
X99686Y132901D01*
X99597Y132961D01*
X99507Y133018D01*
X99414Y133071D01*
X99319Y133121D01*
X99223Y133168D01*
X99125Y133211D01*
X99026Y133251D01*
X98925Y133287D01*
X98823Y133319D01*
X98720Y133348D01*
X98616Y133373D01*
X98511Y133394D01*
X98405Y133411D01*
X98299Y133425D01*
X98193Y133434D01*
X98086Y133440D01*
X97979Y133442D01*
X98572Y138184D02*
X95016Y138184D01*
X98572Y138184D02*
X98669Y138182D01*
X98765Y138176D01*
X98861Y138166D01*
X98957Y138152D01*
X99052Y138135D01*
X99147Y138113D01*
X99240Y138088D01*
X99332Y138059D01*
X99423Y138026D01*
X99513Y137989D01*
X99601Y137949D01*
X99687Y137905D01*
X99771Y137858D01*
X99854Y137808D01*
X99934Y137754D01*
X100012Y137696D01*
X100088Y137636D01*
X100161Y137573D01*
X100231Y137507D01*
X100299Y137437D01*
X100364Y137366D01*
X100426Y137291D01*
X100484Y137214D01*
X100540Y137135D01*
X100592Y137054D01*
X100641Y136970D01*
X100687Y136885D01*
X100729Y136798D01*
X100767Y136709D01*
X100802Y136619D01*
X100833Y136527D01*
X100860Y136434D01*
X100884Y136341D01*
X100903Y136246D01*
X100919Y136150D01*
X100931Y136054D01*
X100939Y135958D01*
X100943Y135861D01*
X100943Y135765D01*
X100939Y135668D01*
X100931Y135572D01*
X100919Y135476D01*
X100903Y135380D01*
X100884Y135285D01*
X100860Y135192D01*
X100833Y135099D01*
X100802Y135007D01*
X100767Y134917D01*
X100729Y134828D01*
X100687Y134741D01*
X100641Y134656D01*
X100592Y134572D01*
X100540Y134491D01*
X100484Y134412D01*
X100426Y134335D01*
X100364Y134260D01*
X100299Y134189D01*
X100231Y134119D01*
X100161Y134053D01*
X100088Y133990D01*
X100012Y133930D01*
X99934Y133872D01*
X99854Y133818D01*
X99771Y133768D01*
X99687Y133721D01*
X99601Y133677D01*
X99513Y133637D01*
X99423Y133600D01*
X99332Y133567D01*
X99240Y133538D01*
X99147Y133513D01*
X99052Y133491D01*
X98957Y133474D01*
X98861Y133460D01*
X98765Y133450D01*
X98669Y133444D01*
X98572Y133442D01*
X98572Y133443D02*
X96201Y133443D01*
X105684Y128109D02*
X105684Y127516D01*
X105684Y128109D02*
X106277Y128109D01*
X106277Y127516D01*
X105684Y127516D01*
X111018Y127516D02*
X113981Y127516D01*
X114088Y127518D01*
X114195Y127524D01*
X114301Y127533D01*
X114407Y127547D01*
X114513Y127564D01*
X114618Y127585D01*
X114722Y127610D01*
X114825Y127639D01*
X114927Y127671D01*
X115028Y127707D01*
X115127Y127747D01*
X115225Y127790D01*
X115321Y127837D01*
X115416Y127887D01*
X115509Y127940D01*
X115599Y127997D01*
X115688Y128057D01*
X115774Y128120D01*
X115858Y128186D01*
X115940Y128256D01*
X116019Y128328D01*
X116095Y128403D01*
X116169Y128481D01*
X116239Y128561D01*
X116307Y128644D01*
X116372Y128729D01*
X116433Y128816D01*
X116492Y128906D01*
X116547Y128997D01*
X116599Y129091D01*
X116647Y129187D01*
X116692Y129284D01*
X116734Y129382D01*
X116771Y129482D01*
X116806Y129584D01*
X116836Y129686D01*
X116863Y129790D01*
X116886Y129894D01*
X116905Y130000D01*
X116920Y130106D01*
X116932Y130212D01*
X116940Y130319D01*
X116944Y130426D01*
X116944Y130532D01*
X116940Y130639D01*
X116932Y130746D01*
X116920Y130852D01*
X116905Y130958D01*
X116886Y131064D01*
X116863Y131168D01*
X116836Y131272D01*
X116806Y131374D01*
X116771Y131476D01*
X116734Y131576D01*
X116692Y131674D01*
X116647Y131771D01*
X116599Y131867D01*
X116547Y131960D01*
X116492Y132052D01*
X116433Y132142D01*
X116372Y132229D01*
X116307Y132314D01*
X116239Y132397D01*
X116169Y132477D01*
X116095Y132555D01*
X116019Y132630D01*
X115940Y132702D01*
X115858Y132772D01*
X115774Y132838D01*
X115688Y132901D01*
X115599Y132961D01*
X115509Y133018D01*
X115416Y133071D01*
X115321Y133121D01*
X115225Y133168D01*
X115127Y133211D01*
X115028Y133251D01*
X114927Y133287D01*
X114825Y133319D01*
X114722Y133348D01*
X114618Y133373D01*
X114513Y133394D01*
X114407Y133411D01*
X114301Y133425D01*
X114195Y133434D01*
X114088Y133440D01*
X113981Y133442D01*
X114574Y138184D02*
X111018Y138184D01*
X114574Y138184D02*
X114671Y138182D01*
X114767Y138176D01*
X114863Y138166D01*
X114959Y138152D01*
X115054Y138135D01*
X115149Y138113D01*
X115242Y138088D01*
X115334Y138059D01*
X115425Y138026D01*
X115515Y137989D01*
X115603Y137949D01*
X115689Y137905D01*
X115773Y137858D01*
X115856Y137808D01*
X115936Y137754D01*
X116014Y137696D01*
X116090Y137636D01*
X116163Y137573D01*
X116233Y137507D01*
X116301Y137437D01*
X116366Y137366D01*
X116428Y137291D01*
X116486Y137214D01*
X116542Y137135D01*
X116594Y137054D01*
X116643Y136970D01*
X116689Y136885D01*
X116731Y136798D01*
X116769Y136709D01*
X116804Y136619D01*
X116835Y136527D01*
X116862Y136434D01*
X116886Y136341D01*
X116905Y136246D01*
X116921Y136150D01*
X116933Y136054D01*
X116941Y135958D01*
X116945Y135861D01*
X116945Y135765D01*
X116941Y135668D01*
X116933Y135572D01*
X116921Y135476D01*
X116905Y135380D01*
X116886Y135285D01*
X116862Y135192D01*
X116835Y135099D01*
X116804Y135007D01*
X116769Y134917D01*
X116731Y134828D01*
X116689Y134741D01*
X116643Y134656D01*
X116594Y134572D01*
X116542Y134491D01*
X116486Y134412D01*
X116428Y134335D01*
X116366Y134260D01*
X116301Y134189D01*
X116233Y134119D01*
X116163Y134053D01*
X116090Y133990D01*
X116014Y133930D01*
X115936Y133872D01*
X115856Y133818D01*
X115773Y133768D01*
X115689Y133721D01*
X115603Y133677D01*
X115515Y133637D01*
X115425Y133600D01*
X115334Y133567D01*
X115242Y133538D01*
X115149Y133513D01*
X115054Y133491D01*
X114959Y133474D01*
X114863Y133460D01*
X114767Y133450D01*
X114671Y133444D01*
X114574Y133442D01*
X114574Y133443D02*
X112203Y133443D01*
X121855Y138184D02*
X125411Y127516D01*
X128967Y138184D01*
D11*
X0Y-36000D02*
X3000Y-39000D01*
X32500Y-39000D01*
X39000Y-45500D01*
X39000Y-78000D01*
X45500Y-84500D01*
X175500Y-84500D01*
X182000Y-78000D01*
X182000Y139000D01*
X175500Y145500D01*
X93500Y145500D01*
X87000Y152000D01*
X87000Y191500D01*
X84000Y194500D01*
X75000Y194500D01*
X72000Y191500D01*
X72000Y127000D01*
X65500Y120500D01*
X7000Y120500D01*
X0Y113500D01*
X0Y107500D01*
X0Y94000D02*
X0Y75000D01*
X1000Y74000D01*
X4000Y74000D01*
X5000Y73000D01*
X5000Y70000D02*
X4000Y69000D01*
X1000Y69000D01*
X0Y68000D01*
X5000Y70000D02*
X5000Y73000D01*
X0Y68000D02*
X0Y42500D01*
X1000Y41500D01*
X4000Y41500D01*
X5000Y40500D01*
X5000Y37500D02*
X4000Y36500D01*
X1000Y36500D01*
X0Y35500D01*
X5000Y37500D02*
X5000Y40500D01*
X0Y42000D02*
X0Y35500D01*
X0Y16500D02*
X1000Y15500D01*
X4000Y15500D01*
X5000Y14500D01*
X5000Y11500D02*
X4000Y10500D01*
X1000Y10500D01*
X0Y9500D01*
X5000Y11500D02*
X5000Y14500D01*
X0Y-16500D02*
X0Y-36000D01*
X0Y-9500D02*
X0Y9500D01*
X0Y16500D02*
X0Y35500D01*
X0Y-9500D02*
X1000Y-10500D01*
X4000Y-10500D02*
X5000Y-11500D01*
X4000Y-10500D02*
X1000Y-10500D01*
X5000Y-11500D02*
X5000Y-14500D01*
X4000Y-15500D01*
X1000Y-15500D01*
X0Y-16500D01*
X1000Y106500D02*
X0Y107500D01*
X1000Y106500D02*
X4000Y106500D01*
X5000Y105500D01*
X5000Y96000D01*
X4000Y95000D01*
X1000Y95000D01*
X0Y94000D01*
D10*
X156316Y7993D02*
X166984Y7993D01*
X156316Y7993D02*
X156316Y10956D01*
X156318Y11063D01*
X156324Y11170D01*
X156333Y11276D01*
X156347Y11382D01*
X156364Y11488D01*
X156385Y11593D01*
X156410Y11697D01*
X156439Y11800D01*
X156471Y11902D01*
X156507Y12003D01*
X156547Y12102D01*
X156590Y12200D01*
X156637Y12296D01*
X156687Y12391D01*
X156740Y12484D01*
X156797Y12574D01*
X156857Y12663D01*
X156920Y12749D01*
X156986Y12833D01*
X157056Y12915D01*
X157128Y12994D01*
X157203Y13070D01*
X157281Y13144D01*
X157361Y13214D01*
X157444Y13282D01*
X157529Y13347D01*
X157616Y13408D01*
X157706Y13467D01*
X157798Y13522D01*
X157891Y13574D01*
X157987Y13622D01*
X158084Y13667D01*
X158182Y13709D01*
X158282Y13746D01*
X158384Y13781D01*
X158486Y13811D01*
X158590Y13838D01*
X158694Y13861D01*
X158800Y13880D01*
X158906Y13895D01*
X159012Y13907D01*
X159119Y13915D01*
X159226Y13919D01*
X159332Y13919D01*
X159439Y13915D01*
X159546Y13907D01*
X159652Y13895D01*
X159758Y13880D01*
X159864Y13861D01*
X159968Y13838D01*
X160072Y13811D01*
X160174Y13781D01*
X160276Y13746D01*
X160376Y13709D01*
X160474Y13667D01*
X160571Y13622D01*
X160667Y13574D01*
X160761Y13522D01*
X160852Y13467D01*
X160942Y13408D01*
X161029Y13347D01*
X161114Y13282D01*
X161197Y13214D01*
X161277Y13144D01*
X161355Y13070D01*
X161430Y12994D01*
X161502Y12915D01*
X161572Y12833D01*
X161638Y12749D01*
X161701Y12663D01*
X161761Y12574D01*
X161818Y12484D01*
X161871Y12391D01*
X161921Y12296D01*
X161968Y12200D01*
X162011Y12102D01*
X162051Y12003D01*
X162087Y11902D01*
X162119Y11800D01*
X162148Y11697D01*
X162173Y11593D01*
X162194Y11488D01*
X162211Y11382D01*
X162225Y11276D01*
X162234Y11170D01*
X162240Y11063D01*
X162242Y10956D01*
X162243Y10956D02*
X162243Y7993D01*
X159872Y18322D02*
X166984Y18322D01*
X156909Y18026D02*
X156316Y18026D01*
X156316Y18618D01*
X156909Y18618D01*
X156909Y18026D01*
X159872Y23571D02*
X166984Y23571D01*
X159872Y23571D02*
X159872Y26535D01*
X159874Y26617D01*
X159880Y26699D01*
X159889Y26781D01*
X159902Y26862D01*
X159919Y26942D01*
X159940Y27022D01*
X159964Y27100D01*
X159992Y27177D01*
X160023Y27253D01*
X160058Y27328D01*
X160097Y27400D01*
X160138Y27471D01*
X160183Y27540D01*
X160231Y27606D01*
X160282Y27671D01*
X160336Y27733D01*
X160393Y27792D01*
X160452Y27849D01*
X160514Y27903D01*
X160579Y27954D01*
X160645Y28002D01*
X160714Y28047D01*
X160785Y28088D01*
X160857Y28127D01*
X160932Y28162D01*
X161008Y28193D01*
X161085Y28221D01*
X161163Y28245D01*
X161243Y28266D01*
X161323Y28283D01*
X161404Y28296D01*
X161486Y28305D01*
X161568Y28311D01*
X161650Y28313D01*
X166984Y28313D01*
X164613Y33858D02*
X162243Y33858D01*
X162146Y33860D01*
X162050Y33866D01*
X161954Y33876D01*
X161858Y33890D01*
X161763Y33907D01*
X161668Y33929D01*
X161575Y33954D01*
X161483Y33983D01*
X161392Y34016D01*
X161302Y34053D01*
X161214Y34093D01*
X161128Y34137D01*
X161044Y34184D01*
X160961Y34234D01*
X160881Y34288D01*
X160803Y34346D01*
X160727Y34406D01*
X160654Y34469D01*
X160584Y34535D01*
X160516Y34605D01*
X160451Y34676D01*
X160389Y34751D01*
X160331Y34828D01*
X160275Y34907D01*
X160223Y34988D01*
X160174Y35072D01*
X160128Y35157D01*
X160086Y35244D01*
X160048Y35333D01*
X160013Y35423D01*
X159982Y35515D01*
X159955Y35608D01*
X159931Y35701D01*
X159912Y35796D01*
X159896Y35892D01*
X159884Y35988D01*
X159876Y36084D01*
X159872Y36181D01*
X159872Y36277D01*
X159876Y36374D01*
X159884Y36470D01*
X159896Y36566D01*
X159912Y36662D01*
X159931Y36757D01*
X159955Y36850D01*
X159982Y36943D01*
X160013Y37035D01*
X160048Y37125D01*
X160086Y37214D01*
X160128Y37301D01*
X160174Y37386D01*
X160223Y37470D01*
X160275Y37551D01*
X160331Y37630D01*
X160389Y37707D01*
X160451Y37782D01*
X160516Y37853D01*
X160584Y37923D01*
X160654Y37989D01*
X160727Y38052D01*
X160803Y38112D01*
X160881Y38170D01*
X160961Y38224D01*
X161044Y38274D01*
X161128Y38321D01*
X161214Y38365D01*
X161302Y38405D01*
X161392Y38442D01*
X161483Y38475D01*
X161575Y38504D01*
X161668Y38529D01*
X161763Y38551D01*
X161858Y38568D01*
X161954Y38582D01*
X162050Y38592D01*
X162146Y38598D01*
X162243Y38600D01*
X164613Y38600D01*
X164710Y38598D01*
X164806Y38592D01*
X164902Y38582D01*
X164998Y38568D01*
X165093Y38551D01*
X165188Y38529D01*
X165281Y38504D01*
X165373Y38475D01*
X165464Y38442D01*
X165554Y38405D01*
X165642Y38365D01*
X165728Y38321D01*
X165812Y38274D01*
X165895Y38224D01*
X165975Y38170D01*
X166053Y38112D01*
X166129Y38052D01*
X166202Y37989D01*
X166272Y37923D01*
X166340Y37853D01*
X166405Y37782D01*
X166467Y37707D01*
X166525Y37630D01*
X166581Y37551D01*
X166633Y37470D01*
X166682Y37386D01*
X166728Y37301D01*
X166770Y37214D01*
X166808Y37125D01*
X166843Y37035D01*
X166874Y36943D01*
X166901Y36850D01*
X166925Y36757D01*
X166944Y36662D01*
X166960Y36566D01*
X166972Y36470D01*
X166980Y36374D01*
X166984Y36277D01*
X166984Y36181D01*
X166980Y36084D01*
X166972Y35988D01*
X166960Y35892D01*
X166944Y35796D01*
X166925Y35701D01*
X166901Y35608D01*
X166874Y35515D01*
X166843Y35423D01*
X166808Y35333D01*
X166770Y35244D01*
X166728Y35157D01*
X166682Y35072D01*
X166633Y34988D01*
X166581Y34907D01*
X166525Y34828D01*
X166467Y34751D01*
X166405Y34676D01*
X166340Y34605D01*
X166272Y34535D01*
X166202Y34469D01*
X166129Y34406D01*
X166053Y34346D01*
X165975Y34288D01*
X165895Y34234D01*
X165812Y34184D01*
X165728Y34137D01*
X165642Y34093D01*
X165554Y34053D01*
X165464Y34016D01*
X165373Y33983D01*
X165281Y33954D01*
X165188Y33929D01*
X165093Y33907D01*
X164998Y33890D01*
X164902Y33876D01*
X164806Y33866D01*
X164710Y33860D01*
X164613Y33858D01*
X165206Y44145D02*
X159872Y44145D01*
X165206Y44145D02*
X165288Y44147D01*
X165370Y44153D01*
X165452Y44162D01*
X165533Y44175D01*
X165613Y44192D01*
X165693Y44213D01*
X165771Y44237D01*
X165848Y44265D01*
X165924Y44296D01*
X165999Y44331D01*
X166071Y44370D01*
X166142Y44411D01*
X166211Y44456D01*
X166277Y44504D01*
X166342Y44555D01*
X166404Y44609D01*
X166463Y44666D01*
X166520Y44725D01*
X166574Y44787D01*
X166625Y44852D01*
X166673Y44918D01*
X166718Y44987D01*
X166759Y45058D01*
X166798Y45130D01*
X166833Y45205D01*
X166864Y45281D01*
X166892Y45358D01*
X166916Y45436D01*
X166937Y45516D01*
X166954Y45596D01*
X166967Y45677D01*
X166976Y45759D01*
X166982Y45841D01*
X166984Y45923D01*
X166984Y48887D01*
X159872Y48887D01*
X159872Y53362D02*
X159872Y56918D01*
X156316Y54548D02*
X165206Y54548D01*
X165288Y54550D01*
X165370Y54556D01*
X165452Y54565D01*
X165533Y54578D01*
X165613Y54595D01*
X165693Y54616D01*
X165771Y54640D01*
X165848Y54668D01*
X165924Y54699D01*
X165999Y54734D01*
X166071Y54773D01*
X166142Y54814D01*
X166211Y54859D01*
X166277Y54907D01*
X166342Y54958D01*
X166404Y55012D01*
X166463Y55069D01*
X166520Y55128D01*
X166574Y55190D01*
X166625Y55255D01*
X166673Y55321D01*
X166718Y55390D01*
X166759Y55461D01*
X166798Y55533D01*
X166833Y55608D01*
X166864Y55684D01*
X166892Y55761D01*
X166916Y55839D01*
X166937Y55919D01*
X166954Y55999D01*
X166967Y56080D01*
X166976Y56162D01*
X166982Y56244D01*
X166984Y56326D01*
X166984Y56918D01*
X159872Y67386D02*
X166984Y69757D01*
X159872Y72128D01*
X166984Y77081D02*
X166984Y80044D01*
X166982Y80151D01*
X166976Y80258D01*
X166967Y80364D01*
X166953Y80470D01*
X166936Y80576D01*
X166915Y80681D01*
X166890Y80785D01*
X166861Y80888D01*
X166829Y80990D01*
X166793Y81091D01*
X166753Y81190D01*
X166710Y81288D01*
X166663Y81384D01*
X166613Y81479D01*
X166560Y81572D01*
X166503Y81662D01*
X166443Y81751D01*
X166380Y81837D01*
X166314Y81921D01*
X166244Y82003D01*
X166172Y82082D01*
X166097Y82158D01*
X166019Y82232D01*
X165939Y82302D01*
X165856Y82370D01*
X165771Y82435D01*
X165684Y82496D01*
X165594Y82555D01*
X165503Y82610D01*
X165409Y82662D01*
X165313Y82710D01*
X165216Y82755D01*
X165118Y82797D01*
X165018Y82834D01*
X164916Y82869D01*
X164814Y82899D01*
X164710Y82926D01*
X164606Y82949D01*
X164500Y82968D01*
X164394Y82983D01*
X164288Y82995D01*
X164181Y83003D01*
X164074Y83007D01*
X163968Y83007D01*
X163861Y83003D01*
X163754Y82995D01*
X163648Y82983D01*
X163542Y82968D01*
X163436Y82949D01*
X163332Y82926D01*
X163228Y82899D01*
X163126Y82869D01*
X163024Y82834D01*
X162924Y82797D01*
X162826Y82755D01*
X162729Y82710D01*
X162633Y82662D01*
X162540Y82610D01*
X162448Y82555D01*
X162358Y82496D01*
X162271Y82435D01*
X162186Y82370D01*
X162103Y82302D01*
X162023Y82232D01*
X161945Y82158D01*
X161870Y82082D01*
X161798Y82003D01*
X161728Y81921D01*
X161662Y81837D01*
X161599Y81751D01*
X161539Y81662D01*
X161482Y81572D01*
X161429Y81479D01*
X161379Y81384D01*
X161332Y81288D01*
X161289Y81190D01*
X161249Y81091D01*
X161213Y80990D01*
X161181Y80888D01*
X161152Y80785D01*
X161127Y80681D01*
X161106Y80576D01*
X161089Y80470D01*
X161075Y80364D01*
X161066Y80258D01*
X161060Y80151D01*
X161058Y80044D01*
X156316Y80637D02*
X156316Y77081D01*
X156316Y80637D02*
X156318Y80734D01*
X156324Y80830D01*
X156334Y80926D01*
X156348Y81022D01*
X156365Y81117D01*
X156387Y81212D01*
X156412Y81305D01*
X156441Y81397D01*
X156474Y81488D01*
X156511Y81578D01*
X156551Y81666D01*
X156595Y81752D01*
X156642Y81836D01*
X156692Y81919D01*
X156746Y81999D01*
X156804Y82077D01*
X156864Y82153D01*
X156927Y82226D01*
X156993Y82296D01*
X157063Y82364D01*
X157134Y82429D01*
X157209Y82491D01*
X157286Y82549D01*
X157365Y82605D01*
X157446Y82657D01*
X157530Y82706D01*
X157615Y82752D01*
X157702Y82794D01*
X157791Y82832D01*
X157881Y82867D01*
X157973Y82898D01*
X158066Y82925D01*
X158159Y82949D01*
X158254Y82968D01*
X158350Y82984D01*
X158446Y82996D01*
X158542Y83004D01*
X158639Y83008D01*
X158735Y83008D01*
X158832Y83004D01*
X158928Y82996D01*
X159024Y82984D01*
X159120Y82968D01*
X159215Y82949D01*
X159308Y82925D01*
X159401Y82898D01*
X159493Y82867D01*
X159583Y82832D01*
X159672Y82794D01*
X159759Y82752D01*
X159844Y82706D01*
X159928Y82657D01*
X160009Y82605D01*
X160088Y82549D01*
X160165Y82491D01*
X160240Y82429D01*
X160311Y82364D01*
X160381Y82296D01*
X160447Y82226D01*
X160510Y82153D01*
X160570Y82077D01*
X160628Y81999D01*
X160682Y81919D01*
X160732Y81836D01*
X160779Y81752D01*
X160823Y81666D01*
X160863Y81578D01*
X160900Y81488D01*
X160933Y81397D01*
X160962Y81305D01*
X160987Y81212D01*
X161009Y81117D01*
X161026Y81022D01*
X161040Y80926D01*
X161050Y80830D01*
X161056Y80734D01*
X161058Y80637D01*
X161057Y80637D02*
X161057Y78266D01*
D12*
X57000Y106000D03*
X57000Y98000D03*
X57000Y90000D03*
X57000Y82000D03*
X73000Y82000D03*
X73000Y90000D03*
X73000Y98000D03*
X73000Y106000D03*
X57000Y64000D03*
X57000Y56000D03*
X57000Y48000D03*
X57000Y40000D03*
X73000Y40000D03*
X73000Y48000D03*
X73000Y56000D03*
X73000Y64000D03*
X57000Y22000D03*
X57000Y14000D03*
X57000Y6000D03*
X57000Y-2000D03*
X73000Y-2000D03*
X73000Y6000D03*
X73000Y14000D03*
X73000Y22000D03*
D13*
X57000Y-70500D03*
X117000Y-70500D03*
D14*
X123500Y-12000D03*
X123500Y-7000D03*
X123500Y-2000D03*
X123500Y3000D03*
X123500Y8000D03*
X123500Y13000D03*
X123500Y18000D03*
X123500Y23000D03*
X123500Y28000D03*
X123500Y33000D03*
X123500Y38000D03*
X123500Y43000D03*
X123500Y48000D03*
X123500Y53000D03*
X123500Y58000D03*
X123500Y63000D03*
X123500Y68000D03*
X123500Y73000D03*
X123500Y78000D03*
X123500Y83000D03*
X123500Y88000D03*
X123500Y93000D03*
X123500Y98000D03*
X123500Y103000D03*
D15*
X157500Y-31400D03*
X157500Y122400D03*
D16*
X6500Y0D03*
X6500Y6500D03*
X6500Y19500D03*
X6500Y26000D03*
X6500Y32500D03*
X6500Y45500D03*
X6500Y52000D03*
X6500Y58500D03*
X6500Y65000D03*
X6500Y78000D03*
X6500Y84500D03*
X6500Y91000D03*
D17*
X79500Y185000D03*
D16*
X6500Y-6500D03*
X6500Y-19500D03*
X6500Y-26000D03*
X6500Y-32500D03*
D18*
G36*
X96996Y-30399D02*
X100531Y-33934D01*
X94168Y-40297D01*
X90633Y-36762D01*
X96996Y-30399D01*
G37*
G36*
X91339Y-24743D02*
X94874Y-28278D01*
X88511Y-34641D01*
X84976Y-31106D01*
X91339Y-24743D01*
G37*
G36*
X85682Y-19086D02*
X89217Y-22621D01*
X82854Y-28984D01*
X79319Y-25449D01*
X85682Y-19086D01*
G37*
G36*
X80026Y-13429D02*
X83561Y-16964D01*
X77198Y-23327D01*
X73663Y-19792D01*
X80026Y-13429D01*
G37*
G36*
X68712Y-24743D02*
X72247Y-28278D01*
X65884Y-34641D01*
X62349Y-31106D01*
X68712Y-24743D01*
G37*
G36*
X74369Y-30399D02*
X77904Y-33934D01*
X71541Y-40297D01*
X68006Y-36762D01*
X74369Y-30399D01*
G37*
G36*
X80026Y-36056D02*
X83561Y-39591D01*
X77198Y-45954D01*
X73663Y-42419D01*
X80026Y-36056D01*
G37*
G36*
X85682Y-41713D02*
X89217Y-45248D01*
X82854Y-51611D01*
X79319Y-48076D01*
X85682Y-41713D01*
G37*
D16*
X6500Y110500D03*
D19*
X6500Y0D03*
D20*
X26000Y0D01*
X45500Y6000D01*
X57000Y6000D01*
D19*
X6500Y65000D03*
X6500Y32500D03*
X6500Y6500D03*
X6500Y-19500D03*
D21*
X0Y-19500D03*
D22*
X6500Y65000D02*
X19500Y65000D01*
X19500Y-19500D02*
X6500Y-19500D01*
D23*
X19500Y-19500D03*
X19500Y65000D03*
X19500Y32500D03*
X19500Y6500D03*
D22*
X19500Y32500D02*
X6500Y32500D01*
D21*
X0Y110500D03*
D19*
X6500Y110500D03*
D23*
X19500Y110500D03*
D22*
X6500Y110500D01*
X6500Y6500D02*
X19500Y6500D01*
D20*
X6500Y-19500D02*
X0Y-19500D01*
D21*
X0Y65000D03*
X0Y32500D03*
X0Y6500D03*
D20*
X3270Y6500D02*
X6500Y6500D01*
D24*
X110500Y33000D02*
X123500Y33000D01*
X110500Y33000D02*
X84500Y14000D01*
X73000Y14000D01*
X57000Y14000D02*
X45500Y14000D01*
X26000Y6500D01*
X19500Y6500D01*
X45500Y106000D02*
X19500Y110500D01*
X45500Y106000D02*
X57000Y106000D01*
X73000Y106000D01*
X78000Y106000D01*
X87500Y102000D01*
X102000Y90500D01*
X105426Y87914D01*
X114500Y83000D01*
X123500Y83000D01*
X123500Y88000D02*
X105426Y87914D01*
D23*
X45500Y31000D03*
D24*
X83000Y31000D01*
X96000Y38000D01*
X106684Y42856D01*
X107013Y42958D01*
X123500Y43000D01*
X140000Y5500D02*
X140000Y1500D01*
X140000Y5500D02*
X140000Y8000D01*
X140000Y10500D01*
X140000Y20500D01*
X140000Y45500D02*
X140000Y80500D01*
X140000Y83000D01*
X140000Y84500D01*
X139500Y85000D01*
X136500Y88000D01*
X123500Y88000D01*
X123500Y83000D02*
X137500Y83000D01*
X140000Y83000D01*
X140000Y33000D02*
X124000Y33000D01*
X123500Y43000D02*
X140000Y43000D01*
X140000Y23000D02*
X123000Y23000D01*
X124000Y8000D02*
X137500Y8000D01*
X140000Y8000D01*
X140000Y5500D02*
X137500Y8000D01*
X140000Y10500D01*
X140000Y30500D02*
X137500Y33000D01*
X140000Y35500D01*
X137500Y23000D02*
X140000Y20500D01*
X137500Y23000D02*
X140000Y25500D01*
X140000Y23000D02*
X140000Y20500D01*
X140000Y23000D02*
X140000Y30500D01*
X140000Y33000D02*
X140000Y43000D01*
X140000Y33000D02*
X140000Y30500D01*
X140000Y40500D02*
X137500Y43000D01*
X140000Y45500D01*
X140000Y43000D01*
X140000Y80500D02*
X137500Y83000D01*
X139500Y85000D01*
X63000Y-19500D02*
X19500Y-19500D01*
X104000Y-46000D02*
X110000Y-46000D01*
X65718Y-19718D02*
X63000Y-19500D01*
X65718Y-19718D02*
X70758Y-22218D01*
X96242Y-45242D02*
X104000Y-46000D01*
X92742Y-44202D02*
X70758Y-22218D01*
X92742Y-44202D02*
X96242Y-45242D01*
X110000Y-46000D02*
X119500Y-42500D01*
X127500Y-24000D01*
X140000Y-11500D01*
X140000Y0D01*
X140000Y1500D01*
X137000Y-2000D02*
X139500Y-4500D01*
X73000Y14000D02*
X57000Y14000D01*
X138500Y0D02*
X140000Y1500D01*
X136500Y-2000D02*
X123500Y-2000D01*
X136500Y-2000D02*
X138500Y0D01*
X140000Y0D01*
X137000Y-2000D02*
X136500Y-2000D01*
D20*
X124000Y33000D02*
X123500Y33000D01*
X123500Y23000D02*
X123000Y23000D01*
X123500Y8000D02*
X124000Y8000D01*
X6500Y110500D02*
X3270Y110500D01*
D19*
X6500Y19500D03*
D20*
X26000Y19500D01*
X45500Y22000D01*
X57000Y22000D01*
D19*
X6500Y26000D03*
D20*
X24500Y26000D01*
X34000Y30000D01*
X40500Y37500D01*
X49000Y40000D01*
X57000Y40000D01*
D19*
X6500Y45500D03*
D20*
X26000Y45500D01*
X45500Y48000D01*
X57000Y48000D01*
D19*
X6500Y52000D03*
D20*
X26000Y52000D01*
X45500Y56000D01*
X57000Y56000D01*
D19*
X6500Y58500D03*
D20*
X26000Y58500D01*
X45500Y64000D01*
X57000Y64000D01*
D19*
X6500Y84500D03*
D20*
X26000Y84500D01*
X45500Y90000D01*
X57000Y90000D01*
D19*
X6500Y78000D03*
D20*
X26000Y78000D01*
X45500Y82000D01*
X57000Y82000D01*
D19*
X6500Y91000D03*
D20*
X26000Y91000D01*
X45500Y98000D01*
X57000Y98000D01*
X57000Y-58500D02*
X57000Y-70500D01*
X52000Y-66500D02*
X57000Y-58500D01*
X62000Y-66500D01*
X57000Y-58500D02*
X59000Y-55000D01*
X71000Y-48500D01*
X78612Y-41005D01*
D25*
X79500Y194500D03*
D26*
X79500Y188500D02*
X79500Y128500D01*
X79500Y188500D02*
X79500Y194500D01*
D24*
X115000Y93000D02*
X123500Y93000D01*
X115000Y93000D02*
X110000Y98000D01*
D27*
X105000Y103000D01*
D28*
X79500Y128500D01*
D24*
X110000Y98000D02*
X123500Y98000D01*
X123500Y103000D02*
X105000Y103000D01*
D23*
X79500Y186000D03*
D29*
X79500Y185000D02*
X79500Y188500D01*
D20*
X117000Y-58500D02*
X117000Y-70500D01*
X122000Y-67000D02*
X117000Y-58500D01*
X112000Y-67000D01*
X89500Y-52000D02*
X84268Y-46662D01*
X89500Y-52000D02*
X108500Y-52000D01*
X114000Y-54500D01*
X117000Y-58500D01*
X89500Y-52000D02*
X82500Y-49000D01*
X86500Y-45000D02*
X89500Y-52000D01*
X123500Y-16000D02*
X123500Y-12000D01*
X123500Y-16000D02*
X120000Y-21000D01*
X103000Y-28000D01*
X95582Y-35348D01*
X123500Y-16000D02*
X127000Y-12000D01*
X123500Y-16000D02*
X120000Y-12000D01*
X163500Y124000D02*
X177500Y124000D01*
X163500Y124000D02*
X150500Y124000D01*
X137000Y124000D01*
X150500Y124000D02*
X150500Y104000D01*
X163500Y104000D02*
X163500Y124000D01*
X150500Y124000D02*
X150500Y141000D01*
X163500Y141000D02*
X163500Y124000D01*
X177500Y115000D02*
X137000Y115000D01*
D21*
X0Y0D03*
X0Y19500D03*
X0Y26000D03*
X0Y45500D03*
X0Y52000D03*
X0Y58500D03*
X0Y84500D03*
X0Y78000D03*
X0Y91000D03*
D19*
X6500Y-6500D03*
D21*
X0Y-6500D03*
D19*
X6500Y-32500D03*
D21*
X0Y-32500D03*
X0Y-26000D03*
D19*
X6500Y-26000D03*
D20*
X32500Y-32500D02*
X39500Y-35000D01*
X47500Y-41500D01*
X60500Y-43000D01*
X67500Y-41000D01*
X72955Y-35348D01*
X32500Y-32500D02*
X6500Y-32500D01*
X6500Y-26000D02*
X32500Y-26000D01*
X43000Y-29000D01*
X50500Y-34000D01*
X57000Y-35000D01*
X63000Y-34000D01*
X67298Y-29692D01*
X26000Y-6500D02*
X6500Y-6500D01*
X26000Y-6500D02*
X45500Y-2000D01*
X57000Y-2000D01*
X73000Y98000D02*
X79500Y98000D01*
X85500Y96000D01*
X106000Y81000D01*
X114000Y78000D01*
X123500Y78000D01*
X80000Y90000D02*
X73000Y90000D01*
X80000Y90000D02*
X86500Y88000D01*
X101000Y78000D01*
X110500Y73000D01*
X123500Y73000D01*
X79000Y82000D02*
X73000Y82000D01*
X79000Y82000D02*
X84500Y80000D01*
X101500Y71500D01*
X110500Y68000D01*
X123500Y68000D01*
X84500Y64000D02*
X73000Y64000D01*
X84500Y64000D02*
X110500Y63000D01*
X123500Y63000D01*
X123500Y58000D02*
X110500Y58000D01*
X84500Y56000D01*
X73000Y56000D01*
X73000Y48000D02*
X84500Y48000D01*
X106000Y53000D01*
X123500Y53000D01*
X84500Y40000D02*
X73000Y40000D01*
X84500Y40000D02*
X108500Y48000D01*
X123500Y48000D01*
X82000Y22000D02*
X73000Y22000D01*
X82000Y22000D02*
X108000Y38000D01*
X123500Y38000D01*
X84500Y6000D02*
X73000Y6000D01*
X84500Y6000D02*
X91000Y9500D01*
X109500Y26000D01*
X114500Y28000D01*
X123500Y28000D01*
X81000Y-2000D02*
X73000Y-2000D01*
X81000Y-2000D02*
X90000Y1000D01*
X108000Y15500D01*
X113000Y18000D01*
X123500Y18000D01*
X123500Y13000D02*
X116500Y13000D01*
X110500Y10500D01*
X90500Y-6500D01*
X78612Y-18378D01*
X114500Y3000D02*
X123500Y3000D01*
X114500Y3000D02*
X106500Y-1000D01*
X84268Y-24035D01*
X115500Y-7000D02*
X123500Y-7000D01*
X115500Y-7000D02*
X111000Y-8500D01*
X89925Y-29692D01*
X163500Y-25000D02*
X177500Y-25000D01*
X163500Y-25000D02*
X150500Y-25000D01*
X137000Y-25000D01*
X150500Y-25000D02*
X150500Y-49000D01*
X163500Y-49000D02*
X163500Y-25000D01*
X150500Y-25000D02*
X150500Y-12000D01*
X163500Y-12000D02*
X163500Y-25000D01*
X177500Y-34000D02*
X137000Y-34000D01*
M02*
