G04 EAGLE Gerber X2 export*
G75*
%MOMM*%
%FSLAX34Y34*%
%LPD*%
%AMOC8*
5,1,8,0,0,1.08239X$1,22.5*%
G01*
%ADD10C,0.000000*%
%ADD11C,0.127000*%
%ADD12C,0.101600*%
%ADD13C,0.203200*%

G36*
X178125Y-15006D02*
X178125Y-15006D01*
X178133Y-15007D01*
X178184Y-14991D01*
X178391Y-14937D01*
X178424Y-14917D01*
X178454Y-14908D01*
X182454Y-12908D01*
X182536Y-12851D01*
X182623Y-12802D01*
X182653Y-12771D01*
X182688Y-12747D01*
X182751Y-12669D01*
X182821Y-12598D01*
X182841Y-12560D01*
X182868Y-12527D01*
X182907Y-12435D01*
X182954Y-12347D01*
X182963Y-12305D01*
X182980Y-12265D01*
X182992Y-12166D01*
X183013Y-12069D01*
X183010Y-12026D01*
X183015Y-11983D01*
X183000Y-11885D01*
X182992Y-11785D01*
X182977Y-11745D01*
X182971Y-11702D01*
X182928Y-11612D01*
X182894Y-11519D01*
X182868Y-11484D01*
X182850Y-11445D01*
X182784Y-11370D01*
X182725Y-11290D01*
X182694Y-11267D01*
X182663Y-11231D01*
X182530Y-11146D01*
X182523Y-11139D01*
X182509Y-11132D01*
X182454Y-11092D01*
X178454Y-9092D01*
X178446Y-9089D01*
X178439Y-9085D01*
X178311Y-9044D01*
X178184Y-9002D01*
X178176Y-9001D01*
X178168Y-8999D01*
X178033Y-8995D01*
X177900Y-8990D01*
X177892Y-8992D01*
X177884Y-8991D01*
X177754Y-9025D01*
X177624Y-9057D01*
X177617Y-9061D01*
X177609Y-9063D01*
X177494Y-9131D01*
X177377Y-9198D01*
X177372Y-9204D01*
X177364Y-9209D01*
X177272Y-9306D01*
X177180Y-9402D01*
X177176Y-9410D01*
X177170Y-9416D01*
X177109Y-9535D01*
X177046Y-9653D01*
X177044Y-9661D01*
X177040Y-9669D01*
X177032Y-9721D01*
X176987Y-9931D01*
X176990Y-9969D01*
X176985Y-10000D01*
X176985Y-14000D01*
X176986Y-14008D01*
X176985Y-14017D01*
X177006Y-14149D01*
X177025Y-14282D01*
X177028Y-14289D01*
X177029Y-14298D01*
X177086Y-14419D01*
X177141Y-14541D01*
X177146Y-14547D01*
X177150Y-14555D01*
X177238Y-14656D01*
X177325Y-14758D01*
X177332Y-14763D01*
X177337Y-14769D01*
X177450Y-14841D01*
X177561Y-14916D01*
X177569Y-14918D01*
X177576Y-14923D01*
X177705Y-14961D01*
X177832Y-15001D01*
X177841Y-15002D01*
X177849Y-15004D01*
X177983Y-15005D01*
X178116Y-15009D01*
X178125Y-15006D01*
G37*
D10*
X0Y-36000D02*
X3000Y-39000D01*
X32500Y-39000D01*
X39000Y-45500D01*
X39000Y-78000D01*
X45500Y-84500D01*
X175500Y-84500D01*
X182000Y-78000D01*
X182000Y139000D01*
X175500Y145500D01*
X93500Y145500D01*
X87000Y152000D01*
X87000Y191500D01*
X84000Y194500D01*
X75000Y194500D01*
X72000Y191500D01*
X72000Y127000D01*
X65500Y120500D01*
X7000Y120500D01*
X0Y113500D01*
X0Y107500D01*
X0Y94000D02*
X0Y75000D01*
X1000Y74000D01*
X4000Y74000D01*
X5000Y73000D01*
X5000Y70000D02*
X4000Y69000D01*
X1000Y69000D01*
X0Y68000D01*
X5000Y70000D02*
X5000Y73000D01*
X0Y68000D02*
X0Y42500D01*
X1000Y41500D01*
X4000Y41500D01*
X5000Y40500D01*
X5000Y37500D02*
X4000Y36500D01*
X1000Y36500D01*
X0Y35500D01*
X5000Y37500D02*
X5000Y40500D01*
X0Y42000D02*
X0Y35500D01*
X0Y16500D02*
X1000Y15500D01*
X4000Y15500D01*
X5000Y14500D01*
X5000Y11500D02*
X4000Y10500D01*
X1000Y10500D01*
X0Y9500D01*
X5000Y11500D02*
X5000Y14500D01*
X0Y-16500D02*
X0Y-36000D01*
X0Y-9500D02*
X0Y9500D01*
X0Y16500D02*
X0Y35500D01*
X0Y-9500D02*
X1000Y-10500D01*
X4000Y-10500D02*
X5000Y-11500D01*
X4000Y-10500D02*
X1000Y-10500D01*
X5000Y-11500D02*
X5000Y-14500D01*
X4000Y-15500D01*
X1000Y-15500D01*
X0Y-16500D01*
X1000Y106500D02*
X0Y107500D01*
X1000Y106500D02*
X4000Y106500D01*
X5000Y105500D01*
X5000Y96000D01*
X4000Y95000D01*
X1000Y95000D01*
X0Y94000D01*
D11*
X26695Y-31935D02*
X28981Y-31935D01*
X29058Y-31937D01*
X29135Y-31943D01*
X29212Y-31953D01*
X29288Y-31966D01*
X29363Y-31984D01*
X29437Y-32005D01*
X29510Y-32030D01*
X29582Y-32059D01*
X29652Y-32091D01*
X29721Y-32126D01*
X29787Y-32166D01*
X29852Y-32208D01*
X29914Y-32254D01*
X29974Y-32303D01*
X30031Y-32354D01*
X30086Y-32409D01*
X30137Y-32466D01*
X30186Y-32526D01*
X30232Y-32588D01*
X30274Y-32653D01*
X30314Y-32719D01*
X30349Y-32788D01*
X30381Y-32858D01*
X30410Y-32930D01*
X30435Y-33003D01*
X30456Y-33077D01*
X30474Y-33152D01*
X30487Y-33228D01*
X30497Y-33305D01*
X30503Y-33382D01*
X30505Y-33459D01*
X30505Y-33840D01*
X30503Y-33925D01*
X30497Y-34011D01*
X30488Y-34096D01*
X30474Y-34180D01*
X30457Y-34264D01*
X30436Y-34347D01*
X30412Y-34429D01*
X30384Y-34509D01*
X30352Y-34589D01*
X30316Y-34667D01*
X30278Y-34743D01*
X30235Y-34817D01*
X30190Y-34889D01*
X30141Y-34960D01*
X30089Y-35028D01*
X30035Y-35093D01*
X29977Y-35156D01*
X29916Y-35217D01*
X29853Y-35275D01*
X29788Y-35329D01*
X29720Y-35381D01*
X29649Y-35430D01*
X29577Y-35475D01*
X29503Y-35518D01*
X29427Y-35556D01*
X29349Y-35592D01*
X29269Y-35624D01*
X29189Y-35652D01*
X29107Y-35676D01*
X29024Y-35697D01*
X28940Y-35714D01*
X28856Y-35728D01*
X28771Y-35737D01*
X28685Y-35743D01*
X28600Y-35745D01*
X28515Y-35743D01*
X28429Y-35737D01*
X28344Y-35728D01*
X28260Y-35714D01*
X28176Y-35697D01*
X28093Y-35676D01*
X28011Y-35652D01*
X27931Y-35624D01*
X27851Y-35592D01*
X27773Y-35556D01*
X27697Y-35518D01*
X27623Y-35475D01*
X27551Y-35430D01*
X27480Y-35381D01*
X27412Y-35329D01*
X27347Y-35275D01*
X27284Y-35217D01*
X27223Y-35156D01*
X27165Y-35093D01*
X27111Y-35028D01*
X27059Y-34960D01*
X27010Y-34889D01*
X26965Y-34817D01*
X26922Y-34743D01*
X26884Y-34667D01*
X26848Y-34589D01*
X26816Y-34509D01*
X26788Y-34429D01*
X26764Y-34347D01*
X26743Y-34264D01*
X26726Y-34180D01*
X26712Y-34096D01*
X26703Y-34011D01*
X26697Y-33925D01*
X26695Y-33840D01*
X26695Y-31935D01*
X26697Y-31826D01*
X26703Y-31718D01*
X26712Y-31609D01*
X26726Y-31501D01*
X26743Y-31394D01*
X26765Y-31287D01*
X26790Y-31181D01*
X26818Y-31076D01*
X26851Y-30972D01*
X26887Y-30870D01*
X26927Y-30769D01*
X26970Y-30669D01*
X27017Y-30571D01*
X27068Y-30474D01*
X27122Y-30380D01*
X27179Y-30287D01*
X27239Y-30197D01*
X27303Y-30108D01*
X27370Y-30022D01*
X27439Y-29939D01*
X27512Y-29858D01*
X27588Y-29780D01*
X27666Y-29704D01*
X27747Y-29631D01*
X27830Y-29562D01*
X27916Y-29495D01*
X28005Y-29431D01*
X28095Y-29371D01*
X28188Y-29314D01*
X28282Y-29260D01*
X28379Y-29209D01*
X28477Y-29162D01*
X28577Y-29119D01*
X28678Y-29079D01*
X28780Y-29043D01*
X28884Y-29010D01*
X28989Y-28982D01*
X29095Y-28957D01*
X29202Y-28935D01*
X29309Y-28918D01*
X29417Y-28904D01*
X29526Y-28895D01*
X29634Y-28889D01*
X29743Y-28887D01*
X26695Y-4411D02*
X28600Y-2887D01*
X28600Y-9745D01*
X26695Y-9745D02*
X30505Y-9745D01*
X34010Y-6316D02*
X34012Y-6174D01*
X34017Y-6031D01*
X34026Y-5889D01*
X34039Y-5747D01*
X34055Y-5606D01*
X34074Y-5465D01*
X34098Y-5324D01*
X34124Y-5184D01*
X34155Y-5045D01*
X34189Y-4907D01*
X34226Y-4769D01*
X34266Y-4633D01*
X34311Y-4497D01*
X34358Y-4363D01*
X34409Y-4230D01*
X34463Y-4098D01*
X34521Y-3968D01*
X34582Y-3839D01*
X34581Y-3840D02*
X34607Y-3771D01*
X34636Y-3705D01*
X34668Y-3639D01*
X34703Y-3576D01*
X34742Y-3514D01*
X34784Y-3454D01*
X34829Y-3397D01*
X34877Y-3342D01*
X34928Y-3290D01*
X34981Y-3240D01*
X35037Y-3194D01*
X35095Y-3150D01*
X35156Y-3109D01*
X35218Y-3071D01*
X35282Y-3037D01*
X35348Y-3006D01*
X35416Y-2978D01*
X35485Y-2954D01*
X35555Y-2934D01*
X35626Y-2917D01*
X35697Y-2904D01*
X35769Y-2895D01*
X35842Y-2889D01*
X35915Y-2887D01*
X35988Y-2889D01*
X36061Y-2895D01*
X36133Y-2904D01*
X36204Y-2917D01*
X36275Y-2934D01*
X36345Y-2954D01*
X36414Y-2978D01*
X36482Y-3006D01*
X36548Y-3037D01*
X36612Y-3071D01*
X36674Y-3109D01*
X36735Y-3150D01*
X36793Y-3194D01*
X36849Y-3240D01*
X36902Y-3290D01*
X36953Y-3342D01*
X37001Y-3397D01*
X37046Y-3454D01*
X37088Y-3514D01*
X37127Y-3576D01*
X37162Y-3639D01*
X37194Y-3705D01*
X37223Y-3771D01*
X37249Y-3840D01*
X37249Y-3839D02*
X37310Y-3968D01*
X37368Y-4098D01*
X37422Y-4230D01*
X37473Y-4363D01*
X37520Y-4497D01*
X37565Y-4633D01*
X37605Y-4769D01*
X37642Y-4907D01*
X37676Y-5045D01*
X37707Y-5184D01*
X37733Y-5324D01*
X37757Y-5465D01*
X37776Y-5606D01*
X37792Y-5747D01*
X37805Y-5889D01*
X37814Y-6031D01*
X37819Y-6174D01*
X37821Y-6316D01*
X34010Y-6316D02*
X34012Y-6458D01*
X34017Y-6601D01*
X34026Y-6743D01*
X34039Y-6885D01*
X34055Y-7026D01*
X34074Y-7167D01*
X34098Y-7308D01*
X34124Y-7448D01*
X34155Y-7587D01*
X34189Y-7725D01*
X34226Y-7863D01*
X34266Y-7999D01*
X34311Y-8135D01*
X34358Y-8269D01*
X34409Y-8402D01*
X34463Y-8534D01*
X34521Y-8664D01*
X34582Y-8793D01*
X34581Y-8792D02*
X34607Y-8861D01*
X34636Y-8927D01*
X34668Y-8993D01*
X34703Y-9056D01*
X34742Y-9118D01*
X34784Y-9178D01*
X34829Y-9235D01*
X34877Y-9290D01*
X34928Y-9342D01*
X34981Y-9392D01*
X35037Y-9438D01*
X35095Y-9482D01*
X35156Y-9523D01*
X35218Y-9561D01*
X35282Y-9595D01*
X35348Y-9626D01*
X35416Y-9654D01*
X35485Y-9678D01*
X35555Y-9698D01*
X35626Y-9715D01*
X35697Y-9728D01*
X35769Y-9737D01*
X35842Y-9743D01*
X35915Y-9745D01*
X37249Y-8793D02*
X37310Y-8664D01*
X37368Y-8534D01*
X37422Y-8402D01*
X37473Y-8269D01*
X37520Y-8135D01*
X37565Y-7999D01*
X37605Y-7863D01*
X37642Y-7725D01*
X37676Y-7587D01*
X37707Y-7448D01*
X37733Y-7308D01*
X37757Y-7167D01*
X37776Y-7026D01*
X37792Y-6885D01*
X37805Y-6743D01*
X37814Y-6601D01*
X37819Y-6458D01*
X37821Y-6316D01*
X37249Y-8792D02*
X37223Y-8861D01*
X37194Y-8927D01*
X37162Y-8993D01*
X37127Y-9056D01*
X37088Y-9118D01*
X37046Y-9178D01*
X37001Y-9235D01*
X36953Y-9290D01*
X36902Y-9342D01*
X36849Y-9392D01*
X36793Y-9438D01*
X36735Y-9482D01*
X36674Y-9523D01*
X36612Y-9561D01*
X36548Y-9595D01*
X36482Y-9626D01*
X36414Y-9654D01*
X36345Y-9678D01*
X36275Y-9698D01*
X36204Y-9715D01*
X36133Y-9728D01*
X36061Y-9737D01*
X35988Y-9743D01*
X35915Y-9745D01*
X34391Y-8221D02*
X37439Y-4411D01*
X26695Y28089D02*
X28600Y29613D01*
X28600Y22755D01*
X26695Y22755D02*
X30505Y22755D01*
X34010Y22755D02*
X36296Y22755D01*
X36373Y22757D01*
X36450Y22763D01*
X36527Y22773D01*
X36603Y22786D01*
X36678Y22804D01*
X36752Y22825D01*
X36825Y22850D01*
X36897Y22879D01*
X36967Y22911D01*
X37036Y22946D01*
X37102Y22986D01*
X37167Y23028D01*
X37229Y23074D01*
X37289Y23123D01*
X37346Y23174D01*
X37401Y23229D01*
X37452Y23286D01*
X37501Y23346D01*
X37547Y23408D01*
X37589Y23473D01*
X37629Y23539D01*
X37664Y23608D01*
X37696Y23678D01*
X37725Y23750D01*
X37750Y23823D01*
X37771Y23897D01*
X37789Y23972D01*
X37802Y24048D01*
X37812Y24125D01*
X37818Y24202D01*
X37820Y24279D01*
X37820Y25041D01*
X37818Y25118D01*
X37812Y25195D01*
X37802Y25272D01*
X37789Y25348D01*
X37771Y25423D01*
X37750Y25497D01*
X37725Y25570D01*
X37696Y25642D01*
X37664Y25712D01*
X37629Y25781D01*
X37589Y25847D01*
X37547Y25912D01*
X37501Y25974D01*
X37452Y26034D01*
X37401Y26091D01*
X37346Y26146D01*
X37289Y26197D01*
X37229Y26246D01*
X37167Y26292D01*
X37102Y26334D01*
X37036Y26374D01*
X36967Y26409D01*
X36897Y26441D01*
X36825Y26470D01*
X36752Y26495D01*
X36678Y26516D01*
X36603Y26534D01*
X36527Y26547D01*
X36450Y26557D01*
X36373Y26563D01*
X36296Y26565D01*
X34010Y26565D01*
X34010Y29613D01*
X37820Y29613D01*
X30506Y60399D02*
X30504Y60481D01*
X30498Y60562D01*
X30489Y60643D01*
X30475Y60724D01*
X30458Y60803D01*
X30437Y60882D01*
X30412Y60960D01*
X30383Y61036D01*
X30351Y61111D01*
X30315Y61185D01*
X30276Y61257D01*
X30234Y61326D01*
X30188Y61394D01*
X30139Y61459D01*
X30087Y61522D01*
X30032Y61582D01*
X29974Y61640D01*
X29914Y61695D01*
X29851Y61747D01*
X29786Y61796D01*
X29718Y61842D01*
X29649Y61884D01*
X29577Y61923D01*
X29503Y61959D01*
X29428Y61991D01*
X29352Y62020D01*
X29274Y62045D01*
X29195Y62066D01*
X29116Y62083D01*
X29035Y62097D01*
X28954Y62106D01*
X28873Y62112D01*
X28791Y62114D01*
X28791Y62113D02*
X28699Y62111D01*
X28607Y62105D01*
X28515Y62096D01*
X28423Y62082D01*
X28333Y62065D01*
X28243Y62044D01*
X28154Y62019D01*
X28066Y61990D01*
X27979Y61958D01*
X27894Y61922D01*
X27811Y61883D01*
X27729Y61840D01*
X27649Y61794D01*
X27571Y61744D01*
X27495Y61692D01*
X27422Y61636D01*
X27351Y61577D01*
X27282Y61515D01*
X27216Y61450D01*
X27153Y61383D01*
X27093Y61313D01*
X27035Y61241D01*
X26981Y61166D01*
X26930Y61089D01*
X26882Y61010D01*
X26838Y60929D01*
X26797Y60846D01*
X26759Y60762D01*
X26725Y60676D01*
X26695Y60589D01*
X29934Y59065D02*
X29993Y59124D01*
X30049Y59185D01*
X30102Y59248D01*
X30153Y59314D01*
X30200Y59382D01*
X30244Y59452D01*
X30285Y59524D01*
X30323Y59598D01*
X30357Y59673D01*
X30388Y59750D01*
X30415Y59828D01*
X30439Y59908D01*
X30460Y59988D01*
X30476Y60069D01*
X30489Y60151D01*
X30499Y60233D01*
X30504Y60316D01*
X30506Y60399D01*
X29934Y59065D02*
X26695Y55255D01*
X30505Y55255D01*
X34010Y58684D02*
X34012Y58826D01*
X34017Y58969D01*
X34026Y59111D01*
X34039Y59253D01*
X34055Y59394D01*
X34074Y59535D01*
X34098Y59676D01*
X34124Y59816D01*
X34155Y59955D01*
X34189Y60093D01*
X34226Y60231D01*
X34266Y60367D01*
X34311Y60503D01*
X34358Y60637D01*
X34409Y60770D01*
X34463Y60902D01*
X34521Y61032D01*
X34582Y61161D01*
X34581Y61160D02*
X34607Y61229D01*
X34636Y61295D01*
X34668Y61361D01*
X34703Y61424D01*
X34742Y61486D01*
X34784Y61546D01*
X34829Y61603D01*
X34877Y61658D01*
X34928Y61710D01*
X34981Y61760D01*
X35037Y61806D01*
X35095Y61850D01*
X35156Y61891D01*
X35218Y61929D01*
X35282Y61963D01*
X35348Y61994D01*
X35416Y62022D01*
X35485Y62046D01*
X35555Y62066D01*
X35626Y62083D01*
X35697Y62096D01*
X35769Y62105D01*
X35842Y62111D01*
X35915Y62113D01*
X35988Y62111D01*
X36061Y62105D01*
X36133Y62096D01*
X36204Y62083D01*
X36275Y62066D01*
X36345Y62046D01*
X36414Y62022D01*
X36482Y61994D01*
X36548Y61963D01*
X36612Y61929D01*
X36674Y61891D01*
X36735Y61850D01*
X36793Y61806D01*
X36849Y61760D01*
X36902Y61710D01*
X36953Y61658D01*
X37001Y61603D01*
X37046Y61546D01*
X37088Y61486D01*
X37127Y61424D01*
X37162Y61361D01*
X37194Y61295D01*
X37223Y61229D01*
X37249Y61160D01*
X37249Y61161D02*
X37310Y61032D01*
X37368Y60902D01*
X37422Y60770D01*
X37473Y60637D01*
X37520Y60503D01*
X37565Y60367D01*
X37605Y60231D01*
X37642Y60093D01*
X37676Y59955D01*
X37707Y59816D01*
X37733Y59676D01*
X37757Y59535D01*
X37776Y59394D01*
X37792Y59253D01*
X37805Y59111D01*
X37814Y58969D01*
X37819Y58826D01*
X37821Y58684D01*
X34010Y58684D02*
X34012Y58542D01*
X34017Y58399D01*
X34026Y58257D01*
X34039Y58115D01*
X34055Y57974D01*
X34074Y57833D01*
X34098Y57692D01*
X34124Y57552D01*
X34155Y57413D01*
X34189Y57275D01*
X34226Y57137D01*
X34266Y57001D01*
X34311Y56865D01*
X34358Y56731D01*
X34409Y56598D01*
X34463Y56466D01*
X34521Y56336D01*
X34582Y56207D01*
X34581Y56208D02*
X34607Y56139D01*
X34636Y56073D01*
X34668Y56007D01*
X34703Y55944D01*
X34742Y55882D01*
X34784Y55822D01*
X34829Y55765D01*
X34877Y55710D01*
X34928Y55658D01*
X34981Y55608D01*
X35037Y55562D01*
X35095Y55518D01*
X35156Y55477D01*
X35218Y55439D01*
X35282Y55405D01*
X35348Y55374D01*
X35416Y55346D01*
X35485Y55322D01*
X35555Y55302D01*
X35626Y55285D01*
X35697Y55272D01*
X35769Y55263D01*
X35842Y55257D01*
X35915Y55255D01*
X37249Y56207D02*
X37310Y56336D01*
X37368Y56466D01*
X37422Y56598D01*
X37473Y56731D01*
X37520Y56865D01*
X37565Y57001D01*
X37605Y57137D01*
X37642Y57275D01*
X37676Y57413D01*
X37707Y57552D01*
X37733Y57692D01*
X37757Y57833D01*
X37776Y57974D01*
X37792Y58115D01*
X37805Y58257D01*
X37814Y58399D01*
X37819Y58542D01*
X37821Y58684D01*
X37249Y56208D02*
X37223Y56139D01*
X37194Y56073D01*
X37162Y56007D01*
X37127Y55944D01*
X37088Y55882D01*
X37046Y55822D01*
X37001Y55765D01*
X36953Y55710D01*
X36902Y55658D01*
X36849Y55608D01*
X36793Y55562D01*
X36735Y55518D01*
X36674Y55477D01*
X36612Y55439D01*
X36548Y55405D01*
X36482Y55374D01*
X36414Y55346D01*
X36345Y55322D01*
X36275Y55302D01*
X36204Y55285D01*
X36133Y55272D01*
X36061Y55263D01*
X35988Y55257D01*
X35915Y55255D01*
X34391Y56779D02*
X37439Y60589D01*
X30506Y92899D02*
X30504Y92981D01*
X30498Y93062D01*
X30489Y93143D01*
X30475Y93224D01*
X30458Y93303D01*
X30437Y93382D01*
X30412Y93460D01*
X30383Y93536D01*
X30351Y93611D01*
X30315Y93685D01*
X30276Y93757D01*
X30234Y93826D01*
X30188Y93894D01*
X30139Y93959D01*
X30087Y94022D01*
X30032Y94082D01*
X29974Y94140D01*
X29914Y94195D01*
X29851Y94247D01*
X29786Y94296D01*
X29718Y94342D01*
X29649Y94384D01*
X29577Y94423D01*
X29503Y94459D01*
X29428Y94491D01*
X29352Y94520D01*
X29274Y94545D01*
X29195Y94566D01*
X29116Y94583D01*
X29035Y94597D01*
X28954Y94606D01*
X28873Y94612D01*
X28791Y94614D01*
X28791Y94613D02*
X28699Y94611D01*
X28607Y94605D01*
X28515Y94596D01*
X28423Y94582D01*
X28333Y94565D01*
X28243Y94544D01*
X28154Y94519D01*
X28066Y94490D01*
X27979Y94458D01*
X27894Y94422D01*
X27811Y94383D01*
X27729Y94340D01*
X27649Y94294D01*
X27571Y94244D01*
X27495Y94192D01*
X27422Y94136D01*
X27351Y94077D01*
X27282Y94015D01*
X27216Y93950D01*
X27153Y93883D01*
X27093Y93813D01*
X27035Y93741D01*
X26981Y93666D01*
X26930Y93589D01*
X26882Y93510D01*
X26838Y93429D01*
X26797Y93346D01*
X26759Y93262D01*
X26725Y93176D01*
X26695Y93089D01*
X29934Y91565D02*
X29993Y91624D01*
X30049Y91685D01*
X30102Y91748D01*
X30153Y91814D01*
X30200Y91882D01*
X30244Y91952D01*
X30285Y92024D01*
X30323Y92098D01*
X30357Y92173D01*
X30388Y92250D01*
X30415Y92328D01*
X30439Y92408D01*
X30460Y92488D01*
X30476Y92569D01*
X30489Y92651D01*
X30499Y92733D01*
X30504Y92816D01*
X30506Y92899D01*
X29934Y91565D02*
X26695Y87755D01*
X30505Y87755D01*
X34010Y87755D02*
X36296Y87755D01*
X36373Y87757D01*
X36450Y87763D01*
X36527Y87773D01*
X36603Y87786D01*
X36678Y87804D01*
X36752Y87825D01*
X36825Y87850D01*
X36897Y87879D01*
X36967Y87911D01*
X37036Y87946D01*
X37102Y87986D01*
X37167Y88028D01*
X37229Y88074D01*
X37289Y88123D01*
X37346Y88174D01*
X37401Y88229D01*
X37452Y88286D01*
X37501Y88346D01*
X37547Y88408D01*
X37589Y88473D01*
X37629Y88539D01*
X37664Y88608D01*
X37696Y88678D01*
X37725Y88750D01*
X37750Y88823D01*
X37771Y88897D01*
X37789Y88972D01*
X37802Y89048D01*
X37812Y89125D01*
X37818Y89202D01*
X37820Y89279D01*
X37820Y90041D01*
X37818Y90118D01*
X37812Y90195D01*
X37802Y90272D01*
X37789Y90348D01*
X37771Y90423D01*
X37750Y90497D01*
X37725Y90570D01*
X37696Y90642D01*
X37664Y90712D01*
X37629Y90781D01*
X37589Y90847D01*
X37547Y90912D01*
X37501Y90974D01*
X37452Y91034D01*
X37401Y91091D01*
X37346Y91146D01*
X37289Y91197D01*
X37229Y91246D01*
X37167Y91292D01*
X37102Y91334D01*
X37036Y91374D01*
X36967Y91409D01*
X36897Y91441D01*
X36825Y91470D01*
X36752Y91495D01*
X36678Y91516D01*
X36603Y91534D01*
X36527Y91547D01*
X36450Y91557D01*
X36373Y91563D01*
X36296Y91565D01*
X34010Y91565D01*
X34010Y94613D01*
X37820Y94613D01*
X30506Y112399D02*
X30504Y112481D01*
X30498Y112562D01*
X30489Y112643D01*
X30475Y112724D01*
X30458Y112803D01*
X30437Y112882D01*
X30412Y112960D01*
X30383Y113036D01*
X30351Y113111D01*
X30315Y113185D01*
X30276Y113257D01*
X30234Y113326D01*
X30188Y113394D01*
X30139Y113459D01*
X30087Y113522D01*
X30032Y113582D01*
X29974Y113640D01*
X29914Y113695D01*
X29851Y113747D01*
X29786Y113796D01*
X29718Y113842D01*
X29649Y113884D01*
X29577Y113923D01*
X29503Y113959D01*
X29428Y113991D01*
X29352Y114020D01*
X29274Y114045D01*
X29195Y114066D01*
X29116Y114083D01*
X29035Y114097D01*
X28954Y114106D01*
X28873Y114112D01*
X28791Y114114D01*
X28791Y114113D02*
X28699Y114111D01*
X28607Y114105D01*
X28515Y114096D01*
X28423Y114082D01*
X28333Y114065D01*
X28243Y114044D01*
X28154Y114019D01*
X28066Y113990D01*
X27979Y113958D01*
X27894Y113922D01*
X27811Y113883D01*
X27729Y113840D01*
X27649Y113794D01*
X27571Y113744D01*
X27495Y113692D01*
X27422Y113636D01*
X27351Y113577D01*
X27282Y113515D01*
X27216Y113450D01*
X27153Y113383D01*
X27093Y113313D01*
X27035Y113241D01*
X26981Y113166D01*
X26930Y113089D01*
X26882Y113010D01*
X26838Y112929D01*
X26797Y112846D01*
X26759Y112762D01*
X26725Y112676D01*
X26695Y112589D01*
X29934Y111065D02*
X29993Y111124D01*
X30049Y111185D01*
X30102Y111248D01*
X30153Y111314D01*
X30200Y111382D01*
X30244Y111452D01*
X30285Y111524D01*
X30323Y111598D01*
X30357Y111673D01*
X30388Y111750D01*
X30415Y111828D01*
X30439Y111908D01*
X30460Y111988D01*
X30476Y112069D01*
X30489Y112151D01*
X30499Y112233D01*
X30504Y112316D01*
X30506Y112399D01*
X29934Y111065D02*
X26695Y107255D01*
X30505Y107255D01*
X34010Y109160D02*
X34012Y109245D01*
X34018Y109331D01*
X34027Y109416D01*
X34041Y109500D01*
X34058Y109584D01*
X34079Y109667D01*
X34103Y109749D01*
X34131Y109829D01*
X34163Y109909D01*
X34199Y109987D01*
X34237Y110063D01*
X34280Y110137D01*
X34325Y110209D01*
X34374Y110280D01*
X34426Y110348D01*
X34480Y110413D01*
X34538Y110476D01*
X34599Y110537D01*
X34662Y110595D01*
X34727Y110649D01*
X34795Y110701D01*
X34866Y110750D01*
X34938Y110795D01*
X35012Y110838D01*
X35088Y110876D01*
X35166Y110912D01*
X35246Y110944D01*
X35326Y110972D01*
X35408Y110996D01*
X35491Y111017D01*
X35575Y111034D01*
X35659Y111048D01*
X35744Y111057D01*
X35830Y111063D01*
X35915Y111065D01*
X36000Y111063D01*
X36086Y111057D01*
X36171Y111048D01*
X36255Y111034D01*
X36339Y111017D01*
X36422Y110996D01*
X36504Y110972D01*
X36584Y110944D01*
X36664Y110912D01*
X36742Y110876D01*
X36818Y110838D01*
X36892Y110795D01*
X36964Y110750D01*
X37035Y110701D01*
X37103Y110649D01*
X37168Y110595D01*
X37231Y110537D01*
X37292Y110476D01*
X37350Y110413D01*
X37404Y110348D01*
X37456Y110280D01*
X37505Y110209D01*
X37550Y110137D01*
X37593Y110063D01*
X37631Y109987D01*
X37667Y109909D01*
X37699Y109829D01*
X37727Y109749D01*
X37751Y109667D01*
X37772Y109584D01*
X37789Y109500D01*
X37803Y109416D01*
X37812Y109331D01*
X37818Y109245D01*
X37820Y109160D01*
X37818Y109075D01*
X37812Y108989D01*
X37803Y108904D01*
X37789Y108820D01*
X37772Y108736D01*
X37751Y108653D01*
X37727Y108571D01*
X37699Y108491D01*
X37667Y108411D01*
X37631Y108333D01*
X37593Y108257D01*
X37550Y108183D01*
X37505Y108111D01*
X37456Y108040D01*
X37404Y107972D01*
X37350Y107907D01*
X37292Y107844D01*
X37231Y107783D01*
X37168Y107725D01*
X37103Y107671D01*
X37035Y107619D01*
X36964Y107570D01*
X36892Y107525D01*
X36818Y107482D01*
X36742Y107444D01*
X36664Y107408D01*
X36584Y107376D01*
X36504Y107348D01*
X36422Y107324D01*
X36339Y107303D01*
X36255Y107286D01*
X36171Y107272D01*
X36086Y107263D01*
X36000Y107257D01*
X35915Y107255D01*
X35830Y107257D01*
X35744Y107263D01*
X35659Y107272D01*
X35575Y107286D01*
X35491Y107303D01*
X35408Y107324D01*
X35326Y107348D01*
X35246Y107376D01*
X35166Y107408D01*
X35088Y107444D01*
X35012Y107482D01*
X34938Y107525D01*
X34866Y107570D01*
X34795Y107619D01*
X34727Y107671D01*
X34662Y107725D01*
X34599Y107783D01*
X34538Y107844D01*
X34480Y107907D01*
X34426Y107972D01*
X34374Y108040D01*
X34325Y108111D01*
X34280Y108183D01*
X34237Y108257D01*
X34199Y108333D01*
X34163Y108411D01*
X34131Y108491D01*
X34103Y108571D01*
X34079Y108653D01*
X34058Y108736D01*
X34041Y108820D01*
X34027Y108904D01*
X34018Y108989D01*
X34012Y109075D01*
X34010Y109160D01*
X34391Y112589D02*
X34393Y112666D01*
X34399Y112743D01*
X34409Y112820D01*
X34422Y112896D01*
X34440Y112971D01*
X34461Y113045D01*
X34486Y113118D01*
X34515Y113190D01*
X34547Y113260D01*
X34582Y113329D01*
X34622Y113395D01*
X34664Y113460D01*
X34710Y113522D01*
X34759Y113582D01*
X34810Y113639D01*
X34865Y113694D01*
X34922Y113745D01*
X34982Y113794D01*
X35044Y113840D01*
X35109Y113882D01*
X35175Y113922D01*
X35244Y113957D01*
X35314Y113989D01*
X35386Y114018D01*
X35459Y114043D01*
X35533Y114064D01*
X35608Y114082D01*
X35684Y114095D01*
X35761Y114105D01*
X35838Y114111D01*
X35915Y114113D01*
X35992Y114111D01*
X36069Y114105D01*
X36146Y114095D01*
X36222Y114082D01*
X36297Y114064D01*
X36371Y114043D01*
X36444Y114018D01*
X36516Y113989D01*
X36586Y113957D01*
X36655Y113922D01*
X36721Y113882D01*
X36786Y113840D01*
X36848Y113794D01*
X36908Y113745D01*
X36965Y113694D01*
X37020Y113639D01*
X37071Y113582D01*
X37120Y113522D01*
X37166Y113460D01*
X37208Y113395D01*
X37248Y113329D01*
X37283Y113260D01*
X37315Y113190D01*
X37344Y113118D01*
X37369Y113045D01*
X37390Y112971D01*
X37408Y112896D01*
X37421Y112820D01*
X37431Y112743D01*
X37437Y112666D01*
X37439Y112589D01*
X37437Y112512D01*
X37431Y112435D01*
X37421Y112358D01*
X37408Y112282D01*
X37390Y112207D01*
X37369Y112133D01*
X37344Y112060D01*
X37315Y111988D01*
X37283Y111918D01*
X37248Y111849D01*
X37208Y111783D01*
X37166Y111718D01*
X37120Y111656D01*
X37071Y111596D01*
X37020Y111539D01*
X36965Y111484D01*
X36908Y111433D01*
X36848Y111384D01*
X36786Y111338D01*
X36721Y111296D01*
X36655Y111256D01*
X36586Y111221D01*
X36516Y111189D01*
X36444Y111160D01*
X36371Y111135D01*
X36297Y111114D01*
X36222Y111096D01*
X36146Y111083D01*
X36069Y111073D01*
X35992Y111067D01*
X35915Y111065D01*
X35838Y111067D01*
X35761Y111073D01*
X35684Y111083D01*
X35608Y111096D01*
X35533Y111114D01*
X35459Y111135D01*
X35386Y111160D01*
X35314Y111189D01*
X35244Y111221D01*
X35175Y111256D01*
X35109Y111296D01*
X35044Y111338D01*
X34982Y111384D01*
X34922Y111433D01*
X34865Y111484D01*
X34810Y111539D01*
X34759Y111596D01*
X34710Y111656D01*
X34664Y111718D01*
X34622Y111783D01*
X34582Y111849D01*
X34547Y111918D01*
X34515Y111988D01*
X34486Y112060D01*
X34461Y112133D01*
X34440Y112207D01*
X34422Y112282D01*
X34409Y112358D01*
X34399Y112435D01*
X34393Y112512D01*
X34391Y112589D01*
D12*
X57500Y78500D02*
X72500Y78500D01*
X72500Y109500D02*
X57500Y109500D01*
X57500Y36500D02*
X72500Y36500D01*
X72500Y67500D02*
X57500Y67500D01*
X57500Y-5500D02*
X72500Y-5500D01*
X72500Y25500D02*
X57500Y25500D01*
D13*
X175000Y-26000D02*
X175000Y-29000D01*
X175000Y-26000D02*
X178000Y-26000D01*
X178000Y-29000D01*
X185000Y-29000D01*
X185000Y120000D02*
X178000Y120000D01*
X178000Y117000D01*
X175000Y117000D01*
X175000Y120000D01*
X175000Y117000D02*
X175000Y-26000D01*
X185000Y-29000D02*
X185000Y120000D01*
X141000Y-29000D02*
X131000Y-29000D01*
X131000Y-17000D01*
X131000Y120000D02*
X141000Y120000D01*
X131000Y120000D02*
X131000Y108000D01*
X171000Y-29000D02*
X175000Y-29000D01*
X175000Y120000D02*
X171000Y120000D01*
D12*
X75783Y-16257D02*
X65177Y-26863D01*
X87097Y-48783D02*
X97703Y-38177D01*
M02*
