M48
;GenerationSoftware,Autodesk,EAGLE,9.0.0*%
;CreationDate,2018-05-26T20:21:05Z*%
FMAT,2
ICI,OFF
METRIC,TZ,000.000
T4C0.200
T3C0.250
T2C0.350
T1C0.500
%
G90
M71
T1
X7950Y19450
T2
X1950Y-1950
X1950Y6500
X1950Y3250
X1950Y650
X1950Y11050
X4550Y3100
X7950Y18600
T3
X0Y-2600
X0Y-3250
X0Y-650
X0Y9100
X0Y7800
X0Y-1950
X0Y11050
X0Y8450
X0Y6500
X0Y3250
X0Y650
X0Y5850
X0Y5200
X0Y4550
X0Y2600
X0Y1950
X0Y0
T4
X650Y9100
X650Y7800
X650Y8450
X650Y5850
X650Y5200
X650Y4550
X650Y2600
X650Y1950
X650Y11050
X650Y-1950
X650Y650
X650Y-650
X650Y3250
X650Y-3250
X650Y6500
X650Y0
X650Y-2600
M30