G75*
%MOIN*%
%OFA0B0*%
%FSLAX25Y25*%
%IPPOS*%
%LPD*%
%AMOC8*
5,1,8,0,0,1.08239X$1,22.5*
%
%ADD10C,0.00000*%
%ADD11C,0.00800*%
%ADD12C,0.05937*%
%ADD13C,0.02775*%
%ADD14C,0.03169*%
%ADD15C,0.16598*%
%ADD16C,0.01200*%
%ADD17C,0.05906*%
%ADD18C,0.04134*%
D10*
X0009500Y0011000D02*
X0241000Y0011000D01*
X0246000Y0011000D01*
X0249500Y0011000D01*
X0252500Y0011000D01*
X0253500Y0011000D01*
X0258500Y0016000D01*
X0258500Y0116000D01*
X0239000Y0135500D01*
X0239000Y0157000D01*
X0236500Y0159500D01*
X0017000Y0159500D01*
X0004500Y0147000D01*
X0004500Y0016000D01*
X0009500Y0011000D01*
D11*
X0198400Y0016400D02*
X0200535Y0018535D01*
X0200535Y0019069D01*
X0200001Y0019603D01*
X0198934Y0019603D01*
X0198400Y0019069D01*
X0198400Y0016400D02*
X0200535Y0016400D01*
D12*
X0065000Y0024000D03*
X0055000Y0024000D03*
X0045000Y0024000D03*
X0035000Y0024000D03*
X0025000Y0024000D03*
X0025000Y0034000D03*
X0035000Y0034000D03*
X0045000Y0034000D03*
X0055000Y0034000D03*
X0065000Y0034000D03*
D13*
X0077500Y0034000D03*
X0080500Y0029000D03*
X0081500Y0019000D03*
X0100500Y0014500D03*
X0115000Y0027000D03*
X0119500Y0024000D03*
X0127000Y0032500D03*
X0141500Y0028500D03*
X0134500Y0043500D03*
X0140000Y0049000D03*
X0152000Y0061000D03*
X0159000Y0068000D03*
X0171000Y0060500D03*
X0163000Y0054750D03*
X0189500Y0050000D03*
X0196500Y0055000D03*
X0217000Y0062500D03*
X0217000Y0066500D03*
X0203000Y0073500D03*
X0225500Y0081000D03*
X0227000Y0086000D03*
X0216358Y0093654D03*
X0213000Y0100500D03*
X0230500Y0107000D03*
X0195500Y0131000D03*
X0168500Y0115000D03*
X0146500Y0112000D03*
X0142000Y0116000D03*
X0135500Y0113500D03*
X0133500Y0124500D03*
X0131134Y0129500D03*
X0123000Y0124500D03*
X0110000Y0118000D03*
X0095000Y0124000D03*
X0091000Y0120000D03*
X0082000Y0127500D03*
X0100500Y0129500D03*
X0106500Y0132500D03*
X0116000Y0142500D03*
X0125000Y0144000D03*
X0138000Y0141000D03*
X0148000Y0141000D03*
X0165500Y0138500D03*
X0163000Y0129000D03*
X0149500Y0127000D03*
X0186500Y0152500D03*
X0150500Y0153500D03*
X0092000Y0147500D03*
X0060000Y0151000D03*
X0010500Y0118500D03*
X0026500Y0116000D03*
X0026500Y0109500D03*
X0043000Y0101000D03*
X0036500Y0084000D03*
X0056000Y0076500D03*
X0060500Y0080500D03*
X0072500Y0068500D03*
X0061000Y0059000D03*
X0066500Y0058000D03*
X0059000Y0052500D03*
X0052000Y0068000D03*
X0033000Y0065000D03*
X0025000Y0066000D03*
X0029000Y0046000D03*
X0088500Y0049500D03*
X0095500Y0043500D03*
X0100000Y0038000D03*
X0105500Y0032500D03*
X0113000Y0044500D03*
X0109000Y0048500D03*
X0105000Y0059000D03*
X0097000Y0060000D03*
X0093000Y0063000D03*
X0089000Y0068000D03*
X0100000Y0082500D03*
X0083500Y0090500D03*
X0079000Y0088000D03*
X0090000Y0096000D03*
X0096500Y0103500D03*
X0147500Y0079000D03*
X0168500Y0088500D03*
X0163000Y0095000D03*
X0158000Y0099500D03*
X0150500Y0098500D03*
X0240500Y0081000D03*
X0233000Y0027500D03*
X0228000Y0020000D03*
X0221000Y0020000D03*
X0221000Y0027500D03*
D14*
X0245000Y0035000D03*
X0253000Y0035000D03*
X0253000Y0043000D03*
X0245000Y0043000D03*
X0237500Y0043000D03*
X0230000Y0043000D03*
X0231000Y0055000D03*
X0243000Y0058500D03*
X0230000Y0065000D03*
X0253000Y0071000D03*
X0253000Y0078500D03*
X0207000Y0105000D03*
X0189000Y0107750D03*
X0179000Y0102000D03*
X0186750Y0082000D03*
X0220000Y0119000D03*
X0235500Y0119000D03*
X0251000Y0117000D03*
X0235000Y0132000D03*
X0224000Y0134500D03*
X0216500Y0137000D03*
X0098000Y0154500D03*
X0093000Y0154500D03*
X0060000Y0134000D03*
X0056000Y0126000D03*
X0050500Y0126000D03*
X0045000Y0126000D03*
X0045000Y0120500D03*
X0050500Y0120500D03*
X0056000Y0120500D03*
X0065000Y0124000D03*
X0076000Y0124000D03*
X0081500Y0120500D03*
X0086500Y0125500D03*
X0082000Y0110000D03*
X0055000Y0110000D03*
X0033000Y0121000D03*
X0028000Y0126000D03*
X0023000Y0121000D03*
X0023000Y0131000D03*
X0033000Y0131000D03*
X0045000Y0145500D03*
X0050500Y0145500D03*
X0050500Y0151000D03*
X0045000Y0151000D03*
X0045000Y0156500D03*
X0050500Y0156500D03*
X0018000Y0151000D03*
X0018500Y0066000D03*
X0010500Y0066000D03*
X0011000Y0046000D03*
X0017000Y0046000D03*
X0023000Y0046000D03*
X0072500Y0046000D03*
D15*
X0164000Y0023000D03*
D16*
X0144275Y0027948D02*
X0143852Y0026928D01*
X0143072Y0026148D01*
X0142052Y0025725D01*
X0140948Y0025725D01*
X0139928Y0026148D01*
X0139148Y0026928D01*
X0138725Y0027948D01*
X0138725Y0029052D01*
X0139148Y0030072D01*
X0139928Y0030852D01*
X0140948Y0031275D01*
X0142052Y0031275D01*
X0143072Y0030852D01*
X0143852Y0030072D01*
X0144275Y0029052D01*
X0144275Y0027948D01*
X0144205Y0027779D02*
X0230225Y0027779D01*
X0230225Y0028052D02*
X0230225Y0026948D01*
X0230648Y0025928D01*
X0231428Y0025148D01*
X0232448Y0024725D01*
X0233552Y0024725D01*
X0234572Y0025148D01*
X0235352Y0025928D01*
X0235775Y0026948D01*
X0235775Y0028052D01*
X0235352Y0029072D01*
X0234572Y0029852D01*
X0233552Y0030275D01*
X0232448Y0030275D01*
X0231428Y0029852D01*
X0230648Y0029072D01*
X0230225Y0028052D01*
X0230609Y0028978D02*
X0144275Y0028978D01*
X0143748Y0030176D02*
X0232210Y0030176D01*
X0233790Y0030176D02*
X0257113Y0030176D01*
X0257113Y0028978D02*
X0235391Y0028978D01*
X0235775Y0027779D02*
X0257113Y0027779D01*
X0257113Y0026581D02*
X0235623Y0026581D01*
X0234806Y0025382D02*
X0257113Y0025382D01*
X0257113Y0024184D02*
X0069356Y0024184D01*
X0069356Y0024866D02*
X0069356Y0023134D01*
X0068693Y0021533D01*
X0067467Y0020307D01*
X0065866Y0019644D01*
X0064134Y0019644D01*
X0062533Y0020307D01*
X0061307Y0021533D01*
X0060644Y0023134D01*
X0060644Y0024866D01*
X0061307Y0026467D01*
X0062533Y0027693D01*
X0064134Y0028356D01*
X0065866Y0028356D01*
X0067467Y0027693D01*
X0068693Y0026467D01*
X0069356Y0024866D01*
X0069142Y0025382D02*
X0112694Y0025382D01*
X0112648Y0025428D02*
X0113428Y0024648D01*
X0114448Y0024225D01*
X0115552Y0024225D01*
X0116572Y0024648D01*
X0117352Y0025428D01*
X0117775Y0026448D01*
X0117775Y0027552D01*
X0117352Y0028572D01*
X0116572Y0029352D01*
X0115552Y0029775D01*
X0114448Y0029775D01*
X0113428Y0029352D01*
X0112648Y0028572D01*
X0112225Y0027552D01*
X0112225Y0026448D01*
X0112648Y0025428D01*
X0112225Y0026581D02*
X0068580Y0026581D01*
X0067259Y0027779D02*
X0112319Y0027779D01*
X0113054Y0028978D02*
X0005887Y0028978D01*
X0005887Y0030176D02*
X0022491Y0030176D01*
X0022606Y0030093D02*
X0023246Y0029766D01*
X0023930Y0029544D01*
X0024616Y0029435D01*
X0024616Y0033616D01*
X0025384Y0033616D01*
X0025384Y0029435D01*
X0026070Y0029544D01*
X0026754Y0029766D01*
X0027394Y0030093D01*
X0027976Y0030515D01*
X0028485Y0031024D01*
X0028907Y0031606D01*
X0029234Y0032246D01*
X0029456Y0032930D01*
X0029565Y0033616D01*
X0025384Y0033616D01*
X0025384Y0034384D01*
X0029565Y0034384D01*
X0029456Y0035070D01*
X0029234Y0035754D01*
X0028907Y0036394D01*
X0028485Y0036976D01*
X0027976Y0037485D01*
X0027394Y0037907D01*
X0026754Y0038234D01*
X0026070Y0038456D01*
X0025384Y0038565D01*
X0025384Y0034384D01*
X0024616Y0034384D01*
X0024616Y0033616D01*
X0020435Y0033616D01*
X0020544Y0032930D01*
X0020766Y0032246D01*
X0021093Y0031606D01*
X0021515Y0031024D01*
X0022024Y0030515D01*
X0022606Y0030093D01*
X0021260Y0031375D02*
X0005887Y0031375D01*
X0005887Y0032573D02*
X0020660Y0032573D01*
X0020435Y0034384D02*
X0024616Y0034384D01*
X0024616Y0038565D01*
X0023930Y0038456D01*
X0023246Y0038234D01*
X0022606Y0037907D01*
X0022024Y0037485D01*
X0021515Y0036976D01*
X0021093Y0036394D01*
X0020766Y0035754D01*
X0020544Y0035070D01*
X0020435Y0034384D01*
X0020528Y0034970D02*
X0005887Y0034970D01*
X0005887Y0033772D02*
X0024616Y0033772D01*
X0025384Y0033772D02*
X0030644Y0033772D01*
X0030644Y0033134D02*
X0031307Y0031533D01*
X0032533Y0030307D01*
X0034134Y0029644D01*
X0035866Y0029644D01*
X0037467Y0030307D01*
X0038693Y0031533D01*
X0039356Y0033134D01*
X0039356Y0034866D01*
X0038693Y0036467D01*
X0037467Y0037693D01*
X0035866Y0038356D01*
X0034134Y0038356D01*
X0032533Y0037693D01*
X0031307Y0036467D01*
X0030644Y0034866D01*
X0030644Y0033134D01*
X0030876Y0032573D02*
X0029340Y0032573D01*
X0028740Y0031375D02*
X0031465Y0031375D01*
X0032849Y0030176D02*
X0027509Y0030176D01*
X0025384Y0030176D02*
X0024616Y0030176D01*
X0024616Y0031375D02*
X0025384Y0031375D01*
X0025384Y0032573D02*
X0024616Y0032573D01*
X0024616Y0034970D02*
X0025384Y0034970D01*
X0025384Y0036169D02*
X0024616Y0036169D01*
X0024616Y0037367D02*
X0025384Y0037367D01*
X0028094Y0037367D02*
X0032207Y0037367D01*
X0031184Y0036169D02*
X0029022Y0036169D01*
X0029472Y0034970D02*
X0030687Y0034970D01*
X0037793Y0037367D02*
X0042207Y0037367D01*
X0042533Y0037693D02*
X0041307Y0036467D01*
X0040644Y0034866D01*
X0040644Y0033134D01*
X0041307Y0031533D01*
X0042533Y0030307D01*
X0044134Y0029644D01*
X0045866Y0029644D01*
X0047467Y0030307D01*
X0048693Y0031533D01*
X0049356Y0033134D01*
X0049356Y0034866D01*
X0048693Y0036467D01*
X0047467Y0037693D01*
X0045866Y0038356D01*
X0044134Y0038356D01*
X0042533Y0037693D01*
X0041184Y0036169D02*
X0038816Y0036169D01*
X0039313Y0034970D02*
X0040687Y0034970D01*
X0040644Y0033772D02*
X0039356Y0033772D01*
X0039124Y0032573D02*
X0040876Y0032573D01*
X0041465Y0031375D02*
X0038535Y0031375D01*
X0037151Y0030176D02*
X0042849Y0030176D01*
X0044134Y0028356D02*
X0042533Y0027693D01*
X0041307Y0026467D01*
X0040644Y0024866D01*
X0040644Y0023134D01*
X0041307Y0021533D01*
X0042533Y0020307D01*
X0044134Y0019644D01*
X0045866Y0019644D01*
X0047467Y0020307D01*
X0048693Y0021533D01*
X0049356Y0023134D01*
X0049356Y0024866D01*
X0048693Y0026467D01*
X0047467Y0027693D01*
X0045866Y0028356D01*
X0044134Y0028356D01*
X0042741Y0027779D02*
X0037259Y0027779D01*
X0037467Y0027693D02*
X0035866Y0028356D01*
X0034134Y0028356D01*
X0032533Y0027693D01*
X0031307Y0026467D01*
X0030644Y0024866D01*
X0030644Y0023134D01*
X0031307Y0021533D01*
X0032533Y0020307D01*
X0034134Y0019644D01*
X0035866Y0019644D01*
X0037467Y0020307D01*
X0038693Y0021533D01*
X0039356Y0023134D01*
X0039356Y0024866D01*
X0038693Y0026467D01*
X0037467Y0027693D01*
X0038580Y0026581D02*
X0041420Y0026581D01*
X0040858Y0025382D02*
X0039142Y0025382D01*
X0039356Y0024184D02*
X0040644Y0024184D01*
X0040706Y0022985D02*
X0039294Y0022985D01*
X0038798Y0021787D02*
X0041202Y0021787D01*
X0042252Y0020588D02*
X0037748Y0020588D01*
X0032252Y0020588D02*
X0027748Y0020588D01*
X0027467Y0020307D02*
X0028693Y0021533D01*
X0029356Y0023134D01*
X0029356Y0024866D01*
X0028693Y0026467D01*
X0027467Y0027693D01*
X0025866Y0028356D01*
X0024134Y0028356D01*
X0022533Y0027693D01*
X0021307Y0026467D01*
X0020644Y0024866D01*
X0020644Y0023134D01*
X0021307Y0021533D01*
X0022533Y0020307D01*
X0024134Y0019644D01*
X0025866Y0019644D01*
X0027467Y0020307D01*
X0028798Y0021787D02*
X0031202Y0021787D01*
X0030706Y0022985D02*
X0029294Y0022985D01*
X0029356Y0024184D02*
X0030644Y0024184D01*
X0030858Y0025382D02*
X0029142Y0025382D01*
X0028580Y0026581D02*
X0031420Y0026581D01*
X0032741Y0027779D02*
X0027259Y0027779D01*
X0022741Y0027779D02*
X0005887Y0027779D01*
X0005887Y0026581D02*
X0021420Y0026581D01*
X0020858Y0025382D02*
X0005887Y0025382D01*
X0005887Y0024184D02*
X0020644Y0024184D01*
X0020706Y0022985D02*
X0005887Y0022985D01*
X0005887Y0021787D02*
X0021202Y0021787D01*
X0022252Y0020588D02*
X0005887Y0020588D01*
X0005887Y0019390D02*
X0078725Y0019390D01*
X0078725Y0019552D02*
X0078725Y0018448D01*
X0079148Y0017428D01*
X0079928Y0016648D01*
X0080948Y0016225D01*
X0082052Y0016225D01*
X0083072Y0016648D01*
X0083852Y0017428D01*
X0084275Y0018448D01*
X0084275Y0019552D01*
X0083852Y0020572D01*
X0083072Y0021352D01*
X0082052Y0021775D01*
X0080948Y0021775D01*
X0079928Y0021352D01*
X0079148Y0020572D01*
X0078725Y0019552D01*
X0079164Y0020588D02*
X0067748Y0020588D01*
X0068798Y0021787D02*
X0191600Y0021787D01*
X0191901Y0022087D02*
X0190913Y0021099D01*
X0190913Y0016299D01*
X0190913Y0014901D01*
X0191901Y0013913D01*
X0211999Y0013913D01*
X0212987Y0014901D01*
X0212987Y0021099D01*
X0211999Y0022087D01*
X0191901Y0022087D01*
X0190913Y0020588D02*
X0083836Y0020588D01*
X0084275Y0019390D02*
X0190913Y0019390D01*
X0190913Y0018191D02*
X0084168Y0018191D01*
X0083417Y0016993D02*
X0190913Y0016993D01*
X0190913Y0015794D02*
X0006668Y0015794D01*
X0005887Y0016575D02*
X0005887Y0146425D01*
X0017575Y0158113D01*
X0042451Y0158113D01*
X0042028Y0157091D01*
X0042028Y0155909D01*
X0042481Y0154817D01*
X0043317Y0153981D01*
X0043874Y0153750D01*
X0043317Y0153519D01*
X0042481Y0152683D01*
X0042028Y0151591D01*
X0042028Y0150409D01*
X0042481Y0149317D01*
X0043317Y0148481D01*
X0043874Y0148250D01*
X0043317Y0148019D01*
X0042481Y0147183D01*
X0042028Y0146091D01*
X0042028Y0144909D01*
X0042481Y0143817D01*
X0043317Y0142981D01*
X0044409Y0142528D01*
X0045591Y0142528D01*
X0046683Y0142981D01*
X0047519Y0143817D01*
X0047750Y0144374D01*
X0047981Y0143817D01*
X0048817Y0142981D01*
X0049909Y0142528D01*
X0051091Y0142528D01*
X0052183Y0142981D01*
X0053019Y0143817D01*
X0053472Y0144909D01*
X0053472Y0146091D01*
X0053019Y0147183D01*
X0052183Y0148019D01*
X0051626Y0148250D01*
X0052183Y0148481D01*
X0053019Y0149317D01*
X0053472Y0150409D01*
X0053472Y0151591D01*
X0053019Y0152683D01*
X0052183Y0153519D01*
X0051626Y0153750D01*
X0052183Y0153981D01*
X0053019Y0154817D01*
X0053472Y0155909D01*
X0053472Y0157091D01*
X0053049Y0158113D01*
X0235925Y0158113D01*
X0237613Y0156425D01*
X0237613Y0134925D01*
X0257113Y0115425D01*
X0257113Y0016575D01*
X0252925Y0012387D01*
X0010075Y0012387D01*
X0005887Y0016575D01*
X0005887Y0016993D02*
X0079583Y0016993D01*
X0078832Y0018191D02*
X0005887Y0018191D01*
X0007867Y0014596D02*
X0191218Y0014596D01*
X0212682Y0014596D02*
X0255133Y0014596D01*
X0256332Y0015794D02*
X0212987Y0015794D01*
X0212987Y0016993D02*
X0257113Y0016993D01*
X0257113Y0018191D02*
X0230115Y0018191D01*
X0230352Y0018428D02*
X0229572Y0017648D01*
X0228552Y0017225D01*
X0227448Y0017225D01*
X0226428Y0017648D01*
X0225648Y0018428D01*
X0225225Y0019448D01*
X0225225Y0020552D01*
X0225648Y0021572D01*
X0226428Y0022352D01*
X0227448Y0022775D01*
X0228552Y0022775D01*
X0229572Y0022352D01*
X0230352Y0021572D01*
X0230775Y0020552D01*
X0230775Y0019448D01*
X0230352Y0018428D01*
X0230751Y0019390D02*
X0257113Y0019390D01*
X0257113Y0020588D02*
X0230760Y0020588D01*
X0230138Y0021787D02*
X0257113Y0021787D01*
X0257113Y0022985D02*
X0069294Y0022985D01*
X0062252Y0020588D02*
X0057748Y0020588D01*
X0057467Y0020307D02*
X0058693Y0021533D01*
X0059356Y0023134D01*
X0059356Y0024866D01*
X0058693Y0026467D01*
X0057467Y0027693D01*
X0055866Y0028356D01*
X0054134Y0028356D01*
X0052533Y0027693D01*
X0051307Y0026467D01*
X0050644Y0024866D01*
X0050644Y0023134D01*
X0051307Y0021533D01*
X0052533Y0020307D01*
X0054134Y0019644D01*
X0055866Y0019644D01*
X0057467Y0020307D01*
X0058798Y0021787D02*
X0061202Y0021787D01*
X0060706Y0022985D02*
X0059294Y0022985D01*
X0059356Y0024184D02*
X0060644Y0024184D01*
X0060858Y0025382D02*
X0059142Y0025382D01*
X0058580Y0026581D02*
X0061420Y0026581D01*
X0062741Y0027779D02*
X0057259Y0027779D01*
X0055866Y0029644D02*
X0054134Y0029644D01*
X0052533Y0030307D01*
X0051307Y0031533D01*
X0050644Y0033134D01*
X0050644Y0034866D01*
X0051307Y0036467D01*
X0052533Y0037693D01*
X0054134Y0038356D01*
X0055866Y0038356D01*
X0057467Y0037693D01*
X0058693Y0036467D01*
X0059356Y0034866D01*
X0059356Y0033134D01*
X0058693Y0031533D01*
X0057467Y0030307D01*
X0055866Y0029644D01*
X0057151Y0030176D02*
X0062491Y0030176D01*
X0062606Y0030093D02*
X0063246Y0029766D01*
X0063930Y0029544D01*
X0064616Y0029435D01*
X0064616Y0033616D01*
X0065384Y0033616D01*
X0065384Y0029435D01*
X0066070Y0029544D01*
X0066754Y0029766D01*
X0067394Y0030093D01*
X0067976Y0030515D01*
X0068485Y0031024D01*
X0068907Y0031606D01*
X0069234Y0032246D01*
X0069456Y0032930D01*
X0069565Y0033616D01*
X0065384Y0033616D01*
X0065384Y0034384D01*
X0069565Y0034384D01*
X0069456Y0035070D01*
X0069234Y0035754D01*
X0068907Y0036394D01*
X0068485Y0036976D01*
X0067976Y0037485D01*
X0067394Y0037907D01*
X0066754Y0038234D01*
X0066070Y0038456D01*
X0065384Y0038565D01*
X0065384Y0034384D01*
X0064616Y0034384D01*
X0064616Y0033616D01*
X0060435Y0033616D01*
X0060544Y0032930D01*
X0060766Y0032246D01*
X0061093Y0031606D01*
X0061515Y0031024D01*
X0062024Y0030515D01*
X0062606Y0030093D01*
X0061260Y0031375D02*
X0058535Y0031375D01*
X0059124Y0032573D02*
X0060660Y0032573D01*
X0059356Y0033772D02*
X0064616Y0033772D01*
X0064616Y0034384D02*
X0060435Y0034384D01*
X0060544Y0035070D01*
X0060766Y0035754D01*
X0061093Y0036394D01*
X0061515Y0036976D01*
X0062024Y0037485D01*
X0062606Y0037907D01*
X0063246Y0038234D01*
X0063930Y0038456D01*
X0064616Y0038565D01*
X0064616Y0034384D01*
X0064616Y0034970D02*
X0065384Y0034970D01*
X0065384Y0033772D02*
X0074725Y0033772D01*
X0074725Y0033448D02*
X0075148Y0032428D01*
X0075928Y0031648D01*
X0076948Y0031225D01*
X0078052Y0031225D01*
X0079072Y0031648D01*
X0079852Y0032428D01*
X0080275Y0033448D01*
X0080275Y0034552D01*
X0079852Y0035572D01*
X0079072Y0036352D01*
X0078052Y0036775D01*
X0076948Y0036775D01*
X0075928Y0036352D01*
X0075148Y0035572D01*
X0074725Y0034552D01*
X0074725Y0033448D01*
X0075088Y0032573D02*
X0069340Y0032573D01*
X0068740Y0031375D02*
X0076587Y0031375D01*
X0078413Y0031375D02*
X0102963Y0031375D01*
X0103148Y0030928D02*
X0103928Y0030148D01*
X0104948Y0029725D01*
X0106052Y0029725D01*
X0107072Y0030148D01*
X0107852Y0030928D01*
X0108275Y0031948D01*
X0108275Y0033052D01*
X0107852Y0034072D01*
X0107072Y0034852D01*
X0106052Y0035275D01*
X0104948Y0035275D01*
X0103928Y0034852D01*
X0103148Y0034072D01*
X0102725Y0033052D01*
X0102725Y0031948D01*
X0103148Y0030928D01*
X0103900Y0030176D02*
X0067509Y0030176D01*
X0065384Y0030176D02*
X0064616Y0030176D01*
X0064616Y0031375D02*
X0065384Y0031375D01*
X0065384Y0032573D02*
X0064616Y0032573D01*
X0064616Y0036169D02*
X0065384Y0036169D01*
X0065384Y0037367D02*
X0064616Y0037367D01*
X0061906Y0037367D02*
X0057793Y0037367D01*
X0058816Y0036169D02*
X0060978Y0036169D01*
X0060528Y0034970D02*
X0059313Y0034970D01*
X0052207Y0037367D02*
X0047793Y0037367D01*
X0048816Y0036169D02*
X0051184Y0036169D01*
X0050687Y0034970D02*
X0049313Y0034970D01*
X0049356Y0033772D02*
X0050644Y0033772D01*
X0050876Y0032573D02*
X0049124Y0032573D01*
X0048535Y0031375D02*
X0051465Y0031375D01*
X0052849Y0030176D02*
X0047151Y0030176D01*
X0047259Y0027779D02*
X0052741Y0027779D01*
X0051420Y0026581D02*
X0048580Y0026581D01*
X0049142Y0025382D02*
X0050858Y0025382D01*
X0050644Y0024184D02*
X0049356Y0024184D01*
X0049294Y0022985D02*
X0050706Y0022985D01*
X0051202Y0021787D02*
X0048798Y0021787D01*
X0047748Y0020588D02*
X0052252Y0020588D01*
X0069472Y0034970D02*
X0074898Y0034970D01*
X0075745Y0036169D02*
X0069022Y0036169D01*
X0068094Y0037367D02*
X0097259Y0037367D01*
X0097225Y0037448D02*
X0097648Y0036428D01*
X0098428Y0035648D01*
X0099448Y0035225D01*
X0100552Y0035225D01*
X0101572Y0035648D01*
X0102352Y0036428D01*
X0102775Y0037448D01*
X0102775Y0038552D01*
X0102352Y0039572D01*
X0101572Y0040352D01*
X0100552Y0040775D01*
X0099448Y0040775D01*
X0098428Y0040352D01*
X0097648Y0039572D01*
X0097225Y0038552D01*
X0097225Y0037448D01*
X0097231Y0038566D02*
X0005887Y0038566D01*
X0005887Y0039764D02*
X0097840Y0039764D01*
X0097907Y0036169D02*
X0079255Y0036169D01*
X0080102Y0034970D02*
X0104213Y0034970D01*
X0103023Y0033772D02*
X0080275Y0033772D01*
X0079912Y0032573D02*
X0102725Y0032573D01*
X0102093Y0036169D02*
X0242268Y0036169D01*
X0242481Y0036683D02*
X0242028Y0035591D01*
X0242028Y0034409D01*
X0242481Y0033317D01*
X0243317Y0032481D01*
X0244409Y0032028D01*
X0245591Y0032028D01*
X0246683Y0032481D01*
X0247519Y0033317D01*
X0247972Y0034409D01*
X0247972Y0035591D01*
X0247519Y0036683D01*
X0246683Y0037519D01*
X0245591Y0037972D01*
X0244409Y0037972D01*
X0243317Y0037519D01*
X0242481Y0036683D01*
X0243165Y0037367D02*
X0102741Y0037367D01*
X0102769Y0038566D02*
X0257113Y0038566D01*
X0257113Y0039764D02*
X0102160Y0039764D01*
X0106787Y0034970D02*
X0125713Y0034970D01*
X0125428Y0034852D02*
X0124648Y0034072D01*
X0124225Y0033052D01*
X0124225Y0031948D01*
X0124648Y0030928D01*
X0125428Y0030148D01*
X0126448Y0029725D01*
X0127552Y0029725D01*
X0128572Y0030148D01*
X0129352Y0030928D01*
X0129775Y0031948D01*
X0129775Y0033052D01*
X0129352Y0034072D01*
X0128572Y0034852D01*
X0127552Y0035275D01*
X0126448Y0035275D01*
X0125428Y0034852D01*
X0124523Y0033772D02*
X0107977Y0033772D01*
X0108275Y0032573D02*
X0124225Y0032573D01*
X0124463Y0031375D02*
X0108037Y0031375D01*
X0107100Y0030176D02*
X0125400Y0030176D01*
X0128600Y0030176D02*
X0139252Y0030176D01*
X0138725Y0028978D02*
X0116946Y0028978D01*
X0117681Y0027779D02*
X0138795Y0027779D01*
X0139495Y0026581D02*
X0117775Y0026581D01*
X0117306Y0025382D02*
X0231194Y0025382D01*
X0230377Y0026581D02*
X0143505Y0026581D01*
X0129775Y0032573D02*
X0243224Y0032573D01*
X0242292Y0033772D02*
X0129477Y0033772D01*
X0128287Y0034970D02*
X0242028Y0034970D01*
X0246776Y0032573D02*
X0251224Y0032573D01*
X0251317Y0032481D02*
X0250481Y0033317D01*
X0250028Y0034409D01*
X0250028Y0035591D01*
X0250481Y0036683D01*
X0251317Y0037519D01*
X0252409Y0037972D01*
X0253591Y0037972D01*
X0254683Y0037519D01*
X0255519Y0036683D01*
X0255972Y0035591D01*
X0255972Y0034409D01*
X0255519Y0033317D01*
X0254683Y0032481D01*
X0253591Y0032028D01*
X0252409Y0032028D01*
X0251317Y0032481D01*
X0250292Y0033772D02*
X0247708Y0033772D01*
X0247972Y0034970D02*
X0250028Y0034970D01*
X0250268Y0036169D02*
X0247732Y0036169D01*
X0246835Y0037367D02*
X0251165Y0037367D01*
X0252409Y0040028D02*
X0251317Y0040481D01*
X0250481Y0041317D01*
X0250028Y0042409D01*
X0250028Y0043591D01*
X0250481Y0044683D01*
X0251317Y0045519D01*
X0252409Y0045972D01*
X0253591Y0045972D01*
X0254683Y0045519D01*
X0255519Y0044683D01*
X0255972Y0043591D01*
X0255972Y0042409D01*
X0255519Y0041317D01*
X0254683Y0040481D01*
X0253591Y0040028D01*
X0252409Y0040028D01*
X0250835Y0040963D02*
X0247165Y0040963D01*
X0247519Y0041317D02*
X0247972Y0042409D01*
X0247972Y0043591D01*
X0247519Y0044683D01*
X0246683Y0045519D01*
X0245591Y0045972D01*
X0244409Y0045972D01*
X0243317Y0045519D01*
X0242481Y0044683D01*
X0242028Y0043591D01*
X0242028Y0042409D01*
X0242481Y0041317D01*
X0243317Y0040481D01*
X0244409Y0040028D01*
X0245591Y0040028D01*
X0246683Y0040481D01*
X0247519Y0041317D01*
X0247869Y0042161D02*
X0250131Y0042161D01*
X0250028Y0043360D02*
X0247972Y0043360D01*
X0247571Y0044558D02*
X0250429Y0044558D01*
X0251890Y0045757D02*
X0246110Y0045757D01*
X0243890Y0045757D02*
X0238610Y0045757D01*
X0238091Y0045972D02*
X0239183Y0045519D01*
X0240019Y0044683D01*
X0240472Y0043591D01*
X0240472Y0042409D01*
X0240019Y0041317D01*
X0239183Y0040481D01*
X0238091Y0040028D01*
X0236909Y0040028D01*
X0235817Y0040481D01*
X0234981Y0041317D01*
X0234528Y0042409D01*
X0234528Y0043591D01*
X0234981Y0044683D01*
X0235817Y0045519D01*
X0236909Y0045972D01*
X0238091Y0045972D01*
X0236390Y0045757D02*
X0231110Y0045757D01*
X0230591Y0045972D02*
X0229409Y0045972D01*
X0228317Y0045519D01*
X0227481Y0044683D01*
X0227028Y0043591D01*
X0227028Y0042409D01*
X0227481Y0041317D01*
X0228317Y0040481D01*
X0229409Y0040028D01*
X0230591Y0040028D01*
X0231683Y0040481D01*
X0232519Y0041317D01*
X0232972Y0042409D01*
X0232972Y0043591D01*
X0232519Y0044683D01*
X0231683Y0045519D01*
X0230591Y0045972D01*
X0228890Y0045757D02*
X0136167Y0045757D01*
X0136072Y0045852D02*
X0135052Y0046275D01*
X0133948Y0046275D01*
X0132928Y0045852D01*
X0132148Y0045072D01*
X0131725Y0044052D01*
X0131725Y0042948D01*
X0132148Y0041928D01*
X0132928Y0041148D01*
X0133948Y0040725D01*
X0135052Y0040725D01*
X0136072Y0041148D01*
X0136852Y0041928D01*
X0137275Y0042948D01*
X0137275Y0044052D01*
X0136852Y0045072D01*
X0136072Y0045852D01*
X0137065Y0044558D02*
X0227429Y0044558D01*
X0227028Y0043360D02*
X0137275Y0043360D01*
X0136949Y0042161D02*
X0227131Y0042161D01*
X0227835Y0040963D02*
X0135626Y0040963D01*
X0133374Y0040963D02*
X0005887Y0040963D01*
X0005887Y0042161D02*
X0111415Y0042161D01*
X0111428Y0042148D02*
X0112448Y0041725D01*
X0113552Y0041725D01*
X0114572Y0042148D01*
X0115352Y0042928D01*
X0115775Y0043948D01*
X0115775Y0045052D01*
X0115352Y0046072D01*
X0114572Y0046852D01*
X0113552Y0047275D01*
X0112448Y0047275D01*
X0111428Y0046852D01*
X0110648Y0046072D01*
X0110225Y0045052D01*
X0110225Y0043948D01*
X0110648Y0042928D01*
X0111428Y0042148D01*
X0110469Y0043360D02*
X0029877Y0043360D01*
X0029552Y0043225D02*
X0030572Y0043648D01*
X0031352Y0044428D01*
X0031775Y0045448D01*
X0031775Y0046552D01*
X0031352Y0047572D01*
X0030572Y0048352D01*
X0029552Y0048775D01*
X0028448Y0048775D01*
X0027428Y0048352D01*
X0026648Y0047572D01*
X0026225Y0046552D01*
X0026225Y0045448D01*
X0026648Y0044428D01*
X0027428Y0043648D01*
X0028448Y0043225D01*
X0029552Y0043225D01*
X0028123Y0043360D02*
X0005887Y0043360D01*
X0005887Y0044558D02*
X0026594Y0044558D01*
X0026225Y0045757D02*
X0005887Y0045757D01*
X0005887Y0046955D02*
X0026392Y0046955D01*
X0027230Y0048154D02*
X0005887Y0048154D01*
X0005887Y0049352D02*
X0085725Y0049352D01*
X0085725Y0048948D02*
X0086148Y0047928D01*
X0086928Y0047148D01*
X0087948Y0046725D01*
X0089052Y0046725D01*
X0090072Y0047148D01*
X0090852Y0047928D01*
X0091275Y0048948D01*
X0091275Y0050052D01*
X0090852Y0051072D01*
X0090072Y0051852D01*
X0089052Y0052275D01*
X0087948Y0052275D01*
X0086928Y0051852D01*
X0086148Y0051072D01*
X0085725Y0050052D01*
X0085725Y0048948D01*
X0086054Y0048154D02*
X0030770Y0048154D01*
X0031608Y0046955D02*
X0087392Y0046955D01*
X0089608Y0046955D02*
X0106636Y0046955D01*
X0106648Y0046928D02*
X0107428Y0046148D01*
X0108448Y0045725D01*
X0109552Y0045725D01*
X0110572Y0046148D01*
X0111352Y0046928D01*
X0111775Y0047948D01*
X0111775Y0049052D01*
X0111352Y0050072D01*
X0110572Y0050852D01*
X0109552Y0051275D01*
X0108448Y0051275D01*
X0107428Y0050852D01*
X0106648Y0050072D01*
X0106225Y0049052D01*
X0106225Y0047948D01*
X0106648Y0046928D01*
X0106225Y0048154D02*
X0090946Y0048154D01*
X0091275Y0049352D02*
X0106350Y0049352D01*
X0107127Y0050551D02*
X0091068Y0050551D01*
X0090175Y0051749D02*
X0139387Y0051749D01*
X0139448Y0051775D02*
X0138428Y0051352D01*
X0137648Y0050572D01*
X0137225Y0049552D01*
X0137225Y0048448D01*
X0137648Y0047428D01*
X0138428Y0046648D01*
X0139448Y0046225D01*
X0140552Y0046225D01*
X0141572Y0046648D01*
X0142352Y0047428D01*
X0142775Y0048448D01*
X0142775Y0049552D01*
X0142352Y0050572D01*
X0141572Y0051352D01*
X0140552Y0051775D01*
X0139448Y0051775D01*
X0140613Y0051749D02*
X0257113Y0051749D01*
X0257113Y0050551D02*
X0142361Y0050551D01*
X0142775Y0049352D02*
X0257113Y0049352D01*
X0257113Y0048154D02*
X0142653Y0048154D01*
X0141879Y0046955D02*
X0257113Y0046955D01*
X0257113Y0045757D02*
X0254110Y0045757D01*
X0255571Y0044558D02*
X0257113Y0044558D01*
X0257113Y0043360D02*
X0255972Y0043360D01*
X0255869Y0042161D02*
X0257113Y0042161D01*
X0257113Y0040963D02*
X0255165Y0040963D01*
X0254835Y0037367D02*
X0257113Y0037367D01*
X0257113Y0036169D02*
X0255732Y0036169D01*
X0255972Y0034970D02*
X0257113Y0034970D01*
X0257113Y0033772D02*
X0255708Y0033772D01*
X0254776Y0032573D02*
X0257113Y0032573D01*
X0257113Y0031375D02*
X0129537Y0031375D01*
X0132051Y0042161D02*
X0114585Y0042161D01*
X0115531Y0043360D02*
X0131725Y0043360D01*
X0131935Y0044558D02*
X0115775Y0044558D01*
X0115483Y0045757D02*
X0132833Y0045757D01*
X0137347Y0048154D02*
X0111775Y0048154D01*
X0111677Y0046955D02*
X0111364Y0046955D01*
X0110517Y0045757D02*
X0109628Y0045757D01*
X0108372Y0045757D02*
X0031775Y0045757D01*
X0031406Y0044558D02*
X0110225Y0044558D01*
X0114323Y0046955D02*
X0138120Y0046955D01*
X0137225Y0049352D02*
X0111650Y0049352D01*
X0110873Y0050551D02*
X0137639Y0050551D01*
X0149648Y0059428D02*
X0150428Y0058648D01*
X0151448Y0058225D01*
X0152552Y0058225D01*
X0153572Y0058648D01*
X0154352Y0059428D01*
X0154775Y0060448D01*
X0154775Y0061552D01*
X0154352Y0062572D01*
X0153572Y0063352D01*
X0152552Y0063775D01*
X0151448Y0063775D01*
X0150428Y0063352D01*
X0149648Y0062572D01*
X0149225Y0061552D01*
X0149225Y0060448D01*
X0149648Y0059428D01*
X0150135Y0058940D02*
X0107775Y0058940D01*
X0107775Y0058448D02*
X0107775Y0059552D01*
X0107352Y0060572D01*
X0106572Y0061352D01*
X0105552Y0061775D01*
X0104448Y0061775D01*
X0103428Y0061352D01*
X0102648Y0060572D01*
X0102225Y0059552D01*
X0102225Y0058448D01*
X0102648Y0057428D01*
X0103428Y0056648D01*
X0104448Y0056225D01*
X0105552Y0056225D01*
X0106572Y0056648D01*
X0107352Y0057428D01*
X0107775Y0058448D01*
X0107482Y0057742D02*
X0170408Y0057742D01*
X0170448Y0057725D02*
X0171552Y0057725D01*
X0172572Y0058148D01*
X0173352Y0058928D01*
X0173775Y0059948D01*
X0173775Y0061052D01*
X0173352Y0062072D01*
X0172572Y0062852D01*
X0171552Y0063275D01*
X0170448Y0063275D01*
X0169428Y0062852D01*
X0168648Y0062072D01*
X0168225Y0061052D01*
X0168225Y0059948D01*
X0168648Y0058928D01*
X0169428Y0058148D01*
X0170448Y0057725D01*
X0171592Y0057742D02*
X0195869Y0057742D01*
X0195948Y0057775D02*
X0194928Y0057352D01*
X0194148Y0056572D01*
X0193725Y0055552D01*
X0193725Y0054448D01*
X0194148Y0053428D01*
X0194928Y0052648D01*
X0195948Y0052225D01*
X0197052Y0052225D01*
X0198072Y0052648D01*
X0198852Y0053428D01*
X0199275Y0054448D01*
X0199275Y0055552D01*
X0198852Y0056572D01*
X0198072Y0057352D01*
X0197052Y0057775D01*
X0195948Y0057775D01*
X0197131Y0057742D02*
X0257113Y0057742D01*
X0257113Y0058940D02*
X0173357Y0058940D01*
X0173775Y0060139D02*
X0215449Y0060139D01*
X0215428Y0060148D02*
X0216448Y0059725D01*
X0217552Y0059725D01*
X0218572Y0060148D01*
X0219352Y0060928D01*
X0219775Y0061948D01*
X0219775Y0063052D01*
X0219352Y0064072D01*
X0218924Y0064500D01*
X0219352Y0064928D01*
X0219775Y0065948D01*
X0219775Y0067052D01*
X0219352Y0068072D01*
X0218572Y0068852D01*
X0217552Y0069275D01*
X0216448Y0069275D01*
X0215428Y0068852D01*
X0214648Y0068072D01*
X0214225Y0067052D01*
X0214225Y0065948D01*
X0214648Y0064928D01*
X0215076Y0064500D01*
X0214648Y0064072D01*
X0214225Y0063052D01*
X0214225Y0061948D01*
X0214648Y0060928D01*
X0215428Y0060148D01*
X0214478Y0061337D02*
X0173657Y0061337D01*
X0172888Y0062536D02*
X0214225Y0062536D01*
X0214508Y0063734D02*
X0152649Y0063734D01*
X0151351Y0063734D02*
X0095699Y0063734D01*
X0095775Y0063552D02*
X0095352Y0064572D01*
X0094572Y0065352D01*
X0093552Y0065775D01*
X0092448Y0065775D01*
X0091428Y0065352D01*
X0090648Y0064572D01*
X0090225Y0063552D01*
X0090225Y0062448D01*
X0090648Y0061428D01*
X0091428Y0060648D01*
X0092448Y0060225D01*
X0093552Y0060225D01*
X0094225Y0060504D01*
X0094225Y0059448D01*
X0094648Y0058428D01*
X0095428Y0057648D01*
X0096448Y0057225D01*
X0097552Y0057225D01*
X0098572Y0057648D01*
X0099352Y0058428D01*
X0099775Y0059448D01*
X0099775Y0060552D01*
X0099352Y0061572D01*
X0098572Y0062352D01*
X0097552Y0062775D01*
X0096448Y0062775D01*
X0095775Y0062496D01*
X0095775Y0063552D01*
X0095775Y0062536D02*
X0095872Y0062536D01*
X0098128Y0062536D02*
X0149633Y0062536D01*
X0149225Y0061337D02*
X0106587Y0061337D01*
X0107532Y0060139D02*
X0149353Y0060139D01*
X0153865Y0058940D02*
X0168643Y0058940D01*
X0168225Y0060139D02*
X0154647Y0060139D01*
X0154775Y0061337D02*
X0168343Y0061337D01*
X0169112Y0062536D02*
X0154367Y0062536D01*
X0157428Y0065648D02*
X0158448Y0065225D01*
X0159552Y0065225D01*
X0160572Y0065648D01*
X0161352Y0066428D01*
X0161775Y0067448D01*
X0161775Y0068552D01*
X0161352Y0069572D01*
X0160572Y0070352D01*
X0159552Y0070775D01*
X0158448Y0070775D01*
X0157428Y0070352D01*
X0156648Y0069572D01*
X0156225Y0068552D01*
X0156225Y0067448D01*
X0156648Y0066428D01*
X0157428Y0065648D01*
X0156944Y0066132D02*
X0074033Y0066132D01*
X0074072Y0066148D02*
X0074852Y0066928D01*
X0075275Y0067948D01*
X0075275Y0069052D01*
X0074852Y0070072D01*
X0074072Y0070852D01*
X0073052Y0071275D01*
X0071948Y0071275D01*
X0070928Y0070852D01*
X0070148Y0070072D01*
X0069725Y0069052D01*
X0069725Y0067948D01*
X0070148Y0066928D01*
X0070928Y0066148D01*
X0071948Y0065725D01*
X0073052Y0065725D01*
X0074072Y0066148D01*
X0075019Y0067330D02*
X0156274Y0067330D01*
X0156225Y0068529D02*
X0075275Y0068529D01*
X0074995Y0069727D02*
X0156803Y0069727D01*
X0161197Y0069727D02*
X0257113Y0069727D01*
X0257113Y0068529D02*
X0218896Y0068529D01*
X0219660Y0067330D02*
X0257113Y0067330D01*
X0257113Y0066132D02*
X0219775Y0066132D01*
X0219354Y0064933D02*
X0257113Y0064933D01*
X0257113Y0063734D02*
X0219492Y0063734D01*
X0219775Y0062536D02*
X0257113Y0062536D01*
X0257113Y0061337D02*
X0219522Y0061337D01*
X0218551Y0060139D02*
X0257113Y0060139D01*
X0257113Y0056543D02*
X0198864Y0056543D01*
X0199275Y0055345D02*
X0257113Y0055345D01*
X0257113Y0054146D02*
X0199150Y0054146D01*
X0198372Y0052948D02*
X0257113Y0052948D01*
X0242429Y0044558D02*
X0240071Y0044558D01*
X0240472Y0043360D02*
X0242028Y0043360D01*
X0242131Y0042161D02*
X0240369Y0042161D01*
X0239665Y0040963D02*
X0242835Y0040963D01*
X0235335Y0040963D02*
X0232165Y0040963D01*
X0232869Y0042161D02*
X0234631Y0042161D01*
X0234528Y0043360D02*
X0232972Y0043360D01*
X0232571Y0044558D02*
X0234929Y0044558D01*
X0214646Y0064933D02*
X0094991Y0064933D01*
X0091009Y0064933D02*
X0035775Y0064933D01*
X0035775Y0064448D02*
X0035352Y0063428D01*
X0034572Y0062648D01*
X0033552Y0062225D01*
X0032448Y0062225D01*
X0031428Y0062648D01*
X0030648Y0063428D01*
X0030225Y0064448D01*
X0030225Y0065552D01*
X0030648Y0066572D01*
X0031428Y0067352D01*
X0032448Y0067775D01*
X0033552Y0067775D01*
X0034572Y0067352D01*
X0035352Y0066572D01*
X0035775Y0065552D01*
X0035775Y0064448D01*
X0035479Y0063734D02*
X0090301Y0063734D01*
X0090225Y0062536D02*
X0034302Y0062536D01*
X0031698Y0062536D02*
X0005887Y0062536D01*
X0005887Y0063734D02*
X0023341Y0063734D01*
X0023428Y0063648D02*
X0024448Y0063225D01*
X0025552Y0063225D01*
X0026572Y0063648D01*
X0027352Y0064428D01*
X0027775Y0065448D01*
X0027775Y0066552D01*
X0027352Y0067572D01*
X0026572Y0068352D01*
X0025552Y0068775D01*
X0024448Y0068775D01*
X0023428Y0068352D01*
X0022648Y0067572D01*
X0022225Y0066552D01*
X0022225Y0065448D01*
X0022648Y0064428D01*
X0023428Y0063648D01*
X0022439Y0064933D02*
X0005887Y0064933D01*
X0005887Y0066132D02*
X0022225Y0066132D01*
X0022548Y0067330D02*
X0005887Y0067330D01*
X0005887Y0068529D02*
X0023854Y0068529D01*
X0026146Y0068529D02*
X0049225Y0068529D01*
X0049225Y0068552D02*
X0049225Y0067448D01*
X0049648Y0066428D01*
X0050428Y0065648D01*
X0051448Y0065225D01*
X0052552Y0065225D01*
X0053572Y0065648D01*
X0054352Y0066428D01*
X0054775Y0067448D01*
X0054775Y0068552D01*
X0054352Y0069572D01*
X0053572Y0070352D01*
X0052552Y0070775D01*
X0051448Y0070775D01*
X0050428Y0070352D01*
X0049648Y0069572D01*
X0049225Y0068552D01*
X0049274Y0067330D02*
X0034594Y0067330D01*
X0035535Y0066132D02*
X0049944Y0066132D01*
X0049803Y0069727D02*
X0005887Y0069727D01*
X0005887Y0070926D02*
X0071105Y0070926D01*
X0070005Y0069727D02*
X0054197Y0069727D01*
X0054775Y0068529D02*
X0069725Y0068529D01*
X0069981Y0067330D02*
X0054726Y0067330D01*
X0054056Y0066132D02*
X0070967Y0066132D01*
X0073895Y0070926D02*
X0257113Y0070926D01*
X0257113Y0072124D02*
X0005887Y0072124D01*
X0005887Y0073323D02*
X0257113Y0073323D01*
X0257113Y0074521D02*
X0005887Y0074521D01*
X0005887Y0075720D02*
X0257113Y0075720D01*
X0257113Y0076918D02*
X0005887Y0076918D01*
X0005887Y0078117D02*
X0059003Y0078117D01*
X0058928Y0078148D02*
X0059948Y0077725D01*
X0061052Y0077725D01*
X0062072Y0078148D01*
X0062852Y0078928D01*
X0063275Y0079948D01*
X0063275Y0081052D01*
X0062852Y0082072D01*
X0062072Y0082852D01*
X0061052Y0083275D01*
X0059948Y0083275D01*
X0058928Y0082852D01*
X0058148Y0082072D01*
X0057725Y0081052D01*
X0057725Y0079948D01*
X0058148Y0078928D01*
X0058928Y0078148D01*
X0057987Y0079315D02*
X0005887Y0079315D01*
X0005887Y0080514D02*
X0057725Y0080514D01*
X0057999Y0081712D02*
X0038136Y0081712D01*
X0038072Y0081648D02*
X0038852Y0082428D01*
X0039275Y0083448D01*
X0039275Y0084552D01*
X0038852Y0085572D01*
X0038072Y0086352D01*
X0037052Y0086775D01*
X0035948Y0086775D01*
X0034928Y0086352D01*
X0034148Y0085572D01*
X0033725Y0084552D01*
X0033725Y0083448D01*
X0034148Y0082428D01*
X0034928Y0081648D01*
X0035948Y0081225D01*
X0037052Y0081225D01*
X0038072Y0081648D01*
X0039052Y0082911D02*
X0059069Y0082911D01*
X0061931Y0082911D02*
X0097225Y0082911D01*
X0097225Y0083052D02*
X0097225Y0081948D01*
X0097648Y0080928D01*
X0098428Y0080148D01*
X0099448Y0079725D01*
X0100552Y0079725D01*
X0101572Y0080148D01*
X0102352Y0080928D01*
X0102775Y0081948D01*
X0102775Y0083052D01*
X0102352Y0084072D01*
X0101572Y0084852D01*
X0100552Y0085275D01*
X0099448Y0085275D01*
X0098428Y0084852D01*
X0097648Y0084072D01*
X0097225Y0083052D01*
X0097685Y0084109D02*
X0039275Y0084109D01*
X0038962Y0085308D02*
X0224283Y0085308D01*
X0224225Y0085448D02*
X0224648Y0084428D01*
X0225301Y0083775D01*
X0224948Y0083775D01*
X0223928Y0083352D01*
X0223148Y0082572D01*
X0222725Y0081552D01*
X0222725Y0080448D01*
X0223148Y0079428D01*
X0223928Y0078648D01*
X0224948Y0078225D01*
X0226052Y0078225D01*
X0227072Y0078648D01*
X0227852Y0079428D01*
X0228275Y0080448D01*
X0228275Y0081552D01*
X0227852Y0082572D01*
X0227199Y0083225D01*
X0227552Y0083225D01*
X0228572Y0083648D01*
X0229352Y0084428D01*
X0229775Y0085448D01*
X0229775Y0086552D01*
X0229352Y0087572D01*
X0228572Y0088352D01*
X0227552Y0088775D01*
X0226448Y0088775D01*
X0225428Y0088352D01*
X0224648Y0087572D01*
X0224225Y0086552D01*
X0224225Y0085448D01*
X0224225Y0086506D02*
X0170430Y0086506D01*
X0170072Y0086148D02*
X0170852Y0086928D01*
X0171275Y0087948D01*
X0171275Y0089052D01*
X0170852Y0090072D01*
X0170072Y0090852D01*
X0169052Y0091275D01*
X0167948Y0091275D01*
X0166928Y0090852D01*
X0166148Y0090072D01*
X0165725Y0089052D01*
X0165725Y0087948D01*
X0166148Y0086928D01*
X0166928Y0086148D01*
X0167948Y0085725D01*
X0169052Y0085725D01*
X0170072Y0086148D01*
X0171174Y0087705D02*
X0224781Y0087705D01*
X0224967Y0084109D02*
X0102315Y0084109D01*
X0102775Y0082911D02*
X0223487Y0082911D01*
X0222792Y0081712D02*
X0102677Y0081712D01*
X0101938Y0080514D02*
X0222725Y0080514D01*
X0223261Y0079315D02*
X0063013Y0079315D01*
X0063275Y0080514D02*
X0098062Y0080514D01*
X0097323Y0081712D02*
X0063001Y0081712D01*
X0061997Y0078117D02*
X0257113Y0078117D01*
X0257113Y0079315D02*
X0227739Y0079315D01*
X0228275Y0080514D02*
X0257113Y0080514D01*
X0257113Y0081712D02*
X0228208Y0081712D01*
X0227513Y0082911D02*
X0257113Y0082911D01*
X0257113Y0084109D02*
X0229033Y0084109D01*
X0229717Y0085308D02*
X0257113Y0085308D01*
X0257113Y0086506D02*
X0229775Y0086506D01*
X0229219Y0087705D02*
X0257113Y0087705D01*
X0257113Y0088903D02*
X0171275Y0088903D01*
X0170822Y0090102D02*
X0257113Y0090102D01*
X0257113Y0091300D02*
X0217928Y0091300D01*
X0217930Y0091301D02*
X0218711Y0092082D01*
X0219133Y0093102D01*
X0219133Y0094205D01*
X0218711Y0095225D01*
X0217930Y0096006D01*
X0216910Y0096428D01*
X0215806Y0096428D01*
X0214786Y0096006D01*
X0214006Y0095225D01*
X0213583Y0094205D01*
X0213583Y0093102D01*
X0214006Y0092082D01*
X0214786Y0091301D01*
X0215806Y0090879D01*
X0216910Y0090879D01*
X0217930Y0091301D01*
X0218883Y0092499D02*
X0257113Y0092499D01*
X0257113Y0093697D02*
X0219133Y0093697D01*
X0218847Y0094896D02*
X0257113Y0094896D01*
X0257113Y0096094D02*
X0217717Y0096094D01*
X0215000Y0096094D02*
X0165550Y0096094D01*
X0165352Y0096572D02*
X0164572Y0097352D01*
X0163552Y0097775D01*
X0162448Y0097775D01*
X0161428Y0097352D01*
X0160648Y0096572D01*
X0160225Y0095552D01*
X0160225Y0094448D01*
X0160648Y0093428D01*
X0161428Y0092648D01*
X0162448Y0092225D01*
X0163552Y0092225D01*
X0164572Y0092648D01*
X0165352Y0093428D01*
X0165775Y0094448D01*
X0165775Y0095552D01*
X0165352Y0096572D01*
X0164631Y0097293D02*
X0257113Y0097293D01*
X0257113Y0098491D02*
X0214915Y0098491D01*
X0214572Y0098148D02*
X0215352Y0098928D01*
X0215775Y0099948D01*
X0215775Y0101052D01*
X0215352Y0102072D01*
X0214572Y0102852D01*
X0213552Y0103275D01*
X0212448Y0103275D01*
X0211428Y0102852D01*
X0210648Y0102072D01*
X0210225Y0101052D01*
X0210225Y0099948D01*
X0210648Y0098928D01*
X0211428Y0098148D01*
X0212448Y0097725D01*
X0213552Y0097725D01*
X0214572Y0098148D01*
X0215668Y0099690D02*
X0257113Y0099690D01*
X0257113Y0100888D02*
X0215775Y0100888D01*
X0215337Y0102087D02*
X0257113Y0102087D01*
X0257113Y0103285D02*
X0099275Y0103285D01*
X0099275Y0102948D02*
X0098852Y0101928D01*
X0098072Y0101148D01*
X0097052Y0100725D01*
X0095948Y0100725D01*
X0094928Y0101148D01*
X0094148Y0101928D01*
X0093725Y0102948D01*
X0093725Y0104052D01*
X0094148Y0105072D01*
X0094928Y0105852D01*
X0095948Y0106275D01*
X0097052Y0106275D01*
X0098072Y0105852D01*
X0098852Y0105072D01*
X0099275Y0104052D01*
X0099275Y0102948D01*
X0098918Y0102087D02*
X0210663Y0102087D01*
X0210225Y0100888D02*
X0097446Y0100888D01*
X0095554Y0100888D02*
X0045775Y0100888D01*
X0045775Y0100448D02*
X0045775Y0101552D01*
X0045352Y0102572D01*
X0044572Y0103352D01*
X0043552Y0103775D01*
X0042448Y0103775D01*
X0041428Y0103352D01*
X0040648Y0102572D01*
X0040225Y0101552D01*
X0040225Y0100448D01*
X0040648Y0099428D01*
X0041428Y0098648D01*
X0042448Y0098225D01*
X0043552Y0098225D01*
X0044572Y0098648D01*
X0045352Y0099428D01*
X0045775Y0100448D01*
X0045461Y0099690D02*
X0210332Y0099690D01*
X0211085Y0098491D02*
X0091236Y0098491D01*
X0091572Y0098352D02*
X0090552Y0098775D01*
X0089448Y0098775D01*
X0088428Y0098352D01*
X0087648Y0097572D01*
X0087225Y0096552D01*
X0087225Y0095448D01*
X0087648Y0094428D01*
X0088428Y0093648D01*
X0089448Y0093225D01*
X0090552Y0093225D01*
X0091572Y0093648D01*
X0092352Y0094428D01*
X0092775Y0095448D01*
X0092775Y0096552D01*
X0092352Y0097572D01*
X0091572Y0098352D01*
X0092468Y0097293D02*
X0161369Y0097293D01*
X0160450Y0096094D02*
X0092775Y0096094D01*
X0092546Y0094896D02*
X0160225Y0094896D01*
X0160536Y0093697D02*
X0091621Y0093697D01*
X0088379Y0093697D02*
X0005887Y0093697D01*
X0005887Y0092499D02*
X0081575Y0092499D01*
X0081928Y0092852D02*
X0081148Y0092072D01*
X0080725Y0091052D01*
X0080725Y0089948D01*
X0081148Y0088928D01*
X0081928Y0088148D01*
X0082948Y0087725D01*
X0084052Y0087725D01*
X0085072Y0088148D01*
X0085852Y0088928D01*
X0086275Y0089948D01*
X0086275Y0091052D01*
X0085852Y0092072D01*
X0085072Y0092852D01*
X0084052Y0093275D01*
X0082948Y0093275D01*
X0081928Y0092852D01*
X0080828Y0091300D02*
X0005887Y0091300D01*
X0005887Y0090102D02*
X0080725Y0090102D01*
X0081173Y0088903D02*
X0005887Y0088903D01*
X0005887Y0087705D02*
X0165826Y0087705D01*
X0165725Y0088903D02*
X0085827Y0088903D01*
X0086275Y0090102D02*
X0166178Y0090102D01*
X0164212Y0092499D02*
X0213833Y0092499D01*
X0213583Y0093697D02*
X0165464Y0093697D01*
X0165775Y0094896D02*
X0213869Y0094896D01*
X0214789Y0091300D02*
X0086172Y0091300D01*
X0085425Y0092499D02*
X0161788Y0092499D01*
X0166570Y0086506D02*
X0037700Y0086506D01*
X0035300Y0086506D02*
X0005887Y0086506D01*
X0005887Y0085308D02*
X0034038Y0085308D01*
X0033725Y0084109D02*
X0005887Y0084109D01*
X0005887Y0082911D02*
X0033948Y0082911D01*
X0034864Y0081712D02*
X0005887Y0081712D01*
X0005887Y0094896D02*
X0087454Y0094896D01*
X0087225Y0096094D02*
X0005887Y0096094D01*
X0005887Y0097293D02*
X0087532Y0097293D01*
X0088764Y0098491D02*
X0044194Y0098491D01*
X0041806Y0098491D02*
X0005887Y0098491D01*
X0005887Y0099690D02*
X0040539Y0099690D01*
X0040225Y0100888D02*
X0005887Y0100888D01*
X0005887Y0102087D02*
X0040447Y0102087D01*
X0041361Y0103285D02*
X0005887Y0103285D01*
X0005887Y0104484D02*
X0093904Y0104484D01*
X0093725Y0103285D02*
X0044639Y0103285D01*
X0045553Y0102087D02*
X0094082Y0102087D01*
X0094758Y0105682D02*
X0005887Y0105682D01*
X0005887Y0106881D02*
X0025572Y0106881D01*
X0025948Y0106725D02*
X0027052Y0106725D01*
X0028072Y0107148D01*
X0028852Y0107928D01*
X0029275Y0108948D01*
X0029275Y0110052D01*
X0028852Y0111072D01*
X0028072Y0111852D01*
X0027052Y0112275D01*
X0025948Y0112275D01*
X0024928Y0111852D01*
X0024148Y0111072D01*
X0023725Y0110052D01*
X0023725Y0108948D01*
X0024148Y0107928D01*
X0024928Y0107148D01*
X0025948Y0106725D01*
X0027428Y0106881D02*
X0257113Y0106881D01*
X0257113Y0108079D02*
X0028915Y0108079D01*
X0029275Y0109278D02*
X0145821Y0109278D01*
X0145948Y0109225D02*
X0147052Y0109225D01*
X0148072Y0109648D01*
X0148852Y0110428D01*
X0149275Y0111448D01*
X0149275Y0112552D01*
X0148852Y0113572D01*
X0148072Y0114352D01*
X0147052Y0114775D01*
X0145948Y0114775D01*
X0144928Y0114352D01*
X0144148Y0113572D01*
X0143725Y0112552D01*
X0143725Y0111448D01*
X0144148Y0110428D01*
X0144928Y0109648D01*
X0145948Y0109225D01*
X0147179Y0109278D02*
X0257113Y0109278D01*
X0257113Y0110476D02*
X0148872Y0110476D01*
X0149275Y0111675D02*
X0257113Y0111675D01*
X0257113Y0112873D02*
X0149142Y0112873D01*
X0148352Y0114072D02*
X0257113Y0114072D01*
X0257113Y0115270D02*
X0144701Y0115270D01*
X0144775Y0115448D02*
X0144352Y0114428D01*
X0143572Y0113648D01*
X0142552Y0113225D01*
X0141448Y0113225D01*
X0140428Y0113648D01*
X0139648Y0114428D01*
X0139225Y0115448D01*
X0139225Y0116552D01*
X0139648Y0117572D01*
X0140428Y0118352D01*
X0141448Y0118775D01*
X0142552Y0118775D01*
X0143572Y0118352D01*
X0144352Y0117572D01*
X0144775Y0116552D01*
X0144775Y0115448D01*
X0144775Y0116469D02*
X0256069Y0116469D01*
X0254870Y0117668D02*
X0144257Y0117668D01*
X0143996Y0114072D02*
X0144648Y0114072D01*
X0143858Y0112873D02*
X0005887Y0112873D01*
X0005887Y0111675D02*
X0024751Y0111675D01*
X0023901Y0110476D02*
X0005887Y0110476D01*
X0005887Y0109278D02*
X0023725Y0109278D01*
X0024085Y0108079D02*
X0005887Y0108079D01*
X0005887Y0114072D02*
X0024504Y0114072D01*
X0024148Y0114428D02*
X0024928Y0113648D01*
X0025948Y0113225D01*
X0027052Y0113225D01*
X0028072Y0113648D01*
X0028852Y0114428D01*
X0029275Y0115448D01*
X0029275Y0116552D01*
X0028852Y0117572D01*
X0028072Y0118352D01*
X0027052Y0118775D01*
X0025948Y0118775D01*
X0024928Y0118352D01*
X0024148Y0117572D01*
X0023725Y0116552D01*
X0023725Y0115448D01*
X0024148Y0114428D01*
X0023799Y0115270D02*
X0005887Y0115270D01*
X0005887Y0116469D02*
X0023725Y0116469D01*
X0024243Y0117668D02*
X0005887Y0117668D01*
X0005887Y0118866D02*
X0042460Y0118866D01*
X0042481Y0118817D02*
X0043317Y0117981D01*
X0044409Y0117528D01*
X0045591Y0117528D01*
X0046683Y0117981D01*
X0047519Y0118817D01*
X0047750Y0119374D01*
X0047981Y0118817D01*
X0048817Y0117981D01*
X0049909Y0117528D01*
X0051091Y0117528D01*
X0052183Y0117981D01*
X0053019Y0118817D01*
X0053250Y0119374D01*
X0053481Y0118817D01*
X0054317Y0117981D01*
X0055409Y0117528D01*
X0056591Y0117528D01*
X0057683Y0117981D01*
X0058519Y0118817D01*
X0058972Y0119909D01*
X0058972Y0121091D01*
X0058519Y0122183D01*
X0057683Y0123019D01*
X0057126Y0123250D01*
X0057683Y0123481D01*
X0058519Y0124317D01*
X0058972Y0125409D01*
X0058972Y0126591D01*
X0058519Y0127683D01*
X0057683Y0128519D01*
X0056591Y0128972D01*
X0055409Y0128972D01*
X0054317Y0128519D01*
X0053481Y0127683D01*
X0053250Y0127126D01*
X0053019Y0127683D01*
X0052183Y0128519D01*
X0051091Y0128972D01*
X0049909Y0128972D01*
X0048817Y0128519D01*
X0047981Y0127683D01*
X0047750Y0127126D01*
X0047519Y0127683D01*
X0046683Y0128519D01*
X0045591Y0128972D01*
X0044409Y0128972D01*
X0043317Y0128519D01*
X0042481Y0127683D01*
X0042028Y0126591D01*
X0042028Y0125409D01*
X0042481Y0124317D01*
X0043317Y0123481D01*
X0043874Y0123250D01*
X0043317Y0123019D01*
X0042481Y0122183D01*
X0042028Y0121091D01*
X0042028Y0119909D01*
X0042481Y0118817D01*
X0042028Y0120065D02*
X0005887Y0120065D01*
X0005887Y0121263D02*
X0042100Y0121263D01*
X0042759Y0122462D02*
X0005887Y0122462D01*
X0005887Y0123660D02*
X0043137Y0123660D01*
X0042256Y0124859D02*
X0005887Y0124859D01*
X0005887Y0126057D02*
X0042028Y0126057D01*
X0042304Y0127256D02*
X0005887Y0127256D01*
X0005887Y0128454D02*
X0043252Y0128454D01*
X0046748Y0128454D02*
X0048752Y0128454D01*
X0047804Y0127256D02*
X0047696Y0127256D01*
X0052248Y0128454D02*
X0054252Y0128454D01*
X0053304Y0127256D02*
X0053196Y0127256D01*
X0057748Y0128454D02*
X0085867Y0128454D01*
X0085909Y0128472D02*
X0084817Y0128019D01*
X0083981Y0127183D01*
X0083528Y0126091D01*
X0083528Y0124909D01*
X0083981Y0123817D01*
X0084817Y0122981D01*
X0085909Y0122528D01*
X0087091Y0122528D01*
X0088183Y0122981D01*
X0089019Y0123817D01*
X0089472Y0124909D01*
X0089472Y0126091D01*
X0089019Y0127183D01*
X0088183Y0128019D01*
X0087091Y0128472D01*
X0085909Y0128472D01*
X0087133Y0128454D02*
X0097930Y0128454D01*
X0097725Y0128948D02*
X0098148Y0127928D01*
X0098928Y0127148D01*
X0099948Y0126725D01*
X0101052Y0126725D01*
X0102072Y0127148D01*
X0102852Y0127928D01*
X0103275Y0128948D01*
X0103275Y0130052D01*
X0102852Y0131072D01*
X0102072Y0131852D01*
X0101052Y0132275D01*
X0099948Y0132275D01*
X0098928Y0131852D01*
X0098148Y0131072D01*
X0097725Y0130052D01*
X0097725Y0128948D01*
X0097725Y0129653D02*
X0005887Y0129653D01*
X0005887Y0130851D02*
X0098056Y0130851D01*
X0099405Y0132050D02*
X0005887Y0132050D01*
X0005887Y0133248D02*
X0103806Y0133248D01*
X0103725Y0133052D02*
X0103725Y0131948D01*
X0104148Y0130928D01*
X0104928Y0130148D01*
X0105948Y0129725D01*
X0107052Y0129725D01*
X0108072Y0130148D01*
X0108852Y0130928D01*
X0109275Y0131948D01*
X0109275Y0133052D01*
X0108852Y0134072D01*
X0108072Y0134852D01*
X0107052Y0135275D01*
X0105948Y0135275D01*
X0104928Y0134852D01*
X0104148Y0134072D01*
X0103725Y0133052D01*
X0103725Y0132050D02*
X0101595Y0132050D01*
X0102944Y0130851D02*
X0104225Y0130851D01*
X0103275Y0129653D02*
X0128359Y0129653D01*
X0128359Y0130052D02*
X0128359Y0128948D01*
X0128781Y0127928D01*
X0129562Y0127148D01*
X0130582Y0126725D01*
X0131686Y0126725D01*
X0131883Y0126807D01*
X0131148Y0126072D01*
X0130725Y0125052D01*
X0130725Y0123948D01*
X0131148Y0122928D01*
X0131928Y0122148D01*
X0132948Y0121725D01*
X0134052Y0121725D01*
X0135072Y0122148D01*
X0135852Y0122928D01*
X0136275Y0123948D01*
X0136275Y0125052D01*
X0135852Y0126072D01*
X0135072Y0126852D01*
X0134052Y0127275D01*
X0132948Y0127275D01*
X0132751Y0127193D01*
X0133486Y0127928D01*
X0133908Y0128948D01*
X0133908Y0130052D01*
X0133486Y0131072D01*
X0132705Y0131852D01*
X0131686Y0132275D01*
X0130582Y0132275D01*
X0129562Y0131852D01*
X0128781Y0131072D01*
X0128359Y0130052D01*
X0128690Y0130851D02*
X0108775Y0130851D01*
X0109275Y0132050D02*
X0130038Y0132050D01*
X0132229Y0132050D02*
X0192931Y0132050D01*
X0192725Y0131552D02*
X0193148Y0132572D01*
X0193928Y0133352D01*
X0194948Y0133775D01*
X0196052Y0133775D01*
X0197072Y0133352D01*
X0197852Y0132572D01*
X0198275Y0131552D01*
X0198275Y0130448D01*
X0197852Y0129428D01*
X0197072Y0128648D01*
X0196052Y0128225D01*
X0194948Y0128225D01*
X0193928Y0128648D01*
X0193148Y0129428D01*
X0192725Y0130448D01*
X0192725Y0131552D01*
X0192725Y0130851D02*
X0165073Y0130851D01*
X0165352Y0130572D02*
X0164572Y0131352D01*
X0163552Y0131775D01*
X0162448Y0131775D01*
X0161428Y0131352D01*
X0160648Y0130572D01*
X0160225Y0129552D01*
X0160225Y0128448D01*
X0160648Y0127428D01*
X0161428Y0126648D01*
X0162448Y0126225D01*
X0163552Y0126225D01*
X0164572Y0126648D01*
X0165352Y0127428D01*
X0165775Y0128448D01*
X0165775Y0129552D01*
X0165352Y0130572D01*
X0165733Y0129653D02*
X0193055Y0129653D01*
X0194395Y0128454D02*
X0165775Y0128454D01*
X0165180Y0127256D02*
X0245282Y0127256D01*
X0244084Y0128454D02*
X0196605Y0128454D01*
X0197945Y0129653D02*
X0242885Y0129653D01*
X0241687Y0130851D02*
X0198275Y0130851D01*
X0198069Y0132050D02*
X0240488Y0132050D01*
X0239290Y0133248D02*
X0197176Y0133248D01*
X0193824Y0133248D02*
X0109194Y0133248D01*
X0108477Y0134447D02*
X0238091Y0134447D01*
X0237613Y0135645D02*
X0005887Y0135645D01*
X0005887Y0134447D02*
X0104523Y0134447D01*
X0103070Y0128454D02*
X0128563Y0128454D01*
X0129454Y0127256D02*
X0102180Y0127256D01*
X0098820Y0127256D02*
X0088947Y0127256D01*
X0089472Y0126057D02*
X0093133Y0126057D01*
X0093428Y0126352D02*
X0092648Y0125572D01*
X0092225Y0124552D01*
X0092225Y0123448D01*
X0092648Y0122428D01*
X0093428Y0121648D01*
X0094448Y0121225D01*
X0095552Y0121225D01*
X0096572Y0121648D01*
X0097352Y0122428D01*
X0097775Y0123448D01*
X0097775Y0124552D01*
X0097352Y0125572D01*
X0096572Y0126352D01*
X0095552Y0126775D01*
X0094448Y0126775D01*
X0093428Y0126352D01*
X0092352Y0124859D02*
X0089451Y0124859D01*
X0088863Y0123660D02*
X0092225Y0123660D01*
X0092634Y0122462D02*
X0083741Y0122462D01*
X0084019Y0122183D02*
X0083183Y0123019D01*
X0082091Y0123472D01*
X0080909Y0123472D01*
X0079817Y0123019D01*
X0078981Y0122183D01*
X0078528Y0121091D01*
X0078528Y0119909D01*
X0078981Y0118817D01*
X0079817Y0117981D01*
X0080909Y0117528D01*
X0082091Y0117528D01*
X0083183Y0117981D01*
X0084019Y0118817D01*
X0084472Y0119909D01*
X0084472Y0121091D01*
X0084019Y0122183D01*
X0084400Y0121263D02*
X0094357Y0121263D01*
X0095643Y0121263D02*
X0251275Y0121263D01*
X0252473Y0120065D02*
X0084472Y0120065D01*
X0084040Y0118866D02*
X0253672Y0118866D01*
X0250076Y0122462D02*
X0135386Y0122462D01*
X0136155Y0123660D02*
X0248878Y0123660D01*
X0247679Y0124859D02*
X0136275Y0124859D01*
X0135858Y0126057D02*
X0246481Y0126057D01*
X0237613Y0136844D02*
X0005887Y0136844D01*
X0005887Y0138042D02*
X0237613Y0138042D01*
X0237613Y0139241D02*
X0140165Y0139241D01*
X0140352Y0139428D02*
X0139572Y0138648D01*
X0138552Y0138225D01*
X0137448Y0138225D01*
X0136428Y0138648D01*
X0135648Y0139428D01*
X0135225Y0140448D01*
X0135225Y0141552D01*
X0135648Y0142572D01*
X0136428Y0143352D01*
X0137448Y0143775D01*
X0138552Y0143775D01*
X0139572Y0143352D01*
X0140352Y0142572D01*
X0140775Y0141552D01*
X0140775Y0140448D01*
X0140352Y0139428D01*
X0140771Y0140439D02*
X0237613Y0140439D01*
X0237613Y0141638D02*
X0140739Y0141638D01*
X0140088Y0142836D02*
X0237613Y0142836D01*
X0237613Y0144035D02*
X0118368Y0144035D01*
X0118352Y0144072D02*
X0117572Y0144852D01*
X0116552Y0145275D01*
X0115448Y0145275D01*
X0114428Y0144852D01*
X0113648Y0144072D01*
X0113225Y0143052D01*
X0113225Y0141948D01*
X0113648Y0140928D01*
X0114428Y0140148D01*
X0115448Y0139725D01*
X0116552Y0139725D01*
X0117572Y0140148D01*
X0118352Y0140928D01*
X0118775Y0141948D01*
X0118775Y0143052D01*
X0118352Y0144072D01*
X0118775Y0142836D02*
X0135912Y0142836D01*
X0135261Y0141638D02*
X0118646Y0141638D01*
X0117863Y0140439D02*
X0135229Y0140439D01*
X0135835Y0139241D02*
X0005887Y0139241D01*
X0005887Y0140439D02*
X0114137Y0140439D01*
X0113354Y0141638D02*
X0005887Y0141638D01*
X0005887Y0142836D02*
X0043666Y0142836D01*
X0042390Y0144035D02*
X0005887Y0144035D01*
X0005887Y0145233D02*
X0042028Y0145233D01*
X0042169Y0146432D02*
X0005894Y0146432D01*
X0007092Y0147630D02*
X0042928Y0147630D01*
X0042969Y0148829D02*
X0008291Y0148829D01*
X0009489Y0150027D02*
X0042186Y0150027D01*
X0042028Y0151226D02*
X0010688Y0151226D01*
X0011886Y0152424D02*
X0042373Y0152424D01*
X0043567Y0153623D02*
X0013085Y0153623D01*
X0014283Y0154821D02*
X0042479Y0154821D01*
X0042028Y0156020D02*
X0015482Y0156020D01*
X0016680Y0157218D02*
X0042081Y0157218D01*
X0051933Y0153623D02*
X0090147Y0153623D01*
X0090028Y0153909D02*
X0090481Y0152817D01*
X0091317Y0151981D01*
X0092409Y0151528D01*
X0093591Y0151528D01*
X0094683Y0151981D01*
X0095500Y0152797D01*
X0096317Y0151981D01*
X0097409Y0151528D01*
X0098591Y0151528D01*
X0099683Y0151981D01*
X0100519Y0152817D01*
X0100972Y0153909D01*
X0100972Y0155091D01*
X0100519Y0156183D01*
X0099683Y0157019D01*
X0098591Y0157472D01*
X0097409Y0157472D01*
X0096317Y0157019D01*
X0095500Y0156203D01*
X0094683Y0157019D01*
X0093591Y0157472D01*
X0092409Y0157472D01*
X0091317Y0157019D01*
X0090481Y0156183D01*
X0090028Y0155091D01*
X0090028Y0153909D01*
X0090028Y0154821D02*
X0053021Y0154821D01*
X0053472Y0156020D02*
X0090413Y0156020D01*
X0091797Y0157218D02*
X0053419Y0157218D01*
X0053127Y0152424D02*
X0090873Y0152424D01*
X0095127Y0152424D02*
X0095873Y0152424D01*
X0100127Y0152424D02*
X0183725Y0152424D01*
X0183725Y0151948D02*
X0184148Y0150928D01*
X0184928Y0150148D01*
X0185948Y0149725D01*
X0187052Y0149725D01*
X0188072Y0150148D01*
X0188852Y0150928D01*
X0189275Y0151948D01*
X0189275Y0153052D01*
X0188852Y0154072D01*
X0188072Y0154852D01*
X0187052Y0155275D01*
X0185948Y0155275D01*
X0184928Y0154852D01*
X0184148Y0154072D01*
X0183725Y0153052D01*
X0183725Y0151948D01*
X0184024Y0151226D02*
X0053472Y0151226D01*
X0053314Y0150027D02*
X0185219Y0150027D01*
X0187781Y0150027D02*
X0237613Y0150027D01*
X0237613Y0148829D02*
X0052531Y0148829D01*
X0052572Y0147630D02*
X0237613Y0147630D01*
X0237613Y0146432D02*
X0053331Y0146432D01*
X0053472Y0145233D02*
X0115348Y0145233D01*
X0116652Y0145233D02*
X0237613Y0145233D01*
X0237613Y0151226D02*
X0188976Y0151226D01*
X0189275Y0152424D02*
X0237613Y0152424D01*
X0237613Y0153623D02*
X0189038Y0153623D01*
X0188103Y0154821D02*
X0237613Y0154821D01*
X0237613Y0156020D02*
X0100587Y0156020D01*
X0100972Y0154821D02*
X0184897Y0154821D01*
X0183962Y0153623D02*
X0100853Y0153623D01*
X0099203Y0157218D02*
X0236820Y0157218D01*
X0160927Y0130851D02*
X0133577Y0130851D01*
X0133908Y0129653D02*
X0160267Y0129653D01*
X0160225Y0128454D02*
X0133704Y0128454D01*
X0134098Y0127256D02*
X0160820Y0127256D01*
X0139743Y0117668D02*
X0082427Y0117668D01*
X0080573Y0117668D02*
X0056927Y0117668D01*
X0055073Y0117668D02*
X0051427Y0117668D01*
X0049573Y0117668D02*
X0045927Y0117668D01*
X0044073Y0117668D02*
X0028757Y0117668D01*
X0029275Y0116469D02*
X0139225Y0116469D01*
X0139299Y0115270D02*
X0029201Y0115270D01*
X0028496Y0114072D02*
X0140004Y0114072D01*
X0143725Y0111675D02*
X0028249Y0111675D01*
X0029099Y0110476D02*
X0144128Y0110476D01*
X0131614Y0122462D02*
X0097366Y0122462D01*
X0097775Y0123660D02*
X0130844Y0123660D01*
X0130725Y0124859D02*
X0097648Y0124859D01*
X0096867Y0126057D02*
X0131142Y0126057D01*
X0132813Y0127256D02*
X0132902Y0127256D01*
X0113225Y0142836D02*
X0051834Y0142836D01*
X0053110Y0144035D02*
X0113632Y0144035D01*
X0096797Y0157218D02*
X0094203Y0157218D01*
X0049166Y0142836D02*
X0046334Y0142836D01*
X0047610Y0144035D02*
X0047890Y0144035D01*
X0058696Y0127256D02*
X0084053Y0127256D01*
X0083528Y0126057D02*
X0058972Y0126057D01*
X0058744Y0124859D02*
X0083549Y0124859D01*
X0084137Y0123660D02*
X0057863Y0123660D01*
X0058241Y0122462D02*
X0079259Y0122462D01*
X0078600Y0121263D02*
X0058900Y0121263D01*
X0058972Y0120065D02*
X0078528Y0120065D01*
X0078960Y0118866D02*
X0058540Y0118866D01*
X0053460Y0118866D02*
X0053040Y0118866D01*
X0047960Y0118866D02*
X0047540Y0118866D01*
X0098242Y0105682D02*
X0257113Y0105682D01*
X0257113Y0104484D02*
X0099096Y0104484D01*
X0161775Y0068529D02*
X0215104Y0068529D01*
X0214340Y0067330D02*
X0161726Y0067330D01*
X0161056Y0066132D02*
X0214225Y0066132D01*
X0194136Y0056543D02*
X0106320Y0056543D01*
X0103680Y0056543D02*
X0068900Y0056543D01*
X0068852Y0056428D02*
X0069275Y0057448D01*
X0069275Y0058552D01*
X0068852Y0059572D01*
X0068072Y0060352D01*
X0067052Y0060775D01*
X0065948Y0060775D01*
X0064928Y0060352D01*
X0064148Y0059572D01*
X0063775Y0058672D01*
X0063775Y0059552D01*
X0063352Y0060572D01*
X0062572Y0061352D01*
X0061552Y0061775D01*
X0060448Y0061775D01*
X0059428Y0061352D01*
X0058648Y0060572D01*
X0058225Y0059552D01*
X0058225Y0058448D01*
X0058648Y0057428D01*
X0059428Y0056648D01*
X0060448Y0056225D01*
X0061552Y0056225D01*
X0062572Y0056648D01*
X0063352Y0057428D01*
X0063725Y0058328D01*
X0063725Y0057448D01*
X0064148Y0056428D01*
X0064928Y0055648D01*
X0065948Y0055225D01*
X0067052Y0055225D01*
X0068072Y0055648D01*
X0068852Y0056428D01*
X0069275Y0057742D02*
X0095334Y0057742D01*
X0094435Y0058940D02*
X0069114Y0058940D01*
X0068285Y0060139D02*
X0094225Y0060139D01*
X0090738Y0061337D02*
X0062587Y0061337D01*
X0063532Y0060139D02*
X0064715Y0060139D01*
X0063886Y0058940D02*
X0063775Y0058940D01*
X0063725Y0057742D02*
X0063482Y0057742D01*
X0064100Y0056543D02*
X0062320Y0056543D01*
X0060572Y0054852D02*
X0059552Y0055275D01*
X0058448Y0055275D01*
X0057428Y0054852D01*
X0056648Y0054072D01*
X0056225Y0053052D01*
X0056225Y0051948D01*
X0056648Y0050928D01*
X0057428Y0050148D01*
X0058448Y0049725D01*
X0059552Y0049725D01*
X0060572Y0050148D01*
X0061352Y0050928D01*
X0061775Y0051948D01*
X0061775Y0053052D01*
X0061352Y0054072D01*
X0060572Y0054852D01*
X0061278Y0054146D02*
X0193850Y0054146D01*
X0193725Y0055345D02*
X0067341Y0055345D01*
X0065659Y0055345D02*
X0005887Y0055345D01*
X0005887Y0056543D02*
X0059680Y0056543D01*
X0058518Y0057742D02*
X0005887Y0057742D01*
X0005887Y0058940D02*
X0058225Y0058940D01*
X0058468Y0060139D02*
X0005887Y0060139D01*
X0005887Y0061337D02*
X0059413Y0061337D01*
X0056722Y0054146D02*
X0005887Y0054146D01*
X0005887Y0052948D02*
X0056225Y0052948D01*
X0056307Y0051749D02*
X0005887Y0051749D01*
X0005887Y0050551D02*
X0057025Y0050551D01*
X0060975Y0050551D02*
X0085932Y0050551D01*
X0086825Y0051749D02*
X0061692Y0051749D01*
X0061775Y0052948D02*
X0194628Y0052948D01*
X0212300Y0021787D02*
X0225862Y0021787D01*
X0225240Y0020588D02*
X0212987Y0020588D01*
X0212987Y0019390D02*
X0225249Y0019390D01*
X0225885Y0018191D02*
X0212987Y0018191D01*
X0253935Y0013397D02*
X0009065Y0013397D01*
X0005887Y0036169D02*
X0020978Y0036169D01*
X0021906Y0037367D02*
X0005887Y0037367D01*
X0026659Y0063734D02*
X0030521Y0063734D01*
X0030225Y0064933D02*
X0027561Y0064933D01*
X0027775Y0066132D02*
X0030465Y0066132D01*
X0031406Y0067330D02*
X0027452Y0067330D01*
X0098666Y0057742D02*
X0102518Y0057742D01*
X0102225Y0058940D02*
X0099565Y0058940D01*
X0099775Y0060139D02*
X0102468Y0060139D01*
X0103413Y0061337D02*
X0099449Y0061337D01*
D17*
X0125500Y0073000D03*
X0125500Y0083500D03*
X0115000Y0083500D03*
X0125500Y0094000D03*
X0136000Y0083500D03*
D18*
X0130750Y0088500D03*
X0120250Y0088750D03*
X0120250Y0078000D03*
X0131000Y0078000D03*
M02*
