G75*
%MOIN*%
%OFA0B0*%
%FSLAX25Y25*%
%IPPOS*%
%LPD*%
%AMOC8*
5,1,8,0,0,1.08239X$1,22.5*
%
%ADD10C,0.00000*%
%ADD11C,0.00500*%
%ADD12C,0.00600*%
%ADD13C,0.00185*%
%ADD14C,0.00655*%
%ADD15R,0.19239X0.01392*%
%ADD16R,0.06631X0.02292*%
%ADD17R,0.02293X0.02210*%
D10*
X0009500Y0011000D02*
X0241000Y0011000D01*
X0246000Y0011000D01*
X0249500Y0011000D01*
X0252500Y0011000D01*
X0253500Y0011000D01*
X0258500Y0016000D01*
X0258500Y0116000D01*
X0239000Y0135500D01*
X0239000Y0157000D01*
X0236500Y0159500D01*
X0017000Y0159500D01*
X0004500Y0147000D01*
X0004500Y0016000D01*
X0009500Y0011000D01*
D11*
X0022157Y0014834D02*
X0022741Y0014250D01*
X0023909Y0014250D01*
X0024493Y0014834D01*
X0024493Y0016001D02*
X0023325Y0016585D01*
X0022741Y0016585D01*
X0022157Y0016001D01*
X0022157Y0014834D01*
X0024493Y0016001D02*
X0024493Y0017753D01*
X0022157Y0017753D01*
X0025841Y0017169D02*
X0026424Y0017753D01*
X0027592Y0017753D01*
X0028176Y0017169D01*
X0029524Y0017169D02*
X0031859Y0014834D01*
X0031859Y0014250D01*
X0033207Y0014834D02*
X0033791Y0014250D01*
X0034958Y0014250D01*
X0035542Y0014834D01*
X0033207Y0017169D01*
X0033207Y0014834D01*
X0033207Y0017169D02*
X0033791Y0017753D01*
X0034958Y0017753D01*
X0035542Y0017169D01*
X0035542Y0014834D01*
X0036890Y0014834D02*
X0037474Y0014250D01*
X0038641Y0014250D01*
X0039225Y0014834D01*
X0039225Y0015418D01*
X0038641Y0016001D01*
X0037474Y0016001D01*
X0036890Y0015418D01*
X0036890Y0014834D01*
X0037474Y0016001D02*
X0036890Y0016585D01*
X0036890Y0017169D01*
X0037474Y0017753D01*
X0038641Y0017753D01*
X0039225Y0017169D01*
X0039225Y0016585D01*
X0038641Y0016001D01*
X0040573Y0014250D02*
X0042908Y0014250D01*
X0041741Y0014250D02*
X0041741Y0017753D01*
X0042908Y0016585D01*
X0044256Y0017169D02*
X0046592Y0014834D01*
X0046008Y0014250D01*
X0044840Y0014250D01*
X0044256Y0014834D01*
X0044256Y0017169D01*
X0044840Y0017753D01*
X0046008Y0017753D01*
X0046592Y0017169D01*
X0046592Y0014834D01*
X0047939Y0014250D02*
X0050275Y0014250D01*
X0047939Y0016585D01*
X0047939Y0017169D01*
X0048523Y0017753D01*
X0049691Y0017753D01*
X0050275Y0017169D01*
X0055306Y0016585D02*
X0055306Y0014250D01*
X0053958Y0013666D02*
X0051623Y0013666D01*
X0055306Y0016001D02*
X0057641Y0016001D01*
X0057641Y0016585D02*
X0057641Y0014250D01*
X0059573Y0014250D02*
X0059573Y0017753D01*
X0061324Y0016001D01*
X0058989Y0016001D01*
X0057641Y0016585D02*
X0056473Y0017753D01*
X0055306Y0016585D01*
X0062672Y0015418D02*
X0063256Y0016001D01*
X0065007Y0016001D01*
X0065007Y0014834D01*
X0064423Y0014250D01*
X0063256Y0014250D01*
X0062672Y0014834D01*
X0062672Y0015418D01*
X0063840Y0017169D02*
X0062672Y0017753D01*
X0063840Y0017169D02*
X0065007Y0016001D01*
X0066355Y0014250D02*
X0066355Y0017753D01*
X0068690Y0017753D02*
X0066355Y0014250D01*
X0068690Y0014250D02*
X0068690Y0017753D01*
X0074506Y0027250D02*
X0075407Y0027250D01*
X0075857Y0027700D01*
X0077002Y0027250D02*
X0078803Y0027250D01*
X0077903Y0027250D02*
X0077903Y0029952D01*
X0078803Y0029052D01*
X0079948Y0029502D02*
X0079948Y0028601D01*
X0080399Y0028151D01*
X0081750Y0028151D01*
X0080849Y0028151D02*
X0079948Y0027250D01*
X0081750Y0027250D02*
X0081750Y0029952D01*
X0080399Y0029952D01*
X0079948Y0029502D01*
X0075857Y0029502D02*
X0075407Y0029952D01*
X0074506Y0029952D01*
X0074055Y0029502D01*
X0074055Y0029052D01*
X0074506Y0028601D01*
X0074055Y0028151D01*
X0074055Y0027700D01*
X0074506Y0027250D01*
X0074506Y0028601D02*
X0074956Y0028601D01*
X0087530Y0033568D02*
X0087848Y0033249D01*
X0088485Y0033249D01*
X0088485Y0032612D01*
X0088804Y0032294D01*
X0089441Y0032294D01*
X0090077Y0032931D01*
X0090077Y0033568D01*
X0090887Y0034378D02*
X0089613Y0035651D01*
X0092161Y0035651D01*
X0092161Y0035014D01*
X0091524Y0034378D01*
X0090887Y0034378D01*
X0089613Y0035651D02*
X0089613Y0036288D01*
X0090250Y0036925D01*
X0090887Y0036925D01*
X0092161Y0035651D01*
X0093289Y0036143D02*
X0094563Y0037416D01*
X0093926Y0036780D02*
X0092015Y0038690D01*
X0093289Y0038690D01*
X0093780Y0039818D02*
X0093780Y0040455D01*
X0094417Y0041092D01*
X0095054Y0041092D01*
X0096328Y0039818D01*
X0096328Y0039182D01*
X0095691Y0038545D01*
X0095054Y0038545D01*
X0088804Y0034842D02*
X0088167Y0034842D01*
X0087530Y0034205D01*
X0087530Y0033568D01*
X0088485Y0033249D02*
X0088804Y0033568D01*
X0102113Y0023788D02*
X0102750Y0024425D01*
X0103387Y0024425D01*
X0102113Y0023788D02*
X0102113Y0023151D01*
X0102432Y0022833D01*
X0104979Y0022833D01*
X0103706Y0021559D01*
X0102577Y0021068D02*
X0102577Y0020431D01*
X0101941Y0019794D01*
X0101304Y0019794D01*
X0100985Y0020113D01*
X0100985Y0020749D01*
X0101304Y0021068D01*
X0100985Y0020749D02*
X0100348Y0020749D01*
X0100030Y0021068D01*
X0100030Y0021705D01*
X0100667Y0022342D01*
X0101304Y0022342D01*
X0105789Y0023643D02*
X0107063Y0024916D01*
X0106426Y0024280D02*
X0104515Y0026190D01*
X0105789Y0026190D01*
X0106280Y0027318D02*
X0106280Y0027955D01*
X0106917Y0028592D01*
X0107554Y0028592D01*
X0108828Y0027318D01*
X0108828Y0026682D01*
X0108191Y0026045D01*
X0107554Y0026045D01*
X0113780Y0020955D02*
X0114417Y0021592D01*
X0115054Y0021592D01*
X0116328Y0020318D01*
X0116328Y0019682D01*
X0115691Y0019045D01*
X0115054Y0019045D01*
X0114563Y0017916D02*
X0113289Y0016643D01*
X0113926Y0017280D02*
X0112015Y0019190D01*
X0113289Y0019190D01*
X0113780Y0020318D02*
X0113780Y0020955D01*
X0111524Y0016788D02*
X0109613Y0016788D01*
X0111524Y0014878D01*
X0110250Y0015514D02*
X0111524Y0016788D01*
X0109122Y0015023D02*
X0107848Y0015023D01*
X0109759Y0013112D01*
X0110396Y0013749D02*
X0109122Y0012476D01*
X0126143Y0021711D02*
X0127417Y0020437D01*
X0126780Y0021074D02*
X0128690Y0022985D01*
X0128690Y0021711D01*
X0129818Y0021220D02*
X0130455Y0021220D01*
X0131092Y0020583D01*
X0131092Y0019946D01*
X0129818Y0018672D01*
X0129182Y0018672D01*
X0128545Y0019309D01*
X0128545Y0019946D01*
X0125651Y0022839D02*
X0125015Y0022839D01*
X0124378Y0023476D01*
X0124378Y0024113D01*
X0124696Y0024431D01*
X0125333Y0024431D01*
X0125651Y0024113D01*
X0125333Y0024431D02*
X0125333Y0025068D01*
X0125651Y0025387D01*
X0126288Y0025387D01*
X0126925Y0024750D01*
X0126925Y0024113D01*
X0124523Y0025878D02*
X0124523Y0027152D01*
X0122613Y0025241D01*
X0123250Y0024604D02*
X0121976Y0025878D01*
X0139643Y0035211D02*
X0140917Y0033937D01*
X0140280Y0034574D02*
X0142190Y0036485D01*
X0142190Y0035211D01*
X0143318Y0034720D02*
X0143955Y0034720D01*
X0144592Y0034083D01*
X0144592Y0033446D01*
X0143318Y0032172D01*
X0142682Y0032172D01*
X0142045Y0032809D01*
X0142045Y0033446D01*
X0139151Y0036339D02*
X0139151Y0038887D01*
X0137878Y0037613D01*
X0137878Y0036976D01*
X0138515Y0036339D01*
X0139151Y0036339D01*
X0140425Y0037613D01*
X0140425Y0038250D01*
X0139788Y0038887D01*
X0139151Y0038887D01*
X0137705Y0039059D02*
X0136431Y0040333D01*
X0135794Y0039059D02*
X0137705Y0040970D01*
X0137705Y0039059D01*
X0130592Y0041446D02*
X0129318Y0040172D01*
X0128682Y0040172D01*
X0128045Y0040809D01*
X0128045Y0041446D01*
X0126917Y0041937D02*
X0125643Y0043211D01*
X0126280Y0042574D02*
X0128190Y0044485D01*
X0128190Y0043211D01*
X0129318Y0042720D02*
X0129955Y0042720D01*
X0130592Y0042083D01*
X0130592Y0041446D01*
X0124833Y0044021D02*
X0124833Y0046568D01*
X0125151Y0046887D01*
X0125788Y0046887D01*
X0126425Y0046250D01*
X0126425Y0045613D01*
X0124833Y0044021D02*
X0123559Y0045294D01*
X0123705Y0047059D02*
X0122431Y0048333D01*
X0121794Y0047059D02*
X0123705Y0048970D01*
X0123705Y0047059D01*
X0137378Y0056976D02*
X0138015Y0056339D01*
X0138651Y0056339D01*
X0138651Y0058887D01*
X0137378Y0057613D01*
X0137378Y0056976D01*
X0138651Y0056339D02*
X0139925Y0057613D01*
X0139925Y0058250D01*
X0139288Y0058887D01*
X0138651Y0058887D01*
X0138160Y0060015D02*
X0137205Y0059059D01*
X0136886Y0060015D01*
X0136568Y0060333D01*
X0135931Y0060333D01*
X0135294Y0059696D01*
X0135294Y0059059D01*
X0135931Y0058423D01*
X0136568Y0058423D01*
X0138160Y0060015D02*
X0136886Y0061289D01*
X0141690Y0056485D02*
X0139780Y0054574D01*
X0140417Y0053937D02*
X0139143Y0055211D01*
X0141690Y0055211D02*
X0141690Y0056485D01*
X0142818Y0054720D02*
X0143455Y0054720D01*
X0144092Y0054083D01*
X0144092Y0053446D01*
X0142818Y0052172D01*
X0142182Y0052172D01*
X0141545Y0052809D01*
X0141545Y0053446D01*
X0153045Y0065309D02*
X0153682Y0064672D01*
X0154318Y0064672D01*
X0155592Y0065946D01*
X0155592Y0066583D01*
X0154955Y0067220D01*
X0154318Y0067220D01*
X0153190Y0067711D02*
X0153190Y0068985D01*
X0151280Y0067074D01*
X0151917Y0066437D02*
X0150643Y0067711D01*
X0150151Y0068839D02*
X0150151Y0071387D01*
X0148878Y0070113D01*
X0148878Y0069476D01*
X0149515Y0068839D01*
X0150151Y0068839D01*
X0151425Y0070113D01*
X0151425Y0070750D01*
X0150788Y0071387D01*
X0150151Y0071387D01*
X0148705Y0071559D02*
X0147750Y0072515D01*
X0147113Y0072515D01*
X0146794Y0072196D01*
X0146794Y0071559D01*
X0147431Y0070923D01*
X0148068Y0070923D01*
X0148705Y0071559D01*
X0148705Y0072833D01*
X0148386Y0073789D01*
X0153294Y0078559D02*
X0153931Y0077923D01*
X0154568Y0077923D01*
X0155205Y0078559D02*
X0154886Y0079515D01*
X0154568Y0079833D01*
X0153931Y0079833D01*
X0153294Y0079196D01*
X0153294Y0078559D01*
X0155205Y0078559D02*
X0156160Y0079515D01*
X0154886Y0080789D01*
X0156651Y0078387D02*
X0157288Y0078387D01*
X0157925Y0077750D01*
X0157925Y0077113D01*
X0156651Y0078387D02*
X0156333Y0078068D01*
X0156333Y0075521D01*
X0155059Y0076794D01*
X0157143Y0074711D02*
X0158417Y0073437D01*
X0157780Y0074074D02*
X0159690Y0075985D01*
X0159690Y0074711D01*
X0160818Y0074220D02*
X0161455Y0074220D01*
X0162092Y0073583D01*
X0162092Y0072946D01*
X0160818Y0071672D01*
X0160182Y0071672D01*
X0159545Y0072309D01*
X0159545Y0072946D01*
X0153045Y0065946D02*
X0153045Y0065309D01*
X0173750Y0062604D02*
X0174068Y0062923D01*
X0174068Y0065470D01*
X0174386Y0065789D01*
X0175660Y0064515D01*
X0176151Y0063387D02*
X0176151Y0060839D01*
X0175515Y0060839D01*
X0174878Y0061476D01*
X0174878Y0062113D01*
X0176151Y0063387D01*
X0176788Y0063387D01*
X0177425Y0062750D01*
X0177425Y0062113D01*
X0176151Y0060839D01*
X0176643Y0059711D02*
X0177917Y0058437D01*
X0177280Y0059074D02*
X0179190Y0060985D01*
X0179190Y0059711D01*
X0180318Y0059220D02*
X0180955Y0059220D01*
X0181592Y0058583D01*
X0181592Y0057946D01*
X0180318Y0056672D01*
X0179682Y0056672D01*
X0179045Y0057309D01*
X0179045Y0057946D01*
X0182109Y0060750D02*
X0183910Y0060750D01*
X0183010Y0060750D02*
X0183010Y0063452D01*
X0183910Y0062552D01*
X0185055Y0063002D02*
X0186857Y0061200D01*
X0186407Y0060750D01*
X0185506Y0060750D01*
X0185055Y0061200D01*
X0185055Y0063002D01*
X0185506Y0063452D01*
X0186407Y0063452D01*
X0186857Y0063002D01*
X0186857Y0061200D01*
X0188002Y0060750D02*
X0189803Y0060750D01*
X0188002Y0062552D01*
X0188002Y0063002D01*
X0188452Y0063452D01*
X0189353Y0063452D01*
X0189803Y0063002D01*
X0190948Y0063002D02*
X0191399Y0063452D01*
X0192300Y0063452D01*
X0192750Y0063002D01*
X0192750Y0061200D01*
X0192300Y0060750D01*
X0191399Y0060750D01*
X0190948Y0061200D01*
X0190303Y0068750D02*
X0188502Y0070552D01*
X0188502Y0071002D01*
X0188952Y0071452D01*
X0189853Y0071452D01*
X0190303Y0071002D01*
X0191448Y0071002D02*
X0191899Y0071452D01*
X0192800Y0071452D01*
X0193250Y0071002D01*
X0193250Y0069200D01*
X0192800Y0068750D01*
X0191899Y0068750D01*
X0191448Y0069200D01*
X0190303Y0068750D02*
X0188502Y0068750D01*
X0187357Y0069200D02*
X0185555Y0071002D01*
X0185555Y0069200D01*
X0186006Y0068750D01*
X0186907Y0068750D01*
X0187357Y0069200D01*
X0187357Y0071002D01*
X0186907Y0071452D01*
X0186006Y0071452D01*
X0185555Y0071002D01*
X0184410Y0071002D02*
X0183960Y0071452D01*
X0183059Y0071452D01*
X0182609Y0071002D01*
X0182609Y0070552D01*
X0184410Y0068750D01*
X0182609Y0068750D01*
X0201250Y0088147D02*
X0203952Y0088147D01*
X0203952Y0089949D01*
X0203052Y0091094D02*
X0203052Y0091544D01*
X0201250Y0091544D01*
X0201250Y0091094D02*
X0201250Y0091994D01*
X0201250Y0093058D02*
X0203052Y0093058D01*
X0203052Y0094409D01*
X0202601Y0094859D01*
X0201250Y0094859D01*
X0201700Y0096004D02*
X0201250Y0096455D01*
X0201250Y0097806D01*
X0200800Y0097806D02*
X0203052Y0097806D01*
X0203052Y0096455D01*
X0202601Y0096004D01*
X0201700Y0096004D01*
X0200349Y0096905D02*
X0200349Y0097356D01*
X0200800Y0097806D01*
X0201700Y0098951D02*
X0201250Y0099401D01*
X0201250Y0100302D01*
X0202151Y0100753D02*
X0202151Y0098951D01*
X0202601Y0098951D02*
X0203052Y0099401D01*
X0203052Y0100302D01*
X0202601Y0100753D01*
X0202151Y0100753D01*
X0202151Y0101898D02*
X0203052Y0102798D01*
X0203052Y0103249D01*
X0203052Y0101898D02*
X0201250Y0101898D01*
X0201700Y0098951D02*
X0202601Y0098951D01*
X0206050Y0099074D02*
X0206500Y0099525D01*
X0208302Y0099525D01*
X0208752Y0099074D01*
X0208752Y0097723D01*
X0206050Y0097723D01*
X0206050Y0099074D01*
X0206050Y0096578D02*
X0208752Y0096578D01*
X0208752Y0094777D02*
X0206050Y0094777D01*
X0206500Y0093632D02*
X0206050Y0093181D01*
X0206050Y0092281D01*
X0206500Y0091830D01*
X0208302Y0091830D01*
X0208752Y0092281D01*
X0208752Y0093181D01*
X0208302Y0093632D01*
X0207401Y0093632D02*
X0207401Y0092731D01*
X0207401Y0093632D02*
X0206500Y0093632D01*
X0208752Y0094777D02*
X0206050Y0096578D01*
X0204403Y0091544D02*
X0203952Y0091544D01*
X0202601Y0089048D02*
X0202601Y0088147D01*
X0220609Y0077952D02*
X0221510Y0077502D01*
X0222410Y0076601D01*
X0221059Y0076601D01*
X0220609Y0076151D01*
X0220609Y0075700D01*
X0221059Y0075250D01*
X0221960Y0075250D01*
X0222410Y0075700D01*
X0222410Y0076601D01*
X0223555Y0077502D02*
X0223555Y0075700D01*
X0224006Y0075250D01*
X0224907Y0075250D01*
X0225357Y0075700D01*
X0223555Y0077502D01*
X0224006Y0077952D01*
X0224907Y0077952D01*
X0225357Y0077502D01*
X0225357Y0075700D01*
X0226502Y0075250D02*
X0228303Y0075250D01*
X0226502Y0077052D01*
X0226502Y0077502D01*
X0226952Y0077952D01*
X0227853Y0077952D01*
X0228303Y0077502D01*
X0229448Y0077502D02*
X0229899Y0077952D01*
X0230800Y0077952D01*
X0231250Y0077502D01*
X0231250Y0075700D01*
X0230800Y0075250D01*
X0229899Y0075250D01*
X0229448Y0075700D01*
X0229899Y0069952D02*
X0230800Y0069952D01*
X0231250Y0069502D01*
X0231250Y0067700D01*
X0230800Y0067250D01*
X0229899Y0067250D01*
X0229448Y0067700D01*
X0228303Y0067250D02*
X0226502Y0069052D01*
X0226502Y0069502D01*
X0226952Y0069952D01*
X0227853Y0069952D01*
X0228303Y0069502D01*
X0229448Y0069502D02*
X0229899Y0069952D01*
X0225357Y0069502D02*
X0224907Y0069952D01*
X0224006Y0069952D01*
X0223555Y0069502D01*
X0225357Y0067700D01*
X0224907Y0067250D01*
X0224006Y0067250D01*
X0223555Y0067700D01*
X0223555Y0069502D01*
X0222410Y0069952D02*
X0222410Y0068601D01*
X0221510Y0069052D01*
X0221059Y0069052D01*
X0220609Y0068601D01*
X0220609Y0067700D01*
X0221059Y0067250D01*
X0221960Y0067250D01*
X0222410Y0067700D01*
X0225357Y0067700D02*
X0225357Y0069502D01*
X0226502Y0067250D02*
X0228303Y0067250D01*
X0222410Y0069952D02*
X0220609Y0069952D01*
X0221059Y0060952D02*
X0222410Y0059601D01*
X0220609Y0059601D01*
X0221059Y0058250D02*
X0221059Y0060952D01*
X0223555Y0060502D02*
X0223555Y0058700D01*
X0224006Y0058250D01*
X0224907Y0058250D01*
X0225357Y0058700D01*
X0223555Y0060502D01*
X0224006Y0060952D01*
X0224907Y0060952D01*
X0225357Y0060502D01*
X0225357Y0058700D01*
X0226502Y0058250D02*
X0228303Y0058250D01*
X0226502Y0060052D01*
X0226502Y0060502D01*
X0226952Y0060952D01*
X0227853Y0060952D01*
X0228303Y0060502D01*
X0229448Y0060502D02*
X0229899Y0060952D01*
X0230800Y0060952D01*
X0231250Y0060502D01*
X0231250Y0058700D01*
X0230800Y0058250D01*
X0229899Y0058250D01*
X0229448Y0058700D01*
X0229899Y0052952D02*
X0230800Y0052952D01*
X0231250Y0052502D01*
X0231250Y0050700D01*
X0230800Y0050250D01*
X0229899Y0050250D01*
X0229448Y0050700D01*
X0228303Y0050250D02*
X0226502Y0050250D01*
X0225357Y0050700D02*
X0223555Y0052502D01*
X0223555Y0050700D01*
X0224006Y0050250D01*
X0224907Y0050250D01*
X0225357Y0050700D01*
X0225357Y0052502D01*
X0224907Y0052952D01*
X0224006Y0052952D01*
X0223555Y0052502D01*
X0222410Y0052502D02*
X0221960Y0052952D01*
X0221059Y0052952D01*
X0220609Y0052502D01*
X0220609Y0052052D01*
X0221059Y0051601D01*
X0220609Y0051151D01*
X0220609Y0050700D01*
X0221059Y0050250D01*
X0221960Y0050250D01*
X0222410Y0050700D01*
X0221510Y0051601D02*
X0221059Y0051601D01*
X0226502Y0052052D02*
X0226502Y0052502D01*
X0226952Y0052952D01*
X0227853Y0052952D01*
X0228303Y0052502D01*
X0229448Y0052502D02*
X0229899Y0052952D01*
X0228303Y0050250D02*
X0226502Y0052052D01*
X0172577Y0090431D02*
X0171941Y0089794D01*
X0171304Y0089794D01*
X0170985Y0090112D01*
X0170985Y0090749D01*
X0171941Y0091705D01*
X0172577Y0091068D01*
X0172577Y0090431D01*
X0171941Y0091705D02*
X0170667Y0091705D01*
X0169711Y0091386D01*
X0172113Y0093151D02*
X0172113Y0093788D01*
X0172750Y0094425D01*
X0173387Y0094425D01*
X0172113Y0093151D02*
X0172432Y0092833D01*
X0174979Y0092833D01*
X0173706Y0091559D01*
X0175789Y0093643D02*
X0177063Y0094916D01*
X0176426Y0094280D02*
X0174515Y0096190D01*
X0175789Y0096190D01*
X0176280Y0097318D02*
X0176280Y0097955D01*
X0176917Y0098592D01*
X0177554Y0098592D01*
X0178828Y0097318D01*
X0178828Y0096682D01*
X0178191Y0096045D01*
X0177554Y0096045D01*
X0172191Y0102045D02*
X0171554Y0102045D01*
X0172191Y0102045D02*
X0172828Y0102682D01*
X0172828Y0103318D01*
X0171554Y0104592D01*
X0170917Y0104592D01*
X0170280Y0103955D01*
X0170280Y0103318D01*
X0169789Y0102190D02*
X0168515Y0102190D01*
X0170426Y0100280D01*
X0171063Y0100916D02*
X0169789Y0099643D01*
X0168661Y0099151D02*
X0166113Y0099151D01*
X0167387Y0097878D01*
X0168024Y0097878D01*
X0168661Y0098514D01*
X0168661Y0099151D01*
X0167387Y0100425D01*
X0166750Y0100425D01*
X0166113Y0099788D01*
X0166113Y0099151D01*
X0165304Y0098342D02*
X0165622Y0098023D01*
X0165622Y0097386D01*
X0164985Y0096749D01*
X0164985Y0096112D01*
X0165304Y0095794D01*
X0165941Y0095794D01*
X0166577Y0096431D01*
X0166577Y0097068D01*
X0166259Y0097386D01*
X0165622Y0097386D01*
X0164985Y0096749D02*
X0164348Y0096749D01*
X0164030Y0097068D01*
X0164030Y0097705D01*
X0164667Y0098342D01*
X0165304Y0098342D01*
X0142828Y0113182D02*
X0142191Y0112545D01*
X0141554Y0112545D01*
X0141063Y0111416D02*
X0139789Y0110143D01*
X0140426Y0110780D02*
X0138515Y0112690D01*
X0139789Y0112690D01*
X0140280Y0113818D02*
X0140280Y0114455D01*
X0140917Y0115092D01*
X0141554Y0115092D01*
X0142828Y0113818D01*
X0142828Y0113182D01*
X0138661Y0109651D02*
X0136113Y0109651D01*
X0137387Y0108378D01*
X0138024Y0108378D01*
X0138661Y0109014D01*
X0138661Y0109651D01*
X0137387Y0110925D01*
X0136750Y0110925D01*
X0136113Y0110288D01*
X0136113Y0109651D01*
X0135304Y0108842D02*
X0134667Y0108842D01*
X0134030Y0108205D01*
X0134030Y0107568D01*
X0135304Y0106294D01*
X0135941Y0106294D01*
X0136577Y0106931D01*
X0136577Y0107568D01*
X0135622Y0107886D02*
X0134667Y0106931D01*
X0135622Y0107886D02*
X0135622Y0108523D01*
X0135304Y0108842D01*
X0123896Y0119749D02*
X0123577Y0120068D01*
X0121030Y0120068D01*
X0120711Y0120386D01*
X0121985Y0121660D01*
X0123113Y0122151D02*
X0123432Y0121833D01*
X0125979Y0121833D01*
X0124706Y0120559D01*
X0123113Y0122151D02*
X0123113Y0122788D01*
X0123750Y0123425D01*
X0124387Y0123425D01*
X0125515Y0125190D02*
X0127426Y0123280D01*
X0128063Y0123916D02*
X0126789Y0122643D01*
X0126789Y0125190D02*
X0125515Y0125190D01*
X0127280Y0126318D02*
X0127280Y0126955D01*
X0127917Y0127592D01*
X0128554Y0127592D01*
X0129828Y0126318D01*
X0129828Y0125682D01*
X0129191Y0125045D01*
X0128554Y0125045D01*
X0109592Y0139446D02*
X0108318Y0138172D01*
X0107682Y0138172D01*
X0107045Y0138809D01*
X0107045Y0139446D01*
X0105917Y0139937D02*
X0104643Y0141211D01*
X0105280Y0140574D02*
X0107190Y0142485D01*
X0107190Y0141211D01*
X0108318Y0140720D02*
X0108955Y0140720D01*
X0109592Y0140083D01*
X0109592Y0139446D01*
X0103833Y0142021D02*
X0103833Y0144568D01*
X0104151Y0144887D01*
X0104788Y0144887D01*
X0105425Y0144250D01*
X0105425Y0143613D01*
X0103833Y0142021D02*
X0102559Y0143294D01*
X0102068Y0144423D02*
X0102386Y0144741D01*
X0102386Y0145378D01*
X0101750Y0146015D01*
X0101113Y0146015D01*
X0100794Y0145696D01*
X0100794Y0145059D01*
X0101431Y0144423D01*
X0102068Y0144423D01*
X0102386Y0145378D02*
X0103023Y0145378D01*
X0103342Y0145696D01*
X0103342Y0146333D01*
X0102705Y0146970D01*
X0102068Y0146970D01*
X0101750Y0146652D01*
X0101750Y0146015D01*
X0110878Y0150976D02*
X0111515Y0150339D01*
X0112151Y0150339D01*
X0112643Y0149211D02*
X0113917Y0147937D01*
X0113280Y0148574D02*
X0115190Y0150485D01*
X0115190Y0149211D01*
X0116318Y0148720D02*
X0116955Y0148720D01*
X0117592Y0148083D01*
X0117592Y0147446D01*
X0116318Y0146172D01*
X0115682Y0146172D01*
X0115045Y0146809D01*
X0115045Y0147446D01*
X0110878Y0150976D02*
X0110878Y0151613D01*
X0111196Y0151931D01*
X0111833Y0151931D01*
X0112151Y0151613D01*
X0111833Y0151931D02*
X0111833Y0152568D01*
X0112151Y0152887D01*
X0112788Y0152887D01*
X0113425Y0152250D01*
X0113425Y0151613D01*
X0111342Y0153696D02*
X0111342Y0154333D01*
X0110705Y0154970D01*
X0110068Y0154970D01*
X0109750Y0154652D01*
X0109750Y0152104D01*
X0108476Y0153378D01*
X0089190Y0142485D02*
X0087280Y0140574D01*
X0087917Y0139937D02*
X0086643Y0141211D01*
X0085833Y0142021D02*
X0084559Y0143294D01*
X0085196Y0142657D02*
X0087107Y0144568D01*
X0087107Y0143294D01*
X0089190Y0142485D02*
X0089190Y0141211D01*
X0090318Y0140720D02*
X0090955Y0140720D01*
X0091592Y0140083D01*
X0091592Y0139446D01*
X0090318Y0138172D01*
X0089682Y0138172D01*
X0089045Y0138809D01*
X0089045Y0139446D01*
X0085455Y0135220D02*
X0086092Y0134583D01*
X0086092Y0133946D01*
X0084818Y0132672D01*
X0084182Y0132672D01*
X0083545Y0133309D01*
X0083545Y0133946D01*
X0082417Y0134437D02*
X0081143Y0135711D01*
X0081780Y0135074D02*
X0083690Y0136985D01*
X0083690Y0135711D01*
X0084818Y0135220D02*
X0085455Y0135220D01*
X0081607Y0137794D02*
X0081607Y0139068D01*
X0079696Y0137157D01*
X0080333Y0136521D02*
X0079059Y0137794D01*
X0078250Y0138604D02*
X0076976Y0139878D01*
X0077613Y0139241D02*
X0079523Y0141152D01*
X0079523Y0139878D01*
X0083431Y0144423D02*
X0084068Y0144423D01*
X0084068Y0146970D01*
X0082794Y0145696D01*
X0082794Y0145059D01*
X0083431Y0144423D01*
X0084068Y0144423D02*
X0085342Y0145696D01*
X0085342Y0146333D01*
X0084705Y0146970D01*
X0084068Y0146970D01*
X0047750Y0142502D02*
X0047750Y0140700D01*
X0047300Y0140250D01*
X0046399Y0140250D01*
X0045948Y0140700D01*
X0044803Y0140250D02*
X0043002Y0140250D01*
X0043903Y0140250D02*
X0043903Y0142952D01*
X0044803Y0142052D01*
X0045948Y0142502D02*
X0046399Y0142952D01*
X0047300Y0142952D01*
X0047750Y0142502D01*
X0041857Y0142502D02*
X0041857Y0140700D01*
X0040055Y0142502D01*
X0040055Y0140700D01*
X0040506Y0140250D01*
X0041407Y0140250D01*
X0041857Y0140700D01*
X0041857Y0142502D02*
X0041407Y0142952D01*
X0040506Y0142952D01*
X0040055Y0142502D01*
X0038910Y0142052D02*
X0038010Y0142952D01*
X0038010Y0140250D01*
X0038910Y0140250D02*
X0037109Y0140250D01*
X0099876Y0105278D02*
X0101150Y0104004D01*
X0101150Y0106552D01*
X0101468Y0106870D01*
X0102105Y0106870D01*
X0102742Y0106233D01*
X0102742Y0105596D01*
X0104507Y0104468D02*
X0102596Y0102557D01*
X0103233Y0101921D02*
X0101959Y0103194D01*
X0104507Y0103194D02*
X0104507Y0104468D01*
X0106590Y0102385D02*
X0104680Y0100474D01*
X0105317Y0099837D02*
X0104043Y0101111D01*
X0106590Y0101111D02*
X0106590Y0102385D01*
X0107718Y0100620D02*
X0108355Y0100620D01*
X0108992Y0099983D01*
X0108992Y0099346D01*
X0107718Y0098072D01*
X0107082Y0098072D01*
X0106445Y0098709D01*
X0106445Y0099346D01*
X0099390Y0095185D02*
X0097480Y0093274D01*
X0098117Y0092637D02*
X0096843Y0093911D01*
X0096033Y0094721D02*
X0096033Y0097268D01*
X0096351Y0097587D01*
X0096988Y0097587D01*
X0097625Y0096950D01*
X0097625Y0096313D01*
X0099390Y0095185D02*
X0099390Y0093911D01*
X0100518Y0093420D02*
X0101155Y0093420D01*
X0101792Y0092783D01*
X0101792Y0092146D01*
X0100518Y0090872D01*
X0099882Y0090872D01*
X0099245Y0091509D01*
X0099245Y0092146D01*
X0096033Y0094721D02*
X0094759Y0095994D01*
X0094268Y0097123D02*
X0093631Y0097123D01*
X0092994Y0097759D01*
X0092994Y0098396D01*
X0094268Y0099670D01*
X0094905Y0099670D01*
X0095542Y0099033D01*
X0095542Y0098396D01*
X0095223Y0098078D01*
X0094586Y0098078D01*
X0093631Y0099033D01*
X0082205Y0086970D02*
X0081568Y0086970D01*
X0081250Y0086652D01*
X0081250Y0086015D01*
X0080613Y0086015D01*
X0080294Y0085696D01*
X0080294Y0085059D01*
X0080931Y0084423D01*
X0081568Y0084423D01*
X0082059Y0083294D02*
X0083333Y0082021D01*
X0082696Y0082657D02*
X0084607Y0084568D01*
X0084607Y0083294D01*
X0086690Y0082485D02*
X0084780Y0080574D01*
X0085417Y0079937D02*
X0084143Y0081211D01*
X0086690Y0081211D02*
X0086690Y0082485D01*
X0087818Y0080720D02*
X0088455Y0080720D01*
X0089092Y0080083D01*
X0089092Y0079446D01*
X0087818Y0078172D01*
X0087182Y0078172D01*
X0086545Y0078809D01*
X0086545Y0079446D01*
X0082842Y0085696D02*
X0082842Y0086333D01*
X0082205Y0086970D01*
X0081250Y0086015D02*
X0081568Y0085696D01*
X0066353Y0094750D02*
X0066353Y0097452D01*
X0064551Y0097452D01*
X0063406Y0096552D02*
X0062956Y0096552D01*
X0062956Y0094750D01*
X0063406Y0094750D02*
X0062506Y0094750D01*
X0061442Y0094750D02*
X0061442Y0096552D01*
X0060091Y0096552D01*
X0059641Y0096101D01*
X0059641Y0094750D01*
X0058496Y0095200D02*
X0058045Y0094750D01*
X0056694Y0094750D01*
X0056694Y0094300D02*
X0056694Y0096552D01*
X0058045Y0096552D01*
X0058496Y0096101D01*
X0058496Y0095200D01*
X0057595Y0093849D02*
X0057144Y0093849D01*
X0056694Y0094300D01*
X0055549Y0095200D02*
X0055549Y0096101D01*
X0055099Y0096552D01*
X0054198Y0096552D01*
X0053747Y0096101D01*
X0053747Y0095651D01*
X0055549Y0095651D01*
X0055549Y0095200D02*
X0055099Y0094750D01*
X0054198Y0094750D01*
X0052603Y0094750D02*
X0052603Y0096552D01*
X0052603Y0095651D02*
X0051702Y0096552D01*
X0051251Y0096552D01*
X0054975Y0100000D02*
X0054975Y0101802D01*
X0055426Y0102252D01*
X0056777Y0102252D01*
X0056777Y0099550D01*
X0055426Y0099550D01*
X0054975Y0100000D01*
X0057922Y0099550D02*
X0057922Y0102252D01*
X0059723Y0102252D02*
X0057922Y0099550D01*
X0059723Y0099550D02*
X0059723Y0102252D01*
X0060868Y0101802D02*
X0061319Y0102252D01*
X0062219Y0102252D01*
X0062670Y0101802D01*
X0062670Y0100000D01*
X0062219Y0099550D01*
X0061319Y0099550D01*
X0060868Y0100000D01*
X0060868Y0100901D01*
X0061769Y0100901D01*
X0062956Y0097903D02*
X0062956Y0097452D01*
X0065452Y0096101D02*
X0066353Y0096101D01*
X0047250Y0090002D02*
X0047250Y0088200D01*
X0046800Y0087750D01*
X0045899Y0087750D01*
X0045448Y0088200D01*
X0044303Y0088200D02*
X0043853Y0087750D01*
X0042952Y0087750D01*
X0042502Y0088200D01*
X0042502Y0089101D01*
X0042952Y0089552D01*
X0043403Y0089552D01*
X0044303Y0089101D01*
X0044303Y0090452D01*
X0042502Y0090452D01*
X0041357Y0090002D02*
X0041357Y0088200D01*
X0039555Y0090002D01*
X0039555Y0088200D01*
X0040006Y0087750D01*
X0040907Y0087750D01*
X0041357Y0088200D01*
X0041357Y0090002D02*
X0040907Y0090452D01*
X0040006Y0090452D01*
X0039555Y0090002D01*
X0038410Y0089552D02*
X0037510Y0090452D01*
X0037510Y0087750D01*
X0038410Y0087750D02*
X0036609Y0087750D01*
X0045448Y0090002D02*
X0045899Y0090452D01*
X0046800Y0090452D01*
X0047250Y0090002D01*
X0061059Y0074452D02*
X0060609Y0074002D01*
X0060609Y0073552D01*
X0062410Y0071750D01*
X0060609Y0071750D01*
X0061059Y0074452D02*
X0061960Y0074452D01*
X0062410Y0074002D01*
X0063555Y0074002D02*
X0064006Y0074452D01*
X0064907Y0074452D01*
X0065357Y0074002D01*
X0063555Y0074002D02*
X0063555Y0073552D01*
X0065357Y0071750D01*
X0063555Y0071750D01*
X0066502Y0071750D02*
X0068303Y0071750D01*
X0067403Y0071750D02*
X0067403Y0074452D01*
X0068303Y0073552D01*
X0069448Y0074002D02*
X0069899Y0074452D01*
X0070800Y0074452D01*
X0071250Y0074002D01*
X0071250Y0072200D01*
X0070800Y0071750D01*
X0069899Y0071750D01*
X0069448Y0072200D01*
X0057250Y0072952D02*
X0057250Y0070250D01*
X0057250Y0071151D02*
X0055899Y0071151D01*
X0055448Y0071601D01*
X0055448Y0072502D01*
X0055899Y0072952D01*
X0057250Y0072952D01*
X0056349Y0071151D02*
X0055448Y0070250D01*
X0054303Y0070700D02*
X0053853Y0070250D01*
X0052952Y0070250D01*
X0052502Y0070700D01*
X0052502Y0071601D01*
X0052952Y0072052D01*
X0053403Y0072052D01*
X0054303Y0071601D01*
X0054303Y0072952D01*
X0052502Y0072952D01*
X0051357Y0072502D02*
X0050907Y0072952D01*
X0050006Y0072952D01*
X0049555Y0072502D01*
X0049555Y0072052D01*
X0050006Y0071601D01*
X0049555Y0071151D01*
X0049555Y0070700D01*
X0050006Y0070250D01*
X0050907Y0070250D01*
X0051357Y0070700D01*
X0050456Y0071601D02*
X0050006Y0071601D01*
X0050006Y0064952D02*
X0050907Y0064952D01*
X0051357Y0064502D01*
X0052502Y0064952D02*
X0054303Y0064952D01*
X0054303Y0063601D01*
X0053403Y0064052D01*
X0052952Y0064052D01*
X0052502Y0063601D01*
X0052502Y0062700D01*
X0052952Y0062250D01*
X0053853Y0062250D01*
X0054303Y0062700D01*
X0055448Y0062250D02*
X0056349Y0063151D01*
X0055899Y0063151D02*
X0057250Y0063151D01*
X0057250Y0062250D02*
X0057250Y0064952D01*
X0055899Y0064952D01*
X0055448Y0064502D01*
X0055448Y0063601D01*
X0055899Y0063151D01*
X0051357Y0062250D02*
X0049555Y0064052D01*
X0049555Y0064502D01*
X0050006Y0064952D01*
X0049555Y0062250D02*
X0051357Y0062250D01*
X0050456Y0056452D02*
X0050456Y0053750D01*
X0051357Y0053750D02*
X0049555Y0053750D01*
X0051357Y0055552D02*
X0050456Y0056452D01*
X0052502Y0056452D02*
X0054303Y0056452D01*
X0054303Y0055101D01*
X0053403Y0055552D01*
X0052952Y0055552D01*
X0052502Y0055101D01*
X0052502Y0054200D01*
X0052952Y0053750D01*
X0053853Y0053750D01*
X0054303Y0054200D01*
X0055448Y0053750D02*
X0056349Y0054651D01*
X0055899Y0054651D02*
X0057250Y0054651D01*
X0057250Y0053750D02*
X0057250Y0056452D01*
X0055899Y0056452D01*
X0055448Y0056002D01*
X0055448Y0055101D01*
X0055899Y0054651D01*
X0076030Y0045705D02*
X0076030Y0045068D01*
X0076348Y0044749D01*
X0078896Y0044749D01*
X0077622Y0043476D01*
X0076030Y0045705D02*
X0076667Y0046342D01*
X0077304Y0046342D01*
X0078113Y0047151D02*
X0080661Y0047151D01*
X0080661Y0046514D01*
X0080024Y0045878D01*
X0079387Y0045878D01*
X0078113Y0047151D01*
X0078113Y0047788D01*
X0078750Y0048425D01*
X0079387Y0048425D01*
X0080661Y0047151D01*
X0081789Y0047643D02*
X0083063Y0048916D01*
X0082426Y0048280D02*
X0080515Y0050190D01*
X0081789Y0050190D01*
X0082280Y0051318D02*
X0082280Y0051955D01*
X0082917Y0052592D01*
X0083554Y0052592D01*
X0084828Y0051318D01*
X0084828Y0050682D01*
X0084191Y0050045D01*
X0083554Y0050045D01*
X0031859Y0017753D02*
X0029524Y0017753D01*
X0029524Y0017169D01*
X0028176Y0014250D02*
X0025841Y0014250D01*
X0028176Y0014250D02*
X0025841Y0016585D01*
X0025841Y0017169D01*
X0015750Y0027250D02*
X0015750Y0029952D01*
X0014399Y0029952D01*
X0013948Y0029502D01*
X0013948Y0028601D01*
X0014399Y0028151D01*
X0015750Y0028151D01*
X0014849Y0028151D02*
X0013948Y0027250D01*
X0012803Y0027250D02*
X0011002Y0027250D01*
X0011903Y0027250D02*
X0011903Y0029952D01*
X0012803Y0029052D01*
X0009857Y0029502D02*
X0009407Y0029952D01*
X0008506Y0029952D01*
X0008055Y0029502D01*
X0008055Y0029052D01*
X0009857Y0027250D01*
X0008055Y0027250D01*
X0008055Y0037250D02*
X0009857Y0037250D01*
X0008956Y0037250D02*
X0008956Y0039952D01*
X0009857Y0039052D01*
X0011903Y0039952D02*
X0011903Y0037250D01*
X0012803Y0037250D02*
X0011002Y0037250D01*
X0013948Y0037250D02*
X0014849Y0038151D01*
X0014399Y0038151D02*
X0015750Y0038151D01*
X0015750Y0037250D02*
X0015750Y0039952D01*
X0014399Y0039952D01*
X0013948Y0039502D01*
X0013948Y0038601D01*
X0014399Y0038151D01*
X0012803Y0039052D02*
X0011903Y0039952D01*
X0136622Y0144476D02*
X0137896Y0145749D01*
X0135348Y0145749D01*
X0135030Y0146068D01*
X0135030Y0146705D01*
X0135667Y0147342D01*
X0136304Y0147342D01*
X0137750Y0147514D02*
X0139024Y0148788D01*
X0137113Y0148788D01*
X0139024Y0146878D01*
X0140789Y0148643D02*
X0142063Y0149916D01*
X0141426Y0149280D02*
X0139515Y0151190D01*
X0140789Y0151190D01*
X0141280Y0152318D02*
X0141280Y0152955D01*
X0141917Y0153592D01*
X0142554Y0153592D01*
X0143828Y0152318D01*
X0143828Y0151682D01*
X0143191Y0151045D01*
X0142554Y0151045D01*
X0187609Y0146250D02*
X0189410Y0146250D01*
X0188510Y0146250D02*
X0188510Y0148952D01*
X0189410Y0148052D01*
X0190555Y0148502D02*
X0192357Y0146700D01*
X0191907Y0146250D01*
X0191006Y0146250D01*
X0190555Y0146700D01*
X0190555Y0148502D01*
X0191006Y0148952D01*
X0191907Y0148952D01*
X0192357Y0148502D01*
X0192357Y0146700D01*
X0193502Y0147601D02*
X0195303Y0147601D01*
X0193952Y0148952D01*
X0193952Y0146250D01*
X0196448Y0146700D02*
X0196899Y0146250D01*
X0197800Y0146250D01*
X0198250Y0146700D01*
X0198250Y0148502D01*
X0197800Y0148952D01*
X0196899Y0148952D01*
X0196448Y0148502D01*
X0217250Y0111445D02*
X0217250Y0109643D01*
X0219052Y0111445D01*
X0219502Y0111445D01*
X0219952Y0110994D01*
X0219952Y0110093D01*
X0219502Y0109643D01*
X0219502Y0108498D02*
X0219952Y0108048D01*
X0219952Y0107147D01*
X0219502Y0106697D01*
X0219502Y0105552D02*
X0218601Y0105552D01*
X0218151Y0105101D01*
X0218151Y0103750D01*
X0218151Y0104651D02*
X0217250Y0105552D01*
X0217250Y0106697D02*
X0219052Y0108498D01*
X0219502Y0108498D01*
X0217250Y0108498D02*
X0217250Y0106697D01*
X0219502Y0105552D02*
X0219952Y0105101D01*
X0219952Y0103750D01*
X0217250Y0103750D01*
X0225750Y0104200D02*
X0226200Y0103750D01*
X0228002Y0103750D01*
X0228452Y0104200D01*
X0228452Y0105101D01*
X0228002Y0105552D01*
X0228002Y0106697D02*
X0228452Y0107147D01*
X0228452Y0108048D01*
X0228002Y0108498D01*
X0227552Y0108498D01*
X0225750Y0106697D01*
X0225750Y0108498D01*
X0225750Y0109643D02*
X0227552Y0111445D01*
X0228002Y0111445D01*
X0228452Y0110994D01*
X0228452Y0110093D01*
X0228002Y0109643D01*
X0225750Y0109643D02*
X0225750Y0111445D01*
X0233750Y0111445D02*
X0233750Y0109643D01*
X0233750Y0110544D02*
X0236452Y0110544D01*
X0235552Y0109643D01*
X0235552Y0108498D02*
X0236002Y0108498D01*
X0236452Y0108048D01*
X0236452Y0107147D01*
X0236002Y0106697D01*
X0236002Y0105552D02*
X0236452Y0105101D01*
X0236452Y0104200D01*
X0236002Y0103750D01*
X0234200Y0103750D01*
X0233750Y0104200D01*
X0233750Y0105101D01*
X0234200Y0105552D01*
X0233750Y0106697D02*
X0235552Y0108498D01*
X0233750Y0108498D02*
X0233750Y0106697D01*
X0226200Y0105552D02*
X0225750Y0105101D01*
X0225750Y0104200D01*
D12*
X0225437Y0098250D02*
X0225437Y0095750D01*
X0228562Y0095750D02*
X0228562Y0098250D01*
X0233437Y0098250D02*
X0233437Y0095750D01*
X0236562Y0095750D02*
X0236562Y0098250D01*
X0220562Y0098250D02*
X0220562Y0095750D01*
X0217437Y0095750D02*
X0217437Y0098250D01*
X0215250Y0078563D02*
X0212750Y0078563D01*
X0212750Y0075438D02*
X0215250Y0075438D01*
X0215250Y0070563D02*
X0212750Y0070563D01*
X0212750Y0067438D02*
X0215250Y0067438D01*
X0215250Y0061562D02*
X0212750Y0061562D01*
X0212750Y0058437D02*
X0215250Y0058437D01*
X0215250Y0053562D02*
X0212750Y0053562D01*
X0212750Y0050437D02*
X0215250Y0050437D01*
X0200750Y0056437D02*
X0198250Y0056437D01*
X0198250Y0059562D02*
X0200750Y0059562D01*
X0200750Y0064437D02*
X0198250Y0064437D01*
X0198250Y0067563D02*
X0200750Y0067563D01*
X0177489Y0056221D02*
X0175721Y0057989D01*
X0173511Y0055779D02*
X0175279Y0054011D01*
X0154279Y0070511D02*
X0152511Y0072279D01*
X0154721Y0074489D02*
X0156489Y0072721D01*
X0149989Y0066221D02*
X0148221Y0067989D01*
X0146011Y0065779D02*
X0147779Y0064011D01*
X0137489Y0053721D02*
X0135721Y0055489D01*
X0133511Y0053279D02*
X0135279Y0051511D01*
X0131989Y0048221D02*
X0130221Y0049989D01*
X0128011Y0047779D02*
X0129779Y0046011D01*
X0137221Y0034989D02*
X0138989Y0033221D01*
X0136779Y0031011D02*
X0135011Y0032779D01*
X0130721Y0028489D02*
X0132489Y0026721D01*
X0130279Y0024511D02*
X0128511Y0026279D01*
X0110489Y0020279D02*
X0108721Y0018511D01*
X0106511Y0020721D02*
X0108279Y0022489D01*
X0102989Y0027779D02*
X0101221Y0026011D01*
X0099011Y0028221D02*
X0100779Y0029989D01*
X0097489Y0033279D02*
X0095721Y0031511D01*
X0093511Y0033721D02*
X0095279Y0035489D01*
X0085989Y0044779D02*
X0084221Y0043011D01*
X0082011Y0045221D02*
X0083779Y0046989D01*
X0079250Y0025562D02*
X0076750Y0025562D01*
X0076750Y0022437D02*
X0079250Y0022437D01*
X0044250Y0053937D02*
X0041750Y0053937D01*
X0041750Y0057062D02*
X0044250Y0057062D01*
X0044250Y0061937D02*
X0041750Y0061937D01*
X0041750Y0065062D02*
X0044250Y0065062D01*
X0044250Y0069938D02*
X0041750Y0069938D01*
X0041750Y0073063D02*
X0044250Y0073063D01*
X0035146Y0075677D02*
X0035146Y0063110D01*
X0015854Y0063110D01*
X0015854Y0075677D01*
X0035146Y0075677D01*
X0041750Y0082438D02*
X0044250Y0082438D01*
X0044250Y0085563D02*
X0041750Y0085563D01*
X0064750Y0070063D02*
X0067250Y0070063D01*
X0067250Y0066938D02*
X0064750Y0066938D01*
X0086011Y0085779D02*
X0087779Y0084011D01*
X0089989Y0086221D02*
X0088221Y0087989D01*
X0092111Y0091779D02*
X0093879Y0090011D01*
X0096089Y0092221D02*
X0094321Y0093989D01*
X0099011Y0098779D02*
X0100779Y0097011D01*
X0102989Y0099221D02*
X0101221Y0100989D01*
X0129221Y0118011D02*
X0130989Y0119779D01*
X0128779Y0121989D02*
X0127011Y0120221D01*
X0140011Y0107721D02*
X0141779Y0109489D01*
X0143989Y0107279D02*
X0142221Y0105511D01*
X0156511Y0090721D02*
X0158279Y0092489D01*
X0160489Y0090279D02*
X0158721Y0088511D01*
X0162511Y0084721D02*
X0164279Y0086489D01*
X0166489Y0084279D02*
X0164721Y0082511D01*
X0090279Y0126511D02*
X0088511Y0128279D01*
X0090721Y0130489D02*
X0092489Y0128721D01*
X0095779Y0132011D02*
X0094011Y0133779D01*
X0096221Y0135989D02*
X0097989Y0134221D01*
X0101279Y0137511D02*
X0099511Y0139279D01*
X0101721Y0141489D02*
X0103489Y0139721D01*
X0109315Y0145476D02*
X0107547Y0147243D01*
X0109757Y0149453D02*
X0111524Y0147685D01*
X0141011Y0146221D02*
X0142779Y0147989D01*
X0144989Y0145779D02*
X0143221Y0144011D01*
X0191750Y0150938D02*
X0194250Y0150938D01*
X0194250Y0154063D02*
X0191750Y0154063D01*
X0044000Y0138500D02*
X0041000Y0138500D01*
X0041000Y0133500D02*
X0044000Y0133500D01*
X0014203Y0079252D02*
X0014203Y0076983D01*
X0012501Y0076983D01*
X0013069Y0078117D01*
X0013069Y0078685D01*
X0012501Y0079252D01*
X0011367Y0079252D01*
X0010800Y0078685D01*
X0010800Y0077550D01*
X0011367Y0076983D01*
X0011367Y0075569D02*
X0014203Y0075569D01*
X0014203Y0073300D02*
X0011367Y0073300D01*
X0010800Y0073867D01*
X0010800Y0075001D01*
X0011367Y0075569D01*
X0015854Y0063110D02*
X0015854Y0060323D01*
X0035146Y0060323D01*
X0035146Y0063110D01*
X0013250Y0035563D02*
X0010750Y0035563D01*
X0010750Y0032437D02*
X0013250Y0032437D01*
X0013250Y0025562D02*
X0010750Y0025562D01*
X0010750Y0022437D02*
X0013250Y0022437D01*
D13*
X0198468Y0121371D02*
X0237629Y0121371D01*
X0229277Y0136033D01*
X0225751Y0134363D01*
X0226307Y0133435D01*
X0226493Y0133064D01*
X0226493Y0131579D01*
X0225936Y0124155D01*
X0225565Y0124155D01*
X0225008Y0124526D01*
X0224637Y0125269D01*
X0224266Y0126382D01*
X0224080Y0128053D01*
X0224080Y0131579D01*
X0223152Y0132878D01*
X0222596Y0132878D01*
X0217585Y0130465D01*
X0217585Y0130280D01*
X0221111Y0127125D01*
X0221853Y0126011D01*
X0222224Y0125269D01*
X0222224Y0124712D01*
X0222039Y0124341D01*
X0221853Y0124155D01*
X0221482Y0124155D01*
X0220183Y0124898D01*
X0218698Y0125826D01*
X0217399Y0126754D01*
X0215728Y0127867D01*
X0214244Y0128795D01*
X0213872Y0128795D01*
X0198468Y0121743D01*
X0198468Y0121371D01*
X0198468Y0121498D02*
X0237557Y0121498D01*
X0237452Y0121681D02*
X0198468Y0121681D01*
X0198735Y0121865D02*
X0237348Y0121865D01*
X0237243Y0122048D02*
X0199136Y0122048D01*
X0199537Y0122232D02*
X0237139Y0122232D01*
X0237034Y0122415D02*
X0199938Y0122415D01*
X0200339Y0122599D02*
X0236930Y0122599D01*
X0236825Y0122782D02*
X0200739Y0122782D01*
X0201140Y0122966D02*
X0236720Y0122966D01*
X0236616Y0123149D02*
X0201541Y0123149D01*
X0201942Y0123333D02*
X0236511Y0123333D01*
X0236407Y0123517D02*
X0202343Y0123517D01*
X0202744Y0123700D02*
X0236302Y0123700D01*
X0236198Y0123884D02*
X0203145Y0123884D01*
X0203546Y0124067D02*
X0236093Y0124067D01*
X0235989Y0124251D02*
X0225943Y0124251D01*
X0225957Y0124434D02*
X0235884Y0124434D01*
X0235779Y0124618D02*
X0225971Y0124618D01*
X0225985Y0124801D02*
X0235675Y0124801D01*
X0235570Y0124985D02*
X0225998Y0124985D01*
X0226012Y0125169D02*
X0235466Y0125169D01*
X0235361Y0125352D02*
X0226026Y0125352D01*
X0226040Y0125536D02*
X0235257Y0125536D01*
X0235152Y0125719D02*
X0226054Y0125719D01*
X0226067Y0125903D02*
X0235048Y0125903D01*
X0234943Y0126086D02*
X0226081Y0126086D01*
X0226095Y0126270D02*
X0234838Y0126270D01*
X0234734Y0126453D02*
X0226109Y0126453D01*
X0226122Y0126637D02*
X0234629Y0126637D01*
X0234525Y0126820D02*
X0226136Y0126820D01*
X0226150Y0127004D02*
X0234420Y0127004D01*
X0234316Y0127188D02*
X0226164Y0127188D01*
X0226177Y0127371D02*
X0234211Y0127371D01*
X0234107Y0127555D02*
X0226191Y0127555D01*
X0226205Y0127738D02*
X0234002Y0127738D01*
X0233897Y0127922D02*
X0226219Y0127922D01*
X0226232Y0128105D02*
X0233793Y0128105D01*
X0233688Y0128289D02*
X0226246Y0128289D01*
X0226260Y0128472D02*
X0233584Y0128472D01*
X0233479Y0128656D02*
X0226274Y0128656D01*
X0226287Y0128840D02*
X0233375Y0128840D01*
X0233270Y0129023D02*
X0226301Y0129023D01*
X0226315Y0129207D02*
X0233166Y0129207D01*
X0233061Y0129390D02*
X0226329Y0129390D01*
X0226343Y0129574D02*
X0232956Y0129574D01*
X0232852Y0129757D02*
X0226356Y0129757D01*
X0226370Y0129941D02*
X0232747Y0129941D01*
X0232643Y0130124D02*
X0226384Y0130124D01*
X0226398Y0130308D02*
X0232538Y0130308D01*
X0232434Y0130491D02*
X0226411Y0130491D01*
X0226425Y0130675D02*
X0232329Y0130675D01*
X0232225Y0130859D02*
X0226439Y0130859D01*
X0226453Y0131042D02*
X0232120Y0131042D01*
X0232016Y0131226D02*
X0226466Y0131226D01*
X0226480Y0131409D02*
X0231911Y0131409D01*
X0231806Y0131593D02*
X0226493Y0131593D01*
X0226493Y0131776D02*
X0231702Y0131776D01*
X0231597Y0131960D02*
X0226493Y0131960D01*
X0226493Y0132143D02*
X0231493Y0132143D01*
X0231388Y0132327D02*
X0226493Y0132327D01*
X0226493Y0132511D02*
X0231284Y0132511D01*
X0231179Y0132694D02*
X0226493Y0132694D01*
X0226493Y0132878D02*
X0231075Y0132878D01*
X0230970Y0133061D02*
X0226493Y0133061D01*
X0226403Y0133245D02*
X0230865Y0133245D01*
X0230761Y0133428D02*
X0226311Y0133428D01*
X0226201Y0133612D02*
X0230656Y0133612D01*
X0230552Y0133795D02*
X0226091Y0133795D01*
X0225981Y0133979D02*
X0230447Y0133979D01*
X0230343Y0134163D02*
X0225871Y0134163D01*
X0225761Y0134346D02*
X0230238Y0134346D01*
X0230134Y0134530D02*
X0226103Y0134530D01*
X0226490Y0134713D02*
X0230029Y0134713D01*
X0229924Y0134897D02*
X0226878Y0134897D01*
X0227265Y0135080D02*
X0229820Y0135080D01*
X0229715Y0135264D02*
X0227653Y0135264D01*
X0228040Y0135447D02*
X0229611Y0135447D01*
X0229506Y0135631D02*
X0228428Y0135631D01*
X0228816Y0135814D02*
X0229402Y0135814D01*
X0229297Y0135998D02*
X0229203Y0135998D01*
X0227607Y0138075D02*
X0223895Y0136219D01*
X0223524Y0136219D01*
X0219626Y0139745D01*
X0219441Y0139931D01*
X0210532Y0141601D01*
X0210532Y0141972D01*
X0217956Y0154778D01*
X0227607Y0138075D01*
X0227491Y0138017D02*
X0221536Y0138017D01*
X0221333Y0138201D02*
X0227534Y0138201D01*
X0227428Y0138384D02*
X0221130Y0138384D01*
X0220927Y0138568D02*
X0227322Y0138568D01*
X0227216Y0138751D02*
X0220725Y0138751D01*
X0220522Y0138935D02*
X0227110Y0138935D01*
X0227004Y0139118D02*
X0220319Y0139118D01*
X0220116Y0139302D02*
X0226898Y0139302D01*
X0226792Y0139485D02*
X0219913Y0139485D01*
X0219710Y0139669D02*
X0226686Y0139669D01*
X0226580Y0139853D02*
X0219519Y0139853D01*
X0218878Y0140036D02*
X0226473Y0140036D01*
X0226367Y0140220D02*
X0217899Y0140220D01*
X0216921Y0140403D02*
X0226261Y0140403D01*
X0226155Y0140587D02*
X0215942Y0140587D01*
X0214963Y0140770D02*
X0226049Y0140770D01*
X0225943Y0140954D02*
X0213984Y0140954D01*
X0213005Y0141137D02*
X0225837Y0141137D01*
X0225731Y0141321D02*
X0212026Y0141321D01*
X0211047Y0141505D02*
X0225625Y0141505D01*
X0225519Y0141688D02*
X0210532Y0141688D01*
X0210532Y0141872D02*
X0225413Y0141872D01*
X0225307Y0142055D02*
X0210580Y0142055D01*
X0210686Y0142239D02*
X0225201Y0142239D01*
X0225095Y0142422D02*
X0210793Y0142422D01*
X0210899Y0142606D02*
X0224989Y0142606D01*
X0224883Y0142789D02*
X0211005Y0142789D01*
X0211112Y0142973D02*
X0224777Y0142973D01*
X0224671Y0143156D02*
X0211218Y0143156D01*
X0211325Y0143340D02*
X0224564Y0143340D01*
X0224458Y0143524D02*
X0211431Y0143524D01*
X0211538Y0143707D02*
X0224352Y0143707D01*
X0224246Y0143891D02*
X0211644Y0143891D01*
X0211750Y0144074D02*
X0224140Y0144074D01*
X0224034Y0144258D02*
X0211857Y0144258D01*
X0211963Y0144441D02*
X0223928Y0144441D01*
X0223822Y0144625D02*
X0212070Y0144625D01*
X0212176Y0144808D02*
X0223716Y0144808D01*
X0223610Y0144992D02*
X0212282Y0144992D01*
X0212389Y0145176D02*
X0223504Y0145176D01*
X0223398Y0145359D02*
X0212495Y0145359D01*
X0212602Y0145543D02*
X0223292Y0145543D01*
X0223186Y0145726D02*
X0212708Y0145726D01*
X0212814Y0145910D02*
X0223080Y0145910D01*
X0222974Y0146093D02*
X0212921Y0146093D01*
X0213027Y0146277D02*
X0222868Y0146277D01*
X0222762Y0146460D02*
X0213134Y0146460D01*
X0213240Y0146644D02*
X0222655Y0146644D01*
X0222549Y0146828D02*
X0213346Y0146828D01*
X0213453Y0147011D02*
X0222443Y0147011D01*
X0222337Y0147195D02*
X0213559Y0147195D01*
X0213666Y0147378D02*
X0222231Y0147378D01*
X0222125Y0147562D02*
X0213772Y0147562D01*
X0213878Y0147745D02*
X0222019Y0147745D01*
X0221913Y0147929D02*
X0213985Y0147929D01*
X0214091Y0148112D02*
X0221807Y0148112D01*
X0221701Y0148296D02*
X0214198Y0148296D01*
X0214304Y0148479D02*
X0221595Y0148479D01*
X0221489Y0148663D02*
X0214410Y0148663D01*
X0214517Y0148847D02*
X0221383Y0148847D01*
X0221277Y0149030D02*
X0214623Y0149030D01*
X0214730Y0149214D02*
X0221171Y0149214D01*
X0221065Y0149397D02*
X0214836Y0149397D01*
X0214942Y0149581D02*
X0220959Y0149581D01*
X0220853Y0149764D02*
X0215049Y0149764D01*
X0215155Y0149948D02*
X0220747Y0149948D01*
X0220640Y0150131D02*
X0215262Y0150131D01*
X0215368Y0150315D02*
X0220534Y0150315D01*
X0220428Y0150499D02*
X0215474Y0150499D01*
X0215581Y0150682D02*
X0220322Y0150682D01*
X0220216Y0150866D02*
X0215687Y0150866D01*
X0215794Y0151049D02*
X0220110Y0151049D01*
X0220004Y0151233D02*
X0215900Y0151233D01*
X0216007Y0151416D02*
X0219898Y0151416D01*
X0219792Y0151600D02*
X0216113Y0151600D01*
X0216219Y0151783D02*
X0219686Y0151783D01*
X0219580Y0151967D02*
X0216326Y0151967D01*
X0216432Y0152150D02*
X0219474Y0152150D01*
X0219368Y0152334D02*
X0216539Y0152334D01*
X0216645Y0152518D02*
X0219262Y0152518D01*
X0219156Y0152701D02*
X0216751Y0152701D01*
X0216858Y0152885D02*
X0219050Y0152885D01*
X0218944Y0153068D02*
X0216964Y0153068D01*
X0217071Y0153252D02*
X0218838Y0153252D01*
X0218731Y0153435D02*
X0217177Y0153435D01*
X0217283Y0153619D02*
X0218625Y0153619D01*
X0218519Y0153802D02*
X0217390Y0153802D01*
X0217496Y0153986D02*
X0218413Y0153986D01*
X0218307Y0154170D02*
X0217603Y0154170D01*
X0217709Y0154353D02*
X0218201Y0154353D01*
X0218095Y0154537D02*
X0217815Y0154537D01*
X0217922Y0154720D02*
X0217989Y0154720D01*
X0221739Y0137834D02*
X0227124Y0137834D01*
X0226757Y0137650D02*
X0221942Y0137650D01*
X0222145Y0137466D02*
X0226390Y0137466D01*
X0226023Y0137283D02*
X0222348Y0137283D01*
X0222551Y0137099D02*
X0225656Y0137099D01*
X0225289Y0136916D02*
X0222753Y0136916D01*
X0222956Y0136732D02*
X0224922Y0136732D01*
X0224554Y0136549D02*
X0223159Y0136549D01*
X0223362Y0136365D02*
X0224187Y0136365D01*
X0220183Y0134363D02*
X0216285Y0132507D01*
X0215914Y0133064D01*
X0215728Y0133806D01*
X0216100Y0134363D01*
X0216656Y0134734D01*
X0218513Y0135291D01*
X0218883Y0135291D01*
X0220183Y0134363D01*
X0220147Y0134346D02*
X0216088Y0134346D01*
X0215966Y0134163D02*
X0219762Y0134163D01*
X0219949Y0134530D02*
X0216349Y0134530D01*
X0216625Y0134713D02*
X0219692Y0134713D01*
X0219435Y0134897D02*
X0217198Y0134897D01*
X0217810Y0135080D02*
X0219178Y0135080D01*
X0218921Y0135264D02*
X0218422Y0135264D01*
X0218991Y0133795D02*
X0215731Y0133795D01*
X0215777Y0133612D02*
X0218605Y0133612D01*
X0218220Y0133428D02*
X0215823Y0133428D01*
X0215869Y0133245D02*
X0217834Y0133245D01*
X0217449Y0133061D02*
X0215916Y0133061D01*
X0216038Y0132878D02*
X0217064Y0132878D01*
X0216678Y0132694D02*
X0216161Y0132694D01*
X0216283Y0132511D02*
X0216293Y0132511D01*
X0215844Y0133979D02*
X0219376Y0133979D01*
X0220308Y0131776D02*
X0223939Y0131776D01*
X0224071Y0131593D02*
X0219926Y0131593D01*
X0219545Y0131409D02*
X0224080Y0131409D01*
X0224080Y0131226D02*
X0219164Y0131226D01*
X0218783Y0131042D02*
X0224080Y0131042D01*
X0224080Y0130859D02*
X0218401Y0130859D01*
X0218020Y0130675D02*
X0224080Y0130675D01*
X0224080Y0130491D02*
X0217639Y0130491D01*
X0217585Y0130308D02*
X0224080Y0130308D01*
X0224080Y0130124D02*
X0217758Y0130124D01*
X0217964Y0129941D02*
X0224080Y0129941D01*
X0224080Y0129757D02*
X0218169Y0129757D01*
X0218374Y0129574D02*
X0224080Y0129574D01*
X0224080Y0129390D02*
X0218579Y0129390D01*
X0218784Y0129207D02*
X0224080Y0129207D01*
X0224080Y0129023D02*
X0218989Y0129023D01*
X0219194Y0128840D02*
X0224080Y0128840D01*
X0224080Y0128656D02*
X0219399Y0128656D01*
X0219605Y0128472D02*
X0224080Y0128472D01*
X0224080Y0128289D02*
X0219810Y0128289D01*
X0220015Y0128105D02*
X0224080Y0128105D01*
X0224095Y0127922D02*
X0220220Y0127922D01*
X0220425Y0127738D02*
X0224115Y0127738D01*
X0224136Y0127555D02*
X0220630Y0127555D01*
X0220835Y0127371D02*
X0224156Y0127371D01*
X0224176Y0127188D02*
X0221040Y0127188D01*
X0221191Y0127004D02*
X0224197Y0127004D01*
X0224217Y0126820D02*
X0221314Y0126820D01*
X0221436Y0126637D02*
X0224237Y0126637D01*
X0224258Y0126453D02*
X0221558Y0126453D01*
X0221681Y0126270D02*
X0224303Y0126270D01*
X0224364Y0126086D02*
X0221803Y0126086D01*
X0221907Y0125903D02*
X0224426Y0125903D01*
X0224487Y0125719D02*
X0221999Y0125719D01*
X0222091Y0125536D02*
X0224548Y0125536D01*
X0224609Y0125352D02*
X0222183Y0125352D01*
X0222224Y0125169D02*
X0224687Y0125169D01*
X0224779Y0124985D02*
X0222224Y0124985D01*
X0222224Y0124801D02*
X0224871Y0124801D01*
X0224963Y0124618D02*
X0222177Y0124618D01*
X0222086Y0124434D02*
X0225146Y0124434D01*
X0225422Y0124251D02*
X0221949Y0124251D01*
X0221315Y0124251D02*
X0203947Y0124251D01*
X0204348Y0124434D02*
X0220993Y0124434D01*
X0220672Y0124618D02*
X0204749Y0124618D01*
X0205150Y0124801D02*
X0220351Y0124801D01*
X0220043Y0124985D02*
X0205551Y0124985D01*
X0205951Y0125169D02*
X0219749Y0125169D01*
X0219456Y0125352D02*
X0206352Y0125352D01*
X0206753Y0125536D02*
X0219162Y0125536D01*
X0218868Y0125719D02*
X0207154Y0125719D01*
X0207555Y0125903D02*
X0218590Y0125903D01*
X0218333Y0126086D02*
X0207956Y0126086D01*
X0208357Y0126270D02*
X0218076Y0126270D01*
X0217819Y0126453D02*
X0208758Y0126453D01*
X0209159Y0126637D02*
X0217562Y0126637D01*
X0217298Y0126820D02*
X0209560Y0126820D01*
X0209961Y0127004D02*
X0217023Y0127004D01*
X0216748Y0127188D02*
X0210362Y0127188D01*
X0210763Y0127371D02*
X0216472Y0127371D01*
X0216197Y0127555D02*
X0211164Y0127555D01*
X0211564Y0127738D02*
X0215921Y0127738D01*
X0215641Y0127922D02*
X0211965Y0127922D01*
X0212366Y0128105D02*
X0215347Y0128105D01*
X0215053Y0128289D02*
X0212767Y0128289D01*
X0213168Y0128472D02*
X0214760Y0128472D01*
X0214466Y0128656D02*
X0213569Y0128656D01*
X0210717Y0130280D02*
X0210717Y0130465D01*
X0206634Y0134920D01*
X0201438Y0125826D01*
X0210717Y0130280D01*
X0210717Y0130308D02*
X0203999Y0130308D01*
X0204104Y0130491D02*
X0210693Y0130491D01*
X0210525Y0130675D02*
X0204209Y0130675D01*
X0204314Y0130859D02*
X0210357Y0130859D01*
X0210189Y0131042D02*
X0204419Y0131042D01*
X0204523Y0131226D02*
X0210020Y0131226D01*
X0209852Y0131409D02*
X0204628Y0131409D01*
X0204733Y0131593D02*
X0209684Y0131593D01*
X0209516Y0131776D02*
X0204838Y0131776D01*
X0204943Y0131960D02*
X0209347Y0131960D01*
X0209179Y0132143D02*
X0205048Y0132143D01*
X0205153Y0132327D02*
X0209011Y0132327D01*
X0208843Y0132511D02*
X0205258Y0132511D01*
X0205363Y0132694D02*
X0208674Y0132694D01*
X0208506Y0132878D02*
X0205467Y0132878D01*
X0205572Y0133061D02*
X0208338Y0133061D01*
X0208170Y0133245D02*
X0205677Y0133245D01*
X0205782Y0133428D02*
X0208001Y0133428D01*
X0207833Y0133612D02*
X0205887Y0133612D01*
X0205992Y0133795D02*
X0207665Y0133795D01*
X0207497Y0133979D02*
X0206097Y0133979D01*
X0206202Y0134163D02*
X0207328Y0134163D01*
X0207160Y0134346D02*
X0206306Y0134346D01*
X0206411Y0134530D02*
X0206992Y0134530D01*
X0206824Y0134713D02*
X0206516Y0134713D01*
X0206621Y0134897D02*
X0206655Y0134897D01*
X0203894Y0130124D02*
X0210393Y0130124D01*
X0210011Y0129941D02*
X0203789Y0129941D01*
X0203684Y0129757D02*
X0209629Y0129757D01*
X0209246Y0129574D02*
X0203580Y0129574D01*
X0203475Y0129390D02*
X0208864Y0129390D01*
X0208481Y0129207D02*
X0203370Y0129207D01*
X0203265Y0129023D02*
X0208099Y0129023D01*
X0207717Y0128840D02*
X0203160Y0128840D01*
X0203055Y0128656D02*
X0207334Y0128656D01*
X0206952Y0128472D02*
X0202950Y0128472D01*
X0202845Y0128289D02*
X0206569Y0128289D01*
X0206187Y0128105D02*
X0202740Y0128105D01*
X0202636Y0127922D02*
X0205805Y0127922D01*
X0205422Y0127738D02*
X0202531Y0127738D01*
X0202426Y0127555D02*
X0205040Y0127555D01*
X0204658Y0127371D02*
X0202321Y0127371D01*
X0202216Y0127188D02*
X0204275Y0127188D01*
X0203893Y0127004D02*
X0202111Y0127004D01*
X0202006Y0126820D02*
X0203510Y0126820D01*
X0203128Y0126637D02*
X0201901Y0126637D01*
X0201797Y0126453D02*
X0202746Y0126453D01*
X0202363Y0126270D02*
X0201692Y0126270D01*
X0201587Y0126086D02*
X0201981Y0126086D01*
X0201598Y0125903D02*
X0201482Y0125903D01*
X0220689Y0131960D02*
X0223808Y0131960D01*
X0223677Y0132143D02*
X0221070Y0132143D01*
X0221451Y0132327D02*
X0223546Y0132327D01*
X0223415Y0132511D02*
X0221833Y0132511D01*
X0222214Y0132694D02*
X0223284Y0132694D01*
X0223153Y0132878D02*
X0222595Y0132878D01*
D14*
X0185398Y0118965D02*
X0147739Y0157607D01*
X0155597Y0151548D02*
X0155599Y0151625D01*
X0155605Y0151701D01*
X0155615Y0151777D01*
X0155629Y0151852D01*
X0155646Y0151926D01*
X0155668Y0152000D01*
X0155693Y0152072D01*
X0155722Y0152143D01*
X0155755Y0152212D01*
X0155791Y0152279D01*
X0155831Y0152345D01*
X0155874Y0152408D01*
X0155920Y0152469D01*
X0155970Y0152528D01*
X0156022Y0152583D01*
X0156077Y0152637D01*
X0156135Y0152687D01*
X0156195Y0152734D01*
X0156258Y0152778D01*
X0156323Y0152818D01*
X0156390Y0152855D01*
X0156459Y0152889D01*
X0156529Y0152919D01*
X0156601Y0152945D01*
X0156674Y0152968D01*
X0156748Y0152986D01*
X0156823Y0153001D01*
X0156899Y0153012D01*
X0156975Y0153019D01*
X0157052Y0153022D01*
X0157128Y0153021D01*
X0157205Y0153016D01*
X0157281Y0153007D01*
X0157356Y0152994D01*
X0157431Y0152977D01*
X0157505Y0152957D01*
X0157577Y0152932D01*
X0157648Y0152904D01*
X0157718Y0152872D01*
X0157786Y0152837D01*
X0157852Y0152798D01*
X0157916Y0152756D01*
X0157977Y0152711D01*
X0158036Y0152662D01*
X0158093Y0152610D01*
X0158147Y0152556D01*
X0158197Y0152499D01*
X0158245Y0152439D01*
X0158290Y0152377D01*
X0158331Y0152312D01*
X0158369Y0152246D01*
X0158404Y0152178D01*
X0158435Y0152108D01*
X0158462Y0152036D01*
X0158485Y0151963D01*
X0158505Y0151889D01*
X0158521Y0151814D01*
X0158533Y0151739D01*
X0158541Y0151663D01*
X0158545Y0151586D01*
X0158545Y0151510D01*
X0158541Y0151433D01*
X0158533Y0151357D01*
X0158521Y0151282D01*
X0158505Y0151207D01*
X0158485Y0151133D01*
X0158462Y0151060D01*
X0158435Y0150988D01*
X0158404Y0150918D01*
X0158369Y0150850D01*
X0158331Y0150784D01*
X0158290Y0150719D01*
X0158245Y0150657D01*
X0158197Y0150597D01*
X0158147Y0150540D01*
X0158093Y0150486D01*
X0158036Y0150434D01*
X0157977Y0150385D01*
X0157916Y0150340D01*
X0157852Y0150298D01*
X0157786Y0150259D01*
X0157718Y0150224D01*
X0157648Y0150192D01*
X0157577Y0150164D01*
X0157505Y0150139D01*
X0157431Y0150119D01*
X0157356Y0150102D01*
X0157281Y0150089D01*
X0157205Y0150080D01*
X0157128Y0150075D01*
X0157052Y0150074D01*
X0156975Y0150077D01*
X0156899Y0150084D01*
X0156823Y0150095D01*
X0156748Y0150110D01*
X0156674Y0150128D01*
X0156601Y0150151D01*
X0156529Y0150177D01*
X0156459Y0150207D01*
X0156390Y0150241D01*
X0156323Y0150278D01*
X0156258Y0150318D01*
X0156195Y0150362D01*
X0156135Y0150409D01*
X0156077Y0150459D01*
X0156022Y0150513D01*
X0155970Y0150568D01*
X0155920Y0150627D01*
X0155874Y0150688D01*
X0155831Y0150751D01*
X0155791Y0150817D01*
X0155755Y0150884D01*
X0155722Y0150953D01*
X0155693Y0151024D01*
X0155668Y0151096D01*
X0155646Y0151170D01*
X0155629Y0151244D01*
X0155615Y0151319D01*
X0155605Y0151395D01*
X0155599Y0151471D01*
X0155597Y0151548D01*
X0158545Y0151385D02*
X0160182Y0129444D01*
X0158873Y0125269D02*
X0158875Y0125349D01*
X0158881Y0125429D01*
X0158891Y0125509D01*
X0158904Y0125588D01*
X0158922Y0125667D01*
X0158943Y0125744D01*
X0158969Y0125820D01*
X0158998Y0125895D01*
X0159030Y0125969D01*
X0159066Y0126041D01*
X0159106Y0126111D01*
X0159149Y0126178D01*
X0159195Y0126244D01*
X0159245Y0126308D01*
X0159297Y0126368D01*
X0159352Y0126427D01*
X0159411Y0126482D01*
X0159471Y0126534D01*
X0159535Y0126584D01*
X0159601Y0126630D01*
X0159668Y0126673D01*
X0159738Y0126713D01*
X0159810Y0126749D01*
X0159884Y0126781D01*
X0159959Y0126810D01*
X0160035Y0126836D01*
X0160112Y0126857D01*
X0160191Y0126875D01*
X0160270Y0126888D01*
X0160350Y0126898D01*
X0160430Y0126904D01*
X0160510Y0126906D01*
X0160590Y0126904D01*
X0160670Y0126898D01*
X0160750Y0126888D01*
X0160829Y0126875D01*
X0160908Y0126857D01*
X0160985Y0126836D01*
X0161061Y0126810D01*
X0161136Y0126781D01*
X0161210Y0126749D01*
X0161282Y0126713D01*
X0161352Y0126673D01*
X0161419Y0126630D01*
X0161485Y0126584D01*
X0161549Y0126534D01*
X0161609Y0126482D01*
X0161668Y0126427D01*
X0161723Y0126368D01*
X0161775Y0126308D01*
X0161825Y0126244D01*
X0161871Y0126178D01*
X0161914Y0126111D01*
X0161954Y0126041D01*
X0161990Y0125969D01*
X0162022Y0125895D01*
X0162051Y0125820D01*
X0162077Y0125744D01*
X0162098Y0125667D01*
X0162116Y0125588D01*
X0162129Y0125509D01*
X0162139Y0125429D01*
X0162145Y0125349D01*
X0162147Y0125269D01*
X0162145Y0125189D01*
X0162139Y0125109D01*
X0162129Y0125029D01*
X0162116Y0124950D01*
X0162098Y0124871D01*
X0162077Y0124794D01*
X0162051Y0124718D01*
X0162022Y0124643D01*
X0161990Y0124569D01*
X0161954Y0124497D01*
X0161914Y0124427D01*
X0161871Y0124360D01*
X0161825Y0124294D01*
X0161775Y0124230D01*
X0161723Y0124170D01*
X0161668Y0124111D01*
X0161609Y0124056D01*
X0161549Y0124004D01*
X0161485Y0123954D01*
X0161419Y0123908D01*
X0161352Y0123865D01*
X0161282Y0123825D01*
X0161210Y0123789D01*
X0161136Y0123757D01*
X0161061Y0123728D01*
X0160985Y0123702D01*
X0160908Y0123681D01*
X0160829Y0123663D01*
X0160750Y0123650D01*
X0160670Y0123640D01*
X0160590Y0123634D01*
X0160510Y0123632D01*
X0160430Y0123634D01*
X0160350Y0123640D01*
X0160270Y0123650D01*
X0160191Y0123663D01*
X0160112Y0123681D01*
X0160035Y0123702D01*
X0159959Y0123728D01*
X0159884Y0123757D01*
X0159810Y0123789D01*
X0159738Y0123825D01*
X0159668Y0123865D01*
X0159601Y0123908D01*
X0159535Y0123954D01*
X0159471Y0124004D01*
X0159411Y0124056D01*
X0159352Y0124111D01*
X0159297Y0124170D01*
X0159245Y0124230D01*
X0159195Y0124294D01*
X0159149Y0124360D01*
X0159106Y0124427D01*
X0159066Y0124497D01*
X0159030Y0124569D01*
X0158998Y0124643D01*
X0158969Y0124718D01*
X0158943Y0124794D01*
X0158922Y0124871D01*
X0158904Y0124950D01*
X0158891Y0125029D01*
X0158881Y0125109D01*
X0158875Y0125189D01*
X0158873Y0125269D01*
X0157558Y0125269D02*
X0157560Y0125377D01*
X0157566Y0125486D01*
X0157576Y0125594D01*
X0157590Y0125701D01*
X0157608Y0125808D01*
X0157629Y0125915D01*
X0157655Y0126020D01*
X0157685Y0126124D01*
X0157718Y0126228D01*
X0157755Y0126329D01*
X0157796Y0126430D01*
X0157840Y0126529D01*
X0157888Y0126626D01*
X0157940Y0126721D01*
X0157995Y0126815D01*
X0158054Y0126906D01*
X0158115Y0126995D01*
X0158180Y0127082D01*
X0158249Y0127167D01*
X0158320Y0127248D01*
X0158394Y0127327D01*
X0158471Y0127404D01*
X0158551Y0127477D01*
X0158633Y0127548D01*
X0158718Y0127615D01*
X0158806Y0127679D01*
X0158895Y0127740D01*
X0158987Y0127798D01*
X0159081Y0127852D01*
X0159177Y0127903D01*
X0159275Y0127950D01*
X0159374Y0127994D01*
X0159475Y0128034D01*
X0159577Y0128070D01*
X0159681Y0128102D01*
X0159785Y0128131D01*
X0159891Y0128155D01*
X0159997Y0128176D01*
X0160105Y0128193D01*
X0160212Y0128206D01*
X0160320Y0128215D01*
X0160429Y0128220D01*
X0160537Y0128221D01*
X0160646Y0128218D01*
X0160754Y0128211D01*
X0160862Y0128200D01*
X0160969Y0128185D01*
X0161076Y0128166D01*
X0161182Y0128143D01*
X0161287Y0128117D01*
X0161391Y0128086D01*
X0161494Y0128052D01*
X0161596Y0128014D01*
X0161696Y0127972D01*
X0161794Y0127927D01*
X0161891Y0127878D01*
X0161986Y0127826D01*
X0162079Y0127770D01*
X0162170Y0127710D01*
X0162258Y0127648D01*
X0162344Y0127582D01*
X0162428Y0127513D01*
X0162509Y0127441D01*
X0162588Y0127366D01*
X0162663Y0127288D01*
X0162736Y0127208D01*
X0162806Y0127125D01*
X0162872Y0127039D01*
X0162936Y0126951D01*
X0162996Y0126861D01*
X0163053Y0126768D01*
X0163106Y0126674D01*
X0163156Y0126578D01*
X0163202Y0126480D01*
X0163245Y0126380D01*
X0163284Y0126279D01*
X0163319Y0126176D01*
X0163351Y0126072D01*
X0163378Y0125967D01*
X0163402Y0125862D01*
X0163422Y0125755D01*
X0163438Y0125648D01*
X0163450Y0125540D01*
X0163458Y0125432D01*
X0163462Y0125323D01*
X0163462Y0125215D01*
X0163458Y0125106D01*
X0163450Y0124998D01*
X0163438Y0124890D01*
X0163422Y0124783D01*
X0163402Y0124676D01*
X0163378Y0124571D01*
X0163351Y0124466D01*
X0163319Y0124362D01*
X0163284Y0124259D01*
X0163245Y0124158D01*
X0163202Y0124058D01*
X0163156Y0123960D01*
X0163106Y0123864D01*
X0163053Y0123770D01*
X0162996Y0123677D01*
X0162936Y0123587D01*
X0162872Y0123499D01*
X0162806Y0123413D01*
X0162736Y0123330D01*
X0162663Y0123250D01*
X0162588Y0123172D01*
X0162509Y0123097D01*
X0162428Y0123025D01*
X0162344Y0122956D01*
X0162258Y0122890D01*
X0162170Y0122828D01*
X0162079Y0122768D01*
X0161986Y0122712D01*
X0161891Y0122660D01*
X0161794Y0122611D01*
X0161696Y0122566D01*
X0161596Y0122524D01*
X0161494Y0122486D01*
X0161391Y0122452D01*
X0161287Y0122421D01*
X0161182Y0122395D01*
X0161076Y0122372D01*
X0160969Y0122353D01*
X0160862Y0122338D01*
X0160754Y0122327D01*
X0160646Y0122320D01*
X0160537Y0122317D01*
X0160429Y0122318D01*
X0160320Y0122323D01*
X0160212Y0122332D01*
X0160105Y0122345D01*
X0159997Y0122362D01*
X0159891Y0122383D01*
X0159785Y0122407D01*
X0159681Y0122436D01*
X0159577Y0122468D01*
X0159475Y0122504D01*
X0159374Y0122544D01*
X0159275Y0122588D01*
X0159177Y0122635D01*
X0159081Y0122686D01*
X0158987Y0122740D01*
X0158895Y0122798D01*
X0158806Y0122859D01*
X0158718Y0122923D01*
X0158633Y0122990D01*
X0158551Y0123061D01*
X0158471Y0123134D01*
X0158394Y0123211D01*
X0158320Y0123290D01*
X0158249Y0123371D01*
X0158180Y0123456D01*
X0158115Y0123543D01*
X0158054Y0123632D01*
X0157995Y0123723D01*
X0157940Y0123817D01*
X0157888Y0123912D01*
X0157840Y0124009D01*
X0157796Y0124108D01*
X0157755Y0124209D01*
X0157718Y0124310D01*
X0157685Y0124414D01*
X0157655Y0124518D01*
X0157629Y0124623D01*
X0157608Y0124730D01*
X0157590Y0124837D01*
X0157576Y0124944D01*
X0157566Y0125052D01*
X0157560Y0125161D01*
X0157558Y0125269D01*
X0163785Y0124204D02*
X0172626Y0124204D01*
X0172688Y0124206D01*
X0172750Y0124212D01*
X0172811Y0124221D01*
X0172871Y0124235D01*
X0172930Y0124252D01*
X0172988Y0124273D01*
X0173045Y0124298D01*
X0173100Y0124326D01*
X0173153Y0124357D01*
X0173204Y0124392D01*
X0173253Y0124430D01*
X0173299Y0124471D01*
X0173343Y0124514D01*
X0173384Y0124561D01*
X0173421Y0124609D01*
X0173456Y0124660D01*
X0173487Y0124714D01*
X0173515Y0124769D01*
X0173540Y0124825D01*
X0173561Y0124883D01*
X0173578Y0124943D01*
X0173592Y0125003D01*
X0173601Y0125064D01*
X0173607Y0125125D01*
X0173609Y0125187D01*
X0175574Y0150402D01*
X0175574Y0151057D01*
X0173281Y0151057D02*
X0172954Y0151057D01*
X0172790Y0154004D01*
X0172791Y0154005D02*
X0172789Y0154039D01*
X0172791Y0154074D01*
X0172796Y0154108D01*
X0172805Y0154141D01*
X0172817Y0154174D01*
X0172833Y0154205D01*
X0172851Y0154234D01*
X0172873Y0154260D01*
X0172897Y0154285D01*
X0172924Y0154307D01*
X0172953Y0154326D01*
X0172984Y0154341D01*
X0173016Y0154354D01*
X0173049Y0154363D01*
X0173083Y0154368D01*
X0173118Y0154370D01*
X0173153Y0154368D01*
X0173187Y0154363D01*
X0173220Y0154354D01*
X0173252Y0154341D01*
X0173283Y0154326D01*
X0173312Y0154307D01*
X0173339Y0154285D01*
X0173363Y0154260D01*
X0173385Y0154234D01*
X0173403Y0154205D01*
X0173419Y0154174D01*
X0173431Y0154141D01*
X0173440Y0154108D01*
X0173445Y0154074D01*
X0173447Y0154039D01*
X0173445Y0154005D01*
X0173445Y0154004D02*
X0173281Y0151057D01*
X0175573Y0151057D02*
X0175571Y0151152D01*
X0175566Y0151246D01*
X0175557Y0151341D01*
X0175544Y0151435D01*
X0175527Y0151528D01*
X0175507Y0151621D01*
X0175484Y0151713D01*
X0175457Y0151804D01*
X0175426Y0151894D01*
X0175392Y0151982D01*
X0175355Y0152070D01*
X0175314Y0152155D01*
X0175270Y0152239D01*
X0175222Y0152321D01*
X0175172Y0152402D01*
X0175119Y0152480D01*
X0175062Y0152556D01*
X0175003Y0152630D01*
X0174941Y0152702D01*
X0174876Y0152771D01*
X0174808Y0152838D01*
X0174738Y0152902D01*
X0174666Y0152963D01*
X0174591Y0153022D01*
X0174501Y0153087D01*
X0174409Y0153150D01*
X0174314Y0153209D01*
X0174218Y0153265D01*
X0174120Y0153318D01*
X0174020Y0153368D01*
X0173919Y0153415D01*
X0173816Y0153458D01*
X0173712Y0153497D01*
X0173606Y0153534D01*
X0173500Y0153566D01*
X0173392Y0153596D01*
X0173284Y0153621D01*
X0173175Y0153643D01*
X0173065Y0153662D01*
X0172954Y0153677D01*
X0168697Y0153350D02*
X0168697Y0154004D01*
X0168697Y0154659D01*
X0164439Y0154659D01*
X0164439Y0153350D01*
X0168697Y0153350D01*
X0164112Y0154004D02*
X0163785Y0154004D01*
X0158872Y0152367D02*
X0158827Y0152300D01*
X0158785Y0152231D01*
X0158746Y0152160D01*
X0158710Y0152088D01*
X0158678Y0152014D01*
X0158649Y0151939D01*
X0158623Y0151862D01*
X0158601Y0151784D01*
X0158583Y0151706D01*
X0158568Y0151626D01*
X0158556Y0151546D01*
X0158549Y0151466D01*
X0158545Y0151385D01*
X0158873Y0152367D02*
X0158938Y0152455D01*
X0159006Y0152542D01*
X0159076Y0152626D01*
X0159150Y0152707D01*
X0159226Y0152786D01*
X0159305Y0152863D01*
X0159386Y0152937D01*
X0159469Y0153008D01*
X0159555Y0153076D01*
X0159644Y0153141D01*
X0159734Y0153204D01*
X0159826Y0153263D01*
X0159921Y0153319D01*
X0160017Y0153373D01*
X0160114Y0153422D01*
X0160214Y0153469D01*
X0160315Y0153512D01*
X0160417Y0153552D01*
X0160521Y0153588D01*
X0160625Y0153621D01*
X0160731Y0153651D01*
X0160838Y0153677D01*
X0158463Y0148192D02*
X0156580Y0148192D01*
X0156580Y0144835D01*
X0158627Y0144835D01*
X0160837Y0153676D02*
X0161128Y0153738D01*
X0161420Y0153794D01*
X0161713Y0153843D01*
X0162007Y0153886D01*
X0162302Y0153922D01*
X0162598Y0153951D01*
X0162894Y0153974D01*
X0163191Y0153991D01*
X0163487Y0154001D01*
X0163785Y0154004D01*
X0186380Y0157279D02*
X0150358Y0118637D01*
X0168697Y0154004D02*
X0169764Y0153955D01*
X0170829Y0153883D01*
X0171893Y0153791D01*
X0172954Y0153676D01*
D15*
X0168083Y0150853D03*
D16*
X0165872Y0143525D03*
D17*
X0172135Y0123099D03*
M02*
