G04 #@! TF.GenerationSoftware,KiCad,Pcbnew,(5.1.2)-2*
G04 #@! TF.CreationDate,2020-03-18T10:10:33+01:00*
G04 #@! TF.ProjectId,n64rgbv2.1,6e363472-6762-4763-922e-312e6b696361,rev?*
G04 #@! TF.SameCoordinates,Original*
G04 #@! TF.FileFunction,Paste,Bot*
G04 #@! TF.FilePolarity,Positive*
%FSLAX46Y46*%
G04 Gerber Fmt 4.6, Leading zero omitted, Abs format (unit mm)*
G04 Created by KiCad (PCBNEW (5.1.2)-2) date 2020-03-18 10:10:33*
%MOMM*%
%LPD*%
G04 APERTURE LIST*
%ADD10C,0.100000*%
%ADD11C,0.780000*%
%ADD12C,0.700000*%
%ADD13R,0.848000X0.520000*%
G04 APERTURE END LIST*
D10*
G36*
X158553113Y-89356939D02*
G01*
X158572043Y-89359747D01*
X158590606Y-89364397D01*
X158608623Y-89370843D01*
X158625922Y-89379025D01*
X158642336Y-89388863D01*
X158657707Y-89400263D01*
X158671886Y-89413114D01*
X158684737Y-89427293D01*
X158696137Y-89442664D01*
X158705975Y-89459078D01*
X158714157Y-89476377D01*
X158720603Y-89494394D01*
X158725253Y-89512957D01*
X158728061Y-89531887D01*
X158729000Y-89551000D01*
X158729000Y-90281000D01*
X158728061Y-90300113D01*
X158725253Y-90319043D01*
X158720603Y-90337606D01*
X158714157Y-90355623D01*
X158705975Y-90372922D01*
X158696137Y-90389336D01*
X158684737Y-90404707D01*
X158671886Y-90418886D01*
X158657707Y-90431737D01*
X158642336Y-90443137D01*
X158625922Y-90452975D01*
X158608623Y-90461157D01*
X158590606Y-90467603D01*
X158572043Y-90472253D01*
X158553113Y-90475061D01*
X158534000Y-90476000D01*
X158144000Y-90476000D01*
X158124887Y-90475061D01*
X158105957Y-90472253D01*
X158087394Y-90467603D01*
X158069377Y-90461157D01*
X158052078Y-90452975D01*
X158035664Y-90443137D01*
X158020293Y-90431737D01*
X158006114Y-90418886D01*
X157993263Y-90404707D01*
X157981863Y-90389336D01*
X157972025Y-90372922D01*
X157963843Y-90355623D01*
X157957397Y-90337606D01*
X157952747Y-90319043D01*
X157949939Y-90300113D01*
X157949000Y-90281000D01*
X157949000Y-89551000D01*
X157949939Y-89531887D01*
X157952747Y-89512957D01*
X157957397Y-89494394D01*
X157963843Y-89476377D01*
X157972025Y-89459078D01*
X157981863Y-89442664D01*
X157993263Y-89427293D01*
X158006114Y-89413114D01*
X158020293Y-89400263D01*
X158035664Y-89388863D01*
X158052078Y-89379025D01*
X158069377Y-89370843D01*
X158087394Y-89364397D01*
X158105957Y-89359747D01*
X158124887Y-89356939D01*
X158144000Y-89356000D01*
X158534000Y-89356000D01*
X158553113Y-89356939D01*
X158553113Y-89356939D01*
G37*
D11*
X158339000Y-89916000D03*
D10*
G36*
X156678113Y-89356939D02*
G01*
X156697043Y-89359747D01*
X156715606Y-89364397D01*
X156733623Y-89370843D01*
X156750922Y-89379025D01*
X156767336Y-89388863D01*
X156782707Y-89400263D01*
X156796886Y-89413114D01*
X156809737Y-89427293D01*
X156821137Y-89442664D01*
X156830975Y-89459078D01*
X156839157Y-89476377D01*
X156845603Y-89494394D01*
X156850253Y-89512957D01*
X156853061Y-89531887D01*
X156854000Y-89551000D01*
X156854000Y-90281000D01*
X156853061Y-90300113D01*
X156850253Y-90319043D01*
X156845603Y-90337606D01*
X156839157Y-90355623D01*
X156830975Y-90372922D01*
X156821137Y-90389336D01*
X156809737Y-90404707D01*
X156796886Y-90418886D01*
X156782707Y-90431737D01*
X156767336Y-90443137D01*
X156750922Y-90452975D01*
X156733623Y-90461157D01*
X156715606Y-90467603D01*
X156697043Y-90472253D01*
X156678113Y-90475061D01*
X156659000Y-90476000D01*
X156269000Y-90476000D01*
X156249887Y-90475061D01*
X156230957Y-90472253D01*
X156212394Y-90467603D01*
X156194377Y-90461157D01*
X156177078Y-90452975D01*
X156160664Y-90443137D01*
X156145293Y-90431737D01*
X156131114Y-90418886D01*
X156118263Y-90404707D01*
X156106863Y-90389336D01*
X156097025Y-90372922D01*
X156088843Y-90355623D01*
X156082397Y-90337606D01*
X156077747Y-90319043D01*
X156074939Y-90300113D01*
X156074000Y-90281000D01*
X156074000Y-89551000D01*
X156074939Y-89531887D01*
X156077747Y-89512957D01*
X156082397Y-89494394D01*
X156088843Y-89476377D01*
X156097025Y-89459078D01*
X156106863Y-89442664D01*
X156118263Y-89427293D01*
X156131114Y-89413114D01*
X156145293Y-89400263D01*
X156160664Y-89388863D01*
X156177078Y-89379025D01*
X156194377Y-89370843D01*
X156212394Y-89364397D01*
X156230957Y-89359747D01*
X156249887Y-89356939D01*
X156269000Y-89356000D01*
X156659000Y-89356000D01*
X156678113Y-89356939D01*
X156678113Y-89356939D01*
G37*
D11*
X156464000Y-89916000D03*
D10*
G36*
X151271153Y-89503823D02*
G01*
X151288141Y-89506343D01*
X151304800Y-89510515D01*
X151320970Y-89516301D01*
X151336494Y-89523644D01*
X151351225Y-89532473D01*
X151365019Y-89542703D01*
X151377744Y-89554236D01*
X151389277Y-89566961D01*
X151399507Y-89580755D01*
X151408336Y-89595486D01*
X151415679Y-89611010D01*
X151421465Y-89627180D01*
X151425637Y-89643839D01*
X151428157Y-89660827D01*
X151429000Y-89677980D01*
X151429000Y-90087980D01*
X151428157Y-90105133D01*
X151425637Y-90122121D01*
X151421465Y-90138780D01*
X151415679Y-90154950D01*
X151408336Y-90170474D01*
X151399507Y-90185205D01*
X151389277Y-90198999D01*
X151377744Y-90211724D01*
X151365019Y-90223257D01*
X151351225Y-90233487D01*
X151336494Y-90242316D01*
X151320970Y-90249659D01*
X151304800Y-90255445D01*
X151288141Y-90259617D01*
X151271153Y-90262137D01*
X151254000Y-90262980D01*
X150904000Y-90262980D01*
X150886847Y-90262137D01*
X150869859Y-90259617D01*
X150853200Y-90255445D01*
X150837030Y-90249659D01*
X150821506Y-90242316D01*
X150806775Y-90233487D01*
X150792981Y-90223257D01*
X150780256Y-90211724D01*
X150768723Y-90198999D01*
X150758493Y-90185205D01*
X150749664Y-90170474D01*
X150742321Y-90154950D01*
X150736535Y-90138780D01*
X150732363Y-90122121D01*
X150729843Y-90105133D01*
X150729000Y-90087980D01*
X150729000Y-89677980D01*
X150729843Y-89660827D01*
X150732363Y-89643839D01*
X150736535Y-89627180D01*
X150742321Y-89611010D01*
X150749664Y-89595486D01*
X150758493Y-89580755D01*
X150768723Y-89566961D01*
X150780256Y-89554236D01*
X150792981Y-89542703D01*
X150806775Y-89532473D01*
X150821506Y-89523644D01*
X150837030Y-89516301D01*
X150853200Y-89510515D01*
X150869859Y-89506343D01*
X150886847Y-89503823D01*
X150904000Y-89502980D01*
X151254000Y-89502980D01*
X151271153Y-89503823D01*
X151271153Y-89503823D01*
G37*
D12*
X151079000Y-89882980D03*
D10*
G36*
X152846153Y-89503823D02*
G01*
X152863141Y-89506343D01*
X152879800Y-89510515D01*
X152895970Y-89516301D01*
X152911494Y-89523644D01*
X152926225Y-89532473D01*
X152940019Y-89542703D01*
X152952744Y-89554236D01*
X152964277Y-89566961D01*
X152974507Y-89580755D01*
X152983336Y-89595486D01*
X152990679Y-89611010D01*
X152996465Y-89627180D01*
X153000637Y-89643839D01*
X153003157Y-89660827D01*
X153004000Y-89677980D01*
X153004000Y-90087980D01*
X153003157Y-90105133D01*
X153000637Y-90122121D01*
X152996465Y-90138780D01*
X152990679Y-90154950D01*
X152983336Y-90170474D01*
X152974507Y-90185205D01*
X152964277Y-90198999D01*
X152952744Y-90211724D01*
X152940019Y-90223257D01*
X152926225Y-90233487D01*
X152911494Y-90242316D01*
X152895970Y-90249659D01*
X152879800Y-90255445D01*
X152863141Y-90259617D01*
X152846153Y-90262137D01*
X152829000Y-90262980D01*
X152479000Y-90262980D01*
X152461847Y-90262137D01*
X152444859Y-90259617D01*
X152428200Y-90255445D01*
X152412030Y-90249659D01*
X152396506Y-90242316D01*
X152381775Y-90233487D01*
X152367981Y-90223257D01*
X152355256Y-90211724D01*
X152343723Y-90198999D01*
X152333493Y-90185205D01*
X152324664Y-90170474D01*
X152317321Y-90154950D01*
X152311535Y-90138780D01*
X152307363Y-90122121D01*
X152304843Y-90105133D01*
X152304000Y-90087980D01*
X152304000Y-89677980D01*
X152304843Y-89660827D01*
X152307363Y-89643839D01*
X152311535Y-89627180D01*
X152317321Y-89611010D01*
X152324664Y-89595486D01*
X152333493Y-89580755D01*
X152343723Y-89566961D01*
X152355256Y-89554236D01*
X152367981Y-89542703D01*
X152381775Y-89532473D01*
X152396506Y-89523644D01*
X152412030Y-89516301D01*
X152428200Y-89510515D01*
X152444859Y-89506343D01*
X152461847Y-89503823D01*
X152479000Y-89502980D01*
X152829000Y-89502980D01*
X152846153Y-89503823D01*
X152846153Y-89503823D01*
G37*
D12*
X152654000Y-89882980D03*
D10*
G36*
X166048413Y-111404139D02*
G01*
X166067343Y-111406947D01*
X166085906Y-111411597D01*
X166103923Y-111418043D01*
X166121222Y-111426225D01*
X166137636Y-111436063D01*
X166153007Y-111447463D01*
X166167186Y-111460314D01*
X166180037Y-111474493D01*
X166191437Y-111489864D01*
X166201275Y-111506278D01*
X166209457Y-111523577D01*
X166215903Y-111541594D01*
X166220553Y-111560157D01*
X166223361Y-111579087D01*
X166224300Y-111598200D01*
X166224300Y-112328200D01*
X166223361Y-112347313D01*
X166220553Y-112366243D01*
X166215903Y-112384806D01*
X166209457Y-112402823D01*
X166201275Y-112420122D01*
X166191437Y-112436536D01*
X166180037Y-112451907D01*
X166167186Y-112466086D01*
X166153007Y-112478937D01*
X166137636Y-112490337D01*
X166121222Y-112500175D01*
X166103923Y-112508357D01*
X166085906Y-112514803D01*
X166067343Y-112519453D01*
X166048413Y-112522261D01*
X166029300Y-112523200D01*
X165639300Y-112523200D01*
X165620187Y-112522261D01*
X165601257Y-112519453D01*
X165582694Y-112514803D01*
X165564677Y-112508357D01*
X165547378Y-112500175D01*
X165530964Y-112490337D01*
X165515593Y-112478937D01*
X165501414Y-112466086D01*
X165488563Y-112451907D01*
X165477163Y-112436536D01*
X165467325Y-112420122D01*
X165459143Y-112402823D01*
X165452697Y-112384806D01*
X165448047Y-112366243D01*
X165445239Y-112347313D01*
X165444300Y-112328200D01*
X165444300Y-111598200D01*
X165445239Y-111579087D01*
X165448047Y-111560157D01*
X165452697Y-111541594D01*
X165459143Y-111523577D01*
X165467325Y-111506278D01*
X165477163Y-111489864D01*
X165488563Y-111474493D01*
X165501414Y-111460314D01*
X165515593Y-111447463D01*
X165530964Y-111436063D01*
X165547378Y-111426225D01*
X165564677Y-111418043D01*
X165582694Y-111411597D01*
X165601257Y-111406947D01*
X165620187Y-111404139D01*
X165639300Y-111403200D01*
X166029300Y-111403200D01*
X166048413Y-111404139D01*
X166048413Y-111404139D01*
G37*
D11*
X165834300Y-111963200D03*
D10*
G36*
X164173413Y-111404139D02*
G01*
X164192343Y-111406947D01*
X164210906Y-111411597D01*
X164228923Y-111418043D01*
X164246222Y-111426225D01*
X164262636Y-111436063D01*
X164278007Y-111447463D01*
X164292186Y-111460314D01*
X164305037Y-111474493D01*
X164316437Y-111489864D01*
X164326275Y-111506278D01*
X164334457Y-111523577D01*
X164340903Y-111541594D01*
X164345553Y-111560157D01*
X164348361Y-111579087D01*
X164349300Y-111598200D01*
X164349300Y-112328200D01*
X164348361Y-112347313D01*
X164345553Y-112366243D01*
X164340903Y-112384806D01*
X164334457Y-112402823D01*
X164326275Y-112420122D01*
X164316437Y-112436536D01*
X164305037Y-112451907D01*
X164292186Y-112466086D01*
X164278007Y-112478937D01*
X164262636Y-112490337D01*
X164246222Y-112500175D01*
X164228923Y-112508357D01*
X164210906Y-112514803D01*
X164192343Y-112519453D01*
X164173413Y-112522261D01*
X164154300Y-112523200D01*
X163764300Y-112523200D01*
X163745187Y-112522261D01*
X163726257Y-112519453D01*
X163707694Y-112514803D01*
X163689677Y-112508357D01*
X163672378Y-112500175D01*
X163655964Y-112490337D01*
X163640593Y-112478937D01*
X163626414Y-112466086D01*
X163613563Y-112451907D01*
X163602163Y-112436536D01*
X163592325Y-112420122D01*
X163584143Y-112402823D01*
X163577697Y-112384806D01*
X163573047Y-112366243D01*
X163570239Y-112347313D01*
X163569300Y-112328200D01*
X163569300Y-111598200D01*
X163570239Y-111579087D01*
X163573047Y-111560157D01*
X163577697Y-111541594D01*
X163584143Y-111523577D01*
X163592325Y-111506278D01*
X163602163Y-111489864D01*
X163613563Y-111474493D01*
X163626414Y-111460314D01*
X163640593Y-111447463D01*
X163655964Y-111436063D01*
X163672378Y-111426225D01*
X163689677Y-111418043D01*
X163707694Y-111411597D01*
X163726257Y-111406947D01*
X163745187Y-111404139D01*
X163764300Y-111403200D01*
X164154300Y-111403200D01*
X164173413Y-111404139D01*
X164173413Y-111404139D01*
G37*
D11*
X163959300Y-111963200D03*
D13*
X161813240Y-116464040D03*
X161813240Y-118364040D03*
X164013240Y-118364040D03*
X164013240Y-117414040D03*
X164013240Y-116464040D03*
X129280920Y-91643280D03*
X129280920Y-89743280D03*
X127080920Y-89743280D03*
X127080920Y-90693280D03*
X127080920Y-91643280D03*
D10*
G36*
X129249653Y-111888843D02*
G01*
X129266641Y-111891363D01*
X129283300Y-111895535D01*
X129299470Y-111901321D01*
X129314994Y-111908664D01*
X129329725Y-111917493D01*
X129343519Y-111927723D01*
X129356244Y-111939256D01*
X129367777Y-111951981D01*
X129378007Y-111965775D01*
X129386836Y-111980506D01*
X129394179Y-111996030D01*
X129399965Y-112012200D01*
X129404137Y-112028859D01*
X129406657Y-112045847D01*
X129407500Y-112063000D01*
X129407500Y-112473000D01*
X129406657Y-112490153D01*
X129404137Y-112507141D01*
X129399965Y-112523800D01*
X129394179Y-112539970D01*
X129386836Y-112555494D01*
X129378007Y-112570225D01*
X129367777Y-112584019D01*
X129356244Y-112596744D01*
X129343519Y-112608277D01*
X129329725Y-112618507D01*
X129314994Y-112627336D01*
X129299470Y-112634679D01*
X129283300Y-112640465D01*
X129266641Y-112644637D01*
X129249653Y-112647157D01*
X129232500Y-112648000D01*
X128882500Y-112648000D01*
X128865347Y-112647157D01*
X128848359Y-112644637D01*
X128831700Y-112640465D01*
X128815530Y-112634679D01*
X128800006Y-112627336D01*
X128785275Y-112618507D01*
X128771481Y-112608277D01*
X128758756Y-112596744D01*
X128747223Y-112584019D01*
X128736993Y-112570225D01*
X128728164Y-112555494D01*
X128720821Y-112539970D01*
X128715035Y-112523800D01*
X128710863Y-112507141D01*
X128708343Y-112490153D01*
X128707500Y-112473000D01*
X128707500Y-112063000D01*
X128708343Y-112045847D01*
X128710863Y-112028859D01*
X128715035Y-112012200D01*
X128720821Y-111996030D01*
X128728164Y-111980506D01*
X128736993Y-111965775D01*
X128747223Y-111951981D01*
X128758756Y-111939256D01*
X128771481Y-111927723D01*
X128785275Y-111917493D01*
X128800006Y-111908664D01*
X128815530Y-111901321D01*
X128831700Y-111895535D01*
X128848359Y-111891363D01*
X128865347Y-111888843D01*
X128882500Y-111888000D01*
X129232500Y-111888000D01*
X129249653Y-111888843D01*
X129249653Y-111888843D01*
G37*
D12*
X129057500Y-112268000D03*
D10*
G36*
X127674653Y-111888843D02*
G01*
X127691641Y-111891363D01*
X127708300Y-111895535D01*
X127724470Y-111901321D01*
X127739994Y-111908664D01*
X127754725Y-111917493D01*
X127768519Y-111927723D01*
X127781244Y-111939256D01*
X127792777Y-111951981D01*
X127803007Y-111965775D01*
X127811836Y-111980506D01*
X127819179Y-111996030D01*
X127824965Y-112012200D01*
X127829137Y-112028859D01*
X127831657Y-112045847D01*
X127832500Y-112063000D01*
X127832500Y-112473000D01*
X127831657Y-112490153D01*
X127829137Y-112507141D01*
X127824965Y-112523800D01*
X127819179Y-112539970D01*
X127811836Y-112555494D01*
X127803007Y-112570225D01*
X127792777Y-112584019D01*
X127781244Y-112596744D01*
X127768519Y-112608277D01*
X127754725Y-112618507D01*
X127739994Y-112627336D01*
X127724470Y-112634679D01*
X127708300Y-112640465D01*
X127691641Y-112644637D01*
X127674653Y-112647157D01*
X127657500Y-112648000D01*
X127307500Y-112648000D01*
X127290347Y-112647157D01*
X127273359Y-112644637D01*
X127256700Y-112640465D01*
X127240530Y-112634679D01*
X127225006Y-112627336D01*
X127210275Y-112618507D01*
X127196481Y-112608277D01*
X127183756Y-112596744D01*
X127172223Y-112584019D01*
X127161993Y-112570225D01*
X127153164Y-112555494D01*
X127145821Y-112539970D01*
X127140035Y-112523800D01*
X127135863Y-112507141D01*
X127133343Y-112490153D01*
X127132500Y-112473000D01*
X127132500Y-112063000D01*
X127133343Y-112045847D01*
X127135863Y-112028859D01*
X127140035Y-112012200D01*
X127145821Y-111996030D01*
X127153164Y-111980506D01*
X127161993Y-111965775D01*
X127172223Y-111951981D01*
X127183756Y-111939256D01*
X127196481Y-111927723D01*
X127210275Y-111917493D01*
X127225006Y-111908664D01*
X127240530Y-111901321D01*
X127256700Y-111895535D01*
X127273359Y-111891363D01*
X127290347Y-111888843D01*
X127307500Y-111888000D01*
X127657500Y-111888000D01*
X127674653Y-111888843D01*
X127674653Y-111888843D01*
G37*
D12*
X127482500Y-112268000D03*
D10*
G36*
X129249653Y-113412843D02*
G01*
X129266641Y-113415363D01*
X129283300Y-113419535D01*
X129299470Y-113425321D01*
X129314994Y-113432664D01*
X129329725Y-113441493D01*
X129343519Y-113451723D01*
X129356244Y-113463256D01*
X129367777Y-113475981D01*
X129378007Y-113489775D01*
X129386836Y-113504506D01*
X129394179Y-113520030D01*
X129399965Y-113536200D01*
X129404137Y-113552859D01*
X129406657Y-113569847D01*
X129407500Y-113587000D01*
X129407500Y-113997000D01*
X129406657Y-114014153D01*
X129404137Y-114031141D01*
X129399965Y-114047800D01*
X129394179Y-114063970D01*
X129386836Y-114079494D01*
X129378007Y-114094225D01*
X129367777Y-114108019D01*
X129356244Y-114120744D01*
X129343519Y-114132277D01*
X129329725Y-114142507D01*
X129314994Y-114151336D01*
X129299470Y-114158679D01*
X129283300Y-114164465D01*
X129266641Y-114168637D01*
X129249653Y-114171157D01*
X129232500Y-114172000D01*
X128882500Y-114172000D01*
X128865347Y-114171157D01*
X128848359Y-114168637D01*
X128831700Y-114164465D01*
X128815530Y-114158679D01*
X128800006Y-114151336D01*
X128785275Y-114142507D01*
X128771481Y-114132277D01*
X128758756Y-114120744D01*
X128747223Y-114108019D01*
X128736993Y-114094225D01*
X128728164Y-114079494D01*
X128720821Y-114063970D01*
X128715035Y-114047800D01*
X128710863Y-114031141D01*
X128708343Y-114014153D01*
X128707500Y-113997000D01*
X128707500Y-113587000D01*
X128708343Y-113569847D01*
X128710863Y-113552859D01*
X128715035Y-113536200D01*
X128720821Y-113520030D01*
X128728164Y-113504506D01*
X128736993Y-113489775D01*
X128747223Y-113475981D01*
X128758756Y-113463256D01*
X128771481Y-113451723D01*
X128785275Y-113441493D01*
X128800006Y-113432664D01*
X128815530Y-113425321D01*
X128831700Y-113419535D01*
X128848359Y-113415363D01*
X128865347Y-113412843D01*
X128882500Y-113412000D01*
X129232500Y-113412000D01*
X129249653Y-113412843D01*
X129249653Y-113412843D01*
G37*
D12*
X129057500Y-113792000D03*
D10*
G36*
X127674653Y-113412843D02*
G01*
X127691641Y-113415363D01*
X127708300Y-113419535D01*
X127724470Y-113425321D01*
X127739994Y-113432664D01*
X127754725Y-113441493D01*
X127768519Y-113451723D01*
X127781244Y-113463256D01*
X127792777Y-113475981D01*
X127803007Y-113489775D01*
X127811836Y-113504506D01*
X127819179Y-113520030D01*
X127824965Y-113536200D01*
X127829137Y-113552859D01*
X127831657Y-113569847D01*
X127832500Y-113587000D01*
X127832500Y-113997000D01*
X127831657Y-114014153D01*
X127829137Y-114031141D01*
X127824965Y-114047800D01*
X127819179Y-114063970D01*
X127811836Y-114079494D01*
X127803007Y-114094225D01*
X127792777Y-114108019D01*
X127781244Y-114120744D01*
X127768519Y-114132277D01*
X127754725Y-114142507D01*
X127739994Y-114151336D01*
X127724470Y-114158679D01*
X127708300Y-114164465D01*
X127691641Y-114168637D01*
X127674653Y-114171157D01*
X127657500Y-114172000D01*
X127307500Y-114172000D01*
X127290347Y-114171157D01*
X127273359Y-114168637D01*
X127256700Y-114164465D01*
X127240530Y-114158679D01*
X127225006Y-114151336D01*
X127210275Y-114142507D01*
X127196481Y-114132277D01*
X127183756Y-114120744D01*
X127172223Y-114108019D01*
X127161993Y-114094225D01*
X127153164Y-114079494D01*
X127145821Y-114063970D01*
X127140035Y-114047800D01*
X127135863Y-114031141D01*
X127133343Y-114014153D01*
X127132500Y-113997000D01*
X127132500Y-113587000D01*
X127133343Y-113569847D01*
X127135863Y-113552859D01*
X127140035Y-113536200D01*
X127145821Y-113520030D01*
X127153164Y-113504506D01*
X127161993Y-113489775D01*
X127172223Y-113475981D01*
X127183756Y-113463256D01*
X127196481Y-113451723D01*
X127210275Y-113441493D01*
X127225006Y-113432664D01*
X127240530Y-113425321D01*
X127256700Y-113419535D01*
X127273359Y-113415363D01*
X127290347Y-113412843D01*
X127307500Y-113412000D01*
X127657500Y-113412000D01*
X127674653Y-113412843D01*
X127674653Y-113412843D01*
G37*
D12*
X127482500Y-113792000D03*
D10*
G36*
X120740653Y-118619843D02*
G01*
X120757641Y-118622363D01*
X120774300Y-118626535D01*
X120790470Y-118632321D01*
X120805994Y-118639664D01*
X120820725Y-118648493D01*
X120834519Y-118658723D01*
X120847244Y-118670256D01*
X120858777Y-118682981D01*
X120869007Y-118696775D01*
X120877836Y-118711506D01*
X120885179Y-118727030D01*
X120890965Y-118743200D01*
X120895137Y-118759859D01*
X120897657Y-118776847D01*
X120898500Y-118794000D01*
X120898500Y-119204000D01*
X120897657Y-119221153D01*
X120895137Y-119238141D01*
X120890965Y-119254800D01*
X120885179Y-119270970D01*
X120877836Y-119286494D01*
X120869007Y-119301225D01*
X120858777Y-119315019D01*
X120847244Y-119327744D01*
X120834519Y-119339277D01*
X120820725Y-119349507D01*
X120805994Y-119358336D01*
X120790470Y-119365679D01*
X120774300Y-119371465D01*
X120757641Y-119375637D01*
X120740653Y-119378157D01*
X120723500Y-119379000D01*
X120373500Y-119379000D01*
X120356347Y-119378157D01*
X120339359Y-119375637D01*
X120322700Y-119371465D01*
X120306530Y-119365679D01*
X120291006Y-119358336D01*
X120276275Y-119349507D01*
X120262481Y-119339277D01*
X120249756Y-119327744D01*
X120238223Y-119315019D01*
X120227993Y-119301225D01*
X120219164Y-119286494D01*
X120211821Y-119270970D01*
X120206035Y-119254800D01*
X120201863Y-119238141D01*
X120199343Y-119221153D01*
X120198500Y-119204000D01*
X120198500Y-118794000D01*
X120199343Y-118776847D01*
X120201863Y-118759859D01*
X120206035Y-118743200D01*
X120211821Y-118727030D01*
X120219164Y-118711506D01*
X120227993Y-118696775D01*
X120238223Y-118682981D01*
X120249756Y-118670256D01*
X120262481Y-118658723D01*
X120276275Y-118648493D01*
X120291006Y-118639664D01*
X120306530Y-118632321D01*
X120322700Y-118626535D01*
X120339359Y-118622363D01*
X120356347Y-118619843D01*
X120373500Y-118619000D01*
X120723500Y-118619000D01*
X120740653Y-118619843D01*
X120740653Y-118619843D01*
G37*
D12*
X120548500Y-118999000D03*
D10*
G36*
X119165653Y-118619843D02*
G01*
X119182641Y-118622363D01*
X119199300Y-118626535D01*
X119215470Y-118632321D01*
X119230994Y-118639664D01*
X119245725Y-118648493D01*
X119259519Y-118658723D01*
X119272244Y-118670256D01*
X119283777Y-118682981D01*
X119294007Y-118696775D01*
X119302836Y-118711506D01*
X119310179Y-118727030D01*
X119315965Y-118743200D01*
X119320137Y-118759859D01*
X119322657Y-118776847D01*
X119323500Y-118794000D01*
X119323500Y-119204000D01*
X119322657Y-119221153D01*
X119320137Y-119238141D01*
X119315965Y-119254800D01*
X119310179Y-119270970D01*
X119302836Y-119286494D01*
X119294007Y-119301225D01*
X119283777Y-119315019D01*
X119272244Y-119327744D01*
X119259519Y-119339277D01*
X119245725Y-119349507D01*
X119230994Y-119358336D01*
X119215470Y-119365679D01*
X119199300Y-119371465D01*
X119182641Y-119375637D01*
X119165653Y-119378157D01*
X119148500Y-119379000D01*
X118798500Y-119379000D01*
X118781347Y-119378157D01*
X118764359Y-119375637D01*
X118747700Y-119371465D01*
X118731530Y-119365679D01*
X118716006Y-119358336D01*
X118701275Y-119349507D01*
X118687481Y-119339277D01*
X118674756Y-119327744D01*
X118663223Y-119315019D01*
X118652993Y-119301225D01*
X118644164Y-119286494D01*
X118636821Y-119270970D01*
X118631035Y-119254800D01*
X118626863Y-119238141D01*
X118624343Y-119221153D01*
X118623500Y-119204000D01*
X118623500Y-118794000D01*
X118624343Y-118776847D01*
X118626863Y-118759859D01*
X118631035Y-118743200D01*
X118636821Y-118727030D01*
X118644164Y-118711506D01*
X118652993Y-118696775D01*
X118663223Y-118682981D01*
X118674756Y-118670256D01*
X118687481Y-118658723D01*
X118701275Y-118648493D01*
X118716006Y-118639664D01*
X118731530Y-118632321D01*
X118747700Y-118626535D01*
X118764359Y-118622363D01*
X118781347Y-118619843D01*
X118798500Y-118619000D01*
X119148500Y-118619000D01*
X119165653Y-118619843D01*
X119165653Y-118619843D01*
G37*
D12*
X118973500Y-118999000D03*
D10*
G36*
X140811153Y-111664843D02*
G01*
X140828141Y-111667363D01*
X140844800Y-111671535D01*
X140860970Y-111677321D01*
X140876494Y-111684664D01*
X140891225Y-111693493D01*
X140905019Y-111703723D01*
X140917744Y-111715256D01*
X140929277Y-111727981D01*
X140939507Y-111741775D01*
X140948336Y-111756506D01*
X140955679Y-111772030D01*
X140961465Y-111788200D01*
X140965637Y-111804859D01*
X140968157Y-111821847D01*
X140969000Y-111839000D01*
X140969000Y-112189000D01*
X140968157Y-112206153D01*
X140965637Y-112223141D01*
X140961465Y-112239800D01*
X140955679Y-112255970D01*
X140948336Y-112271494D01*
X140939507Y-112286225D01*
X140929277Y-112300019D01*
X140917744Y-112312744D01*
X140905019Y-112324277D01*
X140891225Y-112334507D01*
X140876494Y-112343336D01*
X140860970Y-112350679D01*
X140844800Y-112356465D01*
X140828141Y-112360637D01*
X140811153Y-112363157D01*
X140794000Y-112364000D01*
X140384000Y-112364000D01*
X140366847Y-112363157D01*
X140349859Y-112360637D01*
X140333200Y-112356465D01*
X140317030Y-112350679D01*
X140301506Y-112343336D01*
X140286775Y-112334507D01*
X140272981Y-112324277D01*
X140260256Y-112312744D01*
X140248723Y-112300019D01*
X140238493Y-112286225D01*
X140229664Y-112271494D01*
X140222321Y-112255970D01*
X140216535Y-112239800D01*
X140212363Y-112223141D01*
X140209843Y-112206153D01*
X140209000Y-112189000D01*
X140209000Y-111839000D01*
X140209843Y-111821847D01*
X140212363Y-111804859D01*
X140216535Y-111788200D01*
X140222321Y-111772030D01*
X140229664Y-111756506D01*
X140238493Y-111741775D01*
X140248723Y-111727981D01*
X140260256Y-111715256D01*
X140272981Y-111703723D01*
X140286775Y-111693493D01*
X140301506Y-111684664D01*
X140317030Y-111677321D01*
X140333200Y-111671535D01*
X140349859Y-111667363D01*
X140366847Y-111664843D01*
X140384000Y-111664000D01*
X140794000Y-111664000D01*
X140811153Y-111664843D01*
X140811153Y-111664843D01*
G37*
D12*
X140589000Y-112014000D03*
D10*
G36*
X140811153Y-110089843D02*
G01*
X140828141Y-110092363D01*
X140844800Y-110096535D01*
X140860970Y-110102321D01*
X140876494Y-110109664D01*
X140891225Y-110118493D01*
X140905019Y-110128723D01*
X140917744Y-110140256D01*
X140929277Y-110152981D01*
X140939507Y-110166775D01*
X140948336Y-110181506D01*
X140955679Y-110197030D01*
X140961465Y-110213200D01*
X140965637Y-110229859D01*
X140968157Y-110246847D01*
X140969000Y-110264000D01*
X140969000Y-110614000D01*
X140968157Y-110631153D01*
X140965637Y-110648141D01*
X140961465Y-110664800D01*
X140955679Y-110680970D01*
X140948336Y-110696494D01*
X140939507Y-110711225D01*
X140929277Y-110725019D01*
X140917744Y-110737744D01*
X140905019Y-110749277D01*
X140891225Y-110759507D01*
X140876494Y-110768336D01*
X140860970Y-110775679D01*
X140844800Y-110781465D01*
X140828141Y-110785637D01*
X140811153Y-110788157D01*
X140794000Y-110789000D01*
X140384000Y-110789000D01*
X140366847Y-110788157D01*
X140349859Y-110785637D01*
X140333200Y-110781465D01*
X140317030Y-110775679D01*
X140301506Y-110768336D01*
X140286775Y-110759507D01*
X140272981Y-110749277D01*
X140260256Y-110737744D01*
X140248723Y-110725019D01*
X140238493Y-110711225D01*
X140229664Y-110696494D01*
X140222321Y-110680970D01*
X140216535Y-110664800D01*
X140212363Y-110648141D01*
X140209843Y-110631153D01*
X140209000Y-110614000D01*
X140209000Y-110264000D01*
X140209843Y-110246847D01*
X140212363Y-110229859D01*
X140216535Y-110213200D01*
X140222321Y-110197030D01*
X140229664Y-110181506D01*
X140238493Y-110166775D01*
X140248723Y-110152981D01*
X140260256Y-110140256D01*
X140272981Y-110128723D01*
X140286775Y-110118493D01*
X140301506Y-110109664D01*
X140317030Y-110102321D01*
X140333200Y-110096535D01*
X140349859Y-110092363D01*
X140366847Y-110089843D01*
X140384000Y-110089000D01*
X140794000Y-110089000D01*
X140811153Y-110089843D01*
X140811153Y-110089843D01*
G37*
D12*
X140589000Y-110439000D03*
D10*
G36*
X127898073Y-93580523D02*
G01*
X127915061Y-93583043D01*
X127931720Y-93587215D01*
X127947890Y-93593001D01*
X127963414Y-93600344D01*
X127978145Y-93609173D01*
X127991939Y-93619403D01*
X128004664Y-93630936D01*
X128016197Y-93643661D01*
X128026427Y-93657455D01*
X128035256Y-93672186D01*
X128042599Y-93687710D01*
X128048385Y-93703880D01*
X128052557Y-93720539D01*
X128055077Y-93737527D01*
X128055920Y-93754680D01*
X128055920Y-94164680D01*
X128055077Y-94181833D01*
X128052557Y-94198821D01*
X128048385Y-94215480D01*
X128042599Y-94231650D01*
X128035256Y-94247174D01*
X128026427Y-94261905D01*
X128016197Y-94275699D01*
X128004664Y-94288424D01*
X127991939Y-94299957D01*
X127978145Y-94310187D01*
X127963414Y-94319016D01*
X127947890Y-94326359D01*
X127931720Y-94332145D01*
X127915061Y-94336317D01*
X127898073Y-94338837D01*
X127880920Y-94339680D01*
X127530920Y-94339680D01*
X127513767Y-94338837D01*
X127496779Y-94336317D01*
X127480120Y-94332145D01*
X127463950Y-94326359D01*
X127448426Y-94319016D01*
X127433695Y-94310187D01*
X127419901Y-94299957D01*
X127407176Y-94288424D01*
X127395643Y-94275699D01*
X127385413Y-94261905D01*
X127376584Y-94247174D01*
X127369241Y-94231650D01*
X127363455Y-94215480D01*
X127359283Y-94198821D01*
X127356763Y-94181833D01*
X127355920Y-94164680D01*
X127355920Y-93754680D01*
X127356763Y-93737527D01*
X127359283Y-93720539D01*
X127363455Y-93703880D01*
X127369241Y-93687710D01*
X127376584Y-93672186D01*
X127385413Y-93657455D01*
X127395643Y-93643661D01*
X127407176Y-93630936D01*
X127419901Y-93619403D01*
X127433695Y-93609173D01*
X127448426Y-93600344D01*
X127463950Y-93593001D01*
X127480120Y-93587215D01*
X127496779Y-93583043D01*
X127513767Y-93580523D01*
X127530920Y-93579680D01*
X127880920Y-93579680D01*
X127898073Y-93580523D01*
X127898073Y-93580523D01*
G37*
D12*
X127705920Y-93959680D03*
D10*
G36*
X129473073Y-93580523D02*
G01*
X129490061Y-93583043D01*
X129506720Y-93587215D01*
X129522890Y-93593001D01*
X129538414Y-93600344D01*
X129553145Y-93609173D01*
X129566939Y-93619403D01*
X129579664Y-93630936D01*
X129591197Y-93643661D01*
X129601427Y-93657455D01*
X129610256Y-93672186D01*
X129617599Y-93687710D01*
X129623385Y-93703880D01*
X129627557Y-93720539D01*
X129630077Y-93737527D01*
X129630920Y-93754680D01*
X129630920Y-94164680D01*
X129630077Y-94181833D01*
X129627557Y-94198821D01*
X129623385Y-94215480D01*
X129617599Y-94231650D01*
X129610256Y-94247174D01*
X129601427Y-94261905D01*
X129591197Y-94275699D01*
X129579664Y-94288424D01*
X129566939Y-94299957D01*
X129553145Y-94310187D01*
X129538414Y-94319016D01*
X129522890Y-94326359D01*
X129506720Y-94332145D01*
X129490061Y-94336317D01*
X129473073Y-94338837D01*
X129455920Y-94339680D01*
X129105920Y-94339680D01*
X129088767Y-94338837D01*
X129071779Y-94336317D01*
X129055120Y-94332145D01*
X129038950Y-94326359D01*
X129023426Y-94319016D01*
X129008695Y-94310187D01*
X128994901Y-94299957D01*
X128982176Y-94288424D01*
X128970643Y-94275699D01*
X128960413Y-94261905D01*
X128951584Y-94247174D01*
X128944241Y-94231650D01*
X128938455Y-94215480D01*
X128934283Y-94198821D01*
X128931763Y-94181833D01*
X128930920Y-94164680D01*
X128930920Y-93754680D01*
X128931763Y-93737527D01*
X128934283Y-93720539D01*
X128938455Y-93703880D01*
X128944241Y-93687710D01*
X128951584Y-93672186D01*
X128960413Y-93657455D01*
X128970643Y-93643661D01*
X128982176Y-93630936D01*
X128994901Y-93619403D01*
X129008695Y-93609173D01*
X129023426Y-93600344D01*
X129038950Y-93593001D01*
X129055120Y-93587215D01*
X129071779Y-93583043D01*
X129088767Y-93580523D01*
X129105920Y-93579680D01*
X129455920Y-93579680D01*
X129473073Y-93580523D01*
X129473073Y-93580523D01*
G37*
D12*
X129280920Y-93959680D03*
D10*
G36*
X159734153Y-117852383D02*
G01*
X159751141Y-117854903D01*
X159767800Y-117859075D01*
X159783970Y-117864861D01*
X159799494Y-117872204D01*
X159814225Y-117881033D01*
X159828019Y-117891263D01*
X159840744Y-117902796D01*
X159852277Y-117915521D01*
X159862507Y-117929315D01*
X159871336Y-117944046D01*
X159878679Y-117959570D01*
X159884465Y-117975740D01*
X159888637Y-117992399D01*
X159891157Y-118009387D01*
X159892000Y-118026540D01*
X159892000Y-118376540D01*
X159891157Y-118393693D01*
X159888637Y-118410681D01*
X159884465Y-118427340D01*
X159878679Y-118443510D01*
X159871336Y-118459034D01*
X159862507Y-118473765D01*
X159852277Y-118487559D01*
X159840744Y-118500284D01*
X159828019Y-118511817D01*
X159814225Y-118522047D01*
X159799494Y-118530876D01*
X159783970Y-118538219D01*
X159767800Y-118544005D01*
X159751141Y-118548177D01*
X159734153Y-118550697D01*
X159717000Y-118551540D01*
X159307000Y-118551540D01*
X159289847Y-118550697D01*
X159272859Y-118548177D01*
X159256200Y-118544005D01*
X159240030Y-118538219D01*
X159224506Y-118530876D01*
X159209775Y-118522047D01*
X159195981Y-118511817D01*
X159183256Y-118500284D01*
X159171723Y-118487559D01*
X159161493Y-118473765D01*
X159152664Y-118459034D01*
X159145321Y-118443510D01*
X159139535Y-118427340D01*
X159135363Y-118410681D01*
X159132843Y-118393693D01*
X159132000Y-118376540D01*
X159132000Y-118026540D01*
X159132843Y-118009387D01*
X159135363Y-117992399D01*
X159139535Y-117975740D01*
X159145321Y-117959570D01*
X159152664Y-117944046D01*
X159161493Y-117929315D01*
X159171723Y-117915521D01*
X159183256Y-117902796D01*
X159195981Y-117891263D01*
X159209775Y-117881033D01*
X159224506Y-117872204D01*
X159240030Y-117864861D01*
X159256200Y-117859075D01*
X159272859Y-117854903D01*
X159289847Y-117852383D01*
X159307000Y-117851540D01*
X159717000Y-117851540D01*
X159734153Y-117852383D01*
X159734153Y-117852383D01*
G37*
D12*
X159512000Y-118201540D03*
D10*
G36*
X159734153Y-116277383D02*
G01*
X159751141Y-116279903D01*
X159767800Y-116284075D01*
X159783970Y-116289861D01*
X159799494Y-116297204D01*
X159814225Y-116306033D01*
X159828019Y-116316263D01*
X159840744Y-116327796D01*
X159852277Y-116340521D01*
X159862507Y-116354315D01*
X159871336Y-116369046D01*
X159878679Y-116384570D01*
X159884465Y-116400740D01*
X159888637Y-116417399D01*
X159891157Y-116434387D01*
X159892000Y-116451540D01*
X159892000Y-116801540D01*
X159891157Y-116818693D01*
X159888637Y-116835681D01*
X159884465Y-116852340D01*
X159878679Y-116868510D01*
X159871336Y-116884034D01*
X159862507Y-116898765D01*
X159852277Y-116912559D01*
X159840744Y-116925284D01*
X159828019Y-116936817D01*
X159814225Y-116947047D01*
X159799494Y-116955876D01*
X159783970Y-116963219D01*
X159767800Y-116969005D01*
X159751141Y-116973177D01*
X159734153Y-116975697D01*
X159717000Y-116976540D01*
X159307000Y-116976540D01*
X159289847Y-116975697D01*
X159272859Y-116973177D01*
X159256200Y-116969005D01*
X159240030Y-116963219D01*
X159224506Y-116955876D01*
X159209775Y-116947047D01*
X159195981Y-116936817D01*
X159183256Y-116925284D01*
X159171723Y-116912559D01*
X159161493Y-116898765D01*
X159152664Y-116884034D01*
X159145321Y-116868510D01*
X159139535Y-116852340D01*
X159135363Y-116835681D01*
X159132843Y-116818693D01*
X159132000Y-116801540D01*
X159132000Y-116451540D01*
X159132843Y-116434387D01*
X159135363Y-116417399D01*
X159139535Y-116400740D01*
X159145321Y-116384570D01*
X159152664Y-116369046D01*
X159161493Y-116354315D01*
X159171723Y-116340521D01*
X159183256Y-116327796D01*
X159195981Y-116316263D01*
X159209775Y-116306033D01*
X159224506Y-116297204D01*
X159240030Y-116289861D01*
X159256200Y-116284075D01*
X159272859Y-116279903D01*
X159289847Y-116277383D01*
X159307000Y-116276540D01*
X159717000Y-116276540D01*
X159734153Y-116277383D01*
X159734153Y-116277383D01*
G37*
D12*
X159512000Y-116626540D03*
D10*
G36*
X166607393Y-117826883D02*
G01*
X166624381Y-117829403D01*
X166641040Y-117833575D01*
X166657210Y-117839361D01*
X166672734Y-117846704D01*
X166687465Y-117855533D01*
X166701259Y-117865763D01*
X166713984Y-117877296D01*
X166725517Y-117890021D01*
X166735747Y-117903815D01*
X166744576Y-117918546D01*
X166751919Y-117934070D01*
X166757705Y-117950240D01*
X166761877Y-117966899D01*
X166764397Y-117983887D01*
X166765240Y-118001040D01*
X166765240Y-118351040D01*
X166764397Y-118368193D01*
X166761877Y-118385181D01*
X166757705Y-118401840D01*
X166751919Y-118418010D01*
X166744576Y-118433534D01*
X166735747Y-118448265D01*
X166725517Y-118462059D01*
X166713984Y-118474784D01*
X166701259Y-118486317D01*
X166687465Y-118496547D01*
X166672734Y-118505376D01*
X166657210Y-118512719D01*
X166641040Y-118518505D01*
X166624381Y-118522677D01*
X166607393Y-118525197D01*
X166590240Y-118526040D01*
X166180240Y-118526040D01*
X166163087Y-118525197D01*
X166146099Y-118522677D01*
X166129440Y-118518505D01*
X166113270Y-118512719D01*
X166097746Y-118505376D01*
X166083015Y-118496547D01*
X166069221Y-118486317D01*
X166056496Y-118474784D01*
X166044963Y-118462059D01*
X166034733Y-118448265D01*
X166025904Y-118433534D01*
X166018561Y-118418010D01*
X166012775Y-118401840D01*
X166008603Y-118385181D01*
X166006083Y-118368193D01*
X166005240Y-118351040D01*
X166005240Y-118001040D01*
X166006083Y-117983887D01*
X166008603Y-117966899D01*
X166012775Y-117950240D01*
X166018561Y-117934070D01*
X166025904Y-117918546D01*
X166034733Y-117903815D01*
X166044963Y-117890021D01*
X166056496Y-117877296D01*
X166069221Y-117865763D01*
X166083015Y-117855533D01*
X166097746Y-117846704D01*
X166113270Y-117839361D01*
X166129440Y-117833575D01*
X166146099Y-117829403D01*
X166163087Y-117826883D01*
X166180240Y-117826040D01*
X166590240Y-117826040D01*
X166607393Y-117826883D01*
X166607393Y-117826883D01*
G37*
D12*
X166385240Y-118176040D03*
D10*
G36*
X166607393Y-116251883D02*
G01*
X166624381Y-116254403D01*
X166641040Y-116258575D01*
X166657210Y-116264361D01*
X166672734Y-116271704D01*
X166687465Y-116280533D01*
X166701259Y-116290763D01*
X166713984Y-116302296D01*
X166725517Y-116315021D01*
X166735747Y-116328815D01*
X166744576Y-116343546D01*
X166751919Y-116359070D01*
X166757705Y-116375240D01*
X166761877Y-116391899D01*
X166764397Y-116408887D01*
X166765240Y-116426040D01*
X166765240Y-116776040D01*
X166764397Y-116793193D01*
X166761877Y-116810181D01*
X166757705Y-116826840D01*
X166751919Y-116843010D01*
X166744576Y-116858534D01*
X166735747Y-116873265D01*
X166725517Y-116887059D01*
X166713984Y-116899784D01*
X166701259Y-116911317D01*
X166687465Y-116921547D01*
X166672734Y-116930376D01*
X166657210Y-116937719D01*
X166641040Y-116943505D01*
X166624381Y-116947677D01*
X166607393Y-116950197D01*
X166590240Y-116951040D01*
X166180240Y-116951040D01*
X166163087Y-116950197D01*
X166146099Y-116947677D01*
X166129440Y-116943505D01*
X166113270Y-116937719D01*
X166097746Y-116930376D01*
X166083015Y-116921547D01*
X166069221Y-116911317D01*
X166056496Y-116899784D01*
X166044963Y-116887059D01*
X166034733Y-116873265D01*
X166025904Y-116858534D01*
X166018561Y-116843010D01*
X166012775Y-116826840D01*
X166008603Y-116810181D01*
X166006083Y-116793193D01*
X166005240Y-116776040D01*
X166005240Y-116426040D01*
X166006083Y-116408887D01*
X166008603Y-116391899D01*
X166012775Y-116375240D01*
X166018561Y-116359070D01*
X166025904Y-116343546D01*
X166034733Y-116328815D01*
X166044963Y-116315021D01*
X166056496Y-116302296D01*
X166069221Y-116290763D01*
X166083015Y-116280533D01*
X166097746Y-116271704D01*
X166113270Y-116264361D01*
X166129440Y-116258575D01*
X166146099Y-116254403D01*
X166163087Y-116251883D01*
X166180240Y-116251040D01*
X166590240Y-116251040D01*
X166607393Y-116251883D01*
X166607393Y-116251883D01*
G37*
D12*
X166385240Y-116601040D03*
D10*
G36*
X131977033Y-89708883D02*
G01*
X131994021Y-89711403D01*
X132010680Y-89715575D01*
X132026850Y-89721361D01*
X132042374Y-89728704D01*
X132057105Y-89737533D01*
X132070899Y-89747763D01*
X132083624Y-89759296D01*
X132095157Y-89772021D01*
X132105387Y-89785815D01*
X132114216Y-89800546D01*
X132121559Y-89816070D01*
X132127345Y-89832240D01*
X132131517Y-89848899D01*
X132134037Y-89865887D01*
X132134880Y-89883040D01*
X132134880Y-90233040D01*
X132134037Y-90250193D01*
X132131517Y-90267181D01*
X132127345Y-90283840D01*
X132121559Y-90300010D01*
X132114216Y-90315534D01*
X132105387Y-90330265D01*
X132095157Y-90344059D01*
X132083624Y-90356784D01*
X132070899Y-90368317D01*
X132057105Y-90378547D01*
X132042374Y-90387376D01*
X132026850Y-90394719D01*
X132010680Y-90400505D01*
X131994021Y-90404677D01*
X131977033Y-90407197D01*
X131959880Y-90408040D01*
X131549880Y-90408040D01*
X131532727Y-90407197D01*
X131515739Y-90404677D01*
X131499080Y-90400505D01*
X131482910Y-90394719D01*
X131467386Y-90387376D01*
X131452655Y-90378547D01*
X131438861Y-90368317D01*
X131426136Y-90356784D01*
X131414603Y-90344059D01*
X131404373Y-90330265D01*
X131395544Y-90315534D01*
X131388201Y-90300010D01*
X131382415Y-90283840D01*
X131378243Y-90267181D01*
X131375723Y-90250193D01*
X131374880Y-90233040D01*
X131374880Y-89883040D01*
X131375723Y-89865887D01*
X131378243Y-89848899D01*
X131382415Y-89832240D01*
X131388201Y-89816070D01*
X131395544Y-89800546D01*
X131404373Y-89785815D01*
X131414603Y-89772021D01*
X131426136Y-89759296D01*
X131438861Y-89747763D01*
X131452655Y-89737533D01*
X131467386Y-89728704D01*
X131482910Y-89721361D01*
X131499080Y-89715575D01*
X131515739Y-89711403D01*
X131532727Y-89708883D01*
X131549880Y-89708040D01*
X131959880Y-89708040D01*
X131977033Y-89708883D01*
X131977033Y-89708883D01*
G37*
D12*
X131754880Y-90058040D03*
D10*
G36*
X131977033Y-91283883D02*
G01*
X131994021Y-91286403D01*
X132010680Y-91290575D01*
X132026850Y-91296361D01*
X132042374Y-91303704D01*
X132057105Y-91312533D01*
X132070899Y-91322763D01*
X132083624Y-91334296D01*
X132095157Y-91347021D01*
X132105387Y-91360815D01*
X132114216Y-91375546D01*
X132121559Y-91391070D01*
X132127345Y-91407240D01*
X132131517Y-91423899D01*
X132134037Y-91440887D01*
X132134880Y-91458040D01*
X132134880Y-91808040D01*
X132134037Y-91825193D01*
X132131517Y-91842181D01*
X132127345Y-91858840D01*
X132121559Y-91875010D01*
X132114216Y-91890534D01*
X132105387Y-91905265D01*
X132095157Y-91919059D01*
X132083624Y-91931784D01*
X132070899Y-91943317D01*
X132057105Y-91953547D01*
X132042374Y-91962376D01*
X132026850Y-91969719D01*
X132010680Y-91975505D01*
X131994021Y-91979677D01*
X131977033Y-91982197D01*
X131959880Y-91983040D01*
X131549880Y-91983040D01*
X131532727Y-91982197D01*
X131515739Y-91979677D01*
X131499080Y-91975505D01*
X131482910Y-91969719D01*
X131467386Y-91962376D01*
X131452655Y-91953547D01*
X131438861Y-91943317D01*
X131426136Y-91931784D01*
X131414603Y-91919059D01*
X131404373Y-91905265D01*
X131395544Y-91890534D01*
X131388201Y-91875010D01*
X131382415Y-91858840D01*
X131378243Y-91842181D01*
X131375723Y-91825193D01*
X131374880Y-91808040D01*
X131374880Y-91458040D01*
X131375723Y-91440887D01*
X131378243Y-91423899D01*
X131382415Y-91407240D01*
X131388201Y-91391070D01*
X131395544Y-91375546D01*
X131404373Y-91360815D01*
X131414603Y-91347021D01*
X131426136Y-91334296D01*
X131438861Y-91322763D01*
X131452655Y-91312533D01*
X131467386Y-91303704D01*
X131482910Y-91296361D01*
X131499080Y-91290575D01*
X131515739Y-91286403D01*
X131532727Y-91283883D01*
X131549880Y-91283040D01*
X131959880Y-91283040D01*
X131977033Y-91283883D01*
X131977033Y-91283883D01*
G37*
D12*
X131754880Y-91633040D03*
D10*
G36*
X124682153Y-89571823D02*
G01*
X124699141Y-89574343D01*
X124715800Y-89578515D01*
X124731970Y-89584301D01*
X124747494Y-89591644D01*
X124762225Y-89600473D01*
X124776019Y-89610703D01*
X124788744Y-89622236D01*
X124800277Y-89634961D01*
X124810507Y-89648755D01*
X124819336Y-89663486D01*
X124826679Y-89679010D01*
X124832465Y-89695180D01*
X124836637Y-89711839D01*
X124839157Y-89728827D01*
X124840000Y-89745980D01*
X124840000Y-90095980D01*
X124839157Y-90113133D01*
X124836637Y-90130121D01*
X124832465Y-90146780D01*
X124826679Y-90162950D01*
X124819336Y-90178474D01*
X124810507Y-90193205D01*
X124800277Y-90206999D01*
X124788744Y-90219724D01*
X124776019Y-90231257D01*
X124762225Y-90241487D01*
X124747494Y-90250316D01*
X124731970Y-90257659D01*
X124715800Y-90263445D01*
X124699141Y-90267617D01*
X124682153Y-90270137D01*
X124665000Y-90270980D01*
X124255000Y-90270980D01*
X124237847Y-90270137D01*
X124220859Y-90267617D01*
X124204200Y-90263445D01*
X124188030Y-90257659D01*
X124172506Y-90250316D01*
X124157775Y-90241487D01*
X124143981Y-90231257D01*
X124131256Y-90219724D01*
X124119723Y-90206999D01*
X124109493Y-90193205D01*
X124100664Y-90178474D01*
X124093321Y-90162950D01*
X124087535Y-90146780D01*
X124083363Y-90130121D01*
X124080843Y-90113133D01*
X124080000Y-90095980D01*
X124080000Y-89745980D01*
X124080843Y-89728827D01*
X124083363Y-89711839D01*
X124087535Y-89695180D01*
X124093321Y-89679010D01*
X124100664Y-89663486D01*
X124109493Y-89648755D01*
X124119723Y-89634961D01*
X124131256Y-89622236D01*
X124143981Y-89610703D01*
X124157775Y-89600473D01*
X124172506Y-89591644D01*
X124188030Y-89584301D01*
X124204200Y-89578515D01*
X124220859Y-89574343D01*
X124237847Y-89571823D01*
X124255000Y-89570980D01*
X124665000Y-89570980D01*
X124682153Y-89571823D01*
X124682153Y-89571823D01*
G37*
D12*
X124460000Y-89920980D03*
D10*
G36*
X124682153Y-91146823D02*
G01*
X124699141Y-91149343D01*
X124715800Y-91153515D01*
X124731970Y-91159301D01*
X124747494Y-91166644D01*
X124762225Y-91175473D01*
X124776019Y-91185703D01*
X124788744Y-91197236D01*
X124800277Y-91209961D01*
X124810507Y-91223755D01*
X124819336Y-91238486D01*
X124826679Y-91254010D01*
X124832465Y-91270180D01*
X124836637Y-91286839D01*
X124839157Y-91303827D01*
X124840000Y-91320980D01*
X124840000Y-91670980D01*
X124839157Y-91688133D01*
X124836637Y-91705121D01*
X124832465Y-91721780D01*
X124826679Y-91737950D01*
X124819336Y-91753474D01*
X124810507Y-91768205D01*
X124800277Y-91781999D01*
X124788744Y-91794724D01*
X124776019Y-91806257D01*
X124762225Y-91816487D01*
X124747494Y-91825316D01*
X124731970Y-91832659D01*
X124715800Y-91838445D01*
X124699141Y-91842617D01*
X124682153Y-91845137D01*
X124665000Y-91845980D01*
X124255000Y-91845980D01*
X124237847Y-91845137D01*
X124220859Y-91842617D01*
X124204200Y-91838445D01*
X124188030Y-91832659D01*
X124172506Y-91825316D01*
X124157775Y-91816487D01*
X124143981Y-91806257D01*
X124131256Y-91794724D01*
X124119723Y-91781999D01*
X124109493Y-91768205D01*
X124100664Y-91753474D01*
X124093321Y-91737950D01*
X124087535Y-91721780D01*
X124083363Y-91705121D01*
X124080843Y-91688133D01*
X124080000Y-91670980D01*
X124080000Y-91320980D01*
X124080843Y-91303827D01*
X124083363Y-91286839D01*
X124087535Y-91270180D01*
X124093321Y-91254010D01*
X124100664Y-91238486D01*
X124109493Y-91223755D01*
X124119723Y-91209961D01*
X124131256Y-91197236D01*
X124143981Y-91185703D01*
X124157775Y-91175473D01*
X124172506Y-91166644D01*
X124188030Y-91159301D01*
X124204200Y-91153515D01*
X124220859Y-91149343D01*
X124237847Y-91146823D01*
X124255000Y-91145980D01*
X124665000Y-91145980D01*
X124682153Y-91146823D01*
X124682153Y-91146823D01*
G37*
D12*
X124460000Y-91495980D03*
D10*
G36*
X160476113Y-101830443D02*
G01*
X160493101Y-101832963D01*
X160509760Y-101837135D01*
X160525930Y-101842921D01*
X160541454Y-101850264D01*
X160556185Y-101859093D01*
X160569979Y-101869323D01*
X160582704Y-101880856D01*
X160594237Y-101893581D01*
X160604467Y-101907375D01*
X160613296Y-101922106D01*
X160620639Y-101937630D01*
X160626425Y-101953800D01*
X160630597Y-101970459D01*
X160633117Y-101987447D01*
X160633960Y-102004600D01*
X160633960Y-102414600D01*
X160633117Y-102431753D01*
X160630597Y-102448741D01*
X160626425Y-102465400D01*
X160620639Y-102481570D01*
X160613296Y-102497094D01*
X160604467Y-102511825D01*
X160594237Y-102525619D01*
X160582704Y-102538344D01*
X160569979Y-102549877D01*
X160556185Y-102560107D01*
X160541454Y-102568936D01*
X160525930Y-102576279D01*
X160509760Y-102582065D01*
X160493101Y-102586237D01*
X160476113Y-102588757D01*
X160458960Y-102589600D01*
X160108960Y-102589600D01*
X160091807Y-102588757D01*
X160074819Y-102586237D01*
X160058160Y-102582065D01*
X160041990Y-102576279D01*
X160026466Y-102568936D01*
X160011735Y-102560107D01*
X159997941Y-102549877D01*
X159985216Y-102538344D01*
X159973683Y-102525619D01*
X159963453Y-102511825D01*
X159954624Y-102497094D01*
X159947281Y-102481570D01*
X159941495Y-102465400D01*
X159937323Y-102448741D01*
X159934803Y-102431753D01*
X159933960Y-102414600D01*
X159933960Y-102004600D01*
X159934803Y-101987447D01*
X159937323Y-101970459D01*
X159941495Y-101953800D01*
X159947281Y-101937630D01*
X159954624Y-101922106D01*
X159963453Y-101907375D01*
X159973683Y-101893581D01*
X159985216Y-101880856D01*
X159997941Y-101869323D01*
X160011735Y-101859093D01*
X160026466Y-101850264D01*
X160041990Y-101842921D01*
X160058160Y-101837135D01*
X160074819Y-101832963D01*
X160091807Y-101830443D01*
X160108960Y-101829600D01*
X160458960Y-101829600D01*
X160476113Y-101830443D01*
X160476113Y-101830443D01*
G37*
D12*
X160283960Y-102209600D03*
D10*
G36*
X162051113Y-101830443D02*
G01*
X162068101Y-101832963D01*
X162084760Y-101837135D01*
X162100930Y-101842921D01*
X162116454Y-101850264D01*
X162131185Y-101859093D01*
X162144979Y-101869323D01*
X162157704Y-101880856D01*
X162169237Y-101893581D01*
X162179467Y-101907375D01*
X162188296Y-101922106D01*
X162195639Y-101937630D01*
X162201425Y-101953800D01*
X162205597Y-101970459D01*
X162208117Y-101987447D01*
X162208960Y-102004600D01*
X162208960Y-102414600D01*
X162208117Y-102431753D01*
X162205597Y-102448741D01*
X162201425Y-102465400D01*
X162195639Y-102481570D01*
X162188296Y-102497094D01*
X162179467Y-102511825D01*
X162169237Y-102525619D01*
X162157704Y-102538344D01*
X162144979Y-102549877D01*
X162131185Y-102560107D01*
X162116454Y-102568936D01*
X162100930Y-102576279D01*
X162084760Y-102582065D01*
X162068101Y-102586237D01*
X162051113Y-102588757D01*
X162033960Y-102589600D01*
X161683960Y-102589600D01*
X161666807Y-102588757D01*
X161649819Y-102586237D01*
X161633160Y-102582065D01*
X161616990Y-102576279D01*
X161601466Y-102568936D01*
X161586735Y-102560107D01*
X161572941Y-102549877D01*
X161560216Y-102538344D01*
X161548683Y-102525619D01*
X161538453Y-102511825D01*
X161529624Y-102497094D01*
X161522281Y-102481570D01*
X161516495Y-102465400D01*
X161512323Y-102448741D01*
X161509803Y-102431753D01*
X161508960Y-102414600D01*
X161508960Y-102004600D01*
X161509803Y-101987447D01*
X161512323Y-101970459D01*
X161516495Y-101953800D01*
X161522281Y-101937630D01*
X161529624Y-101922106D01*
X161538453Y-101907375D01*
X161548683Y-101893581D01*
X161560216Y-101880856D01*
X161572941Y-101869323D01*
X161586735Y-101859093D01*
X161601466Y-101850264D01*
X161616990Y-101842921D01*
X161633160Y-101837135D01*
X161649819Y-101832963D01*
X161666807Y-101830443D01*
X161683960Y-101829600D01*
X162033960Y-101829600D01*
X162051113Y-101830443D01*
X162051113Y-101830443D01*
G37*
D12*
X161858960Y-102209600D03*
D10*
G36*
X160476314Y-103392543D02*
G01*
X160493302Y-103395063D01*
X160509961Y-103399235D01*
X160526131Y-103405021D01*
X160541655Y-103412364D01*
X160556386Y-103421193D01*
X160570180Y-103431423D01*
X160582905Y-103442956D01*
X160594438Y-103455681D01*
X160604668Y-103469475D01*
X160613497Y-103484206D01*
X160620840Y-103499730D01*
X160626626Y-103515900D01*
X160630798Y-103532559D01*
X160633318Y-103549547D01*
X160634161Y-103566700D01*
X160634161Y-103976700D01*
X160633318Y-103993853D01*
X160630798Y-104010841D01*
X160626626Y-104027500D01*
X160620840Y-104043670D01*
X160613497Y-104059194D01*
X160604668Y-104073925D01*
X160594438Y-104087719D01*
X160582905Y-104100444D01*
X160570180Y-104111977D01*
X160556386Y-104122207D01*
X160541655Y-104131036D01*
X160526131Y-104138379D01*
X160509961Y-104144165D01*
X160493302Y-104148337D01*
X160476314Y-104150857D01*
X160459161Y-104151700D01*
X160109161Y-104151700D01*
X160092008Y-104150857D01*
X160075020Y-104148337D01*
X160058361Y-104144165D01*
X160042191Y-104138379D01*
X160026667Y-104131036D01*
X160011936Y-104122207D01*
X159998142Y-104111977D01*
X159985417Y-104100444D01*
X159973884Y-104087719D01*
X159963654Y-104073925D01*
X159954825Y-104059194D01*
X159947482Y-104043670D01*
X159941696Y-104027500D01*
X159937524Y-104010841D01*
X159935004Y-103993853D01*
X159934161Y-103976700D01*
X159934161Y-103566700D01*
X159935004Y-103549547D01*
X159937524Y-103532559D01*
X159941696Y-103515900D01*
X159947482Y-103499730D01*
X159954825Y-103484206D01*
X159963654Y-103469475D01*
X159973884Y-103455681D01*
X159985417Y-103442956D01*
X159998142Y-103431423D01*
X160011936Y-103421193D01*
X160026667Y-103412364D01*
X160042191Y-103405021D01*
X160058361Y-103399235D01*
X160075020Y-103395063D01*
X160092008Y-103392543D01*
X160109161Y-103391700D01*
X160459161Y-103391700D01*
X160476314Y-103392543D01*
X160476314Y-103392543D01*
G37*
D12*
X160284161Y-103771700D03*
D10*
G36*
X162051314Y-103392543D02*
G01*
X162068302Y-103395063D01*
X162084961Y-103399235D01*
X162101131Y-103405021D01*
X162116655Y-103412364D01*
X162131386Y-103421193D01*
X162145180Y-103431423D01*
X162157905Y-103442956D01*
X162169438Y-103455681D01*
X162179668Y-103469475D01*
X162188497Y-103484206D01*
X162195840Y-103499730D01*
X162201626Y-103515900D01*
X162205798Y-103532559D01*
X162208318Y-103549547D01*
X162209161Y-103566700D01*
X162209161Y-103976700D01*
X162208318Y-103993853D01*
X162205798Y-104010841D01*
X162201626Y-104027500D01*
X162195840Y-104043670D01*
X162188497Y-104059194D01*
X162179668Y-104073925D01*
X162169438Y-104087719D01*
X162157905Y-104100444D01*
X162145180Y-104111977D01*
X162131386Y-104122207D01*
X162116655Y-104131036D01*
X162101131Y-104138379D01*
X162084961Y-104144165D01*
X162068302Y-104148337D01*
X162051314Y-104150857D01*
X162034161Y-104151700D01*
X161684161Y-104151700D01*
X161667008Y-104150857D01*
X161650020Y-104148337D01*
X161633361Y-104144165D01*
X161617191Y-104138379D01*
X161601667Y-104131036D01*
X161586936Y-104122207D01*
X161573142Y-104111977D01*
X161560417Y-104100444D01*
X161548884Y-104087719D01*
X161538654Y-104073925D01*
X161529825Y-104059194D01*
X161522482Y-104043670D01*
X161516696Y-104027500D01*
X161512524Y-104010841D01*
X161510004Y-103993853D01*
X161509161Y-103976700D01*
X161509161Y-103566700D01*
X161510004Y-103549547D01*
X161512524Y-103532559D01*
X161516696Y-103515900D01*
X161522482Y-103499730D01*
X161529825Y-103484206D01*
X161538654Y-103469475D01*
X161548884Y-103455681D01*
X161560417Y-103442956D01*
X161573142Y-103431423D01*
X161586936Y-103421193D01*
X161601667Y-103412364D01*
X161617191Y-103405021D01*
X161633361Y-103399235D01*
X161650020Y-103395063D01*
X161667008Y-103392543D01*
X161684161Y-103391700D01*
X162034161Y-103391700D01*
X162051314Y-103392543D01*
X162051314Y-103392543D01*
G37*
D12*
X161859161Y-103771700D03*
D10*
G36*
X160476213Y-104944483D02*
G01*
X160493201Y-104947003D01*
X160509860Y-104951175D01*
X160526030Y-104956961D01*
X160541554Y-104964304D01*
X160556285Y-104973133D01*
X160570079Y-104983363D01*
X160582804Y-104994896D01*
X160594337Y-105007621D01*
X160604567Y-105021415D01*
X160613396Y-105036146D01*
X160620739Y-105051670D01*
X160626525Y-105067840D01*
X160630697Y-105084499D01*
X160633217Y-105101487D01*
X160634060Y-105118640D01*
X160634060Y-105528640D01*
X160633217Y-105545793D01*
X160630697Y-105562781D01*
X160626525Y-105579440D01*
X160620739Y-105595610D01*
X160613396Y-105611134D01*
X160604567Y-105625865D01*
X160594337Y-105639659D01*
X160582804Y-105652384D01*
X160570079Y-105663917D01*
X160556285Y-105674147D01*
X160541554Y-105682976D01*
X160526030Y-105690319D01*
X160509860Y-105696105D01*
X160493201Y-105700277D01*
X160476213Y-105702797D01*
X160459060Y-105703640D01*
X160109060Y-105703640D01*
X160091907Y-105702797D01*
X160074919Y-105700277D01*
X160058260Y-105696105D01*
X160042090Y-105690319D01*
X160026566Y-105682976D01*
X160011835Y-105674147D01*
X159998041Y-105663917D01*
X159985316Y-105652384D01*
X159973783Y-105639659D01*
X159963553Y-105625865D01*
X159954724Y-105611134D01*
X159947381Y-105595610D01*
X159941595Y-105579440D01*
X159937423Y-105562781D01*
X159934903Y-105545793D01*
X159934060Y-105528640D01*
X159934060Y-105118640D01*
X159934903Y-105101487D01*
X159937423Y-105084499D01*
X159941595Y-105067840D01*
X159947381Y-105051670D01*
X159954724Y-105036146D01*
X159963553Y-105021415D01*
X159973783Y-105007621D01*
X159985316Y-104994896D01*
X159998041Y-104983363D01*
X160011835Y-104973133D01*
X160026566Y-104964304D01*
X160042090Y-104956961D01*
X160058260Y-104951175D01*
X160074919Y-104947003D01*
X160091907Y-104944483D01*
X160109060Y-104943640D01*
X160459060Y-104943640D01*
X160476213Y-104944483D01*
X160476213Y-104944483D01*
G37*
D12*
X160284060Y-105323640D03*
D10*
G36*
X162051213Y-104944483D02*
G01*
X162068201Y-104947003D01*
X162084860Y-104951175D01*
X162101030Y-104956961D01*
X162116554Y-104964304D01*
X162131285Y-104973133D01*
X162145079Y-104983363D01*
X162157804Y-104994896D01*
X162169337Y-105007621D01*
X162179567Y-105021415D01*
X162188396Y-105036146D01*
X162195739Y-105051670D01*
X162201525Y-105067840D01*
X162205697Y-105084499D01*
X162208217Y-105101487D01*
X162209060Y-105118640D01*
X162209060Y-105528640D01*
X162208217Y-105545793D01*
X162205697Y-105562781D01*
X162201525Y-105579440D01*
X162195739Y-105595610D01*
X162188396Y-105611134D01*
X162179567Y-105625865D01*
X162169337Y-105639659D01*
X162157804Y-105652384D01*
X162145079Y-105663917D01*
X162131285Y-105674147D01*
X162116554Y-105682976D01*
X162101030Y-105690319D01*
X162084860Y-105696105D01*
X162068201Y-105700277D01*
X162051213Y-105702797D01*
X162034060Y-105703640D01*
X161684060Y-105703640D01*
X161666907Y-105702797D01*
X161649919Y-105700277D01*
X161633260Y-105696105D01*
X161617090Y-105690319D01*
X161601566Y-105682976D01*
X161586835Y-105674147D01*
X161573041Y-105663917D01*
X161560316Y-105652384D01*
X161548783Y-105639659D01*
X161538553Y-105625865D01*
X161529724Y-105611134D01*
X161522381Y-105595610D01*
X161516595Y-105579440D01*
X161512423Y-105562781D01*
X161509903Y-105545793D01*
X161509060Y-105528640D01*
X161509060Y-105118640D01*
X161509903Y-105101487D01*
X161512423Y-105084499D01*
X161516595Y-105067840D01*
X161522381Y-105051670D01*
X161529724Y-105036146D01*
X161538553Y-105021415D01*
X161548783Y-105007621D01*
X161560316Y-104994896D01*
X161573041Y-104983363D01*
X161586835Y-104973133D01*
X161601566Y-104964304D01*
X161617090Y-104956961D01*
X161633260Y-104951175D01*
X161649919Y-104947003D01*
X161666907Y-104944483D01*
X161684060Y-104943640D01*
X162034060Y-104943640D01*
X162051213Y-104944483D01*
X162051213Y-104944483D01*
G37*
D12*
X161859060Y-105323640D03*
D10*
G36*
X160476314Y-106493883D02*
G01*
X160493302Y-106496403D01*
X160509961Y-106500575D01*
X160526131Y-106506361D01*
X160541655Y-106513704D01*
X160556386Y-106522533D01*
X160570180Y-106532763D01*
X160582905Y-106544296D01*
X160594438Y-106557021D01*
X160604668Y-106570815D01*
X160613497Y-106585546D01*
X160620840Y-106601070D01*
X160626626Y-106617240D01*
X160630798Y-106633899D01*
X160633318Y-106650887D01*
X160634161Y-106668040D01*
X160634161Y-107078040D01*
X160633318Y-107095193D01*
X160630798Y-107112181D01*
X160626626Y-107128840D01*
X160620840Y-107145010D01*
X160613497Y-107160534D01*
X160604668Y-107175265D01*
X160594438Y-107189059D01*
X160582905Y-107201784D01*
X160570180Y-107213317D01*
X160556386Y-107223547D01*
X160541655Y-107232376D01*
X160526131Y-107239719D01*
X160509961Y-107245505D01*
X160493302Y-107249677D01*
X160476314Y-107252197D01*
X160459161Y-107253040D01*
X160109161Y-107253040D01*
X160092008Y-107252197D01*
X160075020Y-107249677D01*
X160058361Y-107245505D01*
X160042191Y-107239719D01*
X160026667Y-107232376D01*
X160011936Y-107223547D01*
X159998142Y-107213317D01*
X159985417Y-107201784D01*
X159973884Y-107189059D01*
X159963654Y-107175265D01*
X159954825Y-107160534D01*
X159947482Y-107145010D01*
X159941696Y-107128840D01*
X159937524Y-107112181D01*
X159935004Y-107095193D01*
X159934161Y-107078040D01*
X159934161Y-106668040D01*
X159935004Y-106650887D01*
X159937524Y-106633899D01*
X159941696Y-106617240D01*
X159947482Y-106601070D01*
X159954825Y-106585546D01*
X159963654Y-106570815D01*
X159973884Y-106557021D01*
X159985417Y-106544296D01*
X159998142Y-106532763D01*
X160011936Y-106522533D01*
X160026667Y-106513704D01*
X160042191Y-106506361D01*
X160058361Y-106500575D01*
X160075020Y-106496403D01*
X160092008Y-106493883D01*
X160109161Y-106493040D01*
X160459161Y-106493040D01*
X160476314Y-106493883D01*
X160476314Y-106493883D01*
G37*
D12*
X160284161Y-106873040D03*
D10*
G36*
X162051314Y-106493883D02*
G01*
X162068302Y-106496403D01*
X162084961Y-106500575D01*
X162101131Y-106506361D01*
X162116655Y-106513704D01*
X162131386Y-106522533D01*
X162145180Y-106532763D01*
X162157905Y-106544296D01*
X162169438Y-106557021D01*
X162179668Y-106570815D01*
X162188497Y-106585546D01*
X162195840Y-106601070D01*
X162201626Y-106617240D01*
X162205798Y-106633899D01*
X162208318Y-106650887D01*
X162209161Y-106668040D01*
X162209161Y-107078040D01*
X162208318Y-107095193D01*
X162205798Y-107112181D01*
X162201626Y-107128840D01*
X162195840Y-107145010D01*
X162188497Y-107160534D01*
X162179668Y-107175265D01*
X162169438Y-107189059D01*
X162157905Y-107201784D01*
X162145180Y-107213317D01*
X162131386Y-107223547D01*
X162116655Y-107232376D01*
X162101131Y-107239719D01*
X162084961Y-107245505D01*
X162068302Y-107249677D01*
X162051314Y-107252197D01*
X162034161Y-107253040D01*
X161684161Y-107253040D01*
X161667008Y-107252197D01*
X161650020Y-107249677D01*
X161633361Y-107245505D01*
X161617191Y-107239719D01*
X161601667Y-107232376D01*
X161586936Y-107223547D01*
X161573142Y-107213317D01*
X161560417Y-107201784D01*
X161548884Y-107189059D01*
X161538654Y-107175265D01*
X161529825Y-107160534D01*
X161522482Y-107145010D01*
X161516696Y-107128840D01*
X161512524Y-107112181D01*
X161510004Y-107095193D01*
X161509161Y-107078040D01*
X161509161Y-106668040D01*
X161510004Y-106650887D01*
X161512524Y-106633899D01*
X161516696Y-106617240D01*
X161522482Y-106601070D01*
X161529825Y-106585546D01*
X161538654Y-106570815D01*
X161548884Y-106557021D01*
X161560417Y-106544296D01*
X161573142Y-106532763D01*
X161586936Y-106522533D01*
X161601667Y-106513704D01*
X161617191Y-106506361D01*
X161633361Y-106500575D01*
X161650020Y-106496403D01*
X161667008Y-106493883D01*
X161684161Y-106493040D01*
X162034161Y-106493040D01*
X162051314Y-106493883D01*
X162051314Y-106493883D01*
G37*
D12*
X161859161Y-106873040D03*
D10*
G36*
X158929553Y-104944483D02*
G01*
X158946541Y-104947003D01*
X158963200Y-104951175D01*
X158979370Y-104956961D01*
X158994894Y-104964304D01*
X159009625Y-104973133D01*
X159023419Y-104983363D01*
X159036144Y-104994896D01*
X159047677Y-105007621D01*
X159057907Y-105021415D01*
X159066736Y-105036146D01*
X159074079Y-105051670D01*
X159079865Y-105067840D01*
X159084037Y-105084499D01*
X159086557Y-105101487D01*
X159087400Y-105118640D01*
X159087400Y-105528640D01*
X159086557Y-105545793D01*
X159084037Y-105562781D01*
X159079865Y-105579440D01*
X159074079Y-105595610D01*
X159066736Y-105611134D01*
X159057907Y-105625865D01*
X159047677Y-105639659D01*
X159036144Y-105652384D01*
X159023419Y-105663917D01*
X159009625Y-105674147D01*
X158994894Y-105682976D01*
X158979370Y-105690319D01*
X158963200Y-105696105D01*
X158946541Y-105700277D01*
X158929553Y-105702797D01*
X158912400Y-105703640D01*
X158562400Y-105703640D01*
X158545247Y-105702797D01*
X158528259Y-105700277D01*
X158511600Y-105696105D01*
X158495430Y-105690319D01*
X158479906Y-105682976D01*
X158465175Y-105674147D01*
X158451381Y-105663917D01*
X158438656Y-105652384D01*
X158427123Y-105639659D01*
X158416893Y-105625865D01*
X158408064Y-105611134D01*
X158400721Y-105595610D01*
X158394935Y-105579440D01*
X158390763Y-105562781D01*
X158388243Y-105545793D01*
X158387400Y-105528640D01*
X158387400Y-105118640D01*
X158388243Y-105101487D01*
X158390763Y-105084499D01*
X158394935Y-105067840D01*
X158400721Y-105051670D01*
X158408064Y-105036146D01*
X158416893Y-105021415D01*
X158427123Y-105007621D01*
X158438656Y-104994896D01*
X158451381Y-104983363D01*
X158465175Y-104973133D01*
X158479906Y-104964304D01*
X158495430Y-104956961D01*
X158511600Y-104951175D01*
X158528259Y-104947003D01*
X158545247Y-104944483D01*
X158562400Y-104943640D01*
X158912400Y-104943640D01*
X158929553Y-104944483D01*
X158929553Y-104944483D01*
G37*
D12*
X158737400Y-105323640D03*
D10*
G36*
X157354553Y-104944483D02*
G01*
X157371541Y-104947003D01*
X157388200Y-104951175D01*
X157404370Y-104956961D01*
X157419894Y-104964304D01*
X157434625Y-104973133D01*
X157448419Y-104983363D01*
X157461144Y-104994896D01*
X157472677Y-105007621D01*
X157482907Y-105021415D01*
X157491736Y-105036146D01*
X157499079Y-105051670D01*
X157504865Y-105067840D01*
X157509037Y-105084499D01*
X157511557Y-105101487D01*
X157512400Y-105118640D01*
X157512400Y-105528640D01*
X157511557Y-105545793D01*
X157509037Y-105562781D01*
X157504865Y-105579440D01*
X157499079Y-105595610D01*
X157491736Y-105611134D01*
X157482907Y-105625865D01*
X157472677Y-105639659D01*
X157461144Y-105652384D01*
X157448419Y-105663917D01*
X157434625Y-105674147D01*
X157419894Y-105682976D01*
X157404370Y-105690319D01*
X157388200Y-105696105D01*
X157371541Y-105700277D01*
X157354553Y-105702797D01*
X157337400Y-105703640D01*
X156987400Y-105703640D01*
X156970247Y-105702797D01*
X156953259Y-105700277D01*
X156936600Y-105696105D01*
X156920430Y-105690319D01*
X156904906Y-105682976D01*
X156890175Y-105674147D01*
X156876381Y-105663917D01*
X156863656Y-105652384D01*
X156852123Y-105639659D01*
X156841893Y-105625865D01*
X156833064Y-105611134D01*
X156825721Y-105595610D01*
X156819935Y-105579440D01*
X156815763Y-105562781D01*
X156813243Y-105545793D01*
X156812400Y-105528640D01*
X156812400Y-105118640D01*
X156813243Y-105101487D01*
X156815763Y-105084499D01*
X156819935Y-105067840D01*
X156825721Y-105051670D01*
X156833064Y-105036146D01*
X156841893Y-105021415D01*
X156852123Y-105007621D01*
X156863656Y-104994896D01*
X156876381Y-104983363D01*
X156890175Y-104973133D01*
X156904906Y-104964304D01*
X156920430Y-104956961D01*
X156936600Y-104951175D01*
X156953259Y-104947003D01*
X156970247Y-104944483D01*
X156987400Y-104943640D01*
X157337400Y-104943640D01*
X157354553Y-104944483D01*
X157354553Y-104944483D01*
G37*
D12*
X157162400Y-105323640D03*
D10*
G36*
X158929453Y-103395083D02*
G01*
X158946441Y-103397603D01*
X158963100Y-103401775D01*
X158979270Y-103407561D01*
X158994794Y-103414904D01*
X159009525Y-103423733D01*
X159023319Y-103433963D01*
X159036044Y-103445496D01*
X159047577Y-103458221D01*
X159057807Y-103472015D01*
X159066636Y-103486746D01*
X159073979Y-103502270D01*
X159079765Y-103518440D01*
X159083937Y-103535099D01*
X159086457Y-103552087D01*
X159087300Y-103569240D01*
X159087300Y-103979240D01*
X159086457Y-103996393D01*
X159083937Y-104013381D01*
X159079765Y-104030040D01*
X159073979Y-104046210D01*
X159066636Y-104061734D01*
X159057807Y-104076465D01*
X159047577Y-104090259D01*
X159036044Y-104102984D01*
X159023319Y-104114517D01*
X159009525Y-104124747D01*
X158994794Y-104133576D01*
X158979270Y-104140919D01*
X158963100Y-104146705D01*
X158946441Y-104150877D01*
X158929453Y-104153397D01*
X158912300Y-104154240D01*
X158562300Y-104154240D01*
X158545147Y-104153397D01*
X158528159Y-104150877D01*
X158511500Y-104146705D01*
X158495330Y-104140919D01*
X158479806Y-104133576D01*
X158465075Y-104124747D01*
X158451281Y-104114517D01*
X158438556Y-104102984D01*
X158427023Y-104090259D01*
X158416793Y-104076465D01*
X158407964Y-104061734D01*
X158400621Y-104046210D01*
X158394835Y-104030040D01*
X158390663Y-104013381D01*
X158388143Y-103996393D01*
X158387300Y-103979240D01*
X158387300Y-103569240D01*
X158388143Y-103552087D01*
X158390663Y-103535099D01*
X158394835Y-103518440D01*
X158400621Y-103502270D01*
X158407964Y-103486746D01*
X158416793Y-103472015D01*
X158427023Y-103458221D01*
X158438556Y-103445496D01*
X158451281Y-103433963D01*
X158465075Y-103423733D01*
X158479806Y-103414904D01*
X158495330Y-103407561D01*
X158511500Y-103401775D01*
X158528159Y-103397603D01*
X158545147Y-103395083D01*
X158562300Y-103394240D01*
X158912300Y-103394240D01*
X158929453Y-103395083D01*
X158929453Y-103395083D01*
G37*
D12*
X158737300Y-103774240D03*
D10*
G36*
X157354453Y-103395083D02*
G01*
X157371441Y-103397603D01*
X157388100Y-103401775D01*
X157404270Y-103407561D01*
X157419794Y-103414904D01*
X157434525Y-103423733D01*
X157448319Y-103433963D01*
X157461044Y-103445496D01*
X157472577Y-103458221D01*
X157482807Y-103472015D01*
X157491636Y-103486746D01*
X157498979Y-103502270D01*
X157504765Y-103518440D01*
X157508937Y-103535099D01*
X157511457Y-103552087D01*
X157512300Y-103569240D01*
X157512300Y-103979240D01*
X157511457Y-103996393D01*
X157508937Y-104013381D01*
X157504765Y-104030040D01*
X157498979Y-104046210D01*
X157491636Y-104061734D01*
X157482807Y-104076465D01*
X157472577Y-104090259D01*
X157461044Y-104102984D01*
X157448319Y-104114517D01*
X157434525Y-104124747D01*
X157419794Y-104133576D01*
X157404270Y-104140919D01*
X157388100Y-104146705D01*
X157371441Y-104150877D01*
X157354453Y-104153397D01*
X157337300Y-104154240D01*
X156987300Y-104154240D01*
X156970147Y-104153397D01*
X156953159Y-104150877D01*
X156936500Y-104146705D01*
X156920330Y-104140919D01*
X156904806Y-104133576D01*
X156890075Y-104124747D01*
X156876281Y-104114517D01*
X156863556Y-104102984D01*
X156852023Y-104090259D01*
X156841793Y-104076465D01*
X156832964Y-104061734D01*
X156825621Y-104046210D01*
X156819835Y-104030040D01*
X156815663Y-104013381D01*
X156813143Y-103996393D01*
X156812300Y-103979240D01*
X156812300Y-103569240D01*
X156813143Y-103552087D01*
X156815663Y-103535099D01*
X156819835Y-103518440D01*
X156825621Y-103502270D01*
X156832964Y-103486746D01*
X156841793Y-103472015D01*
X156852023Y-103458221D01*
X156863556Y-103445496D01*
X156876281Y-103433963D01*
X156890075Y-103423733D01*
X156904806Y-103414904D01*
X156920330Y-103407561D01*
X156936500Y-103401775D01*
X156953159Y-103397603D01*
X156970147Y-103395083D01*
X156987300Y-103394240D01*
X157337300Y-103394240D01*
X157354453Y-103395083D01*
X157354453Y-103395083D01*
G37*
D12*
X157162300Y-103774240D03*
D10*
G36*
X143224153Y-99371343D02*
G01*
X143241141Y-99373863D01*
X143257800Y-99378035D01*
X143273970Y-99383821D01*
X143289494Y-99391164D01*
X143304225Y-99399993D01*
X143318019Y-99410223D01*
X143330744Y-99421756D01*
X143342277Y-99434481D01*
X143352507Y-99448275D01*
X143361336Y-99463006D01*
X143368679Y-99478530D01*
X143374465Y-99494700D01*
X143378637Y-99511359D01*
X143381157Y-99528347D01*
X143382000Y-99545500D01*
X143382000Y-99895500D01*
X143381157Y-99912653D01*
X143378637Y-99929641D01*
X143374465Y-99946300D01*
X143368679Y-99962470D01*
X143361336Y-99977994D01*
X143352507Y-99992725D01*
X143342277Y-100006519D01*
X143330744Y-100019244D01*
X143318019Y-100030777D01*
X143304225Y-100041007D01*
X143289494Y-100049836D01*
X143273970Y-100057179D01*
X143257800Y-100062965D01*
X143241141Y-100067137D01*
X143224153Y-100069657D01*
X143207000Y-100070500D01*
X142797000Y-100070500D01*
X142779847Y-100069657D01*
X142762859Y-100067137D01*
X142746200Y-100062965D01*
X142730030Y-100057179D01*
X142714506Y-100049836D01*
X142699775Y-100041007D01*
X142685981Y-100030777D01*
X142673256Y-100019244D01*
X142661723Y-100006519D01*
X142651493Y-99992725D01*
X142642664Y-99977994D01*
X142635321Y-99962470D01*
X142629535Y-99946300D01*
X142625363Y-99929641D01*
X142622843Y-99912653D01*
X142622000Y-99895500D01*
X142622000Y-99545500D01*
X142622843Y-99528347D01*
X142625363Y-99511359D01*
X142629535Y-99494700D01*
X142635321Y-99478530D01*
X142642664Y-99463006D01*
X142651493Y-99448275D01*
X142661723Y-99434481D01*
X142673256Y-99421756D01*
X142685981Y-99410223D01*
X142699775Y-99399993D01*
X142714506Y-99391164D01*
X142730030Y-99383821D01*
X142746200Y-99378035D01*
X142762859Y-99373863D01*
X142779847Y-99371343D01*
X142797000Y-99370500D01*
X143207000Y-99370500D01*
X143224153Y-99371343D01*
X143224153Y-99371343D01*
G37*
D12*
X143002000Y-99720500D03*
D10*
G36*
X143224153Y-97796343D02*
G01*
X143241141Y-97798863D01*
X143257800Y-97803035D01*
X143273970Y-97808821D01*
X143289494Y-97816164D01*
X143304225Y-97824993D01*
X143318019Y-97835223D01*
X143330744Y-97846756D01*
X143342277Y-97859481D01*
X143352507Y-97873275D01*
X143361336Y-97888006D01*
X143368679Y-97903530D01*
X143374465Y-97919700D01*
X143378637Y-97936359D01*
X143381157Y-97953347D01*
X143382000Y-97970500D01*
X143382000Y-98320500D01*
X143381157Y-98337653D01*
X143378637Y-98354641D01*
X143374465Y-98371300D01*
X143368679Y-98387470D01*
X143361336Y-98402994D01*
X143352507Y-98417725D01*
X143342277Y-98431519D01*
X143330744Y-98444244D01*
X143318019Y-98455777D01*
X143304225Y-98466007D01*
X143289494Y-98474836D01*
X143273970Y-98482179D01*
X143257800Y-98487965D01*
X143241141Y-98492137D01*
X143224153Y-98494657D01*
X143207000Y-98495500D01*
X142797000Y-98495500D01*
X142779847Y-98494657D01*
X142762859Y-98492137D01*
X142746200Y-98487965D01*
X142730030Y-98482179D01*
X142714506Y-98474836D01*
X142699775Y-98466007D01*
X142685981Y-98455777D01*
X142673256Y-98444244D01*
X142661723Y-98431519D01*
X142651493Y-98417725D01*
X142642664Y-98402994D01*
X142635321Y-98387470D01*
X142629535Y-98371300D01*
X142625363Y-98354641D01*
X142622843Y-98337653D01*
X142622000Y-98320500D01*
X142622000Y-97970500D01*
X142622843Y-97953347D01*
X142625363Y-97936359D01*
X142629535Y-97919700D01*
X142635321Y-97903530D01*
X142642664Y-97888006D01*
X142651493Y-97873275D01*
X142661723Y-97859481D01*
X142673256Y-97846756D01*
X142685981Y-97835223D01*
X142699775Y-97824993D01*
X142714506Y-97816164D01*
X142730030Y-97808821D01*
X142746200Y-97803035D01*
X142762859Y-97798863D01*
X142779847Y-97796343D01*
X142797000Y-97795500D01*
X143207000Y-97795500D01*
X143224153Y-97796343D01*
X143224153Y-97796343D01*
G37*
D12*
X143002000Y-98145500D03*
D10*
G36*
X152825787Y-97425295D02*
G01*
X152842775Y-97427815D01*
X152859434Y-97431987D01*
X152875604Y-97437773D01*
X152891128Y-97445116D01*
X152905859Y-97453945D01*
X152919653Y-97464175D01*
X152932378Y-97475708D01*
X153222292Y-97765622D01*
X153233825Y-97778347D01*
X153244055Y-97792141D01*
X153252884Y-97806872D01*
X153260227Y-97822396D01*
X153266013Y-97838566D01*
X153270185Y-97855225D01*
X153272705Y-97872213D01*
X153273548Y-97889366D01*
X153272705Y-97906519D01*
X153270185Y-97923507D01*
X153266013Y-97940166D01*
X153260227Y-97956336D01*
X153252884Y-97971860D01*
X153244055Y-97986591D01*
X153233825Y-98000385D01*
X153222292Y-98013110D01*
X152974804Y-98260598D01*
X152962079Y-98272131D01*
X152948285Y-98282361D01*
X152933554Y-98291190D01*
X152918030Y-98298533D01*
X152901860Y-98304319D01*
X152885201Y-98308491D01*
X152868213Y-98311011D01*
X152851060Y-98311854D01*
X152833907Y-98311011D01*
X152816919Y-98308491D01*
X152800260Y-98304319D01*
X152784090Y-98298533D01*
X152768566Y-98291190D01*
X152753835Y-98282361D01*
X152740041Y-98272131D01*
X152727316Y-98260598D01*
X152437402Y-97970684D01*
X152425869Y-97957959D01*
X152415639Y-97944165D01*
X152406810Y-97929434D01*
X152399467Y-97913910D01*
X152393681Y-97897740D01*
X152389509Y-97881081D01*
X152386989Y-97864093D01*
X152386146Y-97846940D01*
X152386989Y-97829787D01*
X152389509Y-97812799D01*
X152393681Y-97796140D01*
X152399467Y-97779970D01*
X152406810Y-97764446D01*
X152415639Y-97749715D01*
X152425869Y-97735921D01*
X152437402Y-97723196D01*
X152684890Y-97475708D01*
X152697615Y-97464175D01*
X152711409Y-97453945D01*
X152726140Y-97445116D01*
X152741664Y-97437773D01*
X152757834Y-97431987D01*
X152774493Y-97427815D01*
X152791481Y-97425295D01*
X152808634Y-97424452D01*
X152825787Y-97425295D01*
X152825787Y-97425295D01*
G37*
D12*
X152829847Y-97868153D03*
D10*
G36*
X151712093Y-98538989D02*
G01*
X151729081Y-98541509D01*
X151745740Y-98545681D01*
X151761910Y-98551467D01*
X151777434Y-98558810D01*
X151792165Y-98567639D01*
X151805959Y-98577869D01*
X151818684Y-98589402D01*
X152108598Y-98879316D01*
X152120131Y-98892041D01*
X152130361Y-98905835D01*
X152139190Y-98920566D01*
X152146533Y-98936090D01*
X152152319Y-98952260D01*
X152156491Y-98968919D01*
X152159011Y-98985907D01*
X152159854Y-99003060D01*
X152159011Y-99020213D01*
X152156491Y-99037201D01*
X152152319Y-99053860D01*
X152146533Y-99070030D01*
X152139190Y-99085554D01*
X152130361Y-99100285D01*
X152120131Y-99114079D01*
X152108598Y-99126804D01*
X151861110Y-99374292D01*
X151848385Y-99385825D01*
X151834591Y-99396055D01*
X151819860Y-99404884D01*
X151804336Y-99412227D01*
X151788166Y-99418013D01*
X151771507Y-99422185D01*
X151754519Y-99424705D01*
X151737366Y-99425548D01*
X151720213Y-99424705D01*
X151703225Y-99422185D01*
X151686566Y-99418013D01*
X151670396Y-99412227D01*
X151654872Y-99404884D01*
X151640141Y-99396055D01*
X151626347Y-99385825D01*
X151613622Y-99374292D01*
X151323708Y-99084378D01*
X151312175Y-99071653D01*
X151301945Y-99057859D01*
X151293116Y-99043128D01*
X151285773Y-99027604D01*
X151279987Y-99011434D01*
X151275815Y-98994775D01*
X151273295Y-98977787D01*
X151272452Y-98960634D01*
X151273295Y-98943481D01*
X151275815Y-98926493D01*
X151279987Y-98909834D01*
X151285773Y-98893664D01*
X151293116Y-98878140D01*
X151301945Y-98863409D01*
X151312175Y-98849615D01*
X151323708Y-98836890D01*
X151571196Y-98589402D01*
X151583921Y-98577869D01*
X151597715Y-98567639D01*
X151612446Y-98558810D01*
X151627970Y-98551467D01*
X151644140Y-98545681D01*
X151660799Y-98541509D01*
X151677787Y-98538989D01*
X151694940Y-98538146D01*
X151712093Y-98538989D01*
X151712093Y-98538989D01*
G37*
D12*
X151716153Y-98981847D03*
D10*
G36*
X143605153Y-109150343D02*
G01*
X143622141Y-109152863D01*
X143638800Y-109157035D01*
X143654970Y-109162821D01*
X143670494Y-109170164D01*
X143685225Y-109178993D01*
X143699019Y-109189223D01*
X143711744Y-109200756D01*
X143723277Y-109213481D01*
X143733507Y-109227275D01*
X143742336Y-109242006D01*
X143749679Y-109257530D01*
X143755465Y-109273700D01*
X143759637Y-109290359D01*
X143762157Y-109307347D01*
X143763000Y-109324500D01*
X143763000Y-109674500D01*
X143762157Y-109691653D01*
X143759637Y-109708641D01*
X143755465Y-109725300D01*
X143749679Y-109741470D01*
X143742336Y-109756994D01*
X143733507Y-109771725D01*
X143723277Y-109785519D01*
X143711744Y-109798244D01*
X143699019Y-109809777D01*
X143685225Y-109820007D01*
X143670494Y-109828836D01*
X143654970Y-109836179D01*
X143638800Y-109841965D01*
X143622141Y-109846137D01*
X143605153Y-109848657D01*
X143588000Y-109849500D01*
X143178000Y-109849500D01*
X143160847Y-109848657D01*
X143143859Y-109846137D01*
X143127200Y-109841965D01*
X143111030Y-109836179D01*
X143095506Y-109828836D01*
X143080775Y-109820007D01*
X143066981Y-109809777D01*
X143054256Y-109798244D01*
X143042723Y-109785519D01*
X143032493Y-109771725D01*
X143023664Y-109756994D01*
X143016321Y-109741470D01*
X143010535Y-109725300D01*
X143006363Y-109708641D01*
X143003843Y-109691653D01*
X143003000Y-109674500D01*
X143003000Y-109324500D01*
X143003843Y-109307347D01*
X143006363Y-109290359D01*
X143010535Y-109273700D01*
X143016321Y-109257530D01*
X143023664Y-109242006D01*
X143032493Y-109227275D01*
X143042723Y-109213481D01*
X143054256Y-109200756D01*
X143066981Y-109189223D01*
X143080775Y-109178993D01*
X143095506Y-109170164D01*
X143111030Y-109162821D01*
X143127200Y-109157035D01*
X143143859Y-109152863D01*
X143160847Y-109150343D01*
X143178000Y-109149500D01*
X143588000Y-109149500D01*
X143605153Y-109150343D01*
X143605153Y-109150343D01*
G37*
D12*
X143383000Y-109499500D03*
D10*
G36*
X143605153Y-107575343D02*
G01*
X143622141Y-107577863D01*
X143638800Y-107582035D01*
X143654970Y-107587821D01*
X143670494Y-107595164D01*
X143685225Y-107603993D01*
X143699019Y-107614223D01*
X143711744Y-107625756D01*
X143723277Y-107638481D01*
X143733507Y-107652275D01*
X143742336Y-107667006D01*
X143749679Y-107682530D01*
X143755465Y-107698700D01*
X143759637Y-107715359D01*
X143762157Y-107732347D01*
X143763000Y-107749500D01*
X143763000Y-108099500D01*
X143762157Y-108116653D01*
X143759637Y-108133641D01*
X143755465Y-108150300D01*
X143749679Y-108166470D01*
X143742336Y-108181994D01*
X143733507Y-108196725D01*
X143723277Y-108210519D01*
X143711744Y-108223244D01*
X143699019Y-108234777D01*
X143685225Y-108245007D01*
X143670494Y-108253836D01*
X143654970Y-108261179D01*
X143638800Y-108266965D01*
X143622141Y-108271137D01*
X143605153Y-108273657D01*
X143588000Y-108274500D01*
X143178000Y-108274500D01*
X143160847Y-108273657D01*
X143143859Y-108271137D01*
X143127200Y-108266965D01*
X143111030Y-108261179D01*
X143095506Y-108253836D01*
X143080775Y-108245007D01*
X143066981Y-108234777D01*
X143054256Y-108223244D01*
X143042723Y-108210519D01*
X143032493Y-108196725D01*
X143023664Y-108181994D01*
X143016321Y-108166470D01*
X143010535Y-108150300D01*
X143006363Y-108133641D01*
X143003843Y-108116653D01*
X143003000Y-108099500D01*
X143003000Y-107749500D01*
X143003843Y-107732347D01*
X143006363Y-107715359D01*
X143010535Y-107698700D01*
X143016321Y-107682530D01*
X143023664Y-107667006D01*
X143032493Y-107652275D01*
X143042723Y-107638481D01*
X143054256Y-107625756D01*
X143066981Y-107614223D01*
X143080775Y-107603993D01*
X143095506Y-107595164D01*
X143111030Y-107587821D01*
X143127200Y-107582035D01*
X143143859Y-107577863D01*
X143160847Y-107575343D01*
X143178000Y-107574500D01*
X143588000Y-107574500D01*
X143605153Y-107575343D01*
X143605153Y-107575343D01*
G37*
D12*
X143383000Y-107924500D03*
D10*
G36*
X138652153Y-111690343D02*
G01*
X138669141Y-111692863D01*
X138685800Y-111697035D01*
X138701970Y-111702821D01*
X138717494Y-111710164D01*
X138732225Y-111718993D01*
X138746019Y-111729223D01*
X138758744Y-111740756D01*
X138770277Y-111753481D01*
X138780507Y-111767275D01*
X138789336Y-111782006D01*
X138796679Y-111797530D01*
X138802465Y-111813700D01*
X138806637Y-111830359D01*
X138809157Y-111847347D01*
X138810000Y-111864500D01*
X138810000Y-112214500D01*
X138809157Y-112231653D01*
X138806637Y-112248641D01*
X138802465Y-112265300D01*
X138796679Y-112281470D01*
X138789336Y-112296994D01*
X138780507Y-112311725D01*
X138770277Y-112325519D01*
X138758744Y-112338244D01*
X138746019Y-112349777D01*
X138732225Y-112360007D01*
X138717494Y-112368836D01*
X138701970Y-112376179D01*
X138685800Y-112381965D01*
X138669141Y-112386137D01*
X138652153Y-112388657D01*
X138635000Y-112389500D01*
X138225000Y-112389500D01*
X138207847Y-112388657D01*
X138190859Y-112386137D01*
X138174200Y-112381965D01*
X138158030Y-112376179D01*
X138142506Y-112368836D01*
X138127775Y-112360007D01*
X138113981Y-112349777D01*
X138101256Y-112338244D01*
X138089723Y-112325519D01*
X138079493Y-112311725D01*
X138070664Y-112296994D01*
X138063321Y-112281470D01*
X138057535Y-112265300D01*
X138053363Y-112248641D01*
X138050843Y-112231653D01*
X138050000Y-112214500D01*
X138050000Y-111864500D01*
X138050843Y-111847347D01*
X138053363Y-111830359D01*
X138057535Y-111813700D01*
X138063321Y-111797530D01*
X138070664Y-111782006D01*
X138079493Y-111767275D01*
X138089723Y-111753481D01*
X138101256Y-111740756D01*
X138113981Y-111729223D01*
X138127775Y-111718993D01*
X138142506Y-111710164D01*
X138158030Y-111702821D01*
X138174200Y-111697035D01*
X138190859Y-111692863D01*
X138207847Y-111690343D01*
X138225000Y-111689500D01*
X138635000Y-111689500D01*
X138652153Y-111690343D01*
X138652153Y-111690343D01*
G37*
D12*
X138430000Y-112039500D03*
D10*
G36*
X138652153Y-110115343D02*
G01*
X138669141Y-110117863D01*
X138685800Y-110122035D01*
X138701970Y-110127821D01*
X138717494Y-110135164D01*
X138732225Y-110143993D01*
X138746019Y-110154223D01*
X138758744Y-110165756D01*
X138770277Y-110178481D01*
X138780507Y-110192275D01*
X138789336Y-110207006D01*
X138796679Y-110222530D01*
X138802465Y-110238700D01*
X138806637Y-110255359D01*
X138809157Y-110272347D01*
X138810000Y-110289500D01*
X138810000Y-110639500D01*
X138809157Y-110656653D01*
X138806637Y-110673641D01*
X138802465Y-110690300D01*
X138796679Y-110706470D01*
X138789336Y-110721994D01*
X138780507Y-110736725D01*
X138770277Y-110750519D01*
X138758744Y-110763244D01*
X138746019Y-110774777D01*
X138732225Y-110785007D01*
X138717494Y-110793836D01*
X138701970Y-110801179D01*
X138685800Y-110806965D01*
X138669141Y-110811137D01*
X138652153Y-110813657D01*
X138635000Y-110814500D01*
X138225000Y-110814500D01*
X138207847Y-110813657D01*
X138190859Y-110811137D01*
X138174200Y-110806965D01*
X138158030Y-110801179D01*
X138142506Y-110793836D01*
X138127775Y-110785007D01*
X138113981Y-110774777D01*
X138101256Y-110763244D01*
X138089723Y-110750519D01*
X138079493Y-110736725D01*
X138070664Y-110721994D01*
X138063321Y-110706470D01*
X138057535Y-110690300D01*
X138053363Y-110673641D01*
X138050843Y-110656653D01*
X138050000Y-110639500D01*
X138050000Y-110289500D01*
X138050843Y-110272347D01*
X138053363Y-110255359D01*
X138057535Y-110238700D01*
X138063321Y-110222530D01*
X138070664Y-110207006D01*
X138079493Y-110192275D01*
X138089723Y-110178481D01*
X138101256Y-110165756D01*
X138113981Y-110154223D01*
X138127775Y-110143993D01*
X138142506Y-110135164D01*
X138158030Y-110127821D01*
X138174200Y-110122035D01*
X138190859Y-110117863D01*
X138207847Y-110115343D01*
X138225000Y-110114500D01*
X138635000Y-110114500D01*
X138652153Y-110115343D01*
X138652153Y-110115343D01*
G37*
D12*
X138430000Y-110464500D03*
D10*
G36*
X135469213Y-104253989D02*
G01*
X135486201Y-104256509D01*
X135502860Y-104260681D01*
X135519030Y-104266467D01*
X135534554Y-104273810D01*
X135549285Y-104282639D01*
X135563079Y-104292869D01*
X135575804Y-104304402D01*
X135823292Y-104551890D01*
X135834825Y-104564615D01*
X135845055Y-104578409D01*
X135853884Y-104593140D01*
X135861227Y-104608664D01*
X135867013Y-104624834D01*
X135871185Y-104641493D01*
X135873705Y-104658481D01*
X135874548Y-104675634D01*
X135873705Y-104692787D01*
X135871185Y-104709775D01*
X135867013Y-104726434D01*
X135861227Y-104742604D01*
X135853884Y-104758128D01*
X135845055Y-104772859D01*
X135834825Y-104786653D01*
X135823292Y-104799378D01*
X135533378Y-105089292D01*
X135520653Y-105100825D01*
X135506859Y-105111055D01*
X135492128Y-105119884D01*
X135476604Y-105127227D01*
X135460434Y-105133013D01*
X135443775Y-105137185D01*
X135426787Y-105139705D01*
X135409634Y-105140548D01*
X135392481Y-105139705D01*
X135375493Y-105137185D01*
X135358834Y-105133013D01*
X135342664Y-105127227D01*
X135327140Y-105119884D01*
X135312409Y-105111055D01*
X135298615Y-105100825D01*
X135285890Y-105089292D01*
X135038402Y-104841804D01*
X135026869Y-104829079D01*
X135016639Y-104815285D01*
X135007810Y-104800554D01*
X135000467Y-104785030D01*
X134994681Y-104768860D01*
X134990509Y-104752201D01*
X134987989Y-104735213D01*
X134987146Y-104718060D01*
X134987989Y-104700907D01*
X134990509Y-104683919D01*
X134994681Y-104667260D01*
X135000467Y-104651090D01*
X135007810Y-104635566D01*
X135016639Y-104620835D01*
X135026869Y-104607041D01*
X135038402Y-104594316D01*
X135328316Y-104304402D01*
X135341041Y-104292869D01*
X135354835Y-104282639D01*
X135369566Y-104273810D01*
X135385090Y-104266467D01*
X135401260Y-104260681D01*
X135417919Y-104256509D01*
X135434907Y-104253989D01*
X135452060Y-104253146D01*
X135469213Y-104253989D01*
X135469213Y-104253989D01*
G37*
D12*
X135430847Y-104696847D03*
D10*
G36*
X134355519Y-103140295D02*
G01*
X134372507Y-103142815D01*
X134389166Y-103146987D01*
X134405336Y-103152773D01*
X134420860Y-103160116D01*
X134435591Y-103168945D01*
X134449385Y-103179175D01*
X134462110Y-103190708D01*
X134709598Y-103438196D01*
X134721131Y-103450921D01*
X134731361Y-103464715D01*
X134740190Y-103479446D01*
X134747533Y-103494970D01*
X134753319Y-103511140D01*
X134757491Y-103527799D01*
X134760011Y-103544787D01*
X134760854Y-103561940D01*
X134760011Y-103579093D01*
X134757491Y-103596081D01*
X134753319Y-103612740D01*
X134747533Y-103628910D01*
X134740190Y-103644434D01*
X134731361Y-103659165D01*
X134721131Y-103672959D01*
X134709598Y-103685684D01*
X134419684Y-103975598D01*
X134406959Y-103987131D01*
X134393165Y-103997361D01*
X134378434Y-104006190D01*
X134362910Y-104013533D01*
X134346740Y-104019319D01*
X134330081Y-104023491D01*
X134313093Y-104026011D01*
X134295940Y-104026854D01*
X134278787Y-104026011D01*
X134261799Y-104023491D01*
X134245140Y-104019319D01*
X134228970Y-104013533D01*
X134213446Y-104006190D01*
X134198715Y-103997361D01*
X134184921Y-103987131D01*
X134172196Y-103975598D01*
X133924708Y-103728110D01*
X133913175Y-103715385D01*
X133902945Y-103701591D01*
X133894116Y-103686860D01*
X133886773Y-103671336D01*
X133880987Y-103655166D01*
X133876815Y-103638507D01*
X133874295Y-103621519D01*
X133873452Y-103604366D01*
X133874295Y-103587213D01*
X133876815Y-103570225D01*
X133880987Y-103553566D01*
X133886773Y-103537396D01*
X133894116Y-103521872D01*
X133902945Y-103507141D01*
X133913175Y-103493347D01*
X133924708Y-103480622D01*
X134214622Y-103190708D01*
X134227347Y-103179175D01*
X134241141Y-103168945D01*
X134255872Y-103160116D01*
X134271396Y-103152773D01*
X134287566Y-103146987D01*
X134304225Y-103142815D01*
X134321213Y-103140295D01*
X134338366Y-103139452D01*
X134355519Y-103140295D01*
X134355519Y-103140295D01*
G37*
D12*
X134317153Y-103583153D03*
D10*
G36*
X136607300Y-93262822D02*
G01*
X136624288Y-93265342D01*
X136640947Y-93269514D01*
X136657117Y-93275300D01*
X136672641Y-93282643D01*
X136687372Y-93291472D01*
X136701166Y-93301702D01*
X136713891Y-93313235D01*
X137003805Y-93603149D01*
X137015338Y-93615874D01*
X137025568Y-93629668D01*
X137034397Y-93644399D01*
X137041740Y-93659923D01*
X137047526Y-93676093D01*
X137051698Y-93692752D01*
X137054218Y-93709740D01*
X137055061Y-93726893D01*
X137054218Y-93744046D01*
X137051698Y-93761034D01*
X137047526Y-93777693D01*
X137041740Y-93793863D01*
X137034397Y-93809387D01*
X137025568Y-93824118D01*
X137015338Y-93837912D01*
X137003805Y-93850637D01*
X136756317Y-94098125D01*
X136743592Y-94109658D01*
X136729798Y-94119888D01*
X136715067Y-94128717D01*
X136699543Y-94136060D01*
X136683373Y-94141846D01*
X136666714Y-94146018D01*
X136649726Y-94148538D01*
X136632573Y-94149381D01*
X136615420Y-94148538D01*
X136598432Y-94146018D01*
X136581773Y-94141846D01*
X136565603Y-94136060D01*
X136550079Y-94128717D01*
X136535348Y-94119888D01*
X136521554Y-94109658D01*
X136508829Y-94098125D01*
X136218915Y-93808211D01*
X136207382Y-93795486D01*
X136197152Y-93781692D01*
X136188323Y-93766961D01*
X136180980Y-93751437D01*
X136175194Y-93735267D01*
X136171022Y-93718608D01*
X136168502Y-93701620D01*
X136167659Y-93684467D01*
X136168502Y-93667314D01*
X136171022Y-93650326D01*
X136175194Y-93633667D01*
X136180980Y-93617497D01*
X136188323Y-93601973D01*
X136197152Y-93587242D01*
X136207382Y-93573448D01*
X136218915Y-93560723D01*
X136466403Y-93313235D01*
X136479128Y-93301702D01*
X136492922Y-93291472D01*
X136507653Y-93282643D01*
X136523177Y-93275300D01*
X136539347Y-93269514D01*
X136556006Y-93265342D01*
X136572994Y-93262822D01*
X136590147Y-93261979D01*
X136607300Y-93262822D01*
X136607300Y-93262822D01*
G37*
D12*
X136611360Y-93705680D03*
D10*
G36*
X135493606Y-94376516D02*
G01*
X135510594Y-94379036D01*
X135527253Y-94383208D01*
X135543423Y-94388994D01*
X135558947Y-94396337D01*
X135573678Y-94405166D01*
X135587472Y-94415396D01*
X135600197Y-94426929D01*
X135890111Y-94716843D01*
X135901644Y-94729568D01*
X135911874Y-94743362D01*
X135920703Y-94758093D01*
X135928046Y-94773617D01*
X135933832Y-94789787D01*
X135938004Y-94806446D01*
X135940524Y-94823434D01*
X135941367Y-94840587D01*
X135940524Y-94857740D01*
X135938004Y-94874728D01*
X135933832Y-94891387D01*
X135928046Y-94907557D01*
X135920703Y-94923081D01*
X135911874Y-94937812D01*
X135901644Y-94951606D01*
X135890111Y-94964331D01*
X135642623Y-95211819D01*
X135629898Y-95223352D01*
X135616104Y-95233582D01*
X135601373Y-95242411D01*
X135585849Y-95249754D01*
X135569679Y-95255540D01*
X135553020Y-95259712D01*
X135536032Y-95262232D01*
X135518879Y-95263075D01*
X135501726Y-95262232D01*
X135484738Y-95259712D01*
X135468079Y-95255540D01*
X135451909Y-95249754D01*
X135436385Y-95242411D01*
X135421654Y-95233582D01*
X135407860Y-95223352D01*
X135395135Y-95211819D01*
X135105221Y-94921905D01*
X135093688Y-94909180D01*
X135083458Y-94895386D01*
X135074629Y-94880655D01*
X135067286Y-94865131D01*
X135061500Y-94848961D01*
X135057328Y-94832302D01*
X135054808Y-94815314D01*
X135053965Y-94798161D01*
X135054808Y-94781008D01*
X135057328Y-94764020D01*
X135061500Y-94747361D01*
X135067286Y-94731191D01*
X135074629Y-94715667D01*
X135083458Y-94700936D01*
X135093688Y-94687142D01*
X135105221Y-94674417D01*
X135352709Y-94426929D01*
X135365434Y-94415396D01*
X135379228Y-94405166D01*
X135393959Y-94396337D01*
X135409483Y-94388994D01*
X135425653Y-94383208D01*
X135442312Y-94379036D01*
X135459300Y-94376516D01*
X135476453Y-94375673D01*
X135493606Y-94376516D01*
X135493606Y-94376516D01*
G37*
D12*
X135497666Y-94819374D03*
D10*
G36*
X145256153Y-101022343D02*
G01*
X145273141Y-101024863D01*
X145289800Y-101029035D01*
X145305970Y-101034821D01*
X145321494Y-101042164D01*
X145336225Y-101050993D01*
X145350019Y-101061223D01*
X145362744Y-101072756D01*
X145374277Y-101085481D01*
X145384507Y-101099275D01*
X145393336Y-101114006D01*
X145400679Y-101129530D01*
X145406465Y-101145700D01*
X145410637Y-101162359D01*
X145413157Y-101179347D01*
X145414000Y-101196500D01*
X145414000Y-101546500D01*
X145413157Y-101563653D01*
X145410637Y-101580641D01*
X145406465Y-101597300D01*
X145400679Y-101613470D01*
X145393336Y-101628994D01*
X145384507Y-101643725D01*
X145374277Y-101657519D01*
X145362744Y-101670244D01*
X145350019Y-101681777D01*
X145336225Y-101692007D01*
X145321494Y-101700836D01*
X145305970Y-101708179D01*
X145289800Y-101713965D01*
X145273141Y-101718137D01*
X145256153Y-101720657D01*
X145239000Y-101721500D01*
X144829000Y-101721500D01*
X144811847Y-101720657D01*
X144794859Y-101718137D01*
X144778200Y-101713965D01*
X144762030Y-101708179D01*
X144746506Y-101700836D01*
X144731775Y-101692007D01*
X144717981Y-101681777D01*
X144705256Y-101670244D01*
X144693723Y-101657519D01*
X144683493Y-101643725D01*
X144674664Y-101628994D01*
X144667321Y-101613470D01*
X144661535Y-101597300D01*
X144657363Y-101580641D01*
X144654843Y-101563653D01*
X144654000Y-101546500D01*
X144654000Y-101196500D01*
X144654843Y-101179347D01*
X144657363Y-101162359D01*
X144661535Y-101145700D01*
X144667321Y-101129530D01*
X144674664Y-101114006D01*
X144683493Y-101099275D01*
X144693723Y-101085481D01*
X144705256Y-101072756D01*
X144717981Y-101061223D01*
X144731775Y-101050993D01*
X144746506Y-101042164D01*
X144762030Y-101034821D01*
X144778200Y-101029035D01*
X144794859Y-101024863D01*
X144811847Y-101022343D01*
X144829000Y-101021500D01*
X145239000Y-101021500D01*
X145256153Y-101022343D01*
X145256153Y-101022343D01*
G37*
D12*
X145034000Y-101371500D03*
D10*
G36*
X145256153Y-99447343D02*
G01*
X145273141Y-99449863D01*
X145289800Y-99454035D01*
X145305970Y-99459821D01*
X145321494Y-99467164D01*
X145336225Y-99475993D01*
X145350019Y-99486223D01*
X145362744Y-99497756D01*
X145374277Y-99510481D01*
X145384507Y-99524275D01*
X145393336Y-99539006D01*
X145400679Y-99554530D01*
X145406465Y-99570700D01*
X145410637Y-99587359D01*
X145413157Y-99604347D01*
X145414000Y-99621500D01*
X145414000Y-99971500D01*
X145413157Y-99988653D01*
X145410637Y-100005641D01*
X145406465Y-100022300D01*
X145400679Y-100038470D01*
X145393336Y-100053994D01*
X145384507Y-100068725D01*
X145374277Y-100082519D01*
X145362744Y-100095244D01*
X145350019Y-100106777D01*
X145336225Y-100117007D01*
X145321494Y-100125836D01*
X145305970Y-100133179D01*
X145289800Y-100138965D01*
X145273141Y-100143137D01*
X145256153Y-100145657D01*
X145239000Y-100146500D01*
X144829000Y-100146500D01*
X144811847Y-100145657D01*
X144794859Y-100143137D01*
X144778200Y-100138965D01*
X144762030Y-100133179D01*
X144746506Y-100125836D01*
X144731775Y-100117007D01*
X144717981Y-100106777D01*
X144705256Y-100095244D01*
X144693723Y-100082519D01*
X144683493Y-100068725D01*
X144674664Y-100053994D01*
X144667321Y-100038470D01*
X144661535Y-100022300D01*
X144657363Y-100005641D01*
X144654843Y-99988653D01*
X144654000Y-99971500D01*
X144654000Y-99621500D01*
X144654843Y-99604347D01*
X144657363Y-99587359D01*
X144661535Y-99570700D01*
X144667321Y-99554530D01*
X144674664Y-99539006D01*
X144683493Y-99524275D01*
X144693723Y-99510481D01*
X144705256Y-99497756D01*
X144717981Y-99486223D01*
X144731775Y-99475993D01*
X144746506Y-99467164D01*
X144762030Y-99459821D01*
X144778200Y-99454035D01*
X144794859Y-99449863D01*
X144811847Y-99447343D01*
X144829000Y-99446500D01*
X145239000Y-99446500D01*
X145256153Y-99447343D01*
X145256153Y-99447343D01*
G37*
D12*
X145034000Y-99796500D03*
D10*
G36*
X145764153Y-103511343D02*
G01*
X145781141Y-103513863D01*
X145797800Y-103518035D01*
X145813970Y-103523821D01*
X145829494Y-103531164D01*
X145844225Y-103539993D01*
X145858019Y-103550223D01*
X145870744Y-103561756D01*
X145882277Y-103574481D01*
X145892507Y-103588275D01*
X145901336Y-103603006D01*
X145908679Y-103618530D01*
X145914465Y-103634700D01*
X145918637Y-103651359D01*
X145921157Y-103668347D01*
X145922000Y-103685500D01*
X145922000Y-104035500D01*
X145921157Y-104052653D01*
X145918637Y-104069641D01*
X145914465Y-104086300D01*
X145908679Y-104102470D01*
X145901336Y-104117994D01*
X145892507Y-104132725D01*
X145882277Y-104146519D01*
X145870744Y-104159244D01*
X145858019Y-104170777D01*
X145844225Y-104181007D01*
X145829494Y-104189836D01*
X145813970Y-104197179D01*
X145797800Y-104202965D01*
X145781141Y-104207137D01*
X145764153Y-104209657D01*
X145747000Y-104210500D01*
X145337000Y-104210500D01*
X145319847Y-104209657D01*
X145302859Y-104207137D01*
X145286200Y-104202965D01*
X145270030Y-104197179D01*
X145254506Y-104189836D01*
X145239775Y-104181007D01*
X145225981Y-104170777D01*
X145213256Y-104159244D01*
X145201723Y-104146519D01*
X145191493Y-104132725D01*
X145182664Y-104117994D01*
X145175321Y-104102470D01*
X145169535Y-104086300D01*
X145165363Y-104069641D01*
X145162843Y-104052653D01*
X145162000Y-104035500D01*
X145162000Y-103685500D01*
X145162843Y-103668347D01*
X145165363Y-103651359D01*
X145169535Y-103634700D01*
X145175321Y-103618530D01*
X145182664Y-103603006D01*
X145191493Y-103588275D01*
X145201723Y-103574481D01*
X145213256Y-103561756D01*
X145225981Y-103550223D01*
X145239775Y-103539993D01*
X145254506Y-103531164D01*
X145270030Y-103523821D01*
X145286200Y-103518035D01*
X145302859Y-103513863D01*
X145319847Y-103511343D01*
X145337000Y-103510500D01*
X145747000Y-103510500D01*
X145764153Y-103511343D01*
X145764153Y-103511343D01*
G37*
D12*
X145542000Y-103860500D03*
D10*
G36*
X145764153Y-105086343D02*
G01*
X145781141Y-105088863D01*
X145797800Y-105093035D01*
X145813970Y-105098821D01*
X145829494Y-105106164D01*
X145844225Y-105114993D01*
X145858019Y-105125223D01*
X145870744Y-105136756D01*
X145882277Y-105149481D01*
X145892507Y-105163275D01*
X145901336Y-105178006D01*
X145908679Y-105193530D01*
X145914465Y-105209700D01*
X145918637Y-105226359D01*
X145921157Y-105243347D01*
X145922000Y-105260500D01*
X145922000Y-105610500D01*
X145921157Y-105627653D01*
X145918637Y-105644641D01*
X145914465Y-105661300D01*
X145908679Y-105677470D01*
X145901336Y-105692994D01*
X145892507Y-105707725D01*
X145882277Y-105721519D01*
X145870744Y-105734244D01*
X145858019Y-105745777D01*
X145844225Y-105756007D01*
X145829494Y-105764836D01*
X145813970Y-105772179D01*
X145797800Y-105777965D01*
X145781141Y-105782137D01*
X145764153Y-105784657D01*
X145747000Y-105785500D01*
X145337000Y-105785500D01*
X145319847Y-105784657D01*
X145302859Y-105782137D01*
X145286200Y-105777965D01*
X145270030Y-105772179D01*
X145254506Y-105764836D01*
X145239775Y-105756007D01*
X145225981Y-105745777D01*
X145213256Y-105734244D01*
X145201723Y-105721519D01*
X145191493Y-105707725D01*
X145182664Y-105692994D01*
X145175321Y-105677470D01*
X145169535Y-105661300D01*
X145165363Y-105644641D01*
X145162843Y-105627653D01*
X145162000Y-105610500D01*
X145162000Y-105260500D01*
X145162843Y-105243347D01*
X145165363Y-105226359D01*
X145169535Y-105209700D01*
X145175321Y-105193530D01*
X145182664Y-105178006D01*
X145191493Y-105163275D01*
X145201723Y-105149481D01*
X145213256Y-105136756D01*
X145225981Y-105125223D01*
X145239775Y-105114993D01*
X145254506Y-105106164D01*
X145270030Y-105098821D01*
X145286200Y-105093035D01*
X145302859Y-105088863D01*
X145319847Y-105086343D01*
X145337000Y-105085500D01*
X145747000Y-105085500D01*
X145764153Y-105086343D01*
X145764153Y-105086343D01*
G37*
D12*
X145542000Y-105435500D03*
D10*
G36*
X136641519Y-105426295D02*
G01*
X136658507Y-105428815D01*
X136675166Y-105432987D01*
X136691336Y-105438773D01*
X136706860Y-105446116D01*
X136721591Y-105454945D01*
X136735385Y-105465175D01*
X136748110Y-105476708D01*
X136995598Y-105724196D01*
X137007131Y-105736921D01*
X137017361Y-105750715D01*
X137026190Y-105765446D01*
X137033533Y-105780970D01*
X137039319Y-105797140D01*
X137043491Y-105813799D01*
X137046011Y-105830787D01*
X137046854Y-105847940D01*
X137046011Y-105865093D01*
X137043491Y-105882081D01*
X137039319Y-105898740D01*
X137033533Y-105914910D01*
X137026190Y-105930434D01*
X137017361Y-105945165D01*
X137007131Y-105958959D01*
X136995598Y-105971684D01*
X136705684Y-106261598D01*
X136692959Y-106273131D01*
X136679165Y-106283361D01*
X136664434Y-106292190D01*
X136648910Y-106299533D01*
X136632740Y-106305319D01*
X136616081Y-106309491D01*
X136599093Y-106312011D01*
X136581940Y-106312854D01*
X136564787Y-106312011D01*
X136547799Y-106309491D01*
X136531140Y-106305319D01*
X136514970Y-106299533D01*
X136499446Y-106292190D01*
X136484715Y-106283361D01*
X136470921Y-106273131D01*
X136458196Y-106261598D01*
X136210708Y-106014110D01*
X136199175Y-106001385D01*
X136188945Y-105987591D01*
X136180116Y-105972860D01*
X136172773Y-105957336D01*
X136166987Y-105941166D01*
X136162815Y-105924507D01*
X136160295Y-105907519D01*
X136159452Y-105890366D01*
X136160295Y-105873213D01*
X136162815Y-105856225D01*
X136166987Y-105839566D01*
X136172773Y-105823396D01*
X136180116Y-105807872D01*
X136188945Y-105793141D01*
X136199175Y-105779347D01*
X136210708Y-105766622D01*
X136500622Y-105476708D01*
X136513347Y-105465175D01*
X136527141Y-105454945D01*
X136541872Y-105446116D01*
X136557396Y-105438773D01*
X136573566Y-105432987D01*
X136590225Y-105428815D01*
X136607213Y-105426295D01*
X136624366Y-105425452D01*
X136641519Y-105426295D01*
X136641519Y-105426295D01*
G37*
D12*
X136603153Y-105869153D03*
D10*
G36*
X137755213Y-106539989D02*
G01*
X137772201Y-106542509D01*
X137788860Y-106546681D01*
X137805030Y-106552467D01*
X137820554Y-106559810D01*
X137835285Y-106568639D01*
X137849079Y-106578869D01*
X137861804Y-106590402D01*
X138109292Y-106837890D01*
X138120825Y-106850615D01*
X138131055Y-106864409D01*
X138139884Y-106879140D01*
X138147227Y-106894664D01*
X138153013Y-106910834D01*
X138157185Y-106927493D01*
X138159705Y-106944481D01*
X138160548Y-106961634D01*
X138159705Y-106978787D01*
X138157185Y-106995775D01*
X138153013Y-107012434D01*
X138147227Y-107028604D01*
X138139884Y-107044128D01*
X138131055Y-107058859D01*
X138120825Y-107072653D01*
X138109292Y-107085378D01*
X137819378Y-107375292D01*
X137806653Y-107386825D01*
X137792859Y-107397055D01*
X137778128Y-107405884D01*
X137762604Y-107413227D01*
X137746434Y-107419013D01*
X137729775Y-107423185D01*
X137712787Y-107425705D01*
X137695634Y-107426548D01*
X137678481Y-107425705D01*
X137661493Y-107423185D01*
X137644834Y-107419013D01*
X137628664Y-107413227D01*
X137613140Y-107405884D01*
X137598409Y-107397055D01*
X137584615Y-107386825D01*
X137571890Y-107375292D01*
X137324402Y-107127804D01*
X137312869Y-107115079D01*
X137302639Y-107101285D01*
X137293810Y-107086554D01*
X137286467Y-107071030D01*
X137280681Y-107054860D01*
X137276509Y-107038201D01*
X137273989Y-107021213D01*
X137273146Y-107004060D01*
X137273989Y-106986907D01*
X137276509Y-106969919D01*
X137280681Y-106953260D01*
X137286467Y-106937090D01*
X137293810Y-106921566D01*
X137302639Y-106906835D01*
X137312869Y-106893041D01*
X137324402Y-106880316D01*
X137614316Y-106590402D01*
X137627041Y-106578869D01*
X137640835Y-106568639D01*
X137655566Y-106559810D01*
X137671090Y-106552467D01*
X137687260Y-106546681D01*
X137703919Y-106542509D01*
X137720907Y-106539989D01*
X137738060Y-106539146D01*
X137755213Y-106539989D01*
X137755213Y-106539989D01*
G37*
D12*
X137716847Y-106982847D03*
D10*
G36*
X132853180Y-97002876D02*
G01*
X132870168Y-97005396D01*
X132886827Y-97009568D01*
X132902997Y-97015354D01*
X132918521Y-97022697D01*
X132933252Y-97031526D01*
X132947046Y-97041756D01*
X132959771Y-97053289D01*
X133249685Y-97343203D01*
X133261218Y-97355928D01*
X133271448Y-97369722D01*
X133280277Y-97384453D01*
X133287620Y-97399977D01*
X133293406Y-97416147D01*
X133297578Y-97432806D01*
X133300098Y-97449794D01*
X133300941Y-97466947D01*
X133300098Y-97484100D01*
X133297578Y-97501088D01*
X133293406Y-97517747D01*
X133287620Y-97533917D01*
X133280277Y-97549441D01*
X133271448Y-97564172D01*
X133261218Y-97577966D01*
X133249685Y-97590691D01*
X133002197Y-97838179D01*
X132989472Y-97849712D01*
X132975678Y-97859942D01*
X132960947Y-97868771D01*
X132945423Y-97876114D01*
X132929253Y-97881900D01*
X132912594Y-97886072D01*
X132895606Y-97888592D01*
X132878453Y-97889435D01*
X132861300Y-97888592D01*
X132844312Y-97886072D01*
X132827653Y-97881900D01*
X132811483Y-97876114D01*
X132795959Y-97868771D01*
X132781228Y-97859942D01*
X132767434Y-97849712D01*
X132754709Y-97838179D01*
X132464795Y-97548265D01*
X132453262Y-97535540D01*
X132443032Y-97521746D01*
X132434203Y-97507015D01*
X132426860Y-97491491D01*
X132421074Y-97475321D01*
X132416902Y-97458662D01*
X132414382Y-97441674D01*
X132413539Y-97424521D01*
X132414382Y-97407368D01*
X132416902Y-97390380D01*
X132421074Y-97373721D01*
X132426860Y-97357551D01*
X132434203Y-97342027D01*
X132443032Y-97327296D01*
X132453262Y-97313502D01*
X132464795Y-97300777D01*
X132712283Y-97053289D01*
X132725008Y-97041756D01*
X132738802Y-97031526D01*
X132753533Y-97022697D01*
X132769057Y-97015354D01*
X132785227Y-97009568D01*
X132801886Y-97005396D01*
X132818874Y-97002876D01*
X132836027Y-97002033D01*
X132853180Y-97002876D01*
X132853180Y-97002876D01*
G37*
D12*
X132857240Y-97445734D03*
D10*
G36*
X133966874Y-95889182D02*
G01*
X133983862Y-95891702D01*
X134000521Y-95895874D01*
X134016691Y-95901660D01*
X134032215Y-95909003D01*
X134046946Y-95917832D01*
X134060740Y-95928062D01*
X134073465Y-95939595D01*
X134363379Y-96229509D01*
X134374912Y-96242234D01*
X134385142Y-96256028D01*
X134393971Y-96270759D01*
X134401314Y-96286283D01*
X134407100Y-96302453D01*
X134411272Y-96319112D01*
X134413792Y-96336100D01*
X134414635Y-96353253D01*
X134413792Y-96370406D01*
X134411272Y-96387394D01*
X134407100Y-96404053D01*
X134401314Y-96420223D01*
X134393971Y-96435747D01*
X134385142Y-96450478D01*
X134374912Y-96464272D01*
X134363379Y-96476997D01*
X134115891Y-96724485D01*
X134103166Y-96736018D01*
X134089372Y-96746248D01*
X134074641Y-96755077D01*
X134059117Y-96762420D01*
X134042947Y-96768206D01*
X134026288Y-96772378D01*
X134009300Y-96774898D01*
X133992147Y-96775741D01*
X133974994Y-96774898D01*
X133958006Y-96772378D01*
X133941347Y-96768206D01*
X133925177Y-96762420D01*
X133909653Y-96755077D01*
X133894922Y-96746248D01*
X133881128Y-96736018D01*
X133868403Y-96724485D01*
X133578489Y-96434571D01*
X133566956Y-96421846D01*
X133556726Y-96408052D01*
X133547897Y-96393321D01*
X133540554Y-96377797D01*
X133534768Y-96361627D01*
X133530596Y-96344968D01*
X133528076Y-96327980D01*
X133527233Y-96310827D01*
X133528076Y-96293674D01*
X133530596Y-96276686D01*
X133534768Y-96260027D01*
X133540554Y-96243857D01*
X133547897Y-96228333D01*
X133556726Y-96213602D01*
X133566956Y-96199808D01*
X133578489Y-96187083D01*
X133825977Y-95939595D01*
X133838702Y-95928062D01*
X133852496Y-95917832D01*
X133867227Y-95909003D01*
X133882751Y-95901660D01*
X133898921Y-95895874D01*
X133915580Y-95891702D01*
X133932568Y-95889182D01*
X133949721Y-95888339D01*
X133966874Y-95889182D01*
X133966874Y-95889182D01*
G37*
D12*
X133970934Y-96332040D03*
D10*
G36*
X157356113Y-117974939D02*
G01*
X157375043Y-117977747D01*
X157393606Y-117982397D01*
X157411623Y-117988843D01*
X157428922Y-117997025D01*
X157445336Y-118006863D01*
X157460707Y-118018263D01*
X157474886Y-118031114D01*
X157487737Y-118045293D01*
X157499137Y-118060664D01*
X157508975Y-118077078D01*
X157517157Y-118094377D01*
X157523603Y-118112394D01*
X157528253Y-118130957D01*
X157531061Y-118149887D01*
X157532000Y-118169000D01*
X157532000Y-118559000D01*
X157531061Y-118578113D01*
X157528253Y-118597043D01*
X157523603Y-118615606D01*
X157517157Y-118633623D01*
X157508975Y-118650922D01*
X157499137Y-118667336D01*
X157487737Y-118682707D01*
X157474886Y-118696886D01*
X157460707Y-118709737D01*
X157445336Y-118721137D01*
X157428922Y-118730975D01*
X157411623Y-118739157D01*
X157393606Y-118745603D01*
X157375043Y-118750253D01*
X157356113Y-118753061D01*
X157337000Y-118754000D01*
X156607000Y-118754000D01*
X156587887Y-118753061D01*
X156568957Y-118750253D01*
X156550394Y-118745603D01*
X156532377Y-118739157D01*
X156515078Y-118730975D01*
X156498664Y-118721137D01*
X156483293Y-118709737D01*
X156469114Y-118696886D01*
X156456263Y-118682707D01*
X156444863Y-118667336D01*
X156435025Y-118650922D01*
X156426843Y-118633623D01*
X156420397Y-118615606D01*
X156415747Y-118597043D01*
X156412939Y-118578113D01*
X156412000Y-118559000D01*
X156412000Y-118169000D01*
X156412939Y-118149887D01*
X156415747Y-118130957D01*
X156420397Y-118112394D01*
X156426843Y-118094377D01*
X156435025Y-118077078D01*
X156444863Y-118060664D01*
X156456263Y-118045293D01*
X156469114Y-118031114D01*
X156483293Y-118018263D01*
X156498664Y-118006863D01*
X156515078Y-117997025D01*
X156532377Y-117988843D01*
X156550394Y-117982397D01*
X156568957Y-117977747D01*
X156587887Y-117974939D01*
X156607000Y-117974000D01*
X157337000Y-117974000D01*
X157356113Y-117974939D01*
X157356113Y-117974939D01*
G37*
D11*
X156972000Y-118364000D03*
D10*
G36*
X157356113Y-116099939D02*
G01*
X157375043Y-116102747D01*
X157393606Y-116107397D01*
X157411623Y-116113843D01*
X157428922Y-116122025D01*
X157445336Y-116131863D01*
X157460707Y-116143263D01*
X157474886Y-116156114D01*
X157487737Y-116170293D01*
X157499137Y-116185664D01*
X157508975Y-116202078D01*
X157517157Y-116219377D01*
X157523603Y-116237394D01*
X157528253Y-116255957D01*
X157531061Y-116274887D01*
X157532000Y-116294000D01*
X157532000Y-116684000D01*
X157531061Y-116703113D01*
X157528253Y-116722043D01*
X157523603Y-116740606D01*
X157517157Y-116758623D01*
X157508975Y-116775922D01*
X157499137Y-116792336D01*
X157487737Y-116807707D01*
X157474886Y-116821886D01*
X157460707Y-116834737D01*
X157445336Y-116846137D01*
X157428922Y-116855975D01*
X157411623Y-116864157D01*
X157393606Y-116870603D01*
X157375043Y-116875253D01*
X157356113Y-116878061D01*
X157337000Y-116879000D01*
X156607000Y-116879000D01*
X156587887Y-116878061D01*
X156568957Y-116875253D01*
X156550394Y-116870603D01*
X156532377Y-116864157D01*
X156515078Y-116855975D01*
X156498664Y-116846137D01*
X156483293Y-116834737D01*
X156469114Y-116821886D01*
X156456263Y-116807707D01*
X156444863Y-116792336D01*
X156435025Y-116775922D01*
X156426843Y-116758623D01*
X156420397Y-116740606D01*
X156415747Y-116722043D01*
X156412939Y-116703113D01*
X156412000Y-116684000D01*
X156412000Y-116294000D01*
X156412939Y-116274887D01*
X156415747Y-116255957D01*
X156420397Y-116237394D01*
X156426843Y-116219377D01*
X156435025Y-116202078D01*
X156444863Y-116185664D01*
X156456263Y-116170293D01*
X156469114Y-116156114D01*
X156483293Y-116143263D01*
X156498664Y-116131863D01*
X156515078Y-116122025D01*
X156532377Y-116113843D01*
X156550394Y-116107397D01*
X156568957Y-116102747D01*
X156587887Y-116099939D01*
X156607000Y-116099000D01*
X157337000Y-116099000D01*
X157356113Y-116099939D01*
X157356113Y-116099939D01*
G37*
D11*
X156972000Y-116489000D03*
D10*
G36*
X133851373Y-93390459D02*
G01*
X133870303Y-93393267D01*
X133888866Y-93397917D01*
X133906883Y-93404363D01*
X133924182Y-93412545D01*
X133940596Y-93422383D01*
X133955967Y-93433783D01*
X133970146Y-93446634D01*
X133982997Y-93460813D01*
X133994397Y-93476184D01*
X134004235Y-93492598D01*
X134012417Y-93509897D01*
X134018863Y-93527914D01*
X134023513Y-93546477D01*
X134026321Y-93565407D01*
X134027260Y-93584520D01*
X134027260Y-94314520D01*
X134026321Y-94333633D01*
X134023513Y-94352563D01*
X134018863Y-94371126D01*
X134012417Y-94389143D01*
X134004235Y-94406442D01*
X133994397Y-94422856D01*
X133982997Y-94438227D01*
X133970146Y-94452406D01*
X133955967Y-94465257D01*
X133940596Y-94476657D01*
X133924182Y-94486495D01*
X133906883Y-94494677D01*
X133888866Y-94501123D01*
X133870303Y-94505773D01*
X133851373Y-94508581D01*
X133832260Y-94509520D01*
X133442260Y-94509520D01*
X133423147Y-94508581D01*
X133404217Y-94505773D01*
X133385654Y-94501123D01*
X133367637Y-94494677D01*
X133350338Y-94486495D01*
X133333924Y-94476657D01*
X133318553Y-94465257D01*
X133304374Y-94452406D01*
X133291523Y-94438227D01*
X133280123Y-94422856D01*
X133270285Y-94406442D01*
X133262103Y-94389143D01*
X133255657Y-94371126D01*
X133251007Y-94352563D01*
X133248199Y-94333633D01*
X133247260Y-94314520D01*
X133247260Y-93584520D01*
X133248199Y-93565407D01*
X133251007Y-93546477D01*
X133255657Y-93527914D01*
X133262103Y-93509897D01*
X133270285Y-93492598D01*
X133280123Y-93476184D01*
X133291523Y-93460813D01*
X133304374Y-93446634D01*
X133318553Y-93433783D01*
X133333924Y-93422383D01*
X133350338Y-93412545D01*
X133367637Y-93404363D01*
X133385654Y-93397917D01*
X133404217Y-93393267D01*
X133423147Y-93390459D01*
X133442260Y-93389520D01*
X133832260Y-93389520D01*
X133851373Y-93390459D01*
X133851373Y-93390459D01*
G37*
D11*
X133637260Y-93949520D03*
D10*
G36*
X131976373Y-93390459D02*
G01*
X131995303Y-93393267D01*
X132013866Y-93397917D01*
X132031883Y-93404363D01*
X132049182Y-93412545D01*
X132065596Y-93422383D01*
X132080967Y-93433783D01*
X132095146Y-93446634D01*
X132107997Y-93460813D01*
X132119397Y-93476184D01*
X132129235Y-93492598D01*
X132137417Y-93509897D01*
X132143863Y-93527914D01*
X132148513Y-93546477D01*
X132151321Y-93565407D01*
X132152260Y-93584520D01*
X132152260Y-94314520D01*
X132151321Y-94333633D01*
X132148513Y-94352563D01*
X132143863Y-94371126D01*
X132137417Y-94389143D01*
X132129235Y-94406442D01*
X132119397Y-94422856D01*
X132107997Y-94438227D01*
X132095146Y-94452406D01*
X132080967Y-94465257D01*
X132065596Y-94476657D01*
X132049182Y-94486495D01*
X132031883Y-94494677D01*
X132013866Y-94501123D01*
X131995303Y-94505773D01*
X131976373Y-94508581D01*
X131957260Y-94509520D01*
X131567260Y-94509520D01*
X131548147Y-94508581D01*
X131529217Y-94505773D01*
X131510654Y-94501123D01*
X131492637Y-94494677D01*
X131475338Y-94486495D01*
X131458924Y-94476657D01*
X131443553Y-94465257D01*
X131429374Y-94452406D01*
X131416523Y-94438227D01*
X131405123Y-94422856D01*
X131395285Y-94406442D01*
X131387103Y-94389143D01*
X131380657Y-94371126D01*
X131376007Y-94352563D01*
X131373199Y-94333633D01*
X131372260Y-94314520D01*
X131372260Y-93584520D01*
X131373199Y-93565407D01*
X131376007Y-93546477D01*
X131380657Y-93527914D01*
X131387103Y-93509897D01*
X131395285Y-93492598D01*
X131405123Y-93476184D01*
X131416523Y-93460813D01*
X131429374Y-93446634D01*
X131443553Y-93433783D01*
X131458924Y-93422383D01*
X131475338Y-93412545D01*
X131492637Y-93404363D01*
X131510654Y-93397917D01*
X131529217Y-93393267D01*
X131548147Y-93390459D01*
X131567260Y-93389520D01*
X131957260Y-93389520D01*
X131976373Y-93390459D01*
X131976373Y-93390459D01*
G37*
D11*
X131762260Y-93949520D03*
D10*
G36*
X121923113Y-89351439D02*
G01*
X121942043Y-89354247D01*
X121960606Y-89358897D01*
X121978623Y-89365343D01*
X121995922Y-89373525D01*
X122012336Y-89383363D01*
X122027707Y-89394763D01*
X122041886Y-89407614D01*
X122054737Y-89421793D01*
X122066137Y-89437164D01*
X122075975Y-89453578D01*
X122084157Y-89470877D01*
X122090603Y-89488894D01*
X122095253Y-89507457D01*
X122098061Y-89526387D01*
X122099000Y-89545500D01*
X122099000Y-89935500D01*
X122098061Y-89954613D01*
X122095253Y-89973543D01*
X122090603Y-89992106D01*
X122084157Y-90010123D01*
X122075975Y-90027422D01*
X122066137Y-90043836D01*
X122054737Y-90059207D01*
X122041886Y-90073386D01*
X122027707Y-90086237D01*
X122012336Y-90097637D01*
X121995922Y-90107475D01*
X121978623Y-90115657D01*
X121960606Y-90122103D01*
X121942043Y-90126753D01*
X121923113Y-90129561D01*
X121904000Y-90130500D01*
X121174000Y-90130500D01*
X121154887Y-90129561D01*
X121135957Y-90126753D01*
X121117394Y-90122103D01*
X121099377Y-90115657D01*
X121082078Y-90107475D01*
X121065664Y-90097637D01*
X121050293Y-90086237D01*
X121036114Y-90073386D01*
X121023263Y-90059207D01*
X121011863Y-90043836D01*
X121002025Y-90027422D01*
X120993843Y-90010123D01*
X120987397Y-89992106D01*
X120982747Y-89973543D01*
X120979939Y-89954613D01*
X120979000Y-89935500D01*
X120979000Y-89545500D01*
X120979939Y-89526387D01*
X120982747Y-89507457D01*
X120987397Y-89488894D01*
X120993843Y-89470877D01*
X121002025Y-89453578D01*
X121011863Y-89437164D01*
X121023263Y-89421793D01*
X121036114Y-89407614D01*
X121050293Y-89394763D01*
X121065664Y-89383363D01*
X121082078Y-89373525D01*
X121099377Y-89365343D01*
X121117394Y-89358897D01*
X121135957Y-89354247D01*
X121154887Y-89351439D01*
X121174000Y-89350500D01*
X121904000Y-89350500D01*
X121923113Y-89351439D01*
X121923113Y-89351439D01*
G37*
D11*
X121539000Y-89740500D03*
D10*
G36*
X121923113Y-91226439D02*
G01*
X121942043Y-91229247D01*
X121960606Y-91233897D01*
X121978623Y-91240343D01*
X121995922Y-91248525D01*
X122012336Y-91258363D01*
X122027707Y-91269763D01*
X122041886Y-91282614D01*
X122054737Y-91296793D01*
X122066137Y-91312164D01*
X122075975Y-91328578D01*
X122084157Y-91345877D01*
X122090603Y-91363894D01*
X122095253Y-91382457D01*
X122098061Y-91401387D01*
X122099000Y-91420500D01*
X122099000Y-91810500D01*
X122098061Y-91829613D01*
X122095253Y-91848543D01*
X122090603Y-91867106D01*
X122084157Y-91885123D01*
X122075975Y-91902422D01*
X122066137Y-91918836D01*
X122054737Y-91934207D01*
X122041886Y-91948386D01*
X122027707Y-91961237D01*
X122012336Y-91972637D01*
X121995922Y-91982475D01*
X121978623Y-91990657D01*
X121960606Y-91997103D01*
X121942043Y-92001753D01*
X121923113Y-92004561D01*
X121904000Y-92005500D01*
X121174000Y-92005500D01*
X121154887Y-92004561D01*
X121135957Y-92001753D01*
X121117394Y-91997103D01*
X121099377Y-91990657D01*
X121082078Y-91982475D01*
X121065664Y-91972637D01*
X121050293Y-91961237D01*
X121036114Y-91948386D01*
X121023263Y-91934207D01*
X121011863Y-91918836D01*
X121002025Y-91902422D01*
X120993843Y-91885123D01*
X120987397Y-91867106D01*
X120982747Y-91848543D01*
X120979939Y-91829613D01*
X120979000Y-91810500D01*
X120979000Y-91420500D01*
X120979939Y-91401387D01*
X120982747Y-91382457D01*
X120987397Y-91363894D01*
X120993843Y-91345877D01*
X121002025Y-91328578D01*
X121011863Y-91312164D01*
X121023263Y-91296793D01*
X121036114Y-91282614D01*
X121050293Y-91269763D01*
X121065664Y-91258363D01*
X121082078Y-91248525D01*
X121099377Y-91240343D01*
X121117394Y-91233897D01*
X121135957Y-91229247D01*
X121154887Y-91226439D01*
X121174000Y-91225500D01*
X121904000Y-91225500D01*
X121923113Y-91226439D01*
X121923113Y-91226439D01*
G37*
D11*
X121539000Y-91615500D03*
M02*
