G04 #@! TF.GenerationSoftware,KiCad,Pcbnew,(5.1.2)-2*
G04 #@! TF.CreationDate,2020-03-18T10:10:33+01:00*
G04 #@! TF.ProjectId,n64rgbv2.1,6e363472-6762-4763-922e-312e6b696361,rev?*
G04 #@! TF.SameCoordinates,Original*
G04 #@! TF.FileFunction,Soldermask,Bot*
G04 #@! TF.FilePolarity,Negative*
%FSLAX46Y46*%
G04 Gerber Fmt 4.6, Leading zero omitted, Abs format (unit mm)*
G04 Created by KiCad (PCBNEW (5.1.2)-2) date 2020-03-18 10:10:33*
%MOMM*%
%LPD*%
G04 APERTURE LIST*
%ADD10C,3.000000*%
%ADD11C,0.100000*%
%ADD12C,1.077000*%
%ADD13C,0.977000*%
%ADD14R,1.162000X0.752000*%
%ADD15O,1.802000X1.802000*%
%ADD16R,1.802000X1.802000*%
G04 APERTURE END LIST*
D10*
X150943440Y-117475000D02*
G75*
G03X150943440Y-117475000I-1500000J0D01*
G01*
D11*
G36*
X158634641Y-89166297D02*
G01*
X158660778Y-89170174D01*
X158686409Y-89176594D01*
X158711288Y-89185495D01*
X158735174Y-89196793D01*
X158757837Y-89210377D01*
X158779060Y-89226117D01*
X158798639Y-89243861D01*
X158816383Y-89263440D01*
X158832123Y-89284663D01*
X158845707Y-89307326D01*
X158857005Y-89331212D01*
X158865906Y-89356091D01*
X158872326Y-89381722D01*
X158876203Y-89407859D01*
X158877500Y-89434250D01*
X158877500Y-90397750D01*
X158876203Y-90424141D01*
X158872326Y-90450278D01*
X158865906Y-90475909D01*
X158857005Y-90500788D01*
X158845707Y-90524674D01*
X158832123Y-90547337D01*
X158816383Y-90568560D01*
X158798639Y-90588139D01*
X158779060Y-90605883D01*
X158757837Y-90621623D01*
X158735174Y-90635207D01*
X158711288Y-90646505D01*
X158686409Y-90655406D01*
X158660778Y-90661826D01*
X158634641Y-90665703D01*
X158608250Y-90667000D01*
X158069750Y-90667000D01*
X158043359Y-90665703D01*
X158017222Y-90661826D01*
X157991591Y-90655406D01*
X157966712Y-90646505D01*
X157942826Y-90635207D01*
X157920163Y-90621623D01*
X157898940Y-90605883D01*
X157879361Y-90588139D01*
X157861617Y-90568560D01*
X157845877Y-90547337D01*
X157832293Y-90524674D01*
X157820995Y-90500788D01*
X157812094Y-90475909D01*
X157805674Y-90450278D01*
X157801797Y-90424141D01*
X157800500Y-90397750D01*
X157800500Y-89434250D01*
X157801797Y-89407859D01*
X157805674Y-89381722D01*
X157812094Y-89356091D01*
X157820995Y-89331212D01*
X157832293Y-89307326D01*
X157845877Y-89284663D01*
X157861617Y-89263440D01*
X157879361Y-89243861D01*
X157898940Y-89226117D01*
X157920163Y-89210377D01*
X157942826Y-89196793D01*
X157966712Y-89185495D01*
X157991591Y-89176594D01*
X158017222Y-89170174D01*
X158043359Y-89166297D01*
X158069750Y-89165000D01*
X158608250Y-89165000D01*
X158634641Y-89166297D01*
X158634641Y-89166297D01*
G37*
D12*
X158339000Y-89916000D03*
D11*
G36*
X156759641Y-89166297D02*
G01*
X156785778Y-89170174D01*
X156811409Y-89176594D01*
X156836288Y-89185495D01*
X156860174Y-89196793D01*
X156882837Y-89210377D01*
X156904060Y-89226117D01*
X156923639Y-89243861D01*
X156941383Y-89263440D01*
X156957123Y-89284663D01*
X156970707Y-89307326D01*
X156982005Y-89331212D01*
X156990906Y-89356091D01*
X156997326Y-89381722D01*
X157001203Y-89407859D01*
X157002500Y-89434250D01*
X157002500Y-90397750D01*
X157001203Y-90424141D01*
X156997326Y-90450278D01*
X156990906Y-90475909D01*
X156982005Y-90500788D01*
X156970707Y-90524674D01*
X156957123Y-90547337D01*
X156941383Y-90568560D01*
X156923639Y-90588139D01*
X156904060Y-90605883D01*
X156882837Y-90621623D01*
X156860174Y-90635207D01*
X156836288Y-90646505D01*
X156811409Y-90655406D01*
X156785778Y-90661826D01*
X156759641Y-90665703D01*
X156733250Y-90667000D01*
X156194750Y-90667000D01*
X156168359Y-90665703D01*
X156142222Y-90661826D01*
X156116591Y-90655406D01*
X156091712Y-90646505D01*
X156067826Y-90635207D01*
X156045163Y-90621623D01*
X156023940Y-90605883D01*
X156004361Y-90588139D01*
X155986617Y-90568560D01*
X155970877Y-90547337D01*
X155957293Y-90524674D01*
X155945995Y-90500788D01*
X155937094Y-90475909D01*
X155930674Y-90450278D01*
X155926797Y-90424141D01*
X155925500Y-90397750D01*
X155925500Y-89434250D01*
X155926797Y-89407859D01*
X155930674Y-89381722D01*
X155937094Y-89356091D01*
X155945995Y-89331212D01*
X155957293Y-89307326D01*
X155970877Y-89284663D01*
X155986617Y-89263440D01*
X156004361Y-89243861D01*
X156023940Y-89226117D01*
X156045163Y-89210377D01*
X156067826Y-89196793D01*
X156091712Y-89185495D01*
X156116591Y-89176594D01*
X156142222Y-89170174D01*
X156168359Y-89166297D01*
X156194750Y-89165000D01*
X156733250Y-89165000D01*
X156759641Y-89166297D01*
X156759641Y-89166297D01*
G37*
D12*
X156464000Y-89916000D03*
D11*
G36*
X151347191Y-89358156D02*
G01*
X151370901Y-89361673D01*
X151394152Y-89367497D01*
X151416720Y-89375572D01*
X151438389Y-89385821D01*
X151458948Y-89398144D01*
X151478201Y-89412422D01*
X151495961Y-89428519D01*
X151512058Y-89446279D01*
X151526336Y-89465532D01*
X151538659Y-89486091D01*
X151548908Y-89507760D01*
X151556983Y-89530328D01*
X151562807Y-89553579D01*
X151566324Y-89577289D01*
X151567500Y-89601230D01*
X151567500Y-90164730D01*
X151566324Y-90188671D01*
X151562807Y-90212381D01*
X151556983Y-90235632D01*
X151548908Y-90258200D01*
X151538659Y-90279869D01*
X151526336Y-90300428D01*
X151512058Y-90319681D01*
X151495961Y-90337441D01*
X151478201Y-90353538D01*
X151458948Y-90367816D01*
X151438389Y-90380139D01*
X151416720Y-90390388D01*
X151394152Y-90398463D01*
X151370901Y-90404287D01*
X151347191Y-90407804D01*
X151323250Y-90408980D01*
X150834750Y-90408980D01*
X150810809Y-90407804D01*
X150787099Y-90404287D01*
X150763848Y-90398463D01*
X150741280Y-90390388D01*
X150719611Y-90380139D01*
X150699052Y-90367816D01*
X150679799Y-90353538D01*
X150662039Y-90337441D01*
X150645942Y-90319681D01*
X150631664Y-90300428D01*
X150619341Y-90279869D01*
X150609092Y-90258200D01*
X150601017Y-90235632D01*
X150595193Y-90212381D01*
X150591676Y-90188671D01*
X150590500Y-90164730D01*
X150590500Y-89601230D01*
X150591676Y-89577289D01*
X150595193Y-89553579D01*
X150601017Y-89530328D01*
X150609092Y-89507760D01*
X150619341Y-89486091D01*
X150631664Y-89465532D01*
X150645942Y-89446279D01*
X150662039Y-89428519D01*
X150679799Y-89412422D01*
X150699052Y-89398144D01*
X150719611Y-89385821D01*
X150741280Y-89375572D01*
X150763848Y-89367497D01*
X150787099Y-89361673D01*
X150810809Y-89358156D01*
X150834750Y-89356980D01*
X151323250Y-89356980D01*
X151347191Y-89358156D01*
X151347191Y-89358156D01*
G37*
D13*
X151079000Y-89882980D03*
D11*
G36*
X152922191Y-89358156D02*
G01*
X152945901Y-89361673D01*
X152969152Y-89367497D01*
X152991720Y-89375572D01*
X153013389Y-89385821D01*
X153033948Y-89398144D01*
X153053201Y-89412422D01*
X153070961Y-89428519D01*
X153087058Y-89446279D01*
X153101336Y-89465532D01*
X153113659Y-89486091D01*
X153123908Y-89507760D01*
X153131983Y-89530328D01*
X153137807Y-89553579D01*
X153141324Y-89577289D01*
X153142500Y-89601230D01*
X153142500Y-90164730D01*
X153141324Y-90188671D01*
X153137807Y-90212381D01*
X153131983Y-90235632D01*
X153123908Y-90258200D01*
X153113659Y-90279869D01*
X153101336Y-90300428D01*
X153087058Y-90319681D01*
X153070961Y-90337441D01*
X153053201Y-90353538D01*
X153033948Y-90367816D01*
X153013389Y-90380139D01*
X152991720Y-90390388D01*
X152969152Y-90398463D01*
X152945901Y-90404287D01*
X152922191Y-90407804D01*
X152898250Y-90408980D01*
X152409750Y-90408980D01*
X152385809Y-90407804D01*
X152362099Y-90404287D01*
X152338848Y-90398463D01*
X152316280Y-90390388D01*
X152294611Y-90380139D01*
X152274052Y-90367816D01*
X152254799Y-90353538D01*
X152237039Y-90337441D01*
X152220942Y-90319681D01*
X152206664Y-90300428D01*
X152194341Y-90279869D01*
X152184092Y-90258200D01*
X152176017Y-90235632D01*
X152170193Y-90212381D01*
X152166676Y-90188671D01*
X152165500Y-90164730D01*
X152165500Y-89601230D01*
X152166676Y-89577289D01*
X152170193Y-89553579D01*
X152176017Y-89530328D01*
X152184092Y-89507760D01*
X152194341Y-89486091D01*
X152206664Y-89465532D01*
X152220942Y-89446279D01*
X152237039Y-89428519D01*
X152254799Y-89412422D01*
X152274052Y-89398144D01*
X152294611Y-89385821D01*
X152316280Y-89375572D01*
X152338848Y-89367497D01*
X152362099Y-89361673D01*
X152385809Y-89358156D01*
X152409750Y-89356980D01*
X152898250Y-89356980D01*
X152922191Y-89358156D01*
X152922191Y-89358156D01*
G37*
D13*
X152654000Y-89882980D03*
D11*
G36*
X166129941Y-111213497D02*
G01*
X166156078Y-111217374D01*
X166181709Y-111223794D01*
X166206588Y-111232695D01*
X166230474Y-111243993D01*
X166253137Y-111257577D01*
X166274360Y-111273317D01*
X166293939Y-111291061D01*
X166311683Y-111310640D01*
X166327423Y-111331863D01*
X166341007Y-111354526D01*
X166352305Y-111378412D01*
X166361206Y-111403291D01*
X166367626Y-111428922D01*
X166371503Y-111455059D01*
X166372800Y-111481450D01*
X166372800Y-112444950D01*
X166371503Y-112471341D01*
X166367626Y-112497478D01*
X166361206Y-112523109D01*
X166352305Y-112547988D01*
X166341007Y-112571874D01*
X166327423Y-112594537D01*
X166311683Y-112615760D01*
X166293939Y-112635339D01*
X166274360Y-112653083D01*
X166253137Y-112668823D01*
X166230474Y-112682407D01*
X166206588Y-112693705D01*
X166181709Y-112702606D01*
X166156078Y-112709026D01*
X166129941Y-112712903D01*
X166103550Y-112714200D01*
X165565050Y-112714200D01*
X165538659Y-112712903D01*
X165512522Y-112709026D01*
X165486891Y-112702606D01*
X165462012Y-112693705D01*
X165438126Y-112682407D01*
X165415463Y-112668823D01*
X165394240Y-112653083D01*
X165374661Y-112635339D01*
X165356917Y-112615760D01*
X165341177Y-112594537D01*
X165327593Y-112571874D01*
X165316295Y-112547988D01*
X165307394Y-112523109D01*
X165300974Y-112497478D01*
X165297097Y-112471341D01*
X165295800Y-112444950D01*
X165295800Y-111481450D01*
X165297097Y-111455059D01*
X165300974Y-111428922D01*
X165307394Y-111403291D01*
X165316295Y-111378412D01*
X165327593Y-111354526D01*
X165341177Y-111331863D01*
X165356917Y-111310640D01*
X165374661Y-111291061D01*
X165394240Y-111273317D01*
X165415463Y-111257577D01*
X165438126Y-111243993D01*
X165462012Y-111232695D01*
X165486891Y-111223794D01*
X165512522Y-111217374D01*
X165538659Y-111213497D01*
X165565050Y-111212200D01*
X166103550Y-111212200D01*
X166129941Y-111213497D01*
X166129941Y-111213497D01*
G37*
D12*
X165834300Y-111963200D03*
D11*
G36*
X164254941Y-111213497D02*
G01*
X164281078Y-111217374D01*
X164306709Y-111223794D01*
X164331588Y-111232695D01*
X164355474Y-111243993D01*
X164378137Y-111257577D01*
X164399360Y-111273317D01*
X164418939Y-111291061D01*
X164436683Y-111310640D01*
X164452423Y-111331863D01*
X164466007Y-111354526D01*
X164477305Y-111378412D01*
X164486206Y-111403291D01*
X164492626Y-111428922D01*
X164496503Y-111455059D01*
X164497800Y-111481450D01*
X164497800Y-112444950D01*
X164496503Y-112471341D01*
X164492626Y-112497478D01*
X164486206Y-112523109D01*
X164477305Y-112547988D01*
X164466007Y-112571874D01*
X164452423Y-112594537D01*
X164436683Y-112615760D01*
X164418939Y-112635339D01*
X164399360Y-112653083D01*
X164378137Y-112668823D01*
X164355474Y-112682407D01*
X164331588Y-112693705D01*
X164306709Y-112702606D01*
X164281078Y-112709026D01*
X164254941Y-112712903D01*
X164228550Y-112714200D01*
X163690050Y-112714200D01*
X163663659Y-112712903D01*
X163637522Y-112709026D01*
X163611891Y-112702606D01*
X163587012Y-112693705D01*
X163563126Y-112682407D01*
X163540463Y-112668823D01*
X163519240Y-112653083D01*
X163499661Y-112635339D01*
X163481917Y-112615760D01*
X163466177Y-112594537D01*
X163452593Y-112571874D01*
X163441295Y-112547988D01*
X163432394Y-112523109D01*
X163425974Y-112497478D01*
X163422097Y-112471341D01*
X163420800Y-112444950D01*
X163420800Y-111481450D01*
X163422097Y-111455059D01*
X163425974Y-111428922D01*
X163432394Y-111403291D01*
X163441295Y-111378412D01*
X163452593Y-111354526D01*
X163466177Y-111331863D01*
X163481917Y-111310640D01*
X163499661Y-111291061D01*
X163519240Y-111273317D01*
X163540463Y-111257577D01*
X163563126Y-111243993D01*
X163587012Y-111232695D01*
X163611891Y-111223794D01*
X163637522Y-111217374D01*
X163663659Y-111213497D01*
X163690050Y-111212200D01*
X164228550Y-111212200D01*
X164254941Y-111213497D01*
X164254941Y-111213497D01*
G37*
D12*
X163959300Y-111963200D03*
D14*
X161813240Y-116464040D03*
X161813240Y-118364040D03*
X164013240Y-118364040D03*
X164013240Y-117414040D03*
X164013240Y-116464040D03*
X129280920Y-91643280D03*
X129280920Y-89743280D03*
X127080920Y-89743280D03*
X127080920Y-90693280D03*
X127080920Y-91643280D03*
D11*
G36*
X129325691Y-111743176D02*
G01*
X129349401Y-111746693D01*
X129372652Y-111752517D01*
X129395220Y-111760592D01*
X129416889Y-111770841D01*
X129437448Y-111783164D01*
X129456701Y-111797442D01*
X129474461Y-111813539D01*
X129490558Y-111831299D01*
X129504836Y-111850552D01*
X129517159Y-111871111D01*
X129527408Y-111892780D01*
X129535483Y-111915348D01*
X129541307Y-111938599D01*
X129544824Y-111962309D01*
X129546000Y-111986250D01*
X129546000Y-112549750D01*
X129544824Y-112573691D01*
X129541307Y-112597401D01*
X129535483Y-112620652D01*
X129527408Y-112643220D01*
X129517159Y-112664889D01*
X129504836Y-112685448D01*
X129490558Y-112704701D01*
X129474461Y-112722461D01*
X129456701Y-112738558D01*
X129437448Y-112752836D01*
X129416889Y-112765159D01*
X129395220Y-112775408D01*
X129372652Y-112783483D01*
X129349401Y-112789307D01*
X129325691Y-112792824D01*
X129301750Y-112794000D01*
X128813250Y-112794000D01*
X128789309Y-112792824D01*
X128765599Y-112789307D01*
X128742348Y-112783483D01*
X128719780Y-112775408D01*
X128698111Y-112765159D01*
X128677552Y-112752836D01*
X128658299Y-112738558D01*
X128640539Y-112722461D01*
X128624442Y-112704701D01*
X128610164Y-112685448D01*
X128597841Y-112664889D01*
X128587592Y-112643220D01*
X128579517Y-112620652D01*
X128573693Y-112597401D01*
X128570176Y-112573691D01*
X128569000Y-112549750D01*
X128569000Y-111986250D01*
X128570176Y-111962309D01*
X128573693Y-111938599D01*
X128579517Y-111915348D01*
X128587592Y-111892780D01*
X128597841Y-111871111D01*
X128610164Y-111850552D01*
X128624442Y-111831299D01*
X128640539Y-111813539D01*
X128658299Y-111797442D01*
X128677552Y-111783164D01*
X128698111Y-111770841D01*
X128719780Y-111760592D01*
X128742348Y-111752517D01*
X128765599Y-111746693D01*
X128789309Y-111743176D01*
X128813250Y-111742000D01*
X129301750Y-111742000D01*
X129325691Y-111743176D01*
X129325691Y-111743176D01*
G37*
D13*
X129057500Y-112268000D03*
D11*
G36*
X127750691Y-111743176D02*
G01*
X127774401Y-111746693D01*
X127797652Y-111752517D01*
X127820220Y-111760592D01*
X127841889Y-111770841D01*
X127862448Y-111783164D01*
X127881701Y-111797442D01*
X127899461Y-111813539D01*
X127915558Y-111831299D01*
X127929836Y-111850552D01*
X127942159Y-111871111D01*
X127952408Y-111892780D01*
X127960483Y-111915348D01*
X127966307Y-111938599D01*
X127969824Y-111962309D01*
X127971000Y-111986250D01*
X127971000Y-112549750D01*
X127969824Y-112573691D01*
X127966307Y-112597401D01*
X127960483Y-112620652D01*
X127952408Y-112643220D01*
X127942159Y-112664889D01*
X127929836Y-112685448D01*
X127915558Y-112704701D01*
X127899461Y-112722461D01*
X127881701Y-112738558D01*
X127862448Y-112752836D01*
X127841889Y-112765159D01*
X127820220Y-112775408D01*
X127797652Y-112783483D01*
X127774401Y-112789307D01*
X127750691Y-112792824D01*
X127726750Y-112794000D01*
X127238250Y-112794000D01*
X127214309Y-112792824D01*
X127190599Y-112789307D01*
X127167348Y-112783483D01*
X127144780Y-112775408D01*
X127123111Y-112765159D01*
X127102552Y-112752836D01*
X127083299Y-112738558D01*
X127065539Y-112722461D01*
X127049442Y-112704701D01*
X127035164Y-112685448D01*
X127022841Y-112664889D01*
X127012592Y-112643220D01*
X127004517Y-112620652D01*
X126998693Y-112597401D01*
X126995176Y-112573691D01*
X126994000Y-112549750D01*
X126994000Y-111986250D01*
X126995176Y-111962309D01*
X126998693Y-111938599D01*
X127004517Y-111915348D01*
X127012592Y-111892780D01*
X127022841Y-111871111D01*
X127035164Y-111850552D01*
X127049442Y-111831299D01*
X127065539Y-111813539D01*
X127083299Y-111797442D01*
X127102552Y-111783164D01*
X127123111Y-111770841D01*
X127144780Y-111760592D01*
X127167348Y-111752517D01*
X127190599Y-111746693D01*
X127214309Y-111743176D01*
X127238250Y-111742000D01*
X127726750Y-111742000D01*
X127750691Y-111743176D01*
X127750691Y-111743176D01*
G37*
D13*
X127482500Y-112268000D03*
D11*
G36*
X129325691Y-113267176D02*
G01*
X129349401Y-113270693D01*
X129372652Y-113276517D01*
X129395220Y-113284592D01*
X129416889Y-113294841D01*
X129437448Y-113307164D01*
X129456701Y-113321442D01*
X129474461Y-113337539D01*
X129490558Y-113355299D01*
X129504836Y-113374552D01*
X129517159Y-113395111D01*
X129527408Y-113416780D01*
X129535483Y-113439348D01*
X129541307Y-113462599D01*
X129544824Y-113486309D01*
X129546000Y-113510250D01*
X129546000Y-114073750D01*
X129544824Y-114097691D01*
X129541307Y-114121401D01*
X129535483Y-114144652D01*
X129527408Y-114167220D01*
X129517159Y-114188889D01*
X129504836Y-114209448D01*
X129490558Y-114228701D01*
X129474461Y-114246461D01*
X129456701Y-114262558D01*
X129437448Y-114276836D01*
X129416889Y-114289159D01*
X129395220Y-114299408D01*
X129372652Y-114307483D01*
X129349401Y-114313307D01*
X129325691Y-114316824D01*
X129301750Y-114318000D01*
X128813250Y-114318000D01*
X128789309Y-114316824D01*
X128765599Y-114313307D01*
X128742348Y-114307483D01*
X128719780Y-114299408D01*
X128698111Y-114289159D01*
X128677552Y-114276836D01*
X128658299Y-114262558D01*
X128640539Y-114246461D01*
X128624442Y-114228701D01*
X128610164Y-114209448D01*
X128597841Y-114188889D01*
X128587592Y-114167220D01*
X128579517Y-114144652D01*
X128573693Y-114121401D01*
X128570176Y-114097691D01*
X128569000Y-114073750D01*
X128569000Y-113510250D01*
X128570176Y-113486309D01*
X128573693Y-113462599D01*
X128579517Y-113439348D01*
X128587592Y-113416780D01*
X128597841Y-113395111D01*
X128610164Y-113374552D01*
X128624442Y-113355299D01*
X128640539Y-113337539D01*
X128658299Y-113321442D01*
X128677552Y-113307164D01*
X128698111Y-113294841D01*
X128719780Y-113284592D01*
X128742348Y-113276517D01*
X128765599Y-113270693D01*
X128789309Y-113267176D01*
X128813250Y-113266000D01*
X129301750Y-113266000D01*
X129325691Y-113267176D01*
X129325691Y-113267176D01*
G37*
D13*
X129057500Y-113792000D03*
D11*
G36*
X127750691Y-113267176D02*
G01*
X127774401Y-113270693D01*
X127797652Y-113276517D01*
X127820220Y-113284592D01*
X127841889Y-113294841D01*
X127862448Y-113307164D01*
X127881701Y-113321442D01*
X127899461Y-113337539D01*
X127915558Y-113355299D01*
X127929836Y-113374552D01*
X127942159Y-113395111D01*
X127952408Y-113416780D01*
X127960483Y-113439348D01*
X127966307Y-113462599D01*
X127969824Y-113486309D01*
X127971000Y-113510250D01*
X127971000Y-114073750D01*
X127969824Y-114097691D01*
X127966307Y-114121401D01*
X127960483Y-114144652D01*
X127952408Y-114167220D01*
X127942159Y-114188889D01*
X127929836Y-114209448D01*
X127915558Y-114228701D01*
X127899461Y-114246461D01*
X127881701Y-114262558D01*
X127862448Y-114276836D01*
X127841889Y-114289159D01*
X127820220Y-114299408D01*
X127797652Y-114307483D01*
X127774401Y-114313307D01*
X127750691Y-114316824D01*
X127726750Y-114318000D01*
X127238250Y-114318000D01*
X127214309Y-114316824D01*
X127190599Y-114313307D01*
X127167348Y-114307483D01*
X127144780Y-114299408D01*
X127123111Y-114289159D01*
X127102552Y-114276836D01*
X127083299Y-114262558D01*
X127065539Y-114246461D01*
X127049442Y-114228701D01*
X127035164Y-114209448D01*
X127022841Y-114188889D01*
X127012592Y-114167220D01*
X127004517Y-114144652D01*
X126998693Y-114121401D01*
X126995176Y-114097691D01*
X126994000Y-114073750D01*
X126994000Y-113510250D01*
X126995176Y-113486309D01*
X126998693Y-113462599D01*
X127004517Y-113439348D01*
X127012592Y-113416780D01*
X127022841Y-113395111D01*
X127035164Y-113374552D01*
X127049442Y-113355299D01*
X127065539Y-113337539D01*
X127083299Y-113321442D01*
X127102552Y-113307164D01*
X127123111Y-113294841D01*
X127144780Y-113284592D01*
X127167348Y-113276517D01*
X127190599Y-113270693D01*
X127214309Y-113267176D01*
X127238250Y-113266000D01*
X127726750Y-113266000D01*
X127750691Y-113267176D01*
X127750691Y-113267176D01*
G37*
D13*
X127482500Y-113792000D03*
D11*
G36*
X120816691Y-118474176D02*
G01*
X120840401Y-118477693D01*
X120863652Y-118483517D01*
X120886220Y-118491592D01*
X120907889Y-118501841D01*
X120928448Y-118514164D01*
X120947701Y-118528442D01*
X120965461Y-118544539D01*
X120981558Y-118562299D01*
X120995836Y-118581552D01*
X121008159Y-118602111D01*
X121018408Y-118623780D01*
X121026483Y-118646348D01*
X121032307Y-118669599D01*
X121035824Y-118693309D01*
X121037000Y-118717250D01*
X121037000Y-119280750D01*
X121035824Y-119304691D01*
X121032307Y-119328401D01*
X121026483Y-119351652D01*
X121018408Y-119374220D01*
X121008159Y-119395889D01*
X120995836Y-119416448D01*
X120981558Y-119435701D01*
X120965461Y-119453461D01*
X120947701Y-119469558D01*
X120928448Y-119483836D01*
X120907889Y-119496159D01*
X120886220Y-119506408D01*
X120863652Y-119514483D01*
X120840401Y-119520307D01*
X120816691Y-119523824D01*
X120792750Y-119525000D01*
X120304250Y-119525000D01*
X120280309Y-119523824D01*
X120256599Y-119520307D01*
X120233348Y-119514483D01*
X120210780Y-119506408D01*
X120189111Y-119496159D01*
X120168552Y-119483836D01*
X120149299Y-119469558D01*
X120131539Y-119453461D01*
X120115442Y-119435701D01*
X120101164Y-119416448D01*
X120088841Y-119395889D01*
X120078592Y-119374220D01*
X120070517Y-119351652D01*
X120064693Y-119328401D01*
X120061176Y-119304691D01*
X120060000Y-119280750D01*
X120060000Y-118717250D01*
X120061176Y-118693309D01*
X120064693Y-118669599D01*
X120070517Y-118646348D01*
X120078592Y-118623780D01*
X120088841Y-118602111D01*
X120101164Y-118581552D01*
X120115442Y-118562299D01*
X120131539Y-118544539D01*
X120149299Y-118528442D01*
X120168552Y-118514164D01*
X120189111Y-118501841D01*
X120210780Y-118491592D01*
X120233348Y-118483517D01*
X120256599Y-118477693D01*
X120280309Y-118474176D01*
X120304250Y-118473000D01*
X120792750Y-118473000D01*
X120816691Y-118474176D01*
X120816691Y-118474176D01*
G37*
D13*
X120548500Y-118999000D03*
D11*
G36*
X119241691Y-118474176D02*
G01*
X119265401Y-118477693D01*
X119288652Y-118483517D01*
X119311220Y-118491592D01*
X119332889Y-118501841D01*
X119353448Y-118514164D01*
X119372701Y-118528442D01*
X119390461Y-118544539D01*
X119406558Y-118562299D01*
X119420836Y-118581552D01*
X119433159Y-118602111D01*
X119443408Y-118623780D01*
X119451483Y-118646348D01*
X119457307Y-118669599D01*
X119460824Y-118693309D01*
X119462000Y-118717250D01*
X119462000Y-119280750D01*
X119460824Y-119304691D01*
X119457307Y-119328401D01*
X119451483Y-119351652D01*
X119443408Y-119374220D01*
X119433159Y-119395889D01*
X119420836Y-119416448D01*
X119406558Y-119435701D01*
X119390461Y-119453461D01*
X119372701Y-119469558D01*
X119353448Y-119483836D01*
X119332889Y-119496159D01*
X119311220Y-119506408D01*
X119288652Y-119514483D01*
X119265401Y-119520307D01*
X119241691Y-119523824D01*
X119217750Y-119525000D01*
X118729250Y-119525000D01*
X118705309Y-119523824D01*
X118681599Y-119520307D01*
X118658348Y-119514483D01*
X118635780Y-119506408D01*
X118614111Y-119496159D01*
X118593552Y-119483836D01*
X118574299Y-119469558D01*
X118556539Y-119453461D01*
X118540442Y-119435701D01*
X118526164Y-119416448D01*
X118513841Y-119395889D01*
X118503592Y-119374220D01*
X118495517Y-119351652D01*
X118489693Y-119328401D01*
X118486176Y-119304691D01*
X118485000Y-119280750D01*
X118485000Y-118717250D01*
X118486176Y-118693309D01*
X118489693Y-118669599D01*
X118495517Y-118646348D01*
X118503592Y-118623780D01*
X118513841Y-118602111D01*
X118526164Y-118581552D01*
X118540442Y-118562299D01*
X118556539Y-118544539D01*
X118574299Y-118528442D01*
X118593552Y-118514164D01*
X118614111Y-118501841D01*
X118635780Y-118491592D01*
X118658348Y-118483517D01*
X118681599Y-118477693D01*
X118705309Y-118474176D01*
X118729250Y-118473000D01*
X119217750Y-118473000D01*
X119241691Y-118474176D01*
X119241691Y-118474176D01*
G37*
D13*
X118973500Y-118999000D03*
D15*
X133350000Y-116459000D03*
X133350000Y-118999000D03*
X130810000Y-116459000D03*
X130810000Y-118999000D03*
X128270000Y-116459000D03*
X128270000Y-118999000D03*
X125730000Y-116459000D03*
X125730000Y-118999000D03*
X123190000Y-116459000D03*
D16*
X123190000Y-118999000D03*
D11*
G36*
X140894691Y-111526676D02*
G01*
X140918401Y-111530193D01*
X140941652Y-111536017D01*
X140964220Y-111544092D01*
X140985889Y-111554341D01*
X141006448Y-111566664D01*
X141025701Y-111580942D01*
X141043461Y-111597039D01*
X141059558Y-111614799D01*
X141073836Y-111634052D01*
X141086159Y-111654611D01*
X141096408Y-111676280D01*
X141104483Y-111698848D01*
X141110307Y-111722099D01*
X141113824Y-111745809D01*
X141115000Y-111769750D01*
X141115000Y-112258250D01*
X141113824Y-112282191D01*
X141110307Y-112305901D01*
X141104483Y-112329152D01*
X141096408Y-112351720D01*
X141086159Y-112373389D01*
X141073836Y-112393948D01*
X141059558Y-112413201D01*
X141043461Y-112430961D01*
X141025701Y-112447058D01*
X141006448Y-112461336D01*
X140985889Y-112473659D01*
X140964220Y-112483908D01*
X140941652Y-112491983D01*
X140918401Y-112497807D01*
X140894691Y-112501324D01*
X140870750Y-112502500D01*
X140307250Y-112502500D01*
X140283309Y-112501324D01*
X140259599Y-112497807D01*
X140236348Y-112491983D01*
X140213780Y-112483908D01*
X140192111Y-112473659D01*
X140171552Y-112461336D01*
X140152299Y-112447058D01*
X140134539Y-112430961D01*
X140118442Y-112413201D01*
X140104164Y-112393948D01*
X140091841Y-112373389D01*
X140081592Y-112351720D01*
X140073517Y-112329152D01*
X140067693Y-112305901D01*
X140064176Y-112282191D01*
X140063000Y-112258250D01*
X140063000Y-111769750D01*
X140064176Y-111745809D01*
X140067693Y-111722099D01*
X140073517Y-111698848D01*
X140081592Y-111676280D01*
X140091841Y-111654611D01*
X140104164Y-111634052D01*
X140118442Y-111614799D01*
X140134539Y-111597039D01*
X140152299Y-111580942D01*
X140171552Y-111566664D01*
X140192111Y-111554341D01*
X140213780Y-111544092D01*
X140236348Y-111536017D01*
X140259599Y-111530193D01*
X140283309Y-111526676D01*
X140307250Y-111525500D01*
X140870750Y-111525500D01*
X140894691Y-111526676D01*
X140894691Y-111526676D01*
G37*
D13*
X140589000Y-112014000D03*
D11*
G36*
X140894691Y-109951676D02*
G01*
X140918401Y-109955193D01*
X140941652Y-109961017D01*
X140964220Y-109969092D01*
X140985889Y-109979341D01*
X141006448Y-109991664D01*
X141025701Y-110005942D01*
X141043461Y-110022039D01*
X141059558Y-110039799D01*
X141073836Y-110059052D01*
X141086159Y-110079611D01*
X141096408Y-110101280D01*
X141104483Y-110123848D01*
X141110307Y-110147099D01*
X141113824Y-110170809D01*
X141115000Y-110194750D01*
X141115000Y-110683250D01*
X141113824Y-110707191D01*
X141110307Y-110730901D01*
X141104483Y-110754152D01*
X141096408Y-110776720D01*
X141086159Y-110798389D01*
X141073836Y-110818948D01*
X141059558Y-110838201D01*
X141043461Y-110855961D01*
X141025701Y-110872058D01*
X141006448Y-110886336D01*
X140985889Y-110898659D01*
X140964220Y-110908908D01*
X140941652Y-110916983D01*
X140918401Y-110922807D01*
X140894691Y-110926324D01*
X140870750Y-110927500D01*
X140307250Y-110927500D01*
X140283309Y-110926324D01*
X140259599Y-110922807D01*
X140236348Y-110916983D01*
X140213780Y-110908908D01*
X140192111Y-110898659D01*
X140171552Y-110886336D01*
X140152299Y-110872058D01*
X140134539Y-110855961D01*
X140118442Y-110838201D01*
X140104164Y-110818948D01*
X140091841Y-110798389D01*
X140081592Y-110776720D01*
X140073517Y-110754152D01*
X140067693Y-110730901D01*
X140064176Y-110707191D01*
X140063000Y-110683250D01*
X140063000Y-110194750D01*
X140064176Y-110170809D01*
X140067693Y-110147099D01*
X140073517Y-110123848D01*
X140081592Y-110101280D01*
X140091841Y-110079611D01*
X140104164Y-110059052D01*
X140118442Y-110039799D01*
X140134539Y-110022039D01*
X140152299Y-110005942D01*
X140171552Y-109991664D01*
X140192111Y-109979341D01*
X140213780Y-109969092D01*
X140236348Y-109961017D01*
X140259599Y-109955193D01*
X140283309Y-109951676D01*
X140307250Y-109950500D01*
X140870750Y-109950500D01*
X140894691Y-109951676D01*
X140894691Y-109951676D01*
G37*
D13*
X140589000Y-110439000D03*
D11*
G36*
X127974111Y-93434856D02*
G01*
X127997821Y-93438373D01*
X128021072Y-93444197D01*
X128043640Y-93452272D01*
X128065309Y-93462521D01*
X128085868Y-93474844D01*
X128105121Y-93489122D01*
X128122881Y-93505219D01*
X128138978Y-93522979D01*
X128153256Y-93542232D01*
X128165579Y-93562791D01*
X128175828Y-93584460D01*
X128183903Y-93607028D01*
X128189727Y-93630279D01*
X128193244Y-93653989D01*
X128194420Y-93677930D01*
X128194420Y-94241430D01*
X128193244Y-94265371D01*
X128189727Y-94289081D01*
X128183903Y-94312332D01*
X128175828Y-94334900D01*
X128165579Y-94356569D01*
X128153256Y-94377128D01*
X128138978Y-94396381D01*
X128122881Y-94414141D01*
X128105121Y-94430238D01*
X128085868Y-94444516D01*
X128065309Y-94456839D01*
X128043640Y-94467088D01*
X128021072Y-94475163D01*
X127997821Y-94480987D01*
X127974111Y-94484504D01*
X127950170Y-94485680D01*
X127461670Y-94485680D01*
X127437729Y-94484504D01*
X127414019Y-94480987D01*
X127390768Y-94475163D01*
X127368200Y-94467088D01*
X127346531Y-94456839D01*
X127325972Y-94444516D01*
X127306719Y-94430238D01*
X127288959Y-94414141D01*
X127272862Y-94396381D01*
X127258584Y-94377128D01*
X127246261Y-94356569D01*
X127236012Y-94334900D01*
X127227937Y-94312332D01*
X127222113Y-94289081D01*
X127218596Y-94265371D01*
X127217420Y-94241430D01*
X127217420Y-93677930D01*
X127218596Y-93653989D01*
X127222113Y-93630279D01*
X127227937Y-93607028D01*
X127236012Y-93584460D01*
X127246261Y-93562791D01*
X127258584Y-93542232D01*
X127272862Y-93522979D01*
X127288959Y-93505219D01*
X127306719Y-93489122D01*
X127325972Y-93474844D01*
X127346531Y-93462521D01*
X127368200Y-93452272D01*
X127390768Y-93444197D01*
X127414019Y-93438373D01*
X127437729Y-93434856D01*
X127461670Y-93433680D01*
X127950170Y-93433680D01*
X127974111Y-93434856D01*
X127974111Y-93434856D01*
G37*
D13*
X127705920Y-93959680D03*
D11*
G36*
X129549111Y-93434856D02*
G01*
X129572821Y-93438373D01*
X129596072Y-93444197D01*
X129618640Y-93452272D01*
X129640309Y-93462521D01*
X129660868Y-93474844D01*
X129680121Y-93489122D01*
X129697881Y-93505219D01*
X129713978Y-93522979D01*
X129728256Y-93542232D01*
X129740579Y-93562791D01*
X129750828Y-93584460D01*
X129758903Y-93607028D01*
X129764727Y-93630279D01*
X129768244Y-93653989D01*
X129769420Y-93677930D01*
X129769420Y-94241430D01*
X129768244Y-94265371D01*
X129764727Y-94289081D01*
X129758903Y-94312332D01*
X129750828Y-94334900D01*
X129740579Y-94356569D01*
X129728256Y-94377128D01*
X129713978Y-94396381D01*
X129697881Y-94414141D01*
X129680121Y-94430238D01*
X129660868Y-94444516D01*
X129640309Y-94456839D01*
X129618640Y-94467088D01*
X129596072Y-94475163D01*
X129572821Y-94480987D01*
X129549111Y-94484504D01*
X129525170Y-94485680D01*
X129036670Y-94485680D01*
X129012729Y-94484504D01*
X128989019Y-94480987D01*
X128965768Y-94475163D01*
X128943200Y-94467088D01*
X128921531Y-94456839D01*
X128900972Y-94444516D01*
X128881719Y-94430238D01*
X128863959Y-94414141D01*
X128847862Y-94396381D01*
X128833584Y-94377128D01*
X128821261Y-94356569D01*
X128811012Y-94334900D01*
X128802937Y-94312332D01*
X128797113Y-94289081D01*
X128793596Y-94265371D01*
X128792420Y-94241430D01*
X128792420Y-93677930D01*
X128793596Y-93653989D01*
X128797113Y-93630279D01*
X128802937Y-93607028D01*
X128811012Y-93584460D01*
X128821261Y-93562791D01*
X128833584Y-93542232D01*
X128847862Y-93522979D01*
X128863959Y-93505219D01*
X128881719Y-93489122D01*
X128900972Y-93474844D01*
X128921531Y-93462521D01*
X128943200Y-93452272D01*
X128965768Y-93444197D01*
X128989019Y-93438373D01*
X129012729Y-93434856D01*
X129036670Y-93433680D01*
X129525170Y-93433680D01*
X129549111Y-93434856D01*
X129549111Y-93434856D01*
G37*
D13*
X129280920Y-93959680D03*
D11*
G36*
X159817691Y-117714216D02*
G01*
X159841401Y-117717733D01*
X159864652Y-117723557D01*
X159887220Y-117731632D01*
X159908889Y-117741881D01*
X159929448Y-117754204D01*
X159948701Y-117768482D01*
X159966461Y-117784579D01*
X159982558Y-117802339D01*
X159996836Y-117821592D01*
X160009159Y-117842151D01*
X160019408Y-117863820D01*
X160027483Y-117886388D01*
X160033307Y-117909639D01*
X160036824Y-117933349D01*
X160038000Y-117957290D01*
X160038000Y-118445790D01*
X160036824Y-118469731D01*
X160033307Y-118493441D01*
X160027483Y-118516692D01*
X160019408Y-118539260D01*
X160009159Y-118560929D01*
X159996836Y-118581488D01*
X159982558Y-118600741D01*
X159966461Y-118618501D01*
X159948701Y-118634598D01*
X159929448Y-118648876D01*
X159908889Y-118661199D01*
X159887220Y-118671448D01*
X159864652Y-118679523D01*
X159841401Y-118685347D01*
X159817691Y-118688864D01*
X159793750Y-118690040D01*
X159230250Y-118690040D01*
X159206309Y-118688864D01*
X159182599Y-118685347D01*
X159159348Y-118679523D01*
X159136780Y-118671448D01*
X159115111Y-118661199D01*
X159094552Y-118648876D01*
X159075299Y-118634598D01*
X159057539Y-118618501D01*
X159041442Y-118600741D01*
X159027164Y-118581488D01*
X159014841Y-118560929D01*
X159004592Y-118539260D01*
X158996517Y-118516692D01*
X158990693Y-118493441D01*
X158987176Y-118469731D01*
X158986000Y-118445790D01*
X158986000Y-117957290D01*
X158987176Y-117933349D01*
X158990693Y-117909639D01*
X158996517Y-117886388D01*
X159004592Y-117863820D01*
X159014841Y-117842151D01*
X159027164Y-117821592D01*
X159041442Y-117802339D01*
X159057539Y-117784579D01*
X159075299Y-117768482D01*
X159094552Y-117754204D01*
X159115111Y-117741881D01*
X159136780Y-117731632D01*
X159159348Y-117723557D01*
X159182599Y-117717733D01*
X159206309Y-117714216D01*
X159230250Y-117713040D01*
X159793750Y-117713040D01*
X159817691Y-117714216D01*
X159817691Y-117714216D01*
G37*
D13*
X159512000Y-118201540D03*
D11*
G36*
X159817691Y-116139216D02*
G01*
X159841401Y-116142733D01*
X159864652Y-116148557D01*
X159887220Y-116156632D01*
X159908889Y-116166881D01*
X159929448Y-116179204D01*
X159948701Y-116193482D01*
X159966461Y-116209579D01*
X159982558Y-116227339D01*
X159996836Y-116246592D01*
X160009159Y-116267151D01*
X160019408Y-116288820D01*
X160027483Y-116311388D01*
X160033307Y-116334639D01*
X160036824Y-116358349D01*
X160038000Y-116382290D01*
X160038000Y-116870790D01*
X160036824Y-116894731D01*
X160033307Y-116918441D01*
X160027483Y-116941692D01*
X160019408Y-116964260D01*
X160009159Y-116985929D01*
X159996836Y-117006488D01*
X159982558Y-117025741D01*
X159966461Y-117043501D01*
X159948701Y-117059598D01*
X159929448Y-117073876D01*
X159908889Y-117086199D01*
X159887220Y-117096448D01*
X159864652Y-117104523D01*
X159841401Y-117110347D01*
X159817691Y-117113864D01*
X159793750Y-117115040D01*
X159230250Y-117115040D01*
X159206309Y-117113864D01*
X159182599Y-117110347D01*
X159159348Y-117104523D01*
X159136780Y-117096448D01*
X159115111Y-117086199D01*
X159094552Y-117073876D01*
X159075299Y-117059598D01*
X159057539Y-117043501D01*
X159041442Y-117025741D01*
X159027164Y-117006488D01*
X159014841Y-116985929D01*
X159004592Y-116964260D01*
X158996517Y-116941692D01*
X158990693Y-116918441D01*
X158987176Y-116894731D01*
X158986000Y-116870790D01*
X158986000Y-116382290D01*
X158987176Y-116358349D01*
X158990693Y-116334639D01*
X158996517Y-116311388D01*
X159004592Y-116288820D01*
X159014841Y-116267151D01*
X159027164Y-116246592D01*
X159041442Y-116227339D01*
X159057539Y-116209579D01*
X159075299Y-116193482D01*
X159094552Y-116179204D01*
X159115111Y-116166881D01*
X159136780Y-116156632D01*
X159159348Y-116148557D01*
X159182599Y-116142733D01*
X159206309Y-116139216D01*
X159230250Y-116138040D01*
X159793750Y-116138040D01*
X159817691Y-116139216D01*
X159817691Y-116139216D01*
G37*
D13*
X159512000Y-116626540D03*
D11*
G36*
X166690931Y-117688716D02*
G01*
X166714641Y-117692233D01*
X166737892Y-117698057D01*
X166760460Y-117706132D01*
X166782129Y-117716381D01*
X166802688Y-117728704D01*
X166821941Y-117742982D01*
X166839701Y-117759079D01*
X166855798Y-117776839D01*
X166870076Y-117796092D01*
X166882399Y-117816651D01*
X166892648Y-117838320D01*
X166900723Y-117860888D01*
X166906547Y-117884139D01*
X166910064Y-117907849D01*
X166911240Y-117931790D01*
X166911240Y-118420290D01*
X166910064Y-118444231D01*
X166906547Y-118467941D01*
X166900723Y-118491192D01*
X166892648Y-118513760D01*
X166882399Y-118535429D01*
X166870076Y-118555988D01*
X166855798Y-118575241D01*
X166839701Y-118593001D01*
X166821941Y-118609098D01*
X166802688Y-118623376D01*
X166782129Y-118635699D01*
X166760460Y-118645948D01*
X166737892Y-118654023D01*
X166714641Y-118659847D01*
X166690931Y-118663364D01*
X166666990Y-118664540D01*
X166103490Y-118664540D01*
X166079549Y-118663364D01*
X166055839Y-118659847D01*
X166032588Y-118654023D01*
X166010020Y-118645948D01*
X165988351Y-118635699D01*
X165967792Y-118623376D01*
X165948539Y-118609098D01*
X165930779Y-118593001D01*
X165914682Y-118575241D01*
X165900404Y-118555988D01*
X165888081Y-118535429D01*
X165877832Y-118513760D01*
X165869757Y-118491192D01*
X165863933Y-118467941D01*
X165860416Y-118444231D01*
X165859240Y-118420290D01*
X165859240Y-117931790D01*
X165860416Y-117907849D01*
X165863933Y-117884139D01*
X165869757Y-117860888D01*
X165877832Y-117838320D01*
X165888081Y-117816651D01*
X165900404Y-117796092D01*
X165914682Y-117776839D01*
X165930779Y-117759079D01*
X165948539Y-117742982D01*
X165967792Y-117728704D01*
X165988351Y-117716381D01*
X166010020Y-117706132D01*
X166032588Y-117698057D01*
X166055839Y-117692233D01*
X166079549Y-117688716D01*
X166103490Y-117687540D01*
X166666990Y-117687540D01*
X166690931Y-117688716D01*
X166690931Y-117688716D01*
G37*
D13*
X166385240Y-118176040D03*
D11*
G36*
X166690931Y-116113716D02*
G01*
X166714641Y-116117233D01*
X166737892Y-116123057D01*
X166760460Y-116131132D01*
X166782129Y-116141381D01*
X166802688Y-116153704D01*
X166821941Y-116167982D01*
X166839701Y-116184079D01*
X166855798Y-116201839D01*
X166870076Y-116221092D01*
X166882399Y-116241651D01*
X166892648Y-116263320D01*
X166900723Y-116285888D01*
X166906547Y-116309139D01*
X166910064Y-116332849D01*
X166911240Y-116356790D01*
X166911240Y-116845290D01*
X166910064Y-116869231D01*
X166906547Y-116892941D01*
X166900723Y-116916192D01*
X166892648Y-116938760D01*
X166882399Y-116960429D01*
X166870076Y-116980988D01*
X166855798Y-117000241D01*
X166839701Y-117018001D01*
X166821941Y-117034098D01*
X166802688Y-117048376D01*
X166782129Y-117060699D01*
X166760460Y-117070948D01*
X166737892Y-117079023D01*
X166714641Y-117084847D01*
X166690931Y-117088364D01*
X166666990Y-117089540D01*
X166103490Y-117089540D01*
X166079549Y-117088364D01*
X166055839Y-117084847D01*
X166032588Y-117079023D01*
X166010020Y-117070948D01*
X165988351Y-117060699D01*
X165967792Y-117048376D01*
X165948539Y-117034098D01*
X165930779Y-117018001D01*
X165914682Y-117000241D01*
X165900404Y-116980988D01*
X165888081Y-116960429D01*
X165877832Y-116938760D01*
X165869757Y-116916192D01*
X165863933Y-116892941D01*
X165860416Y-116869231D01*
X165859240Y-116845290D01*
X165859240Y-116356790D01*
X165860416Y-116332849D01*
X165863933Y-116309139D01*
X165869757Y-116285888D01*
X165877832Y-116263320D01*
X165888081Y-116241651D01*
X165900404Y-116221092D01*
X165914682Y-116201839D01*
X165930779Y-116184079D01*
X165948539Y-116167982D01*
X165967792Y-116153704D01*
X165988351Y-116141381D01*
X166010020Y-116131132D01*
X166032588Y-116123057D01*
X166055839Y-116117233D01*
X166079549Y-116113716D01*
X166103490Y-116112540D01*
X166666990Y-116112540D01*
X166690931Y-116113716D01*
X166690931Y-116113716D01*
G37*
D13*
X166385240Y-116601040D03*
D11*
G36*
X132060571Y-89570716D02*
G01*
X132084281Y-89574233D01*
X132107532Y-89580057D01*
X132130100Y-89588132D01*
X132151769Y-89598381D01*
X132172328Y-89610704D01*
X132191581Y-89624982D01*
X132209341Y-89641079D01*
X132225438Y-89658839D01*
X132239716Y-89678092D01*
X132252039Y-89698651D01*
X132262288Y-89720320D01*
X132270363Y-89742888D01*
X132276187Y-89766139D01*
X132279704Y-89789849D01*
X132280880Y-89813790D01*
X132280880Y-90302290D01*
X132279704Y-90326231D01*
X132276187Y-90349941D01*
X132270363Y-90373192D01*
X132262288Y-90395760D01*
X132252039Y-90417429D01*
X132239716Y-90437988D01*
X132225438Y-90457241D01*
X132209341Y-90475001D01*
X132191581Y-90491098D01*
X132172328Y-90505376D01*
X132151769Y-90517699D01*
X132130100Y-90527948D01*
X132107532Y-90536023D01*
X132084281Y-90541847D01*
X132060571Y-90545364D01*
X132036630Y-90546540D01*
X131473130Y-90546540D01*
X131449189Y-90545364D01*
X131425479Y-90541847D01*
X131402228Y-90536023D01*
X131379660Y-90527948D01*
X131357991Y-90517699D01*
X131337432Y-90505376D01*
X131318179Y-90491098D01*
X131300419Y-90475001D01*
X131284322Y-90457241D01*
X131270044Y-90437988D01*
X131257721Y-90417429D01*
X131247472Y-90395760D01*
X131239397Y-90373192D01*
X131233573Y-90349941D01*
X131230056Y-90326231D01*
X131228880Y-90302290D01*
X131228880Y-89813790D01*
X131230056Y-89789849D01*
X131233573Y-89766139D01*
X131239397Y-89742888D01*
X131247472Y-89720320D01*
X131257721Y-89698651D01*
X131270044Y-89678092D01*
X131284322Y-89658839D01*
X131300419Y-89641079D01*
X131318179Y-89624982D01*
X131337432Y-89610704D01*
X131357991Y-89598381D01*
X131379660Y-89588132D01*
X131402228Y-89580057D01*
X131425479Y-89574233D01*
X131449189Y-89570716D01*
X131473130Y-89569540D01*
X132036630Y-89569540D01*
X132060571Y-89570716D01*
X132060571Y-89570716D01*
G37*
D13*
X131754880Y-90058040D03*
D11*
G36*
X132060571Y-91145716D02*
G01*
X132084281Y-91149233D01*
X132107532Y-91155057D01*
X132130100Y-91163132D01*
X132151769Y-91173381D01*
X132172328Y-91185704D01*
X132191581Y-91199982D01*
X132209341Y-91216079D01*
X132225438Y-91233839D01*
X132239716Y-91253092D01*
X132252039Y-91273651D01*
X132262288Y-91295320D01*
X132270363Y-91317888D01*
X132276187Y-91341139D01*
X132279704Y-91364849D01*
X132280880Y-91388790D01*
X132280880Y-91877290D01*
X132279704Y-91901231D01*
X132276187Y-91924941D01*
X132270363Y-91948192D01*
X132262288Y-91970760D01*
X132252039Y-91992429D01*
X132239716Y-92012988D01*
X132225438Y-92032241D01*
X132209341Y-92050001D01*
X132191581Y-92066098D01*
X132172328Y-92080376D01*
X132151769Y-92092699D01*
X132130100Y-92102948D01*
X132107532Y-92111023D01*
X132084281Y-92116847D01*
X132060571Y-92120364D01*
X132036630Y-92121540D01*
X131473130Y-92121540D01*
X131449189Y-92120364D01*
X131425479Y-92116847D01*
X131402228Y-92111023D01*
X131379660Y-92102948D01*
X131357991Y-92092699D01*
X131337432Y-92080376D01*
X131318179Y-92066098D01*
X131300419Y-92050001D01*
X131284322Y-92032241D01*
X131270044Y-92012988D01*
X131257721Y-91992429D01*
X131247472Y-91970760D01*
X131239397Y-91948192D01*
X131233573Y-91924941D01*
X131230056Y-91901231D01*
X131228880Y-91877290D01*
X131228880Y-91388790D01*
X131230056Y-91364849D01*
X131233573Y-91341139D01*
X131239397Y-91317888D01*
X131247472Y-91295320D01*
X131257721Y-91273651D01*
X131270044Y-91253092D01*
X131284322Y-91233839D01*
X131300419Y-91216079D01*
X131318179Y-91199982D01*
X131337432Y-91185704D01*
X131357991Y-91173381D01*
X131379660Y-91163132D01*
X131402228Y-91155057D01*
X131425479Y-91149233D01*
X131449189Y-91145716D01*
X131473130Y-91144540D01*
X132036630Y-91144540D01*
X132060571Y-91145716D01*
X132060571Y-91145716D01*
G37*
D13*
X131754880Y-91633040D03*
D11*
G36*
X124765691Y-89433656D02*
G01*
X124789401Y-89437173D01*
X124812652Y-89442997D01*
X124835220Y-89451072D01*
X124856889Y-89461321D01*
X124877448Y-89473644D01*
X124896701Y-89487922D01*
X124914461Y-89504019D01*
X124930558Y-89521779D01*
X124944836Y-89541032D01*
X124957159Y-89561591D01*
X124967408Y-89583260D01*
X124975483Y-89605828D01*
X124981307Y-89629079D01*
X124984824Y-89652789D01*
X124986000Y-89676730D01*
X124986000Y-90165230D01*
X124984824Y-90189171D01*
X124981307Y-90212881D01*
X124975483Y-90236132D01*
X124967408Y-90258700D01*
X124957159Y-90280369D01*
X124944836Y-90300928D01*
X124930558Y-90320181D01*
X124914461Y-90337941D01*
X124896701Y-90354038D01*
X124877448Y-90368316D01*
X124856889Y-90380639D01*
X124835220Y-90390888D01*
X124812652Y-90398963D01*
X124789401Y-90404787D01*
X124765691Y-90408304D01*
X124741750Y-90409480D01*
X124178250Y-90409480D01*
X124154309Y-90408304D01*
X124130599Y-90404787D01*
X124107348Y-90398963D01*
X124084780Y-90390888D01*
X124063111Y-90380639D01*
X124042552Y-90368316D01*
X124023299Y-90354038D01*
X124005539Y-90337941D01*
X123989442Y-90320181D01*
X123975164Y-90300928D01*
X123962841Y-90280369D01*
X123952592Y-90258700D01*
X123944517Y-90236132D01*
X123938693Y-90212881D01*
X123935176Y-90189171D01*
X123934000Y-90165230D01*
X123934000Y-89676730D01*
X123935176Y-89652789D01*
X123938693Y-89629079D01*
X123944517Y-89605828D01*
X123952592Y-89583260D01*
X123962841Y-89561591D01*
X123975164Y-89541032D01*
X123989442Y-89521779D01*
X124005539Y-89504019D01*
X124023299Y-89487922D01*
X124042552Y-89473644D01*
X124063111Y-89461321D01*
X124084780Y-89451072D01*
X124107348Y-89442997D01*
X124130599Y-89437173D01*
X124154309Y-89433656D01*
X124178250Y-89432480D01*
X124741750Y-89432480D01*
X124765691Y-89433656D01*
X124765691Y-89433656D01*
G37*
D13*
X124460000Y-89920980D03*
D11*
G36*
X124765691Y-91008656D02*
G01*
X124789401Y-91012173D01*
X124812652Y-91017997D01*
X124835220Y-91026072D01*
X124856889Y-91036321D01*
X124877448Y-91048644D01*
X124896701Y-91062922D01*
X124914461Y-91079019D01*
X124930558Y-91096779D01*
X124944836Y-91116032D01*
X124957159Y-91136591D01*
X124967408Y-91158260D01*
X124975483Y-91180828D01*
X124981307Y-91204079D01*
X124984824Y-91227789D01*
X124986000Y-91251730D01*
X124986000Y-91740230D01*
X124984824Y-91764171D01*
X124981307Y-91787881D01*
X124975483Y-91811132D01*
X124967408Y-91833700D01*
X124957159Y-91855369D01*
X124944836Y-91875928D01*
X124930558Y-91895181D01*
X124914461Y-91912941D01*
X124896701Y-91929038D01*
X124877448Y-91943316D01*
X124856889Y-91955639D01*
X124835220Y-91965888D01*
X124812652Y-91973963D01*
X124789401Y-91979787D01*
X124765691Y-91983304D01*
X124741750Y-91984480D01*
X124178250Y-91984480D01*
X124154309Y-91983304D01*
X124130599Y-91979787D01*
X124107348Y-91973963D01*
X124084780Y-91965888D01*
X124063111Y-91955639D01*
X124042552Y-91943316D01*
X124023299Y-91929038D01*
X124005539Y-91912941D01*
X123989442Y-91895181D01*
X123975164Y-91875928D01*
X123962841Y-91855369D01*
X123952592Y-91833700D01*
X123944517Y-91811132D01*
X123938693Y-91787881D01*
X123935176Y-91764171D01*
X123934000Y-91740230D01*
X123934000Y-91251730D01*
X123935176Y-91227789D01*
X123938693Y-91204079D01*
X123944517Y-91180828D01*
X123952592Y-91158260D01*
X123962841Y-91136591D01*
X123975164Y-91116032D01*
X123989442Y-91096779D01*
X124005539Y-91079019D01*
X124023299Y-91062922D01*
X124042552Y-91048644D01*
X124063111Y-91036321D01*
X124084780Y-91026072D01*
X124107348Y-91017997D01*
X124130599Y-91012173D01*
X124154309Y-91008656D01*
X124178250Y-91007480D01*
X124741750Y-91007480D01*
X124765691Y-91008656D01*
X124765691Y-91008656D01*
G37*
D13*
X124460000Y-91495980D03*
D11*
G36*
X160552151Y-101684776D02*
G01*
X160575861Y-101688293D01*
X160599112Y-101694117D01*
X160621680Y-101702192D01*
X160643349Y-101712441D01*
X160663908Y-101724764D01*
X160683161Y-101739042D01*
X160700921Y-101755139D01*
X160717018Y-101772899D01*
X160731296Y-101792152D01*
X160743619Y-101812711D01*
X160753868Y-101834380D01*
X160761943Y-101856948D01*
X160767767Y-101880199D01*
X160771284Y-101903909D01*
X160772460Y-101927850D01*
X160772460Y-102491350D01*
X160771284Y-102515291D01*
X160767767Y-102539001D01*
X160761943Y-102562252D01*
X160753868Y-102584820D01*
X160743619Y-102606489D01*
X160731296Y-102627048D01*
X160717018Y-102646301D01*
X160700921Y-102664061D01*
X160683161Y-102680158D01*
X160663908Y-102694436D01*
X160643349Y-102706759D01*
X160621680Y-102717008D01*
X160599112Y-102725083D01*
X160575861Y-102730907D01*
X160552151Y-102734424D01*
X160528210Y-102735600D01*
X160039710Y-102735600D01*
X160015769Y-102734424D01*
X159992059Y-102730907D01*
X159968808Y-102725083D01*
X159946240Y-102717008D01*
X159924571Y-102706759D01*
X159904012Y-102694436D01*
X159884759Y-102680158D01*
X159866999Y-102664061D01*
X159850902Y-102646301D01*
X159836624Y-102627048D01*
X159824301Y-102606489D01*
X159814052Y-102584820D01*
X159805977Y-102562252D01*
X159800153Y-102539001D01*
X159796636Y-102515291D01*
X159795460Y-102491350D01*
X159795460Y-101927850D01*
X159796636Y-101903909D01*
X159800153Y-101880199D01*
X159805977Y-101856948D01*
X159814052Y-101834380D01*
X159824301Y-101812711D01*
X159836624Y-101792152D01*
X159850902Y-101772899D01*
X159866999Y-101755139D01*
X159884759Y-101739042D01*
X159904012Y-101724764D01*
X159924571Y-101712441D01*
X159946240Y-101702192D01*
X159968808Y-101694117D01*
X159992059Y-101688293D01*
X160015769Y-101684776D01*
X160039710Y-101683600D01*
X160528210Y-101683600D01*
X160552151Y-101684776D01*
X160552151Y-101684776D01*
G37*
D13*
X160283960Y-102209600D03*
D11*
G36*
X162127151Y-101684776D02*
G01*
X162150861Y-101688293D01*
X162174112Y-101694117D01*
X162196680Y-101702192D01*
X162218349Y-101712441D01*
X162238908Y-101724764D01*
X162258161Y-101739042D01*
X162275921Y-101755139D01*
X162292018Y-101772899D01*
X162306296Y-101792152D01*
X162318619Y-101812711D01*
X162328868Y-101834380D01*
X162336943Y-101856948D01*
X162342767Y-101880199D01*
X162346284Y-101903909D01*
X162347460Y-101927850D01*
X162347460Y-102491350D01*
X162346284Y-102515291D01*
X162342767Y-102539001D01*
X162336943Y-102562252D01*
X162328868Y-102584820D01*
X162318619Y-102606489D01*
X162306296Y-102627048D01*
X162292018Y-102646301D01*
X162275921Y-102664061D01*
X162258161Y-102680158D01*
X162238908Y-102694436D01*
X162218349Y-102706759D01*
X162196680Y-102717008D01*
X162174112Y-102725083D01*
X162150861Y-102730907D01*
X162127151Y-102734424D01*
X162103210Y-102735600D01*
X161614710Y-102735600D01*
X161590769Y-102734424D01*
X161567059Y-102730907D01*
X161543808Y-102725083D01*
X161521240Y-102717008D01*
X161499571Y-102706759D01*
X161479012Y-102694436D01*
X161459759Y-102680158D01*
X161441999Y-102664061D01*
X161425902Y-102646301D01*
X161411624Y-102627048D01*
X161399301Y-102606489D01*
X161389052Y-102584820D01*
X161380977Y-102562252D01*
X161375153Y-102539001D01*
X161371636Y-102515291D01*
X161370460Y-102491350D01*
X161370460Y-101927850D01*
X161371636Y-101903909D01*
X161375153Y-101880199D01*
X161380977Y-101856948D01*
X161389052Y-101834380D01*
X161399301Y-101812711D01*
X161411624Y-101792152D01*
X161425902Y-101772899D01*
X161441999Y-101755139D01*
X161459759Y-101739042D01*
X161479012Y-101724764D01*
X161499571Y-101712441D01*
X161521240Y-101702192D01*
X161543808Y-101694117D01*
X161567059Y-101688293D01*
X161590769Y-101684776D01*
X161614710Y-101683600D01*
X162103210Y-101683600D01*
X162127151Y-101684776D01*
X162127151Y-101684776D01*
G37*
D13*
X161858960Y-102209600D03*
D11*
G36*
X160552352Y-103246876D02*
G01*
X160576062Y-103250393D01*
X160599313Y-103256217D01*
X160621881Y-103264292D01*
X160643550Y-103274541D01*
X160664109Y-103286864D01*
X160683362Y-103301142D01*
X160701122Y-103317239D01*
X160717219Y-103334999D01*
X160731497Y-103354252D01*
X160743820Y-103374811D01*
X160754069Y-103396480D01*
X160762144Y-103419048D01*
X160767968Y-103442299D01*
X160771485Y-103466009D01*
X160772661Y-103489950D01*
X160772661Y-104053450D01*
X160771485Y-104077391D01*
X160767968Y-104101101D01*
X160762144Y-104124352D01*
X160754069Y-104146920D01*
X160743820Y-104168589D01*
X160731497Y-104189148D01*
X160717219Y-104208401D01*
X160701122Y-104226161D01*
X160683362Y-104242258D01*
X160664109Y-104256536D01*
X160643550Y-104268859D01*
X160621881Y-104279108D01*
X160599313Y-104287183D01*
X160576062Y-104293007D01*
X160552352Y-104296524D01*
X160528411Y-104297700D01*
X160039911Y-104297700D01*
X160015970Y-104296524D01*
X159992260Y-104293007D01*
X159969009Y-104287183D01*
X159946441Y-104279108D01*
X159924772Y-104268859D01*
X159904213Y-104256536D01*
X159884960Y-104242258D01*
X159867200Y-104226161D01*
X159851103Y-104208401D01*
X159836825Y-104189148D01*
X159824502Y-104168589D01*
X159814253Y-104146920D01*
X159806178Y-104124352D01*
X159800354Y-104101101D01*
X159796837Y-104077391D01*
X159795661Y-104053450D01*
X159795661Y-103489950D01*
X159796837Y-103466009D01*
X159800354Y-103442299D01*
X159806178Y-103419048D01*
X159814253Y-103396480D01*
X159824502Y-103374811D01*
X159836825Y-103354252D01*
X159851103Y-103334999D01*
X159867200Y-103317239D01*
X159884960Y-103301142D01*
X159904213Y-103286864D01*
X159924772Y-103274541D01*
X159946441Y-103264292D01*
X159969009Y-103256217D01*
X159992260Y-103250393D01*
X160015970Y-103246876D01*
X160039911Y-103245700D01*
X160528411Y-103245700D01*
X160552352Y-103246876D01*
X160552352Y-103246876D01*
G37*
D13*
X160284161Y-103771700D03*
D11*
G36*
X162127352Y-103246876D02*
G01*
X162151062Y-103250393D01*
X162174313Y-103256217D01*
X162196881Y-103264292D01*
X162218550Y-103274541D01*
X162239109Y-103286864D01*
X162258362Y-103301142D01*
X162276122Y-103317239D01*
X162292219Y-103334999D01*
X162306497Y-103354252D01*
X162318820Y-103374811D01*
X162329069Y-103396480D01*
X162337144Y-103419048D01*
X162342968Y-103442299D01*
X162346485Y-103466009D01*
X162347661Y-103489950D01*
X162347661Y-104053450D01*
X162346485Y-104077391D01*
X162342968Y-104101101D01*
X162337144Y-104124352D01*
X162329069Y-104146920D01*
X162318820Y-104168589D01*
X162306497Y-104189148D01*
X162292219Y-104208401D01*
X162276122Y-104226161D01*
X162258362Y-104242258D01*
X162239109Y-104256536D01*
X162218550Y-104268859D01*
X162196881Y-104279108D01*
X162174313Y-104287183D01*
X162151062Y-104293007D01*
X162127352Y-104296524D01*
X162103411Y-104297700D01*
X161614911Y-104297700D01*
X161590970Y-104296524D01*
X161567260Y-104293007D01*
X161544009Y-104287183D01*
X161521441Y-104279108D01*
X161499772Y-104268859D01*
X161479213Y-104256536D01*
X161459960Y-104242258D01*
X161442200Y-104226161D01*
X161426103Y-104208401D01*
X161411825Y-104189148D01*
X161399502Y-104168589D01*
X161389253Y-104146920D01*
X161381178Y-104124352D01*
X161375354Y-104101101D01*
X161371837Y-104077391D01*
X161370661Y-104053450D01*
X161370661Y-103489950D01*
X161371837Y-103466009D01*
X161375354Y-103442299D01*
X161381178Y-103419048D01*
X161389253Y-103396480D01*
X161399502Y-103374811D01*
X161411825Y-103354252D01*
X161426103Y-103334999D01*
X161442200Y-103317239D01*
X161459960Y-103301142D01*
X161479213Y-103286864D01*
X161499772Y-103274541D01*
X161521441Y-103264292D01*
X161544009Y-103256217D01*
X161567260Y-103250393D01*
X161590970Y-103246876D01*
X161614911Y-103245700D01*
X162103411Y-103245700D01*
X162127352Y-103246876D01*
X162127352Y-103246876D01*
G37*
D13*
X161859161Y-103771700D03*
D11*
G36*
X160552251Y-104798816D02*
G01*
X160575961Y-104802333D01*
X160599212Y-104808157D01*
X160621780Y-104816232D01*
X160643449Y-104826481D01*
X160664008Y-104838804D01*
X160683261Y-104853082D01*
X160701021Y-104869179D01*
X160717118Y-104886939D01*
X160731396Y-104906192D01*
X160743719Y-104926751D01*
X160753968Y-104948420D01*
X160762043Y-104970988D01*
X160767867Y-104994239D01*
X160771384Y-105017949D01*
X160772560Y-105041890D01*
X160772560Y-105605390D01*
X160771384Y-105629331D01*
X160767867Y-105653041D01*
X160762043Y-105676292D01*
X160753968Y-105698860D01*
X160743719Y-105720529D01*
X160731396Y-105741088D01*
X160717118Y-105760341D01*
X160701021Y-105778101D01*
X160683261Y-105794198D01*
X160664008Y-105808476D01*
X160643449Y-105820799D01*
X160621780Y-105831048D01*
X160599212Y-105839123D01*
X160575961Y-105844947D01*
X160552251Y-105848464D01*
X160528310Y-105849640D01*
X160039810Y-105849640D01*
X160015869Y-105848464D01*
X159992159Y-105844947D01*
X159968908Y-105839123D01*
X159946340Y-105831048D01*
X159924671Y-105820799D01*
X159904112Y-105808476D01*
X159884859Y-105794198D01*
X159867099Y-105778101D01*
X159851002Y-105760341D01*
X159836724Y-105741088D01*
X159824401Y-105720529D01*
X159814152Y-105698860D01*
X159806077Y-105676292D01*
X159800253Y-105653041D01*
X159796736Y-105629331D01*
X159795560Y-105605390D01*
X159795560Y-105041890D01*
X159796736Y-105017949D01*
X159800253Y-104994239D01*
X159806077Y-104970988D01*
X159814152Y-104948420D01*
X159824401Y-104926751D01*
X159836724Y-104906192D01*
X159851002Y-104886939D01*
X159867099Y-104869179D01*
X159884859Y-104853082D01*
X159904112Y-104838804D01*
X159924671Y-104826481D01*
X159946340Y-104816232D01*
X159968908Y-104808157D01*
X159992159Y-104802333D01*
X160015869Y-104798816D01*
X160039810Y-104797640D01*
X160528310Y-104797640D01*
X160552251Y-104798816D01*
X160552251Y-104798816D01*
G37*
D13*
X160284060Y-105323640D03*
D11*
G36*
X162127251Y-104798816D02*
G01*
X162150961Y-104802333D01*
X162174212Y-104808157D01*
X162196780Y-104816232D01*
X162218449Y-104826481D01*
X162239008Y-104838804D01*
X162258261Y-104853082D01*
X162276021Y-104869179D01*
X162292118Y-104886939D01*
X162306396Y-104906192D01*
X162318719Y-104926751D01*
X162328968Y-104948420D01*
X162337043Y-104970988D01*
X162342867Y-104994239D01*
X162346384Y-105017949D01*
X162347560Y-105041890D01*
X162347560Y-105605390D01*
X162346384Y-105629331D01*
X162342867Y-105653041D01*
X162337043Y-105676292D01*
X162328968Y-105698860D01*
X162318719Y-105720529D01*
X162306396Y-105741088D01*
X162292118Y-105760341D01*
X162276021Y-105778101D01*
X162258261Y-105794198D01*
X162239008Y-105808476D01*
X162218449Y-105820799D01*
X162196780Y-105831048D01*
X162174212Y-105839123D01*
X162150961Y-105844947D01*
X162127251Y-105848464D01*
X162103310Y-105849640D01*
X161614810Y-105849640D01*
X161590869Y-105848464D01*
X161567159Y-105844947D01*
X161543908Y-105839123D01*
X161521340Y-105831048D01*
X161499671Y-105820799D01*
X161479112Y-105808476D01*
X161459859Y-105794198D01*
X161442099Y-105778101D01*
X161426002Y-105760341D01*
X161411724Y-105741088D01*
X161399401Y-105720529D01*
X161389152Y-105698860D01*
X161381077Y-105676292D01*
X161375253Y-105653041D01*
X161371736Y-105629331D01*
X161370560Y-105605390D01*
X161370560Y-105041890D01*
X161371736Y-105017949D01*
X161375253Y-104994239D01*
X161381077Y-104970988D01*
X161389152Y-104948420D01*
X161399401Y-104926751D01*
X161411724Y-104906192D01*
X161426002Y-104886939D01*
X161442099Y-104869179D01*
X161459859Y-104853082D01*
X161479112Y-104838804D01*
X161499671Y-104826481D01*
X161521340Y-104816232D01*
X161543908Y-104808157D01*
X161567159Y-104802333D01*
X161590869Y-104798816D01*
X161614810Y-104797640D01*
X162103310Y-104797640D01*
X162127251Y-104798816D01*
X162127251Y-104798816D01*
G37*
D13*
X161859060Y-105323640D03*
D11*
G36*
X160552352Y-106348216D02*
G01*
X160576062Y-106351733D01*
X160599313Y-106357557D01*
X160621881Y-106365632D01*
X160643550Y-106375881D01*
X160664109Y-106388204D01*
X160683362Y-106402482D01*
X160701122Y-106418579D01*
X160717219Y-106436339D01*
X160731497Y-106455592D01*
X160743820Y-106476151D01*
X160754069Y-106497820D01*
X160762144Y-106520388D01*
X160767968Y-106543639D01*
X160771485Y-106567349D01*
X160772661Y-106591290D01*
X160772661Y-107154790D01*
X160771485Y-107178731D01*
X160767968Y-107202441D01*
X160762144Y-107225692D01*
X160754069Y-107248260D01*
X160743820Y-107269929D01*
X160731497Y-107290488D01*
X160717219Y-107309741D01*
X160701122Y-107327501D01*
X160683362Y-107343598D01*
X160664109Y-107357876D01*
X160643550Y-107370199D01*
X160621881Y-107380448D01*
X160599313Y-107388523D01*
X160576062Y-107394347D01*
X160552352Y-107397864D01*
X160528411Y-107399040D01*
X160039911Y-107399040D01*
X160015970Y-107397864D01*
X159992260Y-107394347D01*
X159969009Y-107388523D01*
X159946441Y-107380448D01*
X159924772Y-107370199D01*
X159904213Y-107357876D01*
X159884960Y-107343598D01*
X159867200Y-107327501D01*
X159851103Y-107309741D01*
X159836825Y-107290488D01*
X159824502Y-107269929D01*
X159814253Y-107248260D01*
X159806178Y-107225692D01*
X159800354Y-107202441D01*
X159796837Y-107178731D01*
X159795661Y-107154790D01*
X159795661Y-106591290D01*
X159796837Y-106567349D01*
X159800354Y-106543639D01*
X159806178Y-106520388D01*
X159814253Y-106497820D01*
X159824502Y-106476151D01*
X159836825Y-106455592D01*
X159851103Y-106436339D01*
X159867200Y-106418579D01*
X159884960Y-106402482D01*
X159904213Y-106388204D01*
X159924772Y-106375881D01*
X159946441Y-106365632D01*
X159969009Y-106357557D01*
X159992260Y-106351733D01*
X160015970Y-106348216D01*
X160039911Y-106347040D01*
X160528411Y-106347040D01*
X160552352Y-106348216D01*
X160552352Y-106348216D01*
G37*
D13*
X160284161Y-106873040D03*
D11*
G36*
X162127352Y-106348216D02*
G01*
X162151062Y-106351733D01*
X162174313Y-106357557D01*
X162196881Y-106365632D01*
X162218550Y-106375881D01*
X162239109Y-106388204D01*
X162258362Y-106402482D01*
X162276122Y-106418579D01*
X162292219Y-106436339D01*
X162306497Y-106455592D01*
X162318820Y-106476151D01*
X162329069Y-106497820D01*
X162337144Y-106520388D01*
X162342968Y-106543639D01*
X162346485Y-106567349D01*
X162347661Y-106591290D01*
X162347661Y-107154790D01*
X162346485Y-107178731D01*
X162342968Y-107202441D01*
X162337144Y-107225692D01*
X162329069Y-107248260D01*
X162318820Y-107269929D01*
X162306497Y-107290488D01*
X162292219Y-107309741D01*
X162276122Y-107327501D01*
X162258362Y-107343598D01*
X162239109Y-107357876D01*
X162218550Y-107370199D01*
X162196881Y-107380448D01*
X162174313Y-107388523D01*
X162151062Y-107394347D01*
X162127352Y-107397864D01*
X162103411Y-107399040D01*
X161614911Y-107399040D01*
X161590970Y-107397864D01*
X161567260Y-107394347D01*
X161544009Y-107388523D01*
X161521441Y-107380448D01*
X161499772Y-107370199D01*
X161479213Y-107357876D01*
X161459960Y-107343598D01*
X161442200Y-107327501D01*
X161426103Y-107309741D01*
X161411825Y-107290488D01*
X161399502Y-107269929D01*
X161389253Y-107248260D01*
X161381178Y-107225692D01*
X161375354Y-107202441D01*
X161371837Y-107178731D01*
X161370661Y-107154790D01*
X161370661Y-106591290D01*
X161371837Y-106567349D01*
X161375354Y-106543639D01*
X161381178Y-106520388D01*
X161389253Y-106497820D01*
X161399502Y-106476151D01*
X161411825Y-106455592D01*
X161426103Y-106436339D01*
X161442200Y-106418579D01*
X161459960Y-106402482D01*
X161479213Y-106388204D01*
X161499772Y-106375881D01*
X161521441Y-106365632D01*
X161544009Y-106357557D01*
X161567260Y-106351733D01*
X161590970Y-106348216D01*
X161614911Y-106347040D01*
X162103411Y-106347040D01*
X162127352Y-106348216D01*
X162127352Y-106348216D01*
G37*
D13*
X161859161Y-106873040D03*
D11*
G36*
X159005591Y-104798816D02*
G01*
X159029301Y-104802333D01*
X159052552Y-104808157D01*
X159075120Y-104816232D01*
X159096789Y-104826481D01*
X159117348Y-104838804D01*
X159136601Y-104853082D01*
X159154361Y-104869179D01*
X159170458Y-104886939D01*
X159184736Y-104906192D01*
X159197059Y-104926751D01*
X159207308Y-104948420D01*
X159215383Y-104970988D01*
X159221207Y-104994239D01*
X159224724Y-105017949D01*
X159225900Y-105041890D01*
X159225900Y-105605390D01*
X159224724Y-105629331D01*
X159221207Y-105653041D01*
X159215383Y-105676292D01*
X159207308Y-105698860D01*
X159197059Y-105720529D01*
X159184736Y-105741088D01*
X159170458Y-105760341D01*
X159154361Y-105778101D01*
X159136601Y-105794198D01*
X159117348Y-105808476D01*
X159096789Y-105820799D01*
X159075120Y-105831048D01*
X159052552Y-105839123D01*
X159029301Y-105844947D01*
X159005591Y-105848464D01*
X158981650Y-105849640D01*
X158493150Y-105849640D01*
X158469209Y-105848464D01*
X158445499Y-105844947D01*
X158422248Y-105839123D01*
X158399680Y-105831048D01*
X158378011Y-105820799D01*
X158357452Y-105808476D01*
X158338199Y-105794198D01*
X158320439Y-105778101D01*
X158304342Y-105760341D01*
X158290064Y-105741088D01*
X158277741Y-105720529D01*
X158267492Y-105698860D01*
X158259417Y-105676292D01*
X158253593Y-105653041D01*
X158250076Y-105629331D01*
X158248900Y-105605390D01*
X158248900Y-105041890D01*
X158250076Y-105017949D01*
X158253593Y-104994239D01*
X158259417Y-104970988D01*
X158267492Y-104948420D01*
X158277741Y-104926751D01*
X158290064Y-104906192D01*
X158304342Y-104886939D01*
X158320439Y-104869179D01*
X158338199Y-104853082D01*
X158357452Y-104838804D01*
X158378011Y-104826481D01*
X158399680Y-104816232D01*
X158422248Y-104808157D01*
X158445499Y-104802333D01*
X158469209Y-104798816D01*
X158493150Y-104797640D01*
X158981650Y-104797640D01*
X159005591Y-104798816D01*
X159005591Y-104798816D01*
G37*
D13*
X158737400Y-105323640D03*
D11*
G36*
X157430591Y-104798816D02*
G01*
X157454301Y-104802333D01*
X157477552Y-104808157D01*
X157500120Y-104816232D01*
X157521789Y-104826481D01*
X157542348Y-104838804D01*
X157561601Y-104853082D01*
X157579361Y-104869179D01*
X157595458Y-104886939D01*
X157609736Y-104906192D01*
X157622059Y-104926751D01*
X157632308Y-104948420D01*
X157640383Y-104970988D01*
X157646207Y-104994239D01*
X157649724Y-105017949D01*
X157650900Y-105041890D01*
X157650900Y-105605390D01*
X157649724Y-105629331D01*
X157646207Y-105653041D01*
X157640383Y-105676292D01*
X157632308Y-105698860D01*
X157622059Y-105720529D01*
X157609736Y-105741088D01*
X157595458Y-105760341D01*
X157579361Y-105778101D01*
X157561601Y-105794198D01*
X157542348Y-105808476D01*
X157521789Y-105820799D01*
X157500120Y-105831048D01*
X157477552Y-105839123D01*
X157454301Y-105844947D01*
X157430591Y-105848464D01*
X157406650Y-105849640D01*
X156918150Y-105849640D01*
X156894209Y-105848464D01*
X156870499Y-105844947D01*
X156847248Y-105839123D01*
X156824680Y-105831048D01*
X156803011Y-105820799D01*
X156782452Y-105808476D01*
X156763199Y-105794198D01*
X156745439Y-105778101D01*
X156729342Y-105760341D01*
X156715064Y-105741088D01*
X156702741Y-105720529D01*
X156692492Y-105698860D01*
X156684417Y-105676292D01*
X156678593Y-105653041D01*
X156675076Y-105629331D01*
X156673900Y-105605390D01*
X156673900Y-105041890D01*
X156675076Y-105017949D01*
X156678593Y-104994239D01*
X156684417Y-104970988D01*
X156692492Y-104948420D01*
X156702741Y-104926751D01*
X156715064Y-104906192D01*
X156729342Y-104886939D01*
X156745439Y-104869179D01*
X156763199Y-104853082D01*
X156782452Y-104838804D01*
X156803011Y-104826481D01*
X156824680Y-104816232D01*
X156847248Y-104808157D01*
X156870499Y-104802333D01*
X156894209Y-104798816D01*
X156918150Y-104797640D01*
X157406650Y-104797640D01*
X157430591Y-104798816D01*
X157430591Y-104798816D01*
G37*
D13*
X157162400Y-105323640D03*
D11*
G36*
X159005491Y-103249416D02*
G01*
X159029201Y-103252933D01*
X159052452Y-103258757D01*
X159075020Y-103266832D01*
X159096689Y-103277081D01*
X159117248Y-103289404D01*
X159136501Y-103303682D01*
X159154261Y-103319779D01*
X159170358Y-103337539D01*
X159184636Y-103356792D01*
X159196959Y-103377351D01*
X159207208Y-103399020D01*
X159215283Y-103421588D01*
X159221107Y-103444839D01*
X159224624Y-103468549D01*
X159225800Y-103492490D01*
X159225800Y-104055990D01*
X159224624Y-104079931D01*
X159221107Y-104103641D01*
X159215283Y-104126892D01*
X159207208Y-104149460D01*
X159196959Y-104171129D01*
X159184636Y-104191688D01*
X159170358Y-104210941D01*
X159154261Y-104228701D01*
X159136501Y-104244798D01*
X159117248Y-104259076D01*
X159096689Y-104271399D01*
X159075020Y-104281648D01*
X159052452Y-104289723D01*
X159029201Y-104295547D01*
X159005491Y-104299064D01*
X158981550Y-104300240D01*
X158493050Y-104300240D01*
X158469109Y-104299064D01*
X158445399Y-104295547D01*
X158422148Y-104289723D01*
X158399580Y-104281648D01*
X158377911Y-104271399D01*
X158357352Y-104259076D01*
X158338099Y-104244798D01*
X158320339Y-104228701D01*
X158304242Y-104210941D01*
X158289964Y-104191688D01*
X158277641Y-104171129D01*
X158267392Y-104149460D01*
X158259317Y-104126892D01*
X158253493Y-104103641D01*
X158249976Y-104079931D01*
X158248800Y-104055990D01*
X158248800Y-103492490D01*
X158249976Y-103468549D01*
X158253493Y-103444839D01*
X158259317Y-103421588D01*
X158267392Y-103399020D01*
X158277641Y-103377351D01*
X158289964Y-103356792D01*
X158304242Y-103337539D01*
X158320339Y-103319779D01*
X158338099Y-103303682D01*
X158357352Y-103289404D01*
X158377911Y-103277081D01*
X158399580Y-103266832D01*
X158422148Y-103258757D01*
X158445399Y-103252933D01*
X158469109Y-103249416D01*
X158493050Y-103248240D01*
X158981550Y-103248240D01*
X159005491Y-103249416D01*
X159005491Y-103249416D01*
G37*
D13*
X158737300Y-103774240D03*
D11*
G36*
X157430491Y-103249416D02*
G01*
X157454201Y-103252933D01*
X157477452Y-103258757D01*
X157500020Y-103266832D01*
X157521689Y-103277081D01*
X157542248Y-103289404D01*
X157561501Y-103303682D01*
X157579261Y-103319779D01*
X157595358Y-103337539D01*
X157609636Y-103356792D01*
X157621959Y-103377351D01*
X157632208Y-103399020D01*
X157640283Y-103421588D01*
X157646107Y-103444839D01*
X157649624Y-103468549D01*
X157650800Y-103492490D01*
X157650800Y-104055990D01*
X157649624Y-104079931D01*
X157646107Y-104103641D01*
X157640283Y-104126892D01*
X157632208Y-104149460D01*
X157621959Y-104171129D01*
X157609636Y-104191688D01*
X157595358Y-104210941D01*
X157579261Y-104228701D01*
X157561501Y-104244798D01*
X157542248Y-104259076D01*
X157521689Y-104271399D01*
X157500020Y-104281648D01*
X157477452Y-104289723D01*
X157454201Y-104295547D01*
X157430491Y-104299064D01*
X157406550Y-104300240D01*
X156918050Y-104300240D01*
X156894109Y-104299064D01*
X156870399Y-104295547D01*
X156847148Y-104289723D01*
X156824580Y-104281648D01*
X156802911Y-104271399D01*
X156782352Y-104259076D01*
X156763099Y-104244798D01*
X156745339Y-104228701D01*
X156729242Y-104210941D01*
X156714964Y-104191688D01*
X156702641Y-104171129D01*
X156692392Y-104149460D01*
X156684317Y-104126892D01*
X156678493Y-104103641D01*
X156674976Y-104079931D01*
X156673800Y-104055990D01*
X156673800Y-103492490D01*
X156674976Y-103468549D01*
X156678493Y-103444839D01*
X156684317Y-103421588D01*
X156692392Y-103399020D01*
X156702641Y-103377351D01*
X156714964Y-103356792D01*
X156729242Y-103337539D01*
X156745339Y-103319779D01*
X156763099Y-103303682D01*
X156782352Y-103289404D01*
X156802911Y-103277081D01*
X156824580Y-103266832D01*
X156847148Y-103258757D01*
X156870399Y-103252933D01*
X156894109Y-103249416D01*
X156918050Y-103248240D01*
X157406550Y-103248240D01*
X157430491Y-103249416D01*
X157430491Y-103249416D01*
G37*
D13*
X157162300Y-103774240D03*
D11*
G36*
X143307691Y-99233176D02*
G01*
X143331401Y-99236693D01*
X143354652Y-99242517D01*
X143377220Y-99250592D01*
X143398889Y-99260841D01*
X143419448Y-99273164D01*
X143438701Y-99287442D01*
X143456461Y-99303539D01*
X143472558Y-99321299D01*
X143486836Y-99340552D01*
X143499159Y-99361111D01*
X143509408Y-99382780D01*
X143517483Y-99405348D01*
X143523307Y-99428599D01*
X143526824Y-99452309D01*
X143528000Y-99476250D01*
X143528000Y-99964750D01*
X143526824Y-99988691D01*
X143523307Y-100012401D01*
X143517483Y-100035652D01*
X143509408Y-100058220D01*
X143499159Y-100079889D01*
X143486836Y-100100448D01*
X143472558Y-100119701D01*
X143456461Y-100137461D01*
X143438701Y-100153558D01*
X143419448Y-100167836D01*
X143398889Y-100180159D01*
X143377220Y-100190408D01*
X143354652Y-100198483D01*
X143331401Y-100204307D01*
X143307691Y-100207824D01*
X143283750Y-100209000D01*
X142720250Y-100209000D01*
X142696309Y-100207824D01*
X142672599Y-100204307D01*
X142649348Y-100198483D01*
X142626780Y-100190408D01*
X142605111Y-100180159D01*
X142584552Y-100167836D01*
X142565299Y-100153558D01*
X142547539Y-100137461D01*
X142531442Y-100119701D01*
X142517164Y-100100448D01*
X142504841Y-100079889D01*
X142494592Y-100058220D01*
X142486517Y-100035652D01*
X142480693Y-100012401D01*
X142477176Y-99988691D01*
X142476000Y-99964750D01*
X142476000Y-99476250D01*
X142477176Y-99452309D01*
X142480693Y-99428599D01*
X142486517Y-99405348D01*
X142494592Y-99382780D01*
X142504841Y-99361111D01*
X142517164Y-99340552D01*
X142531442Y-99321299D01*
X142547539Y-99303539D01*
X142565299Y-99287442D01*
X142584552Y-99273164D01*
X142605111Y-99260841D01*
X142626780Y-99250592D01*
X142649348Y-99242517D01*
X142672599Y-99236693D01*
X142696309Y-99233176D01*
X142720250Y-99232000D01*
X143283750Y-99232000D01*
X143307691Y-99233176D01*
X143307691Y-99233176D01*
G37*
D13*
X143002000Y-99720500D03*
D11*
G36*
X143307691Y-97658176D02*
G01*
X143331401Y-97661693D01*
X143354652Y-97667517D01*
X143377220Y-97675592D01*
X143398889Y-97685841D01*
X143419448Y-97698164D01*
X143438701Y-97712442D01*
X143456461Y-97728539D01*
X143472558Y-97746299D01*
X143486836Y-97765552D01*
X143499159Y-97786111D01*
X143509408Y-97807780D01*
X143517483Y-97830348D01*
X143523307Y-97853599D01*
X143526824Y-97877309D01*
X143528000Y-97901250D01*
X143528000Y-98389750D01*
X143526824Y-98413691D01*
X143523307Y-98437401D01*
X143517483Y-98460652D01*
X143509408Y-98483220D01*
X143499159Y-98504889D01*
X143486836Y-98525448D01*
X143472558Y-98544701D01*
X143456461Y-98562461D01*
X143438701Y-98578558D01*
X143419448Y-98592836D01*
X143398889Y-98605159D01*
X143377220Y-98615408D01*
X143354652Y-98623483D01*
X143331401Y-98629307D01*
X143307691Y-98632824D01*
X143283750Y-98634000D01*
X142720250Y-98634000D01*
X142696309Y-98632824D01*
X142672599Y-98629307D01*
X142649348Y-98623483D01*
X142626780Y-98615408D01*
X142605111Y-98605159D01*
X142584552Y-98592836D01*
X142565299Y-98578558D01*
X142547539Y-98562461D01*
X142531442Y-98544701D01*
X142517164Y-98525448D01*
X142504841Y-98504889D01*
X142494592Y-98483220D01*
X142486517Y-98460652D01*
X142480693Y-98437401D01*
X142477176Y-98413691D01*
X142476000Y-98389750D01*
X142476000Y-97901250D01*
X142477176Y-97877309D01*
X142480693Y-97853599D01*
X142486517Y-97830348D01*
X142494592Y-97807780D01*
X142504841Y-97786111D01*
X142517164Y-97765552D01*
X142531442Y-97746299D01*
X142547539Y-97728539D01*
X142565299Y-97712442D01*
X142584552Y-97698164D01*
X142605111Y-97685841D01*
X142626780Y-97675592D01*
X142649348Y-97667517D01*
X142672599Y-97661693D01*
X142696309Y-97658176D01*
X142720250Y-97657000D01*
X143283750Y-97657000D01*
X143307691Y-97658176D01*
X143307691Y-97658176D01*
G37*
D13*
X143002000Y-98145500D03*
D11*
G36*
X152827271Y-97253141D02*
G01*
X152850981Y-97256658D01*
X152874232Y-97262482D01*
X152896800Y-97270557D01*
X152918469Y-97280806D01*
X152939028Y-97293129D01*
X152958281Y-97307407D01*
X152976041Y-97323504D01*
X153374496Y-97721959D01*
X153390593Y-97739719D01*
X153404871Y-97758972D01*
X153417194Y-97779531D01*
X153427443Y-97801200D01*
X153435518Y-97823768D01*
X153441342Y-97847019D01*
X153444859Y-97870729D01*
X153446035Y-97894670D01*
X153444859Y-97918611D01*
X153441342Y-97942321D01*
X153435518Y-97965572D01*
X153427443Y-97988140D01*
X153417194Y-98009809D01*
X153404871Y-98030368D01*
X153390593Y-98049621D01*
X153374496Y-98067381D01*
X153029075Y-98412802D01*
X153011315Y-98428899D01*
X152992062Y-98443177D01*
X152971503Y-98455500D01*
X152949834Y-98465749D01*
X152927266Y-98473824D01*
X152904015Y-98479648D01*
X152880305Y-98483165D01*
X152856364Y-98484341D01*
X152832423Y-98483165D01*
X152808713Y-98479648D01*
X152785462Y-98473824D01*
X152762894Y-98465749D01*
X152741225Y-98455500D01*
X152720666Y-98443177D01*
X152701413Y-98428899D01*
X152683653Y-98412802D01*
X152285198Y-98014347D01*
X152269101Y-97996587D01*
X152254823Y-97977334D01*
X152242500Y-97956775D01*
X152232251Y-97935106D01*
X152224176Y-97912538D01*
X152218352Y-97889287D01*
X152214835Y-97865577D01*
X152213659Y-97841636D01*
X152214835Y-97817695D01*
X152218352Y-97793985D01*
X152224176Y-97770734D01*
X152232251Y-97748166D01*
X152242500Y-97726497D01*
X152254823Y-97705938D01*
X152269101Y-97686685D01*
X152285198Y-97668925D01*
X152630619Y-97323504D01*
X152648379Y-97307407D01*
X152667632Y-97293129D01*
X152688191Y-97280806D01*
X152709860Y-97270557D01*
X152732428Y-97262482D01*
X152755679Y-97256658D01*
X152779389Y-97253141D01*
X152803330Y-97251965D01*
X152827271Y-97253141D01*
X152827271Y-97253141D01*
G37*
D13*
X152829847Y-97868153D03*
D11*
G36*
X151713577Y-98366835D02*
G01*
X151737287Y-98370352D01*
X151760538Y-98376176D01*
X151783106Y-98384251D01*
X151804775Y-98394500D01*
X151825334Y-98406823D01*
X151844587Y-98421101D01*
X151862347Y-98437198D01*
X152260802Y-98835653D01*
X152276899Y-98853413D01*
X152291177Y-98872666D01*
X152303500Y-98893225D01*
X152313749Y-98914894D01*
X152321824Y-98937462D01*
X152327648Y-98960713D01*
X152331165Y-98984423D01*
X152332341Y-99008364D01*
X152331165Y-99032305D01*
X152327648Y-99056015D01*
X152321824Y-99079266D01*
X152313749Y-99101834D01*
X152303500Y-99123503D01*
X152291177Y-99144062D01*
X152276899Y-99163315D01*
X152260802Y-99181075D01*
X151915381Y-99526496D01*
X151897621Y-99542593D01*
X151878368Y-99556871D01*
X151857809Y-99569194D01*
X151836140Y-99579443D01*
X151813572Y-99587518D01*
X151790321Y-99593342D01*
X151766611Y-99596859D01*
X151742670Y-99598035D01*
X151718729Y-99596859D01*
X151695019Y-99593342D01*
X151671768Y-99587518D01*
X151649200Y-99579443D01*
X151627531Y-99569194D01*
X151606972Y-99556871D01*
X151587719Y-99542593D01*
X151569959Y-99526496D01*
X151171504Y-99128041D01*
X151155407Y-99110281D01*
X151141129Y-99091028D01*
X151128806Y-99070469D01*
X151118557Y-99048800D01*
X151110482Y-99026232D01*
X151104658Y-99002981D01*
X151101141Y-98979271D01*
X151099965Y-98955330D01*
X151101141Y-98931389D01*
X151104658Y-98907679D01*
X151110482Y-98884428D01*
X151118557Y-98861860D01*
X151128806Y-98840191D01*
X151141129Y-98819632D01*
X151155407Y-98800379D01*
X151171504Y-98782619D01*
X151516925Y-98437198D01*
X151534685Y-98421101D01*
X151553938Y-98406823D01*
X151574497Y-98394500D01*
X151596166Y-98384251D01*
X151618734Y-98376176D01*
X151641985Y-98370352D01*
X151665695Y-98366835D01*
X151689636Y-98365659D01*
X151713577Y-98366835D01*
X151713577Y-98366835D01*
G37*
D13*
X151716153Y-98981847D03*
D11*
G36*
X143688691Y-109012176D02*
G01*
X143712401Y-109015693D01*
X143735652Y-109021517D01*
X143758220Y-109029592D01*
X143779889Y-109039841D01*
X143800448Y-109052164D01*
X143819701Y-109066442D01*
X143837461Y-109082539D01*
X143853558Y-109100299D01*
X143867836Y-109119552D01*
X143880159Y-109140111D01*
X143890408Y-109161780D01*
X143898483Y-109184348D01*
X143904307Y-109207599D01*
X143907824Y-109231309D01*
X143909000Y-109255250D01*
X143909000Y-109743750D01*
X143907824Y-109767691D01*
X143904307Y-109791401D01*
X143898483Y-109814652D01*
X143890408Y-109837220D01*
X143880159Y-109858889D01*
X143867836Y-109879448D01*
X143853558Y-109898701D01*
X143837461Y-109916461D01*
X143819701Y-109932558D01*
X143800448Y-109946836D01*
X143779889Y-109959159D01*
X143758220Y-109969408D01*
X143735652Y-109977483D01*
X143712401Y-109983307D01*
X143688691Y-109986824D01*
X143664750Y-109988000D01*
X143101250Y-109988000D01*
X143077309Y-109986824D01*
X143053599Y-109983307D01*
X143030348Y-109977483D01*
X143007780Y-109969408D01*
X142986111Y-109959159D01*
X142965552Y-109946836D01*
X142946299Y-109932558D01*
X142928539Y-109916461D01*
X142912442Y-109898701D01*
X142898164Y-109879448D01*
X142885841Y-109858889D01*
X142875592Y-109837220D01*
X142867517Y-109814652D01*
X142861693Y-109791401D01*
X142858176Y-109767691D01*
X142857000Y-109743750D01*
X142857000Y-109255250D01*
X142858176Y-109231309D01*
X142861693Y-109207599D01*
X142867517Y-109184348D01*
X142875592Y-109161780D01*
X142885841Y-109140111D01*
X142898164Y-109119552D01*
X142912442Y-109100299D01*
X142928539Y-109082539D01*
X142946299Y-109066442D01*
X142965552Y-109052164D01*
X142986111Y-109039841D01*
X143007780Y-109029592D01*
X143030348Y-109021517D01*
X143053599Y-109015693D01*
X143077309Y-109012176D01*
X143101250Y-109011000D01*
X143664750Y-109011000D01*
X143688691Y-109012176D01*
X143688691Y-109012176D01*
G37*
D13*
X143383000Y-109499500D03*
D11*
G36*
X143688691Y-107437176D02*
G01*
X143712401Y-107440693D01*
X143735652Y-107446517D01*
X143758220Y-107454592D01*
X143779889Y-107464841D01*
X143800448Y-107477164D01*
X143819701Y-107491442D01*
X143837461Y-107507539D01*
X143853558Y-107525299D01*
X143867836Y-107544552D01*
X143880159Y-107565111D01*
X143890408Y-107586780D01*
X143898483Y-107609348D01*
X143904307Y-107632599D01*
X143907824Y-107656309D01*
X143909000Y-107680250D01*
X143909000Y-108168750D01*
X143907824Y-108192691D01*
X143904307Y-108216401D01*
X143898483Y-108239652D01*
X143890408Y-108262220D01*
X143880159Y-108283889D01*
X143867836Y-108304448D01*
X143853558Y-108323701D01*
X143837461Y-108341461D01*
X143819701Y-108357558D01*
X143800448Y-108371836D01*
X143779889Y-108384159D01*
X143758220Y-108394408D01*
X143735652Y-108402483D01*
X143712401Y-108408307D01*
X143688691Y-108411824D01*
X143664750Y-108413000D01*
X143101250Y-108413000D01*
X143077309Y-108411824D01*
X143053599Y-108408307D01*
X143030348Y-108402483D01*
X143007780Y-108394408D01*
X142986111Y-108384159D01*
X142965552Y-108371836D01*
X142946299Y-108357558D01*
X142928539Y-108341461D01*
X142912442Y-108323701D01*
X142898164Y-108304448D01*
X142885841Y-108283889D01*
X142875592Y-108262220D01*
X142867517Y-108239652D01*
X142861693Y-108216401D01*
X142858176Y-108192691D01*
X142857000Y-108168750D01*
X142857000Y-107680250D01*
X142858176Y-107656309D01*
X142861693Y-107632599D01*
X142867517Y-107609348D01*
X142875592Y-107586780D01*
X142885841Y-107565111D01*
X142898164Y-107544552D01*
X142912442Y-107525299D01*
X142928539Y-107507539D01*
X142946299Y-107491442D01*
X142965552Y-107477164D01*
X142986111Y-107464841D01*
X143007780Y-107454592D01*
X143030348Y-107446517D01*
X143053599Y-107440693D01*
X143077309Y-107437176D01*
X143101250Y-107436000D01*
X143664750Y-107436000D01*
X143688691Y-107437176D01*
X143688691Y-107437176D01*
G37*
D13*
X143383000Y-107924500D03*
D11*
G36*
X138735691Y-111552176D02*
G01*
X138759401Y-111555693D01*
X138782652Y-111561517D01*
X138805220Y-111569592D01*
X138826889Y-111579841D01*
X138847448Y-111592164D01*
X138866701Y-111606442D01*
X138884461Y-111622539D01*
X138900558Y-111640299D01*
X138914836Y-111659552D01*
X138927159Y-111680111D01*
X138937408Y-111701780D01*
X138945483Y-111724348D01*
X138951307Y-111747599D01*
X138954824Y-111771309D01*
X138956000Y-111795250D01*
X138956000Y-112283750D01*
X138954824Y-112307691D01*
X138951307Y-112331401D01*
X138945483Y-112354652D01*
X138937408Y-112377220D01*
X138927159Y-112398889D01*
X138914836Y-112419448D01*
X138900558Y-112438701D01*
X138884461Y-112456461D01*
X138866701Y-112472558D01*
X138847448Y-112486836D01*
X138826889Y-112499159D01*
X138805220Y-112509408D01*
X138782652Y-112517483D01*
X138759401Y-112523307D01*
X138735691Y-112526824D01*
X138711750Y-112528000D01*
X138148250Y-112528000D01*
X138124309Y-112526824D01*
X138100599Y-112523307D01*
X138077348Y-112517483D01*
X138054780Y-112509408D01*
X138033111Y-112499159D01*
X138012552Y-112486836D01*
X137993299Y-112472558D01*
X137975539Y-112456461D01*
X137959442Y-112438701D01*
X137945164Y-112419448D01*
X137932841Y-112398889D01*
X137922592Y-112377220D01*
X137914517Y-112354652D01*
X137908693Y-112331401D01*
X137905176Y-112307691D01*
X137904000Y-112283750D01*
X137904000Y-111795250D01*
X137905176Y-111771309D01*
X137908693Y-111747599D01*
X137914517Y-111724348D01*
X137922592Y-111701780D01*
X137932841Y-111680111D01*
X137945164Y-111659552D01*
X137959442Y-111640299D01*
X137975539Y-111622539D01*
X137993299Y-111606442D01*
X138012552Y-111592164D01*
X138033111Y-111579841D01*
X138054780Y-111569592D01*
X138077348Y-111561517D01*
X138100599Y-111555693D01*
X138124309Y-111552176D01*
X138148250Y-111551000D01*
X138711750Y-111551000D01*
X138735691Y-111552176D01*
X138735691Y-111552176D01*
G37*
D13*
X138430000Y-112039500D03*
D11*
G36*
X138735691Y-109977176D02*
G01*
X138759401Y-109980693D01*
X138782652Y-109986517D01*
X138805220Y-109994592D01*
X138826889Y-110004841D01*
X138847448Y-110017164D01*
X138866701Y-110031442D01*
X138884461Y-110047539D01*
X138900558Y-110065299D01*
X138914836Y-110084552D01*
X138927159Y-110105111D01*
X138937408Y-110126780D01*
X138945483Y-110149348D01*
X138951307Y-110172599D01*
X138954824Y-110196309D01*
X138956000Y-110220250D01*
X138956000Y-110708750D01*
X138954824Y-110732691D01*
X138951307Y-110756401D01*
X138945483Y-110779652D01*
X138937408Y-110802220D01*
X138927159Y-110823889D01*
X138914836Y-110844448D01*
X138900558Y-110863701D01*
X138884461Y-110881461D01*
X138866701Y-110897558D01*
X138847448Y-110911836D01*
X138826889Y-110924159D01*
X138805220Y-110934408D01*
X138782652Y-110942483D01*
X138759401Y-110948307D01*
X138735691Y-110951824D01*
X138711750Y-110953000D01*
X138148250Y-110953000D01*
X138124309Y-110951824D01*
X138100599Y-110948307D01*
X138077348Y-110942483D01*
X138054780Y-110934408D01*
X138033111Y-110924159D01*
X138012552Y-110911836D01*
X137993299Y-110897558D01*
X137975539Y-110881461D01*
X137959442Y-110863701D01*
X137945164Y-110844448D01*
X137932841Y-110823889D01*
X137922592Y-110802220D01*
X137914517Y-110779652D01*
X137908693Y-110756401D01*
X137905176Y-110732691D01*
X137904000Y-110708750D01*
X137904000Y-110220250D01*
X137905176Y-110196309D01*
X137908693Y-110172599D01*
X137914517Y-110149348D01*
X137922592Y-110126780D01*
X137932841Y-110105111D01*
X137945164Y-110084552D01*
X137959442Y-110065299D01*
X137975539Y-110047539D01*
X137993299Y-110031442D01*
X138012552Y-110017164D01*
X138033111Y-110004841D01*
X138054780Y-109994592D01*
X138077348Y-109986517D01*
X138100599Y-109980693D01*
X138124309Y-109977176D01*
X138148250Y-109976000D01*
X138711750Y-109976000D01*
X138735691Y-109977176D01*
X138735691Y-109977176D01*
G37*
D13*
X138430000Y-110464500D03*
D11*
G36*
X135481305Y-104081835D02*
G01*
X135505015Y-104085352D01*
X135528266Y-104091176D01*
X135550834Y-104099251D01*
X135572503Y-104109500D01*
X135593062Y-104121823D01*
X135612315Y-104136101D01*
X135630075Y-104152198D01*
X135975496Y-104497619D01*
X135991593Y-104515379D01*
X136005871Y-104534632D01*
X136018194Y-104555191D01*
X136028443Y-104576860D01*
X136036518Y-104599428D01*
X136042342Y-104622679D01*
X136045859Y-104646389D01*
X136047035Y-104670330D01*
X136045859Y-104694271D01*
X136042342Y-104717981D01*
X136036518Y-104741232D01*
X136028443Y-104763800D01*
X136018194Y-104785469D01*
X136005871Y-104806028D01*
X135991593Y-104825281D01*
X135975496Y-104843041D01*
X135577041Y-105241496D01*
X135559281Y-105257593D01*
X135540028Y-105271871D01*
X135519469Y-105284194D01*
X135497800Y-105294443D01*
X135475232Y-105302518D01*
X135451981Y-105308342D01*
X135428271Y-105311859D01*
X135404330Y-105313035D01*
X135380389Y-105311859D01*
X135356679Y-105308342D01*
X135333428Y-105302518D01*
X135310860Y-105294443D01*
X135289191Y-105284194D01*
X135268632Y-105271871D01*
X135249379Y-105257593D01*
X135231619Y-105241496D01*
X134886198Y-104896075D01*
X134870101Y-104878315D01*
X134855823Y-104859062D01*
X134843500Y-104838503D01*
X134833251Y-104816834D01*
X134825176Y-104794266D01*
X134819352Y-104771015D01*
X134815835Y-104747305D01*
X134814659Y-104723364D01*
X134815835Y-104699423D01*
X134819352Y-104675713D01*
X134825176Y-104652462D01*
X134833251Y-104629894D01*
X134843500Y-104608225D01*
X134855823Y-104587666D01*
X134870101Y-104568413D01*
X134886198Y-104550653D01*
X135284653Y-104152198D01*
X135302413Y-104136101D01*
X135321666Y-104121823D01*
X135342225Y-104109500D01*
X135363894Y-104099251D01*
X135386462Y-104091176D01*
X135409713Y-104085352D01*
X135433423Y-104081835D01*
X135457364Y-104080659D01*
X135481305Y-104081835D01*
X135481305Y-104081835D01*
G37*
D13*
X135430847Y-104696847D03*
D11*
G36*
X134367611Y-102968141D02*
G01*
X134391321Y-102971658D01*
X134414572Y-102977482D01*
X134437140Y-102985557D01*
X134458809Y-102995806D01*
X134479368Y-103008129D01*
X134498621Y-103022407D01*
X134516381Y-103038504D01*
X134861802Y-103383925D01*
X134877899Y-103401685D01*
X134892177Y-103420938D01*
X134904500Y-103441497D01*
X134914749Y-103463166D01*
X134922824Y-103485734D01*
X134928648Y-103508985D01*
X134932165Y-103532695D01*
X134933341Y-103556636D01*
X134932165Y-103580577D01*
X134928648Y-103604287D01*
X134922824Y-103627538D01*
X134914749Y-103650106D01*
X134904500Y-103671775D01*
X134892177Y-103692334D01*
X134877899Y-103711587D01*
X134861802Y-103729347D01*
X134463347Y-104127802D01*
X134445587Y-104143899D01*
X134426334Y-104158177D01*
X134405775Y-104170500D01*
X134384106Y-104180749D01*
X134361538Y-104188824D01*
X134338287Y-104194648D01*
X134314577Y-104198165D01*
X134290636Y-104199341D01*
X134266695Y-104198165D01*
X134242985Y-104194648D01*
X134219734Y-104188824D01*
X134197166Y-104180749D01*
X134175497Y-104170500D01*
X134154938Y-104158177D01*
X134135685Y-104143899D01*
X134117925Y-104127802D01*
X133772504Y-103782381D01*
X133756407Y-103764621D01*
X133742129Y-103745368D01*
X133729806Y-103724809D01*
X133719557Y-103703140D01*
X133711482Y-103680572D01*
X133705658Y-103657321D01*
X133702141Y-103633611D01*
X133700965Y-103609670D01*
X133702141Y-103585729D01*
X133705658Y-103562019D01*
X133711482Y-103538768D01*
X133719557Y-103516200D01*
X133729806Y-103494531D01*
X133742129Y-103473972D01*
X133756407Y-103454719D01*
X133772504Y-103436959D01*
X134170959Y-103038504D01*
X134188719Y-103022407D01*
X134207972Y-103008129D01*
X134228531Y-102995806D01*
X134250200Y-102985557D01*
X134272768Y-102977482D01*
X134296019Y-102971658D01*
X134319729Y-102968141D01*
X134343670Y-102966965D01*
X134367611Y-102968141D01*
X134367611Y-102968141D01*
G37*
D13*
X134317153Y-103583153D03*
D11*
G36*
X136608784Y-93090668D02*
G01*
X136632494Y-93094185D01*
X136655745Y-93100009D01*
X136678313Y-93108084D01*
X136699982Y-93118333D01*
X136720541Y-93130656D01*
X136739794Y-93144934D01*
X136757554Y-93161031D01*
X137156009Y-93559486D01*
X137172106Y-93577246D01*
X137186384Y-93596499D01*
X137198707Y-93617058D01*
X137208956Y-93638727D01*
X137217031Y-93661295D01*
X137222855Y-93684546D01*
X137226372Y-93708256D01*
X137227548Y-93732197D01*
X137226372Y-93756138D01*
X137222855Y-93779848D01*
X137217031Y-93803099D01*
X137208956Y-93825667D01*
X137198707Y-93847336D01*
X137186384Y-93867895D01*
X137172106Y-93887148D01*
X137156009Y-93904908D01*
X136810588Y-94250329D01*
X136792828Y-94266426D01*
X136773575Y-94280704D01*
X136753016Y-94293027D01*
X136731347Y-94303276D01*
X136708779Y-94311351D01*
X136685528Y-94317175D01*
X136661818Y-94320692D01*
X136637877Y-94321868D01*
X136613936Y-94320692D01*
X136590226Y-94317175D01*
X136566975Y-94311351D01*
X136544407Y-94303276D01*
X136522738Y-94293027D01*
X136502179Y-94280704D01*
X136482926Y-94266426D01*
X136465166Y-94250329D01*
X136066711Y-93851874D01*
X136050614Y-93834114D01*
X136036336Y-93814861D01*
X136024013Y-93794302D01*
X136013764Y-93772633D01*
X136005689Y-93750065D01*
X135999865Y-93726814D01*
X135996348Y-93703104D01*
X135995172Y-93679163D01*
X135996348Y-93655222D01*
X135999865Y-93631512D01*
X136005689Y-93608261D01*
X136013764Y-93585693D01*
X136024013Y-93564024D01*
X136036336Y-93543465D01*
X136050614Y-93524212D01*
X136066711Y-93506452D01*
X136412132Y-93161031D01*
X136429892Y-93144934D01*
X136449145Y-93130656D01*
X136469704Y-93118333D01*
X136491373Y-93108084D01*
X136513941Y-93100009D01*
X136537192Y-93094185D01*
X136560902Y-93090668D01*
X136584843Y-93089492D01*
X136608784Y-93090668D01*
X136608784Y-93090668D01*
G37*
D13*
X136611360Y-93705680D03*
D11*
G36*
X135495090Y-94204362D02*
G01*
X135518800Y-94207879D01*
X135542051Y-94213703D01*
X135564619Y-94221778D01*
X135586288Y-94232027D01*
X135606847Y-94244350D01*
X135626100Y-94258628D01*
X135643860Y-94274725D01*
X136042315Y-94673180D01*
X136058412Y-94690940D01*
X136072690Y-94710193D01*
X136085013Y-94730752D01*
X136095262Y-94752421D01*
X136103337Y-94774989D01*
X136109161Y-94798240D01*
X136112678Y-94821950D01*
X136113854Y-94845891D01*
X136112678Y-94869832D01*
X136109161Y-94893542D01*
X136103337Y-94916793D01*
X136095262Y-94939361D01*
X136085013Y-94961030D01*
X136072690Y-94981589D01*
X136058412Y-95000842D01*
X136042315Y-95018602D01*
X135696894Y-95364023D01*
X135679134Y-95380120D01*
X135659881Y-95394398D01*
X135639322Y-95406721D01*
X135617653Y-95416970D01*
X135595085Y-95425045D01*
X135571834Y-95430869D01*
X135548124Y-95434386D01*
X135524183Y-95435562D01*
X135500242Y-95434386D01*
X135476532Y-95430869D01*
X135453281Y-95425045D01*
X135430713Y-95416970D01*
X135409044Y-95406721D01*
X135388485Y-95394398D01*
X135369232Y-95380120D01*
X135351472Y-95364023D01*
X134953017Y-94965568D01*
X134936920Y-94947808D01*
X134922642Y-94928555D01*
X134910319Y-94907996D01*
X134900070Y-94886327D01*
X134891995Y-94863759D01*
X134886171Y-94840508D01*
X134882654Y-94816798D01*
X134881478Y-94792857D01*
X134882654Y-94768916D01*
X134886171Y-94745206D01*
X134891995Y-94721955D01*
X134900070Y-94699387D01*
X134910319Y-94677718D01*
X134922642Y-94657159D01*
X134936920Y-94637906D01*
X134953017Y-94620146D01*
X135298438Y-94274725D01*
X135316198Y-94258628D01*
X135335451Y-94244350D01*
X135356010Y-94232027D01*
X135377679Y-94221778D01*
X135400247Y-94213703D01*
X135423498Y-94207879D01*
X135447208Y-94204362D01*
X135471149Y-94203186D01*
X135495090Y-94204362D01*
X135495090Y-94204362D01*
G37*
D13*
X135497666Y-94819374D03*
D11*
G36*
X145339691Y-100884176D02*
G01*
X145363401Y-100887693D01*
X145386652Y-100893517D01*
X145409220Y-100901592D01*
X145430889Y-100911841D01*
X145451448Y-100924164D01*
X145470701Y-100938442D01*
X145488461Y-100954539D01*
X145504558Y-100972299D01*
X145518836Y-100991552D01*
X145531159Y-101012111D01*
X145541408Y-101033780D01*
X145549483Y-101056348D01*
X145555307Y-101079599D01*
X145558824Y-101103309D01*
X145560000Y-101127250D01*
X145560000Y-101615750D01*
X145558824Y-101639691D01*
X145555307Y-101663401D01*
X145549483Y-101686652D01*
X145541408Y-101709220D01*
X145531159Y-101730889D01*
X145518836Y-101751448D01*
X145504558Y-101770701D01*
X145488461Y-101788461D01*
X145470701Y-101804558D01*
X145451448Y-101818836D01*
X145430889Y-101831159D01*
X145409220Y-101841408D01*
X145386652Y-101849483D01*
X145363401Y-101855307D01*
X145339691Y-101858824D01*
X145315750Y-101860000D01*
X144752250Y-101860000D01*
X144728309Y-101858824D01*
X144704599Y-101855307D01*
X144681348Y-101849483D01*
X144658780Y-101841408D01*
X144637111Y-101831159D01*
X144616552Y-101818836D01*
X144597299Y-101804558D01*
X144579539Y-101788461D01*
X144563442Y-101770701D01*
X144549164Y-101751448D01*
X144536841Y-101730889D01*
X144526592Y-101709220D01*
X144518517Y-101686652D01*
X144512693Y-101663401D01*
X144509176Y-101639691D01*
X144508000Y-101615750D01*
X144508000Y-101127250D01*
X144509176Y-101103309D01*
X144512693Y-101079599D01*
X144518517Y-101056348D01*
X144526592Y-101033780D01*
X144536841Y-101012111D01*
X144549164Y-100991552D01*
X144563442Y-100972299D01*
X144579539Y-100954539D01*
X144597299Y-100938442D01*
X144616552Y-100924164D01*
X144637111Y-100911841D01*
X144658780Y-100901592D01*
X144681348Y-100893517D01*
X144704599Y-100887693D01*
X144728309Y-100884176D01*
X144752250Y-100883000D01*
X145315750Y-100883000D01*
X145339691Y-100884176D01*
X145339691Y-100884176D01*
G37*
D13*
X145034000Y-101371500D03*
D11*
G36*
X145339691Y-99309176D02*
G01*
X145363401Y-99312693D01*
X145386652Y-99318517D01*
X145409220Y-99326592D01*
X145430889Y-99336841D01*
X145451448Y-99349164D01*
X145470701Y-99363442D01*
X145488461Y-99379539D01*
X145504558Y-99397299D01*
X145518836Y-99416552D01*
X145531159Y-99437111D01*
X145541408Y-99458780D01*
X145549483Y-99481348D01*
X145555307Y-99504599D01*
X145558824Y-99528309D01*
X145560000Y-99552250D01*
X145560000Y-100040750D01*
X145558824Y-100064691D01*
X145555307Y-100088401D01*
X145549483Y-100111652D01*
X145541408Y-100134220D01*
X145531159Y-100155889D01*
X145518836Y-100176448D01*
X145504558Y-100195701D01*
X145488461Y-100213461D01*
X145470701Y-100229558D01*
X145451448Y-100243836D01*
X145430889Y-100256159D01*
X145409220Y-100266408D01*
X145386652Y-100274483D01*
X145363401Y-100280307D01*
X145339691Y-100283824D01*
X145315750Y-100285000D01*
X144752250Y-100285000D01*
X144728309Y-100283824D01*
X144704599Y-100280307D01*
X144681348Y-100274483D01*
X144658780Y-100266408D01*
X144637111Y-100256159D01*
X144616552Y-100243836D01*
X144597299Y-100229558D01*
X144579539Y-100213461D01*
X144563442Y-100195701D01*
X144549164Y-100176448D01*
X144536841Y-100155889D01*
X144526592Y-100134220D01*
X144518517Y-100111652D01*
X144512693Y-100088401D01*
X144509176Y-100064691D01*
X144508000Y-100040750D01*
X144508000Y-99552250D01*
X144509176Y-99528309D01*
X144512693Y-99504599D01*
X144518517Y-99481348D01*
X144526592Y-99458780D01*
X144536841Y-99437111D01*
X144549164Y-99416552D01*
X144563442Y-99397299D01*
X144579539Y-99379539D01*
X144597299Y-99363442D01*
X144616552Y-99349164D01*
X144637111Y-99336841D01*
X144658780Y-99326592D01*
X144681348Y-99318517D01*
X144704599Y-99312693D01*
X144728309Y-99309176D01*
X144752250Y-99308000D01*
X145315750Y-99308000D01*
X145339691Y-99309176D01*
X145339691Y-99309176D01*
G37*
D13*
X145034000Y-99796500D03*
D11*
G36*
X145847691Y-103373176D02*
G01*
X145871401Y-103376693D01*
X145894652Y-103382517D01*
X145917220Y-103390592D01*
X145938889Y-103400841D01*
X145959448Y-103413164D01*
X145978701Y-103427442D01*
X145996461Y-103443539D01*
X146012558Y-103461299D01*
X146026836Y-103480552D01*
X146039159Y-103501111D01*
X146049408Y-103522780D01*
X146057483Y-103545348D01*
X146063307Y-103568599D01*
X146066824Y-103592309D01*
X146068000Y-103616250D01*
X146068000Y-104104750D01*
X146066824Y-104128691D01*
X146063307Y-104152401D01*
X146057483Y-104175652D01*
X146049408Y-104198220D01*
X146039159Y-104219889D01*
X146026836Y-104240448D01*
X146012558Y-104259701D01*
X145996461Y-104277461D01*
X145978701Y-104293558D01*
X145959448Y-104307836D01*
X145938889Y-104320159D01*
X145917220Y-104330408D01*
X145894652Y-104338483D01*
X145871401Y-104344307D01*
X145847691Y-104347824D01*
X145823750Y-104349000D01*
X145260250Y-104349000D01*
X145236309Y-104347824D01*
X145212599Y-104344307D01*
X145189348Y-104338483D01*
X145166780Y-104330408D01*
X145145111Y-104320159D01*
X145124552Y-104307836D01*
X145105299Y-104293558D01*
X145087539Y-104277461D01*
X145071442Y-104259701D01*
X145057164Y-104240448D01*
X145044841Y-104219889D01*
X145034592Y-104198220D01*
X145026517Y-104175652D01*
X145020693Y-104152401D01*
X145017176Y-104128691D01*
X145016000Y-104104750D01*
X145016000Y-103616250D01*
X145017176Y-103592309D01*
X145020693Y-103568599D01*
X145026517Y-103545348D01*
X145034592Y-103522780D01*
X145044841Y-103501111D01*
X145057164Y-103480552D01*
X145071442Y-103461299D01*
X145087539Y-103443539D01*
X145105299Y-103427442D01*
X145124552Y-103413164D01*
X145145111Y-103400841D01*
X145166780Y-103390592D01*
X145189348Y-103382517D01*
X145212599Y-103376693D01*
X145236309Y-103373176D01*
X145260250Y-103372000D01*
X145823750Y-103372000D01*
X145847691Y-103373176D01*
X145847691Y-103373176D01*
G37*
D13*
X145542000Y-103860500D03*
D11*
G36*
X145847691Y-104948176D02*
G01*
X145871401Y-104951693D01*
X145894652Y-104957517D01*
X145917220Y-104965592D01*
X145938889Y-104975841D01*
X145959448Y-104988164D01*
X145978701Y-105002442D01*
X145996461Y-105018539D01*
X146012558Y-105036299D01*
X146026836Y-105055552D01*
X146039159Y-105076111D01*
X146049408Y-105097780D01*
X146057483Y-105120348D01*
X146063307Y-105143599D01*
X146066824Y-105167309D01*
X146068000Y-105191250D01*
X146068000Y-105679750D01*
X146066824Y-105703691D01*
X146063307Y-105727401D01*
X146057483Y-105750652D01*
X146049408Y-105773220D01*
X146039159Y-105794889D01*
X146026836Y-105815448D01*
X146012558Y-105834701D01*
X145996461Y-105852461D01*
X145978701Y-105868558D01*
X145959448Y-105882836D01*
X145938889Y-105895159D01*
X145917220Y-105905408D01*
X145894652Y-105913483D01*
X145871401Y-105919307D01*
X145847691Y-105922824D01*
X145823750Y-105924000D01*
X145260250Y-105924000D01*
X145236309Y-105922824D01*
X145212599Y-105919307D01*
X145189348Y-105913483D01*
X145166780Y-105905408D01*
X145145111Y-105895159D01*
X145124552Y-105882836D01*
X145105299Y-105868558D01*
X145087539Y-105852461D01*
X145071442Y-105834701D01*
X145057164Y-105815448D01*
X145044841Y-105794889D01*
X145034592Y-105773220D01*
X145026517Y-105750652D01*
X145020693Y-105727401D01*
X145017176Y-105703691D01*
X145016000Y-105679750D01*
X145016000Y-105191250D01*
X145017176Y-105167309D01*
X145020693Y-105143599D01*
X145026517Y-105120348D01*
X145034592Y-105097780D01*
X145044841Y-105076111D01*
X145057164Y-105055552D01*
X145071442Y-105036299D01*
X145087539Y-105018539D01*
X145105299Y-105002442D01*
X145124552Y-104988164D01*
X145145111Y-104975841D01*
X145166780Y-104965592D01*
X145189348Y-104957517D01*
X145212599Y-104951693D01*
X145236309Y-104948176D01*
X145260250Y-104947000D01*
X145823750Y-104947000D01*
X145847691Y-104948176D01*
X145847691Y-104948176D01*
G37*
D13*
X145542000Y-105435500D03*
D11*
G36*
X136653611Y-105254141D02*
G01*
X136677321Y-105257658D01*
X136700572Y-105263482D01*
X136723140Y-105271557D01*
X136744809Y-105281806D01*
X136765368Y-105294129D01*
X136784621Y-105308407D01*
X136802381Y-105324504D01*
X137147802Y-105669925D01*
X137163899Y-105687685D01*
X137178177Y-105706938D01*
X137190500Y-105727497D01*
X137200749Y-105749166D01*
X137208824Y-105771734D01*
X137214648Y-105794985D01*
X137218165Y-105818695D01*
X137219341Y-105842636D01*
X137218165Y-105866577D01*
X137214648Y-105890287D01*
X137208824Y-105913538D01*
X137200749Y-105936106D01*
X137190500Y-105957775D01*
X137178177Y-105978334D01*
X137163899Y-105997587D01*
X137147802Y-106015347D01*
X136749347Y-106413802D01*
X136731587Y-106429899D01*
X136712334Y-106444177D01*
X136691775Y-106456500D01*
X136670106Y-106466749D01*
X136647538Y-106474824D01*
X136624287Y-106480648D01*
X136600577Y-106484165D01*
X136576636Y-106485341D01*
X136552695Y-106484165D01*
X136528985Y-106480648D01*
X136505734Y-106474824D01*
X136483166Y-106466749D01*
X136461497Y-106456500D01*
X136440938Y-106444177D01*
X136421685Y-106429899D01*
X136403925Y-106413802D01*
X136058504Y-106068381D01*
X136042407Y-106050621D01*
X136028129Y-106031368D01*
X136015806Y-106010809D01*
X136005557Y-105989140D01*
X135997482Y-105966572D01*
X135991658Y-105943321D01*
X135988141Y-105919611D01*
X135986965Y-105895670D01*
X135988141Y-105871729D01*
X135991658Y-105848019D01*
X135997482Y-105824768D01*
X136005557Y-105802200D01*
X136015806Y-105780531D01*
X136028129Y-105759972D01*
X136042407Y-105740719D01*
X136058504Y-105722959D01*
X136456959Y-105324504D01*
X136474719Y-105308407D01*
X136493972Y-105294129D01*
X136514531Y-105281806D01*
X136536200Y-105271557D01*
X136558768Y-105263482D01*
X136582019Y-105257658D01*
X136605729Y-105254141D01*
X136629670Y-105252965D01*
X136653611Y-105254141D01*
X136653611Y-105254141D01*
G37*
D13*
X136603153Y-105869153D03*
D11*
G36*
X137767305Y-106367835D02*
G01*
X137791015Y-106371352D01*
X137814266Y-106377176D01*
X137836834Y-106385251D01*
X137858503Y-106395500D01*
X137879062Y-106407823D01*
X137898315Y-106422101D01*
X137916075Y-106438198D01*
X138261496Y-106783619D01*
X138277593Y-106801379D01*
X138291871Y-106820632D01*
X138304194Y-106841191D01*
X138314443Y-106862860D01*
X138322518Y-106885428D01*
X138328342Y-106908679D01*
X138331859Y-106932389D01*
X138333035Y-106956330D01*
X138331859Y-106980271D01*
X138328342Y-107003981D01*
X138322518Y-107027232D01*
X138314443Y-107049800D01*
X138304194Y-107071469D01*
X138291871Y-107092028D01*
X138277593Y-107111281D01*
X138261496Y-107129041D01*
X137863041Y-107527496D01*
X137845281Y-107543593D01*
X137826028Y-107557871D01*
X137805469Y-107570194D01*
X137783800Y-107580443D01*
X137761232Y-107588518D01*
X137737981Y-107594342D01*
X137714271Y-107597859D01*
X137690330Y-107599035D01*
X137666389Y-107597859D01*
X137642679Y-107594342D01*
X137619428Y-107588518D01*
X137596860Y-107580443D01*
X137575191Y-107570194D01*
X137554632Y-107557871D01*
X137535379Y-107543593D01*
X137517619Y-107527496D01*
X137172198Y-107182075D01*
X137156101Y-107164315D01*
X137141823Y-107145062D01*
X137129500Y-107124503D01*
X137119251Y-107102834D01*
X137111176Y-107080266D01*
X137105352Y-107057015D01*
X137101835Y-107033305D01*
X137100659Y-107009364D01*
X137101835Y-106985423D01*
X137105352Y-106961713D01*
X137111176Y-106938462D01*
X137119251Y-106915894D01*
X137129500Y-106894225D01*
X137141823Y-106873666D01*
X137156101Y-106854413D01*
X137172198Y-106836653D01*
X137570653Y-106438198D01*
X137588413Y-106422101D01*
X137607666Y-106407823D01*
X137628225Y-106395500D01*
X137649894Y-106385251D01*
X137672462Y-106377176D01*
X137695713Y-106371352D01*
X137719423Y-106367835D01*
X137743364Y-106366659D01*
X137767305Y-106367835D01*
X137767305Y-106367835D01*
G37*
D13*
X137716847Y-106982847D03*
D11*
G36*
X132854664Y-96830722D02*
G01*
X132878374Y-96834239D01*
X132901625Y-96840063D01*
X132924193Y-96848138D01*
X132945862Y-96858387D01*
X132966421Y-96870710D01*
X132985674Y-96884988D01*
X133003434Y-96901085D01*
X133401889Y-97299540D01*
X133417986Y-97317300D01*
X133432264Y-97336553D01*
X133444587Y-97357112D01*
X133454836Y-97378781D01*
X133462911Y-97401349D01*
X133468735Y-97424600D01*
X133472252Y-97448310D01*
X133473428Y-97472251D01*
X133472252Y-97496192D01*
X133468735Y-97519902D01*
X133462911Y-97543153D01*
X133454836Y-97565721D01*
X133444587Y-97587390D01*
X133432264Y-97607949D01*
X133417986Y-97627202D01*
X133401889Y-97644962D01*
X133056468Y-97990383D01*
X133038708Y-98006480D01*
X133019455Y-98020758D01*
X132998896Y-98033081D01*
X132977227Y-98043330D01*
X132954659Y-98051405D01*
X132931408Y-98057229D01*
X132907698Y-98060746D01*
X132883757Y-98061922D01*
X132859816Y-98060746D01*
X132836106Y-98057229D01*
X132812855Y-98051405D01*
X132790287Y-98043330D01*
X132768618Y-98033081D01*
X132748059Y-98020758D01*
X132728806Y-98006480D01*
X132711046Y-97990383D01*
X132312591Y-97591928D01*
X132296494Y-97574168D01*
X132282216Y-97554915D01*
X132269893Y-97534356D01*
X132259644Y-97512687D01*
X132251569Y-97490119D01*
X132245745Y-97466868D01*
X132242228Y-97443158D01*
X132241052Y-97419217D01*
X132242228Y-97395276D01*
X132245745Y-97371566D01*
X132251569Y-97348315D01*
X132259644Y-97325747D01*
X132269893Y-97304078D01*
X132282216Y-97283519D01*
X132296494Y-97264266D01*
X132312591Y-97246506D01*
X132658012Y-96901085D01*
X132675772Y-96884988D01*
X132695025Y-96870710D01*
X132715584Y-96858387D01*
X132737253Y-96848138D01*
X132759821Y-96840063D01*
X132783072Y-96834239D01*
X132806782Y-96830722D01*
X132830723Y-96829546D01*
X132854664Y-96830722D01*
X132854664Y-96830722D01*
G37*
D13*
X132857240Y-97445734D03*
D11*
G36*
X133968358Y-95717028D02*
G01*
X133992068Y-95720545D01*
X134015319Y-95726369D01*
X134037887Y-95734444D01*
X134059556Y-95744693D01*
X134080115Y-95757016D01*
X134099368Y-95771294D01*
X134117128Y-95787391D01*
X134515583Y-96185846D01*
X134531680Y-96203606D01*
X134545958Y-96222859D01*
X134558281Y-96243418D01*
X134568530Y-96265087D01*
X134576605Y-96287655D01*
X134582429Y-96310906D01*
X134585946Y-96334616D01*
X134587122Y-96358557D01*
X134585946Y-96382498D01*
X134582429Y-96406208D01*
X134576605Y-96429459D01*
X134568530Y-96452027D01*
X134558281Y-96473696D01*
X134545958Y-96494255D01*
X134531680Y-96513508D01*
X134515583Y-96531268D01*
X134170162Y-96876689D01*
X134152402Y-96892786D01*
X134133149Y-96907064D01*
X134112590Y-96919387D01*
X134090921Y-96929636D01*
X134068353Y-96937711D01*
X134045102Y-96943535D01*
X134021392Y-96947052D01*
X133997451Y-96948228D01*
X133973510Y-96947052D01*
X133949800Y-96943535D01*
X133926549Y-96937711D01*
X133903981Y-96929636D01*
X133882312Y-96919387D01*
X133861753Y-96907064D01*
X133842500Y-96892786D01*
X133824740Y-96876689D01*
X133426285Y-96478234D01*
X133410188Y-96460474D01*
X133395910Y-96441221D01*
X133383587Y-96420662D01*
X133373338Y-96398993D01*
X133365263Y-96376425D01*
X133359439Y-96353174D01*
X133355922Y-96329464D01*
X133354746Y-96305523D01*
X133355922Y-96281582D01*
X133359439Y-96257872D01*
X133365263Y-96234621D01*
X133373338Y-96212053D01*
X133383587Y-96190384D01*
X133395910Y-96169825D01*
X133410188Y-96150572D01*
X133426285Y-96132812D01*
X133771706Y-95787391D01*
X133789466Y-95771294D01*
X133808719Y-95757016D01*
X133829278Y-95744693D01*
X133850947Y-95734444D01*
X133873515Y-95726369D01*
X133896766Y-95720545D01*
X133920476Y-95717028D01*
X133944417Y-95715852D01*
X133968358Y-95717028D01*
X133968358Y-95717028D01*
G37*
D13*
X133970934Y-96332040D03*
D11*
G36*
X157480141Y-117826797D02*
G01*
X157506278Y-117830674D01*
X157531909Y-117837094D01*
X157556788Y-117845995D01*
X157580674Y-117857293D01*
X157603337Y-117870877D01*
X157624560Y-117886617D01*
X157644139Y-117904361D01*
X157661883Y-117923940D01*
X157677623Y-117945163D01*
X157691207Y-117967826D01*
X157702505Y-117991712D01*
X157711406Y-118016591D01*
X157717826Y-118042222D01*
X157721703Y-118068359D01*
X157723000Y-118094750D01*
X157723000Y-118633250D01*
X157721703Y-118659641D01*
X157717826Y-118685778D01*
X157711406Y-118711409D01*
X157702505Y-118736288D01*
X157691207Y-118760174D01*
X157677623Y-118782837D01*
X157661883Y-118804060D01*
X157644139Y-118823639D01*
X157624560Y-118841383D01*
X157603337Y-118857123D01*
X157580674Y-118870707D01*
X157556788Y-118882005D01*
X157531909Y-118890906D01*
X157506278Y-118897326D01*
X157480141Y-118901203D01*
X157453750Y-118902500D01*
X156490250Y-118902500D01*
X156463859Y-118901203D01*
X156437722Y-118897326D01*
X156412091Y-118890906D01*
X156387212Y-118882005D01*
X156363326Y-118870707D01*
X156340663Y-118857123D01*
X156319440Y-118841383D01*
X156299861Y-118823639D01*
X156282117Y-118804060D01*
X156266377Y-118782837D01*
X156252793Y-118760174D01*
X156241495Y-118736288D01*
X156232594Y-118711409D01*
X156226174Y-118685778D01*
X156222297Y-118659641D01*
X156221000Y-118633250D01*
X156221000Y-118094750D01*
X156222297Y-118068359D01*
X156226174Y-118042222D01*
X156232594Y-118016591D01*
X156241495Y-117991712D01*
X156252793Y-117967826D01*
X156266377Y-117945163D01*
X156282117Y-117923940D01*
X156299861Y-117904361D01*
X156319440Y-117886617D01*
X156340663Y-117870877D01*
X156363326Y-117857293D01*
X156387212Y-117845995D01*
X156412091Y-117837094D01*
X156437722Y-117830674D01*
X156463859Y-117826797D01*
X156490250Y-117825500D01*
X157453750Y-117825500D01*
X157480141Y-117826797D01*
X157480141Y-117826797D01*
G37*
D12*
X156972000Y-118364000D03*
D11*
G36*
X157480141Y-115951797D02*
G01*
X157506278Y-115955674D01*
X157531909Y-115962094D01*
X157556788Y-115970995D01*
X157580674Y-115982293D01*
X157603337Y-115995877D01*
X157624560Y-116011617D01*
X157644139Y-116029361D01*
X157661883Y-116048940D01*
X157677623Y-116070163D01*
X157691207Y-116092826D01*
X157702505Y-116116712D01*
X157711406Y-116141591D01*
X157717826Y-116167222D01*
X157721703Y-116193359D01*
X157723000Y-116219750D01*
X157723000Y-116758250D01*
X157721703Y-116784641D01*
X157717826Y-116810778D01*
X157711406Y-116836409D01*
X157702505Y-116861288D01*
X157691207Y-116885174D01*
X157677623Y-116907837D01*
X157661883Y-116929060D01*
X157644139Y-116948639D01*
X157624560Y-116966383D01*
X157603337Y-116982123D01*
X157580674Y-116995707D01*
X157556788Y-117007005D01*
X157531909Y-117015906D01*
X157506278Y-117022326D01*
X157480141Y-117026203D01*
X157453750Y-117027500D01*
X156490250Y-117027500D01*
X156463859Y-117026203D01*
X156437722Y-117022326D01*
X156412091Y-117015906D01*
X156387212Y-117007005D01*
X156363326Y-116995707D01*
X156340663Y-116982123D01*
X156319440Y-116966383D01*
X156299861Y-116948639D01*
X156282117Y-116929060D01*
X156266377Y-116907837D01*
X156252793Y-116885174D01*
X156241495Y-116861288D01*
X156232594Y-116836409D01*
X156226174Y-116810778D01*
X156222297Y-116784641D01*
X156221000Y-116758250D01*
X156221000Y-116219750D01*
X156222297Y-116193359D01*
X156226174Y-116167222D01*
X156232594Y-116141591D01*
X156241495Y-116116712D01*
X156252793Y-116092826D01*
X156266377Y-116070163D01*
X156282117Y-116048940D01*
X156299861Y-116029361D01*
X156319440Y-116011617D01*
X156340663Y-115995877D01*
X156363326Y-115982293D01*
X156387212Y-115970995D01*
X156412091Y-115962094D01*
X156437722Y-115955674D01*
X156463859Y-115951797D01*
X156490250Y-115950500D01*
X157453750Y-115950500D01*
X157480141Y-115951797D01*
X157480141Y-115951797D01*
G37*
D12*
X156972000Y-116489000D03*
D11*
G36*
X133932901Y-93199817D02*
G01*
X133959038Y-93203694D01*
X133984669Y-93210114D01*
X134009548Y-93219015D01*
X134033434Y-93230313D01*
X134056097Y-93243897D01*
X134077320Y-93259637D01*
X134096899Y-93277381D01*
X134114643Y-93296960D01*
X134130383Y-93318183D01*
X134143967Y-93340846D01*
X134155265Y-93364732D01*
X134164166Y-93389611D01*
X134170586Y-93415242D01*
X134174463Y-93441379D01*
X134175760Y-93467770D01*
X134175760Y-94431270D01*
X134174463Y-94457661D01*
X134170586Y-94483798D01*
X134164166Y-94509429D01*
X134155265Y-94534308D01*
X134143967Y-94558194D01*
X134130383Y-94580857D01*
X134114643Y-94602080D01*
X134096899Y-94621659D01*
X134077320Y-94639403D01*
X134056097Y-94655143D01*
X134033434Y-94668727D01*
X134009548Y-94680025D01*
X133984669Y-94688926D01*
X133959038Y-94695346D01*
X133932901Y-94699223D01*
X133906510Y-94700520D01*
X133368010Y-94700520D01*
X133341619Y-94699223D01*
X133315482Y-94695346D01*
X133289851Y-94688926D01*
X133264972Y-94680025D01*
X133241086Y-94668727D01*
X133218423Y-94655143D01*
X133197200Y-94639403D01*
X133177621Y-94621659D01*
X133159877Y-94602080D01*
X133144137Y-94580857D01*
X133130553Y-94558194D01*
X133119255Y-94534308D01*
X133110354Y-94509429D01*
X133103934Y-94483798D01*
X133100057Y-94457661D01*
X133098760Y-94431270D01*
X133098760Y-93467770D01*
X133100057Y-93441379D01*
X133103934Y-93415242D01*
X133110354Y-93389611D01*
X133119255Y-93364732D01*
X133130553Y-93340846D01*
X133144137Y-93318183D01*
X133159877Y-93296960D01*
X133177621Y-93277381D01*
X133197200Y-93259637D01*
X133218423Y-93243897D01*
X133241086Y-93230313D01*
X133264972Y-93219015D01*
X133289851Y-93210114D01*
X133315482Y-93203694D01*
X133341619Y-93199817D01*
X133368010Y-93198520D01*
X133906510Y-93198520D01*
X133932901Y-93199817D01*
X133932901Y-93199817D01*
G37*
D12*
X133637260Y-93949520D03*
D11*
G36*
X132057901Y-93199817D02*
G01*
X132084038Y-93203694D01*
X132109669Y-93210114D01*
X132134548Y-93219015D01*
X132158434Y-93230313D01*
X132181097Y-93243897D01*
X132202320Y-93259637D01*
X132221899Y-93277381D01*
X132239643Y-93296960D01*
X132255383Y-93318183D01*
X132268967Y-93340846D01*
X132280265Y-93364732D01*
X132289166Y-93389611D01*
X132295586Y-93415242D01*
X132299463Y-93441379D01*
X132300760Y-93467770D01*
X132300760Y-94431270D01*
X132299463Y-94457661D01*
X132295586Y-94483798D01*
X132289166Y-94509429D01*
X132280265Y-94534308D01*
X132268967Y-94558194D01*
X132255383Y-94580857D01*
X132239643Y-94602080D01*
X132221899Y-94621659D01*
X132202320Y-94639403D01*
X132181097Y-94655143D01*
X132158434Y-94668727D01*
X132134548Y-94680025D01*
X132109669Y-94688926D01*
X132084038Y-94695346D01*
X132057901Y-94699223D01*
X132031510Y-94700520D01*
X131493010Y-94700520D01*
X131466619Y-94699223D01*
X131440482Y-94695346D01*
X131414851Y-94688926D01*
X131389972Y-94680025D01*
X131366086Y-94668727D01*
X131343423Y-94655143D01*
X131322200Y-94639403D01*
X131302621Y-94621659D01*
X131284877Y-94602080D01*
X131269137Y-94580857D01*
X131255553Y-94558194D01*
X131244255Y-94534308D01*
X131235354Y-94509429D01*
X131228934Y-94483798D01*
X131225057Y-94457661D01*
X131223760Y-94431270D01*
X131223760Y-93467770D01*
X131225057Y-93441379D01*
X131228934Y-93415242D01*
X131235354Y-93389611D01*
X131244255Y-93364732D01*
X131255553Y-93340846D01*
X131269137Y-93318183D01*
X131284877Y-93296960D01*
X131302621Y-93277381D01*
X131322200Y-93259637D01*
X131343423Y-93243897D01*
X131366086Y-93230313D01*
X131389972Y-93219015D01*
X131414851Y-93210114D01*
X131440482Y-93203694D01*
X131466619Y-93199817D01*
X131493010Y-93198520D01*
X132031510Y-93198520D01*
X132057901Y-93199817D01*
X132057901Y-93199817D01*
G37*
D12*
X131762260Y-93949520D03*
D11*
G36*
X122047141Y-89203297D02*
G01*
X122073278Y-89207174D01*
X122098909Y-89213594D01*
X122123788Y-89222495D01*
X122147674Y-89233793D01*
X122170337Y-89247377D01*
X122191560Y-89263117D01*
X122211139Y-89280861D01*
X122228883Y-89300440D01*
X122244623Y-89321663D01*
X122258207Y-89344326D01*
X122269505Y-89368212D01*
X122278406Y-89393091D01*
X122284826Y-89418722D01*
X122288703Y-89444859D01*
X122290000Y-89471250D01*
X122290000Y-90009750D01*
X122288703Y-90036141D01*
X122284826Y-90062278D01*
X122278406Y-90087909D01*
X122269505Y-90112788D01*
X122258207Y-90136674D01*
X122244623Y-90159337D01*
X122228883Y-90180560D01*
X122211139Y-90200139D01*
X122191560Y-90217883D01*
X122170337Y-90233623D01*
X122147674Y-90247207D01*
X122123788Y-90258505D01*
X122098909Y-90267406D01*
X122073278Y-90273826D01*
X122047141Y-90277703D01*
X122020750Y-90279000D01*
X121057250Y-90279000D01*
X121030859Y-90277703D01*
X121004722Y-90273826D01*
X120979091Y-90267406D01*
X120954212Y-90258505D01*
X120930326Y-90247207D01*
X120907663Y-90233623D01*
X120886440Y-90217883D01*
X120866861Y-90200139D01*
X120849117Y-90180560D01*
X120833377Y-90159337D01*
X120819793Y-90136674D01*
X120808495Y-90112788D01*
X120799594Y-90087909D01*
X120793174Y-90062278D01*
X120789297Y-90036141D01*
X120788000Y-90009750D01*
X120788000Y-89471250D01*
X120789297Y-89444859D01*
X120793174Y-89418722D01*
X120799594Y-89393091D01*
X120808495Y-89368212D01*
X120819793Y-89344326D01*
X120833377Y-89321663D01*
X120849117Y-89300440D01*
X120866861Y-89280861D01*
X120886440Y-89263117D01*
X120907663Y-89247377D01*
X120930326Y-89233793D01*
X120954212Y-89222495D01*
X120979091Y-89213594D01*
X121004722Y-89207174D01*
X121030859Y-89203297D01*
X121057250Y-89202000D01*
X122020750Y-89202000D01*
X122047141Y-89203297D01*
X122047141Y-89203297D01*
G37*
D12*
X121539000Y-89740500D03*
D11*
G36*
X122047141Y-91078297D02*
G01*
X122073278Y-91082174D01*
X122098909Y-91088594D01*
X122123788Y-91097495D01*
X122147674Y-91108793D01*
X122170337Y-91122377D01*
X122191560Y-91138117D01*
X122211139Y-91155861D01*
X122228883Y-91175440D01*
X122244623Y-91196663D01*
X122258207Y-91219326D01*
X122269505Y-91243212D01*
X122278406Y-91268091D01*
X122284826Y-91293722D01*
X122288703Y-91319859D01*
X122290000Y-91346250D01*
X122290000Y-91884750D01*
X122288703Y-91911141D01*
X122284826Y-91937278D01*
X122278406Y-91962909D01*
X122269505Y-91987788D01*
X122258207Y-92011674D01*
X122244623Y-92034337D01*
X122228883Y-92055560D01*
X122211139Y-92075139D01*
X122191560Y-92092883D01*
X122170337Y-92108623D01*
X122147674Y-92122207D01*
X122123788Y-92133505D01*
X122098909Y-92142406D01*
X122073278Y-92148826D01*
X122047141Y-92152703D01*
X122020750Y-92154000D01*
X121057250Y-92154000D01*
X121030859Y-92152703D01*
X121004722Y-92148826D01*
X120979091Y-92142406D01*
X120954212Y-92133505D01*
X120930326Y-92122207D01*
X120907663Y-92108623D01*
X120886440Y-92092883D01*
X120866861Y-92075139D01*
X120849117Y-92055560D01*
X120833377Y-92034337D01*
X120819793Y-92011674D01*
X120808495Y-91987788D01*
X120799594Y-91962909D01*
X120793174Y-91937278D01*
X120789297Y-91911141D01*
X120788000Y-91884750D01*
X120788000Y-91346250D01*
X120789297Y-91319859D01*
X120793174Y-91293722D01*
X120799594Y-91268091D01*
X120808495Y-91243212D01*
X120819793Y-91219326D01*
X120833377Y-91196663D01*
X120849117Y-91175440D01*
X120866861Y-91155861D01*
X120886440Y-91138117D01*
X120907663Y-91122377D01*
X120930326Y-91108793D01*
X120954212Y-91097495D01*
X120979091Y-91088594D01*
X121004722Y-91082174D01*
X121030859Y-91078297D01*
X121057250Y-91077000D01*
X122020750Y-91077000D01*
X122047141Y-91078297D01*
X122047141Y-91078297D01*
G37*
D12*
X121539000Y-91615500D03*
M02*
