G04 #@! TF.GenerationSoftware,KiCad,Pcbnew,(5.1.2)-2*
G04 #@! TF.CreationDate,2020-03-18T10:10:33+01:00*
G04 #@! TF.ProjectId,n64rgbv2.1,6e363472-6762-4763-922e-312e6b696361,rev?*
G04 #@! TF.SameCoordinates,Original*
G04 #@! TF.FileFunction,Legend,Bot*
G04 #@! TF.FilePolarity,Positive*
%FSLAX46Y46*%
G04 Gerber Fmt 4.6, Leading zero omitted, Abs format (unit mm)*
G04 Created by KiCad (PCBNEW (5.1.2)-2) date 2020-03-18 10:10:33*
%MOMM*%
%LPD*%
G04 APERTURE LIST*
%ADD10C,0.150000*%
%ADD11C,0.120000*%
G04 APERTURE END LIST*
D10*
X115908580Y-93705995D02*
X114908580Y-93705995D01*
X114908580Y-93944090D01*
X114956200Y-94086947D01*
X115051438Y-94182185D01*
X115146676Y-94229804D01*
X115337152Y-94277423D01*
X115480009Y-94277423D01*
X115670485Y-94229804D01*
X115765723Y-94182185D01*
X115860961Y-94086947D01*
X115908580Y-93944090D01*
X115908580Y-93705995D01*
X115908580Y-94848852D02*
X115860961Y-94753614D01*
X115813342Y-94705995D01*
X115718104Y-94658376D01*
X115432390Y-94658376D01*
X115337152Y-94705995D01*
X115289533Y-94753614D01*
X115241914Y-94848852D01*
X115241914Y-94991709D01*
X115289533Y-95086947D01*
X115337152Y-95134566D01*
X115432390Y-95182185D01*
X115718104Y-95182185D01*
X115813342Y-95134566D01*
X115860961Y-95086947D01*
X115908580Y-94991709D01*
X115908580Y-94848852D01*
X115241914Y-95610757D02*
X115908580Y-95610757D01*
X115337152Y-95610757D02*
X115289533Y-95658376D01*
X115241914Y-95753614D01*
X115241914Y-95896471D01*
X115289533Y-95991709D01*
X115384771Y-96039328D01*
X115908580Y-96039328D01*
X114908580Y-96563138D02*
X115099057Y-96467900D01*
X115241914Y-96848852D02*
X115241914Y-97229804D01*
X114908580Y-96991709D02*
X115765723Y-96991709D01*
X115860961Y-97039328D01*
X115908580Y-97134566D01*
X115908580Y-97229804D01*
X115241914Y-98753614D02*
X115908580Y-98753614D01*
X115241914Y-98325042D02*
X115765723Y-98325042D01*
X115860961Y-98372661D01*
X115908580Y-98467900D01*
X115908580Y-98610757D01*
X115860961Y-98705995D01*
X115813342Y-98753614D01*
X115860961Y-99182185D02*
X115908580Y-99277423D01*
X115908580Y-99467900D01*
X115860961Y-99563138D01*
X115765723Y-99610757D01*
X115718104Y-99610757D01*
X115622866Y-99563138D01*
X115575247Y-99467900D01*
X115575247Y-99325042D01*
X115527628Y-99229804D01*
X115432390Y-99182185D01*
X115384771Y-99182185D01*
X115289533Y-99229804D01*
X115241914Y-99325042D01*
X115241914Y-99467900D01*
X115289533Y-99563138D01*
X115860961Y-100420280D02*
X115908580Y-100325042D01*
X115908580Y-100134566D01*
X115860961Y-100039328D01*
X115765723Y-99991709D01*
X115384771Y-99991709D01*
X115289533Y-100039328D01*
X115241914Y-100134566D01*
X115241914Y-100325042D01*
X115289533Y-100420280D01*
X115384771Y-100467900D01*
X115480009Y-100467900D01*
X115575247Y-99991709D01*
X114908580Y-101658376D02*
X115718104Y-101658376D01*
X115813342Y-101705995D01*
X115860961Y-101753614D01*
X115908580Y-101848852D01*
X115908580Y-102039328D01*
X115860961Y-102134566D01*
X115813342Y-102182185D01*
X115718104Y-102229804D01*
X114908580Y-102229804D01*
X115241914Y-103134566D02*
X115908580Y-103134566D01*
X114860961Y-102896471D02*
X115575247Y-102658376D01*
X115575247Y-103277423D01*
X115860961Y-103705995D02*
X115908580Y-103705995D01*
X116003819Y-103658376D01*
X116051438Y-103610757D01*
X115813342Y-104705995D02*
X115860961Y-104658376D01*
X115908580Y-104515519D01*
X115908580Y-104420280D01*
X115860961Y-104277423D01*
X115765723Y-104182185D01*
X115670485Y-104134566D01*
X115480009Y-104086947D01*
X115337152Y-104086947D01*
X115146676Y-104134566D01*
X115051438Y-104182185D01*
X114956200Y-104277423D01*
X114908580Y-104420280D01*
X114908580Y-104515519D01*
X114956200Y-104658376D01*
X115003819Y-104705995D01*
X115241914Y-105563138D02*
X115908580Y-105563138D01*
X114860961Y-105325042D02*
X115575247Y-105086947D01*
X115575247Y-105705995D01*
X115908580Y-106610757D02*
X115908580Y-106039328D01*
X115908580Y-106325042D02*
X114908580Y-106325042D01*
X115051438Y-106229804D01*
X115146676Y-106134566D01*
X115194295Y-106039328D01*
X115860961Y-107086947D02*
X115908580Y-107086947D01*
X116003819Y-107039328D01*
X116051438Y-106991709D01*
X115813342Y-108086947D02*
X115860961Y-108039328D01*
X115908580Y-107896471D01*
X115908580Y-107801233D01*
X115860961Y-107658376D01*
X115765723Y-107563138D01*
X115670485Y-107515519D01*
X115480009Y-107467900D01*
X115337152Y-107467900D01*
X115146676Y-107515519D01*
X115051438Y-107563138D01*
X114956200Y-107658376D01*
X114908580Y-107801233D01*
X114908580Y-107896471D01*
X114956200Y-108039328D01*
X115003819Y-108086947D01*
X115241914Y-108944090D02*
X115908580Y-108944090D01*
X114860961Y-108705995D02*
X115575247Y-108467900D01*
X115575247Y-109086947D01*
X115003819Y-109420280D02*
X114956200Y-109467900D01*
X114908580Y-109563138D01*
X114908580Y-109801233D01*
X114956200Y-109896471D01*
X115003819Y-109944090D01*
X115099057Y-109991709D01*
X115194295Y-109991709D01*
X115337152Y-109944090D01*
X115908580Y-109372661D01*
X115908580Y-109991709D01*
X117558580Y-93705995D02*
X116558580Y-93705995D01*
X116558580Y-93944090D01*
X116606200Y-94086947D01*
X116701438Y-94182185D01*
X116796676Y-94229804D01*
X116987152Y-94277423D01*
X117130009Y-94277423D01*
X117320485Y-94229804D01*
X117415723Y-94182185D01*
X117510961Y-94086947D01*
X117558580Y-93944090D01*
X117558580Y-93705995D01*
X117558580Y-94848852D02*
X117510961Y-94753614D01*
X117463342Y-94705995D01*
X117368104Y-94658376D01*
X117082390Y-94658376D01*
X116987152Y-94705995D01*
X116939533Y-94753614D01*
X116891914Y-94848852D01*
X116891914Y-94991709D01*
X116939533Y-95086947D01*
X116987152Y-95134566D01*
X117082390Y-95182185D01*
X117368104Y-95182185D01*
X117463342Y-95134566D01*
X117510961Y-95086947D01*
X117558580Y-94991709D01*
X117558580Y-94848852D01*
X116891914Y-95610757D02*
X117558580Y-95610757D01*
X116987152Y-95610757D02*
X116939533Y-95658376D01*
X116891914Y-95753614D01*
X116891914Y-95896471D01*
X116939533Y-95991709D01*
X117034771Y-96039328D01*
X117558580Y-96039328D01*
X116558580Y-96563138D02*
X116749057Y-96467900D01*
X116891914Y-96848852D02*
X116891914Y-97229804D01*
X116558580Y-96991709D02*
X117415723Y-96991709D01*
X117510961Y-97039328D01*
X117558580Y-97134566D01*
X117558580Y-97229804D01*
X116891914Y-98753614D02*
X117558580Y-98753614D01*
X116891914Y-98325042D02*
X117415723Y-98325042D01*
X117510961Y-98372661D01*
X117558580Y-98467900D01*
X117558580Y-98610757D01*
X117510961Y-98705995D01*
X117463342Y-98753614D01*
X117510961Y-99182185D02*
X117558580Y-99277423D01*
X117558580Y-99467900D01*
X117510961Y-99563138D01*
X117415723Y-99610757D01*
X117368104Y-99610757D01*
X117272866Y-99563138D01*
X117225247Y-99467900D01*
X117225247Y-99325042D01*
X117177628Y-99229804D01*
X117082390Y-99182185D01*
X117034771Y-99182185D01*
X116939533Y-99229804D01*
X116891914Y-99325042D01*
X116891914Y-99467900D01*
X116939533Y-99563138D01*
X117510961Y-100420280D02*
X117558580Y-100325042D01*
X117558580Y-100134566D01*
X117510961Y-100039328D01*
X117415723Y-99991709D01*
X117034771Y-99991709D01*
X116939533Y-100039328D01*
X116891914Y-100134566D01*
X116891914Y-100325042D01*
X116939533Y-100420280D01*
X117034771Y-100467900D01*
X117130009Y-100467900D01*
X117225247Y-99991709D01*
X117034771Y-101991709D02*
X117034771Y-101658376D01*
X117558580Y-101658376D02*
X116558580Y-101658376D01*
X116558580Y-102134566D01*
X117034771Y-102848852D02*
X117082390Y-102991709D01*
X117130009Y-103039328D01*
X117225247Y-103086947D01*
X117368104Y-103086947D01*
X117463342Y-103039328D01*
X117510961Y-102991709D01*
X117558580Y-102896471D01*
X117558580Y-102515519D01*
X116558580Y-102515519D01*
X116558580Y-102848852D01*
X116606200Y-102944090D01*
X116653819Y-102991709D01*
X116749057Y-103039328D01*
X116844295Y-103039328D01*
X116939533Y-102991709D01*
X116987152Y-102944090D01*
X117034771Y-102848852D01*
X117034771Y-102515519D01*
X116558580Y-103420280D02*
X116558580Y-104039328D01*
X116939533Y-103705995D01*
X116939533Y-103848852D01*
X116987152Y-103944090D01*
X117034771Y-103991709D01*
X117130009Y-104039328D01*
X117368104Y-104039328D01*
X117463342Y-103991709D01*
X117510961Y-103944090D01*
X117558580Y-103848852D01*
X117558580Y-103563138D01*
X117510961Y-103467900D01*
X117463342Y-103420280D01*
X117463342Y-104467900D02*
X117510961Y-104515519D01*
X117558580Y-104467900D01*
X117510961Y-104420280D01*
X117463342Y-104467900D01*
X117558580Y-104467900D01*
X117177628Y-104467900D02*
X116606200Y-104420280D01*
X116558580Y-104467900D01*
X116606200Y-104515519D01*
X117177628Y-104467900D01*
X116558580Y-104467900D01*
X117463342Y-104944090D02*
X117510961Y-104991709D01*
X117558580Y-104944090D01*
X117510961Y-104896471D01*
X117463342Y-104944090D01*
X117558580Y-104944090D01*
X117177628Y-104944090D02*
X116606200Y-104896471D01*
X116558580Y-104944090D01*
X116606200Y-104991709D01*
X117177628Y-104944090D01*
X116558580Y-104944090D01*
X117463342Y-105420280D02*
X117510961Y-105467900D01*
X117558580Y-105420280D01*
X117510961Y-105372661D01*
X117463342Y-105420280D01*
X117558580Y-105420280D01*
X117177628Y-105420280D02*
X116606200Y-105372661D01*
X116558580Y-105420280D01*
X116606200Y-105467900D01*
X117177628Y-105420280D01*
X116558580Y-105420280D01*
X115908580Y-89072880D02*
X114908580Y-89072880D01*
X115622866Y-89406214D01*
X114908580Y-89739547D01*
X115908580Y-89739547D01*
X115908580Y-90644309D02*
X115384771Y-90644309D01*
X115289533Y-90596690D01*
X115241914Y-90501452D01*
X115241914Y-90310976D01*
X115289533Y-90215738D01*
X115860961Y-90644309D02*
X115908580Y-90549071D01*
X115908580Y-90310976D01*
X115860961Y-90215738D01*
X115765723Y-90168119D01*
X115670485Y-90168119D01*
X115575247Y-90215738D01*
X115527628Y-90310976D01*
X115527628Y-90549071D01*
X115480009Y-90644309D01*
X115908580Y-91025261D02*
X115241914Y-91549071D01*
X115241914Y-91025261D02*
X115908580Y-91549071D01*
X115908580Y-91930023D02*
X114908580Y-91930023D01*
X115908580Y-92406214D02*
X114908580Y-92406214D01*
X115813342Y-92882404D02*
X115860961Y-92930023D01*
X115908580Y-92882404D01*
X115860961Y-92834785D01*
X115813342Y-92882404D01*
X115908580Y-92882404D01*
X115289533Y-92882404D02*
X115337152Y-92930023D01*
X115384771Y-92882404D01*
X115337152Y-92834785D01*
X115289533Y-92882404D01*
X115384771Y-92882404D01*
X117558580Y-89168119D02*
X116558580Y-89168119D01*
X117272866Y-89501452D01*
X116558580Y-89834785D01*
X117558580Y-89834785D01*
X117558580Y-90739547D02*
X117034771Y-90739547D01*
X116939533Y-90691928D01*
X116891914Y-90596690D01*
X116891914Y-90406214D01*
X116939533Y-90310976D01*
X117510961Y-90739547D02*
X117558580Y-90644309D01*
X117558580Y-90406214D01*
X117510961Y-90310976D01*
X117415723Y-90263357D01*
X117320485Y-90263357D01*
X117225247Y-90310976D01*
X117177628Y-90406214D01*
X117177628Y-90644309D01*
X117130009Y-90739547D01*
X117558580Y-91120500D02*
X116891914Y-91644309D01*
X116891914Y-91120500D02*
X117558580Y-91644309D01*
X116558580Y-91882404D02*
X117558580Y-92215738D01*
X116558580Y-92549071D01*
X117463342Y-92882404D02*
X117510961Y-92930023D01*
X117558580Y-92882404D01*
X117510961Y-92834785D01*
X117463342Y-92882404D01*
X117558580Y-92882404D01*
X116939533Y-92882404D02*
X116987152Y-92930023D01*
X117034771Y-92882404D01*
X116987152Y-92834785D01*
X116939533Y-92882404D01*
X117034771Y-92882404D01*
X173716904Y-103423285D02*
X172916904Y-103423285D01*
X173716904Y-103880428D01*
X172916904Y-103880428D01*
X172916904Y-104604238D02*
X172916904Y-104451857D01*
X172955000Y-104375666D01*
X172993095Y-104337571D01*
X173107380Y-104261380D01*
X173259761Y-104223285D01*
X173564523Y-104223285D01*
X173640714Y-104261380D01*
X173678809Y-104299476D01*
X173716904Y-104375666D01*
X173716904Y-104528047D01*
X173678809Y-104604238D01*
X173640714Y-104642333D01*
X173564523Y-104680428D01*
X173374047Y-104680428D01*
X173297857Y-104642333D01*
X173259761Y-104604238D01*
X173221666Y-104528047D01*
X173221666Y-104375666D01*
X173259761Y-104299476D01*
X173297857Y-104261380D01*
X173374047Y-104223285D01*
X173183571Y-105366142D02*
X173716904Y-105366142D01*
X172878809Y-105175666D02*
X173450238Y-104985190D01*
X173450238Y-105480428D01*
X173716904Y-106242333D02*
X173335952Y-105975666D01*
X173716904Y-105785190D02*
X172916904Y-105785190D01*
X172916904Y-106089952D01*
X172955000Y-106166142D01*
X172993095Y-106204238D01*
X173069285Y-106242333D01*
X173183571Y-106242333D01*
X173259761Y-106204238D01*
X173297857Y-106166142D01*
X173335952Y-106089952D01*
X173335952Y-105785190D01*
X172955000Y-107004238D02*
X172916904Y-106928047D01*
X172916904Y-106813761D01*
X172955000Y-106699476D01*
X173031190Y-106623285D01*
X173107380Y-106585190D01*
X173259761Y-106547095D01*
X173374047Y-106547095D01*
X173526428Y-106585190D01*
X173602619Y-106623285D01*
X173678809Y-106699476D01*
X173716904Y-106813761D01*
X173716904Y-106889952D01*
X173678809Y-107004238D01*
X173640714Y-107042333D01*
X173374047Y-107042333D01*
X173374047Y-106889952D01*
X173297857Y-107651857D02*
X173335952Y-107766142D01*
X173374047Y-107804238D01*
X173450238Y-107842333D01*
X173564523Y-107842333D01*
X173640714Y-107804238D01*
X173678809Y-107766142D01*
X173716904Y-107689952D01*
X173716904Y-107385190D01*
X172916904Y-107385190D01*
X172916904Y-107651857D01*
X172955000Y-107728047D01*
X172993095Y-107766142D01*
X173069285Y-107804238D01*
X173145476Y-107804238D01*
X173221666Y-107766142D01*
X173259761Y-107728047D01*
X173297857Y-107651857D01*
X173297857Y-107385190D01*
X173183571Y-108109000D02*
X173716904Y-108299476D01*
X173183571Y-108489952D01*
X172993095Y-108756619D02*
X172955000Y-108794714D01*
X172916904Y-108870904D01*
X172916904Y-109061380D01*
X172955000Y-109137571D01*
X172993095Y-109175666D01*
X173069285Y-109213761D01*
X173145476Y-109213761D01*
X173259761Y-109175666D01*
X173716904Y-108718523D01*
X173716904Y-109213761D01*
X173640714Y-109556619D02*
X173678809Y-109594714D01*
X173716904Y-109556619D01*
X173678809Y-109518523D01*
X173640714Y-109556619D01*
X173716904Y-109556619D01*
X173716904Y-110356619D02*
X173716904Y-109899476D01*
X173716904Y-110128047D02*
X172916904Y-110128047D01*
X173031190Y-110051857D01*
X173107380Y-109975666D01*
X173145476Y-109899476D01*
X173640714Y-110699476D02*
X173678809Y-110737571D01*
X173716904Y-110699476D01*
X173678809Y-110661380D01*
X173640714Y-110699476D01*
X173716904Y-110699476D01*
X172993095Y-111042333D02*
X172955000Y-111080428D01*
X172916904Y-111156619D01*
X172916904Y-111347095D01*
X172955000Y-111423285D01*
X172993095Y-111461380D01*
X173069285Y-111499476D01*
X173145476Y-111499476D01*
X173259761Y-111461380D01*
X173716904Y-111004238D01*
X173716904Y-111499476D01*
X172916904Y-111994714D02*
X172916904Y-112070904D01*
X172955000Y-112147095D01*
X172993095Y-112185190D01*
X173069285Y-112223285D01*
X173221666Y-112261380D01*
X173412142Y-112261380D01*
X173564523Y-112223285D01*
X173640714Y-112185190D01*
X173678809Y-112147095D01*
X173716904Y-112070904D01*
X173716904Y-111994714D01*
X173678809Y-111918523D01*
X173640714Y-111880428D01*
X173564523Y-111842333D01*
X173412142Y-111804238D01*
X173221666Y-111804238D01*
X173069285Y-111842333D01*
X172993095Y-111880428D01*
X172955000Y-111918523D01*
X172916904Y-111994714D01*
X172993095Y-112566142D02*
X172955000Y-112604238D01*
X172916904Y-112680428D01*
X172916904Y-112870904D01*
X172955000Y-112947095D01*
X172993095Y-112985190D01*
X173069285Y-113023285D01*
X173145476Y-113023285D01*
X173259761Y-112985190D01*
X173716904Y-112528047D01*
X173716904Y-113023285D01*
X172916904Y-113518523D02*
X172916904Y-113594714D01*
X172955000Y-113670904D01*
X172993095Y-113709000D01*
X173069285Y-113747095D01*
X173221666Y-113785190D01*
X173412142Y-113785190D01*
X173564523Y-113747095D01*
X173640714Y-113709000D01*
X173678809Y-113670904D01*
X173716904Y-113594714D01*
X173716904Y-113518523D01*
X173678809Y-113442333D01*
X173640714Y-113404238D01*
X173564523Y-113366142D01*
X173412142Y-113328047D01*
X173221666Y-113328047D01*
X173069285Y-113366142D01*
X172993095Y-113404238D01*
X172955000Y-113442333D01*
X172916904Y-113518523D01*
X172916904Y-114280428D02*
X172916904Y-114356619D01*
X172955000Y-114432809D01*
X172993095Y-114470904D01*
X173069285Y-114509000D01*
X173221666Y-114547095D01*
X173412142Y-114547095D01*
X173564523Y-114509000D01*
X173640714Y-114470904D01*
X173678809Y-114432809D01*
X173716904Y-114356619D01*
X173716904Y-114280428D01*
X173678809Y-114204238D01*
X173640714Y-114166142D01*
X173564523Y-114128047D01*
X173412142Y-114089952D01*
X173221666Y-114089952D01*
X173069285Y-114128047D01*
X172993095Y-114166142D01*
X172955000Y-114204238D01*
X172916904Y-114280428D01*
X172916904Y-114813761D02*
X172916904Y-115309000D01*
X173221666Y-115042333D01*
X173221666Y-115156619D01*
X173259761Y-115232809D01*
X173297857Y-115270904D01*
X173374047Y-115309000D01*
X173564523Y-115309000D01*
X173640714Y-115270904D01*
X173678809Y-115232809D01*
X173716904Y-115156619D01*
X173716904Y-114928047D01*
X173678809Y-114851857D01*
X173640714Y-114813761D01*
X173716904Y-116070904D02*
X173716904Y-115613761D01*
X173716904Y-115842333D02*
X172916904Y-115842333D01*
X173031190Y-115766142D01*
X173107380Y-115689952D01*
X173145476Y-115613761D01*
X172916904Y-116337571D02*
X172916904Y-116870904D01*
X173716904Y-116528047D01*
D11*
X157142922Y-89206000D02*
X157660078Y-89206000D01*
X157142922Y-90626000D02*
X157660078Y-90626000D01*
X152029279Y-90392980D02*
X151703721Y-90392980D01*
X152029279Y-89372980D02*
X151703721Y-89372980D01*
X164638222Y-111253200D02*
X165155378Y-111253200D01*
X164638222Y-112673200D02*
X165155378Y-112673200D01*
X162013240Y-115804040D02*
X164463240Y-115804040D01*
X163813240Y-119024040D02*
X162013240Y-119024040D01*
X129080920Y-92303280D02*
X126630920Y-92303280D01*
X127280920Y-89083280D02*
X129080920Y-89083280D01*
X128107221Y-111758000D02*
X128432779Y-111758000D01*
X128107221Y-112778000D02*
X128432779Y-112778000D01*
X128107221Y-113282000D02*
X128432779Y-113282000D01*
X128107221Y-114302000D02*
X128432779Y-114302000D01*
X119598221Y-118489000D02*
X119923779Y-118489000D01*
X119598221Y-119509000D02*
X119923779Y-119509000D01*
X141099000Y-111063721D02*
X141099000Y-111389279D01*
X140079000Y-111063721D02*
X140079000Y-111389279D01*
X128656199Y-94469680D02*
X128330641Y-94469680D01*
X128656199Y-93449680D02*
X128330641Y-93449680D01*
X160022000Y-117251261D02*
X160022000Y-117576819D01*
X159002000Y-117251261D02*
X159002000Y-117576819D01*
X166895240Y-117225761D02*
X166895240Y-117551319D01*
X165875240Y-117225761D02*
X165875240Y-117551319D01*
X131244880Y-91008319D02*
X131244880Y-90682761D01*
X132264880Y-91008319D02*
X132264880Y-90682761D01*
X123950000Y-90871259D02*
X123950000Y-90545701D01*
X124970000Y-90871259D02*
X124970000Y-90545701D01*
X161234239Y-102719600D02*
X160908681Y-102719600D01*
X161234239Y-101699600D02*
X160908681Y-101699600D01*
X161234440Y-104281700D02*
X160908882Y-104281700D01*
X161234440Y-103261700D02*
X160908882Y-103261700D01*
X161234339Y-105833640D02*
X160908781Y-105833640D01*
X161234339Y-104813640D02*
X160908781Y-104813640D01*
X161234440Y-107383040D02*
X160908882Y-107383040D01*
X161234440Y-106363040D02*
X160908882Y-106363040D01*
X157787121Y-104813640D02*
X158112679Y-104813640D01*
X157787121Y-105833640D02*
X158112679Y-105833640D01*
X157787021Y-103264240D02*
X158112579Y-103264240D01*
X157787021Y-104284240D02*
X158112579Y-104284240D01*
X143512000Y-98770221D02*
X143512000Y-99095779D01*
X142492000Y-98770221D02*
X142492000Y-99095779D01*
X151797273Y-98179478D02*
X152027478Y-97949273D01*
X152518522Y-98900727D02*
X152748727Y-98670522D01*
X143893000Y-108549221D02*
X143893000Y-108874779D01*
X142873000Y-108549221D02*
X142873000Y-108874779D01*
X138940000Y-111089221D02*
X138940000Y-111414779D01*
X137920000Y-111089221D02*
X137920000Y-111414779D01*
X135119522Y-103664273D02*
X135349727Y-103894478D01*
X134398273Y-104385522D02*
X134628478Y-104615727D01*
X135578786Y-94017005D02*
X135808991Y-93786800D01*
X136300035Y-94738254D02*
X136530240Y-94508049D01*
X145544000Y-100421221D02*
X145544000Y-100746779D01*
X144524000Y-100421221D02*
X144524000Y-100746779D01*
X145032000Y-104810779D02*
X145032000Y-104485221D01*
X146052000Y-104810779D02*
X146052000Y-104485221D01*
X136914478Y-106901727D02*
X136684273Y-106671522D01*
X137635727Y-106180478D02*
X137405522Y-105950273D01*
X133889814Y-97134409D02*
X133659609Y-97364614D01*
X133168565Y-96413160D02*
X132938360Y-96643365D01*
X157682000Y-117167922D02*
X157682000Y-117685078D01*
X156262000Y-117167922D02*
X156262000Y-117685078D01*
X132441182Y-93239520D02*
X132958338Y-93239520D01*
X132441182Y-94659520D02*
X132958338Y-94659520D01*
X120829000Y-90936578D02*
X120829000Y-90419422D01*
X122249000Y-90936578D02*
X122249000Y-90419422D01*
D10*
X157900785Y-91822234D02*
X157938880Y-91860329D01*
X158053166Y-91898424D01*
X158129357Y-91898424D01*
X158243642Y-91860329D01*
X158319833Y-91784139D01*
X158357928Y-91707948D01*
X158396023Y-91555567D01*
X158396023Y-91441281D01*
X158357928Y-91288900D01*
X158319833Y-91212710D01*
X158243642Y-91136520D01*
X158129357Y-91098424D01*
X158053166Y-91098424D01*
X157938880Y-91136520D01*
X157900785Y-91174615D01*
X157634119Y-91098424D02*
X157138880Y-91098424D01*
X157405547Y-91403186D01*
X157291261Y-91403186D01*
X157215071Y-91441281D01*
X157176976Y-91479377D01*
X157138880Y-91555567D01*
X157138880Y-91746043D01*
X157176976Y-91822234D01*
X157215071Y-91860329D01*
X157291261Y-91898424D01*
X157519833Y-91898424D01*
X157596023Y-91860329D01*
X157634119Y-91822234D01*
X156376976Y-91898424D02*
X156834119Y-91898424D01*
X156605547Y-91898424D02*
X156605547Y-91098424D01*
X156681738Y-91212710D01*
X156757928Y-91288900D01*
X156834119Y-91326996D01*
X153828685Y-91573314D02*
X153866780Y-91611409D01*
X153981066Y-91649504D01*
X154057257Y-91649504D01*
X154171542Y-91611409D01*
X154247733Y-91535219D01*
X154285828Y-91459028D01*
X154323923Y-91306647D01*
X154323923Y-91192361D01*
X154285828Y-91039980D01*
X154247733Y-90963790D01*
X154171542Y-90887600D01*
X154057257Y-90849504D01*
X153981066Y-90849504D01*
X153866780Y-90887600D01*
X153828685Y-90925695D01*
X153562019Y-90849504D02*
X153066780Y-90849504D01*
X153333447Y-91154266D01*
X153219161Y-91154266D01*
X153142971Y-91192361D01*
X153104876Y-91230457D01*
X153066780Y-91306647D01*
X153066780Y-91497123D01*
X153104876Y-91573314D01*
X153142971Y-91611409D01*
X153219161Y-91649504D01*
X153447733Y-91649504D01*
X153523923Y-91611409D01*
X153562019Y-91573314D01*
X152762019Y-90925695D02*
X152723923Y-90887600D01*
X152647733Y-90849504D01*
X152457257Y-90849504D01*
X152381066Y-90887600D01*
X152342971Y-90925695D01*
X152304876Y-91001885D01*
X152304876Y-91078076D01*
X152342971Y-91192361D01*
X152800114Y-91649504D01*
X152304876Y-91649504D01*
X165030133Y-110623314D02*
X165068228Y-110661409D01*
X165182514Y-110699504D01*
X165258704Y-110699504D01*
X165372990Y-110661409D01*
X165449180Y-110585219D01*
X165487276Y-110509028D01*
X165525371Y-110356647D01*
X165525371Y-110242361D01*
X165487276Y-110089980D01*
X165449180Y-110013790D01*
X165372990Y-109937600D01*
X165258704Y-109899504D01*
X165182514Y-109899504D01*
X165068228Y-109937600D01*
X165030133Y-109975695D01*
X164306323Y-109899504D02*
X164687276Y-109899504D01*
X164725371Y-110280457D01*
X164687276Y-110242361D01*
X164611085Y-110204266D01*
X164420609Y-110204266D01*
X164344419Y-110242361D01*
X164306323Y-110280457D01*
X164268228Y-110356647D01*
X164268228Y-110547123D01*
X164306323Y-110623314D01*
X164344419Y-110661409D01*
X164420609Y-110699504D01*
X164611085Y-110699504D01*
X164687276Y-110661409D01*
X164725371Y-110623314D01*
X164884023Y-114560404D02*
X164884023Y-115208023D01*
X164845928Y-115284214D01*
X164807833Y-115322309D01*
X164731642Y-115360404D01*
X164579261Y-115360404D01*
X164503071Y-115322309D01*
X164464976Y-115284214D01*
X164426880Y-115208023D01*
X164426880Y-114560404D01*
X163664976Y-114560404D02*
X164045928Y-114560404D01*
X164084023Y-114941357D01*
X164045928Y-114903261D01*
X163969738Y-114865166D01*
X163779261Y-114865166D01*
X163703071Y-114903261D01*
X163664976Y-114941357D01*
X163626880Y-115017547D01*
X163626880Y-115208023D01*
X163664976Y-115284214D01*
X163703071Y-115322309D01*
X163779261Y-115360404D01*
X163969738Y-115360404D01*
X164045928Y-115322309D01*
X164084023Y-115284214D01*
X126784023Y-92716404D02*
X126784023Y-93364023D01*
X126745928Y-93440214D01*
X126707833Y-93478309D01*
X126631642Y-93516404D01*
X126479261Y-93516404D01*
X126403071Y-93478309D01*
X126364976Y-93440214D01*
X126326880Y-93364023D01*
X126326880Y-92716404D01*
X125603071Y-92983071D02*
X125603071Y-93516404D01*
X125793547Y-92678309D02*
X125984023Y-93249738D01*
X125488785Y-93249738D01*
X126041085Y-112629904D02*
X126307752Y-112248952D01*
X126498228Y-112629904D02*
X126498228Y-111829904D01*
X126193466Y-111829904D01*
X126117276Y-111868000D01*
X126079180Y-111906095D01*
X126041085Y-111982285D01*
X126041085Y-112096571D01*
X126079180Y-112172761D01*
X126117276Y-112210857D01*
X126193466Y-112248952D01*
X126498228Y-112248952D01*
X125279180Y-112629904D02*
X125736323Y-112629904D01*
X125507752Y-112629904D02*
X125507752Y-111829904D01*
X125583942Y-111944190D01*
X125660133Y-112020380D01*
X125736323Y-112058476D01*
X124974419Y-111906095D02*
X124936323Y-111868000D01*
X124860133Y-111829904D01*
X124669657Y-111829904D01*
X124593466Y-111868000D01*
X124555371Y-111906095D01*
X124517276Y-111982285D01*
X124517276Y-112058476D01*
X124555371Y-112172761D01*
X125012514Y-112629904D01*
X124517276Y-112629904D01*
X125939485Y-114153904D02*
X126206152Y-113772952D01*
X126396628Y-114153904D02*
X126396628Y-113353904D01*
X126091866Y-113353904D01*
X126015676Y-113392000D01*
X125977580Y-113430095D01*
X125939485Y-113506285D01*
X125939485Y-113620571D01*
X125977580Y-113696761D01*
X126015676Y-113734857D01*
X126091866Y-113772952D01*
X126396628Y-113772952D01*
X125177580Y-114153904D02*
X125634723Y-114153904D01*
X125406152Y-114153904D02*
X125406152Y-113353904D01*
X125482342Y-113468190D01*
X125558533Y-113544380D01*
X125634723Y-113582476D01*
X124415676Y-114153904D02*
X124872819Y-114153904D01*
X124644247Y-114153904D02*
X124644247Y-113353904D01*
X124720438Y-113468190D01*
X124796628Y-113544380D01*
X124872819Y-113582476D01*
X120275285Y-118027404D02*
X120541952Y-117646452D01*
X120732428Y-118027404D02*
X120732428Y-117227404D01*
X120427666Y-117227404D01*
X120351476Y-117265500D01*
X120313380Y-117303595D01*
X120275285Y-117379785D01*
X120275285Y-117494071D01*
X120313380Y-117570261D01*
X120351476Y-117608357D01*
X120427666Y-117646452D01*
X120732428Y-117646452D01*
X119513380Y-118027404D02*
X119970523Y-118027404D01*
X119741952Y-118027404D02*
X119741952Y-117227404D01*
X119818142Y-117341690D01*
X119894333Y-117417880D01*
X119970523Y-117455976D01*
X119018142Y-117227404D02*
X118941952Y-117227404D01*
X118865761Y-117265500D01*
X118827666Y-117303595D01*
X118789571Y-117379785D01*
X118751476Y-117532166D01*
X118751476Y-117722642D01*
X118789571Y-117875023D01*
X118827666Y-117951214D01*
X118865761Y-117989309D01*
X118941952Y-118027404D01*
X119018142Y-118027404D01*
X119094333Y-117989309D01*
X119132428Y-117951214D01*
X119170523Y-117875023D01*
X119208619Y-117722642D01*
X119208619Y-117532166D01*
X119170523Y-117379785D01*
X119132428Y-117303595D01*
X119094333Y-117265500D01*
X119018142Y-117227404D01*
X141928857Y-111093333D02*
X141928857Y-110826666D01*
X142347904Y-110826666D02*
X141547904Y-110826666D01*
X141547904Y-111207619D01*
X141928857Y-111779047D02*
X141966952Y-111893333D01*
X142005047Y-111931428D01*
X142081238Y-111969523D01*
X142195523Y-111969523D01*
X142271714Y-111931428D01*
X142309809Y-111893333D01*
X142347904Y-111817142D01*
X142347904Y-111512380D01*
X141547904Y-111512380D01*
X141547904Y-111779047D01*
X141586000Y-111855238D01*
X141624095Y-111893333D01*
X141700285Y-111931428D01*
X141776476Y-111931428D01*
X141852666Y-111893333D01*
X141890761Y-111855238D01*
X141928857Y-111779047D01*
X141928857Y-111512380D01*
X141547904Y-112655238D02*
X141547904Y-112502857D01*
X141586000Y-112426666D01*
X141624095Y-112388571D01*
X141738380Y-112312380D01*
X141890761Y-112274285D01*
X142195523Y-112274285D01*
X142271714Y-112312380D01*
X142309809Y-112350476D01*
X142347904Y-112426666D01*
X142347904Y-112579047D01*
X142309809Y-112655238D01*
X142271714Y-112693333D01*
X142195523Y-112731428D01*
X142005047Y-112731428D01*
X141928857Y-112693333D01*
X141890761Y-112655238D01*
X141852666Y-112579047D01*
X141852666Y-112426666D01*
X141890761Y-112350476D01*
X141928857Y-112312380D01*
X142005047Y-112274285D01*
X129571666Y-95256357D02*
X129838333Y-95256357D01*
X129838333Y-95675404D02*
X129838333Y-94875404D01*
X129457380Y-94875404D01*
X128885952Y-95256357D02*
X128771666Y-95294452D01*
X128733571Y-95332547D01*
X128695476Y-95408738D01*
X128695476Y-95523023D01*
X128733571Y-95599214D01*
X128771666Y-95637309D01*
X128847857Y-95675404D01*
X129152619Y-95675404D01*
X129152619Y-94875404D01*
X128885952Y-94875404D01*
X128809761Y-94913500D01*
X128771666Y-94951595D01*
X128733571Y-95027785D01*
X128733571Y-95103976D01*
X128771666Y-95180166D01*
X128809761Y-95218261D01*
X128885952Y-95256357D01*
X129152619Y-95256357D01*
X128428809Y-94875404D02*
X127933571Y-94875404D01*
X128200238Y-95180166D01*
X128085952Y-95180166D01*
X128009761Y-95218261D01*
X127971666Y-95256357D01*
X127933571Y-95332547D01*
X127933571Y-95523023D01*
X127971666Y-95599214D01*
X128009761Y-95637309D01*
X128085952Y-95675404D01*
X128314523Y-95675404D01*
X128390714Y-95637309D01*
X128428809Y-95599214D01*
X159708785Y-115665214D02*
X159746880Y-115703309D01*
X159861166Y-115741404D01*
X159937357Y-115741404D01*
X160051642Y-115703309D01*
X160127833Y-115627119D01*
X160165928Y-115550928D01*
X160204023Y-115398547D01*
X160204023Y-115284261D01*
X160165928Y-115131880D01*
X160127833Y-115055690D01*
X160051642Y-114979500D01*
X159937357Y-114941404D01*
X159861166Y-114941404D01*
X159746880Y-114979500D01*
X159708785Y-115017595D01*
X158984976Y-114941404D02*
X159365928Y-114941404D01*
X159404023Y-115322357D01*
X159365928Y-115284261D01*
X159289738Y-115246166D01*
X159099261Y-115246166D01*
X159023071Y-115284261D01*
X158984976Y-115322357D01*
X158946880Y-115398547D01*
X158946880Y-115589023D01*
X158984976Y-115665214D01*
X159023071Y-115703309D01*
X159099261Y-115741404D01*
X159289738Y-115741404D01*
X159365928Y-115703309D01*
X159404023Y-115665214D01*
X158642119Y-115017595D02*
X158604023Y-114979500D01*
X158527833Y-114941404D01*
X158337357Y-114941404D01*
X158261166Y-114979500D01*
X158223071Y-115017595D01*
X158184976Y-115093785D01*
X158184976Y-115169976D01*
X158223071Y-115284261D01*
X158680214Y-115741404D01*
X158184976Y-115741404D01*
X168052714Y-116897214D02*
X168090809Y-116859119D01*
X168128904Y-116744833D01*
X168128904Y-116668642D01*
X168090809Y-116554357D01*
X168014619Y-116478166D01*
X167938428Y-116440071D01*
X167786047Y-116401976D01*
X167671761Y-116401976D01*
X167519380Y-116440071D01*
X167443190Y-116478166D01*
X167367000Y-116554357D01*
X167328904Y-116668642D01*
X167328904Y-116744833D01*
X167367000Y-116859119D01*
X167405095Y-116897214D01*
X167328904Y-117621023D02*
X167328904Y-117240071D01*
X167709857Y-117201976D01*
X167671761Y-117240071D01*
X167633666Y-117316261D01*
X167633666Y-117506738D01*
X167671761Y-117582928D01*
X167709857Y-117621023D01*
X167786047Y-117659119D01*
X167976523Y-117659119D01*
X168052714Y-117621023D01*
X168090809Y-117582928D01*
X168128904Y-117506738D01*
X168128904Y-117316261D01*
X168090809Y-117240071D01*
X168052714Y-117201976D01*
X168128904Y-118421023D02*
X168128904Y-117963880D01*
X168128904Y-118192452D02*
X167328904Y-118192452D01*
X167443190Y-118116261D01*
X167519380Y-118040071D01*
X167557476Y-117963880D01*
X133445214Y-90354214D02*
X133483309Y-90316119D01*
X133521404Y-90201833D01*
X133521404Y-90125642D01*
X133483309Y-90011357D01*
X133407119Y-89935166D01*
X133330928Y-89897071D01*
X133178547Y-89858976D01*
X133064261Y-89858976D01*
X132911880Y-89897071D01*
X132835690Y-89935166D01*
X132759500Y-90011357D01*
X132721404Y-90125642D01*
X132721404Y-90201833D01*
X132759500Y-90316119D01*
X132797595Y-90354214D01*
X132988071Y-91039928D02*
X133521404Y-91039928D01*
X132683309Y-90849452D02*
X133254738Y-90658976D01*
X133254738Y-91154214D01*
X132797595Y-91420880D02*
X132759500Y-91458976D01*
X132721404Y-91535166D01*
X132721404Y-91725642D01*
X132759500Y-91801833D01*
X132797595Y-91839928D01*
X132873785Y-91878023D01*
X132949976Y-91878023D01*
X133064261Y-91839928D01*
X133521404Y-91382785D01*
X133521404Y-91878023D01*
X123539214Y-90227214D02*
X123577309Y-90189119D01*
X123615404Y-90074833D01*
X123615404Y-89998642D01*
X123577309Y-89884357D01*
X123501119Y-89808166D01*
X123424928Y-89770071D01*
X123272547Y-89731976D01*
X123158261Y-89731976D01*
X123005880Y-89770071D01*
X122929690Y-89808166D01*
X122853500Y-89884357D01*
X122815404Y-89998642D01*
X122815404Y-90074833D01*
X122853500Y-90189119D01*
X122891595Y-90227214D01*
X123082071Y-90912928D02*
X123615404Y-90912928D01*
X122777309Y-90722452D02*
X123348738Y-90531976D01*
X123348738Y-91027214D01*
X123615404Y-91751023D02*
X123615404Y-91293880D01*
X123615404Y-91522452D02*
X122815404Y-91522452D01*
X122929690Y-91446261D01*
X123005880Y-91370071D01*
X123043976Y-91293880D01*
X164471285Y-102520714D02*
X164509380Y-102558809D01*
X164623666Y-102596904D01*
X164699857Y-102596904D01*
X164814142Y-102558809D01*
X164890333Y-102482619D01*
X164928428Y-102406428D01*
X164966523Y-102254047D01*
X164966523Y-102139761D01*
X164928428Y-101987380D01*
X164890333Y-101911190D01*
X164814142Y-101835000D01*
X164699857Y-101796904D01*
X164623666Y-101796904D01*
X164509380Y-101835000D01*
X164471285Y-101873095D01*
X164166523Y-101873095D02*
X164128428Y-101835000D01*
X164052238Y-101796904D01*
X163861761Y-101796904D01*
X163785571Y-101835000D01*
X163747476Y-101873095D01*
X163709380Y-101949285D01*
X163709380Y-102025476D01*
X163747476Y-102139761D01*
X164204619Y-102596904D01*
X163709380Y-102596904D01*
X162985571Y-101796904D02*
X163366523Y-101796904D01*
X163404619Y-102177857D01*
X163366523Y-102139761D01*
X163290333Y-102101666D01*
X163099857Y-102101666D01*
X163023666Y-102139761D01*
X162985571Y-102177857D01*
X162947476Y-102254047D01*
X162947476Y-102444523D01*
X162985571Y-102520714D01*
X163023666Y-102558809D01*
X163099857Y-102596904D01*
X163290333Y-102596904D01*
X163366523Y-102558809D01*
X163404619Y-102520714D01*
X164471285Y-104171714D02*
X164509380Y-104209809D01*
X164623666Y-104247904D01*
X164699857Y-104247904D01*
X164814142Y-104209809D01*
X164890333Y-104133619D01*
X164928428Y-104057428D01*
X164966523Y-103905047D01*
X164966523Y-103790761D01*
X164928428Y-103638380D01*
X164890333Y-103562190D01*
X164814142Y-103486000D01*
X164699857Y-103447904D01*
X164623666Y-103447904D01*
X164509380Y-103486000D01*
X164471285Y-103524095D01*
X164166523Y-103524095D02*
X164128428Y-103486000D01*
X164052238Y-103447904D01*
X163861761Y-103447904D01*
X163785571Y-103486000D01*
X163747476Y-103524095D01*
X163709380Y-103600285D01*
X163709380Y-103676476D01*
X163747476Y-103790761D01*
X164204619Y-104247904D01*
X163709380Y-104247904D01*
X163023666Y-103714571D02*
X163023666Y-104247904D01*
X163214142Y-103409809D02*
X163404619Y-103981238D01*
X162909380Y-103981238D01*
X164471285Y-105632214D02*
X164509380Y-105670309D01*
X164623666Y-105708404D01*
X164699857Y-105708404D01*
X164814142Y-105670309D01*
X164890333Y-105594119D01*
X164928428Y-105517928D01*
X164966523Y-105365547D01*
X164966523Y-105251261D01*
X164928428Y-105098880D01*
X164890333Y-105022690D01*
X164814142Y-104946500D01*
X164699857Y-104908404D01*
X164623666Y-104908404D01*
X164509380Y-104946500D01*
X164471285Y-104984595D01*
X164166523Y-104984595D02*
X164128428Y-104946500D01*
X164052238Y-104908404D01*
X163861761Y-104908404D01*
X163785571Y-104946500D01*
X163747476Y-104984595D01*
X163709380Y-105060785D01*
X163709380Y-105136976D01*
X163747476Y-105251261D01*
X164204619Y-105708404D01*
X163709380Y-105708404D01*
X163442714Y-104908404D02*
X162947476Y-104908404D01*
X163214142Y-105213166D01*
X163099857Y-105213166D01*
X163023666Y-105251261D01*
X162985571Y-105289357D01*
X162947476Y-105365547D01*
X162947476Y-105556023D01*
X162985571Y-105632214D01*
X163023666Y-105670309D01*
X163099857Y-105708404D01*
X163328428Y-105708404D01*
X163404619Y-105670309D01*
X163442714Y-105632214D01*
X164471285Y-107156214D02*
X164509380Y-107194309D01*
X164623666Y-107232404D01*
X164699857Y-107232404D01*
X164814142Y-107194309D01*
X164890333Y-107118119D01*
X164928428Y-107041928D01*
X164966523Y-106889547D01*
X164966523Y-106775261D01*
X164928428Y-106622880D01*
X164890333Y-106546690D01*
X164814142Y-106470500D01*
X164699857Y-106432404D01*
X164623666Y-106432404D01*
X164509380Y-106470500D01*
X164471285Y-106508595D01*
X164166523Y-106508595D02*
X164128428Y-106470500D01*
X164052238Y-106432404D01*
X163861761Y-106432404D01*
X163785571Y-106470500D01*
X163747476Y-106508595D01*
X163709380Y-106584785D01*
X163709380Y-106660976D01*
X163747476Y-106775261D01*
X164204619Y-107232404D01*
X163709380Y-107232404D01*
X163404619Y-106508595D02*
X163366523Y-106470500D01*
X163290333Y-106432404D01*
X163099857Y-106432404D01*
X163023666Y-106470500D01*
X162985571Y-106508595D01*
X162947476Y-106584785D01*
X162947476Y-106660976D01*
X162985571Y-106775261D01*
X163442714Y-107232404D01*
X162947476Y-107232404D01*
X155644785Y-105632214D02*
X155682880Y-105670309D01*
X155797166Y-105708404D01*
X155873357Y-105708404D01*
X155987642Y-105670309D01*
X156063833Y-105594119D01*
X156101928Y-105517928D01*
X156140023Y-105365547D01*
X156140023Y-105251261D01*
X156101928Y-105098880D01*
X156063833Y-105022690D01*
X155987642Y-104946500D01*
X155873357Y-104908404D01*
X155797166Y-104908404D01*
X155682880Y-104946500D01*
X155644785Y-104984595D01*
X155340023Y-104984595D02*
X155301928Y-104946500D01*
X155225738Y-104908404D01*
X155035261Y-104908404D01*
X154959071Y-104946500D01*
X154920976Y-104984595D01*
X154882880Y-105060785D01*
X154882880Y-105136976D01*
X154920976Y-105251261D01*
X155378119Y-105708404D01*
X154882880Y-105708404D01*
X154120976Y-105708404D02*
X154578119Y-105708404D01*
X154349547Y-105708404D02*
X154349547Y-104908404D01*
X154425738Y-105022690D01*
X154501928Y-105098880D01*
X154578119Y-105136976D01*
X155708285Y-104044714D02*
X155746380Y-104082809D01*
X155860666Y-104120904D01*
X155936857Y-104120904D01*
X156051142Y-104082809D01*
X156127333Y-104006619D01*
X156165428Y-103930428D01*
X156203523Y-103778047D01*
X156203523Y-103663761D01*
X156165428Y-103511380D01*
X156127333Y-103435190D01*
X156051142Y-103359000D01*
X155936857Y-103320904D01*
X155860666Y-103320904D01*
X155746380Y-103359000D01*
X155708285Y-103397095D01*
X155403523Y-103397095D02*
X155365428Y-103359000D01*
X155289238Y-103320904D01*
X155098761Y-103320904D01*
X155022571Y-103359000D01*
X154984476Y-103397095D01*
X154946380Y-103473285D01*
X154946380Y-103549476D01*
X154984476Y-103663761D01*
X155441619Y-104120904D01*
X154946380Y-104120904D01*
X154451142Y-103320904D02*
X154374952Y-103320904D01*
X154298761Y-103359000D01*
X154260666Y-103397095D01*
X154222571Y-103473285D01*
X154184476Y-103625666D01*
X154184476Y-103816142D01*
X154222571Y-103968523D01*
X154260666Y-104044714D01*
X154298761Y-104082809D01*
X154374952Y-104120904D01*
X154451142Y-104120904D01*
X154527333Y-104082809D01*
X154565428Y-104044714D01*
X154603523Y-103968523D01*
X154641619Y-103816142D01*
X154641619Y-103625666D01*
X154603523Y-103473285D01*
X154565428Y-103397095D01*
X154527333Y-103359000D01*
X154451142Y-103320904D01*
X143287714Y-101149214D02*
X143325809Y-101111119D01*
X143363904Y-100996833D01*
X143363904Y-100920642D01*
X143325809Y-100806357D01*
X143249619Y-100730166D01*
X143173428Y-100692071D01*
X143021047Y-100653976D01*
X142906761Y-100653976D01*
X142754380Y-100692071D01*
X142678190Y-100730166D01*
X142602000Y-100806357D01*
X142563904Y-100920642D01*
X142563904Y-100996833D01*
X142602000Y-101111119D01*
X142640095Y-101149214D01*
X143363904Y-101911119D02*
X143363904Y-101453976D01*
X143363904Y-101682547D02*
X142563904Y-101682547D01*
X142678190Y-101606357D01*
X142754380Y-101530166D01*
X142792476Y-101453976D01*
X143363904Y-102292071D02*
X143363904Y-102444452D01*
X143325809Y-102520642D01*
X143287714Y-102558738D01*
X143173428Y-102634928D01*
X143021047Y-102673023D01*
X142716285Y-102673023D01*
X142640095Y-102634928D01*
X142602000Y-102596833D01*
X142563904Y-102520642D01*
X142563904Y-102368261D01*
X142602000Y-102292071D01*
X142640095Y-102253976D01*
X142716285Y-102215880D01*
X142906761Y-102215880D01*
X142982952Y-102253976D01*
X143021047Y-102292071D01*
X143059142Y-102368261D01*
X143059142Y-102520642D01*
X143021047Y-102596833D01*
X142982952Y-102634928D01*
X142906761Y-102673023D01*
X153791185Y-99274538D02*
X153845060Y-99274538D01*
X153952809Y-99220663D01*
X154006684Y-99166788D01*
X154060559Y-99059039D01*
X154060559Y-98951289D01*
X154033622Y-98870477D01*
X153952809Y-98735790D01*
X153871997Y-98654978D01*
X153737310Y-98574166D01*
X153656498Y-98547228D01*
X153548748Y-98547228D01*
X153440999Y-98601103D01*
X153387124Y-98654978D01*
X153333249Y-98762727D01*
X153333249Y-98816602D01*
X153306312Y-99867161D02*
X153629561Y-99543912D01*
X153467936Y-99705537D02*
X152902251Y-99139851D01*
X153036938Y-99166788D01*
X153144687Y-99166788D01*
X153225500Y-99139851D01*
X152659814Y-99867161D02*
X152686751Y-99786349D01*
X152686751Y-99732474D01*
X152659814Y-99651662D01*
X152632877Y-99624724D01*
X152552064Y-99597787D01*
X152498190Y-99597787D01*
X152417377Y-99624724D01*
X152309628Y-99732474D01*
X152282690Y-99813286D01*
X152282690Y-99867161D01*
X152309628Y-99947973D01*
X152336565Y-99974911D01*
X152417377Y-100001848D01*
X152471252Y-100001848D01*
X152552064Y-99974911D01*
X152659814Y-99867161D01*
X152740626Y-99840224D01*
X152794501Y-99840224D01*
X152875313Y-99867161D01*
X152983063Y-99974911D01*
X153010000Y-100055723D01*
X153010000Y-100109598D01*
X152983063Y-100190410D01*
X152875313Y-100298159D01*
X152794501Y-100325097D01*
X152740626Y-100325097D01*
X152659814Y-100298159D01*
X152552064Y-100190410D01*
X152525127Y-100109598D01*
X152525127Y-100055723D01*
X152552064Y-99974911D01*
X142335214Y-108197714D02*
X142373309Y-108159619D01*
X142411404Y-108045333D01*
X142411404Y-107969142D01*
X142373309Y-107854857D01*
X142297119Y-107778666D01*
X142220928Y-107740571D01*
X142068547Y-107702476D01*
X141954261Y-107702476D01*
X141801880Y-107740571D01*
X141725690Y-107778666D01*
X141649500Y-107854857D01*
X141611404Y-107969142D01*
X141611404Y-108045333D01*
X141649500Y-108159619D01*
X141687595Y-108197714D01*
X142411404Y-108959619D02*
X142411404Y-108502476D01*
X142411404Y-108731047D02*
X141611404Y-108731047D01*
X141725690Y-108654857D01*
X141801880Y-108578666D01*
X141839976Y-108502476D01*
X141611404Y-109226285D02*
X141611404Y-109759619D01*
X142411404Y-109416761D01*
X137382214Y-110801214D02*
X137420309Y-110763119D01*
X137458404Y-110648833D01*
X137458404Y-110572642D01*
X137420309Y-110458357D01*
X137344119Y-110382166D01*
X137267928Y-110344071D01*
X137115547Y-110305976D01*
X137001261Y-110305976D01*
X136848880Y-110344071D01*
X136772690Y-110382166D01*
X136696500Y-110458357D01*
X136658404Y-110572642D01*
X136658404Y-110648833D01*
X136696500Y-110763119D01*
X136734595Y-110801214D01*
X137458404Y-111563119D02*
X137458404Y-111105976D01*
X137458404Y-111334547D02*
X136658404Y-111334547D01*
X136772690Y-111258357D01*
X136848880Y-111182166D01*
X136886976Y-111105976D01*
X136658404Y-112248833D02*
X136658404Y-112096452D01*
X136696500Y-112020261D01*
X136734595Y-111982166D01*
X136848880Y-111905976D01*
X137001261Y-111867880D01*
X137306023Y-111867880D01*
X137382214Y-111905976D01*
X137420309Y-111944071D01*
X137458404Y-112020261D01*
X137458404Y-112172642D01*
X137420309Y-112248833D01*
X137382214Y-112286928D01*
X137306023Y-112325023D01*
X137115547Y-112325023D01*
X137039357Y-112286928D01*
X137001261Y-112248833D01*
X136963166Y-112172642D01*
X136963166Y-112020261D01*
X137001261Y-111944071D01*
X137039357Y-111905976D01*
X137115547Y-111867880D01*
X136000824Y-103740485D02*
X136000824Y-103794360D01*
X136054699Y-103902109D01*
X136108574Y-103955984D01*
X136216323Y-104009859D01*
X136324073Y-104009859D01*
X136404885Y-103982922D01*
X136539572Y-103902109D01*
X136620384Y-103821297D01*
X136701196Y-103686610D01*
X136728134Y-103605798D01*
X136728134Y-103498048D01*
X136674259Y-103390299D01*
X136620384Y-103336424D01*
X136512635Y-103282549D01*
X136458760Y-103282549D01*
X135408201Y-103255612D02*
X135731450Y-103578861D01*
X135569825Y-103417236D02*
X136135511Y-102851551D01*
X136108574Y-102986238D01*
X136108574Y-103093987D01*
X136135511Y-103174799D01*
X135462076Y-102178116D02*
X135731450Y-102447490D01*
X135489013Y-102743801D01*
X135489013Y-102689926D01*
X135462076Y-102609114D01*
X135327389Y-102474427D01*
X135246577Y-102447490D01*
X135192702Y-102447490D01*
X135111890Y-102474427D01*
X134977203Y-102609114D01*
X134950265Y-102689926D01*
X134950265Y-102743801D01*
X134977203Y-102824613D01*
X135111890Y-102959300D01*
X135192702Y-102986238D01*
X135246577Y-102986238D01*
X137598685Y-95088375D02*
X137652560Y-95088375D01*
X137760309Y-95034500D01*
X137814184Y-94980625D01*
X137868059Y-94872876D01*
X137868059Y-94765126D01*
X137841122Y-94684314D01*
X137760309Y-94549627D01*
X137679497Y-94468815D01*
X137544810Y-94388003D01*
X137463998Y-94361065D01*
X137356248Y-94361065D01*
X137248499Y-94414940D01*
X137194624Y-94468815D01*
X137140749Y-94576564D01*
X137140749Y-94630439D01*
X137113812Y-95680998D02*
X137437061Y-95357749D01*
X137275436Y-95519374D02*
X136709751Y-94953688D01*
X136844438Y-94980625D01*
X136952187Y-94980625D01*
X137033000Y-94953688D01*
X136251815Y-95788748D02*
X136628938Y-96165871D01*
X136171003Y-95438561D02*
X136709751Y-95707935D01*
X136359564Y-96058122D01*
X146716714Y-100069714D02*
X146754809Y-100031619D01*
X146792904Y-99917333D01*
X146792904Y-99841142D01*
X146754809Y-99726857D01*
X146678619Y-99650666D01*
X146602428Y-99612571D01*
X146450047Y-99574476D01*
X146335761Y-99574476D01*
X146183380Y-99612571D01*
X146107190Y-99650666D01*
X146031000Y-99726857D01*
X145992904Y-99841142D01*
X145992904Y-99917333D01*
X146031000Y-100031619D01*
X146069095Y-100069714D01*
X146792904Y-100831619D02*
X146792904Y-100374476D01*
X146792904Y-100603047D02*
X145992904Y-100603047D01*
X146107190Y-100526857D01*
X146183380Y-100450666D01*
X146221476Y-100374476D01*
X145992904Y-101098285D02*
X145992904Y-101593523D01*
X146297666Y-101326857D01*
X146297666Y-101441142D01*
X146335761Y-101517333D01*
X146373857Y-101555428D01*
X146450047Y-101593523D01*
X146640523Y-101593523D01*
X146716714Y-101555428D01*
X146754809Y-101517333D01*
X146792904Y-101441142D01*
X146792904Y-101212571D01*
X146754809Y-101136380D01*
X146716714Y-101098285D01*
X144494214Y-104070214D02*
X144532309Y-104032119D01*
X144570404Y-103917833D01*
X144570404Y-103841642D01*
X144532309Y-103727357D01*
X144456119Y-103651166D01*
X144379928Y-103613071D01*
X144227547Y-103574976D01*
X144113261Y-103574976D01*
X143960880Y-103613071D01*
X143884690Y-103651166D01*
X143808500Y-103727357D01*
X143770404Y-103841642D01*
X143770404Y-103917833D01*
X143808500Y-104032119D01*
X143846595Y-104070214D01*
X144570404Y-104832119D02*
X144570404Y-104374976D01*
X144570404Y-104603547D02*
X143770404Y-104603547D01*
X143884690Y-104527357D01*
X143960880Y-104451166D01*
X143998976Y-104374976D01*
X143846595Y-105136880D02*
X143808500Y-105174976D01*
X143770404Y-105251166D01*
X143770404Y-105441642D01*
X143808500Y-105517833D01*
X143846595Y-105555928D01*
X143922785Y-105594023D01*
X143998976Y-105594023D01*
X144113261Y-105555928D01*
X144570404Y-105098785D01*
X144570404Y-105594023D01*
X138332787Y-105980522D02*
X138332787Y-106034397D01*
X138386662Y-106142146D01*
X138440537Y-106196021D01*
X138548286Y-106249896D01*
X138656036Y-106249896D01*
X138736848Y-106222959D01*
X138871535Y-106142146D01*
X138952347Y-106061334D01*
X139033159Y-105926647D01*
X139060097Y-105845835D01*
X139060097Y-105738085D01*
X139006222Y-105630336D01*
X138952347Y-105576461D01*
X138844598Y-105522586D01*
X138790723Y-105522586D01*
X137740164Y-105495649D02*
X138063413Y-105818898D01*
X137901788Y-105657273D02*
X138467474Y-105091588D01*
X138440537Y-105226275D01*
X138440537Y-105334024D01*
X138467474Y-105414836D01*
X137201416Y-104956901D02*
X137524665Y-105280149D01*
X137363040Y-105118525D02*
X137928726Y-104552840D01*
X137901788Y-104687527D01*
X137901788Y-104795276D01*
X137928726Y-104876088D01*
X134995185Y-97755375D02*
X135049060Y-97755375D01*
X135156809Y-97701500D01*
X135210684Y-97647625D01*
X135264559Y-97539876D01*
X135264559Y-97432126D01*
X135237622Y-97351314D01*
X135156809Y-97216627D01*
X135075997Y-97135815D01*
X134941310Y-97055003D01*
X134860498Y-97028065D01*
X134752748Y-97028065D01*
X134644999Y-97081940D01*
X134591124Y-97135815D01*
X134537249Y-97243564D01*
X134537249Y-97297439D01*
X134510312Y-98347998D02*
X134833561Y-98024749D01*
X134671936Y-98186374D02*
X134106251Y-97620688D01*
X134240938Y-97647625D01*
X134348687Y-97647625D01*
X134429500Y-97620688D01*
X133594440Y-98132499D02*
X133540565Y-98186374D01*
X133513628Y-98267186D01*
X133513628Y-98321061D01*
X133540565Y-98401873D01*
X133621377Y-98536560D01*
X133756064Y-98671247D01*
X133890751Y-98752059D01*
X133971564Y-98778996D01*
X134025438Y-98778996D01*
X134106251Y-98752059D01*
X134160125Y-98698184D01*
X134187063Y-98617372D01*
X134187063Y-98563497D01*
X134160125Y-98482685D01*
X134079313Y-98347998D01*
X133944626Y-98213311D01*
X133809939Y-98132499D01*
X133729127Y-98105561D01*
X133675252Y-98105561D01*
X133594440Y-98132499D01*
X155607714Y-117293166D02*
X155645809Y-117255071D01*
X155683904Y-117140785D01*
X155683904Y-117064595D01*
X155645809Y-116950309D01*
X155569619Y-116874119D01*
X155493428Y-116836023D01*
X155341047Y-116797928D01*
X155226761Y-116797928D01*
X155074380Y-116836023D01*
X154998190Y-116874119D01*
X154922000Y-116950309D01*
X154883904Y-117064595D01*
X154883904Y-117140785D01*
X154922000Y-117255071D01*
X154960095Y-117293166D01*
X154883904Y-117978880D02*
X154883904Y-117826500D01*
X154922000Y-117750309D01*
X154960095Y-117712214D01*
X155074380Y-117636023D01*
X155226761Y-117597928D01*
X155531523Y-117597928D01*
X155607714Y-117636023D01*
X155645809Y-117674119D01*
X155683904Y-117750309D01*
X155683904Y-117902690D01*
X155645809Y-117978880D01*
X155607714Y-118016976D01*
X155531523Y-118055071D01*
X155341047Y-118055071D01*
X155264857Y-118016976D01*
X155226761Y-117978880D01*
X155188666Y-117902690D01*
X155188666Y-117750309D01*
X155226761Y-117674119D01*
X155264857Y-117636023D01*
X155341047Y-117597928D01*
X132086333Y-95853214D02*
X132124428Y-95891309D01*
X132238714Y-95929404D01*
X132314904Y-95929404D01*
X132429190Y-95891309D01*
X132505380Y-95815119D01*
X132543476Y-95738928D01*
X132581571Y-95586547D01*
X132581571Y-95472261D01*
X132543476Y-95319880D01*
X132505380Y-95243690D01*
X132429190Y-95167500D01*
X132314904Y-95129404D01*
X132238714Y-95129404D01*
X132124428Y-95167500D01*
X132086333Y-95205595D01*
X131819666Y-95129404D02*
X131324428Y-95129404D01*
X131591095Y-95434166D01*
X131476809Y-95434166D01*
X131400619Y-95472261D01*
X131362523Y-95510357D01*
X131324428Y-95586547D01*
X131324428Y-95777023D01*
X131362523Y-95853214D01*
X131400619Y-95891309D01*
X131476809Y-95929404D01*
X131705380Y-95929404D01*
X131781571Y-95891309D01*
X131819666Y-95853214D01*
X120394694Y-90534506D02*
X120432789Y-90496411D01*
X120470884Y-90382125D01*
X120470884Y-90305935D01*
X120432789Y-90191649D01*
X120356599Y-90115459D01*
X120280408Y-90077363D01*
X120128027Y-90039268D01*
X120013741Y-90039268D01*
X119861360Y-90077363D01*
X119785170Y-90115459D01*
X119708980Y-90191649D01*
X119670884Y-90305935D01*
X119670884Y-90382125D01*
X119708980Y-90496411D01*
X119747075Y-90534506D01*
X119747075Y-90839268D02*
X119708980Y-90877363D01*
X119670884Y-90953554D01*
X119670884Y-91144030D01*
X119708980Y-91220220D01*
X119747075Y-91258316D01*
X119823265Y-91296411D01*
X119899456Y-91296411D01*
X120013741Y-91258316D01*
X120470884Y-90801173D01*
X120470884Y-91296411D01*
M02*
