G75*
%MOIN*%
%OFA0B0*%
%FSLAX25Y25*%
%IPPOS*%
%LPD*%
%AMOC8*
5,1,8,0,0,1.08239X$1,22.5*
%
%ADD10C,0.00000*%
%ADD11C,0.00800*%
%ADD12R,0.05118X0.05906*%
%ADD13R,0.04331X0.03937*%
%ADD14R,0.03937X0.04331*%
%ADD15C,0.05937*%
%ADD16R,0.02500X0.08500*%
%ADD17R,0.11811X0.17717*%
%ADD18C,0.01000*%
%ADD19C,0.02775*%
%ADD20C,0.03169*%
%ADD21C,0.01200*%
%ADD22C,0.01600*%
%ADD23C,0.21654*%
%ADD24C,0.05906*%
%ADD25C,0.04134*%
%ADD26C,0.05000*%
D10*
X0009500Y0011000D02*
X0241000Y0011000D01*
X0246000Y0011000D01*
X0249500Y0011000D01*
X0252500Y0011000D01*
X0253500Y0011000D01*
X0258500Y0016000D01*
X0258500Y0116000D01*
X0239000Y0135500D01*
X0239000Y0157000D01*
X0236500Y0159500D01*
X0017000Y0159500D01*
X0004500Y0147000D01*
X0004500Y0016000D01*
X0009500Y0011000D01*
D11*
X0020000Y0017000D02*
X0038000Y0017000D01*
X0045000Y0024000D01*
X0049500Y0028500D01*
X0072000Y0028500D01*
X0077500Y0034000D01*
X0074654Y0024000D02*
X0065000Y0024000D01*
X0060500Y0046000D02*
X0029000Y0046000D01*
X0030000Y0049000D02*
X0037500Y0049000D01*
X0039654Y0051154D01*
X0039654Y0055500D01*
X0041500Y0059500D02*
X0039654Y0061346D01*
X0039654Y0063500D01*
X0039654Y0065846D01*
X0037500Y0068000D01*
X0031000Y0068000D01*
X0023000Y0060000D01*
X0023000Y0055300D01*
X0028000Y0055300D02*
X0028000Y0051000D01*
X0030000Y0049000D01*
X0033000Y0055300D02*
X0033000Y0065000D01*
X0025000Y0066000D02*
X0023000Y0068000D01*
X0023000Y0080700D01*
X0018000Y0080700D02*
X0018000Y0086000D01*
X0021000Y0089000D01*
X0052000Y0089000D01*
X0060500Y0080500D01*
X0055000Y0070000D02*
X0049500Y0075500D01*
X0041500Y0075500D01*
X0039654Y0073654D01*
X0039654Y0071500D01*
X0030000Y0071500D01*
X0028000Y0073500D01*
X0028000Y0080700D01*
X0046346Y0071500D02*
X0050500Y0071500D01*
X0052000Y0070000D01*
X0052000Y0068000D01*
X0052000Y0065000D01*
X0050500Y0063500D01*
X0046346Y0063500D01*
X0041500Y0059500D02*
X0051500Y0059500D01*
X0055000Y0063000D01*
X0070000Y0063000D01*
X0073000Y0060000D01*
X0097000Y0060000D01*
X0093000Y0058000D02*
X0099000Y0052000D01*
X0111000Y0052000D01*
X0113000Y0050000D01*
X0113000Y0044500D01*
X0109000Y0048500D02*
X0098500Y0048500D01*
X0091500Y0055500D01*
X0070000Y0055500D01*
X0060500Y0046000D01*
X0064000Y0055500D02*
X0046346Y0055500D01*
X0057000Y0065000D02*
X0071000Y0065000D01*
X0073000Y0063000D01*
X0093000Y0063000D01*
X0093000Y0058000D02*
X0071000Y0058000D01*
X0068000Y0061000D01*
X0063000Y0061000D01*
X0061000Y0059000D01*
X0064000Y0055500D02*
X0066500Y0058000D01*
X0057000Y0065000D02*
X0055000Y0067000D01*
X0055000Y0070000D01*
X0082500Y0071000D02*
X0096000Y0071000D01*
X0105000Y0062000D01*
X0105000Y0059000D01*
X0108000Y0062000D02*
X0140000Y0062000D01*
X0158000Y0044000D01*
X0214000Y0044000D01*
X0228000Y0030000D01*
X0228000Y0020000D01*
X0233000Y0027500D02*
X0233500Y0027500D01*
X0215000Y0046000D01*
X0159000Y0046000D01*
X0141000Y0064000D01*
X0109000Y0064000D01*
X0098000Y0075000D01*
X0084500Y0075000D01*
X0053500Y0106000D01*
X0036500Y0106000D01*
X0026500Y0116000D01*
X0026500Y0109500D02*
X0032000Y0104000D01*
X0052500Y0104000D01*
X0083500Y0073000D01*
X0097000Y0073000D01*
X0108000Y0062000D01*
X0082500Y0071000D02*
X0052500Y0101000D01*
X0043000Y0101000D01*
X0090000Y0096000D02*
X0091734Y0094366D01*
X0106500Y0132500D02*
X0106500Y0134500D01*
X0103866Y0137134D01*
X0216358Y0093654D02*
X0216654Y0093654D01*
X0219000Y0093654D01*
X0227000Y0093654D02*
X0227000Y0086000D01*
X0228000Y0081000D02*
X0225500Y0081000D01*
X0228000Y0081000D02*
X0235000Y0088000D01*
X0235000Y0093654D01*
X0210001Y0019603D02*
X0208400Y0018001D01*
X0210535Y0018001D01*
X0210001Y0016400D02*
X0210001Y0019603D01*
X0025000Y0024000D02*
X0019500Y0029500D01*
X0017000Y0029500D01*
X0015500Y0031000D01*
X0015500Y0033846D01*
X0015346Y0034000D01*
X0015346Y0024000D02*
X0015346Y0021654D01*
X0020000Y0017000D01*
D12*
X0038760Y0136000D03*
X0046240Y0136000D03*
D13*
G36*
X0087995Y0133788D02*
X0091056Y0130727D01*
X0088273Y0127944D01*
X0085212Y0131005D01*
X0087995Y0133788D01*
G37*
G36*
X0093495Y0139288D02*
X0096556Y0136227D01*
X0093773Y0133444D01*
X0090712Y0136505D01*
X0093495Y0139288D01*
G37*
G36*
X0098995Y0144788D02*
X0102056Y0141727D01*
X0099273Y0138944D01*
X0096212Y0142005D01*
X0098995Y0144788D01*
G37*
G36*
X0107030Y0152753D02*
X0110091Y0149692D01*
X0107308Y0146909D01*
X0104247Y0149970D01*
X0107030Y0152753D01*
G37*
G36*
X0111763Y0148020D02*
X0114824Y0144959D01*
X0112041Y0142176D01*
X0108980Y0145237D01*
X0111763Y0148020D01*
G37*
G36*
X0103727Y0140056D02*
X0106788Y0136995D01*
X0104005Y0134212D01*
X0100944Y0137273D01*
X0103727Y0140056D01*
G37*
G36*
X0098227Y0134556D02*
X0101288Y0131495D01*
X0098505Y0128712D01*
X0095444Y0131773D01*
X0098227Y0134556D01*
G37*
G36*
X0092727Y0129056D02*
X0095788Y0125995D01*
X0093005Y0123212D01*
X0089944Y0126273D01*
X0092727Y0129056D01*
G37*
G36*
X0123712Y0117495D02*
X0126773Y0120556D01*
X0129556Y0117773D01*
X0126495Y0114712D01*
X0123712Y0117495D01*
G37*
G36*
X0128444Y0122227D02*
X0131505Y0125288D01*
X0134288Y0122505D01*
X0131227Y0119444D01*
X0128444Y0122227D01*
G37*
G36*
X0141444Y0109727D02*
X0144505Y0112788D01*
X0147288Y0110005D01*
X0144227Y0106944D01*
X0141444Y0109727D01*
G37*
G36*
X0136712Y0104995D02*
X0139773Y0108056D01*
X0142556Y0105273D01*
X0139495Y0102212D01*
X0136712Y0104995D01*
G37*
G36*
X0157944Y0092727D02*
X0161005Y0095788D01*
X0163788Y0093005D01*
X0160727Y0089944D01*
X0157944Y0092727D01*
G37*
G36*
X0153212Y0087995D02*
X0156273Y0091056D01*
X0159056Y0088273D01*
X0155995Y0085212D01*
X0153212Y0087995D01*
G37*
G36*
X0159212Y0081995D02*
X0162273Y0085056D01*
X0165056Y0082273D01*
X0161995Y0079212D01*
X0159212Y0081995D01*
G37*
G36*
X0163944Y0086727D02*
X0167005Y0089788D01*
X0169788Y0087005D01*
X0166727Y0083944D01*
X0163944Y0086727D01*
G37*
G36*
X0151995Y0077788D02*
X0155056Y0074727D01*
X0152273Y0071944D01*
X0149212Y0075005D01*
X0151995Y0077788D01*
G37*
G36*
X0156727Y0073056D02*
X0159788Y0069995D01*
X0157005Y0067212D01*
X0153944Y0070273D01*
X0156727Y0073056D01*
G37*
G36*
X0145495Y0071288D02*
X0148556Y0068227D01*
X0145773Y0065444D01*
X0142712Y0068505D01*
X0145495Y0071288D01*
G37*
G36*
X0150227Y0066556D02*
X0153288Y0063495D01*
X0150505Y0060712D01*
X0147444Y0063773D01*
X0150227Y0066556D01*
G37*
G36*
X0132995Y0058788D02*
X0136056Y0055727D01*
X0133273Y0052944D01*
X0130212Y0056005D01*
X0132995Y0058788D01*
G37*
G36*
X0137727Y0054056D02*
X0140788Y0050995D01*
X0138005Y0048212D01*
X0134944Y0051273D01*
X0137727Y0054056D01*
G37*
G36*
X0127495Y0053288D02*
X0130556Y0050227D01*
X0127773Y0047444D01*
X0124712Y0050505D01*
X0127495Y0053288D01*
G37*
G36*
X0132227Y0048556D02*
X0135288Y0045495D01*
X0132505Y0042712D01*
X0129444Y0045773D01*
X0132227Y0048556D01*
G37*
G36*
X0134495Y0038288D02*
X0137556Y0035227D01*
X0134773Y0032444D01*
X0131712Y0035505D01*
X0134495Y0038288D01*
G37*
G36*
X0139227Y0033556D02*
X0142288Y0030495D01*
X0139505Y0027712D01*
X0136444Y0030773D01*
X0139227Y0033556D01*
G37*
G36*
X0128273Y0025944D02*
X0125212Y0029005D01*
X0127995Y0031788D01*
X0131056Y0028727D01*
X0128273Y0025944D01*
G37*
G36*
X0133005Y0021212D02*
X0129944Y0024273D01*
X0132727Y0027056D01*
X0135788Y0023995D01*
X0133005Y0021212D01*
G37*
G36*
X0107944Y0022727D02*
X0111005Y0025788D01*
X0113788Y0023005D01*
X0110727Y0019944D01*
X0107944Y0022727D01*
G37*
G36*
X0103212Y0017995D02*
X0106273Y0021056D01*
X0109056Y0018273D01*
X0105995Y0015212D01*
X0103212Y0017995D01*
G37*
G36*
X0095712Y0025495D02*
X0098773Y0028556D01*
X0101556Y0025773D01*
X0098495Y0022712D01*
X0095712Y0025495D01*
G37*
G36*
X0100444Y0030227D02*
X0103505Y0033288D01*
X0106288Y0030505D01*
X0103227Y0027444D01*
X0100444Y0030227D01*
G37*
G36*
X0090212Y0030995D02*
X0093273Y0034056D01*
X0096056Y0031273D01*
X0092995Y0028212D01*
X0090212Y0030995D01*
G37*
G36*
X0094944Y0035727D02*
X0098005Y0038788D01*
X0100788Y0036005D01*
X0097727Y0032944D01*
X0094944Y0035727D01*
G37*
G36*
X0078712Y0042495D02*
X0081773Y0045556D01*
X0084556Y0042773D01*
X0081495Y0039712D01*
X0078712Y0042495D01*
G37*
G36*
X0083444Y0047227D02*
X0086505Y0050288D01*
X0089288Y0047505D01*
X0086227Y0044444D01*
X0083444Y0047227D01*
G37*
X0069346Y0068500D03*
X0062654Y0068500D03*
X0046346Y0084000D03*
X0039654Y0084000D03*
G36*
X0085773Y0085444D02*
X0082712Y0088505D01*
X0085495Y0091288D01*
X0088556Y0088227D01*
X0085773Y0085444D01*
G37*
G36*
X0090505Y0080712D02*
X0087444Y0083773D01*
X0090227Y0086556D01*
X0093288Y0083495D01*
X0090505Y0080712D01*
G37*
G36*
X0096605Y0086712D02*
X0093544Y0089773D01*
X0096327Y0092556D01*
X0099388Y0089495D01*
X0096605Y0086712D01*
G37*
G36*
X0091873Y0091444D02*
X0088812Y0094505D01*
X0091595Y0097288D01*
X0094656Y0094227D01*
X0091873Y0091444D01*
G37*
G36*
X0103505Y0093712D02*
X0100444Y0096773D01*
X0103227Y0099556D01*
X0106288Y0096495D01*
X0103505Y0093712D01*
G37*
G36*
X0098773Y0098444D02*
X0095712Y0101505D01*
X0098495Y0104288D01*
X0101556Y0101227D01*
X0098773Y0098444D01*
G37*
G36*
X0143556Y0143773D02*
X0140495Y0140712D01*
X0137712Y0143495D01*
X0140773Y0146556D01*
X0143556Y0143773D01*
G37*
G36*
X0148288Y0148505D02*
X0145227Y0145444D01*
X0142444Y0148227D01*
X0145505Y0151288D01*
X0148288Y0148505D01*
G37*
X0189654Y0152500D03*
X0196346Y0152500D03*
X0219000Y0100346D03*
X0219000Y0093654D03*
X0217346Y0077000D03*
X0210654Y0077000D03*
X0210654Y0069000D03*
X0217346Y0069000D03*
X0217346Y0060000D03*
X0210654Y0060000D03*
X0202846Y0058000D03*
X0196154Y0058000D03*
X0196154Y0066000D03*
X0202846Y0066000D03*
X0210654Y0052000D03*
X0217346Y0052000D03*
G36*
X0178005Y0050712D02*
X0174944Y0053773D01*
X0177727Y0056556D01*
X0180788Y0053495D01*
X0178005Y0050712D01*
G37*
G36*
X0173273Y0055444D02*
X0170212Y0058505D01*
X0172995Y0061288D01*
X0176056Y0058227D01*
X0173273Y0055444D01*
G37*
D14*
X0227000Y0093654D03*
X0235000Y0093654D03*
X0235000Y0100346D03*
X0227000Y0100346D03*
X0081346Y0024000D03*
X0074654Y0024000D03*
X0046346Y0055500D03*
X0039654Y0055500D03*
X0039654Y0063500D03*
X0046346Y0063500D03*
X0046346Y0071500D03*
X0039654Y0071500D03*
X0015346Y0034000D03*
X0008654Y0034000D03*
X0008654Y0024000D03*
X0015346Y0024000D03*
D15*
X0025000Y0024000D03*
X0035000Y0024000D03*
X0045000Y0024000D03*
X0055000Y0024000D03*
X0065000Y0024000D03*
X0065000Y0034000D03*
X0055000Y0034000D03*
X0045000Y0034000D03*
X0035000Y0034000D03*
X0025000Y0034000D03*
D16*
X0023000Y0055300D03*
X0018000Y0055300D03*
X0028000Y0055300D03*
X0033000Y0055300D03*
X0033000Y0080700D03*
X0028000Y0080700D03*
X0023000Y0080700D03*
X0018000Y0080700D03*
D17*
X0071000Y0109000D03*
X0193000Y0096000D03*
D18*
X0193500Y0095873D02*
X0214795Y0095873D01*
X0214843Y0095921D02*
X0214091Y0095169D01*
X0213683Y0094186D01*
X0213683Y0093121D01*
X0214091Y0092138D01*
X0214843Y0091386D01*
X0215645Y0091054D01*
X0216301Y0090398D01*
X0221699Y0090398D01*
X0222453Y0091152D01*
X0222453Y0096155D01*
X0221699Y0096909D01*
X0216301Y0096909D01*
X0215645Y0096253D01*
X0214843Y0095921D01*
X0213969Y0094875D02*
X0200405Y0094875D01*
X0200405Y0095500D02*
X0200405Y0086944D01*
X0200303Y0086563D01*
X0200106Y0086221D01*
X0199827Y0085941D01*
X0199484Y0085744D01*
X0199103Y0085642D01*
X0193500Y0085642D01*
X0193500Y0095500D01*
X0193500Y0096500D01*
X0192500Y0096500D01*
X0192500Y0106358D01*
X0186897Y0106358D01*
X0186516Y0106256D01*
X0186173Y0106059D01*
X0185894Y0105779D01*
X0185697Y0105437D01*
X0185594Y0105056D01*
X0185594Y0096500D01*
X0192500Y0096500D01*
X0192500Y0095500D01*
X0193500Y0095500D01*
X0200405Y0095500D01*
X0200405Y0096500D02*
X0200405Y0105056D01*
X0200303Y0105437D01*
X0200106Y0105779D01*
X0199827Y0106059D01*
X0199484Y0106256D01*
X0199103Y0106358D01*
X0193500Y0106358D01*
X0193500Y0096500D01*
X0200405Y0096500D01*
X0200405Y0096872D02*
X0216264Y0096872D01*
X0216301Y0097091D02*
X0221699Y0097091D01*
X0222453Y0097845D01*
X0222453Y0098713D01*
X0223744Y0098713D01*
X0223744Y0097648D01*
X0224392Y0097000D01*
X0223744Y0096352D01*
X0223744Y0090955D01*
X0224498Y0090201D01*
X0225313Y0090201D01*
X0225313Y0088095D01*
X0224732Y0087515D01*
X0224325Y0086532D01*
X0224325Y0085468D01*
X0224732Y0084485D01*
X0225485Y0083732D01*
X0225624Y0083675D01*
X0224968Y0083675D01*
X0223985Y0083268D01*
X0223232Y0082515D01*
X0222825Y0081532D01*
X0222825Y0080468D01*
X0223232Y0079485D01*
X0223985Y0078732D01*
X0224968Y0078325D01*
X0226032Y0078325D01*
X0227015Y0078732D01*
X0227595Y0079313D01*
X0228699Y0079313D01*
X0236687Y0087301D01*
X0236687Y0088699D01*
X0236687Y0090201D01*
X0237502Y0090201D01*
X0238256Y0090955D01*
X0238256Y0096352D01*
X0237608Y0097000D01*
X0238256Y0097648D01*
X0238256Y0103045D01*
X0237502Y0103799D01*
X0232498Y0103799D01*
X0231744Y0103045D01*
X0231744Y0102287D01*
X0230256Y0102287D01*
X0230256Y0103045D01*
X0229502Y0103799D01*
X0224498Y0103799D01*
X0223744Y0103045D01*
X0223744Y0102287D01*
X0222453Y0102287D01*
X0222453Y0102848D01*
X0221699Y0103602D01*
X0216301Y0103602D01*
X0215547Y0102848D01*
X0215547Y0102287D01*
X0214995Y0102287D01*
X0214515Y0102768D01*
X0213532Y0103175D01*
X0212468Y0103175D01*
X0211485Y0102768D01*
X0210732Y0102015D01*
X0210325Y0101032D01*
X0210325Y0099968D01*
X0210732Y0098985D01*
X0211485Y0098232D01*
X0212468Y0097825D01*
X0213532Y0097825D01*
X0214515Y0098232D01*
X0214995Y0098713D01*
X0215547Y0098713D01*
X0215547Y0097845D01*
X0216301Y0097091D01*
X0215547Y0097870D02*
X0213641Y0097870D01*
X0212359Y0097870D02*
X0200405Y0097870D01*
X0200405Y0098869D02*
X0210848Y0098869D01*
X0210367Y0099868D02*
X0200405Y0099868D01*
X0200405Y0100866D02*
X0210325Y0100866D01*
X0210670Y0101865D02*
X0200405Y0101865D01*
X0200405Y0102863D02*
X0211715Y0102863D01*
X0214285Y0102863D02*
X0215562Y0102863D01*
X0213000Y0100500D02*
X0219020Y0100500D01*
X0219000Y0100480D01*
X0219000Y0100346D01*
X0219020Y0100500D02*
X0227055Y0100500D01*
X0227000Y0100445D01*
X0227000Y0100346D01*
X0227055Y0100500D02*
X0234846Y0100500D01*
X0235000Y0100346D01*
X0238256Y0099868D02*
X0257213Y0099868D01*
X0257213Y0100866D02*
X0238256Y0100866D01*
X0238256Y0101865D02*
X0257213Y0101865D01*
X0257213Y0102863D02*
X0238256Y0102863D01*
X0238256Y0098869D02*
X0257213Y0098869D01*
X0257213Y0097870D02*
X0238256Y0097870D01*
X0237736Y0096872D02*
X0257213Y0096872D01*
X0257213Y0095873D02*
X0238256Y0095873D01*
X0238256Y0094875D02*
X0257213Y0094875D01*
X0257213Y0093876D02*
X0238256Y0093876D01*
X0238256Y0092878D02*
X0257213Y0092878D01*
X0257213Y0091879D02*
X0238256Y0091879D01*
X0238182Y0090881D02*
X0257213Y0090881D01*
X0257213Y0089882D02*
X0236687Y0089882D01*
X0236687Y0088884D02*
X0257213Y0088884D01*
X0257213Y0087885D02*
X0236687Y0087885D01*
X0236273Y0086887D02*
X0257213Y0086887D01*
X0257213Y0085888D02*
X0235275Y0085888D01*
X0234276Y0084890D02*
X0257213Y0084890D01*
X0257213Y0083891D02*
X0233278Y0083891D01*
X0232279Y0082893D02*
X0257213Y0082893D01*
X0257213Y0081894D02*
X0231281Y0081894D01*
X0230282Y0080896D02*
X0257213Y0080896D01*
X0257213Y0079897D02*
X0229284Y0079897D01*
X0227182Y0078899D02*
X0257213Y0078899D01*
X0257213Y0077900D02*
X0220799Y0077900D01*
X0220799Y0076902D02*
X0257213Y0076902D01*
X0257213Y0075903D02*
X0220799Y0075903D01*
X0220799Y0074905D02*
X0257213Y0074905D01*
X0257213Y0073906D02*
X0220207Y0073906D01*
X0220045Y0073744D02*
X0220799Y0074498D01*
X0220799Y0079502D01*
X0220045Y0080256D01*
X0214648Y0080256D01*
X0214115Y0079723D01*
X0214019Y0079890D01*
X0213740Y0080169D01*
X0213398Y0080366D01*
X0213016Y0080468D01*
X0211138Y0080468D01*
X0211138Y0077484D01*
X0210169Y0077484D01*
X0210169Y0076516D01*
X0206988Y0076516D01*
X0206988Y0074834D01*
X0207090Y0074453D01*
X0207288Y0074110D01*
X0207567Y0073831D01*
X0207909Y0073634D01*
X0208291Y0073531D01*
X0210169Y0073531D01*
X0210169Y0076516D01*
X0211138Y0076516D01*
X0211138Y0073531D01*
X0213016Y0073531D01*
X0213398Y0073634D01*
X0213740Y0073831D01*
X0214019Y0074110D01*
X0214115Y0074277D01*
X0214648Y0073744D01*
X0215259Y0073744D01*
X0215259Y0072256D01*
X0214648Y0072256D01*
X0214115Y0071723D01*
X0214019Y0071890D01*
X0213740Y0072169D01*
X0213398Y0072366D01*
X0213016Y0072468D01*
X0211138Y0072468D01*
X0211138Y0069484D01*
X0210169Y0069484D01*
X0210169Y0068516D01*
X0206988Y0068516D01*
X0206988Y0066834D01*
X0207090Y0066453D01*
X0207288Y0066110D01*
X0207567Y0065831D01*
X0207909Y0065634D01*
X0208291Y0065531D01*
X0210169Y0065531D01*
X0210169Y0068516D01*
X0211138Y0068516D01*
X0211138Y0065531D01*
X0213016Y0065531D01*
X0213398Y0065634D01*
X0213740Y0065831D01*
X0214019Y0066110D01*
X0214115Y0066277D01*
X0214325Y0066067D01*
X0214325Y0065968D01*
X0214732Y0064985D01*
X0215217Y0064500D01*
X0214732Y0064015D01*
X0214325Y0063032D01*
X0214325Y0062933D01*
X0214115Y0062723D01*
X0214019Y0062890D01*
X0213740Y0063169D01*
X0213398Y0063366D01*
X0213016Y0063468D01*
X0211138Y0063468D01*
X0211138Y0060484D01*
X0210169Y0060484D01*
X0210169Y0059516D01*
X0206988Y0059516D01*
X0206988Y0057834D01*
X0207090Y0057453D01*
X0207288Y0057110D01*
X0207567Y0056831D01*
X0207909Y0056634D01*
X0208291Y0056531D01*
X0210169Y0056531D01*
X0210169Y0059516D01*
X0211138Y0059516D01*
X0211138Y0056531D01*
X0213016Y0056531D01*
X0213398Y0056634D01*
X0213740Y0056831D01*
X0214019Y0057110D01*
X0214115Y0057277D01*
X0214648Y0056744D01*
X0215259Y0056744D01*
X0215259Y0055256D01*
X0214648Y0055256D01*
X0214115Y0054723D01*
X0214019Y0054890D01*
X0213740Y0055169D01*
X0213398Y0055366D01*
X0213016Y0055468D01*
X0211138Y0055468D01*
X0211138Y0052484D01*
X0210169Y0052484D01*
X0210169Y0051516D01*
X0206988Y0051516D01*
X0206988Y0049834D01*
X0207090Y0049453D01*
X0207288Y0049110D01*
X0207567Y0048831D01*
X0207909Y0048634D01*
X0208291Y0048531D01*
X0210169Y0048531D01*
X0210169Y0051516D01*
X0211138Y0051516D01*
X0211138Y0048531D01*
X0213016Y0048531D01*
X0213398Y0048634D01*
X0213740Y0048831D01*
X0214019Y0049110D01*
X0214115Y0049277D01*
X0214648Y0048744D01*
X0220045Y0048744D01*
X0220799Y0049498D01*
X0220799Y0054502D01*
X0220045Y0055256D01*
X0219434Y0055256D01*
X0219434Y0056744D01*
X0220045Y0056744D01*
X0220799Y0057498D01*
X0220799Y0062502D01*
X0220045Y0063256D01*
X0219582Y0063256D01*
X0219268Y0064015D01*
X0218783Y0064500D01*
X0219268Y0064985D01*
X0219582Y0065744D01*
X0220045Y0065744D01*
X0220799Y0066498D01*
X0220799Y0071502D01*
X0220045Y0072256D01*
X0219434Y0072256D01*
X0219434Y0073744D01*
X0220045Y0073744D01*
X0219434Y0072908D02*
X0257213Y0072908D01*
X0257213Y0071909D02*
X0220392Y0071909D01*
X0220799Y0070911D02*
X0257213Y0070911D01*
X0257213Y0069912D02*
X0220799Y0069912D01*
X0220799Y0068914D02*
X0257213Y0068914D01*
X0257213Y0067915D02*
X0220799Y0067915D01*
X0220799Y0066917D02*
X0257213Y0066917D01*
X0257213Y0065918D02*
X0220219Y0065918D01*
X0219202Y0064920D02*
X0257213Y0064920D01*
X0257213Y0063921D02*
X0219307Y0063921D01*
X0220378Y0062923D02*
X0257213Y0062923D01*
X0257213Y0061924D02*
X0220799Y0061924D01*
X0220799Y0060926D02*
X0257213Y0060926D01*
X0257213Y0059927D02*
X0220799Y0059927D01*
X0220799Y0058929D02*
X0257213Y0058929D01*
X0257213Y0057930D02*
X0220799Y0057930D01*
X0220232Y0056932D02*
X0257213Y0056932D01*
X0257213Y0055933D02*
X0219434Y0055933D01*
X0220366Y0054934D02*
X0257213Y0054934D01*
X0257213Y0053936D02*
X0220799Y0053936D01*
X0220799Y0052937D02*
X0257213Y0052937D01*
X0257213Y0051939D02*
X0220799Y0051939D01*
X0220799Y0050940D02*
X0257213Y0050940D01*
X0257213Y0049942D02*
X0220799Y0049942D01*
X0220244Y0048943D02*
X0257213Y0048943D01*
X0257213Y0047945D02*
X0159441Y0047945D01*
X0159699Y0047687D02*
X0142687Y0064699D01*
X0141699Y0065687D01*
X0109699Y0065687D01*
X0099687Y0075699D01*
X0098699Y0076687D01*
X0085199Y0076687D01*
X0054199Y0107687D01*
X0037199Y0107687D01*
X0029175Y0115712D01*
X0029175Y0116532D01*
X0028768Y0117515D01*
X0028015Y0118268D01*
X0027032Y0118675D01*
X0025968Y0118675D01*
X0024985Y0118268D01*
X0024232Y0117515D01*
X0023825Y0116532D01*
X0023825Y0115468D01*
X0024232Y0114485D01*
X0024985Y0113732D01*
X0025968Y0113325D01*
X0026788Y0113325D01*
X0034426Y0105687D01*
X0032699Y0105687D01*
X0029175Y0109212D01*
X0029175Y0110032D01*
X0028768Y0111015D01*
X0028015Y0111768D01*
X0027032Y0112175D01*
X0025968Y0112175D01*
X0024985Y0111768D01*
X0024232Y0111015D01*
X0023825Y0110032D01*
X0023825Y0108968D01*
X0024232Y0107985D01*
X0024985Y0107232D01*
X0025968Y0106825D01*
X0026788Y0106825D01*
X0031301Y0102313D01*
X0040649Y0102313D01*
X0040325Y0101532D01*
X0040325Y0100468D01*
X0040732Y0099485D01*
X0041485Y0098732D01*
X0042468Y0098325D01*
X0043532Y0098325D01*
X0044515Y0098732D01*
X0045095Y0099313D01*
X0051801Y0099313D01*
X0080813Y0070301D01*
X0081801Y0069313D01*
X0095301Y0069313D01*
X0103313Y0061301D01*
X0103313Y0061095D01*
X0102732Y0060515D01*
X0102325Y0059532D01*
X0102325Y0058468D01*
X0102732Y0057485D01*
X0103485Y0056732D01*
X0104468Y0056325D01*
X0105532Y0056325D01*
X0106515Y0056732D01*
X0107268Y0057485D01*
X0107675Y0058468D01*
X0107675Y0059532D01*
X0107351Y0060313D01*
X0139301Y0060313D01*
X0156313Y0043301D01*
X0157301Y0042313D01*
X0213301Y0042313D01*
X0226313Y0029301D01*
X0226313Y0022095D01*
X0225732Y0021515D01*
X0225325Y0020532D01*
X0225325Y0019468D01*
X0225732Y0018485D01*
X0226485Y0017732D01*
X0227468Y0017325D01*
X0228532Y0017325D01*
X0229515Y0017732D01*
X0230268Y0018485D01*
X0230675Y0019468D01*
X0230675Y0020532D01*
X0230268Y0021515D01*
X0229687Y0022095D01*
X0229687Y0028926D01*
X0230400Y0028213D01*
X0230325Y0028032D01*
X0230325Y0026968D01*
X0230732Y0025985D01*
X0231485Y0025232D01*
X0232468Y0024825D01*
X0233532Y0024825D01*
X0234515Y0025232D01*
X0235268Y0025985D01*
X0235675Y0026968D01*
X0235675Y0028032D01*
X0235268Y0029015D01*
X0234515Y0029768D01*
X0233532Y0030175D01*
X0233212Y0030175D01*
X0216687Y0046699D01*
X0215699Y0047687D01*
X0159699Y0047687D01*
X0158443Y0048943D02*
X0207455Y0048943D01*
X0206988Y0049942D02*
X0179358Y0049942D01*
X0178927Y0049510D02*
X0180116Y0050699D01*
X0177866Y0052949D01*
X0175756Y0050839D01*
X0177084Y0049510D01*
X0177427Y0049313D01*
X0177808Y0049211D01*
X0178203Y0049211D01*
X0178584Y0049313D01*
X0178927Y0049510D01*
X0179875Y0050940D02*
X0206988Y0050940D01*
X0206988Y0052484D02*
X0210169Y0052484D01*
X0210169Y0055468D01*
X0208291Y0055468D01*
X0207909Y0055366D01*
X0207567Y0055169D01*
X0207288Y0054890D01*
X0207090Y0054547D01*
X0206988Y0054166D01*
X0206988Y0052484D01*
X0206988Y0052937D02*
X0198220Y0052937D01*
X0198015Y0052732D02*
X0198768Y0053485D01*
X0199175Y0054468D01*
X0199175Y0055067D01*
X0199385Y0055277D01*
X0199481Y0055110D01*
X0199760Y0054831D01*
X0200102Y0054634D01*
X0200484Y0054531D01*
X0202362Y0054531D01*
X0202362Y0057516D01*
X0203331Y0057516D01*
X0203331Y0058484D01*
X0206512Y0058484D01*
X0206512Y0060166D01*
X0206410Y0060547D01*
X0206212Y0060890D01*
X0205933Y0061169D01*
X0205591Y0061366D01*
X0205209Y0061468D01*
X0203331Y0061468D01*
X0203331Y0058484D01*
X0202362Y0058484D01*
X0202362Y0061468D01*
X0200484Y0061468D01*
X0200102Y0061366D01*
X0199760Y0061169D01*
X0199481Y0060890D01*
X0199385Y0060723D01*
X0198852Y0061256D01*
X0198241Y0061256D01*
X0198241Y0062744D01*
X0198852Y0062744D01*
X0199385Y0063277D01*
X0199481Y0063110D01*
X0199760Y0062831D01*
X0200102Y0062634D01*
X0200484Y0062531D01*
X0202362Y0062531D01*
X0202362Y0065516D01*
X0203331Y0065516D01*
X0203331Y0066484D01*
X0206512Y0066484D01*
X0206512Y0068166D01*
X0206410Y0068547D01*
X0206212Y0068890D01*
X0205933Y0069169D01*
X0205591Y0069366D01*
X0205209Y0069468D01*
X0203331Y0069468D01*
X0203331Y0066484D01*
X0202362Y0066484D01*
X0202362Y0069468D01*
X0200484Y0069468D01*
X0200102Y0069366D01*
X0199760Y0069169D01*
X0199481Y0068890D01*
X0199385Y0068723D01*
X0198852Y0069256D01*
X0193455Y0069256D01*
X0192701Y0068502D01*
X0192701Y0063498D01*
X0193455Y0062744D01*
X0194066Y0062744D01*
X0194066Y0061256D01*
X0193455Y0061256D01*
X0192701Y0060502D01*
X0192701Y0055498D01*
X0193455Y0054744D01*
X0193825Y0054744D01*
X0193825Y0054468D01*
X0194232Y0053485D01*
X0194985Y0052732D01*
X0195968Y0052325D01*
X0197032Y0052325D01*
X0198015Y0052732D01*
X0198954Y0053936D02*
X0206988Y0053936D01*
X0207333Y0054934D02*
X0206036Y0054934D01*
X0205933Y0054831D02*
X0206212Y0055110D01*
X0206410Y0055453D01*
X0206512Y0055834D01*
X0206512Y0057516D01*
X0203331Y0057516D01*
X0203331Y0054531D01*
X0205209Y0054531D01*
X0205591Y0054634D01*
X0205933Y0054831D01*
X0206512Y0055933D02*
X0215259Y0055933D01*
X0214460Y0056932D02*
X0213840Y0056932D01*
X0211138Y0056932D02*
X0210169Y0056932D01*
X0210169Y0057930D02*
X0211138Y0057930D01*
X0211138Y0058929D02*
X0210169Y0058929D01*
X0210169Y0059927D02*
X0206512Y0059927D01*
X0206988Y0060484D02*
X0210169Y0060484D01*
X0210169Y0063468D01*
X0208291Y0063468D01*
X0207909Y0063366D01*
X0207567Y0063169D01*
X0207288Y0062890D01*
X0207090Y0062547D01*
X0206988Y0062166D01*
X0206988Y0060484D01*
X0206988Y0060926D02*
X0206176Y0060926D01*
X0206988Y0061924D02*
X0198241Y0061924D01*
X0199031Y0062923D02*
X0199669Y0062923D01*
X0199517Y0060926D02*
X0199182Y0060926D01*
X0202362Y0060926D02*
X0203331Y0060926D01*
X0203331Y0059927D02*
X0202362Y0059927D01*
X0202362Y0058929D02*
X0203331Y0058929D01*
X0203331Y0057930D02*
X0206988Y0057930D01*
X0206988Y0058929D02*
X0206512Y0058929D01*
X0206512Y0056932D02*
X0207467Y0056932D01*
X0210169Y0054934D02*
X0211138Y0054934D01*
X0211138Y0053936D02*
X0210169Y0053936D01*
X0210169Y0052937D02*
X0211138Y0052937D01*
X0210169Y0051939D02*
X0181355Y0051939D01*
X0180801Y0051384D02*
X0181990Y0052573D01*
X0182187Y0052916D01*
X0182289Y0053297D01*
X0182289Y0053692D01*
X0182187Y0054073D01*
X0181990Y0054416D01*
X0180661Y0055744D01*
X0178551Y0053634D01*
X0177866Y0054319D01*
X0179976Y0056429D01*
X0178648Y0057757D01*
X0178306Y0057955D01*
X0177925Y0058057D01*
X0177530Y0058057D01*
X0177344Y0058007D01*
X0177344Y0058760D01*
X0173528Y0062577D01*
X0172706Y0062577D01*
X0172515Y0062768D01*
X0171532Y0063175D01*
X0170468Y0063175D01*
X0169485Y0062768D01*
X0168732Y0062015D01*
X0168325Y0061032D01*
X0168325Y0059968D01*
X0168732Y0058985D01*
X0168923Y0058794D01*
X0168923Y0057972D01*
X0172740Y0054156D01*
X0173493Y0054156D01*
X0173443Y0053970D01*
X0173443Y0053575D01*
X0173545Y0053194D01*
X0173743Y0052852D01*
X0175071Y0051524D01*
X0177181Y0053634D01*
X0177866Y0052949D01*
X0178551Y0053634D01*
X0180801Y0051384D01*
X0180246Y0051939D02*
X0178876Y0051939D01*
X0179247Y0052937D02*
X0177878Y0052937D01*
X0177855Y0052937D02*
X0176485Y0052937D01*
X0176856Y0051939D02*
X0175487Y0051939D01*
X0174656Y0051939D02*
X0155447Y0051939D01*
X0154449Y0052937D02*
X0173694Y0052937D01*
X0173443Y0053936D02*
X0153450Y0053936D01*
X0152452Y0054934D02*
X0171961Y0054934D01*
X0170962Y0055933D02*
X0151453Y0055933D01*
X0150455Y0056932D02*
X0169964Y0056932D01*
X0168965Y0057930D02*
X0149456Y0057930D01*
X0150289Y0058929D02*
X0148458Y0058929D01*
X0149732Y0059485D02*
X0150485Y0058732D01*
X0151468Y0058325D01*
X0152532Y0058325D01*
X0153515Y0058732D01*
X0154268Y0059485D01*
X0154675Y0060468D01*
X0154675Y0061532D01*
X0154268Y0062515D01*
X0154199Y0062584D01*
X0154577Y0062961D01*
X0154577Y0064028D01*
X0150760Y0067844D01*
X0150007Y0067844D01*
X0150057Y0068030D01*
X0150057Y0068425D01*
X0149955Y0068806D01*
X0149757Y0069148D01*
X0148429Y0070476D01*
X0146319Y0068366D01*
X0145634Y0069051D01*
X0147744Y0071161D01*
X0146416Y0072490D01*
X0146073Y0072687D01*
X0145692Y0072789D01*
X0145297Y0072789D01*
X0144916Y0072687D01*
X0144573Y0072490D01*
X0143384Y0071301D01*
X0145634Y0069051D01*
X0144949Y0068366D01*
X0145634Y0067681D01*
X0143524Y0065571D01*
X0144852Y0064243D01*
X0145194Y0064045D01*
X0145575Y0063943D01*
X0145970Y0063943D01*
X0146156Y0063993D01*
X0146156Y0063240D01*
X0149606Y0059789D01*
X0149732Y0059485D01*
X0149468Y0059927D02*
X0147459Y0059927D01*
X0146461Y0060926D02*
X0148470Y0060926D01*
X0147471Y0061924D02*
X0145462Y0061924D01*
X0144464Y0062923D02*
X0146473Y0062923D01*
X0146156Y0063921D02*
X0143465Y0063921D01*
X0142687Y0064699D02*
X0142687Y0064699D01*
X0142467Y0064920D02*
X0144175Y0064920D01*
X0143870Y0065918D02*
X0109468Y0065918D01*
X0108470Y0066917D02*
X0142178Y0066917D01*
X0142839Y0066256D02*
X0141510Y0067584D01*
X0141313Y0067927D01*
X0141211Y0068308D01*
X0141211Y0068703D01*
X0141313Y0069084D01*
X0141510Y0069427D01*
X0142699Y0070616D01*
X0144949Y0068366D01*
X0142839Y0066256D01*
X0143499Y0066917D02*
X0144869Y0066917D01*
X0144498Y0067915D02*
X0145400Y0067915D01*
X0145496Y0068914D02*
X0144401Y0068914D01*
X0144773Y0069912D02*
X0143403Y0069912D01*
X0143774Y0070911D02*
X0104476Y0070911D01*
X0105474Y0069912D02*
X0141996Y0069912D01*
X0141267Y0068914D02*
X0106473Y0068914D01*
X0107471Y0067915D02*
X0141319Y0067915D01*
X0145771Y0068914D02*
X0146866Y0068914D01*
X0146495Y0069912D02*
X0147864Y0069912D01*
X0147493Y0070911D02*
X0151184Y0070911D01*
X0151352Y0070743D02*
X0151694Y0070545D01*
X0152075Y0070443D01*
X0152470Y0070443D01*
X0152656Y0070493D01*
X0152656Y0069740D01*
X0156472Y0065923D01*
X0157294Y0065923D01*
X0157485Y0065732D01*
X0158468Y0065325D01*
X0159532Y0065325D01*
X0160515Y0065732D01*
X0161268Y0066485D01*
X0161675Y0067468D01*
X0161675Y0068532D01*
X0161268Y0069515D01*
X0161077Y0069706D01*
X0161077Y0070528D01*
X0157260Y0074344D01*
X0156507Y0074344D01*
X0156557Y0074530D01*
X0156557Y0074925D01*
X0156455Y0075306D01*
X0156257Y0075648D01*
X0154929Y0076976D01*
X0152819Y0074866D01*
X0152134Y0075551D01*
X0154244Y0077661D01*
X0152916Y0078990D01*
X0152573Y0079187D01*
X0152192Y0079289D01*
X0151797Y0079289D01*
X0151416Y0079187D01*
X0151073Y0078990D01*
X0149884Y0077801D01*
X0152134Y0075551D01*
X0151449Y0074866D01*
X0152134Y0074181D01*
X0150024Y0072071D01*
X0151352Y0070743D01*
X0152656Y0069912D02*
X0148993Y0069912D01*
X0149892Y0068914D02*
X0153482Y0068914D01*
X0154480Y0067915D02*
X0150026Y0067915D01*
X0151688Y0066917D02*
X0155479Y0066917D01*
X0157299Y0065918D02*
X0152686Y0065918D01*
X0153685Y0064920D02*
X0192701Y0064920D01*
X0192701Y0065918D02*
X0160701Y0065918D01*
X0161446Y0066917D02*
X0192701Y0066917D01*
X0192701Y0067915D02*
X0161675Y0067915D01*
X0161517Y0068914D02*
X0193113Y0068914D01*
X0192701Y0063921D02*
X0154577Y0063921D01*
X0154538Y0062923D02*
X0169859Y0062923D01*
X0168695Y0061924D02*
X0154512Y0061924D01*
X0154675Y0060926D02*
X0168325Y0060926D01*
X0168342Y0059927D02*
X0154451Y0059927D01*
X0153711Y0058929D02*
X0168789Y0058929D01*
X0171000Y0060500D02*
X0173134Y0058366D01*
X0176177Y0059927D02*
X0192701Y0059927D01*
X0192701Y0058929D02*
X0177176Y0058929D01*
X0178349Y0057930D02*
X0192701Y0057930D01*
X0192701Y0056932D02*
X0179474Y0056932D01*
X0179481Y0055933D02*
X0192701Y0055933D01*
X0193265Y0054934D02*
X0181471Y0054934D01*
X0182224Y0053936D02*
X0194046Y0053936D01*
X0194780Y0052937D02*
X0182193Y0052937D01*
X0179852Y0054934D02*
X0178482Y0054934D01*
X0178249Y0053936D02*
X0178853Y0053936D01*
X0175858Y0050940D02*
X0156446Y0050940D01*
X0157444Y0049942D02*
X0176653Y0049942D01*
X0175179Y0060926D02*
X0193125Y0060926D01*
X0194066Y0061924D02*
X0174180Y0061924D01*
X0172141Y0062923D02*
X0193276Y0062923D01*
X0196154Y0058000D02*
X0197154Y0055154D01*
X0196500Y0055000D01*
X0199175Y0054934D02*
X0199657Y0054934D01*
X0202362Y0054934D02*
X0203331Y0054934D01*
X0203331Y0055933D02*
X0202362Y0055933D01*
X0202362Y0056932D02*
X0203331Y0056932D01*
X0203331Y0062531D02*
X0205209Y0062531D01*
X0205591Y0062634D01*
X0205933Y0062831D01*
X0206212Y0063110D01*
X0206410Y0063453D01*
X0206512Y0063834D01*
X0206512Y0065516D01*
X0203331Y0065516D01*
X0203331Y0062531D01*
X0203331Y0062923D02*
X0202362Y0062923D01*
X0202362Y0063921D02*
X0203331Y0063921D01*
X0203331Y0064920D02*
X0202362Y0064920D01*
X0203331Y0065918D02*
X0207480Y0065918D01*
X0206988Y0066917D02*
X0206512Y0066917D01*
X0206512Y0067915D02*
X0206988Y0067915D01*
X0206188Y0068914D02*
X0210169Y0068914D01*
X0210169Y0069484D02*
X0206988Y0069484D01*
X0206988Y0071166D01*
X0207090Y0071547D01*
X0207288Y0071890D01*
X0207567Y0072169D01*
X0207909Y0072366D01*
X0208291Y0072468D01*
X0210169Y0072468D01*
X0210169Y0069484D01*
X0210169Y0069912D02*
X0211138Y0069912D01*
X0211138Y0070911D02*
X0210169Y0070911D01*
X0210169Y0071909D02*
X0211138Y0071909D01*
X0211138Y0073906D02*
X0210169Y0073906D01*
X0210169Y0074905D02*
X0211138Y0074905D01*
X0211138Y0075903D02*
X0210169Y0075903D01*
X0210169Y0076902D02*
X0155003Y0076902D01*
X0154854Y0076902D02*
X0153484Y0076902D01*
X0153855Y0075903D02*
X0152486Y0075903D01*
X0151782Y0075903D02*
X0150412Y0075903D01*
X0150783Y0076902D02*
X0149413Y0076902D01*
X0149199Y0077116D02*
X0148010Y0075927D01*
X0147813Y0075584D01*
X0147711Y0075203D01*
X0147711Y0074808D01*
X0147813Y0074427D01*
X0148010Y0074084D01*
X0149339Y0072756D01*
X0151449Y0074866D01*
X0149199Y0077116D01*
X0148986Y0076902D02*
X0084985Y0076902D01*
X0083986Y0077900D02*
X0149984Y0077900D01*
X0150983Y0078899D02*
X0082988Y0078899D01*
X0081989Y0079897D02*
X0089198Y0079897D01*
X0089584Y0079510D02*
X0088256Y0080839D01*
X0090366Y0082949D01*
X0089681Y0083634D01*
X0087571Y0081524D01*
X0086243Y0082852D01*
X0086045Y0083194D01*
X0085943Y0083575D01*
X0085943Y0083970D01*
X0085993Y0084156D01*
X0085240Y0084156D01*
X0081423Y0087972D01*
X0081423Y0088794D01*
X0081232Y0088985D01*
X0080825Y0089968D01*
X0080825Y0091032D01*
X0081232Y0092015D01*
X0081985Y0092768D01*
X0082968Y0093175D01*
X0084032Y0093175D01*
X0085015Y0092768D01*
X0085206Y0092577D01*
X0086028Y0092577D01*
X0089844Y0088760D01*
X0089844Y0088007D01*
X0090030Y0088057D01*
X0090425Y0088057D01*
X0090806Y0087955D01*
X0091148Y0087757D01*
X0092476Y0086429D01*
X0090366Y0084319D01*
X0091051Y0083634D01*
X0093161Y0085744D01*
X0094490Y0084416D01*
X0094687Y0084073D01*
X0094789Y0083692D01*
X0094789Y0083297D01*
X0094687Y0082916D01*
X0094490Y0082573D01*
X0093301Y0081384D01*
X0091051Y0083634D01*
X0090366Y0082949D01*
X0092616Y0080699D01*
X0091427Y0079510D01*
X0091084Y0079313D01*
X0090703Y0079211D01*
X0090308Y0079211D01*
X0089927Y0079313D01*
X0089584Y0079510D01*
X0088313Y0080896D02*
X0080991Y0080896D01*
X0079992Y0081894D02*
X0087200Y0081894D01*
X0087942Y0081894D02*
X0089312Y0081894D01*
X0088941Y0082893D02*
X0090310Y0082893D01*
X0090422Y0082893D02*
X0091792Y0082893D01*
X0091421Y0081894D02*
X0092791Y0081894D01*
X0093810Y0081894D02*
X0097356Y0081894D01*
X0097325Y0081968D02*
X0097732Y0080985D01*
X0098485Y0080232D01*
X0099468Y0079825D01*
X0100532Y0079825D01*
X0101515Y0080232D01*
X0102268Y0080985D01*
X0102675Y0081968D01*
X0102675Y0082223D01*
X0118087Y0097635D01*
X0118087Y0140805D01*
X0118268Y0140985D01*
X0118675Y0141968D01*
X0118675Y0143032D01*
X0118268Y0144015D01*
X0117515Y0144768D01*
X0116532Y0145175D01*
X0116112Y0145175D01*
X0116112Y0145492D01*
X0112296Y0149309D01*
X0111543Y0149309D01*
X0111592Y0149494D01*
X0111592Y0149889D01*
X0111490Y0150271D01*
X0111293Y0150613D01*
X0109964Y0151941D01*
X0107854Y0149831D01*
X0107169Y0150516D01*
X0106484Y0149831D01*
X0104235Y0152080D01*
X0103046Y0150891D01*
X0102848Y0150549D01*
X0102746Y0150167D01*
X0102746Y0149772D01*
X0102848Y0149391D01*
X0103046Y0149049D01*
X0104374Y0147721D01*
X0106484Y0149831D01*
X0107169Y0149146D01*
X0105059Y0147036D01*
X0106387Y0145707D01*
X0106729Y0145510D01*
X0107111Y0145408D01*
X0107506Y0145408D01*
X0107691Y0145457D01*
X0107691Y0144704D01*
X0111508Y0140888D01*
X0112574Y0140888D01*
X0113422Y0141735D01*
X0113732Y0140985D01*
X0113913Y0140805D01*
X0113913Y0099365D01*
X0099723Y0085175D01*
X0099468Y0085175D01*
X0098485Y0084768D01*
X0097732Y0084015D01*
X0097325Y0083032D01*
X0097325Y0081968D01*
X0097325Y0082893D02*
X0094674Y0082893D01*
X0094736Y0083891D02*
X0097681Y0083891D01*
X0098780Y0084890D02*
X0094015Y0084890D01*
X0095306Y0085888D02*
X0091936Y0085888D01*
X0092018Y0086887D02*
X0094404Y0086887D01*
X0094356Y0086839D02*
X0095684Y0085510D01*
X0096027Y0085313D01*
X0096408Y0085211D01*
X0096803Y0085211D01*
X0097184Y0085313D01*
X0097527Y0085510D01*
X0098716Y0086699D01*
X0096466Y0088949D01*
X0094356Y0086839D01*
X0093671Y0087524D02*
X0095781Y0089634D01*
X0096466Y0088949D01*
X0097151Y0089634D01*
X0096466Y0090319D01*
X0098576Y0092429D01*
X0097248Y0093757D01*
X0096906Y0093955D01*
X0096525Y0094057D01*
X0096130Y0094057D01*
X0095944Y0094007D01*
X0095944Y0094760D01*
X0092128Y0098577D01*
X0091061Y0098577D01*
X0090976Y0098491D01*
X0090532Y0098675D01*
X0089468Y0098675D01*
X0088485Y0098268D01*
X0087732Y0097515D01*
X0087325Y0096532D01*
X0087325Y0095468D01*
X0087523Y0094990D01*
X0087523Y0093972D01*
X0091340Y0090156D01*
X0092093Y0090156D01*
X0092043Y0089970D01*
X0092043Y0089575D01*
X0092145Y0089194D01*
X0092343Y0088852D01*
X0093671Y0087524D01*
X0093309Y0087885D02*
X0090926Y0087885D01*
X0089721Y0088884D02*
X0092324Y0088884D01*
X0092043Y0089882D02*
X0088722Y0089882D01*
X0087724Y0090881D02*
X0090615Y0090881D01*
X0089616Y0091879D02*
X0086725Y0091879D01*
X0088618Y0092878D02*
X0084749Y0092878D01*
X0082251Y0092878D02*
X0069008Y0092878D01*
X0068010Y0093876D02*
X0087619Y0093876D01*
X0087523Y0094875D02*
X0067011Y0094875D01*
X0066013Y0095873D02*
X0087325Y0095873D01*
X0087466Y0096872D02*
X0065014Y0096872D01*
X0064016Y0097870D02*
X0088088Y0097870D01*
X0092834Y0097870D02*
X0097525Y0097870D01*
X0098240Y0097156D02*
X0098993Y0097156D01*
X0098943Y0096970D01*
X0098943Y0096575D01*
X0099045Y0096194D01*
X0099243Y0095852D01*
X0100571Y0094524D01*
X0102681Y0096634D01*
X0103366Y0095949D01*
X0101256Y0093839D01*
X0102584Y0092510D01*
X0102927Y0092313D01*
X0103308Y0092211D01*
X0103703Y0092211D01*
X0104084Y0092313D01*
X0104427Y0092510D01*
X0105616Y0093699D01*
X0103366Y0095949D01*
X0104051Y0096634D01*
X0103366Y0097319D01*
X0105476Y0099429D01*
X0104148Y0100757D01*
X0103806Y0100955D01*
X0103425Y0101057D01*
X0103030Y0101057D01*
X0102844Y0101007D01*
X0102844Y0101760D01*
X0099028Y0105577D01*
X0098206Y0105577D01*
X0098015Y0105768D01*
X0097032Y0106175D01*
X0095968Y0106175D01*
X0094985Y0105768D01*
X0094232Y0105015D01*
X0093825Y0104032D01*
X0093825Y0102968D01*
X0094232Y0101985D01*
X0094423Y0101794D01*
X0094423Y0100972D01*
X0098240Y0097156D01*
X0098943Y0096872D02*
X0093833Y0096872D01*
X0094831Y0095873D02*
X0099230Y0095873D01*
X0100220Y0094875D02*
X0095830Y0094875D01*
X0097041Y0093876D02*
X0101294Y0093876D01*
X0100923Y0094875D02*
X0102292Y0094875D01*
X0101921Y0095873D02*
X0103291Y0095873D01*
X0103442Y0095873D02*
X0104811Y0095873D01*
X0104440Y0094875D02*
X0105810Y0094875D01*
X0106301Y0094384D02*
X0104051Y0096634D01*
X0106161Y0098744D01*
X0107490Y0097416D01*
X0107687Y0097073D01*
X0107789Y0096692D01*
X0107789Y0096297D01*
X0107687Y0095916D01*
X0107490Y0095573D01*
X0106301Y0094384D01*
X0106791Y0094875D02*
X0109423Y0094875D01*
X0110421Y0095873D02*
X0107663Y0095873D01*
X0107741Y0096872D02*
X0111420Y0096872D01*
X0112418Y0097870D02*
X0107035Y0097870D01*
X0105288Y0097870D02*
X0103918Y0097870D01*
X0103813Y0096872D02*
X0104289Y0096872D01*
X0104917Y0098869D02*
X0113417Y0098869D01*
X0113913Y0099868D02*
X0105038Y0099868D01*
X0103959Y0100866D02*
X0113913Y0100866D01*
X0113913Y0101865D02*
X0102740Y0101865D01*
X0101741Y0102863D02*
X0113913Y0102863D01*
X0113913Y0103862D02*
X0100743Y0103862D01*
X0099744Y0104860D02*
X0113913Y0104860D01*
X0113913Y0105859D02*
X0097795Y0105859D01*
X0095205Y0105859D02*
X0078405Y0105859D01*
X0078405Y0106857D02*
X0113913Y0106857D01*
X0113913Y0107856D02*
X0078405Y0107856D01*
X0078405Y0108500D02*
X0078405Y0099944D01*
X0078303Y0099563D01*
X0078106Y0099221D01*
X0077827Y0098941D01*
X0077484Y0098744D01*
X0077103Y0098642D01*
X0071500Y0098642D01*
X0071500Y0108500D01*
X0071500Y0109500D01*
X0070500Y0109500D01*
X0070500Y0119358D01*
X0064897Y0119358D01*
X0064516Y0119256D01*
X0064173Y0119059D01*
X0063894Y0118779D01*
X0063697Y0118437D01*
X0063594Y0118056D01*
X0063594Y0109500D01*
X0070500Y0109500D01*
X0070500Y0108500D01*
X0071500Y0108500D01*
X0078405Y0108500D01*
X0078405Y0109500D02*
X0078405Y0118056D01*
X0078303Y0118437D01*
X0078106Y0118779D01*
X0077827Y0119059D01*
X0077484Y0119256D01*
X0077103Y0119358D01*
X0071500Y0119358D01*
X0071500Y0109500D01*
X0078405Y0109500D01*
X0078405Y0109853D02*
X0113913Y0109853D01*
X0113913Y0110851D02*
X0078405Y0110851D01*
X0078405Y0111850D02*
X0113913Y0111850D01*
X0113913Y0112848D02*
X0078405Y0112848D01*
X0078405Y0113847D02*
X0113913Y0113847D01*
X0113913Y0114845D02*
X0078405Y0114845D01*
X0078405Y0115844D02*
X0113913Y0115844D01*
X0113913Y0116842D02*
X0078405Y0116842D01*
X0078405Y0117841D02*
X0080416Y0117841D01*
X0080929Y0117628D02*
X0082071Y0117628D01*
X0083127Y0118066D01*
X0083934Y0118873D01*
X0084372Y0119929D01*
X0084372Y0121071D01*
X0083934Y0122127D01*
X0083127Y0122934D01*
X0082071Y0123372D01*
X0080929Y0123372D01*
X0079873Y0122934D01*
X0079066Y0122127D01*
X0078628Y0121071D01*
X0078628Y0119929D01*
X0079066Y0118873D01*
X0079873Y0118066D01*
X0080929Y0117628D01*
X0082584Y0117841D02*
X0113913Y0117841D01*
X0113913Y0118839D02*
X0083900Y0118839D01*
X0084334Y0119838D02*
X0113913Y0119838D01*
X0113913Y0120836D02*
X0084372Y0120836D01*
X0084055Y0121835D02*
X0093382Y0121835D01*
X0093294Y0121923D02*
X0093485Y0121732D01*
X0094468Y0121325D01*
X0095532Y0121325D01*
X0096515Y0121732D01*
X0097268Y0122485D01*
X0097675Y0123468D01*
X0097675Y0124532D01*
X0097268Y0125515D01*
X0097077Y0125706D01*
X0097077Y0126528D01*
X0093260Y0130344D01*
X0092507Y0130344D01*
X0092557Y0130530D01*
X0092557Y0130925D01*
X0092455Y0131306D01*
X0092257Y0131648D01*
X0090929Y0132976D01*
X0088819Y0130866D01*
X0088134Y0131551D01*
X0090244Y0133661D01*
X0088916Y0134990D01*
X0088573Y0135187D01*
X0088192Y0135289D01*
X0087797Y0135289D01*
X0087416Y0135187D01*
X0087073Y0134990D01*
X0085884Y0133801D01*
X0088134Y0131551D01*
X0087449Y0130866D01*
X0088134Y0130181D01*
X0086324Y0128372D01*
X0085929Y0128372D01*
X0084873Y0127934D01*
X0084066Y0127127D01*
X0083628Y0126071D01*
X0083628Y0124929D01*
X0084066Y0123873D01*
X0084873Y0123066D01*
X0085929Y0122628D01*
X0087071Y0122628D01*
X0088127Y0123066D01*
X0088934Y0123873D01*
X0089372Y0124929D01*
X0089372Y0125024D01*
X0092472Y0121923D01*
X0093294Y0121923D01*
X0091562Y0122833D02*
X0087566Y0122833D01*
X0088893Y0123832D02*
X0090564Y0123832D01*
X0089565Y0124830D02*
X0089331Y0124830D01*
X0085434Y0122833D02*
X0083228Y0122833D01*
X0084107Y0123832D02*
X0059887Y0123832D01*
X0059887Y0124830D02*
X0083669Y0124830D01*
X0083628Y0125829D02*
X0059887Y0125829D01*
X0059887Y0126827D02*
X0083942Y0126827D01*
X0084765Y0127826D02*
X0059887Y0127826D01*
X0059887Y0128824D02*
X0085270Y0128824D01*
X0085339Y0128756D02*
X0084010Y0130084D01*
X0083813Y0130427D01*
X0083711Y0130808D01*
X0083711Y0131203D01*
X0083813Y0131584D01*
X0084010Y0131927D01*
X0085199Y0133116D01*
X0087449Y0130866D01*
X0085339Y0128756D01*
X0085407Y0128824D02*
X0086777Y0128824D01*
X0086405Y0129823D02*
X0087775Y0129823D01*
X0087494Y0130821D02*
X0087404Y0130821D01*
X0087865Y0131820D02*
X0086495Y0131820D01*
X0086866Y0132818D02*
X0085497Y0132818D01*
X0084902Y0132818D02*
X0059887Y0132818D01*
X0059887Y0131820D02*
X0083949Y0131820D01*
X0083711Y0130821D02*
X0059887Y0130821D01*
X0059887Y0129823D02*
X0084272Y0129823D01*
X0088402Y0131820D02*
X0089772Y0131820D01*
X0089401Y0132818D02*
X0090771Y0132818D01*
X0091087Y0132818D02*
X0092276Y0132818D01*
X0092852Y0132243D02*
X0091524Y0133571D01*
X0093634Y0135681D01*
X0092949Y0136366D01*
X0090839Y0134256D01*
X0089510Y0135584D01*
X0089313Y0135927D01*
X0089211Y0136308D01*
X0089211Y0136703D01*
X0089313Y0137084D01*
X0089510Y0137427D01*
X0090699Y0138616D01*
X0092949Y0136366D01*
X0093634Y0137051D01*
X0095744Y0139161D01*
X0094416Y0140490D01*
X0094073Y0140687D01*
X0093692Y0140789D01*
X0093297Y0140789D01*
X0092916Y0140687D01*
X0092573Y0140490D01*
X0091384Y0139301D01*
X0093634Y0137051D01*
X0094319Y0136366D01*
X0096429Y0138476D01*
X0097757Y0137148D01*
X0097955Y0136806D01*
X0098057Y0136425D01*
X0098057Y0136030D01*
X0098007Y0135844D01*
X0098760Y0135844D01*
X0102577Y0132028D01*
X0102577Y0131206D01*
X0102768Y0131015D01*
X0103175Y0130032D01*
X0103175Y0128968D01*
X0102768Y0127985D01*
X0102015Y0127232D01*
X0101032Y0126825D01*
X0099968Y0126825D01*
X0098985Y0127232D01*
X0098794Y0127423D01*
X0097972Y0127423D01*
X0094156Y0131240D01*
X0094156Y0131993D01*
X0093970Y0131943D01*
X0093575Y0131943D01*
X0093194Y0132045D01*
X0092852Y0132243D01*
X0092085Y0131820D02*
X0094156Y0131820D01*
X0094574Y0130821D02*
X0092557Y0130821D01*
X0093782Y0129823D02*
X0095573Y0129823D01*
X0094780Y0128824D02*
X0096571Y0128824D01*
X0095779Y0127826D02*
X0097570Y0127826D01*
X0096777Y0126827D02*
X0099963Y0126827D01*
X0101037Y0126827D02*
X0113913Y0126827D01*
X0113913Y0125829D02*
X0097077Y0125829D01*
X0097551Y0124830D02*
X0113913Y0124830D01*
X0113913Y0123832D02*
X0097675Y0123832D01*
X0097412Y0122833D02*
X0113913Y0122833D01*
X0113913Y0121835D02*
X0096617Y0121835D01*
X0095000Y0124000D02*
X0092866Y0126134D01*
X0098366Y0131634D02*
X0100500Y0129500D01*
X0102609Y0127826D02*
X0113913Y0127826D01*
X0113913Y0128824D02*
X0103115Y0128824D01*
X0103175Y0129823D02*
X0113913Y0129823D01*
X0113913Y0130821D02*
X0108604Y0130821D01*
X0108768Y0130985D02*
X0109175Y0131968D01*
X0109175Y0133032D01*
X0108768Y0134015D01*
X0108187Y0134595D01*
X0108187Y0135199D01*
X0107501Y0135885D01*
X0108077Y0136461D01*
X0108077Y0137528D01*
X0104260Y0141344D01*
X0103507Y0141344D01*
X0103557Y0141530D01*
X0103557Y0141925D01*
X0103455Y0142306D01*
X0103257Y0142648D01*
X0101929Y0143976D01*
X0099819Y0141866D01*
X0099134Y0142551D01*
X0101244Y0144661D01*
X0099916Y0145990D01*
X0099573Y0146187D01*
X0099192Y0146289D01*
X0098797Y0146289D01*
X0098416Y0146187D01*
X0098073Y0145990D01*
X0096884Y0144801D01*
X0054387Y0144801D01*
X0054387Y0144282D02*
X0054387Y0158213D01*
X0235967Y0158213D01*
X0237713Y0156467D01*
X0237713Y0134967D01*
X0257213Y0115467D01*
X0257213Y0016533D01*
X0252967Y0012287D01*
X0010033Y0012287D01*
X0005787Y0016533D01*
X0005787Y0020912D01*
X0006152Y0020547D01*
X0006713Y0020547D01*
X0006713Y0019260D01*
X0007760Y0018213D01*
X0011713Y0014260D01*
X0011713Y0014260D01*
X0012760Y0013213D01*
X0078240Y0013213D01*
X0079287Y0014260D01*
X0081353Y0016325D01*
X0082032Y0016325D01*
X0083015Y0016732D01*
X0083768Y0017485D01*
X0084175Y0018468D01*
X0084175Y0019532D01*
X0083768Y0020515D01*
X0083735Y0020547D01*
X0083848Y0020547D01*
X0084602Y0021301D01*
X0084602Y0026699D01*
X0083848Y0027453D01*
X0078845Y0027453D01*
X0078091Y0026699D01*
X0078091Y0021301D01*
X0078845Y0020547D01*
X0079265Y0020547D01*
X0079232Y0020515D01*
X0078825Y0019532D01*
X0078825Y0018853D01*
X0076760Y0016787D01*
X0040174Y0016787D01*
X0043430Y0020044D01*
X0044153Y0019744D01*
X0045847Y0019744D01*
X0047411Y0020392D01*
X0048608Y0021589D01*
X0049256Y0023153D01*
X0049256Y0024847D01*
X0048956Y0025570D01*
X0050199Y0026813D01*
X0051794Y0026813D01*
X0051392Y0026411D01*
X0050744Y0024847D01*
X0050744Y0023153D01*
X0051392Y0021589D01*
X0052589Y0020392D01*
X0054153Y0019744D01*
X0055847Y0019744D01*
X0057411Y0020392D01*
X0058608Y0021589D01*
X0059256Y0023153D01*
X0059256Y0024847D01*
X0058608Y0026411D01*
X0058206Y0026813D01*
X0061794Y0026813D01*
X0061392Y0026411D01*
X0060744Y0024847D01*
X0060744Y0023153D01*
X0061392Y0021589D01*
X0062589Y0020392D01*
X0064153Y0019744D01*
X0065847Y0019744D01*
X0067411Y0020392D01*
X0068608Y0021589D01*
X0068908Y0022313D01*
X0071398Y0022313D01*
X0071398Y0021301D01*
X0072152Y0020547D01*
X0077155Y0020547D01*
X0077909Y0021301D01*
X0077909Y0026699D01*
X0077155Y0027453D01*
X0073339Y0027453D01*
X0073687Y0027801D01*
X0077212Y0031325D01*
X0078032Y0031325D01*
X0079015Y0031732D01*
X0079768Y0032485D01*
X0080175Y0033468D01*
X0080175Y0034532D01*
X0079768Y0035515D01*
X0079015Y0036268D01*
X0078032Y0036675D01*
X0076968Y0036675D01*
X0075985Y0036268D01*
X0075232Y0035515D01*
X0074825Y0034532D01*
X0074825Y0033712D01*
X0071301Y0030187D01*
X0067355Y0030187D01*
X0067911Y0030592D01*
X0068408Y0031089D01*
X0068822Y0031658D01*
X0069141Y0032285D01*
X0069358Y0032954D01*
X0069447Y0033516D01*
X0065484Y0033516D01*
X0065484Y0034484D01*
X0064516Y0034484D01*
X0064516Y0033516D01*
X0060552Y0033516D01*
X0060642Y0032954D01*
X0060859Y0032285D01*
X0061178Y0031658D01*
X0061592Y0031089D01*
X0062089Y0030592D01*
X0062645Y0030187D01*
X0056917Y0030187D01*
X0057411Y0030392D01*
X0058608Y0031589D01*
X0059256Y0033153D01*
X0059256Y0034847D01*
X0058608Y0036411D01*
X0057411Y0037608D01*
X0055847Y0038256D01*
X0054153Y0038256D01*
X0052589Y0037608D01*
X0051392Y0036411D01*
X0050744Y0034847D01*
X0050744Y0033153D01*
X0051392Y0031589D01*
X0052589Y0030392D01*
X0053083Y0030187D01*
X0048801Y0030187D01*
X0046570Y0027956D01*
X0045847Y0028256D01*
X0044153Y0028256D01*
X0042589Y0027608D01*
X0041392Y0026411D01*
X0040744Y0024847D01*
X0040744Y0023153D01*
X0041044Y0022430D01*
X0037301Y0018687D01*
X0020699Y0018687D01*
X0018344Y0021043D01*
X0018602Y0021301D01*
X0018602Y0026699D01*
X0017848Y0027453D01*
X0012845Y0027453D01*
X0012091Y0026699D01*
X0012091Y0021301D01*
X0012845Y0020547D01*
X0014066Y0020547D01*
X0017826Y0016787D01*
X0014240Y0016787D01*
X0010480Y0020547D01*
X0011155Y0020547D01*
X0011909Y0021301D01*
X0011909Y0026699D01*
X0011155Y0027453D01*
X0006152Y0027453D01*
X0005787Y0027088D01*
X0005787Y0030621D01*
X0006106Y0030437D01*
X0006488Y0030335D01*
X0008169Y0030335D01*
X0008169Y0033516D01*
X0009138Y0033516D01*
X0009138Y0030335D01*
X0010820Y0030335D01*
X0011201Y0030437D01*
X0011543Y0030634D01*
X0011822Y0030914D01*
X0012020Y0031256D01*
X0012091Y0031520D01*
X0012091Y0031301D01*
X0012845Y0030547D01*
X0013813Y0030547D01*
X0013813Y0030301D01*
X0014801Y0029313D01*
X0016301Y0027813D01*
X0018801Y0027813D01*
X0021044Y0025570D01*
X0020744Y0024847D01*
X0020744Y0023153D01*
X0021392Y0021589D01*
X0022589Y0020392D01*
X0024153Y0019744D01*
X0025847Y0019744D01*
X0027411Y0020392D01*
X0028608Y0021589D01*
X0029256Y0023153D01*
X0029256Y0024847D01*
X0028608Y0026411D01*
X0027411Y0027608D01*
X0025847Y0028256D01*
X0024153Y0028256D01*
X0023430Y0027956D01*
X0021187Y0030199D01*
X0020199Y0031187D01*
X0018488Y0031187D01*
X0018602Y0031301D01*
X0018602Y0036699D01*
X0017848Y0037453D01*
X0012845Y0037453D01*
X0012091Y0036699D01*
X0012091Y0036480D01*
X0012020Y0036744D01*
X0011822Y0037086D01*
X0011543Y0037366D01*
X0011201Y0037563D01*
X0010820Y0037665D01*
X0009138Y0037665D01*
X0009138Y0034484D01*
X0008169Y0034484D01*
X0008169Y0037665D01*
X0006488Y0037665D01*
X0006106Y0037563D01*
X0005787Y0037379D01*
X0005787Y0146467D01*
X0017533Y0158213D01*
X0041113Y0158213D01*
X0041113Y0140453D01*
X0039260Y0140453D01*
X0039260Y0136500D01*
X0038260Y0136500D01*
X0038260Y0140453D01*
X0036003Y0140453D01*
X0035622Y0140351D01*
X0035280Y0140153D01*
X0035000Y0139874D01*
X0034803Y0139532D01*
X0034701Y0139150D01*
X0034701Y0136500D01*
X0038260Y0136500D01*
X0038260Y0135500D01*
X0039260Y0135500D01*
X0039260Y0131547D01*
X0041113Y0131547D01*
X0041113Y0117718D01*
X0042218Y0116613D01*
X0058782Y0116613D01*
X0059887Y0117718D01*
X0059887Y0138782D01*
X0054387Y0144282D01*
X0054867Y0143802D02*
X0095886Y0143802D01*
X0096199Y0144116D02*
X0095010Y0142927D01*
X0094813Y0142584D01*
X0094711Y0142203D01*
X0094711Y0141808D01*
X0094813Y0141427D01*
X0095010Y0141084D01*
X0096339Y0139756D01*
X0098449Y0141866D01*
X0099134Y0141181D01*
X0097024Y0139071D01*
X0098352Y0137743D01*
X0098694Y0137545D01*
X0099075Y0137443D01*
X0099470Y0137443D01*
X0099656Y0137493D01*
X0099656Y0136740D01*
X0103472Y0132923D01*
X0103825Y0132923D01*
X0103825Y0131968D01*
X0104232Y0130985D01*
X0104985Y0130232D01*
X0105968Y0129825D01*
X0107032Y0129825D01*
X0108015Y0130232D01*
X0108768Y0130985D01*
X0109113Y0131820D02*
X0113913Y0131820D01*
X0113913Y0132818D02*
X0109175Y0132818D01*
X0108850Y0133817D02*
X0113913Y0133817D01*
X0113913Y0134815D02*
X0108187Y0134815D01*
X0107572Y0135814D02*
X0113913Y0135814D01*
X0113913Y0136812D02*
X0108077Y0136812D01*
X0107794Y0137811D02*
X0113913Y0137811D01*
X0113913Y0138809D02*
X0106795Y0138809D01*
X0105797Y0139808D02*
X0113913Y0139808D01*
X0113911Y0140806D02*
X0104798Y0140806D01*
X0103557Y0141805D02*
X0110590Y0141805D01*
X0109592Y0142803D02*
X0103102Y0142803D01*
X0102103Y0143802D02*
X0108593Y0143802D01*
X0107691Y0144801D02*
X0101105Y0144801D01*
X0101754Y0143802D02*
X0100385Y0143802D01*
X0100756Y0142803D02*
X0099386Y0142803D01*
X0099134Y0142551D02*
X0098449Y0141866D01*
X0096199Y0144116D01*
X0096513Y0143802D02*
X0097883Y0143802D01*
X0097512Y0142803D02*
X0098881Y0142803D01*
X0099134Y0142551D02*
X0096884Y0144801D01*
X0097883Y0145799D02*
X0054387Y0145799D01*
X0054387Y0146798D02*
X0105297Y0146798D01*
X0105819Y0147796D02*
X0104450Y0147796D01*
X0104299Y0147796D02*
X0054387Y0147796D01*
X0054387Y0148795D02*
X0103300Y0148795D01*
X0102746Y0149793D02*
X0054387Y0149793D01*
X0054387Y0150792D02*
X0102988Y0150792D01*
X0103945Y0151790D02*
X0098962Y0151790D01*
X0098571Y0151628D02*
X0099627Y0152066D01*
X0100434Y0152873D01*
X0100872Y0153929D01*
X0100872Y0155071D01*
X0100434Y0156127D01*
X0099627Y0156934D01*
X0098571Y0157372D01*
X0097429Y0157372D01*
X0096373Y0156934D01*
X0095566Y0156127D01*
X0095500Y0155968D01*
X0095434Y0156127D01*
X0094627Y0156934D01*
X0093571Y0157372D01*
X0092429Y0157372D01*
X0091373Y0156934D01*
X0090566Y0156127D01*
X0090128Y0155071D01*
X0090128Y0153929D01*
X0090566Y0152873D01*
X0091373Y0152066D01*
X0092429Y0151628D01*
X0093571Y0151628D01*
X0094627Y0152066D01*
X0095434Y0152873D01*
X0095500Y0153032D01*
X0095566Y0152873D01*
X0096373Y0152066D01*
X0097429Y0151628D01*
X0098571Y0151628D01*
X0097038Y0151790D02*
X0093962Y0151790D01*
X0095350Y0152789D02*
X0095650Y0152789D01*
X0100350Y0152789D02*
X0104944Y0152789D01*
X0104920Y0152765D02*
X0107169Y0150516D01*
X0109279Y0152626D01*
X0107951Y0153954D01*
X0107609Y0154152D01*
X0107228Y0154254D01*
X0106833Y0154254D01*
X0106451Y0154152D01*
X0106109Y0153954D01*
X0104920Y0152765D01*
X0104525Y0151790D02*
X0105895Y0151790D01*
X0105524Y0150792D02*
X0106893Y0150792D01*
X0107445Y0150792D02*
X0108815Y0150792D01*
X0108444Y0151790D02*
X0109813Y0151790D01*
X0110115Y0151790D02*
X0143885Y0151790D01*
X0143256Y0151161D02*
X0144584Y0152490D01*
X0144927Y0152687D01*
X0145308Y0152789D01*
X0145703Y0152789D01*
X0146084Y0152687D01*
X0146427Y0152490D01*
X0147616Y0151300D01*
X0145366Y0149051D01*
X0144681Y0148366D01*
X0142571Y0150476D01*
X0141243Y0149148D01*
X0141045Y0148806D01*
X0140943Y0148425D01*
X0140943Y0148030D01*
X0140993Y0147844D01*
X0140240Y0147844D01*
X0136423Y0144028D01*
X0136423Y0143206D01*
X0135732Y0142515D01*
X0135325Y0141532D01*
X0135325Y0140468D01*
X0135732Y0139485D01*
X0136485Y0138732D01*
X0137468Y0138325D01*
X0138532Y0138325D01*
X0139515Y0138732D01*
X0140206Y0139423D01*
X0141028Y0139423D01*
X0144844Y0143240D01*
X0144844Y0143993D01*
X0145030Y0143943D01*
X0145425Y0143943D01*
X0145806Y0144045D01*
X0146148Y0144243D01*
X0147476Y0145571D01*
X0145366Y0147681D01*
X0146051Y0148366D01*
X0148161Y0146256D01*
X0149490Y0147584D01*
X0149687Y0147927D01*
X0149789Y0148308D01*
X0149789Y0148703D01*
X0149687Y0149084D01*
X0149490Y0149427D01*
X0148301Y0150616D01*
X0146051Y0148366D01*
X0145366Y0149051D01*
X0143256Y0151161D01*
X0143626Y0150792D02*
X0111114Y0150792D01*
X0111592Y0149793D02*
X0141888Y0149793D01*
X0141042Y0148795D02*
X0112810Y0148795D01*
X0113808Y0147796D02*
X0140192Y0147796D01*
X0139193Y0146798D02*
X0114807Y0146798D01*
X0115805Y0145799D02*
X0138195Y0145799D01*
X0137196Y0144801D02*
X0117436Y0144801D01*
X0118356Y0143802D02*
X0136423Y0143802D01*
X0136021Y0142803D02*
X0118675Y0142803D01*
X0118607Y0141805D02*
X0135438Y0141805D01*
X0135325Y0140806D02*
X0118089Y0140806D01*
X0118087Y0139808D02*
X0135599Y0139808D01*
X0136408Y0138809D02*
X0118087Y0138809D01*
X0118087Y0137811D02*
X0237713Y0137811D01*
X0237713Y0138809D02*
X0139592Y0138809D01*
X0141413Y0139808D02*
X0237713Y0139808D01*
X0237713Y0140806D02*
X0142411Y0140806D01*
X0143410Y0141805D02*
X0237713Y0141805D01*
X0237713Y0142803D02*
X0144408Y0142803D01*
X0144844Y0143802D02*
X0237713Y0143802D01*
X0237713Y0144801D02*
X0146706Y0144801D01*
X0147249Y0145799D02*
X0237713Y0145799D01*
X0237713Y0146798D02*
X0148703Y0146798D01*
X0147620Y0146798D02*
X0146250Y0146798D01*
X0146621Y0147796D02*
X0145481Y0147796D01*
X0145623Y0148795D02*
X0146479Y0148795D01*
X0146108Y0149793D02*
X0147478Y0149793D01*
X0147107Y0150792D02*
X0184426Y0150792D01*
X0184232Y0150985D02*
X0184985Y0150232D01*
X0185968Y0149825D01*
X0186374Y0149825D01*
X0186955Y0149244D01*
X0192352Y0149244D01*
X0192885Y0149777D01*
X0192981Y0149610D01*
X0193260Y0149331D01*
X0193602Y0149134D01*
X0193984Y0149031D01*
X0195862Y0149031D01*
X0195862Y0152016D01*
X0196831Y0152016D01*
X0196831Y0152984D01*
X0200012Y0152984D01*
X0200012Y0154666D01*
X0199910Y0155047D01*
X0199712Y0155390D01*
X0199433Y0155669D01*
X0199091Y0155866D01*
X0198709Y0155968D01*
X0196831Y0155968D01*
X0196831Y0152984D01*
X0195862Y0152984D01*
X0195862Y0155968D01*
X0193984Y0155968D01*
X0193602Y0155866D01*
X0193260Y0155669D01*
X0192981Y0155390D01*
X0192885Y0155223D01*
X0192352Y0155756D01*
X0186955Y0155756D01*
X0186374Y0155175D01*
X0185968Y0155175D01*
X0184985Y0154768D01*
X0184232Y0154015D01*
X0183825Y0153032D01*
X0183825Y0151968D01*
X0184232Y0150985D01*
X0183899Y0151790D02*
X0147126Y0151790D01*
X0145706Y0152789D02*
X0183825Y0152789D01*
X0184138Y0153787D02*
X0108118Y0153787D01*
X0109117Y0152789D02*
X0145305Y0152789D01*
X0144624Y0149793D02*
X0143255Y0149793D01*
X0144253Y0148795D02*
X0145110Y0148795D01*
X0149123Y0149793D02*
X0186406Y0149793D01*
X0186500Y0152500D02*
X0189654Y0152500D01*
X0193460Y0155784D02*
X0100576Y0155784D01*
X0100872Y0154786D02*
X0185028Y0154786D01*
X0195862Y0154786D02*
X0196831Y0154786D01*
X0196831Y0155784D02*
X0195862Y0155784D01*
X0195862Y0153787D02*
X0196831Y0153787D01*
X0196831Y0152789D02*
X0237713Y0152789D01*
X0237713Y0153787D02*
X0200012Y0153787D01*
X0199980Y0154786D02*
X0237713Y0154786D01*
X0237713Y0155784D02*
X0199233Y0155784D01*
X0200012Y0152016D02*
X0196831Y0152016D01*
X0196831Y0149031D01*
X0198709Y0149031D01*
X0199091Y0149134D01*
X0199433Y0149331D01*
X0199712Y0149610D01*
X0199910Y0149953D01*
X0200012Y0150334D01*
X0200012Y0152016D01*
X0200012Y0151790D02*
X0237713Y0151790D01*
X0237713Y0150792D02*
X0200012Y0150792D01*
X0199818Y0149793D02*
X0237713Y0149793D01*
X0237713Y0148795D02*
X0149765Y0148795D01*
X0149612Y0147796D02*
X0237713Y0147796D01*
X0237397Y0156783D02*
X0099778Y0156783D01*
X0096222Y0156783D02*
X0094778Y0156783D01*
X0091222Y0156783D02*
X0054387Y0156783D01*
X0054387Y0157781D02*
X0236398Y0157781D01*
X0237713Y0136812D02*
X0118087Y0136812D01*
X0118087Y0135814D02*
X0237713Y0135814D01*
X0237864Y0134815D02*
X0118087Y0134815D01*
X0118087Y0133817D02*
X0238862Y0133817D01*
X0239861Y0132818D02*
X0197464Y0132818D01*
X0197768Y0132515D02*
X0197015Y0133268D01*
X0196032Y0133675D01*
X0194968Y0133675D01*
X0193985Y0133268D01*
X0193232Y0132515D01*
X0192825Y0131532D01*
X0192825Y0130468D01*
X0193232Y0129485D01*
X0193985Y0128732D01*
X0194968Y0128325D01*
X0196032Y0128325D01*
X0197015Y0128732D01*
X0197768Y0129485D01*
X0198175Y0130468D01*
X0198175Y0131532D01*
X0197768Y0132515D01*
X0198056Y0131820D02*
X0240859Y0131820D01*
X0241858Y0130821D02*
X0198175Y0130821D01*
X0197908Y0129823D02*
X0242856Y0129823D01*
X0243855Y0128824D02*
X0197107Y0128824D01*
X0193893Y0128824D02*
X0165675Y0128824D01*
X0165675Y0128468D02*
X0165268Y0127485D01*
X0164515Y0126732D01*
X0163532Y0126325D01*
X0162468Y0126325D01*
X0161485Y0126732D01*
X0160732Y0127485D01*
X0160325Y0128468D01*
X0160325Y0129532D01*
X0160732Y0130515D01*
X0161485Y0131268D01*
X0162468Y0131675D01*
X0163532Y0131675D01*
X0164515Y0131268D01*
X0165268Y0130515D01*
X0165675Y0129532D01*
X0165675Y0128468D01*
X0165409Y0127826D02*
X0244854Y0127826D01*
X0245852Y0126827D02*
X0164610Y0126827D01*
X0165554Y0129823D02*
X0193092Y0129823D01*
X0192825Y0130821D02*
X0164961Y0130821D01*
X0161039Y0130821D02*
X0133482Y0130821D01*
X0133401Y0131015D02*
X0132649Y0131768D01*
X0131666Y0132175D01*
X0130602Y0132175D01*
X0129619Y0131768D01*
X0128866Y0131015D01*
X0128459Y0130032D01*
X0128459Y0128968D01*
X0128866Y0127985D01*
X0129619Y0127232D01*
X0130602Y0126825D01*
X0131666Y0126825D01*
X0132649Y0127232D01*
X0133401Y0127985D01*
X0133808Y0128968D01*
X0133808Y0130032D01*
X0133401Y0131015D01*
X0132523Y0131820D02*
X0192944Y0131820D01*
X0193536Y0132818D02*
X0118087Y0132818D01*
X0118087Y0131820D02*
X0129745Y0131820D01*
X0128786Y0130821D02*
X0118087Y0130821D01*
X0118087Y0129823D02*
X0128459Y0129823D01*
X0128518Y0128824D02*
X0118087Y0128824D01*
X0118087Y0127826D02*
X0129025Y0127826D01*
X0130596Y0126827D02*
X0118087Y0126827D01*
X0118087Y0125829D02*
X0130224Y0125829D01*
X0130972Y0126577D02*
X0127156Y0122760D01*
X0127156Y0122007D01*
X0126970Y0122057D01*
X0126575Y0122057D01*
X0126194Y0121955D01*
X0125852Y0121757D01*
X0124524Y0120429D01*
X0126634Y0118319D01*
X0125949Y0117634D01*
X0123839Y0119744D01*
X0122510Y0118416D01*
X0122313Y0118073D01*
X0122211Y0117692D01*
X0122211Y0117297D01*
X0122313Y0116916D01*
X0122510Y0116573D01*
X0123699Y0115384D01*
X0125949Y0117634D01*
X0126634Y0116949D01*
X0127319Y0117634D01*
X0129429Y0115524D01*
X0130757Y0116852D01*
X0130955Y0117194D01*
X0131057Y0117575D01*
X0131057Y0117970D01*
X0131007Y0118156D01*
X0131760Y0118156D01*
X0135577Y0121972D01*
X0135577Y0122794D01*
X0135768Y0122985D01*
X0136175Y0123968D01*
X0136175Y0125032D01*
X0135768Y0126015D01*
X0135015Y0126768D01*
X0134032Y0127175D01*
X0132968Y0127175D01*
X0131985Y0126768D01*
X0131794Y0126577D01*
X0130972Y0126577D01*
X0131671Y0126827D02*
X0132129Y0126827D01*
X0133242Y0127826D02*
X0160591Y0127826D01*
X0160325Y0128824D02*
X0133749Y0128824D01*
X0133808Y0129823D02*
X0160446Y0129823D01*
X0161390Y0126827D02*
X0134871Y0126827D01*
X0135845Y0125829D02*
X0246851Y0125829D01*
X0247849Y0124830D02*
X0136175Y0124830D01*
X0136118Y0123832D02*
X0248848Y0123832D01*
X0249846Y0122833D02*
X0135616Y0122833D01*
X0135439Y0121835D02*
X0250845Y0121835D01*
X0251843Y0120836D02*
X0134441Y0120836D01*
X0133442Y0119838D02*
X0252842Y0119838D01*
X0253840Y0118839D02*
X0132444Y0118839D01*
X0131057Y0117841D02*
X0140058Y0117841D01*
X0139732Y0117515D02*
X0139325Y0116532D01*
X0139325Y0115468D01*
X0139732Y0114485D01*
X0140485Y0113732D01*
X0141468Y0113325D01*
X0142532Y0113325D01*
X0143515Y0113732D01*
X0144268Y0114485D01*
X0144675Y0115468D01*
X0144675Y0116532D01*
X0144268Y0117515D01*
X0143515Y0118268D01*
X0142532Y0118675D01*
X0141468Y0118675D01*
X0140485Y0118268D01*
X0139732Y0117515D01*
X0139454Y0116842D02*
X0130747Y0116842D01*
X0129749Y0115844D02*
X0139325Y0115844D01*
X0139583Y0114845D02*
X0128737Y0114845D01*
X0128744Y0114839D02*
X0127416Y0113510D01*
X0127073Y0113313D01*
X0126692Y0113211D01*
X0126297Y0113211D01*
X0125916Y0113313D01*
X0125573Y0113510D01*
X0124384Y0114699D01*
X0126634Y0116949D01*
X0128744Y0114839D01*
X0129109Y0115844D02*
X0127739Y0115844D01*
X0128110Y0116842D02*
X0126740Y0116842D01*
X0126527Y0116842D02*
X0125157Y0116842D01*
X0125529Y0115844D02*
X0124159Y0115844D01*
X0123240Y0115844D02*
X0118087Y0115844D01*
X0118087Y0116842D02*
X0122355Y0116842D01*
X0122250Y0117841D02*
X0118087Y0117841D01*
X0118087Y0118839D02*
X0122934Y0118839D01*
X0124743Y0118839D02*
X0126113Y0118839D01*
X0126156Y0117841D02*
X0125742Y0117841D01*
X0125114Y0119838D02*
X0118087Y0119838D01*
X0118087Y0120836D02*
X0124931Y0120836D01*
X0125986Y0121835D02*
X0118087Y0121835D01*
X0118087Y0122833D02*
X0127229Y0122833D01*
X0128227Y0123832D02*
X0118087Y0123832D01*
X0118087Y0124830D02*
X0129226Y0124830D01*
X0131366Y0122366D02*
X0133500Y0124500D01*
X0133500Y0124500D01*
X0143942Y0117841D02*
X0254839Y0117841D01*
X0255837Y0116842D02*
X0144546Y0116842D01*
X0144675Y0115844D02*
X0256836Y0115844D01*
X0257213Y0114845D02*
X0144417Y0114845D01*
X0144985Y0114268D02*
X0144794Y0114077D01*
X0143972Y0114077D01*
X0140156Y0110260D01*
X0140156Y0109507D01*
X0139970Y0109557D01*
X0139575Y0109557D01*
X0139194Y0109455D01*
X0138852Y0109257D01*
X0137524Y0107929D01*
X0139634Y0105819D01*
X0138949Y0105134D01*
X0136839Y0107244D01*
X0135510Y0105916D01*
X0135313Y0105573D01*
X0135211Y0105192D01*
X0135211Y0104797D01*
X0135313Y0104416D01*
X0135510Y0104073D01*
X0136699Y0102884D01*
X0138949Y0105134D01*
X0139634Y0104449D01*
X0140319Y0105134D01*
X0142429Y0103024D01*
X0143757Y0104352D01*
X0143955Y0104694D01*
X0144057Y0105075D01*
X0144057Y0105470D01*
X0144007Y0105656D01*
X0144760Y0105656D01*
X0148577Y0109472D01*
X0148577Y0110294D01*
X0148768Y0110485D01*
X0149175Y0111468D01*
X0149175Y0112532D01*
X0148768Y0113515D01*
X0148015Y0114268D01*
X0147032Y0114675D01*
X0145968Y0114675D01*
X0144985Y0114268D01*
X0143742Y0113847D02*
X0143629Y0113847D01*
X0142744Y0112848D02*
X0118087Y0112848D01*
X0118087Y0111850D02*
X0141745Y0111850D01*
X0140747Y0110851D02*
X0118087Y0110851D01*
X0118087Y0109853D02*
X0140156Y0109853D01*
X0138449Y0108854D02*
X0118087Y0108854D01*
X0118087Y0107856D02*
X0137597Y0107856D01*
X0137225Y0106857D02*
X0138595Y0106857D01*
X0138224Y0105859D02*
X0139594Y0105859D01*
X0139222Y0104860D02*
X0138675Y0104860D01*
X0139634Y0104449D02*
X0137384Y0102199D01*
X0138573Y0101010D01*
X0138916Y0100813D01*
X0139297Y0100711D01*
X0139692Y0100711D01*
X0140073Y0100813D01*
X0140416Y0101010D01*
X0141744Y0102339D01*
X0139634Y0104449D01*
X0140045Y0104860D02*
X0140592Y0104860D01*
X0140221Y0103862D02*
X0141591Y0103862D01*
X0141219Y0102863D02*
X0185594Y0102863D01*
X0185594Y0101865D02*
X0141270Y0101865D01*
X0140166Y0100866D02*
X0185594Y0100866D01*
X0185594Y0099868D02*
X0118087Y0099868D01*
X0118087Y0100866D02*
X0138823Y0100866D01*
X0137719Y0101865D02*
X0118087Y0101865D01*
X0118087Y0102863D02*
X0138048Y0102863D01*
X0137677Y0103862D02*
X0139046Y0103862D01*
X0135722Y0103862D02*
X0118087Y0103862D01*
X0118087Y0104860D02*
X0135211Y0104860D01*
X0135477Y0105859D02*
X0118087Y0105859D01*
X0118087Y0106857D02*
X0136452Y0106857D01*
X0143267Y0103862D02*
X0185594Y0103862D01*
X0185594Y0104860D02*
X0143999Y0104860D01*
X0144963Y0105859D02*
X0185973Y0105859D01*
X0192500Y0105859D02*
X0193500Y0105859D01*
X0193500Y0104860D02*
X0192500Y0104860D01*
X0192500Y0103862D02*
X0193500Y0103862D01*
X0193500Y0102863D02*
X0192500Y0102863D01*
X0192500Y0101865D02*
X0193500Y0101865D01*
X0193500Y0100866D02*
X0192500Y0100866D01*
X0192500Y0099868D02*
X0193500Y0099868D01*
X0193500Y0098869D02*
X0192500Y0098869D01*
X0192500Y0097870D02*
X0193500Y0097870D01*
X0193500Y0096872D02*
X0192500Y0096872D01*
X0192500Y0095873D02*
X0165533Y0095873D01*
X0165675Y0095532D02*
X0165268Y0096515D01*
X0164515Y0097268D01*
X0163532Y0097675D01*
X0162468Y0097675D01*
X0161485Y0097268D01*
X0161294Y0097077D01*
X0160472Y0097077D01*
X0156656Y0093260D01*
X0156656Y0092507D01*
X0156470Y0092557D01*
X0156075Y0092557D01*
X0155694Y0092455D01*
X0155352Y0092257D01*
X0154024Y0090929D01*
X0156134Y0088819D01*
X0155449Y0088134D01*
X0153339Y0090244D01*
X0152010Y0088916D01*
X0151813Y0088573D01*
X0151711Y0088192D01*
X0151711Y0087797D01*
X0151813Y0087416D01*
X0152010Y0087073D01*
X0153199Y0085884D01*
X0155449Y0088134D01*
X0156134Y0087449D01*
X0156819Y0088134D01*
X0158929Y0086024D01*
X0160257Y0087352D01*
X0160455Y0087694D01*
X0160557Y0088075D01*
X0160557Y0088470D01*
X0160507Y0088656D01*
X0161260Y0088656D01*
X0165077Y0092472D01*
X0165077Y0093294D01*
X0165268Y0093485D01*
X0165675Y0094468D01*
X0165675Y0095532D01*
X0165675Y0094875D02*
X0185594Y0094875D01*
X0185594Y0095500D02*
X0185594Y0086944D01*
X0185697Y0086563D01*
X0185894Y0086221D01*
X0186173Y0085941D01*
X0186516Y0085744D01*
X0186897Y0085642D01*
X0192500Y0085642D01*
X0192500Y0095500D01*
X0185594Y0095500D01*
X0185594Y0096872D02*
X0164911Y0096872D01*
X0163000Y0095000D02*
X0163000Y0094500D01*
X0160866Y0092866D01*
X0158270Y0094875D02*
X0115327Y0094875D01*
X0116325Y0095873D02*
X0159269Y0095873D01*
X0160267Y0096872D02*
X0117324Y0096872D01*
X0118087Y0097870D02*
X0185594Y0097870D01*
X0185594Y0098869D02*
X0118087Y0098869D01*
X0114328Y0093876D02*
X0157272Y0093876D01*
X0156656Y0092878D02*
X0113330Y0092878D01*
X0112331Y0091879D02*
X0154974Y0091879D01*
X0154071Y0090881D02*
X0111333Y0090881D01*
X0110334Y0089882D02*
X0152977Y0089882D01*
X0153700Y0089882D02*
X0155070Y0089882D01*
X0154699Y0088884D02*
X0156068Y0088884D01*
X0155697Y0087885D02*
X0155201Y0087885D01*
X0156134Y0087449D02*
X0153884Y0085199D01*
X0155073Y0084010D01*
X0155416Y0083813D01*
X0155797Y0083711D01*
X0156192Y0083711D01*
X0156573Y0083813D01*
X0156916Y0084010D01*
X0158244Y0085339D01*
X0156134Y0087449D01*
X0156570Y0087885D02*
X0157067Y0087885D01*
X0156696Y0086887D02*
X0158065Y0086887D01*
X0157694Y0085888D02*
X0160983Y0085888D01*
X0161352Y0086257D02*
X0160024Y0084929D01*
X0162134Y0082819D01*
X0161449Y0082134D01*
X0159339Y0084244D01*
X0158010Y0082916D01*
X0157813Y0082573D01*
X0157711Y0082192D01*
X0157711Y0081797D01*
X0157813Y0081416D01*
X0158010Y0081073D01*
X0159199Y0079884D01*
X0161449Y0082134D01*
X0162134Y0081449D01*
X0162819Y0082134D01*
X0164929Y0080024D01*
X0166257Y0081352D01*
X0166455Y0081694D01*
X0166557Y0082075D01*
X0166557Y0082470D01*
X0166507Y0082656D01*
X0167260Y0082656D01*
X0171077Y0086472D01*
X0171077Y0087539D01*
X0171020Y0087595D01*
X0171175Y0087968D01*
X0171175Y0089032D01*
X0170768Y0090015D01*
X0170015Y0090768D01*
X0169032Y0091175D01*
X0167968Y0091175D01*
X0167595Y0091020D01*
X0167539Y0091077D01*
X0166472Y0091077D01*
X0162656Y0087260D01*
X0162656Y0086507D01*
X0162470Y0086557D01*
X0162075Y0086557D01*
X0161694Y0086455D01*
X0161352Y0086257D01*
X0162656Y0086887D02*
X0159792Y0086887D01*
X0160506Y0087885D02*
X0163281Y0087885D01*
X0164279Y0088884D02*
X0161488Y0088884D01*
X0162487Y0089882D02*
X0165278Y0089882D01*
X0166276Y0090881D02*
X0163485Y0090881D01*
X0164484Y0091879D02*
X0185594Y0091879D01*
X0185594Y0090881D02*
X0169742Y0090881D01*
X0170823Y0089882D02*
X0185594Y0089882D01*
X0185594Y0088884D02*
X0171175Y0088884D01*
X0171141Y0087885D02*
X0185594Y0087885D01*
X0185610Y0086887D02*
X0171077Y0086887D01*
X0170493Y0085888D02*
X0186265Y0085888D01*
X0192500Y0085888D02*
X0193500Y0085888D01*
X0193500Y0086887D02*
X0192500Y0086887D01*
X0192500Y0087885D02*
X0193500Y0087885D01*
X0193500Y0088884D02*
X0192500Y0088884D01*
X0192500Y0089882D02*
X0193500Y0089882D01*
X0193500Y0090881D02*
X0192500Y0090881D01*
X0192500Y0091879D02*
X0193500Y0091879D01*
X0193500Y0092878D02*
X0192500Y0092878D01*
X0192500Y0093876D02*
X0193500Y0093876D01*
X0193500Y0094875D02*
X0192500Y0094875D01*
X0185594Y0093876D02*
X0165430Y0093876D01*
X0165077Y0092878D02*
X0185594Y0092878D01*
X0200405Y0092878D02*
X0213784Y0092878D01*
X0213683Y0093876D02*
X0200405Y0093876D01*
X0200405Y0091879D02*
X0214350Y0091879D01*
X0215818Y0090881D02*
X0200405Y0090881D01*
X0200405Y0089882D02*
X0225313Y0089882D01*
X0225313Y0088884D02*
X0200405Y0088884D01*
X0200405Y0087885D02*
X0225103Y0087885D01*
X0224472Y0086887D02*
X0200390Y0086887D01*
X0199735Y0085888D02*
X0224325Y0085888D01*
X0224565Y0084890D02*
X0169494Y0084890D01*
X0168496Y0083891D02*
X0225326Y0083891D01*
X0223610Y0082893D02*
X0167497Y0082893D01*
X0166508Y0081894D02*
X0222975Y0081894D01*
X0222825Y0080896D02*
X0165801Y0080896D01*
X0164056Y0080896D02*
X0162687Y0080896D01*
X0162134Y0081449D02*
X0164244Y0079339D01*
X0162916Y0078010D01*
X0162573Y0077813D01*
X0162192Y0077711D01*
X0161797Y0077711D01*
X0161416Y0077813D01*
X0161073Y0078010D01*
X0159884Y0079199D01*
X0162134Y0081449D01*
X0162579Y0081894D02*
X0163058Y0081894D01*
X0161688Y0081894D02*
X0161209Y0081894D01*
X0161581Y0080896D02*
X0160211Y0080896D01*
X0160582Y0079897D02*
X0159212Y0079897D01*
X0159187Y0079897D02*
X0100706Y0079897D01*
X0099294Y0079897D02*
X0091813Y0079897D01*
X0092419Y0080896D02*
X0097821Y0080896D01*
X0102179Y0080896D02*
X0158188Y0080896D01*
X0157711Y0081894D02*
X0102644Y0081894D01*
X0103345Y0082893D02*
X0157997Y0082893D01*
X0158986Y0083891D02*
X0156709Y0083891D01*
X0155280Y0083891D02*
X0104343Y0083891D01*
X0105342Y0084890D02*
X0154194Y0084890D01*
X0154573Y0085888D02*
X0153203Y0085888D01*
X0153195Y0085888D02*
X0106340Y0085888D01*
X0107339Y0086887D02*
X0152197Y0086887D01*
X0151711Y0087885D02*
X0108337Y0087885D01*
X0109336Y0088884D02*
X0151992Y0088884D01*
X0154202Y0086887D02*
X0155572Y0086887D01*
X0157795Y0084890D02*
X0160062Y0084890D01*
X0159691Y0083891D02*
X0161061Y0083891D01*
X0160690Y0082893D02*
X0162059Y0082893D01*
X0163685Y0079897D02*
X0207296Y0079897D01*
X0207288Y0079890D02*
X0207090Y0079547D01*
X0206988Y0079166D01*
X0206988Y0077484D01*
X0210169Y0077484D01*
X0210169Y0080468D01*
X0208291Y0080468D01*
X0207909Y0080366D01*
X0207567Y0080169D01*
X0207288Y0079890D01*
X0206988Y0078899D02*
X0163804Y0078899D01*
X0162725Y0077900D02*
X0206988Y0077900D01*
X0206988Y0075903D02*
X0156002Y0075903D01*
X0156557Y0074905D02*
X0206988Y0074905D01*
X0207492Y0073906D02*
X0157698Y0073906D01*
X0158697Y0072908D02*
X0215259Y0072908D01*
X0214486Y0073906D02*
X0213815Y0073906D01*
X0214000Y0071909D02*
X0214301Y0071909D01*
X0217346Y0069000D02*
X0216846Y0066654D01*
X0217000Y0066500D01*
X0214798Y0064920D02*
X0206512Y0064920D01*
X0206512Y0063921D02*
X0214693Y0063921D01*
X0214315Y0062923D02*
X0213986Y0062923D01*
X0211138Y0062923D02*
X0210169Y0062923D01*
X0210169Y0061924D02*
X0211138Y0061924D01*
X0211138Y0060926D02*
X0210169Y0060926D01*
X0207321Y0062923D02*
X0206024Y0062923D01*
X0210169Y0065918D02*
X0211138Y0065918D01*
X0211138Y0066917D02*
X0210169Y0066917D01*
X0210169Y0067915D02*
X0211138Y0067915D01*
X0213827Y0065918D02*
X0214346Y0065918D01*
X0217000Y0062500D02*
X0216346Y0059846D01*
X0217346Y0060000D01*
X0214326Y0054934D02*
X0213974Y0054934D01*
X0211138Y0050940D02*
X0210169Y0050940D01*
X0210169Y0049942D02*
X0211138Y0049942D01*
X0211138Y0048943D02*
X0210169Y0048943D01*
X0213852Y0048943D02*
X0214448Y0048943D01*
X0216440Y0046946D02*
X0257213Y0046946D01*
X0257213Y0045948D02*
X0217438Y0045948D01*
X0218437Y0044949D02*
X0227888Y0044949D01*
X0227566Y0044627D02*
X0227128Y0043571D01*
X0227128Y0042429D01*
X0227566Y0041373D01*
X0228373Y0040566D01*
X0229429Y0040128D01*
X0230571Y0040128D01*
X0231627Y0040566D01*
X0232434Y0041373D01*
X0232872Y0042429D01*
X0232872Y0043571D01*
X0232434Y0044627D01*
X0231627Y0045434D01*
X0230571Y0045872D01*
X0229429Y0045872D01*
X0228373Y0045434D01*
X0227566Y0044627D01*
X0227286Y0043951D02*
X0219435Y0043951D01*
X0220434Y0042952D02*
X0227128Y0042952D01*
X0227325Y0041954D02*
X0221432Y0041954D01*
X0222431Y0040955D02*
X0227984Y0040955D01*
X0232016Y0040955D02*
X0235484Y0040955D01*
X0235873Y0040566D02*
X0235066Y0041373D01*
X0234628Y0042429D01*
X0234628Y0043571D01*
X0235066Y0044627D01*
X0235873Y0045434D01*
X0236929Y0045872D01*
X0238071Y0045872D01*
X0239127Y0045434D01*
X0239934Y0044627D01*
X0240372Y0043571D01*
X0240372Y0042429D01*
X0239934Y0041373D01*
X0239127Y0040566D01*
X0238071Y0040128D01*
X0236929Y0040128D01*
X0235873Y0040566D01*
X0234825Y0041954D02*
X0232675Y0041954D01*
X0232872Y0042952D02*
X0234628Y0042952D01*
X0234786Y0043951D02*
X0232714Y0043951D01*
X0232112Y0044949D02*
X0235388Y0044949D01*
X0239612Y0044949D02*
X0242888Y0044949D01*
X0242566Y0044627D02*
X0242128Y0043571D01*
X0242128Y0042429D01*
X0242566Y0041373D01*
X0243373Y0040566D01*
X0244429Y0040128D01*
X0245571Y0040128D01*
X0246627Y0040566D01*
X0247434Y0041373D01*
X0247872Y0042429D01*
X0247872Y0043571D01*
X0247434Y0044627D01*
X0246627Y0045434D01*
X0245571Y0045872D01*
X0244429Y0045872D01*
X0243373Y0045434D01*
X0242566Y0044627D01*
X0242286Y0043951D02*
X0240214Y0043951D01*
X0240372Y0042952D02*
X0242128Y0042952D01*
X0242325Y0041954D02*
X0240175Y0041954D01*
X0239516Y0040955D02*
X0242984Y0040955D01*
X0244429Y0037872D02*
X0243373Y0037434D01*
X0242566Y0036627D01*
X0242128Y0035571D01*
X0242128Y0034429D01*
X0242566Y0033373D01*
X0243373Y0032566D01*
X0244429Y0032128D01*
X0245571Y0032128D01*
X0246627Y0032566D01*
X0247434Y0033373D01*
X0247872Y0034429D01*
X0247872Y0035571D01*
X0247434Y0036627D01*
X0246627Y0037434D01*
X0245571Y0037872D01*
X0244429Y0037872D01*
X0242900Y0036961D02*
X0226425Y0036961D01*
X0227424Y0035963D02*
X0242291Y0035963D01*
X0242128Y0034964D02*
X0228422Y0034964D01*
X0229421Y0033966D02*
X0242320Y0033966D01*
X0242972Y0032967D02*
X0230419Y0032967D01*
X0231418Y0031969D02*
X0257213Y0031969D01*
X0257213Y0032967D02*
X0255028Y0032967D01*
X0254627Y0032566D02*
X0255434Y0033373D01*
X0255872Y0034429D01*
X0255872Y0035571D01*
X0255434Y0036627D01*
X0254627Y0037434D01*
X0253571Y0037872D01*
X0252429Y0037872D01*
X0251373Y0037434D01*
X0250566Y0036627D01*
X0250128Y0035571D01*
X0250128Y0034429D01*
X0250566Y0033373D01*
X0251373Y0032566D01*
X0252429Y0032128D01*
X0253571Y0032128D01*
X0254627Y0032566D01*
X0255680Y0033966D02*
X0257213Y0033966D01*
X0257213Y0034964D02*
X0255872Y0034964D01*
X0255709Y0035963D02*
X0257213Y0035963D01*
X0257213Y0036961D02*
X0255100Y0036961D01*
X0257213Y0037960D02*
X0225427Y0037960D01*
X0224428Y0038958D02*
X0257213Y0038958D01*
X0257213Y0039957D02*
X0223430Y0039957D01*
X0219651Y0035963D02*
X0138864Y0035963D01*
X0138955Y0035806D02*
X0138757Y0036148D01*
X0137429Y0037476D01*
X0135319Y0035366D01*
X0134634Y0036051D01*
X0136744Y0038161D01*
X0135416Y0039490D01*
X0135073Y0039687D01*
X0134692Y0039789D01*
X0134297Y0039789D01*
X0133916Y0039687D01*
X0133573Y0039490D01*
X0132384Y0038301D01*
X0134634Y0036051D01*
X0133949Y0035366D01*
X0134634Y0034681D01*
X0132524Y0032571D01*
X0133852Y0031243D01*
X0134194Y0031045D01*
X0134575Y0030943D01*
X0134970Y0030943D01*
X0135156Y0030993D01*
X0135156Y0030240D01*
X0138972Y0026423D01*
X0139794Y0026423D01*
X0139985Y0026232D01*
X0140968Y0025825D01*
X0142032Y0025825D01*
X0143015Y0026232D01*
X0143768Y0026985D01*
X0144175Y0027968D01*
X0144175Y0029032D01*
X0143768Y0030015D01*
X0143577Y0030206D01*
X0143577Y0031028D01*
X0139760Y0034844D01*
X0139007Y0034844D01*
X0139057Y0035030D01*
X0139057Y0035425D01*
X0138955Y0035806D01*
X0139039Y0034964D02*
X0220649Y0034964D01*
X0221648Y0033966D02*
X0140639Y0033966D01*
X0141637Y0032967D02*
X0222646Y0032967D01*
X0223645Y0031969D02*
X0142636Y0031969D01*
X0143577Y0030970D02*
X0224643Y0030970D01*
X0225642Y0029972D02*
X0143786Y0029972D01*
X0144175Y0028973D02*
X0226313Y0028973D01*
X0226313Y0027975D02*
X0144175Y0027975D01*
X0143759Y0026976D02*
X0226313Y0026976D01*
X0226313Y0025978D02*
X0142400Y0025978D01*
X0140600Y0025978D02*
X0135927Y0025978D01*
X0135661Y0026244D02*
X0136990Y0024916D01*
X0137187Y0024573D01*
X0137289Y0024192D01*
X0137289Y0023797D01*
X0137187Y0023416D01*
X0136990Y0023073D01*
X0135801Y0021884D01*
X0133551Y0024134D01*
X0132866Y0024819D01*
X0134976Y0026929D01*
X0133648Y0028257D01*
X0133306Y0028455D01*
X0132925Y0028557D01*
X0132530Y0028557D01*
X0132344Y0028507D01*
X0132344Y0029260D01*
X0129664Y0031941D01*
X0129675Y0031968D01*
X0129675Y0033032D01*
X0129268Y0034015D01*
X0128515Y0034768D01*
X0127532Y0035175D01*
X0126468Y0035175D01*
X0125485Y0034768D01*
X0124732Y0034015D01*
X0124325Y0033032D01*
X0124325Y0031968D01*
X0124732Y0030985D01*
X0125051Y0030666D01*
X0123923Y0029539D01*
X0123923Y0028472D01*
X0127740Y0024656D01*
X0128493Y0024656D01*
X0128443Y0024470D01*
X0128443Y0024075D01*
X0128545Y0023694D01*
X0128743Y0023352D01*
X0130071Y0022024D01*
X0132181Y0024134D01*
X0132866Y0023449D01*
X0130756Y0021339D01*
X0132084Y0020010D01*
X0132427Y0019813D01*
X0132808Y0019711D01*
X0133203Y0019711D01*
X0133584Y0019813D01*
X0133927Y0020010D01*
X0135116Y0021199D01*
X0132866Y0023449D01*
X0133551Y0024134D01*
X0135661Y0026244D01*
X0135395Y0025978D02*
X0134025Y0025978D01*
X0134397Y0024979D02*
X0133027Y0024979D01*
X0133398Y0023981D02*
X0133704Y0023981D01*
X0133333Y0022982D02*
X0134703Y0022982D01*
X0134331Y0021984D02*
X0135701Y0021984D01*
X0135900Y0021984D02*
X0226201Y0021984D01*
X0226313Y0022982D02*
X0136898Y0022982D01*
X0137289Y0023981D02*
X0226313Y0023981D01*
X0226313Y0024979D02*
X0136926Y0024979D01*
X0138419Y0026976D02*
X0134929Y0026976D01*
X0133930Y0027975D02*
X0137421Y0027975D01*
X0136422Y0028973D02*
X0132344Y0028973D01*
X0131633Y0029972D02*
X0135424Y0029972D01*
X0135156Y0030970D02*
X0135071Y0030970D01*
X0134475Y0030970D02*
X0130634Y0030970D01*
X0129675Y0031969D02*
X0133126Y0031969D01*
X0132920Y0032967D02*
X0129675Y0032967D01*
X0129288Y0033966D02*
X0131129Y0033966D01*
X0130510Y0034584D02*
X0131839Y0033256D01*
X0133949Y0035366D01*
X0131699Y0037616D01*
X0130510Y0036427D01*
X0130313Y0036084D01*
X0130211Y0035703D01*
X0130211Y0035308D01*
X0130313Y0034927D01*
X0130510Y0034584D01*
X0130303Y0034964D02*
X0128040Y0034964D01*
X0125960Y0034964D02*
X0106540Y0034964D01*
X0107015Y0034768D02*
X0106032Y0035175D01*
X0104968Y0035175D01*
X0103985Y0034768D01*
X0103794Y0034577D01*
X0102972Y0034577D01*
X0099156Y0030760D01*
X0099156Y0030007D01*
X0098970Y0030057D01*
X0098575Y0030057D01*
X0098194Y0029955D01*
X0097852Y0029757D01*
X0096524Y0028429D01*
X0098634Y0026319D01*
X0097949Y0025634D01*
X0095839Y0027744D01*
X0094510Y0026416D01*
X0094313Y0026073D01*
X0094211Y0025692D01*
X0094211Y0025297D01*
X0094313Y0024916D01*
X0094510Y0024573D01*
X0095699Y0023384D01*
X0097949Y0025634D01*
X0098634Y0024949D01*
X0099319Y0025634D01*
X0101429Y0023524D01*
X0102757Y0024852D01*
X0102955Y0025194D01*
X0103057Y0025575D01*
X0103057Y0025970D01*
X0103007Y0026156D01*
X0103760Y0026156D01*
X0107577Y0029972D01*
X0107577Y0030794D01*
X0107768Y0030985D01*
X0108175Y0031968D01*
X0108175Y0033032D01*
X0107768Y0034015D01*
X0107015Y0034768D01*
X0107788Y0033966D02*
X0124712Y0033966D01*
X0124325Y0032967D02*
X0108175Y0032967D01*
X0108175Y0031969D02*
X0124325Y0031969D01*
X0124747Y0030970D02*
X0107753Y0030970D01*
X0107576Y0029972D02*
X0124356Y0029972D01*
X0123923Y0028973D02*
X0116810Y0028973D01*
X0116515Y0029268D02*
X0115532Y0029675D01*
X0114468Y0029675D01*
X0113485Y0029268D01*
X0112732Y0028515D01*
X0112325Y0027532D01*
X0112325Y0026853D01*
X0112044Y0026572D01*
X0111539Y0027077D01*
X0110472Y0027077D01*
X0106656Y0023260D01*
X0106656Y0022507D01*
X0106470Y0022557D01*
X0106075Y0022557D01*
X0105694Y0022455D01*
X0105352Y0022257D01*
X0104024Y0020929D01*
X0106134Y0018819D01*
X0105449Y0018134D01*
X0103339Y0020244D01*
X0102010Y0018916D01*
X0101813Y0018573D01*
X0101711Y0018192D01*
X0101711Y0017797D01*
X0101813Y0017416D01*
X0102010Y0017073D01*
X0103199Y0015884D01*
X0105449Y0018134D01*
X0106134Y0017449D01*
X0106819Y0018134D01*
X0108929Y0016024D01*
X0110257Y0017352D01*
X0110455Y0017694D01*
X0110557Y0018075D01*
X0110557Y0018470D01*
X0110507Y0018656D01*
X0111260Y0018656D01*
X0115077Y0022472D01*
X0115077Y0023539D01*
X0114572Y0024044D01*
X0114853Y0024325D01*
X0115532Y0024325D01*
X0116515Y0024732D01*
X0117268Y0025485D01*
X0117675Y0026468D01*
X0117675Y0027532D01*
X0117268Y0028515D01*
X0116515Y0029268D01*
X0117491Y0027975D02*
X0124421Y0027975D01*
X0125419Y0026976D02*
X0117675Y0026976D01*
X0117472Y0025978D02*
X0126418Y0025978D01*
X0127416Y0024979D02*
X0116762Y0024979D01*
X0114635Y0023981D02*
X0128469Y0023981D01*
X0129113Y0022982D02*
X0115077Y0022982D01*
X0114588Y0021984D02*
X0131401Y0021984D01*
X0131110Y0020985D02*
X0113590Y0020985D01*
X0112591Y0019987D02*
X0132126Y0019987D01*
X0133885Y0019987D02*
X0191200Y0019987D01*
X0191200Y0020973D02*
X0191200Y0015027D01*
X0191727Y0014500D01*
X0192027Y0014200D01*
X0211873Y0014200D01*
X0212700Y0015027D01*
X0212700Y0020973D01*
X0212173Y0021500D01*
X0211873Y0021800D01*
X0192027Y0021800D01*
X0191500Y0021273D01*
X0191200Y0020973D01*
X0191212Y0020985D02*
X0134901Y0020985D01*
X0132400Y0022982D02*
X0131030Y0022982D01*
X0132028Y0023981D02*
X0132334Y0023981D01*
X0139366Y0030634D02*
X0141500Y0028500D01*
X0133918Y0033966D02*
X0132548Y0033966D01*
X0133547Y0034964D02*
X0134351Y0034964D01*
X0134545Y0035963D02*
X0133352Y0035963D01*
X0133724Y0036961D02*
X0132354Y0036961D01*
X0132725Y0037960D02*
X0102675Y0037960D01*
X0102675Y0037468D02*
X0102675Y0038532D01*
X0102268Y0039515D01*
X0101515Y0040268D01*
X0100532Y0040675D01*
X0099468Y0040675D01*
X0098485Y0040268D01*
X0098294Y0040077D01*
X0097472Y0040077D01*
X0093656Y0036260D01*
X0093656Y0035507D01*
X0093470Y0035557D01*
X0093075Y0035557D01*
X0092694Y0035455D01*
X0092352Y0035257D01*
X0091024Y0033929D01*
X0093134Y0031819D01*
X0092449Y0031134D01*
X0090339Y0033244D01*
X0089010Y0031916D01*
X0088813Y0031573D01*
X0088711Y0031192D01*
X0088711Y0030797D01*
X0088813Y0030416D01*
X0089010Y0030073D01*
X0090199Y0028884D01*
X0092449Y0031134D01*
X0093134Y0030449D01*
X0093819Y0031134D01*
X0095929Y0029024D01*
X0097257Y0030352D01*
X0097455Y0030694D01*
X0097557Y0031075D01*
X0097557Y0031470D01*
X0097507Y0031656D01*
X0098260Y0031656D01*
X0102077Y0035472D01*
X0102077Y0036294D01*
X0102268Y0036485D01*
X0102675Y0037468D01*
X0102465Y0036961D02*
X0131045Y0036961D01*
X0130280Y0035963D02*
X0102077Y0035963D01*
X0101569Y0034964D02*
X0104460Y0034964D01*
X0102361Y0033966D02*
X0100570Y0033966D01*
X0101363Y0032967D02*
X0099572Y0032967D01*
X0100364Y0031969D02*
X0098573Y0031969D01*
X0099366Y0030970D02*
X0097529Y0030970D01*
X0096877Y0029972D02*
X0098258Y0029972D01*
X0097068Y0028973D02*
X0094609Y0028973D01*
X0095244Y0028339D02*
X0093916Y0027010D01*
X0093573Y0026813D01*
X0093192Y0026711D01*
X0092797Y0026711D01*
X0092416Y0026813D01*
X0092073Y0027010D01*
X0090884Y0028199D01*
X0093134Y0030449D01*
X0095244Y0028339D01*
X0094880Y0027975D02*
X0096978Y0027975D01*
X0096606Y0026976D02*
X0097976Y0026976D01*
X0098293Y0025978D02*
X0097605Y0025978D01*
X0097294Y0024979D02*
X0098603Y0024979D01*
X0098634Y0024949D02*
X0096384Y0022699D01*
X0097573Y0021510D01*
X0097916Y0021313D01*
X0098297Y0021211D01*
X0098692Y0021211D01*
X0099073Y0021313D01*
X0099416Y0021510D01*
X0100744Y0022839D01*
X0098634Y0024949D01*
X0098664Y0024979D02*
X0099973Y0024979D01*
X0099602Y0023981D02*
X0100972Y0023981D01*
X0101886Y0023981D02*
X0107376Y0023981D01*
X0106656Y0022982D02*
X0100600Y0022982D01*
X0099889Y0021984D02*
X0105078Y0021984D01*
X0104080Y0020985D02*
X0084286Y0020985D01*
X0083987Y0019987D02*
X0103081Y0019987D01*
X0103596Y0019987D02*
X0104966Y0019987D01*
X0104594Y0018988D02*
X0105964Y0018988D01*
X0105593Y0017990D02*
X0105305Y0017990D01*
X0106134Y0017449D02*
X0103884Y0015199D01*
X0105073Y0014010D01*
X0105416Y0013813D01*
X0105797Y0013711D01*
X0106192Y0013711D01*
X0106573Y0013813D01*
X0106916Y0014010D01*
X0108244Y0015339D01*
X0106134Y0017449D01*
X0106591Y0016991D02*
X0107961Y0016991D01*
X0107590Y0015993D02*
X0191200Y0015993D01*
X0191200Y0016991D02*
X0109896Y0016991D01*
X0110534Y0017990D02*
X0191200Y0017990D01*
X0191200Y0018988D02*
X0111593Y0018988D01*
X0106963Y0017990D02*
X0106675Y0017990D01*
X0105676Y0016991D02*
X0104306Y0016991D01*
X0104677Y0015993D02*
X0103308Y0015993D01*
X0103091Y0015993D02*
X0081020Y0015993D01*
X0080022Y0014994D02*
X0104090Y0014994D01*
X0105099Y0013996D02*
X0079023Y0013996D01*
X0079287Y0014260D02*
X0079287Y0014260D01*
X0077500Y0015000D02*
X0013500Y0015000D01*
X0008500Y0020000D01*
X0008500Y0023846D01*
X0008654Y0024000D01*
X0011909Y0023981D02*
X0012091Y0023981D01*
X0012091Y0024979D02*
X0011909Y0024979D01*
X0011909Y0025978D02*
X0012091Y0025978D01*
X0012368Y0026976D02*
X0011632Y0026976D01*
X0015140Y0028973D02*
X0005787Y0028973D01*
X0005787Y0027975D02*
X0016139Y0027975D01*
X0018325Y0026976D02*
X0019637Y0026976D01*
X0020636Y0025978D02*
X0018602Y0025978D01*
X0018602Y0024979D02*
X0020799Y0024979D01*
X0020744Y0023981D02*
X0018602Y0023981D01*
X0018602Y0022982D02*
X0020815Y0022982D01*
X0021229Y0021984D02*
X0018602Y0021984D01*
X0018401Y0020985D02*
X0021996Y0020985D01*
X0023568Y0019987D02*
X0019400Y0019987D01*
X0020398Y0018988D02*
X0037602Y0018988D01*
X0038600Y0019987D02*
X0036432Y0019987D01*
X0035847Y0019744D02*
X0037411Y0020392D01*
X0038608Y0021589D01*
X0039256Y0023153D01*
X0039256Y0024847D01*
X0038608Y0026411D01*
X0037411Y0027608D01*
X0035847Y0028256D01*
X0034153Y0028256D01*
X0032589Y0027608D01*
X0031392Y0026411D01*
X0030744Y0024847D01*
X0030744Y0023153D01*
X0031392Y0021589D01*
X0032589Y0020392D01*
X0034153Y0019744D01*
X0035847Y0019744D01*
X0033568Y0019987D02*
X0026432Y0019987D01*
X0028004Y0020985D02*
X0031996Y0020985D01*
X0031229Y0021984D02*
X0028771Y0021984D01*
X0029185Y0022982D02*
X0030815Y0022982D01*
X0030744Y0023981D02*
X0029256Y0023981D01*
X0029201Y0024979D02*
X0030799Y0024979D01*
X0031213Y0025978D02*
X0028787Y0025978D01*
X0028043Y0026976D02*
X0031957Y0026976D01*
X0033475Y0027975D02*
X0026525Y0027975D01*
X0026046Y0029642D02*
X0026715Y0029859D01*
X0027342Y0030178D01*
X0027911Y0030592D01*
X0028408Y0031089D01*
X0028822Y0031658D01*
X0029141Y0032285D01*
X0029358Y0032954D01*
X0029447Y0033516D01*
X0025484Y0033516D01*
X0025484Y0029552D01*
X0026046Y0029642D01*
X0025484Y0029972D02*
X0024516Y0029972D01*
X0024516Y0029552D02*
X0024516Y0033516D01*
X0025484Y0033516D01*
X0025484Y0034484D01*
X0029447Y0034484D01*
X0029358Y0035046D01*
X0029141Y0035715D01*
X0028822Y0036342D01*
X0028408Y0036911D01*
X0027911Y0037408D01*
X0027342Y0037822D01*
X0026715Y0038141D01*
X0026046Y0038358D01*
X0025484Y0038447D01*
X0025484Y0034484D01*
X0024516Y0034484D01*
X0024516Y0033516D01*
X0020552Y0033516D01*
X0020642Y0032954D01*
X0020859Y0032285D01*
X0021178Y0031658D01*
X0021592Y0031089D01*
X0022089Y0030592D01*
X0022658Y0030178D01*
X0023285Y0029859D01*
X0023954Y0029642D01*
X0024516Y0029552D01*
X0024516Y0030970D02*
X0025484Y0030970D01*
X0025484Y0031969D02*
X0024516Y0031969D01*
X0024516Y0032967D02*
X0025484Y0032967D01*
X0025484Y0033966D02*
X0030744Y0033966D01*
X0030744Y0033153D02*
X0031392Y0031589D01*
X0032589Y0030392D01*
X0034153Y0029744D01*
X0035847Y0029744D01*
X0037411Y0030392D01*
X0038608Y0031589D01*
X0039256Y0033153D01*
X0039256Y0034847D01*
X0038608Y0036411D01*
X0037411Y0037608D01*
X0035847Y0038256D01*
X0034153Y0038256D01*
X0032589Y0037608D01*
X0031392Y0036411D01*
X0030744Y0034847D01*
X0030744Y0033153D01*
X0030821Y0032967D02*
X0029361Y0032967D01*
X0028980Y0031969D02*
X0031235Y0031969D01*
X0032011Y0030970D02*
X0028290Y0030970D01*
X0026937Y0029972D02*
X0033604Y0029972D01*
X0036396Y0029972D02*
X0043604Y0029972D01*
X0044153Y0029744D02*
X0045847Y0029744D01*
X0047411Y0030392D01*
X0048608Y0031589D01*
X0049256Y0033153D01*
X0049256Y0034847D01*
X0048608Y0036411D01*
X0047411Y0037608D01*
X0045847Y0038256D01*
X0044153Y0038256D01*
X0042589Y0037608D01*
X0041392Y0036411D01*
X0040744Y0034847D01*
X0040744Y0033153D01*
X0041392Y0031589D01*
X0042589Y0030392D01*
X0044153Y0029744D01*
X0043475Y0027975D02*
X0036525Y0027975D01*
X0038043Y0026976D02*
X0041957Y0026976D01*
X0041213Y0025978D02*
X0038787Y0025978D01*
X0039201Y0024979D02*
X0040799Y0024979D01*
X0040744Y0023981D02*
X0039256Y0023981D01*
X0039185Y0022982D02*
X0040815Y0022982D01*
X0040597Y0021984D02*
X0038771Y0021984D01*
X0038004Y0020985D02*
X0039599Y0020985D01*
X0041376Y0017990D02*
X0077962Y0017990D01*
X0078825Y0018988D02*
X0042374Y0018988D01*
X0043373Y0019987D02*
X0043568Y0019987D01*
X0046432Y0019987D02*
X0053568Y0019987D01*
X0051996Y0020985D02*
X0048004Y0020985D01*
X0048771Y0021984D02*
X0051229Y0021984D01*
X0050815Y0022982D02*
X0049185Y0022982D01*
X0049256Y0023981D02*
X0050744Y0023981D01*
X0050799Y0024979D02*
X0049201Y0024979D01*
X0049364Y0025978D02*
X0051213Y0025978D01*
X0047587Y0028973D02*
X0022413Y0028973D01*
X0023063Y0029972D02*
X0021415Y0029972D01*
X0021710Y0030970D02*
X0020416Y0030970D01*
X0021020Y0031969D02*
X0018602Y0031969D01*
X0018602Y0032967D02*
X0020639Y0032967D01*
X0020552Y0034484D02*
X0024516Y0034484D01*
X0024516Y0038447D01*
X0023954Y0038358D01*
X0023285Y0038141D01*
X0022658Y0037822D01*
X0022089Y0037408D01*
X0021592Y0036911D01*
X0021178Y0036342D01*
X0020859Y0035715D01*
X0020642Y0035046D01*
X0020552Y0034484D01*
X0020629Y0034964D02*
X0018602Y0034964D01*
X0018602Y0033966D02*
X0024516Y0033966D01*
X0024516Y0034964D02*
X0025484Y0034964D01*
X0025484Y0035963D02*
X0024516Y0035963D01*
X0024516Y0036961D02*
X0025484Y0036961D01*
X0025484Y0037960D02*
X0024516Y0037960D01*
X0022929Y0037960D02*
X0005787Y0037960D01*
X0005787Y0038958D02*
X0080125Y0038958D01*
X0080573Y0038510D02*
X0080916Y0038313D01*
X0081297Y0038211D01*
X0081692Y0038211D01*
X0082073Y0038313D01*
X0082416Y0038510D01*
X0083744Y0039839D01*
X0081634Y0041949D01*
X0082319Y0042634D01*
X0084429Y0040524D01*
X0085757Y0041852D01*
X0085955Y0042194D01*
X0086057Y0042575D01*
X0086057Y0042970D01*
X0086007Y0043156D01*
X0086760Y0043156D01*
X0090577Y0046972D01*
X0090577Y0047794D01*
X0090768Y0047985D01*
X0091175Y0048968D01*
X0091175Y0050032D01*
X0090768Y0051015D01*
X0090015Y0051768D01*
X0089032Y0052175D01*
X0087968Y0052175D01*
X0086985Y0051768D01*
X0086794Y0051577D01*
X0085972Y0051577D01*
X0082156Y0047760D01*
X0082156Y0047007D01*
X0081970Y0047057D01*
X0081575Y0047057D01*
X0081194Y0046955D01*
X0080852Y0046757D01*
X0079524Y0045429D01*
X0081634Y0043319D01*
X0080949Y0042634D01*
X0078839Y0044744D01*
X0077510Y0043416D01*
X0077313Y0043073D01*
X0077211Y0042692D01*
X0077211Y0042297D01*
X0077313Y0041916D01*
X0077510Y0041573D01*
X0078699Y0040384D01*
X0080949Y0042634D01*
X0081634Y0041949D01*
X0079384Y0039699D01*
X0080573Y0038510D01*
X0079642Y0039957D02*
X0005787Y0039957D01*
X0005787Y0040955D02*
X0078128Y0040955D01*
X0079270Y0040955D02*
X0080640Y0040955D01*
X0080269Y0041954D02*
X0081629Y0041954D01*
X0081639Y0041954D02*
X0082998Y0041954D01*
X0082627Y0040955D02*
X0083997Y0040955D01*
X0084861Y0040955D02*
X0133654Y0040955D01*
X0133968Y0040825D02*
X0135032Y0040825D01*
X0136015Y0041232D01*
X0136768Y0041985D01*
X0137175Y0042968D01*
X0137175Y0044032D01*
X0136768Y0045015D01*
X0136577Y0045206D01*
X0136577Y0046028D01*
X0132760Y0049844D01*
X0132007Y0049844D01*
X0132057Y0050030D01*
X0132057Y0050425D01*
X0131955Y0050806D01*
X0131757Y0051148D01*
X0130429Y0052476D01*
X0128319Y0050366D01*
X0127634Y0051051D01*
X0129744Y0053161D01*
X0128416Y0054490D01*
X0128073Y0054687D01*
X0127692Y0054789D01*
X0127297Y0054789D01*
X0126916Y0054687D01*
X0126573Y0054490D01*
X0125384Y0053301D01*
X0127634Y0051051D01*
X0126949Y0050366D01*
X0127634Y0049681D01*
X0125524Y0047571D01*
X0126852Y0046243D01*
X0127194Y0046045D01*
X0127575Y0045943D01*
X0127970Y0045943D01*
X0128156Y0045993D01*
X0128156Y0045240D01*
X0131972Y0041423D01*
X0132794Y0041423D01*
X0132985Y0041232D01*
X0133968Y0040825D01*
X0135346Y0040955D02*
X0214658Y0040955D01*
X0215657Y0039957D02*
X0101826Y0039957D01*
X0102498Y0038958D02*
X0133042Y0038958D01*
X0135947Y0038958D02*
X0216655Y0038958D01*
X0217654Y0037960D02*
X0136542Y0037960D01*
X0136914Y0036961D02*
X0135544Y0036961D01*
X0135915Y0035963D02*
X0134722Y0035963D01*
X0137944Y0036961D02*
X0218652Y0036961D01*
X0213660Y0041954D02*
X0136737Y0041954D01*
X0137168Y0042952D02*
X0156661Y0042952D01*
X0156313Y0043301D02*
X0156313Y0043301D01*
X0155663Y0043951D02*
X0137175Y0043951D01*
X0136795Y0044949D02*
X0154664Y0044949D01*
X0153666Y0045948D02*
X0136577Y0045948D01*
X0137472Y0046923D02*
X0138294Y0046923D01*
X0138485Y0046732D01*
X0139468Y0046325D01*
X0140532Y0046325D01*
X0141515Y0046732D01*
X0142268Y0047485D01*
X0142675Y0048468D01*
X0142675Y0049532D01*
X0142268Y0050515D01*
X0142077Y0050706D01*
X0142077Y0051528D01*
X0138260Y0055344D01*
X0137507Y0055344D01*
X0137557Y0055530D01*
X0137557Y0055925D01*
X0137455Y0056306D01*
X0137257Y0056648D01*
X0135929Y0057976D01*
X0133819Y0055866D01*
X0133134Y0056551D01*
X0135244Y0058661D01*
X0133916Y0059990D01*
X0133573Y0060187D01*
X0133192Y0060289D01*
X0132797Y0060289D01*
X0132416Y0060187D01*
X0132073Y0059990D01*
X0130884Y0058801D01*
X0133134Y0056551D01*
X0132449Y0055866D01*
X0133134Y0055181D01*
X0131024Y0053071D01*
X0132352Y0051743D01*
X0132694Y0051545D01*
X0133075Y0051443D01*
X0133470Y0051443D01*
X0133656Y0051493D01*
X0133656Y0050740D01*
X0137472Y0046923D01*
X0137449Y0046946D02*
X0135658Y0046946D01*
X0136451Y0047945D02*
X0134660Y0047945D01*
X0135452Y0048943D02*
X0133661Y0048943D01*
X0134454Y0049942D02*
X0132033Y0049942D01*
X0131877Y0050940D02*
X0133656Y0050940D01*
X0132156Y0051939D02*
X0130966Y0051939D01*
X0131157Y0052937D02*
X0129520Y0052937D01*
X0129891Y0051939D02*
X0128522Y0051939D01*
X0128893Y0050940D02*
X0127744Y0050940D01*
X0127523Y0050940D02*
X0126375Y0050940D01*
X0126949Y0050366D02*
X0124699Y0052616D01*
X0123510Y0051427D01*
X0123313Y0051084D01*
X0123211Y0050703D01*
X0123211Y0050308D01*
X0123313Y0049927D01*
X0123510Y0049584D01*
X0124839Y0048256D01*
X0126949Y0050366D01*
X0127373Y0049942D02*
X0126524Y0049942D01*
X0126896Y0048943D02*
X0125526Y0048943D01*
X0125897Y0047945D02*
X0114687Y0047945D01*
X0114687Y0048943D02*
X0124151Y0048943D01*
X0123309Y0049942D02*
X0114687Y0049942D01*
X0114687Y0050699D02*
X0111699Y0053687D01*
X0099699Y0053687D01*
X0095773Y0057613D01*
X0096468Y0057325D01*
X0097532Y0057325D01*
X0098515Y0057732D01*
X0099268Y0058485D01*
X0099675Y0059468D01*
X0099675Y0060532D01*
X0099268Y0061515D01*
X0098515Y0062268D01*
X0097532Y0062675D01*
X0096468Y0062675D01*
X0095614Y0062321D01*
X0095675Y0062468D01*
X0095675Y0063532D01*
X0095268Y0064515D01*
X0094515Y0065268D01*
X0093532Y0065675D01*
X0092468Y0065675D01*
X0091485Y0065268D01*
X0090905Y0064687D01*
X0073699Y0064687D01*
X0072594Y0065793D01*
X0072626Y0065825D01*
X0073032Y0065825D01*
X0074015Y0066232D01*
X0074768Y0066985D01*
X0075175Y0067968D01*
X0075175Y0069032D01*
X0074768Y0070015D01*
X0074015Y0070768D01*
X0073032Y0071175D01*
X0072626Y0071175D01*
X0072045Y0071756D01*
X0066648Y0071756D01*
X0066115Y0071223D01*
X0066019Y0071390D01*
X0065740Y0071669D01*
X0065398Y0071866D01*
X0065016Y0071968D01*
X0063138Y0071968D01*
X0063138Y0068984D01*
X0062169Y0068984D01*
X0062169Y0068016D01*
X0058988Y0068016D01*
X0058988Y0066687D01*
X0057699Y0066687D01*
X0056687Y0067699D01*
X0056687Y0070699D01*
X0051187Y0076199D01*
X0050199Y0077187D01*
X0040801Y0077187D01*
X0038566Y0074953D01*
X0037152Y0074953D01*
X0036398Y0074199D01*
X0036398Y0073187D01*
X0030699Y0073187D01*
X0029687Y0074199D01*
X0029687Y0075163D01*
X0029783Y0075163D01*
X0030500Y0075879D01*
X0031217Y0075163D01*
X0034783Y0075163D01*
X0035537Y0075917D01*
X0035537Y0080710D01*
X0036153Y0081325D01*
X0036374Y0081325D01*
X0036955Y0080744D01*
X0042352Y0080744D01*
X0042885Y0081277D01*
X0042981Y0081110D01*
X0043260Y0080831D01*
X0043602Y0080634D01*
X0043984Y0080531D01*
X0045862Y0080531D01*
X0045862Y0083516D01*
X0046831Y0083516D01*
X0046831Y0084484D01*
X0050012Y0084484D01*
X0050012Y0086166D01*
X0049910Y0086547D01*
X0049712Y0086890D01*
X0049433Y0087169D01*
X0049184Y0087313D01*
X0051301Y0087313D01*
X0057825Y0080788D01*
X0057825Y0079968D01*
X0058232Y0078985D01*
X0058985Y0078232D01*
X0059968Y0077825D01*
X0061032Y0077825D01*
X0062015Y0078232D01*
X0062768Y0078985D01*
X0063175Y0079968D01*
X0063175Y0081032D01*
X0062768Y0082015D01*
X0062015Y0082768D01*
X0061032Y0083175D01*
X0060212Y0083175D01*
X0052699Y0090687D01*
X0020301Y0090687D01*
X0019313Y0089699D01*
X0017301Y0087687D01*
X0016313Y0086699D01*
X0016313Y0086237D01*
X0016217Y0086237D01*
X0015463Y0085483D01*
X0015463Y0075917D01*
X0016217Y0075163D01*
X0019783Y0075163D01*
X0020500Y0075879D01*
X0021217Y0075163D01*
X0021313Y0075163D01*
X0021313Y0067301D01*
X0022301Y0066313D01*
X0022325Y0066288D01*
X0022325Y0065468D01*
X0022732Y0064485D01*
X0023485Y0063732D01*
X0024094Y0063480D01*
X0022301Y0061687D01*
X0021451Y0060837D01*
X0021217Y0060837D01*
X0020597Y0060217D01*
X0020450Y0060471D01*
X0020171Y0060750D01*
X0019829Y0060948D01*
X0019447Y0061050D01*
X0018125Y0061050D01*
X0018125Y0055425D01*
X0017875Y0055425D01*
X0017875Y0061050D01*
X0016553Y0061050D01*
X0016171Y0060948D01*
X0015829Y0060750D01*
X0015550Y0060471D01*
X0015352Y0060129D01*
X0015250Y0059747D01*
X0015250Y0055425D01*
X0017875Y0055425D01*
X0017875Y0055175D01*
X0018125Y0055175D01*
X0018125Y0049550D01*
X0019447Y0049550D01*
X0019829Y0049652D01*
X0020171Y0049850D01*
X0020450Y0050129D01*
X0020597Y0050383D01*
X0021217Y0049763D01*
X0024783Y0049763D01*
X0025500Y0050479D01*
X0026217Y0049763D01*
X0026851Y0049763D01*
X0027301Y0049313D01*
X0028094Y0048520D01*
X0027485Y0048268D01*
X0026732Y0047515D01*
X0026325Y0046532D01*
X0026325Y0045468D01*
X0026732Y0044485D01*
X0027485Y0043732D01*
X0028468Y0043325D01*
X0029532Y0043325D01*
X0030515Y0043732D01*
X0031095Y0044313D01*
X0061199Y0044313D01*
X0062187Y0045301D01*
X0070699Y0053813D01*
X0090801Y0053813D01*
X0096813Y0047801D01*
X0097801Y0046813D01*
X0106905Y0046813D01*
X0107485Y0046232D01*
X0108468Y0045825D01*
X0109532Y0045825D01*
X0110515Y0046232D01*
X0111268Y0046985D01*
X0111313Y0047094D01*
X0111313Y0046595D01*
X0110732Y0046015D01*
X0110325Y0045032D01*
X0110325Y0043968D01*
X0110732Y0042985D01*
X0111485Y0042232D01*
X0112468Y0041825D01*
X0113532Y0041825D01*
X0114515Y0042232D01*
X0115268Y0042985D01*
X0115675Y0043968D01*
X0115675Y0045032D01*
X0115268Y0046015D01*
X0114687Y0046595D01*
X0114687Y0050699D01*
X0114446Y0050940D02*
X0123274Y0050940D01*
X0124023Y0051939D02*
X0113447Y0051939D01*
X0112449Y0052937D02*
X0125747Y0052937D01*
X0126020Y0053936D02*
X0099450Y0053936D01*
X0098452Y0054934D02*
X0129160Y0054934D01*
X0129010Y0055084D02*
X0130339Y0053756D01*
X0132449Y0055866D01*
X0130199Y0058116D01*
X0129010Y0056927D01*
X0128813Y0056584D01*
X0128711Y0056203D01*
X0128711Y0055808D01*
X0128813Y0055427D01*
X0129010Y0055084D01*
X0128711Y0055933D02*
X0097453Y0055933D01*
X0096455Y0056932D02*
X0103286Y0056932D01*
X0102548Y0057930D02*
X0098713Y0057930D01*
X0099451Y0058929D02*
X0102325Y0058929D01*
X0102489Y0059927D02*
X0099675Y0059927D01*
X0099512Y0060926D02*
X0103143Y0060926D01*
X0102690Y0061924D02*
X0098859Y0061924D01*
X0100693Y0063921D02*
X0095514Y0063921D01*
X0095675Y0062923D02*
X0101691Y0062923D01*
X0099694Y0064920D02*
X0094863Y0064920D01*
X0091137Y0064920D02*
X0073467Y0064920D01*
X0073256Y0065918D02*
X0098696Y0065918D01*
X0097697Y0066917D02*
X0074699Y0066917D01*
X0075153Y0067915D02*
X0096699Y0067915D01*
X0095700Y0068914D02*
X0075175Y0068914D01*
X0074810Y0069912D02*
X0081201Y0069912D01*
X0080203Y0070911D02*
X0073670Y0070911D01*
X0072500Y0068500D02*
X0069346Y0068500D01*
X0065238Y0071909D02*
X0079204Y0071909D01*
X0078206Y0072908D02*
X0054479Y0072908D01*
X0055477Y0071909D02*
X0060069Y0071909D01*
X0059909Y0071866D02*
X0059567Y0071669D01*
X0059288Y0071390D01*
X0059090Y0071047D01*
X0058988Y0070666D01*
X0058988Y0068984D01*
X0062169Y0068984D01*
X0062169Y0071968D01*
X0060291Y0071968D01*
X0059909Y0071866D01*
X0059054Y0070911D02*
X0056476Y0070911D01*
X0056687Y0069912D02*
X0058988Y0069912D01*
X0058988Y0067915D02*
X0056687Y0067915D01*
X0056687Y0068914D02*
X0062169Y0068914D01*
X0062169Y0069912D02*
X0063138Y0069912D01*
X0063138Y0070911D02*
X0062169Y0070911D01*
X0062169Y0071909D02*
X0063138Y0071909D01*
X0061213Y0077900D02*
X0073213Y0077900D01*
X0072215Y0078899D02*
X0062682Y0078899D01*
X0063146Y0079897D02*
X0071216Y0079897D01*
X0070218Y0080896D02*
X0063175Y0080896D01*
X0062818Y0081894D02*
X0069219Y0081894D01*
X0068221Y0082893D02*
X0061713Y0082893D01*
X0059495Y0083891D02*
X0067222Y0083891D01*
X0066224Y0084890D02*
X0058496Y0084890D01*
X0057498Y0085888D02*
X0065225Y0085888D01*
X0064227Y0086887D02*
X0056499Y0086887D01*
X0055501Y0087885D02*
X0063228Y0087885D01*
X0062230Y0088884D02*
X0054502Y0088884D01*
X0053504Y0089882D02*
X0061231Y0089882D01*
X0060233Y0090881D02*
X0005787Y0090881D01*
X0005787Y0091879D02*
X0059234Y0091879D01*
X0058236Y0092878D02*
X0005787Y0092878D01*
X0005787Y0093876D02*
X0057237Y0093876D01*
X0056239Y0094875D02*
X0005787Y0094875D01*
X0005787Y0095873D02*
X0055240Y0095873D01*
X0054242Y0096872D02*
X0005787Y0096872D01*
X0005787Y0097870D02*
X0053243Y0097870D01*
X0052245Y0098869D02*
X0044652Y0098869D01*
X0041348Y0098869D02*
X0005787Y0098869D01*
X0005787Y0099868D02*
X0040574Y0099868D01*
X0040325Y0100866D02*
X0005787Y0100866D01*
X0005787Y0101865D02*
X0040463Y0101865D01*
X0034255Y0105859D02*
X0032528Y0105859D01*
X0033257Y0106857D02*
X0031529Y0106857D01*
X0032258Y0107856D02*
X0030531Y0107856D01*
X0031260Y0108854D02*
X0029532Y0108854D01*
X0029175Y0109853D02*
X0030261Y0109853D01*
X0029263Y0110851D02*
X0028836Y0110851D01*
X0028264Y0111850D02*
X0027817Y0111850D01*
X0027265Y0112848D02*
X0005787Y0112848D01*
X0005787Y0111850D02*
X0025183Y0111850D01*
X0024164Y0110851D02*
X0005787Y0110851D01*
X0005787Y0109853D02*
X0023825Y0109853D01*
X0023872Y0108854D02*
X0005787Y0108854D01*
X0005787Y0107856D02*
X0024362Y0107856D01*
X0025891Y0106857D02*
X0005787Y0106857D01*
X0005787Y0105859D02*
X0027755Y0105859D01*
X0028754Y0104860D02*
X0005787Y0104860D01*
X0005787Y0103862D02*
X0029752Y0103862D01*
X0030751Y0102863D02*
X0005787Y0102863D01*
X0005787Y0113847D02*
X0024871Y0113847D01*
X0024083Y0114845D02*
X0005787Y0114845D01*
X0005787Y0115844D02*
X0023825Y0115844D01*
X0023954Y0116842D02*
X0005787Y0116842D01*
X0005787Y0117841D02*
X0024558Y0117841D01*
X0028442Y0117841D02*
X0041113Y0117841D01*
X0041113Y0118839D02*
X0005787Y0118839D01*
X0005787Y0119838D02*
X0041113Y0119838D01*
X0041113Y0120836D02*
X0005787Y0120836D01*
X0005787Y0121835D02*
X0041113Y0121835D01*
X0041113Y0122833D02*
X0005787Y0122833D01*
X0005787Y0123832D02*
X0041113Y0123832D01*
X0041113Y0124830D02*
X0005787Y0124830D01*
X0005787Y0125829D02*
X0041113Y0125829D01*
X0041113Y0126827D02*
X0005787Y0126827D01*
X0005787Y0127826D02*
X0041113Y0127826D01*
X0041113Y0128824D02*
X0005787Y0128824D01*
X0005787Y0129823D02*
X0041113Y0129823D01*
X0041113Y0130821D02*
X0005787Y0130821D01*
X0005787Y0131820D02*
X0035327Y0131820D01*
X0035280Y0131847D02*
X0035622Y0131649D01*
X0036003Y0131547D01*
X0038260Y0131547D01*
X0038260Y0135500D01*
X0034701Y0135500D01*
X0034701Y0132850D01*
X0034803Y0132468D01*
X0035000Y0132126D01*
X0035280Y0131847D01*
X0034709Y0132818D02*
X0005787Y0132818D01*
X0005787Y0133817D02*
X0034701Y0133817D01*
X0034701Y0134815D02*
X0005787Y0134815D01*
X0005787Y0135814D02*
X0038260Y0135814D01*
X0038260Y0136812D02*
X0039260Y0136812D01*
X0039260Y0137811D02*
X0038260Y0137811D01*
X0038260Y0138809D02*
X0039260Y0138809D01*
X0039260Y0139808D02*
X0038260Y0139808D01*
X0041113Y0140806D02*
X0005787Y0140806D01*
X0005787Y0139808D02*
X0034963Y0139808D01*
X0034701Y0138809D02*
X0005787Y0138809D01*
X0005787Y0137811D02*
X0034701Y0137811D01*
X0034701Y0136812D02*
X0005787Y0136812D01*
X0005787Y0141805D02*
X0041113Y0141805D01*
X0041113Y0142803D02*
X0005787Y0142803D01*
X0005787Y0143802D02*
X0041113Y0143802D01*
X0041113Y0144801D02*
X0005787Y0144801D01*
X0005787Y0145799D02*
X0041113Y0145799D01*
X0041113Y0146798D02*
X0006118Y0146798D01*
X0007117Y0147796D02*
X0041113Y0147796D01*
X0041113Y0148795D02*
X0008115Y0148795D01*
X0009114Y0149793D02*
X0041113Y0149793D01*
X0041113Y0150792D02*
X0010112Y0150792D01*
X0011111Y0151790D02*
X0041113Y0151790D01*
X0041113Y0152789D02*
X0012109Y0152789D01*
X0013108Y0153787D02*
X0041113Y0153787D01*
X0041113Y0154786D02*
X0014106Y0154786D01*
X0015105Y0155784D02*
X0041113Y0155784D01*
X0041113Y0156783D02*
X0016103Y0156783D01*
X0017102Y0157781D02*
X0041113Y0157781D01*
X0054387Y0155784D02*
X0090424Y0155784D01*
X0090128Y0154786D02*
X0054387Y0154786D01*
X0054387Y0153787D02*
X0090187Y0153787D01*
X0090650Y0152789D02*
X0054387Y0152789D01*
X0054387Y0151790D02*
X0092038Y0151790D01*
X0100813Y0153787D02*
X0105942Y0153787D01*
X0106447Y0149793D02*
X0106522Y0149793D01*
X0106818Y0148795D02*
X0105448Y0148795D01*
X0106296Y0145799D02*
X0100106Y0145799D01*
X0098510Y0141805D02*
X0098388Y0141805D01*
X0098759Y0140806D02*
X0097389Y0140806D01*
X0097760Y0139808D02*
X0096390Y0139808D01*
X0096287Y0139808D02*
X0095097Y0139808D01*
X0095288Y0140806D02*
X0057863Y0140806D01*
X0058861Y0139808D02*
X0091892Y0139808D01*
X0091875Y0138809D02*
X0059860Y0138809D01*
X0059887Y0137811D02*
X0089895Y0137811D01*
X0089240Y0136812D02*
X0059887Y0136812D01*
X0059887Y0135814D02*
X0089378Y0135814D01*
X0089090Y0134815D02*
X0090279Y0134815D01*
X0090088Y0133817D02*
X0091769Y0133817D01*
X0091398Y0134815D02*
X0092768Y0134815D01*
X0092396Y0135814D02*
X0093501Y0135814D01*
X0093395Y0136812D02*
X0092503Y0136812D01*
X0092874Y0137811D02*
X0091504Y0137811D01*
X0093873Y0136812D02*
X0094765Y0136812D01*
X0094393Y0137811D02*
X0095763Y0137811D01*
X0095392Y0138809D02*
X0097285Y0138809D01*
X0097094Y0137811D02*
X0098284Y0137811D01*
X0097951Y0136812D02*
X0099656Y0136812D01*
X0098791Y0135814D02*
X0100582Y0135814D01*
X0099789Y0134815D02*
X0101580Y0134815D01*
X0100788Y0133817D02*
X0102579Y0133817D01*
X0101786Y0132818D02*
X0103825Y0132818D01*
X0103887Y0131820D02*
X0102577Y0131820D01*
X0102848Y0130821D02*
X0104396Y0130821D01*
X0094711Y0141805D02*
X0056864Y0141805D01*
X0055866Y0142803D02*
X0094939Y0142803D01*
X0086899Y0134815D02*
X0059887Y0134815D01*
X0059887Y0133817D02*
X0085901Y0133817D01*
X0079772Y0122833D02*
X0059887Y0122833D01*
X0059887Y0121835D02*
X0078945Y0121835D01*
X0078628Y0120836D02*
X0059887Y0120836D01*
X0059887Y0119838D02*
X0078666Y0119838D01*
X0079100Y0118839D02*
X0078046Y0118839D01*
X0071500Y0118839D02*
X0070500Y0118839D01*
X0070500Y0117841D02*
X0071500Y0117841D01*
X0071500Y0116842D02*
X0070500Y0116842D01*
X0070500Y0115844D02*
X0071500Y0115844D01*
X0071500Y0114845D02*
X0070500Y0114845D01*
X0070500Y0113847D02*
X0071500Y0113847D01*
X0071500Y0112848D02*
X0070500Y0112848D01*
X0070500Y0111850D02*
X0071500Y0111850D01*
X0071500Y0110851D02*
X0070500Y0110851D01*
X0070500Y0109853D02*
X0071500Y0109853D01*
X0071500Y0108854D02*
X0113913Y0108854D01*
X0118087Y0113847D02*
X0125237Y0113847D01*
X0124530Y0114845D02*
X0118087Y0114845D01*
X0127752Y0113847D02*
X0140371Y0113847D01*
X0144366Y0109866D02*
X0146000Y0111500D01*
X0146500Y0112000D01*
X0148919Y0110851D02*
X0257213Y0110851D01*
X0257213Y0109853D02*
X0148577Y0109853D01*
X0147959Y0108854D02*
X0257213Y0108854D01*
X0257213Y0107856D02*
X0146960Y0107856D01*
X0145962Y0106857D02*
X0257213Y0106857D01*
X0257213Y0105859D02*
X0200027Y0105859D01*
X0200405Y0104860D02*
X0257213Y0104860D01*
X0257213Y0103862D02*
X0200405Y0103862D01*
X0221736Y0096872D02*
X0224264Y0096872D01*
X0223744Y0097870D02*
X0222453Y0097870D01*
X0222453Y0095873D02*
X0223744Y0095873D01*
X0223744Y0094875D02*
X0222453Y0094875D01*
X0222453Y0093876D02*
X0223744Y0093876D01*
X0223744Y0092878D02*
X0222453Y0092878D01*
X0222453Y0091879D02*
X0223744Y0091879D01*
X0223818Y0090881D02*
X0222182Y0090881D01*
X0223062Y0079897D02*
X0220404Y0079897D01*
X0220799Y0078899D02*
X0223818Y0078899D01*
X0214289Y0079897D02*
X0214011Y0079897D01*
X0211138Y0079897D02*
X0210169Y0079897D01*
X0210169Y0078899D02*
X0211138Y0078899D01*
X0211138Y0077900D02*
X0210169Y0077900D01*
X0207308Y0071909D02*
X0159695Y0071909D01*
X0160694Y0070911D02*
X0206988Y0070911D01*
X0206988Y0069912D02*
X0161077Y0069912D01*
X0159000Y0068000D02*
X0156866Y0070134D01*
X0151858Y0073906D02*
X0150489Y0073906D01*
X0150860Y0072908D02*
X0149490Y0072908D01*
X0149187Y0072908D02*
X0102479Y0072908D01*
X0103477Y0071909D02*
X0143993Y0071909D01*
X0146996Y0071909D02*
X0150186Y0071909D01*
X0148189Y0073906D02*
X0101480Y0073906D01*
X0100482Y0074905D02*
X0147711Y0074905D01*
X0147997Y0075903D02*
X0099483Y0075903D01*
X0091309Y0083891D02*
X0090794Y0083891D01*
X0090938Y0084890D02*
X0092307Y0084890D01*
X0094033Y0087885D02*
X0095403Y0087885D01*
X0095032Y0088884D02*
X0096401Y0088884D01*
X0096531Y0088884D02*
X0097901Y0088884D01*
X0097151Y0089634D02*
X0099401Y0087384D01*
X0100590Y0088573D01*
X0100787Y0088916D01*
X0100889Y0089297D01*
X0100889Y0089692D01*
X0100787Y0090073D01*
X0100590Y0090416D01*
X0099261Y0091744D01*
X0097151Y0089634D01*
X0096903Y0089882D02*
X0097400Y0089882D01*
X0097029Y0090881D02*
X0098398Y0090881D01*
X0098027Y0091879D02*
X0106427Y0091879D01*
X0105429Y0090881D02*
X0100124Y0090881D01*
X0100838Y0089882D02*
X0104430Y0089882D01*
X0103432Y0088884D02*
X0100769Y0088884D01*
X0099902Y0087885D02*
X0102433Y0087885D01*
X0101435Y0086887D02*
X0098528Y0086887D01*
X0098899Y0087885D02*
X0097530Y0087885D01*
X0097905Y0085888D02*
X0100436Y0085888D01*
X0102217Y0092878D02*
X0098127Y0092878D01*
X0104794Y0092878D02*
X0107426Y0092878D01*
X0108424Y0093876D02*
X0105439Y0093876D01*
X0096526Y0098869D02*
X0077701Y0098869D01*
X0078385Y0099868D02*
X0095528Y0099868D01*
X0094529Y0100866D02*
X0078405Y0100866D01*
X0078405Y0101865D02*
X0094353Y0101865D01*
X0093869Y0102863D02*
X0078405Y0102863D01*
X0078405Y0103862D02*
X0093825Y0103862D01*
X0094168Y0104860D02*
X0078405Y0104860D01*
X0071500Y0104860D02*
X0070500Y0104860D01*
X0070500Y0103862D02*
X0071500Y0103862D01*
X0071500Y0102863D02*
X0070500Y0102863D01*
X0070500Y0101865D02*
X0071500Y0101865D01*
X0071500Y0100866D02*
X0070500Y0100866D01*
X0070500Y0099868D02*
X0071500Y0099868D01*
X0071500Y0098869D02*
X0070500Y0098869D01*
X0070500Y0098642D02*
X0070500Y0108500D01*
X0063594Y0108500D01*
X0063594Y0099944D01*
X0063697Y0099563D01*
X0063894Y0099221D01*
X0064173Y0098941D01*
X0064516Y0098744D01*
X0064897Y0098642D01*
X0070500Y0098642D01*
X0064299Y0098869D02*
X0063017Y0098869D01*
X0063615Y0099868D02*
X0062019Y0099868D01*
X0061020Y0100866D02*
X0063594Y0100866D01*
X0063594Y0101865D02*
X0060022Y0101865D01*
X0059023Y0102863D02*
X0063594Y0102863D01*
X0063594Y0103862D02*
X0058025Y0103862D01*
X0057026Y0104860D02*
X0063594Y0104860D01*
X0063594Y0105859D02*
X0056028Y0105859D01*
X0055029Y0106857D02*
X0063594Y0106857D01*
X0063594Y0107856D02*
X0037031Y0107856D01*
X0036032Y0108854D02*
X0070500Y0108854D01*
X0070500Y0107856D02*
X0071500Y0107856D01*
X0071500Y0106857D02*
X0070500Y0106857D01*
X0070500Y0105859D02*
X0071500Y0105859D01*
X0063594Y0109853D02*
X0035034Y0109853D01*
X0034035Y0110851D02*
X0063594Y0110851D01*
X0063594Y0111850D02*
X0033037Y0111850D01*
X0032038Y0112848D02*
X0063594Y0112848D01*
X0063594Y0113847D02*
X0031040Y0113847D01*
X0030041Y0114845D02*
X0063594Y0114845D01*
X0063594Y0115844D02*
X0029175Y0115844D01*
X0029046Y0116842D02*
X0041989Y0116842D01*
X0059011Y0116842D02*
X0063594Y0116842D01*
X0063594Y0117841D02*
X0059887Y0117841D01*
X0059887Y0118839D02*
X0063954Y0118839D01*
X0039260Y0131820D02*
X0038260Y0131820D01*
X0038260Y0132818D02*
X0039260Y0132818D01*
X0039260Y0133817D02*
X0038260Y0133817D01*
X0038260Y0134815D02*
X0039260Y0134815D01*
X0096500Y0103500D02*
X0098634Y0101366D01*
X0085634Y0088366D02*
X0083500Y0090500D01*
X0080825Y0090881D02*
X0071005Y0090881D01*
X0070007Y0091879D02*
X0081176Y0091879D01*
X0080861Y0089882D02*
X0072004Y0089882D01*
X0073002Y0088884D02*
X0081333Y0088884D01*
X0081510Y0087885D02*
X0074001Y0087885D01*
X0074999Y0086887D02*
X0082509Y0086887D01*
X0083507Y0085888D02*
X0075998Y0085888D01*
X0076996Y0084890D02*
X0084506Y0084890D01*
X0085943Y0083891D02*
X0077995Y0083891D01*
X0078994Y0082893D02*
X0086219Y0082893D01*
X0076209Y0074905D02*
X0052482Y0074905D01*
X0053480Y0073906D02*
X0077207Y0073906D01*
X0075210Y0075903D02*
X0051483Y0075903D01*
X0050485Y0076902D02*
X0074212Y0076902D01*
X0059787Y0077900D02*
X0035537Y0077900D01*
X0035537Y0076902D02*
X0040515Y0076902D01*
X0039517Y0075903D02*
X0035524Y0075903D01*
X0037104Y0074905D02*
X0029687Y0074905D01*
X0029980Y0073906D02*
X0036398Y0073906D01*
X0035537Y0078899D02*
X0058318Y0078899D01*
X0057854Y0079897D02*
X0035537Y0079897D01*
X0035724Y0080896D02*
X0036803Y0080896D01*
X0036300Y0084000D02*
X0033000Y0080700D01*
X0033000Y0082100D01*
X0034900Y0084000D01*
X0036500Y0084000D01*
X0036300Y0084000D01*
X0036500Y0084000D02*
X0039654Y0084000D01*
X0034900Y0084000D02*
X0033000Y0084000D01*
X0033000Y0080700D01*
X0042504Y0080896D02*
X0043195Y0080896D01*
X0045862Y0080896D02*
X0046831Y0080896D01*
X0046831Y0080531D02*
X0048709Y0080531D01*
X0049091Y0080634D01*
X0049433Y0080831D01*
X0049712Y0081110D01*
X0049910Y0081453D01*
X0050012Y0081834D01*
X0050012Y0083516D01*
X0046831Y0083516D01*
X0046831Y0080531D01*
X0046831Y0081894D02*
X0045862Y0081894D01*
X0045862Y0082893D02*
X0046831Y0082893D01*
X0046831Y0083891D02*
X0054722Y0083891D01*
X0055721Y0082893D02*
X0050012Y0082893D01*
X0050012Y0081894D02*
X0056719Y0081894D01*
X0057718Y0080896D02*
X0049497Y0080896D01*
X0050012Y0084890D02*
X0053724Y0084890D01*
X0052725Y0085888D02*
X0050012Y0085888D01*
X0049714Y0086887D02*
X0051727Y0086887D01*
X0021313Y0074905D02*
X0005787Y0074905D01*
X0005787Y0075903D02*
X0015476Y0075903D01*
X0015463Y0076902D02*
X0005787Y0076902D01*
X0005787Y0077900D02*
X0015463Y0077900D01*
X0015463Y0078899D02*
X0005787Y0078899D01*
X0005787Y0079897D02*
X0015463Y0079897D01*
X0015463Y0080896D02*
X0005787Y0080896D01*
X0005787Y0081894D02*
X0015463Y0081894D01*
X0015463Y0082893D02*
X0005787Y0082893D01*
X0005787Y0083891D02*
X0015463Y0083891D01*
X0015463Y0084890D02*
X0005787Y0084890D01*
X0005787Y0085888D02*
X0015868Y0085888D01*
X0016501Y0086887D02*
X0005787Y0086887D01*
X0005787Y0087885D02*
X0017499Y0087885D01*
X0018498Y0088884D02*
X0005787Y0088884D01*
X0005787Y0089882D02*
X0019496Y0089882D01*
X0021313Y0073906D02*
X0005787Y0073906D01*
X0005787Y0072908D02*
X0021313Y0072908D01*
X0021313Y0071909D02*
X0005787Y0071909D01*
X0005787Y0070911D02*
X0021313Y0070911D01*
X0021313Y0069912D02*
X0005787Y0069912D01*
X0005787Y0068914D02*
X0021313Y0068914D01*
X0021313Y0067915D02*
X0005787Y0067915D01*
X0005787Y0066917D02*
X0021697Y0066917D01*
X0022301Y0066313D02*
X0022301Y0066313D01*
X0022325Y0065918D02*
X0005787Y0065918D01*
X0005787Y0064920D02*
X0022552Y0064920D01*
X0023296Y0063921D02*
X0005787Y0063921D01*
X0005787Y0062923D02*
X0023536Y0062923D01*
X0022538Y0061924D02*
X0005787Y0061924D01*
X0005787Y0060926D02*
X0016133Y0060926D01*
X0015298Y0059927D02*
X0005787Y0059927D01*
X0005787Y0058929D02*
X0015250Y0058929D01*
X0015250Y0057930D02*
X0005787Y0057930D01*
X0005787Y0056932D02*
X0015250Y0056932D01*
X0015250Y0055933D02*
X0005787Y0055933D01*
X0005787Y0054934D02*
X0015250Y0054934D01*
X0015250Y0055175D02*
X0015250Y0050853D01*
X0015352Y0050471D01*
X0015550Y0050129D01*
X0015829Y0049850D01*
X0016171Y0049652D01*
X0016553Y0049550D01*
X0017875Y0049550D01*
X0017875Y0055175D01*
X0015250Y0055175D01*
X0015250Y0053936D02*
X0005787Y0053936D01*
X0005787Y0052937D02*
X0015250Y0052937D01*
X0015250Y0051939D02*
X0005787Y0051939D01*
X0005787Y0050940D02*
X0015250Y0050940D01*
X0015737Y0049942D02*
X0005787Y0049942D01*
X0005787Y0048943D02*
X0027670Y0048943D01*
X0027162Y0047945D02*
X0005787Y0047945D01*
X0005787Y0046946D02*
X0026497Y0046946D01*
X0026325Y0045948D02*
X0005787Y0045948D01*
X0005787Y0044949D02*
X0026540Y0044949D01*
X0027266Y0043951D02*
X0005787Y0043951D01*
X0005787Y0042952D02*
X0077280Y0042952D01*
X0077303Y0041954D02*
X0005787Y0041954D01*
X0008654Y0039154D02*
X0011000Y0041500D01*
X0011000Y0046000D01*
X0017875Y0049942D02*
X0018125Y0049942D01*
X0018125Y0050940D02*
X0017875Y0050940D01*
X0017875Y0051939D02*
X0018125Y0051939D01*
X0018125Y0052937D02*
X0017875Y0052937D01*
X0017875Y0053936D02*
X0018125Y0053936D01*
X0018125Y0054934D02*
X0017875Y0054934D01*
X0017875Y0055933D02*
X0018125Y0055933D01*
X0018125Y0056932D02*
X0017875Y0056932D01*
X0017875Y0057930D02*
X0018125Y0057930D01*
X0018125Y0058929D02*
X0017875Y0058929D01*
X0017875Y0059927D02*
X0018125Y0059927D01*
X0018125Y0060926D02*
X0017875Y0060926D01*
X0019867Y0060926D02*
X0021539Y0060926D01*
X0021037Y0049942D02*
X0020263Y0049942D01*
X0024963Y0049942D02*
X0026037Y0049942D01*
X0030734Y0043951D02*
X0078046Y0043951D01*
X0079632Y0043951D02*
X0081001Y0043951D01*
X0081267Y0042952D02*
X0080630Y0042952D01*
X0080003Y0044949D02*
X0061836Y0044949D01*
X0062834Y0045948D02*
X0080043Y0045948D01*
X0081180Y0046946D02*
X0063833Y0046946D01*
X0064831Y0047945D02*
X0082340Y0047945D01*
X0083339Y0048943D02*
X0065830Y0048943D01*
X0066828Y0049942D02*
X0084337Y0049942D01*
X0085336Y0050940D02*
X0067827Y0050940D01*
X0068825Y0051939D02*
X0087399Y0051939D01*
X0089601Y0051939D02*
X0092675Y0051939D01*
X0093673Y0050940D02*
X0090799Y0050940D01*
X0091175Y0049942D02*
X0094672Y0049942D01*
X0095670Y0048943D02*
X0091165Y0048943D01*
X0090728Y0047945D02*
X0096669Y0047945D01*
X0097667Y0046946D02*
X0090551Y0046946D01*
X0089552Y0045948D02*
X0108172Y0045948D01*
X0109828Y0045948D02*
X0110705Y0045948D01*
X0110325Y0044949D02*
X0088554Y0044949D01*
X0087555Y0043951D02*
X0110332Y0043951D01*
X0110765Y0042952D02*
X0086057Y0042952D01*
X0085816Y0041954D02*
X0112157Y0041954D01*
X0113843Y0041954D02*
X0131442Y0041954D01*
X0130443Y0042952D02*
X0115235Y0042952D01*
X0115668Y0043951D02*
X0129445Y0043951D01*
X0128446Y0044949D02*
X0115675Y0044949D01*
X0115295Y0045948D02*
X0127558Y0045948D01*
X0127988Y0045948D02*
X0128156Y0045948D01*
X0126148Y0046946D02*
X0114687Y0046946D01*
X0111313Y0046946D02*
X0111229Y0046946D01*
X0100000Y0038000D02*
X0097866Y0035866D01*
X0095355Y0037960D02*
X0067071Y0037960D01*
X0067342Y0037822D02*
X0066715Y0038141D01*
X0066046Y0038358D01*
X0065484Y0038447D01*
X0065484Y0034484D01*
X0069447Y0034484D01*
X0069358Y0035046D01*
X0069141Y0035715D01*
X0068822Y0036342D01*
X0068408Y0036911D01*
X0067911Y0037408D01*
X0067342Y0037822D01*
X0068358Y0036961D02*
X0094357Y0036961D01*
X0093656Y0035963D02*
X0079320Y0035963D01*
X0079996Y0034964D02*
X0092059Y0034964D01*
X0091061Y0033966D02*
X0080175Y0033966D01*
X0079967Y0032967D02*
X0090062Y0032967D01*
X0090615Y0032967D02*
X0091985Y0032967D01*
X0091614Y0031969D02*
X0092983Y0031969D01*
X0092612Y0030970D02*
X0092285Y0030970D01*
X0092657Y0029972D02*
X0091287Y0029972D01*
X0091658Y0028973D02*
X0090288Y0028973D01*
X0090111Y0028973D02*
X0074860Y0028973D01*
X0075858Y0029972D02*
X0089112Y0029972D01*
X0088711Y0030970D02*
X0076857Y0030970D01*
X0079251Y0031969D02*
X0089064Y0031969D01*
X0091109Y0027975D02*
X0073861Y0027975D01*
X0072084Y0030970D02*
X0068290Y0030970D01*
X0068980Y0031969D02*
X0073082Y0031969D01*
X0074081Y0032967D02*
X0069361Y0032967D01*
X0069371Y0034964D02*
X0075004Y0034964D01*
X0074825Y0033966D02*
X0065484Y0033966D01*
X0064516Y0033966D02*
X0059256Y0033966D01*
X0059207Y0034964D02*
X0060629Y0034964D01*
X0060642Y0035046D02*
X0060552Y0034484D01*
X0064516Y0034484D01*
X0064516Y0038447D01*
X0063954Y0038358D01*
X0063285Y0038141D01*
X0062658Y0037822D01*
X0062089Y0037408D01*
X0061592Y0036911D01*
X0061178Y0036342D01*
X0060859Y0035715D01*
X0060642Y0035046D01*
X0060985Y0035963D02*
X0058794Y0035963D01*
X0058057Y0036961D02*
X0061642Y0036961D01*
X0062929Y0037960D02*
X0056561Y0037960D01*
X0053439Y0037960D02*
X0046561Y0037960D01*
X0048057Y0036961D02*
X0051943Y0036961D01*
X0051206Y0035963D02*
X0048794Y0035963D01*
X0049207Y0034964D02*
X0050793Y0034964D01*
X0050744Y0033966D02*
X0049256Y0033966D01*
X0049179Y0032967D02*
X0050821Y0032967D01*
X0051235Y0031969D02*
X0048765Y0031969D01*
X0047989Y0030970D02*
X0052011Y0030970D01*
X0048585Y0029972D02*
X0046396Y0029972D01*
X0046525Y0027975D02*
X0046588Y0027975D01*
X0042011Y0030970D02*
X0037989Y0030970D01*
X0038765Y0031969D02*
X0041235Y0031969D01*
X0040821Y0032967D02*
X0039179Y0032967D01*
X0039256Y0033966D02*
X0040744Y0033966D01*
X0040793Y0034964D02*
X0039207Y0034964D01*
X0038794Y0035963D02*
X0041206Y0035963D01*
X0041943Y0036961D02*
X0038057Y0036961D01*
X0036561Y0037960D02*
X0043439Y0037960D01*
X0033439Y0037960D02*
X0027071Y0037960D01*
X0028358Y0036961D02*
X0031943Y0036961D01*
X0031206Y0035963D02*
X0029015Y0035963D01*
X0029371Y0034964D02*
X0030793Y0034964D01*
X0021642Y0036961D02*
X0018340Y0036961D01*
X0018602Y0035963D02*
X0020985Y0035963D01*
X0012353Y0036961D02*
X0011895Y0036961D01*
X0009138Y0036961D02*
X0008169Y0036961D01*
X0008169Y0035963D02*
X0009138Y0035963D01*
X0009138Y0034964D02*
X0008169Y0034964D01*
X0008654Y0034000D02*
X0008654Y0039154D01*
X0008169Y0032967D02*
X0009138Y0032967D01*
X0009138Y0031969D02*
X0008169Y0031969D01*
X0008169Y0030970D02*
X0009138Y0030970D01*
X0011855Y0030970D02*
X0012422Y0030970D01*
X0014142Y0029972D02*
X0005787Y0029972D01*
X0011909Y0022982D02*
X0012091Y0022982D01*
X0012091Y0021984D02*
X0011909Y0021984D01*
X0011593Y0020985D02*
X0012407Y0020985D01*
X0011041Y0019987D02*
X0014627Y0019987D01*
X0015626Y0018988D02*
X0012040Y0018988D01*
X0013038Y0017990D02*
X0016624Y0017990D01*
X0017623Y0016991D02*
X0014037Y0016991D01*
X0010978Y0014994D02*
X0007327Y0014994D01*
X0008325Y0013996D02*
X0011977Y0013996D01*
X0009980Y0015993D02*
X0006328Y0015993D01*
X0005787Y0016991D02*
X0008981Y0016991D01*
X0007983Y0017990D02*
X0005787Y0017990D01*
X0005787Y0018988D02*
X0006984Y0018988D01*
X0006713Y0019987D02*
X0005787Y0019987D01*
X0007760Y0018213D02*
X0007760Y0018213D01*
X0009324Y0012997D02*
X0253676Y0012997D01*
X0254675Y0013996D02*
X0106890Y0013996D01*
X0107899Y0014994D02*
X0191233Y0014994D01*
X0212667Y0014994D02*
X0255673Y0014994D01*
X0256672Y0015993D02*
X0212700Y0015993D01*
X0212700Y0016991D02*
X0257213Y0016991D01*
X0257213Y0017990D02*
X0229772Y0017990D01*
X0230476Y0018988D02*
X0257213Y0018988D01*
X0257213Y0019987D02*
X0230675Y0019987D01*
X0230487Y0020985D02*
X0257213Y0020985D01*
X0257213Y0021984D02*
X0229799Y0021984D01*
X0229687Y0022982D02*
X0257213Y0022982D01*
X0257213Y0023981D02*
X0229687Y0023981D01*
X0229687Y0024979D02*
X0232096Y0024979D01*
X0230740Y0025978D02*
X0229687Y0025978D01*
X0229687Y0026976D02*
X0230325Y0026976D01*
X0230325Y0027975D02*
X0229687Y0027975D01*
X0232416Y0030970D02*
X0257213Y0030970D01*
X0257213Y0029972D02*
X0234022Y0029972D01*
X0235285Y0028973D02*
X0257213Y0028973D01*
X0257213Y0027975D02*
X0235675Y0027975D01*
X0235675Y0026976D02*
X0257213Y0026976D01*
X0257213Y0025978D02*
X0235260Y0025978D01*
X0233904Y0024979D02*
X0257213Y0024979D01*
X0250972Y0032967D02*
X0247028Y0032967D01*
X0247680Y0033966D02*
X0250320Y0033966D01*
X0250128Y0034964D02*
X0247872Y0034964D01*
X0247709Y0035963D02*
X0250291Y0035963D01*
X0250900Y0036961D02*
X0247100Y0036961D01*
X0251373Y0040566D02*
X0252429Y0040128D01*
X0253571Y0040128D01*
X0254627Y0040566D01*
X0255434Y0041373D01*
X0255872Y0042429D01*
X0255872Y0043571D01*
X0255434Y0044627D01*
X0254627Y0045434D01*
X0253571Y0045872D01*
X0252429Y0045872D01*
X0251373Y0045434D01*
X0250566Y0044627D01*
X0250128Y0043571D01*
X0250128Y0042429D01*
X0250566Y0041373D01*
X0251373Y0040566D01*
X0250984Y0040955D02*
X0247016Y0040955D01*
X0247675Y0041954D02*
X0250325Y0041954D01*
X0250128Y0042952D02*
X0247872Y0042952D01*
X0247714Y0043951D02*
X0250286Y0043951D01*
X0250888Y0044949D02*
X0247112Y0044949D01*
X0255112Y0044949D02*
X0257213Y0044949D01*
X0257213Y0043951D02*
X0255714Y0043951D01*
X0255872Y0042952D02*
X0257213Y0042952D01*
X0257213Y0041954D02*
X0255675Y0041954D01*
X0255016Y0040955D02*
X0257213Y0040955D01*
X0225513Y0020985D02*
X0212688Y0020985D01*
X0212700Y0019987D02*
X0225325Y0019987D01*
X0225524Y0018988D02*
X0212700Y0018988D01*
X0212700Y0017990D02*
X0226228Y0017990D01*
X0152667Y0046946D02*
X0141729Y0046946D01*
X0142458Y0047945D02*
X0151669Y0047945D01*
X0150670Y0048943D02*
X0142675Y0048943D01*
X0142505Y0049942D02*
X0149672Y0049942D01*
X0148673Y0050940D02*
X0142077Y0050940D01*
X0141666Y0051939D02*
X0147675Y0051939D01*
X0146676Y0052937D02*
X0140667Y0052937D01*
X0139669Y0053936D02*
X0145678Y0053936D01*
X0144679Y0054934D02*
X0138670Y0054934D01*
X0137555Y0055933D02*
X0143681Y0055933D01*
X0142682Y0056932D02*
X0136974Y0056932D01*
X0135975Y0057930D02*
X0141684Y0057930D01*
X0140685Y0058929D02*
X0134977Y0058929D01*
X0134513Y0057930D02*
X0135882Y0057930D01*
X0134884Y0056932D02*
X0133514Y0056932D01*
X0132753Y0056932D02*
X0131384Y0056932D01*
X0131755Y0057930D02*
X0130385Y0057930D01*
X0130014Y0057930D02*
X0107452Y0057930D01*
X0107675Y0058929D02*
X0131012Y0058929D01*
X0132011Y0059927D02*
X0107511Y0059927D01*
X0106714Y0056932D02*
X0129015Y0056932D01*
X0128969Y0053936D02*
X0130159Y0053936D01*
X0130519Y0053936D02*
X0131888Y0053936D01*
X0131517Y0054934D02*
X0132887Y0054934D01*
X0132515Y0055933D02*
X0132382Y0055933D01*
X0133752Y0055933D02*
X0133885Y0055933D01*
X0133978Y0059927D02*
X0139687Y0059927D01*
X0150366Y0063634D02*
X0152000Y0061000D01*
X0140000Y0049000D02*
X0137866Y0051134D01*
X0132366Y0045634D02*
X0134500Y0043500D01*
X0126746Y0051939D02*
X0125376Y0051939D01*
X0097352Y0039957D02*
X0083626Y0039957D01*
X0082864Y0038958D02*
X0096354Y0038958D01*
X0093982Y0030970D02*
X0093655Y0030970D01*
X0093611Y0029972D02*
X0094980Y0029972D01*
X0095071Y0026976D02*
X0093856Y0026976D01*
X0094287Y0025978D02*
X0084602Y0025978D01*
X0084602Y0024979D02*
X0094296Y0024979D01*
X0095103Y0023981D02*
X0084602Y0023981D01*
X0084602Y0022982D02*
X0096667Y0022982D01*
X0096296Y0023981D02*
X0097666Y0023981D01*
X0097100Y0021984D02*
X0084602Y0021984D01*
X0081500Y0023846D02*
X0081500Y0019000D01*
X0077500Y0015000D01*
X0076963Y0016991D02*
X0040377Y0016991D01*
X0056432Y0019987D02*
X0063568Y0019987D01*
X0061996Y0020985D02*
X0058004Y0020985D01*
X0058771Y0021984D02*
X0061229Y0021984D01*
X0060815Y0022982D02*
X0059185Y0022982D01*
X0059256Y0023981D02*
X0060744Y0023981D01*
X0060799Y0024979D02*
X0059201Y0024979D01*
X0058787Y0025978D02*
X0061213Y0025978D01*
X0068771Y0021984D02*
X0071398Y0021984D01*
X0071714Y0020985D02*
X0068004Y0020985D01*
X0066432Y0019987D02*
X0079013Y0019987D01*
X0078407Y0020985D02*
X0077593Y0020985D01*
X0077909Y0021984D02*
X0078091Y0021984D01*
X0078091Y0022982D02*
X0077909Y0022982D01*
X0077909Y0023981D02*
X0078091Y0023981D01*
X0078091Y0024979D02*
X0077909Y0024979D01*
X0077909Y0025978D02*
X0078091Y0025978D01*
X0078368Y0026976D02*
X0077632Y0026976D01*
X0081346Y0024000D02*
X0081500Y0023846D01*
X0084325Y0026976D02*
X0092133Y0026976D01*
X0102831Y0024979D02*
X0108375Y0024979D01*
X0109373Y0025978D02*
X0103055Y0025978D01*
X0104581Y0026976D02*
X0110372Y0026976D01*
X0111639Y0026976D02*
X0112325Y0026976D01*
X0112509Y0027975D02*
X0105579Y0027975D01*
X0106578Y0028973D02*
X0113190Y0028973D01*
X0115000Y0027000D02*
X0115000Y0027000D01*
X0110866Y0022866D01*
X0102083Y0018988D02*
X0084175Y0018988D01*
X0083977Y0017990D02*
X0101711Y0017990D01*
X0102093Y0016991D02*
X0083274Y0016991D01*
X0103366Y0030366D02*
X0105500Y0032500D01*
X0105500Y0032500D01*
X0088500Y0049500D02*
X0086366Y0047366D01*
X0088500Y0049500D02*
X0088500Y0049500D01*
X0091676Y0052937D02*
X0069824Y0052937D01*
X0065484Y0037960D02*
X0064516Y0037960D01*
X0064516Y0036961D02*
X0065484Y0036961D01*
X0065484Y0035963D02*
X0064516Y0035963D01*
X0064516Y0034964D02*
X0065484Y0034964D01*
X0069015Y0035963D02*
X0075680Y0035963D01*
X0061710Y0030970D02*
X0057989Y0030970D01*
X0058765Y0031969D02*
X0061020Y0031969D01*
X0060639Y0032967D02*
X0059179Y0032967D01*
X0023475Y0027975D02*
X0023412Y0027975D01*
X0057470Y0066917D02*
X0058988Y0066917D01*
X0149175Y0111850D02*
X0257213Y0111850D01*
X0257213Y0112848D02*
X0149044Y0112848D01*
X0148436Y0113847D02*
X0257213Y0113847D01*
X0231744Y0102863D02*
X0230256Y0102863D01*
X0223744Y0102863D02*
X0222438Y0102863D01*
X0203331Y0068914D02*
X0202362Y0068914D01*
X0202362Y0067915D02*
X0203331Y0067915D01*
X0203331Y0066917D02*
X0202362Y0066917D01*
X0199505Y0068914D02*
X0199194Y0068914D01*
X0161264Y0077900D02*
X0154005Y0077900D01*
X0153006Y0078899D02*
X0160185Y0078899D01*
X0152857Y0074905D02*
X0152780Y0074905D01*
X0151487Y0074905D02*
X0151410Y0074905D01*
X0138000Y0141000D02*
X0138000Y0141000D01*
X0140634Y0143634D01*
X0116000Y0142500D02*
X0113402Y0145098D01*
X0111902Y0145098D01*
X0195862Y0149793D02*
X0196831Y0149793D01*
X0196831Y0150792D02*
X0195862Y0150792D01*
X0195862Y0151790D02*
X0196831Y0151790D01*
D19*
X0186500Y0152500D03*
X0165500Y0138500D03*
X0163000Y0129000D03*
X0149500Y0127000D03*
X0133500Y0124500D03*
X0131134Y0129500D03*
X0123000Y0124500D03*
X0110000Y0118000D03*
X0095000Y0124000D03*
X0091000Y0120000D03*
X0082000Y0127500D03*
X0100500Y0129500D03*
X0106500Y0132500D03*
X0116000Y0142500D03*
X0125000Y0144000D03*
X0138000Y0141000D03*
X0148000Y0141000D03*
X0150500Y0153500D03*
X0195500Y0131000D03*
X0168500Y0115000D03*
X0146500Y0112000D03*
X0142000Y0116000D03*
X0135500Y0113500D03*
X0158000Y0099500D03*
X0163000Y0095000D03*
X0168500Y0088500D03*
X0150500Y0098500D03*
X0147500Y0079000D03*
X0159000Y0068000D03*
X0152000Y0061000D03*
X0163000Y0054750D03*
X0171000Y0060500D03*
X0189500Y0050000D03*
X0196500Y0055000D03*
X0217000Y0062500D03*
X0217000Y0066500D03*
X0203000Y0073500D03*
X0225500Y0081000D03*
X0227000Y0086000D03*
X0216358Y0093654D03*
X0213000Y0100500D03*
X0230500Y0107000D03*
X0240500Y0081000D03*
X0233000Y0027500D03*
X0228000Y0020000D03*
X0221000Y0020000D03*
X0221000Y0027500D03*
X0141500Y0028500D03*
X0127000Y0032500D03*
X0115000Y0027000D03*
X0119500Y0024000D03*
X0105500Y0032500D03*
X0100000Y0038000D03*
X0095500Y0043500D03*
X0088500Y0049500D03*
X0097000Y0060000D03*
X0093000Y0063000D03*
X0089000Y0068000D03*
X0072500Y0068500D03*
X0061000Y0059000D03*
X0066500Y0058000D03*
X0059000Y0052500D03*
X0052000Y0068000D03*
X0056000Y0076500D03*
X0060500Y0080500D03*
X0079000Y0088000D03*
X0083500Y0090500D03*
X0090000Y0096000D03*
X0096500Y0103500D03*
X0100000Y0082500D03*
X0105000Y0059000D03*
X0109000Y0048500D03*
X0113000Y0044500D03*
X0134500Y0043500D03*
X0140000Y0049000D03*
X0100500Y0014500D03*
X0081500Y0019000D03*
X0080500Y0029000D03*
X0077500Y0034000D03*
X0029000Y0046000D03*
X0033000Y0065000D03*
X0025000Y0066000D03*
X0036500Y0084000D03*
X0043000Y0101000D03*
X0026500Y0109500D03*
X0026500Y0116000D03*
X0010500Y0118500D03*
X0060000Y0151000D03*
X0092000Y0147500D03*
D20*
X0093000Y0154500D03*
X0098000Y0154500D03*
X0060000Y0134000D03*
X0056000Y0126000D03*
X0050500Y0126000D03*
X0045000Y0126000D03*
X0045000Y0120500D03*
X0050500Y0120500D03*
X0056000Y0120500D03*
X0065000Y0124000D03*
X0076000Y0124000D03*
X0081500Y0120500D03*
X0086500Y0125500D03*
X0082000Y0110000D03*
X0055000Y0110000D03*
X0033000Y0121000D03*
X0028000Y0126000D03*
X0023000Y0121000D03*
X0023000Y0131000D03*
X0033000Y0131000D03*
X0045000Y0145500D03*
X0050500Y0145500D03*
X0050500Y0151000D03*
X0045000Y0151000D03*
X0045000Y0156500D03*
X0050500Y0156500D03*
X0018000Y0151000D03*
X0018500Y0066000D03*
X0010500Y0066000D03*
X0011000Y0046000D03*
X0017000Y0046000D03*
X0023000Y0046000D03*
X0072500Y0046000D03*
X0179000Y0102000D03*
X0189000Y0107750D03*
X0207000Y0105000D03*
X0220000Y0119000D03*
X0235500Y0119000D03*
X0251000Y0117000D03*
X0235000Y0132000D03*
X0224000Y0134500D03*
X0216500Y0137000D03*
X0186750Y0082000D03*
X0230000Y0065000D03*
X0243000Y0058500D03*
X0231000Y0055000D03*
X0230000Y0043000D03*
X0237500Y0043000D03*
X0245000Y0043000D03*
X0253000Y0043000D03*
X0253000Y0035000D03*
X0245000Y0035000D03*
X0253000Y0071000D03*
X0253000Y0078500D03*
D21*
X0168500Y0088500D02*
X0166866Y0086866D01*
X0127000Y0032500D02*
X0127000Y0030000D01*
X0128134Y0028866D01*
X0058000Y0118500D02*
X0043000Y0118500D01*
X0043000Y0131593D01*
X0043064Y0131556D01*
X0043470Y0131447D01*
X0045640Y0131447D01*
X0045640Y0135400D01*
X0046840Y0135400D01*
X0046840Y0131447D01*
X0049010Y0131447D01*
X0049417Y0131556D01*
X0049782Y0131767D01*
X0050080Y0132065D01*
X0050290Y0132430D01*
X0050399Y0132837D01*
X0050399Y0135400D01*
X0046840Y0135400D01*
X0046840Y0136600D01*
X0045640Y0136600D01*
X0045640Y0140553D01*
X0043470Y0140553D01*
X0043064Y0140444D01*
X0043000Y0140407D01*
X0043000Y0158113D01*
X0052500Y0158113D01*
X0052500Y0143500D01*
X0058000Y0138000D01*
X0058000Y0136203D01*
X0057481Y0135683D01*
X0057028Y0134591D01*
X0057028Y0133409D01*
X0057481Y0132317D01*
X0058000Y0131797D01*
X0058000Y0118500D01*
X0058000Y0118866D02*
X0043000Y0118866D01*
X0043000Y0120065D02*
X0058000Y0120065D01*
X0058000Y0121263D02*
X0043000Y0121263D01*
X0043000Y0122462D02*
X0058000Y0122462D01*
X0058000Y0123660D02*
X0043000Y0123660D01*
X0043000Y0124859D02*
X0058000Y0124859D01*
X0058000Y0126057D02*
X0043000Y0126057D01*
X0043000Y0127256D02*
X0058000Y0127256D01*
X0058000Y0128454D02*
X0043000Y0128454D01*
X0043000Y0129653D02*
X0058000Y0129653D01*
X0058000Y0130851D02*
X0043000Y0130851D01*
X0045640Y0132050D02*
X0046840Y0132050D01*
X0046840Y0133248D02*
X0045640Y0133248D01*
X0045640Y0134447D02*
X0046840Y0134447D01*
X0046840Y0135645D02*
X0057465Y0135645D01*
X0057028Y0134447D02*
X0050399Y0134447D01*
X0050399Y0133248D02*
X0057095Y0133248D01*
X0057748Y0132050D02*
X0050064Y0132050D01*
X0050399Y0136600D02*
X0046840Y0136600D01*
X0046840Y0140553D01*
X0049010Y0140553D01*
X0049417Y0140444D01*
X0049782Y0140233D01*
X0050080Y0139935D01*
X0050290Y0139570D01*
X0050399Y0139163D01*
X0050399Y0136600D01*
X0050399Y0136844D02*
X0058000Y0136844D01*
X0057958Y0138042D02*
X0050399Y0138042D01*
X0050378Y0139241D02*
X0056759Y0139241D01*
X0055561Y0140439D02*
X0049425Y0140439D01*
X0046840Y0140439D02*
X0045640Y0140439D01*
X0045640Y0139241D02*
X0046840Y0139241D01*
X0046840Y0138042D02*
X0045640Y0138042D01*
X0045640Y0136844D02*
X0046840Y0136844D01*
X0043056Y0140439D02*
X0043000Y0140439D01*
X0043000Y0141638D02*
X0054362Y0141638D01*
X0053164Y0142836D02*
X0043000Y0142836D01*
X0043000Y0144035D02*
X0052500Y0144035D01*
X0052500Y0145233D02*
X0043000Y0145233D01*
X0043000Y0146432D02*
X0052500Y0146432D01*
X0052500Y0147630D02*
X0043000Y0147630D01*
X0043000Y0148829D02*
X0052500Y0148829D01*
X0052500Y0150027D02*
X0043000Y0150027D01*
X0043000Y0151226D02*
X0052500Y0151226D01*
X0052500Y0152424D02*
X0043000Y0152424D01*
X0043000Y0153623D02*
X0052500Y0153623D01*
X0052500Y0154821D02*
X0043000Y0154821D01*
X0043000Y0156020D02*
X0052500Y0156020D01*
X0052500Y0157218D02*
X0043000Y0157218D01*
D22*
X0116000Y0142500D02*
X0116000Y0098500D01*
X0100000Y0082500D01*
X0196154Y0066000D02*
X0196154Y0058000D01*
X0217346Y0060000D02*
X0217346Y0052000D01*
X0217346Y0069000D02*
X0217346Y0077000D01*
D23*
X0164000Y0023000D03*
D24*
X0125500Y0073000D03*
X0125500Y0083500D03*
X0115000Y0083500D03*
X0125500Y0094000D03*
X0136000Y0083500D03*
D25*
X0130750Y0088500D03*
X0120250Y0088750D03*
X0120250Y0078000D03*
X0131000Y0078000D03*
D26*
X0184000Y0096000D02*
X0193000Y0096000D01*
X0193000Y0083000D01*
X0193000Y0096000D02*
X0193000Y0108000D01*
X0193000Y0096000D02*
X0202000Y0096000D01*
X0082000Y0109000D02*
X0071000Y0109000D01*
X0071000Y0097000D01*
X0071000Y0109000D02*
X0062000Y0109000D01*
X0071000Y0109000D02*
X0071000Y0121000D01*
M02*
