G75*
%MOIN*%
%OFA0B0*%
%FSLAX25Y25*%
%IPPOS*%
%LPD*%
%AMOC8*
5,1,8,0,0,1.08239X$1,22.5*
%
%ADD10C,0.00000*%
%ADD11C,0.00600*%
%ADD12C,0.00500*%
%ADD13C,0.00800*%
%ADD14C,0.01200*%
%ADD15C,0.00787*%
%ADD16C,0.00400*%
D10*
X0009500Y0011000D02*
X0241000Y0011000D01*
X0246000Y0011000D01*
X0249500Y0011000D01*
X0252500Y0011000D01*
X0253500Y0011000D01*
X0258500Y0016000D01*
X0258500Y0116000D01*
X0239000Y0135500D01*
X0239000Y0157000D01*
X0236500Y0159500D01*
X0017000Y0159500D01*
X0004500Y0147000D01*
X0004500Y0016000D01*
X0009500Y0011000D01*
X0039299Y0053500D02*
X0040283Y0053500D01*
D11*
X0043437Y0052250D02*
X0043437Y0054750D01*
X0046562Y0054750D02*
X0046562Y0052250D01*
X0051437Y0052250D02*
X0051437Y0054750D01*
X0054562Y0054750D02*
X0054562Y0052250D01*
X0065250Y0050937D02*
X0067750Y0050937D01*
X0067750Y0054062D02*
X0065250Y0054062D01*
X0060250Y0066438D02*
X0057750Y0066438D01*
X0057750Y0069563D02*
X0060250Y0069563D01*
X0061867Y0081800D02*
X0063001Y0081800D01*
X0063569Y0082367D01*
X0063569Y0085203D01*
X0064983Y0084069D02*
X0066117Y0085203D01*
X0066117Y0081800D01*
X0064983Y0081800D02*
X0067252Y0081800D01*
X0061867Y0081800D02*
X0061300Y0082367D01*
X0061300Y0085203D01*
X0064958Y0106733D02*
X0067227Y0106733D01*
X0068642Y0106733D02*
X0070910Y0106733D01*
X0072325Y0107300D02*
X0074593Y0110703D01*
X0076008Y0110703D02*
X0077142Y0109569D01*
X0077142Y0108434D01*
X0076008Y0107300D01*
X0078463Y0106733D02*
X0080732Y0106733D01*
X0063637Y0108434D02*
X0063637Y0109569D01*
X0062503Y0110703D01*
X0061088Y0110703D02*
X0058820Y0107300D01*
X0057405Y0106733D02*
X0055137Y0106733D01*
X0053722Y0106733D02*
X0051454Y0106733D01*
X0062503Y0107300D02*
X0063637Y0108434D01*
X0064050Y0126300D02*
X0065185Y0126300D01*
X0065752Y0126867D01*
X0065752Y0127434D01*
X0065185Y0128001D01*
X0063483Y0128001D01*
X0063483Y0126867D01*
X0064050Y0126300D01*
X0063483Y0128001D02*
X0064617Y0129136D01*
X0065752Y0129703D01*
X0067309Y0130400D02*
X0067309Y0130773D01*
X0067309Y0130400D02*
X0073691Y0130400D01*
X0073691Y0130773D01*
X0073691Y0133943D02*
X0073691Y0138057D01*
X0073691Y0141227D02*
X0073691Y0141600D01*
X0067309Y0141600D01*
X0067309Y0141227D01*
X0067309Y0138057D02*
X0067309Y0137683D01*
X0067309Y0134317D02*
X0067309Y0133943D01*
X0062069Y0129703D02*
X0062069Y0126867D01*
X0061501Y0126300D01*
X0060367Y0126300D01*
X0059800Y0126867D01*
X0059800Y0129703D01*
X0057062Y0134750D02*
X0057062Y0137250D01*
X0053937Y0137250D02*
X0053937Y0134750D01*
X0047500Y0132500D02*
X0047000Y0132000D01*
X0047500Y0132500D02*
X0047500Y0144500D01*
X0052500Y0149500D01*
X0050500Y0148500D01*
X0051500Y0147500D02*
X0052500Y0149500D01*
X0053937Y0149250D02*
X0053937Y0151750D01*
X0057062Y0151750D02*
X0057062Y0149250D01*
X0059800Y0145203D02*
X0059800Y0142367D01*
X0060367Y0141800D01*
X0061501Y0141800D01*
X0062069Y0142367D01*
X0062069Y0145203D01*
X0063483Y0145203D02*
X0065752Y0145203D01*
X0065752Y0144636D01*
X0063483Y0142367D01*
X0063483Y0141800D01*
X0067309Y0145400D02*
X0067309Y0145773D01*
X0067309Y0145400D02*
X0073691Y0145400D01*
X0073691Y0145773D01*
X0073691Y0148943D02*
X0073691Y0153057D01*
X0073691Y0156227D02*
X0073691Y0156600D01*
X0067309Y0156600D01*
X0067309Y0156227D01*
X0067309Y0153057D02*
X0067309Y0152683D01*
X0067309Y0149317D02*
X0067309Y0148943D01*
X0083938Y0149750D02*
X0083938Y0152250D01*
X0087062Y0152250D02*
X0087062Y0149750D01*
X0099250Y0148063D02*
X0101750Y0148063D01*
X0101750Y0144938D02*
X0099250Y0144938D01*
X0099000Y0141000D02*
X0102000Y0141000D01*
X0102000Y0136000D02*
X0099000Y0136000D01*
X0087062Y0137250D02*
X0087062Y0134750D01*
X0083938Y0134750D02*
X0083938Y0137250D01*
X0115500Y0148500D02*
X0115500Y0154500D01*
X0115502Y0154560D01*
X0115507Y0154621D01*
X0115516Y0154680D01*
X0115529Y0154739D01*
X0115545Y0154798D01*
X0115565Y0154855D01*
X0115588Y0154910D01*
X0115615Y0154965D01*
X0115644Y0155017D01*
X0115677Y0155068D01*
X0115713Y0155117D01*
X0115751Y0155163D01*
X0115793Y0155207D01*
X0115837Y0155249D01*
X0115883Y0155287D01*
X0115932Y0155323D01*
X0115983Y0155356D01*
X0116035Y0155385D01*
X0116090Y0155412D01*
X0116145Y0155435D01*
X0116202Y0155455D01*
X0116261Y0155471D01*
X0116320Y0155484D01*
X0116379Y0155493D01*
X0116440Y0155498D01*
X0116500Y0155500D01*
X0133500Y0155500D01*
X0133560Y0155498D01*
X0133621Y0155493D01*
X0133680Y0155484D01*
X0133739Y0155471D01*
X0133798Y0155455D01*
X0133855Y0155435D01*
X0133910Y0155412D01*
X0133965Y0155385D01*
X0134017Y0155356D01*
X0134068Y0155323D01*
X0134117Y0155287D01*
X0134163Y0155249D01*
X0134207Y0155207D01*
X0134249Y0155163D01*
X0134287Y0155117D01*
X0134323Y0155068D01*
X0134356Y0155017D01*
X0134385Y0154965D01*
X0134412Y0154910D01*
X0134435Y0154855D01*
X0134455Y0154798D01*
X0134471Y0154739D01*
X0134484Y0154680D01*
X0134493Y0154621D01*
X0134498Y0154560D01*
X0134500Y0154500D01*
X0134500Y0148500D01*
X0134498Y0148440D01*
X0134493Y0148379D01*
X0134484Y0148320D01*
X0134471Y0148261D01*
X0134455Y0148202D01*
X0134435Y0148145D01*
X0134412Y0148090D01*
X0134385Y0148035D01*
X0134356Y0147983D01*
X0134323Y0147932D01*
X0134287Y0147883D01*
X0134249Y0147837D01*
X0134207Y0147793D01*
X0134163Y0147751D01*
X0134117Y0147713D01*
X0134068Y0147677D01*
X0134017Y0147644D01*
X0133965Y0147615D01*
X0133910Y0147588D01*
X0133855Y0147565D01*
X0133798Y0147545D01*
X0133739Y0147529D01*
X0133680Y0147516D01*
X0133621Y0147507D01*
X0133560Y0147502D01*
X0133500Y0147500D01*
X0116500Y0147500D01*
X0116440Y0147502D01*
X0116379Y0147507D01*
X0116320Y0147516D01*
X0116261Y0147529D01*
X0116202Y0147545D01*
X0116145Y0147565D01*
X0116090Y0147588D01*
X0116035Y0147615D01*
X0115983Y0147644D01*
X0115932Y0147677D01*
X0115883Y0147713D01*
X0115837Y0147751D01*
X0115793Y0147793D01*
X0115751Y0147837D01*
X0115713Y0147883D01*
X0115677Y0147932D01*
X0115644Y0147983D01*
X0115615Y0148035D01*
X0115588Y0148090D01*
X0115565Y0148145D01*
X0115545Y0148202D01*
X0115529Y0148261D01*
X0115516Y0148320D01*
X0115507Y0148379D01*
X0115502Y0148440D01*
X0115500Y0148500D01*
X0136300Y0150367D02*
X0136867Y0149800D01*
X0137434Y0149800D01*
X0138001Y0150367D01*
X0138001Y0153203D01*
X0137434Y0153203D02*
X0138569Y0153203D01*
X0139983Y0152069D02*
X0141117Y0153203D01*
X0141117Y0149800D01*
X0139983Y0149800D02*
X0142252Y0149800D01*
X0158300Y0154867D02*
X0158867Y0154300D01*
X0160001Y0154300D01*
X0160569Y0154867D01*
X0160569Y0157703D01*
X0161983Y0156001D02*
X0164252Y0156001D01*
X0163685Y0154300D02*
X0163685Y0157703D01*
X0161983Y0156001D01*
X0158300Y0154867D02*
X0158300Y0157703D01*
X0171250Y0132563D02*
X0173750Y0132563D01*
X0173750Y0129437D02*
X0171250Y0129437D01*
X0171250Y0122562D02*
X0173750Y0122562D01*
X0173750Y0119437D02*
X0171250Y0119437D01*
X0176300Y0116203D02*
X0176300Y0113367D01*
X0176867Y0112800D01*
X0178001Y0112800D01*
X0178569Y0113367D01*
X0178569Y0116203D01*
X0179983Y0115636D02*
X0180550Y0116203D01*
X0181685Y0116203D01*
X0182252Y0115636D01*
X0182252Y0115069D01*
X0181685Y0114501D01*
X0182252Y0113934D01*
X0182252Y0113367D01*
X0181685Y0112800D01*
X0180550Y0112800D01*
X0179983Y0113367D01*
X0181117Y0114501D02*
X0181685Y0114501D01*
X0183563Y0118539D02*
X0183563Y0120131D01*
X0191437Y0120131D01*
X0191437Y0118539D01*
X0183563Y0118539D01*
X0183563Y0120131D02*
X0183563Y0123461D01*
X0191437Y0123461D01*
X0191437Y0120131D01*
X0205000Y0120500D02*
X0210000Y0120500D01*
X0210000Y0116125D02*
X0205000Y0116125D01*
X0205000Y0109875D02*
X0210000Y0109875D01*
X0226250Y0111437D02*
X0228750Y0111437D01*
X0228750Y0114562D02*
X0226250Y0114562D01*
X0234800Y0112300D02*
X0237069Y0115703D01*
X0238483Y0115136D02*
X0238483Y0112867D01*
X0239050Y0112300D01*
X0240185Y0112300D01*
X0240752Y0112867D01*
X0242166Y0112867D02*
X0242733Y0112300D01*
X0243868Y0112300D01*
X0244435Y0112867D01*
X0244435Y0113434D01*
X0243868Y0114001D01*
X0242733Y0114001D01*
X0242166Y0114569D01*
X0242166Y0115136D01*
X0242733Y0115703D01*
X0243868Y0115703D01*
X0244435Y0115136D01*
X0240752Y0115136D02*
X0240185Y0115703D01*
X0239050Y0115703D01*
X0238483Y0115136D01*
X0234368Y0122800D02*
X0232666Y0122800D01*
X0232666Y0126203D01*
X0234368Y0126203D01*
X0234935Y0125636D01*
X0234935Y0123367D01*
X0234368Y0122800D01*
X0231252Y0122800D02*
X0231252Y0126203D01*
X0228983Y0126203D02*
X0231252Y0122800D01*
X0228983Y0122800D02*
X0228983Y0126203D01*
X0227569Y0125636D02*
X0227001Y0126203D01*
X0225867Y0126203D01*
X0225300Y0125636D01*
X0225300Y0123367D01*
X0225867Y0122800D01*
X0227001Y0122800D01*
X0227569Y0123367D01*
X0227569Y0124501D01*
X0226434Y0124501D01*
X0210000Y0130500D02*
X0205000Y0130500D01*
X0203500Y0135000D02*
X0206500Y0135000D01*
X0206500Y0140000D02*
X0203500Y0140000D01*
X0205657Y0141800D02*
X0207925Y0145203D01*
X0209340Y0145203D02*
X0209340Y0142934D01*
X0210474Y0141800D01*
X0211608Y0142934D01*
X0211608Y0145203D01*
X0213023Y0144636D02*
X0213023Y0144069D01*
X0213590Y0143501D01*
X0214724Y0143501D01*
X0215291Y0142934D01*
X0215291Y0142367D01*
X0214724Y0141800D01*
X0213590Y0141800D01*
X0213023Y0142367D01*
X0213023Y0144636D02*
X0213590Y0145203D01*
X0214724Y0145203D01*
X0215291Y0144636D01*
X0216706Y0145203D02*
X0216706Y0141800D01*
X0217934Y0141800D02*
X0217934Y0145203D01*
X0220202Y0145203D01*
X0221617Y0144636D02*
X0222184Y0145203D01*
X0223318Y0145203D01*
X0223885Y0144636D01*
X0223885Y0144069D01*
X0221617Y0141800D01*
X0223885Y0141800D01*
X0219068Y0143501D02*
X0217934Y0143501D01*
X0217934Y0148300D02*
X0217934Y0151703D01*
X0220202Y0151703D01*
X0221617Y0150569D02*
X0222751Y0151703D01*
X0222751Y0148300D01*
X0221617Y0148300D02*
X0223885Y0148300D01*
X0219068Y0150001D02*
X0217934Y0150001D01*
X0216706Y0148300D02*
X0216706Y0151703D01*
X0215291Y0151136D02*
X0214724Y0151703D01*
X0213590Y0151703D01*
X0213023Y0151136D01*
X0213023Y0150569D01*
X0213590Y0150001D01*
X0214724Y0150001D01*
X0215291Y0149434D01*
X0215291Y0148867D01*
X0214724Y0148300D01*
X0213590Y0148300D01*
X0213023Y0148867D01*
X0211608Y0148300D02*
X0211608Y0151703D01*
X0211608Y0150001D02*
X0209340Y0150001D01*
X0209340Y0148300D02*
X0209340Y0151703D01*
X0207925Y0151703D02*
X0205657Y0148300D01*
X0205751Y0154800D02*
X0208019Y0158203D01*
X0209434Y0157636D02*
X0209434Y0155367D01*
X0210001Y0154800D01*
X0211135Y0154800D01*
X0211702Y0155367D01*
X0213117Y0155367D02*
X0213684Y0154800D01*
X0214818Y0154800D01*
X0215385Y0155367D01*
X0215385Y0155934D01*
X0214818Y0156501D01*
X0213684Y0156501D01*
X0213117Y0157069D01*
X0213117Y0157636D01*
X0213684Y0158203D01*
X0214818Y0158203D01*
X0215385Y0157636D01*
X0211702Y0157636D02*
X0211135Y0158203D01*
X0210001Y0158203D01*
X0209434Y0157636D01*
X0188750Y0132563D02*
X0186250Y0132563D01*
X0186250Y0129437D02*
X0188750Y0129437D01*
X0160063Y0127250D02*
X0160063Y0124750D01*
X0156938Y0124750D02*
X0156938Y0127250D01*
X0185300Y0088453D02*
X0185300Y0085617D01*
X0185867Y0085050D01*
X0187001Y0085050D01*
X0187569Y0085617D01*
X0187569Y0088453D01*
X0188983Y0087886D02*
X0189550Y0088453D01*
X0190685Y0088453D01*
X0191252Y0087886D01*
X0191252Y0087319D01*
X0188983Y0085050D01*
X0191252Y0085050D01*
X0195689Y0079780D02*
X0193720Y0077811D01*
X0193720Y0053205D01*
X0194705Y0052220D01*
X0220295Y0052220D01*
X0221280Y0053205D01*
X0221280Y0078795D01*
X0220295Y0079780D01*
X0195689Y0079780D01*
X0195689Y0076827D02*
X0195691Y0076889D01*
X0195697Y0076952D01*
X0195707Y0077013D01*
X0195721Y0077074D01*
X0195738Y0077134D01*
X0195759Y0077193D01*
X0195785Y0077250D01*
X0195813Y0077305D01*
X0195845Y0077359D01*
X0195881Y0077410D01*
X0195919Y0077460D01*
X0195961Y0077506D01*
X0196005Y0077550D01*
X0196053Y0077591D01*
X0196102Y0077629D01*
X0196154Y0077663D01*
X0196208Y0077694D01*
X0196264Y0077722D01*
X0196322Y0077746D01*
X0196381Y0077767D01*
X0196441Y0077783D01*
X0196502Y0077796D01*
X0196564Y0077805D01*
X0196626Y0077810D01*
X0196689Y0077811D01*
X0196751Y0077808D01*
X0196813Y0077801D01*
X0196875Y0077790D01*
X0196935Y0077775D01*
X0196995Y0077757D01*
X0197053Y0077735D01*
X0197110Y0077709D01*
X0197165Y0077679D01*
X0197218Y0077646D01*
X0197269Y0077610D01*
X0197317Y0077571D01*
X0197363Y0077528D01*
X0197406Y0077483D01*
X0197446Y0077435D01*
X0197483Y0077385D01*
X0197517Y0077332D01*
X0197548Y0077278D01*
X0197574Y0077222D01*
X0197598Y0077164D01*
X0197617Y0077104D01*
X0197633Y0077044D01*
X0197645Y0076982D01*
X0197653Y0076921D01*
X0197657Y0076858D01*
X0197657Y0076796D01*
X0197653Y0076733D01*
X0197645Y0076672D01*
X0197633Y0076610D01*
X0197617Y0076550D01*
X0197598Y0076490D01*
X0197574Y0076432D01*
X0197548Y0076376D01*
X0197517Y0076322D01*
X0197483Y0076269D01*
X0197446Y0076219D01*
X0197406Y0076171D01*
X0197363Y0076126D01*
X0197317Y0076083D01*
X0197269Y0076044D01*
X0197218Y0076008D01*
X0197165Y0075975D01*
X0197110Y0075945D01*
X0197053Y0075919D01*
X0196995Y0075897D01*
X0196935Y0075879D01*
X0196875Y0075864D01*
X0196813Y0075853D01*
X0196751Y0075846D01*
X0196689Y0075843D01*
X0196626Y0075844D01*
X0196564Y0075849D01*
X0196502Y0075858D01*
X0196441Y0075871D01*
X0196381Y0075887D01*
X0196322Y0075908D01*
X0196264Y0075932D01*
X0196208Y0075960D01*
X0196154Y0075991D01*
X0196102Y0076025D01*
X0196053Y0076063D01*
X0196005Y0076104D01*
X0195961Y0076148D01*
X0195919Y0076194D01*
X0195881Y0076244D01*
X0195845Y0076295D01*
X0195813Y0076349D01*
X0195785Y0076404D01*
X0195759Y0076461D01*
X0195738Y0076520D01*
X0195721Y0076580D01*
X0195707Y0076641D01*
X0195697Y0076702D01*
X0195691Y0076765D01*
X0195689Y0076827D01*
X0222437Y0095750D02*
X0222437Y0098250D01*
X0225562Y0098250D02*
X0225562Y0095750D01*
X0232300Y0094136D02*
X0232300Y0091867D01*
X0232867Y0091300D01*
X0234001Y0091300D01*
X0234569Y0091867D01*
X0234569Y0093001D01*
X0233434Y0093001D01*
X0232300Y0094136D02*
X0232867Y0094703D01*
X0234001Y0094703D01*
X0234569Y0094136D01*
X0235983Y0093001D02*
X0236550Y0092434D01*
X0237685Y0092434D01*
X0238252Y0091867D01*
X0237685Y0091300D01*
X0235983Y0091300D01*
X0235983Y0093001D02*
X0236550Y0093569D01*
X0238252Y0093569D01*
X0239666Y0091300D02*
X0241935Y0094703D01*
X0243349Y0094703D02*
X0243349Y0094136D01*
X0244484Y0093001D01*
X0244484Y0091300D01*
X0244484Y0093001D02*
X0245618Y0094136D01*
X0245618Y0094703D01*
X0243349Y0098800D02*
X0243349Y0101069D01*
X0243349Y0099934D02*
X0244484Y0101069D01*
X0245051Y0101069D01*
X0241935Y0101636D02*
X0241935Y0100501D01*
X0241368Y0099934D01*
X0239666Y0099934D01*
X0239666Y0098800D02*
X0239666Y0102203D01*
X0241368Y0102203D01*
X0241935Y0101636D01*
X0238252Y0102203D02*
X0235983Y0098800D01*
X0234569Y0098800D02*
X0233434Y0099934D01*
X0234001Y0099934D02*
X0232300Y0099934D01*
X0232300Y0098800D02*
X0232300Y0102203D01*
X0234001Y0102203D01*
X0234569Y0101636D01*
X0234569Y0100501D01*
X0234001Y0099934D01*
X0234001Y0087203D02*
X0232300Y0087203D01*
X0232300Y0083800D01*
X0234001Y0083800D01*
X0234569Y0084367D01*
X0234569Y0084934D01*
X0234001Y0085501D01*
X0232300Y0085501D01*
X0234001Y0085501D02*
X0234569Y0086069D01*
X0234569Y0086636D01*
X0234001Y0087203D01*
X0235983Y0083800D02*
X0238252Y0087203D01*
X0239666Y0087203D02*
X0241368Y0087203D01*
X0241935Y0086636D01*
X0241935Y0085501D01*
X0241368Y0084934D01*
X0239666Y0084934D01*
X0239666Y0083800D02*
X0239666Y0087203D01*
X0243349Y0087203D02*
X0243349Y0083800D01*
X0245051Y0083800D01*
X0245618Y0084367D01*
X0245618Y0085501D01*
X0245051Y0086069D01*
X0243349Y0086069D01*
X0247367Y0066703D02*
X0246800Y0066136D01*
X0246800Y0063867D01*
X0247367Y0063300D01*
X0248501Y0063300D01*
X0249069Y0063867D01*
X0249069Y0065001D01*
X0247934Y0065001D01*
X0249069Y0066136D02*
X0248501Y0066703D01*
X0247367Y0066703D01*
X0250483Y0066703D02*
X0252752Y0063300D01*
X0252752Y0066703D01*
X0254166Y0066703D02*
X0255868Y0066703D01*
X0256435Y0066136D01*
X0256435Y0063867D01*
X0255868Y0063300D01*
X0254166Y0063300D01*
X0254166Y0066703D01*
X0250483Y0066703D02*
X0250483Y0063300D01*
X0250483Y0055203D02*
X0250483Y0053501D01*
X0251617Y0054069D01*
X0252185Y0054069D01*
X0252752Y0053501D01*
X0252752Y0052367D01*
X0252185Y0051800D01*
X0251050Y0051800D01*
X0250483Y0052367D01*
X0249069Y0053501D02*
X0246800Y0053501D01*
X0247934Y0052367D02*
X0247934Y0054636D01*
X0250483Y0055203D02*
X0252752Y0055203D01*
X0254166Y0055203D02*
X0254166Y0052934D01*
X0255301Y0051800D01*
X0256435Y0052934D01*
X0256435Y0055203D01*
X0239250Y0050062D02*
X0236750Y0050062D01*
X0236750Y0046937D02*
X0239250Y0046937D01*
X0234500Y0038000D02*
X0231500Y0038000D01*
X0231500Y0033000D02*
X0234500Y0033000D01*
X0236367Y0029203D02*
X0235800Y0028636D01*
X0235800Y0026367D01*
X0236367Y0025800D01*
X0237501Y0025800D01*
X0238069Y0026367D01*
X0240050Y0026367D02*
X0240617Y0025800D01*
X0240050Y0026367D02*
X0240050Y0028636D01*
X0239483Y0028069D02*
X0240617Y0028069D01*
X0241939Y0028069D02*
X0241939Y0025800D01*
X0241939Y0026934D02*
X0243073Y0028069D01*
X0243640Y0028069D01*
X0245008Y0029203D02*
X0245575Y0029203D01*
X0245575Y0025800D01*
X0245008Y0025800D02*
X0246142Y0025800D01*
X0245417Y0021636D02*
X0245417Y0019367D01*
X0245984Y0018800D01*
X0245984Y0021069D02*
X0244849Y0021069D01*
X0243435Y0021069D02*
X0241733Y0021069D01*
X0241166Y0020501D01*
X0241733Y0019934D01*
X0242868Y0019934D01*
X0243435Y0019367D01*
X0242868Y0018800D01*
X0241166Y0018800D01*
X0239752Y0018800D02*
X0238617Y0019934D01*
X0239185Y0019934D02*
X0237483Y0019934D01*
X0237483Y0018800D02*
X0237483Y0022203D01*
X0239185Y0022203D01*
X0239752Y0021636D01*
X0239752Y0020501D01*
X0239185Y0019934D01*
X0236069Y0022203D02*
X0233800Y0018800D01*
X0236367Y0029203D02*
X0237501Y0029203D01*
X0238069Y0028636D01*
X0212851Y0029569D02*
X0211149Y0029569D01*
X0210582Y0029001D01*
X0210582Y0027867D01*
X0211149Y0027300D01*
X0212851Y0027300D01*
X0212851Y0030703D01*
X0209167Y0029001D02*
X0209167Y0028434D01*
X0206899Y0028434D01*
X0206899Y0027867D02*
X0206899Y0029001D01*
X0207466Y0029569D01*
X0208600Y0029569D01*
X0209167Y0029001D01*
X0208600Y0027300D02*
X0207466Y0027300D01*
X0206899Y0027867D01*
X0205484Y0027300D02*
X0203783Y0027300D01*
X0203216Y0027867D01*
X0203216Y0029001D01*
X0203783Y0029569D01*
X0205484Y0029569D01*
X0201801Y0029001D02*
X0201801Y0027300D01*
X0201801Y0029001D02*
X0201234Y0029569D01*
X0199533Y0029569D01*
X0199533Y0027300D01*
X0198118Y0027300D02*
X0198118Y0029001D01*
X0197551Y0029569D01*
X0196417Y0029569D01*
X0196417Y0028434D02*
X0198118Y0028434D01*
X0198118Y0027300D02*
X0196417Y0027300D01*
X0195849Y0027867D01*
X0196417Y0028434D01*
X0194435Y0029569D02*
X0193301Y0027300D01*
X0192166Y0029569D01*
X0190752Y0029569D02*
X0189050Y0029569D01*
X0188483Y0029001D01*
X0188483Y0027867D01*
X0189050Y0027300D01*
X0190752Y0027300D01*
X0190752Y0030703D01*
X0187069Y0029569D02*
X0187069Y0027300D01*
X0187069Y0029001D02*
X0184800Y0029001D01*
X0184800Y0029569D02*
X0184800Y0027300D01*
X0184800Y0029569D02*
X0185934Y0030703D01*
X0187069Y0029569D01*
X0147500Y0021500D02*
X0147500Y0015500D01*
X0147498Y0015440D01*
X0147493Y0015379D01*
X0147484Y0015320D01*
X0147471Y0015261D01*
X0147455Y0015202D01*
X0147435Y0015145D01*
X0147412Y0015090D01*
X0147385Y0015035D01*
X0147356Y0014983D01*
X0147323Y0014932D01*
X0147287Y0014883D01*
X0147249Y0014837D01*
X0147207Y0014793D01*
X0147163Y0014751D01*
X0147117Y0014713D01*
X0147068Y0014677D01*
X0147017Y0014644D01*
X0146965Y0014615D01*
X0146910Y0014588D01*
X0146855Y0014565D01*
X0146798Y0014545D01*
X0146739Y0014529D01*
X0146680Y0014516D01*
X0146621Y0014507D01*
X0146560Y0014502D01*
X0146500Y0014500D01*
X0129500Y0014500D01*
X0129440Y0014502D01*
X0129379Y0014507D01*
X0129320Y0014516D01*
X0129261Y0014529D01*
X0129202Y0014545D01*
X0129145Y0014565D01*
X0129090Y0014588D01*
X0129035Y0014615D01*
X0128983Y0014644D01*
X0128932Y0014677D01*
X0128883Y0014713D01*
X0128837Y0014751D01*
X0128793Y0014793D01*
X0128751Y0014837D01*
X0128713Y0014883D01*
X0128677Y0014932D01*
X0128644Y0014983D01*
X0128615Y0015035D01*
X0128588Y0015090D01*
X0128565Y0015145D01*
X0128545Y0015202D01*
X0128529Y0015261D01*
X0128516Y0015320D01*
X0128507Y0015379D01*
X0128502Y0015440D01*
X0128500Y0015500D01*
X0128500Y0021500D01*
X0128502Y0021560D01*
X0128507Y0021621D01*
X0128516Y0021680D01*
X0128529Y0021739D01*
X0128545Y0021798D01*
X0128565Y0021855D01*
X0128588Y0021910D01*
X0128615Y0021965D01*
X0128644Y0022017D01*
X0128677Y0022068D01*
X0128713Y0022117D01*
X0128751Y0022163D01*
X0128793Y0022207D01*
X0128837Y0022249D01*
X0128883Y0022287D01*
X0128932Y0022323D01*
X0128983Y0022356D01*
X0129035Y0022385D01*
X0129090Y0022412D01*
X0129145Y0022435D01*
X0129202Y0022455D01*
X0129261Y0022471D01*
X0129320Y0022484D01*
X0129379Y0022493D01*
X0129440Y0022498D01*
X0129500Y0022500D01*
X0146500Y0022500D01*
X0146560Y0022498D01*
X0146621Y0022493D01*
X0146680Y0022484D01*
X0146739Y0022471D01*
X0146798Y0022455D01*
X0146855Y0022435D01*
X0146910Y0022412D01*
X0146965Y0022385D01*
X0147017Y0022356D01*
X0147068Y0022323D01*
X0147117Y0022287D01*
X0147163Y0022249D01*
X0147207Y0022207D01*
X0147249Y0022163D01*
X0147287Y0022117D01*
X0147323Y0022068D01*
X0147356Y0022017D01*
X0147385Y0021965D01*
X0147412Y0021910D01*
X0147435Y0021855D01*
X0147455Y0021798D01*
X0147471Y0021739D01*
X0147484Y0021680D01*
X0147493Y0021621D01*
X0147498Y0021560D01*
X0147500Y0021500D01*
X0144752Y0024300D02*
X0142483Y0024300D01*
X0144752Y0026569D01*
X0144752Y0027136D01*
X0144185Y0027703D01*
X0143050Y0027703D01*
X0142483Y0027136D01*
X0141069Y0027703D02*
X0139934Y0027703D01*
X0140501Y0027703D02*
X0140501Y0024867D01*
X0139934Y0024300D01*
X0139367Y0024300D01*
X0138800Y0024867D01*
X0122500Y0021500D02*
X0122500Y0015500D01*
X0122498Y0015440D01*
X0122493Y0015379D01*
X0122484Y0015320D01*
X0122471Y0015261D01*
X0122455Y0015202D01*
X0122435Y0015145D01*
X0122412Y0015090D01*
X0122385Y0015035D01*
X0122356Y0014983D01*
X0122323Y0014932D01*
X0122287Y0014883D01*
X0122249Y0014837D01*
X0122207Y0014793D01*
X0122163Y0014751D01*
X0122117Y0014713D01*
X0122068Y0014677D01*
X0122017Y0014644D01*
X0121965Y0014615D01*
X0121910Y0014588D01*
X0121855Y0014565D01*
X0121798Y0014545D01*
X0121739Y0014529D01*
X0121680Y0014516D01*
X0121621Y0014507D01*
X0121560Y0014502D01*
X0121500Y0014500D01*
X0104500Y0014500D01*
X0104440Y0014502D01*
X0104379Y0014507D01*
X0104320Y0014516D01*
X0104261Y0014529D01*
X0104202Y0014545D01*
X0104145Y0014565D01*
X0104090Y0014588D01*
X0104035Y0014615D01*
X0103983Y0014644D01*
X0103932Y0014677D01*
X0103883Y0014713D01*
X0103837Y0014751D01*
X0103793Y0014793D01*
X0103751Y0014837D01*
X0103713Y0014883D01*
X0103677Y0014932D01*
X0103644Y0014983D01*
X0103615Y0015035D01*
X0103588Y0015090D01*
X0103565Y0015145D01*
X0103545Y0015202D01*
X0103529Y0015261D01*
X0103516Y0015320D01*
X0103507Y0015379D01*
X0103502Y0015440D01*
X0103500Y0015500D01*
X0103500Y0021500D01*
X0103502Y0021560D01*
X0103507Y0021621D01*
X0103516Y0021680D01*
X0103529Y0021739D01*
X0103545Y0021798D01*
X0103565Y0021855D01*
X0103588Y0021910D01*
X0103615Y0021965D01*
X0103644Y0022017D01*
X0103677Y0022068D01*
X0103713Y0022117D01*
X0103751Y0022163D01*
X0103793Y0022207D01*
X0103837Y0022249D01*
X0103883Y0022287D01*
X0103932Y0022323D01*
X0103983Y0022356D01*
X0104035Y0022385D01*
X0104090Y0022412D01*
X0104145Y0022435D01*
X0104202Y0022455D01*
X0104261Y0022471D01*
X0104320Y0022484D01*
X0104379Y0022493D01*
X0104440Y0022498D01*
X0104500Y0022500D01*
X0121500Y0022500D01*
X0121560Y0022498D01*
X0121621Y0022493D01*
X0121680Y0022484D01*
X0121739Y0022471D01*
X0121798Y0022455D01*
X0121855Y0022435D01*
X0121910Y0022412D01*
X0121965Y0022385D01*
X0122017Y0022356D01*
X0122068Y0022323D01*
X0122117Y0022287D01*
X0122163Y0022249D01*
X0122207Y0022207D01*
X0122249Y0022163D01*
X0122287Y0022117D01*
X0122323Y0022068D01*
X0122356Y0022017D01*
X0122385Y0021965D01*
X0122412Y0021910D01*
X0122435Y0021855D01*
X0122455Y0021798D01*
X0122471Y0021739D01*
X0122484Y0021680D01*
X0122493Y0021621D01*
X0122498Y0021560D01*
X0122500Y0021500D01*
X0111752Y0024867D02*
X0111185Y0024300D01*
X0110050Y0024300D01*
X0109483Y0024867D01*
X0110617Y0026001D02*
X0111185Y0026001D01*
X0111752Y0025434D01*
X0111752Y0024867D01*
X0111185Y0026001D02*
X0111752Y0026569D01*
X0111752Y0027136D01*
X0111185Y0027703D01*
X0110050Y0027703D01*
X0109483Y0027136D01*
X0108069Y0027703D02*
X0106934Y0027703D01*
X0107501Y0027703D02*
X0107501Y0024867D01*
X0106934Y0024300D01*
X0106367Y0024300D01*
X0105800Y0024867D01*
X0097000Y0032500D02*
X0097000Y0015500D01*
X0096998Y0015440D01*
X0096993Y0015379D01*
X0096984Y0015320D01*
X0096971Y0015261D01*
X0096955Y0015202D01*
X0096935Y0015145D01*
X0096912Y0015090D01*
X0096885Y0015035D01*
X0096856Y0014983D01*
X0096823Y0014932D01*
X0096787Y0014883D01*
X0096749Y0014837D01*
X0096707Y0014793D01*
X0096663Y0014751D01*
X0096617Y0014713D01*
X0096568Y0014677D01*
X0096517Y0014644D01*
X0096465Y0014615D01*
X0096410Y0014588D01*
X0096355Y0014565D01*
X0096298Y0014545D01*
X0096239Y0014529D01*
X0096180Y0014516D01*
X0096121Y0014507D01*
X0096060Y0014502D01*
X0096000Y0014500D01*
X0090000Y0014500D01*
X0089940Y0014502D01*
X0089879Y0014507D01*
X0089820Y0014516D01*
X0089761Y0014529D01*
X0089702Y0014545D01*
X0089645Y0014565D01*
X0089590Y0014588D01*
X0089535Y0014615D01*
X0089483Y0014644D01*
X0089432Y0014677D01*
X0089383Y0014713D01*
X0089337Y0014751D01*
X0089293Y0014793D01*
X0089251Y0014837D01*
X0089213Y0014883D01*
X0089177Y0014932D01*
X0089144Y0014983D01*
X0089115Y0015035D01*
X0089088Y0015090D01*
X0089065Y0015145D01*
X0089045Y0015202D01*
X0089029Y0015261D01*
X0089016Y0015320D01*
X0089007Y0015379D01*
X0089002Y0015440D01*
X0089000Y0015500D01*
X0089000Y0032500D01*
X0089002Y0032560D01*
X0089007Y0032621D01*
X0089016Y0032680D01*
X0089029Y0032739D01*
X0089045Y0032798D01*
X0089065Y0032855D01*
X0089088Y0032910D01*
X0089115Y0032965D01*
X0089144Y0033017D01*
X0089177Y0033068D01*
X0089213Y0033117D01*
X0089251Y0033163D01*
X0089293Y0033207D01*
X0089337Y0033249D01*
X0089383Y0033287D01*
X0089432Y0033323D01*
X0089483Y0033356D01*
X0089535Y0033385D01*
X0089590Y0033412D01*
X0089645Y0033435D01*
X0089702Y0033455D01*
X0089761Y0033471D01*
X0089820Y0033484D01*
X0089879Y0033493D01*
X0089940Y0033498D01*
X0090000Y0033500D01*
X0096000Y0033500D01*
X0096060Y0033498D01*
X0096121Y0033493D01*
X0096180Y0033484D01*
X0096239Y0033471D01*
X0096298Y0033455D01*
X0096355Y0033435D01*
X0096410Y0033412D01*
X0096465Y0033385D01*
X0096517Y0033356D01*
X0096568Y0033323D01*
X0096617Y0033287D01*
X0096663Y0033249D01*
X0096707Y0033207D01*
X0096749Y0033163D01*
X0096787Y0033117D01*
X0096823Y0033068D01*
X0096856Y0033017D01*
X0096885Y0032965D01*
X0096912Y0032910D01*
X0096935Y0032855D01*
X0096955Y0032798D01*
X0096971Y0032739D01*
X0096984Y0032680D01*
X0096993Y0032621D01*
X0096998Y0032560D01*
X0097000Y0032500D01*
X0095685Y0035300D02*
X0095685Y0038703D01*
X0093983Y0037001D01*
X0096252Y0037001D01*
X0092569Y0038703D02*
X0091434Y0038703D01*
X0092001Y0038703D02*
X0092001Y0035867D01*
X0091434Y0035300D01*
X0090867Y0035300D01*
X0090300Y0035867D01*
X0024752Y0060367D02*
X0024185Y0059800D01*
X0023050Y0059800D01*
X0022483Y0060367D01*
X0022483Y0060934D01*
X0023050Y0061501D01*
X0024185Y0061501D01*
X0024752Y0060934D01*
X0024752Y0060367D01*
X0024185Y0061501D02*
X0024752Y0062069D01*
X0024752Y0062636D01*
X0024185Y0063203D01*
X0023050Y0063203D01*
X0022483Y0062636D01*
X0022483Y0062069D01*
X0023050Y0061501D01*
X0021069Y0060367D02*
X0020501Y0059800D01*
X0019367Y0059800D01*
X0018800Y0060367D01*
X0018800Y0063203D01*
X0021069Y0063203D02*
X0021069Y0060367D01*
X0015868Y0053203D02*
X0014166Y0053203D01*
X0014166Y0049800D01*
X0015868Y0049800D01*
X0016435Y0050367D01*
X0016435Y0052636D01*
X0015868Y0053203D01*
X0012752Y0053203D02*
X0012752Y0049800D01*
X0010483Y0053203D01*
X0010483Y0049800D01*
X0009069Y0050367D02*
X0009069Y0051501D01*
X0007934Y0051501D01*
X0006800Y0050367D02*
X0007367Y0049800D01*
X0008501Y0049800D01*
X0009069Y0050367D01*
X0006800Y0050367D02*
X0006800Y0052636D01*
X0007367Y0053203D01*
X0008501Y0053203D01*
X0009069Y0052636D01*
X0014500Y0069000D02*
X0018000Y0069000D01*
X0016000Y0069500D02*
X0015500Y0070500D01*
X0016500Y0070500D02*
X0016000Y0069500D01*
X0016000Y0076000D01*
X0017700Y0077092D02*
X0014297Y0077092D01*
X0014297Y0078794D01*
X0014864Y0079361D01*
X0017133Y0079361D01*
X0017700Y0078794D01*
X0017700Y0077092D01*
X0017133Y0080775D02*
X0014864Y0080775D01*
X0014297Y0081342D01*
X0014297Y0082477D01*
X0014864Y0083044D01*
X0017133Y0080775D01*
X0017700Y0081342D01*
X0017700Y0082477D01*
X0017133Y0083044D01*
X0014864Y0083044D01*
X0015999Y0084458D02*
X0015999Y0086727D01*
X0017700Y0088142D02*
X0014297Y0088142D01*
X0014297Y0089843D01*
X0014864Y0090410D01*
X0017133Y0090410D01*
X0017700Y0089843D01*
X0017700Y0088142D01*
X0017133Y0091825D02*
X0017700Y0092392D01*
X0017700Y0093526D01*
X0017133Y0094093D01*
X0016566Y0094093D01*
X0015999Y0093526D01*
X0015999Y0091825D01*
X0017133Y0091825D01*
X0015999Y0091825D02*
X0014864Y0092959D01*
X0014297Y0094093D01*
X0016000Y0095500D02*
X0016000Y0102000D01*
X0016500Y0101000D01*
X0015500Y0101000D02*
X0016000Y0102000D01*
X0014500Y0102500D02*
X0018000Y0102500D01*
X0018685Y0104800D02*
X0016983Y0104800D01*
X0016983Y0108203D01*
X0018685Y0108203D01*
X0019252Y0107636D01*
X0019252Y0105367D01*
X0018685Y0104800D01*
X0020666Y0105367D02*
X0021233Y0104800D01*
X0022368Y0104800D01*
X0022935Y0105367D01*
X0022935Y0105934D01*
X0022368Y0106501D01*
X0021233Y0106501D01*
X0020666Y0107069D01*
X0020666Y0107636D01*
X0021233Y0108203D01*
X0022368Y0108203D01*
X0022935Y0107636D01*
X0023122Y0109800D02*
X0023122Y0113203D01*
X0021233Y0113203D02*
X0021233Y0109800D01*
X0020666Y0109800D02*
X0021801Y0109800D01*
X0023122Y0110934D02*
X0024823Y0112069D01*
X0023122Y0110934D02*
X0024823Y0109800D01*
X0021233Y0113203D02*
X0020666Y0113203D01*
X0019252Y0112636D02*
X0018685Y0113203D01*
X0017550Y0113203D01*
X0016983Y0112636D01*
X0016983Y0110367D01*
X0017550Y0109800D01*
X0018685Y0109800D01*
X0019252Y0110367D01*
X0015569Y0110934D02*
X0015569Y0113203D01*
X0015569Y0110934D02*
X0014434Y0109800D01*
X0013300Y0110934D01*
X0013300Y0113203D01*
X0015569Y0108203D02*
X0013300Y0104800D01*
X0014252Y0132300D02*
X0014252Y0135703D01*
X0015666Y0135703D02*
X0017368Y0135703D01*
X0017935Y0135136D01*
X0017935Y0132867D01*
X0017368Y0132300D01*
X0015666Y0132300D01*
X0015666Y0135703D01*
X0011983Y0135703D02*
X0014252Y0132300D01*
X0011983Y0132300D02*
X0011983Y0135703D01*
X0010569Y0135136D02*
X0010001Y0135703D01*
X0008867Y0135703D01*
X0008300Y0135136D01*
X0008300Y0132867D01*
X0008867Y0132300D01*
X0010001Y0132300D01*
X0010569Y0132867D01*
X0010569Y0134001D01*
X0009434Y0134001D01*
X0012550Y0144800D02*
X0011983Y0145367D01*
X0012550Y0144800D02*
X0013685Y0144800D01*
X0014252Y0145367D01*
X0014252Y0145934D01*
X0013685Y0146501D01*
X0013117Y0146501D01*
X0013685Y0146501D02*
X0014252Y0147069D01*
X0014252Y0147636D01*
X0013685Y0148203D01*
X0012550Y0148203D01*
X0011983Y0147636D01*
X0010569Y0146501D02*
X0008300Y0146501D01*
X0009434Y0145367D02*
X0009434Y0147636D01*
X0015666Y0148203D02*
X0015666Y0145934D01*
X0016801Y0144800D01*
X0017935Y0145934D01*
X0017935Y0148203D01*
X0019349Y0147636D02*
X0019917Y0148203D01*
X0021051Y0148203D01*
X0021618Y0147636D01*
X0021618Y0147069D01*
X0021051Y0146501D01*
X0021618Y0145934D01*
X0021618Y0145367D01*
X0021051Y0144800D01*
X0019917Y0144800D01*
X0019349Y0145367D01*
X0020484Y0146501D02*
X0021051Y0146501D01*
X0030750Y0142563D02*
X0033250Y0142563D01*
X0033250Y0139438D02*
X0030750Y0139438D01*
X0031500Y0148500D02*
X0034500Y0148500D01*
X0034500Y0153500D02*
X0031500Y0153500D01*
X0018252Y0031203D02*
X0015983Y0031203D01*
X0015983Y0029501D01*
X0017117Y0030069D01*
X0017685Y0030069D01*
X0018252Y0029501D01*
X0018252Y0028367D01*
X0017685Y0027800D01*
X0016550Y0027800D01*
X0015983Y0028367D01*
X0014001Y0028367D02*
X0014001Y0031203D01*
X0013434Y0031203D02*
X0014569Y0031203D01*
X0014001Y0028367D02*
X0013434Y0027800D01*
X0012867Y0027800D01*
X0012300Y0028367D01*
D12*
X0031425Y0048579D02*
X0034575Y0048579D01*
X0033000Y0053600D02*
X0039300Y0053600D01*
X0039300Y0058400D01*
X0033000Y0058400D01*
X0033000Y0053600D01*
X0033000Y0053872D02*
X0039300Y0053872D01*
X0039299Y0053500D02*
X0039299Y0054484D01*
X0039300Y0054370D02*
X0033000Y0054370D01*
X0033000Y0054869D02*
X0039300Y0054869D01*
X0039300Y0055368D02*
X0033000Y0055368D01*
X0033000Y0055866D02*
X0039300Y0055866D01*
X0039300Y0056365D02*
X0033000Y0056365D01*
X0033000Y0056863D02*
X0039300Y0056863D01*
X0039300Y0057362D02*
X0033000Y0057362D01*
X0033000Y0057860D02*
X0039300Y0057860D01*
X0039300Y0058359D02*
X0033000Y0058359D01*
X0034575Y0058421D02*
X0031425Y0058421D01*
X0026701Y0054484D02*
X0026701Y0052516D01*
X0039299Y0052516D02*
X0039299Y0053500D01*
X0038601Y0060250D02*
X0039052Y0060700D01*
X0038601Y0060250D02*
X0037700Y0060250D01*
X0037250Y0060700D01*
X0037250Y0062502D01*
X0037700Y0062952D01*
X0038601Y0062952D01*
X0039052Y0062502D01*
X0040197Y0062502D02*
X0040197Y0062052D01*
X0040647Y0061601D01*
X0041548Y0061601D01*
X0041998Y0061151D01*
X0041998Y0060700D01*
X0041548Y0060250D01*
X0040647Y0060250D01*
X0040197Y0060700D01*
X0040197Y0061151D01*
X0040647Y0061601D01*
X0041548Y0061601D02*
X0041998Y0062052D01*
X0041998Y0062502D01*
X0041548Y0062952D01*
X0040647Y0062952D01*
X0040197Y0062502D01*
X0043143Y0062502D02*
X0043143Y0060700D01*
X0044945Y0062502D01*
X0044945Y0060700D01*
X0044494Y0060250D01*
X0043593Y0060250D01*
X0043143Y0060700D01*
X0043143Y0062502D02*
X0043593Y0062952D01*
X0044494Y0062952D01*
X0044945Y0062502D01*
X0046090Y0062052D02*
X0046990Y0062952D01*
X0046990Y0060250D01*
X0046090Y0060250D02*
X0047891Y0060250D01*
X0051250Y0060250D02*
X0051250Y0062952D01*
X0053052Y0062952D01*
X0054197Y0062952D02*
X0055548Y0062952D01*
X0055998Y0062502D01*
X0055998Y0062052D01*
X0055548Y0061601D01*
X0054197Y0061601D01*
X0055548Y0061601D02*
X0055998Y0061151D01*
X0055998Y0060700D01*
X0055548Y0060250D01*
X0054197Y0060250D01*
X0054197Y0062952D01*
X0052151Y0061601D02*
X0051250Y0061601D01*
X0057143Y0061601D02*
X0058945Y0061601D01*
X0058494Y0060250D02*
X0058494Y0062952D01*
X0057143Y0061601D01*
X0073250Y0053452D02*
X0073250Y0050750D01*
X0073250Y0051651D02*
X0074601Y0051651D01*
X0075052Y0052101D01*
X0075052Y0053002D01*
X0074601Y0053452D01*
X0073250Y0053452D01*
X0074151Y0051651D02*
X0075052Y0050750D01*
X0076197Y0050750D02*
X0077998Y0050750D01*
X0077097Y0050750D02*
X0077097Y0053452D01*
X0076197Y0052552D01*
X0079143Y0052101D02*
X0080945Y0052101D01*
X0080494Y0050750D02*
X0080494Y0053452D01*
X0079143Y0052101D01*
X0062494Y0071750D02*
X0061593Y0071750D01*
X0061143Y0072200D01*
X0061143Y0073101D02*
X0062044Y0073552D01*
X0062494Y0073552D01*
X0062945Y0073101D01*
X0062945Y0072200D01*
X0062494Y0071750D01*
X0061143Y0073101D02*
X0061143Y0074452D01*
X0062945Y0074452D01*
X0059097Y0074452D02*
X0059097Y0071750D01*
X0058197Y0071750D02*
X0059998Y0071750D01*
X0058197Y0073552D02*
X0059097Y0074452D01*
X0057052Y0074002D02*
X0057052Y0073101D01*
X0056601Y0072651D01*
X0055250Y0072651D01*
X0056151Y0072651D02*
X0057052Y0071750D01*
X0055250Y0071750D02*
X0055250Y0074452D01*
X0056601Y0074452D01*
X0057052Y0074002D01*
X0044750Y0073750D02*
X0042048Y0073750D01*
X0042048Y0075101D01*
X0042498Y0075552D01*
X0043399Y0075552D01*
X0043849Y0075101D01*
X0043849Y0073750D01*
X0043849Y0074651D02*
X0044750Y0075552D01*
X0044750Y0076697D02*
X0042048Y0076697D01*
X0044750Y0078498D01*
X0042048Y0078498D01*
X0042948Y0079643D02*
X0042048Y0080544D01*
X0044750Y0080544D01*
X0044750Y0079643D02*
X0044750Y0081445D01*
X0044300Y0082590D02*
X0042498Y0084391D01*
X0044300Y0084391D01*
X0044750Y0083941D01*
X0044750Y0083040D01*
X0044300Y0082590D01*
X0042498Y0082590D01*
X0042048Y0083040D01*
X0042048Y0083941D01*
X0042498Y0084391D01*
X0042048Y0088250D02*
X0042048Y0089601D01*
X0042498Y0090052D01*
X0043399Y0090052D01*
X0043849Y0089601D01*
X0043849Y0088250D01*
X0043849Y0089151D02*
X0044750Y0090052D01*
X0044750Y0091197D02*
X0042048Y0091197D01*
X0044750Y0092998D01*
X0042048Y0092998D01*
X0042948Y0094143D02*
X0042048Y0095044D01*
X0044750Y0095044D01*
X0044750Y0094143D02*
X0044750Y0095945D01*
X0044750Y0097090D02*
X0044750Y0098891D01*
X0044750Y0097990D02*
X0042048Y0097990D01*
X0042948Y0097090D01*
X0042048Y0088250D02*
X0044750Y0088250D01*
X0044750Y0105750D02*
X0042048Y0105750D01*
X0042048Y0107101D01*
X0042498Y0107552D01*
X0043399Y0107552D01*
X0043849Y0107101D01*
X0043849Y0105750D01*
X0043849Y0106651D02*
X0044750Y0107552D01*
X0044750Y0108697D02*
X0042048Y0108697D01*
X0044750Y0110498D01*
X0042048Y0110498D01*
X0042948Y0111643D02*
X0042048Y0112544D01*
X0044750Y0112544D01*
X0044750Y0111643D02*
X0044750Y0113445D01*
X0044750Y0114590D02*
X0042948Y0116391D01*
X0042498Y0116391D01*
X0042048Y0115941D01*
X0042048Y0115040D01*
X0042498Y0114590D01*
X0044750Y0114590D02*
X0044750Y0116391D01*
X0049998Y0130750D02*
X0051800Y0130750D01*
X0052250Y0131200D01*
X0052250Y0132101D01*
X0051800Y0132552D01*
X0051800Y0133697D02*
X0052250Y0134147D01*
X0052250Y0135048D01*
X0051800Y0135498D01*
X0051349Y0135498D01*
X0050899Y0135048D01*
X0050899Y0133697D01*
X0051800Y0133697D01*
X0050899Y0133697D02*
X0049998Y0134597D01*
X0049548Y0135498D01*
X0049998Y0136643D02*
X0049548Y0137093D01*
X0049548Y0137994D01*
X0049998Y0138445D01*
X0051800Y0136643D01*
X0052250Y0137093D01*
X0052250Y0137994D01*
X0051800Y0138445D01*
X0049998Y0138445D01*
X0050448Y0139590D02*
X0049548Y0140490D01*
X0052250Y0140490D01*
X0052250Y0139590D02*
X0052250Y0141391D01*
X0051800Y0136643D02*
X0049998Y0136643D01*
X0046250Y0135697D02*
X0045800Y0135697D01*
X0043998Y0137498D01*
X0043548Y0137498D01*
X0043548Y0135697D01*
X0043998Y0134552D02*
X0043548Y0134101D01*
X0043548Y0133200D01*
X0043998Y0132750D01*
X0045800Y0132750D01*
X0046250Y0133200D01*
X0046250Y0134101D01*
X0045800Y0134552D01*
X0049548Y0132101D02*
X0049548Y0131200D01*
X0049998Y0130750D01*
X0049548Y0132101D02*
X0049998Y0132552D01*
X0045800Y0138643D02*
X0043998Y0138643D01*
X0043548Y0139093D01*
X0043548Y0139994D01*
X0043998Y0140445D01*
X0045800Y0138643D01*
X0046250Y0139093D01*
X0046250Y0139994D01*
X0045800Y0140445D01*
X0043998Y0140445D01*
X0044448Y0141590D02*
X0043548Y0142490D01*
X0046250Y0142490D01*
X0046250Y0141590D02*
X0046250Y0143391D01*
X0033544Y0136952D02*
X0032643Y0136052D01*
X0031498Y0136052D02*
X0031048Y0135601D01*
X0029697Y0135601D01*
X0031048Y0135601D02*
X0031498Y0135151D01*
X0031498Y0134700D01*
X0031048Y0134250D01*
X0029697Y0134250D01*
X0029697Y0136952D01*
X0031048Y0136952D01*
X0031498Y0136502D01*
X0031498Y0136052D01*
X0032643Y0134250D02*
X0034445Y0134250D01*
X0033544Y0134250D02*
X0033544Y0136952D01*
X0028552Y0136952D02*
X0026750Y0136952D01*
X0026750Y0134250D01*
X0026750Y0135601D02*
X0027651Y0135601D01*
X0026498Y0155250D02*
X0024697Y0155250D01*
X0025597Y0155250D02*
X0025597Y0157952D01*
X0024697Y0157052D01*
X0023552Y0157502D02*
X0023101Y0157952D01*
X0022200Y0157952D01*
X0021750Y0157502D01*
X0021750Y0155700D01*
X0022200Y0155250D01*
X0023101Y0155250D01*
X0023552Y0155700D01*
X0079548Y0155941D02*
X0079548Y0155040D01*
X0079998Y0154590D01*
X0079998Y0153445D02*
X0081800Y0151643D01*
X0082250Y0152093D01*
X0082250Y0152994D01*
X0081800Y0153445D01*
X0079998Y0153445D01*
X0079548Y0152994D01*
X0079548Y0152093D01*
X0079998Y0151643D01*
X0081800Y0151643D01*
X0079998Y0150498D02*
X0081800Y0148697D01*
X0082250Y0148697D01*
X0081800Y0147552D02*
X0082250Y0147101D01*
X0082250Y0146200D01*
X0081800Y0145750D01*
X0079998Y0145750D01*
X0079548Y0146200D01*
X0079548Y0147101D01*
X0079998Y0147552D01*
X0079548Y0148697D02*
X0079548Y0150498D01*
X0079998Y0150498D01*
X0082250Y0154590D02*
X0080448Y0156391D01*
X0079998Y0156391D01*
X0079548Y0155941D01*
X0082250Y0156391D02*
X0082250Y0154590D01*
X0100750Y0152452D02*
X0100750Y0149750D01*
X0100750Y0151101D02*
X0101651Y0151101D01*
X0100750Y0152452D02*
X0102552Y0152452D01*
X0103697Y0152452D02*
X0103697Y0149750D01*
X0105048Y0149750D01*
X0105498Y0150200D01*
X0105498Y0150651D01*
X0105048Y0151101D01*
X0103697Y0151101D01*
X0105048Y0151101D02*
X0105498Y0151552D01*
X0105498Y0152002D01*
X0105048Y0152452D01*
X0103697Y0152452D01*
X0106643Y0152002D02*
X0107093Y0152452D01*
X0107994Y0152452D01*
X0108445Y0152002D01*
X0108445Y0151552D01*
X0107994Y0151101D01*
X0108445Y0150651D01*
X0108445Y0150200D01*
X0107994Y0149750D01*
X0107093Y0149750D01*
X0106643Y0150200D01*
X0107544Y0151101D02*
X0107994Y0151101D01*
X0082250Y0141391D02*
X0082250Y0139590D01*
X0080448Y0141391D01*
X0079998Y0141391D01*
X0079548Y0140941D01*
X0079548Y0140040D01*
X0079998Y0139590D01*
X0079998Y0138445D02*
X0081800Y0136643D01*
X0082250Y0137093D01*
X0082250Y0137994D01*
X0081800Y0138445D01*
X0079998Y0138445D01*
X0079548Y0137994D01*
X0079548Y0137093D01*
X0079998Y0136643D01*
X0081800Y0136643D01*
X0081800Y0135498D02*
X0081349Y0135498D01*
X0080899Y0135048D01*
X0080899Y0133697D01*
X0081800Y0133697D01*
X0082250Y0134147D01*
X0082250Y0135048D01*
X0081800Y0135498D01*
X0080899Y0133697D02*
X0079998Y0134597D01*
X0079548Y0135498D01*
X0079998Y0132552D02*
X0079548Y0132101D01*
X0079548Y0131200D01*
X0079998Y0130750D01*
X0081800Y0130750D01*
X0082250Y0131200D01*
X0082250Y0132101D01*
X0081800Y0132552D01*
X0091750Y0132200D02*
X0092200Y0131750D01*
X0093101Y0131750D01*
X0093552Y0132200D01*
X0094697Y0131750D02*
X0096498Y0131750D01*
X0095597Y0131750D02*
X0095597Y0134452D01*
X0094697Y0133552D01*
X0093552Y0134002D02*
X0093101Y0134452D01*
X0092200Y0134452D01*
X0091750Y0134002D01*
X0091750Y0132200D01*
X0097643Y0131750D02*
X0099445Y0133552D01*
X0099445Y0134002D01*
X0098994Y0134452D01*
X0098093Y0134452D01*
X0097643Y0134002D01*
X0097643Y0131750D02*
X0099445Y0131750D01*
X0100590Y0131750D02*
X0102391Y0131750D01*
X0101490Y0131750D02*
X0101490Y0134452D01*
X0100590Y0133552D01*
X0151548Y0130445D02*
X0151998Y0129544D01*
X0152899Y0128643D01*
X0152899Y0129994D01*
X0153349Y0130445D01*
X0153800Y0130445D01*
X0154250Y0129994D01*
X0154250Y0129093D01*
X0153800Y0128643D01*
X0152899Y0128643D01*
X0154250Y0127498D02*
X0154250Y0125697D01*
X0154250Y0126597D02*
X0151548Y0126597D01*
X0152448Y0125697D01*
X0151998Y0124552D02*
X0152899Y0124552D01*
X0153349Y0124101D01*
X0153349Y0122750D01*
X0153349Y0123651D02*
X0154250Y0124552D01*
X0154250Y0122750D02*
X0151548Y0122750D01*
X0151548Y0124101D01*
X0151998Y0124552D01*
X0168750Y0124250D02*
X0168750Y0126952D01*
X0170101Y0126952D01*
X0170552Y0126502D01*
X0170552Y0125601D01*
X0170101Y0125151D01*
X0168750Y0125151D01*
X0169651Y0125151D02*
X0170552Y0124250D01*
X0171697Y0124700D02*
X0172147Y0124250D01*
X0173048Y0124250D01*
X0173498Y0124700D01*
X0173498Y0125151D01*
X0173048Y0125601D01*
X0172597Y0125601D01*
X0173048Y0125601D02*
X0173498Y0126052D01*
X0173498Y0126502D01*
X0173048Y0126952D01*
X0172147Y0126952D01*
X0171697Y0126502D01*
X0174643Y0126502D02*
X0175093Y0126952D01*
X0175994Y0126952D01*
X0176445Y0126502D01*
X0176445Y0126052D01*
X0174643Y0124250D01*
X0176445Y0124250D01*
X0176445Y0134250D02*
X0174643Y0134250D01*
X0175544Y0134250D02*
X0175544Y0136952D01*
X0174643Y0136052D01*
X0173498Y0136052D02*
X0173048Y0135601D01*
X0173498Y0135151D01*
X0173498Y0134700D01*
X0173048Y0134250D01*
X0172147Y0134250D01*
X0171697Y0134700D01*
X0170552Y0134250D02*
X0169651Y0135151D01*
X0170101Y0135151D02*
X0168750Y0135151D01*
X0168750Y0134250D02*
X0168750Y0136952D01*
X0170101Y0136952D01*
X0170552Y0136502D01*
X0170552Y0135601D01*
X0170101Y0135151D01*
X0171697Y0136502D02*
X0172147Y0136952D01*
X0173048Y0136952D01*
X0173498Y0136502D01*
X0173498Y0136052D01*
X0173048Y0135601D02*
X0172597Y0135601D01*
X0182250Y0134700D02*
X0182700Y0134250D01*
X0183601Y0134250D01*
X0184052Y0134700D01*
X0185197Y0134700D02*
X0185647Y0134250D01*
X0186548Y0134250D01*
X0186998Y0134700D01*
X0186998Y0135151D01*
X0186548Y0135601D01*
X0186097Y0135601D01*
X0186548Y0135601D02*
X0186998Y0136052D01*
X0186998Y0136502D01*
X0186548Y0136952D01*
X0185647Y0136952D01*
X0185197Y0136502D01*
X0184052Y0136502D02*
X0183601Y0136952D01*
X0182700Y0136952D01*
X0182250Y0136502D01*
X0182250Y0134700D01*
X0188143Y0134700D02*
X0189945Y0136502D01*
X0189945Y0134700D01*
X0189494Y0134250D01*
X0188593Y0134250D01*
X0188143Y0134700D01*
X0188143Y0136502D01*
X0188593Y0136952D01*
X0189494Y0136952D01*
X0189945Y0136502D01*
X0191090Y0136502D02*
X0191540Y0136952D01*
X0192441Y0136952D01*
X0192891Y0136502D01*
X0192891Y0136052D01*
X0191090Y0134250D01*
X0192891Y0134250D01*
X0193093Y0139250D02*
X0192643Y0139700D01*
X0194445Y0141502D01*
X0194445Y0139700D01*
X0193994Y0139250D01*
X0193093Y0139250D01*
X0192643Y0139700D02*
X0192643Y0141502D01*
X0193093Y0141952D01*
X0193994Y0141952D01*
X0194445Y0141502D01*
X0195590Y0141052D02*
X0196490Y0141952D01*
X0196490Y0139250D01*
X0195590Y0139250D02*
X0197391Y0139250D01*
X0191498Y0139700D02*
X0191048Y0139250D01*
X0190147Y0139250D01*
X0189697Y0139700D01*
X0188552Y0139700D02*
X0188101Y0139250D01*
X0187200Y0139250D01*
X0186750Y0139700D01*
X0186750Y0141502D01*
X0187200Y0141952D01*
X0188101Y0141952D01*
X0188552Y0141502D01*
X0189697Y0141502D02*
X0190147Y0141952D01*
X0191048Y0141952D01*
X0191498Y0141502D01*
X0191498Y0141052D01*
X0191048Y0140601D01*
X0191498Y0140151D01*
X0191498Y0139700D01*
X0191048Y0140601D02*
X0190597Y0140601D01*
X0191349Y0145250D02*
X0191349Y0146601D01*
X0190899Y0147052D01*
X0189998Y0147052D01*
X0189548Y0146601D01*
X0189548Y0145250D01*
X0192250Y0145250D01*
X0191349Y0146151D02*
X0192250Y0147052D01*
X0192250Y0148197D02*
X0189548Y0148197D01*
X0192250Y0149998D01*
X0189548Y0149998D01*
X0190899Y0151143D02*
X0189548Y0152494D01*
X0192250Y0152494D01*
X0190899Y0152945D02*
X0190899Y0151143D01*
X0190448Y0154090D02*
X0189548Y0154990D01*
X0192250Y0154990D01*
X0192250Y0154090D02*
X0192250Y0155891D01*
X0178012Y0154776D02*
X0178012Y0142224D01*
X0166988Y0142224D01*
X0166988Y0154776D01*
X0178012Y0154776D01*
X0172500Y0154677D02*
X0167382Y0154677D01*
X0167382Y0148500D01*
X0172500Y0148500D01*
X0172500Y0154677D01*
X0172500Y0154571D02*
X0167382Y0154571D01*
X0167382Y0154073D02*
X0172500Y0154073D01*
X0172500Y0153574D02*
X0167382Y0153574D01*
X0167382Y0153076D02*
X0172500Y0153076D01*
X0172500Y0152577D02*
X0167382Y0152577D01*
X0167382Y0152079D02*
X0172500Y0152079D01*
X0172500Y0151580D02*
X0167382Y0151580D01*
X0167382Y0151082D02*
X0172500Y0151082D01*
X0172500Y0150583D02*
X0167382Y0150583D01*
X0167382Y0150085D02*
X0172500Y0150085D01*
X0172500Y0149586D02*
X0167382Y0149586D01*
X0167382Y0149088D02*
X0172500Y0149088D01*
X0172500Y0148589D02*
X0167382Y0148589D01*
X0194548Y0128494D02*
X0194998Y0128945D01*
X0195448Y0128945D01*
X0195899Y0128494D01*
X0196349Y0128945D01*
X0196800Y0128945D01*
X0197250Y0128494D01*
X0197250Y0127593D01*
X0196800Y0127143D01*
X0196800Y0125998D02*
X0197250Y0125548D01*
X0197250Y0124647D01*
X0196800Y0124197D01*
X0196800Y0123052D02*
X0197250Y0122601D01*
X0197250Y0121700D01*
X0196800Y0121250D01*
X0194998Y0121250D01*
X0194548Y0121700D01*
X0194548Y0122601D01*
X0194998Y0123052D01*
X0194998Y0124197D02*
X0194548Y0124647D01*
X0194548Y0125548D01*
X0194998Y0125998D01*
X0195448Y0125998D01*
X0195899Y0125548D01*
X0196349Y0125998D01*
X0196800Y0125998D01*
X0195899Y0125548D02*
X0195899Y0125097D01*
X0194998Y0127143D02*
X0194548Y0127593D01*
X0194548Y0128494D01*
X0195899Y0128494D02*
X0195899Y0128044D01*
X0195899Y0116945D02*
X0195899Y0115143D01*
X0194548Y0116494D01*
X0197250Y0116494D01*
X0196800Y0113998D02*
X0197250Y0113548D01*
X0197250Y0112647D01*
X0196800Y0112197D01*
X0196800Y0111052D02*
X0197250Y0110601D01*
X0197250Y0109700D01*
X0196800Y0109250D01*
X0194998Y0109250D01*
X0194548Y0109700D01*
X0194548Y0110601D01*
X0194998Y0111052D01*
X0194998Y0112197D02*
X0194548Y0112647D01*
X0194548Y0113548D01*
X0194998Y0113998D01*
X0195448Y0113998D01*
X0195899Y0113548D01*
X0196349Y0113998D01*
X0196800Y0113998D01*
X0195899Y0113548D02*
X0195899Y0113097D01*
X0218048Y0100044D02*
X0220750Y0100044D01*
X0220750Y0099143D02*
X0220750Y0100945D01*
X0218948Y0099143D02*
X0218048Y0100044D01*
X0218498Y0097998D02*
X0218048Y0097548D01*
X0218048Y0096647D01*
X0218498Y0096197D01*
X0218498Y0095052D02*
X0219399Y0095052D01*
X0219849Y0094601D01*
X0219849Y0093250D01*
X0219849Y0094151D02*
X0220750Y0095052D01*
X0220750Y0096197D02*
X0218948Y0097998D01*
X0218498Y0097998D01*
X0220750Y0097998D02*
X0220750Y0096197D01*
X0218498Y0095052D02*
X0218048Y0094601D01*
X0218048Y0093250D01*
X0220750Y0093250D01*
X0235151Y0106750D02*
X0234250Y0107651D01*
X0234250Y0108552D01*
X0235151Y0109452D01*
X0236214Y0109452D02*
X0238016Y0109452D01*
X0238016Y0109002D01*
X0236214Y0107200D01*
X0236214Y0106750D01*
X0239161Y0107200D02*
X0239611Y0106750D01*
X0240512Y0106750D01*
X0240962Y0107200D01*
X0240962Y0108101D01*
X0240512Y0108552D01*
X0240062Y0108552D01*
X0239161Y0108101D01*
X0239161Y0109452D01*
X0240962Y0109452D01*
X0242107Y0109002D02*
X0242558Y0109452D01*
X0243459Y0109452D01*
X0243909Y0109002D01*
X0243909Y0108101D01*
X0243459Y0107651D01*
X0243459Y0106750D01*
X0243909Y0106750D01*
X0245054Y0106750D02*
X0245955Y0107651D01*
X0245955Y0108552D01*
X0245054Y0109452D01*
X0242107Y0109002D02*
X0242107Y0108101D01*
X0242558Y0107651D01*
X0242558Y0106750D01*
X0242107Y0106750D01*
X0231445Y0116700D02*
X0230994Y0116250D01*
X0230093Y0116250D01*
X0229643Y0116700D01*
X0228498Y0116700D02*
X0228048Y0116250D01*
X0227147Y0116250D01*
X0226697Y0116700D01*
X0225552Y0116250D02*
X0224651Y0117151D01*
X0225101Y0117151D02*
X0223750Y0117151D01*
X0223750Y0116250D02*
X0223750Y0118952D01*
X0225101Y0118952D01*
X0225552Y0118502D01*
X0225552Y0117601D01*
X0225101Y0117151D01*
X0226697Y0118502D02*
X0227147Y0118952D01*
X0228048Y0118952D01*
X0228498Y0118502D01*
X0228498Y0118052D01*
X0228048Y0117601D01*
X0228498Y0117151D01*
X0228498Y0116700D01*
X0228048Y0117601D02*
X0227597Y0117601D01*
X0229643Y0118502D02*
X0230093Y0118952D01*
X0230994Y0118952D01*
X0231445Y0118502D01*
X0231445Y0118052D01*
X0230994Y0117601D01*
X0231445Y0117151D01*
X0231445Y0116700D01*
X0230994Y0117601D02*
X0230544Y0117601D01*
X0230849Y0077891D02*
X0231300Y0077891D01*
X0231750Y0077441D01*
X0231750Y0076540D01*
X0231300Y0076090D01*
X0231750Y0074945D02*
X0231750Y0073143D01*
X0229948Y0074945D01*
X0229498Y0074945D01*
X0229048Y0074494D01*
X0229048Y0073593D01*
X0229498Y0073143D01*
X0229048Y0071998D02*
X0231750Y0071998D01*
X0229048Y0070197D01*
X0231750Y0070197D01*
X0231750Y0069052D02*
X0230849Y0068151D01*
X0230849Y0068601D02*
X0230849Y0067250D01*
X0231750Y0067250D02*
X0229048Y0067250D01*
X0229048Y0068601D01*
X0229498Y0069052D01*
X0230399Y0069052D01*
X0230849Y0068601D01*
X0229498Y0076090D02*
X0229048Y0076540D01*
X0229048Y0077441D01*
X0229498Y0077891D01*
X0229948Y0077891D01*
X0230399Y0077441D01*
X0230849Y0077891D01*
X0230399Y0077441D02*
X0230399Y0076990D01*
X0234250Y0054452D02*
X0236052Y0054452D01*
X0237197Y0054452D02*
X0238548Y0054452D01*
X0238998Y0054002D01*
X0238998Y0053552D01*
X0238548Y0053101D01*
X0237197Y0053101D01*
X0238548Y0053101D02*
X0238998Y0052651D01*
X0238998Y0052200D01*
X0238548Y0051750D01*
X0237197Y0051750D01*
X0237197Y0054452D01*
X0235151Y0053101D02*
X0234250Y0053101D01*
X0234250Y0051750D02*
X0234250Y0054452D01*
X0240143Y0054002D02*
X0240593Y0054452D01*
X0241494Y0054452D01*
X0241945Y0054002D01*
X0241945Y0053552D01*
X0240143Y0051750D01*
X0241945Y0051750D01*
X0224498Y0036502D02*
X0224048Y0036952D01*
X0223147Y0036952D01*
X0222697Y0036502D01*
X0221552Y0036502D02*
X0221101Y0036952D01*
X0220200Y0036952D01*
X0219750Y0036502D01*
X0219750Y0034700D01*
X0220200Y0034250D01*
X0221101Y0034250D01*
X0221552Y0034700D01*
X0222697Y0034250D02*
X0224498Y0036052D01*
X0224498Y0036502D01*
X0224498Y0034250D02*
X0222697Y0034250D01*
D13*
X0196910Y0035502D02*
X0194108Y0035502D01*
X0196210Y0037604D01*
X0196210Y0033400D01*
X0192306Y0034101D02*
X0192306Y0034801D01*
X0191606Y0035502D01*
X0189504Y0035502D01*
X0189504Y0034101D01*
X0190205Y0033400D01*
X0191606Y0033400D01*
X0192306Y0034101D01*
X0190905Y0036903D02*
X0189504Y0035502D01*
X0190905Y0036903D02*
X0192306Y0037604D01*
X0187702Y0037604D02*
X0187702Y0033400D01*
X0184900Y0037604D01*
X0184900Y0033400D01*
X0179225Y0082113D02*
X0126887Y0029775D01*
X0124112Y0029775D01*
X0071775Y0082113D01*
X0071775Y0084887D01*
X0124112Y0137225D01*
X0126887Y0137225D01*
X0179225Y0084887D01*
X0179225Y0082113D01*
X0084370Y0045535D02*
X0084370Y0012465D01*
X0068378Y0012465D01*
X0068378Y0013646D01*
X0062555Y0013646D01*
X0062555Y0012465D01*
X0052413Y0012465D01*
X0037587Y0012465D01*
X0005630Y0012465D01*
X0005630Y0045535D01*
X0084370Y0045535D01*
X0079941Y0041894D02*
X0079941Y0016106D01*
X0052413Y0016106D01*
X0052413Y0018567D02*
X0052413Y0012465D01*
X0052413Y0018567D02*
X0037587Y0018567D01*
X0037587Y0012465D01*
X0037587Y0016106D02*
X0010059Y0016106D01*
X0010059Y0041894D01*
X0079941Y0041894D01*
X0078989Y0083500D02*
X0078991Y0083588D01*
X0078997Y0083676D01*
X0079007Y0083764D01*
X0079021Y0083852D01*
X0079038Y0083938D01*
X0079060Y0084024D01*
X0079085Y0084108D01*
X0079115Y0084192D01*
X0079147Y0084274D01*
X0079184Y0084354D01*
X0079224Y0084433D01*
X0079268Y0084510D01*
X0079315Y0084585D01*
X0079365Y0084657D01*
X0079419Y0084728D01*
X0079475Y0084795D01*
X0079535Y0084861D01*
X0079597Y0084923D01*
X0079663Y0084983D01*
X0079730Y0085039D01*
X0079801Y0085093D01*
X0079873Y0085143D01*
X0079948Y0085190D01*
X0080025Y0085234D01*
X0080104Y0085274D01*
X0080184Y0085311D01*
X0080266Y0085343D01*
X0080350Y0085373D01*
X0080434Y0085398D01*
X0080520Y0085420D01*
X0080606Y0085437D01*
X0080694Y0085451D01*
X0080782Y0085461D01*
X0080870Y0085467D01*
X0080958Y0085469D01*
X0081046Y0085467D01*
X0081134Y0085461D01*
X0081222Y0085451D01*
X0081310Y0085437D01*
X0081396Y0085420D01*
X0081482Y0085398D01*
X0081566Y0085373D01*
X0081650Y0085343D01*
X0081732Y0085311D01*
X0081812Y0085274D01*
X0081891Y0085234D01*
X0081968Y0085190D01*
X0082043Y0085143D01*
X0082115Y0085093D01*
X0082186Y0085039D01*
X0082253Y0084983D01*
X0082319Y0084923D01*
X0082381Y0084861D01*
X0082441Y0084795D01*
X0082497Y0084728D01*
X0082551Y0084657D01*
X0082601Y0084585D01*
X0082648Y0084510D01*
X0082692Y0084433D01*
X0082732Y0084354D01*
X0082769Y0084274D01*
X0082801Y0084192D01*
X0082831Y0084108D01*
X0082856Y0084024D01*
X0082878Y0083938D01*
X0082895Y0083852D01*
X0082909Y0083764D01*
X0082919Y0083676D01*
X0082925Y0083588D01*
X0082927Y0083500D01*
X0082925Y0083412D01*
X0082919Y0083324D01*
X0082909Y0083236D01*
X0082895Y0083148D01*
X0082878Y0083062D01*
X0082856Y0082976D01*
X0082831Y0082892D01*
X0082801Y0082808D01*
X0082769Y0082726D01*
X0082732Y0082646D01*
X0082692Y0082567D01*
X0082648Y0082490D01*
X0082601Y0082415D01*
X0082551Y0082343D01*
X0082497Y0082272D01*
X0082441Y0082205D01*
X0082381Y0082139D01*
X0082319Y0082077D01*
X0082253Y0082017D01*
X0082186Y0081961D01*
X0082115Y0081907D01*
X0082043Y0081857D01*
X0081968Y0081810D01*
X0081891Y0081766D01*
X0081812Y0081726D01*
X0081732Y0081689D01*
X0081650Y0081657D01*
X0081566Y0081627D01*
X0081482Y0081602D01*
X0081396Y0081580D01*
X0081310Y0081563D01*
X0081222Y0081549D01*
X0081134Y0081539D01*
X0081046Y0081533D01*
X0080958Y0081531D01*
X0080870Y0081533D01*
X0080782Y0081539D01*
X0080694Y0081549D01*
X0080606Y0081563D01*
X0080520Y0081580D01*
X0080434Y0081602D01*
X0080350Y0081627D01*
X0080266Y0081657D01*
X0080184Y0081689D01*
X0080104Y0081726D01*
X0080025Y0081766D01*
X0079948Y0081810D01*
X0079873Y0081857D01*
X0079801Y0081907D01*
X0079730Y0081961D01*
X0079663Y0082017D01*
X0079597Y0082077D01*
X0079535Y0082139D01*
X0079475Y0082205D01*
X0079419Y0082272D01*
X0079365Y0082343D01*
X0079315Y0082415D01*
X0079268Y0082490D01*
X0079224Y0082567D01*
X0079184Y0082646D01*
X0079147Y0082726D01*
X0079115Y0082808D01*
X0079085Y0082892D01*
X0079060Y0082976D01*
X0079038Y0083062D01*
X0079021Y0083148D01*
X0079007Y0083236D01*
X0078997Y0083324D01*
X0078991Y0083412D01*
X0078989Y0083500D01*
D14*
X0087276Y0030500D02*
X0087278Y0030529D01*
X0087284Y0030558D01*
X0087293Y0030586D01*
X0087306Y0030612D01*
X0087322Y0030636D01*
X0087342Y0030658D01*
X0087364Y0030678D01*
X0087388Y0030694D01*
X0087414Y0030707D01*
X0087442Y0030716D01*
X0087471Y0030722D01*
X0087500Y0030724D01*
X0087529Y0030722D01*
X0087558Y0030716D01*
X0087586Y0030707D01*
X0087612Y0030694D01*
X0087636Y0030678D01*
X0087658Y0030658D01*
X0087678Y0030636D01*
X0087694Y0030612D01*
X0087707Y0030586D01*
X0087716Y0030558D01*
X0087722Y0030529D01*
X0087724Y0030500D01*
X0087722Y0030471D01*
X0087716Y0030442D01*
X0087707Y0030414D01*
X0087694Y0030388D01*
X0087678Y0030364D01*
X0087658Y0030342D01*
X0087636Y0030322D01*
X0087612Y0030306D01*
X0087586Y0030293D01*
X0087558Y0030284D01*
X0087529Y0030278D01*
X0087500Y0030276D01*
X0087471Y0030278D01*
X0087442Y0030284D01*
X0087414Y0030293D01*
X0087388Y0030306D01*
X0087364Y0030322D01*
X0087342Y0030342D01*
X0087322Y0030364D01*
X0087306Y0030388D01*
X0087293Y0030414D01*
X0087284Y0030442D01*
X0087278Y0030471D01*
X0087276Y0030500D01*
X0106276Y0013000D02*
X0106278Y0013029D01*
X0106284Y0013058D01*
X0106293Y0013086D01*
X0106306Y0013112D01*
X0106322Y0013136D01*
X0106342Y0013158D01*
X0106364Y0013178D01*
X0106388Y0013194D01*
X0106414Y0013207D01*
X0106442Y0013216D01*
X0106471Y0013222D01*
X0106500Y0013224D01*
X0106529Y0013222D01*
X0106558Y0013216D01*
X0106586Y0013207D01*
X0106612Y0013194D01*
X0106636Y0013178D01*
X0106658Y0013158D01*
X0106678Y0013136D01*
X0106694Y0013112D01*
X0106707Y0013086D01*
X0106716Y0013058D01*
X0106722Y0013029D01*
X0106724Y0013000D01*
X0106722Y0012971D01*
X0106716Y0012942D01*
X0106707Y0012914D01*
X0106694Y0012888D01*
X0106678Y0012864D01*
X0106658Y0012842D01*
X0106636Y0012822D01*
X0106612Y0012806D01*
X0106586Y0012793D01*
X0106558Y0012784D01*
X0106529Y0012778D01*
X0106500Y0012776D01*
X0106471Y0012778D01*
X0106442Y0012784D01*
X0106414Y0012793D01*
X0106388Y0012806D01*
X0106364Y0012822D01*
X0106342Y0012842D01*
X0106322Y0012864D01*
X0106306Y0012888D01*
X0106293Y0012914D01*
X0106284Y0012942D01*
X0106278Y0012971D01*
X0106276Y0013000D01*
X0131776Y0013000D02*
X0131778Y0013029D01*
X0131784Y0013058D01*
X0131793Y0013086D01*
X0131806Y0013112D01*
X0131822Y0013136D01*
X0131842Y0013158D01*
X0131864Y0013178D01*
X0131888Y0013194D01*
X0131914Y0013207D01*
X0131942Y0013216D01*
X0131971Y0013222D01*
X0132000Y0013224D01*
X0132029Y0013222D01*
X0132058Y0013216D01*
X0132086Y0013207D01*
X0132112Y0013194D01*
X0132136Y0013178D01*
X0132158Y0013158D01*
X0132178Y0013136D01*
X0132194Y0013112D01*
X0132207Y0013086D01*
X0132216Y0013058D01*
X0132222Y0013029D01*
X0132224Y0013000D01*
X0132222Y0012971D01*
X0132216Y0012942D01*
X0132207Y0012914D01*
X0132194Y0012888D01*
X0132178Y0012864D01*
X0132158Y0012842D01*
X0132136Y0012822D01*
X0132112Y0012806D01*
X0132086Y0012793D01*
X0132058Y0012784D01*
X0132029Y0012778D01*
X0132000Y0012776D01*
X0131971Y0012778D01*
X0131942Y0012784D01*
X0131914Y0012793D01*
X0131888Y0012806D01*
X0131864Y0012822D01*
X0131842Y0012842D01*
X0131822Y0012864D01*
X0131806Y0012888D01*
X0131793Y0012914D01*
X0131784Y0012942D01*
X0131778Y0012971D01*
X0131776Y0013000D01*
X0118776Y0157500D02*
X0118778Y0157529D01*
X0118784Y0157558D01*
X0118793Y0157586D01*
X0118806Y0157612D01*
X0118822Y0157636D01*
X0118842Y0157658D01*
X0118864Y0157678D01*
X0118888Y0157694D01*
X0118914Y0157707D01*
X0118942Y0157716D01*
X0118971Y0157722D01*
X0119000Y0157724D01*
X0119029Y0157722D01*
X0119058Y0157716D01*
X0119086Y0157707D01*
X0119112Y0157694D01*
X0119136Y0157678D01*
X0119158Y0157658D01*
X0119178Y0157636D01*
X0119194Y0157612D01*
X0119207Y0157586D01*
X0119216Y0157558D01*
X0119222Y0157529D01*
X0119224Y0157500D01*
X0119222Y0157471D01*
X0119216Y0157442D01*
X0119207Y0157414D01*
X0119194Y0157388D01*
X0119178Y0157364D01*
X0119158Y0157342D01*
X0119136Y0157322D01*
X0119112Y0157306D01*
X0119086Y0157293D01*
X0119058Y0157284D01*
X0119029Y0157278D01*
X0119000Y0157276D01*
X0118971Y0157278D01*
X0118942Y0157284D01*
X0118914Y0157293D01*
X0118888Y0157306D01*
X0118864Y0157322D01*
X0118842Y0157342D01*
X0118822Y0157364D01*
X0118806Y0157388D01*
X0118793Y0157414D01*
X0118784Y0157442D01*
X0118778Y0157471D01*
X0118776Y0157500D01*
D15*
X0172738Y0055279D02*
X0175485Y0056243D01*
X0178269Y0055291D01*
X0175592Y0054233D01*
X0172738Y0055279D01*
X0171156Y0052389D01*
X0172476Y0049713D01*
X0172476Y0043742D01*
X0168491Y0051485D01*
X0171085Y0052532D01*
X0172476Y0049713D01*
X0172476Y0049844D01*
X0175628Y0048559D01*
X0175628Y0036630D01*
X0172679Y0037843D01*
X0168361Y0045693D01*
X0168361Y0039615D01*
X0165518Y0040781D01*
X0165518Y0052698D01*
X0168491Y0051485D01*
X0168254Y0053590D02*
X0165518Y0052698D01*
X0168254Y0053590D02*
X0171085Y0052532D01*
X0172476Y0049844D02*
X0175592Y0051093D01*
X0178697Y0049820D01*
X0182717Y0044123D01*
X0182717Y0051462D01*
X0185726Y0052698D01*
X0185726Y0040781D01*
X0182871Y0039603D01*
X0178589Y0045134D01*
X0178589Y0042042D01*
X0178589Y0037855D01*
X0175628Y0036630D01*
X0179565Y0040745D02*
X0182871Y0039603D01*
X0179565Y0040745D02*
X0178589Y0042042D01*
X0171085Y0040733D02*
X0168361Y0039615D01*
X0171085Y0040733D02*
X0168361Y0045693D01*
X0172476Y0049844D02*
X0173202Y0050129D01*
X0175592Y0051093D01*
X0177709Y0050225D01*
X0179933Y0052520D01*
X0182717Y0051462D01*
X0182871Y0053733D02*
X0179933Y0052520D01*
X0178269Y0050807D02*
X0178269Y0055291D01*
X0175592Y0054233D02*
X0173202Y0050129D01*
X0175628Y0048559D02*
X0178697Y0049820D01*
X0177709Y0050225D01*
X0182871Y0053733D02*
X0185726Y0052698D01*
D16*
X0235047Y0064398D02*
X0240953Y0064398D01*
X0240953Y0076602D02*
X0235047Y0076602D01*
X0202453Y0144398D02*
X0196547Y0144398D01*
X0196547Y0156602D02*
X0202453Y0156602D01*
X0038453Y0117102D02*
X0032547Y0117102D01*
X0032547Y0104898D02*
X0038453Y0104898D01*
X0038453Y0099602D02*
X0032547Y0099602D01*
X0032547Y0087398D02*
X0038453Y0087398D01*
X0038453Y0082102D02*
X0032547Y0082102D01*
X0032547Y0069898D02*
X0038453Y0069898D01*
M02*
