G75*
%MOIN*%
%OFA0B0*%
%FSLAX25Y25*%
%IPPOS*%
%LPD*%
%AMOC8*
5,1,8,0,0,1.08239X$1,22.5*
%
%ADD10C,0.00000*%
%ADD11C,0.00800*%
%ADD12R,0.05518X0.06306*%
%ADD13R,0.04731X0.04337*%
%ADD14R,0.04337X0.04731*%
%ADD15C,0.06337*%
%ADD16R,0.02900X0.08900*%
%ADD17C,0.22054*%
%ADD18C,0.03175*%
%ADD19C,0.03962*%
D10*
X0009500Y0011000D02*
X0227500Y0011000D01*
X0231500Y0015000D01*
X0235500Y0015000D01*
X0239500Y0011000D01*
X0241000Y0011000D01*
X0245000Y0015000D01*
X0248500Y0015000D01*
X0252500Y0011000D01*
X0253500Y0011000D01*
X0258500Y0016000D01*
X0258500Y0116000D01*
X0239000Y0135500D01*
X0239000Y0157000D01*
X0236500Y0159500D01*
X0017000Y0159500D01*
X0004500Y0147000D01*
X0004500Y0016000D01*
X0009500Y0011000D01*
D11*
X0191300Y0014300D02*
X0191300Y0021700D01*
X0212600Y0021700D01*
X0212600Y0014300D01*
X0191300Y0014300D01*
X0191300Y0014993D02*
X0212600Y0014993D01*
X0212600Y0015791D02*
X0191300Y0015791D01*
X0191300Y0016590D02*
X0212600Y0016590D01*
X0212600Y0017388D02*
X0191300Y0017388D01*
X0191300Y0018187D02*
X0212600Y0018187D01*
X0212600Y0018985D02*
X0191300Y0018985D01*
X0191300Y0019784D02*
X0212600Y0019784D01*
X0212600Y0020582D02*
X0191300Y0020582D01*
X0191300Y0021381D02*
X0212600Y0021381D01*
D12*
X0046240Y0136000D03*
X0038760Y0136000D03*
D13*
G36*
X0087995Y0134071D02*
X0091339Y0130727D01*
X0088273Y0127661D01*
X0084929Y0131005D01*
X0087995Y0134071D01*
G37*
G36*
X0093495Y0139571D02*
X0096839Y0136227D01*
X0093773Y0133161D01*
X0090429Y0136505D01*
X0093495Y0139571D01*
G37*
G36*
X0098995Y0145071D02*
X0102339Y0141727D01*
X0099273Y0138661D01*
X0095929Y0142005D01*
X0098995Y0145071D01*
G37*
G36*
X0107030Y0153036D02*
X0110374Y0149692D01*
X0107308Y0146626D01*
X0103964Y0149970D01*
X0107030Y0153036D01*
G37*
G36*
X0111763Y0148303D02*
X0115107Y0144959D01*
X0112041Y0141893D01*
X0108697Y0145237D01*
X0111763Y0148303D01*
G37*
G36*
X0103727Y0140339D02*
X0107071Y0136995D01*
X0104005Y0133929D01*
X0100661Y0137273D01*
X0103727Y0140339D01*
G37*
G36*
X0098227Y0134839D02*
X0101571Y0131495D01*
X0098505Y0128429D01*
X0095161Y0131773D01*
X0098227Y0134839D01*
G37*
G36*
X0092727Y0129339D02*
X0096071Y0125995D01*
X0093005Y0122929D01*
X0089661Y0126273D01*
X0092727Y0129339D01*
G37*
G36*
X0123429Y0117495D02*
X0126773Y0120839D01*
X0129839Y0117773D01*
X0126495Y0114429D01*
X0123429Y0117495D01*
G37*
G36*
X0128161Y0122227D02*
X0131505Y0125571D01*
X0134571Y0122505D01*
X0131227Y0119161D01*
X0128161Y0122227D01*
G37*
G36*
X0141161Y0109727D02*
X0144505Y0113071D01*
X0147571Y0110005D01*
X0144227Y0106661D01*
X0141161Y0109727D01*
G37*
G36*
X0136429Y0104995D02*
X0139773Y0108339D01*
X0142839Y0105273D01*
X0139495Y0101929D01*
X0136429Y0104995D01*
G37*
G36*
X0157661Y0092727D02*
X0161005Y0096071D01*
X0164071Y0093005D01*
X0160727Y0089661D01*
X0157661Y0092727D01*
G37*
G36*
X0152929Y0087995D02*
X0156273Y0091339D01*
X0159339Y0088273D01*
X0155995Y0084929D01*
X0152929Y0087995D01*
G37*
G36*
X0158929Y0081995D02*
X0162273Y0085339D01*
X0165339Y0082273D01*
X0161995Y0078929D01*
X0158929Y0081995D01*
G37*
G36*
X0163661Y0086727D02*
X0167005Y0090071D01*
X0170071Y0087005D01*
X0166727Y0083661D01*
X0163661Y0086727D01*
G37*
G36*
X0151995Y0078071D02*
X0155339Y0074727D01*
X0152273Y0071661D01*
X0148929Y0075005D01*
X0151995Y0078071D01*
G37*
G36*
X0156727Y0073339D02*
X0160071Y0069995D01*
X0157005Y0066929D01*
X0153661Y0070273D01*
X0156727Y0073339D01*
G37*
G36*
X0145495Y0071571D02*
X0148839Y0068227D01*
X0145773Y0065161D01*
X0142429Y0068505D01*
X0145495Y0071571D01*
G37*
G36*
X0150227Y0066839D02*
X0153571Y0063495D01*
X0150505Y0060429D01*
X0147161Y0063773D01*
X0150227Y0066839D01*
G37*
G36*
X0132995Y0059071D02*
X0136339Y0055727D01*
X0133273Y0052661D01*
X0129929Y0056005D01*
X0132995Y0059071D01*
G37*
G36*
X0137727Y0054339D02*
X0141071Y0050995D01*
X0138005Y0047929D01*
X0134661Y0051273D01*
X0137727Y0054339D01*
G37*
G36*
X0127495Y0053571D02*
X0130839Y0050227D01*
X0127773Y0047161D01*
X0124429Y0050505D01*
X0127495Y0053571D01*
G37*
G36*
X0132227Y0048839D02*
X0135571Y0045495D01*
X0132505Y0042429D01*
X0129161Y0045773D01*
X0132227Y0048839D01*
G37*
G36*
X0134495Y0038571D02*
X0137839Y0035227D01*
X0134773Y0032161D01*
X0131429Y0035505D01*
X0134495Y0038571D01*
G37*
G36*
X0139227Y0033839D02*
X0142571Y0030495D01*
X0139505Y0027429D01*
X0136161Y0030773D01*
X0139227Y0033839D01*
G37*
G36*
X0128273Y0025661D02*
X0124929Y0029005D01*
X0127995Y0032071D01*
X0131339Y0028727D01*
X0128273Y0025661D01*
G37*
G36*
X0133005Y0020929D02*
X0129661Y0024273D01*
X0132727Y0027339D01*
X0136071Y0023995D01*
X0133005Y0020929D01*
G37*
G36*
X0107661Y0022727D02*
X0111005Y0026071D01*
X0114071Y0023005D01*
X0110727Y0019661D01*
X0107661Y0022727D01*
G37*
G36*
X0102929Y0017995D02*
X0106273Y0021339D01*
X0109339Y0018273D01*
X0105995Y0014929D01*
X0102929Y0017995D01*
G37*
G36*
X0095429Y0025495D02*
X0098773Y0028839D01*
X0101839Y0025773D01*
X0098495Y0022429D01*
X0095429Y0025495D01*
G37*
G36*
X0100161Y0030227D02*
X0103505Y0033571D01*
X0106571Y0030505D01*
X0103227Y0027161D01*
X0100161Y0030227D01*
G37*
G36*
X0089929Y0030995D02*
X0093273Y0034339D01*
X0096339Y0031273D01*
X0092995Y0027929D01*
X0089929Y0030995D01*
G37*
G36*
X0094661Y0035727D02*
X0098005Y0039071D01*
X0101071Y0036005D01*
X0097727Y0032661D01*
X0094661Y0035727D01*
G37*
G36*
X0078429Y0042495D02*
X0081773Y0045839D01*
X0084839Y0042773D01*
X0081495Y0039429D01*
X0078429Y0042495D01*
G37*
G36*
X0083161Y0047227D02*
X0086505Y0050571D01*
X0089571Y0047505D01*
X0086227Y0044161D01*
X0083161Y0047227D01*
G37*
X0069346Y0068500D03*
X0062654Y0068500D03*
X0046346Y0084000D03*
X0039654Y0084000D03*
G36*
X0085773Y0085161D02*
X0082429Y0088505D01*
X0085495Y0091571D01*
X0088839Y0088227D01*
X0085773Y0085161D01*
G37*
G36*
X0090505Y0080429D02*
X0087161Y0083773D01*
X0090227Y0086839D01*
X0093571Y0083495D01*
X0090505Y0080429D01*
G37*
G36*
X0096605Y0086429D02*
X0093261Y0089773D01*
X0096327Y0092839D01*
X0099671Y0089495D01*
X0096605Y0086429D01*
G37*
G36*
X0091873Y0091161D02*
X0088529Y0094505D01*
X0091595Y0097571D01*
X0094939Y0094227D01*
X0091873Y0091161D01*
G37*
G36*
X0103505Y0093429D02*
X0100161Y0096773D01*
X0103227Y0099839D01*
X0106571Y0096495D01*
X0103505Y0093429D01*
G37*
G36*
X0098773Y0098161D02*
X0095429Y0101505D01*
X0098495Y0104571D01*
X0101839Y0101227D01*
X0098773Y0098161D01*
G37*
G36*
X0143839Y0143773D02*
X0140495Y0140429D01*
X0137429Y0143495D01*
X0140773Y0146839D01*
X0143839Y0143773D01*
G37*
G36*
X0148571Y0148505D02*
X0145227Y0145161D01*
X0142161Y0148227D01*
X0145505Y0151571D01*
X0148571Y0148505D01*
G37*
X0189654Y0152500D03*
X0196346Y0152500D03*
X0219000Y0100346D03*
X0219000Y0093654D03*
X0217346Y0077000D03*
X0210654Y0077000D03*
X0210654Y0069000D03*
X0217346Y0069000D03*
X0217346Y0060000D03*
X0210654Y0060000D03*
X0202846Y0058000D03*
X0196154Y0058000D03*
X0196154Y0066000D03*
X0202846Y0066000D03*
X0210654Y0052000D03*
X0217346Y0052000D03*
G36*
X0178005Y0050429D02*
X0174661Y0053773D01*
X0177727Y0056839D01*
X0181071Y0053495D01*
X0178005Y0050429D01*
G37*
G36*
X0173273Y0055161D02*
X0169929Y0058505D01*
X0172995Y0061571D01*
X0176339Y0058227D01*
X0173273Y0055161D01*
G37*
D14*
X0227000Y0093654D03*
X0235000Y0093654D03*
X0235000Y0100346D03*
X0227000Y0100346D03*
X0081346Y0024000D03*
X0074654Y0024000D03*
X0046346Y0055500D03*
X0039654Y0055500D03*
X0039654Y0063500D03*
X0046346Y0063500D03*
X0046346Y0071500D03*
X0039654Y0071500D03*
X0015346Y0034000D03*
X0008654Y0034000D03*
X0008654Y0024000D03*
X0015346Y0024000D03*
D15*
X0025000Y0024000D03*
X0035000Y0024000D03*
X0045000Y0024000D03*
X0055000Y0024000D03*
X0065000Y0024000D03*
X0065000Y0034000D03*
X0055000Y0034000D03*
X0045000Y0034000D03*
X0035000Y0034000D03*
X0025000Y0034000D03*
D16*
X0023000Y0055300D03*
X0018000Y0055300D03*
X0028000Y0055300D03*
X0033000Y0055300D03*
X0033000Y0080700D03*
X0028000Y0080700D03*
X0023000Y0080700D03*
X0018000Y0080700D03*
D17*
X0164000Y0023000D03*
D18*
X0125500Y0069500D03*
X0122000Y0073000D03*
X0129000Y0073000D03*
X0125500Y0076500D03*
X0122000Y0080000D03*
X0118500Y0076500D03*
X0115000Y0080000D03*
X0111500Y0083500D03*
X0115000Y0087000D03*
X0118500Y0083500D03*
X0122000Y0087000D03*
X0118500Y0090500D03*
X0122000Y0094000D03*
X0125500Y0090500D03*
X0129000Y0087000D03*
X0132500Y0083500D03*
X0129000Y0080000D03*
X0132500Y0076500D03*
X0136000Y0080000D03*
X0139500Y0083500D03*
X0136000Y0087000D03*
X0132500Y0090500D03*
X0129000Y0094000D03*
X0125500Y0097500D03*
D19*
X0125500Y0083500D03*
M02*
