G75*
%MOIN*%
%OFA0B0*%
%FSLAX25Y25*%
%IPPOS*%
%LPD*%
%AMOC8*
5,1,8,0,0,1.08239X$1,22.5*
%
%ADD10C,0.00000*%
%ADD11C,0.00800*%
%ADD12C,0.05937*%
%ADD13C,0.02775*%
%ADD14C,0.03169*%
%ADD15C,0.01600*%
%ADD16C,0.01200*%
%ADD17C,0.01500*%
%ADD18C,0.01000*%
%ADD19C,0.16598*%
%ADD20C,0.03562*%
D10*
X0009500Y0011000D02*
X0227500Y0011000D01*
X0231500Y0015000D01*
X0235500Y0015000D01*
X0239500Y0011000D01*
X0241000Y0011000D01*
X0245000Y0015000D01*
X0248500Y0015000D01*
X0252500Y0011000D01*
X0253500Y0011000D01*
X0258500Y0016000D01*
X0258500Y0116000D01*
X0239000Y0135500D01*
X0239000Y0157000D01*
X0236500Y0159500D01*
X0017000Y0159500D01*
X0004500Y0147000D01*
X0004500Y0016000D01*
X0009500Y0011000D01*
D11*
X0203400Y0016934D02*
X0203934Y0016400D01*
X0205001Y0016400D01*
X0205535Y0016934D01*
X0205535Y0017468D01*
X0205001Y0018001D01*
X0204468Y0018001D01*
X0205001Y0018001D02*
X0205535Y0018535D01*
X0205535Y0019069D01*
X0205001Y0019603D01*
X0203934Y0019603D01*
X0203400Y0019069D01*
D12*
X0065000Y0024000D03*
X0055000Y0024000D03*
X0045000Y0024000D03*
X0035000Y0024000D03*
X0025000Y0024000D03*
X0025000Y0034000D03*
X0035000Y0034000D03*
X0045000Y0034000D03*
X0055000Y0034000D03*
X0065000Y0034000D03*
D13*
X0077500Y0034000D03*
X0080500Y0029000D03*
X0081500Y0019000D03*
X0100500Y0014500D03*
X0115000Y0027000D03*
X0119500Y0024000D03*
X0127000Y0032500D03*
X0141500Y0028500D03*
X0134500Y0043500D03*
X0140000Y0049000D03*
X0152000Y0061000D03*
X0159000Y0068000D03*
X0171000Y0060500D03*
X0163000Y0054750D03*
X0189500Y0050000D03*
X0196500Y0055000D03*
X0217000Y0062500D03*
X0217000Y0066500D03*
X0203000Y0073500D03*
X0188000Y0081000D03*
X0168500Y0088500D03*
X0163000Y0095000D03*
X0158000Y0099500D03*
X0150500Y0098500D03*
X0132500Y0090500D03*
X0129000Y0087000D03*
X0125500Y0090500D03*
X0122000Y0087000D03*
X0118500Y0083500D03*
X0115000Y0080000D03*
X0111500Y0083500D03*
X0115000Y0087000D03*
X0118500Y0090500D03*
X0122000Y0094000D03*
X0125500Y0097500D03*
X0129000Y0094000D03*
X0136000Y0087000D03*
X0132500Y0083500D03*
X0129000Y0080000D03*
X0125500Y0076500D03*
X0122000Y0080000D03*
X0118500Y0076500D03*
X0122000Y0073000D03*
X0125500Y0069500D03*
X0129000Y0073000D03*
X0132500Y0076500D03*
X0136000Y0080000D03*
X0139500Y0083500D03*
X0147500Y0079000D03*
X0179500Y0102000D03*
X0190500Y0108000D03*
X0168500Y0115000D03*
X0146500Y0112000D03*
X0142000Y0116000D03*
X0135500Y0113500D03*
X0133500Y0124500D03*
X0131134Y0129500D03*
X0123000Y0124500D03*
X0110000Y0118000D03*
X0095000Y0124000D03*
X0091000Y0120000D03*
X0082000Y0127500D03*
X0100500Y0129500D03*
X0106500Y0132500D03*
X0116000Y0142500D03*
X0125000Y0144000D03*
X0138000Y0141000D03*
X0148000Y0141000D03*
X0165500Y0138500D03*
X0163000Y0129000D03*
X0149500Y0127000D03*
X0186500Y0152500D03*
X0195500Y0131000D03*
X0230500Y0107000D03*
X0213000Y0100500D03*
X0216358Y0093654D03*
X0227000Y0086000D03*
X0225500Y0081000D03*
X0240500Y0081000D03*
X0216500Y0031000D03*
X0224000Y0027000D03*
X0220000Y0023500D03*
X0233000Y0023500D03*
X0246000Y0023500D03*
X0220500Y0014500D03*
X0113000Y0044500D03*
X0109000Y0048500D03*
X0095500Y0043500D03*
X0100000Y0038000D03*
X0105500Y0032500D03*
X0088500Y0049500D03*
X0097000Y0060000D03*
X0093000Y0063000D03*
X0089000Y0068000D03*
X0072500Y0068500D03*
X0061000Y0059000D03*
X0066500Y0058000D03*
X0059000Y0052500D03*
X0052000Y0068000D03*
X0056000Y0076500D03*
X0060500Y0080500D03*
X0079000Y0088000D03*
X0083500Y0090500D03*
X0090000Y0096000D03*
X0096500Y0103500D03*
X0068000Y0109000D03*
X0043000Y0101000D03*
X0026500Y0109500D03*
X0026500Y0116000D03*
X0020500Y0116000D03*
X0010500Y0118500D03*
X0060000Y0151000D03*
X0092000Y0147500D03*
X0150500Y0153500D03*
X0036500Y0084000D03*
X0025000Y0066000D03*
X0033000Y0065000D03*
X0029000Y0046000D03*
X0100000Y0082500D03*
X0105000Y0059000D03*
D14*
X0072500Y0046000D03*
X0023000Y0046000D03*
X0017000Y0046000D03*
X0011000Y0046000D03*
X0010500Y0066000D03*
X0018500Y0066000D03*
X0080500Y0119500D03*
X0086500Y0125500D03*
X0068000Y0126000D03*
X0063000Y0121000D03*
X0056000Y0120500D03*
X0050500Y0120500D03*
X0045000Y0120500D03*
X0045000Y0126000D03*
X0050500Y0126000D03*
X0056000Y0126000D03*
X0060000Y0134000D03*
X0050500Y0145500D03*
X0045000Y0145500D03*
X0045000Y0151000D03*
X0050500Y0151000D03*
X0050500Y0156500D03*
X0045000Y0156500D03*
X0018000Y0151000D03*
X0023000Y0131000D03*
X0028000Y0126000D03*
X0023000Y0121000D03*
X0033000Y0121000D03*
X0033000Y0131000D03*
X0093000Y0154500D03*
X0098000Y0154500D03*
X0216500Y0137000D03*
X0224000Y0134500D03*
X0235000Y0132000D03*
X0235500Y0119000D03*
X0251000Y0117000D03*
X0220000Y0119000D03*
X0253000Y0078500D03*
X0253000Y0071000D03*
X0243000Y0058500D03*
X0231000Y0055000D03*
X0230000Y0065000D03*
X0230000Y0043000D03*
X0237500Y0043000D03*
X0245000Y0043000D03*
X0253000Y0043000D03*
X0253000Y0035000D03*
X0245000Y0035000D03*
D15*
X0181000Y0061000D02*
X0156500Y0036500D01*
X0124500Y0036500D01*
X0115000Y0027000D01*
X0159000Y0068000D02*
X0162000Y0071000D01*
X0162000Y0077000D01*
X0161000Y0078000D01*
X0161000Y0080500D01*
X0158500Y0080500D01*
X0157500Y0081500D01*
X0162000Y0081500D01*
X0162000Y0077000D01*
X0161000Y0078000D02*
X0158500Y0080500D01*
X0157500Y0081500D02*
X0126500Y0112500D01*
X0126500Y0116500D01*
X0122500Y0116500D01*
X0123500Y0115500D01*
X0125500Y0115500D01*
X0125500Y0113500D01*
X0123500Y0115500D01*
X0122500Y0116500D02*
X0106500Y0132500D01*
X0093500Y0132500D01*
X0086500Y0125500D01*
X0080500Y0119500D02*
X0080500Y0105500D01*
X0090000Y0096000D01*
X0090000Y0086000D01*
X0072500Y0068500D01*
X0125500Y0113500D02*
X0126500Y0112500D01*
X0142000Y0116000D02*
X0142000Y0116500D01*
X0143750Y0118250D01*
X0144000Y0118000D01*
X0144000Y0116000D01*
X0144000Y0118000D02*
X0146000Y0116000D01*
X0160000Y0116000D01*
X0181000Y0095000D01*
X0181000Y0061000D01*
X0146000Y0116000D02*
X0142000Y0116000D01*
X0142000Y0120000D01*
X0143750Y0118250D01*
X0142000Y0120000D02*
X0142000Y0137000D01*
X0138000Y0141000D01*
X0124500Y0154500D01*
X0098000Y0154500D01*
D16*
X0096797Y0157218D02*
X0094203Y0157218D01*
X0094683Y0157019D02*
X0093591Y0157472D01*
X0092409Y0157472D01*
X0091317Y0157019D01*
X0090481Y0156183D01*
X0090028Y0155091D01*
X0090028Y0153909D01*
X0090481Y0152817D01*
X0091317Y0151981D01*
X0092409Y0151528D01*
X0093591Y0151528D01*
X0094683Y0151981D01*
X0095500Y0152797D01*
X0096317Y0151981D01*
X0097409Y0151528D01*
X0098591Y0151528D01*
X0099683Y0151981D01*
X0100015Y0152313D01*
X0123594Y0152313D01*
X0135225Y0140681D01*
X0135225Y0140448D01*
X0135648Y0139428D01*
X0136428Y0138648D01*
X0137448Y0138225D01*
X0137681Y0138225D01*
X0139813Y0136094D01*
X0139813Y0117737D01*
X0139648Y0117572D01*
X0139225Y0116552D01*
X0139225Y0115448D01*
X0139648Y0114428D01*
X0140428Y0113648D01*
X0141448Y0113225D01*
X0142552Y0113225D01*
X0143572Y0113648D01*
X0143737Y0113813D01*
X0159094Y0113813D01*
X0178813Y0094094D01*
X0178813Y0061906D01*
X0155594Y0038687D01*
X0123594Y0038687D01*
X0114681Y0029775D01*
X0114448Y0029775D01*
X0113428Y0029352D01*
X0112648Y0028572D01*
X0112225Y0027552D01*
X0112225Y0026894D01*
X0108718Y0023387D01*
X0083218Y0023387D01*
X0081606Y0021775D01*
X0080948Y0021775D01*
X0079928Y0021352D01*
X0079148Y0020572D01*
X0078725Y0019552D01*
X0078725Y0018448D01*
X0079148Y0017428D01*
X0079928Y0016648D01*
X0080948Y0016225D01*
X0082052Y0016225D01*
X0083072Y0016648D01*
X0083852Y0017428D01*
X0084275Y0018448D01*
X0084275Y0019106D01*
X0084782Y0019613D01*
X0110282Y0019613D01*
X0111387Y0020718D01*
X0114894Y0024225D01*
X0115552Y0024225D01*
X0116572Y0024648D01*
X0116901Y0024977D01*
X0116725Y0024552D01*
X0116725Y0023448D01*
X0117148Y0022428D01*
X0117928Y0021648D01*
X0118948Y0021225D01*
X0120052Y0021225D01*
X0121072Y0021648D01*
X0121852Y0022428D01*
X0122275Y0023448D01*
X0122275Y0024552D01*
X0121852Y0025572D01*
X0121072Y0026352D01*
X0120052Y0026775D01*
X0118948Y0026775D01*
X0117928Y0026352D01*
X0117599Y0026023D01*
X0117775Y0026448D01*
X0117775Y0026681D01*
X0124282Y0033188D01*
X0124225Y0033052D01*
X0124225Y0031948D01*
X0124648Y0030928D01*
X0125428Y0030148D01*
X0126448Y0029725D01*
X0127552Y0029725D01*
X0128572Y0030148D01*
X0129352Y0030928D01*
X0129775Y0031948D01*
X0129775Y0033052D01*
X0129352Y0034072D01*
X0129112Y0034313D01*
X0157406Y0034313D01*
X0158687Y0035594D01*
X0183187Y0060094D01*
X0183187Y0095906D01*
X0181906Y0097187D01*
X0179868Y0099225D01*
X0180052Y0099225D01*
X0181072Y0099648D01*
X0181852Y0100428D01*
X0182275Y0101448D01*
X0182275Y0102552D01*
X0181852Y0103572D01*
X0181072Y0104352D01*
X0180052Y0104775D01*
X0178948Y0104775D01*
X0177928Y0104352D01*
X0177148Y0103572D01*
X0176725Y0102552D01*
X0176725Y0102368D01*
X0160906Y0118187D01*
X0146906Y0118187D01*
X0144906Y0120187D01*
X0144656Y0120437D01*
X0144187Y0120906D01*
X0144187Y0137906D01*
X0142906Y0139187D01*
X0140775Y0141319D01*
X0140775Y0141552D01*
X0140352Y0142572D01*
X0139572Y0143352D01*
X0138552Y0143775D01*
X0138319Y0143775D01*
X0125406Y0156687D01*
X0100015Y0156687D01*
X0099683Y0157019D01*
X0098591Y0157472D01*
X0097409Y0157472D01*
X0096317Y0157019D01*
X0095500Y0156203D01*
X0094683Y0157019D01*
X0091797Y0157218D02*
X0054000Y0157218D01*
X0054000Y0158113D02*
X0156013Y0158113D01*
X0156013Y0141177D01*
X0159013Y0138177D01*
X0160177Y0137013D01*
X0163113Y0137013D01*
X0163148Y0136928D01*
X0163928Y0136148D01*
X0164948Y0135725D01*
X0166052Y0135725D01*
X0167072Y0136148D01*
X0167852Y0136928D01*
X0167887Y0137013D01*
X0180177Y0137013D01*
X0181013Y0136177D01*
X0181013Y0114177D01*
X0184177Y0111013D01*
X0191177Y0111013D01*
X0191671Y0110518D01*
X0191052Y0110775D01*
X0189948Y0110775D01*
X0188928Y0110352D01*
X0188148Y0109572D01*
X0187725Y0108552D01*
X0187725Y0107448D01*
X0188148Y0106428D01*
X0188928Y0105648D01*
X0189948Y0105225D01*
X0191052Y0105225D01*
X0192072Y0105648D01*
X0192852Y0106428D01*
X0193275Y0107448D01*
X0193275Y0108552D01*
X0193018Y0109171D01*
X0210013Y0092177D01*
X0210013Y0081823D01*
X0209177Y0080987D01*
X0195177Y0080987D01*
X0193177Y0078987D01*
X0192013Y0077823D01*
X0192013Y0053177D01*
X0194013Y0051177D01*
X0195177Y0050013D01*
X0218177Y0050013D01*
X0219013Y0049177D01*
X0219013Y0034177D01*
X0222013Y0031177D01*
X0223177Y0030013D01*
X0257113Y0030013D01*
X0257113Y0016575D01*
X0253000Y0012462D01*
X0249887Y0015575D01*
X0249075Y0016387D01*
X0244425Y0016387D01*
X0240425Y0012387D01*
X0240075Y0012387D01*
X0236887Y0015575D01*
X0236075Y0016387D01*
X0230925Y0016387D01*
X0226925Y0012387D01*
X0222312Y0012387D01*
X0222852Y0012928D01*
X0223275Y0013948D01*
X0223275Y0015052D01*
X0222852Y0016072D01*
X0222072Y0016852D01*
X0221052Y0017275D01*
X0219948Y0017275D01*
X0218928Y0016852D01*
X0218148Y0016072D01*
X0217725Y0015052D01*
X0217725Y0013948D01*
X0218148Y0012928D01*
X0218688Y0012387D01*
X0102312Y0012387D01*
X0102852Y0012928D01*
X0103275Y0013948D01*
X0103275Y0015052D01*
X0102852Y0016072D01*
X0102072Y0016852D01*
X0101052Y0017275D01*
X0099948Y0017275D01*
X0098928Y0016852D01*
X0098148Y0016072D01*
X0097725Y0015052D01*
X0097725Y0013948D01*
X0098148Y0012928D01*
X0098688Y0012387D01*
X0010075Y0012387D01*
X0005887Y0016575D01*
X0005887Y0146425D01*
X0017575Y0158113D01*
X0041500Y0158113D01*
X0041500Y0142000D01*
X0054000Y0142000D01*
X0054000Y0158113D01*
X0054000Y0156020D02*
X0090413Y0156020D01*
X0090028Y0154821D02*
X0054000Y0154821D01*
X0054000Y0153623D02*
X0059081Y0153623D01*
X0059448Y0153775D02*
X0058428Y0153352D01*
X0057648Y0152572D01*
X0057225Y0151552D01*
X0057225Y0150448D01*
X0057648Y0149428D01*
X0058428Y0148648D01*
X0059448Y0148225D01*
X0060552Y0148225D01*
X0061572Y0148648D01*
X0062352Y0149428D01*
X0062775Y0150448D01*
X0062775Y0151552D01*
X0062352Y0152572D01*
X0061572Y0153352D01*
X0060552Y0153775D01*
X0059448Y0153775D01*
X0060919Y0153623D02*
X0090147Y0153623D01*
X0090873Y0152424D02*
X0062413Y0152424D01*
X0062775Y0151226D02*
X0124681Y0151226D01*
X0125879Y0150027D02*
X0093149Y0150027D01*
X0093572Y0149852D02*
X0092552Y0150275D01*
X0091448Y0150275D01*
X0090428Y0149852D01*
X0089648Y0149072D01*
X0089225Y0148052D01*
X0089225Y0146948D01*
X0089648Y0145928D01*
X0090428Y0145148D01*
X0091448Y0144725D01*
X0092552Y0144725D01*
X0093572Y0145148D01*
X0094352Y0145928D01*
X0094775Y0146948D01*
X0094775Y0148052D01*
X0094352Y0149072D01*
X0093572Y0149852D01*
X0094453Y0148829D02*
X0127078Y0148829D01*
X0128276Y0147630D02*
X0094775Y0147630D01*
X0094561Y0146432D02*
X0123620Y0146432D01*
X0123428Y0146352D02*
X0122648Y0145572D01*
X0122225Y0144552D01*
X0122225Y0143448D01*
X0122648Y0142428D01*
X0123428Y0141648D01*
X0124448Y0141225D01*
X0125552Y0141225D01*
X0126572Y0141648D01*
X0127352Y0142428D01*
X0127775Y0143448D01*
X0127775Y0144552D01*
X0127352Y0145572D01*
X0126572Y0146352D01*
X0125552Y0146775D01*
X0124448Y0146775D01*
X0123428Y0146352D01*
X0122507Y0145233D02*
X0116652Y0145233D01*
X0116552Y0145275D02*
X0115448Y0145275D01*
X0114428Y0144852D01*
X0113648Y0144072D01*
X0113225Y0143052D01*
X0113225Y0141948D01*
X0113648Y0140928D01*
X0114428Y0140148D01*
X0115448Y0139725D01*
X0116552Y0139725D01*
X0117572Y0140148D01*
X0118352Y0140928D01*
X0118775Y0141948D01*
X0118775Y0143052D01*
X0118352Y0144072D01*
X0117572Y0144852D01*
X0116552Y0145275D01*
X0115348Y0145233D02*
X0093657Y0145233D01*
X0090343Y0145233D02*
X0054000Y0145233D01*
X0054000Y0144035D02*
X0113632Y0144035D01*
X0113225Y0142836D02*
X0054000Y0142836D01*
X0054000Y0146432D02*
X0089439Y0146432D01*
X0089225Y0147630D02*
X0054000Y0147630D01*
X0054000Y0148829D02*
X0058247Y0148829D01*
X0057399Y0150027D02*
X0054000Y0150027D01*
X0054000Y0151226D02*
X0057225Y0151226D01*
X0057587Y0152424D02*
X0054000Y0152424D01*
X0061753Y0148829D02*
X0089547Y0148829D01*
X0090851Y0150027D02*
X0062601Y0150027D01*
X0060591Y0136972D02*
X0059409Y0136972D01*
X0058317Y0136519D01*
X0057481Y0135683D01*
X0057028Y0134591D01*
X0057028Y0133409D01*
X0057481Y0132317D01*
X0058317Y0131481D01*
X0059409Y0131028D01*
X0060591Y0131028D01*
X0061683Y0131481D01*
X0062519Y0132317D01*
X0062972Y0133409D01*
X0062972Y0134591D01*
X0062519Y0135683D01*
X0061683Y0136519D01*
X0060591Y0136972D01*
X0060900Y0136844D02*
X0139063Y0136844D01*
X0139813Y0135645D02*
X0062535Y0135645D01*
X0062972Y0134447D02*
X0092353Y0134447D01*
X0092594Y0134687D02*
X0091313Y0133406D01*
X0086378Y0128472D01*
X0085909Y0128472D01*
X0084817Y0128019D01*
X0084775Y0127977D01*
X0084775Y0128052D01*
X0084352Y0129072D01*
X0083572Y0129852D01*
X0082552Y0130275D01*
X0081448Y0130275D01*
X0080428Y0129852D01*
X0079648Y0129072D01*
X0079225Y0128052D01*
X0079225Y0126948D01*
X0079648Y0125928D01*
X0080428Y0125148D01*
X0081448Y0124725D01*
X0082552Y0124725D01*
X0083528Y0125130D01*
X0083528Y0124909D01*
X0083981Y0123817D01*
X0084817Y0122981D01*
X0085909Y0122528D01*
X0087091Y0122528D01*
X0088183Y0122981D01*
X0089019Y0123817D01*
X0089472Y0124909D01*
X0089472Y0125378D01*
X0094406Y0130313D01*
X0104763Y0130313D01*
X0104928Y0130148D01*
X0105948Y0129725D01*
X0106181Y0129725D01*
X0120313Y0115594D01*
X0121313Y0114594D01*
X0122594Y0113313D01*
X0123313Y0112594D01*
X0124313Y0111594D01*
X0155313Y0080594D01*
X0157594Y0078313D01*
X0159813Y0076094D01*
X0159813Y0071906D01*
X0158681Y0070775D01*
X0158448Y0070775D01*
X0157428Y0070352D01*
X0156648Y0069572D01*
X0156225Y0068552D01*
X0156225Y0067448D01*
X0156648Y0066428D01*
X0156863Y0066213D01*
X0156863Y0059885D01*
X0142615Y0045637D01*
X0136287Y0045637D01*
X0136072Y0045852D01*
X0135052Y0046275D01*
X0133948Y0046275D01*
X0132928Y0045852D01*
X0132148Y0045072D01*
X0131725Y0044052D01*
X0131725Y0042948D01*
X0132148Y0041928D01*
X0132928Y0041148D01*
X0133948Y0040725D01*
X0135052Y0040725D01*
X0136072Y0041148D01*
X0136287Y0041363D01*
X0144385Y0041363D01*
X0145637Y0042615D01*
X0161137Y0058115D01*
X0161137Y0066213D01*
X0161352Y0066428D01*
X0161775Y0067448D01*
X0161775Y0067681D01*
X0164187Y0070094D01*
X0164187Y0080877D01*
X0167937Y0084626D01*
X0168096Y0084649D01*
X0168505Y0085195D01*
X0168987Y0085677D01*
X0168987Y0085725D01*
X0169052Y0085725D01*
X0170072Y0086148D01*
X0170852Y0086928D01*
X0171275Y0087948D01*
X0171275Y0089052D01*
X0170852Y0090072D01*
X0170072Y0090852D01*
X0169052Y0091275D01*
X0167948Y0091275D01*
X0166928Y0090852D01*
X0166148Y0090072D01*
X0165725Y0089052D01*
X0165725Y0088113D01*
X0165495Y0087805D01*
X0161377Y0083687D01*
X0158406Y0083687D01*
X0128687Y0113406D01*
X0128687Y0115982D01*
X0133713Y0121725D01*
X0134052Y0121725D01*
X0135072Y0122148D01*
X0135852Y0122928D01*
X0136275Y0123948D01*
X0136275Y0125052D01*
X0135852Y0126072D01*
X0135072Y0126852D01*
X0134052Y0127275D01*
X0132948Y0127275D01*
X0131928Y0126852D01*
X0131148Y0126072D01*
X0130725Y0125052D01*
X0130725Y0124347D01*
X0125773Y0118687D01*
X0123406Y0118687D01*
X0109275Y0132819D01*
X0109275Y0133052D01*
X0108852Y0134072D01*
X0108072Y0134852D01*
X0107052Y0135275D01*
X0105948Y0135275D01*
X0104928Y0134852D01*
X0104763Y0134687D01*
X0092594Y0134687D01*
X0091155Y0133248D02*
X0062905Y0133248D01*
X0062252Y0132050D02*
X0089956Y0132050D01*
X0088758Y0130851D02*
X0035972Y0130851D01*
X0035972Y0130409D02*
X0035519Y0129317D01*
X0034683Y0128481D01*
X0033591Y0128028D01*
X0032409Y0128028D01*
X0031317Y0128481D01*
X0030481Y0129317D01*
X0030028Y0130409D01*
X0030028Y0131591D01*
X0030481Y0132683D01*
X0031317Y0133519D01*
X0032409Y0133972D01*
X0033591Y0133972D01*
X0034683Y0133519D01*
X0035519Y0132683D01*
X0035972Y0131591D01*
X0035972Y0130409D01*
X0035658Y0129653D02*
X0080228Y0129653D01*
X0079392Y0128454D02*
X0069748Y0128454D01*
X0069683Y0128519D02*
X0068591Y0128972D01*
X0067409Y0128972D01*
X0066317Y0128519D01*
X0065481Y0127683D01*
X0065028Y0126591D01*
X0065028Y0125409D01*
X0065481Y0124317D01*
X0066317Y0123481D01*
X0067409Y0123028D01*
X0068591Y0123028D01*
X0069683Y0123481D01*
X0070519Y0124317D01*
X0070972Y0125409D01*
X0070972Y0126591D01*
X0070519Y0127683D01*
X0069683Y0128519D01*
X0070696Y0127256D02*
X0079225Y0127256D01*
X0079594Y0126057D02*
X0070972Y0126057D01*
X0070744Y0124859D02*
X0081126Y0124859D01*
X0082874Y0124859D02*
X0083549Y0124859D01*
X0084137Y0123660D02*
X0069863Y0123660D01*
X0066137Y0123660D02*
X0064343Y0123660D01*
X0064683Y0123519D02*
X0063591Y0123972D01*
X0062409Y0123972D01*
X0061317Y0123519D01*
X0060481Y0122683D01*
X0060028Y0121591D01*
X0060028Y0120409D01*
X0060481Y0119317D01*
X0061317Y0118481D01*
X0062409Y0118028D01*
X0063591Y0118028D01*
X0064683Y0118481D01*
X0065519Y0119317D01*
X0065972Y0120409D01*
X0065972Y0121591D01*
X0065519Y0122683D01*
X0064683Y0123519D01*
X0065611Y0122462D02*
X0079885Y0122462D01*
X0079909Y0122472D02*
X0078817Y0122019D01*
X0077981Y0121183D01*
X0077528Y0120091D01*
X0077528Y0118909D01*
X0077981Y0117817D01*
X0078313Y0117485D01*
X0078313Y0104594D01*
X0087225Y0095681D01*
X0087225Y0095448D01*
X0087648Y0094428D01*
X0087813Y0094263D01*
X0087813Y0086906D01*
X0072181Y0071275D01*
X0071948Y0071275D01*
X0070928Y0070852D01*
X0070148Y0070072D01*
X0069725Y0069052D01*
X0069725Y0067948D01*
X0070148Y0066928D01*
X0070363Y0066713D01*
X0070363Y0057115D01*
X0097115Y0030363D01*
X0103713Y0030363D01*
X0103928Y0030148D01*
X0104948Y0029725D01*
X0106052Y0029725D01*
X0107072Y0030148D01*
X0107852Y0030928D01*
X0108275Y0031948D01*
X0108275Y0033052D01*
X0107852Y0034072D01*
X0107072Y0034852D01*
X0106052Y0035275D01*
X0104948Y0035275D01*
X0103928Y0034852D01*
X0103713Y0034637D01*
X0098885Y0034637D01*
X0074637Y0058885D01*
X0074637Y0066713D01*
X0074852Y0066928D01*
X0075275Y0067948D01*
X0075275Y0068181D01*
X0090906Y0083813D01*
X0092187Y0085094D01*
X0092187Y0094263D01*
X0092352Y0094428D01*
X0092775Y0095448D01*
X0092775Y0096552D01*
X0092352Y0097572D01*
X0091572Y0098352D01*
X0090552Y0098775D01*
X0090319Y0098775D01*
X0082687Y0106406D01*
X0082687Y0117485D01*
X0083019Y0117817D01*
X0083472Y0118909D01*
X0083472Y0120091D01*
X0083019Y0121183D01*
X0082183Y0122019D01*
X0081091Y0122472D01*
X0079909Y0122472D01*
X0081115Y0122462D02*
X0089692Y0122462D01*
X0089428Y0122352D02*
X0088648Y0121572D01*
X0088225Y0120552D01*
X0088225Y0119448D01*
X0088648Y0118428D01*
X0089428Y0117648D01*
X0090448Y0117225D01*
X0091552Y0117225D01*
X0092572Y0117648D01*
X0093352Y0118428D01*
X0093775Y0119448D01*
X0093775Y0120552D01*
X0093352Y0121572D01*
X0092572Y0122352D01*
X0091552Y0122775D01*
X0090448Y0122775D01*
X0089428Y0122352D01*
X0088520Y0121263D02*
X0082939Y0121263D01*
X0083472Y0120065D02*
X0088225Y0120065D01*
X0088466Y0118866D02*
X0083454Y0118866D01*
X0082870Y0117668D02*
X0089408Y0117668D01*
X0092592Y0117668D02*
X0107225Y0117668D01*
X0107225Y0117448D02*
X0107648Y0116428D01*
X0108428Y0115648D01*
X0109448Y0115225D01*
X0110552Y0115225D01*
X0111572Y0115648D01*
X0112352Y0116428D01*
X0112775Y0117448D01*
X0112775Y0118552D01*
X0112352Y0119572D01*
X0111572Y0120352D01*
X0110552Y0120775D01*
X0109448Y0120775D01*
X0108428Y0120352D01*
X0107648Y0119572D01*
X0107225Y0118552D01*
X0107225Y0117448D01*
X0107631Y0116469D02*
X0082687Y0116469D01*
X0082687Y0115270D02*
X0109339Y0115270D01*
X0110661Y0115270D02*
X0120636Y0115270D01*
X0121835Y0114072D02*
X0082687Y0114072D01*
X0082687Y0112873D02*
X0123033Y0112873D01*
X0124232Y0111675D02*
X0082687Y0111675D01*
X0082687Y0110476D02*
X0125430Y0110476D01*
X0126629Y0109278D02*
X0082687Y0109278D01*
X0082687Y0108079D02*
X0127827Y0108079D01*
X0129026Y0106881D02*
X0082687Y0106881D01*
X0083411Y0105682D02*
X0130224Y0105682D01*
X0131423Y0104484D02*
X0084610Y0104484D01*
X0085808Y0103285D02*
X0132621Y0103285D01*
X0133820Y0102087D02*
X0087007Y0102087D01*
X0088205Y0100888D02*
X0135018Y0100888D01*
X0136217Y0099690D02*
X0127234Y0099690D01*
X0127072Y0099852D02*
X0126052Y0100275D01*
X0124948Y0100275D01*
X0123928Y0099852D01*
X0123148Y0099072D01*
X0122725Y0098052D01*
X0122725Y0096948D01*
X0122848Y0096652D01*
X0122552Y0096775D01*
X0121448Y0096775D01*
X0120428Y0096352D01*
X0119648Y0095572D01*
X0119225Y0094552D01*
X0119225Y0093448D01*
X0119348Y0093152D01*
X0119052Y0093275D01*
X0117948Y0093275D01*
X0116928Y0092852D01*
X0116148Y0092072D01*
X0115725Y0091052D01*
X0115725Y0089948D01*
X0115848Y0089652D01*
X0115552Y0089775D01*
X0114448Y0089775D01*
X0113428Y0089352D01*
X0112648Y0088572D01*
X0112225Y0087552D01*
X0112225Y0086448D01*
X0112348Y0086152D01*
X0112052Y0086275D01*
X0110948Y0086275D01*
X0109928Y0085852D01*
X0109148Y0085072D01*
X0108725Y0084052D01*
X0108725Y0082948D01*
X0109148Y0081928D01*
X0109928Y0081148D01*
X0110948Y0080725D01*
X0112052Y0080725D01*
X0112348Y0080848D01*
X0112225Y0080552D01*
X0112225Y0079448D01*
X0112648Y0078428D01*
X0113428Y0077648D01*
X0114448Y0077225D01*
X0115552Y0077225D01*
X0115848Y0077348D01*
X0115725Y0077052D01*
X0115725Y0075948D01*
X0116148Y0074928D01*
X0116928Y0074148D01*
X0117948Y0073725D01*
X0119052Y0073725D01*
X0119348Y0073848D01*
X0119225Y0073552D01*
X0119225Y0072448D01*
X0119648Y0071428D01*
X0120428Y0070648D01*
X0121448Y0070225D01*
X0122552Y0070225D01*
X0122848Y0070348D01*
X0122725Y0070052D01*
X0122725Y0068948D01*
X0123148Y0067928D01*
X0123928Y0067148D01*
X0124948Y0066725D01*
X0126052Y0066725D01*
X0127072Y0067148D01*
X0127852Y0067928D01*
X0128275Y0068948D01*
X0128275Y0070052D01*
X0128152Y0070348D01*
X0128448Y0070225D01*
X0129552Y0070225D01*
X0130572Y0070648D01*
X0131352Y0071428D01*
X0131775Y0072448D01*
X0131775Y0073552D01*
X0131652Y0073848D01*
X0131948Y0073725D01*
X0133052Y0073725D01*
X0134072Y0074148D01*
X0134852Y0074928D01*
X0135275Y0075948D01*
X0135275Y0077052D01*
X0135152Y0077348D01*
X0135448Y0077225D01*
X0136552Y0077225D01*
X0137572Y0077648D01*
X0138352Y0078428D01*
X0138775Y0079448D01*
X0138775Y0080552D01*
X0138652Y0080848D01*
X0138948Y0080725D01*
X0140052Y0080725D01*
X0141072Y0081148D01*
X0141852Y0081928D01*
X0142275Y0082948D01*
X0142275Y0084052D01*
X0141852Y0085072D01*
X0141072Y0085852D01*
X0140052Y0086275D01*
X0138948Y0086275D01*
X0138652Y0086152D01*
X0138775Y0086448D01*
X0138775Y0087552D01*
X0138352Y0088572D01*
X0137572Y0089352D01*
X0136552Y0089775D01*
X0135448Y0089775D01*
X0135152Y0089652D01*
X0135275Y0089948D01*
X0135275Y0091052D01*
X0134852Y0092072D01*
X0134072Y0092852D01*
X0133052Y0093275D01*
X0131948Y0093275D01*
X0131652Y0093152D01*
X0131775Y0093448D01*
X0131775Y0094552D01*
X0131352Y0095572D01*
X0130572Y0096352D01*
X0129552Y0096775D01*
X0128448Y0096775D01*
X0128152Y0096652D01*
X0128275Y0096948D01*
X0128275Y0098052D01*
X0127852Y0099072D01*
X0127072Y0099852D01*
X0128093Y0098491D02*
X0137415Y0098491D01*
X0138614Y0097293D02*
X0128275Y0097293D01*
X0130830Y0096094D02*
X0139812Y0096094D01*
X0141011Y0094896D02*
X0131632Y0094896D01*
X0131775Y0093697D02*
X0142209Y0093697D01*
X0143408Y0092499D02*
X0134425Y0092499D01*
X0135172Y0091300D02*
X0144606Y0091300D01*
X0145805Y0090102D02*
X0135275Y0090102D01*
X0138021Y0088903D02*
X0147003Y0088903D01*
X0148202Y0087705D02*
X0138712Y0087705D01*
X0138775Y0086506D02*
X0149400Y0086506D01*
X0150599Y0085308D02*
X0141616Y0085308D01*
X0142251Y0084109D02*
X0151797Y0084109D01*
X0152996Y0082911D02*
X0142259Y0082911D01*
X0141636Y0081712D02*
X0146797Y0081712D01*
X0146948Y0081775D02*
X0145928Y0081352D01*
X0145148Y0080572D01*
X0144725Y0079552D01*
X0144725Y0078448D01*
X0145148Y0077428D01*
X0145928Y0076648D01*
X0146948Y0076225D01*
X0148052Y0076225D01*
X0149072Y0076648D01*
X0149852Y0077428D01*
X0150275Y0078448D01*
X0150275Y0079552D01*
X0149852Y0080572D01*
X0149072Y0081352D01*
X0148052Y0081775D01*
X0146948Y0081775D01*
X0148203Y0081712D02*
X0154194Y0081712D01*
X0155393Y0080514D02*
X0149876Y0080514D01*
X0150275Y0079315D02*
X0156591Y0079315D01*
X0157790Y0078117D02*
X0150138Y0078117D01*
X0149342Y0076918D02*
X0158988Y0076918D01*
X0159813Y0075720D02*
X0135180Y0075720D01*
X0135275Y0076918D02*
X0145658Y0076918D01*
X0144862Y0078117D02*
X0138041Y0078117D01*
X0138720Y0079315D02*
X0144725Y0079315D01*
X0145124Y0080514D02*
X0138775Y0080514D01*
X0134445Y0074521D02*
X0159813Y0074521D01*
X0159813Y0073323D02*
X0131775Y0073323D01*
X0131641Y0072124D02*
X0159813Y0072124D01*
X0158832Y0070926D02*
X0130850Y0070926D01*
X0128275Y0069727D02*
X0156803Y0069727D01*
X0156225Y0068529D02*
X0128101Y0068529D01*
X0127254Y0067330D02*
X0156274Y0067330D01*
X0156863Y0066132D02*
X0091056Y0066132D01*
X0091352Y0066428D02*
X0091775Y0067448D01*
X0091775Y0068552D01*
X0091352Y0069572D01*
X0090572Y0070352D01*
X0089552Y0070775D01*
X0088448Y0070775D01*
X0087428Y0070352D01*
X0086648Y0069572D01*
X0086225Y0068552D01*
X0086225Y0067448D01*
X0086648Y0066428D01*
X0087428Y0065648D01*
X0088448Y0065225D01*
X0089552Y0065225D01*
X0090572Y0065648D01*
X0091352Y0066428D01*
X0091726Y0067330D02*
X0123746Y0067330D01*
X0122899Y0068529D02*
X0091775Y0068529D01*
X0091197Y0069727D02*
X0122725Y0069727D01*
X0120150Y0070926D02*
X0078019Y0070926D01*
X0079218Y0072124D02*
X0119359Y0072124D01*
X0119225Y0073323D02*
X0080416Y0073323D01*
X0081615Y0074521D02*
X0116555Y0074521D01*
X0115820Y0075720D02*
X0082813Y0075720D01*
X0084012Y0076918D02*
X0115725Y0076918D01*
X0112959Y0078117D02*
X0085210Y0078117D01*
X0086409Y0079315D02*
X0112280Y0079315D01*
X0112225Y0080514D02*
X0101938Y0080514D01*
X0101572Y0080148D02*
X0102352Y0080928D01*
X0102775Y0081948D01*
X0102775Y0083052D01*
X0102352Y0084072D01*
X0101572Y0084852D01*
X0100552Y0085275D01*
X0099448Y0085275D01*
X0098428Y0084852D01*
X0097648Y0084072D01*
X0097225Y0083052D01*
X0097225Y0081948D01*
X0097648Y0080928D01*
X0098428Y0080148D01*
X0099448Y0079725D01*
X0100552Y0079725D01*
X0101572Y0080148D01*
X0102677Y0081712D02*
X0109364Y0081712D01*
X0108741Y0082911D02*
X0102775Y0082911D01*
X0102315Y0084109D02*
X0108749Y0084109D01*
X0109384Y0085308D02*
X0092187Y0085308D01*
X0092187Y0086506D02*
X0112225Y0086506D01*
X0112288Y0087705D02*
X0092187Y0087705D01*
X0092187Y0088903D02*
X0112979Y0088903D01*
X0115725Y0090102D02*
X0092187Y0090102D01*
X0092187Y0091300D02*
X0115828Y0091300D01*
X0116575Y0092499D02*
X0092187Y0092499D01*
X0092187Y0093697D02*
X0119225Y0093697D01*
X0119368Y0094896D02*
X0092546Y0094896D01*
X0092775Y0096094D02*
X0120170Y0096094D01*
X0122725Y0097293D02*
X0092468Y0097293D01*
X0091236Y0098491D02*
X0122907Y0098491D01*
X0123766Y0099690D02*
X0089404Y0099690D01*
X0086812Y0096094D02*
X0005887Y0096094D01*
X0005887Y0094896D02*
X0087454Y0094896D01*
X0087813Y0093697D02*
X0005887Y0093697D01*
X0005887Y0092499D02*
X0087813Y0092499D01*
X0087813Y0091300D02*
X0005887Y0091300D01*
X0005887Y0090102D02*
X0077178Y0090102D01*
X0077428Y0090352D02*
X0076648Y0089572D01*
X0076225Y0088552D01*
X0076225Y0087448D01*
X0076648Y0086428D01*
X0077428Y0085648D01*
X0078448Y0085225D01*
X0079552Y0085225D01*
X0080572Y0085648D01*
X0081352Y0086428D01*
X0081775Y0087448D01*
X0081775Y0088552D01*
X0081352Y0089572D01*
X0080572Y0090352D01*
X0079552Y0090775D01*
X0078448Y0090775D01*
X0077428Y0090352D01*
X0076371Y0088903D02*
X0005887Y0088903D01*
X0005887Y0087705D02*
X0076225Y0087705D01*
X0076615Y0086506D02*
X0005887Y0086506D01*
X0005887Y0085308D02*
X0078249Y0085308D01*
X0079751Y0085308D02*
X0086214Y0085308D01*
X0087413Y0086506D02*
X0081385Y0086506D01*
X0081775Y0087705D02*
X0087813Y0087705D01*
X0087813Y0088903D02*
X0081629Y0088903D01*
X0080822Y0090102D02*
X0087813Y0090102D01*
X0085016Y0084109D02*
X0005887Y0084109D01*
X0005887Y0082911D02*
X0059069Y0082911D01*
X0058928Y0082852D02*
X0058148Y0082072D01*
X0057725Y0081052D01*
X0057725Y0079948D01*
X0058148Y0078928D01*
X0058928Y0078148D01*
X0059948Y0077725D01*
X0061052Y0077725D01*
X0062072Y0078148D01*
X0062852Y0078928D01*
X0063275Y0079948D01*
X0063275Y0081052D01*
X0062852Y0082072D01*
X0062072Y0082852D01*
X0061052Y0083275D01*
X0059948Y0083275D01*
X0058928Y0082852D01*
X0057999Y0081712D02*
X0005887Y0081712D01*
X0005887Y0080514D02*
X0057725Y0080514D01*
X0057987Y0079315D02*
X0005887Y0079315D01*
X0005887Y0078117D02*
X0053692Y0078117D01*
X0053648Y0078072D02*
X0053225Y0077052D01*
X0053225Y0075948D01*
X0053648Y0074928D01*
X0054428Y0074148D01*
X0055448Y0073725D01*
X0056552Y0073725D01*
X0057572Y0074148D01*
X0058352Y0074928D01*
X0058775Y0075948D01*
X0058775Y0077052D01*
X0058352Y0078072D01*
X0057572Y0078852D01*
X0056552Y0079275D01*
X0055448Y0079275D01*
X0054428Y0078852D01*
X0053648Y0078072D01*
X0053225Y0076918D02*
X0005887Y0076918D01*
X0005887Y0075720D02*
X0053320Y0075720D01*
X0054055Y0074521D02*
X0005887Y0074521D01*
X0005887Y0073323D02*
X0074229Y0073323D01*
X0075428Y0074521D02*
X0057945Y0074521D01*
X0058680Y0075720D02*
X0076626Y0075720D01*
X0077825Y0076918D02*
X0058775Y0076918D01*
X0059003Y0078117D02*
X0058308Y0078117D01*
X0061997Y0078117D02*
X0079023Y0078117D01*
X0080222Y0079315D02*
X0063013Y0079315D01*
X0063275Y0080514D02*
X0081420Y0080514D01*
X0082619Y0081712D02*
X0063001Y0081712D01*
X0061931Y0082911D02*
X0083817Y0082911D01*
X0087607Y0080514D02*
X0098062Y0080514D01*
X0097323Y0081712D02*
X0088806Y0081712D01*
X0090004Y0082911D02*
X0097225Y0082911D01*
X0097685Y0084109D02*
X0091203Y0084109D01*
X0073031Y0072124D02*
X0005887Y0072124D01*
X0005887Y0070926D02*
X0071105Y0070926D01*
X0070005Y0069727D02*
X0005887Y0069727D01*
X0005887Y0068529D02*
X0008839Y0068529D01*
X0008817Y0068519D02*
X0007981Y0067683D01*
X0007528Y0066591D01*
X0007528Y0065409D01*
X0007981Y0064317D01*
X0008817Y0063481D01*
X0009909Y0063028D01*
X0011091Y0063028D01*
X0012183Y0063481D01*
X0013019Y0064317D01*
X0013472Y0065409D01*
X0013472Y0066591D01*
X0013019Y0067683D01*
X0012183Y0068519D01*
X0011091Y0068972D01*
X0009909Y0068972D01*
X0008817Y0068519D01*
X0007834Y0067330D02*
X0005887Y0067330D01*
X0005887Y0066132D02*
X0007528Y0066132D01*
X0007725Y0064933D02*
X0005887Y0064933D01*
X0005887Y0063734D02*
X0008563Y0063734D01*
X0005887Y0062536D02*
X0031698Y0062536D01*
X0031428Y0062648D02*
X0032448Y0062225D01*
X0033552Y0062225D01*
X0034572Y0062648D01*
X0035352Y0063428D01*
X0035775Y0064448D01*
X0035775Y0065552D01*
X0035352Y0066572D01*
X0034572Y0067352D01*
X0033552Y0067775D01*
X0032448Y0067775D01*
X0031428Y0067352D01*
X0030648Y0066572D01*
X0030225Y0065552D01*
X0030225Y0064448D01*
X0030648Y0063428D01*
X0031428Y0062648D01*
X0030521Y0063734D02*
X0026659Y0063734D01*
X0026572Y0063648D02*
X0027352Y0064428D01*
X0027775Y0065448D01*
X0027775Y0066552D01*
X0027352Y0067572D01*
X0026572Y0068352D01*
X0025552Y0068775D01*
X0024448Y0068775D01*
X0023428Y0068352D01*
X0022648Y0067572D01*
X0022225Y0066552D01*
X0022225Y0065448D01*
X0022648Y0064428D01*
X0023428Y0063648D01*
X0024448Y0063225D01*
X0025552Y0063225D01*
X0026572Y0063648D01*
X0027561Y0064933D02*
X0030225Y0064933D01*
X0030465Y0066132D02*
X0027775Y0066132D01*
X0027452Y0067330D02*
X0031406Y0067330D01*
X0034594Y0067330D02*
X0069981Y0067330D01*
X0069725Y0068529D02*
X0026146Y0068529D01*
X0023854Y0068529D02*
X0020161Y0068529D01*
X0020183Y0068519D02*
X0019091Y0068972D01*
X0017909Y0068972D01*
X0016817Y0068519D01*
X0015981Y0067683D01*
X0015528Y0066591D01*
X0015528Y0065409D01*
X0015981Y0064317D01*
X0016817Y0063481D01*
X0017909Y0063028D01*
X0019091Y0063028D01*
X0020183Y0063481D01*
X0021019Y0064317D01*
X0021472Y0065409D01*
X0021472Y0066591D01*
X0021019Y0067683D01*
X0020183Y0068519D01*
X0021166Y0067330D02*
X0022548Y0067330D01*
X0022225Y0066132D02*
X0021472Y0066132D01*
X0021275Y0064933D02*
X0022439Y0064933D01*
X0023341Y0063734D02*
X0020437Y0063734D01*
X0016563Y0063734D02*
X0012437Y0063734D01*
X0013275Y0064933D02*
X0015725Y0064933D01*
X0015528Y0066132D02*
X0013472Y0066132D01*
X0013166Y0067330D02*
X0015834Y0067330D01*
X0016839Y0068529D02*
X0012161Y0068529D01*
X0005887Y0061337D02*
X0059413Y0061337D01*
X0059428Y0061352D02*
X0058648Y0060572D01*
X0058225Y0059552D01*
X0058225Y0058448D01*
X0058648Y0057428D01*
X0059428Y0056648D01*
X0060448Y0056225D01*
X0061552Y0056225D01*
X0062572Y0056648D01*
X0063352Y0057428D01*
X0063725Y0058328D01*
X0063725Y0057448D01*
X0064148Y0056428D01*
X0064928Y0055648D01*
X0065948Y0055225D01*
X0067052Y0055225D01*
X0068072Y0055648D01*
X0068852Y0056428D01*
X0069275Y0057448D01*
X0069275Y0058552D01*
X0068852Y0059572D01*
X0068072Y0060352D01*
X0067052Y0060775D01*
X0065948Y0060775D01*
X0064928Y0060352D01*
X0064148Y0059572D01*
X0063775Y0058672D01*
X0063775Y0059552D01*
X0063352Y0060572D01*
X0062572Y0061352D01*
X0061552Y0061775D01*
X0060448Y0061775D01*
X0059428Y0061352D01*
X0058468Y0060139D02*
X0005887Y0060139D01*
X0005887Y0058940D02*
X0058225Y0058940D01*
X0058518Y0057742D02*
X0005887Y0057742D01*
X0005887Y0056543D02*
X0059680Y0056543D01*
X0062320Y0056543D02*
X0064100Y0056543D01*
X0063725Y0057742D02*
X0063482Y0057742D01*
X0063775Y0058940D02*
X0063886Y0058940D01*
X0063532Y0060139D02*
X0064715Y0060139D01*
X0062587Y0061337D02*
X0070363Y0061337D01*
X0070363Y0060139D02*
X0068285Y0060139D01*
X0069114Y0058940D02*
X0070363Y0058940D01*
X0070363Y0057742D02*
X0069275Y0057742D01*
X0068900Y0056543D02*
X0070934Y0056543D01*
X0072132Y0055345D02*
X0067341Y0055345D01*
X0065659Y0055345D02*
X0005887Y0055345D01*
X0005887Y0054146D02*
X0073331Y0054146D01*
X0074529Y0052948D02*
X0005887Y0052948D01*
X0005887Y0051749D02*
X0075728Y0051749D01*
X0076926Y0050551D02*
X0005887Y0050551D01*
X0005887Y0049352D02*
X0078125Y0049352D01*
X0079323Y0048154D02*
X0074549Y0048154D01*
X0074183Y0048519D02*
X0073091Y0048972D01*
X0071909Y0048972D01*
X0070817Y0048519D01*
X0069981Y0047683D01*
X0069528Y0046591D01*
X0069528Y0045409D01*
X0069981Y0044317D01*
X0070817Y0043481D01*
X0071909Y0043028D01*
X0073091Y0043028D01*
X0074183Y0043481D01*
X0075019Y0044317D01*
X0075472Y0045409D01*
X0075472Y0046591D01*
X0075019Y0047683D01*
X0074183Y0048519D01*
X0075321Y0046955D02*
X0080522Y0046955D01*
X0081720Y0045757D02*
X0075472Y0045757D01*
X0075119Y0044558D02*
X0082919Y0044558D01*
X0084117Y0043360D02*
X0073891Y0043360D01*
X0071109Y0043360D02*
X0029877Y0043360D01*
X0029552Y0043225D02*
X0030572Y0043648D01*
X0031352Y0044428D01*
X0031775Y0045448D01*
X0031775Y0046552D01*
X0031352Y0047572D01*
X0030572Y0048352D01*
X0029552Y0048775D01*
X0028448Y0048775D01*
X0027428Y0048352D01*
X0026648Y0047572D01*
X0026225Y0046552D01*
X0026225Y0045448D01*
X0026648Y0044428D01*
X0027428Y0043648D01*
X0028448Y0043225D01*
X0029552Y0043225D01*
X0028123Y0043360D02*
X0024391Y0043360D01*
X0024683Y0043481D02*
X0025519Y0044317D01*
X0025972Y0045409D01*
X0025972Y0046591D01*
X0025519Y0047683D01*
X0024683Y0048519D01*
X0023591Y0048972D01*
X0022409Y0048972D01*
X0021317Y0048519D01*
X0020481Y0047683D01*
X0020028Y0046591D01*
X0020028Y0045409D01*
X0020481Y0044317D01*
X0021317Y0043481D01*
X0022409Y0043028D01*
X0023591Y0043028D01*
X0024683Y0043481D01*
X0025619Y0044558D02*
X0026594Y0044558D01*
X0026225Y0045757D02*
X0025972Y0045757D01*
X0025821Y0046955D02*
X0026392Y0046955D01*
X0027230Y0048154D02*
X0025049Y0048154D01*
X0020951Y0048154D02*
X0019049Y0048154D01*
X0018683Y0048519D02*
X0017591Y0048972D01*
X0016409Y0048972D01*
X0015317Y0048519D01*
X0014481Y0047683D01*
X0014028Y0046591D01*
X0014028Y0045409D01*
X0014481Y0044317D01*
X0015317Y0043481D01*
X0016409Y0043028D01*
X0017591Y0043028D01*
X0018683Y0043481D01*
X0019519Y0044317D01*
X0019972Y0045409D01*
X0019972Y0046591D01*
X0019519Y0047683D01*
X0018683Y0048519D01*
X0019821Y0046955D02*
X0020179Y0046955D01*
X0020028Y0045757D02*
X0019972Y0045757D01*
X0019619Y0044558D02*
X0020381Y0044558D01*
X0021609Y0043360D02*
X0018391Y0043360D01*
X0015609Y0043360D02*
X0012391Y0043360D01*
X0012683Y0043481D02*
X0013519Y0044317D01*
X0013972Y0045409D01*
X0013972Y0046591D01*
X0013519Y0047683D01*
X0012683Y0048519D01*
X0011591Y0048972D01*
X0010409Y0048972D01*
X0009317Y0048519D01*
X0008481Y0047683D01*
X0008028Y0046591D01*
X0008028Y0045409D01*
X0008481Y0044317D01*
X0009317Y0043481D01*
X0010409Y0043028D01*
X0011591Y0043028D01*
X0012683Y0043481D01*
X0013619Y0044558D02*
X0014381Y0044558D01*
X0014028Y0045757D02*
X0013972Y0045757D01*
X0013821Y0046955D02*
X0014179Y0046955D01*
X0014951Y0048154D02*
X0013049Y0048154D01*
X0008951Y0048154D02*
X0005887Y0048154D01*
X0005887Y0046955D02*
X0008179Y0046955D01*
X0008028Y0045757D02*
X0005887Y0045757D01*
X0005887Y0044558D02*
X0008381Y0044558D01*
X0009609Y0043360D02*
X0005887Y0043360D01*
X0005887Y0042161D02*
X0085316Y0042161D01*
X0086514Y0040963D02*
X0005887Y0040963D01*
X0005887Y0039764D02*
X0087713Y0039764D01*
X0088911Y0038566D02*
X0005887Y0038566D01*
X0005887Y0037367D02*
X0022207Y0037367D01*
X0022533Y0037693D02*
X0021307Y0036467D01*
X0020644Y0034866D01*
X0020644Y0033134D01*
X0021307Y0031533D01*
X0022533Y0030307D01*
X0024134Y0029644D01*
X0025866Y0029644D01*
X0027467Y0030307D01*
X0028693Y0031533D01*
X0029356Y0033134D01*
X0029356Y0034866D01*
X0028693Y0036467D01*
X0027467Y0037693D01*
X0025866Y0038356D01*
X0024134Y0038356D01*
X0022533Y0037693D01*
X0021184Y0036169D02*
X0005887Y0036169D01*
X0005887Y0034970D02*
X0020687Y0034970D01*
X0020644Y0033772D02*
X0005887Y0033772D01*
X0005887Y0032573D02*
X0020876Y0032573D01*
X0021465Y0031375D02*
X0005887Y0031375D01*
X0005887Y0030176D02*
X0022849Y0030176D01*
X0024134Y0028356D02*
X0022533Y0027693D01*
X0021307Y0026467D01*
X0020644Y0024866D01*
X0020644Y0023134D01*
X0021307Y0021533D01*
X0022533Y0020307D01*
X0024134Y0019644D01*
X0025866Y0019644D01*
X0027467Y0020307D01*
X0028693Y0021533D01*
X0029356Y0023134D01*
X0029356Y0024866D01*
X0028693Y0026467D01*
X0027467Y0027693D01*
X0025866Y0028356D01*
X0024134Y0028356D01*
X0022741Y0027779D02*
X0005887Y0027779D01*
X0005887Y0026581D02*
X0021420Y0026581D01*
X0020858Y0025382D02*
X0005887Y0025382D01*
X0005887Y0024184D02*
X0020644Y0024184D01*
X0020706Y0022985D02*
X0005887Y0022985D01*
X0005887Y0021787D02*
X0021202Y0021787D01*
X0022252Y0020588D02*
X0005887Y0020588D01*
X0005887Y0019390D02*
X0078725Y0019390D01*
X0078832Y0018191D02*
X0005887Y0018191D01*
X0005887Y0016993D02*
X0079583Y0016993D01*
X0083417Y0016993D02*
X0099267Y0016993D01*
X0098033Y0015794D02*
X0006668Y0015794D01*
X0007867Y0014596D02*
X0097725Y0014596D01*
X0097953Y0013397D02*
X0009065Y0013397D01*
X0027748Y0020588D02*
X0032252Y0020588D01*
X0032533Y0020307D02*
X0034134Y0019644D01*
X0035866Y0019644D01*
X0037467Y0020307D01*
X0038693Y0021533D01*
X0039356Y0023134D01*
X0039356Y0024866D01*
X0038693Y0026467D01*
X0037467Y0027693D01*
X0035866Y0028356D01*
X0034134Y0028356D01*
X0032533Y0027693D01*
X0031307Y0026467D01*
X0030644Y0024866D01*
X0030644Y0023134D01*
X0031307Y0021533D01*
X0032533Y0020307D01*
X0031202Y0021787D02*
X0028798Y0021787D01*
X0029294Y0022985D02*
X0030706Y0022985D01*
X0030644Y0024184D02*
X0029356Y0024184D01*
X0029142Y0025382D02*
X0030858Y0025382D01*
X0031420Y0026581D02*
X0028580Y0026581D01*
X0027259Y0027779D02*
X0032741Y0027779D01*
X0033246Y0029766D02*
X0033930Y0029544D01*
X0034616Y0029435D01*
X0034616Y0033616D01*
X0035384Y0033616D01*
X0035384Y0029435D01*
X0036070Y0029544D01*
X0036754Y0029766D01*
X0037394Y0030093D01*
X0037976Y0030515D01*
X0038485Y0031024D01*
X0038907Y0031606D01*
X0039234Y0032246D01*
X0039456Y0032930D01*
X0039565Y0033616D01*
X0035384Y0033616D01*
X0035384Y0034384D01*
X0039565Y0034384D01*
X0039456Y0035070D01*
X0039234Y0035754D01*
X0038907Y0036394D01*
X0038485Y0036976D01*
X0037976Y0037485D01*
X0037394Y0037907D01*
X0036754Y0038234D01*
X0036070Y0038456D01*
X0035384Y0038565D01*
X0035384Y0034384D01*
X0034616Y0034384D01*
X0034616Y0033616D01*
X0030435Y0033616D01*
X0030544Y0032930D01*
X0030766Y0032246D01*
X0031093Y0031606D01*
X0031515Y0031024D01*
X0032024Y0030515D01*
X0032606Y0030093D01*
X0033246Y0029766D01*
X0032491Y0030176D02*
X0027151Y0030176D01*
X0028535Y0031375D02*
X0031260Y0031375D01*
X0030660Y0032573D02*
X0029124Y0032573D01*
X0029356Y0033772D02*
X0034616Y0033772D01*
X0034616Y0034384D02*
X0030435Y0034384D01*
X0030544Y0035070D01*
X0030766Y0035754D01*
X0031093Y0036394D01*
X0031515Y0036976D01*
X0032024Y0037485D01*
X0032606Y0037907D01*
X0033246Y0038234D01*
X0033930Y0038456D01*
X0034616Y0038565D01*
X0034616Y0034384D01*
X0034616Y0034970D02*
X0035384Y0034970D01*
X0035384Y0033772D02*
X0040644Y0033772D01*
X0040644Y0033134D02*
X0041307Y0031533D01*
X0042533Y0030307D01*
X0044134Y0029644D01*
X0045866Y0029644D01*
X0047467Y0030307D01*
X0048693Y0031533D01*
X0049356Y0033134D01*
X0049356Y0034866D01*
X0048693Y0036467D01*
X0047467Y0037693D01*
X0045866Y0038356D01*
X0044134Y0038356D01*
X0042533Y0037693D01*
X0041307Y0036467D01*
X0040644Y0034866D01*
X0040644Y0033134D01*
X0040876Y0032573D02*
X0039340Y0032573D01*
X0038740Y0031375D02*
X0041465Y0031375D01*
X0042849Y0030176D02*
X0037509Y0030176D01*
X0035384Y0030176D02*
X0034616Y0030176D01*
X0034616Y0031375D02*
X0035384Y0031375D01*
X0035384Y0032573D02*
X0034616Y0032573D01*
X0039472Y0034970D02*
X0040687Y0034970D01*
X0041184Y0036169D02*
X0039022Y0036169D01*
X0038094Y0037367D02*
X0042207Y0037367D01*
X0035384Y0037367D02*
X0034616Y0037367D01*
X0034616Y0036169D02*
X0035384Y0036169D01*
X0031906Y0037367D02*
X0027793Y0037367D01*
X0028816Y0036169D02*
X0030978Y0036169D01*
X0030528Y0034970D02*
X0029313Y0034970D01*
X0037259Y0027779D02*
X0042741Y0027779D01*
X0042533Y0027693D02*
X0041307Y0026467D01*
X0040644Y0024866D01*
X0040644Y0023134D01*
X0041307Y0021533D01*
X0042533Y0020307D01*
X0044134Y0019644D01*
X0045866Y0019644D01*
X0047467Y0020307D01*
X0048693Y0021533D01*
X0049356Y0023134D01*
X0049356Y0024866D01*
X0048693Y0026467D01*
X0047467Y0027693D01*
X0045866Y0028356D01*
X0044134Y0028356D01*
X0042533Y0027693D01*
X0041420Y0026581D02*
X0038580Y0026581D01*
X0039142Y0025382D02*
X0040858Y0025382D01*
X0040644Y0024184D02*
X0039356Y0024184D01*
X0039294Y0022985D02*
X0040706Y0022985D01*
X0041202Y0021787D02*
X0038798Y0021787D01*
X0037748Y0020588D02*
X0042252Y0020588D01*
X0047748Y0020588D02*
X0052252Y0020588D01*
X0052533Y0020307D02*
X0054134Y0019644D01*
X0055866Y0019644D01*
X0057467Y0020307D01*
X0058693Y0021533D01*
X0059356Y0023134D01*
X0059356Y0024866D01*
X0058693Y0026467D01*
X0057467Y0027693D01*
X0055866Y0028356D01*
X0054134Y0028356D01*
X0052533Y0027693D01*
X0051307Y0026467D01*
X0050644Y0024866D01*
X0050644Y0023134D01*
X0051307Y0021533D01*
X0052533Y0020307D01*
X0051202Y0021787D02*
X0048798Y0021787D01*
X0049294Y0022985D02*
X0050706Y0022985D01*
X0050644Y0024184D02*
X0049356Y0024184D01*
X0049142Y0025382D02*
X0050858Y0025382D01*
X0051420Y0026581D02*
X0048580Y0026581D01*
X0047259Y0027779D02*
X0052741Y0027779D01*
X0054134Y0029644D02*
X0052533Y0030307D01*
X0051307Y0031533D01*
X0050644Y0033134D01*
X0050644Y0034866D01*
X0051307Y0036467D01*
X0052533Y0037693D01*
X0054134Y0038356D01*
X0055866Y0038356D01*
X0057467Y0037693D01*
X0058693Y0036467D01*
X0059356Y0034866D01*
X0059356Y0033134D01*
X0058693Y0031533D01*
X0057467Y0030307D01*
X0055866Y0029644D01*
X0054134Y0029644D01*
X0052849Y0030176D02*
X0047151Y0030176D01*
X0048535Y0031375D02*
X0051465Y0031375D01*
X0050876Y0032573D02*
X0049124Y0032573D01*
X0049356Y0033772D02*
X0050644Y0033772D01*
X0050687Y0034970D02*
X0049313Y0034970D01*
X0048816Y0036169D02*
X0051184Y0036169D01*
X0052207Y0037367D02*
X0047793Y0037367D01*
X0057793Y0037367D02*
X0062207Y0037367D01*
X0062533Y0037693D02*
X0061307Y0036467D01*
X0060644Y0034866D01*
X0060644Y0033134D01*
X0061307Y0031533D01*
X0062533Y0030307D01*
X0064134Y0029644D01*
X0065866Y0029644D01*
X0067467Y0030307D01*
X0068693Y0031533D01*
X0069356Y0033134D01*
X0069356Y0034866D01*
X0068693Y0036467D01*
X0067467Y0037693D01*
X0065866Y0038356D01*
X0064134Y0038356D01*
X0062533Y0037693D01*
X0061184Y0036169D02*
X0058816Y0036169D01*
X0059313Y0034970D02*
X0060687Y0034970D01*
X0060644Y0033772D02*
X0059356Y0033772D01*
X0059124Y0032573D02*
X0060876Y0032573D01*
X0061465Y0031375D02*
X0058535Y0031375D01*
X0057151Y0030176D02*
X0062849Y0030176D01*
X0064134Y0028356D02*
X0062533Y0027693D01*
X0061307Y0026467D01*
X0060644Y0024866D01*
X0060644Y0023134D01*
X0061307Y0021533D01*
X0062533Y0020307D01*
X0064134Y0019644D01*
X0065866Y0019644D01*
X0067467Y0020307D01*
X0068693Y0021533D01*
X0069356Y0023134D01*
X0069356Y0024866D01*
X0068693Y0026467D01*
X0067467Y0027693D01*
X0065866Y0028356D01*
X0064134Y0028356D01*
X0062741Y0027779D02*
X0057259Y0027779D01*
X0058580Y0026581D02*
X0061420Y0026581D01*
X0060858Y0025382D02*
X0059142Y0025382D01*
X0059356Y0024184D02*
X0060644Y0024184D01*
X0060706Y0022985D02*
X0059294Y0022985D01*
X0058798Y0021787D02*
X0061202Y0021787D01*
X0062252Y0020588D02*
X0057748Y0020588D01*
X0067748Y0020588D02*
X0079164Y0020588D01*
X0081617Y0021787D02*
X0068798Y0021787D01*
X0069294Y0022985D02*
X0082816Y0022985D01*
X0081052Y0026225D02*
X0082072Y0026648D01*
X0082852Y0027428D01*
X0083275Y0028448D01*
X0083275Y0029552D01*
X0082852Y0030572D01*
X0082072Y0031352D01*
X0081052Y0031775D01*
X0079948Y0031775D01*
X0078928Y0031352D01*
X0078148Y0030572D01*
X0077725Y0029552D01*
X0077725Y0028448D01*
X0078148Y0027428D01*
X0078928Y0026648D01*
X0079948Y0026225D01*
X0081052Y0026225D01*
X0081910Y0026581D02*
X0111911Y0026581D01*
X0112319Y0027779D02*
X0082998Y0027779D01*
X0083275Y0028978D02*
X0113054Y0028978D01*
X0115083Y0030176D02*
X0107100Y0030176D01*
X0108037Y0031375D02*
X0116281Y0031375D01*
X0117480Y0032573D02*
X0108275Y0032573D01*
X0107977Y0033772D02*
X0118678Y0033772D01*
X0119877Y0034970D02*
X0106787Y0034970D01*
X0104213Y0034970D02*
X0098552Y0034970D01*
X0097354Y0036169D02*
X0121075Y0036169D01*
X0122274Y0037367D02*
X0096155Y0037367D01*
X0094957Y0038566D02*
X0123472Y0038566D01*
X0123667Y0032573D02*
X0124225Y0032573D01*
X0124463Y0031375D02*
X0122468Y0031375D01*
X0121270Y0030176D02*
X0125400Y0030176D01*
X0128600Y0030176D02*
X0157477Y0030176D01*
X0158513Y0031212D02*
X0155788Y0028487D01*
X0154313Y0024927D01*
X0154313Y0021073D01*
X0155788Y0017513D01*
X0158513Y0014788D01*
X0162073Y0013313D01*
X0165927Y0013313D01*
X0169487Y0014788D01*
X0172212Y0017513D01*
X0173687Y0021073D01*
X0173687Y0024927D01*
X0172212Y0028487D01*
X0169487Y0031212D01*
X0165927Y0032687D01*
X0162073Y0032687D01*
X0158513Y0031212D01*
X0158906Y0031375D02*
X0129537Y0031375D01*
X0129775Y0032573D02*
X0161799Y0032573D01*
X0166201Y0032573D02*
X0214149Y0032573D01*
X0214148Y0032572D02*
X0213725Y0031552D01*
X0213725Y0030448D01*
X0214148Y0029428D01*
X0214928Y0028648D01*
X0215948Y0028225D01*
X0217052Y0028225D01*
X0218072Y0028648D01*
X0218852Y0029428D01*
X0219275Y0030448D01*
X0219275Y0031552D01*
X0218852Y0032572D01*
X0218072Y0033352D01*
X0217052Y0033775D01*
X0215948Y0033775D01*
X0214928Y0033352D01*
X0214148Y0032572D01*
X0213725Y0031375D02*
X0169094Y0031375D01*
X0170523Y0030176D02*
X0213838Y0030176D01*
X0214598Y0028978D02*
X0171721Y0028978D01*
X0172505Y0027779D02*
X0221319Y0027779D01*
X0221225Y0027552D02*
X0221648Y0028572D01*
X0222428Y0029352D01*
X0223448Y0029775D01*
X0224552Y0029775D01*
X0225572Y0029352D01*
X0226352Y0028572D01*
X0226775Y0027552D01*
X0226775Y0026448D01*
X0226352Y0025428D01*
X0225572Y0024648D01*
X0224552Y0024225D01*
X0223448Y0024225D01*
X0222549Y0024598D01*
X0222775Y0024052D01*
X0222775Y0022948D01*
X0222352Y0021928D01*
X0221572Y0021148D01*
X0220552Y0020725D01*
X0219448Y0020725D01*
X0218428Y0021148D01*
X0217648Y0021928D01*
X0217225Y0022948D01*
X0217225Y0024052D01*
X0217648Y0025072D01*
X0218428Y0025852D01*
X0219448Y0026275D01*
X0220552Y0026275D01*
X0221451Y0025902D01*
X0221225Y0026448D01*
X0221225Y0027552D01*
X0221225Y0026581D02*
X0173002Y0026581D01*
X0173498Y0025382D02*
X0217958Y0025382D01*
X0217280Y0024184D02*
X0173687Y0024184D01*
X0173687Y0022985D02*
X0217225Y0022985D01*
X0217789Y0021787D02*
X0212300Y0021787D01*
X0211999Y0022087D02*
X0191901Y0022087D01*
X0190913Y0021099D01*
X0190913Y0014901D01*
X0191901Y0013913D01*
X0193299Y0013913D01*
X0210601Y0013913D01*
X0211999Y0013913D01*
X0212987Y0014901D01*
X0212987Y0021099D01*
X0211999Y0022087D01*
X0212987Y0020588D02*
X0257113Y0020588D01*
X0257113Y0019390D02*
X0212987Y0019390D01*
X0212987Y0018191D02*
X0257113Y0018191D01*
X0257113Y0016993D02*
X0221733Y0016993D01*
X0222967Y0015794D02*
X0230332Y0015794D01*
X0229133Y0014596D02*
X0223275Y0014596D01*
X0223047Y0013397D02*
X0227935Y0013397D01*
X0236668Y0015794D02*
X0243832Y0015794D01*
X0242633Y0014596D02*
X0237867Y0014596D01*
X0239065Y0013397D02*
X0241435Y0013397D01*
X0249668Y0015794D02*
X0256332Y0015794D01*
X0255133Y0014596D02*
X0250867Y0014596D01*
X0252065Y0013397D02*
X0253935Y0013397D01*
X0247572Y0021148D02*
X0246552Y0020725D01*
X0245448Y0020725D01*
X0244428Y0021148D01*
X0243648Y0021928D01*
X0243225Y0022948D01*
X0243225Y0024052D01*
X0243648Y0025072D01*
X0244428Y0025852D01*
X0245448Y0026275D01*
X0246552Y0026275D01*
X0247572Y0025852D01*
X0248352Y0025072D01*
X0248775Y0024052D01*
X0248775Y0022948D01*
X0248352Y0021928D01*
X0247572Y0021148D01*
X0248211Y0021787D02*
X0257113Y0021787D01*
X0257113Y0022985D02*
X0248775Y0022985D01*
X0248720Y0024184D02*
X0257113Y0024184D01*
X0257113Y0025382D02*
X0248042Y0025382D01*
X0243958Y0025382D02*
X0235042Y0025382D01*
X0235352Y0025072D02*
X0234572Y0025852D01*
X0233552Y0026275D01*
X0232448Y0026275D01*
X0231428Y0025852D01*
X0230648Y0025072D01*
X0230225Y0024052D01*
X0230225Y0022948D01*
X0230648Y0021928D01*
X0231428Y0021148D01*
X0232448Y0020725D01*
X0233552Y0020725D01*
X0234572Y0021148D01*
X0235352Y0021928D01*
X0235775Y0022948D01*
X0235775Y0024052D01*
X0235352Y0025072D01*
X0235720Y0024184D02*
X0243280Y0024184D01*
X0243225Y0022985D02*
X0235775Y0022985D01*
X0235211Y0021787D02*
X0243789Y0021787D01*
X0230789Y0021787D02*
X0222211Y0021787D01*
X0222775Y0022985D02*
X0230225Y0022985D01*
X0230280Y0024184D02*
X0222720Y0024184D01*
X0226306Y0025382D02*
X0230958Y0025382D01*
X0226775Y0026581D02*
X0257113Y0026581D01*
X0257113Y0027779D02*
X0226681Y0027779D01*
X0225946Y0028978D02*
X0257113Y0028978D01*
X0257113Y0032000D02*
X0224000Y0032000D01*
X0221000Y0035000D01*
X0221000Y0050000D01*
X0219000Y0052000D01*
X0196000Y0052000D01*
X0194000Y0054000D01*
X0194000Y0077000D01*
X0196000Y0079000D01*
X0210000Y0079000D01*
X0212000Y0081000D01*
X0212000Y0093000D01*
X0192000Y0113000D01*
X0185000Y0113000D01*
X0183000Y0115000D01*
X0183000Y0137000D01*
X0181000Y0139000D01*
X0168275Y0139000D01*
X0168275Y0139052D01*
X0167852Y0140072D01*
X0167072Y0140852D01*
X0166052Y0141275D01*
X0164948Y0141275D01*
X0163928Y0140852D01*
X0163148Y0140072D01*
X0162725Y0139052D01*
X0162725Y0139000D01*
X0161000Y0139000D01*
X0158000Y0142000D01*
X0158000Y0158113D01*
X0235925Y0158113D01*
X0237613Y0156425D01*
X0237613Y0134925D01*
X0257113Y0115425D01*
X0257113Y0032000D01*
X0257113Y0032573D02*
X0223427Y0032573D01*
X0222228Y0033772D02*
X0257113Y0033772D01*
X0257113Y0034970D02*
X0221030Y0034970D01*
X0221000Y0036169D02*
X0257113Y0036169D01*
X0257113Y0037367D02*
X0221000Y0037367D01*
X0221000Y0038566D02*
X0257113Y0038566D01*
X0257113Y0039764D02*
X0221000Y0039764D01*
X0221000Y0040963D02*
X0257113Y0040963D01*
X0257113Y0042161D02*
X0221000Y0042161D01*
X0221000Y0043360D02*
X0257113Y0043360D01*
X0257113Y0044558D02*
X0221000Y0044558D01*
X0221000Y0045757D02*
X0257113Y0045757D01*
X0257113Y0046955D02*
X0221000Y0046955D01*
X0221000Y0048154D02*
X0257113Y0048154D01*
X0257113Y0049352D02*
X0221000Y0049352D01*
X0220449Y0050551D02*
X0257113Y0050551D01*
X0257113Y0051749D02*
X0219251Y0051749D01*
X0218837Y0049352D02*
X0192235Y0049352D01*
X0192275Y0049448D02*
X0191852Y0048428D01*
X0191072Y0047648D01*
X0190052Y0047225D01*
X0188948Y0047225D01*
X0187928Y0047648D01*
X0187148Y0048428D01*
X0186725Y0049448D01*
X0186725Y0050552D01*
X0187148Y0051572D01*
X0187928Y0052352D01*
X0188948Y0052775D01*
X0190052Y0052775D01*
X0191072Y0052352D01*
X0191852Y0051572D01*
X0192275Y0050552D01*
X0192275Y0049448D01*
X0192275Y0050551D02*
X0194639Y0050551D01*
X0193440Y0051749D02*
X0191675Y0051749D01*
X0192241Y0052948D02*
X0176041Y0052948D01*
X0174843Y0051749D02*
X0187325Y0051749D01*
X0186725Y0050551D02*
X0173644Y0050551D01*
X0172446Y0049352D02*
X0186765Y0049352D01*
X0187422Y0048154D02*
X0171247Y0048154D01*
X0170049Y0046955D02*
X0219013Y0046955D01*
X0219013Y0045757D02*
X0168850Y0045757D01*
X0167652Y0044558D02*
X0219013Y0044558D01*
X0219013Y0043360D02*
X0166453Y0043360D01*
X0165255Y0042161D02*
X0219013Y0042161D01*
X0219013Y0040963D02*
X0164056Y0040963D01*
X0162858Y0039764D02*
X0219013Y0039764D01*
X0219013Y0038566D02*
X0161659Y0038566D01*
X0160461Y0037367D02*
X0219013Y0037367D01*
X0219013Y0036169D02*
X0159262Y0036169D01*
X0158064Y0034970D02*
X0219013Y0034970D01*
X0219418Y0033772D02*
X0217059Y0033772D01*
X0215941Y0033772D02*
X0129477Y0033772D01*
X0120071Y0028978D02*
X0156279Y0028978D01*
X0155495Y0027779D02*
X0118873Y0027779D01*
X0118479Y0026581D02*
X0117775Y0026581D01*
X0120521Y0026581D02*
X0154998Y0026581D01*
X0154502Y0025382D02*
X0121931Y0025382D01*
X0122275Y0024184D02*
X0154313Y0024184D01*
X0154313Y0022985D02*
X0122083Y0022985D01*
X0121211Y0021787D02*
X0154313Y0021787D01*
X0154514Y0020588D02*
X0111257Y0020588D01*
X0112456Y0021787D02*
X0117789Y0021787D01*
X0116917Y0022985D02*
X0113654Y0022985D01*
X0114853Y0024184D02*
X0116725Y0024184D01*
X0110713Y0025382D02*
X0069142Y0025382D01*
X0069356Y0024184D02*
X0109514Y0024184D01*
X0103900Y0030176D02*
X0083016Y0030176D01*
X0082018Y0031375D02*
X0096103Y0031375D01*
X0094904Y0032573D02*
X0079912Y0032573D01*
X0079852Y0032428D02*
X0080275Y0033448D01*
X0080275Y0034552D01*
X0079852Y0035572D01*
X0079072Y0036352D01*
X0078052Y0036775D01*
X0076948Y0036775D01*
X0075928Y0036352D01*
X0075148Y0035572D01*
X0074725Y0034552D01*
X0074725Y0033448D01*
X0075148Y0032428D01*
X0075928Y0031648D01*
X0076948Y0031225D01*
X0078052Y0031225D01*
X0079072Y0031648D01*
X0079852Y0032428D01*
X0078982Y0031375D02*
X0078413Y0031375D01*
X0077984Y0030176D02*
X0067151Y0030176D01*
X0068535Y0031375D02*
X0076587Y0031375D01*
X0075088Y0032573D02*
X0069124Y0032573D01*
X0069356Y0033772D02*
X0074725Y0033772D01*
X0074898Y0034970D02*
X0069313Y0034970D01*
X0068816Y0036169D02*
X0075745Y0036169D01*
X0079255Y0036169D02*
X0091309Y0036169D01*
X0092507Y0034970D02*
X0080102Y0034970D01*
X0080275Y0033772D02*
X0093706Y0033772D01*
X0090110Y0037367D02*
X0067793Y0037367D01*
X0069881Y0044558D02*
X0031406Y0044558D01*
X0031775Y0045757D02*
X0069528Y0045757D01*
X0069679Y0046955D02*
X0031608Y0046955D01*
X0030770Y0048154D02*
X0070451Y0048154D01*
X0079376Y0054146D02*
X0151124Y0054146D01*
X0149925Y0052948D02*
X0080575Y0052948D01*
X0081773Y0051749D02*
X0148727Y0051749D01*
X0147528Y0050551D02*
X0110873Y0050551D01*
X0110572Y0050852D02*
X0109552Y0051275D01*
X0108448Y0051275D01*
X0107428Y0050852D01*
X0106648Y0050072D01*
X0106225Y0049052D01*
X0106225Y0047948D01*
X0106648Y0046928D01*
X0107428Y0046148D01*
X0108448Y0045725D01*
X0109552Y0045725D01*
X0110572Y0046148D01*
X0111352Y0046928D01*
X0111775Y0047948D01*
X0111775Y0049052D01*
X0111352Y0050072D01*
X0110572Y0050852D01*
X0111650Y0049352D02*
X0146330Y0049352D01*
X0145131Y0048154D02*
X0111775Y0048154D01*
X0112448Y0047275D02*
X0111428Y0046852D01*
X0110648Y0046072D01*
X0110225Y0045052D01*
X0110225Y0043948D01*
X0110648Y0042928D01*
X0111428Y0042148D01*
X0112448Y0041725D01*
X0113552Y0041725D01*
X0114572Y0042148D01*
X0115352Y0042928D01*
X0115775Y0043948D01*
X0115775Y0045052D01*
X0115352Y0046072D01*
X0114572Y0046852D01*
X0113552Y0047275D01*
X0112448Y0047275D01*
X0111677Y0046955D02*
X0111364Y0046955D01*
X0110517Y0045757D02*
X0109628Y0045757D01*
X0108372Y0045757D02*
X0097167Y0045757D01*
X0097072Y0045852D02*
X0096052Y0046275D01*
X0094948Y0046275D01*
X0093928Y0045852D01*
X0093148Y0045072D01*
X0092725Y0044052D01*
X0092725Y0042948D01*
X0093148Y0041928D01*
X0093928Y0041148D01*
X0094948Y0040725D01*
X0096052Y0040725D01*
X0097072Y0041148D01*
X0097852Y0041928D01*
X0098275Y0042948D01*
X0098275Y0044052D01*
X0097852Y0045072D01*
X0097072Y0045852D01*
X0098065Y0044558D02*
X0110225Y0044558D01*
X0110469Y0043360D02*
X0098275Y0043360D01*
X0097949Y0042161D02*
X0111415Y0042161D01*
X0114585Y0042161D02*
X0132051Y0042161D01*
X0131725Y0043360D02*
X0115531Y0043360D01*
X0115775Y0044558D02*
X0131935Y0044558D01*
X0132833Y0045757D02*
X0115483Y0045757D01*
X0114323Y0046955D02*
X0143933Y0046955D01*
X0142734Y0045757D02*
X0136167Y0045757D01*
X0135626Y0040963D02*
X0157869Y0040963D01*
X0156671Y0039764D02*
X0093758Y0039764D01*
X0094374Y0040963D02*
X0092560Y0040963D01*
X0093051Y0042161D02*
X0091361Y0042161D01*
X0090163Y0043360D02*
X0092725Y0043360D01*
X0092935Y0044558D02*
X0088964Y0044558D01*
X0087766Y0045757D02*
X0093833Y0045757D01*
X0096626Y0040963D02*
X0133374Y0040963D01*
X0145184Y0042161D02*
X0159068Y0042161D01*
X0160266Y0043360D02*
X0146383Y0043360D01*
X0147581Y0044558D02*
X0161465Y0044558D01*
X0162663Y0045757D02*
X0148780Y0045757D01*
X0149978Y0046955D02*
X0163862Y0046955D01*
X0165060Y0048154D02*
X0151177Y0048154D01*
X0152375Y0049352D02*
X0166259Y0049352D01*
X0167457Y0050551D02*
X0153574Y0050551D01*
X0154772Y0051749D02*
X0168656Y0051749D01*
X0169854Y0052948D02*
X0165122Y0052948D01*
X0165352Y0053178D02*
X0165775Y0054198D01*
X0165775Y0055302D01*
X0165352Y0056322D01*
X0164572Y0057102D01*
X0163552Y0057525D01*
X0162448Y0057525D01*
X0161428Y0057102D01*
X0160648Y0056322D01*
X0160225Y0055302D01*
X0160225Y0054198D01*
X0160648Y0053178D01*
X0161428Y0052398D01*
X0162448Y0051975D01*
X0163552Y0051975D01*
X0164572Y0052398D01*
X0165352Y0053178D01*
X0165753Y0054146D02*
X0171053Y0054146D01*
X0172251Y0055345D02*
X0165757Y0055345D01*
X0165131Y0056543D02*
X0173450Y0056543D01*
X0174648Y0057742D02*
X0160765Y0057742D01*
X0160869Y0056543D02*
X0159566Y0056543D01*
X0160243Y0055345D02*
X0158368Y0055345D01*
X0157169Y0054146D02*
X0160247Y0054146D01*
X0160878Y0052948D02*
X0155971Y0052948D01*
X0153521Y0056543D02*
X0106320Y0056543D01*
X0106572Y0056648D02*
X0107352Y0057428D01*
X0107775Y0058448D01*
X0107775Y0059552D01*
X0107352Y0060572D01*
X0106572Y0061352D01*
X0105552Y0061775D01*
X0104448Y0061775D01*
X0103428Y0061352D01*
X0102648Y0060572D01*
X0102225Y0059552D01*
X0102225Y0058448D01*
X0102648Y0057428D01*
X0103428Y0056648D01*
X0104448Y0056225D01*
X0105552Y0056225D01*
X0106572Y0056648D01*
X0107482Y0057742D02*
X0154719Y0057742D01*
X0155918Y0058940D02*
X0107775Y0058940D01*
X0107532Y0060139D02*
X0156863Y0060139D01*
X0156863Y0061337D02*
X0106587Y0061337D01*
X0103413Y0061337D02*
X0099449Y0061337D01*
X0099352Y0061572D02*
X0098572Y0062352D01*
X0097552Y0062775D01*
X0096448Y0062775D01*
X0095775Y0062496D01*
X0095775Y0063552D01*
X0095352Y0064572D01*
X0094572Y0065352D01*
X0093552Y0065775D01*
X0092448Y0065775D01*
X0091428Y0065352D01*
X0090648Y0064572D01*
X0090225Y0063552D01*
X0090225Y0062448D01*
X0090648Y0061428D01*
X0091428Y0060648D01*
X0092448Y0060225D01*
X0093552Y0060225D01*
X0094225Y0060504D01*
X0094225Y0059448D01*
X0094648Y0058428D01*
X0095428Y0057648D01*
X0096448Y0057225D01*
X0097552Y0057225D01*
X0098572Y0057648D01*
X0099352Y0058428D01*
X0099775Y0059448D01*
X0099775Y0060552D01*
X0099352Y0061572D01*
X0099775Y0060139D02*
X0102468Y0060139D01*
X0102225Y0058940D02*
X0099565Y0058940D01*
X0098666Y0057742D02*
X0102518Y0057742D01*
X0103680Y0056543D02*
X0076979Y0056543D01*
X0078178Y0055345D02*
X0152322Y0055345D01*
X0161137Y0058940D02*
X0175847Y0058940D01*
X0177046Y0060139D02*
X0161137Y0060139D01*
X0161137Y0061337D02*
X0178244Y0061337D01*
X0178813Y0062536D02*
X0161137Y0062536D01*
X0161137Y0063734D02*
X0178813Y0063734D01*
X0178813Y0064933D02*
X0161137Y0064933D01*
X0161137Y0066132D02*
X0178813Y0066132D01*
X0178813Y0067330D02*
X0161726Y0067330D01*
X0162622Y0068529D02*
X0178813Y0068529D01*
X0178813Y0069727D02*
X0163820Y0069727D01*
X0164187Y0070926D02*
X0178813Y0070926D01*
X0178813Y0072124D02*
X0164187Y0072124D01*
X0164187Y0073323D02*
X0178813Y0073323D01*
X0178813Y0074521D02*
X0164187Y0074521D01*
X0164187Y0075720D02*
X0178813Y0075720D01*
X0178813Y0076918D02*
X0164187Y0076918D01*
X0164187Y0078117D02*
X0178813Y0078117D01*
X0178813Y0079315D02*
X0164187Y0079315D01*
X0164187Y0080514D02*
X0178813Y0080514D01*
X0178813Y0081712D02*
X0165023Y0081712D01*
X0166221Y0082911D02*
X0178813Y0082911D01*
X0178813Y0084109D02*
X0167420Y0084109D01*
X0168618Y0085308D02*
X0178813Y0085308D01*
X0178813Y0086506D02*
X0170430Y0086506D01*
X0171174Y0087705D02*
X0178813Y0087705D01*
X0178813Y0088903D02*
X0171275Y0088903D01*
X0170822Y0090102D02*
X0178813Y0090102D01*
X0178813Y0091300D02*
X0150793Y0091300D01*
X0151992Y0090102D02*
X0166178Y0090102D01*
X0165725Y0088903D02*
X0153190Y0088903D01*
X0154389Y0087705D02*
X0165394Y0087705D01*
X0164196Y0086506D02*
X0155587Y0086506D01*
X0156786Y0085308D02*
X0162997Y0085308D01*
X0161799Y0084109D02*
X0157984Y0084109D01*
X0162000Y0081500D02*
X0167000Y0086500D01*
X0168500Y0088500D01*
X0178813Y0092499D02*
X0149595Y0092499D01*
X0148396Y0093697D02*
X0178813Y0093697D01*
X0178011Y0094896D02*
X0147198Y0094896D01*
X0145999Y0096094D02*
X0149057Y0096094D01*
X0148928Y0096148D02*
X0149948Y0095725D01*
X0151052Y0095725D01*
X0152072Y0096148D01*
X0152852Y0096928D01*
X0153275Y0097948D01*
X0153275Y0099052D01*
X0152852Y0100072D01*
X0152072Y0100852D01*
X0151052Y0101275D01*
X0149948Y0101275D01*
X0148928Y0100852D01*
X0148148Y0100072D01*
X0147725Y0099052D01*
X0147725Y0097948D01*
X0148148Y0096928D01*
X0148928Y0096148D01*
X0147997Y0097293D02*
X0144801Y0097293D01*
X0143602Y0098491D02*
X0147725Y0098491D01*
X0147989Y0099690D02*
X0142404Y0099690D01*
X0141205Y0100888D02*
X0149015Y0100888D01*
X0151985Y0100888D02*
X0155572Y0100888D01*
X0155648Y0101072D02*
X0155225Y0100052D01*
X0155225Y0098948D01*
X0155648Y0097928D01*
X0156428Y0097148D01*
X0157448Y0096725D01*
X0158552Y0096725D01*
X0159572Y0097148D01*
X0160352Y0097928D01*
X0160775Y0098948D01*
X0160775Y0100052D01*
X0160352Y0101072D01*
X0159572Y0101852D01*
X0158552Y0102275D01*
X0157448Y0102275D01*
X0156428Y0101852D01*
X0155648Y0101072D01*
X0155225Y0099690D02*
X0153011Y0099690D01*
X0153275Y0098491D02*
X0155414Y0098491D01*
X0156283Y0097293D02*
X0153003Y0097293D01*
X0151943Y0096094D02*
X0176812Y0096094D01*
X0175614Y0097293D02*
X0159717Y0097293D01*
X0160586Y0098491D02*
X0174415Y0098491D01*
X0173217Y0099690D02*
X0160775Y0099690D01*
X0160428Y0100888D02*
X0172018Y0100888D01*
X0170820Y0102087D02*
X0159006Y0102087D01*
X0156994Y0102087D02*
X0140007Y0102087D01*
X0138808Y0103285D02*
X0169621Y0103285D01*
X0168423Y0104484D02*
X0137610Y0104484D01*
X0136411Y0105682D02*
X0167224Y0105682D01*
X0166026Y0106881D02*
X0135213Y0106881D01*
X0134014Y0108079D02*
X0164827Y0108079D01*
X0163629Y0109278D02*
X0132816Y0109278D01*
X0131617Y0110476D02*
X0162430Y0110476D01*
X0161232Y0111675D02*
X0137599Y0111675D01*
X0137852Y0111928D02*
X0138275Y0112948D01*
X0138275Y0114052D01*
X0137852Y0115072D01*
X0137072Y0115852D01*
X0136052Y0116275D01*
X0134948Y0116275D01*
X0133928Y0115852D01*
X0133148Y0115072D01*
X0132725Y0114052D01*
X0132725Y0112948D01*
X0133148Y0111928D01*
X0133928Y0111148D01*
X0134948Y0110725D01*
X0136052Y0110725D01*
X0137072Y0111148D01*
X0137852Y0111928D01*
X0138244Y0112873D02*
X0160033Y0112873D01*
X0163823Y0115270D02*
X0165725Y0115270D01*
X0165725Y0115552D02*
X0165725Y0114448D01*
X0166148Y0113428D01*
X0166928Y0112648D01*
X0167948Y0112225D01*
X0169052Y0112225D01*
X0170072Y0112648D01*
X0170852Y0113428D01*
X0171275Y0114448D01*
X0171275Y0115552D01*
X0170852Y0116572D01*
X0170072Y0117352D01*
X0169052Y0117775D01*
X0167948Y0117775D01*
X0166928Y0117352D01*
X0166148Y0116572D01*
X0165725Y0115552D01*
X0166105Y0116469D02*
X0162624Y0116469D01*
X0161426Y0117668D02*
X0167689Y0117668D01*
X0169311Y0117668D02*
X0181013Y0117668D01*
X0181013Y0118866D02*
X0146227Y0118866D01*
X0145029Y0120065D02*
X0181013Y0120065D01*
X0181013Y0121263D02*
X0144187Y0121263D01*
X0144656Y0120437D02*
X0144656Y0120437D01*
X0144906Y0120187D02*
X0144906Y0120187D01*
X0144187Y0122462D02*
X0181013Y0122462D01*
X0181013Y0123660D02*
X0144187Y0123660D01*
X0144187Y0124859D02*
X0147717Y0124859D01*
X0147928Y0124648D02*
X0148948Y0124225D01*
X0150052Y0124225D01*
X0151072Y0124648D01*
X0151852Y0125428D01*
X0152275Y0126448D01*
X0152275Y0127552D01*
X0151852Y0128572D01*
X0151072Y0129352D01*
X0150052Y0129775D01*
X0148948Y0129775D01*
X0147928Y0129352D01*
X0147148Y0128572D01*
X0146725Y0127552D01*
X0146725Y0126448D01*
X0147148Y0125428D01*
X0147928Y0124648D01*
X0146887Y0126057D02*
X0144187Y0126057D01*
X0144187Y0127256D02*
X0146725Y0127256D01*
X0147099Y0128454D02*
X0144187Y0128454D01*
X0144187Y0129653D02*
X0148653Y0129653D01*
X0150347Y0129653D02*
X0181013Y0129653D01*
X0181013Y0130851D02*
X0144187Y0130851D01*
X0144187Y0132050D02*
X0181013Y0132050D01*
X0181013Y0133248D02*
X0144187Y0133248D01*
X0144187Y0134447D02*
X0181013Y0134447D01*
X0181013Y0135645D02*
X0144187Y0135645D01*
X0144187Y0136844D02*
X0163232Y0136844D01*
X0162803Y0139241D02*
X0160759Y0139241D01*
X0159561Y0140439D02*
X0163515Y0140439D01*
X0167485Y0140439D02*
X0237613Y0140439D01*
X0237613Y0139241D02*
X0218462Y0139241D01*
X0218183Y0139519D02*
X0217091Y0139972D01*
X0215909Y0139972D01*
X0214817Y0139519D01*
X0213981Y0138683D01*
X0213528Y0137591D01*
X0213528Y0136409D01*
X0213981Y0135317D01*
X0214817Y0134481D01*
X0215909Y0134028D01*
X0217091Y0134028D01*
X0218183Y0134481D01*
X0219019Y0135317D01*
X0219472Y0136409D01*
X0219472Y0137591D01*
X0219019Y0138683D01*
X0218183Y0139519D01*
X0219285Y0138042D02*
X0237613Y0138042D01*
X0237613Y0136844D02*
X0225859Y0136844D01*
X0225683Y0137019D02*
X0224591Y0137472D01*
X0223409Y0137472D01*
X0222317Y0137019D01*
X0221481Y0136183D01*
X0221028Y0135091D01*
X0221028Y0133909D01*
X0221481Y0132817D01*
X0222317Y0131981D01*
X0223409Y0131528D01*
X0224591Y0131528D01*
X0225683Y0131981D01*
X0226519Y0132817D01*
X0226972Y0133909D01*
X0226972Y0135091D01*
X0226519Y0136183D01*
X0225683Y0137019D01*
X0226742Y0135645D02*
X0237613Y0135645D01*
X0238091Y0134447D02*
X0236756Y0134447D01*
X0236683Y0134519D02*
X0235591Y0134972D01*
X0234409Y0134972D01*
X0233317Y0134519D01*
X0232481Y0133683D01*
X0232028Y0132591D01*
X0232028Y0131409D01*
X0232481Y0130317D01*
X0233317Y0129481D01*
X0234409Y0129028D01*
X0235591Y0129028D01*
X0236683Y0129481D01*
X0237519Y0130317D01*
X0237972Y0131409D01*
X0237972Y0132591D01*
X0237519Y0133683D01*
X0236683Y0134519D01*
X0237699Y0133248D02*
X0239290Y0133248D01*
X0240488Y0132050D02*
X0237972Y0132050D01*
X0237741Y0130851D02*
X0241687Y0130851D01*
X0242885Y0129653D02*
X0236855Y0129653D01*
X0233145Y0129653D02*
X0183000Y0129653D01*
X0183000Y0130851D02*
X0232259Y0130851D01*
X0232028Y0132050D02*
X0225752Y0132050D01*
X0226698Y0133248D02*
X0232301Y0133248D01*
X0233244Y0134447D02*
X0226972Y0134447D01*
X0222248Y0132050D02*
X0183000Y0132050D01*
X0183000Y0133248D02*
X0221302Y0133248D01*
X0221028Y0134447D02*
X0218101Y0134447D01*
X0219155Y0135645D02*
X0221258Y0135645D01*
X0222141Y0136844D02*
X0219472Y0136844D01*
X0214538Y0139241D02*
X0168197Y0139241D01*
X0167768Y0136844D02*
X0180346Y0136844D01*
X0181958Y0138042D02*
X0213715Y0138042D01*
X0213528Y0136844D02*
X0183000Y0136844D01*
X0183000Y0135645D02*
X0213845Y0135645D01*
X0214899Y0134447D02*
X0183000Y0134447D01*
X0183000Y0128454D02*
X0244084Y0128454D01*
X0245282Y0127256D02*
X0183000Y0127256D01*
X0183000Y0126057D02*
X0246481Y0126057D01*
X0247679Y0124859D02*
X0183000Y0124859D01*
X0183000Y0123660D02*
X0248878Y0123660D01*
X0250076Y0122462D02*
X0183000Y0122462D01*
X0183000Y0121263D02*
X0218060Y0121263D01*
X0218317Y0121519D02*
X0217481Y0120683D01*
X0217028Y0119591D01*
X0217028Y0118409D01*
X0217481Y0117317D01*
X0218317Y0116481D01*
X0219409Y0116028D01*
X0220591Y0116028D01*
X0221683Y0116481D01*
X0222519Y0117317D01*
X0222972Y0118409D01*
X0222972Y0119591D01*
X0222519Y0120683D01*
X0221683Y0121519D01*
X0220591Y0121972D01*
X0219409Y0121972D01*
X0218317Y0121519D01*
X0217224Y0120065D02*
X0183000Y0120065D01*
X0183000Y0118866D02*
X0217028Y0118866D01*
X0217335Y0117668D02*
X0183000Y0117668D01*
X0183000Y0116469D02*
X0218345Y0116469D01*
X0221655Y0116469D02*
X0233845Y0116469D01*
X0233817Y0116481D02*
X0234909Y0116028D01*
X0236091Y0116028D01*
X0237183Y0116481D01*
X0238019Y0117317D01*
X0238472Y0118409D01*
X0238472Y0119591D01*
X0238019Y0120683D01*
X0237183Y0121519D01*
X0236091Y0121972D01*
X0234909Y0121972D01*
X0233817Y0121519D01*
X0232981Y0120683D01*
X0232528Y0119591D01*
X0232528Y0118409D01*
X0232981Y0117317D01*
X0233817Y0116481D01*
X0232835Y0117668D02*
X0222665Y0117668D01*
X0222972Y0118866D02*
X0232528Y0118866D01*
X0232724Y0120065D02*
X0222776Y0120065D01*
X0221939Y0121263D02*
X0233560Y0121263D01*
X0237439Y0121263D02*
X0251275Y0121263D01*
X0251591Y0119972D02*
X0250409Y0119972D01*
X0249317Y0119519D01*
X0248481Y0118683D01*
X0248028Y0117591D01*
X0248028Y0116409D01*
X0248481Y0115317D01*
X0249317Y0114481D01*
X0250409Y0114028D01*
X0251591Y0114028D01*
X0252683Y0114481D01*
X0253519Y0115317D01*
X0253972Y0116409D01*
X0253972Y0117591D01*
X0253519Y0118683D01*
X0252683Y0119519D01*
X0251591Y0119972D01*
X0252473Y0120065D02*
X0238276Y0120065D01*
X0238472Y0118866D02*
X0248663Y0118866D01*
X0248060Y0117668D02*
X0238165Y0117668D01*
X0237155Y0116469D02*
X0248028Y0116469D01*
X0248527Y0115270D02*
X0183000Y0115270D01*
X0183928Y0114072D02*
X0250304Y0114072D01*
X0251696Y0114072D02*
X0257113Y0114072D01*
X0257113Y0115270D02*
X0253473Y0115270D01*
X0253972Y0116469D02*
X0256069Y0116469D01*
X0254870Y0117668D02*
X0253940Y0117668D01*
X0253672Y0118866D02*
X0253337Y0118866D01*
X0257113Y0112873D02*
X0192127Y0112873D01*
X0193325Y0111675D02*
X0257113Y0111675D01*
X0257113Y0110476D02*
X0194524Y0110476D01*
X0195722Y0109278D02*
X0228854Y0109278D01*
X0228928Y0109352D02*
X0228148Y0108572D01*
X0227725Y0107552D01*
X0227725Y0106448D01*
X0228148Y0105428D01*
X0228928Y0104648D01*
X0229948Y0104225D01*
X0231052Y0104225D01*
X0232072Y0104648D01*
X0232852Y0105428D01*
X0233275Y0106448D01*
X0233275Y0107552D01*
X0232852Y0108572D01*
X0232072Y0109352D01*
X0231052Y0109775D01*
X0229948Y0109775D01*
X0228928Y0109352D01*
X0227944Y0108079D02*
X0196921Y0108079D01*
X0198119Y0106881D02*
X0227725Y0106881D01*
X0228042Y0105682D02*
X0199318Y0105682D01*
X0200516Y0104484D02*
X0229324Y0104484D01*
X0231676Y0104484D02*
X0257113Y0104484D01*
X0257113Y0105682D02*
X0232958Y0105682D01*
X0233275Y0106881D02*
X0257113Y0106881D01*
X0257113Y0108079D02*
X0233056Y0108079D01*
X0232146Y0109278D02*
X0257113Y0109278D01*
X0257113Y0103285D02*
X0201715Y0103285D01*
X0202913Y0102087D02*
X0257113Y0102087D01*
X0257113Y0100888D02*
X0204112Y0100888D01*
X0205310Y0099690D02*
X0257113Y0099690D01*
X0257113Y0098491D02*
X0206509Y0098491D01*
X0207707Y0097293D02*
X0257113Y0097293D01*
X0257113Y0096094D02*
X0217717Y0096094D01*
X0217930Y0096006D02*
X0216910Y0096428D01*
X0215806Y0096428D01*
X0214786Y0096006D01*
X0214006Y0095225D01*
X0213583Y0094205D01*
X0213583Y0093102D01*
X0214006Y0092082D01*
X0214786Y0091301D01*
X0215806Y0090879D01*
X0216910Y0090879D01*
X0217930Y0091301D01*
X0218711Y0092082D01*
X0219133Y0093102D01*
X0219133Y0094205D01*
X0218711Y0095225D01*
X0217930Y0096006D01*
X0218847Y0094896D02*
X0257113Y0094896D01*
X0257113Y0093697D02*
X0219133Y0093697D01*
X0218883Y0092499D02*
X0257113Y0092499D01*
X0257113Y0091300D02*
X0217928Y0091300D01*
X0214789Y0091300D02*
X0212000Y0091300D01*
X0212000Y0090102D02*
X0257113Y0090102D01*
X0257113Y0088903D02*
X0212000Y0088903D01*
X0212000Y0087705D02*
X0224781Y0087705D01*
X0224648Y0087572D02*
X0224225Y0086552D01*
X0224225Y0085448D01*
X0224648Y0084428D01*
X0225301Y0083775D01*
X0224948Y0083775D01*
X0223928Y0083352D01*
X0223148Y0082572D01*
X0222725Y0081552D01*
X0222725Y0080448D01*
X0223148Y0079428D01*
X0223928Y0078648D01*
X0224948Y0078225D01*
X0226052Y0078225D01*
X0227072Y0078648D01*
X0227852Y0079428D01*
X0228275Y0080448D01*
X0228275Y0081552D01*
X0227852Y0082572D01*
X0227199Y0083225D01*
X0227552Y0083225D01*
X0228572Y0083648D01*
X0229352Y0084428D01*
X0229775Y0085448D01*
X0229775Y0086552D01*
X0229352Y0087572D01*
X0228572Y0088352D01*
X0227552Y0088775D01*
X0226448Y0088775D01*
X0225428Y0088352D01*
X0224648Y0087572D01*
X0224225Y0086506D02*
X0212000Y0086506D01*
X0212000Y0085308D02*
X0224283Y0085308D01*
X0224967Y0084109D02*
X0212000Y0084109D01*
X0212000Y0082911D02*
X0223487Y0082911D01*
X0222792Y0081712D02*
X0212000Y0081712D01*
X0211514Y0080514D02*
X0222725Y0080514D01*
X0223261Y0079315D02*
X0210315Y0079315D01*
X0209902Y0081712D02*
X0190708Y0081712D01*
X0190775Y0081552D02*
X0190352Y0082572D01*
X0189572Y0083352D01*
X0188552Y0083775D01*
X0187448Y0083775D01*
X0186428Y0083352D01*
X0185648Y0082572D01*
X0185225Y0081552D01*
X0185225Y0080448D01*
X0185648Y0079428D01*
X0186428Y0078648D01*
X0187448Y0078225D01*
X0188552Y0078225D01*
X0189572Y0078648D01*
X0190352Y0079428D01*
X0190775Y0080448D01*
X0190775Y0081552D01*
X0190775Y0080514D02*
X0194703Y0080514D01*
X0193505Y0079315D02*
X0190239Y0079315D01*
X0192306Y0078117D02*
X0183187Y0078117D01*
X0183187Y0079315D02*
X0185761Y0079315D01*
X0185225Y0080514D02*
X0183187Y0080514D01*
X0183187Y0081712D02*
X0185292Y0081712D01*
X0185987Y0082911D02*
X0183187Y0082911D01*
X0183187Y0084109D02*
X0210013Y0084109D01*
X0210013Y0082911D02*
X0190013Y0082911D01*
X0195117Y0078117D02*
X0250028Y0078117D01*
X0250028Y0077909D02*
X0250028Y0079091D01*
X0250481Y0080183D01*
X0251317Y0081019D01*
X0252409Y0081472D01*
X0253591Y0081472D01*
X0254683Y0081019D01*
X0255519Y0080183D01*
X0255972Y0079091D01*
X0255972Y0077909D01*
X0255519Y0076817D01*
X0254683Y0075981D01*
X0253591Y0075528D01*
X0252409Y0075528D01*
X0251317Y0075981D01*
X0250481Y0076817D01*
X0250028Y0077909D01*
X0250439Y0076918D02*
X0194000Y0076918D01*
X0194000Y0075720D02*
X0201295Y0075720D01*
X0201428Y0075852D02*
X0200648Y0075072D01*
X0200225Y0074052D01*
X0200225Y0072948D01*
X0200648Y0071928D01*
X0201428Y0071148D01*
X0202448Y0070725D01*
X0203552Y0070725D01*
X0204572Y0071148D01*
X0205352Y0071928D01*
X0205775Y0072948D01*
X0205775Y0074052D01*
X0205352Y0075072D01*
X0204572Y0075852D01*
X0203552Y0076275D01*
X0202448Y0076275D01*
X0201428Y0075852D01*
X0200420Y0074521D02*
X0194000Y0074521D01*
X0194000Y0073323D02*
X0200225Y0073323D01*
X0200566Y0072124D02*
X0194000Y0072124D01*
X0194000Y0070926D02*
X0201964Y0070926D01*
X0204036Y0070926D02*
X0250028Y0070926D01*
X0250028Y0070409D02*
X0250481Y0069317D01*
X0251317Y0068481D01*
X0252409Y0068028D01*
X0253591Y0068028D01*
X0254683Y0068481D01*
X0255519Y0069317D01*
X0255972Y0070409D01*
X0255972Y0071591D01*
X0255519Y0072683D01*
X0254683Y0073519D01*
X0253591Y0073972D01*
X0252409Y0073972D01*
X0251317Y0073519D01*
X0250481Y0072683D01*
X0250028Y0071591D01*
X0250028Y0070409D01*
X0250311Y0069727D02*
X0194000Y0069727D01*
X0194000Y0068529D02*
X0251269Y0068529D01*
X0254731Y0068529D02*
X0257113Y0068529D01*
X0257113Y0069727D02*
X0255689Y0069727D01*
X0255972Y0070926D02*
X0257113Y0070926D01*
X0257113Y0072124D02*
X0255751Y0072124D01*
X0254880Y0073323D02*
X0257113Y0073323D01*
X0257113Y0074521D02*
X0205580Y0074521D01*
X0205775Y0073323D02*
X0251120Y0073323D01*
X0250249Y0072124D02*
X0205433Y0072124D01*
X0204705Y0075720D02*
X0251947Y0075720D01*
X0254053Y0075720D02*
X0257113Y0075720D01*
X0257113Y0076918D02*
X0255561Y0076918D01*
X0255972Y0078117D02*
X0257113Y0078117D01*
X0257113Y0079315D02*
X0255879Y0079315D01*
X0255189Y0080514D02*
X0257113Y0080514D01*
X0257113Y0081712D02*
X0243208Y0081712D01*
X0243275Y0081552D02*
X0242852Y0082572D01*
X0242072Y0083352D01*
X0241052Y0083775D01*
X0239948Y0083775D01*
X0238928Y0083352D01*
X0238148Y0082572D01*
X0237725Y0081552D01*
X0237725Y0080448D01*
X0238148Y0079428D01*
X0238928Y0078648D01*
X0239948Y0078225D01*
X0241052Y0078225D01*
X0242072Y0078648D01*
X0242852Y0079428D01*
X0243275Y0080448D01*
X0243275Y0081552D01*
X0243275Y0080514D02*
X0250811Y0080514D01*
X0250121Y0079315D02*
X0242739Y0079315D01*
X0238261Y0079315D02*
X0227739Y0079315D01*
X0228275Y0080514D02*
X0237725Y0080514D01*
X0237792Y0081712D02*
X0228208Y0081712D01*
X0227513Y0082911D02*
X0238487Y0082911D01*
X0242513Y0082911D02*
X0257113Y0082911D01*
X0257113Y0084109D02*
X0229033Y0084109D01*
X0229717Y0085308D02*
X0257113Y0085308D01*
X0257113Y0086506D02*
X0229775Y0086506D01*
X0229219Y0087705D02*
X0257113Y0087705D01*
X0257113Y0067330D02*
X0231873Y0067330D01*
X0231683Y0067519D02*
X0230591Y0067972D01*
X0229409Y0067972D01*
X0228317Y0067519D01*
X0227481Y0066683D01*
X0227028Y0065591D01*
X0227028Y0064409D01*
X0227481Y0063317D01*
X0228317Y0062481D01*
X0229409Y0062028D01*
X0230591Y0062028D01*
X0231683Y0062481D01*
X0232519Y0063317D01*
X0232972Y0064409D01*
X0232972Y0065591D01*
X0232519Y0066683D01*
X0231683Y0067519D01*
X0232748Y0066132D02*
X0257113Y0066132D01*
X0257113Y0064933D02*
X0232972Y0064933D01*
X0232692Y0063734D02*
X0257113Y0063734D01*
X0257113Y0062536D02*
X0231739Y0062536D01*
X0228261Y0062536D02*
X0194000Y0062536D01*
X0194000Y0063734D02*
X0227308Y0063734D01*
X0227028Y0064933D02*
X0194000Y0064933D01*
X0194000Y0066132D02*
X0227252Y0066132D01*
X0228127Y0067330D02*
X0194000Y0067330D01*
X0192013Y0067330D02*
X0183187Y0067330D01*
X0183187Y0066132D02*
X0192013Y0066132D01*
X0192013Y0064933D02*
X0183187Y0064933D01*
X0183187Y0063734D02*
X0192013Y0063734D01*
X0192013Y0062536D02*
X0183187Y0062536D01*
X0183187Y0061337D02*
X0192013Y0061337D01*
X0192013Y0060139D02*
X0183187Y0060139D01*
X0182034Y0058940D02*
X0192013Y0058940D01*
X0192013Y0057742D02*
X0180835Y0057742D01*
X0179637Y0056543D02*
X0192013Y0056543D01*
X0192013Y0055345D02*
X0178438Y0055345D01*
X0177240Y0054146D02*
X0192013Y0054146D01*
X0194000Y0054146D02*
X0228137Y0054146D01*
X0228028Y0054409D02*
X0228481Y0053317D01*
X0229317Y0052481D01*
X0230409Y0052028D01*
X0231591Y0052028D01*
X0232683Y0052481D01*
X0233519Y0053317D01*
X0233972Y0054409D01*
X0233972Y0055591D01*
X0233519Y0056683D01*
X0232683Y0057519D01*
X0231591Y0057972D01*
X0230409Y0057972D01*
X0229317Y0057519D01*
X0228481Y0056683D01*
X0228028Y0055591D01*
X0228028Y0054409D01*
X0228028Y0055345D02*
X0194000Y0055345D01*
X0194000Y0056543D02*
X0228423Y0056543D01*
X0229854Y0057742D02*
X0194000Y0057742D01*
X0194000Y0058940D02*
X0240028Y0058940D01*
X0240028Y0059091D02*
X0240028Y0057909D01*
X0240481Y0056817D01*
X0241317Y0055981D01*
X0242409Y0055528D01*
X0243591Y0055528D01*
X0244683Y0055981D01*
X0245519Y0056817D01*
X0245972Y0057909D01*
X0245972Y0059091D01*
X0245519Y0060183D01*
X0244683Y0061019D01*
X0243591Y0061472D01*
X0242409Y0061472D01*
X0241317Y0061019D01*
X0240481Y0060183D01*
X0240028Y0059091D01*
X0240462Y0060139D02*
X0194000Y0060139D01*
X0194000Y0061337D02*
X0242085Y0061337D01*
X0243915Y0061337D02*
X0257113Y0061337D01*
X0257113Y0060139D02*
X0245538Y0060139D01*
X0245972Y0058940D02*
X0257113Y0058940D01*
X0257113Y0057742D02*
X0245902Y0057742D01*
X0245246Y0056543D02*
X0257113Y0056543D01*
X0257113Y0055345D02*
X0233972Y0055345D01*
X0233863Y0054146D02*
X0257113Y0054146D01*
X0257113Y0052948D02*
X0233150Y0052948D01*
X0233577Y0056543D02*
X0240754Y0056543D01*
X0240097Y0057742D02*
X0232146Y0057742D01*
X0228850Y0052948D02*
X0195052Y0052948D01*
X0191578Y0048154D02*
X0219013Y0048154D01*
X0218851Y0032573D02*
X0220616Y0032573D01*
X0221815Y0031375D02*
X0219275Y0031375D01*
X0219162Y0030176D02*
X0223013Y0030176D01*
X0222054Y0028978D02*
X0218402Y0028978D01*
X0219267Y0016993D02*
X0212987Y0016993D01*
X0212987Y0015794D02*
X0218033Y0015794D01*
X0217725Y0014596D02*
X0212682Y0014596D01*
X0217953Y0013397D02*
X0166129Y0013397D01*
X0169022Y0014596D02*
X0191218Y0014596D01*
X0190913Y0015794D02*
X0170493Y0015794D01*
X0171691Y0016993D02*
X0190913Y0016993D01*
X0190913Y0018191D02*
X0172493Y0018191D01*
X0172989Y0019390D02*
X0190913Y0019390D01*
X0190913Y0020588D02*
X0173486Y0020588D01*
X0173687Y0021787D02*
X0191600Y0021787D01*
X0161871Y0013397D02*
X0103047Y0013397D01*
X0103275Y0014596D02*
X0158978Y0014596D01*
X0157507Y0015794D02*
X0102967Y0015794D01*
X0101733Y0016993D02*
X0156308Y0016993D01*
X0155507Y0018191D02*
X0084168Y0018191D01*
X0084559Y0019390D02*
X0155011Y0019390D01*
X0106636Y0046955D02*
X0086567Y0046955D01*
X0085369Y0048154D02*
X0106225Y0048154D01*
X0106350Y0049352D02*
X0084170Y0049352D01*
X0082972Y0050551D02*
X0107127Y0050551D01*
X0095334Y0057742D02*
X0075781Y0057742D01*
X0074637Y0058940D02*
X0094435Y0058940D01*
X0094225Y0060139D02*
X0074637Y0060139D01*
X0074637Y0061337D02*
X0090738Y0061337D01*
X0090225Y0062536D02*
X0074637Y0062536D01*
X0074637Y0063734D02*
X0090301Y0063734D01*
X0091009Y0064933D02*
X0074637Y0064933D01*
X0074637Y0066132D02*
X0086944Y0066132D01*
X0086274Y0067330D02*
X0075019Y0067330D01*
X0075622Y0068529D02*
X0086225Y0068529D01*
X0086803Y0069727D02*
X0076820Y0069727D01*
X0070363Y0066132D02*
X0035535Y0066132D01*
X0035775Y0064933D02*
X0070363Y0064933D01*
X0070363Y0063734D02*
X0035479Y0063734D01*
X0034302Y0062536D02*
X0070363Y0062536D01*
X0094991Y0064933D02*
X0156863Y0064933D01*
X0156863Y0063734D02*
X0095699Y0063734D01*
X0095775Y0062536D02*
X0095872Y0062536D01*
X0098128Y0062536D02*
X0156863Y0062536D01*
X0183187Y0068529D02*
X0192013Y0068529D01*
X0192013Y0069727D02*
X0183187Y0069727D01*
X0183187Y0070926D02*
X0192013Y0070926D01*
X0192013Y0072124D02*
X0183187Y0072124D01*
X0183187Y0073323D02*
X0192013Y0073323D01*
X0192013Y0074521D02*
X0183187Y0074521D01*
X0183187Y0075720D02*
X0192013Y0075720D01*
X0192013Y0076918D02*
X0183187Y0076918D01*
X0183187Y0085308D02*
X0210013Y0085308D01*
X0210013Y0086506D02*
X0183187Y0086506D01*
X0183187Y0087705D02*
X0210013Y0087705D01*
X0210013Y0088903D02*
X0183187Y0088903D01*
X0183187Y0090102D02*
X0210013Y0090102D01*
X0210013Y0091300D02*
X0183187Y0091300D01*
X0183187Y0092499D02*
X0209691Y0092499D01*
X0208492Y0093697D02*
X0183187Y0093697D01*
X0183187Y0094896D02*
X0207294Y0094896D01*
X0206095Y0096094D02*
X0182999Y0096094D01*
X0181906Y0097187D02*
X0181906Y0097187D01*
X0181801Y0097293D02*
X0204897Y0097293D01*
X0203698Y0098491D02*
X0180602Y0098491D01*
X0181114Y0099690D02*
X0202500Y0099690D01*
X0201301Y0100888D02*
X0182043Y0100888D01*
X0182275Y0102087D02*
X0200103Y0102087D01*
X0198904Y0103285D02*
X0181971Y0103285D01*
X0180754Y0104484D02*
X0197706Y0104484D01*
X0196507Y0105682D02*
X0192107Y0105682D01*
X0193040Y0106881D02*
X0195308Y0106881D01*
X0194110Y0108079D02*
X0193275Y0108079D01*
X0189228Y0110476D02*
X0168617Y0110476D01*
X0169816Y0109278D02*
X0188026Y0109278D01*
X0187725Y0108079D02*
X0171014Y0108079D01*
X0172213Y0106881D02*
X0187960Y0106881D01*
X0188893Y0105682D02*
X0173411Y0105682D01*
X0174610Y0104484D02*
X0178246Y0104484D01*
X0177029Y0103285D02*
X0175808Y0103285D01*
X0183514Y0111675D02*
X0167418Y0111675D01*
X0166702Y0112873D02*
X0166220Y0112873D01*
X0165881Y0114072D02*
X0165021Y0114072D01*
X0170298Y0112873D02*
X0182316Y0112873D01*
X0181117Y0114072D02*
X0171119Y0114072D01*
X0171275Y0115270D02*
X0181013Y0115270D01*
X0181013Y0116469D02*
X0170895Y0116469D01*
X0181013Y0124859D02*
X0151283Y0124859D01*
X0152113Y0126057D02*
X0181013Y0126057D01*
X0181013Y0127256D02*
X0152275Y0127256D01*
X0151901Y0128454D02*
X0181013Y0128454D01*
X0159147Y0138042D02*
X0144051Y0138042D01*
X0142853Y0139241D02*
X0145835Y0139241D01*
X0145648Y0139428D02*
X0146428Y0138648D01*
X0147448Y0138225D01*
X0148552Y0138225D01*
X0149572Y0138648D01*
X0150352Y0139428D01*
X0150775Y0140448D01*
X0150775Y0141552D01*
X0150352Y0142572D01*
X0149572Y0143352D01*
X0148552Y0143775D01*
X0147448Y0143775D01*
X0146428Y0143352D01*
X0145648Y0142572D01*
X0145225Y0141552D01*
X0145225Y0140448D01*
X0145648Y0139428D01*
X0145229Y0140439D02*
X0141654Y0140439D01*
X0140739Y0141638D02*
X0145261Y0141638D01*
X0145912Y0142836D02*
X0140088Y0142836D01*
X0138059Y0144035D02*
X0156013Y0144035D01*
X0156013Y0145233D02*
X0136860Y0145233D01*
X0135662Y0146432D02*
X0156013Y0146432D01*
X0156013Y0147630D02*
X0134463Y0147630D01*
X0133265Y0148829D02*
X0156013Y0148829D01*
X0156013Y0150027D02*
X0132066Y0150027D01*
X0130868Y0151226D02*
X0148850Y0151226D01*
X0148928Y0151148D02*
X0149948Y0150725D01*
X0151052Y0150725D01*
X0152072Y0151148D01*
X0152852Y0151928D01*
X0153275Y0152948D01*
X0153275Y0154052D01*
X0152852Y0155072D01*
X0152072Y0155852D01*
X0151052Y0156275D01*
X0149948Y0156275D01*
X0148928Y0155852D01*
X0148148Y0155072D01*
X0147725Y0154052D01*
X0147725Y0152948D01*
X0148148Y0151928D01*
X0148928Y0151148D01*
X0147942Y0152424D02*
X0129669Y0152424D01*
X0128471Y0153623D02*
X0147725Y0153623D01*
X0148044Y0154821D02*
X0127272Y0154821D01*
X0126074Y0156020D02*
X0149333Y0156020D01*
X0151667Y0156020D02*
X0156013Y0156020D01*
X0156013Y0157218D02*
X0099203Y0157218D01*
X0095873Y0152424D02*
X0095127Y0152424D01*
X0113354Y0141638D02*
X0005887Y0141638D01*
X0005887Y0142836D02*
X0041500Y0142836D01*
X0041500Y0144035D02*
X0005887Y0144035D01*
X0005887Y0145233D02*
X0041500Y0145233D01*
X0041500Y0146432D02*
X0005894Y0146432D01*
X0007092Y0147630D02*
X0041500Y0147630D01*
X0041500Y0148829D02*
X0020031Y0148829D01*
X0019683Y0148481D02*
X0020519Y0149317D01*
X0020972Y0150409D01*
X0020972Y0151591D01*
X0020519Y0152683D01*
X0019683Y0153519D01*
X0018591Y0153972D01*
X0017409Y0153972D01*
X0016317Y0153519D01*
X0015481Y0152683D01*
X0015028Y0151591D01*
X0015028Y0150409D01*
X0015481Y0149317D01*
X0016317Y0148481D01*
X0017409Y0148028D01*
X0018591Y0148028D01*
X0019683Y0148481D01*
X0020814Y0150027D02*
X0041500Y0150027D01*
X0041500Y0151226D02*
X0020972Y0151226D01*
X0020627Y0152424D02*
X0041500Y0152424D01*
X0041500Y0153623D02*
X0019433Y0153623D01*
X0016567Y0153623D02*
X0013085Y0153623D01*
X0014283Y0154821D02*
X0041500Y0154821D01*
X0041500Y0156020D02*
X0015482Y0156020D01*
X0016680Y0157218D02*
X0041500Y0157218D01*
X0015969Y0148829D02*
X0008291Y0148829D01*
X0009489Y0150027D02*
X0015186Y0150027D01*
X0015028Y0151226D02*
X0010688Y0151226D01*
X0011886Y0152424D02*
X0015373Y0152424D01*
X0005887Y0140439D02*
X0114137Y0140439D01*
X0117863Y0140439D02*
X0135229Y0140439D01*
X0135835Y0139241D02*
X0005887Y0139241D01*
X0005887Y0138042D02*
X0137864Y0138042D01*
X0139813Y0134447D02*
X0108477Y0134447D01*
X0109194Y0133248D02*
X0139813Y0133248D01*
X0139813Y0132050D02*
X0110044Y0132050D01*
X0111242Y0130851D02*
X0139813Y0130851D01*
X0139813Y0129653D02*
X0112441Y0129653D01*
X0113639Y0128454D02*
X0139813Y0128454D01*
X0139813Y0127256D02*
X0134098Y0127256D01*
X0132902Y0127256D02*
X0123598Y0127256D01*
X0123552Y0127275D02*
X0122448Y0127275D01*
X0121428Y0126852D01*
X0120648Y0126072D01*
X0120225Y0125052D01*
X0120225Y0123948D01*
X0120648Y0122928D01*
X0121428Y0122148D01*
X0122448Y0121725D01*
X0123552Y0121725D01*
X0124572Y0122148D01*
X0125352Y0122928D01*
X0125775Y0123948D01*
X0125775Y0125052D01*
X0125352Y0126072D01*
X0124572Y0126852D01*
X0123552Y0127275D01*
X0122402Y0127256D02*
X0114838Y0127256D01*
X0116036Y0126057D02*
X0120642Y0126057D01*
X0120225Y0124859D02*
X0117235Y0124859D01*
X0118433Y0123660D02*
X0120344Y0123660D01*
X0119632Y0122462D02*
X0121114Y0122462D01*
X0120830Y0121263D02*
X0128027Y0121263D01*
X0129076Y0122462D02*
X0124886Y0122462D01*
X0125655Y0123660D02*
X0130124Y0123660D01*
X0130725Y0124859D02*
X0125775Y0124859D01*
X0125358Y0126057D02*
X0131142Y0126057D01*
X0133500Y0124500D02*
X0126500Y0116500D01*
X0128687Y0115270D02*
X0133346Y0115270D01*
X0132734Y0114072D02*
X0128687Y0114072D01*
X0129220Y0112873D02*
X0132756Y0112873D01*
X0133401Y0111675D02*
X0130418Y0111675D01*
X0129114Y0116469D02*
X0139225Y0116469D01*
X0139299Y0115270D02*
X0137654Y0115270D01*
X0138266Y0114072D02*
X0140004Y0114072D01*
X0139743Y0117668D02*
X0130162Y0117668D01*
X0131211Y0118866D02*
X0139813Y0118866D01*
X0139813Y0120065D02*
X0132260Y0120065D01*
X0133308Y0121263D02*
X0139813Y0121263D01*
X0139813Y0122462D02*
X0135386Y0122462D01*
X0136155Y0123660D02*
X0139813Y0123660D01*
X0139813Y0124859D02*
X0136275Y0124859D01*
X0135858Y0126057D02*
X0139813Y0126057D01*
X0126978Y0120065D02*
X0122029Y0120065D01*
X0123227Y0118866D02*
X0125929Y0118866D01*
X0119438Y0116469D02*
X0112369Y0116469D01*
X0112775Y0117668D02*
X0118239Y0117668D01*
X0117041Y0118866D02*
X0112645Y0118866D01*
X0111860Y0120065D02*
X0115842Y0120065D01*
X0114644Y0121263D02*
X0093480Y0121263D01*
X0093775Y0120065D02*
X0108140Y0120065D01*
X0107355Y0118866D02*
X0093534Y0118866D01*
X0092308Y0122462D02*
X0113445Y0122462D01*
X0112246Y0123660D02*
X0088863Y0123660D01*
X0089451Y0124859D02*
X0111048Y0124859D01*
X0109849Y0126057D02*
X0090151Y0126057D01*
X0091349Y0127256D02*
X0108651Y0127256D01*
X0107452Y0128454D02*
X0092548Y0128454D01*
X0093746Y0129653D02*
X0106254Y0129653D01*
X0087559Y0129653D02*
X0083772Y0129653D01*
X0084608Y0128454D02*
X0085867Y0128454D01*
X0078060Y0121263D02*
X0065972Y0121263D01*
X0065829Y0120065D02*
X0077528Y0120065D01*
X0077546Y0118866D02*
X0065069Y0118866D01*
X0060931Y0118866D02*
X0035069Y0118866D01*
X0034683Y0118481D02*
X0035519Y0119317D01*
X0035972Y0120409D01*
X0035972Y0121591D01*
X0035519Y0122683D01*
X0034683Y0123519D01*
X0033591Y0123972D01*
X0032409Y0123972D01*
X0031317Y0123519D01*
X0030481Y0122683D01*
X0030028Y0121591D01*
X0030028Y0120409D01*
X0030481Y0119317D01*
X0031317Y0118481D01*
X0032409Y0118028D01*
X0033591Y0118028D01*
X0034683Y0118481D01*
X0035829Y0120065D02*
X0060171Y0120065D01*
X0060028Y0121263D02*
X0035972Y0121263D01*
X0035611Y0122462D02*
X0060389Y0122462D01*
X0061657Y0123660D02*
X0034343Y0123660D01*
X0031657Y0123660D02*
X0029863Y0123660D01*
X0029683Y0123481D02*
X0030519Y0124317D01*
X0030972Y0125409D01*
X0030972Y0126591D01*
X0030519Y0127683D01*
X0029683Y0128519D01*
X0028591Y0128972D01*
X0027409Y0128972D01*
X0026317Y0128519D01*
X0025481Y0127683D01*
X0025028Y0126591D01*
X0025028Y0125409D01*
X0025481Y0124317D01*
X0026317Y0123481D01*
X0027409Y0123028D01*
X0028591Y0123028D01*
X0029683Y0123481D01*
X0030389Y0122462D02*
X0025611Y0122462D01*
X0025519Y0122683D02*
X0024683Y0123519D01*
X0023591Y0123972D01*
X0022409Y0123972D01*
X0021317Y0123519D01*
X0020481Y0122683D01*
X0020028Y0121591D01*
X0020028Y0120409D01*
X0020481Y0119317D01*
X0021023Y0118775D01*
X0019948Y0118775D01*
X0018928Y0118352D01*
X0018148Y0117572D01*
X0017725Y0116552D01*
X0017725Y0115448D01*
X0018148Y0114428D01*
X0018928Y0113648D01*
X0019948Y0113225D01*
X0021052Y0113225D01*
X0022072Y0113648D01*
X0022852Y0114428D01*
X0023275Y0115448D01*
X0023275Y0116552D01*
X0022852Y0117572D01*
X0022386Y0118038D01*
X0022409Y0118028D01*
X0023591Y0118028D01*
X0024683Y0118481D01*
X0025519Y0119317D01*
X0025972Y0120409D01*
X0025972Y0121591D01*
X0025519Y0122683D01*
X0026137Y0123660D02*
X0024343Y0123660D01*
X0025256Y0124859D02*
X0005887Y0124859D01*
X0005887Y0126057D02*
X0025028Y0126057D01*
X0025304Y0127256D02*
X0005887Y0127256D01*
X0005887Y0128454D02*
X0021381Y0128454D01*
X0021317Y0128481D02*
X0022409Y0128028D01*
X0023591Y0128028D01*
X0024683Y0128481D01*
X0025519Y0129317D01*
X0025972Y0130409D01*
X0025972Y0131591D01*
X0025519Y0132683D01*
X0024683Y0133519D01*
X0023591Y0133972D01*
X0022409Y0133972D01*
X0021317Y0133519D01*
X0020481Y0132683D01*
X0020028Y0131591D01*
X0020028Y0130409D01*
X0020481Y0129317D01*
X0021317Y0128481D01*
X0020342Y0129653D02*
X0005887Y0129653D01*
X0005887Y0130851D02*
X0020028Y0130851D01*
X0020218Y0132050D02*
X0005887Y0132050D01*
X0005887Y0133248D02*
X0021046Y0133248D01*
X0024954Y0133248D02*
X0031046Y0133248D01*
X0030218Y0132050D02*
X0025782Y0132050D01*
X0025972Y0130851D02*
X0030028Y0130851D01*
X0030342Y0129653D02*
X0025658Y0129653D01*
X0026252Y0128454D02*
X0024619Y0128454D01*
X0029748Y0128454D02*
X0031381Y0128454D01*
X0030696Y0127256D02*
X0065304Y0127256D01*
X0065028Y0126057D02*
X0030972Y0126057D01*
X0030744Y0124859D02*
X0065256Y0124859D01*
X0066252Y0128454D02*
X0034619Y0128454D01*
X0035782Y0132050D02*
X0057748Y0132050D01*
X0057095Y0133248D02*
X0034954Y0133248D01*
X0021657Y0123660D02*
X0005887Y0123660D01*
X0005887Y0122462D02*
X0020389Y0122462D01*
X0020028Y0121263D02*
X0011080Y0121263D01*
X0011052Y0121275D02*
X0009948Y0121275D01*
X0008928Y0120852D01*
X0008148Y0120072D01*
X0007725Y0119052D01*
X0007725Y0117948D01*
X0008148Y0116928D01*
X0008928Y0116148D01*
X0009948Y0115725D01*
X0011052Y0115725D01*
X0012072Y0116148D01*
X0012852Y0116928D01*
X0013275Y0117948D01*
X0013275Y0119052D01*
X0012852Y0120072D01*
X0012072Y0120852D01*
X0011052Y0121275D01*
X0009920Y0121263D02*
X0005887Y0121263D01*
X0005887Y0120065D02*
X0008145Y0120065D01*
X0007725Y0118866D02*
X0005887Y0118866D01*
X0005887Y0117668D02*
X0007841Y0117668D01*
X0008607Y0116469D02*
X0005887Y0116469D01*
X0005887Y0115270D02*
X0017799Y0115270D01*
X0017725Y0116469D02*
X0012393Y0116469D01*
X0013159Y0117668D02*
X0018243Y0117668D01*
X0020931Y0118866D02*
X0013275Y0118866D01*
X0012855Y0120065D02*
X0020171Y0120065D01*
X0022757Y0117668D02*
X0024243Y0117668D01*
X0024148Y0117572D02*
X0023725Y0116552D01*
X0023725Y0115448D01*
X0024148Y0114428D01*
X0024928Y0113648D01*
X0025948Y0113225D01*
X0027052Y0113225D01*
X0028072Y0113648D01*
X0028852Y0114428D01*
X0029275Y0115448D01*
X0029275Y0116552D01*
X0028852Y0117572D01*
X0028072Y0118352D01*
X0027052Y0118775D01*
X0025948Y0118775D01*
X0024928Y0118352D01*
X0024148Y0117572D01*
X0023725Y0116469D02*
X0023275Y0116469D01*
X0023201Y0115270D02*
X0023799Y0115270D01*
X0024504Y0114072D02*
X0022496Y0114072D01*
X0024928Y0111852D02*
X0025948Y0112275D01*
X0027052Y0112275D01*
X0028072Y0111852D01*
X0028852Y0111072D01*
X0029275Y0110052D01*
X0029275Y0108948D01*
X0028852Y0107928D01*
X0028072Y0107148D01*
X0027052Y0106725D01*
X0025948Y0106725D01*
X0024928Y0107148D01*
X0024148Y0107928D01*
X0023725Y0108948D01*
X0023725Y0110052D01*
X0024148Y0111072D01*
X0024928Y0111852D01*
X0024751Y0111675D02*
X0005887Y0111675D01*
X0005887Y0112873D02*
X0078313Y0112873D01*
X0078313Y0111675D02*
X0068793Y0111675D01*
X0068552Y0111775D02*
X0067448Y0111775D01*
X0066428Y0111352D01*
X0065648Y0110572D01*
X0065225Y0109552D01*
X0065225Y0108448D01*
X0065648Y0107428D01*
X0066428Y0106648D01*
X0067448Y0106225D01*
X0068552Y0106225D01*
X0069572Y0106648D01*
X0070352Y0107428D01*
X0070775Y0108448D01*
X0070775Y0109552D01*
X0070352Y0110572D01*
X0069572Y0111352D01*
X0068552Y0111775D01*
X0067207Y0111675D02*
X0028249Y0111675D01*
X0029099Y0110476D02*
X0065608Y0110476D01*
X0065225Y0109278D02*
X0029275Y0109278D01*
X0028915Y0108079D02*
X0065378Y0108079D01*
X0066195Y0106881D02*
X0027428Y0106881D01*
X0025572Y0106881D02*
X0005887Y0106881D01*
X0005887Y0108079D02*
X0024085Y0108079D01*
X0023725Y0109278D02*
X0005887Y0109278D01*
X0005887Y0110476D02*
X0023901Y0110476D01*
X0028496Y0114072D02*
X0078313Y0114072D01*
X0078313Y0115270D02*
X0029201Y0115270D01*
X0029275Y0116469D02*
X0078313Y0116469D01*
X0078130Y0117668D02*
X0028757Y0117668D01*
X0030931Y0118866D02*
X0025069Y0118866D01*
X0025829Y0120065D02*
X0030171Y0120065D01*
X0030028Y0121263D02*
X0025972Y0121263D01*
X0018504Y0114072D02*
X0005887Y0114072D01*
X0005887Y0105682D02*
X0078313Y0105682D01*
X0078313Y0106881D02*
X0069805Y0106881D01*
X0070622Y0108079D02*
X0078313Y0108079D01*
X0078313Y0109278D02*
X0070775Y0109278D01*
X0070392Y0110476D02*
X0078313Y0110476D01*
X0078423Y0104484D02*
X0005887Y0104484D01*
X0005887Y0103285D02*
X0041361Y0103285D01*
X0041428Y0103352D02*
X0040648Y0102572D01*
X0040225Y0101552D01*
X0040225Y0100448D01*
X0040648Y0099428D01*
X0041428Y0098648D01*
X0042448Y0098225D01*
X0043552Y0098225D01*
X0044572Y0098648D01*
X0045352Y0099428D01*
X0045775Y0100448D01*
X0045775Y0101552D01*
X0045352Y0102572D01*
X0044572Y0103352D01*
X0043552Y0103775D01*
X0042448Y0103775D01*
X0041428Y0103352D01*
X0040447Y0102087D02*
X0005887Y0102087D01*
X0005887Y0100888D02*
X0040225Y0100888D01*
X0040539Y0099690D02*
X0005887Y0099690D01*
X0005887Y0098491D02*
X0041806Y0098491D01*
X0044194Y0098491D02*
X0084415Y0098491D01*
X0085614Y0097293D02*
X0005887Y0097293D01*
X0044639Y0103285D02*
X0079621Y0103285D01*
X0080820Y0102087D02*
X0045553Y0102087D01*
X0045775Y0100888D02*
X0082018Y0100888D01*
X0083217Y0099690D02*
X0045461Y0099690D01*
X0057028Y0134447D02*
X0005887Y0134447D01*
X0005887Y0135645D02*
X0057465Y0135645D01*
X0059100Y0136844D02*
X0005887Y0136844D01*
X0118368Y0144035D02*
X0122225Y0144035D01*
X0122479Y0142836D02*
X0118775Y0142836D01*
X0118646Y0141638D02*
X0123452Y0141638D01*
X0126548Y0141638D02*
X0134269Y0141638D01*
X0133070Y0142836D02*
X0127521Y0142836D01*
X0127775Y0144035D02*
X0131872Y0144035D01*
X0130673Y0145233D02*
X0127493Y0145233D01*
X0126380Y0146432D02*
X0129475Y0146432D01*
X0150088Y0142836D02*
X0156013Y0142836D01*
X0156013Y0141638D02*
X0150739Y0141638D01*
X0150771Y0140439D02*
X0156750Y0140439D01*
X0157949Y0139241D02*
X0150165Y0139241D01*
X0158362Y0141638D02*
X0237613Y0141638D01*
X0237613Y0142836D02*
X0158000Y0142836D01*
X0158000Y0144035D02*
X0237613Y0144035D01*
X0237613Y0145233D02*
X0158000Y0145233D01*
X0158000Y0146432D02*
X0237613Y0146432D01*
X0237613Y0147630D02*
X0158000Y0147630D01*
X0158000Y0148829D02*
X0237613Y0148829D01*
X0237613Y0150027D02*
X0158000Y0150027D01*
X0158000Y0151226D02*
X0237613Y0151226D01*
X0237613Y0152424D02*
X0158000Y0152424D01*
X0158000Y0153623D02*
X0237613Y0153623D01*
X0237613Y0154821D02*
X0158000Y0154821D01*
X0158000Y0156020D02*
X0237613Y0156020D01*
X0236820Y0157218D02*
X0158000Y0157218D01*
X0156013Y0154821D02*
X0152956Y0154821D01*
X0153275Y0153623D02*
X0156013Y0153623D01*
X0156013Y0152424D02*
X0153058Y0152424D01*
X0152150Y0151226D02*
X0156013Y0151226D01*
X0208906Y0096094D02*
X0215000Y0096094D01*
X0213869Y0094896D02*
X0210104Y0094896D01*
X0211303Y0093697D02*
X0213583Y0093697D01*
X0213833Y0092499D02*
X0212000Y0092499D01*
X0079090Y0026581D02*
X0068580Y0026581D01*
X0067259Y0027779D02*
X0078002Y0027779D01*
X0077725Y0028978D02*
X0005887Y0028978D01*
D17*
X0072500Y0058000D02*
X0072500Y0068500D01*
X0072500Y0058000D02*
X0098000Y0032500D01*
X0105500Y0032500D01*
X0134500Y0043500D02*
X0143500Y0043500D01*
X0159000Y0059000D01*
X0159000Y0068000D01*
D18*
X0115000Y0027000D02*
X0109500Y0021500D01*
X0084000Y0021500D01*
X0081500Y0019000D01*
D19*
X0164000Y0023000D03*
D20*
X0125500Y0083500D03*
M02*
