G75*
%MOIN*%
%OFA0B0*%
%FSLAX25Y25*%
%IPPOS*%
%LPD*%
%AMOC8*
5,1,8,0,0,1.08239X$1,22.5*
%
%ADD10C,0.00000*%
%ADD11C,0.00800*%
%ADD12R,0.10400X0.05400*%
%ADD13R,0.05518X0.06306*%
%ADD14R,0.04731X0.04337*%
%ADD15R,0.06699X0.11030*%
%ADD16R,0.06699X0.07487*%
%ADD17R,0.04337X0.04731*%
%ADD18R,0.06699X0.03550*%
%ADD19R,0.05000X0.06700*%
%ADD20R,0.06700X0.05000*%
%ADD21R,0.05400X0.10400*%
%ADD22R,0.03937X0.02362*%
%ADD23R,0.26778X0.26778*%
%ADD24R,0.04429X0.02756*%
%ADD25R,0.04429X0.01575*%
%ADD26R,0.02756X0.04429*%
%ADD27R,0.04337X0.02762*%
%ADD28R,0.04337X0.01581*%
%ADD29R,0.02762X0.04337*%
%ADD30R,0.01581X0.04337*%
%ADD31R,0.01975X0.04534*%
%ADD32R,0.06699X0.01581*%
%ADD33R,0.05124X0.02565*%
%ADD34C,0.06337*%
%ADD35R,0.05518X0.04731*%
%ADD36C,0.22054*%
%ADD37C,0.03175*%
%ADD38C,0.03962*%
D10*
X0009500Y0011000D02*
X0227500Y0011000D01*
X0231500Y0015000D01*
X0235500Y0015000D01*
X0239500Y0011000D01*
X0241000Y0011000D01*
X0245000Y0015000D01*
X0248500Y0015000D01*
X0252500Y0011000D01*
X0253500Y0011000D01*
X0258500Y0016000D01*
X0258500Y0116000D01*
X0239000Y0135500D01*
X0239000Y0157000D01*
X0236500Y0159500D01*
X0017000Y0159500D01*
X0004500Y0147000D01*
X0004500Y0016000D01*
X0009500Y0011000D01*
D11*
X0191300Y0014300D02*
X0191300Y0021700D01*
X0212600Y0021700D01*
X0212600Y0014300D01*
X0191300Y0014300D01*
X0191300Y0014993D02*
X0212600Y0014993D01*
X0212600Y0015791D02*
X0191300Y0015791D01*
X0191300Y0016590D02*
X0212600Y0016590D01*
X0212600Y0017388D02*
X0191300Y0017388D01*
X0191300Y0018187D02*
X0212600Y0018187D01*
X0212600Y0018985D02*
X0191300Y0018985D01*
X0191300Y0019784D02*
X0212600Y0019784D01*
X0212600Y0020582D02*
X0191300Y0020582D01*
X0191300Y0021381D02*
X0212600Y0021381D01*
D12*
X0252500Y0048500D03*
X0252500Y0058500D03*
X0252500Y0086000D03*
X0252500Y0093500D03*
X0252500Y0101000D03*
X0252500Y0111000D03*
X0232500Y0138500D03*
X0232500Y0146000D03*
X0232500Y0153500D03*
X0010500Y0141000D03*
X0010500Y0128500D03*
X0010500Y0058500D03*
D13*
X0096760Y0138500D03*
X0104240Y0138500D03*
X0036740Y0151000D03*
X0029260Y0151000D03*
X0201260Y0137500D03*
X0208740Y0137500D03*
X0229260Y0035500D03*
X0236740Y0035500D03*
D14*
X0224000Y0093654D03*
X0224000Y0100346D03*
X0190846Y0131000D03*
X0184154Y0131000D03*
X0158500Y0129346D03*
X0158500Y0122654D03*
X0053000Y0056846D03*
X0053000Y0050154D03*
D15*
X0201988Y0125500D03*
X0213012Y0125500D03*
D16*
X0213012Y0113000D03*
X0201988Y0113000D03*
D17*
X0224154Y0113000D03*
X0230846Y0113000D03*
X0175846Y0121000D03*
X0169154Y0121000D03*
X0169154Y0131000D03*
X0175846Y0131000D03*
X0103846Y0146500D03*
X0097154Y0146500D03*
X0085500Y0147654D03*
X0085500Y0154346D03*
X0085500Y0139346D03*
X0085500Y0132654D03*
X0055500Y0132654D03*
X0055500Y0139346D03*
X0055500Y0147154D03*
X0055500Y0153846D03*
X0035346Y0141000D03*
X0028654Y0141000D03*
X0055654Y0068000D03*
X0062346Y0068000D03*
X0045000Y0056846D03*
X0045000Y0050154D03*
X0063154Y0052500D03*
X0069846Y0052500D03*
X0234654Y0048500D03*
X0241346Y0048500D03*
D18*
X0009000Y0071000D03*
X0009000Y0076000D03*
X0009000Y0081000D03*
X0009000Y0086000D03*
X0009000Y0091000D03*
X0009000Y0096000D03*
X0009000Y0101000D03*
X0009000Y0106000D03*
X0009000Y0111000D03*
D19*
X0119000Y0151500D03*
X0125000Y0151500D03*
X0131000Y0151500D03*
X0132000Y0018500D03*
X0138000Y0018500D03*
X0144000Y0018500D03*
X0119000Y0018500D03*
X0113000Y0018500D03*
X0107000Y0018500D03*
D20*
X0093000Y0018000D03*
X0093000Y0024000D03*
X0093000Y0030000D03*
D21*
G36*
X0231086Y0016233D02*
X0227267Y0012414D01*
X0219914Y0019767D01*
X0223733Y0023586D01*
X0231086Y0016233D01*
G37*
G36*
X0244086Y0016233D02*
X0240267Y0012414D01*
X0232914Y0019767D01*
X0236733Y0023586D01*
X0244086Y0016233D01*
G37*
G36*
X0257086Y0016233D02*
X0253267Y0012414D01*
X0245914Y0019767D01*
X0249733Y0023586D01*
X0257086Y0016233D01*
G37*
G36*
X0248086Y0120233D02*
X0244267Y0116414D01*
X0236914Y0123767D01*
X0240733Y0127586D01*
X0248086Y0120233D01*
G37*
G36*
X0250586Y0122733D02*
X0246767Y0118914D01*
X0239414Y0126267D01*
X0243233Y0130086D01*
X0250586Y0122733D01*
G37*
D22*
X0202650Y0145776D03*
X0202650Y0148925D03*
X0202650Y0152075D03*
X0202650Y0155224D03*
X0196350Y0155224D03*
X0196350Y0152075D03*
X0196350Y0148925D03*
X0196350Y0145776D03*
X0234850Y0075224D03*
X0234850Y0072075D03*
X0234850Y0068925D03*
X0234850Y0065776D03*
X0241150Y0065776D03*
X0241150Y0068925D03*
X0241150Y0072075D03*
X0241150Y0075224D03*
X0038650Y0074425D03*
X0038650Y0071276D03*
X0032350Y0071276D03*
X0032350Y0074425D03*
X0032350Y0077575D03*
X0032350Y0080724D03*
X0038650Y0080724D03*
X0038650Y0077575D03*
X0038650Y0088776D03*
X0038650Y0091925D03*
X0038650Y0095075D03*
X0038650Y0098224D03*
X0032350Y0098224D03*
X0032350Y0095075D03*
X0032350Y0091925D03*
X0032350Y0088776D03*
X0032350Y0106276D03*
X0032350Y0109425D03*
X0032350Y0112575D03*
X0032350Y0115724D03*
X0038650Y0115724D03*
X0038650Y0112575D03*
X0038650Y0109425D03*
X0038650Y0106276D03*
D23*
G36*
X0144434Y0083500D02*
X0125500Y0064566D01*
X0106566Y0083500D01*
X0125500Y0102434D01*
X0144434Y0083500D01*
G37*
D24*
G36*
X0182777Y0089276D02*
X0179647Y0086146D01*
X0177699Y0088094D01*
X0180829Y0091224D01*
X0182777Y0089276D01*
G37*
G36*
X0133224Y0138829D02*
X0130094Y0135699D01*
X0128146Y0137647D01*
X0131276Y0140777D01*
X0133224Y0138829D01*
G37*
G36*
X0073301Y0078906D02*
X0070171Y0075776D01*
X0068223Y0077724D01*
X0071353Y0080854D01*
X0073301Y0078906D01*
G37*
G36*
X0122854Y0029353D02*
X0119724Y0026223D01*
X0117776Y0028171D01*
X0120906Y0031301D01*
X0122854Y0029353D01*
G37*
D25*
G36*
X0120627Y0031580D02*
X0117496Y0028449D01*
X0116383Y0029562D01*
X0119514Y0032693D01*
X0120627Y0031580D01*
G37*
G36*
X0119236Y0032972D02*
X0116105Y0029841D01*
X0114992Y0030954D01*
X0118123Y0034085D01*
X0119236Y0032972D01*
G37*
G36*
X0117844Y0034364D02*
X0114713Y0031233D01*
X0113600Y0032346D01*
X0116731Y0035477D01*
X0117844Y0034364D01*
G37*
G36*
X0116452Y0035756D02*
X0113321Y0032625D01*
X0112208Y0033738D01*
X0115339Y0036869D01*
X0116452Y0035756D01*
G37*
G36*
X0115060Y0037148D02*
X0111929Y0034017D01*
X0110816Y0035130D01*
X0113947Y0038261D01*
X0115060Y0037148D01*
G37*
G36*
X0113668Y0038540D02*
X0110537Y0035409D01*
X0109424Y0036522D01*
X0112555Y0039653D01*
X0113668Y0038540D01*
G37*
G36*
X0112276Y0039932D02*
X0109145Y0036801D01*
X0108032Y0037914D01*
X0111163Y0041045D01*
X0112276Y0039932D01*
G37*
G36*
X0110884Y0041324D02*
X0107753Y0038193D01*
X0106640Y0039306D01*
X0109771Y0042437D01*
X0110884Y0041324D01*
G37*
G36*
X0109492Y0042716D02*
X0106361Y0039585D01*
X0105248Y0040698D01*
X0108379Y0043829D01*
X0109492Y0042716D01*
G37*
G36*
X0108100Y0044108D02*
X0104969Y0040977D01*
X0103856Y0042090D01*
X0106987Y0045221D01*
X0108100Y0044108D01*
G37*
G36*
X0106708Y0045500D02*
X0103577Y0042369D01*
X0102464Y0043482D01*
X0105595Y0046613D01*
X0106708Y0045500D01*
G37*
G36*
X0105316Y0046892D02*
X0102185Y0043761D01*
X0101072Y0044874D01*
X0104203Y0048005D01*
X0105316Y0046892D01*
G37*
G36*
X0103924Y0048284D02*
X0100793Y0045153D01*
X0099680Y0046266D01*
X0102811Y0049397D01*
X0103924Y0048284D01*
G37*
G36*
X0102532Y0049676D02*
X0099401Y0046545D01*
X0098288Y0047658D01*
X0101419Y0050789D01*
X0102532Y0049676D01*
G37*
G36*
X0101140Y0051068D02*
X0098009Y0047937D01*
X0096896Y0049050D01*
X0100027Y0052181D01*
X0101140Y0051068D01*
G37*
G36*
X0099748Y0052460D02*
X0096617Y0049329D01*
X0095504Y0050442D01*
X0098635Y0053573D01*
X0099748Y0052460D01*
G37*
G36*
X0098356Y0053851D02*
X0095225Y0050720D01*
X0094112Y0051833D01*
X0097243Y0054964D01*
X0098356Y0053851D01*
G37*
G36*
X0096964Y0055243D02*
X0093833Y0052112D01*
X0092720Y0053225D01*
X0095851Y0056356D01*
X0096964Y0055243D01*
G37*
G36*
X0095573Y0056635D02*
X0092442Y0053504D01*
X0091329Y0054617D01*
X0094460Y0057748D01*
X0095573Y0056635D01*
G37*
G36*
X0094181Y0058027D02*
X0091050Y0054896D01*
X0089937Y0056009D01*
X0093068Y0059140D01*
X0094181Y0058027D01*
G37*
G36*
X0092789Y0059419D02*
X0089658Y0056288D01*
X0088545Y0057401D01*
X0091676Y0060532D01*
X0092789Y0059419D01*
G37*
G36*
X0091397Y0060811D02*
X0088266Y0057680D01*
X0087153Y0058793D01*
X0090284Y0061924D01*
X0091397Y0060811D01*
G37*
G36*
X0090005Y0062203D02*
X0086874Y0059072D01*
X0085761Y0060185D01*
X0088892Y0063316D01*
X0090005Y0062203D01*
G37*
G36*
X0088613Y0063595D02*
X0085482Y0060464D01*
X0084369Y0061577D01*
X0087500Y0064708D01*
X0088613Y0063595D01*
G37*
G36*
X0087221Y0064987D02*
X0084090Y0061856D01*
X0082977Y0062969D01*
X0086108Y0066100D01*
X0087221Y0064987D01*
G37*
G36*
X0085829Y0066379D02*
X0082698Y0063248D01*
X0081585Y0064361D01*
X0084716Y0067492D01*
X0085829Y0066379D01*
G37*
G36*
X0084437Y0067771D02*
X0081306Y0064640D01*
X0080193Y0065753D01*
X0083324Y0068884D01*
X0084437Y0067771D01*
G37*
G36*
X0083045Y0069163D02*
X0079914Y0066032D01*
X0078801Y0067145D01*
X0081932Y0070276D01*
X0083045Y0069163D01*
G37*
G36*
X0081653Y0070555D02*
X0078522Y0067424D01*
X0077409Y0068537D01*
X0080540Y0071668D01*
X0081653Y0070555D01*
G37*
G36*
X0080261Y0071947D02*
X0077130Y0068816D01*
X0076017Y0069929D01*
X0079148Y0073060D01*
X0080261Y0071947D01*
G37*
G36*
X0078869Y0073339D02*
X0075738Y0070208D01*
X0074625Y0071321D01*
X0077756Y0074452D01*
X0078869Y0073339D01*
G37*
G36*
X0077477Y0074731D02*
X0074346Y0071600D01*
X0073233Y0072713D01*
X0076364Y0075844D01*
X0077477Y0074731D01*
G37*
G36*
X0076085Y0076123D02*
X0072954Y0072992D01*
X0071841Y0074105D01*
X0074972Y0077236D01*
X0076085Y0076123D01*
G37*
G36*
X0074693Y0077514D02*
X0071562Y0074383D01*
X0070449Y0075496D01*
X0073580Y0078627D01*
X0074693Y0077514D01*
G37*
G36*
X0073580Y0088373D02*
X0070449Y0091504D01*
X0071562Y0092617D01*
X0074693Y0089486D01*
X0073580Y0088373D01*
G37*
G36*
X0074972Y0089764D02*
X0071841Y0092895D01*
X0072954Y0094008D01*
X0076085Y0090877D01*
X0074972Y0089764D01*
G37*
G36*
X0076364Y0091156D02*
X0073233Y0094287D01*
X0074346Y0095400D01*
X0077477Y0092269D01*
X0076364Y0091156D01*
G37*
G36*
X0077756Y0092548D02*
X0074625Y0095679D01*
X0075738Y0096792D01*
X0078869Y0093661D01*
X0077756Y0092548D01*
G37*
G36*
X0079148Y0093940D02*
X0076017Y0097071D01*
X0077130Y0098184D01*
X0080261Y0095053D01*
X0079148Y0093940D01*
G37*
G36*
X0080540Y0095332D02*
X0077409Y0098463D01*
X0078522Y0099576D01*
X0081653Y0096445D01*
X0080540Y0095332D01*
G37*
G36*
X0081932Y0096724D02*
X0078801Y0099855D01*
X0079914Y0100968D01*
X0083045Y0097837D01*
X0081932Y0096724D01*
G37*
G36*
X0083324Y0098116D02*
X0080193Y0101247D01*
X0081306Y0102360D01*
X0084437Y0099229D01*
X0083324Y0098116D01*
G37*
G36*
X0084716Y0099508D02*
X0081585Y0102639D01*
X0082698Y0103752D01*
X0085829Y0100621D01*
X0084716Y0099508D01*
G37*
G36*
X0086108Y0100900D02*
X0082977Y0104031D01*
X0084090Y0105144D01*
X0087221Y0102013D01*
X0086108Y0100900D01*
G37*
G36*
X0087500Y0102292D02*
X0084369Y0105423D01*
X0085482Y0106536D01*
X0088613Y0103405D01*
X0087500Y0102292D01*
G37*
G36*
X0088892Y0103684D02*
X0085761Y0106815D01*
X0086874Y0107928D01*
X0090005Y0104797D01*
X0088892Y0103684D01*
G37*
G36*
X0090284Y0105076D02*
X0087153Y0108207D01*
X0088266Y0109320D01*
X0091397Y0106189D01*
X0090284Y0105076D01*
G37*
G36*
X0091676Y0106468D02*
X0088545Y0109599D01*
X0089658Y0110712D01*
X0092789Y0107581D01*
X0091676Y0106468D01*
G37*
G36*
X0093068Y0107860D02*
X0089937Y0110991D01*
X0091050Y0112104D01*
X0094181Y0108973D01*
X0093068Y0107860D01*
G37*
G36*
X0094460Y0109252D02*
X0091329Y0112383D01*
X0092442Y0113496D01*
X0095573Y0110365D01*
X0094460Y0109252D01*
G37*
G36*
X0095851Y0110644D02*
X0092720Y0113775D01*
X0093833Y0114888D01*
X0096964Y0111757D01*
X0095851Y0110644D01*
G37*
G36*
X0097243Y0112036D02*
X0094112Y0115167D01*
X0095225Y0116280D01*
X0098356Y0113149D01*
X0097243Y0112036D01*
G37*
G36*
X0098635Y0113427D02*
X0095504Y0116558D01*
X0096617Y0117671D01*
X0099748Y0114540D01*
X0098635Y0113427D01*
G37*
G36*
X0100027Y0114819D02*
X0096896Y0117950D01*
X0098009Y0119063D01*
X0101140Y0115932D01*
X0100027Y0114819D01*
G37*
G36*
X0101419Y0116211D02*
X0098288Y0119342D01*
X0099401Y0120455D01*
X0102532Y0117324D01*
X0101419Y0116211D01*
G37*
G36*
X0102811Y0117603D02*
X0099680Y0120734D01*
X0100793Y0121847D01*
X0103924Y0118716D01*
X0102811Y0117603D01*
G37*
G36*
X0104203Y0118995D02*
X0101072Y0122126D01*
X0102185Y0123239D01*
X0105316Y0120108D01*
X0104203Y0118995D01*
G37*
G36*
X0105595Y0120387D02*
X0102464Y0123518D01*
X0103577Y0124631D01*
X0106708Y0121500D01*
X0105595Y0120387D01*
G37*
G36*
X0106987Y0121779D02*
X0103856Y0124910D01*
X0104969Y0126023D01*
X0108100Y0122892D01*
X0106987Y0121779D01*
G37*
G36*
X0108379Y0123171D02*
X0105248Y0126302D01*
X0106361Y0127415D01*
X0109492Y0124284D01*
X0108379Y0123171D01*
G37*
G36*
X0109771Y0124563D02*
X0106640Y0127694D01*
X0107753Y0128807D01*
X0110884Y0125676D01*
X0109771Y0124563D01*
G37*
G36*
X0111163Y0125955D02*
X0108032Y0129086D01*
X0109145Y0130199D01*
X0112276Y0127068D01*
X0111163Y0125955D01*
G37*
G36*
X0112555Y0127347D02*
X0109424Y0130478D01*
X0110537Y0131591D01*
X0113668Y0128460D01*
X0112555Y0127347D01*
G37*
G36*
X0113947Y0128739D02*
X0110816Y0131870D01*
X0111929Y0132983D01*
X0115060Y0129852D01*
X0113947Y0128739D01*
G37*
G36*
X0115339Y0130131D02*
X0112208Y0133262D01*
X0113321Y0134375D01*
X0116452Y0131244D01*
X0115339Y0130131D01*
G37*
G36*
X0116731Y0131523D02*
X0113600Y0134654D01*
X0114713Y0135767D01*
X0117844Y0132636D01*
X0116731Y0131523D01*
G37*
G36*
X0118123Y0132915D02*
X0114992Y0136046D01*
X0116105Y0137159D01*
X0119236Y0134028D01*
X0118123Y0132915D01*
G37*
G36*
X0119514Y0134307D02*
X0116383Y0137438D01*
X0117496Y0138551D01*
X0120627Y0135420D01*
X0119514Y0134307D01*
G37*
G36*
X0130373Y0135420D02*
X0133504Y0138551D01*
X0134617Y0137438D01*
X0131486Y0134307D01*
X0130373Y0135420D01*
G37*
G36*
X0131764Y0134028D02*
X0134895Y0137159D01*
X0136008Y0136046D01*
X0132877Y0132915D01*
X0131764Y0134028D01*
G37*
G36*
X0133156Y0132636D02*
X0136287Y0135767D01*
X0137400Y0134654D01*
X0134269Y0131523D01*
X0133156Y0132636D01*
G37*
G36*
X0134548Y0131244D02*
X0137679Y0134375D01*
X0138792Y0133262D01*
X0135661Y0130131D01*
X0134548Y0131244D01*
G37*
G36*
X0135940Y0129852D02*
X0139071Y0132983D01*
X0140184Y0131870D01*
X0137053Y0128739D01*
X0135940Y0129852D01*
G37*
G36*
X0137332Y0128460D02*
X0140463Y0131591D01*
X0141576Y0130478D01*
X0138445Y0127347D01*
X0137332Y0128460D01*
G37*
G36*
X0138724Y0127068D02*
X0141855Y0130199D01*
X0142968Y0129086D01*
X0139837Y0125955D01*
X0138724Y0127068D01*
G37*
G36*
X0140116Y0125676D02*
X0143247Y0128807D01*
X0144360Y0127694D01*
X0141229Y0124563D01*
X0140116Y0125676D01*
G37*
G36*
X0141508Y0124284D02*
X0144639Y0127415D01*
X0145752Y0126302D01*
X0142621Y0123171D01*
X0141508Y0124284D01*
G37*
G36*
X0142900Y0122892D02*
X0146031Y0126023D01*
X0147144Y0124910D01*
X0144013Y0121779D01*
X0142900Y0122892D01*
G37*
G36*
X0144292Y0121500D02*
X0147423Y0124631D01*
X0148536Y0123518D01*
X0145405Y0120387D01*
X0144292Y0121500D01*
G37*
G36*
X0145684Y0120108D02*
X0148815Y0123239D01*
X0149928Y0122126D01*
X0146797Y0118995D01*
X0145684Y0120108D01*
G37*
G36*
X0147076Y0118716D02*
X0150207Y0121847D01*
X0151320Y0120734D01*
X0148189Y0117603D01*
X0147076Y0118716D01*
G37*
G36*
X0148468Y0117324D02*
X0151599Y0120455D01*
X0152712Y0119342D01*
X0149581Y0116211D01*
X0148468Y0117324D01*
G37*
G36*
X0149860Y0115932D02*
X0152991Y0119063D01*
X0154104Y0117950D01*
X0150973Y0114819D01*
X0149860Y0115932D01*
G37*
G36*
X0151252Y0114540D02*
X0154383Y0117671D01*
X0155496Y0116558D01*
X0152365Y0113427D01*
X0151252Y0114540D01*
G37*
G36*
X0152644Y0113149D02*
X0155775Y0116280D01*
X0156888Y0115167D01*
X0153757Y0112036D01*
X0152644Y0113149D01*
G37*
G36*
X0154036Y0111757D02*
X0157167Y0114888D01*
X0158280Y0113775D01*
X0155149Y0110644D01*
X0154036Y0111757D01*
G37*
G36*
X0155427Y0110365D02*
X0158558Y0113496D01*
X0159671Y0112383D01*
X0156540Y0109252D01*
X0155427Y0110365D01*
G37*
G36*
X0156819Y0108973D02*
X0159950Y0112104D01*
X0161063Y0110991D01*
X0157932Y0107860D01*
X0156819Y0108973D01*
G37*
G36*
X0158211Y0107581D02*
X0161342Y0110712D01*
X0162455Y0109599D01*
X0159324Y0106468D01*
X0158211Y0107581D01*
G37*
G36*
X0159603Y0106189D02*
X0162734Y0109320D01*
X0163847Y0108207D01*
X0160716Y0105076D01*
X0159603Y0106189D01*
G37*
G36*
X0160995Y0104797D02*
X0164126Y0107928D01*
X0165239Y0106815D01*
X0162108Y0103684D01*
X0160995Y0104797D01*
G37*
G36*
X0162387Y0103405D02*
X0165518Y0106536D01*
X0166631Y0105423D01*
X0163500Y0102292D01*
X0162387Y0103405D01*
G37*
G36*
X0163779Y0102013D02*
X0166910Y0105144D01*
X0168023Y0104031D01*
X0164892Y0100900D01*
X0163779Y0102013D01*
G37*
G36*
X0165171Y0100621D02*
X0168302Y0103752D01*
X0169415Y0102639D01*
X0166284Y0099508D01*
X0165171Y0100621D01*
G37*
G36*
X0166563Y0099229D02*
X0169694Y0102360D01*
X0170807Y0101247D01*
X0167676Y0098116D01*
X0166563Y0099229D01*
G37*
G36*
X0167955Y0097837D02*
X0171086Y0100968D01*
X0172199Y0099855D01*
X0169068Y0096724D01*
X0167955Y0097837D01*
G37*
G36*
X0169347Y0096445D02*
X0172478Y0099576D01*
X0173591Y0098463D01*
X0170460Y0095332D01*
X0169347Y0096445D01*
G37*
G36*
X0170739Y0095053D02*
X0173870Y0098184D01*
X0174983Y0097071D01*
X0171852Y0093940D01*
X0170739Y0095053D01*
G37*
G36*
X0172131Y0093661D02*
X0175262Y0096792D01*
X0176375Y0095679D01*
X0173244Y0092548D01*
X0172131Y0093661D01*
G37*
G36*
X0173523Y0092269D02*
X0176654Y0095400D01*
X0177767Y0094287D01*
X0174636Y0091156D01*
X0173523Y0092269D01*
G37*
G36*
X0174915Y0090877D02*
X0178046Y0094008D01*
X0179159Y0092895D01*
X0176028Y0089764D01*
X0174915Y0090877D01*
G37*
G36*
X0176307Y0089486D02*
X0179438Y0092617D01*
X0180551Y0091504D01*
X0177420Y0088373D01*
X0176307Y0089486D01*
G37*
G36*
X0177420Y0078627D02*
X0180551Y0075496D01*
X0179438Y0074383D01*
X0176307Y0077514D01*
X0177420Y0078627D01*
G37*
G36*
X0176028Y0077236D02*
X0179159Y0074105D01*
X0178046Y0072992D01*
X0174915Y0076123D01*
X0176028Y0077236D01*
G37*
G36*
X0174636Y0075844D02*
X0177767Y0072713D01*
X0176654Y0071600D01*
X0173523Y0074731D01*
X0174636Y0075844D01*
G37*
G36*
X0173244Y0074452D02*
X0176375Y0071321D01*
X0175262Y0070208D01*
X0172131Y0073339D01*
X0173244Y0074452D01*
G37*
G36*
X0171852Y0073060D02*
X0174983Y0069929D01*
X0173870Y0068816D01*
X0170739Y0071947D01*
X0171852Y0073060D01*
G37*
G36*
X0170460Y0071668D02*
X0173591Y0068537D01*
X0172478Y0067424D01*
X0169347Y0070555D01*
X0170460Y0071668D01*
G37*
G36*
X0169068Y0070276D02*
X0172199Y0067145D01*
X0171086Y0066032D01*
X0167955Y0069163D01*
X0169068Y0070276D01*
G37*
G36*
X0167676Y0068884D02*
X0170807Y0065753D01*
X0169694Y0064640D01*
X0166563Y0067771D01*
X0167676Y0068884D01*
G37*
G36*
X0166284Y0067492D02*
X0169415Y0064361D01*
X0168302Y0063248D01*
X0165171Y0066379D01*
X0166284Y0067492D01*
G37*
G36*
X0164892Y0066100D02*
X0168023Y0062969D01*
X0166910Y0061856D01*
X0163779Y0064987D01*
X0164892Y0066100D01*
G37*
G36*
X0163500Y0064708D02*
X0166631Y0061577D01*
X0165518Y0060464D01*
X0162387Y0063595D01*
X0163500Y0064708D01*
G37*
G36*
X0162108Y0063316D02*
X0165239Y0060185D01*
X0164126Y0059072D01*
X0160995Y0062203D01*
X0162108Y0063316D01*
G37*
G36*
X0160716Y0061924D02*
X0163847Y0058793D01*
X0162734Y0057680D01*
X0159603Y0060811D01*
X0160716Y0061924D01*
G37*
G36*
X0159324Y0060532D02*
X0162455Y0057401D01*
X0161342Y0056288D01*
X0158211Y0059419D01*
X0159324Y0060532D01*
G37*
G36*
X0157932Y0059140D02*
X0161063Y0056009D01*
X0159950Y0054896D01*
X0156819Y0058027D01*
X0157932Y0059140D01*
G37*
G36*
X0156540Y0057748D02*
X0159671Y0054617D01*
X0158558Y0053504D01*
X0155427Y0056635D01*
X0156540Y0057748D01*
G37*
G36*
X0155149Y0056356D02*
X0158280Y0053225D01*
X0157167Y0052112D01*
X0154036Y0055243D01*
X0155149Y0056356D01*
G37*
G36*
X0153757Y0054964D02*
X0156888Y0051833D01*
X0155775Y0050720D01*
X0152644Y0053851D01*
X0153757Y0054964D01*
G37*
G36*
X0152365Y0053573D02*
X0155496Y0050442D01*
X0154383Y0049329D01*
X0151252Y0052460D01*
X0152365Y0053573D01*
G37*
G36*
X0150973Y0052181D02*
X0154104Y0049050D01*
X0152991Y0047937D01*
X0149860Y0051068D01*
X0150973Y0052181D01*
G37*
G36*
X0149581Y0050789D02*
X0152712Y0047658D01*
X0151599Y0046545D01*
X0148468Y0049676D01*
X0149581Y0050789D01*
G37*
G36*
X0148189Y0049397D02*
X0151320Y0046266D01*
X0150207Y0045153D01*
X0147076Y0048284D01*
X0148189Y0049397D01*
G37*
G36*
X0146797Y0048005D02*
X0149928Y0044874D01*
X0148815Y0043761D01*
X0145684Y0046892D01*
X0146797Y0048005D01*
G37*
G36*
X0145405Y0046613D02*
X0148536Y0043482D01*
X0147423Y0042369D01*
X0144292Y0045500D01*
X0145405Y0046613D01*
G37*
G36*
X0144013Y0045221D02*
X0147144Y0042090D01*
X0146031Y0040977D01*
X0142900Y0044108D01*
X0144013Y0045221D01*
G37*
G36*
X0142621Y0043829D02*
X0145752Y0040698D01*
X0144639Y0039585D01*
X0141508Y0042716D01*
X0142621Y0043829D01*
G37*
G36*
X0141229Y0042437D02*
X0144360Y0039306D01*
X0143247Y0038193D01*
X0140116Y0041324D01*
X0141229Y0042437D01*
G37*
G36*
X0139837Y0041045D02*
X0142968Y0037914D01*
X0141855Y0036801D01*
X0138724Y0039932D01*
X0139837Y0041045D01*
G37*
G36*
X0138445Y0039653D02*
X0141576Y0036522D01*
X0140463Y0035409D01*
X0137332Y0038540D01*
X0138445Y0039653D01*
G37*
G36*
X0137053Y0038261D02*
X0140184Y0035130D01*
X0139071Y0034017D01*
X0135940Y0037148D01*
X0137053Y0038261D01*
G37*
G36*
X0135661Y0036869D02*
X0138792Y0033738D01*
X0137679Y0032625D01*
X0134548Y0035756D01*
X0135661Y0036869D01*
G37*
G36*
X0134269Y0035477D02*
X0137400Y0032346D01*
X0136287Y0031233D01*
X0133156Y0034364D01*
X0134269Y0035477D01*
G37*
G36*
X0132877Y0034085D02*
X0136008Y0030954D01*
X0134895Y0029841D01*
X0131764Y0032972D01*
X0132877Y0034085D01*
G37*
G36*
X0131486Y0032693D02*
X0134617Y0029562D01*
X0133504Y0028449D01*
X0130373Y0031580D01*
X0131486Y0032693D01*
G37*
D26*
G36*
X0133224Y0028171D02*
X0131276Y0026223D01*
X0128146Y0029353D01*
X0130094Y0031301D01*
X0133224Y0028171D01*
G37*
G36*
X0182777Y0077724D02*
X0180829Y0075776D01*
X0177699Y0078906D01*
X0179647Y0080854D01*
X0182777Y0077724D01*
G37*
G36*
X0122854Y0137647D02*
X0120906Y0135699D01*
X0117776Y0138829D01*
X0119724Y0140777D01*
X0122854Y0137647D01*
G37*
G36*
X0073301Y0088094D02*
X0071353Y0086146D01*
X0068223Y0089276D01*
X0070171Y0091224D01*
X0073301Y0088094D01*
G37*
D27*
X0190768Y0077417D03*
X0224232Y0077417D03*
X0224232Y0054583D03*
X0190768Y0054583D03*
D28*
X0190768Y0057142D03*
X0190768Y0059110D03*
X0190768Y0061079D03*
X0190768Y0063047D03*
X0190768Y0065016D03*
X0190768Y0066984D03*
X0190768Y0068953D03*
X0190768Y0070921D03*
X0190768Y0072890D03*
X0190768Y0074858D03*
X0224232Y0074858D03*
X0224232Y0072890D03*
X0224232Y0070921D03*
X0224232Y0068953D03*
X0224232Y0066984D03*
X0224232Y0065016D03*
X0224232Y0063047D03*
X0224232Y0061079D03*
X0224232Y0059110D03*
X0224232Y0057142D03*
D29*
X0218917Y0049268D03*
X0196083Y0049268D03*
X0196083Y0082732D03*
X0218917Y0082732D03*
D30*
X0216358Y0082732D03*
X0214390Y0082732D03*
X0212421Y0082732D03*
X0210453Y0082732D03*
X0208484Y0082732D03*
X0206516Y0082732D03*
X0204547Y0082732D03*
X0202579Y0082732D03*
X0200610Y0082732D03*
X0198642Y0082732D03*
X0198642Y0049268D03*
X0200610Y0049268D03*
X0202579Y0049268D03*
X0204547Y0049268D03*
X0206516Y0049268D03*
X0208484Y0049268D03*
X0210453Y0049268D03*
X0212421Y0049268D03*
X0214390Y0049268D03*
X0216358Y0049268D03*
D31*
X0190059Y0117358D03*
X0187500Y0117358D03*
X0184941Y0117358D03*
X0184941Y0124642D03*
X0187500Y0124642D03*
X0190059Y0124642D03*
D32*
X0179193Y0144661D03*
X0179193Y0147220D03*
X0179193Y0149780D03*
X0179193Y0152339D03*
X0165807Y0152339D03*
X0165807Y0149780D03*
X0165807Y0147220D03*
X0165807Y0144661D03*
D33*
X0075619Y0147260D03*
X0065381Y0147260D03*
X0065381Y0151000D03*
X0065381Y0154740D03*
X0075619Y0154740D03*
X0075619Y0139740D03*
X0075619Y0132260D03*
X0065381Y0132260D03*
X0065381Y0136000D03*
X0065381Y0139740D03*
D34*
X0065000Y0034000D03*
X0055000Y0034000D03*
X0045000Y0034000D03*
X0035000Y0034000D03*
X0025000Y0034000D03*
X0025000Y0024000D03*
X0035000Y0024000D03*
X0045000Y0024000D03*
X0055000Y0024000D03*
X0065000Y0024000D03*
D35*
X0037528Y0049957D03*
X0028472Y0049957D03*
X0028472Y0057043D03*
X0037528Y0057043D03*
D36*
X0164000Y0023000D03*
D37*
X0125500Y0069500D03*
X0122000Y0073000D03*
X0129000Y0073000D03*
X0125500Y0076500D03*
X0122000Y0080000D03*
X0118500Y0076500D03*
X0115000Y0080000D03*
X0111500Y0083500D03*
X0115000Y0087000D03*
X0118500Y0083500D03*
X0122000Y0087000D03*
X0118500Y0090500D03*
X0122000Y0094000D03*
X0125500Y0090500D03*
X0129000Y0087000D03*
X0132500Y0083500D03*
X0129000Y0080000D03*
X0132500Y0076500D03*
X0136000Y0080000D03*
X0139500Y0083500D03*
X0136000Y0087000D03*
X0132500Y0090500D03*
X0129000Y0094000D03*
X0125500Y0097500D03*
D38*
X0125500Y0083500D03*
M02*
