%
M48
M72
T01C0.0157
T02C0.0197
T03C0.0236
T04C0.0394
T05C0.1260
%
T01
X7250Y6850
X10550Y3250
X13450Y4350
X15900Y6800
X16850Y8850
X13350Y12450
X9000Y9600
X10650Y13250
X11600Y14250
X10000Y8250
X12700Y3250
X9500Y12400
X10050Y12950
X9650Y10350
X8350Y9050
X8850Y4950
X10000Y3800
X14150Y2850
X15200Y6100
X14000Y4900
X17100Y6050
X14650Y11200
X16300Y9500
X3650Y8400
X5200Y6800
X5900Y5250
X16300Y12900
X13113Y12950
X11500Y2700
X13800Y14100
X14200Y11600
X8150Y1900
X11950Y2400
X12550Y9050
X11850Y8350
X12550Y7650
X13250Y8350
X12200Y8700
X12200Y8000
X12900Y8000
X12900Y8700
X5600Y7650
X15050Y15350
X10050Y1450
X9550Y4350
X18950Y5000
X14750Y7900
X15800Y9950
X12300Y12450
X8200Y12750
X9200Y14750
X12500Y14400
X6000Y15100
X16550Y13850
X19050Y10800
X23050Y10700
X24050Y8100
X18800Y8100
X22050Y1450
X13550Y11350
X15050Y9850
X8050Y2900
X22400Y2700
X17950Y10200
X1050Y11850
X12550Y9750
X12200Y9400
X11850Y9050
X11500Y8700
X11150Y8350
X11500Y8000
X11850Y7650
X12200Y7300
X12550Y6950
X12900Y7300
X13250Y7650
X13600Y8000
X12900Y9400
X13250Y9050
X13600Y8700
X13950Y8350
X14800Y14100
X6800Y10900
X20300Y7350
X16300Y5475
X16850Y11500
X9100Y12000
X8900Y6800
X11000Y11800
X7900Y8800
X14950Y12700
X21650Y3100
X19650Y5500
X21700Y6650
X21300Y10050
X19550Y13100
X18650Y15250
X21700Y6250
X21636Y9365
X22700Y8600
X7750Y3400
X9700Y6000
X6650Y5800
X2500Y6600
X9300Y6300
X6050Y8050
X3300Y6500
X22550Y8100
X10500Y5900
X4300Y10100
X24600Y2350
X2650Y11600
X23300Y2350
X2050Y11600
X22000Y2350
X2650Y10950
X10900Y4850
X2900Y4600
X11300Y4450
X6100Y5900
T02
X8650Y12550
X8050Y11950
X5050Y15650
X4500Y15100
X4500Y14550
X5050Y12600
X4500Y12600
X5050Y12050
X4500Y12050
X4500Y15650
X5050Y14550
X5600Y12050
X5600Y12600
X5050Y15100
X9300Y15450
X9800Y15450
X6000Y13400
X2800Y12600
X2300Y13100
X2300Y12100
X3300Y12100
X3300Y13100
X1850Y6600
X1700Y4600
X1100Y4600
X7250Y4600
X23000Y6500
X25300Y7850
X25300Y7100
X24300Y5850
X21650Y13700
X22400Y13450
X25100Y11700
X23500Y13200
X22000Y11900
X2300Y4600
X23100Y5500
X1050Y6600
X1800Y15100
X23550Y11900
X24500Y4300
X23000Y4300
X23750Y4300
X24500Y3500
X25300Y4300
X25300Y3500
X6800Y12600
X6300Y12100
T03
X12550Y8350
T04
X2500Y2400
X2500Y3400
X3500Y2400
X3500Y3400
X4500Y2400
X4500Y3400
X5500Y2400
X5500Y3400
X6500Y2400
X6500Y3400
T05
X16400Y2300
M30
