M48
;GenerationSoftware,Autodesk,EAGLE,9.5.2*%
;CreationDate,2020-03-22T18:50:51Z*%
FMAT,2
ICI,OFF
METRIC,TZ,000.000
T2C0.254
T1C0.350
%
G90
M71
T1
X13050Y-6400
X13050Y-1300
X1950Y-1950
X1950Y650
X13050Y600
X13050Y-3250
X13050Y6950
X1950Y6500
X1950Y3250
X1950Y11050
X13050Y11400
T2
X0Y0
X0Y11050
X650Y650
X0Y650
X650Y0
X0Y-1950
X650Y11050
X650Y-1950
X650Y6500
X0Y6500
X650Y3250
X0Y3250
X650Y1950
X0Y1950
X650Y2600
X0Y2600
X650Y4550
X0Y4550
X650Y5200
X0Y5200
X650Y5850
X0Y5850
X650Y8450
X0Y8450
X650Y7800
X0Y7800
X650Y9100
X0Y9100
X650Y-3250
X0Y-3250
X0Y-2600
X650Y-2600
X650Y-650
X0Y-650
X650Y-1300
X0Y-1300
X650Y1300
X0Y1300
X5525Y0
M30