G04 EAGLE Gerber X2 export*
%TF.Part,Single*%
%TF.FileFunction,Other,silk top*%
%TF.FilePolarity,Positive*%
%TF.GenerationSoftware,Autodesk,EAGLE,9.3.2*%
%TF.CreationDate,2019-04-11T18:11:52Z*%
G75*
%MOMM*%
%FSLAX34Y34*%
%LPD*%
%INsilk top*%
%AMOC8*
5,1,8,0,0,1.08239X$1,22.5*%
G01*
%ADD10C,0.000000*%
%ADD11C,0.127000*%
%ADD12C,0.150000*%
%ADD13C,0.101600*%


D10*
X0Y-36000D02*
X3000Y-39000D01*
X32500Y-39000D01*
X39000Y-45500D01*
X39000Y-91000D01*
X45500Y-97500D01*
X139750Y-97500D01*
X146250Y-91000D01*
X146250Y130000D01*
X139750Y136500D01*
X81500Y136500D01*
X65500Y120500D01*
X7000Y120500D01*
X0Y113500D01*
X0Y107500D01*
X0Y94000D02*
X0Y75000D01*
X1000Y74000D01*
X4000Y74000D01*
X5000Y73000D01*
X5000Y70000D02*
X4000Y69000D01*
X1000Y69000D01*
X0Y68000D01*
X5000Y70000D02*
X5000Y73000D01*
X0Y68000D02*
X0Y42500D01*
X1000Y41500D01*
X4000Y41500D01*
X5000Y40500D01*
X5000Y37500D02*
X4000Y36500D01*
X1000Y36500D01*
X0Y35500D01*
X5000Y37500D02*
X5000Y40500D01*
X0Y42000D02*
X0Y35500D01*
X0Y16500D02*
X1000Y15500D01*
X4000Y15500D01*
X5000Y14500D01*
X5000Y11500D02*
X4000Y10500D01*
X1000Y10500D01*
X0Y9500D01*
X5000Y11500D02*
X5000Y14500D01*
X0Y-16500D02*
X0Y-36000D01*
X0Y-9500D02*
X0Y9500D01*
X0Y16500D02*
X0Y35500D01*
X0Y-9500D02*
X1000Y-10500D01*
X4000Y-10500D02*
X5000Y-11500D01*
X4000Y-10500D02*
X1000Y-10500D01*
X5000Y-11500D02*
X5000Y-14500D01*
X4000Y-15500D01*
X1000Y-15500D01*
X0Y-16500D01*
X1000Y106500D02*
X0Y107500D01*
X1000Y106500D02*
X4000Y106500D01*
X5000Y105500D01*
X5000Y96000D01*
X4000Y95000D01*
X1000Y95000D01*
X0Y94000D01*
D11*
X108782Y127635D02*
X109925Y127635D01*
X109925Y123825D01*
X107639Y123825D01*
X107562Y123827D01*
X107485Y123833D01*
X107408Y123843D01*
X107332Y123856D01*
X107257Y123874D01*
X107183Y123895D01*
X107110Y123920D01*
X107038Y123949D01*
X106968Y123981D01*
X106899Y124016D01*
X106833Y124056D01*
X106768Y124098D01*
X106706Y124144D01*
X106646Y124193D01*
X106589Y124244D01*
X106534Y124299D01*
X106483Y124356D01*
X106434Y124416D01*
X106388Y124478D01*
X106346Y124543D01*
X106306Y124609D01*
X106271Y124678D01*
X106239Y124748D01*
X106210Y124820D01*
X106185Y124893D01*
X106164Y124967D01*
X106146Y125042D01*
X106133Y125118D01*
X106123Y125195D01*
X106117Y125272D01*
X106115Y125349D01*
X106115Y129159D01*
X106117Y129236D01*
X106123Y129313D01*
X106133Y129390D01*
X106146Y129466D01*
X106164Y129541D01*
X106185Y129615D01*
X106210Y129688D01*
X106239Y129760D01*
X106271Y129830D01*
X106306Y129899D01*
X106346Y129965D01*
X106388Y130030D01*
X106434Y130092D01*
X106483Y130152D01*
X106534Y130209D01*
X106589Y130264D01*
X106646Y130315D01*
X106706Y130364D01*
X106768Y130410D01*
X106833Y130452D01*
X106899Y130492D01*
X106968Y130527D01*
X107038Y130559D01*
X107110Y130588D01*
X107183Y130613D01*
X107257Y130634D01*
X107332Y130652D01*
X107408Y130665D01*
X107485Y130675D01*
X107562Y130681D01*
X107639Y130683D01*
X109925Y130683D01*
X109925Y635D02*
X108782Y635D01*
X109925Y635D02*
X109925Y-3175D01*
X107639Y-3175D01*
X107562Y-3173D01*
X107485Y-3167D01*
X107408Y-3157D01*
X107332Y-3144D01*
X107257Y-3126D01*
X107183Y-3105D01*
X107110Y-3080D01*
X107038Y-3051D01*
X106968Y-3019D01*
X106899Y-2984D01*
X106833Y-2944D01*
X106768Y-2902D01*
X106706Y-2856D01*
X106646Y-2807D01*
X106589Y-2756D01*
X106534Y-2701D01*
X106483Y-2644D01*
X106434Y-2584D01*
X106388Y-2522D01*
X106346Y-2457D01*
X106306Y-2391D01*
X106271Y-2322D01*
X106239Y-2252D01*
X106210Y-2180D01*
X106185Y-2107D01*
X106164Y-2033D01*
X106146Y-1958D01*
X106133Y-1882D01*
X106123Y-1805D01*
X106117Y-1728D01*
X106115Y-1651D01*
X106115Y2159D01*
X106117Y2236D01*
X106123Y2313D01*
X106133Y2390D01*
X106146Y2466D01*
X106164Y2541D01*
X106185Y2615D01*
X106210Y2688D01*
X106239Y2760D01*
X106271Y2830D01*
X106306Y2899D01*
X106346Y2965D01*
X106388Y3030D01*
X106434Y3092D01*
X106483Y3152D01*
X106534Y3209D01*
X106589Y3264D01*
X106646Y3315D01*
X106706Y3364D01*
X106768Y3410D01*
X106833Y3452D01*
X106899Y3492D01*
X106968Y3527D01*
X107038Y3559D01*
X107110Y3588D01*
X107183Y3613D01*
X107257Y3634D01*
X107332Y3652D01*
X107408Y3665D01*
X107485Y3675D01*
X107562Y3681D01*
X107639Y3683D01*
X109925Y3683D01*
X109925Y-50165D02*
X108782Y-50165D01*
X109925Y-50165D02*
X109925Y-53975D01*
X107639Y-53975D01*
X107562Y-53973D01*
X107485Y-53967D01*
X107408Y-53957D01*
X107332Y-53944D01*
X107257Y-53926D01*
X107183Y-53905D01*
X107110Y-53880D01*
X107038Y-53851D01*
X106968Y-53819D01*
X106899Y-53784D01*
X106833Y-53744D01*
X106768Y-53702D01*
X106706Y-53656D01*
X106646Y-53607D01*
X106589Y-53556D01*
X106534Y-53501D01*
X106483Y-53444D01*
X106434Y-53384D01*
X106388Y-53322D01*
X106346Y-53257D01*
X106306Y-53191D01*
X106271Y-53122D01*
X106239Y-53052D01*
X106210Y-52980D01*
X106185Y-52907D01*
X106164Y-52833D01*
X106146Y-52758D01*
X106133Y-52682D01*
X106123Y-52605D01*
X106117Y-52528D01*
X106115Y-52451D01*
X106115Y-48641D01*
X106117Y-48564D01*
X106123Y-48487D01*
X106133Y-48410D01*
X106146Y-48334D01*
X106164Y-48259D01*
X106185Y-48185D01*
X106210Y-48112D01*
X106239Y-48040D01*
X106271Y-47970D01*
X106306Y-47901D01*
X106346Y-47835D01*
X106388Y-47770D01*
X106434Y-47708D01*
X106483Y-47648D01*
X106534Y-47591D01*
X106589Y-47536D01*
X106646Y-47485D01*
X106706Y-47436D01*
X106768Y-47390D01*
X106833Y-47348D01*
X106899Y-47308D01*
X106968Y-47273D01*
X107038Y-47241D01*
X107110Y-47212D01*
X107183Y-47187D01*
X107257Y-47166D01*
X107332Y-47148D01*
X107408Y-47135D01*
X107485Y-47125D01*
X107562Y-47119D01*
X107639Y-47117D01*
X109925Y-47117D01*
X107131Y58811D02*
X113989Y58811D01*
X107131Y58811D02*
X107131Y60716D01*
X107133Y60801D01*
X107139Y60887D01*
X107148Y60972D01*
X107162Y61056D01*
X107179Y61140D01*
X107200Y61223D01*
X107224Y61305D01*
X107252Y61385D01*
X107284Y61465D01*
X107320Y61543D01*
X107358Y61619D01*
X107401Y61693D01*
X107446Y61765D01*
X107495Y61836D01*
X107547Y61904D01*
X107601Y61969D01*
X107659Y62032D01*
X107720Y62093D01*
X107783Y62151D01*
X107848Y62205D01*
X107916Y62257D01*
X107987Y62306D01*
X108059Y62351D01*
X108133Y62394D01*
X108209Y62432D01*
X108287Y62468D01*
X108367Y62500D01*
X108447Y62528D01*
X108529Y62552D01*
X108612Y62573D01*
X108696Y62590D01*
X108780Y62604D01*
X108865Y62613D01*
X108951Y62619D01*
X109036Y62621D01*
X112084Y62621D01*
X112169Y62619D01*
X112255Y62613D01*
X112340Y62604D01*
X112424Y62590D01*
X112508Y62573D01*
X112591Y62552D01*
X112673Y62528D01*
X112753Y62500D01*
X112833Y62468D01*
X112911Y62432D01*
X112987Y62394D01*
X113061Y62351D01*
X113133Y62306D01*
X113204Y62257D01*
X113272Y62205D01*
X113337Y62151D01*
X113400Y62093D01*
X113461Y62032D01*
X113519Y61969D01*
X113573Y61904D01*
X113625Y61836D01*
X113674Y61765D01*
X113719Y61693D01*
X113762Y61619D01*
X113800Y61543D01*
X113836Y61465D01*
X113868Y61385D01*
X113896Y61305D01*
X113920Y61223D01*
X113941Y61140D01*
X113958Y61056D01*
X113972Y60972D01*
X113981Y60887D01*
X113987Y60801D01*
X113989Y60716D01*
X113989Y58811D01*
X110179Y66370D02*
X110179Y68656D01*
X110181Y68733D01*
X110187Y68810D01*
X110197Y68887D01*
X110210Y68963D01*
X110228Y69038D01*
X110249Y69112D01*
X110274Y69185D01*
X110303Y69257D01*
X110335Y69327D01*
X110370Y69396D01*
X110410Y69462D01*
X110452Y69527D01*
X110498Y69589D01*
X110547Y69649D01*
X110598Y69706D01*
X110653Y69761D01*
X110710Y69812D01*
X110770Y69861D01*
X110832Y69907D01*
X110897Y69949D01*
X110963Y69989D01*
X111032Y70024D01*
X111102Y70056D01*
X111174Y70085D01*
X111247Y70110D01*
X111321Y70131D01*
X111396Y70149D01*
X111472Y70162D01*
X111549Y70172D01*
X111626Y70178D01*
X111703Y70180D01*
X112084Y70180D01*
X112169Y70178D01*
X112255Y70172D01*
X112340Y70163D01*
X112424Y70149D01*
X112508Y70132D01*
X112591Y70111D01*
X112673Y70087D01*
X112753Y70059D01*
X112833Y70027D01*
X112911Y69991D01*
X112987Y69953D01*
X113061Y69910D01*
X113133Y69865D01*
X113204Y69816D01*
X113272Y69764D01*
X113337Y69710D01*
X113400Y69652D01*
X113461Y69591D01*
X113519Y69528D01*
X113573Y69463D01*
X113625Y69395D01*
X113674Y69324D01*
X113719Y69252D01*
X113762Y69178D01*
X113800Y69102D01*
X113836Y69024D01*
X113868Y68944D01*
X113896Y68864D01*
X113920Y68782D01*
X113941Y68699D01*
X113958Y68615D01*
X113972Y68531D01*
X113981Y68446D01*
X113987Y68360D01*
X113989Y68275D01*
X113987Y68190D01*
X113981Y68104D01*
X113972Y68019D01*
X113958Y67935D01*
X113941Y67851D01*
X113920Y67768D01*
X113896Y67686D01*
X113868Y67606D01*
X113836Y67526D01*
X113800Y67448D01*
X113762Y67372D01*
X113719Y67298D01*
X113674Y67226D01*
X113625Y67155D01*
X113573Y67087D01*
X113519Y67022D01*
X113461Y66959D01*
X113400Y66898D01*
X113337Y66840D01*
X113272Y66786D01*
X113204Y66734D01*
X113133Y66685D01*
X113061Y66640D01*
X112987Y66597D01*
X112911Y66559D01*
X112833Y66523D01*
X112753Y66491D01*
X112673Y66463D01*
X112591Y66439D01*
X112508Y66418D01*
X112424Y66401D01*
X112340Y66387D01*
X112255Y66378D01*
X112169Y66372D01*
X112084Y66370D01*
X110179Y66370D01*
X110070Y66372D01*
X109962Y66378D01*
X109853Y66387D01*
X109745Y66401D01*
X109638Y66418D01*
X109531Y66440D01*
X109425Y66465D01*
X109320Y66493D01*
X109216Y66526D01*
X109114Y66562D01*
X109013Y66602D01*
X108913Y66645D01*
X108815Y66692D01*
X108718Y66743D01*
X108624Y66797D01*
X108531Y66854D01*
X108441Y66914D01*
X108352Y66978D01*
X108266Y67045D01*
X108183Y67114D01*
X108102Y67187D01*
X108024Y67263D01*
X107948Y67341D01*
X107875Y67422D01*
X107806Y67505D01*
X107739Y67591D01*
X107675Y67680D01*
X107615Y67770D01*
X107558Y67863D01*
X107504Y67957D01*
X107453Y68054D01*
X107406Y68152D01*
X107363Y68252D01*
X107323Y68353D01*
X107287Y68455D01*
X107254Y68559D01*
X107226Y68664D01*
X107201Y68770D01*
X107179Y68877D01*
X107162Y68984D01*
X107148Y69092D01*
X107139Y69201D01*
X107133Y69309D01*
X107131Y69418D01*
X111322Y73792D02*
X111322Y78364D01*
X113989Y82220D02*
X107131Y82220D01*
X107131Y84125D01*
X107133Y84210D01*
X107139Y84296D01*
X107148Y84381D01*
X107162Y84465D01*
X107179Y84549D01*
X107200Y84632D01*
X107224Y84714D01*
X107252Y84794D01*
X107284Y84874D01*
X107320Y84952D01*
X107358Y85028D01*
X107401Y85102D01*
X107446Y85174D01*
X107495Y85245D01*
X107547Y85313D01*
X107601Y85378D01*
X107659Y85441D01*
X107720Y85502D01*
X107783Y85560D01*
X107848Y85614D01*
X107916Y85666D01*
X107987Y85715D01*
X108059Y85760D01*
X108133Y85803D01*
X108209Y85841D01*
X108287Y85877D01*
X108367Y85909D01*
X108447Y85937D01*
X108529Y85961D01*
X108612Y85982D01*
X108696Y85999D01*
X108780Y86013D01*
X108865Y86022D01*
X108951Y86028D01*
X109036Y86030D01*
X112084Y86030D01*
X112169Y86028D01*
X112255Y86022D01*
X112340Y86013D01*
X112424Y85999D01*
X112508Y85982D01*
X112591Y85961D01*
X112673Y85937D01*
X112753Y85909D01*
X112833Y85877D01*
X112911Y85841D01*
X112987Y85803D01*
X113061Y85760D01*
X113133Y85715D01*
X113204Y85666D01*
X113272Y85614D01*
X113337Y85560D01*
X113400Y85502D01*
X113461Y85441D01*
X113519Y85378D01*
X113573Y85313D01*
X113625Y85245D01*
X113674Y85174D01*
X113719Y85102D01*
X113762Y85028D01*
X113800Y84952D01*
X113836Y84874D01*
X113868Y84794D01*
X113896Y84714D01*
X113920Y84632D01*
X113941Y84549D01*
X113958Y84465D01*
X113972Y84381D01*
X113981Y84296D01*
X113987Y84210D01*
X113989Y84125D01*
X113989Y82220D01*
X110560Y89778D02*
X110418Y89780D01*
X110275Y89785D01*
X110133Y89794D01*
X109991Y89807D01*
X109850Y89823D01*
X109709Y89842D01*
X109568Y89866D01*
X109428Y89892D01*
X109289Y89923D01*
X109151Y89957D01*
X109013Y89994D01*
X108877Y90034D01*
X108741Y90079D01*
X108607Y90126D01*
X108474Y90177D01*
X108342Y90231D01*
X108212Y90289D01*
X108083Y90350D01*
X108084Y90350D02*
X108015Y90376D01*
X107949Y90405D01*
X107883Y90437D01*
X107820Y90472D01*
X107758Y90511D01*
X107698Y90553D01*
X107641Y90598D01*
X107586Y90646D01*
X107534Y90697D01*
X107484Y90750D01*
X107438Y90806D01*
X107394Y90864D01*
X107353Y90925D01*
X107315Y90987D01*
X107281Y91051D01*
X107250Y91117D01*
X107222Y91185D01*
X107198Y91254D01*
X107178Y91324D01*
X107161Y91395D01*
X107148Y91466D01*
X107139Y91538D01*
X107133Y91611D01*
X107131Y91684D01*
X107133Y91757D01*
X107139Y91830D01*
X107148Y91902D01*
X107161Y91973D01*
X107178Y92044D01*
X107198Y92114D01*
X107222Y92183D01*
X107250Y92251D01*
X107281Y92317D01*
X107315Y92381D01*
X107353Y92443D01*
X107394Y92504D01*
X107438Y92562D01*
X107484Y92618D01*
X107534Y92671D01*
X107586Y92722D01*
X107641Y92770D01*
X107698Y92815D01*
X107758Y92857D01*
X107820Y92896D01*
X107883Y92931D01*
X107949Y92963D01*
X108015Y92992D01*
X108084Y93018D01*
X108083Y93017D02*
X108212Y93078D01*
X108342Y93136D01*
X108474Y93190D01*
X108607Y93241D01*
X108741Y93288D01*
X108877Y93333D01*
X109013Y93373D01*
X109151Y93410D01*
X109289Y93444D01*
X109428Y93475D01*
X109568Y93501D01*
X109709Y93525D01*
X109850Y93544D01*
X109991Y93560D01*
X110133Y93573D01*
X110275Y93582D01*
X110418Y93587D01*
X110560Y93589D01*
X110560Y89778D02*
X110702Y89780D01*
X110845Y89785D01*
X110987Y89794D01*
X111129Y89807D01*
X111270Y89823D01*
X111411Y89842D01*
X111552Y89866D01*
X111692Y89892D01*
X111831Y89923D01*
X111969Y89957D01*
X112107Y89994D01*
X112243Y90034D01*
X112379Y90079D01*
X112513Y90126D01*
X112646Y90177D01*
X112778Y90231D01*
X112908Y90289D01*
X113037Y90350D01*
X113036Y90350D02*
X113105Y90376D01*
X113171Y90405D01*
X113237Y90437D01*
X113300Y90472D01*
X113362Y90511D01*
X113422Y90553D01*
X113479Y90598D01*
X113534Y90646D01*
X113586Y90697D01*
X113636Y90750D01*
X113682Y90806D01*
X113726Y90864D01*
X113767Y90925D01*
X113805Y90987D01*
X113839Y91051D01*
X113870Y91117D01*
X113898Y91185D01*
X113922Y91254D01*
X113942Y91324D01*
X113959Y91395D01*
X113972Y91466D01*
X113981Y91538D01*
X113987Y91611D01*
X113989Y91684D01*
X113037Y93017D02*
X112908Y93078D01*
X112778Y93136D01*
X112646Y93190D01*
X112513Y93241D01*
X112379Y93288D01*
X112243Y93333D01*
X112107Y93373D01*
X111969Y93410D01*
X111831Y93444D01*
X111692Y93475D01*
X111552Y93501D01*
X111411Y93525D01*
X111270Y93544D01*
X111129Y93560D01*
X110987Y93573D01*
X110845Y93582D01*
X110702Y93587D01*
X110560Y93589D01*
X113036Y93018D02*
X113105Y92992D01*
X113171Y92963D01*
X113237Y92931D01*
X113300Y92896D01*
X113362Y92857D01*
X113422Y92815D01*
X113479Y92770D01*
X113534Y92722D01*
X113586Y92671D01*
X113636Y92618D01*
X113682Y92562D01*
X113726Y92504D01*
X113767Y92443D01*
X113805Y92381D01*
X113839Y92317D01*
X113870Y92251D01*
X113898Y92183D01*
X113922Y92114D01*
X113942Y92044D01*
X113959Y91973D01*
X113972Y91902D01*
X113981Y91830D01*
X113987Y91757D01*
X113989Y91684D01*
X112465Y90160D02*
X108655Y93208D01*
X106115Y29083D02*
X106115Y22225D01*
X106115Y29083D02*
X108020Y29083D01*
X108105Y29081D01*
X108191Y29075D01*
X108276Y29066D01*
X108360Y29052D01*
X108444Y29035D01*
X108527Y29014D01*
X108609Y28990D01*
X108689Y28962D01*
X108769Y28930D01*
X108847Y28894D01*
X108923Y28856D01*
X108997Y28813D01*
X109069Y28768D01*
X109140Y28719D01*
X109208Y28667D01*
X109273Y28613D01*
X109336Y28555D01*
X109397Y28494D01*
X109455Y28431D01*
X109509Y28366D01*
X109561Y28298D01*
X109610Y28227D01*
X109655Y28155D01*
X109698Y28081D01*
X109736Y28005D01*
X109772Y27927D01*
X109804Y27847D01*
X109832Y27767D01*
X109856Y27685D01*
X109877Y27602D01*
X109894Y27518D01*
X109908Y27434D01*
X109917Y27349D01*
X109923Y27263D01*
X109925Y27178D01*
X109925Y24130D01*
X109923Y24045D01*
X109917Y23959D01*
X109908Y23874D01*
X109894Y23790D01*
X109877Y23706D01*
X109856Y23623D01*
X109832Y23541D01*
X109804Y23461D01*
X109772Y23381D01*
X109736Y23303D01*
X109698Y23227D01*
X109655Y23153D01*
X109610Y23081D01*
X109561Y23010D01*
X109509Y22942D01*
X109455Y22877D01*
X109397Y22814D01*
X109336Y22753D01*
X109273Y22695D01*
X109208Y22641D01*
X109140Y22589D01*
X109069Y22540D01*
X108997Y22495D01*
X108923Y22452D01*
X108847Y22414D01*
X108769Y22378D01*
X108689Y22346D01*
X108609Y22318D01*
X108527Y22294D01*
X108444Y22273D01*
X108360Y22256D01*
X108276Y22242D01*
X108191Y22233D01*
X108105Y22227D01*
X108020Y22225D01*
X106115Y22225D01*
X115716Y22225D02*
X115793Y22227D01*
X115870Y22233D01*
X115947Y22243D01*
X116023Y22256D01*
X116098Y22274D01*
X116172Y22295D01*
X116245Y22320D01*
X116317Y22349D01*
X116387Y22381D01*
X116456Y22416D01*
X116522Y22456D01*
X116587Y22498D01*
X116649Y22544D01*
X116709Y22593D01*
X116766Y22644D01*
X116821Y22699D01*
X116872Y22756D01*
X116921Y22816D01*
X116967Y22878D01*
X117009Y22943D01*
X117049Y23009D01*
X117084Y23078D01*
X117116Y23148D01*
X117145Y23220D01*
X117170Y23293D01*
X117191Y23367D01*
X117209Y23442D01*
X117222Y23518D01*
X117232Y23595D01*
X117238Y23672D01*
X117240Y23749D01*
X115716Y22225D02*
X115606Y22227D01*
X115495Y22233D01*
X115385Y22242D01*
X115275Y22255D01*
X115166Y22272D01*
X115058Y22293D01*
X114950Y22317D01*
X114843Y22346D01*
X114737Y22377D01*
X114633Y22413D01*
X114529Y22452D01*
X114427Y22494D01*
X114327Y22540D01*
X114228Y22590D01*
X114131Y22642D01*
X114035Y22699D01*
X113942Y22758D01*
X113851Y22820D01*
X113762Y22886D01*
X113675Y22954D01*
X113591Y23026D01*
X113509Y23100D01*
X113430Y23177D01*
X113621Y27559D02*
X113623Y27636D01*
X113629Y27713D01*
X113639Y27790D01*
X113652Y27866D01*
X113670Y27941D01*
X113691Y28015D01*
X113716Y28088D01*
X113745Y28160D01*
X113777Y28230D01*
X113812Y28299D01*
X113852Y28365D01*
X113894Y28430D01*
X113940Y28492D01*
X113989Y28552D01*
X114040Y28609D01*
X114095Y28664D01*
X114152Y28715D01*
X114212Y28764D01*
X114274Y28810D01*
X114339Y28852D01*
X114405Y28892D01*
X114474Y28927D01*
X114544Y28959D01*
X114616Y28988D01*
X114689Y29013D01*
X114763Y29034D01*
X114838Y29052D01*
X114914Y29065D01*
X114991Y29075D01*
X115068Y29081D01*
X115145Y29083D01*
X115145Y29084D02*
X115247Y29082D01*
X115349Y29077D01*
X115451Y29068D01*
X115552Y29055D01*
X115653Y29038D01*
X115753Y29019D01*
X115853Y28995D01*
X115951Y28968D01*
X116049Y28937D01*
X116145Y28903D01*
X116240Y28866D01*
X116334Y28825D01*
X116426Y28781D01*
X116516Y28733D01*
X116605Y28683D01*
X116692Y28629D01*
X116777Y28572D01*
X116860Y28512D01*
X114383Y26225D02*
X114318Y26266D01*
X114255Y26309D01*
X114195Y26356D01*
X114136Y26406D01*
X114081Y26458D01*
X114028Y26513D01*
X113977Y26571D01*
X113930Y26631D01*
X113886Y26694D01*
X113844Y26758D01*
X113806Y26824D01*
X113772Y26893D01*
X113741Y26963D01*
X113713Y27034D01*
X113689Y27106D01*
X113668Y27180D01*
X113651Y27255D01*
X113638Y27330D01*
X113629Y27406D01*
X113623Y27482D01*
X113621Y27559D01*
X116478Y25083D02*
X116543Y25042D01*
X116606Y24999D01*
X116666Y24952D01*
X116725Y24902D01*
X116780Y24850D01*
X116833Y24795D01*
X116884Y24737D01*
X116931Y24677D01*
X116975Y24614D01*
X117017Y24550D01*
X117055Y24484D01*
X117089Y24415D01*
X117120Y24345D01*
X117148Y24274D01*
X117172Y24202D01*
X117193Y24128D01*
X117210Y24053D01*
X117223Y23978D01*
X117232Y23902D01*
X117238Y23826D01*
X117240Y23749D01*
X116478Y25083D02*
X114383Y26226D01*
X106115Y16383D02*
X108401Y9525D01*
X110687Y16383D01*
X115304Y9525D02*
X116828Y9525D01*
X115304Y9525D02*
X115227Y9527D01*
X115150Y9533D01*
X115073Y9543D01*
X114997Y9556D01*
X114922Y9574D01*
X114848Y9595D01*
X114775Y9620D01*
X114703Y9649D01*
X114633Y9681D01*
X114564Y9716D01*
X114498Y9756D01*
X114433Y9798D01*
X114371Y9844D01*
X114311Y9893D01*
X114254Y9944D01*
X114199Y9999D01*
X114148Y10056D01*
X114099Y10116D01*
X114053Y10178D01*
X114011Y10243D01*
X113971Y10309D01*
X113936Y10378D01*
X113904Y10448D01*
X113875Y10520D01*
X113850Y10593D01*
X113829Y10667D01*
X113811Y10742D01*
X113798Y10818D01*
X113788Y10895D01*
X113782Y10972D01*
X113780Y11049D01*
X113780Y14859D01*
X113782Y14936D01*
X113788Y15013D01*
X113798Y15090D01*
X113811Y15166D01*
X113829Y15241D01*
X113850Y15315D01*
X113875Y15388D01*
X113904Y15460D01*
X113936Y15530D01*
X113971Y15599D01*
X114011Y15665D01*
X114053Y15730D01*
X114099Y15792D01*
X114148Y15852D01*
X114199Y15909D01*
X114254Y15964D01*
X114311Y16015D01*
X114371Y16064D01*
X114433Y16110D01*
X114498Y16152D01*
X114564Y16192D01*
X114633Y16227D01*
X114703Y16259D01*
X114775Y16288D01*
X114848Y16313D01*
X114922Y16334D01*
X114997Y16352D01*
X115073Y16365D01*
X115150Y16375D01*
X115227Y16381D01*
X115304Y16383D01*
X116828Y16383D01*
X108401Y-9017D02*
X106115Y-15875D01*
X110687Y-15875D02*
X108401Y-9017D01*
X110116Y-14161D02*
X106687Y-14161D01*
X115907Y-9017D02*
X115989Y-9019D01*
X116070Y-9025D01*
X116151Y-9034D01*
X116232Y-9048D01*
X116311Y-9065D01*
X116390Y-9086D01*
X116468Y-9111D01*
X116544Y-9140D01*
X116619Y-9172D01*
X116693Y-9208D01*
X116765Y-9247D01*
X116834Y-9289D01*
X116902Y-9335D01*
X116967Y-9384D01*
X117030Y-9436D01*
X117090Y-9491D01*
X117148Y-9549D01*
X117203Y-9609D01*
X117255Y-9672D01*
X117304Y-9737D01*
X117350Y-9805D01*
X117392Y-9875D01*
X117431Y-9946D01*
X117467Y-10020D01*
X117499Y-10095D01*
X117528Y-10171D01*
X117553Y-10249D01*
X117574Y-10328D01*
X117591Y-10407D01*
X117605Y-10488D01*
X117614Y-10569D01*
X117620Y-10650D01*
X117622Y-10732D01*
X115907Y-9017D02*
X115815Y-9019D01*
X115723Y-9025D01*
X115631Y-9034D01*
X115539Y-9048D01*
X115449Y-9065D01*
X115359Y-9086D01*
X115270Y-9111D01*
X115182Y-9140D01*
X115095Y-9172D01*
X115010Y-9208D01*
X114927Y-9247D01*
X114845Y-9290D01*
X114765Y-9336D01*
X114687Y-9386D01*
X114611Y-9438D01*
X114538Y-9494D01*
X114467Y-9553D01*
X114398Y-9615D01*
X114332Y-9680D01*
X114269Y-9747D01*
X114209Y-9817D01*
X114151Y-9889D01*
X114097Y-9964D01*
X114046Y-10041D01*
X113998Y-10120D01*
X113954Y-10201D01*
X113913Y-10284D01*
X113875Y-10368D01*
X113841Y-10454D01*
X113811Y-10541D01*
X117050Y-12066D02*
X117109Y-12007D01*
X117165Y-11946D01*
X117218Y-11883D01*
X117269Y-11817D01*
X117316Y-11749D01*
X117360Y-11679D01*
X117401Y-11607D01*
X117439Y-11533D01*
X117473Y-11458D01*
X117504Y-11381D01*
X117531Y-11303D01*
X117555Y-11223D01*
X117576Y-11143D01*
X117592Y-11062D01*
X117605Y-10980D01*
X117615Y-10898D01*
X117620Y-10815D01*
X117622Y-10732D01*
X117050Y-12065D02*
X113811Y-15875D01*
X117621Y-15875D01*
X108401Y-21717D02*
X106115Y-28575D01*
X110687Y-28575D02*
X108401Y-21717D01*
X110116Y-26861D02*
X106687Y-26861D01*
X113811Y-23241D02*
X115716Y-21717D01*
X115716Y-28575D01*
X113811Y-28575D02*
X117621Y-28575D01*
X108401Y-34417D02*
X106115Y-41275D01*
X110687Y-41275D02*
X108401Y-34417D01*
X110116Y-39561D02*
X106687Y-39561D01*
X113811Y-37846D02*
X113813Y-37704D01*
X113818Y-37561D01*
X113827Y-37419D01*
X113840Y-37277D01*
X113856Y-37136D01*
X113875Y-36995D01*
X113899Y-36854D01*
X113925Y-36714D01*
X113956Y-36575D01*
X113990Y-36437D01*
X114027Y-36299D01*
X114067Y-36163D01*
X114112Y-36027D01*
X114159Y-35893D01*
X114210Y-35760D01*
X114264Y-35628D01*
X114322Y-35498D01*
X114383Y-35369D01*
X114382Y-35370D02*
X114408Y-35301D01*
X114437Y-35235D01*
X114469Y-35169D01*
X114504Y-35106D01*
X114543Y-35044D01*
X114585Y-34984D01*
X114630Y-34927D01*
X114678Y-34872D01*
X114729Y-34820D01*
X114782Y-34770D01*
X114838Y-34724D01*
X114896Y-34680D01*
X114957Y-34639D01*
X115019Y-34601D01*
X115083Y-34567D01*
X115149Y-34536D01*
X115217Y-34508D01*
X115286Y-34484D01*
X115356Y-34464D01*
X115427Y-34447D01*
X115498Y-34434D01*
X115570Y-34425D01*
X115643Y-34419D01*
X115716Y-34417D01*
X115789Y-34419D01*
X115862Y-34425D01*
X115934Y-34434D01*
X116005Y-34447D01*
X116076Y-34464D01*
X116146Y-34484D01*
X116215Y-34508D01*
X116283Y-34536D01*
X116349Y-34567D01*
X116413Y-34601D01*
X116475Y-34639D01*
X116536Y-34680D01*
X116594Y-34724D01*
X116650Y-34770D01*
X116703Y-34820D01*
X116754Y-34872D01*
X116802Y-34927D01*
X116847Y-34984D01*
X116889Y-35044D01*
X116928Y-35106D01*
X116963Y-35169D01*
X116995Y-35235D01*
X117024Y-35301D01*
X117050Y-35370D01*
X117050Y-35369D02*
X117111Y-35498D01*
X117169Y-35628D01*
X117223Y-35760D01*
X117274Y-35893D01*
X117321Y-36027D01*
X117366Y-36163D01*
X117406Y-36299D01*
X117443Y-36437D01*
X117477Y-36575D01*
X117508Y-36714D01*
X117534Y-36854D01*
X117558Y-36995D01*
X117577Y-37136D01*
X117593Y-37277D01*
X117606Y-37419D01*
X117615Y-37561D01*
X117620Y-37704D01*
X117622Y-37846D01*
X113811Y-37846D02*
X113813Y-37988D01*
X113818Y-38131D01*
X113827Y-38273D01*
X113840Y-38415D01*
X113856Y-38556D01*
X113875Y-38697D01*
X113899Y-38838D01*
X113925Y-38978D01*
X113956Y-39117D01*
X113990Y-39255D01*
X114027Y-39393D01*
X114067Y-39529D01*
X114112Y-39665D01*
X114159Y-39799D01*
X114210Y-39932D01*
X114264Y-40064D01*
X114322Y-40194D01*
X114383Y-40323D01*
X114382Y-40322D02*
X114408Y-40391D01*
X114437Y-40457D01*
X114469Y-40523D01*
X114504Y-40586D01*
X114543Y-40648D01*
X114585Y-40708D01*
X114630Y-40765D01*
X114678Y-40820D01*
X114729Y-40872D01*
X114782Y-40922D01*
X114838Y-40968D01*
X114896Y-41012D01*
X114957Y-41053D01*
X115019Y-41091D01*
X115083Y-41125D01*
X115149Y-41156D01*
X115217Y-41184D01*
X115286Y-41208D01*
X115356Y-41228D01*
X115427Y-41245D01*
X115498Y-41258D01*
X115570Y-41267D01*
X115643Y-41273D01*
X115716Y-41275D01*
X117050Y-40323D02*
X117111Y-40194D01*
X117169Y-40064D01*
X117223Y-39932D01*
X117274Y-39799D01*
X117321Y-39665D01*
X117366Y-39529D01*
X117406Y-39393D01*
X117443Y-39255D01*
X117477Y-39117D01*
X117508Y-38978D01*
X117534Y-38838D01*
X117558Y-38697D01*
X117577Y-38556D01*
X117593Y-38415D01*
X117606Y-38273D01*
X117615Y-38131D01*
X117620Y-37988D01*
X117622Y-37846D01*
X117050Y-40322D02*
X117024Y-40391D01*
X116995Y-40457D01*
X116963Y-40523D01*
X116928Y-40586D01*
X116889Y-40648D01*
X116847Y-40708D01*
X116802Y-40765D01*
X116754Y-40820D01*
X116703Y-40872D01*
X116650Y-40922D01*
X116594Y-40968D01*
X116536Y-41012D01*
X116475Y-41053D01*
X116413Y-41091D01*
X116349Y-41125D01*
X116283Y-41156D01*
X116215Y-41184D01*
X116146Y-41208D01*
X116076Y-41228D01*
X116005Y-41245D01*
X115934Y-41258D01*
X115862Y-41267D01*
X115789Y-41273D01*
X115716Y-41275D01*
X114192Y-39751D02*
X117240Y-35941D01*
X109163Y-66675D02*
X107639Y-66675D01*
X107562Y-66673D01*
X107485Y-66667D01*
X107408Y-66657D01*
X107332Y-66644D01*
X107257Y-66626D01*
X107183Y-66605D01*
X107110Y-66580D01*
X107038Y-66551D01*
X106968Y-66519D01*
X106899Y-66484D01*
X106833Y-66444D01*
X106768Y-66402D01*
X106706Y-66356D01*
X106646Y-66307D01*
X106589Y-66256D01*
X106534Y-66201D01*
X106483Y-66144D01*
X106434Y-66084D01*
X106388Y-66022D01*
X106346Y-65957D01*
X106306Y-65891D01*
X106271Y-65822D01*
X106239Y-65752D01*
X106210Y-65680D01*
X106185Y-65607D01*
X106164Y-65533D01*
X106146Y-65458D01*
X106133Y-65382D01*
X106123Y-65305D01*
X106117Y-65228D01*
X106115Y-65151D01*
X106115Y-61341D01*
X106117Y-61264D01*
X106123Y-61187D01*
X106133Y-61110D01*
X106146Y-61034D01*
X106164Y-60959D01*
X106185Y-60885D01*
X106210Y-60812D01*
X106239Y-60740D01*
X106271Y-60670D01*
X106306Y-60601D01*
X106346Y-60535D01*
X106388Y-60470D01*
X106434Y-60408D01*
X106483Y-60348D01*
X106534Y-60291D01*
X106589Y-60236D01*
X106646Y-60185D01*
X106706Y-60136D01*
X106768Y-60090D01*
X106833Y-60048D01*
X106899Y-60008D01*
X106968Y-59973D01*
X107038Y-59941D01*
X107110Y-59912D01*
X107183Y-59887D01*
X107257Y-59866D01*
X107332Y-59848D01*
X107408Y-59835D01*
X107485Y-59825D01*
X107562Y-59819D01*
X107639Y-59817D01*
X109163Y-59817D01*
X111454Y-62103D02*
X113740Y-62103D01*
X112216Y-59817D02*
X112216Y-65532D01*
X112218Y-65598D01*
X112224Y-65665D01*
X112233Y-65730D01*
X112247Y-65796D01*
X112264Y-65860D01*
X112285Y-65923D01*
X112309Y-65985D01*
X112338Y-66045D01*
X112369Y-66104D01*
X112404Y-66160D01*
X112442Y-66215D01*
X112483Y-66267D01*
X112528Y-66316D01*
X112575Y-66363D01*
X112624Y-66408D01*
X112676Y-66449D01*
X112731Y-66487D01*
X112788Y-66522D01*
X112846Y-66553D01*
X112906Y-66582D01*
X112968Y-66606D01*
X113031Y-66627D01*
X113095Y-66644D01*
X113161Y-66658D01*
X113226Y-66667D01*
X113293Y-66673D01*
X113359Y-66675D01*
X113740Y-66675D01*
X117075Y-66675D02*
X117075Y-62103D01*
X119361Y-62103D01*
X119361Y-62865D01*
X106115Y-72517D02*
X106115Y-79375D01*
X106115Y-72517D02*
X108020Y-72517D01*
X108105Y-72519D01*
X108191Y-72525D01*
X108276Y-72534D01*
X108360Y-72548D01*
X108444Y-72565D01*
X108527Y-72586D01*
X108609Y-72610D01*
X108689Y-72638D01*
X108769Y-72670D01*
X108847Y-72706D01*
X108923Y-72744D01*
X108997Y-72787D01*
X109069Y-72832D01*
X109140Y-72881D01*
X109208Y-72933D01*
X109273Y-72987D01*
X109336Y-73045D01*
X109397Y-73106D01*
X109455Y-73169D01*
X109509Y-73234D01*
X109561Y-73302D01*
X109610Y-73373D01*
X109655Y-73445D01*
X109698Y-73519D01*
X109736Y-73595D01*
X109772Y-73673D01*
X109804Y-73753D01*
X109832Y-73833D01*
X109856Y-73915D01*
X109877Y-73998D01*
X109894Y-74082D01*
X109908Y-74166D01*
X109917Y-74251D01*
X109923Y-74337D01*
X109925Y-74422D01*
X109923Y-74507D01*
X109917Y-74593D01*
X109908Y-74678D01*
X109894Y-74762D01*
X109877Y-74846D01*
X109856Y-74929D01*
X109832Y-75011D01*
X109804Y-75091D01*
X109772Y-75171D01*
X109736Y-75249D01*
X109698Y-75325D01*
X109655Y-75399D01*
X109610Y-75471D01*
X109561Y-75542D01*
X109509Y-75610D01*
X109455Y-75675D01*
X109397Y-75738D01*
X109336Y-75799D01*
X109273Y-75857D01*
X109208Y-75911D01*
X109140Y-75963D01*
X109069Y-76012D01*
X108997Y-76057D01*
X108923Y-76100D01*
X108847Y-76138D01*
X108769Y-76174D01*
X108689Y-76206D01*
X108609Y-76234D01*
X108527Y-76258D01*
X108444Y-76279D01*
X108360Y-76296D01*
X108276Y-76310D01*
X108191Y-76319D01*
X108105Y-76325D01*
X108020Y-76327D01*
X106115Y-76327D01*
X108401Y-76327D02*
X109925Y-79375D01*
X113825Y-76708D02*
X115730Y-77470D01*
X113825Y-76708D02*
X113768Y-76683D01*
X113713Y-76655D01*
X113659Y-76623D01*
X113608Y-76588D01*
X113559Y-76549D01*
X113512Y-76508D01*
X113468Y-76464D01*
X113427Y-76417D01*
X113389Y-76367D01*
X113355Y-76315D01*
X113323Y-76262D01*
X113295Y-76206D01*
X113271Y-76149D01*
X113250Y-76090D01*
X113233Y-76030D01*
X113220Y-75969D01*
X113211Y-75907D01*
X113205Y-75845D01*
X113204Y-75783D01*
X113207Y-75721D01*
X113213Y-75659D01*
X113223Y-75597D01*
X113237Y-75537D01*
X113255Y-75477D01*
X113277Y-75418D01*
X113302Y-75362D01*
X113331Y-75306D01*
X113363Y-75253D01*
X113399Y-75202D01*
X113438Y-75153D01*
X113479Y-75107D01*
X113524Y-75063D01*
X113571Y-75022D01*
X113621Y-74985D01*
X113673Y-74950D01*
X113727Y-74919D01*
X113783Y-74892D01*
X113840Y-74868D01*
X113899Y-74847D01*
X113959Y-74831D01*
X114020Y-74818D01*
X114082Y-74809D01*
X114144Y-74804D01*
X114206Y-74803D01*
X114207Y-74803D02*
X114333Y-74807D01*
X114459Y-74814D01*
X114585Y-74825D01*
X114711Y-74840D01*
X114836Y-74858D01*
X114960Y-74880D01*
X115084Y-74906D01*
X115207Y-74935D01*
X115329Y-74968D01*
X115450Y-75004D01*
X115569Y-75044D01*
X115688Y-75088D01*
X115805Y-75134D01*
X115921Y-75184D01*
X115731Y-77470D02*
X115788Y-77495D01*
X115843Y-77523D01*
X115897Y-77555D01*
X115948Y-77590D01*
X115997Y-77629D01*
X116044Y-77670D01*
X116088Y-77714D01*
X116129Y-77761D01*
X116167Y-77811D01*
X116201Y-77863D01*
X116233Y-77916D01*
X116261Y-77972D01*
X116285Y-78029D01*
X116306Y-78088D01*
X116323Y-78148D01*
X116336Y-78209D01*
X116345Y-78271D01*
X116351Y-78333D01*
X116352Y-78395D01*
X116349Y-78457D01*
X116343Y-78519D01*
X116333Y-78581D01*
X116319Y-78641D01*
X116301Y-78701D01*
X116279Y-78760D01*
X116254Y-78816D01*
X116225Y-78872D01*
X116193Y-78925D01*
X116157Y-78976D01*
X116118Y-79025D01*
X116077Y-79071D01*
X116032Y-79115D01*
X115985Y-79156D01*
X115935Y-79193D01*
X115883Y-79228D01*
X115829Y-79259D01*
X115773Y-79286D01*
X115716Y-79310D01*
X115657Y-79331D01*
X115597Y-79347D01*
X115536Y-79360D01*
X115474Y-79369D01*
X115412Y-79374D01*
X115350Y-79375D01*
X115197Y-79371D01*
X115044Y-79364D01*
X114892Y-79353D01*
X114740Y-79338D01*
X114588Y-79319D01*
X114437Y-79297D01*
X114286Y-79272D01*
X114136Y-79243D01*
X113987Y-79210D01*
X113838Y-79174D01*
X113691Y-79134D01*
X113544Y-79091D01*
X113398Y-79044D01*
X113254Y-78994D01*
X118912Y-74803D02*
X121198Y-74803D01*
X119674Y-72517D02*
X119674Y-78232D01*
X119676Y-78298D01*
X119682Y-78365D01*
X119691Y-78430D01*
X119705Y-78496D01*
X119722Y-78560D01*
X119743Y-78623D01*
X119767Y-78685D01*
X119796Y-78745D01*
X119827Y-78804D01*
X119862Y-78860D01*
X119900Y-78915D01*
X119941Y-78967D01*
X119986Y-79016D01*
X120033Y-79063D01*
X120082Y-79108D01*
X120134Y-79149D01*
X120189Y-79187D01*
X120246Y-79222D01*
X120304Y-79253D01*
X120364Y-79282D01*
X120426Y-79306D01*
X120489Y-79327D01*
X120553Y-79344D01*
X120619Y-79358D01*
X120684Y-79367D01*
X120751Y-79373D01*
X120817Y-79375D01*
X121198Y-79375D01*
D12*
X111460Y96520D02*
X111460Y118110D01*
X110190Y114300D01*
X112730Y114300D01*
X111460Y118110D01*
X106380Y120650D02*
X116540Y120650D01*
X110500Y55740D02*
X110500Y34150D01*
X111770Y37960D01*
X109230Y37960D02*
X110500Y34150D01*
X115580Y31610D02*
X105420Y31610D01*
D11*
X25731Y-31935D02*
X23445Y-31935D01*
X25731Y-31935D02*
X25808Y-31937D01*
X25885Y-31943D01*
X25962Y-31953D01*
X26038Y-31966D01*
X26113Y-31984D01*
X26187Y-32005D01*
X26260Y-32030D01*
X26332Y-32059D01*
X26402Y-32091D01*
X26471Y-32126D01*
X26537Y-32166D01*
X26602Y-32208D01*
X26664Y-32254D01*
X26724Y-32303D01*
X26781Y-32354D01*
X26836Y-32409D01*
X26887Y-32466D01*
X26936Y-32526D01*
X26982Y-32588D01*
X27024Y-32653D01*
X27064Y-32719D01*
X27099Y-32788D01*
X27131Y-32858D01*
X27160Y-32930D01*
X27185Y-33003D01*
X27206Y-33077D01*
X27224Y-33152D01*
X27237Y-33228D01*
X27247Y-33305D01*
X27253Y-33382D01*
X27255Y-33459D01*
X27255Y-33840D01*
X27253Y-33925D01*
X27247Y-34011D01*
X27238Y-34096D01*
X27224Y-34180D01*
X27207Y-34264D01*
X27186Y-34347D01*
X27162Y-34429D01*
X27134Y-34509D01*
X27102Y-34589D01*
X27066Y-34667D01*
X27028Y-34743D01*
X26985Y-34817D01*
X26940Y-34889D01*
X26891Y-34960D01*
X26839Y-35028D01*
X26785Y-35093D01*
X26727Y-35156D01*
X26666Y-35217D01*
X26603Y-35275D01*
X26538Y-35329D01*
X26470Y-35381D01*
X26399Y-35430D01*
X26327Y-35475D01*
X26253Y-35518D01*
X26177Y-35556D01*
X26099Y-35592D01*
X26019Y-35624D01*
X25939Y-35652D01*
X25857Y-35676D01*
X25774Y-35697D01*
X25690Y-35714D01*
X25606Y-35728D01*
X25521Y-35737D01*
X25435Y-35743D01*
X25350Y-35745D01*
X25265Y-35743D01*
X25179Y-35737D01*
X25094Y-35728D01*
X25010Y-35714D01*
X24926Y-35697D01*
X24843Y-35676D01*
X24761Y-35652D01*
X24681Y-35624D01*
X24601Y-35592D01*
X24523Y-35556D01*
X24447Y-35518D01*
X24373Y-35475D01*
X24301Y-35430D01*
X24230Y-35381D01*
X24162Y-35329D01*
X24097Y-35275D01*
X24034Y-35217D01*
X23973Y-35156D01*
X23915Y-35093D01*
X23861Y-35028D01*
X23809Y-34960D01*
X23760Y-34889D01*
X23715Y-34817D01*
X23672Y-34743D01*
X23634Y-34667D01*
X23598Y-34589D01*
X23566Y-34509D01*
X23538Y-34429D01*
X23514Y-34347D01*
X23493Y-34264D01*
X23476Y-34180D01*
X23462Y-34096D01*
X23453Y-34011D01*
X23447Y-33925D01*
X23445Y-33840D01*
X23445Y-31935D01*
X23447Y-31826D01*
X23453Y-31718D01*
X23462Y-31609D01*
X23476Y-31501D01*
X23493Y-31394D01*
X23515Y-31287D01*
X23540Y-31181D01*
X23568Y-31076D01*
X23601Y-30972D01*
X23637Y-30870D01*
X23677Y-30769D01*
X23720Y-30669D01*
X23767Y-30571D01*
X23818Y-30474D01*
X23872Y-30380D01*
X23929Y-30287D01*
X23989Y-30197D01*
X24053Y-30108D01*
X24120Y-30022D01*
X24189Y-29939D01*
X24262Y-29858D01*
X24338Y-29780D01*
X24416Y-29704D01*
X24497Y-29631D01*
X24580Y-29562D01*
X24666Y-29495D01*
X24755Y-29431D01*
X24845Y-29371D01*
X24938Y-29314D01*
X25032Y-29260D01*
X25129Y-29209D01*
X25227Y-29162D01*
X25327Y-29119D01*
X25428Y-29079D01*
X25530Y-29043D01*
X25634Y-29010D01*
X25739Y-28982D01*
X25845Y-28957D01*
X25952Y-28935D01*
X26059Y-28918D01*
X26167Y-28904D01*
X26276Y-28895D01*
X26384Y-28889D01*
X26493Y-28887D01*
X23445Y-4411D02*
X25350Y-2887D01*
X25350Y-9745D01*
X23445Y-9745D02*
X27255Y-9745D01*
X30760Y-6316D02*
X30762Y-6174D01*
X30767Y-6031D01*
X30776Y-5889D01*
X30789Y-5747D01*
X30805Y-5606D01*
X30824Y-5465D01*
X30848Y-5324D01*
X30874Y-5184D01*
X30905Y-5045D01*
X30939Y-4907D01*
X30976Y-4769D01*
X31016Y-4633D01*
X31061Y-4497D01*
X31108Y-4363D01*
X31159Y-4230D01*
X31213Y-4098D01*
X31271Y-3968D01*
X31332Y-3839D01*
X31331Y-3840D02*
X31357Y-3771D01*
X31386Y-3705D01*
X31418Y-3639D01*
X31453Y-3576D01*
X31492Y-3514D01*
X31534Y-3454D01*
X31579Y-3397D01*
X31627Y-3342D01*
X31678Y-3290D01*
X31731Y-3240D01*
X31787Y-3194D01*
X31845Y-3150D01*
X31906Y-3109D01*
X31968Y-3071D01*
X32032Y-3037D01*
X32098Y-3006D01*
X32166Y-2978D01*
X32235Y-2954D01*
X32305Y-2934D01*
X32376Y-2917D01*
X32447Y-2904D01*
X32519Y-2895D01*
X32592Y-2889D01*
X32665Y-2887D01*
X32738Y-2889D01*
X32811Y-2895D01*
X32883Y-2904D01*
X32954Y-2917D01*
X33025Y-2934D01*
X33095Y-2954D01*
X33164Y-2978D01*
X33232Y-3006D01*
X33298Y-3037D01*
X33362Y-3071D01*
X33424Y-3109D01*
X33485Y-3150D01*
X33543Y-3194D01*
X33599Y-3240D01*
X33652Y-3290D01*
X33703Y-3342D01*
X33751Y-3397D01*
X33796Y-3454D01*
X33838Y-3514D01*
X33877Y-3576D01*
X33912Y-3639D01*
X33944Y-3705D01*
X33973Y-3771D01*
X33999Y-3840D01*
X33999Y-3839D02*
X34060Y-3968D01*
X34118Y-4098D01*
X34172Y-4230D01*
X34223Y-4363D01*
X34270Y-4497D01*
X34315Y-4633D01*
X34355Y-4769D01*
X34392Y-4907D01*
X34426Y-5045D01*
X34457Y-5184D01*
X34483Y-5324D01*
X34507Y-5465D01*
X34526Y-5606D01*
X34542Y-5747D01*
X34555Y-5889D01*
X34564Y-6031D01*
X34569Y-6174D01*
X34571Y-6316D01*
X30760Y-6316D02*
X30762Y-6458D01*
X30767Y-6601D01*
X30776Y-6743D01*
X30789Y-6885D01*
X30805Y-7026D01*
X30824Y-7167D01*
X30848Y-7308D01*
X30874Y-7448D01*
X30905Y-7587D01*
X30939Y-7725D01*
X30976Y-7863D01*
X31016Y-7999D01*
X31061Y-8135D01*
X31108Y-8269D01*
X31159Y-8402D01*
X31213Y-8534D01*
X31271Y-8664D01*
X31332Y-8793D01*
X31331Y-8792D02*
X31357Y-8861D01*
X31386Y-8927D01*
X31418Y-8993D01*
X31453Y-9056D01*
X31492Y-9118D01*
X31534Y-9178D01*
X31579Y-9235D01*
X31627Y-9290D01*
X31678Y-9342D01*
X31731Y-9392D01*
X31787Y-9438D01*
X31845Y-9482D01*
X31906Y-9523D01*
X31968Y-9561D01*
X32032Y-9595D01*
X32098Y-9626D01*
X32166Y-9654D01*
X32235Y-9678D01*
X32305Y-9698D01*
X32376Y-9715D01*
X32447Y-9728D01*
X32519Y-9737D01*
X32592Y-9743D01*
X32665Y-9745D01*
X33999Y-8793D02*
X34060Y-8664D01*
X34118Y-8534D01*
X34172Y-8402D01*
X34223Y-8269D01*
X34270Y-8135D01*
X34315Y-7999D01*
X34355Y-7863D01*
X34392Y-7725D01*
X34426Y-7587D01*
X34457Y-7448D01*
X34483Y-7308D01*
X34507Y-7167D01*
X34526Y-7026D01*
X34542Y-6885D01*
X34555Y-6743D01*
X34564Y-6601D01*
X34569Y-6458D01*
X34571Y-6316D01*
X33999Y-8792D02*
X33973Y-8861D01*
X33944Y-8927D01*
X33912Y-8993D01*
X33877Y-9056D01*
X33838Y-9118D01*
X33796Y-9178D01*
X33751Y-9235D01*
X33703Y-9290D01*
X33652Y-9342D01*
X33599Y-9392D01*
X33543Y-9438D01*
X33485Y-9482D01*
X33424Y-9523D01*
X33362Y-9561D01*
X33298Y-9595D01*
X33232Y-9626D01*
X33164Y-9654D01*
X33095Y-9678D01*
X33025Y-9698D01*
X32954Y-9715D01*
X32883Y-9728D01*
X32811Y-9737D01*
X32738Y-9743D01*
X32665Y-9745D01*
X31141Y-8221D02*
X34189Y-4411D01*
X23445Y28089D02*
X25350Y29613D01*
X25350Y22755D01*
X23445Y22755D02*
X27255Y22755D01*
X30760Y22755D02*
X33046Y22755D01*
X33123Y22757D01*
X33200Y22763D01*
X33277Y22773D01*
X33353Y22786D01*
X33428Y22804D01*
X33502Y22825D01*
X33575Y22850D01*
X33647Y22879D01*
X33717Y22911D01*
X33786Y22946D01*
X33852Y22986D01*
X33917Y23028D01*
X33979Y23074D01*
X34039Y23123D01*
X34096Y23174D01*
X34151Y23229D01*
X34202Y23286D01*
X34251Y23346D01*
X34297Y23408D01*
X34339Y23473D01*
X34379Y23539D01*
X34414Y23608D01*
X34446Y23678D01*
X34475Y23750D01*
X34500Y23823D01*
X34521Y23897D01*
X34539Y23972D01*
X34552Y24048D01*
X34562Y24125D01*
X34568Y24202D01*
X34570Y24279D01*
X34570Y25041D01*
X34568Y25118D01*
X34562Y25195D01*
X34552Y25272D01*
X34539Y25348D01*
X34521Y25423D01*
X34500Y25497D01*
X34475Y25570D01*
X34446Y25642D01*
X34414Y25712D01*
X34379Y25781D01*
X34339Y25847D01*
X34297Y25912D01*
X34251Y25974D01*
X34202Y26034D01*
X34151Y26091D01*
X34096Y26146D01*
X34039Y26197D01*
X33979Y26246D01*
X33917Y26292D01*
X33852Y26334D01*
X33786Y26374D01*
X33717Y26409D01*
X33647Y26441D01*
X33575Y26470D01*
X33502Y26495D01*
X33428Y26516D01*
X33353Y26534D01*
X33277Y26547D01*
X33200Y26557D01*
X33123Y26563D01*
X33046Y26565D01*
X30760Y26565D01*
X30760Y29613D01*
X34570Y29613D01*
X27256Y60399D02*
X27254Y60481D01*
X27248Y60562D01*
X27239Y60643D01*
X27225Y60724D01*
X27208Y60803D01*
X27187Y60882D01*
X27162Y60960D01*
X27133Y61036D01*
X27101Y61111D01*
X27065Y61185D01*
X27026Y61257D01*
X26984Y61326D01*
X26938Y61394D01*
X26889Y61459D01*
X26837Y61522D01*
X26782Y61582D01*
X26724Y61640D01*
X26664Y61695D01*
X26601Y61747D01*
X26536Y61796D01*
X26468Y61842D01*
X26399Y61884D01*
X26327Y61923D01*
X26253Y61959D01*
X26178Y61991D01*
X26102Y62020D01*
X26024Y62045D01*
X25945Y62066D01*
X25866Y62083D01*
X25785Y62097D01*
X25704Y62106D01*
X25623Y62112D01*
X25541Y62114D01*
X25541Y62113D02*
X25449Y62111D01*
X25357Y62105D01*
X25265Y62096D01*
X25173Y62082D01*
X25083Y62065D01*
X24993Y62044D01*
X24904Y62019D01*
X24816Y61990D01*
X24729Y61958D01*
X24644Y61922D01*
X24561Y61883D01*
X24479Y61840D01*
X24399Y61794D01*
X24321Y61744D01*
X24245Y61692D01*
X24172Y61636D01*
X24101Y61577D01*
X24032Y61515D01*
X23966Y61450D01*
X23903Y61383D01*
X23843Y61313D01*
X23785Y61241D01*
X23731Y61166D01*
X23680Y61089D01*
X23632Y61010D01*
X23588Y60929D01*
X23547Y60846D01*
X23509Y60762D01*
X23475Y60676D01*
X23445Y60589D01*
X26684Y59065D02*
X26743Y59124D01*
X26799Y59185D01*
X26852Y59248D01*
X26903Y59314D01*
X26950Y59382D01*
X26994Y59452D01*
X27035Y59524D01*
X27073Y59598D01*
X27107Y59673D01*
X27138Y59750D01*
X27165Y59828D01*
X27189Y59908D01*
X27210Y59988D01*
X27226Y60069D01*
X27239Y60151D01*
X27249Y60233D01*
X27254Y60316D01*
X27256Y60399D01*
X26684Y59065D02*
X23445Y55255D01*
X27255Y55255D01*
X30760Y58684D02*
X30762Y58826D01*
X30767Y58969D01*
X30776Y59111D01*
X30789Y59253D01*
X30805Y59394D01*
X30824Y59535D01*
X30848Y59676D01*
X30874Y59816D01*
X30905Y59955D01*
X30939Y60093D01*
X30976Y60231D01*
X31016Y60367D01*
X31061Y60503D01*
X31108Y60637D01*
X31159Y60770D01*
X31213Y60902D01*
X31271Y61032D01*
X31332Y61161D01*
X31331Y61160D02*
X31357Y61229D01*
X31386Y61295D01*
X31418Y61361D01*
X31453Y61424D01*
X31492Y61486D01*
X31534Y61546D01*
X31579Y61603D01*
X31627Y61658D01*
X31678Y61710D01*
X31731Y61760D01*
X31787Y61806D01*
X31845Y61850D01*
X31906Y61891D01*
X31968Y61929D01*
X32032Y61963D01*
X32098Y61994D01*
X32166Y62022D01*
X32235Y62046D01*
X32305Y62066D01*
X32376Y62083D01*
X32447Y62096D01*
X32519Y62105D01*
X32592Y62111D01*
X32665Y62113D01*
X32738Y62111D01*
X32811Y62105D01*
X32883Y62096D01*
X32954Y62083D01*
X33025Y62066D01*
X33095Y62046D01*
X33164Y62022D01*
X33232Y61994D01*
X33298Y61963D01*
X33362Y61929D01*
X33424Y61891D01*
X33485Y61850D01*
X33543Y61806D01*
X33599Y61760D01*
X33652Y61710D01*
X33703Y61658D01*
X33751Y61603D01*
X33796Y61546D01*
X33838Y61486D01*
X33877Y61424D01*
X33912Y61361D01*
X33944Y61295D01*
X33973Y61229D01*
X33999Y61160D01*
X33999Y61161D02*
X34060Y61032D01*
X34118Y60902D01*
X34172Y60770D01*
X34223Y60637D01*
X34270Y60503D01*
X34315Y60367D01*
X34355Y60231D01*
X34392Y60093D01*
X34426Y59955D01*
X34457Y59816D01*
X34483Y59676D01*
X34507Y59535D01*
X34526Y59394D01*
X34542Y59253D01*
X34555Y59111D01*
X34564Y58969D01*
X34569Y58826D01*
X34571Y58684D01*
X30760Y58684D02*
X30762Y58542D01*
X30767Y58399D01*
X30776Y58257D01*
X30789Y58115D01*
X30805Y57974D01*
X30824Y57833D01*
X30848Y57692D01*
X30874Y57552D01*
X30905Y57413D01*
X30939Y57275D01*
X30976Y57137D01*
X31016Y57001D01*
X31061Y56865D01*
X31108Y56731D01*
X31159Y56598D01*
X31213Y56466D01*
X31271Y56336D01*
X31332Y56207D01*
X31331Y56208D02*
X31357Y56139D01*
X31386Y56073D01*
X31418Y56007D01*
X31453Y55944D01*
X31492Y55882D01*
X31534Y55822D01*
X31579Y55765D01*
X31627Y55710D01*
X31678Y55658D01*
X31731Y55608D01*
X31787Y55562D01*
X31845Y55518D01*
X31906Y55477D01*
X31968Y55439D01*
X32032Y55405D01*
X32098Y55374D01*
X32166Y55346D01*
X32235Y55322D01*
X32305Y55302D01*
X32376Y55285D01*
X32447Y55272D01*
X32519Y55263D01*
X32592Y55257D01*
X32665Y55255D01*
X33999Y56207D02*
X34060Y56336D01*
X34118Y56466D01*
X34172Y56598D01*
X34223Y56731D01*
X34270Y56865D01*
X34315Y57001D01*
X34355Y57137D01*
X34392Y57275D01*
X34426Y57413D01*
X34457Y57552D01*
X34483Y57692D01*
X34507Y57833D01*
X34526Y57974D01*
X34542Y58115D01*
X34555Y58257D01*
X34564Y58399D01*
X34569Y58542D01*
X34571Y58684D01*
X33999Y56208D02*
X33973Y56139D01*
X33944Y56073D01*
X33912Y56007D01*
X33877Y55944D01*
X33838Y55882D01*
X33796Y55822D01*
X33751Y55765D01*
X33703Y55710D01*
X33652Y55658D01*
X33599Y55608D01*
X33543Y55562D01*
X33485Y55518D01*
X33424Y55477D01*
X33362Y55439D01*
X33298Y55405D01*
X33232Y55374D01*
X33164Y55346D01*
X33095Y55322D01*
X33025Y55302D01*
X32954Y55285D01*
X32883Y55272D01*
X32811Y55263D01*
X32738Y55257D01*
X32665Y55255D01*
X31141Y56779D02*
X34189Y60589D01*
X27256Y92899D02*
X27254Y92981D01*
X27248Y93062D01*
X27239Y93143D01*
X27225Y93224D01*
X27208Y93303D01*
X27187Y93382D01*
X27162Y93460D01*
X27133Y93536D01*
X27101Y93611D01*
X27065Y93685D01*
X27026Y93757D01*
X26984Y93826D01*
X26938Y93894D01*
X26889Y93959D01*
X26837Y94022D01*
X26782Y94082D01*
X26724Y94140D01*
X26664Y94195D01*
X26601Y94247D01*
X26536Y94296D01*
X26468Y94342D01*
X26399Y94384D01*
X26327Y94423D01*
X26253Y94459D01*
X26178Y94491D01*
X26102Y94520D01*
X26024Y94545D01*
X25945Y94566D01*
X25866Y94583D01*
X25785Y94597D01*
X25704Y94606D01*
X25623Y94612D01*
X25541Y94614D01*
X25541Y94613D02*
X25449Y94611D01*
X25357Y94605D01*
X25265Y94596D01*
X25173Y94582D01*
X25083Y94565D01*
X24993Y94544D01*
X24904Y94519D01*
X24816Y94490D01*
X24729Y94458D01*
X24644Y94422D01*
X24561Y94383D01*
X24479Y94340D01*
X24399Y94294D01*
X24321Y94244D01*
X24245Y94192D01*
X24172Y94136D01*
X24101Y94077D01*
X24032Y94015D01*
X23966Y93950D01*
X23903Y93883D01*
X23843Y93813D01*
X23785Y93741D01*
X23731Y93666D01*
X23680Y93589D01*
X23632Y93510D01*
X23588Y93429D01*
X23547Y93346D01*
X23509Y93262D01*
X23475Y93176D01*
X23445Y93089D01*
X26684Y91565D02*
X26743Y91624D01*
X26799Y91685D01*
X26852Y91748D01*
X26903Y91814D01*
X26950Y91882D01*
X26994Y91952D01*
X27035Y92024D01*
X27073Y92098D01*
X27107Y92173D01*
X27138Y92250D01*
X27165Y92328D01*
X27189Y92408D01*
X27210Y92488D01*
X27226Y92569D01*
X27239Y92651D01*
X27249Y92733D01*
X27254Y92816D01*
X27256Y92899D01*
X26684Y91565D02*
X23445Y87755D01*
X27255Y87755D01*
X30760Y87755D02*
X33046Y87755D01*
X33123Y87757D01*
X33200Y87763D01*
X33277Y87773D01*
X33353Y87786D01*
X33428Y87804D01*
X33502Y87825D01*
X33575Y87850D01*
X33647Y87879D01*
X33717Y87911D01*
X33786Y87946D01*
X33852Y87986D01*
X33917Y88028D01*
X33979Y88074D01*
X34039Y88123D01*
X34096Y88174D01*
X34151Y88229D01*
X34202Y88286D01*
X34251Y88346D01*
X34297Y88408D01*
X34339Y88473D01*
X34379Y88539D01*
X34414Y88608D01*
X34446Y88678D01*
X34475Y88750D01*
X34500Y88823D01*
X34521Y88897D01*
X34539Y88972D01*
X34552Y89048D01*
X34562Y89125D01*
X34568Y89202D01*
X34570Y89279D01*
X34570Y90041D01*
X34568Y90118D01*
X34562Y90195D01*
X34552Y90272D01*
X34539Y90348D01*
X34521Y90423D01*
X34500Y90497D01*
X34475Y90570D01*
X34446Y90642D01*
X34414Y90712D01*
X34379Y90781D01*
X34339Y90847D01*
X34297Y90912D01*
X34251Y90974D01*
X34202Y91034D01*
X34151Y91091D01*
X34096Y91146D01*
X34039Y91197D01*
X33979Y91246D01*
X33917Y91292D01*
X33852Y91334D01*
X33786Y91374D01*
X33717Y91409D01*
X33647Y91441D01*
X33575Y91470D01*
X33502Y91495D01*
X33428Y91516D01*
X33353Y91534D01*
X33277Y91547D01*
X33200Y91557D01*
X33123Y91563D01*
X33046Y91565D01*
X30760Y91565D01*
X30760Y94613D01*
X34570Y94613D01*
X27256Y112399D02*
X27254Y112481D01*
X27248Y112562D01*
X27239Y112643D01*
X27225Y112724D01*
X27208Y112803D01*
X27187Y112882D01*
X27162Y112960D01*
X27133Y113036D01*
X27101Y113111D01*
X27065Y113185D01*
X27026Y113257D01*
X26984Y113326D01*
X26938Y113394D01*
X26889Y113459D01*
X26837Y113522D01*
X26782Y113582D01*
X26724Y113640D01*
X26664Y113695D01*
X26601Y113747D01*
X26536Y113796D01*
X26468Y113842D01*
X26399Y113884D01*
X26327Y113923D01*
X26253Y113959D01*
X26178Y113991D01*
X26102Y114020D01*
X26024Y114045D01*
X25945Y114066D01*
X25866Y114083D01*
X25785Y114097D01*
X25704Y114106D01*
X25623Y114112D01*
X25541Y114114D01*
X25541Y114113D02*
X25449Y114111D01*
X25357Y114105D01*
X25265Y114096D01*
X25173Y114082D01*
X25083Y114065D01*
X24993Y114044D01*
X24904Y114019D01*
X24816Y113990D01*
X24729Y113958D01*
X24644Y113922D01*
X24561Y113883D01*
X24479Y113840D01*
X24399Y113794D01*
X24321Y113744D01*
X24245Y113692D01*
X24172Y113636D01*
X24101Y113577D01*
X24032Y113515D01*
X23966Y113450D01*
X23903Y113383D01*
X23843Y113313D01*
X23785Y113241D01*
X23731Y113166D01*
X23680Y113089D01*
X23632Y113010D01*
X23588Y112929D01*
X23547Y112846D01*
X23509Y112762D01*
X23475Y112676D01*
X23445Y112589D01*
X26684Y111065D02*
X26743Y111124D01*
X26799Y111185D01*
X26852Y111248D01*
X26903Y111314D01*
X26950Y111382D01*
X26994Y111452D01*
X27035Y111524D01*
X27073Y111598D01*
X27107Y111673D01*
X27138Y111750D01*
X27165Y111828D01*
X27189Y111908D01*
X27210Y111988D01*
X27226Y112069D01*
X27239Y112151D01*
X27249Y112233D01*
X27254Y112316D01*
X27256Y112399D01*
X26684Y111065D02*
X23445Y107255D01*
X27255Y107255D01*
X30760Y109160D02*
X30762Y109245D01*
X30768Y109331D01*
X30777Y109416D01*
X30791Y109500D01*
X30808Y109584D01*
X30829Y109667D01*
X30853Y109749D01*
X30881Y109829D01*
X30913Y109909D01*
X30949Y109987D01*
X30987Y110063D01*
X31030Y110137D01*
X31075Y110209D01*
X31124Y110280D01*
X31176Y110348D01*
X31230Y110413D01*
X31288Y110476D01*
X31349Y110537D01*
X31412Y110595D01*
X31477Y110649D01*
X31545Y110701D01*
X31616Y110750D01*
X31688Y110795D01*
X31762Y110838D01*
X31838Y110876D01*
X31916Y110912D01*
X31996Y110944D01*
X32076Y110972D01*
X32158Y110996D01*
X32241Y111017D01*
X32325Y111034D01*
X32409Y111048D01*
X32494Y111057D01*
X32580Y111063D01*
X32665Y111065D01*
X32750Y111063D01*
X32836Y111057D01*
X32921Y111048D01*
X33005Y111034D01*
X33089Y111017D01*
X33172Y110996D01*
X33254Y110972D01*
X33334Y110944D01*
X33414Y110912D01*
X33492Y110876D01*
X33568Y110838D01*
X33642Y110795D01*
X33714Y110750D01*
X33785Y110701D01*
X33853Y110649D01*
X33918Y110595D01*
X33981Y110537D01*
X34042Y110476D01*
X34100Y110413D01*
X34154Y110348D01*
X34206Y110280D01*
X34255Y110209D01*
X34300Y110137D01*
X34343Y110063D01*
X34381Y109987D01*
X34417Y109909D01*
X34449Y109829D01*
X34477Y109749D01*
X34501Y109667D01*
X34522Y109584D01*
X34539Y109500D01*
X34553Y109416D01*
X34562Y109331D01*
X34568Y109245D01*
X34570Y109160D01*
X34568Y109075D01*
X34562Y108989D01*
X34553Y108904D01*
X34539Y108820D01*
X34522Y108736D01*
X34501Y108653D01*
X34477Y108571D01*
X34449Y108491D01*
X34417Y108411D01*
X34381Y108333D01*
X34343Y108257D01*
X34300Y108183D01*
X34255Y108111D01*
X34206Y108040D01*
X34154Y107972D01*
X34100Y107907D01*
X34042Y107844D01*
X33981Y107783D01*
X33918Y107725D01*
X33853Y107671D01*
X33785Y107619D01*
X33714Y107570D01*
X33642Y107525D01*
X33568Y107482D01*
X33492Y107444D01*
X33414Y107408D01*
X33334Y107376D01*
X33254Y107348D01*
X33172Y107324D01*
X33089Y107303D01*
X33005Y107286D01*
X32921Y107272D01*
X32836Y107263D01*
X32750Y107257D01*
X32665Y107255D01*
X32580Y107257D01*
X32494Y107263D01*
X32409Y107272D01*
X32325Y107286D01*
X32241Y107303D01*
X32158Y107324D01*
X32076Y107348D01*
X31996Y107376D01*
X31916Y107408D01*
X31838Y107444D01*
X31762Y107482D01*
X31688Y107525D01*
X31616Y107570D01*
X31545Y107619D01*
X31477Y107671D01*
X31412Y107725D01*
X31349Y107783D01*
X31288Y107844D01*
X31230Y107907D01*
X31176Y107972D01*
X31124Y108040D01*
X31075Y108111D01*
X31030Y108183D01*
X30987Y108257D01*
X30949Y108333D01*
X30913Y108411D01*
X30881Y108491D01*
X30853Y108571D01*
X30829Y108653D01*
X30808Y108736D01*
X30791Y108820D01*
X30777Y108904D01*
X30768Y108989D01*
X30762Y109075D01*
X30760Y109160D01*
X31141Y112589D02*
X31143Y112666D01*
X31149Y112743D01*
X31159Y112820D01*
X31172Y112896D01*
X31190Y112971D01*
X31211Y113045D01*
X31236Y113118D01*
X31265Y113190D01*
X31297Y113260D01*
X31332Y113329D01*
X31372Y113395D01*
X31414Y113460D01*
X31460Y113522D01*
X31509Y113582D01*
X31560Y113639D01*
X31615Y113694D01*
X31672Y113745D01*
X31732Y113794D01*
X31794Y113840D01*
X31859Y113882D01*
X31925Y113922D01*
X31994Y113957D01*
X32064Y113989D01*
X32136Y114018D01*
X32209Y114043D01*
X32283Y114064D01*
X32358Y114082D01*
X32434Y114095D01*
X32511Y114105D01*
X32588Y114111D01*
X32665Y114113D01*
X32742Y114111D01*
X32819Y114105D01*
X32896Y114095D01*
X32972Y114082D01*
X33047Y114064D01*
X33121Y114043D01*
X33194Y114018D01*
X33266Y113989D01*
X33336Y113957D01*
X33405Y113922D01*
X33471Y113882D01*
X33536Y113840D01*
X33598Y113794D01*
X33658Y113745D01*
X33715Y113694D01*
X33770Y113639D01*
X33821Y113582D01*
X33870Y113522D01*
X33916Y113460D01*
X33958Y113395D01*
X33998Y113329D01*
X34033Y113260D01*
X34065Y113190D01*
X34094Y113118D01*
X34119Y113045D01*
X34140Y112971D01*
X34158Y112896D01*
X34171Y112820D01*
X34181Y112743D01*
X34187Y112666D01*
X34189Y112589D01*
X34187Y112512D01*
X34181Y112435D01*
X34171Y112358D01*
X34158Y112282D01*
X34140Y112207D01*
X34119Y112133D01*
X34094Y112060D01*
X34065Y111988D01*
X34033Y111918D01*
X33998Y111849D01*
X33958Y111783D01*
X33916Y111718D01*
X33870Y111656D01*
X33821Y111596D01*
X33770Y111539D01*
X33715Y111484D01*
X33658Y111433D01*
X33598Y111384D01*
X33536Y111338D01*
X33471Y111296D01*
X33405Y111256D01*
X33336Y111221D01*
X33266Y111189D01*
X33194Y111160D01*
X33121Y111135D01*
X33047Y111114D01*
X32972Y111096D01*
X32896Y111083D01*
X32819Y111073D01*
X32742Y111067D01*
X32665Y111065D01*
X32588Y111067D01*
X32511Y111073D01*
X32434Y111083D01*
X32358Y111096D01*
X32283Y111114D01*
X32209Y111135D01*
X32136Y111160D01*
X32064Y111189D01*
X31994Y111221D01*
X31925Y111256D01*
X31859Y111296D01*
X31794Y111338D01*
X31732Y111384D01*
X31672Y111433D01*
X31615Y111484D01*
X31560Y111539D01*
X31509Y111596D01*
X31460Y111656D01*
X31414Y111718D01*
X31372Y111783D01*
X31332Y111849D01*
X31297Y111918D01*
X31265Y111988D01*
X31236Y112060D01*
X31211Y112133D01*
X31190Y112207D01*
X31172Y112282D01*
X31159Y112358D01*
X31149Y112435D01*
X31143Y112512D01*
X31141Y112589D01*
X50909Y-70865D02*
X52433Y-70865D01*
X50909Y-70865D02*
X50832Y-70863D01*
X50755Y-70857D01*
X50678Y-70847D01*
X50602Y-70834D01*
X50527Y-70816D01*
X50453Y-70795D01*
X50380Y-70770D01*
X50308Y-70741D01*
X50238Y-70709D01*
X50169Y-70674D01*
X50103Y-70634D01*
X50038Y-70592D01*
X49976Y-70546D01*
X49916Y-70497D01*
X49859Y-70446D01*
X49804Y-70391D01*
X49753Y-70334D01*
X49704Y-70274D01*
X49658Y-70212D01*
X49616Y-70147D01*
X49576Y-70081D01*
X49541Y-70012D01*
X49509Y-69942D01*
X49480Y-69870D01*
X49455Y-69797D01*
X49434Y-69723D01*
X49416Y-69648D01*
X49403Y-69572D01*
X49393Y-69495D01*
X49387Y-69418D01*
X49385Y-69341D01*
X49385Y-65531D01*
X49387Y-65454D01*
X49393Y-65377D01*
X49403Y-65300D01*
X49416Y-65224D01*
X49434Y-65149D01*
X49455Y-65075D01*
X49480Y-65002D01*
X49509Y-64930D01*
X49541Y-64860D01*
X49576Y-64791D01*
X49616Y-64725D01*
X49658Y-64660D01*
X49704Y-64598D01*
X49753Y-64538D01*
X49804Y-64481D01*
X49859Y-64426D01*
X49916Y-64375D01*
X49976Y-64326D01*
X50038Y-64280D01*
X50103Y-64238D01*
X50169Y-64198D01*
X50238Y-64163D01*
X50308Y-64131D01*
X50380Y-64102D01*
X50453Y-64077D01*
X50527Y-64056D01*
X50602Y-64038D01*
X50678Y-64025D01*
X50755Y-64015D01*
X50832Y-64009D01*
X50909Y-64007D01*
X52433Y-64007D01*
X54724Y-66293D02*
X57010Y-66293D01*
X55486Y-64007D02*
X55486Y-69722D01*
X55488Y-69788D01*
X55494Y-69855D01*
X55503Y-69920D01*
X55517Y-69986D01*
X55534Y-70050D01*
X55555Y-70113D01*
X55579Y-70175D01*
X55608Y-70235D01*
X55639Y-70294D01*
X55674Y-70350D01*
X55712Y-70405D01*
X55753Y-70457D01*
X55798Y-70506D01*
X55845Y-70553D01*
X55894Y-70598D01*
X55946Y-70639D01*
X56001Y-70677D01*
X56058Y-70712D01*
X56116Y-70743D01*
X56176Y-70772D01*
X56238Y-70796D01*
X56301Y-70817D01*
X56365Y-70834D01*
X56431Y-70848D01*
X56496Y-70857D01*
X56563Y-70863D01*
X56629Y-70865D01*
X57010Y-70865D01*
X60345Y-70865D02*
X60345Y-66293D01*
X62631Y-66293D01*
X62631Y-67055D01*
X65184Y-69722D02*
X65184Y-64007D01*
X65184Y-69722D02*
X65186Y-69788D01*
X65192Y-69855D01*
X65201Y-69920D01*
X65215Y-69986D01*
X65232Y-70050D01*
X65253Y-70113D01*
X65277Y-70175D01*
X65306Y-70235D01*
X65337Y-70294D01*
X65372Y-70350D01*
X65410Y-70405D01*
X65451Y-70457D01*
X65496Y-70506D01*
X65543Y-70553D01*
X65592Y-70598D01*
X65644Y-70639D01*
X65699Y-70677D01*
X65756Y-70712D01*
X65814Y-70743D01*
X65874Y-70772D01*
X65936Y-70796D01*
X65999Y-70817D01*
X66063Y-70834D01*
X66129Y-70848D01*
X66194Y-70857D01*
X66261Y-70863D01*
X66327Y-70865D01*
X75385Y-70865D02*
X75385Y-64007D01*
X77290Y-64007D01*
X77375Y-64009D01*
X77461Y-64015D01*
X77546Y-64024D01*
X77630Y-64038D01*
X77714Y-64055D01*
X77797Y-64076D01*
X77879Y-64100D01*
X77959Y-64128D01*
X78039Y-64160D01*
X78117Y-64196D01*
X78193Y-64234D01*
X78267Y-64277D01*
X78339Y-64322D01*
X78410Y-64371D01*
X78478Y-64423D01*
X78543Y-64477D01*
X78606Y-64535D01*
X78667Y-64596D01*
X78725Y-64659D01*
X78779Y-64724D01*
X78831Y-64792D01*
X78880Y-64863D01*
X78925Y-64935D01*
X78968Y-65009D01*
X79006Y-65085D01*
X79042Y-65163D01*
X79074Y-65243D01*
X79102Y-65323D01*
X79126Y-65405D01*
X79147Y-65488D01*
X79164Y-65572D01*
X79178Y-65656D01*
X79187Y-65741D01*
X79193Y-65827D01*
X79195Y-65912D01*
X79193Y-65997D01*
X79187Y-66083D01*
X79178Y-66168D01*
X79164Y-66252D01*
X79147Y-66336D01*
X79126Y-66419D01*
X79102Y-66501D01*
X79074Y-66581D01*
X79042Y-66661D01*
X79006Y-66739D01*
X78968Y-66815D01*
X78925Y-66889D01*
X78880Y-66961D01*
X78831Y-67032D01*
X78779Y-67100D01*
X78725Y-67165D01*
X78667Y-67228D01*
X78606Y-67289D01*
X78543Y-67347D01*
X78478Y-67401D01*
X78410Y-67453D01*
X78339Y-67502D01*
X78267Y-67547D01*
X78193Y-67590D01*
X78117Y-67628D01*
X78039Y-67664D01*
X77959Y-67696D01*
X77879Y-67724D01*
X77797Y-67748D01*
X77714Y-67769D01*
X77630Y-67786D01*
X77546Y-67800D01*
X77461Y-67809D01*
X77375Y-67815D01*
X77290Y-67817D01*
X75385Y-67817D01*
X77671Y-67817D02*
X79195Y-70865D01*
X83095Y-68198D02*
X85000Y-68960D01*
X83095Y-68198D02*
X83038Y-68173D01*
X82983Y-68145D01*
X82929Y-68113D01*
X82878Y-68078D01*
X82829Y-68039D01*
X82782Y-67998D01*
X82738Y-67954D01*
X82697Y-67907D01*
X82659Y-67857D01*
X82625Y-67805D01*
X82593Y-67752D01*
X82565Y-67696D01*
X82541Y-67639D01*
X82520Y-67580D01*
X82503Y-67520D01*
X82490Y-67459D01*
X82481Y-67397D01*
X82475Y-67335D01*
X82474Y-67273D01*
X82477Y-67211D01*
X82483Y-67149D01*
X82493Y-67087D01*
X82507Y-67027D01*
X82525Y-66967D01*
X82547Y-66908D01*
X82572Y-66852D01*
X82601Y-66796D01*
X82633Y-66743D01*
X82669Y-66692D01*
X82708Y-66643D01*
X82749Y-66597D01*
X82794Y-66553D01*
X82841Y-66512D01*
X82891Y-66475D01*
X82943Y-66440D01*
X82997Y-66409D01*
X83053Y-66382D01*
X83110Y-66358D01*
X83169Y-66337D01*
X83229Y-66321D01*
X83290Y-66308D01*
X83352Y-66299D01*
X83414Y-66294D01*
X83476Y-66293D01*
X83477Y-66293D02*
X83603Y-66297D01*
X83729Y-66304D01*
X83855Y-66315D01*
X83981Y-66330D01*
X84106Y-66348D01*
X84230Y-66370D01*
X84354Y-66396D01*
X84477Y-66425D01*
X84599Y-66458D01*
X84720Y-66494D01*
X84839Y-66534D01*
X84958Y-66578D01*
X85075Y-66624D01*
X85191Y-66674D01*
X85001Y-68960D02*
X85058Y-68985D01*
X85113Y-69013D01*
X85167Y-69045D01*
X85218Y-69080D01*
X85267Y-69119D01*
X85314Y-69160D01*
X85358Y-69204D01*
X85399Y-69251D01*
X85437Y-69301D01*
X85471Y-69353D01*
X85503Y-69406D01*
X85531Y-69462D01*
X85555Y-69519D01*
X85576Y-69578D01*
X85593Y-69638D01*
X85606Y-69699D01*
X85615Y-69761D01*
X85621Y-69823D01*
X85622Y-69885D01*
X85619Y-69947D01*
X85613Y-70009D01*
X85603Y-70071D01*
X85589Y-70131D01*
X85571Y-70191D01*
X85549Y-70250D01*
X85524Y-70306D01*
X85495Y-70362D01*
X85463Y-70415D01*
X85427Y-70466D01*
X85388Y-70515D01*
X85347Y-70561D01*
X85302Y-70605D01*
X85255Y-70646D01*
X85205Y-70683D01*
X85153Y-70718D01*
X85099Y-70749D01*
X85043Y-70776D01*
X84986Y-70800D01*
X84927Y-70821D01*
X84867Y-70837D01*
X84806Y-70850D01*
X84744Y-70859D01*
X84682Y-70864D01*
X84620Y-70865D01*
X84467Y-70861D01*
X84314Y-70854D01*
X84162Y-70843D01*
X84010Y-70828D01*
X83858Y-70809D01*
X83707Y-70787D01*
X83556Y-70762D01*
X83406Y-70733D01*
X83257Y-70700D01*
X83108Y-70664D01*
X82961Y-70624D01*
X82814Y-70581D01*
X82668Y-70534D01*
X82524Y-70484D01*
X88182Y-66293D02*
X90468Y-66293D01*
X88944Y-64007D02*
X88944Y-69722D01*
X88946Y-69788D01*
X88952Y-69855D01*
X88961Y-69920D01*
X88975Y-69986D01*
X88992Y-70050D01*
X89013Y-70113D01*
X89037Y-70175D01*
X89066Y-70235D01*
X89097Y-70294D01*
X89132Y-70350D01*
X89170Y-70405D01*
X89211Y-70457D01*
X89256Y-70506D01*
X89303Y-70553D01*
X89352Y-70598D01*
X89404Y-70639D01*
X89459Y-70677D01*
X89516Y-70712D01*
X89574Y-70743D01*
X89634Y-70772D01*
X89696Y-70796D01*
X89759Y-70817D01*
X89823Y-70834D01*
X89889Y-70848D01*
X89954Y-70857D01*
X90021Y-70863D01*
X90087Y-70865D01*
X90468Y-70865D01*
X54991Y-54793D02*
X52705Y-54793D01*
X53467Y-52507D02*
X53467Y-58222D01*
X53469Y-58288D01*
X53475Y-58355D01*
X53484Y-58420D01*
X53498Y-58486D01*
X53515Y-58550D01*
X53536Y-58613D01*
X53560Y-58675D01*
X53589Y-58735D01*
X53620Y-58794D01*
X53655Y-58850D01*
X53693Y-58905D01*
X53734Y-58957D01*
X53779Y-59006D01*
X53826Y-59053D01*
X53875Y-59098D01*
X53927Y-59139D01*
X53982Y-59177D01*
X54039Y-59212D01*
X54097Y-59243D01*
X54157Y-59272D01*
X54219Y-59296D01*
X54282Y-59317D01*
X54346Y-59334D01*
X54412Y-59348D01*
X54477Y-59357D01*
X54544Y-59363D01*
X54610Y-59365D01*
X54991Y-59365D01*
X58019Y-57841D02*
X58019Y-56317D01*
X58021Y-56240D01*
X58027Y-56163D01*
X58037Y-56086D01*
X58050Y-56010D01*
X58068Y-55935D01*
X58089Y-55861D01*
X58114Y-55788D01*
X58143Y-55716D01*
X58175Y-55646D01*
X58210Y-55577D01*
X58250Y-55511D01*
X58292Y-55446D01*
X58338Y-55384D01*
X58387Y-55324D01*
X58438Y-55267D01*
X58493Y-55212D01*
X58550Y-55161D01*
X58610Y-55112D01*
X58672Y-55066D01*
X58737Y-55024D01*
X58803Y-54984D01*
X58872Y-54949D01*
X58942Y-54917D01*
X59014Y-54888D01*
X59087Y-54863D01*
X59161Y-54842D01*
X59236Y-54824D01*
X59312Y-54811D01*
X59389Y-54801D01*
X59466Y-54795D01*
X59543Y-54793D01*
X59620Y-54795D01*
X59697Y-54801D01*
X59774Y-54811D01*
X59850Y-54824D01*
X59925Y-54842D01*
X59999Y-54863D01*
X60072Y-54888D01*
X60144Y-54917D01*
X60214Y-54949D01*
X60283Y-54984D01*
X60349Y-55024D01*
X60414Y-55066D01*
X60476Y-55112D01*
X60536Y-55161D01*
X60593Y-55212D01*
X60648Y-55267D01*
X60699Y-55324D01*
X60748Y-55384D01*
X60794Y-55446D01*
X60836Y-55511D01*
X60876Y-55577D01*
X60911Y-55646D01*
X60943Y-55716D01*
X60972Y-55788D01*
X60997Y-55861D01*
X61018Y-55935D01*
X61036Y-56010D01*
X61049Y-56086D01*
X61059Y-56163D01*
X61065Y-56240D01*
X61067Y-56317D01*
X61067Y-57841D01*
X61065Y-57918D01*
X61059Y-57995D01*
X61049Y-58072D01*
X61036Y-58148D01*
X61018Y-58223D01*
X60997Y-58297D01*
X60972Y-58370D01*
X60943Y-58442D01*
X60911Y-58512D01*
X60876Y-58581D01*
X60836Y-58647D01*
X60794Y-58712D01*
X60748Y-58774D01*
X60699Y-58834D01*
X60648Y-58891D01*
X60593Y-58946D01*
X60536Y-58997D01*
X60476Y-59046D01*
X60414Y-59092D01*
X60349Y-59134D01*
X60283Y-59174D01*
X60214Y-59209D01*
X60144Y-59241D01*
X60072Y-59270D01*
X59999Y-59295D01*
X59925Y-59316D01*
X59850Y-59334D01*
X59774Y-59347D01*
X59697Y-59357D01*
X59620Y-59363D01*
X59543Y-59365D01*
X59466Y-59363D01*
X59389Y-59357D01*
X59312Y-59347D01*
X59236Y-59334D01*
X59161Y-59316D01*
X59087Y-59295D01*
X59014Y-59270D01*
X58942Y-59241D01*
X58872Y-59209D01*
X58803Y-59174D01*
X58737Y-59134D01*
X58672Y-59092D01*
X58610Y-59046D01*
X58550Y-58997D01*
X58493Y-58946D01*
X58438Y-58891D01*
X58387Y-58834D01*
X58338Y-58774D01*
X58292Y-58712D01*
X58250Y-58647D01*
X58210Y-58581D01*
X58175Y-58512D01*
X58143Y-58442D01*
X58114Y-58370D01*
X58089Y-58297D01*
X58068Y-58223D01*
X58050Y-58148D01*
X58037Y-58072D01*
X58027Y-57995D01*
X58021Y-57918D01*
X58019Y-57841D01*
X68611Y-59365D02*
X68611Y-52507D01*
X72421Y-59365D01*
X72421Y-52507D01*
X76170Y-55555D02*
X78456Y-55555D01*
X78533Y-55557D01*
X78610Y-55563D01*
X78687Y-55573D01*
X78763Y-55586D01*
X78838Y-55604D01*
X78912Y-55625D01*
X78985Y-55650D01*
X79057Y-55679D01*
X79127Y-55711D01*
X79196Y-55746D01*
X79262Y-55786D01*
X79327Y-55828D01*
X79389Y-55874D01*
X79449Y-55923D01*
X79506Y-55974D01*
X79561Y-56029D01*
X79612Y-56086D01*
X79661Y-56146D01*
X79707Y-56208D01*
X79749Y-56273D01*
X79789Y-56339D01*
X79824Y-56408D01*
X79856Y-56478D01*
X79885Y-56550D01*
X79910Y-56623D01*
X79931Y-56697D01*
X79949Y-56772D01*
X79962Y-56848D01*
X79972Y-56925D01*
X79978Y-57002D01*
X79980Y-57079D01*
X79980Y-57460D01*
X79978Y-57545D01*
X79972Y-57631D01*
X79963Y-57716D01*
X79949Y-57800D01*
X79932Y-57884D01*
X79911Y-57967D01*
X79887Y-58049D01*
X79859Y-58129D01*
X79827Y-58209D01*
X79791Y-58287D01*
X79753Y-58363D01*
X79710Y-58437D01*
X79665Y-58509D01*
X79616Y-58580D01*
X79564Y-58648D01*
X79510Y-58713D01*
X79452Y-58776D01*
X79391Y-58837D01*
X79328Y-58895D01*
X79263Y-58949D01*
X79195Y-59001D01*
X79124Y-59050D01*
X79052Y-59095D01*
X78978Y-59138D01*
X78902Y-59176D01*
X78824Y-59212D01*
X78744Y-59244D01*
X78664Y-59272D01*
X78582Y-59296D01*
X78499Y-59317D01*
X78415Y-59334D01*
X78331Y-59348D01*
X78246Y-59357D01*
X78160Y-59363D01*
X78075Y-59365D01*
X77990Y-59363D01*
X77904Y-59357D01*
X77819Y-59348D01*
X77735Y-59334D01*
X77651Y-59317D01*
X77568Y-59296D01*
X77486Y-59272D01*
X77406Y-59244D01*
X77326Y-59212D01*
X77248Y-59176D01*
X77172Y-59138D01*
X77098Y-59095D01*
X77026Y-59050D01*
X76955Y-59001D01*
X76887Y-58949D01*
X76822Y-58895D01*
X76759Y-58837D01*
X76698Y-58776D01*
X76640Y-58713D01*
X76586Y-58648D01*
X76534Y-58580D01*
X76485Y-58509D01*
X76440Y-58437D01*
X76397Y-58363D01*
X76359Y-58287D01*
X76323Y-58209D01*
X76291Y-58129D01*
X76263Y-58049D01*
X76239Y-57967D01*
X76218Y-57884D01*
X76201Y-57800D01*
X76187Y-57716D01*
X76178Y-57631D01*
X76172Y-57545D01*
X76170Y-57460D01*
X76170Y-55555D01*
X76172Y-55446D01*
X76178Y-55338D01*
X76187Y-55229D01*
X76201Y-55121D01*
X76218Y-55014D01*
X76240Y-54907D01*
X76265Y-54801D01*
X76293Y-54696D01*
X76326Y-54592D01*
X76362Y-54490D01*
X76402Y-54389D01*
X76445Y-54289D01*
X76492Y-54191D01*
X76543Y-54094D01*
X76597Y-54000D01*
X76654Y-53907D01*
X76714Y-53817D01*
X76778Y-53728D01*
X76845Y-53642D01*
X76914Y-53559D01*
X76987Y-53478D01*
X77063Y-53400D01*
X77141Y-53324D01*
X77222Y-53251D01*
X77305Y-53182D01*
X77391Y-53115D01*
X77480Y-53051D01*
X77570Y-52991D01*
X77663Y-52934D01*
X77757Y-52880D01*
X77854Y-52829D01*
X77952Y-52782D01*
X78052Y-52739D01*
X78153Y-52699D01*
X78255Y-52663D01*
X78359Y-52630D01*
X78464Y-52602D01*
X78570Y-52577D01*
X78677Y-52555D01*
X78784Y-52538D01*
X78892Y-52524D01*
X79001Y-52515D01*
X79109Y-52509D01*
X79218Y-52507D01*
X85009Y-52507D02*
X83485Y-57841D01*
X87295Y-57841D01*
X86152Y-56317D02*
X86152Y-59365D01*
X92293Y-24229D02*
X92293Y-21943D01*
X90007Y-23467D02*
X95722Y-23467D01*
X95788Y-23465D01*
X95855Y-23459D01*
X95920Y-23450D01*
X95986Y-23436D01*
X96050Y-23419D01*
X96113Y-23398D01*
X96175Y-23374D01*
X96235Y-23345D01*
X96294Y-23314D01*
X96350Y-23279D01*
X96405Y-23241D01*
X96457Y-23200D01*
X96506Y-23155D01*
X96553Y-23108D01*
X96598Y-23059D01*
X96639Y-23007D01*
X96677Y-22952D01*
X96712Y-22895D01*
X96743Y-22837D01*
X96772Y-22777D01*
X96796Y-22715D01*
X96817Y-22652D01*
X96834Y-22588D01*
X96848Y-22522D01*
X96857Y-22457D01*
X96863Y-22390D01*
X96865Y-22324D01*
X96865Y-21943D01*
X95341Y-18914D02*
X93817Y-18914D01*
X93740Y-18912D01*
X93663Y-18906D01*
X93586Y-18896D01*
X93510Y-18883D01*
X93435Y-18865D01*
X93361Y-18844D01*
X93288Y-18819D01*
X93216Y-18790D01*
X93146Y-18758D01*
X93077Y-18723D01*
X93011Y-18683D01*
X92946Y-18641D01*
X92884Y-18595D01*
X92824Y-18546D01*
X92767Y-18495D01*
X92712Y-18440D01*
X92661Y-18383D01*
X92612Y-18323D01*
X92566Y-18261D01*
X92524Y-18196D01*
X92484Y-18130D01*
X92449Y-18061D01*
X92417Y-17991D01*
X92388Y-17919D01*
X92363Y-17846D01*
X92342Y-17772D01*
X92324Y-17697D01*
X92311Y-17621D01*
X92301Y-17544D01*
X92295Y-17467D01*
X92293Y-17390D01*
X92295Y-17313D01*
X92301Y-17236D01*
X92311Y-17159D01*
X92324Y-17083D01*
X92342Y-17008D01*
X92363Y-16934D01*
X92388Y-16861D01*
X92417Y-16789D01*
X92449Y-16719D01*
X92484Y-16650D01*
X92524Y-16584D01*
X92566Y-16519D01*
X92612Y-16457D01*
X92661Y-16397D01*
X92712Y-16340D01*
X92767Y-16285D01*
X92824Y-16234D01*
X92884Y-16185D01*
X92946Y-16139D01*
X93011Y-16097D01*
X93077Y-16057D01*
X93146Y-16022D01*
X93216Y-15990D01*
X93288Y-15961D01*
X93361Y-15936D01*
X93435Y-15915D01*
X93510Y-15897D01*
X93586Y-15884D01*
X93663Y-15874D01*
X93740Y-15868D01*
X93817Y-15866D01*
X95341Y-15866D01*
X95418Y-15868D01*
X95495Y-15874D01*
X95572Y-15884D01*
X95648Y-15897D01*
X95723Y-15915D01*
X95797Y-15936D01*
X95870Y-15961D01*
X95942Y-15990D01*
X96012Y-16022D01*
X96081Y-16057D01*
X96147Y-16097D01*
X96212Y-16139D01*
X96274Y-16185D01*
X96334Y-16234D01*
X96391Y-16285D01*
X96446Y-16340D01*
X96497Y-16397D01*
X96546Y-16457D01*
X96592Y-16519D01*
X96634Y-16584D01*
X96674Y-16650D01*
X96709Y-16719D01*
X96741Y-16789D01*
X96770Y-16861D01*
X96795Y-16934D01*
X96816Y-17008D01*
X96834Y-17083D01*
X96847Y-17159D01*
X96857Y-17236D01*
X96863Y-17313D01*
X96865Y-17390D01*
X96863Y-17467D01*
X96857Y-17544D01*
X96847Y-17621D01*
X96834Y-17697D01*
X96816Y-17772D01*
X96795Y-17846D01*
X96770Y-17919D01*
X96741Y-17991D01*
X96709Y-18061D01*
X96674Y-18130D01*
X96634Y-18196D01*
X96592Y-18261D01*
X96546Y-18323D01*
X96497Y-18383D01*
X96446Y-18440D01*
X96391Y-18495D01*
X96334Y-18546D01*
X96274Y-18595D01*
X96212Y-18641D01*
X96147Y-18683D01*
X96081Y-18723D01*
X96012Y-18758D01*
X95942Y-18790D01*
X95870Y-18819D01*
X95797Y-18844D01*
X95723Y-18865D01*
X95648Y-18883D01*
X95572Y-18896D01*
X95495Y-18906D01*
X95418Y-18912D01*
X95341Y-18914D01*
X96865Y-8322D02*
X90007Y-8322D01*
X96865Y-4512D01*
X90007Y-4512D01*
X93055Y-763D02*
X93055Y1523D01*
X93057Y1600D01*
X93063Y1677D01*
X93073Y1754D01*
X93086Y1830D01*
X93104Y1905D01*
X93125Y1979D01*
X93150Y2052D01*
X93179Y2124D01*
X93211Y2194D01*
X93246Y2263D01*
X93286Y2329D01*
X93328Y2394D01*
X93374Y2456D01*
X93423Y2516D01*
X93474Y2573D01*
X93529Y2628D01*
X93586Y2679D01*
X93646Y2728D01*
X93708Y2774D01*
X93773Y2816D01*
X93839Y2856D01*
X93908Y2891D01*
X93978Y2923D01*
X94050Y2952D01*
X94123Y2977D01*
X94197Y2998D01*
X94272Y3016D01*
X94348Y3029D01*
X94425Y3039D01*
X94502Y3045D01*
X94579Y3047D01*
X94960Y3047D01*
X95045Y3045D01*
X95131Y3039D01*
X95216Y3030D01*
X95300Y3016D01*
X95384Y2999D01*
X95467Y2978D01*
X95549Y2954D01*
X95629Y2926D01*
X95709Y2894D01*
X95787Y2858D01*
X95863Y2820D01*
X95937Y2777D01*
X96009Y2732D01*
X96080Y2683D01*
X96148Y2631D01*
X96213Y2577D01*
X96276Y2519D01*
X96337Y2458D01*
X96395Y2395D01*
X96449Y2330D01*
X96501Y2262D01*
X96550Y2191D01*
X96595Y2119D01*
X96638Y2045D01*
X96676Y1969D01*
X96712Y1891D01*
X96744Y1811D01*
X96772Y1731D01*
X96796Y1649D01*
X96817Y1566D01*
X96834Y1482D01*
X96848Y1398D01*
X96857Y1313D01*
X96863Y1227D01*
X96865Y1142D01*
X96863Y1057D01*
X96857Y971D01*
X96848Y886D01*
X96834Y802D01*
X96817Y718D01*
X96796Y635D01*
X96772Y553D01*
X96744Y473D01*
X96712Y393D01*
X96676Y315D01*
X96638Y239D01*
X96595Y165D01*
X96550Y93D01*
X96501Y22D01*
X96449Y-46D01*
X96395Y-111D01*
X96337Y-174D01*
X96276Y-235D01*
X96213Y-293D01*
X96148Y-347D01*
X96080Y-399D01*
X96009Y-448D01*
X95937Y-493D01*
X95863Y-536D01*
X95787Y-574D01*
X95709Y-610D01*
X95629Y-642D01*
X95549Y-670D01*
X95467Y-694D01*
X95384Y-715D01*
X95300Y-732D01*
X95216Y-746D01*
X95131Y-755D01*
X95045Y-761D01*
X94960Y-763D01*
X93055Y-763D01*
X92946Y-761D01*
X92838Y-755D01*
X92729Y-746D01*
X92621Y-732D01*
X92514Y-715D01*
X92407Y-693D01*
X92301Y-668D01*
X92196Y-640D01*
X92092Y-607D01*
X91990Y-571D01*
X91889Y-531D01*
X91789Y-488D01*
X91691Y-441D01*
X91594Y-390D01*
X91500Y-336D01*
X91407Y-279D01*
X91317Y-219D01*
X91228Y-155D01*
X91142Y-88D01*
X91059Y-19D01*
X90978Y54D01*
X90900Y130D01*
X90824Y208D01*
X90751Y289D01*
X90682Y372D01*
X90615Y458D01*
X90551Y547D01*
X90491Y637D01*
X90434Y730D01*
X90380Y824D01*
X90329Y921D01*
X90282Y1019D01*
X90239Y1119D01*
X90199Y1220D01*
X90163Y1322D01*
X90130Y1426D01*
X90102Y1531D01*
X90077Y1637D01*
X90055Y1744D01*
X90038Y1851D01*
X90024Y1959D01*
X90015Y2068D01*
X90009Y2176D01*
X90007Y2285D01*
X90007Y8076D02*
X95341Y6552D01*
X95341Y10362D01*
X93817Y9219D02*
X96865Y9219D01*
X96865Y14180D02*
X90007Y14180D01*
X90007Y16085D01*
X90009Y16170D01*
X90015Y16256D01*
X90024Y16341D01*
X90038Y16425D01*
X90055Y16509D01*
X90076Y16592D01*
X90100Y16674D01*
X90128Y16754D01*
X90160Y16834D01*
X90196Y16912D01*
X90234Y16988D01*
X90277Y17062D01*
X90322Y17134D01*
X90371Y17205D01*
X90423Y17273D01*
X90477Y17338D01*
X90535Y17401D01*
X90596Y17462D01*
X90659Y17520D01*
X90724Y17574D01*
X90792Y17626D01*
X90863Y17675D01*
X90935Y17720D01*
X91009Y17763D01*
X91085Y17801D01*
X91163Y17837D01*
X91243Y17869D01*
X91323Y17897D01*
X91405Y17921D01*
X91488Y17942D01*
X91572Y17959D01*
X91656Y17973D01*
X91741Y17982D01*
X91827Y17988D01*
X91912Y17990D01*
X91997Y17988D01*
X92083Y17982D01*
X92168Y17973D01*
X92252Y17959D01*
X92336Y17942D01*
X92419Y17921D01*
X92501Y17897D01*
X92581Y17869D01*
X92661Y17837D01*
X92739Y17801D01*
X92815Y17763D01*
X92889Y17720D01*
X92961Y17675D01*
X93032Y17626D01*
X93100Y17574D01*
X93165Y17520D01*
X93228Y17462D01*
X93289Y17401D01*
X93347Y17338D01*
X93401Y17273D01*
X93453Y17205D01*
X93502Y17134D01*
X93547Y17062D01*
X93590Y16988D01*
X93628Y16912D01*
X93664Y16834D01*
X93696Y16754D01*
X93724Y16674D01*
X93748Y16592D01*
X93769Y16509D01*
X93786Y16425D01*
X93800Y16341D01*
X93809Y16256D01*
X93815Y16170D01*
X93817Y16085D01*
X93817Y14180D01*
X93817Y16466D02*
X96865Y17990D01*
X93055Y24337D02*
X93055Y25480D01*
X96865Y25480D01*
X96865Y23194D01*
X96863Y23117D01*
X96857Y23040D01*
X96847Y22963D01*
X96834Y22887D01*
X96816Y22812D01*
X96795Y22738D01*
X96770Y22665D01*
X96741Y22593D01*
X96709Y22523D01*
X96674Y22454D01*
X96634Y22388D01*
X96592Y22323D01*
X96546Y22261D01*
X96497Y22201D01*
X96446Y22144D01*
X96391Y22089D01*
X96334Y22038D01*
X96274Y21989D01*
X96212Y21943D01*
X96147Y21901D01*
X96081Y21861D01*
X96012Y21826D01*
X95942Y21794D01*
X95870Y21765D01*
X95797Y21740D01*
X95723Y21719D01*
X95648Y21701D01*
X95572Y21688D01*
X95495Y21678D01*
X95418Y21672D01*
X95341Y21670D01*
X91531Y21670D01*
X91454Y21672D01*
X91377Y21678D01*
X91300Y21688D01*
X91224Y21701D01*
X91149Y21719D01*
X91075Y21740D01*
X91002Y21765D01*
X90930Y21794D01*
X90860Y21826D01*
X90791Y21861D01*
X90725Y21901D01*
X90660Y21943D01*
X90598Y21989D01*
X90538Y22038D01*
X90481Y22089D01*
X90426Y22144D01*
X90375Y22201D01*
X90326Y22261D01*
X90280Y22323D01*
X90238Y22388D01*
X90198Y22454D01*
X90163Y22523D01*
X90131Y22593D01*
X90102Y22665D01*
X90077Y22738D01*
X90056Y22812D01*
X90038Y22887D01*
X90025Y22963D01*
X90015Y23040D01*
X90009Y23117D01*
X90007Y23194D01*
X90007Y25480D01*
X93055Y29633D02*
X93055Y31538D01*
X93057Y31623D01*
X93063Y31709D01*
X93072Y31794D01*
X93086Y31878D01*
X93103Y31962D01*
X93124Y32045D01*
X93148Y32127D01*
X93176Y32207D01*
X93208Y32287D01*
X93244Y32365D01*
X93282Y32441D01*
X93325Y32515D01*
X93370Y32587D01*
X93419Y32658D01*
X93471Y32726D01*
X93525Y32791D01*
X93583Y32854D01*
X93644Y32915D01*
X93707Y32973D01*
X93772Y33027D01*
X93840Y33079D01*
X93911Y33128D01*
X93983Y33173D01*
X94057Y33216D01*
X94133Y33254D01*
X94211Y33290D01*
X94291Y33322D01*
X94371Y33350D01*
X94453Y33374D01*
X94536Y33395D01*
X94620Y33412D01*
X94704Y33426D01*
X94789Y33435D01*
X94875Y33441D01*
X94960Y33443D01*
X95045Y33441D01*
X95131Y33435D01*
X95216Y33426D01*
X95300Y33412D01*
X95384Y33395D01*
X95467Y33374D01*
X95549Y33350D01*
X95629Y33322D01*
X95709Y33290D01*
X95787Y33254D01*
X95863Y33216D01*
X95937Y33173D01*
X96009Y33128D01*
X96080Y33079D01*
X96148Y33027D01*
X96213Y32973D01*
X96276Y32915D01*
X96337Y32854D01*
X96395Y32791D01*
X96449Y32726D01*
X96501Y32658D01*
X96550Y32587D01*
X96595Y32515D01*
X96638Y32441D01*
X96676Y32365D01*
X96712Y32287D01*
X96744Y32207D01*
X96772Y32127D01*
X96796Y32045D01*
X96817Y31962D01*
X96834Y31878D01*
X96848Y31794D01*
X96857Y31709D01*
X96863Y31623D01*
X96865Y31538D01*
X96865Y29633D01*
X90007Y29633D01*
X90007Y31538D01*
X90009Y31615D01*
X90015Y31692D01*
X90025Y31769D01*
X90038Y31845D01*
X90056Y31920D01*
X90077Y31994D01*
X90102Y32067D01*
X90131Y32139D01*
X90163Y32209D01*
X90198Y32278D01*
X90238Y32344D01*
X90280Y32409D01*
X90326Y32471D01*
X90375Y32531D01*
X90426Y32588D01*
X90481Y32643D01*
X90538Y32694D01*
X90598Y32743D01*
X90660Y32789D01*
X90725Y32831D01*
X90791Y32871D01*
X90860Y32906D01*
X90930Y32938D01*
X91002Y32967D01*
X91075Y32992D01*
X91149Y33013D01*
X91224Y33031D01*
X91300Y33044D01*
X91377Y33054D01*
X91454Y33060D01*
X91531Y33062D01*
X91608Y33060D01*
X91685Y33054D01*
X91762Y33044D01*
X91838Y33031D01*
X91913Y33013D01*
X91987Y32992D01*
X92060Y32967D01*
X92132Y32938D01*
X92202Y32906D01*
X92271Y32871D01*
X92337Y32831D01*
X92402Y32789D01*
X92464Y32743D01*
X92524Y32694D01*
X92581Y32643D01*
X92636Y32588D01*
X92687Y32531D01*
X92736Y32471D01*
X92782Y32409D01*
X92824Y32344D01*
X92864Y32278D01*
X92899Y32209D01*
X92931Y32139D01*
X92960Y32067D01*
X92985Y31994D01*
X93006Y31920D01*
X93024Y31845D01*
X93037Y31769D01*
X93047Y31692D01*
X93053Y31615D01*
X93055Y31538D01*
X97627Y40095D02*
X89245Y43143D01*
X90007Y50443D02*
X96865Y50443D01*
X96865Y54253D02*
X90007Y50443D01*
X90007Y54253D02*
X96865Y54253D01*
X93055Y58002D02*
X93055Y60288D01*
X93057Y60365D01*
X93063Y60442D01*
X93073Y60519D01*
X93086Y60595D01*
X93104Y60670D01*
X93125Y60744D01*
X93150Y60817D01*
X93179Y60889D01*
X93211Y60959D01*
X93246Y61028D01*
X93286Y61094D01*
X93328Y61159D01*
X93374Y61221D01*
X93423Y61281D01*
X93474Y61338D01*
X93529Y61393D01*
X93586Y61444D01*
X93646Y61493D01*
X93708Y61539D01*
X93773Y61581D01*
X93839Y61621D01*
X93908Y61656D01*
X93978Y61688D01*
X94050Y61717D01*
X94123Y61742D01*
X94197Y61763D01*
X94272Y61781D01*
X94348Y61794D01*
X94425Y61804D01*
X94502Y61810D01*
X94579Y61812D01*
X94960Y61812D01*
X95045Y61810D01*
X95131Y61804D01*
X95216Y61795D01*
X95300Y61781D01*
X95384Y61764D01*
X95467Y61743D01*
X95549Y61719D01*
X95629Y61691D01*
X95709Y61659D01*
X95787Y61623D01*
X95863Y61585D01*
X95937Y61542D01*
X96009Y61497D01*
X96080Y61448D01*
X96148Y61396D01*
X96213Y61342D01*
X96276Y61284D01*
X96337Y61223D01*
X96395Y61160D01*
X96449Y61095D01*
X96501Y61027D01*
X96550Y60956D01*
X96595Y60884D01*
X96638Y60810D01*
X96676Y60734D01*
X96712Y60656D01*
X96744Y60576D01*
X96772Y60496D01*
X96796Y60414D01*
X96817Y60331D01*
X96834Y60247D01*
X96848Y60163D01*
X96857Y60078D01*
X96863Y59992D01*
X96865Y59907D01*
X96863Y59822D01*
X96857Y59736D01*
X96848Y59651D01*
X96834Y59567D01*
X96817Y59483D01*
X96796Y59400D01*
X96772Y59318D01*
X96744Y59238D01*
X96712Y59158D01*
X96676Y59080D01*
X96638Y59004D01*
X96595Y58930D01*
X96550Y58858D01*
X96501Y58787D01*
X96449Y58719D01*
X96395Y58654D01*
X96337Y58591D01*
X96276Y58530D01*
X96213Y58472D01*
X96148Y58418D01*
X96080Y58366D01*
X96009Y58317D01*
X95937Y58272D01*
X95863Y58229D01*
X95787Y58191D01*
X95709Y58155D01*
X95629Y58123D01*
X95549Y58095D01*
X95467Y58071D01*
X95384Y58050D01*
X95300Y58033D01*
X95216Y58019D01*
X95131Y58010D01*
X95045Y58004D01*
X94960Y58002D01*
X93055Y58002D01*
X92946Y58004D01*
X92838Y58010D01*
X92729Y58019D01*
X92621Y58033D01*
X92514Y58050D01*
X92407Y58072D01*
X92301Y58097D01*
X92196Y58125D01*
X92092Y58158D01*
X91990Y58194D01*
X91889Y58234D01*
X91789Y58277D01*
X91691Y58324D01*
X91594Y58375D01*
X91500Y58429D01*
X91407Y58486D01*
X91317Y58546D01*
X91228Y58610D01*
X91142Y58677D01*
X91059Y58746D01*
X90978Y58819D01*
X90900Y58895D01*
X90824Y58973D01*
X90751Y59054D01*
X90682Y59137D01*
X90615Y59223D01*
X90551Y59312D01*
X90491Y59402D01*
X90434Y59495D01*
X90380Y59589D01*
X90329Y59686D01*
X90282Y59784D01*
X90239Y59884D01*
X90199Y59985D01*
X90163Y60087D01*
X90130Y60191D01*
X90102Y60296D01*
X90077Y60402D01*
X90055Y60509D01*
X90038Y60616D01*
X90024Y60724D01*
X90015Y60833D01*
X90009Y60941D01*
X90007Y61050D01*
X90007Y66841D02*
X95341Y65317D01*
X95341Y69127D01*
X93817Y67984D02*
X96865Y67984D01*
X96865Y72251D02*
X90007Y74537D01*
X96865Y76823D01*
X95151Y76252D02*
X95151Y72823D01*
X96865Y82833D02*
X90007Y82833D01*
X96865Y82833D02*
X96865Y80928D01*
X96863Y80862D01*
X96857Y80795D01*
X96848Y80730D01*
X96834Y80664D01*
X96817Y80600D01*
X96796Y80537D01*
X96772Y80475D01*
X96743Y80415D01*
X96712Y80357D01*
X96677Y80300D01*
X96639Y80245D01*
X96598Y80193D01*
X96553Y80144D01*
X96506Y80097D01*
X96457Y80052D01*
X96405Y80011D01*
X96350Y79973D01*
X96294Y79938D01*
X96235Y79907D01*
X96175Y79878D01*
X96113Y79854D01*
X96050Y79833D01*
X95986Y79816D01*
X95920Y79802D01*
X95855Y79793D01*
X95788Y79787D01*
X95722Y79785D01*
X93436Y79785D01*
X93370Y79787D01*
X93303Y79793D01*
X93238Y79802D01*
X93172Y79816D01*
X93108Y79833D01*
X93045Y79854D01*
X92983Y79878D01*
X92923Y79907D01*
X92865Y79938D01*
X92808Y79973D01*
X92753Y80011D01*
X92701Y80052D01*
X92652Y80097D01*
X92605Y80144D01*
X92560Y80193D01*
X92519Y80245D01*
X92481Y80300D01*
X92446Y80357D01*
X92415Y80415D01*
X92386Y80475D01*
X92362Y80537D01*
X92341Y80600D01*
X92324Y80664D01*
X92310Y80730D01*
X92301Y80795D01*
X92295Y80862D01*
X92293Y80928D01*
X92293Y82833D01*
X92293Y86181D02*
X96865Y87705D01*
X92293Y89229D01*
X44865Y8440D02*
X38007Y8440D01*
X38007Y10345D01*
X38009Y10430D01*
X38015Y10516D01*
X38024Y10601D01*
X38038Y10685D01*
X38055Y10769D01*
X38076Y10852D01*
X38100Y10934D01*
X38128Y11014D01*
X38160Y11094D01*
X38196Y11172D01*
X38234Y11248D01*
X38277Y11322D01*
X38322Y11394D01*
X38371Y11465D01*
X38423Y11533D01*
X38477Y11598D01*
X38535Y11661D01*
X38596Y11722D01*
X38659Y11780D01*
X38724Y11834D01*
X38792Y11886D01*
X38863Y11935D01*
X38935Y11980D01*
X39009Y12023D01*
X39085Y12061D01*
X39163Y12097D01*
X39243Y12129D01*
X39323Y12157D01*
X39405Y12181D01*
X39488Y12202D01*
X39572Y12219D01*
X39656Y12233D01*
X39741Y12242D01*
X39827Y12248D01*
X39912Y12250D01*
X39997Y12248D01*
X40083Y12242D01*
X40168Y12233D01*
X40252Y12219D01*
X40336Y12202D01*
X40419Y12181D01*
X40501Y12157D01*
X40581Y12129D01*
X40661Y12097D01*
X40739Y12061D01*
X40815Y12023D01*
X40889Y11980D01*
X40961Y11935D01*
X41032Y11886D01*
X41100Y11834D01*
X41165Y11780D01*
X41228Y11722D01*
X41289Y11661D01*
X41347Y11598D01*
X41401Y11533D01*
X41453Y11465D01*
X41502Y11394D01*
X41547Y11322D01*
X41590Y11248D01*
X41628Y11172D01*
X41664Y11094D01*
X41696Y11014D01*
X41724Y10934D01*
X41748Y10852D01*
X41769Y10769D01*
X41786Y10685D01*
X41800Y10601D01*
X41809Y10516D01*
X41815Y10430D01*
X41817Y10345D01*
X41817Y8440D01*
X41817Y10726D02*
X44865Y12250D01*
X44865Y17179D02*
X44865Y18703D01*
X44865Y17179D02*
X44863Y17102D01*
X44857Y17025D01*
X44847Y16948D01*
X44834Y16872D01*
X44816Y16797D01*
X44795Y16723D01*
X44770Y16650D01*
X44741Y16578D01*
X44709Y16508D01*
X44674Y16439D01*
X44634Y16373D01*
X44592Y16308D01*
X44546Y16246D01*
X44497Y16186D01*
X44446Y16129D01*
X44391Y16074D01*
X44334Y16023D01*
X44274Y15974D01*
X44212Y15928D01*
X44147Y15886D01*
X44081Y15846D01*
X44012Y15811D01*
X43942Y15779D01*
X43870Y15750D01*
X43797Y15725D01*
X43723Y15704D01*
X43648Y15686D01*
X43572Y15673D01*
X43495Y15663D01*
X43418Y15657D01*
X43341Y15655D01*
X39531Y15655D01*
X39454Y15657D01*
X39377Y15663D01*
X39300Y15673D01*
X39224Y15686D01*
X39149Y15704D01*
X39075Y15725D01*
X39002Y15750D01*
X38930Y15779D01*
X38860Y15811D01*
X38791Y15846D01*
X38725Y15886D01*
X38660Y15928D01*
X38598Y15974D01*
X38538Y16023D01*
X38481Y16074D01*
X38426Y16129D01*
X38375Y16186D01*
X38326Y16246D01*
X38280Y16308D01*
X38238Y16373D01*
X38198Y16439D01*
X38163Y16508D01*
X38131Y16578D01*
X38102Y16650D01*
X38077Y16723D01*
X38056Y16797D01*
X38038Y16872D01*
X38025Y16948D01*
X38015Y17025D01*
X38009Y17102D01*
X38007Y17179D01*
X38007Y18703D01*
X38007Y22186D02*
X44865Y22186D01*
X38007Y22186D02*
X38007Y24091D01*
X38009Y24176D01*
X38015Y24262D01*
X38024Y24347D01*
X38038Y24431D01*
X38055Y24515D01*
X38076Y24598D01*
X38100Y24680D01*
X38128Y24760D01*
X38160Y24840D01*
X38196Y24918D01*
X38234Y24994D01*
X38277Y25068D01*
X38322Y25140D01*
X38371Y25211D01*
X38423Y25279D01*
X38477Y25344D01*
X38535Y25407D01*
X38596Y25468D01*
X38659Y25526D01*
X38724Y25580D01*
X38792Y25632D01*
X38863Y25681D01*
X38935Y25726D01*
X39009Y25769D01*
X39085Y25807D01*
X39163Y25843D01*
X39243Y25875D01*
X39323Y25903D01*
X39405Y25927D01*
X39488Y25948D01*
X39572Y25965D01*
X39656Y25979D01*
X39741Y25988D01*
X39827Y25994D01*
X39912Y25996D01*
X39997Y25994D01*
X40083Y25988D01*
X40168Y25979D01*
X40252Y25965D01*
X40336Y25948D01*
X40419Y25927D01*
X40501Y25903D01*
X40581Y25875D01*
X40661Y25843D01*
X40739Y25807D01*
X40815Y25769D01*
X40889Y25726D01*
X40961Y25681D01*
X41032Y25632D01*
X41100Y25580D01*
X41165Y25526D01*
X41228Y25468D01*
X41289Y25407D01*
X41347Y25344D01*
X41401Y25279D01*
X41453Y25211D01*
X41502Y25140D01*
X41547Y25068D01*
X41590Y24994D01*
X41628Y24918D01*
X41664Y24840D01*
X41696Y24760D01*
X41724Y24680D01*
X41748Y24598D01*
X41769Y24515D01*
X41786Y24431D01*
X41800Y24347D01*
X41809Y24262D01*
X41815Y24176D01*
X41817Y24091D01*
X41817Y22186D01*
X42198Y29204D02*
X42198Y33776D01*
X44865Y37632D02*
X38007Y37632D01*
X44865Y41442D01*
X38007Y41442D01*
X38007Y45434D02*
X42960Y45434D01*
X43045Y45436D01*
X43131Y45442D01*
X43216Y45451D01*
X43300Y45465D01*
X43384Y45482D01*
X43467Y45503D01*
X43549Y45527D01*
X43629Y45555D01*
X43709Y45587D01*
X43787Y45623D01*
X43863Y45661D01*
X43937Y45704D01*
X44009Y45749D01*
X44080Y45798D01*
X44148Y45850D01*
X44213Y45904D01*
X44276Y45962D01*
X44337Y46023D01*
X44395Y46086D01*
X44449Y46151D01*
X44501Y46219D01*
X44550Y46290D01*
X44595Y46362D01*
X44638Y46436D01*
X44676Y46512D01*
X44712Y46590D01*
X44744Y46670D01*
X44772Y46750D01*
X44796Y46832D01*
X44817Y46915D01*
X44834Y46999D01*
X44848Y47083D01*
X44857Y47168D01*
X44863Y47254D01*
X44865Y47339D01*
X44863Y47424D01*
X44857Y47510D01*
X44848Y47595D01*
X44834Y47679D01*
X44817Y47763D01*
X44796Y47846D01*
X44772Y47928D01*
X44744Y48008D01*
X44712Y48088D01*
X44676Y48166D01*
X44638Y48242D01*
X44595Y48316D01*
X44550Y48388D01*
X44501Y48459D01*
X44449Y48527D01*
X44395Y48592D01*
X44337Y48655D01*
X44276Y48716D01*
X44213Y48774D01*
X44148Y48828D01*
X44080Y48880D01*
X44009Y48929D01*
X43937Y48974D01*
X43863Y49017D01*
X43787Y49055D01*
X43709Y49091D01*
X43629Y49123D01*
X43549Y49151D01*
X43467Y49175D01*
X43384Y49196D01*
X43300Y49213D01*
X43216Y49227D01*
X43131Y49236D01*
X43045Y49242D01*
X42960Y49244D01*
X38007Y49244D01*
X44865Y55036D02*
X44863Y55113D01*
X44857Y55190D01*
X44847Y55267D01*
X44834Y55343D01*
X44816Y55418D01*
X44795Y55492D01*
X44770Y55565D01*
X44741Y55637D01*
X44709Y55707D01*
X44674Y55776D01*
X44634Y55842D01*
X44592Y55907D01*
X44546Y55969D01*
X44497Y56029D01*
X44446Y56086D01*
X44391Y56141D01*
X44334Y56192D01*
X44274Y56241D01*
X44212Y56287D01*
X44147Y56329D01*
X44081Y56369D01*
X44012Y56404D01*
X43942Y56436D01*
X43870Y56465D01*
X43797Y56490D01*
X43723Y56511D01*
X43648Y56529D01*
X43572Y56542D01*
X43495Y56552D01*
X43418Y56558D01*
X43341Y56560D01*
X44865Y55036D02*
X44863Y54926D01*
X44857Y54815D01*
X44848Y54705D01*
X44835Y54595D01*
X44818Y54486D01*
X44797Y54378D01*
X44773Y54270D01*
X44744Y54163D01*
X44713Y54057D01*
X44677Y53953D01*
X44638Y53849D01*
X44596Y53747D01*
X44550Y53647D01*
X44500Y53548D01*
X44448Y53451D01*
X44391Y53355D01*
X44332Y53262D01*
X44270Y53171D01*
X44204Y53082D01*
X44136Y52995D01*
X44064Y52911D01*
X43990Y52829D01*
X43913Y52750D01*
X39531Y52940D02*
X39454Y52942D01*
X39377Y52948D01*
X39300Y52958D01*
X39224Y52971D01*
X39149Y52989D01*
X39075Y53010D01*
X39002Y53035D01*
X38930Y53064D01*
X38860Y53096D01*
X38791Y53131D01*
X38725Y53171D01*
X38660Y53213D01*
X38598Y53259D01*
X38538Y53308D01*
X38481Y53359D01*
X38426Y53414D01*
X38375Y53471D01*
X38326Y53531D01*
X38280Y53593D01*
X38238Y53658D01*
X38198Y53724D01*
X38163Y53793D01*
X38131Y53863D01*
X38102Y53935D01*
X38077Y54008D01*
X38056Y54082D01*
X38038Y54157D01*
X38025Y54233D01*
X38015Y54310D01*
X38009Y54387D01*
X38007Y54464D01*
X38009Y54566D01*
X38014Y54668D01*
X38023Y54770D01*
X38036Y54871D01*
X38053Y54972D01*
X38072Y55072D01*
X38096Y55172D01*
X38123Y55270D01*
X38154Y55368D01*
X38188Y55464D01*
X38225Y55559D01*
X38266Y55653D01*
X38310Y55745D01*
X38358Y55835D01*
X38408Y55924D01*
X38462Y56011D01*
X38519Y56096D01*
X38579Y56179D01*
X40865Y53702D02*
X40824Y53637D01*
X40781Y53574D01*
X40734Y53514D01*
X40684Y53455D01*
X40632Y53400D01*
X40577Y53347D01*
X40519Y53296D01*
X40459Y53249D01*
X40396Y53205D01*
X40332Y53163D01*
X40266Y53125D01*
X40197Y53091D01*
X40127Y53060D01*
X40056Y53032D01*
X39984Y53008D01*
X39910Y52987D01*
X39835Y52970D01*
X39760Y52957D01*
X39684Y52948D01*
X39608Y52942D01*
X39531Y52940D01*
X42007Y55798D02*
X42048Y55863D01*
X42091Y55926D01*
X42138Y55986D01*
X42188Y56045D01*
X42240Y56100D01*
X42295Y56153D01*
X42353Y56204D01*
X42413Y56251D01*
X42476Y56295D01*
X42540Y56337D01*
X42606Y56375D01*
X42675Y56409D01*
X42745Y56440D01*
X42816Y56468D01*
X42888Y56492D01*
X42962Y56513D01*
X43037Y56530D01*
X43112Y56543D01*
X43188Y56552D01*
X43264Y56558D01*
X43341Y56560D01*
X42008Y55798D02*
X40865Y53702D01*
D13*
X57500Y78500D02*
X72500Y78500D01*
X72500Y109500D02*
X57500Y109500D01*
X57500Y36500D02*
X72500Y36500D01*
X72500Y67500D02*
X57500Y67500D01*
X57500Y-5500D02*
X72500Y-5500D01*
X72500Y25500D02*
X57500Y25500D01*
X57500Y-17000D02*
X72500Y-17000D01*
X72500Y-48000D02*
X57500Y-48000D01*
M02*
