G04 EAGLE Gerber X2 export*
%TF.Part,Single*%
%TF.FileFunction,Other,stiffener on bottom layer*%
%TF.FilePolarity,Positive*%
%TF.GenerationSoftware,Autodesk,EAGLE,9.5.2*%
%TF.CreationDate,2020-03-15T17:58:39Z*%
G75*
%MOMM*%
%FSLAX34Y34*%
%LPD*%
%INstiffener bottom*%
%AMOC8*
5,1,8,0,0,1.08239X$1,22.5*%
G01*

G36*
X108626Y-50509D02*
X108626Y-50509D01*
X108752Y-50502D01*
X108798Y-50489D01*
X108846Y-50483D01*
X108965Y-50441D01*
X109087Y-50406D01*
X109129Y-50382D01*
X109174Y-50366D01*
X109281Y-50297D01*
X109391Y-50236D01*
X109437Y-50196D01*
X109467Y-50177D01*
X109501Y-50142D01*
X109577Y-50077D01*
X124577Y-35077D01*
X124656Y-34978D01*
X124740Y-34884D01*
X124764Y-34842D01*
X124794Y-34804D01*
X124848Y-34690D01*
X124909Y-34579D01*
X124922Y-34533D01*
X124943Y-34489D01*
X124969Y-34366D01*
X125004Y-34244D01*
X125009Y-34183D01*
X125016Y-34148D01*
X125015Y-34100D01*
X125023Y-34000D01*
X125023Y133000D01*
X125020Y133026D01*
X125022Y133052D01*
X125000Y133199D01*
X124983Y133346D01*
X124975Y133371D01*
X124971Y133397D01*
X124916Y133535D01*
X124866Y133674D01*
X124852Y133696D01*
X124842Y133721D01*
X124757Y133842D01*
X124677Y133967D01*
X124658Y133985D01*
X124643Y134007D01*
X124533Y134106D01*
X124426Y134209D01*
X124404Y134223D01*
X124384Y134240D01*
X124254Y134312D01*
X124127Y134388D01*
X124102Y134396D01*
X124079Y134409D01*
X123936Y134449D01*
X123795Y134494D01*
X123769Y134496D01*
X123744Y134504D01*
X123500Y134523D01*
X40500Y134523D01*
X40374Y134509D01*
X40248Y134502D01*
X40202Y134489D01*
X40154Y134483D01*
X40035Y134441D01*
X39913Y134406D01*
X39871Y134382D01*
X39826Y134366D01*
X39719Y134297D01*
X39609Y134236D01*
X39563Y134196D01*
X39533Y134177D01*
X39499Y134142D01*
X39423Y134077D01*
X26423Y121077D01*
X26344Y120978D01*
X26260Y120884D01*
X26236Y120842D01*
X26206Y120804D01*
X26152Y120690D01*
X26091Y120579D01*
X26078Y120533D01*
X26057Y120489D01*
X26031Y120366D01*
X25996Y120244D01*
X25992Y120183D01*
X25984Y120148D01*
X25985Y120100D01*
X25977Y120000D01*
X25977Y-32500D01*
X25991Y-32626D01*
X25998Y-32752D01*
X26011Y-32798D01*
X26017Y-32846D01*
X26059Y-32965D01*
X26094Y-33087D01*
X26118Y-33129D01*
X26134Y-33174D01*
X26203Y-33281D01*
X26264Y-33391D01*
X26304Y-33437D01*
X26323Y-33467D01*
X26358Y-33501D01*
X26423Y-33577D01*
X42923Y-50077D01*
X43022Y-50156D01*
X43116Y-50240D01*
X43158Y-50264D01*
X43196Y-50294D01*
X43310Y-50348D01*
X43421Y-50409D01*
X43467Y-50422D01*
X43511Y-50443D01*
X43634Y-50469D01*
X43756Y-50504D01*
X43817Y-50509D01*
X43852Y-50516D01*
X43900Y-50515D01*
X44000Y-50523D01*
X108500Y-50523D01*
X108626Y-50509D01*
G37*
M02*
