G04 EAGLE Gerber X2 export*
%TF.Part,Single*%
%TF.FileFunction,Other,top copper*%
%TF.FilePolarity,Positive*%
%TF.GenerationSoftware,Autodesk,EAGLE,9.5.2*%
%TF.CreationDate,2020-03-15T17:58:39Z*%
G75*
%MOMM*%
%FSLAX34Y34*%
%LPD*%
%INtop copper*%
%AMOC8*
5,1,8,0,0,1.08239X$1,22.5*%
G01*
%ADD10C,0.000000*%
%ADD11R,0.900000X0.500000*%
%ADD12R,1.270000X1.524000*%
%ADD13R,1.350000X0.450000*%
%ADD14R,1.600000X0.800000*%
%ADD15R,2.540000X1.270000*%
%ADD16R,1.300000X1.500000*%
%ADD17R,0.700000X0.900000*%
%ADD18R,0.700000X0.400000*%
%ADD19C,0.454000*%
%ADD20C,0.254000*%
%ADD21C,0.935000*%
%ADD22C,1.020000*%
%ADD23C,0.203200*%
%ADD24C,0.304800*%
%ADD25C,0.680000*%
%ADD26C,0.850000*%
%ADD27C,0.127000*%
%ADD28C,0.609600*%
%ADD29C,1.016000*%

G36*
X1470124Y79259D02*
X1470124Y79259D01*
X1470210Y79259D01*
X1470324Y79282D01*
X1470439Y79296D01*
X1470521Y79322D01*
X1470605Y79340D01*
X1470741Y79394D01*
X1470822Y79421D01*
X1470860Y79442D01*
X1470912Y79463D01*
X1483104Y85559D01*
X1483133Y85577D01*
X1483163Y85590D01*
X1483248Y85647D01*
X1483331Y85692D01*
X1483380Y85733D01*
X1483445Y85774D01*
X1483469Y85797D01*
X1483496Y85816D01*
X1483576Y85896D01*
X1483640Y85950D01*
X1483676Y85994D01*
X1483736Y86052D01*
X1483755Y86079D01*
X1483779Y86103D01*
X1483846Y86205D01*
X1483893Y86264D01*
X1483915Y86308D01*
X1483967Y86382D01*
X1483981Y86412D01*
X1483999Y86440D01*
X1484047Y86562D01*
X1484078Y86621D01*
X1484090Y86663D01*
X1484129Y86751D01*
X1484136Y86783D01*
X1484148Y86814D01*
X1484173Y86950D01*
X1484190Y87008D01*
X1484193Y87046D01*
X1484214Y87144D01*
X1484214Y87177D01*
X1484220Y87210D01*
X1484218Y87354D01*
X1484222Y87409D01*
X1484219Y87443D01*
X1484220Y87547D01*
X1484214Y87579D01*
X1484213Y87613D01*
X1484182Y87758D01*
X1484176Y87809D01*
X1484166Y87839D01*
X1484147Y87942D01*
X1484134Y87973D01*
X1484127Y88006D01*
X1484066Y88144D01*
X1484051Y88192D01*
X1484036Y88218D01*
X1483997Y88316D01*
X1483978Y88344D01*
X1483965Y88374D01*
X1483878Y88498D01*
X1483853Y88543D01*
X1483833Y88565D01*
X1483776Y88653D01*
X1483752Y88676D01*
X1483733Y88704D01*
X1483624Y88807D01*
X1483590Y88847D01*
X1483565Y88866D01*
X1483493Y88939D01*
X1483465Y88958D01*
X1483441Y88981D01*
X1483292Y89078D01*
X1483272Y89094D01*
X1483255Y89102D01*
X1483163Y89162D01*
X1483159Y89164D01*
X1470971Y95766D01*
X1470862Y95812D01*
X1470757Y95867D01*
X1470677Y95890D01*
X1470600Y95922D01*
X1470484Y95945D01*
X1470370Y95978D01*
X1470287Y95985D01*
X1470205Y96001D01*
X1470087Y96001D01*
X1469968Y96011D01*
X1469886Y96001D01*
X1469803Y96001D01*
X1469686Y95978D01*
X1469569Y95964D01*
X1469490Y95938D01*
X1469408Y95922D01*
X1469299Y95876D01*
X1469186Y95839D01*
X1469113Y95798D01*
X1469037Y95766D01*
X1468939Y95700D01*
X1468835Y95641D01*
X1468772Y95587D01*
X1468704Y95540D01*
X1468620Y95456D01*
X1468531Y95378D01*
X1468480Y95313D01*
X1468421Y95253D01*
X1468356Y95154D01*
X1468284Y95060D01*
X1468247Y94986D01*
X1468201Y94916D01*
X1468157Y94806D01*
X1468104Y94700D01*
X1468083Y94619D01*
X1468052Y94542D01*
X1468031Y94425D01*
X1468000Y94311D01*
X1467992Y94213D01*
X1467980Y94146D01*
X1467981Y94078D01*
X1467973Y93980D01*
X1467973Y81280D01*
X1467981Y81195D01*
X1467980Y81109D01*
X1468001Y80995D01*
X1468013Y80879D01*
X1468038Y80798D01*
X1468053Y80714D01*
X1468097Y80606D01*
X1468131Y80494D01*
X1468172Y80419D01*
X1468203Y80340D01*
X1468267Y80243D01*
X1468323Y80140D01*
X1468377Y80075D01*
X1468424Y80003D01*
X1468506Y79920D01*
X1468580Y79831D01*
X1468647Y79778D01*
X1468707Y79717D01*
X1468803Y79652D01*
X1468894Y79579D01*
X1468970Y79540D01*
X1469041Y79492D01*
X1469148Y79447D01*
X1469251Y79393D01*
X1469333Y79370D01*
X1469412Y79337D01*
X1469527Y79314D01*
X1469638Y79282D01*
X1469723Y79275D01*
X1469807Y79258D01*
X1469924Y79259D01*
X1470040Y79249D01*
X1470124Y79259D01*
G37*
D10*
X0Y-23000D02*
X3000Y-26000D01*
X17000Y-26000D01*
X39750Y136500D02*
X252500Y136500D01*
X39750Y136500D02*
X23750Y120500D01*
X7000Y120500D01*
X0Y113500D01*
X0Y107500D01*
X0Y94000D02*
X0Y75000D01*
X1000Y74000D01*
X4000Y74000D01*
X5000Y73000D01*
X5000Y70000D02*
X4000Y69000D01*
X1000Y69000D01*
X0Y68000D01*
X5000Y70000D02*
X5000Y73000D01*
X0Y68000D02*
X0Y42500D01*
X1000Y41500D01*
X4000Y41500D01*
X5000Y40500D01*
X5000Y37500D02*
X4000Y36500D01*
X1000Y36500D01*
X0Y35500D01*
X5000Y37500D02*
X5000Y40500D01*
X0Y-10000D02*
X0Y-23000D01*
X0Y-3000D02*
X0Y35500D01*
X0Y-3000D02*
X1000Y-4000D01*
X4000Y-4000D02*
X5000Y-5000D01*
X4000Y-4000D02*
X1000Y-4000D01*
X5000Y-5000D02*
X5000Y-8000D01*
X4000Y-9000D01*
X1000Y-9000D01*
X0Y-10000D01*
X1000Y106500D02*
X0Y107500D01*
X1000Y106500D02*
X4000Y106500D01*
X5000Y105500D01*
X5000Y96000D01*
X4000Y95000D01*
X1000Y95000D01*
X0Y94000D01*
X252500Y136500D02*
X294500Y94500D01*
X1427610Y94500D01*
X1466610Y133500D01*
X1490010Y133500D01*
X1494000Y129500D01*
X1494000Y-70000D01*
X1490500Y-73500D01*
X1355000Y-74000D01*
X1293500Y-12500D01*
X390500Y-12000D01*
X368000Y-34500D01*
X128000Y-34500D01*
X110000Y-52500D01*
X43500Y-52500D01*
X17000Y-26000D01*
D11*
X83500Y106000D03*
X83500Y98000D03*
X83500Y90000D03*
X83500Y82000D03*
X99500Y82000D03*
X99500Y90000D03*
X99500Y98000D03*
X99500Y106000D03*
X83500Y64000D03*
X83500Y56000D03*
X83500Y48000D03*
X83500Y40000D03*
X99500Y40000D03*
X99500Y48000D03*
X99500Y56000D03*
X99500Y64000D03*
X83500Y22000D03*
X83500Y14000D03*
X83500Y6000D03*
X83500Y-2000D03*
X99500Y-2000D03*
X99500Y6000D03*
X99500Y14000D03*
X99500Y22000D03*
D12*
X64000Y-42250D03*
X88000Y-41750D03*
D13*
X6500Y0D03*
X6500Y6500D03*
X6500Y19500D03*
X6500Y26000D03*
X6500Y32500D03*
X6500Y45500D03*
X6500Y52000D03*
X6500Y58500D03*
X6500Y65000D03*
X6500Y78000D03*
X6500Y84500D03*
X6500Y91000D03*
X6500Y-19500D03*
X6500Y110500D03*
D14*
X1493690Y38110D03*
X1493690Y-63490D03*
X1493690Y-50790D03*
X1493690Y-38090D03*
X1493690Y-25390D03*
X1493690Y-12690D03*
X1493690Y10D03*
X1493690Y12710D03*
X1493690Y25410D03*
D15*
X1488610Y87640D03*
X1488610Y119390D03*
D14*
X1493690Y50810D03*
X1493690Y63510D03*
D15*
X109650Y125940D03*
D16*
X76000Y124000D03*
X57000Y124000D03*
D13*
X6500Y-13000D03*
X6500Y13000D03*
D17*
X36000Y11000D03*
X49000Y11000D03*
D18*
X34000Y0D03*
X34000Y-6500D03*
X34000Y-13000D03*
X51000Y-13000D03*
X51000Y0D03*
D19*
X6500Y0D03*
X0Y0D03*
D20*
X31243Y-6500D02*
X34000Y-6500D01*
X31243Y-6500D02*
X30999Y-6497D01*
X30756Y-6488D01*
X30512Y-6474D01*
X30269Y-6454D01*
X30027Y-6428D01*
X29785Y-6396D01*
X29544Y-6358D01*
X29305Y-6315D01*
X29066Y-6266D01*
X28828Y-6211D01*
X28592Y-6151D01*
X28357Y-6085D01*
X28124Y-6014D01*
X27893Y-5937D01*
X27663Y-5854D01*
X27436Y-5766D01*
X27211Y-5673D01*
X26988Y-5574D01*
X26767Y-5470D01*
X26549Y-5361D01*
X26334Y-5247D01*
X26122Y-5128D01*
X25912Y-5003D01*
X25705Y-4874D01*
X25502Y-4740D01*
X25301Y-4601D01*
X25105Y-4457D01*
X24911Y-4309D01*
X24721Y-4156D01*
X24535Y-3998D01*
X24353Y-3836D01*
X24175Y-3670D01*
X24000Y-3500D01*
X23790Y-3295D01*
X23575Y-3096D01*
X23355Y-2901D01*
X23131Y-2713D01*
X22902Y-2529D01*
X22669Y-2352D01*
X22431Y-2180D01*
X22189Y-2014D01*
X21943Y-1854D01*
X21694Y-1700D01*
X21440Y-1552D01*
X21183Y-1411D01*
X20923Y-1276D01*
X20659Y-1147D01*
X20393Y-1025D01*
X20123Y-910D01*
X19851Y-801D01*
X19576Y-699D01*
X19298Y-603D01*
X19019Y-515D01*
X18737Y-433D01*
X18454Y-358D01*
X18168Y-290D01*
X17881Y-230D01*
X17593Y-176D01*
X17303Y-129D01*
X17013Y-90D01*
X16721Y-58D01*
X16429Y-32D01*
X16136Y-14D01*
X15843Y-4D01*
X15550Y0D01*
X6500Y0D01*
D19*
X0Y65000D03*
X6500Y65000D03*
X0Y110500D03*
D20*
X3270Y110500D02*
X6500Y110500D01*
D19*
X6500Y110500D03*
X0Y6500D03*
D21*
X40516Y-29888D03*
D19*
X0Y-19500D03*
X6500Y-19500D03*
X6500Y6500D03*
D20*
X0Y6500D01*
X3270Y6500D02*
X6500Y6500D01*
D19*
X6500Y32500D03*
X0Y32500D03*
D22*
X1494642Y87376D03*
X1481942Y87376D03*
D23*
X1488610Y87640D01*
X53453Y10891D02*
X53453Y10492D01*
X53498Y10266D01*
X49734Y10266D01*
X49734Y11734D01*
X53453Y11734D01*
X53453Y11609D01*
X60785Y11609D01*
X60785Y10891D01*
X53453Y10891D01*
X125888Y68307D02*
X126730Y69567D01*
X127309Y70967D01*
X127605Y72452D01*
X127605Y72851D01*
X120273Y72851D01*
X120273Y73569D01*
X127605Y73569D01*
X127605Y73968D01*
X127309Y75453D01*
X126730Y76853D01*
X126154Y77714D01*
X162611Y77714D01*
X161866Y76599D01*
X161287Y75199D01*
X160991Y73714D01*
X160991Y73315D01*
X168323Y73315D01*
X168323Y72597D01*
X160991Y72597D01*
X160991Y72198D01*
X161287Y70713D01*
X161866Y69313D01*
X162553Y68286D01*
X125867Y68286D01*
X125888Y68307D01*
X55749Y-18016D02*
X46251Y-18016D01*
X55749Y-18016D02*
X56808Y-16958D01*
X60727Y-15334D01*
X60727Y-15334D01*
X61520Y-14541D01*
X61864Y-14492D01*
X62106Y-14168D01*
X60115Y-22445D01*
X59714Y-22846D01*
X59714Y-24113D01*
X59418Y-25345D01*
X59714Y-25829D01*
X59714Y-29021D01*
X58093Y-31614D01*
X56401Y-31614D01*
X54634Y-33381D01*
X54634Y-37149D01*
X54425Y-37484D01*
X54634Y-38391D01*
X54634Y-49484D01*
X44749Y-49484D01*
X18249Y-22984D01*
X16020Y-22984D01*
X16060Y-22914D01*
X16266Y-22147D01*
X16266Y-19609D01*
X11786Y-19609D01*
X11786Y-19500D01*
X6609Y-19500D01*
X6609Y-19500D01*
X11786Y-19500D01*
X11786Y-19391D01*
X16266Y-19391D01*
X16266Y-17540D01*
X18381Y-17540D01*
X21040Y-14881D01*
X21040Y-11119D01*
X18381Y-8460D01*
X15225Y-8460D01*
X14499Y-7734D01*
X8710Y-7734D01*
X8690Y-7714D01*
X8016Y-7714D01*
X8016Y-5286D01*
X8690Y-5286D01*
X8710Y-5266D01*
X14499Y-5266D01*
X15479Y-4286D01*
X15550Y-4286D01*
X17045Y-4433D01*
X19808Y-5578D01*
X19808Y-5578D01*
X20969Y-6531D01*
X22225Y-7786D01*
X22225Y-7786D01*
X23013Y-8574D01*
X23013Y-8574D01*
X27527Y-10444D01*
X27484Y-10603D01*
X27484Y-13000D01*
X34000Y-13000D01*
X34000Y-13000D01*
X27484Y-13000D01*
X27484Y-15397D01*
X27690Y-16164D01*
X28087Y-16852D01*
X28648Y-17413D01*
X29336Y-17810D01*
X30103Y-18016D01*
X34000Y-18016D01*
X34000Y-13000D01*
X34000Y-13000D01*
X34000Y-18016D01*
X37897Y-18016D01*
X38664Y-17810D01*
X39352Y-17413D01*
X39913Y-16852D01*
X40310Y-16164D01*
X40516Y-15397D01*
X40516Y-13000D01*
X34000Y-13000D01*
X34000Y-13000D01*
X40516Y-13000D01*
X40516Y-10603D01*
X40336Y-9930D01*
X40516Y-9749D01*
X40516Y-3251D01*
X40515Y-3250D01*
X40516Y-3249D01*
X40516Y-1436D01*
X42559Y-3479D01*
X42816Y-3479D01*
X43137Y-3612D01*
X44810Y-5286D01*
X49190Y-5286D01*
X49460Y-5016D01*
X55749Y-5016D01*
X57516Y-3249D01*
X57516Y3249D01*
X55749Y5016D01*
X55126Y5016D01*
X55310Y5336D01*
X55495Y6023D01*
X56241Y5276D01*
X57501Y4434D01*
X58901Y3855D01*
X60386Y3559D01*
X60785Y3559D01*
X60785Y10891D01*
X61503Y10891D01*
X61503Y3559D01*
X61902Y3559D01*
X62014Y3581D01*
X59568Y-3266D01*
X56329Y-7584D01*
X55825Y-7998D01*
X55781Y-8016D01*
X55749Y-7984D01*
X46251Y-7984D01*
X44484Y-9751D01*
X44484Y-16249D01*
X46251Y-18016D01*
X40875Y-22197D02*
X40875Y-29529D01*
X40157Y-29529D01*
X40157Y-22197D01*
X39758Y-22197D01*
X38273Y-22493D01*
X36873Y-23072D01*
X35613Y-23914D01*
X34542Y-24985D01*
X33700Y-26245D01*
X33121Y-27645D01*
X32825Y-29130D01*
X32825Y-29529D01*
X40157Y-29529D01*
X40157Y-30247D01*
X32825Y-30247D01*
X32825Y-30646D01*
X33121Y-32131D01*
X33700Y-33531D01*
X34542Y-34791D01*
X35613Y-35862D01*
X36873Y-36704D01*
X38273Y-37283D01*
X39758Y-37579D01*
X40157Y-37579D01*
X40157Y-30247D01*
X40875Y-30247D01*
X40875Y-37579D01*
X41274Y-37579D01*
X42759Y-37283D01*
X44159Y-36704D01*
X45419Y-35862D01*
X46490Y-34791D01*
X47332Y-33531D01*
X47911Y-32131D01*
X48207Y-30646D01*
X48207Y-30247D01*
X40875Y-30247D01*
X40875Y-29529D01*
X48207Y-29529D01*
X48207Y-29130D01*
X47911Y-27645D01*
X47332Y-26245D01*
X46490Y-24985D01*
X45419Y-23914D01*
X44159Y-23072D01*
X42759Y-22493D01*
X41274Y-22197D01*
X40875Y-22197D01*
X64924Y41649D02*
X66234Y41742D01*
X64924Y41649D02*
X64585Y41257D01*
X64087Y41111D01*
X63459Y39958D01*
X57916Y33562D01*
X50134Y30286D01*
X33107Y30286D01*
X34047Y30914D01*
X35118Y31985D01*
X35960Y33245D01*
X36539Y34645D01*
X36835Y36130D01*
X36835Y36529D01*
X29503Y36529D01*
X29503Y37247D01*
X36835Y37247D01*
X36835Y37646D01*
X36539Y39131D01*
X35960Y40531D01*
X35503Y41214D01*
X51037Y41214D01*
X51284Y41023D01*
X52774Y41214D01*
X54275Y41214D01*
X54496Y41435D01*
X72274Y43714D01*
X72938Y43714D01*
X66234Y41742D01*
X14499Y96266D02*
X8710Y96266D01*
X8690Y96286D01*
X8016Y96286D01*
X8016Y105234D01*
X13571Y105234D01*
X13446Y105047D01*
X12867Y103647D01*
X12571Y102162D01*
X12571Y101763D01*
X19903Y101763D01*
X19903Y101045D01*
X12571Y101045D01*
X12571Y100646D01*
X12867Y99161D01*
X13446Y97761D01*
X14288Y96501D01*
X15359Y95430D01*
X15575Y95286D01*
X15479Y95286D01*
X14499Y96266D01*
X48328Y73043D02*
X47749Y71643D01*
X47453Y70158D01*
X47453Y69759D01*
X54785Y69759D01*
X54785Y69041D01*
X47453Y69041D01*
X47453Y68642D01*
X47749Y67157D01*
X48328Y65757D01*
X49170Y64497D01*
X50241Y63426D01*
X51199Y62786D01*
X16266Y62786D01*
X16266Y64891D01*
X11786Y64891D01*
X11786Y65000D01*
X6609Y65000D01*
X6609Y65000D01*
X11786Y65000D01*
X11786Y65109D01*
X16266Y65109D01*
X16266Y67647D01*
X16060Y68414D01*
X15663Y69102D01*
X15102Y69663D01*
X14414Y70060D01*
X13647Y70266D01*
X8016Y70266D01*
X8016Y72714D01*
X8690Y72714D01*
X8710Y72734D01*
X14499Y72734D01*
X15479Y73714D01*
X48777Y73714D01*
X48328Y73043D01*
X22328Y40531D02*
X21749Y39131D01*
X21453Y37646D01*
X21453Y37247D01*
X28785Y37247D01*
X28785Y36529D01*
X21453Y36529D01*
X21453Y36130D01*
X21749Y34645D01*
X22328Y33245D01*
X23170Y31985D01*
X24241Y30914D01*
X25181Y30286D01*
X16266Y30286D01*
X16266Y32391D01*
X11786Y32391D01*
X11786Y32500D01*
X6609Y32500D01*
X6609Y32500D01*
X11786Y32500D01*
X11786Y32609D01*
X16266Y32609D01*
X16266Y35147D01*
X16060Y35914D01*
X15663Y36602D01*
X15102Y37163D01*
X14414Y37560D01*
X13647Y37766D01*
X8016Y37766D01*
X8016Y40214D01*
X8690Y40214D01*
X8710Y40234D01*
X14499Y40234D01*
X15479Y41214D01*
X22785Y41214D01*
X22328Y40531D01*
X6500Y110609D02*
X6500Y115735D01*
X6500Y115735D01*
X6500Y110609D01*
X6500Y110609D01*
X1487594Y87860D02*
X1487594Y86892D01*
X1482426Y86892D01*
X1482426Y87860D01*
X1487594Y87860D01*
X29719Y5016D02*
X29484Y5251D01*
X29251Y5016D02*
X29719Y5016D01*
X29251Y5016D02*
X27484Y3249D01*
X27484Y-841D01*
X27031Y-469D01*
X27031Y-469D01*
X26977Y-415D01*
X25775Y786D01*
X25775Y786D01*
X24747Y1814D01*
X18780Y4286D01*
X16266Y4286D01*
X16266Y6391D01*
X11786Y6391D01*
X11786Y6500D01*
X6609Y6500D01*
X6609Y6500D01*
X11786Y6500D01*
X11786Y6609D01*
X16266Y6609D01*
X16266Y8460D01*
X29484Y8460D01*
X29484Y5251D01*
X92286Y-18118D02*
X92286Y-18118D01*
X90594Y-14033D01*
X90594Y-14033D01*
X90286Y-13725D01*
X90286Y-13725D01*
X87970Y-11409D01*
X87892Y-11313D01*
X87798Y-11087D01*
X87786Y-10964D01*
X87786Y-9107D01*
X88449Y-7516D01*
X89249Y-7516D01*
X91016Y-5749D01*
X91016Y1749D01*
X90765Y2000D01*
X91016Y2251D01*
X91016Y9749D01*
X90765Y10000D01*
X91016Y10251D01*
X91016Y17749D01*
X90765Y18000D01*
X91016Y18251D01*
X91016Y25749D01*
X89249Y27516D01*
X77751Y27516D01*
X76521Y26286D01*
X69463Y26286D01*
X69216Y26477D01*
X67726Y26286D01*
X66225Y26286D01*
X66004Y26065D01*
X60534Y25364D01*
X61511Y25775D01*
X62576Y25851D01*
X63084Y26438D01*
X63799Y26739D01*
X64202Y27728D01*
X69415Y33743D01*
X76117Y35714D01*
X76521Y35714D01*
X77751Y34484D01*
X89249Y34484D01*
X91016Y36251D01*
X91016Y43749D01*
X90765Y44000D01*
X91016Y44251D01*
X91016Y51749D01*
X90765Y52000D01*
X91016Y52251D01*
X91016Y59749D01*
X90765Y60000D01*
X91016Y60251D01*
X91016Y67749D01*
X89249Y69516D01*
X77751Y69516D01*
X76521Y68286D01*
X73118Y68286D01*
X72545Y68607D01*
X71407Y68286D01*
X70225Y68286D01*
X69760Y67821D01*
X61848Y65590D01*
X61960Y65757D01*
X62539Y67157D01*
X62835Y68642D01*
X62835Y69041D01*
X55503Y69041D01*
X55503Y69759D01*
X62835Y69759D01*
X62835Y70158D01*
X62539Y71643D01*
X61960Y73043D01*
X61118Y74303D01*
X60214Y75207D01*
X72435Y77714D01*
X76521Y77714D01*
X77751Y76484D01*
X89249Y76484D01*
X91016Y78251D01*
X91016Y85749D01*
X90765Y86000D01*
X91016Y86251D01*
X91016Y93749D01*
X90765Y94000D01*
X91016Y94251D01*
X91016Y101749D01*
X90671Y102094D01*
X90810Y102336D01*
X91016Y103103D01*
X91016Y105766D01*
X83734Y105766D01*
X83734Y106234D01*
X91016Y106234D01*
X91016Y108897D01*
X90810Y109664D01*
X90413Y110352D01*
X89852Y110913D01*
X89164Y111310D01*
X88397Y111516D01*
X83734Y111516D01*
X83734Y106234D01*
X83266Y106234D01*
X83266Y111516D01*
X78603Y111516D01*
X77836Y111310D01*
X77148Y110913D01*
X76587Y110352D01*
X76190Y109664D01*
X75984Y108897D01*
X75984Y106234D01*
X83266Y106234D01*
X83266Y105766D01*
X75984Y105766D01*
X75984Y103103D01*
X76190Y102336D01*
X76218Y102286D01*
X72960Y102286D01*
X72223Y102634D01*
X71254Y102286D01*
X70225Y102286D01*
X69648Y101710D01*
X51754Y95286D01*
X24949Y95286D01*
X25165Y95430D01*
X26236Y96501D01*
X27078Y97761D01*
X27657Y99161D01*
X27953Y100646D01*
X27953Y101045D01*
X20621Y101045D01*
X20621Y101763D01*
X27953Y101763D01*
X27953Y102162D01*
X27657Y103647D01*
X27078Y105047D01*
X26236Y106307D01*
X25165Y107378D01*
X23905Y108220D01*
X22505Y108799D01*
X21020Y109095D01*
X20621Y109095D01*
X20621Y101763D01*
X19903Y101763D01*
X19903Y109095D01*
X19504Y109095D01*
X18019Y108799D01*
X16619Y108220D01*
X16266Y107984D01*
X16266Y110391D01*
X11786Y110391D01*
X11786Y110500D01*
X6609Y110500D01*
X6609Y110500D01*
X11786Y110500D01*
X11786Y110609D01*
X16266Y110609D01*
X16266Y113147D01*
X16060Y113914D01*
X15663Y114602D01*
X15102Y115163D01*
X14414Y115560D01*
X13647Y115766D01*
X7271Y115766D01*
X7196Y115786D01*
X6551Y115786D01*
X8249Y117484D01*
X24999Y117484D01*
X26766Y119251D01*
X40999Y133484D01*
X48219Y133484D01*
X48087Y133352D01*
X47690Y132664D01*
X47484Y131897D01*
X47484Y125016D01*
X55984Y125016D01*
X55984Y122984D01*
X47484Y122984D01*
X47484Y116525D01*
X46978Y117747D01*
X46136Y119007D01*
X45065Y120078D01*
X43805Y120920D01*
X42405Y121499D01*
X40920Y121795D01*
X40521Y121795D01*
X40521Y114463D01*
X39803Y114463D01*
X39803Y121795D01*
X39404Y121795D01*
X37919Y121499D01*
X36519Y120920D01*
X35259Y120078D01*
X34188Y119007D01*
X33346Y117747D01*
X32767Y116347D01*
X32471Y114862D01*
X32471Y114463D01*
X39803Y114463D01*
X39803Y113745D01*
X32471Y113745D01*
X32471Y113346D01*
X32767Y111861D01*
X33346Y110461D01*
X34188Y109201D01*
X35259Y108130D01*
X36519Y107288D01*
X37919Y106709D01*
X39404Y106413D01*
X39803Y106413D01*
X39803Y113745D01*
X40521Y113745D01*
X40521Y106413D01*
X40920Y106413D01*
X42405Y106709D01*
X43805Y107288D01*
X45065Y108130D01*
X46136Y109201D01*
X46978Y110461D01*
X47557Y111861D01*
X47853Y113346D01*
X47853Y113745D01*
X40521Y113745D01*
X40521Y114463D01*
X47853Y114463D01*
X47853Y114862D01*
X47795Y115153D01*
X48087Y114648D01*
X48648Y114087D01*
X49336Y113690D01*
X50103Y113484D01*
X55984Y113484D01*
X55984Y122984D01*
X58016Y122984D01*
X58016Y113484D01*
X63897Y113484D01*
X64664Y113690D01*
X65352Y114087D01*
X65913Y114648D01*
X66310Y115336D01*
X66484Y115984D01*
X66484Y115251D01*
X68251Y113484D01*
X83749Y113484D01*
X85516Y115251D01*
X85516Y116440D01*
X88952Y119876D01*
X93934Y119876D01*
X93934Y118341D01*
X95701Y116574D01*
X123599Y116574D01*
X125366Y118341D01*
X125366Y119876D01*
X145795Y119876D01*
X146594Y119077D01*
X149570Y117844D01*
X178190Y117844D01*
X181166Y119077D01*
X181965Y119876D01*
X240559Y119876D01*
X243083Y119711D01*
X247959Y118404D01*
X252330Y115880D01*
X254232Y114213D01*
X282237Y86208D01*
X282545Y85899D01*
X285789Y82656D01*
X286942Y81503D01*
X286942Y81503D01*
X294116Y77360D01*
X294116Y77360D01*
X302119Y75216D01*
X1419071Y75216D01*
X1427074Y77360D01*
X1427074Y77360D01*
X1434248Y81503D01*
X1434248Y81503D01*
X1435401Y82656D01*
X1435401Y82656D01*
X1460408Y107663D01*
X1462310Y109330D01*
X1466681Y111854D01*
X1470981Y113006D01*
X1470981Y109806D01*
X1471948Y108839D01*
X1490984Y108839D01*
X1490984Y97006D01*
X1489626Y97006D01*
X1489626Y93785D01*
X1489468Y93680D01*
X1488338Y92550D01*
X1488292Y92481D01*
X1488246Y92550D01*
X1487594Y93202D01*
X1487594Y97006D01*
X1475513Y97006D01*
X1474746Y96800D01*
X1474058Y96403D01*
X1473497Y95842D01*
X1473100Y95154D01*
X1472894Y94387D01*
X1472894Y88656D01*
X1473922Y88656D01*
X1473826Y88175D01*
X1473826Y87860D01*
X1481458Y87860D01*
X1481458Y86892D01*
X1473826Y86892D01*
X1473826Y86624D01*
X1472894Y86624D01*
X1472894Y80893D01*
X1473100Y80126D01*
X1473497Y79438D01*
X1474058Y78877D01*
X1474746Y78480D01*
X1475513Y78274D01*
X1487594Y78274D01*
X1487594Y81550D01*
X1488246Y82202D01*
X1488292Y82271D01*
X1488338Y82202D01*
X1489468Y81072D01*
X1489626Y80967D01*
X1489626Y78274D01*
X1490984Y78274D01*
X1490984Y72671D01*
X1490884Y72771D01*
X1472178Y72771D01*
X1471211Y71804D01*
X1471211Y-70555D01*
X1356245Y-70979D01*
X1333237Y-47972D01*
X1333452Y-48015D01*
X1333851Y-48015D01*
X1333851Y-40683D01*
X1334569Y-40683D01*
X1334569Y-48015D01*
X1334968Y-48015D01*
X1336453Y-47719D01*
X1337853Y-47140D01*
X1339113Y-46298D01*
X1340184Y-45227D01*
X1341026Y-43967D01*
X1341605Y-42567D01*
X1341901Y-41082D01*
X1341901Y-40683D01*
X1334569Y-40683D01*
X1334569Y-39965D01*
X1341901Y-39965D01*
X1341901Y-39566D01*
X1341605Y-38081D01*
X1341026Y-36681D01*
X1340184Y-35421D01*
X1339113Y-34350D01*
X1337853Y-33508D01*
X1336453Y-32929D01*
X1334968Y-32633D01*
X1334569Y-32633D01*
X1334569Y-39965D01*
X1333851Y-39965D01*
X1333851Y-32633D01*
X1333452Y-32633D01*
X1331967Y-32929D01*
X1330567Y-33508D01*
X1329307Y-34350D01*
X1328236Y-35421D01*
X1327394Y-36681D01*
X1326815Y-38081D01*
X1326519Y-39566D01*
X1326519Y-39965D01*
X1333851Y-39965D01*
X1333851Y-40683D01*
X1326519Y-40683D01*
X1326519Y-41082D01*
X1326562Y-41297D01*
X1295648Y-10383D01*
X1294751Y-9485D01*
X1294750Y-9485D01*
X1294749Y-9484D01*
X1293510Y-9484D01*
X391750Y-8985D01*
X391749Y-8984D01*
X390493Y-8984D01*
X389252Y-8983D01*
X389252Y-8984D01*
X389251Y-8984D01*
X388382Y-9853D01*
X387485Y-10749D01*
X387485Y-10750D01*
X366751Y-31484D01*
X126751Y-31484D01*
X108751Y-49484D01*
X97366Y-49484D01*
X97366Y-38488D01*
X97594Y-37607D01*
X97366Y-37219D01*
X97366Y-32881D01*
X95599Y-31114D01*
X93775Y-31114D01*
X92286Y-28583D01*
X92286Y-18553D01*
X92286Y-18118D01*
X195877Y110471D02*
X195877Y117803D01*
X195877Y110471D02*
X195159Y110471D01*
X195159Y117803D01*
X194760Y117803D01*
X193275Y117507D01*
X191875Y116928D01*
X190615Y116086D01*
X189544Y115015D01*
X188702Y113755D01*
X188123Y112355D01*
X187827Y110870D01*
X187827Y110471D01*
X195159Y110471D01*
X195159Y109753D01*
X187827Y109753D01*
X187827Y109354D01*
X188123Y107869D01*
X188702Y106469D01*
X189544Y105209D01*
X190615Y104138D01*
X191875Y103296D01*
X193275Y102717D01*
X194760Y102421D01*
X195159Y102421D01*
X195159Y109753D01*
X195877Y109753D01*
X195877Y102421D01*
X196276Y102421D01*
X197761Y102717D01*
X199161Y103296D01*
X200421Y104138D01*
X201492Y105209D01*
X202334Y106469D01*
X202913Y107869D01*
X203209Y109354D01*
X203209Y109753D01*
X195877Y109753D01*
X195877Y110471D01*
X203209Y110471D01*
X203209Y110870D01*
X202913Y112355D01*
X202334Y113755D01*
X201492Y115015D01*
X200421Y116086D01*
X199161Y116928D01*
X197761Y117507D01*
X196276Y117803D01*
X195877Y117803D01*
X1429157Y56517D02*
X1429157Y49185D01*
X1428439Y49185D01*
X1428439Y56517D01*
X1428040Y56517D01*
X1426555Y56221D01*
X1425155Y55642D01*
X1423895Y54800D01*
X1422824Y53729D01*
X1421982Y52469D01*
X1421403Y51069D01*
X1421107Y49584D01*
X1421107Y49185D01*
X1428439Y49185D01*
X1428439Y48467D01*
X1421107Y48467D01*
X1421107Y48068D01*
X1421403Y46583D01*
X1421982Y45183D01*
X1422824Y43923D01*
X1423895Y42852D01*
X1425155Y42010D01*
X1426555Y41431D01*
X1428040Y41135D01*
X1428439Y41135D01*
X1428439Y48467D01*
X1429157Y48467D01*
X1429157Y41135D01*
X1429556Y41135D01*
X1431041Y41431D01*
X1432441Y42010D01*
X1433701Y42852D01*
X1434772Y43923D01*
X1435614Y45183D01*
X1436193Y46583D01*
X1436489Y48068D01*
X1436489Y48467D01*
X1429157Y48467D01*
X1429157Y49185D01*
X1436489Y49185D01*
X1436489Y49584D01*
X1436193Y51069D01*
X1435614Y52469D01*
X1434772Y53729D01*
X1433701Y54800D01*
X1432441Y55642D01*
X1431041Y56221D01*
X1429556Y56517D01*
X1429157Y56517D01*
X1391581Y34197D02*
X1391581Y26865D01*
X1390863Y26865D01*
X1390863Y34197D01*
X1390464Y34197D01*
X1388979Y33901D01*
X1387579Y33322D01*
X1386319Y32480D01*
X1385248Y31409D01*
X1384406Y30149D01*
X1383827Y28749D01*
X1383531Y27264D01*
X1383531Y26865D01*
X1390863Y26865D01*
X1390863Y26147D01*
X1383531Y26147D01*
X1383531Y25748D01*
X1383827Y24263D01*
X1384406Y22863D01*
X1385248Y21603D01*
X1386319Y20532D01*
X1387579Y19690D01*
X1388979Y19111D01*
X1390464Y18815D01*
X1390863Y18815D01*
X1390863Y26147D01*
X1391581Y26147D01*
X1391581Y18815D01*
X1391980Y18815D01*
X1393465Y19111D01*
X1394865Y19690D01*
X1396125Y20532D01*
X1397196Y21603D01*
X1398038Y22863D01*
X1398617Y24263D01*
X1398913Y25748D01*
X1398913Y26147D01*
X1391581Y26147D01*
X1391581Y26865D01*
X1398913Y26865D01*
X1398913Y27264D01*
X1398617Y28749D01*
X1398038Y30149D01*
X1397196Y31409D01*
X1396125Y32480D01*
X1394865Y33322D01*
X1393465Y33901D01*
X1391980Y34197D01*
X1391581Y34197D01*
X1464725Y100771D02*
X1464725Y108103D01*
X1464725Y100771D02*
X1464007Y100771D01*
X1464007Y108103D01*
X1463608Y108103D01*
X1462123Y107807D01*
X1460723Y107228D01*
X1459463Y106386D01*
X1458392Y105315D01*
X1457550Y104055D01*
X1456971Y102655D01*
X1456675Y101170D01*
X1456675Y100771D01*
X1464007Y100771D01*
X1464007Y100053D01*
X1456675Y100053D01*
X1456675Y99654D01*
X1456971Y98169D01*
X1457550Y96769D01*
X1458392Y95509D01*
X1459463Y94438D01*
X1460723Y93596D01*
X1462123Y93017D01*
X1463608Y92721D01*
X1464007Y92721D01*
X1464007Y100053D01*
X1464725Y100053D01*
X1464725Y92721D01*
X1465124Y92721D01*
X1466609Y93017D01*
X1468009Y93596D01*
X1469269Y94438D01*
X1470340Y95509D01*
X1471182Y96769D01*
X1471761Y98169D01*
X1472057Y99654D01*
X1472057Y100053D01*
X1464725Y100053D01*
X1464725Y100771D01*
X1472057Y100771D01*
X1472057Y101170D01*
X1471761Y102655D01*
X1471182Y104055D01*
X1470340Y105315D01*
X1469269Y106386D01*
X1468009Y107228D01*
X1466609Y107807D01*
X1465124Y108103D01*
X1464725Y108103D01*
X144911Y-12317D02*
X144911Y-19649D01*
X144193Y-19649D01*
X144193Y-12317D01*
X143794Y-12317D01*
X142309Y-12613D01*
X140909Y-13192D01*
X139649Y-14034D01*
X138578Y-15105D01*
X137736Y-16365D01*
X137157Y-17765D01*
X136861Y-19250D01*
X136861Y-19649D01*
X144193Y-19649D01*
X144193Y-20367D01*
X136861Y-20367D01*
X136861Y-20766D01*
X137157Y-22251D01*
X137736Y-23651D01*
X138578Y-24911D01*
X139649Y-25982D01*
X140909Y-26824D01*
X142309Y-27403D01*
X143794Y-27699D01*
X144193Y-27699D01*
X144193Y-20367D01*
X144911Y-20367D01*
X144911Y-27699D01*
X145310Y-27699D01*
X146795Y-27403D01*
X148195Y-26824D01*
X149455Y-25982D01*
X150526Y-24911D01*
X151368Y-23651D01*
X151947Y-22251D01*
X152243Y-20766D01*
X152243Y-20367D01*
X144911Y-20367D01*
X144911Y-19649D01*
X152243Y-19649D01*
X152243Y-19250D01*
X151947Y-17765D01*
X151368Y-16365D01*
X150526Y-15105D01*
X149455Y-14034D01*
X148195Y-13192D01*
X146795Y-12613D01*
X145310Y-12317D01*
X144911Y-12317D01*
X143877Y110471D02*
X143877Y117803D01*
X143877Y110471D02*
X143159Y110471D01*
X143159Y117803D01*
X142760Y117803D01*
X141275Y117507D01*
X139875Y116928D01*
X138615Y116086D01*
X137544Y115015D01*
X136702Y113755D01*
X136123Y112355D01*
X135827Y110870D01*
X135827Y110471D01*
X143159Y110471D01*
X143159Y109753D01*
X135827Y109753D01*
X135827Y109354D01*
X136123Y107869D01*
X136702Y106469D01*
X137544Y105209D01*
X138615Y104138D01*
X139875Y103296D01*
X141275Y102717D01*
X142760Y102421D01*
X143159Y102421D01*
X143159Y109753D01*
X143877Y109753D01*
X143877Y102421D01*
X144276Y102421D01*
X145761Y102717D01*
X147161Y103296D01*
X148421Y104138D01*
X149492Y105209D01*
X150334Y106469D01*
X150913Y107869D01*
X151209Y109354D01*
X151209Y109753D01*
X143877Y109753D01*
X143877Y110471D01*
X151209Y110471D01*
X151209Y110870D01*
X150913Y112355D01*
X150334Y113755D01*
X149492Y115015D01*
X148421Y116086D01*
X147161Y116928D01*
X145761Y117507D01*
X144276Y117803D01*
X143877Y117803D01*
X185551Y-12571D02*
X185551Y-19903D01*
X184833Y-19903D01*
X184833Y-12571D01*
X184434Y-12571D01*
X182949Y-12867D01*
X181549Y-13446D01*
X180289Y-14288D01*
X179218Y-15359D01*
X178376Y-16619D01*
X177797Y-18019D01*
X177501Y-19504D01*
X177501Y-19903D01*
X184833Y-19903D01*
X184833Y-20621D01*
X177501Y-20621D01*
X177501Y-21020D01*
X177797Y-22505D01*
X178376Y-23905D01*
X179218Y-25165D01*
X180289Y-26236D01*
X181549Y-27078D01*
X182949Y-27657D01*
X184434Y-27953D01*
X184833Y-27953D01*
X184833Y-20621D01*
X185551Y-20621D01*
X185551Y-27953D01*
X185950Y-27953D01*
X187435Y-27657D01*
X188835Y-27078D01*
X190095Y-26236D01*
X191166Y-25165D01*
X192008Y-23905D01*
X192587Y-22505D01*
X192883Y-21020D01*
X192883Y-20621D01*
X185551Y-20621D01*
X185551Y-19903D01*
X192883Y-19903D01*
X192883Y-19504D01*
X192587Y-18019D01*
X192008Y-16619D01*
X191166Y-15359D01*
X190095Y-14288D01*
X188835Y-13446D01*
X187435Y-12867D01*
X185950Y-12571D01*
X185551Y-12571D01*
X1449969Y83761D02*
X1449969Y91093D01*
X1449969Y83761D02*
X1449251Y83761D01*
X1449251Y91093D01*
X1448852Y91093D01*
X1447367Y90797D01*
X1445967Y90218D01*
X1444707Y89376D01*
X1443636Y88305D01*
X1442794Y87045D01*
X1442215Y85645D01*
X1441919Y84160D01*
X1441919Y83761D01*
X1449251Y83761D01*
X1449251Y83043D01*
X1441919Y83043D01*
X1441919Y82644D01*
X1442215Y81159D01*
X1442794Y79759D01*
X1443636Y78499D01*
X1444707Y77428D01*
X1445967Y76586D01*
X1447367Y76007D01*
X1448852Y75711D01*
X1449251Y75711D01*
X1449251Y83043D01*
X1449969Y83043D01*
X1449969Y75711D01*
X1450368Y75711D01*
X1451853Y76007D01*
X1453253Y76586D01*
X1454513Y77428D01*
X1455584Y78499D01*
X1456426Y79759D01*
X1457005Y81159D01*
X1457301Y82644D01*
X1457301Y83043D01*
X1449969Y83043D01*
X1449969Y83761D01*
X1457301Y83761D01*
X1457301Y84160D01*
X1457005Y85645D01*
X1456426Y87045D01*
X1455584Y88305D01*
X1454513Y89376D01*
X1453253Y90218D01*
X1451853Y90797D01*
X1450368Y91093D01*
X1449969Y91093D01*
X1360069Y-633D02*
X1360069Y-7965D01*
X1359351Y-7965D01*
X1359351Y-633D01*
X1358952Y-633D01*
X1357467Y-929D01*
X1356067Y-1508D01*
X1354807Y-2350D01*
X1353736Y-3421D01*
X1352894Y-4681D01*
X1352315Y-6081D01*
X1352019Y-7566D01*
X1352019Y-7965D01*
X1359351Y-7965D01*
X1359351Y-8683D01*
X1352019Y-8683D01*
X1352019Y-9082D01*
X1352315Y-10567D01*
X1352894Y-11967D01*
X1353736Y-13227D01*
X1354807Y-14298D01*
X1356067Y-15140D01*
X1357467Y-15719D01*
X1358952Y-16015D01*
X1359351Y-16015D01*
X1359351Y-8683D01*
X1360069Y-8683D01*
X1360069Y-16015D01*
X1360468Y-16015D01*
X1361953Y-15719D01*
X1363353Y-15140D01*
X1364613Y-14298D01*
X1365684Y-13227D01*
X1366526Y-11967D01*
X1367105Y-10567D01*
X1367401Y-9082D01*
X1367401Y-8683D01*
X1360069Y-8683D01*
X1360069Y-7965D01*
X1367401Y-7965D01*
X1367401Y-7566D01*
X1367105Y-6081D01*
X1366526Y-4681D01*
X1365684Y-3421D01*
X1364613Y-2350D01*
X1363353Y-1508D01*
X1361953Y-929D01*
X1360468Y-633D01*
X1360069Y-633D01*
X1410091Y36739D02*
X1410091Y44071D01*
X1410091Y36739D02*
X1409373Y36739D01*
X1409373Y44071D01*
X1408974Y44071D01*
X1407489Y43775D01*
X1406089Y43196D01*
X1404829Y42354D01*
X1403758Y41283D01*
X1402916Y40023D01*
X1402337Y38623D01*
X1402041Y37138D01*
X1402041Y36739D01*
X1409373Y36739D01*
X1409373Y36021D01*
X1402041Y36021D01*
X1402041Y35622D01*
X1402337Y34137D01*
X1402916Y32737D01*
X1403758Y31477D01*
X1404829Y30406D01*
X1406089Y29564D01*
X1407489Y28985D01*
X1408974Y28689D01*
X1409373Y28689D01*
X1409373Y36021D01*
X1410091Y36021D01*
X1410091Y28689D01*
X1410490Y28689D01*
X1411975Y28985D01*
X1413375Y29564D01*
X1414635Y30406D01*
X1415706Y31477D01*
X1416548Y32737D01*
X1417127Y34137D01*
X1417423Y35622D01*
X1417423Y36021D01*
X1410091Y36021D01*
X1410091Y36739D01*
X1417423Y36739D01*
X1417423Y37138D01*
X1417127Y38623D01*
X1416548Y40023D01*
X1415706Y41283D01*
X1414635Y42354D01*
X1413375Y43196D01*
X1411975Y43775D01*
X1410490Y44071D01*
X1410091Y44071D01*
X234877Y110471D02*
X234877Y117803D01*
X234877Y110471D02*
X234159Y110471D01*
X234159Y117803D01*
X233760Y117803D01*
X232275Y117507D01*
X230875Y116928D01*
X229615Y116086D01*
X228544Y115015D01*
X227702Y113755D01*
X227123Y112355D01*
X226827Y110870D01*
X226827Y110471D01*
X234159Y110471D01*
X234159Y109753D01*
X226827Y109753D01*
X226827Y109354D01*
X227123Y107869D01*
X227702Y106469D01*
X228544Y105209D01*
X229615Y104138D01*
X230875Y103296D01*
X232275Y102717D01*
X233760Y102421D01*
X234159Y102421D01*
X234159Y109753D01*
X234877Y109753D01*
X234877Y102421D01*
X235276Y102421D01*
X236761Y102717D01*
X238161Y103296D01*
X239421Y104138D01*
X240492Y105209D01*
X241334Y106469D01*
X241913Y107869D01*
X242209Y109354D01*
X242209Y109753D01*
X234877Y109753D01*
X234877Y110471D01*
X242209Y110471D01*
X242209Y110870D01*
X241913Y112355D01*
X241334Y113755D01*
X240492Y115015D01*
X239421Y116086D01*
X238161Y116928D01*
X236761Y117507D01*
X235276Y117803D01*
X234877Y117803D01*
X243916Y11276D02*
X243916Y8724D01*
X243916Y11276D02*
X242939Y13634D01*
X241134Y15439D01*
X238776Y16416D01*
X237145Y16416D01*
X208715Y44846D01*
X208715Y44846D01*
X207207Y46355D01*
X207207Y46355D01*
X200437Y50263D01*
X200437Y50263D01*
X195022Y51714D01*
X200979Y51714D01*
X203735Y51533D01*
X209059Y50107D01*
X213832Y47351D01*
X213832Y47351D01*
X215909Y45530D01*
X216666Y44773D01*
X217164Y44275D01*
X217164Y44275D01*
X251084Y10355D01*
X251084Y8724D01*
X252061Y6366D01*
X253866Y4561D01*
X256224Y3584D01*
X258776Y3584D01*
X261134Y4561D01*
X262939Y6366D01*
X263916Y8724D01*
X263916Y11276D01*
X262939Y13634D01*
X261134Y15439D01*
X258776Y16416D01*
X257145Y16416D01*
X223225Y50336D01*
X223225Y50336D01*
X222726Y50835D01*
X220715Y52846D01*
X220715Y52846D01*
X219207Y54355D01*
X212437Y58263D01*
X212437Y58263D01*
X207022Y59714D01*
X212979Y59714D01*
X215735Y59533D01*
X221059Y58107D01*
X225832Y55351D01*
X227909Y53530D01*
X271084Y10355D01*
X271084Y8724D01*
X272061Y6366D01*
X273866Y4561D01*
X276224Y3584D01*
X278776Y3584D01*
X281134Y4561D01*
X282939Y6366D01*
X283916Y8724D01*
X283916Y11276D01*
X282939Y13634D01*
X281134Y15439D01*
X278776Y16416D01*
X277145Y16416D01*
X232715Y60846D01*
X232715Y60846D01*
X231207Y62355D01*
X231207Y62355D01*
X224437Y66263D01*
X224437Y66263D01*
X216887Y68286D01*
X174811Y68286D01*
X175498Y69313D01*
X176077Y70713D01*
X176373Y72198D01*
X176373Y72597D01*
X169041Y72597D01*
X169041Y73315D01*
X176373Y73315D01*
X176373Y73714D01*
X176077Y75199D01*
X175498Y76599D01*
X174753Y77714D01*
X214979Y77714D01*
X217735Y77533D01*
X223059Y76107D01*
X227832Y73351D01*
X227832Y73351D01*
X229909Y71530D01*
X231148Y70291D01*
X231164Y70275D01*
X319084Y-17645D01*
X319084Y-19276D01*
X320061Y-21634D01*
X321866Y-23439D01*
X324224Y-24416D01*
X326776Y-24416D01*
X329134Y-23439D01*
X330939Y-21634D01*
X331916Y-19276D01*
X331916Y-16724D01*
X330939Y-14366D01*
X329134Y-12561D01*
X326776Y-11584D01*
X325145Y-11584D01*
X237225Y76336D01*
X237209Y76352D01*
X234715Y78846D01*
X234715Y78846D01*
X233207Y80355D01*
X226437Y84263D01*
X226437Y84263D01*
X221022Y85714D01*
X226979Y85714D01*
X229735Y85533D01*
X235059Y84107D01*
X239832Y81351D01*
X241909Y79530D01*
X339084Y-17645D01*
X339084Y-19276D01*
X340061Y-21634D01*
X341866Y-23439D01*
X344224Y-24416D01*
X346776Y-24416D01*
X349134Y-23439D01*
X350939Y-21634D01*
X351916Y-19276D01*
X351916Y-16724D01*
X350939Y-14366D01*
X349134Y-12561D01*
X346776Y-11584D01*
X345145Y-11584D01*
X246715Y86846D01*
X246715Y86846D01*
X245207Y88355D01*
X245207Y88355D01*
X238437Y92263D01*
X238437Y92263D01*
X233022Y93714D01*
X238979Y93714D01*
X241735Y93533D01*
X247059Y92107D01*
X251832Y89351D01*
X253909Y87530D01*
X359084Y-17645D01*
X359084Y-19276D01*
X360061Y-21634D01*
X361866Y-23439D01*
X364224Y-24416D01*
X366776Y-24416D01*
X369134Y-23439D01*
X370939Y-21634D01*
X371916Y-19276D01*
X371916Y-16724D01*
X370939Y-14366D01*
X369134Y-12561D01*
X366776Y-11584D01*
X365145Y-11584D01*
X258715Y94846D01*
X258715Y94846D01*
X257207Y96355D01*
X257207Y96355D01*
X257207Y96355D01*
X250437Y100263D01*
X250437Y100263D01*
X242887Y102286D01*
X106782Y102286D01*
X106810Y102336D01*
X107016Y103103D01*
X107016Y105766D01*
X99734Y105766D01*
X99734Y106234D01*
X107016Y106234D01*
X107016Y108897D01*
X106810Y109664D01*
X106413Y110352D01*
X105852Y110913D01*
X105164Y111310D01*
X104397Y111516D01*
X99734Y111516D01*
X99734Y106234D01*
X99266Y106234D01*
X99266Y111516D01*
X94603Y111516D01*
X93836Y111310D01*
X93148Y110913D01*
X92587Y110352D01*
X92190Y109664D01*
X91984Y108897D01*
X91984Y106234D01*
X99266Y106234D01*
X99266Y105766D01*
X91984Y105766D01*
X91984Y103103D01*
X92190Y102336D01*
X92329Y102094D01*
X91984Y101749D01*
X91984Y94251D01*
X92235Y94000D01*
X91984Y93749D01*
X91984Y86251D01*
X92235Y86000D01*
X91984Y85749D01*
X91984Y78251D01*
X93751Y76484D01*
X105249Y76484D01*
X106479Y77714D01*
X113674Y77714D01*
X113098Y76853D01*
X112519Y75453D01*
X112223Y73968D01*
X112223Y73569D01*
X119555Y73569D01*
X119555Y72851D01*
X112223Y72851D01*
X112223Y72452D01*
X112519Y70967D01*
X113098Y69567D01*
X113940Y68307D01*
X113961Y68286D01*
X106479Y68286D01*
X105249Y69516D01*
X93751Y69516D01*
X91984Y67749D01*
X91984Y60251D01*
X92235Y60000D01*
X91984Y59749D01*
X91984Y52251D01*
X92235Y52000D01*
X91984Y51749D01*
X91984Y44251D01*
X92235Y44000D01*
X91984Y43749D01*
X91984Y36251D01*
X93751Y34484D01*
X105249Y34484D01*
X106479Y35714D01*
X176979Y35714D01*
X179735Y35533D01*
X185059Y34107D01*
X189832Y31351D01*
X191909Y29530D01*
X193131Y28308D01*
X193164Y28275D01*
X211084Y10355D01*
X211084Y8724D01*
X212061Y6366D01*
X213866Y4561D01*
X216224Y3584D01*
X218776Y3584D01*
X221134Y4561D01*
X222939Y6366D01*
X223916Y8724D01*
X223916Y11276D01*
X222939Y13634D01*
X221134Y15439D01*
X218776Y16416D01*
X217145Y16416D01*
X199225Y34336D01*
X199192Y34369D01*
X196715Y36846D01*
X196715Y36846D01*
X195207Y38355D01*
X195207Y38355D01*
X188437Y42263D01*
X188437Y42263D01*
X183022Y43714D01*
X188979Y43714D01*
X191735Y43533D01*
X197059Y42107D01*
X201832Y39351D01*
X203909Y37530D01*
X231084Y10355D01*
X231084Y8724D01*
X232061Y6366D01*
X233866Y4561D01*
X236224Y3584D01*
X238776Y3584D01*
X241134Y4561D01*
X242939Y6366D01*
X243916Y8724D01*
X143916Y-724D02*
X143916Y-3276D01*
X143916Y-724D02*
X142939Y1634D01*
X141134Y3439D01*
X138776Y4416D01*
X137100Y4416D01*
X130437Y8263D01*
X130437Y8263D01*
X125022Y9714D01*
X130979Y9714D01*
X133735Y9533D01*
X139059Y8107D01*
X143832Y5351D01*
X145909Y3530D01*
X147147Y2291D01*
X147164Y2275D01*
X151084Y-1645D01*
X151084Y-3276D01*
X152061Y-5634D01*
X153866Y-7439D01*
X156224Y-8416D01*
X158776Y-8416D01*
X161134Y-7439D01*
X162939Y-5634D01*
X163916Y-3276D01*
X163916Y-724D01*
X162939Y1634D01*
X161134Y3439D01*
X158776Y4416D01*
X157145Y4416D01*
X153225Y8336D01*
X153208Y8353D01*
X150715Y10846D01*
X150715Y10846D01*
X149207Y12355D01*
X149207Y12355D01*
X142437Y16263D01*
X142437Y16263D01*
X137022Y17714D01*
X142979Y17714D01*
X145735Y17533D01*
X151059Y16107D01*
X155832Y13351D01*
X157909Y11530D01*
X171084Y-1645D01*
X171084Y-3276D01*
X172061Y-5634D01*
X173866Y-7439D01*
X176224Y-8416D01*
X178776Y-8416D01*
X181134Y-7439D01*
X182939Y-5634D01*
X183916Y-3276D01*
X183916Y-724D01*
X182939Y1634D01*
X181134Y3439D01*
X178776Y4416D01*
X177145Y4416D01*
X162715Y18846D01*
X162715Y18846D01*
X161207Y20355D01*
X161207Y20355D01*
X154437Y24263D01*
X154437Y24263D01*
X146887Y26286D01*
X106479Y26286D01*
X105249Y27516D01*
X93751Y27516D01*
X91984Y25749D01*
X91984Y18251D01*
X92235Y18000D01*
X91984Y17749D01*
X91984Y10251D01*
X92235Y10000D01*
X91984Y9749D01*
X91984Y2251D01*
X92235Y2000D01*
X91984Y1749D01*
X91984Y-5749D01*
X93751Y-7516D01*
X105249Y-7516D01*
X106479Y-6286D01*
X112712Y-6286D01*
X113866Y-7439D01*
X116224Y-8416D01*
X118776Y-8416D01*
X121134Y-7439D01*
X122939Y-5634D01*
X123916Y-3276D01*
X123916Y-724D01*
X123137Y1158D01*
X127059Y107D01*
X131084Y-2217D01*
X131084Y-3276D01*
X132061Y-5634D01*
X133866Y-7439D01*
X136224Y-8416D01*
X138776Y-8416D01*
X141134Y-7439D01*
X142939Y-5634D01*
X143916Y-3276D01*
X1350289Y-65024D02*
X1471211Y-65024D01*
X1471211Y-56896D02*
X1342161Y-56896D01*
X54634Y-48768D02*
X44033Y-48768D01*
X97366Y-48768D02*
X109467Y-48768D01*
X1334033Y-48768D02*
X1471211Y-48768D01*
X54634Y-40640D02*
X35905Y-40640D01*
X97366Y-40640D02*
X117595Y-40640D01*
X1325905Y-40640D02*
X1333851Y-40640D01*
X1334569Y-40640D02*
X1471211Y-40640D01*
X33278Y-32512D02*
X27777Y-32512D01*
X40157Y-32512D02*
X40875Y-32512D01*
X47754Y-32512D02*
X55503Y-32512D01*
X96997Y-32512D02*
X125723Y-32512D01*
X1317777Y-32512D02*
X1471211Y-32512D01*
X35143Y-24384D02*
X19649Y-24384D01*
X40157Y-24384D02*
X40875Y-24384D01*
X45889Y-24384D02*
X59649Y-24384D01*
X92286Y-24384D02*
X138226Y-24384D01*
X144193Y-24384D02*
X144911Y-24384D01*
X150878Y-24384D02*
X178696Y-24384D01*
X184833Y-24384D02*
X185551Y-24384D01*
X191688Y-24384D02*
X324147Y-24384D01*
X326853Y-24384D02*
X344147Y-24384D01*
X346853Y-24384D02*
X364147Y-24384D01*
X366853Y-24384D02*
X373851Y-24384D01*
X1309649Y-24384D02*
X1471211Y-24384D01*
X27743Y-16256D02*
X19665Y-16256D01*
X34000Y-16256D02*
X34000Y-16256D01*
X40257Y-16256D02*
X44491Y-16256D01*
X58501Y-16256D02*
X61604Y-16256D01*
X91515Y-16256D02*
X137809Y-16256D01*
X144193Y-16256D02*
X144911Y-16256D01*
X151295Y-16256D02*
X178619Y-16256D01*
X184833Y-16256D02*
X185551Y-16256D01*
X191765Y-16256D02*
X317695Y-16256D01*
X331722Y-16256D02*
X337695Y-16256D01*
X351722Y-16256D02*
X357695Y-16256D01*
X371722Y-16256D02*
X381979Y-16256D01*
X1301521Y-16256D02*
X1471211Y-16256D01*
X22567Y-8128D02*
X14893Y-8128D01*
X40516Y-8128D02*
X46107Y-8128D01*
X88194Y-8128D02*
X115529Y-8128D01*
X119471Y-8128D02*
X135529Y-8128D01*
X139471Y-8128D02*
X155529Y-8128D01*
X159471Y-8128D02*
X175529Y-8128D01*
X179471Y-8128D02*
X309567Y-8128D01*
X321689Y-8128D02*
X329567Y-8128D01*
X341689Y-8128D02*
X349567Y-8128D01*
X361689Y-8128D02*
X1359351Y-8128D01*
X1360069Y-8128D02*
X1471211Y-8128D01*
X27484Y0D02*
X26561Y0D01*
X57516Y0D02*
X60735Y0D01*
X91016Y0D02*
X91984Y0D01*
X123616Y0D02*
X127244Y0D01*
X143616Y0D02*
X149439Y0D01*
X163616Y0D02*
X169439Y0D01*
X183616Y0D02*
X301439Y0D01*
X313561Y0D02*
X321439Y0D01*
X333561Y0D02*
X341439Y0D01*
X353561Y0D02*
X1471211Y0D01*
X29484Y8128D02*
X16266Y8128D01*
X60785Y8128D02*
X61503Y8128D01*
X91016Y8128D02*
X91984Y8128D01*
X130671Y8128D02*
X138980Y8128D01*
X153433Y8128D02*
X161311Y8128D01*
X173433Y8128D02*
X211331Y8128D01*
X223669Y8128D02*
X231331Y8128D01*
X243669Y8128D02*
X251331Y8128D01*
X263669Y8128D02*
X271331Y8128D01*
X283669Y8128D02*
X293311Y8128D01*
X305433Y8128D02*
X313311Y8128D01*
X325433Y8128D02*
X333311Y8128D01*
X345433Y8128D02*
X1471211Y8128D01*
X91984Y16256D02*
X91016Y16256D01*
X142449Y16256D02*
X150502Y16256D01*
X165305Y16256D02*
X205183Y16256D01*
X219162Y16256D02*
X225183Y16256D01*
X239162Y16256D02*
X245183Y16256D01*
X259162Y16256D02*
X265183Y16256D01*
X279162Y16256D02*
X285183Y16256D01*
X297305Y16256D02*
X305183Y16256D01*
X317305Y16256D02*
X325183Y16256D01*
X337305Y16256D02*
X1471211Y16256D01*
X91984Y24384D02*
X91016Y24384D01*
X153985Y24384D02*
X197055Y24384D01*
X209177Y24384D02*
X217055Y24384D01*
X229177Y24384D02*
X237055Y24384D01*
X249177Y24384D02*
X257055Y24384D01*
X269177Y24384D02*
X277055Y24384D01*
X289177Y24384D02*
X297055Y24384D01*
X309177Y24384D02*
X317055Y24384D01*
X329177Y24384D02*
X1383802Y24384D01*
X1390863Y24384D02*
X1391581Y24384D01*
X1398642Y24384D02*
X1471211Y24384D01*
X22818Y32512D02*
X11786Y32512D01*
X35470Y32512D02*
X55421Y32512D01*
X68349Y32512D02*
X187821Y32512D01*
X201049Y32512D02*
X208927Y32512D01*
X221049Y32512D02*
X228927Y32512D01*
X241049Y32512D02*
X248927Y32512D01*
X261049Y32512D02*
X268927Y32512D01*
X281049Y32512D02*
X288927Y32512D01*
X301049Y32512D02*
X308927Y32512D01*
X321049Y32512D02*
X1386367Y32512D01*
X1390863Y32512D02*
X1391581Y32512D01*
X1396077Y32512D02*
X1403067Y32512D01*
X1409373Y32512D02*
X1410091Y32512D01*
X1416397Y32512D02*
X1471211Y32512D01*
X22401Y40640D02*
X14905Y40640D01*
X35887Y40640D02*
X63831Y40640D01*
X91016Y40640D02*
X91984Y40640D01*
X191248Y40640D02*
X199599Y40640D01*
X212921Y40640D02*
X220799Y40640D01*
X232921Y40640D02*
X240799Y40640D01*
X252921Y40640D02*
X260799Y40640D01*
X272921Y40640D02*
X280799Y40640D01*
X292921Y40640D02*
X300799Y40640D01*
X312921Y40640D02*
X1403329Y40640D01*
X1409373Y40640D02*
X1410091Y40640D01*
X1416135Y40640D02*
X1471211Y40640D01*
X91984Y48768D02*
X91016Y48768D01*
X203027Y48768D02*
X211378Y48768D01*
X224793Y48768D02*
X232671Y48768D01*
X244793Y48768D02*
X252671Y48768D01*
X264793Y48768D02*
X272671Y48768D01*
X284793Y48768D02*
X292671Y48768D01*
X304793Y48768D02*
X1428439Y48768D01*
X1429157Y48768D02*
X1471211Y48768D01*
X91984Y56896D02*
X91016Y56896D01*
X214805Y56896D02*
X223156Y56896D01*
X236665Y56896D02*
X244543Y56896D01*
X256665Y56896D02*
X264543Y56896D01*
X276665Y56896D02*
X284543Y56896D01*
X296665Y56896D02*
X1471211Y56896D01*
X48818Y65024D02*
X11786Y65024D01*
X91016Y65024D02*
X91984Y65024D01*
X226583Y65024D02*
X236415Y65024D01*
X248537Y65024D02*
X256415Y65024D01*
X268537Y65024D02*
X276415Y65024D01*
X288537Y65024D02*
X1471211Y65024D01*
X48401Y73152D02*
X14917Y73152D01*
X61887Y73152D02*
X119555Y73152D01*
X120273Y73152D02*
X168323Y73152D01*
X169041Y73152D02*
X228059Y73152D01*
X240409Y73152D02*
X248287Y73152D01*
X260409Y73152D02*
X268287Y73152D01*
X280409Y73152D02*
X1490984Y73152D01*
X91984Y81280D02*
X91016Y81280D01*
X231604Y81280D02*
X239913Y81280D01*
X252281Y81280D02*
X260159Y81280D01*
X272281Y81280D02*
X287327Y81280D01*
X1433863Y81280D02*
X1442190Y81280D01*
X1449251Y81280D02*
X1449969Y81280D01*
X1457030Y81280D02*
X1472894Y81280D01*
X1487594Y81280D02*
X1489260Y81280D01*
X91984Y89408D02*
X91016Y89408D01*
X243382Y89408D02*
X251733Y89408D01*
X264153Y89408D02*
X279036Y89408D01*
X1442154Y89408D02*
X1444755Y89408D01*
X1449251Y89408D02*
X1449969Y89408D01*
X1454465Y89408D02*
X1472894Y89408D01*
X13597Y97536D02*
X8016Y97536D01*
X26927Y97536D02*
X58022Y97536D01*
X91016Y97536D02*
X91984Y97536D01*
X255161Y97536D02*
X270908Y97536D01*
X1450282Y97536D02*
X1457233Y97536D01*
X1464007Y97536D02*
X1464725Y97536D01*
X1471499Y97536D02*
X1490984Y97536D01*
X20621Y105664D02*
X19903Y105664D01*
X26665Y105664D02*
X75984Y105664D01*
X91016Y105664D02*
X91984Y105664D01*
X107016Y105664D02*
X137240Y105664D01*
X143159Y105664D02*
X143877Y105664D01*
X149796Y105664D02*
X189240Y105664D01*
X195159Y105664D02*
X195877Y105664D01*
X201796Y105664D02*
X228240Y105664D01*
X234159Y105664D02*
X234877Y105664D01*
X240796Y105664D02*
X262780Y105664D01*
X1458410Y105664D02*
X1458741Y105664D01*
X1464007Y105664D02*
X1464725Y105664D01*
X1469991Y105664D02*
X1490984Y105664D01*
X6500Y113792D02*
X6500Y113792D01*
X16093Y113792D02*
X39803Y113792D01*
X40521Y113792D02*
X49158Y113792D01*
X55984Y113792D02*
X58016Y113792D01*
X64842Y113792D02*
X67943Y113792D01*
X84057Y113792D02*
X136727Y113792D01*
X143159Y113792D02*
X143877Y113792D01*
X150309Y113792D02*
X188727Y113792D01*
X195159Y113792D02*
X195877Y113792D01*
X202309Y113792D02*
X227727Y113792D01*
X234159Y113792D02*
X234877Y113792D01*
X241309Y113792D02*
X254652Y113792D01*
X47484Y121920D02*
X29435Y121920D01*
X55984Y121920D02*
X58016Y121920D01*
X47484Y130048D02*
X37563Y130048D01*
X8128Y-19500D02*
X8128Y-19500D01*
X8128Y-7714D02*
X8128Y-5286D01*
X8128Y6500D02*
X8128Y6500D01*
X8128Y32500D02*
X8128Y32500D01*
X8128Y37766D02*
X8128Y40214D01*
X8128Y65000D02*
X8128Y65000D01*
X8128Y70266D02*
X8128Y72714D01*
X8128Y96286D02*
X8128Y105234D01*
X8128Y110500D02*
X8128Y110500D01*
X8128Y115766D02*
X8128Y117363D01*
X16256Y-22184D02*
X16256Y-22984D01*
X16256Y-19609D02*
X16256Y-19391D01*
X16256Y-8460D02*
X16256Y-4355D01*
X16256Y6391D02*
X16256Y6609D01*
X16256Y32391D02*
X16256Y32609D01*
X16256Y35184D02*
X16256Y41214D01*
X16256Y64891D02*
X16256Y65109D01*
X16256Y67684D02*
X16256Y73714D01*
X16256Y101045D02*
X16256Y101763D01*
X16256Y110391D02*
X16256Y110609D01*
X16256Y113184D02*
X16256Y117484D01*
X24384Y-9142D02*
X24384Y-29119D01*
X24384Y1965D02*
X24384Y8460D01*
X24384Y30286D02*
X24384Y30819D01*
X24384Y36529D02*
X24384Y37247D01*
X24384Y62786D02*
X24384Y73714D01*
X24384Y101045D02*
X24384Y101763D01*
X24384Y107900D02*
X24384Y117484D01*
X32512Y-18016D02*
X32512Y-37247D01*
X32512Y-13000D02*
X32512Y-13000D01*
X32512Y36529D02*
X32512Y37247D01*
X32512Y62786D02*
X32512Y73714D01*
X32512Y95286D02*
X32512Y113140D01*
X32512Y113745D02*
X32512Y114463D01*
X32512Y115068D02*
X32512Y124997D01*
X40640Y-30247D02*
X40640Y-45375D01*
X40640Y-29529D02*
X40640Y-1561D01*
X40640Y30286D02*
X40640Y41214D01*
X40640Y62786D02*
X40640Y73714D01*
X40640Y95286D02*
X40640Y106413D01*
X40640Y113745D02*
X40640Y114463D01*
X40640Y121795D02*
X40640Y133125D01*
X48768Y-18016D02*
X48768Y-49484D01*
X48768Y-7984D02*
X48768Y-5286D01*
X48768Y30286D02*
X48768Y41214D01*
X48768Y62786D02*
X48768Y65099D01*
X48768Y69041D02*
X48768Y69759D01*
X48768Y73701D02*
X48768Y73714D01*
X48768Y95286D02*
X48768Y114017D01*
X48768Y122984D02*
X48768Y125016D01*
X56896Y-16921D02*
X56896Y-31614D01*
X56896Y-6829D02*
X56896Y-3869D01*
X56896Y3869D02*
X56896Y4839D01*
X56896Y10891D02*
X56896Y11609D01*
X56896Y33133D02*
X56896Y41743D01*
X56896Y69041D02*
X56896Y69759D01*
X56896Y97132D02*
X56896Y122984D01*
X65024Y28676D02*
X65024Y25940D01*
X65024Y41656D02*
X65024Y42785D01*
X65024Y66486D02*
X65024Y76194D01*
X65024Y100050D02*
X65024Y113897D01*
X73152Y34842D02*
X73152Y26286D01*
X73152Y68286D02*
X73152Y77714D01*
X73152Y102286D02*
X73152Y113484D01*
X81280Y34484D02*
X81280Y27516D01*
X81280Y69516D02*
X81280Y76484D01*
X81280Y105766D02*
X81280Y106234D01*
X81280Y111516D02*
X81280Y113484D01*
X89408Y-7357D02*
X89408Y-12847D01*
X89408Y27357D02*
X89408Y34643D01*
X89408Y69357D02*
X89408Y76643D01*
X89408Y105766D02*
X89408Y106234D01*
X89408Y111170D02*
X89408Y119876D01*
X97536Y-37832D02*
X97536Y-49484D01*
X97536Y-37508D02*
X97536Y-7516D01*
X97536Y27516D02*
X97536Y34484D01*
X97536Y69516D02*
X97536Y76484D01*
X97536Y105766D02*
X97536Y106234D01*
X97536Y111516D02*
X97536Y116574D01*
X105664Y-7101D02*
X105664Y-49484D01*
X105664Y27101D02*
X105664Y34899D01*
X105664Y69101D02*
X105664Y76899D01*
X105664Y105766D02*
X105664Y106234D01*
X105664Y111022D02*
X105664Y116574D01*
X113792Y-7366D02*
X113792Y-44443D01*
X113792Y26286D02*
X113792Y35714D01*
X113792Y68286D02*
X113792Y68529D01*
X113792Y72851D02*
X113792Y73569D01*
X113792Y102286D02*
X113792Y116574D01*
X121920Y-6654D02*
X121920Y-36315D01*
X121920Y26286D02*
X121920Y35714D01*
X121920Y72851D02*
X121920Y73569D01*
X121920Y102286D02*
X121920Y116574D01*
X130048Y-1619D02*
X130048Y-31484D01*
X130048Y8367D02*
X130048Y9714D01*
X130048Y26286D02*
X130048Y35714D01*
X130048Y68286D02*
X130048Y77714D01*
X130048Y102286D02*
X130048Y119876D01*
X138176Y-24309D02*
X138176Y-31484D01*
X138176Y-20367D02*
X138176Y-19649D01*
X138176Y-15707D02*
X138176Y-8416D01*
X138176Y4416D02*
X138176Y8343D01*
X138176Y17405D02*
X138176Y17714D01*
X138176Y26286D02*
X138176Y35714D01*
X138176Y68286D02*
X138176Y77714D01*
X138176Y102286D02*
X138176Y104577D01*
X138176Y109753D02*
X138176Y110471D01*
X138176Y115647D02*
X138176Y119876D01*
X146304Y-27501D02*
X146304Y-31484D01*
X146304Y-20367D02*
X146304Y-19649D01*
X146304Y-12515D02*
X146304Y3135D01*
X146304Y14030D02*
X146304Y17381D01*
X146304Y26286D02*
X146304Y35714D01*
X146304Y68286D02*
X146304Y77714D01*
X146304Y102286D02*
X146304Y102941D01*
X146304Y109753D02*
X146304Y110471D01*
X146304Y117283D02*
X146304Y119367D01*
X154432Y-7674D02*
X154432Y-31484D01*
X154432Y7129D02*
X154432Y14159D01*
X154432Y24264D02*
X154432Y35714D01*
X154432Y68286D02*
X154432Y77714D01*
X154432Y102286D02*
X154432Y117844D01*
X162560Y-6014D02*
X162560Y-31484D01*
X162560Y2014D02*
X162560Y6879D01*
X162560Y19001D02*
X162560Y35714D01*
X162560Y72597D02*
X162560Y73315D01*
X162560Y77637D02*
X162560Y77714D01*
X162560Y102286D02*
X162560Y117844D01*
X170688Y-1249D02*
X170688Y-31484D01*
X170688Y10873D02*
X170688Y35714D01*
X170688Y72597D02*
X170688Y73315D01*
X170688Y102286D02*
X170688Y117844D01*
X178816Y-24563D02*
X178816Y-31484D01*
X178816Y-20621D02*
X178816Y-19903D01*
X178816Y-15961D02*
X178816Y-8400D01*
X178816Y4399D02*
X178816Y35594D01*
X178816Y68286D02*
X178816Y77714D01*
X178816Y102286D02*
X178816Y118103D01*
X186944Y-27755D02*
X186944Y-31484D01*
X186944Y-20621D02*
X186944Y-19903D01*
X186944Y-12769D02*
X186944Y33018D01*
X186944Y42663D02*
X186944Y43714D01*
X186944Y68286D02*
X186944Y77714D01*
X186944Y102286D02*
X186944Y119876D01*
X195072Y26367D02*
X195072Y-31484D01*
X195072Y38432D02*
X195072Y42639D01*
X195072Y51701D02*
X195072Y51714D01*
X195072Y68286D02*
X195072Y77714D01*
X195072Y102286D02*
X195072Y102421D01*
X195072Y109753D02*
X195072Y110471D01*
X195072Y117803D02*
X195072Y119876D01*
X203200Y18239D02*
X203200Y-31484D01*
X203200Y30361D02*
X203200Y38152D01*
X203200Y48668D02*
X203200Y51568D01*
X203200Y68286D02*
X203200Y77714D01*
X203200Y102286D02*
X203200Y109309D01*
X203200Y109753D02*
X203200Y110471D01*
X203200Y110915D02*
X203200Y119876D01*
X211328Y8135D02*
X211328Y-31484D01*
X211328Y22233D02*
X211328Y30111D01*
X211328Y42233D02*
X211328Y48797D01*
X211328Y58560D02*
X211328Y59714D01*
X211328Y68286D02*
X211328Y77714D01*
X211328Y102286D02*
X211328Y119876D01*
X219456Y3866D02*
X219456Y-31484D01*
X219456Y16134D02*
X219456Y21983D01*
X219456Y34105D02*
X219456Y41983D01*
X219456Y54105D02*
X219456Y58536D01*
X219456Y67598D02*
X219456Y77072D01*
X219456Y102286D02*
X219456Y119876D01*
X227584Y13855D02*
X227584Y-31484D01*
X227584Y25977D02*
X227584Y33855D01*
X227584Y45977D02*
X227584Y53815D01*
X227584Y64446D02*
X227584Y73494D01*
X227584Y83601D02*
X227584Y85674D01*
X227584Y102286D02*
X227584Y106755D01*
X227584Y109753D02*
X227584Y110471D01*
X227584Y113469D02*
X227584Y119876D01*
X235712Y3796D02*
X235712Y-31484D01*
X235712Y17849D02*
X235712Y25727D01*
X235712Y37849D02*
X235712Y45727D01*
X235712Y57849D02*
X235712Y65727D01*
X235712Y77849D02*
X235712Y83730D01*
X235712Y92993D02*
X235712Y93714D01*
X235712Y102286D02*
X235712Y102508D01*
X235712Y109753D02*
X235712Y110471D01*
X235712Y117716D02*
X235712Y119876D01*
X243840Y8540D02*
X243840Y-31484D01*
X243840Y11460D02*
X243840Y17599D01*
X243840Y29721D02*
X243840Y37599D01*
X243840Y49721D02*
X243840Y57599D01*
X243840Y69721D02*
X243840Y77599D01*
X243840Y89144D02*
X243840Y92969D01*
X243840Y102031D02*
X243840Y119508D01*
X251968Y6590D02*
X251968Y-31484D01*
X251968Y21593D02*
X251968Y29471D01*
X251968Y41593D02*
X251968Y49471D01*
X251968Y61593D02*
X251968Y69471D01*
X251968Y81593D02*
X251968Y89232D01*
X251968Y99379D02*
X251968Y116089D01*
X260096Y4131D02*
X260096Y-31484D01*
X260096Y15869D02*
X260096Y21343D01*
X260096Y33465D02*
X260096Y41343D01*
X260096Y53465D02*
X260096Y61343D01*
X260096Y73465D02*
X260096Y81343D01*
X260096Y93465D02*
X260096Y108348D01*
X268224Y13215D02*
X268224Y-31484D01*
X268224Y25337D02*
X268224Y33215D01*
X268224Y45337D02*
X268224Y53215D01*
X268224Y65337D02*
X268224Y73215D01*
X268224Y85337D02*
X268224Y100220D01*
X276352Y3584D02*
X276352Y-31484D01*
X276352Y17209D02*
X276352Y25087D01*
X276352Y37209D02*
X276352Y45087D01*
X276352Y57209D02*
X276352Y65087D01*
X276352Y77209D02*
X276352Y92092D01*
X284480Y16959D02*
X284480Y-31484D01*
X284480Y29081D02*
X284480Y36959D01*
X284480Y49081D02*
X284480Y56959D01*
X284480Y69081D02*
X284480Y83964D01*
X292608Y8831D02*
X292608Y-31484D01*
X292608Y20953D02*
X292608Y28831D01*
X292608Y40953D02*
X292608Y48831D01*
X292608Y60953D02*
X292608Y78231D01*
X300736Y703D02*
X300736Y-31484D01*
X300736Y12825D02*
X300736Y20703D01*
X300736Y32825D02*
X300736Y40703D01*
X300736Y52825D02*
X300736Y75587D01*
X308864Y-7425D02*
X308864Y-31484D01*
X308864Y4697D02*
X308864Y12575D01*
X308864Y24697D02*
X308864Y32575D01*
X308864Y44697D02*
X308864Y75216D01*
X316992Y-15553D02*
X316992Y-31484D01*
X316992Y-3431D02*
X316992Y4447D01*
X316992Y16569D02*
X316992Y24447D01*
X316992Y36569D02*
X316992Y75216D01*
X325120Y-24416D02*
X325120Y-31484D01*
X325120Y-11559D02*
X325120Y-3681D01*
X325120Y8441D02*
X325120Y16319D01*
X325120Y28441D02*
X325120Y75216D01*
X333248Y-11809D02*
X333248Y-31484D01*
X333248Y313D02*
X333248Y8191D01*
X333248Y20313D02*
X333248Y75216D01*
X341376Y-22950D02*
X341376Y-31484D01*
X341376Y-7815D02*
X341376Y63D01*
X341376Y12185D02*
X341376Y75216D01*
X349504Y-23070D02*
X349504Y-31484D01*
X349504Y-12930D02*
X349504Y-8065D01*
X349504Y4057D02*
X349504Y75216D01*
X357632Y-16193D02*
X357632Y-31484D01*
X357632Y-4071D02*
X357632Y75216D01*
X365760Y-24416D02*
X365760Y-31484D01*
X365760Y-11584D02*
X365760Y75216D01*
X373888Y75216D02*
X373888Y-24347D01*
X382016Y-16219D02*
X382016Y75216D01*
X390144Y75216D02*
X390144Y-8984D01*
X398272Y-8988D02*
X398272Y75216D01*
X406400Y75216D02*
X406400Y-8993D01*
X414528Y-8997D02*
X414528Y75216D01*
X422656Y75216D02*
X422656Y-9002D01*
X430784Y-9006D02*
X430784Y75216D01*
X438912Y75216D02*
X438912Y-9011D01*
X447040Y-9015D02*
X447040Y75216D01*
X455168Y75216D02*
X455168Y-9020D01*
X463296Y-9024D02*
X463296Y75216D01*
X471424Y75216D02*
X471424Y-9029D01*
X479552Y-9033D02*
X479552Y75216D01*
X487680Y75216D02*
X487680Y-9038D01*
X495808Y-9042D02*
X495808Y75216D01*
X503936Y75216D02*
X503936Y-9047D01*
X512064Y-9051D02*
X512064Y75216D01*
X520192Y75216D02*
X520192Y-9056D01*
X528320Y-9060D02*
X528320Y75216D01*
X536448Y75216D02*
X536448Y-9065D01*
X544576Y-9069D02*
X544576Y75216D01*
X552704Y75216D02*
X552704Y-9074D01*
X560832Y-9078D02*
X560832Y75216D01*
X568960Y75216D02*
X568960Y-9083D01*
X577088Y-9087D02*
X577088Y75216D01*
X585216Y75216D02*
X585216Y-9092D01*
X593344Y-9096D02*
X593344Y75216D01*
X601472Y75216D02*
X601472Y-9101D01*
X609600Y-9105D02*
X609600Y75216D01*
X617728Y75216D02*
X617728Y-9110D01*
X625856Y-9114D02*
X625856Y75216D01*
X633984Y75216D02*
X633984Y-9119D01*
X642112Y-9123D02*
X642112Y75216D01*
X650240Y75216D02*
X650240Y-9128D01*
X658368Y-9132D02*
X658368Y75216D01*
X666496Y75216D02*
X666496Y-9137D01*
X674624Y-9141D02*
X674624Y75216D01*
X682752Y75216D02*
X682752Y-9146D01*
X690880Y-9150D02*
X690880Y75216D01*
X699008Y75216D02*
X699008Y-9155D01*
X707136Y-9159D02*
X707136Y75216D01*
X715264Y75216D02*
X715264Y-9164D01*
X723392Y-9168D02*
X723392Y75216D01*
X731520Y75216D02*
X731520Y-9173D01*
X739648Y-9177D02*
X739648Y75216D01*
X747776Y75216D02*
X747776Y-9182D01*
X755904Y-9186D02*
X755904Y75216D01*
X764032Y75216D02*
X764032Y-9191D01*
X772160Y-9195D02*
X772160Y75216D01*
X780288Y75216D02*
X780288Y-9200D01*
X788416Y-9204D02*
X788416Y75216D01*
X796544Y75216D02*
X796544Y-9209D01*
X804672Y-9213D02*
X804672Y75216D01*
X812800Y75216D02*
X812800Y-9218D01*
X820928Y-9222D02*
X820928Y75216D01*
X829056Y75216D02*
X829056Y-9227D01*
X837184Y-9231D02*
X837184Y75216D01*
X845312Y75216D02*
X845312Y-9236D01*
X853440Y-9240D02*
X853440Y75216D01*
X861568Y75216D02*
X861568Y-9245D01*
X869696Y-9249D02*
X869696Y75216D01*
X877824Y75216D02*
X877824Y-9254D01*
X885952Y-9258D02*
X885952Y75216D01*
X894080Y75216D02*
X894080Y-9263D01*
X902208Y-9267D02*
X902208Y75216D01*
X910336Y75216D02*
X910336Y-9272D01*
X918464Y-9276D02*
X918464Y75216D01*
X926592Y75216D02*
X926592Y-9281D01*
X934720Y-9285D02*
X934720Y75216D01*
X942848Y75216D02*
X942848Y-9290D01*
X950976Y-9294D02*
X950976Y75216D01*
X959104Y75216D02*
X959104Y-9299D01*
X967232Y-9303D02*
X967232Y75216D01*
X975360Y75216D02*
X975360Y-9308D01*
X983488Y-9312D02*
X983488Y75216D01*
X991616Y75216D02*
X991616Y-9317D01*
X999744Y-9321D02*
X999744Y75216D01*
X1007872Y75216D02*
X1007872Y-9326D01*
X1016000Y-9330D02*
X1016000Y75216D01*
X1024128Y75216D02*
X1024128Y-9335D01*
X1032256Y-9339D02*
X1032256Y75216D01*
X1040384Y75216D02*
X1040384Y-9344D01*
X1048512Y-9348D02*
X1048512Y75216D01*
X1056640Y75216D02*
X1056640Y-9353D01*
X1064768Y-9357D02*
X1064768Y75216D01*
X1072896Y75216D02*
X1072896Y-9362D01*
X1081024Y-9366D02*
X1081024Y75216D01*
X1089152Y75216D02*
X1089152Y-9371D01*
X1097280Y-9375D02*
X1097280Y75216D01*
X1105408Y75216D02*
X1105408Y-9380D01*
X1113536Y-9384D02*
X1113536Y75216D01*
X1121664Y75216D02*
X1121664Y-9389D01*
X1129792Y-9393D02*
X1129792Y75216D01*
X1137920Y75216D02*
X1137920Y-9398D01*
X1146048Y-9402D02*
X1146048Y75216D01*
X1154176Y75216D02*
X1154176Y-9407D01*
X1162304Y-9411D02*
X1162304Y75216D01*
X1170432Y75216D02*
X1170432Y-9416D01*
X1178560Y-9420D02*
X1178560Y75216D01*
X1186688Y75216D02*
X1186688Y-9425D01*
X1194816Y-9429D02*
X1194816Y75216D01*
X1202944Y75216D02*
X1202944Y-9434D01*
X1211072Y-9438D02*
X1211072Y75216D01*
X1219200Y75216D02*
X1219200Y-9443D01*
X1227328Y-9447D02*
X1227328Y75216D01*
X1235456Y75216D02*
X1235456Y-9452D01*
X1243584Y-9456D02*
X1243584Y75216D01*
X1251712Y75216D02*
X1251712Y-9461D01*
X1259840Y-9465D02*
X1259840Y75216D01*
X1267968Y75216D02*
X1267968Y-9470D01*
X1276096Y-9474D02*
X1276096Y75216D01*
X1284224Y75216D02*
X1284224Y-9479D01*
X1292352Y-9483D02*
X1292352Y75216D01*
X1300480Y75216D02*
X1300480Y-15215D01*
X1308608Y-23343D02*
X1308608Y75216D01*
X1316736Y75216D02*
X1316736Y-31471D01*
X1324864Y-39599D02*
X1324864Y75216D01*
X1332992Y-39965D02*
X1332992Y-40683D01*
X1332992Y-32725D02*
X1332992Y75216D01*
X1341120Y-43739D02*
X1341120Y-55855D01*
X1341120Y-40683D02*
X1341120Y-39965D01*
X1341120Y-36909D02*
X1341120Y75216D01*
X1349248Y75216D02*
X1349248Y-63983D01*
X1357376Y-70975D02*
X1357376Y-15682D01*
X1357376Y-8683D02*
X1357376Y-7965D01*
X1357376Y-966D02*
X1357376Y75216D01*
X1365504Y-13407D02*
X1365504Y-70945D01*
X1365504Y-8683D02*
X1365504Y-7965D01*
X1365504Y-3241D02*
X1365504Y75216D01*
X1373632Y75216D02*
X1373632Y-70915D01*
X1381760Y-70885D02*
X1381760Y75216D01*
X1389888Y18930D02*
X1389888Y-70855D01*
X1389888Y26147D02*
X1389888Y26865D01*
X1389888Y34082D02*
X1389888Y75216D01*
X1398016Y22831D02*
X1398016Y-70825D01*
X1398016Y26147D02*
X1398016Y26865D01*
X1398016Y30181D02*
X1398016Y75216D01*
X1406144Y29542D02*
X1406144Y-70795D01*
X1406144Y36021D02*
X1406144Y36739D01*
X1406144Y43218D02*
X1406144Y75216D01*
X1414272Y30164D02*
X1414272Y-70765D01*
X1414272Y36021D02*
X1414272Y36739D01*
X1414272Y42596D02*
X1414272Y75216D01*
X1422400Y44558D02*
X1422400Y-70735D01*
X1422400Y48467D02*
X1422400Y49185D01*
X1422400Y53094D02*
X1422400Y76108D01*
X1430528Y41328D02*
X1430528Y-70705D01*
X1430528Y48467D02*
X1430528Y49185D01*
X1430528Y56324D02*
X1430528Y79355D01*
X1438656Y85910D02*
X1438656Y-70675D01*
X1446784Y-70645D02*
X1446784Y76248D01*
X1446784Y83043D02*
X1446784Y83761D01*
X1446784Y90556D02*
X1446784Y94038D01*
X1454912Y77827D02*
X1454912Y-70615D01*
X1454912Y83043D02*
X1454912Y83761D01*
X1454912Y88977D02*
X1454912Y102166D01*
X1463040Y92834D02*
X1463040Y-70585D01*
X1463040Y100053D02*
X1463040Y100771D01*
X1463040Y107990D02*
X1463040Y109752D01*
X1471168Y96748D02*
X1471168Y-70555D01*
X1471168Y100053D02*
X1471168Y100771D01*
X1471168Y104075D02*
X1471168Y109619D01*
X1479296Y78274D02*
X1479296Y72771D01*
X1479296Y86892D02*
X1479296Y87860D01*
X1479296Y97006D02*
X1479296Y108839D01*
X1487424Y78274D02*
X1487424Y72771D01*
X1487424Y86892D02*
X1487424Y87860D01*
X1487424Y97006D02*
X1487424Y108839D01*
D21*
X143518Y110112D03*
X20262Y101404D03*
X119914Y73210D03*
X168682Y72956D03*
X55144Y69400D03*
X29144Y36888D03*
X61144Y11250D03*
X144552Y-20008D03*
X185192Y-20262D03*
X1464366Y100412D03*
X1449610Y83402D03*
X1359710Y-8324D03*
X1391222Y26506D03*
X1409732Y36380D03*
X1428798Y48826D03*
D20*
X16232Y112512D02*
X11748Y110474D01*
X16232Y112512D02*
X16232Y108436D01*
X11748Y110474D01*
D24*
X91524Y112522D02*
X91524Y100076D01*
D20*
X16218Y-18086D02*
X12284Y-19874D01*
X16218Y-18086D02*
X16218Y-21662D01*
X12284Y-19874D01*
X12284Y6288D02*
X12834Y6538D01*
X16218Y8076D01*
X16218Y5000D01*
X12834Y6538D01*
X11988Y32446D02*
X16472Y34484D01*
X16472Y30408D01*
X11988Y32446D01*
X11734Y64958D02*
X16218Y66996D01*
X16218Y62920D01*
X11734Y64958D01*
D21*
X40162Y114104D03*
X195518Y110112D03*
X234518Y110112D03*
X1334210Y-40324D03*
D19*
X6500Y19500D03*
D20*
X48500Y19500D01*
X68000Y22000D01*
X83500Y22000D01*
D19*
X0Y19500D03*
X6500Y26000D03*
D20*
X51000Y26000D01*
X60500Y30000D01*
X67000Y37500D01*
X75500Y40000D01*
X83500Y40000D01*
D19*
X0Y26000D03*
X6500Y45500D03*
D20*
X52500Y45500D01*
X72000Y48000D01*
X83500Y48000D01*
D19*
X0Y45500D03*
X6500Y52000D03*
D20*
X52500Y52000D01*
X72000Y56000D01*
X83500Y56000D01*
D19*
X0Y52000D03*
X6500Y58500D03*
D20*
X52500Y58500D01*
X72000Y64000D01*
X83500Y64000D01*
D19*
X0Y58500D03*
X6500Y84500D03*
D20*
X52500Y84500D01*
X72000Y90000D01*
X83500Y90000D01*
D19*
X0Y84500D03*
X6500Y78000D03*
D20*
X52500Y78000D01*
X72000Y82000D01*
X83500Y82000D01*
D19*
X0Y78000D03*
X6500Y91000D03*
D20*
X52500Y91000D01*
X72000Y98000D01*
X83500Y98000D01*
D19*
X0Y91000D03*
D20*
X64000Y-30250D02*
X64000Y-42250D01*
X59000Y-38250D02*
X64000Y-30250D01*
X69000Y-38250D01*
X81950Y6000D02*
X83500Y6000D01*
X64000Y-24621D02*
X64000Y-30250D01*
X81243Y6000D02*
X83500Y6000D01*
X81243Y6000D02*
X80992Y5997D01*
X80740Y5988D01*
X80489Y5972D01*
X80239Y5951D01*
X79989Y5923D01*
X79740Y5889D01*
X79492Y5849D01*
X79245Y5803D01*
X78999Y5751D01*
X78754Y5693D01*
X78511Y5629D01*
X78270Y5559D01*
X78030Y5483D01*
X77792Y5401D01*
X77557Y5314D01*
X77323Y5220D01*
X77092Y5121D01*
X76864Y5017D01*
X76638Y4906D01*
X76414Y4791D01*
X76194Y4669D01*
X75977Y4543D01*
X75763Y4411D01*
X75552Y4274D01*
X75345Y4132D01*
X75141Y3984D01*
X74941Y3832D01*
X74745Y3675D01*
X74553Y3513D01*
X74364Y3347D01*
X74180Y3175D01*
X74000Y3000D01*
X70500Y-4000D01*
X66638Y-13655D01*
X64000Y-24621D01*
X88000Y-29750D02*
X88000Y-41750D01*
X93000Y-38250D02*
X88000Y-29750D01*
X87569Y-30482D01*
X83000Y-38250D01*
X83500Y-8250D02*
X83027Y-7114D01*
X81000Y-2250D01*
X86000Y-2250D02*
X83500Y-8250D01*
X83500Y-10964D01*
X83502Y-11102D01*
X83508Y-11240D01*
X83517Y-11377D01*
X83531Y-11514D01*
X83548Y-11651D01*
X83569Y-11787D01*
X83594Y-11923D01*
X83623Y-12057D01*
X83656Y-12191D01*
X83692Y-12324D01*
X83732Y-12456D01*
X83776Y-12587D01*
X83823Y-12716D01*
X83874Y-12845D01*
X83929Y-12971D01*
X83987Y-13096D01*
X84048Y-13219D01*
X84113Y-13341D01*
X84182Y-13461D01*
X84253Y-13578D01*
X84328Y-13694D01*
X84406Y-13808D01*
X84488Y-13919D01*
X84572Y-14028D01*
X84660Y-14134D01*
X84750Y-14238D01*
X84843Y-14340D01*
X84939Y-14439D01*
X86000Y-15500D01*
X86117Y-15620D01*
X86231Y-15743D01*
X86342Y-15868D01*
X86450Y-15996D01*
X86555Y-16127D01*
X86656Y-16261D01*
X86754Y-16396D01*
X86849Y-16535D01*
X86941Y-16675D01*
X87029Y-16818D01*
X87113Y-16962D01*
X87194Y-17109D01*
X87271Y-17258D01*
X87344Y-17409D01*
X87414Y-17561D01*
X87480Y-17715D01*
X87542Y-17871D01*
X87601Y-18028D01*
X87655Y-18186D01*
X87706Y-18346D01*
X87753Y-18507D01*
X87795Y-18669D01*
X87834Y-18832D01*
X87869Y-18996D01*
X87899Y-19161D01*
X87926Y-19326D01*
X87949Y-19492D01*
X87967Y-19659D01*
X87981Y-19826D01*
X87992Y-19993D01*
X87998Y-20160D01*
X88000Y-20328D01*
X88000Y-29750D01*
X83500Y-8250D02*
X83500Y-2000D01*
X99500Y-2000D02*
X117500Y-2000D01*
D25*
X117500Y-2000D03*
D26*
X1493880Y63500D03*
D25*
X1486260Y63500D03*
D23*
X1490200Y63505D02*
X1493690Y63510D01*
D27*
X1493685Y63505D01*
D20*
X1493690Y63510D02*
X1493680Y63500D01*
X1486260Y63500D01*
X1480820Y63500D01*
X1478280Y63500D01*
X1480820Y63500D02*
X1487170Y66040D01*
X1487170Y60960D02*
X1480820Y63500D01*
D25*
X365500Y-18000D03*
D20*
X238979Y98000D02*
X99500Y98000D01*
X238979Y98000D02*
X239602Y97992D01*
X240225Y97969D01*
X240848Y97931D01*
X241469Y97878D01*
X242088Y97809D01*
X242706Y97725D01*
X243321Y97626D01*
X243934Y97512D01*
X244544Y97383D01*
X245151Y97239D01*
X245754Y97080D01*
X246352Y96906D01*
X246947Y96718D01*
X247536Y96515D01*
X248120Y96298D01*
X248699Y96067D01*
X249272Y95821D01*
X249839Y95561D01*
X250399Y95288D01*
X250952Y95001D01*
X251499Y94700D01*
X252037Y94386D01*
X252568Y94059D01*
X253090Y93719D01*
X253605Y93367D01*
X254110Y93001D01*
X254606Y92624D01*
X255093Y92234D01*
X255570Y91833D01*
X256037Y91420D01*
X256493Y90996D01*
X256940Y90561D01*
X365500Y-18000D01*
D26*
X1493880Y-63500D03*
D25*
X1486260Y-63500D03*
D23*
X1486260Y-63490D02*
X1493690Y-63490D01*
D20*
X1478290Y-63490D01*
X1478280Y-63500D01*
X1480820Y-63500D02*
X1487170Y-60960D01*
X1487170Y-66040D02*
X1480820Y-63500D01*
D25*
X345500Y-18000D03*
D20*
X226979Y90000D02*
X99500Y90000D01*
X226979Y90000D02*
X227602Y89992D01*
X228225Y89969D01*
X228848Y89931D01*
X229469Y89878D01*
X230088Y89809D01*
X230706Y89725D01*
X231321Y89626D01*
X231934Y89512D01*
X232544Y89383D01*
X233151Y89239D01*
X233754Y89080D01*
X234352Y88906D01*
X234947Y88718D01*
X235536Y88515D01*
X236120Y88298D01*
X236699Y88067D01*
X237272Y87821D01*
X237839Y87561D01*
X238399Y87288D01*
X238952Y87001D01*
X239499Y86700D01*
X240037Y86386D01*
X240568Y86059D01*
X241090Y85719D01*
X241605Y85367D01*
X242110Y85001D01*
X242606Y84624D01*
X243093Y84234D01*
X243570Y83833D01*
X244037Y83420D01*
X244493Y82996D01*
X244940Y82561D01*
X345500Y-18000D01*
D26*
X1493880Y-50800D03*
D25*
X1486260Y-50800D03*
D20*
X1493690Y-50790D02*
X1478290Y-50790D01*
X1478280Y-50800D01*
X1480820Y-50800D02*
X1487170Y-48260D01*
X1487170Y-53340D02*
X1480820Y-50800D01*
D25*
X325500Y-18000D03*
D20*
X232940Y74561D01*
X232493Y74996D01*
X232037Y75420D01*
X231570Y75833D01*
X231093Y76234D01*
X230606Y76624D01*
X230110Y77001D01*
X229605Y77367D01*
X229090Y77719D01*
X228568Y78059D01*
X228037Y78386D01*
X227499Y78700D01*
X226952Y79001D01*
X226399Y79288D01*
X225839Y79561D01*
X225272Y79821D01*
X224699Y80067D01*
X224120Y80298D01*
X223536Y80515D01*
X222947Y80718D01*
X222352Y80906D01*
X221754Y81080D01*
X221151Y81239D01*
X220544Y81383D01*
X219934Y81512D01*
X219321Y81626D01*
X218706Y81725D01*
X218088Y81809D01*
X217469Y81878D01*
X216848Y81931D01*
X216225Y81969D01*
X215602Y81992D01*
X214979Y82000D01*
X99500Y82000D01*
D26*
X1493880Y-38100D03*
D25*
X1486260Y-38100D03*
D23*
X1486260Y-38090D02*
X1493690Y-38090D01*
D20*
X1478290Y-38090D01*
X1478280Y-38100D01*
X1480820Y-38100D02*
X1487170Y-35560D01*
X1487170Y-40640D02*
X1480820Y-38100D01*
D25*
X277500Y10000D03*
D20*
X212979Y64000D02*
X99500Y64000D01*
X212979Y64000D02*
X213602Y63992D01*
X214225Y63969D01*
X214848Y63931D01*
X215469Y63878D01*
X216088Y63809D01*
X216706Y63725D01*
X217321Y63626D01*
X217934Y63512D01*
X218544Y63383D01*
X219151Y63239D01*
X219754Y63080D01*
X220352Y62906D01*
X220947Y62718D01*
X221536Y62515D01*
X222120Y62298D01*
X222699Y62067D01*
X223272Y61821D01*
X223839Y61561D01*
X224399Y61288D01*
X224952Y61001D01*
X225499Y60700D01*
X226037Y60386D01*
X226568Y60059D01*
X227090Y59719D01*
X227605Y59367D01*
X228110Y59001D01*
X228606Y58624D01*
X229093Y58234D01*
X229570Y57833D01*
X230037Y57420D01*
X230493Y56996D01*
X230940Y56561D01*
X277500Y10000D01*
D26*
X1493880Y-25400D03*
D25*
X1486260Y-25400D03*
D23*
X1486260Y-25390D02*
X1493690Y-25390D01*
D20*
X1478290Y-25390D01*
X1478280Y-25400D01*
X1480820Y-25400D02*
X1487170Y-22860D01*
X1487170Y-27940D02*
X1480820Y-25400D01*
X1493352Y-12550D02*
X1493383Y-12578D01*
X1493416Y-12604D01*
X1493451Y-12626D01*
X1493488Y-12645D01*
X1493527Y-12661D01*
X1493566Y-12674D01*
X1493607Y-12683D01*
X1493648Y-12688D01*
X1493690Y-12690D01*
D25*
X257500Y10000D03*
D20*
X200979Y56000D02*
X99500Y56000D01*
X200979Y56000D02*
X201602Y55992D01*
X202225Y55969D01*
X202848Y55931D01*
X203469Y55878D01*
X204088Y55809D01*
X204706Y55725D01*
X205321Y55626D01*
X205934Y55512D01*
X206544Y55383D01*
X207151Y55239D01*
X207754Y55080D01*
X208352Y54906D01*
X208947Y54718D01*
X209536Y54515D01*
X210120Y54298D01*
X210699Y54067D01*
X211272Y53821D01*
X211839Y53561D01*
X212399Y53288D01*
X212952Y53001D01*
X213499Y52700D01*
X214037Y52386D01*
X214568Y52059D01*
X215090Y51719D01*
X215605Y51367D01*
X216110Y51001D01*
X216606Y50624D01*
X217093Y50234D01*
X217570Y49833D01*
X218037Y49420D01*
X218493Y48996D01*
X218940Y48561D01*
X257500Y10000D01*
D26*
X1493880Y-12700D03*
D25*
X1486260Y-12700D03*
D23*
X1486260Y-12690D02*
X1493690Y-12690D01*
D20*
X1478290Y-12690D01*
X1478280Y-12700D01*
X1480820Y-12700D02*
X1487170Y-10160D01*
X1487170Y-15240D02*
X1480820Y-12700D01*
D25*
X237500Y10000D03*
D20*
X188979Y48000D02*
X99500Y48000D01*
X188979Y48000D02*
X189602Y47992D01*
X190225Y47969D01*
X190848Y47931D01*
X191469Y47878D01*
X192088Y47809D01*
X192706Y47725D01*
X193321Y47626D01*
X193934Y47512D01*
X194544Y47383D01*
X195151Y47239D01*
X195754Y47080D01*
X196352Y46906D01*
X196947Y46718D01*
X197536Y46515D01*
X198120Y46298D01*
X198699Y46067D01*
X199272Y45821D01*
X199839Y45561D01*
X200399Y45288D01*
X200952Y45001D01*
X201499Y44700D01*
X202037Y44386D01*
X202568Y44059D01*
X203090Y43719D01*
X203605Y43367D01*
X204110Y43001D01*
X204606Y42624D01*
X205093Y42234D01*
X205570Y41833D01*
X206037Y41420D01*
X206493Y40996D01*
X206940Y40561D01*
X237500Y10000D01*
D26*
X1493880Y0D03*
D25*
X1486260Y0D03*
D23*
X1486260Y10D02*
X1493690Y10D01*
D20*
X1478290Y10D01*
X1478280Y0D01*
X1480820Y0D02*
X1487170Y2540D01*
X1487170Y-2540D02*
X1480820Y0D01*
D25*
X217500Y10000D03*
D20*
X194940Y32561D01*
X176979Y40000D02*
X99500Y40000D01*
X176979Y40000D02*
X177602Y39992D01*
X178225Y39969D01*
X178848Y39931D01*
X179469Y39878D01*
X180088Y39809D01*
X180706Y39725D01*
X181321Y39626D01*
X181934Y39512D01*
X182544Y39383D01*
X183151Y39239D01*
X183754Y39080D01*
X184352Y38906D01*
X184947Y38718D01*
X185536Y38515D01*
X186120Y38298D01*
X186699Y38067D01*
X187272Y37821D01*
X187839Y37561D01*
X188399Y37288D01*
X188952Y37001D01*
X189499Y36700D01*
X190037Y36386D01*
X190568Y36059D01*
X191090Y35719D01*
X191605Y35367D01*
X192110Y35001D01*
X192606Y34624D01*
X193093Y34234D01*
X193570Y33833D01*
X194037Y33420D01*
X194493Y32996D01*
X194940Y32561D01*
D26*
X1493880Y12700D03*
D25*
X1486260Y12700D03*
D23*
X1493690Y12710D01*
D20*
X1478290Y12710D01*
X1478280Y12700D01*
X1480820Y12700D02*
X1487170Y15240D01*
X1487170Y10160D02*
X1480820Y12700D01*
D25*
X177500Y-2000D03*
D20*
X142979Y22000D02*
X99500Y22000D01*
X142979Y22000D02*
X143602Y21992D01*
X144225Y21969D01*
X144848Y21931D01*
X145469Y21878D01*
X146088Y21809D01*
X146706Y21725D01*
X147321Y21626D01*
X147934Y21512D01*
X148544Y21383D01*
X149151Y21239D01*
X149754Y21080D01*
X150352Y20906D01*
X150947Y20718D01*
X151536Y20515D01*
X152120Y20298D01*
X152699Y20067D01*
X153272Y19821D01*
X153839Y19561D01*
X154399Y19288D01*
X154952Y19001D01*
X155499Y18700D01*
X156037Y18386D01*
X156568Y18059D01*
X157090Y17719D01*
X157605Y17367D01*
X158110Y17001D01*
X158606Y16624D01*
X159093Y16234D01*
X159570Y15833D01*
X160037Y15420D01*
X160493Y14996D01*
X160940Y14561D01*
X177500Y-2000D01*
D26*
X1493880Y25400D03*
D25*
X1486260Y25400D03*
D20*
X1493690Y25410D02*
X1478290Y25410D01*
X1478280Y25400D01*
X1480820Y25400D02*
X1487170Y27940D01*
X1487170Y22860D02*
X1480820Y25400D01*
D25*
X157500Y-2000D03*
D20*
X130979Y14000D02*
X99500Y14000D01*
X148940Y6561D02*
X157500Y-2000D01*
X148940Y6561D02*
X148507Y6983D01*
X148065Y7395D01*
X147612Y7796D01*
X147151Y8186D01*
X146680Y8566D01*
X146201Y8934D01*
X145712Y9290D01*
X145216Y9635D01*
X144711Y9968D01*
X144199Y10289D01*
X143679Y10597D01*
X143152Y10893D01*
X142618Y11176D01*
X142077Y11447D01*
X141531Y11705D01*
X140978Y11949D01*
X140419Y12181D01*
X139855Y12399D01*
X139287Y12603D01*
X138713Y12794D01*
X138135Y12971D01*
X137553Y13135D01*
X136967Y13284D01*
X136378Y13420D01*
X135786Y13541D01*
X135191Y13648D01*
X134594Y13741D01*
X133994Y13820D01*
X133393Y13885D01*
X132791Y13935D01*
X132188Y13971D01*
X131583Y13993D01*
X130979Y14000D01*
D26*
X1493880Y38100D03*
D25*
X1486260Y38100D03*
D23*
X1486260Y38110D02*
X1493690Y38110D01*
D20*
X1478290Y38110D01*
X1478280Y38100D01*
X1480820Y38100D02*
X1487170Y40640D01*
X1487170Y35560D02*
X1480820Y38100D01*
D25*
X137500Y-2000D03*
D20*
X118979Y6000D02*
X99500Y6000D01*
X118979Y6000D02*
X119583Y5993D01*
X120188Y5971D01*
X120791Y5935D01*
X121393Y5885D01*
X121994Y5820D01*
X122594Y5741D01*
X123191Y5648D01*
X123786Y5541D01*
X124378Y5420D01*
X124967Y5284D01*
X125553Y5135D01*
X126135Y4971D01*
X126713Y4794D01*
X127287Y4603D01*
X127855Y4399D01*
X128419Y4181D01*
X128978Y3949D01*
X129531Y3705D01*
X130077Y3447D01*
X130618Y3176D01*
X131152Y2893D01*
X131679Y2597D01*
X132199Y2289D01*
X132711Y1968D01*
X133216Y1635D01*
X133712Y1290D01*
X134201Y934D01*
X134680Y566D01*
X135151Y186D01*
X135612Y-204D01*
X136065Y-605D01*
X136507Y-1017D01*
X136940Y-1439D01*
X136940Y-1440D02*
X137500Y-2000D01*
D26*
X1493880Y50800D03*
D25*
X1486260Y50800D03*
D23*
X1493690Y50810D02*
X1493880Y50800D01*
X1493690Y50810D02*
X1486260Y50810D01*
D20*
X1493690Y50810D02*
X1478290Y50810D01*
X1478280Y50800D01*
X1480820Y50800D02*
X1487170Y53340D01*
X1487170Y48260D02*
X1480820Y50800D01*
D22*
X1494134Y119380D03*
X1481434Y119380D03*
D23*
X1488610Y119390D01*
D28*
X258520Y118501D02*
X258073Y118936D01*
X257617Y119360D01*
X257150Y119773D01*
X256673Y120174D01*
X256186Y120564D01*
X255690Y120941D01*
X255185Y121307D01*
X254670Y121659D01*
X254148Y121999D01*
X253617Y122326D01*
X253079Y122640D01*
X252532Y122941D01*
X251979Y123228D01*
X251419Y123501D01*
X250852Y123761D01*
X250279Y124007D01*
X249700Y124238D01*
X249116Y124455D01*
X248527Y124658D01*
X247932Y124846D01*
X247334Y125020D01*
X246731Y125179D01*
X246124Y125323D01*
X245514Y125452D01*
X244901Y125566D01*
X244286Y125665D01*
X243668Y125749D01*
X243049Y125818D01*
X242428Y125871D01*
X241805Y125909D01*
X241182Y125932D01*
X240559Y125940D01*
X258520Y118501D02*
X288301Y88720D01*
X288300Y88719D02*
X288747Y88284D01*
X289203Y87860D01*
X289670Y87447D01*
X290147Y87046D01*
X290634Y86656D01*
X291130Y86279D01*
X291635Y85913D01*
X292150Y85561D01*
X292672Y85221D01*
X293203Y84894D01*
X293741Y84580D01*
X294288Y84279D01*
X294841Y83992D01*
X295401Y83719D01*
X295968Y83459D01*
X296541Y83213D01*
X297120Y82982D01*
X297704Y82765D01*
X298293Y82562D01*
X298888Y82374D01*
X299486Y82200D01*
X300089Y82041D01*
X300696Y81897D01*
X301306Y81768D01*
X301919Y81654D01*
X302534Y81555D01*
X303152Y81471D01*
X303771Y81402D01*
X304392Y81349D01*
X305015Y81311D01*
X305638Y81288D01*
X306261Y81280D01*
X1414929Y81280D01*
X1415552Y81288D01*
X1416175Y81311D01*
X1416798Y81349D01*
X1417419Y81402D01*
X1418038Y81471D01*
X1418656Y81555D01*
X1419271Y81654D01*
X1419884Y81768D01*
X1420494Y81897D01*
X1421101Y82041D01*
X1421704Y82200D01*
X1422302Y82374D01*
X1422897Y82562D01*
X1423486Y82765D01*
X1424070Y82982D01*
X1424649Y83213D01*
X1425222Y83459D01*
X1425789Y83719D01*
X1426349Y83992D01*
X1426902Y84279D01*
X1427449Y84580D01*
X1427987Y84894D01*
X1428518Y85221D01*
X1429040Y85561D01*
X1429555Y85913D01*
X1430060Y86279D01*
X1430556Y86656D01*
X1431043Y87046D01*
X1431520Y87447D01*
X1431987Y87860D01*
X1432443Y88284D01*
X1432890Y88719D01*
X1456120Y111951D02*
X1456567Y112386D01*
X1457023Y112810D01*
X1457490Y113223D01*
X1457967Y113624D01*
X1458454Y114014D01*
X1458950Y114391D01*
X1459455Y114757D01*
X1459970Y115109D01*
X1460492Y115449D01*
X1461023Y115776D01*
X1461561Y116090D01*
X1462108Y116391D01*
X1462661Y116678D01*
X1463221Y116951D01*
X1463788Y117211D01*
X1464361Y117457D01*
X1464940Y117688D01*
X1465524Y117905D01*
X1466113Y118108D01*
X1466708Y118296D01*
X1467306Y118470D01*
X1467909Y118629D01*
X1468516Y118773D01*
X1469126Y118902D01*
X1469739Y119016D01*
X1470354Y119115D01*
X1470972Y119199D01*
X1471591Y119268D01*
X1472212Y119321D01*
X1472835Y119359D01*
X1473458Y119382D01*
X1474081Y119390D01*
X1456121Y111951D02*
X1432890Y88720D01*
X1474081Y119390D02*
X1488610Y119390D01*
X151180Y125940D02*
X109650Y125940D01*
D21*
X151180Y125940D03*
X163880Y125940D03*
X176580Y125940D03*
D29*
X151180Y125940D01*
D28*
X109650Y125940D02*
X77940Y125940D01*
X76000Y124000D01*
X80500Y120000D02*
X86500Y126000D01*
X176580Y125940D02*
X240559Y125940D01*
D20*
X76500Y124000D02*
X76000Y124000D01*
X76500Y124000D02*
X80500Y120000D01*
D19*
X6500Y-13000D03*
X0Y-13000D03*
X6500Y13000D03*
X0Y13000D03*
D24*
X36000Y11000D02*
X36002Y10882D01*
X36008Y10763D01*
X36017Y10645D01*
X36031Y10527D01*
X36048Y10410D01*
X36070Y10294D01*
X36095Y10178D01*
X36123Y10063D01*
X36156Y9949D01*
X36192Y9836D01*
X36232Y9725D01*
X36276Y9614D01*
X36323Y9506D01*
X36373Y9398D01*
X36428Y9293D01*
X36485Y9190D01*
X36546Y9088D01*
X36610Y8988D01*
X36678Y8891D01*
X36748Y8796D01*
X36822Y8703D01*
X36899Y8613D01*
X36978Y8525D01*
X37061Y8440D01*
X36000Y11000D02*
X36000Y13000D01*
X6500Y13000D01*
D19*
X47000Y0D03*
D24*
X51000Y0D01*
X47000Y0D02*
X46882Y2D01*
X46763Y8D01*
X46645Y17D01*
X46527Y31D01*
X46410Y48D01*
X46294Y70D01*
X46178Y95D01*
X46063Y123D01*
X45949Y156D01*
X45836Y192D01*
X45725Y232D01*
X45614Y276D01*
X45506Y323D01*
X45398Y373D01*
X45293Y428D01*
X45190Y485D01*
X45088Y546D01*
X44988Y610D01*
X44891Y678D01*
X44796Y748D01*
X44703Y822D01*
X44613Y899D01*
X44525Y978D01*
X44440Y1061D01*
X44439Y1061D02*
X37061Y8439D01*
X16500Y-13000D02*
X6500Y-13000D01*
D20*
X70696Y8697D02*
X71005Y8998D01*
X71320Y9291D01*
X71642Y9577D01*
X71971Y9856D01*
X72307Y10126D01*
X72649Y10388D01*
X72997Y10643D01*
X73351Y10888D01*
X73711Y11126D01*
X74076Y11354D01*
X74446Y11574D01*
X74822Y11785D01*
X75203Y11987D01*
X75588Y12180D01*
X75978Y12364D01*
X76372Y12538D01*
X76770Y12703D01*
X77172Y12858D01*
X77578Y13004D01*
X77987Y13140D01*
X78399Y13267D01*
X78814Y13383D01*
X79231Y13490D01*
X79651Y13586D01*
X80073Y13673D01*
X80497Y13749D01*
X80923Y13816D01*
X81350Y13872D01*
X81779Y13918D01*
X82208Y13954D01*
X82638Y13979D01*
X83069Y13995D01*
X83500Y14000D01*
X70697Y8697D02*
X69250Y7250D01*
X66871Y4438D01*
X63386Y-5318D01*
X59500Y-10500D01*
X59355Y-10642D01*
X59206Y-10780D01*
X59054Y-10915D01*
X58899Y-11046D01*
X58741Y-11174D01*
X58579Y-11297D01*
X58415Y-11417D01*
X58248Y-11533D01*
X58079Y-11645D01*
X57907Y-11753D01*
X57732Y-11856D01*
X57555Y-11956D01*
X57375Y-12051D01*
X57194Y-12142D01*
X57010Y-12229D01*
X56824Y-12311D01*
X56637Y-12389D01*
X56447Y-12462D01*
X56256Y-12531D01*
X56063Y-12595D01*
X55869Y-12654D01*
X55673Y-12709D01*
X55476Y-12759D01*
X55278Y-12805D01*
X55079Y-12846D01*
X54880Y-12882D01*
X54679Y-12913D01*
X54477Y-12940D01*
X54275Y-12961D01*
X54073Y-12978D01*
X53870Y-12990D01*
X53667Y-12998D01*
X53464Y-13000D01*
X51000Y-13000D01*
M02*
