G04 EAGLE Gerber X2 export*
%TF.Part,Single*%
%TF.FileFunction,Other,silk top*%
%TF.FilePolarity,Positive*%
%TF.GenerationSoftware,Autodesk,EAGLE,9.5.2*%
%TF.CreationDate,2020-03-22T20:07:34Z*%
G75*
%MOMM*%
%FSLAX34Y34*%
%LPD*%
%INsilk top*%
%AMOC8*
5,1,8,0,0,1.08239X$1,22.5*%
G01*
%ADD10C,0.000000*%
%ADD11C,0.127000*%
%ADD12C,0.152400*%
%ADD13C,0.101600*%
%ADD14R,0.500000X0.675000*%


D10*
X0Y-23000D02*
X3000Y-26000D01*
X17000Y-26000D01*
X39750Y136500D02*
X252500Y136500D01*
X39750Y136500D02*
X23750Y120500D01*
X7000Y120500D01*
X0Y113500D01*
X0Y107500D01*
X0Y94000D02*
X0Y75000D01*
X1000Y74000D01*
X4000Y74000D01*
X5000Y73000D01*
X5000Y70000D02*
X4000Y69000D01*
X1000Y69000D01*
X0Y68000D01*
X5000Y70000D02*
X5000Y73000D01*
X0Y68000D02*
X0Y42500D01*
X1000Y41500D01*
X4000Y41500D01*
X5000Y40500D01*
X5000Y37500D02*
X4000Y36500D01*
X1000Y36500D01*
X0Y35500D01*
X5000Y37500D02*
X5000Y40500D01*
X0Y-10000D02*
X0Y-23000D01*
X0Y-3000D02*
X0Y35500D01*
X0Y-3000D02*
X1000Y-4000D01*
X4000Y-4000D02*
X5000Y-5000D01*
X4000Y-4000D02*
X1000Y-4000D01*
X5000Y-5000D02*
X5000Y-8000D01*
X4000Y-9000D01*
X1000Y-9000D01*
X0Y-10000D01*
X1000Y106500D02*
X0Y107500D01*
X1000Y106500D02*
X4000Y106500D01*
X5000Y105500D01*
X5000Y96000D01*
X4000Y95000D01*
X1000Y95000D01*
X0Y94000D01*
D11*
X23445Y-20840D02*
X23447Y-20755D01*
X23453Y-20669D01*
X23462Y-20584D01*
X23476Y-20500D01*
X23493Y-20416D01*
X23514Y-20333D01*
X23538Y-20251D01*
X23566Y-20171D01*
X23598Y-20091D01*
X23634Y-20013D01*
X23672Y-19937D01*
X23715Y-19863D01*
X23760Y-19791D01*
X23809Y-19720D01*
X23861Y-19652D01*
X23915Y-19587D01*
X23973Y-19524D01*
X24034Y-19463D01*
X24097Y-19405D01*
X24162Y-19351D01*
X24230Y-19299D01*
X24301Y-19250D01*
X24373Y-19205D01*
X24447Y-19162D01*
X24523Y-19124D01*
X24601Y-19088D01*
X24681Y-19056D01*
X24761Y-19028D01*
X24843Y-19004D01*
X24926Y-18983D01*
X25010Y-18966D01*
X25094Y-18952D01*
X25179Y-18943D01*
X25265Y-18937D01*
X25350Y-18935D01*
X25435Y-18937D01*
X25521Y-18943D01*
X25606Y-18952D01*
X25690Y-18966D01*
X25774Y-18983D01*
X25857Y-19004D01*
X25939Y-19028D01*
X26019Y-19056D01*
X26099Y-19088D01*
X26177Y-19124D01*
X26253Y-19162D01*
X26327Y-19205D01*
X26399Y-19250D01*
X26470Y-19299D01*
X26538Y-19351D01*
X26603Y-19405D01*
X26666Y-19463D01*
X26727Y-19524D01*
X26785Y-19587D01*
X26839Y-19652D01*
X26891Y-19720D01*
X26940Y-19791D01*
X26985Y-19863D01*
X27028Y-19937D01*
X27066Y-20013D01*
X27102Y-20091D01*
X27134Y-20171D01*
X27162Y-20251D01*
X27186Y-20333D01*
X27207Y-20416D01*
X27224Y-20500D01*
X27238Y-20584D01*
X27247Y-20669D01*
X27253Y-20755D01*
X27255Y-20840D01*
X27253Y-20925D01*
X27247Y-21011D01*
X27238Y-21096D01*
X27224Y-21180D01*
X27207Y-21264D01*
X27186Y-21347D01*
X27162Y-21429D01*
X27134Y-21509D01*
X27102Y-21589D01*
X27066Y-21667D01*
X27028Y-21743D01*
X26985Y-21817D01*
X26940Y-21889D01*
X26891Y-21960D01*
X26839Y-22028D01*
X26785Y-22093D01*
X26727Y-22156D01*
X26666Y-22217D01*
X26603Y-22275D01*
X26538Y-22329D01*
X26470Y-22381D01*
X26399Y-22430D01*
X26327Y-22475D01*
X26253Y-22518D01*
X26177Y-22556D01*
X26099Y-22592D01*
X26019Y-22624D01*
X25939Y-22652D01*
X25857Y-22676D01*
X25774Y-22697D01*
X25690Y-22714D01*
X25606Y-22728D01*
X25521Y-22737D01*
X25435Y-22743D01*
X25350Y-22745D01*
X25265Y-22743D01*
X25179Y-22737D01*
X25094Y-22728D01*
X25010Y-22714D01*
X24926Y-22697D01*
X24843Y-22676D01*
X24761Y-22652D01*
X24681Y-22624D01*
X24601Y-22592D01*
X24523Y-22556D01*
X24447Y-22518D01*
X24373Y-22475D01*
X24301Y-22430D01*
X24230Y-22381D01*
X24162Y-22329D01*
X24097Y-22275D01*
X24034Y-22217D01*
X23973Y-22156D01*
X23915Y-22093D01*
X23861Y-22028D01*
X23809Y-21960D01*
X23760Y-21889D01*
X23715Y-21817D01*
X23672Y-21743D01*
X23634Y-21667D01*
X23598Y-21589D01*
X23566Y-21509D01*
X23538Y-21429D01*
X23514Y-21347D01*
X23493Y-21264D01*
X23476Y-21180D01*
X23462Y-21096D01*
X23453Y-21011D01*
X23447Y-20925D01*
X23445Y-20840D01*
X23826Y-17411D02*
X23828Y-17334D01*
X23834Y-17257D01*
X23844Y-17180D01*
X23857Y-17104D01*
X23875Y-17029D01*
X23896Y-16955D01*
X23921Y-16882D01*
X23950Y-16810D01*
X23982Y-16740D01*
X24017Y-16671D01*
X24057Y-16605D01*
X24099Y-16540D01*
X24145Y-16478D01*
X24194Y-16418D01*
X24245Y-16361D01*
X24300Y-16306D01*
X24357Y-16255D01*
X24417Y-16206D01*
X24479Y-16160D01*
X24544Y-16118D01*
X24610Y-16078D01*
X24679Y-16043D01*
X24749Y-16011D01*
X24821Y-15982D01*
X24894Y-15957D01*
X24968Y-15936D01*
X25043Y-15918D01*
X25119Y-15905D01*
X25196Y-15895D01*
X25273Y-15889D01*
X25350Y-15887D01*
X25427Y-15889D01*
X25504Y-15895D01*
X25581Y-15905D01*
X25657Y-15918D01*
X25732Y-15936D01*
X25806Y-15957D01*
X25879Y-15982D01*
X25951Y-16011D01*
X26021Y-16043D01*
X26090Y-16078D01*
X26156Y-16118D01*
X26221Y-16160D01*
X26283Y-16206D01*
X26343Y-16255D01*
X26400Y-16306D01*
X26455Y-16361D01*
X26506Y-16418D01*
X26555Y-16478D01*
X26601Y-16540D01*
X26643Y-16605D01*
X26683Y-16671D01*
X26718Y-16740D01*
X26750Y-16810D01*
X26779Y-16882D01*
X26804Y-16955D01*
X26825Y-17029D01*
X26843Y-17104D01*
X26856Y-17180D01*
X26866Y-17257D01*
X26872Y-17334D01*
X26874Y-17411D01*
X26872Y-17488D01*
X26866Y-17565D01*
X26856Y-17642D01*
X26843Y-17718D01*
X26825Y-17793D01*
X26804Y-17867D01*
X26779Y-17940D01*
X26750Y-18012D01*
X26718Y-18082D01*
X26683Y-18151D01*
X26643Y-18217D01*
X26601Y-18282D01*
X26555Y-18344D01*
X26506Y-18404D01*
X26455Y-18461D01*
X26400Y-18516D01*
X26343Y-18567D01*
X26283Y-18616D01*
X26221Y-18662D01*
X26156Y-18704D01*
X26090Y-18744D01*
X26021Y-18779D01*
X25951Y-18811D01*
X25879Y-18840D01*
X25806Y-18865D01*
X25732Y-18886D01*
X25657Y-18904D01*
X25581Y-18917D01*
X25504Y-18927D01*
X25427Y-18933D01*
X25350Y-18935D01*
X25273Y-18933D01*
X25196Y-18927D01*
X25119Y-18917D01*
X25043Y-18904D01*
X24968Y-18886D01*
X24894Y-18865D01*
X24821Y-18840D01*
X24749Y-18811D01*
X24679Y-18779D01*
X24610Y-18744D01*
X24544Y-18704D01*
X24479Y-18662D01*
X24417Y-18616D01*
X24357Y-18567D01*
X24300Y-18516D01*
X24245Y-18461D01*
X24194Y-18404D01*
X24145Y-18344D01*
X24099Y-18282D01*
X24057Y-18217D01*
X24017Y-18151D01*
X23982Y-18082D01*
X23950Y-18012D01*
X23921Y-17940D01*
X23896Y-17867D01*
X23875Y-17793D01*
X23857Y-17718D01*
X23844Y-17642D01*
X23834Y-17565D01*
X23828Y-17488D01*
X23826Y-17411D01*
X23445Y28089D02*
X25350Y29613D01*
X25350Y22755D01*
X23445Y22755D02*
X27255Y22755D01*
X30760Y22755D02*
X33046Y22755D01*
X33123Y22757D01*
X33200Y22763D01*
X33277Y22773D01*
X33353Y22786D01*
X33428Y22804D01*
X33502Y22825D01*
X33575Y22850D01*
X33647Y22879D01*
X33717Y22911D01*
X33786Y22946D01*
X33852Y22986D01*
X33917Y23028D01*
X33979Y23074D01*
X34039Y23123D01*
X34096Y23174D01*
X34151Y23229D01*
X34202Y23286D01*
X34251Y23346D01*
X34297Y23408D01*
X34339Y23473D01*
X34379Y23539D01*
X34414Y23608D01*
X34446Y23678D01*
X34475Y23750D01*
X34500Y23823D01*
X34521Y23897D01*
X34539Y23972D01*
X34552Y24048D01*
X34562Y24125D01*
X34568Y24202D01*
X34570Y24279D01*
X34570Y25041D01*
X34568Y25118D01*
X34562Y25195D01*
X34552Y25272D01*
X34539Y25348D01*
X34521Y25423D01*
X34500Y25497D01*
X34475Y25570D01*
X34446Y25642D01*
X34414Y25712D01*
X34379Y25781D01*
X34339Y25847D01*
X34297Y25912D01*
X34251Y25974D01*
X34202Y26034D01*
X34151Y26091D01*
X34096Y26146D01*
X34039Y26197D01*
X33979Y26246D01*
X33917Y26292D01*
X33852Y26334D01*
X33786Y26374D01*
X33717Y26409D01*
X33647Y26441D01*
X33575Y26470D01*
X33502Y26495D01*
X33428Y26516D01*
X33353Y26534D01*
X33277Y26547D01*
X33200Y26557D01*
X33123Y26563D01*
X33046Y26565D01*
X30760Y26565D01*
X30760Y29613D01*
X34570Y29613D01*
X27256Y60399D02*
X27254Y60481D01*
X27248Y60562D01*
X27239Y60643D01*
X27225Y60724D01*
X27208Y60803D01*
X27187Y60882D01*
X27162Y60960D01*
X27133Y61036D01*
X27101Y61111D01*
X27065Y61185D01*
X27026Y61257D01*
X26984Y61326D01*
X26938Y61394D01*
X26889Y61459D01*
X26837Y61522D01*
X26782Y61582D01*
X26724Y61640D01*
X26664Y61695D01*
X26601Y61747D01*
X26536Y61796D01*
X26468Y61842D01*
X26399Y61884D01*
X26327Y61923D01*
X26253Y61959D01*
X26178Y61991D01*
X26102Y62020D01*
X26024Y62045D01*
X25945Y62066D01*
X25866Y62083D01*
X25785Y62097D01*
X25704Y62106D01*
X25623Y62112D01*
X25541Y62114D01*
X25541Y62113D02*
X25449Y62111D01*
X25357Y62105D01*
X25265Y62096D01*
X25173Y62082D01*
X25083Y62065D01*
X24993Y62044D01*
X24904Y62019D01*
X24816Y61990D01*
X24729Y61958D01*
X24644Y61922D01*
X24561Y61883D01*
X24479Y61840D01*
X24399Y61794D01*
X24321Y61744D01*
X24245Y61692D01*
X24172Y61636D01*
X24101Y61577D01*
X24032Y61515D01*
X23966Y61450D01*
X23903Y61383D01*
X23843Y61313D01*
X23785Y61241D01*
X23731Y61166D01*
X23680Y61089D01*
X23632Y61010D01*
X23588Y60929D01*
X23547Y60846D01*
X23509Y60762D01*
X23475Y60676D01*
X23445Y60589D01*
X26684Y59065D02*
X26743Y59124D01*
X26799Y59185D01*
X26852Y59248D01*
X26903Y59314D01*
X26950Y59382D01*
X26994Y59452D01*
X27035Y59524D01*
X27073Y59598D01*
X27107Y59673D01*
X27138Y59750D01*
X27165Y59828D01*
X27189Y59908D01*
X27210Y59988D01*
X27226Y60069D01*
X27239Y60151D01*
X27249Y60233D01*
X27254Y60316D01*
X27256Y60399D01*
X26684Y59065D02*
X23445Y55255D01*
X27255Y55255D01*
X30760Y58684D02*
X30762Y58826D01*
X30767Y58969D01*
X30776Y59111D01*
X30789Y59253D01*
X30805Y59394D01*
X30824Y59535D01*
X30848Y59676D01*
X30874Y59816D01*
X30905Y59955D01*
X30939Y60093D01*
X30976Y60231D01*
X31016Y60367D01*
X31061Y60503D01*
X31108Y60637D01*
X31159Y60770D01*
X31213Y60902D01*
X31271Y61032D01*
X31332Y61161D01*
X31331Y61160D02*
X31357Y61229D01*
X31386Y61295D01*
X31418Y61361D01*
X31453Y61424D01*
X31492Y61486D01*
X31534Y61546D01*
X31579Y61603D01*
X31627Y61658D01*
X31678Y61710D01*
X31731Y61760D01*
X31787Y61806D01*
X31845Y61850D01*
X31906Y61891D01*
X31968Y61929D01*
X32032Y61963D01*
X32098Y61994D01*
X32166Y62022D01*
X32235Y62046D01*
X32305Y62066D01*
X32376Y62083D01*
X32447Y62096D01*
X32519Y62105D01*
X32592Y62111D01*
X32665Y62113D01*
X32738Y62111D01*
X32811Y62105D01*
X32883Y62096D01*
X32954Y62083D01*
X33025Y62066D01*
X33095Y62046D01*
X33164Y62022D01*
X33232Y61994D01*
X33298Y61963D01*
X33362Y61929D01*
X33424Y61891D01*
X33485Y61850D01*
X33543Y61806D01*
X33599Y61760D01*
X33652Y61710D01*
X33703Y61658D01*
X33751Y61603D01*
X33796Y61546D01*
X33838Y61486D01*
X33877Y61424D01*
X33912Y61361D01*
X33944Y61295D01*
X33973Y61229D01*
X33999Y61160D01*
X33999Y61161D02*
X34060Y61032D01*
X34118Y60902D01*
X34172Y60770D01*
X34223Y60637D01*
X34270Y60503D01*
X34315Y60367D01*
X34355Y60231D01*
X34392Y60093D01*
X34426Y59955D01*
X34457Y59816D01*
X34483Y59676D01*
X34507Y59535D01*
X34526Y59394D01*
X34542Y59253D01*
X34555Y59111D01*
X34564Y58969D01*
X34569Y58826D01*
X34571Y58684D01*
X30760Y58684D02*
X30762Y58542D01*
X30767Y58399D01*
X30776Y58257D01*
X30789Y58115D01*
X30805Y57974D01*
X30824Y57833D01*
X30848Y57692D01*
X30874Y57552D01*
X30905Y57413D01*
X30939Y57275D01*
X30976Y57137D01*
X31016Y57001D01*
X31061Y56865D01*
X31108Y56731D01*
X31159Y56598D01*
X31213Y56466D01*
X31271Y56336D01*
X31332Y56207D01*
X31331Y56208D02*
X31357Y56139D01*
X31386Y56073D01*
X31418Y56007D01*
X31453Y55944D01*
X31492Y55882D01*
X31534Y55822D01*
X31579Y55765D01*
X31627Y55710D01*
X31678Y55658D01*
X31731Y55608D01*
X31787Y55562D01*
X31845Y55518D01*
X31906Y55477D01*
X31968Y55439D01*
X32032Y55405D01*
X32098Y55374D01*
X32166Y55346D01*
X32235Y55322D01*
X32305Y55302D01*
X32376Y55285D01*
X32447Y55272D01*
X32519Y55263D01*
X32592Y55257D01*
X32665Y55255D01*
X33999Y56207D02*
X34060Y56336D01*
X34118Y56466D01*
X34172Y56598D01*
X34223Y56731D01*
X34270Y56865D01*
X34315Y57001D01*
X34355Y57137D01*
X34392Y57275D01*
X34426Y57413D01*
X34457Y57552D01*
X34483Y57692D01*
X34507Y57833D01*
X34526Y57974D01*
X34542Y58115D01*
X34555Y58257D01*
X34564Y58399D01*
X34569Y58542D01*
X34571Y58684D01*
X33999Y56208D02*
X33973Y56139D01*
X33944Y56073D01*
X33912Y56007D01*
X33877Y55944D01*
X33838Y55882D01*
X33796Y55822D01*
X33751Y55765D01*
X33703Y55710D01*
X33652Y55658D01*
X33599Y55608D01*
X33543Y55562D01*
X33485Y55518D01*
X33424Y55477D01*
X33362Y55439D01*
X33298Y55405D01*
X33232Y55374D01*
X33164Y55346D01*
X33095Y55322D01*
X33025Y55302D01*
X32954Y55285D01*
X32883Y55272D01*
X32811Y55263D01*
X32738Y55257D01*
X32665Y55255D01*
X31141Y56779D02*
X34189Y60589D01*
X27256Y92899D02*
X27254Y92981D01*
X27248Y93062D01*
X27239Y93143D01*
X27225Y93224D01*
X27208Y93303D01*
X27187Y93382D01*
X27162Y93460D01*
X27133Y93536D01*
X27101Y93611D01*
X27065Y93685D01*
X27026Y93757D01*
X26984Y93826D01*
X26938Y93894D01*
X26889Y93959D01*
X26837Y94022D01*
X26782Y94082D01*
X26724Y94140D01*
X26664Y94195D01*
X26601Y94247D01*
X26536Y94296D01*
X26468Y94342D01*
X26399Y94384D01*
X26327Y94423D01*
X26253Y94459D01*
X26178Y94491D01*
X26102Y94520D01*
X26024Y94545D01*
X25945Y94566D01*
X25866Y94583D01*
X25785Y94597D01*
X25704Y94606D01*
X25623Y94612D01*
X25541Y94614D01*
X25541Y94613D02*
X25449Y94611D01*
X25357Y94605D01*
X25265Y94596D01*
X25173Y94582D01*
X25083Y94565D01*
X24993Y94544D01*
X24904Y94519D01*
X24816Y94490D01*
X24729Y94458D01*
X24644Y94422D01*
X24561Y94383D01*
X24479Y94340D01*
X24399Y94294D01*
X24321Y94244D01*
X24245Y94192D01*
X24172Y94136D01*
X24101Y94077D01*
X24032Y94015D01*
X23966Y93950D01*
X23903Y93883D01*
X23843Y93813D01*
X23785Y93741D01*
X23731Y93666D01*
X23680Y93589D01*
X23632Y93510D01*
X23588Y93429D01*
X23547Y93346D01*
X23509Y93262D01*
X23475Y93176D01*
X23445Y93089D01*
X26684Y91565D02*
X26743Y91624D01*
X26799Y91685D01*
X26852Y91748D01*
X26903Y91814D01*
X26950Y91882D01*
X26994Y91952D01*
X27035Y92024D01*
X27073Y92098D01*
X27107Y92173D01*
X27138Y92250D01*
X27165Y92328D01*
X27189Y92408D01*
X27210Y92488D01*
X27226Y92569D01*
X27239Y92651D01*
X27249Y92733D01*
X27254Y92816D01*
X27256Y92899D01*
X26684Y91565D02*
X23445Y87755D01*
X27255Y87755D01*
X30760Y87755D02*
X33046Y87755D01*
X33123Y87757D01*
X33200Y87763D01*
X33277Y87773D01*
X33353Y87786D01*
X33428Y87804D01*
X33502Y87825D01*
X33575Y87850D01*
X33647Y87879D01*
X33717Y87911D01*
X33786Y87946D01*
X33852Y87986D01*
X33917Y88028D01*
X33979Y88074D01*
X34039Y88123D01*
X34096Y88174D01*
X34151Y88229D01*
X34202Y88286D01*
X34251Y88346D01*
X34297Y88408D01*
X34339Y88473D01*
X34379Y88539D01*
X34414Y88608D01*
X34446Y88678D01*
X34475Y88750D01*
X34500Y88823D01*
X34521Y88897D01*
X34539Y88972D01*
X34552Y89048D01*
X34562Y89125D01*
X34568Y89202D01*
X34570Y89279D01*
X34570Y90041D01*
X34568Y90118D01*
X34562Y90195D01*
X34552Y90272D01*
X34539Y90348D01*
X34521Y90423D01*
X34500Y90497D01*
X34475Y90570D01*
X34446Y90642D01*
X34414Y90712D01*
X34379Y90781D01*
X34339Y90847D01*
X34297Y90912D01*
X34251Y90974D01*
X34202Y91034D01*
X34151Y91091D01*
X34096Y91146D01*
X34039Y91197D01*
X33979Y91246D01*
X33917Y91292D01*
X33852Y91334D01*
X33786Y91374D01*
X33717Y91409D01*
X33647Y91441D01*
X33575Y91470D01*
X33502Y91495D01*
X33428Y91516D01*
X33353Y91534D01*
X33277Y91547D01*
X33200Y91557D01*
X33123Y91563D01*
X33046Y91565D01*
X30760Y91565D01*
X30760Y94613D01*
X34570Y94613D01*
X27256Y112399D02*
X27254Y112481D01*
X27248Y112562D01*
X27239Y112643D01*
X27225Y112724D01*
X27208Y112803D01*
X27187Y112882D01*
X27162Y112960D01*
X27133Y113036D01*
X27101Y113111D01*
X27065Y113185D01*
X27026Y113257D01*
X26984Y113326D01*
X26938Y113394D01*
X26889Y113459D01*
X26837Y113522D01*
X26782Y113582D01*
X26724Y113640D01*
X26664Y113695D01*
X26601Y113747D01*
X26536Y113796D01*
X26468Y113842D01*
X26399Y113884D01*
X26327Y113923D01*
X26253Y113959D01*
X26178Y113991D01*
X26102Y114020D01*
X26024Y114045D01*
X25945Y114066D01*
X25866Y114083D01*
X25785Y114097D01*
X25704Y114106D01*
X25623Y114112D01*
X25541Y114114D01*
X25541Y114113D02*
X25449Y114111D01*
X25357Y114105D01*
X25265Y114096D01*
X25173Y114082D01*
X25083Y114065D01*
X24993Y114044D01*
X24904Y114019D01*
X24816Y113990D01*
X24729Y113958D01*
X24644Y113922D01*
X24561Y113883D01*
X24479Y113840D01*
X24399Y113794D01*
X24321Y113744D01*
X24245Y113692D01*
X24172Y113636D01*
X24101Y113577D01*
X24032Y113515D01*
X23966Y113450D01*
X23903Y113383D01*
X23843Y113313D01*
X23785Y113241D01*
X23731Y113166D01*
X23680Y113089D01*
X23632Y113010D01*
X23588Y112929D01*
X23547Y112846D01*
X23509Y112762D01*
X23475Y112676D01*
X23445Y112589D01*
X26684Y111065D02*
X26743Y111124D01*
X26799Y111185D01*
X26852Y111248D01*
X26903Y111314D01*
X26950Y111382D01*
X26994Y111452D01*
X27035Y111524D01*
X27073Y111598D01*
X27107Y111673D01*
X27138Y111750D01*
X27165Y111828D01*
X27189Y111908D01*
X27210Y111988D01*
X27226Y112069D01*
X27239Y112151D01*
X27249Y112233D01*
X27254Y112316D01*
X27256Y112399D01*
X26684Y111065D02*
X23445Y107255D01*
X27255Y107255D01*
X30760Y109160D02*
X30762Y109245D01*
X30768Y109331D01*
X30777Y109416D01*
X30791Y109500D01*
X30808Y109584D01*
X30829Y109667D01*
X30853Y109749D01*
X30881Y109829D01*
X30913Y109909D01*
X30949Y109987D01*
X30987Y110063D01*
X31030Y110137D01*
X31075Y110209D01*
X31124Y110280D01*
X31176Y110348D01*
X31230Y110413D01*
X31288Y110476D01*
X31349Y110537D01*
X31412Y110595D01*
X31477Y110649D01*
X31545Y110701D01*
X31616Y110750D01*
X31688Y110795D01*
X31762Y110838D01*
X31838Y110876D01*
X31916Y110912D01*
X31996Y110944D01*
X32076Y110972D01*
X32158Y110996D01*
X32241Y111017D01*
X32325Y111034D01*
X32409Y111048D01*
X32494Y111057D01*
X32580Y111063D01*
X32665Y111065D01*
X32750Y111063D01*
X32836Y111057D01*
X32921Y111048D01*
X33005Y111034D01*
X33089Y111017D01*
X33172Y110996D01*
X33254Y110972D01*
X33334Y110944D01*
X33414Y110912D01*
X33492Y110876D01*
X33568Y110838D01*
X33642Y110795D01*
X33714Y110750D01*
X33785Y110701D01*
X33853Y110649D01*
X33918Y110595D01*
X33981Y110537D01*
X34042Y110476D01*
X34100Y110413D01*
X34154Y110348D01*
X34206Y110280D01*
X34255Y110209D01*
X34300Y110137D01*
X34343Y110063D01*
X34381Y109987D01*
X34417Y109909D01*
X34449Y109829D01*
X34477Y109749D01*
X34501Y109667D01*
X34522Y109584D01*
X34539Y109500D01*
X34553Y109416D01*
X34562Y109331D01*
X34568Y109245D01*
X34570Y109160D01*
X34568Y109075D01*
X34562Y108989D01*
X34553Y108904D01*
X34539Y108820D01*
X34522Y108736D01*
X34501Y108653D01*
X34477Y108571D01*
X34449Y108491D01*
X34417Y108411D01*
X34381Y108333D01*
X34343Y108257D01*
X34300Y108183D01*
X34255Y108111D01*
X34206Y108040D01*
X34154Y107972D01*
X34100Y107907D01*
X34042Y107844D01*
X33981Y107783D01*
X33918Y107725D01*
X33853Y107671D01*
X33785Y107619D01*
X33714Y107570D01*
X33642Y107525D01*
X33568Y107482D01*
X33492Y107444D01*
X33414Y107408D01*
X33334Y107376D01*
X33254Y107348D01*
X33172Y107324D01*
X33089Y107303D01*
X33005Y107286D01*
X32921Y107272D01*
X32836Y107263D01*
X32750Y107257D01*
X32665Y107255D01*
X32580Y107257D01*
X32494Y107263D01*
X32409Y107272D01*
X32325Y107286D01*
X32241Y107303D01*
X32158Y107324D01*
X32076Y107348D01*
X31996Y107376D01*
X31916Y107408D01*
X31838Y107444D01*
X31762Y107482D01*
X31688Y107525D01*
X31616Y107570D01*
X31545Y107619D01*
X31477Y107671D01*
X31412Y107725D01*
X31349Y107783D01*
X31288Y107844D01*
X31230Y107907D01*
X31176Y107972D01*
X31124Y108040D01*
X31075Y108111D01*
X31030Y108183D01*
X30987Y108257D01*
X30949Y108333D01*
X30913Y108411D01*
X30881Y108491D01*
X30853Y108571D01*
X30829Y108653D01*
X30808Y108736D01*
X30791Y108820D01*
X30777Y108904D01*
X30768Y108989D01*
X30762Y109075D01*
X30760Y109160D01*
X31141Y112589D02*
X31143Y112666D01*
X31149Y112743D01*
X31159Y112820D01*
X31172Y112896D01*
X31190Y112971D01*
X31211Y113045D01*
X31236Y113118D01*
X31265Y113190D01*
X31297Y113260D01*
X31332Y113329D01*
X31372Y113395D01*
X31414Y113460D01*
X31460Y113522D01*
X31509Y113582D01*
X31560Y113639D01*
X31615Y113694D01*
X31672Y113745D01*
X31732Y113794D01*
X31794Y113840D01*
X31859Y113882D01*
X31925Y113922D01*
X31994Y113957D01*
X32064Y113989D01*
X32136Y114018D01*
X32209Y114043D01*
X32283Y114064D01*
X32358Y114082D01*
X32434Y114095D01*
X32511Y114105D01*
X32588Y114111D01*
X32665Y114113D01*
X32742Y114111D01*
X32819Y114105D01*
X32896Y114095D01*
X32972Y114082D01*
X33047Y114064D01*
X33121Y114043D01*
X33194Y114018D01*
X33266Y113989D01*
X33336Y113957D01*
X33405Y113922D01*
X33471Y113882D01*
X33536Y113840D01*
X33598Y113794D01*
X33658Y113745D01*
X33715Y113694D01*
X33770Y113639D01*
X33821Y113582D01*
X33870Y113522D01*
X33916Y113460D01*
X33958Y113395D01*
X33998Y113329D01*
X34033Y113260D01*
X34065Y113190D01*
X34094Y113118D01*
X34119Y113045D01*
X34140Y112971D01*
X34158Y112896D01*
X34171Y112820D01*
X34181Y112743D01*
X34187Y112666D01*
X34189Y112589D01*
X34187Y112512D01*
X34181Y112435D01*
X34171Y112358D01*
X34158Y112282D01*
X34140Y112207D01*
X34119Y112133D01*
X34094Y112060D01*
X34065Y111988D01*
X34033Y111918D01*
X33998Y111849D01*
X33958Y111783D01*
X33916Y111718D01*
X33870Y111656D01*
X33821Y111596D01*
X33770Y111539D01*
X33715Y111484D01*
X33658Y111433D01*
X33598Y111384D01*
X33536Y111338D01*
X33471Y111296D01*
X33405Y111256D01*
X33336Y111221D01*
X33266Y111189D01*
X33194Y111160D01*
X33121Y111135D01*
X33047Y111114D01*
X32972Y111096D01*
X32896Y111083D01*
X32819Y111073D01*
X32742Y111067D01*
X32665Y111065D01*
X32588Y111067D01*
X32511Y111073D01*
X32434Y111083D01*
X32358Y111096D01*
X32283Y111114D01*
X32209Y111135D01*
X32136Y111160D01*
X32064Y111189D01*
X31994Y111221D01*
X31925Y111256D01*
X31859Y111296D01*
X31794Y111338D01*
X31732Y111384D01*
X31672Y111433D01*
X31615Y111484D01*
X31560Y111539D01*
X31509Y111596D01*
X31460Y111656D01*
X31414Y111718D01*
X31372Y111783D01*
X31332Y111849D01*
X31297Y111918D01*
X31265Y111988D01*
X31236Y112060D01*
X31211Y112133D01*
X31190Y112207D01*
X31172Y112282D01*
X31159Y112358D01*
X31149Y112435D01*
X31143Y112512D01*
X31141Y112589D01*
X57909Y-28615D02*
X59433Y-28615D01*
X57909Y-28615D02*
X57832Y-28613D01*
X57755Y-28607D01*
X57678Y-28597D01*
X57602Y-28584D01*
X57527Y-28566D01*
X57453Y-28545D01*
X57380Y-28520D01*
X57308Y-28491D01*
X57238Y-28459D01*
X57169Y-28424D01*
X57103Y-28384D01*
X57038Y-28342D01*
X56976Y-28296D01*
X56916Y-28247D01*
X56859Y-28196D01*
X56804Y-28141D01*
X56753Y-28084D01*
X56704Y-28024D01*
X56658Y-27962D01*
X56616Y-27897D01*
X56576Y-27831D01*
X56541Y-27762D01*
X56509Y-27692D01*
X56480Y-27620D01*
X56455Y-27547D01*
X56434Y-27473D01*
X56416Y-27398D01*
X56403Y-27322D01*
X56393Y-27245D01*
X56387Y-27168D01*
X56385Y-27091D01*
X56385Y-23281D01*
X56387Y-23204D01*
X56393Y-23127D01*
X56403Y-23050D01*
X56416Y-22974D01*
X56434Y-22899D01*
X56455Y-22825D01*
X56480Y-22752D01*
X56509Y-22680D01*
X56541Y-22610D01*
X56576Y-22541D01*
X56616Y-22475D01*
X56658Y-22410D01*
X56704Y-22348D01*
X56753Y-22288D01*
X56804Y-22231D01*
X56859Y-22176D01*
X56916Y-22125D01*
X56976Y-22076D01*
X57038Y-22030D01*
X57103Y-21988D01*
X57169Y-21948D01*
X57238Y-21913D01*
X57308Y-21881D01*
X57380Y-21852D01*
X57453Y-21827D01*
X57527Y-21806D01*
X57602Y-21788D01*
X57678Y-21775D01*
X57755Y-21765D01*
X57832Y-21759D01*
X57909Y-21757D01*
X59433Y-21757D01*
X61724Y-24043D02*
X64010Y-24043D01*
X62486Y-21757D02*
X62486Y-27472D01*
X62488Y-27538D01*
X62494Y-27605D01*
X62503Y-27670D01*
X62517Y-27736D01*
X62534Y-27800D01*
X62555Y-27863D01*
X62579Y-27925D01*
X62608Y-27985D01*
X62639Y-28043D01*
X62674Y-28100D01*
X62712Y-28155D01*
X62753Y-28207D01*
X62798Y-28256D01*
X62845Y-28303D01*
X62894Y-28348D01*
X62946Y-28389D01*
X63001Y-28427D01*
X63058Y-28462D01*
X63116Y-28493D01*
X63176Y-28522D01*
X63238Y-28546D01*
X63301Y-28567D01*
X63365Y-28584D01*
X63431Y-28598D01*
X63496Y-28607D01*
X63563Y-28613D01*
X63629Y-28615D01*
X64010Y-28615D01*
X67345Y-28615D02*
X67345Y-24043D01*
X69631Y-24043D01*
X69631Y-24805D01*
X72184Y-27472D02*
X72184Y-21757D01*
X72184Y-27472D02*
X72186Y-27538D01*
X72192Y-27605D01*
X72201Y-27670D01*
X72215Y-27736D01*
X72232Y-27800D01*
X72253Y-27863D01*
X72277Y-27925D01*
X72306Y-27985D01*
X72337Y-28043D01*
X72372Y-28100D01*
X72410Y-28155D01*
X72451Y-28207D01*
X72496Y-28256D01*
X72543Y-28303D01*
X72592Y-28348D01*
X72644Y-28389D01*
X72699Y-28427D01*
X72756Y-28462D01*
X72814Y-28493D01*
X72874Y-28522D01*
X72936Y-28546D01*
X72999Y-28567D01*
X73063Y-28584D01*
X73129Y-28598D01*
X73194Y-28607D01*
X73261Y-28613D01*
X73327Y-28615D01*
X82385Y-28615D02*
X82385Y-21757D01*
X84290Y-21757D01*
X84375Y-21759D01*
X84461Y-21765D01*
X84546Y-21774D01*
X84630Y-21788D01*
X84714Y-21805D01*
X84797Y-21826D01*
X84879Y-21850D01*
X84959Y-21878D01*
X85039Y-21910D01*
X85117Y-21946D01*
X85193Y-21984D01*
X85267Y-22027D01*
X85339Y-22072D01*
X85410Y-22121D01*
X85478Y-22173D01*
X85543Y-22227D01*
X85606Y-22285D01*
X85667Y-22346D01*
X85725Y-22409D01*
X85779Y-22474D01*
X85831Y-22542D01*
X85880Y-22613D01*
X85925Y-22685D01*
X85968Y-22759D01*
X86006Y-22835D01*
X86042Y-22913D01*
X86074Y-22993D01*
X86102Y-23073D01*
X86126Y-23155D01*
X86147Y-23238D01*
X86164Y-23322D01*
X86178Y-23406D01*
X86187Y-23491D01*
X86193Y-23577D01*
X86195Y-23662D01*
X86193Y-23747D01*
X86187Y-23833D01*
X86178Y-23918D01*
X86164Y-24002D01*
X86147Y-24086D01*
X86126Y-24169D01*
X86102Y-24251D01*
X86074Y-24331D01*
X86042Y-24411D01*
X86006Y-24489D01*
X85968Y-24565D01*
X85925Y-24639D01*
X85880Y-24711D01*
X85831Y-24782D01*
X85779Y-24850D01*
X85725Y-24915D01*
X85667Y-24978D01*
X85606Y-25039D01*
X85543Y-25097D01*
X85478Y-25151D01*
X85410Y-25203D01*
X85339Y-25252D01*
X85267Y-25297D01*
X85193Y-25340D01*
X85117Y-25378D01*
X85039Y-25414D01*
X84959Y-25446D01*
X84879Y-25474D01*
X84797Y-25498D01*
X84714Y-25519D01*
X84630Y-25536D01*
X84546Y-25550D01*
X84461Y-25559D01*
X84375Y-25565D01*
X84290Y-25567D01*
X82385Y-25567D01*
X84671Y-25567D02*
X86195Y-28615D01*
X90095Y-25948D02*
X92000Y-26710D01*
X90095Y-25948D02*
X90038Y-25923D01*
X89983Y-25895D01*
X89929Y-25863D01*
X89878Y-25828D01*
X89829Y-25789D01*
X89782Y-25748D01*
X89738Y-25704D01*
X89697Y-25657D01*
X89659Y-25607D01*
X89625Y-25555D01*
X89593Y-25502D01*
X89565Y-25446D01*
X89541Y-25389D01*
X89520Y-25330D01*
X89503Y-25270D01*
X89490Y-25209D01*
X89481Y-25147D01*
X89475Y-25085D01*
X89474Y-25023D01*
X89477Y-24961D01*
X89483Y-24899D01*
X89493Y-24837D01*
X89507Y-24777D01*
X89525Y-24717D01*
X89547Y-24658D01*
X89572Y-24602D01*
X89601Y-24546D01*
X89633Y-24493D01*
X89669Y-24442D01*
X89708Y-24393D01*
X89749Y-24347D01*
X89794Y-24303D01*
X89841Y-24262D01*
X89891Y-24225D01*
X89943Y-24190D01*
X89997Y-24159D01*
X90053Y-24132D01*
X90110Y-24108D01*
X90169Y-24087D01*
X90229Y-24071D01*
X90290Y-24058D01*
X90352Y-24049D01*
X90414Y-24044D01*
X90476Y-24043D01*
X90477Y-24043D02*
X90603Y-24047D01*
X90729Y-24054D01*
X90855Y-24065D01*
X90981Y-24080D01*
X91106Y-24098D01*
X91230Y-24120D01*
X91354Y-24146D01*
X91477Y-24175D01*
X91599Y-24208D01*
X91720Y-24244D01*
X91839Y-24284D01*
X91958Y-24328D01*
X92075Y-24374D01*
X92191Y-24424D01*
X92001Y-26710D02*
X92058Y-26735D01*
X92113Y-26763D01*
X92167Y-26795D01*
X92218Y-26830D01*
X92267Y-26869D01*
X92314Y-26910D01*
X92358Y-26954D01*
X92399Y-27001D01*
X92437Y-27051D01*
X92471Y-27103D01*
X92503Y-27156D01*
X92531Y-27212D01*
X92555Y-27269D01*
X92576Y-27328D01*
X92593Y-27388D01*
X92606Y-27449D01*
X92615Y-27511D01*
X92621Y-27573D01*
X92622Y-27635D01*
X92619Y-27697D01*
X92613Y-27759D01*
X92603Y-27821D01*
X92589Y-27881D01*
X92571Y-27941D01*
X92549Y-28000D01*
X92524Y-28056D01*
X92495Y-28112D01*
X92463Y-28165D01*
X92427Y-28216D01*
X92388Y-28265D01*
X92347Y-28311D01*
X92302Y-28355D01*
X92255Y-28396D01*
X92205Y-28433D01*
X92153Y-28468D01*
X92099Y-28499D01*
X92043Y-28526D01*
X91986Y-28550D01*
X91927Y-28571D01*
X91867Y-28587D01*
X91806Y-28600D01*
X91744Y-28609D01*
X91682Y-28614D01*
X91620Y-28615D01*
X91467Y-28611D01*
X91314Y-28604D01*
X91162Y-28593D01*
X91010Y-28578D01*
X90858Y-28559D01*
X90707Y-28537D01*
X90556Y-28512D01*
X90406Y-28483D01*
X90257Y-28450D01*
X90108Y-28414D01*
X89961Y-28374D01*
X89814Y-28331D01*
X89668Y-28284D01*
X89524Y-28234D01*
X95182Y-24043D02*
X97468Y-24043D01*
X95944Y-21757D02*
X95944Y-27472D01*
X95946Y-27538D01*
X95952Y-27605D01*
X95961Y-27670D01*
X95975Y-27736D01*
X95992Y-27800D01*
X96013Y-27863D01*
X96037Y-27925D01*
X96066Y-27985D01*
X96097Y-28043D01*
X96132Y-28100D01*
X96170Y-28155D01*
X96211Y-28207D01*
X96256Y-28256D01*
X96303Y-28303D01*
X96352Y-28348D01*
X96404Y-28389D01*
X96459Y-28427D01*
X96516Y-28462D01*
X96574Y-28493D01*
X96634Y-28522D01*
X96696Y-28546D01*
X96759Y-28567D01*
X96823Y-28584D01*
X96889Y-28598D01*
X96954Y-28607D01*
X97021Y-28613D01*
X97087Y-28615D01*
X97468Y-28615D01*
X68491Y-12543D02*
X66205Y-12543D01*
X66967Y-10257D02*
X66967Y-15972D01*
X66969Y-16038D01*
X66975Y-16105D01*
X66984Y-16170D01*
X66998Y-16236D01*
X67015Y-16300D01*
X67036Y-16363D01*
X67060Y-16425D01*
X67089Y-16485D01*
X67120Y-16543D01*
X67155Y-16600D01*
X67193Y-16655D01*
X67234Y-16707D01*
X67279Y-16756D01*
X67326Y-16803D01*
X67375Y-16848D01*
X67427Y-16889D01*
X67482Y-16927D01*
X67539Y-16962D01*
X67597Y-16993D01*
X67657Y-17022D01*
X67719Y-17046D01*
X67782Y-17067D01*
X67846Y-17084D01*
X67912Y-17098D01*
X67977Y-17107D01*
X68044Y-17113D01*
X68110Y-17115D01*
X68491Y-17115D01*
X71519Y-15591D02*
X71519Y-14067D01*
X71521Y-13990D01*
X71527Y-13913D01*
X71537Y-13836D01*
X71550Y-13760D01*
X71568Y-13685D01*
X71589Y-13611D01*
X71614Y-13538D01*
X71643Y-13466D01*
X71675Y-13396D01*
X71710Y-13327D01*
X71750Y-13261D01*
X71792Y-13196D01*
X71838Y-13134D01*
X71887Y-13074D01*
X71938Y-13017D01*
X71993Y-12962D01*
X72050Y-12911D01*
X72110Y-12862D01*
X72172Y-12816D01*
X72237Y-12774D01*
X72303Y-12734D01*
X72372Y-12699D01*
X72442Y-12667D01*
X72514Y-12638D01*
X72587Y-12613D01*
X72661Y-12592D01*
X72736Y-12574D01*
X72812Y-12561D01*
X72889Y-12551D01*
X72966Y-12545D01*
X73043Y-12543D01*
X73120Y-12545D01*
X73197Y-12551D01*
X73274Y-12561D01*
X73350Y-12574D01*
X73425Y-12592D01*
X73499Y-12613D01*
X73572Y-12638D01*
X73644Y-12667D01*
X73714Y-12699D01*
X73783Y-12734D01*
X73849Y-12774D01*
X73914Y-12816D01*
X73976Y-12862D01*
X74036Y-12911D01*
X74093Y-12962D01*
X74148Y-13017D01*
X74199Y-13074D01*
X74248Y-13134D01*
X74294Y-13196D01*
X74336Y-13261D01*
X74376Y-13327D01*
X74411Y-13396D01*
X74443Y-13466D01*
X74472Y-13538D01*
X74497Y-13611D01*
X74518Y-13685D01*
X74536Y-13760D01*
X74549Y-13836D01*
X74559Y-13913D01*
X74565Y-13990D01*
X74567Y-14067D01*
X74567Y-15591D01*
X74565Y-15668D01*
X74559Y-15745D01*
X74549Y-15822D01*
X74536Y-15898D01*
X74518Y-15973D01*
X74497Y-16047D01*
X74472Y-16120D01*
X74443Y-16192D01*
X74411Y-16262D01*
X74376Y-16331D01*
X74336Y-16397D01*
X74294Y-16462D01*
X74248Y-16524D01*
X74199Y-16584D01*
X74148Y-16641D01*
X74093Y-16696D01*
X74036Y-16747D01*
X73976Y-16796D01*
X73914Y-16842D01*
X73849Y-16884D01*
X73783Y-16924D01*
X73714Y-16959D01*
X73644Y-16991D01*
X73572Y-17020D01*
X73499Y-17045D01*
X73425Y-17066D01*
X73350Y-17084D01*
X73274Y-17097D01*
X73197Y-17107D01*
X73120Y-17113D01*
X73043Y-17115D01*
X72966Y-17113D01*
X72889Y-17107D01*
X72812Y-17097D01*
X72736Y-17084D01*
X72661Y-17066D01*
X72587Y-17045D01*
X72514Y-17020D01*
X72442Y-16991D01*
X72372Y-16959D01*
X72303Y-16924D01*
X72237Y-16884D01*
X72172Y-16842D01*
X72110Y-16796D01*
X72050Y-16747D01*
X71993Y-16696D01*
X71938Y-16641D01*
X71887Y-16584D01*
X71838Y-16524D01*
X71792Y-16462D01*
X71750Y-16397D01*
X71710Y-16331D01*
X71675Y-16262D01*
X71643Y-16192D01*
X71614Y-16120D01*
X71589Y-16047D01*
X71568Y-15973D01*
X71550Y-15898D01*
X71537Y-15822D01*
X71527Y-15745D01*
X71521Y-15668D01*
X71519Y-15591D01*
X82111Y-17115D02*
X82111Y-10257D01*
X85921Y-17115D01*
X85921Y-10257D01*
X89670Y-13305D02*
X91956Y-13305D01*
X92033Y-13307D01*
X92110Y-13313D01*
X92187Y-13323D01*
X92263Y-13336D01*
X92338Y-13354D01*
X92412Y-13375D01*
X92485Y-13400D01*
X92557Y-13429D01*
X92627Y-13461D01*
X92696Y-13496D01*
X92762Y-13536D01*
X92827Y-13578D01*
X92889Y-13624D01*
X92949Y-13673D01*
X93006Y-13724D01*
X93061Y-13779D01*
X93112Y-13836D01*
X93161Y-13896D01*
X93207Y-13958D01*
X93249Y-14023D01*
X93289Y-14089D01*
X93324Y-14158D01*
X93356Y-14228D01*
X93385Y-14300D01*
X93410Y-14373D01*
X93431Y-14447D01*
X93449Y-14522D01*
X93462Y-14598D01*
X93472Y-14675D01*
X93478Y-14752D01*
X93480Y-14829D01*
X93480Y-15210D01*
X93478Y-15295D01*
X93472Y-15381D01*
X93463Y-15466D01*
X93449Y-15550D01*
X93432Y-15634D01*
X93411Y-15717D01*
X93387Y-15799D01*
X93359Y-15879D01*
X93327Y-15959D01*
X93291Y-16037D01*
X93253Y-16113D01*
X93210Y-16187D01*
X93165Y-16259D01*
X93116Y-16330D01*
X93064Y-16398D01*
X93010Y-16463D01*
X92952Y-16526D01*
X92891Y-16587D01*
X92828Y-16645D01*
X92763Y-16699D01*
X92695Y-16751D01*
X92624Y-16800D01*
X92552Y-16845D01*
X92478Y-16888D01*
X92402Y-16926D01*
X92324Y-16962D01*
X92244Y-16994D01*
X92164Y-17022D01*
X92082Y-17046D01*
X91999Y-17067D01*
X91915Y-17084D01*
X91831Y-17098D01*
X91746Y-17107D01*
X91660Y-17113D01*
X91575Y-17115D01*
X91490Y-17113D01*
X91404Y-17107D01*
X91319Y-17098D01*
X91235Y-17084D01*
X91151Y-17067D01*
X91068Y-17046D01*
X90986Y-17022D01*
X90906Y-16994D01*
X90826Y-16962D01*
X90748Y-16926D01*
X90672Y-16888D01*
X90598Y-16845D01*
X90526Y-16800D01*
X90455Y-16751D01*
X90387Y-16699D01*
X90322Y-16645D01*
X90259Y-16587D01*
X90198Y-16526D01*
X90140Y-16463D01*
X90086Y-16398D01*
X90034Y-16330D01*
X89985Y-16259D01*
X89940Y-16187D01*
X89897Y-16113D01*
X89859Y-16037D01*
X89823Y-15959D01*
X89791Y-15879D01*
X89763Y-15799D01*
X89739Y-15717D01*
X89718Y-15634D01*
X89701Y-15550D01*
X89687Y-15466D01*
X89678Y-15381D01*
X89672Y-15295D01*
X89670Y-15210D01*
X89670Y-13305D01*
X89672Y-13196D01*
X89678Y-13088D01*
X89687Y-12979D01*
X89701Y-12871D01*
X89718Y-12764D01*
X89740Y-12657D01*
X89765Y-12551D01*
X89793Y-12446D01*
X89826Y-12342D01*
X89862Y-12240D01*
X89902Y-12139D01*
X89945Y-12039D01*
X89992Y-11941D01*
X90043Y-11844D01*
X90097Y-11750D01*
X90154Y-11657D01*
X90214Y-11567D01*
X90278Y-11478D01*
X90345Y-11392D01*
X90414Y-11309D01*
X90487Y-11228D01*
X90563Y-11150D01*
X90641Y-11074D01*
X90722Y-11001D01*
X90805Y-10932D01*
X90891Y-10865D01*
X90980Y-10801D01*
X91070Y-10741D01*
X91163Y-10684D01*
X91257Y-10630D01*
X91354Y-10579D01*
X91452Y-10532D01*
X91552Y-10489D01*
X91653Y-10449D01*
X91755Y-10413D01*
X91859Y-10380D01*
X91964Y-10352D01*
X92070Y-10327D01*
X92177Y-10305D01*
X92284Y-10288D01*
X92392Y-10274D01*
X92501Y-10265D01*
X92609Y-10259D01*
X92718Y-10257D01*
X98509Y-10257D02*
X96985Y-15591D01*
X100795Y-15591D01*
X99652Y-14067D02*
X99652Y-17115D01*
X45365Y34440D02*
X38507Y34440D01*
X38507Y36345D01*
X38509Y36430D01*
X38515Y36516D01*
X38524Y36601D01*
X38538Y36685D01*
X38555Y36769D01*
X38576Y36852D01*
X38600Y36934D01*
X38628Y37014D01*
X38660Y37094D01*
X38696Y37172D01*
X38734Y37248D01*
X38777Y37322D01*
X38822Y37394D01*
X38871Y37465D01*
X38923Y37533D01*
X38977Y37598D01*
X39035Y37661D01*
X39096Y37722D01*
X39159Y37780D01*
X39224Y37834D01*
X39292Y37886D01*
X39363Y37935D01*
X39435Y37980D01*
X39509Y38023D01*
X39585Y38061D01*
X39663Y38097D01*
X39743Y38129D01*
X39823Y38157D01*
X39905Y38181D01*
X39988Y38202D01*
X40072Y38219D01*
X40156Y38233D01*
X40241Y38242D01*
X40327Y38248D01*
X40412Y38250D01*
X40497Y38248D01*
X40583Y38242D01*
X40668Y38233D01*
X40752Y38219D01*
X40836Y38202D01*
X40919Y38181D01*
X41001Y38157D01*
X41081Y38129D01*
X41161Y38097D01*
X41239Y38061D01*
X41315Y38023D01*
X41389Y37980D01*
X41461Y37935D01*
X41532Y37886D01*
X41600Y37834D01*
X41665Y37780D01*
X41728Y37722D01*
X41789Y37661D01*
X41847Y37598D01*
X41901Y37533D01*
X41953Y37465D01*
X42002Y37394D01*
X42047Y37322D01*
X42090Y37248D01*
X42128Y37172D01*
X42164Y37094D01*
X42196Y37014D01*
X42224Y36934D01*
X42248Y36852D01*
X42269Y36769D01*
X42286Y36685D01*
X42300Y36601D01*
X42309Y36516D01*
X42315Y36430D01*
X42317Y36345D01*
X42317Y34440D01*
X42317Y36726D02*
X45365Y38250D01*
X45365Y43179D02*
X45365Y44703D01*
X45365Y43179D02*
X45363Y43102D01*
X45357Y43025D01*
X45347Y42948D01*
X45334Y42872D01*
X45316Y42797D01*
X45295Y42723D01*
X45270Y42650D01*
X45241Y42578D01*
X45209Y42508D01*
X45174Y42439D01*
X45134Y42373D01*
X45092Y42308D01*
X45046Y42246D01*
X44997Y42186D01*
X44946Y42129D01*
X44891Y42074D01*
X44834Y42023D01*
X44774Y41974D01*
X44712Y41928D01*
X44647Y41886D01*
X44581Y41846D01*
X44512Y41811D01*
X44442Y41779D01*
X44370Y41750D01*
X44297Y41725D01*
X44223Y41704D01*
X44148Y41686D01*
X44072Y41673D01*
X43995Y41663D01*
X43918Y41657D01*
X43841Y41655D01*
X40031Y41655D01*
X39954Y41657D01*
X39877Y41663D01*
X39800Y41673D01*
X39724Y41686D01*
X39649Y41704D01*
X39575Y41725D01*
X39502Y41750D01*
X39430Y41779D01*
X39360Y41811D01*
X39291Y41846D01*
X39225Y41886D01*
X39160Y41928D01*
X39098Y41974D01*
X39038Y42023D01*
X38981Y42074D01*
X38926Y42129D01*
X38875Y42186D01*
X38826Y42246D01*
X38780Y42308D01*
X38738Y42373D01*
X38698Y42439D01*
X38663Y42508D01*
X38631Y42578D01*
X38602Y42650D01*
X38577Y42723D01*
X38556Y42797D01*
X38538Y42872D01*
X38525Y42948D01*
X38515Y43025D01*
X38509Y43102D01*
X38507Y43179D01*
X38507Y44703D01*
X38507Y48186D02*
X45365Y48186D01*
X38507Y48186D02*
X38507Y50091D01*
X38509Y50176D01*
X38515Y50262D01*
X38524Y50347D01*
X38538Y50431D01*
X38555Y50515D01*
X38576Y50598D01*
X38600Y50680D01*
X38628Y50760D01*
X38660Y50840D01*
X38696Y50918D01*
X38734Y50994D01*
X38777Y51068D01*
X38822Y51140D01*
X38871Y51211D01*
X38923Y51279D01*
X38977Y51344D01*
X39035Y51407D01*
X39096Y51468D01*
X39159Y51526D01*
X39224Y51580D01*
X39292Y51632D01*
X39363Y51681D01*
X39435Y51726D01*
X39509Y51769D01*
X39585Y51807D01*
X39663Y51843D01*
X39743Y51875D01*
X39823Y51903D01*
X39905Y51927D01*
X39988Y51948D01*
X40072Y51965D01*
X40156Y51979D01*
X40241Y51988D01*
X40327Y51994D01*
X40412Y51996D01*
X40497Y51994D01*
X40583Y51988D01*
X40668Y51979D01*
X40752Y51965D01*
X40836Y51948D01*
X40919Y51927D01*
X41001Y51903D01*
X41081Y51875D01*
X41161Y51843D01*
X41239Y51807D01*
X41315Y51769D01*
X41389Y51726D01*
X41461Y51681D01*
X41532Y51632D01*
X41600Y51580D01*
X41665Y51526D01*
X41728Y51468D01*
X41789Y51407D01*
X41847Y51344D01*
X41901Y51279D01*
X41953Y51211D01*
X42002Y51140D01*
X42047Y51068D01*
X42090Y50994D01*
X42128Y50918D01*
X42164Y50840D01*
X42196Y50760D01*
X42224Y50680D01*
X42248Y50598D01*
X42269Y50515D01*
X42286Y50431D01*
X42300Y50347D01*
X42309Y50262D01*
X42315Y50176D01*
X42317Y50091D01*
X42317Y48186D01*
X42698Y55204D02*
X42698Y59776D01*
X45365Y63632D02*
X38507Y63632D01*
X45365Y67442D01*
X38507Y67442D01*
X38507Y71434D02*
X43460Y71434D01*
X43545Y71436D01*
X43631Y71442D01*
X43716Y71451D01*
X43800Y71465D01*
X43884Y71482D01*
X43967Y71503D01*
X44049Y71527D01*
X44129Y71555D01*
X44209Y71587D01*
X44287Y71623D01*
X44363Y71661D01*
X44437Y71704D01*
X44509Y71749D01*
X44580Y71798D01*
X44648Y71850D01*
X44713Y71904D01*
X44776Y71962D01*
X44837Y72023D01*
X44895Y72086D01*
X44949Y72151D01*
X45001Y72219D01*
X45050Y72290D01*
X45095Y72362D01*
X45138Y72436D01*
X45176Y72512D01*
X45212Y72590D01*
X45244Y72670D01*
X45272Y72750D01*
X45296Y72832D01*
X45317Y72915D01*
X45334Y72999D01*
X45348Y73083D01*
X45357Y73168D01*
X45363Y73254D01*
X45365Y73339D01*
X45363Y73424D01*
X45357Y73510D01*
X45348Y73595D01*
X45334Y73679D01*
X45317Y73763D01*
X45296Y73846D01*
X45272Y73928D01*
X45244Y74008D01*
X45212Y74088D01*
X45176Y74166D01*
X45138Y74242D01*
X45095Y74316D01*
X45050Y74388D01*
X45001Y74459D01*
X44949Y74527D01*
X44895Y74592D01*
X44837Y74655D01*
X44776Y74716D01*
X44713Y74774D01*
X44648Y74828D01*
X44580Y74880D01*
X44509Y74929D01*
X44437Y74974D01*
X44363Y75017D01*
X44287Y75055D01*
X44209Y75091D01*
X44129Y75123D01*
X44049Y75151D01*
X43967Y75175D01*
X43884Y75196D01*
X43800Y75213D01*
X43716Y75227D01*
X43631Y75236D01*
X43545Y75242D01*
X43460Y75244D01*
X38507Y75244D01*
X45365Y81036D02*
X45363Y81113D01*
X45357Y81190D01*
X45347Y81267D01*
X45334Y81343D01*
X45316Y81418D01*
X45295Y81492D01*
X45270Y81565D01*
X45241Y81637D01*
X45209Y81707D01*
X45174Y81776D01*
X45134Y81842D01*
X45092Y81907D01*
X45046Y81969D01*
X44997Y82029D01*
X44946Y82086D01*
X44891Y82141D01*
X44834Y82192D01*
X44774Y82241D01*
X44712Y82287D01*
X44647Y82329D01*
X44581Y82369D01*
X44512Y82404D01*
X44442Y82436D01*
X44370Y82465D01*
X44297Y82490D01*
X44223Y82511D01*
X44148Y82529D01*
X44072Y82542D01*
X43995Y82552D01*
X43918Y82558D01*
X43841Y82560D01*
X45365Y81036D02*
X45363Y80926D01*
X45357Y80815D01*
X45348Y80705D01*
X45335Y80595D01*
X45318Y80486D01*
X45297Y80378D01*
X45273Y80270D01*
X45244Y80163D01*
X45213Y80057D01*
X45177Y79953D01*
X45138Y79849D01*
X45096Y79747D01*
X45050Y79647D01*
X45000Y79548D01*
X44948Y79451D01*
X44891Y79355D01*
X44832Y79262D01*
X44770Y79171D01*
X44704Y79082D01*
X44636Y78995D01*
X44564Y78911D01*
X44490Y78829D01*
X44413Y78750D01*
X40031Y78940D02*
X39954Y78942D01*
X39877Y78948D01*
X39800Y78958D01*
X39724Y78971D01*
X39649Y78989D01*
X39575Y79010D01*
X39502Y79035D01*
X39430Y79064D01*
X39360Y79096D01*
X39291Y79131D01*
X39225Y79171D01*
X39160Y79213D01*
X39098Y79259D01*
X39038Y79308D01*
X38981Y79359D01*
X38926Y79414D01*
X38875Y79471D01*
X38826Y79531D01*
X38780Y79593D01*
X38738Y79658D01*
X38698Y79724D01*
X38663Y79793D01*
X38631Y79863D01*
X38602Y79935D01*
X38577Y80008D01*
X38556Y80082D01*
X38538Y80157D01*
X38525Y80233D01*
X38515Y80310D01*
X38509Y80387D01*
X38507Y80464D01*
X38509Y80566D01*
X38514Y80668D01*
X38523Y80770D01*
X38536Y80871D01*
X38553Y80972D01*
X38572Y81072D01*
X38596Y81172D01*
X38623Y81270D01*
X38654Y81368D01*
X38688Y81464D01*
X38725Y81559D01*
X38766Y81653D01*
X38810Y81745D01*
X38858Y81835D01*
X38908Y81924D01*
X38962Y82011D01*
X39019Y82096D01*
X39079Y82179D01*
X41365Y79702D02*
X41324Y79637D01*
X41281Y79574D01*
X41234Y79514D01*
X41184Y79455D01*
X41132Y79400D01*
X41077Y79347D01*
X41019Y79296D01*
X40959Y79249D01*
X40896Y79205D01*
X40832Y79163D01*
X40766Y79125D01*
X40697Y79091D01*
X40627Y79060D01*
X40556Y79032D01*
X40484Y79008D01*
X40410Y78987D01*
X40335Y78970D01*
X40260Y78957D01*
X40184Y78948D01*
X40108Y78942D01*
X40031Y78940D01*
X42507Y81798D02*
X42548Y81863D01*
X42591Y81926D01*
X42638Y81986D01*
X42688Y82045D01*
X42740Y82100D01*
X42795Y82153D01*
X42853Y82204D01*
X42913Y82251D01*
X42976Y82295D01*
X43040Y82337D01*
X43106Y82375D01*
X43175Y82409D01*
X43245Y82440D01*
X43316Y82468D01*
X43388Y82492D01*
X43462Y82513D01*
X43537Y82530D01*
X43612Y82543D01*
X43688Y82552D01*
X43764Y82558D01*
X43841Y82560D01*
X42508Y81798D02*
X41365Y79702D01*
D12*
X216762Y-1362D02*
X216762Y-9998D01*
X216762Y-1362D02*
X219161Y-1362D01*
X219258Y-1364D01*
X219354Y-1370D01*
X219450Y-1379D01*
X219546Y-1393D01*
X219641Y-1410D01*
X219735Y-1432D01*
X219828Y-1457D01*
X219921Y-1485D01*
X220012Y-1518D01*
X220101Y-1554D01*
X220189Y-1594D01*
X220276Y-1637D01*
X220361Y-1683D01*
X220443Y-1733D01*
X220524Y-1787D01*
X220602Y-1843D01*
X220678Y-1903D01*
X220752Y-1965D01*
X220823Y-2031D01*
X220891Y-2099D01*
X220957Y-2170D01*
X221019Y-2244D01*
X221079Y-2320D01*
X221135Y-2398D01*
X221189Y-2479D01*
X221239Y-2562D01*
X221285Y-2646D01*
X221328Y-2733D01*
X221368Y-2821D01*
X221404Y-2910D01*
X221437Y-3001D01*
X221465Y-3094D01*
X221490Y-3187D01*
X221512Y-3281D01*
X221529Y-3376D01*
X221543Y-3472D01*
X221552Y-3568D01*
X221558Y-3664D01*
X221560Y-3761D01*
X221558Y-3858D01*
X221552Y-3954D01*
X221543Y-4050D01*
X221529Y-4146D01*
X221512Y-4241D01*
X221490Y-4335D01*
X221465Y-4428D01*
X221437Y-4521D01*
X221404Y-4612D01*
X221368Y-4701D01*
X221328Y-4789D01*
X221285Y-4876D01*
X221239Y-4961D01*
X221189Y-5043D01*
X221135Y-5124D01*
X221079Y-5202D01*
X221019Y-5278D01*
X220957Y-5352D01*
X220891Y-5423D01*
X220823Y-5491D01*
X220752Y-5557D01*
X220678Y-5619D01*
X220602Y-5679D01*
X220524Y-5735D01*
X220443Y-5789D01*
X220361Y-5839D01*
X220276Y-5885D01*
X220189Y-5928D01*
X220101Y-5968D01*
X220012Y-6004D01*
X219921Y-6037D01*
X219828Y-6065D01*
X219735Y-6090D01*
X219641Y-6112D01*
X219546Y-6129D01*
X219450Y-6143D01*
X219354Y-6152D01*
X219258Y-6158D01*
X219161Y-6160D01*
X216762Y-6160D01*
X219641Y-6160D02*
X221560Y-9998D01*
X227702Y-9998D02*
X229621Y-9998D01*
X227702Y-9998D02*
X227616Y-9996D01*
X227530Y-9990D01*
X227444Y-9981D01*
X227359Y-9967D01*
X227275Y-9950D01*
X227191Y-9929D01*
X227109Y-9904D01*
X227028Y-9876D01*
X226948Y-9844D01*
X226869Y-9808D01*
X226793Y-9769D01*
X226718Y-9726D01*
X226645Y-9681D01*
X226574Y-9632D01*
X226506Y-9579D01*
X226439Y-9524D01*
X226376Y-9466D01*
X226315Y-9405D01*
X226257Y-9342D01*
X226202Y-9275D01*
X226150Y-9207D01*
X226100Y-9136D01*
X226055Y-9063D01*
X226012Y-8988D01*
X225973Y-8912D01*
X225937Y-8833D01*
X225905Y-8753D01*
X225877Y-8672D01*
X225852Y-8590D01*
X225831Y-8506D01*
X225814Y-8422D01*
X225800Y-8337D01*
X225791Y-8251D01*
X225785Y-8165D01*
X225783Y-8079D01*
X225783Y-3281D01*
X225785Y-3195D01*
X225791Y-3109D01*
X225800Y-3023D01*
X225814Y-2938D01*
X225831Y-2854D01*
X225852Y-2770D01*
X225877Y-2688D01*
X225905Y-2607D01*
X225937Y-2527D01*
X225973Y-2448D01*
X226012Y-2372D01*
X226055Y-2297D01*
X226100Y-2224D01*
X226149Y-2153D01*
X226202Y-2085D01*
X226257Y-2018D01*
X226315Y-1955D01*
X226376Y-1894D01*
X226439Y-1836D01*
X226506Y-1781D01*
X226574Y-1729D01*
X226645Y-1679D01*
X226718Y-1634D01*
X226793Y-1591D01*
X226869Y-1552D01*
X226948Y-1516D01*
X227028Y-1484D01*
X227109Y-1456D01*
X227191Y-1431D01*
X227275Y-1410D01*
X227359Y-1393D01*
X227444Y-1379D01*
X227530Y-1370D01*
X227616Y-1364D01*
X227702Y-1362D01*
X229621Y-1362D01*
X233941Y-1362D02*
X233941Y-9998D01*
X233941Y-1362D02*
X236340Y-1362D01*
X236437Y-1364D01*
X236533Y-1370D01*
X236629Y-1379D01*
X236725Y-1393D01*
X236820Y-1410D01*
X236914Y-1432D01*
X237007Y-1457D01*
X237100Y-1485D01*
X237191Y-1518D01*
X237280Y-1554D01*
X237368Y-1594D01*
X237455Y-1637D01*
X237540Y-1683D01*
X237622Y-1733D01*
X237703Y-1787D01*
X237781Y-1843D01*
X237857Y-1903D01*
X237931Y-1965D01*
X238002Y-2031D01*
X238070Y-2099D01*
X238136Y-2170D01*
X238198Y-2244D01*
X238258Y-2320D01*
X238314Y-2398D01*
X238368Y-2479D01*
X238418Y-2562D01*
X238464Y-2646D01*
X238507Y-2733D01*
X238547Y-2821D01*
X238583Y-2910D01*
X238616Y-3001D01*
X238644Y-3094D01*
X238669Y-3187D01*
X238691Y-3281D01*
X238708Y-3376D01*
X238722Y-3472D01*
X238731Y-3568D01*
X238737Y-3664D01*
X238739Y-3761D01*
X238737Y-3858D01*
X238731Y-3954D01*
X238722Y-4050D01*
X238708Y-4146D01*
X238691Y-4241D01*
X238669Y-4335D01*
X238644Y-4428D01*
X238616Y-4521D01*
X238583Y-4612D01*
X238547Y-4701D01*
X238507Y-4789D01*
X238464Y-4876D01*
X238418Y-4961D01*
X238368Y-5043D01*
X238314Y-5124D01*
X238258Y-5202D01*
X238198Y-5278D01*
X238136Y-5352D01*
X238070Y-5423D01*
X238002Y-5491D01*
X237931Y-5557D01*
X237857Y-5619D01*
X237781Y-5679D01*
X237703Y-5735D01*
X237622Y-5789D01*
X237540Y-5839D01*
X237455Y-5885D01*
X237368Y-5928D01*
X237280Y-5968D01*
X237191Y-6004D01*
X237100Y-6037D01*
X237007Y-6065D01*
X236914Y-6090D01*
X236820Y-6112D01*
X236725Y-6129D01*
X236629Y-6143D01*
X236533Y-6152D01*
X236437Y-6158D01*
X236340Y-6160D01*
X233941Y-6160D01*
X245224Y-1362D02*
X245316Y-1364D01*
X245407Y-1370D01*
X245498Y-1379D01*
X245589Y-1393D01*
X245679Y-1410D01*
X245768Y-1432D01*
X245856Y-1457D01*
X245943Y-1485D01*
X246029Y-1518D01*
X246113Y-1554D01*
X246196Y-1593D01*
X246277Y-1636D01*
X246356Y-1683D01*
X246433Y-1732D01*
X246508Y-1785D01*
X246580Y-1841D01*
X246650Y-1900D01*
X246718Y-1962D01*
X246783Y-2027D01*
X246845Y-2095D01*
X246904Y-2165D01*
X246960Y-2237D01*
X247013Y-2312D01*
X247062Y-2389D01*
X247109Y-2468D01*
X247152Y-2549D01*
X247191Y-2632D01*
X247227Y-2716D01*
X247260Y-2802D01*
X247288Y-2889D01*
X247313Y-2977D01*
X247335Y-3066D01*
X247352Y-3156D01*
X247366Y-3247D01*
X247375Y-3338D01*
X247381Y-3429D01*
X247383Y-3521D01*
X245224Y-1362D02*
X245121Y-1364D01*
X245019Y-1370D01*
X244917Y-1379D01*
X244815Y-1392D01*
X244714Y-1409D01*
X244613Y-1430D01*
X244514Y-1454D01*
X244415Y-1483D01*
X244318Y-1514D01*
X244221Y-1550D01*
X244126Y-1588D01*
X244033Y-1631D01*
X243941Y-1677D01*
X243851Y-1726D01*
X243763Y-1778D01*
X243676Y-1834D01*
X243592Y-1893D01*
X243511Y-1954D01*
X243431Y-2019D01*
X243354Y-2087D01*
X243279Y-2158D01*
X243208Y-2231D01*
X243139Y-2307D01*
X243072Y-2385D01*
X243009Y-2466D01*
X242949Y-2549D01*
X242892Y-2634D01*
X242838Y-2721D01*
X242787Y-2811D01*
X242740Y-2902D01*
X242696Y-2994D01*
X242655Y-3089D01*
X242618Y-3184D01*
X242585Y-3281D01*
X246663Y-5200D02*
X246730Y-5134D01*
X246794Y-5065D01*
X246855Y-4994D01*
X246913Y-4920D01*
X246968Y-4844D01*
X247020Y-4766D01*
X247069Y-4686D01*
X247115Y-4604D01*
X247157Y-4520D01*
X247196Y-4434D01*
X247231Y-4347D01*
X247262Y-4259D01*
X247290Y-4169D01*
X247315Y-4079D01*
X247336Y-3987D01*
X247353Y-3895D01*
X247366Y-3802D01*
X247375Y-3709D01*
X247381Y-3615D01*
X247383Y-3521D01*
X246663Y-5200D02*
X242585Y-9998D01*
X247383Y-9998D01*
X252034Y-9998D02*
X252034Y-1362D01*
X256832Y-9998D01*
X256832Y-1362D01*
X261483Y-5200D02*
X264361Y-5200D01*
X264447Y-5202D01*
X264533Y-5208D01*
X264619Y-5217D01*
X264704Y-5231D01*
X264788Y-5248D01*
X264872Y-5269D01*
X264954Y-5294D01*
X265035Y-5322D01*
X265115Y-5354D01*
X265194Y-5390D01*
X265270Y-5429D01*
X265345Y-5472D01*
X265418Y-5517D01*
X265489Y-5567D01*
X265557Y-5619D01*
X265624Y-5674D01*
X265687Y-5732D01*
X265748Y-5793D01*
X265806Y-5856D01*
X265861Y-5923D01*
X265914Y-5991D01*
X265963Y-6062D01*
X266008Y-6135D01*
X266051Y-6210D01*
X266090Y-6286D01*
X266126Y-6365D01*
X266158Y-6445D01*
X266186Y-6526D01*
X266211Y-6609D01*
X266232Y-6692D01*
X266249Y-6776D01*
X266263Y-6861D01*
X266272Y-6947D01*
X266278Y-7033D01*
X266280Y-7119D01*
X266281Y-7119D02*
X266281Y-7599D01*
X266279Y-7696D01*
X266273Y-7792D01*
X266264Y-7888D01*
X266250Y-7984D01*
X266233Y-8079D01*
X266211Y-8173D01*
X266186Y-8266D01*
X266158Y-8359D01*
X266125Y-8450D01*
X266089Y-8539D01*
X266049Y-8627D01*
X266006Y-8714D01*
X265960Y-8799D01*
X265910Y-8881D01*
X265856Y-8962D01*
X265800Y-9040D01*
X265740Y-9116D01*
X265678Y-9190D01*
X265612Y-9261D01*
X265544Y-9329D01*
X265473Y-9395D01*
X265399Y-9457D01*
X265323Y-9517D01*
X265245Y-9573D01*
X265164Y-9627D01*
X265082Y-9677D01*
X264997Y-9723D01*
X264910Y-9766D01*
X264822Y-9806D01*
X264733Y-9842D01*
X264642Y-9875D01*
X264549Y-9903D01*
X264456Y-9928D01*
X264362Y-9950D01*
X264267Y-9967D01*
X264171Y-9981D01*
X264075Y-9990D01*
X263979Y-9996D01*
X263882Y-9998D01*
X263785Y-9996D01*
X263689Y-9990D01*
X263593Y-9981D01*
X263497Y-9967D01*
X263402Y-9950D01*
X263308Y-9928D01*
X263215Y-9903D01*
X263122Y-9875D01*
X263031Y-9842D01*
X262942Y-9806D01*
X262854Y-9766D01*
X262767Y-9723D01*
X262683Y-9677D01*
X262600Y-9627D01*
X262519Y-9573D01*
X262441Y-9517D01*
X262365Y-9457D01*
X262291Y-9395D01*
X262220Y-9329D01*
X262152Y-9261D01*
X262086Y-9190D01*
X262024Y-9116D01*
X261964Y-9040D01*
X261908Y-8962D01*
X261854Y-8881D01*
X261804Y-8798D01*
X261758Y-8714D01*
X261715Y-8627D01*
X261675Y-8539D01*
X261639Y-8450D01*
X261606Y-8359D01*
X261578Y-8266D01*
X261553Y-8173D01*
X261531Y-8079D01*
X261514Y-7984D01*
X261500Y-7888D01*
X261491Y-7792D01*
X261485Y-7696D01*
X261483Y-7599D01*
X261483Y-5200D01*
X261485Y-5077D01*
X261491Y-4954D01*
X261501Y-4831D01*
X261515Y-4709D01*
X261532Y-4587D01*
X261554Y-4466D01*
X261579Y-4346D01*
X261609Y-4226D01*
X261642Y-4108D01*
X261679Y-3991D01*
X261719Y-3874D01*
X261763Y-3760D01*
X261811Y-3646D01*
X261863Y-3535D01*
X261918Y-3425D01*
X261977Y-3317D01*
X262039Y-3210D01*
X262104Y-3106D01*
X262173Y-3004D01*
X262245Y-2904D01*
X262320Y-2807D01*
X262399Y-2712D01*
X262480Y-2620D01*
X262564Y-2530D01*
X262651Y-2443D01*
X262741Y-2359D01*
X262833Y-2278D01*
X262928Y-2199D01*
X263025Y-2124D01*
X263125Y-2052D01*
X263227Y-1983D01*
X263331Y-1918D01*
X263438Y-1856D01*
X263546Y-1797D01*
X263656Y-1742D01*
X263767Y-1690D01*
X263881Y-1643D01*
X263995Y-1598D01*
X264112Y-1558D01*
X264229Y-1521D01*
X264347Y-1488D01*
X264467Y-1458D01*
X264587Y-1433D01*
X264708Y-1411D01*
X264830Y-1394D01*
X264952Y-1380D01*
X265075Y-1370D01*
X265198Y-1364D01*
X265321Y-1362D01*
X272546Y-1362D02*
X270627Y-8079D01*
X275425Y-8079D01*
X273985Y-6160D02*
X273985Y-9998D01*
X280160Y-9998D02*
X280160Y-1362D01*
X282559Y-1362D01*
X282656Y-1364D01*
X282752Y-1370D01*
X282848Y-1379D01*
X282944Y-1393D01*
X283039Y-1410D01*
X283133Y-1432D01*
X283226Y-1457D01*
X283319Y-1485D01*
X283410Y-1518D01*
X283499Y-1554D01*
X283587Y-1594D01*
X283674Y-1637D01*
X283759Y-1683D01*
X283841Y-1733D01*
X283922Y-1787D01*
X284000Y-1843D01*
X284076Y-1903D01*
X284150Y-1965D01*
X284221Y-2031D01*
X284289Y-2099D01*
X284355Y-2170D01*
X284417Y-2244D01*
X284477Y-2320D01*
X284533Y-2398D01*
X284587Y-2479D01*
X284637Y-2562D01*
X284683Y-2646D01*
X284726Y-2733D01*
X284766Y-2821D01*
X284802Y-2910D01*
X284835Y-3001D01*
X284863Y-3094D01*
X284888Y-3187D01*
X284910Y-3281D01*
X284927Y-3376D01*
X284941Y-3472D01*
X284950Y-3568D01*
X284956Y-3664D01*
X284958Y-3761D01*
X284956Y-3858D01*
X284950Y-3954D01*
X284941Y-4050D01*
X284927Y-4146D01*
X284910Y-4241D01*
X284888Y-4335D01*
X284863Y-4428D01*
X284835Y-4521D01*
X284802Y-4612D01*
X284766Y-4701D01*
X284726Y-4789D01*
X284683Y-4876D01*
X284637Y-4961D01*
X284587Y-5043D01*
X284533Y-5124D01*
X284477Y-5202D01*
X284417Y-5278D01*
X284355Y-5352D01*
X284289Y-5423D01*
X284221Y-5491D01*
X284150Y-5557D01*
X284076Y-5619D01*
X284000Y-5679D01*
X283922Y-5735D01*
X283841Y-5789D01*
X283759Y-5839D01*
X283674Y-5885D01*
X283587Y-5928D01*
X283499Y-5968D01*
X283410Y-6004D01*
X283319Y-6037D01*
X283226Y-6065D01*
X283133Y-6090D01*
X283039Y-6112D01*
X282944Y-6129D01*
X282848Y-6143D01*
X282752Y-6152D01*
X282656Y-6158D01*
X282559Y-6160D01*
X280160Y-6160D01*
X283039Y-6160D02*
X284958Y-9998D01*
X292883Y-5200D02*
X294322Y-5200D01*
X294322Y-9998D01*
X291443Y-9998D01*
X291357Y-9996D01*
X291271Y-9990D01*
X291185Y-9981D01*
X291100Y-9967D01*
X291016Y-9950D01*
X290932Y-9929D01*
X290850Y-9904D01*
X290769Y-9876D01*
X290689Y-9844D01*
X290610Y-9808D01*
X290534Y-9769D01*
X290459Y-9726D01*
X290386Y-9681D01*
X290315Y-9632D01*
X290247Y-9579D01*
X290180Y-9524D01*
X290117Y-9466D01*
X290056Y-9405D01*
X289998Y-9342D01*
X289943Y-9275D01*
X289891Y-9207D01*
X289841Y-9136D01*
X289796Y-9063D01*
X289753Y-8988D01*
X289714Y-8912D01*
X289678Y-8833D01*
X289646Y-8753D01*
X289618Y-8672D01*
X289593Y-8590D01*
X289572Y-8506D01*
X289555Y-8422D01*
X289541Y-8337D01*
X289532Y-8251D01*
X289526Y-8165D01*
X289524Y-8079D01*
X289524Y-3281D01*
X289526Y-3195D01*
X289532Y-3109D01*
X289541Y-3023D01*
X289555Y-2938D01*
X289572Y-2854D01*
X289593Y-2770D01*
X289618Y-2688D01*
X289646Y-2607D01*
X289678Y-2527D01*
X289714Y-2448D01*
X289753Y-2372D01*
X289796Y-2297D01*
X289841Y-2224D01*
X289890Y-2153D01*
X289943Y-2085D01*
X289998Y-2018D01*
X290056Y-1955D01*
X290117Y-1894D01*
X290180Y-1836D01*
X290247Y-1781D01*
X290315Y-1729D01*
X290386Y-1679D01*
X290459Y-1634D01*
X290534Y-1591D01*
X290610Y-1552D01*
X290689Y-1516D01*
X290769Y-1484D01*
X290850Y-1456D01*
X290932Y-1431D01*
X291016Y-1410D01*
X291100Y-1393D01*
X291185Y-1379D01*
X291271Y-1370D01*
X291357Y-1364D01*
X291443Y-1362D01*
X294322Y-1362D01*
X299473Y-5200D02*
X301872Y-5200D01*
X301969Y-5202D01*
X302065Y-5208D01*
X302161Y-5217D01*
X302257Y-5231D01*
X302352Y-5248D01*
X302446Y-5270D01*
X302539Y-5295D01*
X302632Y-5323D01*
X302723Y-5356D01*
X302812Y-5392D01*
X302900Y-5432D01*
X302987Y-5475D01*
X303072Y-5521D01*
X303154Y-5571D01*
X303235Y-5625D01*
X303313Y-5681D01*
X303389Y-5741D01*
X303463Y-5803D01*
X303534Y-5869D01*
X303602Y-5937D01*
X303668Y-6008D01*
X303730Y-6082D01*
X303790Y-6158D01*
X303846Y-6236D01*
X303900Y-6317D01*
X303950Y-6400D01*
X303996Y-6484D01*
X304039Y-6571D01*
X304079Y-6659D01*
X304115Y-6748D01*
X304148Y-6839D01*
X304176Y-6932D01*
X304201Y-7025D01*
X304223Y-7119D01*
X304240Y-7214D01*
X304254Y-7310D01*
X304263Y-7406D01*
X304269Y-7502D01*
X304271Y-7599D01*
X304269Y-7696D01*
X304263Y-7792D01*
X304254Y-7888D01*
X304240Y-7984D01*
X304223Y-8079D01*
X304201Y-8173D01*
X304176Y-8266D01*
X304148Y-8359D01*
X304115Y-8450D01*
X304079Y-8539D01*
X304039Y-8627D01*
X303996Y-8714D01*
X303950Y-8799D01*
X303900Y-8881D01*
X303846Y-8962D01*
X303790Y-9040D01*
X303730Y-9116D01*
X303668Y-9190D01*
X303602Y-9261D01*
X303534Y-9329D01*
X303463Y-9395D01*
X303389Y-9457D01*
X303313Y-9517D01*
X303235Y-9573D01*
X303154Y-9627D01*
X303072Y-9677D01*
X302987Y-9723D01*
X302900Y-9766D01*
X302812Y-9806D01*
X302723Y-9842D01*
X302632Y-9875D01*
X302539Y-9903D01*
X302446Y-9928D01*
X302352Y-9950D01*
X302257Y-9967D01*
X302161Y-9981D01*
X302065Y-9990D01*
X301969Y-9996D01*
X301872Y-9998D01*
X299473Y-9998D01*
X299473Y-1362D01*
X301872Y-1362D01*
X301958Y-1364D01*
X302044Y-1370D01*
X302130Y-1379D01*
X302215Y-1393D01*
X302299Y-1410D01*
X302383Y-1431D01*
X302465Y-1456D01*
X302546Y-1484D01*
X302626Y-1516D01*
X302705Y-1552D01*
X302781Y-1591D01*
X302856Y-1634D01*
X302929Y-1679D01*
X303000Y-1728D01*
X303068Y-1781D01*
X303135Y-1836D01*
X303198Y-1894D01*
X303259Y-1955D01*
X303317Y-2018D01*
X303372Y-2085D01*
X303425Y-2153D01*
X303474Y-2224D01*
X303519Y-2297D01*
X303562Y-2372D01*
X303601Y-2448D01*
X303637Y-2527D01*
X303669Y-2607D01*
X303697Y-2688D01*
X303722Y-2770D01*
X303743Y-2854D01*
X303760Y-2938D01*
X303774Y-3023D01*
X303783Y-3109D01*
X303789Y-3195D01*
X303791Y-3281D01*
X303789Y-3367D01*
X303783Y-3453D01*
X303774Y-3539D01*
X303760Y-3624D01*
X303743Y-3708D01*
X303722Y-3792D01*
X303697Y-3874D01*
X303669Y-3955D01*
X303637Y-4035D01*
X303601Y-4114D01*
X303562Y-4190D01*
X303519Y-4265D01*
X303474Y-4338D01*
X303425Y-4409D01*
X303372Y-4477D01*
X303317Y-4544D01*
X303259Y-4607D01*
X303198Y-4668D01*
X303135Y-4726D01*
X303068Y-4781D01*
X303000Y-4834D01*
X302929Y-4883D01*
X302856Y-4928D01*
X302781Y-4971D01*
X302705Y-5010D01*
X302626Y-5046D01*
X302546Y-5078D01*
X302465Y-5106D01*
X302383Y-5131D01*
X302299Y-5152D01*
X302215Y-5169D01*
X302130Y-5183D01*
X302044Y-5192D01*
X301958Y-5198D01*
X301872Y-5200D01*
X218681Y-25238D02*
X216762Y-19481D01*
X220600Y-19481D02*
X218681Y-25238D01*
X227151Y-16602D02*
X227243Y-16604D01*
X227334Y-16610D01*
X227425Y-16619D01*
X227516Y-16633D01*
X227606Y-16650D01*
X227695Y-16672D01*
X227783Y-16697D01*
X227870Y-16725D01*
X227956Y-16758D01*
X228040Y-16794D01*
X228123Y-16833D01*
X228204Y-16876D01*
X228283Y-16923D01*
X228360Y-16972D01*
X228435Y-17025D01*
X228507Y-17081D01*
X228577Y-17140D01*
X228645Y-17202D01*
X228710Y-17267D01*
X228772Y-17335D01*
X228831Y-17405D01*
X228887Y-17477D01*
X228940Y-17552D01*
X228989Y-17629D01*
X229036Y-17708D01*
X229079Y-17789D01*
X229118Y-17872D01*
X229154Y-17956D01*
X229187Y-18042D01*
X229215Y-18129D01*
X229240Y-18217D01*
X229262Y-18306D01*
X229279Y-18396D01*
X229293Y-18487D01*
X229302Y-18578D01*
X229308Y-18669D01*
X229310Y-18761D01*
X227151Y-16602D02*
X227048Y-16604D01*
X226946Y-16610D01*
X226844Y-16619D01*
X226742Y-16632D01*
X226641Y-16649D01*
X226540Y-16670D01*
X226441Y-16694D01*
X226342Y-16723D01*
X226245Y-16754D01*
X226148Y-16790D01*
X226053Y-16828D01*
X225960Y-16871D01*
X225868Y-16917D01*
X225778Y-16966D01*
X225690Y-17018D01*
X225603Y-17074D01*
X225519Y-17133D01*
X225438Y-17194D01*
X225358Y-17259D01*
X225281Y-17327D01*
X225206Y-17398D01*
X225135Y-17471D01*
X225066Y-17547D01*
X224999Y-17625D01*
X224936Y-17706D01*
X224876Y-17789D01*
X224819Y-17874D01*
X224765Y-17961D01*
X224714Y-18051D01*
X224667Y-18142D01*
X224623Y-18234D01*
X224582Y-18329D01*
X224545Y-18424D01*
X224512Y-18521D01*
X228590Y-20440D02*
X228657Y-20374D01*
X228721Y-20305D01*
X228782Y-20234D01*
X228840Y-20160D01*
X228895Y-20084D01*
X228947Y-20006D01*
X228996Y-19926D01*
X229042Y-19844D01*
X229084Y-19760D01*
X229123Y-19674D01*
X229158Y-19587D01*
X229189Y-19499D01*
X229217Y-19409D01*
X229242Y-19319D01*
X229263Y-19227D01*
X229280Y-19135D01*
X229293Y-19042D01*
X229302Y-18949D01*
X229308Y-18855D01*
X229310Y-18761D01*
X228590Y-20440D02*
X224512Y-25238D01*
X229310Y-25238D01*
X233656Y-20920D02*
X233658Y-20750D01*
X233664Y-20580D01*
X233674Y-20411D01*
X233688Y-20241D01*
X233707Y-20072D01*
X233729Y-19904D01*
X233755Y-19736D01*
X233785Y-19569D01*
X233820Y-19403D01*
X233858Y-19237D01*
X233900Y-19072D01*
X233946Y-18909D01*
X233996Y-18747D01*
X234050Y-18585D01*
X234107Y-18426D01*
X234169Y-18267D01*
X234234Y-18110D01*
X234303Y-17955D01*
X234376Y-17801D01*
X234404Y-17725D01*
X234436Y-17650D01*
X234471Y-17576D01*
X234509Y-17504D01*
X234551Y-17434D01*
X234596Y-17366D01*
X234644Y-17300D01*
X234695Y-17236D01*
X234749Y-17175D01*
X234805Y-17116D01*
X234865Y-17060D01*
X234926Y-17007D01*
X234990Y-16957D01*
X235057Y-16909D01*
X235125Y-16865D01*
X235196Y-16824D01*
X235268Y-16786D01*
X235342Y-16752D01*
X235417Y-16721D01*
X235494Y-16693D01*
X235572Y-16669D01*
X235651Y-16649D01*
X235731Y-16632D01*
X235811Y-16619D01*
X235892Y-16609D01*
X235973Y-16604D01*
X236055Y-16602D01*
X236137Y-16604D01*
X236218Y-16609D01*
X236299Y-16619D01*
X236379Y-16632D01*
X236459Y-16649D01*
X236538Y-16669D01*
X236616Y-16693D01*
X236693Y-16721D01*
X236768Y-16752D01*
X236842Y-16786D01*
X236914Y-16824D01*
X236985Y-16865D01*
X237053Y-16909D01*
X237120Y-16957D01*
X237184Y-17007D01*
X237245Y-17060D01*
X237305Y-17116D01*
X237361Y-17175D01*
X237415Y-17236D01*
X237466Y-17300D01*
X237514Y-17366D01*
X237559Y-17434D01*
X237601Y-17504D01*
X237639Y-17576D01*
X237674Y-17650D01*
X237706Y-17725D01*
X237734Y-17801D01*
X237807Y-17955D01*
X237876Y-18110D01*
X237941Y-18267D01*
X238003Y-18426D01*
X238060Y-18585D01*
X238114Y-18747D01*
X238164Y-18909D01*
X238210Y-19072D01*
X238252Y-19237D01*
X238290Y-19403D01*
X238325Y-19569D01*
X238355Y-19736D01*
X238381Y-19904D01*
X238403Y-20072D01*
X238422Y-20241D01*
X238436Y-20411D01*
X238446Y-20580D01*
X238452Y-20750D01*
X238454Y-20920D01*
X233656Y-20920D02*
X233658Y-21090D01*
X233664Y-21260D01*
X233674Y-21429D01*
X233688Y-21599D01*
X233707Y-21768D01*
X233729Y-21936D01*
X233755Y-22104D01*
X233785Y-22271D01*
X233820Y-22437D01*
X233858Y-22603D01*
X233900Y-22768D01*
X233946Y-22931D01*
X233996Y-23093D01*
X234050Y-23255D01*
X234107Y-23414D01*
X234169Y-23573D01*
X234234Y-23730D01*
X234303Y-23885D01*
X234376Y-24039D01*
X234404Y-24115D01*
X234436Y-24190D01*
X234471Y-24264D01*
X234509Y-24336D01*
X234551Y-24406D01*
X234596Y-24474D01*
X234644Y-24540D01*
X234695Y-24604D01*
X234749Y-24665D01*
X234805Y-24724D01*
X234865Y-24780D01*
X234926Y-24833D01*
X234990Y-24883D01*
X235057Y-24931D01*
X235125Y-24975D01*
X235196Y-25016D01*
X235268Y-25054D01*
X235342Y-25088D01*
X235417Y-25119D01*
X235494Y-25147D01*
X235572Y-25171D01*
X235651Y-25191D01*
X235731Y-25208D01*
X235811Y-25221D01*
X235892Y-25231D01*
X235973Y-25236D01*
X236055Y-25238D01*
X237734Y-24039D02*
X237807Y-23885D01*
X237876Y-23730D01*
X237941Y-23573D01*
X238003Y-23414D01*
X238060Y-23255D01*
X238114Y-23093D01*
X238164Y-22931D01*
X238210Y-22768D01*
X238252Y-22603D01*
X238290Y-22437D01*
X238325Y-22271D01*
X238355Y-22104D01*
X238381Y-21936D01*
X238403Y-21768D01*
X238422Y-21599D01*
X238436Y-21429D01*
X238446Y-21260D01*
X238452Y-21090D01*
X238454Y-20920D01*
X237734Y-24039D02*
X237706Y-24115D01*
X237674Y-24190D01*
X237639Y-24264D01*
X237601Y-24336D01*
X237559Y-24406D01*
X237514Y-24474D01*
X237466Y-24540D01*
X237415Y-24604D01*
X237361Y-24665D01*
X237305Y-24724D01*
X237245Y-24780D01*
X237184Y-24833D01*
X237120Y-24883D01*
X237053Y-24931D01*
X236985Y-24975D01*
X236914Y-25016D01*
X236842Y-25054D01*
X236768Y-25088D01*
X236693Y-25119D01*
X236616Y-25147D01*
X236538Y-25171D01*
X236459Y-25191D01*
X236379Y-25208D01*
X236299Y-25221D01*
X236218Y-25231D01*
X236137Y-25236D01*
X236055Y-25238D01*
X234136Y-23319D02*
X237974Y-18521D01*
X245439Y-16602D02*
X245531Y-16604D01*
X245622Y-16610D01*
X245713Y-16619D01*
X245804Y-16633D01*
X245894Y-16650D01*
X245983Y-16672D01*
X246071Y-16697D01*
X246158Y-16725D01*
X246244Y-16758D01*
X246328Y-16794D01*
X246411Y-16833D01*
X246492Y-16876D01*
X246571Y-16923D01*
X246648Y-16972D01*
X246723Y-17025D01*
X246795Y-17081D01*
X246865Y-17140D01*
X246933Y-17202D01*
X246998Y-17267D01*
X247060Y-17335D01*
X247119Y-17405D01*
X247175Y-17477D01*
X247228Y-17552D01*
X247277Y-17629D01*
X247324Y-17708D01*
X247367Y-17789D01*
X247406Y-17872D01*
X247442Y-17956D01*
X247475Y-18042D01*
X247503Y-18129D01*
X247528Y-18217D01*
X247550Y-18306D01*
X247567Y-18396D01*
X247581Y-18487D01*
X247590Y-18578D01*
X247596Y-18669D01*
X247598Y-18761D01*
X245439Y-16602D02*
X245336Y-16604D01*
X245234Y-16610D01*
X245132Y-16619D01*
X245030Y-16632D01*
X244929Y-16649D01*
X244828Y-16670D01*
X244729Y-16694D01*
X244630Y-16723D01*
X244533Y-16754D01*
X244436Y-16790D01*
X244341Y-16828D01*
X244248Y-16871D01*
X244156Y-16917D01*
X244066Y-16966D01*
X243978Y-17018D01*
X243891Y-17074D01*
X243807Y-17133D01*
X243726Y-17194D01*
X243646Y-17259D01*
X243569Y-17327D01*
X243494Y-17398D01*
X243423Y-17471D01*
X243354Y-17547D01*
X243287Y-17625D01*
X243224Y-17706D01*
X243164Y-17789D01*
X243107Y-17874D01*
X243053Y-17961D01*
X243002Y-18051D01*
X242955Y-18142D01*
X242911Y-18234D01*
X242870Y-18329D01*
X242833Y-18424D01*
X242800Y-18521D01*
X246878Y-20440D02*
X246945Y-20374D01*
X247009Y-20305D01*
X247070Y-20234D01*
X247128Y-20160D01*
X247183Y-20084D01*
X247235Y-20006D01*
X247284Y-19926D01*
X247330Y-19844D01*
X247372Y-19760D01*
X247411Y-19674D01*
X247446Y-19587D01*
X247477Y-19499D01*
X247505Y-19409D01*
X247530Y-19319D01*
X247551Y-19227D01*
X247568Y-19135D01*
X247581Y-19042D01*
X247590Y-18949D01*
X247596Y-18855D01*
X247598Y-18761D01*
X246878Y-20440D02*
X242800Y-25238D01*
X247598Y-25238D01*
X251944Y-20920D02*
X251946Y-20750D01*
X251952Y-20580D01*
X251962Y-20411D01*
X251976Y-20241D01*
X251995Y-20072D01*
X252017Y-19904D01*
X252043Y-19736D01*
X252073Y-19569D01*
X252108Y-19403D01*
X252146Y-19237D01*
X252188Y-19072D01*
X252234Y-18909D01*
X252284Y-18747D01*
X252338Y-18585D01*
X252395Y-18426D01*
X252457Y-18267D01*
X252522Y-18110D01*
X252591Y-17955D01*
X252664Y-17801D01*
X252692Y-17725D01*
X252724Y-17650D01*
X252759Y-17576D01*
X252797Y-17504D01*
X252839Y-17434D01*
X252884Y-17366D01*
X252932Y-17300D01*
X252983Y-17236D01*
X253037Y-17175D01*
X253093Y-17116D01*
X253153Y-17060D01*
X253214Y-17007D01*
X253278Y-16957D01*
X253345Y-16909D01*
X253413Y-16865D01*
X253484Y-16824D01*
X253556Y-16786D01*
X253630Y-16752D01*
X253705Y-16721D01*
X253782Y-16693D01*
X253860Y-16669D01*
X253939Y-16649D01*
X254019Y-16632D01*
X254099Y-16619D01*
X254180Y-16609D01*
X254261Y-16604D01*
X254343Y-16602D01*
X254425Y-16604D01*
X254506Y-16609D01*
X254587Y-16619D01*
X254667Y-16632D01*
X254747Y-16649D01*
X254826Y-16669D01*
X254904Y-16693D01*
X254981Y-16721D01*
X255056Y-16752D01*
X255130Y-16786D01*
X255202Y-16824D01*
X255273Y-16865D01*
X255341Y-16909D01*
X255408Y-16957D01*
X255472Y-17007D01*
X255533Y-17060D01*
X255593Y-17116D01*
X255649Y-17175D01*
X255703Y-17236D01*
X255754Y-17300D01*
X255802Y-17366D01*
X255847Y-17434D01*
X255889Y-17504D01*
X255927Y-17576D01*
X255962Y-17650D01*
X255994Y-17725D01*
X256022Y-17801D01*
X256095Y-17955D01*
X256164Y-18110D01*
X256229Y-18267D01*
X256291Y-18426D01*
X256348Y-18585D01*
X256402Y-18747D01*
X256452Y-18909D01*
X256498Y-19072D01*
X256540Y-19237D01*
X256578Y-19403D01*
X256613Y-19569D01*
X256643Y-19736D01*
X256669Y-19904D01*
X256691Y-20072D01*
X256710Y-20241D01*
X256724Y-20411D01*
X256734Y-20580D01*
X256740Y-20750D01*
X256742Y-20920D01*
X251944Y-20920D02*
X251946Y-21090D01*
X251952Y-21260D01*
X251962Y-21429D01*
X251976Y-21599D01*
X251995Y-21768D01*
X252017Y-21936D01*
X252043Y-22104D01*
X252073Y-22271D01*
X252108Y-22437D01*
X252146Y-22603D01*
X252188Y-22768D01*
X252234Y-22931D01*
X252284Y-23093D01*
X252338Y-23255D01*
X252395Y-23414D01*
X252457Y-23573D01*
X252522Y-23730D01*
X252591Y-23885D01*
X252664Y-24039D01*
X252692Y-24115D01*
X252724Y-24190D01*
X252759Y-24264D01*
X252797Y-24336D01*
X252839Y-24406D01*
X252884Y-24474D01*
X252932Y-24540D01*
X252983Y-24604D01*
X253037Y-24665D01*
X253093Y-24724D01*
X253153Y-24780D01*
X253214Y-24833D01*
X253278Y-24883D01*
X253345Y-24931D01*
X253413Y-24975D01*
X253484Y-25016D01*
X253556Y-25054D01*
X253630Y-25088D01*
X253705Y-25119D01*
X253782Y-25147D01*
X253860Y-25171D01*
X253939Y-25191D01*
X254019Y-25208D01*
X254099Y-25221D01*
X254180Y-25231D01*
X254261Y-25236D01*
X254343Y-25238D01*
X256022Y-24039D02*
X256095Y-23885D01*
X256164Y-23730D01*
X256229Y-23573D01*
X256291Y-23414D01*
X256348Y-23255D01*
X256402Y-23093D01*
X256452Y-22931D01*
X256498Y-22768D01*
X256540Y-22603D01*
X256578Y-22437D01*
X256613Y-22271D01*
X256643Y-22104D01*
X256669Y-21936D01*
X256691Y-21768D01*
X256710Y-21599D01*
X256724Y-21429D01*
X256734Y-21260D01*
X256740Y-21090D01*
X256742Y-20920D01*
X256022Y-24039D02*
X255994Y-24115D01*
X255962Y-24190D01*
X255927Y-24264D01*
X255889Y-24336D01*
X255847Y-24406D01*
X255802Y-24474D01*
X255754Y-24540D01*
X255703Y-24604D01*
X255649Y-24665D01*
X255593Y-24724D01*
X255533Y-24780D01*
X255472Y-24833D01*
X255408Y-24883D01*
X255341Y-24931D01*
X255273Y-24975D01*
X255202Y-25016D01*
X255130Y-25054D01*
X255056Y-25088D01*
X254981Y-25119D01*
X254904Y-25147D01*
X254826Y-25171D01*
X254747Y-25191D01*
X254667Y-25208D01*
X254587Y-25221D01*
X254506Y-25231D01*
X254425Y-25236D01*
X254343Y-25238D01*
X252424Y-23319D02*
X256262Y-18521D01*
X261088Y-20920D02*
X261090Y-20750D01*
X261096Y-20580D01*
X261106Y-20411D01*
X261120Y-20241D01*
X261139Y-20072D01*
X261161Y-19904D01*
X261187Y-19736D01*
X261217Y-19569D01*
X261252Y-19403D01*
X261290Y-19237D01*
X261332Y-19072D01*
X261378Y-18909D01*
X261428Y-18747D01*
X261482Y-18585D01*
X261539Y-18426D01*
X261601Y-18267D01*
X261666Y-18110D01*
X261735Y-17955D01*
X261808Y-17801D01*
X261836Y-17725D01*
X261868Y-17650D01*
X261903Y-17576D01*
X261941Y-17504D01*
X261983Y-17434D01*
X262028Y-17366D01*
X262076Y-17300D01*
X262127Y-17236D01*
X262181Y-17175D01*
X262237Y-17116D01*
X262297Y-17060D01*
X262358Y-17007D01*
X262422Y-16957D01*
X262489Y-16909D01*
X262557Y-16865D01*
X262628Y-16824D01*
X262700Y-16786D01*
X262774Y-16752D01*
X262849Y-16721D01*
X262926Y-16693D01*
X263004Y-16669D01*
X263083Y-16649D01*
X263163Y-16632D01*
X263243Y-16619D01*
X263324Y-16609D01*
X263405Y-16604D01*
X263487Y-16602D01*
X263569Y-16604D01*
X263650Y-16609D01*
X263731Y-16619D01*
X263811Y-16632D01*
X263891Y-16649D01*
X263970Y-16669D01*
X264048Y-16693D01*
X264125Y-16721D01*
X264200Y-16752D01*
X264274Y-16786D01*
X264346Y-16824D01*
X264417Y-16865D01*
X264485Y-16909D01*
X264552Y-16957D01*
X264616Y-17007D01*
X264677Y-17060D01*
X264737Y-17116D01*
X264793Y-17175D01*
X264847Y-17236D01*
X264898Y-17300D01*
X264946Y-17366D01*
X264991Y-17434D01*
X265033Y-17504D01*
X265071Y-17576D01*
X265106Y-17650D01*
X265138Y-17725D01*
X265166Y-17801D01*
X265239Y-17955D01*
X265308Y-18110D01*
X265373Y-18267D01*
X265435Y-18426D01*
X265492Y-18585D01*
X265546Y-18747D01*
X265596Y-18909D01*
X265642Y-19072D01*
X265684Y-19237D01*
X265722Y-19403D01*
X265757Y-19569D01*
X265787Y-19736D01*
X265813Y-19904D01*
X265835Y-20072D01*
X265854Y-20241D01*
X265868Y-20411D01*
X265878Y-20580D01*
X265884Y-20750D01*
X265886Y-20920D01*
X261088Y-20920D02*
X261090Y-21090D01*
X261096Y-21260D01*
X261106Y-21429D01*
X261120Y-21599D01*
X261139Y-21768D01*
X261161Y-21936D01*
X261187Y-22104D01*
X261217Y-22271D01*
X261252Y-22437D01*
X261290Y-22603D01*
X261332Y-22768D01*
X261378Y-22931D01*
X261428Y-23093D01*
X261482Y-23255D01*
X261539Y-23414D01*
X261601Y-23573D01*
X261666Y-23730D01*
X261735Y-23885D01*
X261808Y-24039D01*
X261836Y-24115D01*
X261868Y-24190D01*
X261903Y-24264D01*
X261941Y-24336D01*
X261983Y-24406D01*
X262028Y-24474D01*
X262076Y-24540D01*
X262127Y-24604D01*
X262181Y-24665D01*
X262237Y-24724D01*
X262297Y-24780D01*
X262358Y-24833D01*
X262422Y-24883D01*
X262489Y-24931D01*
X262557Y-24975D01*
X262628Y-25016D01*
X262700Y-25054D01*
X262774Y-25088D01*
X262849Y-25119D01*
X262926Y-25147D01*
X263004Y-25171D01*
X263083Y-25191D01*
X263163Y-25208D01*
X263243Y-25221D01*
X263324Y-25231D01*
X263405Y-25236D01*
X263487Y-25238D01*
X265166Y-24039D02*
X265239Y-23885D01*
X265308Y-23730D01*
X265373Y-23573D01*
X265435Y-23414D01*
X265492Y-23255D01*
X265546Y-23093D01*
X265596Y-22931D01*
X265642Y-22768D01*
X265684Y-22603D01*
X265722Y-22437D01*
X265757Y-22271D01*
X265787Y-22104D01*
X265813Y-21936D01*
X265835Y-21768D01*
X265854Y-21599D01*
X265868Y-21429D01*
X265878Y-21260D01*
X265884Y-21090D01*
X265886Y-20920D01*
X265166Y-24039D02*
X265138Y-24115D01*
X265106Y-24190D01*
X265071Y-24264D01*
X265033Y-24336D01*
X264991Y-24406D01*
X264946Y-24474D01*
X264898Y-24540D01*
X264847Y-24604D01*
X264793Y-24665D01*
X264737Y-24724D01*
X264677Y-24780D01*
X264616Y-24833D01*
X264552Y-24883D01*
X264485Y-24931D01*
X264417Y-24975D01*
X264346Y-25016D01*
X264274Y-25054D01*
X264200Y-25088D01*
X264125Y-25119D01*
X264048Y-25147D01*
X263970Y-25171D01*
X263891Y-25191D01*
X263811Y-25208D01*
X263731Y-25221D01*
X263650Y-25231D01*
X263569Y-25236D01*
X263487Y-25238D01*
X261568Y-23319D02*
X265406Y-18521D01*
X270232Y-25238D02*
X272631Y-25238D01*
X272728Y-25236D01*
X272824Y-25230D01*
X272920Y-25221D01*
X273016Y-25207D01*
X273111Y-25190D01*
X273205Y-25168D01*
X273298Y-25143D01*
X273391Y-25115D01*
X273482Y-25082D01*
X273571Y-25046D01*
X273659Y-25006D01*
X273746Y-24963D01*
X273831Y-24917D01*
X273913Y-24867D01*
X273994Y-24813D01*
X274072Y-24757D01*
X274148Y-24697D01*
X274222Y-24635D01*
X274293Y-24569D01*
X274361Y-24501D01*
X274427Y-24430D01*
X274489Y-24356D01*
X274549Y-24280D01*
X274605Y-24202D01*
X274659Y-24121D01*
X274709Y-24039D01*
X274755Y-23954D01*
X274798Y-23867D01*
X274838Y-23779D01*
X274874Y-23690D01*
X274907Y-23599D01*
X274935Y-23506D01*
X274960Y-23413D01*
X274982Y-23319D01*
X274999Y-23224D01*
X275013Y-23128D01*
X275022Y-23032D01*
X275028Y-22936D01*
X275030Y-22839D01*
X275028Y-22742D01*
X275022Y-22646D01*
X275013Y-22550D01*
X274999Y-22454D01*
X274982Y-22359D01*
X274960Y-22265D01*
X274935Y-22172D01*
X274907Y-22079D01*
X274874Y-21988D01*
X274838Y-21899D01*
X274798Y-21811D01*
X274755Y-21724D01*
X274709Y-21640D01*
X274659Y-21557D01*
X274605Y-21476D01*
X274549Y-21398D01*
X274489Y-21322D01*
X274427Y-21248D01*
X274361Y-21177D01*
X274293Y-21109D01*
X274222Y-21043D01*
X274148Y-20981D01*
X274072Y-20921D01*
X273994Y-20865D01*
X273913Y-20811D01*
X273831Y-20761D01*
X273746Y-20715D01*
X273659Y-20672D01*
X273571Y-20632D01*
X273482Y-20596D01*
X273391Y-20563D01*
X273298Y-20535D01*
X273205Y-20510D01*
X273111Y-20488D01*
X273016Y-20471D01*
X272920Y-20457D01*
X272824Y-20448D01*
X272728Y-20442D01*
X272631Y-20440D01*
X273110Y-16602D02*
X270232Y-16602D01*
X273110Y-16602D02*
X273196Y-16604D01*
X273282Y-16610D01*
X273368Y-16619D01*
X273453Y-16633D01*
X273537Y-16650D01*
X273621Y-16671D01*
X273703Y-16696D01*
X273784Y-16724D01*
X273864Y-16756D01*
X273943Y-16792D01*
X274019Y-16831D01*
X274094Y-16874D01*
X274167Y-16919D01*
X274238Y-16968D01*
X274306Y-17021D01*
X274373Y-17076D01*
X274436Y-17134D01*
X274497Y-17195D01*
X274555Y-17258D01*
X274610Y-17325D01*
X274663Y-17393D01*
X274712Y-17464D01*
X274757Y-17537D01*
X274800Y-17612D01*
X274839Y-17688D01*
X274875Y-17767D01*
X274907Y-17847D01*
X274935Y-17928D01*
X274960Y-18010D01*
X274981Y-18094D01*
X274998Y-18178D01*
X275012Y-18263D01*
X275021Y-18349D01*
X275027Y-18435D01*
X275029Y-18521D01*
X275027Y-18607D01*
X275021Y-18693D01*
X275012Y-18779D01*
X274998Y-18864D01*
X274981Y-18948D01*
X274960Y-19032D01*
X274935Y-19114D01*
X274907Y-19195D01*
X274875Y-19275D01*
X274839Y-19354D01*
X274800Y-19430D01*
X274757Y-19505D01*
X274712Y-19578D01*
X274663Y-19649D01*
X274610Y-19717D01*
X274555Y-19784D01*
X274497Y-19847D01*
X274436Y-19908D01*
X274373Y-19966D01*
X274306Y-20021D01*
X274238Y-20074D01*
X274167Y-20123D01*
X274094Y-20168D01*
X274019Y-20211D01*
X273943Y-20250D01*
X273864Y-20286D01*
X273784Y-20318D01*
X273703Y-20346D01*
X273621Y-20371D01*
X273537Y-20392D01*
X273453Y-20409D01*
X273368Y-20423D01*
X273282Y-20432D01*
X273196Y-20438D01*
X273110Y-20440D01*
X271191Y-20440D01*
X279376Y-18521D02*
X281775Y-16602D01*
X281775Y-25238D01*
X279376Y-25238D02*
X284174Y-25238D01*
X288520Y-25238D02*
X291398Y-25238D01*
X291484Y-25236D01*
X291570Y-25230D01*
X291656Y-25221D01*
X291741Y-25207D01*
X291825Y-25190D01*
X291909Y-25169D01*
X291991Y-25144D01*
X292072Y-25116D01*
X292152Y-25084D01*
X292231Y-25048D01*
X292307Y-25009D01*
X292382Y-24966D01*
X292455Y-24921D01*
X292526Y-24872D01*
X292594Y-24819D01*
X292661Y-24764D01*
X292724Y-24706D01*
X292785Y-24645D01*
X292843Y-24582D01*
X292898Y-24515D01*
X292951Y-24447D01*
X293000Y-24376D01*
X293045Y-24303D01*
X293088Y-24228D01*
X293127Y-24152D01*
X293163Y-24073D01*
X293195Y-23993D01*
X293223Y-23912D01*
X293248Y-23830D01*
X293269Y-23746D01*
X293286Y-23662D01*
X293300Y-23577D01*
X293309Y-23491D01*
X293315Y-23405D01*
X293317Y-23319D01*
X293318Y-23319D02*
X293318Y-22359D01*
X293317Y-22359D02*
X293315Y-22273D01*
X293309Y-22187D01*
X293300Y-22101D01*
X293286Y-22016D01*
X293269Y-21932D01*
X293248Y-21848D01*
X293223Y-21766D01*
X293195Y-21685D01*
X293163Y-21605D01*
X293127Y-21526D01*
X293088Y-21450D01*
X293045Y-21375D01*
X293000Y-21302D01*
X292951Y-21231D01*
X292898Y-21163D01*
X292843Y-21096D01*
X292785Y-21033D01*
X292724Y-20972D01*
X292661Y-20914D01*
X292594Y-20859D01*
X292526Y-20807D01*
X292455Y-20757D01*
X292382Y-20712D01*
X292307Y-20669D01*
X292231Y-20630D01*
X292152Y-20594D01*
X292072Y-20562D01*
X291991Y-20534D01*
X291909Y-20509D01*
X291825Y-20488D01*
X291741Y-20471D01*
X291656Y-20457D01*
X291570Y-20448D01*
X291484Y-20442D01*
X291398Y-20440D01*
X288520Y-20440D01*
X288520Y-16602D01*
X293318Y-16602D01*
X521561Y84361D02*
X530120Y92920D01*
X514490Y77290D02*
X505931Y68731D01*
X498860Y61660D02*
X490301Y53101D01*
X483230Y46030D02*
X474670Y37470D01*
X467599Y30399D02*
X459040Y21840D01*
X451969Y14769D02*
X443410Y6210D01*
X436339Y-861D02*
X427780Y-9420D01*
X446453Y2264D02*
X452560Y-3842D01*
X454256Y-2146D01*
X454307Y-2091D01*
X454356Y-2034D01*
X454402Y-1974D01*
X454445Y-1912D01*
X454484Y-1848D01*
X454520Y-1781D01*
X454553Y-1713D01*
X454581Y-1644D01*
X454607Y-1573D01*
X454628Y-1500D01*
X454646Y-1427D01*
X454659Y-1353D01*
X454669Y-1278D01*
X454675Y-1203D01*
X454677Y-1128D01*
X454675Y-1053D01*
X454669Y-978D01*
X454659Y-903D01*
X454646Y-829D01*
X454628Y-756D01*
X454607Y-683D01*
X454581Y-612D01*
X454553Y-543D01*
X454520Y-475D01*
X454484Y-409D01*
X454445Y-344D01*
X454402Y-282D01*
X454356Y-222D01*
X454307Y-165D01*
X454256Y-111D01*
X452221Y1925D01*
X452168Y1975D01*
X452112Y2022D01*
X452055Y2067D01*
X451995Y2109D01*
X451933Y2147D01*
X451869Y2182D01*
X451804Y2215D01*
X451737Y2243D01*
X451668Y2269D01*
X451599Y2290D01*
X451528Y2309D01*
X451457Y2323D01*
X451385Y2334D01*
X451312Y2342D01*
X451239Y2346D01*
X451167Y2346D01*
X451094Y2342D01*
X451021Y2334D01*
X450949Y2323D01*
X450878Y2309D01*
X450807Y2290D01*
X450738Y2269D01*
X450669Y2243D01*
X450602Y2215D01*
X450537Y2182D01*
X450473Y2147D01*
X450411Y2109D01*
X450351Y2067D01*
X450294Y2022D01*
X450238Y1975D01*
X450185Y1925D01*
X448489Y229D01*
X459133Y2731D02*
X460830Y4427D01*
X459134Y2731D02*
X459079Y2680D01*
X459022Y2631D01*
X458962Y2585D01*
X458900Y2542D01*
X458836Y2503D01*
X458769Y2467D01*
X458701Y2434D01*
X458632Y2406D01*
X458561Y2380D01*
X458488Y2359D01*
X458415Y2341D01*
X458341Y2328D01*
X458266Y2318D01*
X458191Y2312D01*
X458116Y2310D01*
X458041Y2312D01*
X457966Y2318D01*
X457891Y2328D01*
X457817Y2341D01*
X457744Y2359D01*
X457671Y2380D01*
X457600Y2406D01*
X457531Y2434D01*
X457463Y2467D01*
X457397Y2503D01*
X457332Y2542D01*
X457270Y2585D01*
X457210Y2631D01*
X457153Y2680D01*
X457098Y2731D01*
X455402Y4427D01*
X455343Y4489D01*
X455286Y4554D01*
X455232Y4621D01*
X455182Y4691D01*
X455134Y4763D01*
X455090Y4837D01*
X455049Y4913D01*
X455012Y4990D01*
X454978Y5070D01*
X454948Y5150D01*
X454921Y5232D01*
X454898Y5315D01*
X454879Y5399D01*
X454864Y5484D01*
X454852Y5569D01*
X454844Y5655D01*
X454840Y5741D01*
X454840Y5827D01*
X454844Y5913D01*
X454852Y5999D01*
X454864Y6084D01*
X454879Y6169D01*
X454898Y6253D01*
X454921Y6336D01*
X454948Y6418D01*
X454978Y6498D01*
X455012Y6578D01*
X455049Y6655D01*
X455090Y6731D01*
X455134Y6805D01*
X455182Y6877D01*
X455232Y6947D01*
X455286Y7014D01*
X455343Y7079D01*
X455402Y7141D01*
X455464Y7200D01*
X455529Y7257D01*
X455596Y7311D01*
X455666Y7361D01*
X455738Y7409D01*
X455812Y7453D01*
X455888Y7494D01*
X455965Y7531D01*
X456045Y7565D01*
X456125Y7595D01*
X456207Y7622D01*
X456290Y7645D01*
X456374Y7664D01*
X456459Y7679D01*
X456544Y7691D01*
X456630Y7699D01*
X456716Y7703D01*
X456802Y7703D01*
X456888Y7699D01*
X456974Y7691D01*
X457059Y7679D01*
X457144Y7664D01*
X457228Y7645D01*
X457311Y7622D01*
X457393Y7595D01*
X457473Y7565D01*
X457553Y7531D01*
X457630Y7494D01*
X457706Y7453D01*
X457780Y7409D01*
X457852Y7361D01*
X457922Y7311D01*
X457989Y7257D01*
X458054Y7200D01*
X458116Y7141D01*
X458794Y6463D01*
X456080Y3749D01*
X463935Y7533D02*
X459864Y11604D01*
X461560Y13300D01*
X461615Y13351D01*
X461672Y13400D01*
X461732Y13446D01*
X461794Y13489D01*
X461858Y13528D01*
X461925Y13564D01*
X461993Y13597D01*
X462062Y13625D01*
X462133Y13651D01*
X462206Y13672D01*
X462279Y13690D01*
X462353Y13703D01*
X462428Y13713D01*
X462503Y13719D01*
X462578Y13721D01*
X462653Y13719D01*
X462728Y13713D01*
X462803Y13703D01*
X462877Y13690D01*
X462950Y13672D01*
X463023Y13651D01*
X463094Y13625D01*
X463163Y13597D01*
X463231Y13564D01*
X463297Y13528D01*
X463362Y13489D01*
X463424Y13446D01*
X463484Y13400D01*
X463541Y13351D01*
X463595Y13300D01*
X463596Y13300D02*
X466649Y10247D01*
X472420Y16018D02*
X466314Y22124D01*
X472420Y16018D02*
X470724Y14322D01*
X470724Y14321D02*
X470669Y14270D01*
X470612Y14221D01*
X470552Y14175D01*
X470490Y14132D01*
X470426Y14093D01*
X470359Y14057D01*
X470291Y14024D01*
X470222Y13996D01*
X470151Y13970D01*
X470078Y13949D01*
X470005Y13931D01*
X469931Y13918D01*
X469856Y13908D01*
X469781Y13902D01*
X469706Y13900D01*
X469631Y13902D01*
X469556Y13908D01*
X469481Y13918D01*
X469407Y13931D01*
X469334Y13949D01*
X469261Y13970D01*
X469190Y13996D01*
X469121Y14024D01*
X469053Y14057D01*
X468987Y14093D01*
X468922Y14132D01*
X468860Y14175D01*
X468800Y14221D01*
X468743Y14270D01*
X468688Y14321D01*
X468688Y14322D02*
X466653Y16357D01*
X466602Y16412D01*
X466553Y16469D01*
X466507Y16529D01*
X466464Y16591D01*
X466425Y16656D01*
X466389Y16722D01*
X466356Y16790D01*
X466328Y16859D01*
X466302Y16930D01*
X466281Y17003D01*
X466263Y17076D01*
X466250Y17150D01*
X466240Y17225D01*
X466234Y17300D01*
X466232Y17375D01*
X466234Y17450D01*
X466240Y17525D01*
X466250Y17600D01*
X466263Y17674D01*
X466281Y17747D01*
X466302Y17820D01*
X466328Y17891D01*
X466356Y17960D01*
X466389Y18028D01*
X466425Y18095D01*
X466464Y18159D01*
X466507Y18221D01*
X466553Y18281D01*
X466602Y18338D01*
X466653Y18393D01*
X468349Y20089D01*
X480050Y23648D02*
X481407Y25005D01*
X480050Y23647D02*
X479995Y23596D01*
X479938Y23547D01*
X479878Y23501D01*
X479816Y23458D01*
X479752Y23419D01*
X479685Y23383D01*
X479617Y23350D01*
X479548Y23322D01*
X479477Y23296D01*
X479404Y23275D01*
X479331Y23257D01*
X479257Y23244D01*
X479182Y23234D01*
X479107Y23228D01*
X479032Y23226D01*
X478957Y23228D01*
X478882Y23234D01*
X478807Y23244D01*
X478733Y23257D01*
X478660Y23275D01*
X478587Y23296D01*
X478516Y23322D01*
X478447Y23350D01*
X478379Y23383D01*
X478313Y23419D01*
X478248Y23458D01*
X478186Y23501D01*
X478126Y23547D01*
X478069Y23596D01*
X478014Y23647D01*
X478015Y23648D02*
X475979Y25683D01*
X475928Y25738D01*
X475879Y25795D01*
X475833Y25855D01*
X475790Y25917D01*
X475751Y25982D01*
X475715Y26048D01*
X475682Y26116D01*
X475654Y26185D01*
X475628Y26256D01*
X475607Y26329D01*
X475589Y26402D01*
X475576Y26476D01*
X475566Y26551D01*
X475560Y26626D01*
X475558Y26701D01*
X475560Y26776D01*
X475566Y26851D01*
X475576Y26926D01*
X475589Y27000D01*
X475607Y27073D01*
X475628Y27146D01*
X475654Y27217D01*
X475682Y27286D01*
X475715Y27354D01*
X475751Y27421D01*
X475790Y27485D01*
X475833Y27547D01*
X475879Y27607D01*
X475928Y27664D01*
X475979Y27719D01*
X477336Y29076D01*
X482743Y31091D02*
X484270Y32617D01*
X482744Y31090D02*
X482688Y31032D01*
X482635Y30970D01*
X482585Y30906D01*
X482538Y30840D01*
X482494Y30772D01*
X482454Y30701D01*
X482417Y30629D01*
X482384Y30555D01*
X482354Y30479D01*
X482328Y30403D01*
X482306Y30324D01*
X482287Y30245D01*
X482273Y30166D01*
X482262Y30085D01*
X482255Y30004D01*
X482252Y29923D01*
X482253Y29842D01*
X482258Y29761D01*
X482267Y29681D01*
X482280Y29600D01*
X482296Y29521D01*
X482316Y29442D01*
X482341Y29365D01*
X482368Y29289D01*
X482400Y29214D01*
X482435Y29141D01*
X482474Y29069D01*
X482516Y29000D01*
X482561Y28933D01*
X482609Y28868D01*
X482661Y28805D01*
X482715Y28745D01*
X482773Y28687D01*
X482833Y28633D01*
X482896Y28581D01*
X482961Y28533D01*
X483028Y28488D01*
X483097Y28446D01*
X483169Y28407D01*
X483242Y28372D01*
X483317Y28340D01*
X483393Y28313D01*
X483470Y28288D01*
X483549Y28268D01*
X483628Y28252D01*
X483709Y28239D01*
X483789Y28230D01*
X483870Y28225D01*
X483951Y28224D01*
X484032Y28227D01*
X484113Y28234D01*
X484194Y28245D01*
X484273Y28259D01*
X484352Y28278D01*
X484431Y28300D01*
X484507Y28326D01*
X484583Y28356D01*
X484657Y28389D01*
X484729Y28426D01*
X484800Y28466D01*
X484868Y28510D01*
X484934Y28557D01*
X484998Y28607D01*
X485060Y28660D01*
X485118Y28716D01*
X486645Y30242D01*
X483591Y33296D01*
X483592Y33296D02*
X483539Y33346D01*
X483483Y33393D01*
X483426Y33438D01*
X483366Y33480D01*
X483304Y33518D01*
X483240Y33553D01*
X483175Y33586D01*
X483108Y33614D01*
X483039Y33640D01*
X482970Y33661D01*
X482899Y33680D01*
X482828Y33694D01*
X482756Y33705D01*
X482683Y33713D01*
X482610Y33717D01*
X482538Y33717D01*
X482465Y33713D01*
X482392Y33705D01*
X482320Y33694D01*
X482249Y33680D01*
X482178Y33661D01*
X482109Y33640D01*
X482040Y33614D01*
X481973Y33586D01*
X481908Y33553D01*
X481844Y33518D01*
X481782Y33480D01*
X481722Y33438D01*
X481665Y33393D01*
X481609Y33346D01*
X481556Y33295D01*
X481556Y33296D02*
X480199Y31939D01*
X483954Y39765D02*
X490061Y33659D01*
X491757Y35355D01*
X491758Y35355D02*
X491809Y35410D01*
X491858Y35467D01*
X491904Y35527D01*
X491947Y35589D01*
X491986Y35653D01*
X492022Y35720D01*
X492055Y35788D01*
X492083Y35857D01*
X492109Y35928D01*
X492130Y36001D01*
X492148Y36074D01*
X492161Y36148D01*
X492171Y36223D01*
X492177Y36298D01*
X492179Y36373D01*
X492177Y36448D01*
X492171Y36523D01*
X492161Y36598D01*
X492148Y36672D01*
X492130Y36745D01*
X492109Y36818D01*
X492083Y36889D01*
X492055Y36958D01*
X492022Y37026D01*
X491986Y37092D01*
X491947Y37157D01*
X491904Y37219D01*
X491858Y37279D01*
X491809Y37336D01*
X491758Y37390D01*
X491757Y37391D02*
X489722Y39426D01*
X489669Y39476D01*
X489613Y39523D01*
X489556Y39568D01*
X489496Y39610D01*
X489434Y39648D01*
X489370Y39683D01*
X489305Y39716D01*
X489238Y39744D01*
X489169Y39770D01*
X489100Y39791D01*
X489029Y39810D01*
X488958Y39824D01*
X488886Y39835D01*
X488813Y39843D01*
X488740Y39847D01*
X488668Y39847D01*
X488595Y39843D01*
X488522Y39835D01*
X488450Y39824D01*
X488379Y39810D01*
X488308Y39791D01*
X488239Y39770D01*
X488170Y39744D01*
X488103Y39716D01*
X488038Y39683D01*
X487974Y39648D01*
X487912Y39610D01*
X487852Y39568D01*
X487795Y39523D01*
X487739Y39476D01*
X487686Y39426D01*
X485990Y37730D01*
X489538Y45348D02*
X494626Y40260D01*
X494626Y40259D02*
X494679Y40209D01*
X494735Y40162D01*
X494792Y40117D01*
X494852Y40075D01*
X494914Y40037D01*
X494978Y40002D01*
X495043Y39969D01*
X495110Y39941D01*
X495179Y39915D01*
X495248Y39894D01*
X495319Y39875D01*
X495390Y39861D01*
X495462Y39850D01*
X495535Y39842D01*
X495608Y39838D01*
X495680Y39838D01*
X495753Y39842D01*
X495826Y39850D01*
X495898Y39861D01*
X495969Y39875D01*
X496040Y39894D01*
X496109Y39915D01*
X496178Y39941D01*
X496245Y39969D01*
X496310Y40002D01*
X496374Y40037D01*
X496436Y40075D01*
X496496Y40117D01*
X496553Y40162D01*
X496609Y40209D01*
X496662Y40259D01*
X500083Y43681D02*
X501779Y45377D01*
X500083Y43680D02*
X500028Y43629D01*
X499971Y43580D01*
X499911Y43534D01*
X499849Y43491D01*
X499785Y43452D01*
X499718Y43416D01*
X499650Y43383D01*
X499581Y43355D01*
X499510Y43329D01*
X499437Y43308D01*
X499364Y43290D01*
X499290Y43277D01*
X499215Y43267D01*
X499140Y43261D01*
X499065Y43259D01*
X498990Y43261D01*
X498915Y43267D01*
X498840Y43277D01*
X498766Y43290D01*
X498693Y43308D01*
X498620Y43329D01*
X498549Y43355D01*
X498480Y43383D01*
X498412Y43416D01*
X498346Y43452D01*
X498281Y43491D01*
X498219Y43534D01*
X498159Y43580D01*
X498102Y43629D01*
X498047Y43680D01*
X498047Y43681D02*
X496351Y45377D01*
X496292Y45439D01*
X496235Y45504D01*
X496181Y45571D01*
X496131Y45641D01*
X496083Y45713D01*
X496039Y45787D01*
X495998Y45863D01*
X495961Y45940D01*
X495927Y46020D01*
X495897Y46100D01*
X495870Y46182D01*
X495847Y46265D01*
X495828Y46349D01*
X495813Y46434D01*
X495801Y46519D01*
X495793Y46605D01*
X495789Y46691D01*
X495789Y46777D01*
X495793Y46863D01*
X495801Y46949D01*
X495813Y47034D01*
X495828Y47119D01*
X495847Y47203D01*
X495870Y47286D01*
X495897Y47368D01*
X495927Y47448D01*
X495961Y47528D01*
X495998Y47605D01*
X496039Y47681D01*
X496083Y47755D01*
X496131Y47827D01*
X496181Y47897D01*
X496235Y47964D01*
X496292Y48029D01*
X496351Y48091D01*
X496413Y48150D01*
X496478Y48207D01*
X496545Y48261D01*
X496615Y48311D01*
X496687Y48359D01*
X496761Y48403D01*
X496837Y48444D01*
X496914Y48481D01*
X496994Y48515D01*
X497074Y48545D01*
X497156Y48572D01*
X497239Y48595D01*
X497323Y48614D01*
X497408Y48629D01*
X497493Y48641D01*
X497579Y48649D01*
X497665Y48653D01*
X497751Y48653D01*
X497837Y48649D01*
X497923Y48641D01*
X498008Y48629D01*
X498093Y48614D01*
X498177Y48595D01*
X498260Y48572D01*
X498342Y48545D01*
X498422Y48515D01*
X498502Y48481D01*
X498579Y48444D01*
X498655Y48403D01*
X498729Y48359D01*
X498801Y48311D01*
X498871Y48261D01*
X498938Y48207D01*
X499003Y48150D01*
X499065Y48091D01*
X499744Y47412D01*
X497030Y44698D01*
X508333Y51930D02*
X502226Y58037D01*
X504262Y56001D02*
X505958Y57698D01*
X506013Y57749D01*
X506070Y57798D01*
X506130Y57844D01*
X506192Y57887D01*
X506256Y57926D01*
X506323Y57962D01*
X506391Y57995D01*
X506460Y58023D01*
X506531Y58049D01*
X506604Y58070D01*
X506677Y58088D01*
X506751Y58101D01*
X506826Y58111D01*
X506901Y58117D01*
X506976Y58119D01*
X507051Y58117D01*
X507126Y58111D01*
X507201Y58101D01*
X507275Y58088D01*
X507348Y58070D01*
X507421Y58049D01*
X507492Y58023D01*
X507561Y57995D01*
X507629Y57962D01*
X507695Y57926D01*
X507760Y57887D01*
X507822Y57844D01*
X507882Y57798D01*
X507939Y57749D01*
X507993Y57698D01*
X511047Y54644D01*
X515170Y58767D02*
X516866Y60464D01*
X515170Y58767D02*
X515115Y58716D01*
X515058Y58667D01*
X514998Y58621D01*
X514936Y58578D01*
X514872Y58539D01*
X514805Y58503D01*
X514737Y58470D01*
X514668Y58442D01*
X514597Y58416D01*
X514524Y58395D01*
X514451Y58377D01*
X514377Y58364D01*
X514302Y58354D01*
X514227Y58348D01*
X514152Y58346D01*
X514077Y58348D01*
X514002Y58354D01*
X513927Y58364D01*
X513853Y58377D01*
X513780Y58395D01*
X513707Y58416D01*
X513636Y58442D01*
X513567Y58470D01*
X513499Y58503D01*
X513433Y58539D01*
X513368Y58578D01*
X513306Y58621D01*
X513246Y58667D01*
X513189Y58716D01*
X513134Y58767D01*
X511438Y60464D01*
X511379Y60526D01*
X511322Y60591D01*
X511268Y60658D01*
X511218Y60728D01*
X511170Y60800D01*
X511126Y60874D01*
X511085Y60950D01*
X511048Y61027D01*
X511014Y61107D01*
X510984Y61187D01*
X510957Y61269D01*
X510934Y61352D01*
X510915Y61436D01*
X510900Y61521D01*
X510888Y61606D01*
X510880Y61692D01*
X510876Y61778D01*
X510876Y61864D01*
X510880Y61950D01*
X510888Y62036D01*
X510900Y62121D01*
X510915Y62206D01*
X510934Y62290D01*
X510957Y62373D01*
X510984Y62455D01*
X511014Y62535D01*
X511048Y62615D01*
X511085Y62692D01*
X511126Y62768D01*
X511170Y62842D01*
X511218Y62914D01*
X511268Y62984D01*
X511322Y63051D01*
X511379Y63116D01*
X511438Y63178D01*
X511500Y63237D01*
X511565Y63294D01*
X511632Y63348D01*
X511702Y63398D01*
X511774Y63446D01*
X511848Y63490D01*
X511924Y63531D01*
X512001Y63568D01*
X512081Y63602D01*
X512161Y63632D01*
X512243Y63659D01*
X512326Y63682D01*
X512410Y63701D01*
X512495Y63716D01*
X512580Y63728D01*
X512666Y63736D01*
X512752Y63740D01*
X512838Y63740D01*
X512924Y63736D01*
X513010Y63728D01*
X513095Y63716D01*
X513180Y63701D01*
X513264Y63682D01*
X513347Y63659D01*
X513429Y63632D01*
X513509Y63602D01*
X513589Y63568D01*
X513666Y63531D01*
X513742Y63490D01*
X513816Y63446D01*
X513888Y63398D01*
X513958Y63348D01*
X514025Y63294D01*
X514090Y63237D01*
X514152Y63178D01*
X514830Y62499D01*
X512116Y59785D01*
X520025Y63623D02*
X515954Y67694D01*
X517989Y69729D01*
X518668Y69051D01*
X525299Y68897D02*
X526995Y70593D01*
X525299Y68897D02*
X525244Y68846D01*
X525187Y68797D01*
X525127Y68751D01*
X525065Y68708D01*
X525001Y68669D01*
X524934Y68633D01*
X524866Y68600D01*
X524797Y68572D01*
X524726Y68546D01*
X524653Y68525D01*
X524580Y68507D01*
X524506Y68494D01*
X524431Y68484D01*
X524356Y68478D01*
X524281Y68476D01*
X524206Y68478D01*
X524131Y68484D01*
X524056Y68494D01*
X523982Y68507D01*
X523909Y68525D01*
X523836Y68546D01*
X523765Y68572D01*
X523696Y68600D01*
X523628Y68633D01*
X523562Y68669D01*
X523497Y68708D01*
X523435Y68751D01*
X523375Y68797D01*
X523318Y68846D01*
X523263Y68897D01*
X523264Y68897D02*
X521567Y70593D01*
X521508Y70655D01*
X521451Y70720D01*
X521397Y70787D01*
X521347Y70857D01*
X521299Y70929D01*
X521255Y71003D01*
X521214Y71079D01*
X521177Y71156D01*
X521143Y71236D01*
X521113Y71316D01*
X521086Y71398D01*
X521063Y71481D01*
X521044Y71565D01*
X521029Y71650D01*
X521017Y71735D01*
X521009Y71821D01*
X521005Y71907D01*
X521005Y71993D01*
X521009Y72079D01*
X521017Y72165D01*
X521029Y72250D01*
X521044Y72335D01*
X521063Y72419D01*
X521086Y72502D01*
X521113Y72584D01*
X521143Y72664D01*
X521177Y72744D01*
X521214Y72821D01*
X521255Y72897D01*
X521299Y72971D01*
X521347Y73043D01*
X521397Y73113D01*
X521451Y73180D01*
X521508Y73245D01*
X521567Y73307D01*
X521629Y73366D01*
X521694Y73423D01*
X521761Y73477D01*
X521831Y73527D01*
X521903Y73575D01*
X521977Y73619D01*
X522053Y73660D01*
X522130Y73697D01*
X522210Y73731D01*
X522290Y73761D01*
X522372Y73788D01*
X522455Y73811D01*
X522539Y73830D01*
X522624Y73845D01*
X522709Y73857D01*
X522795Y73865D01*
X522881Y73869D01*
X522967Y73869D01*
X523053Y73865D01*
X523139Y73857D01*
X523224Y73845D01*
X523309Y73830D01*
X523393Y73811D01*
X523476Y73788D01*
X523558Y73761D01*
X523638Y73731D01*
X523718Y73697D01*
X523795Y73660D01*
X523871Y73619D01*
X523945Y73575D01*
X524017Y73527D01*
X524087Y73477D01*
X524154Y73423D01*
X524219Y73366D01*
X524281Y73307D01*
X524960Y72629D01*
X522246Y69915D01*
D10*
X294500Y94500D02*
X252500Y136500D01*
X294500Y94500D02*
X1427610Y94500D01*
X1466610Y133500D01*
X1490010Y133500D01*
X1494000Y129500D01*
X1494000Y-70000D01*
X1490500Y-73500D01*
X1355000Y-74000D01*
X1293500Y-12500D01*
X390500Y-12000D01*
X368000Y-34500D01*
X128000Y-34500D01*
X110000Y-52500D01*
X43500Y-52500D01*
X17000Y-26000D01*
D12*
X424240Y-7080D02*
X424240Y91980D01*
X523300Y91980D01*
X424240Y-7080D01*
X424240Y-6096D02*
X425224Y-6096D01*
X424240Y0D02*
X431320Y0D01*
X437416Y6096D02*
X424240Y6096D01*
X424240Y12192D02*
X443512Y12192D01*
X449608Y18288D02*
X424240Y18288D01*
X424240Y24384D02*
X455704Y24384D01*
X461800Y30480D02*
X424240Y30480D01*
X424240Y36576D02*
X467896Y36576D01*
X473992Y42672D02*
X424240Y42672D01*
X424240Y48768D02*
X480088Y48768D01*
X486184Y54864D02*
X424240Y54864D01*
X424240Y60960D02*
X492280Y60960D01*
X498376Y67056D02*
X424240Y67056D01*
X424240Y73152D02*
X504472Y73152D01*
X510568Y79248D02*
X424240Y79248D01*
X424240Y85344D02*
X516664Y85344D01*
X522760Y91440D02*
X424240Y91440D01*
X426720Y91980D02*
X426720Y-4600D01*
X432816Y1496D02*
X432816Y91980D01*
X438912Y91980D02*
X438912Y7592D01*
X445008Y13688D02*
X445008Y91980D01*
X451104Y91980D02*
X451104Y19784D01*
X457200Y25880D02*
X457200Y91980D01*
X463296Y91980D02*
X463296Y31976D01*
X469392Y38072D02*
X469392Y91980D01*
X475488Y91980D02*
X475488Y44168D01*
X481584Y50264D02*
X481584Y91980D01*
X487680Y91980D02*
X487680Y56360D01*
X493776Y62456D02*
X493776Y91980D01*
X499872Y91980D02*
X499872Y68552D01*
X505968Y74648D02*
X505968Y91980D01*
X512064Y91980D02*
X512064Y80744D01*
X518160Y86840D02*
X518160Y91980D01*
X1174948Y72960D02*
X1181054Y79067D01*
X1174948Y72960D02*
X1176644Y71264D01*
X1176644Y71263D02*
X1176699Y71212D01*
X1176756Y71163D01*
X1176816Y71117D01*
X1176878Y71074D01*
X1176942Y71035D01*
X1177009Y70999D01*
X1177077Y70966D01*
X1177146Y70938D01*
X1177217Y70912D01*
X1177290Y70891D01*
X1177363Y70873D01*
X1177437Y70860D01*
X1177512Y70850D01*
X1177587Y70844D01*
X1177662Y70842D01*
X1177737Y70844D01*
X1177812Y70850D01*
X1177887Y70860D01*
X1177961Y70873D01*
X1178034Y70891D01*
X1178107Y70912D01*
X1178178Y70938D01*
X1178247Y70966D01*
X1178315Y70999D01*
X1178381Y71035D01*
X1178446Y71074D01*
X1178508Y71117D01*
X1178568Y71163D01*
X1178625Y71212D01*
X1178679Y71263D01*
X1178679Y71264D02*
X1180715Y73299D01*
X1180765Y73352D01*
X1180812Y73408D01*
X1180857Y73465D01*
X1180899Y73525D01*
X1180937Y73587D01*
X1180972Y73651D01*
X1181005Y73716D01*
X1181033Y73783D01*
X1181059Y73852D01*
X1181080Y73921D01*
X1181099Y73992D01*
X1181113Y74063D01*
X1181124Y74135D01*
X1181132Y74208D01*
X1181136Y74281D01*
X1181136Y74353D01*
X1181132Y74426D01*
X1181124Y74499D01*
X1181113Y74571D01*
X1181099Y74642D01*
X1181080Y74713D01*
X1181059Y74782D01*
X1181033Y74851D01*
X1181005Y74918D01*
X1180972Y74983D01*
X1180937Y75047D01*
X1180899Y75109D01*
X1180857Y75169D01*
X1180812Y75226D01*
X1180765Y75282D01*
X1180715Y75335D01*
X1179019Y77031D01*
X1181521Y66386D02*
X1183217Y64690D01*
X1181521Y66386D02*
X1181471Y66439D01*
X1181424Y66495D01*
X1181379Y66552D01*
X1181337Y66612D01*
X1181299Y66674D01*
X1181264Y66738D01*
X1181231Y66803D01*
X1181203Y66870D01*
X1181177Y66939D01*
X1181156Y67008D01*
X1181137Y67079D01*
X1181123Y67150D01*
X1181112Y67222D01*
X1181104Y67295D01*
X1181100Y67368D01*
X1181100Y67440D01*
X1181104Y67513D01*
X1181112Y67586D01*
X1181123Y67658D01*
X1181137Y67729D01*
X1181156Y67800D01*
X1181177Y67869D01*
X1181203Y67938D01*
X1181231Y68005D01*
X1181264Y68070D01*
X1181299Y68134D01*
X1181337Y68196D01*
X1181379Y68256D01*
X1181424Y68313D01*
X1181471Y68369D01*
X1181521Y68422D01*
X1183217Y70118D01*
X1183280Y70178D01*
X1183346Y70236D01*
X1183414Y70290D01*
X1183485Y70341D01*
X1183558Y70389D01*
X1183633Y70434D01*
X1183711Y70475D01*
X1183789Y70512D01*
X1183870Y70546D01*
X1183952Y70576D01*
X1184035Y70603D01*
X1184120Y70625D01*
X1184205Y70644D01*
X1184291Y70659D01*
X1184378Y70670D01*
X1184465Y70677D01*
X1184552Y70680D01*
X1184640Y70679D01*
X1184727Y70674D01*
X1184814Y70665D01*
X1184900Y70652D01*
X1184986Y70635D01*
X1185071Y70615D01*
X1185155Y70590D01*
X1185237Y70562D01*
X1185318Y70530D01*
X1185398Y70494D01*
X1185476Y70455D01*
X1185552Y70412D01*
X1185626Y70366D01*
X1185698Y70316D01*
X1185768Y70263D01*
X1185835Y70207D01*
X1185900Y70148D01*
X1185961Y70087D01*
X1186020Y70022D01*
X1186076Y69955D01*
X1186129Y69885D01*
X1186179Y69813D01*
X1186225Y69739D01*
X1186268Y69663D01*
X1186307Y69585D01*
X1186343Y69505D01*
X1186375Y69424D01*
X1186403Y69342D01*
X1186428Y69258D01*
X1186448Y69173D01*
X1186465Y69087D01*
X1186478Y69001D01*
X1186487Y68914D01*
X1186492Y68827D01*
X1186493Y68739D01*
X1186490Y68652D01*
X1186483Y68565D01*
X1186472Y68478D01*
X1186457Y68392D01*
X1186438Y68307D01*
X1186416Y68222D01*
X1186389Y68139D01*
X1186359Y68057D01*
X1186325Y67977D01*
X1186288Y67898D01*
X1186247Y67820D01*
X1186202Y67745D01*
X1186154Y67672D01*
X1186103Y67601D01*
X1186049Y67533D01*
X1185991Y67467D01*
X1185931Y67404D01*
X1185253Y66726D01*
X1182539Y69440D01*
X1186323Y61585D02*
X1190394Y65656D01*
X1192090Y63960D01*
X1192141Y63905D01*
X1192190Y63848D01*
X1192236Y63788D01*
X1192279Y63726D01*
X1192318Y63662D01*
X1192354Y63595D01*
X1192387Y63527D01*
X1192415Y63458D01*
X1192441Y63387D01*
X1192462Y63314D01*
X1192480Y63241D01*
X1192493Y63167D01*
X1192503Y63092D01*
X1192509Y63017D01*
X1192511Y62942D01*
X1192509Y62867D01*
X1192503Y62792D01*
X1192493Y62717D01*
X1192480Y62643D01*
X1192462Y62570D01*
X1192441Y62497D01*
X1192415Y62426D01*
X1192387Y62357D01*
X1192354Y62289D01*
X1192318Y62223D01*
X1192279Y62158D01*
X1192236Y62096D01*
X1192190Y62036D01*
X1192141Y61979D01*
X1192090Y61925D01*
X1192090Y61924D02*
X1189037Y58871D01*
X1194808Y53100D02*
X1200914Y59206D01*
X1194808Y53100D02*
X1193112Y54796D01*
X1193111Y54796D02*
X1193061Y54849D01*
X1193014Y54905D01*
X1192969Y54962D01*
X1192927Y55022D01*
X1192889Y55084D01*
X1192854Y55148D01*
X1192821Y55213D01*
X1192793Y55280D01*
X1192767Y55349D01*
X1192746Y55418D01*
X1192727Y55489D01*
X1192713Y55560D01*
X1192702Y55632D01*
X1192694Y55705D01*
X1192690Y55778D01*
X1192690Y55850D01*
X1192694Y55923D01*
X1192702Y55996D01*
X1192713Y56068D01*
X1192727Y56139D01*
X1192746Y56210D01*
X1192767Y56279D01*
X1192793Y56348D01*
X1192821Y56415D01*
X1192854Y56480D01*
X1192889Y56544D01*
X1192927Y56606D01*
X1192969Y56666D01*
X1193014Y56723D01*
X1193061Y56779D01*
X1193111Y56832D01*
X1193112Y56831D02*
X1195147Y58867D01*
X1195202Y58918D01*
X1195259Y58967D01*
X1195319Y59013D01*
X1195381Y59056D01*
X1195446Y59095D01*
X1195512Y59131D01*
X1195580Y59164D01*
X1195649Y59192D01*
X1195720Y59218D01*
X1195793Y59239D01*
X1195866Y59257D01*
X1195940Y59270D01*
X1196015Y59280D01*
X1196090Y59286D01*
X1196165Y59288D01*
X1196240Y59286D01*
X1196315Y59280D01*
X1196390Y59270D01*
X1196464Y59257D01*
X1196537Y59239D01*
X1196610Y59218D01*
X1196681Y59192D01*
X1196750Y59164D01*
X1196818Y59131D01*
X1196885Y59095D01*
X1196949Y59056D01*
X1197011Y59013D01*
X1197071Y58967D01*
X1197128Y58918D01*
X1197183Y58867D01*
X1198879Y57171D01*
X1202438Y45470D02*
X1203795Y44113D01*
X1202437Y45469D02*
X1202387Y45522D01*
X1202340Y45578D01*
X1202295Y45635D01*
X1202253Y45695D01*
X1202215Y45757D01*
X1202180Y45821D01*
X1202147Y45886D01*
X1202119Y45953D01*
X1202093Y46022D01*
X1202072Y46091D01*
X1202053Y46162D01*
X1202039Y46233D01*
X1202028Y46305D01*
X1202020Y46378D01*
X1202016Y46451D01*
X1202016Y46523D01*
X1202020Y46596D01*
X1202028Y46669D01*
X1202039Y46741D01*
X1202053Y46812D01*
X1202072Y46883D01*
X1202093Y46952D01*
X1202119Y47021D01*
X1202147Y47088D01*
X1202180Y47153D01*
X1202215Y47217D01*
X1202253Y47279D01*
X1202295Y47339D01*
X1202340Y47396D01*
X1202387Y47452D01*
X1202437Y47505D01*
X1202438Y47505D02*
X1204473Y49541D01*
X1204528Y49592D01*
X1204585Y49641D01*
X1204645Y49687D01*
X1204707Y49730D01*
X1204772Y49769D01*
X1204838Y49805D01*
X1204906Y49838D01*
X1204975Y49866D01*
X1205046Y49892D01*
X1205119Y49913D01*
X1205192Y49931D01*
X1205266Y49944D01*
X1205341Y49954D01*
X1205416Y49960D01*
X1205491Y49962D01*
X1205566Y49960D01*
X1205641Y49954D01*
X1205716Y49944D01*
X1205790Y49931D01*
X1205863Y49913D01*
X1205936Y49892D01*
X1206007Y49866D01*
X1206076Y49838D01*
X1206144Y49805D01*
X1206211Y49769D01*
X1206275Y49730D01*
X1206337Y49687D01*
X1206397Y49641D01*
X1206454Y49592D01*
X1206509Y49541D01*
X1207866Y48184D01*
X1209880Y42776D02*
X1211407Y41250D01*
X1209880Y42776D02*
X1209821Y42832D01*
X1209760Y42885D01*
X1209696Y42935D01*
X1209630Y42982D01*
X1209562Y43026D01*
X1209491Y43066D01*
X1209419Y43103D01*
X1209345Y43136D01*
X1209269Y43166D01*
X1209193Y43192D01*
X1209114Y43214D01*
X1209035Y43233D01*
X1208956Y43247D01*
X1208875Y43258D01*
X1208794Y43265D01*
X1208713Y43268D01*
X1208632Y43267D01*
X1208551Y43262D01*
X1208470Y43253D01*
X1208390Y43240D01*
X1208311Y43224D01*
X1208232Y43204D01*
X1208155Y43179D01*
X1208079Y43152D01*
X1208004Y43120D01*
X1207931Y43085D01*
X1207859Y43046D01*
X1207790Y43004D01*
X1207723Y42959D01*
X1207658Y42911D01*
X1207595Y42859D01*
X1207535Y42805D01*
X1207477Y42747D01*
X1207423Y42687D01*
X1207371Y42624D01*
X1207323Y42559D01*
X1207278Y42492D01*
X1207236Y42423D01*
X1207197Y42351D01*
X1207162Y42278D01*
X1207130Y42203D01*
X1207103Y42127D01*
X1207078Y42050D01*
X1207058Y41971D01*
X1207042Y41892D01*
X1207029Y41812D01*
X1207020Y41731D01*
X1207015Y41650D01*
X1207014Y41569D01*
X1207017Y41488D01*
X1207024Y41407D01*
X1207035Y41326D01*
X1207049Y41247D01*
X1207068Y41168D01*
X1207090Y41089D01*
X1207116Y41013D01*
X1207146Y40937D01*
X1207179Y40863D01*
X1207216Y40791D01*
X1207256Y40720D01*
X1207300Y40652D01*
X1207347Y40586D01*
X1207397Y40522D01*
X1207450Y40461D01*
X1207506Y40402D01*
X1209032Y38875D01*
X1212086Y41928D01*
X1212136Y41981D01*
X1212183Y42037D01*
X1212228Y42094D01*
X1212270Y42154D01*
X1212308Y42216D01*
X1212343Y42280D01*
X1212376Y42345D01*
X1212404Y42412D01*
X1212430Y42481D01*
X1212451Y42550D01*
X1212470Y42621D01*
X1212484Y42692D01*
X1212495Y42764D01*
X1212503Y42837D01*
X1212507Y42910D01*
X1212507Y42982D01*
X1212503Y43055D01*
X1212495Y43128D01*
X1212484Y43200D01*
X1212470Y43271D01*
X1212451Y43342D01*
X1212430Y43411D01*
X1212404Y43480D01*
X1212376Y43547D01*
X1212343Y43612D01*
X1212308Y43676D01*
X1212270Y43738D01*
X1212228Y43798D01*
X1212183Y43855D01*
X1212136Y43911D01*
X1212085Y43964D01*
X1212086Y43964D02*
X1210729Y45321D01*
X1218555Y41565D02*
X1212449Y35458D01*
X1214145Y33762D01*
X1214200Y33711D01*
X1214257Y33662D01*
X1214317Y33616D01*
X1214379Y33573D01*
X1214443Y33534D01*
X1214510Y33498D01*
X1214578Y33465D01*
X1214647Y33437D01*
X1214718Y33411D01*
X1214791Y33390D01*
X1214864Y33372D01*
X1214938Y33359D01*
X1215013Y33349D01*
X1215088Y33343D01*
X1215163Y33341D01*
X1215238Y33343D01*
X1215313Y33349D01*
X1215388Y33359D01*
X1215462Y33372D01*
X1215535Y33390D01*
X1215608Y33411D01*
X1215679Y33437D01*
X1215748Y33465D01*
X1215816Y33498D01*
X1215882Y33534D01*
X1215947Y33573D01*
X1216009Y33616D01*
X1216069Y33662D01*
X1216126Y33711D01*
X1216180Y33762D01*
X1218216Y35798D01*
X1218216Y35797D02*
X1218266Y35850D01*
X1218313Y35906D01*
X1218358Y35963D01*
X1218400Y36023D01*
X1218438Y36085D01*
X1218473Y36149D01*
X1218506Y36214D01*
X1218534Y36281D01*
X1218560Y36350D01*
X1218581Y36419D01*
X1218600Y36490D01*
X1218614Y36561D01*
X1218625Y36633D01*
X1218633Y36706D01*
X1218637Y36779D01*
X1218637Y36851D01*
X1218633Y36924D01*
X1218625Y36997D01*
X1218614Y37069D01*
X1218600Y37140D01*
X1218581Y37211D01*
X1218560Y37280D01*
X1218534Y37349D01*
X1218506Y37416D01*
X1218473Y37481D01*
X1218438Y37545D01*
X1218400Y37607D01*
X1218358Y37667D01*
X1218313Y37724D01*
X1218266Y37780D01*
X1218216Y37833D01*
X1216520Y39530D01*
X1224138Y35982D02*
X1219049Y30893D01*
X1218998Y30838D01*
X1218949Y30781D01*
X1218903Y30721D01*
X1218860Y30659D01*
X1218821Y30595D01*
X1218785Y30528D01*
X1218752Y30460D01*
X1218724Y30391D01*
X1218698Y30320D01*
X1218677Y30247D01*
X1218659Y30174D01*
X1218646Y30100D01*
X1218636Y30025D01*
X1218630Y29950D01*
X1218628Y29875D01*
X1218630Y29800D01*
X1218636Y29725D01*
X1218646Y29650D01*
X1218659Y29576D01*
X1218677Y29503D01*
X1218698Y29430D01*
X1218724Y29359D01*
X1218752Y29290D01*
X1218785Y29222D01*
X1218821Y29156D01*
X1218860Y29091D01*
X1218903Y29029D01*
X1218949Y28969D01*
X1218998Y28912D01*
X1219049Y28857D01*
X1222471Y25437D02*
X1224167Y23740D01*
X1222470Y25436D02*
X1222420Y25489D01*
X1222373Y25545D01*
X1222328Y25602D01*
X1222286Y25662D01*
X1222248Y25724D01*
X1222213Y25788D01*
X1222180Y25853D01*
X1222152Y25920D01*
X1222126Y25989D01*
X1222105Y26058D01*
X1222086Y26129D01*
X1222072Y26200D01*
X1222061Y26272D01*
X1222053Y26345D01*
X1222049Y26418D01*
X1222049Y26490D01*
X1222053Y26563D01*
X1222061Y26636D01*
X1222072Y26708D01*
X1222086Y26779D01*
X1222105Y26850D01*
X1222126Y26919D01*
X1222152Y26988D01*
X1222180Y27055D01*
X1222213Y27120D01*
X1222248Y27184D01*
X1222286Y27246D01*
X1222328Y27306D01*
X1222373Y27363D01*
X1222420Y27419D01*
X1222470Y27472D01*
X1222471Y27472D02*
X1224167Y29168D01*
X1224230Y29228D01*
X1224296Y29286D01*
X1224364Y29340D01*
X1224435Y29391D01*
X1224508Y29439D01*
X1224583Y29484D01*
X1224661Y29525D01*
X1224739Y29562D01*
X1224820Y29596D01*
X1224902Y29626D01*
X1224985Y29653D01*
X1225070Y29675D01*
X1225155Y29694D01*
X1225241Y29709D01*
X1225328Y29720D01*
X1225415Y29727D01*
X1225502Y29730D01*
X1225590Y29729D01*
X1225677Y29724D01*
X1225764Y29715D01*
X1225850Y29702D01*
X1225936Y29685D01*
X1226021Y29665D01*
X1226105Y29640D01*
X1226187Y29612D01*
X1226268Y29580D01*
X1226348Y29544D01*
X1226426Y29505D01*
X1226502Y29462D01*
X1226576Y29416D01*
X1226648Y29366D01*
X1226718Y29313D01*
X1226785Y29257D01*
X1226850Y29198D01*
X1226911Y29137D01*
X1226970Y29072D01*
X1227026Y29005D01*
X1227079Y28935D01*
X1227129Y28863D01*
X1227175Y28789D01*
X1227218Y28713D01*
X1227257Y28635D01*
X1227293Y28555D01*
X1227325Y28474D01*
X1227353Y28392D01*
X1227378Y28308D01*
X1227398Y28223D01*
X1227415Y28137D01*
X1227428Y28051D01*
X1227437Y27964D01*
X1227442Y27877D01*
X1227443Y27789D01*
X1227440Y27702D01*
X1227433Y27615D01*
X1227422Y27528D01*
X1227407Y27442D01*
X1227388Y27357D01*
X1227366Y27272D01*
X1227339Y27189D01*
X1227309Y27107D01*
X1227275Y27027D01*
X1227238Y26948D01*
X1227197Y26870D01*
X1227152Y26795D01*
X1227104Y26722D01*
X1227053Y26651D01*
X1226999Y26583D01*
X1226941Y26517D01*
X1226881Y26454D01*
X1226202Y25776D01*
X1223488Y28490D01*
X1230720Y17187D02*
X1236827Y23293D01*
X1234791Y21258D02*
X1236488Y19561D01*
X1236488Y19562D02*
X1236539Y19507D01*
X1236588Y19450D01*
X1236634Y19390D01*
X1236677Y19328D01*
X1236716Y19264D01*
X1236752Y19197D01*
X1236785Y19129D01*
X1236813Y19060D01*
X1236839Y18989D01*
X1236860Y18916D01*
X1236878Y18843D01*
X1236891Y18769D01*
X1236901Y18694D01*
X1236907Y18619D01*
X1236909Y18544D01*
X1236907Y18469D01*
X1236901Y18394D01*
X1236891Y18319D01*
X1236878Y18245D01*
X1236860Y18172D01*
X1236839Y18099D01*
X1236813Y18028D01*
X1236785Y17959D01*
X1236752Y17891D01*
X1236716Y17825D01*
X1236677Y17760D01*
X1236634Y17698D01*
X1236588Y17638D01*
X1236539Y17581D01*
X1236488Y17527D01*
X1236488Y17526D02*
X1233434Y14473D01*
X1237557Y10350D02*
X1239253Y8653D01*
X1237557Y10349D02*
X1237507Y10402D01*
X1237460Y10458D01*
X1237415Y10515D01*
X1237373Y10575D01*
X1237335Y10637D01*
X1237300Y10701D01*
X1237267Y10766D01*
X1237239Y10833D01*
X1237213Y10902D01*
X1237192Y10971D01*
X1237173Y11042D01*
X1237159Y11113D01*
X1237148Y11185D01*
X1237140Y11258D01*
X1237136Y11331D01*
X1237136Y11403D01*
X1237140Y11476D01*
X1237148Y11549D01*
X1237159Y11621D01*
X1237173Y11692D01*
X1237192Y11763D01*
X1237213Y11832D01*
X1237239Y11901D01*
X1237267Y11968D01*
X1237300Y12033D01*
X1237335Y12097D01*
X1237373Y12159D01*
X1237415Y12219D01*
X1237460Y12276D01*
X1237507Y12332D01*
X1237557Y12385D01*
X1239253Y14081D01*
X1239316Y14141D01*
X1239382Y14199D01*
X1239450Y14253D01*
X1239521Y14304D01*
X1239594Y14352D01*
X1239669Y14397D01*
X1239747Y14438D01*
X1239825Y14475D01*
X1239906Y14509D01*
X1239988Y14539D01*
X1240071Y14566D01*
X1240156Y14588D01*
X1240241Y14607D01*
X1240327Y14622D01*
X1240414Y14633D01*
X1240501Y14640D01*
X1240588Y14643D01*
X1240676Y14642D01*
X1240763Y14637D01*
X1240850Y14628D01*
X1240936Y14615D01*
X1241022Y14598D01*
X1241107Y14578D01*
X1241191Y14553D01*
X1241273Y14525D01*
X1241354Y14493D01*
X1241434Y14457D01*
X1241512Y14418D01*
X1241588Y14375D01*
X1241662Y14329D01*
X1241734Y14279D01*
X1241804Y14226D01*
X1241871Y14170D01*
X1241936Y14111D01*
X1241997Y14050D01*
X1242056Y13985D01*
X1242112Y13918D01*
X1242165Y13848D01*
X1242215Y13776D01*
X1242261Y13702D01*
X1242304Y13626D01*
X1242343Y13548D01*
X1242379Y13468D01*
X1242411Y13387D01*
X1242439Y13305D01*
X1242464Y13221D01*
X1242484Y13136D01*
X1242501Y13050D01*
X1242514Y12964D01*
X1242523Y12877D01*
X1242528Y12790D01*
X1242529Y12702D01*
X1242526Y12615D01*
X1242519Y12528D01*
X1242508Y12441D01*
X1242493Y12355D01*
X1242474Y12270D01*
X1242452Y12185D01*
X1242425Y12102D01*
X1242395Y12020D01*
X1242361Y11939D01*
X1242324Y11861D01*
X1242283Y11783D01*
X1242238Y11708D01*
X1242190Y11635D01*
X1242139Y11564D01*
X1242085Y11496D01*
X1242027Y11430D01*
X1241967Y11367D01*
X1241289Y10689D01*
X1238575Y13403D01*
X1242413Y5494D02*
X1246484Y9565D01*
X1248519Y7530D01*
X1247841Y6851D01*
X1247687Y220D02*
X1249383Y-1476D01*
X1247686Y220D02*
X1247636Y273D01*
X1247589Y329D01*
X1247544Y386D01*
X1247502Y446D01*
X1247464Y508D01*
X1247429Y572D01*
X1247396Y637D01*
X1247368Y704D01*
X1247342Y773D01*
X1247321Y842D01*
X1247302Y913D01*
X1247288Y984D01*
X1247277Y1056D01*
X1247269Y1129D01*
X1247265Y1202D01*
X1247265Y1274D01*
X1247269Y1347D01*
X1247277Y1420D01*
X1247288Y1492D01*
X1247302Y1563D01*
X1247321Y1634D01*
X1247342Y1703D01*
X1247368Y1772D01*
X1247396Y1839D01*
X1247429Y1904D01*
X1247464Y1968D01*
X1247502Y2030D01*
X1247544Y2090D01*
X1247589Y2147D01*
X1247636Y2203D01*
X1247687Y2256D01*
X1247687Y2255D02*
X1249383Y3952D01*
X1249446Y4012D01*
X1249512Y4070D01*
X1249580Y4124D01*
X1249651Y4175D01*
X1249724Y4223D01*
X1249799Y4268D01*
X1249877Y4309D01*
X1249955Y4346D01*
X1250036Y4380D01*
X1250118Y4410D01*
X1250201Y4437D01*
X1250286Y4459D01*
X1250371Y4478D01*
X1250457Y4493D01*
X1250544Y4504D01*
X1250631Y4511D01*
X1250718Y4514D01*
X1250806Y4513D01*
X1250893Y4508D01*
X1250980Y4499D01*
X1251066Y4486D01*
X1251152Y4469D01*
X1251237Y4449D01*
X1251321Y4424D01*
X1251403Y4396D01*
X1251484Y4364D01*
X1251564Y4328D01*
X1251642Y4289D01*
X1251718Y4246D01*
X1251792Y4200D01*
X1251864Y4150D01*
X1251934Y4097D01*
X1252001Y4041D01*
X1252066Y3982D01*
X1252127Y3921D01*
X1252186Y3856D01*
X1252242Y3789D01*
X1252295Y3719D01*
X1252345Y3647D01*
X1252391Y3573D01*
X1252434Y3497D01*
X1252473Y3419D01*
X1252509Y3339D01*
X1252541Y3258D01*
X1252569Y3176D01*
X1252594Y3092D01*
X1252614Y3007D01*
X1252631Y2921D01*
X1252644Y2835D01*
X1252653Y2748D01*
X1252658Y2661D01*
X1252659Y2573D01*
X1252656Y2486D01*
X1252649Y2399D01*
X1252638Y2312D01*
X1252623Y2226D01*
X1252604Y2141D01*
X1252582Y2056D01*
X1252555Y1973D01*
X1252525Y1891D01*
X1252491Y1810D01*
X1252454Y1732D01*
X1252413Y1654D01*
X1252368Y1579D01*
X1252320Y1506D01*
X1252269Y1435D01*
X1252215Y1367D01*
X1252157Y1301D01*
X1252097Y1238D01*
X1251419Y559D01*
X1248705Y3273D01*
X1272701Y-2171D02*
X1281700Y-11170D01*
X1265630Y4900D02*
X1256631Y13899D01*
X1249560Y20970D02*
X1240561Y29969D01*
X1233490Y37040D02*
X1224490Y46040D01*
X1217419Y53111D02*
X1208420Y62110D01*
X1201349Y69181D02*
X1192350Y78180D01*
X1185279Y85251D02*
X1176280Y94250D01*
D11*
X116017Y112022D02*
X111445Y112022D01*
X113731Y109736D02*
X113731Y114308D01*
X119629Y109355D02*
X121534Y109355D01*
X121619Y109357D01*
X121705Y109363D01*
X121790Y109372D01*
X121874Y109386D01*
X121958Y109403D01*
X122041Y109424D01*
X122123Y109448D01*
X122203Y109476D01*
X122283Y109508D01*
X122361Y109544D01*
X122437Y109582D01*
X122511Y109625D01*
X122583Y109670D01*
X122654Y109719D01*
X122722Y109771D01*
X122787Y109825D01*
X122850Y109883D01*
X122911Y109944D01*
X122969Y110007D01*
X123023Y110072D01*
X123075Y110140D01*
X123124Y110211D01*
X123169Y110283D01*
X123212Y110357D01*
X123250Y110433D01*
X123286Y110511D01*
X123318Y110591D01*
X123346Y110671D01*
X123370Y110753D01*
X123391Y110836D01*
X123408Y110920D01*
X123422Y111004D01*
X123431Y111089D01*
X123437Y111175D01*
X123439Y111260D01*
X123437Y111345D01*
X123431Y111431D01*
X123422Y111516D01*
X123408Y111600D01*
X123391Y111684D01*
X123370Y111767D01*
X123346Y111849D01*
X123318Y111929D01*
X123286Y112009D01*
X123250Y112087D01*
X123212Y112163D01*
X123169Y112237D01*
X123124Y112309D01*
X123075Y112380D01*
X123023Y112448D01*
X122969Y112513D01*
X122911Y112576D01*
X122850Y112637D01*
X122787Y112695D01*
X122722Y112749D01*
X122654Y112801D01*
X122583Y112850D01*
X122511Y112895D01*
X122437Y112938D01*
X122361Y112976D01*
X122283Y113012D01*
X122203Y113044D01*
X122123Y113072D01*
X122041Y113096D01*
X121958Y113117D01*
X121874Y113134D01*
X121790Y113148D01*
X121705Y113157D01*
X121619Y113163D01*
X121534Y113165D01*
X121915Y116213D02*
X119629Y116213D01*
X121915Y116213D02*
X121992Y116211D01*
X122069Y116205D01*
X122146Y116195D01*
X122222Y116182D01*
X122297Y116164D01*
X122371Y116143D01*
X122444Y116118D01*
X122516Y116089D01*
X122586Y116057D01*
X122655Y116022D01*
X122721Y115982D01*
X122786Y115940D01*
X122848Y115894D01*
X122908Y115845D01*
X122965Y115794D01*
X123020Y115739D01*
X123071Y115682D01*
X123120Y115622D01*
X123166Y115560D01*
X123208Y115495D01*
X123248Y115429D01*
X123283Y115360D01*
X123315Y115290D01*
X123344Y115218D01*
X123369Y115145D01*
X123390Y115071D01*
X123408Y114996D01*
X123421Y114920D01*
X123431Y114843D01*
X123437Y114766D01*
X123439Y114689D01*
X123437Y114612D01*
X123431Y114535D01*
X123421Y114458D01*
X123408Y114382D01*
X123390Y114307D01*
X123369Y114233D01*
X123344Y114160D01*
X123315Y114088D01*
X123283Y114018D01*
X123248Y113949D01*
X123208Y113883D01*
X123166Y113818D01*
X123120Y113756D01*
X123071Y113696D01*
X123020Y113639D01*
X122965Y113584D01*
X122908Y113533D01*
X122848Y113484D01*
X122786Y113438D01*
X122721Y113396D01*
X122655Y113356D01*
X122586Y113321D01*
X122516Y113289D01*
X122444Y113260D01*
X122371Y113235D01*
X122297Y113214D01*
X122222Y113196D01*
X122146Y113183D01*
X122069Y113173D01*
X121992Y113167D01*
X121915Y113165D01*
X120391Y113165D01*
X126563Y116213D02*
X128849Y109355D01*
X131135Y116213D01*
X134259Y109355D02*
X136164Y109355D01*
X136249Y109357D01*
X136335Y109363D01*
X136420Y109372D01*
X136504Y109386D01*
X136588Y109403D01*
X136671Y109424D01*
X136753Y109448D01*
X136833Y109476D01*
X136913Y109508D01*
X136991Y109544D01*
X137067Y109582D01*
X137141Y109625D01*
X137213Y109670D01*
X137284Y109719D01*
X137352Y109771D01*
X137417Y109825D01*
X137480Y109883D01*
X137541Y109944D01*
X137599Y110007D01*
X137653Y110072D01*
X137705Y110140D01*
X137754Y110211D01*
X137799Y110283D01*
X137842Y110357D01*
X137880Y110433D01*
X137916Y110511D01*
X137948Y110591D01*
X137976Y110671D01*
X138000Y110753D01*
X138021Y110836D01*
X138038Y110920D01*
X138052Y111004D01*
X138061Y111089D01*
X138067Y111175D01*
X138069Y111260D01*
X138067Y111345D01*
X138061Y111431D01*
X138052Y111516D01*
X138038Y111600D01*
X138021Y111684D01*
X138000Y111767D01*
X137976Y111849D01*
X137948Y111929D01*
X137916Y112009D01*
X137880Y112087D01*
X137842Y112163D01*
X137799Y112237D01*
X137754Y112309D01*
X137705Y112380D01*
X137653Y112448D01*
X137599Y112513D01*
X137541Y112576D01*
X137480Y112637D01*
X137417Y112695D01*
X137352Y112749D01*
X137284Y112801D01*
X137213Y112850D01*
X137141Y112895D01*
X137067Y112938D01*
X136991Y112976D01*
X136913Y113012D01*
X136833Y113044D01*
X136753Y113072D01*
X136671Y113096D01*
X136588Y113117D01*
X136504Y113134D01*
X136420Y113148D01*
X136335Y113157D01*
X136249Y113163D01*
X136164Y113165D01*
X136545Y116213D02*
X134259Y116213D01*
X136545Y116213D02*
X136622Y116211D01*
X136699Y116205D01*
X136776Y116195D01*
X136852Y116182D01*
X136927Y116164D01*
X137001Y116143D01*
X137074Y116118D01*
X137146Y116089D01*
X137216Y116057D01*
X137285Y116022D01*
X137351Y115982D01*
X137416Y115940D01*
X137478Y115894D01*
X137538Y115845D01*
X137595Y115794D01*
X137650Y115739D01*
X137701Y115682D01*
X137750Y115622D01*
X137796Y115560D01*
X137838Y115495D01*
X137878Y115429D01*
X137913Y115360D01*
X137945Y115290D01*
X137974Y115218D01*
X137999Y115145D01*
X138020Y115071D01*
X138038Y114996D01*
X138051Y114920D01*
X138061Y114843D01*
X138067Y114766D01*
X138069Y114689D01*
X138067Y114612D01*
X138061Y114535D01*
X138051Y114458D01*
X138038Y114382D01*
X138020Y114307D01*
X137999Y114233D01*
X137974Y114160D01*
X137945Y114088D01*
X137913Y114018D01*
X137878Y113949D01*
X137838Y113883D01*
X137796Y113818D01*
X137750Y113756D01*
X137701Y113696D01*
X137650Y113639D01*
X137595Y113584D01*
X137538Y113533D01*
X137478Y113484D01*
X137416Y113438D01*
X137351Y113396D01*
X137285Y113356D01*
X137216Y113321D01*
X137146Y113289D01*
X137074Y113260D01*
X137001Y113235D01*
X136927Y113214D01*
X136852Y113196D01*
X136776Y113183D01*
X136699Y113173D01*
X136622Y113167D01*
X136545Y113165D01*
X135021Y113165D01*
X111945Y92113D02*
X111945Y85255D01*
X111945Y92113D02*
X113850Y92113D01*
X113935Y92111D01*
X114021Y92105D01*
X114106Y92096D01*
X114190Y92082D01*
X114274Y92065D01*
X114357Y92044D01*
X114439Y92020D01*
X114519Y91992D01*
X114599Y91960D01*
X114677Y91924D01*
X114753Y91886D01*
X114827Y91843D01*
X114899Y91798D01*
X114970Y91749D01*
X115038Y91697D01*
X115103Y91643D01*
X115166Y91585D01*
X115227Y91524D01*
X115285Y91461D01*
X115339Y91396D01*
X115391Y91328D01*
X115440Y91257D01*
X115485Y91185D01*
X115528Y91111D01*
X115566Y91035D01*
X115602Y90957D01*
X115634Y90877D01*
X115662Y90797D01*
X115686Y90715D01*
X115707Y90632D01*
X115724Y90548D01*
X115738Y90464D01*
X115747Y90379D01*
X115753Y90293D01*
X115755Y90208D01*
X115753Y90123D01*
X115747Y90037D01*
X115738Y89952D01*
X115724Y89868D01*
X115707Y89784D01*
X115686Y89701D01*
X115662Y89619D01*
X115634Y89539D01*
X115602Y89459D01*
X115566Y89381D01*
X115528Y89305D01*
X115485Y89231D01*
X115440Y89159D01*
X115391Y89088D01*
X115339Y89020D01*
X115285Y88955D01*
X115227Y88892D01*
X115166Y88831D01*
X115103Y88773D01*
X115038Y88719D01*
X114970Y88667D01*
X114899Y88618D01*
X114827Y88573D01*
X114753Y88530D01*
X114677Y88492D01*
X114599Y88456D01*
X114519Y88424D01*
X114439Y88396D01*
X114357Y88372D01*
X114274Y88351D01*
X114190Y88334D01*
X114106Y88320D01*
X114021Y88311D01*
X113935Y88305D01*
X113850Y88303D01*
X111945Y88303D01*
X114231Y88303D02*
X115755Y85255D01*
X119434Y85255D02*
X119434Y92113D01*
X123244Y85255D01*
X123244Y92113D01*
X126994Y85255D02*
X128899Y85255D01*
X128984Y85257D01*
X129070Y85263D01*
X129155Y85272D01*
X129239Y85286D01*
X129323Y85303D01*
X129406Y85324D01*
X129488Y85348D01*
X129568Y85376D01*
X129648Y85408D01*
X129726Y85444D01*
X129802Y85482D01*
X129876Y85525D01*
X129948Y85570D01*
X130019Y85619D01*
X130087Y85671D01*
X130152Y85725D01*
X130215Y85783D01*
X130276Y85844D01*
X130334Y85907D01*
X130388Y85972D01*
X130440Y86040D01*
X130489Y86111D01*
X130534Y86183D01*
X130577Y86257D01*
X130615Y86333D01*
X130651Y86411D01*
X130683Y86491D01*
X130711Y86571D01*
X130735Y86653D01*
X130756Y86736D01*
X130773Y86820D01*
X130787Y86904D01*
X130796Y86989D01*
X130802Y87075D01*
X130804Y87160D01*
X130802Y87245D01*
X130796Y87331D01*
X130787Y87416D01*
X130773Y87500D01*
X130756Y87584D01*
X130735Y87667D01*
X130711Y87749D01*
X130683Y87829D01*
X130651Y87909D01*
X130615Y87987D01*
X130577Y88063D01*
X130534Y88137D01*
X130489Y88209D01*
X130440Y88280D01*
X130388Y88348D01*
X130334Y88413D01*
X130276Y88476D01*
X130215Y88537D01*
X130152Y88595D01*
X130087Y88649D01*
X130019Y88701D01*
X129948Y88750D01*
X129876Y88795D01*
X129802Y88838D01*
X129726Y88876D01*
X129648Y88912D01*
X129568Y88944D01*
X129488Y88972D01*
X129406Y88996D01*
X129323Y89017D01*
X129239Y89034D01*
X129155Y89048D01*
X129070Y89057D01*
X128984Y89063D01*
X128899Y89065D01*
X129280Y92113D02*
X126994Y92113D01*
X129280Y92113D02*
X129357Y92111D01*
X129434Y92105D01*
X129511Y92095D01*
X129587Y92082D01*
X129662Y92064D01*
X129736Y92043D01*
X129809Y92018D01*
X129881Y91989D01*
X129951Y91957D01*
X130020Y91922D01*
X130086Y91882D01*
X130151Y91840D01*
X130213Y91794D01*
X130273Y91745D01*
X130330Y91694D01*
X130385Y91639D01*
X130436Y91582D01*
X130485Y91522D01*
X130531Y91460D01*
X130573Y91395D01*
X130613Y91329D01*
X130648Y91260D01*
X130680Y91190D01*
X130709Y91118D01*
X130734Y91045D01*
X130755Y90971D01*
X130773Y90896D01*
X130786Y90820D01*
X130796Y90743D01*
X130802Y90666D01*
X130804Y90589D01*
X130802Y90512D01*
X130796Y90435D01*
X130786Y90358D01*
X130773Y90282D01*
X130755Y90207D01*
X130734Y90133D01*
X130709Y90060D01*
X130680Y89988D01*
X130648Y89918D01*
X130613Y89849D01*
X130573Y89783D01*
X130531Y89718D01*
X130485Y89656D01*
X130436Y89596D01*
X130385Y89539D01*
X130330Y89484D01*
X130273Y89433D01*
X130213Y89384D01*
X130151Y89338D01*
X130086Y89296D01*
X130020Y89256D01*
X129951Y89221D01*
X129881Y89189D01*
X129809Y89160D01*
X129736Y89135D01*
X129662Y89114D01*
X129587Y89096D01*
X129511Y89083D01*
X129434Y89073D01*
X129357Y89067D01*
X129280Y89065D01*
X127756Y89065D01*
X111945Y47113D02*
X111945Y40255D01*
X111945Y47113D02*
X113850Y47113D01*
X113935Y47111D01*
X114021Y47105D01*
X114106Y47096D01*
X114190Y47082D01*
X114274Y47065D01*
X114357Y47044D01*
X114439Y47020D01*
X114519Y46992D01*
X114599Y46960D01*
X114677Y46924D01*
X114753Y46886D01*
X114827Y46843D01*
X114899Y46798D01*
X114970Y46749D01*
X115038Y46697D01*
X115103Y46643D01*
X115166Y46585D01*
X115227Y46524D01*
X115285Y46461D01*
X115339Y46396D01*
X115391Y46328D01*
X115440Y46257D01*
X115485Y46185D01*
X115528Y46111D01*
X115566Y46035D01*
X115602Y45957D01*
X115634Y45877D01*
X115662Y45797D01*
X115686Y45715D01*
X115707Y45632D01*
X115724Y45548D01*
X115738Y45464D01*
X115747Y45379D01*
X115753Y45293D01*
X115755Y45208D01*
X115753Y45123D01*
X115747Y45037D01*
X115738Y44952D01*
X115724Y44868D01*
X115707Y44784D01*
X115686Y44701D01*
X115662Y44619D01*
X115634Y44539D01*
X115602Y44459D01*
X115566Y44381D01*
X115528Y44305D01*
X115485Y44231D01*
X115440Y44159D01*
X115391Y44088D01*
X115339Y44020D01*
X115285Y43955D01*
X115227Y43892D01*
X115166Y43831D01*
X115103Y43773D01*
X115038Y43719D01*
X114970Y43667D01*
X114899Y43618D01*
X114827Y43573D01*
X114753Y43530D01*
X114677Y43492D01*
X114599Y43456D01*
X114519Y43424D01*
X114439Y43396D01*
X114357Y43372D01*
X114274Y43351D01*
X114190Y43334D01*
X114106Y43320D01*
X114021Y43311D01*
X113935Y43305D01*
X113850Y43303D01*
X111945Y43303D01*
X114231Y43303D02*
X115755Y40255D01*
X119434Y40255D02*
X119434Y47113D01*
X123244Y40255D01*
X123244Y47113D01*
X129089Y47114D02*
X129171Y47112D01*
X129252Y47106D01*
X129333Y47097D01*
X129414Y47083D01*
X129493Y47066D01*
X129572Y47045D01*
X129650Y47020D01*
X129726Y46991D01*
X129801Y46959D01*
X129875Y46923D01*
X129947Y46884D01*
X130016Y46842D01*
X130084Y46796D01*
X130149Y46747D01*
X130212Y46695D01*
X130272Y46640D01*
X130330Y46582D01*
X130385Y46522D01*
X130437Y46459D01*
X130486Y46394D01*
X130532Y46326D01*
X130574Y46257D01*
X130613Y46185D01*
X130649Y46111D01*
X130681Y46036D01*
X130710Y45960D01*
X130735Y45882D01*
X130756Y45803D01*
X130773Y45724D01*
X130787Y45643D01*
X130796Y45562D01*
X130802Y45481D01*
X130804Y45399D01*
X129089Y47113D02*
X128997Y47111D01*
X128905Y47105D01*
X128813Y47096D01*
X128721Y47082D01*
X128631Y47065D01*
X128541Y47044D01*
X128452Y47019D01*
X128364Y46990D01*
X128277Y46958D01*
X128192Y46922D01*
X128109Y46883D01*
X128027Y46840D01*
X127947Y46794D01*
X127869Y46744D01*
X127793Y46692D01*
X127720Y46636D01*
X127649Y46577D01*
X127580Y46515D01*
X127514Y46450D01*
X127451Y46383D01*
X127391Y46313D01*
X127333Y46241D01*
X127279Y46166D01*
X127228Y46089D01*
X127180Y46010D01*
X127136Y45929D01*
X127095Y45846D01*
X127057Y45762D01*
X127023Y45676D01*
X126993Y45589D01*
X130232Y44065D02*
X130291Y44124D01*
X130347Y44185D01*
X130400Y44248D01*
X130451Y44314D01*
X130498Y44382D01*
X130542Y44452D01*
X130583Y44524D01*
X130621Y44598D01*
X130655Y44673D01*
X130686Y44750D01*
X130713Y44828D01*
X130737Y44908D01*
X130758Y44988D01*
X130774Y45069D01*
X130787Y45151D01*
X130797Y45233D01*
X130802Y45316D01*
X130804Y45399D01*
X130232Y44065D02*
X126994Y40255D01*
X130804Y40255D01*
X111945Y17113D02*
X111945Y10255D01*
X111945Y17113D02*
X113850Y17113D01*
X113935Y17111D01*
X114021Y17105D01*
X114106Y17096D01*
X114190Y17082D01*
X114274Y17065D01*
X114357Y17044D01*
X114439Y17020D01*
X114519Y16992D01*
X114599Y16960D01*
X114677Y16924D01*
X114753Y16886D01*
X114827Y16843D01*
X114899Y16798D01*
X114970Y16749D01*
X115038Y16697D01*
X115103Y16643D01*
X115166Y16585D01*
X115227Y16524D01*
X115285Y16461D01*
X115339Y16396D01*
X115391Y16328D01*
X115440Y16257D01*
X115485Y16185D01*
X115528Y16111D01*
X115566Y16035D01*
X115602Y15957D01*
X115634Y15877D01*
X115662Y15797D01*
X115686Y15715D01*
X115707Y15632D01*
X115724Y15548D01*
X115738Y15464D01*
X115747Y15379D01*
X115753Y15293D01*
X115755Y15208D01*
X115753Y15123D01*
X115747Y15037D01*
X115738Y14952D01*
X115724Y14868D01*
X115707Y14784D01*
X115686Y14701D01*
X115662Y14619D01*
X115634Y14539D01*
X115602Y14459D01*
X115566Y14381D01*
X115528Y14305D01*
X115485Y14231D01*
X115440Y14159D01*
X115391Y14088D01*
X115339Y14020D01*
X115285Y13955D01*
X115227Y13892D01*
X115166Y13831D01*
X115103Y13773D01*
X115038Y13719D01*
X114970Y13667D01*
X114899Y13618D01*
X114827Y13573D01*
X114753Y13530D01*
X114677Y13492D01*
X114599Y13456D01*
X114519Y13424D01*
X114439Y13396D01*
X114357Y13372D01*
X114274Y13351D01*
X114190Y13334D01*
X114106Y13320D01*
X114021Y13311D01*
X113935Y13305D01*
X113850Y13303D01*
X111945Y13303D01*
X114231Y13303D02*
X115755Y10255D01*
X119434Y10255D02*
X119434Y17113D01*
X123244Y10255D01*
X123244Y17113D01*
X126994Y15589D02*
X128899Y17113D01*
X128899Y10255D01*
X126994Y10255D02*
X130804Y10255D01*
D13*
X99000Y78500D02*
X84000Y78500D01*
X84000Y109500D02*
X99000Y109500D01*
X99000Y36500D02*
X84000Y36500D01*
X84000Y67500D02*
X99000Y67500D01*
X99000Y-5500D02*
X84000Y-5500D01*
X84000Y25500D02*
X99000Y25500D01*
D12*
X70310Y117396D02*
X62690Y117396D01*
X62690Y130604D02*
X70310Y130604D01*
D11*
X87469Y109335D02*
X88993Y109335D01*
X87469Y109335D02*
X87392Y109337D01*
X87315Y109343D01*
X87238Y109353D01*
X87162Y109366D01*
X87087Y109384D01*
X87013Y109405D01*
X86940Y109430D01*
X86868Y109459D01*
X86798Y109491D01*
X86729Y109526D01*
X86663Y109566D01*
X86598Y109608D01*
X86536Y109654D01*
X86476Y109703D01*
X86419Y109754D01*
X86364Y109809D01*
X86313Y109866D01*
X86264Y109926D01*
X86218Y109988D01*
X86176Y110053D01*
X86136Y110119D01*
X86101Y110188D01*
X86069Y110258D01*
X86040Y110330D01*
X86015Y110403D01*
X85994Y110477D01*
X85976Y110552D01*
X85963Y110628D01*
X85953Y110705D01*
X85947Y110782D01*
X85945Y110859D01*
X85945Y114669D01*
X85947Y114746D01*
X85953Y114823D01*
X85963Y114900D01*
X85976Y114976D01*
X85994Y115051D01*
X86015Y115125D01*
X86040Y115198D01*
X86069Y115270D01*
X86101Y115340D01*
X86136Y115409D01*
X86176Y115475D01*
X86218Y115540D01*
X86264Y115602D01*
X86313Y115662D01*
X86364Y115719D01*
X86419Y115774D01*
X86476Y115825D01*
X86536Y115874D01*
X86598Y115920D01*
X86663Y115962D01*
X86729Y116002D01*
X86798Y116037D01*
X86868Y116069D01*
X86940Y116098D01*
X87013Y116123D01*
X87087Y116144D01*
X87162Y116162D01*
X87238Y116175D01*
X87315Y116185D01*
X87392Y116191D01*
X87469Y116193D01*
X88993Y116193D01*
X94168Y116194D02*
X94250Y116192D01*
X94331Y116186D01*
X94412Y116177D01*
X94493Y116163D01*
X94572Y116146D01*
X94651Y116125D01*
X94729Y116100D01*
X94805Y116071D01*
X94880Y116039D01*
X94954Y116003D01*
X95026Y115964D01*
X95095Y115922D01*
X95163Y115876D01*
X95228Y115827D01*
X95291Y115775D01*
X95351Y115720D01*
X95409Y115662D01*
X95464Y115602D01*
X95516Y115539D01*
X95565Y115474D01*
X95611Y115406D01*
X95653Y115337D01*
X95692Y115265D01*
X95728Y115191D01*
X95760Y115116D01*
X95789Y115040D01*
X95814Y114962D01*
X95835Y114883D01*
X95852Y114804D01*
X95866Y114723D01*
X95875Y114642D01*
X95881Y114561D01*
X95883Y114479D01*
X94168Y116193D02*
X94076Y116191D01*
X93984Y116185D01*
X93892Y116176D01*
X93800Y116162D01*
X93710Y116145D01*
X93620Y116124D01*
X93531Y116099D01*
X93443Y116070D01*
X93356Y116038D01*
X93271Y116002D01*
X93188Y115963D01*
X93106Y115920D01*
X93026Y115874D01*
X92948Y115824D01*
X92872Y115772D01*
X92799Y115716D01*
X92728Y115657D01*
X92659Y115595D01*
X92593Y115530D01*
X92530Y115463D01*
X92470Y115393D01*
X92412Y115321D01*
X92358Y115246D01*
X92307Y115169D01*
X92259Y115090D01*
X92215Y115009D01*
X92174Y114926D01*
X92136Y114842D01*
X92102Y114756D01*
X92072Y114669D01*
X95311Y113145D02*
X95370Y113204D01*
X95426Y113265D01*
X95479Y113328D01*
X95530Y113394D01*
X95577Y113462D01*
X95621Y113532D01*
X95662Y113604D01*
X95700Y113678D01*
X95734Y113753D01*
X95765Y113830D01*
X95792Y113908D01*
X95816Y113988D01*
X95837Y114068D01*
X95853Y114149D01*
X95866Y114231D01*
X95876Y114313D01*
X95881Y114396D01*
X95883Y114479D01*
X95311Y113145D02*
X92072Y109335D01*
X95882Y109335D01*
D12*
X45040Y13540D02*
X39960Y13540D01*
X39960Y8460D02*
X45040Y8460D01*
D11*
X44809Y17985D02*
X46333Y17985D01*
X44809Y17985D02*
X44732Y17987D01*
X44655Y17993D01*
X44578Y18003D01*
X44502Y18016D01*
X44427Y18034D01*
X44353Y18055D01*
X44280Y18080D01*
X44208Y18109D01*
X44138Y18141D01*
X44069Y18176D01*
X44003Y18216D01*
X43938Y18258D01*
X43876Y18304D01*
X43816Y18353D01*
X43759Y18404D01*
X43704Y18459D01*
X43653Y18516D01*
X43604Y18576D01*
X43558Y18638D01*
X43516Y18703D01*
X43476Y18769D01*
X43441Y18838D01*
X43409Y18908D01*
X43380Y18980D01*
X43355Y19053D01*
X43334Y19127D01*
X43316Y19202D01*
X43303Y19278D01*
X43293Y19355D01*
X43287Y19432D01*
X43285Y19509D01*
X43285Y23319D01*
X43287Y23396D01*
X43293Y23473D01*
X43303Y23550D01*
X43316Y23626D01*
X43334Y23701D01*
X43355Y23775D01*
X43380Y23848D01*
X43409Y23920D01*
X43441Y23990D01*
X43476Y24059D01*
X43516Y24125D01*
X43558Y24190D01*
X43604Y24252D01*
X43653Y24312D01*
X43704Y24369D01*
X43759Y24424D01*
X43816Y24475D01*
X43876Y24524D01*
X43938Y24570D01*
X44003Y24612D01*
X44069Y24652D01*
X44138Y24687D01*
X44208Y24719D01*
X44280Y24748D01*
X44353Y24773D01*
X44427Y24794D01*
X44502Y24812D01*
X44578Y24825D01*
X44655Y24835D01*
X44732Y24841D01*
X44809Y24843D01*
X46333Y24843D01*
X49412Y23319D02*
X51317Y24843D01*
X51317Y17985D01*
X49412Y17985D02*
X53222Y17985D01*
X48000Y3500D02*
X37000Y3500D01*
X37000Y-16500D02*
X48000Y-16500D01*
D14*
X40000Y-375D03*
D11*
X25260Y-7765D02*
X20307Y-7765D01*
X25260Y-7765D02*
X25345Y-7763D01*
X25431Y-7757D01*
X25516Y-7748D01*
X25600Y-7734D01*
X25684Y-7717D01*
X25767Y-7696D01*
X25849Y-7672D01*
X25929Y-7644D01*
X26009Y-7612D01*
X26087Y-7576D01*
X26163Y-7538D01*
X26237Y-7495D01*
X26309Y-7450D01*
X26380Y-7401D01*
X26448Y-7349D01*
X26513Y-7295D01*
X26576Y-7237D01*
X26637Y-7176D01*
X26695Y-7113D01*
X26749Y-7048D01*
X26801Y-6980D01*
X26850Y-6909D01*
X26895Y-6837D01*
X26938Y-6763D01*
X26976Y-6687D01*
X27012Y-6609D01*
X27044Y-6529D01*
X27072Y-6449D01*
X27096Y-6367D01*
X27117Y-6284D01*
X27134Y-6200D01*
X27148Y-6116D01*
X27157Y-6031D01*
X27163Y-5945D01*
X27165Y-5860D01*
X27163Y-5775D01*
X27157Y-5689D01*
X27148Y-5604D01*
X27134Y-5520D01*
X27117Y-5436D01*
X27096Y-5353D01*
X27072Y-5271D01*
X27044Y-5191D01*
X27012Y-5111D01*
X26976Y-5033D01*
X26938Y-4957D01*
X26895Y-4883D01*
X26850Y-4811D01*
X26801Y-4740D01*
X26749Y-4672D01*
X26695Y-4607D01*
X26637Y-4544D01*
X26576Y-4483D01*
X26513Y-4425D01*
X26448Y-4371D01*
X26380Y-4319D01*
X26309Y-4270D01*
X26237Y-4225D01*
X26163Y-4182D01*
X26087Y-4144D01*
X26009Y-4108D01*
X25929Y-4076D01*
X25849Y-4048D01*
X25767Y-4024D01*
X25684Y-4003D01*
X25600Y-3986D01*
X25516Y-3972D01*
X25431Y-3963D01*
X25345Y-3957D01*
X25260Y-3955D01*
X20307Y-3955D01*
X21831Y-206D02*
X20307Y1699D01*
X27165Y1699D01*
X27165Y-206D02*
X27165Y3604D01*
M02*
