M48
;GenerationSoftware,Autodesk,EAGLE,9.5.2*%
;CreationDate,2020-03-15T17:58:39Z*%
FMAT,2
ICI,OFF
METRIC,TZ,000.000
T5C0.254
T4C0.400
T3C0.500
T2C0.550
T1C0.600
%
G90
M71
T1
X148194Y8738
X149464Y8738
X149413Y11938
X148143Y11938
T2
X146437Y10041
X144961Y8340
X135971Y-832
X139122Y2651
X140973Y3638
X142880Y4883
X14455Y-2001
X4016Y11410
X19552Y11011
X23452Y11011
X16388Y12594
X133421Y-4032
X4052Y-2989
X14352Y11011
X2026Y10140
X11991Y7321
X16868Y7296
X5514Y6940
X2914Y3689
X6114Y1125
X18519Y-2026
X15118Y12594
X17658Y12594
T3
X149388Y-5080
X149388Y6350
X149388Y-6350
X149388Y1270
X149388Y-3810
X149388Y-2540
X149388Y-1270
X149388Y0
X149388Y5080
X149388Y2540
X149388Y3810
T4
X25750Y1000
X148626Y-5080
X148626Y-1270
X23750Y1000
X148626Y-3810
X27750Y1000
X21750Y1000
X148626Y-6350
X148626Y1270
X17750Y-200
X32550Y-1800
X148626Y2540
X15750Y-200
X148626Y-2540
X34550Y-1800
X13750Y-200
X148626Y5080
X36550Y-1800
X148626Y6350
X11750Y-200
X148626Y0
X148626Y3810
T5
X0Y3250
X650Y3250
X650Y1950
X650Y2600
X0Y2600
X650Y4550
X0Y4550
X650Y5200
X0Y5200
X650Y5850
X0Y5850
X650Y8450
X0Y8450
X650Y0
X0Y7800
X650Y9100
X0Y9100
X0Y0
X0Y6500
X650Y6500
X0Y11050
X0Y1950
X650Y11050
X0Y650
X0Y-1950
X650Y7800
X650Y-1950
X650Y650
X650Y-1300
X0Y-1300
X650Y1300
X0Y1300
X4700Y0
M30