G04 EAGLE Gerber X2 export*
%TF.Part,Single*%
%TF.FileFunction,Other,solder mask top*%
%TF.FilePolarity,Positive*%
%TF.GenerationSoftware,Autodesk,EAGLE,9.5.2*%
%TF.CreationDate,2020-03-15T17:58:39Z*%
G75*
%MOMM*%
%FSLAX34Y34*%
%LPD*%
%INsolder mask top*%
%AMOC8*
5,1,8,0,0,1.08239X$1,22.5*%
G01*
%ADD10C,0.000000*%
%ADD11R,1.000000X0.600000*%
%ADD12R,1.371600X1.625600*%
%ADD13R,1.451600X0.551600*%
%ADD14R,1.701600X0.901600*%
%ADD15R,2.641600X1.371600*%
%ADD16R,1.401600X1.601600*%
%ADD17R,0.801600X1.001600*%
%ADD18R,0.801600X0.501600*%


D10*
X0Y-23000D02*
X3000Y-26000D01*
X17000Y-26000D01*
X39750Y136500D02*
X252500Y136500D01*
X39750Y136500D02*
X23750Y120500D01*
X7000Y120500D01*
X0Y113500D01*
X0Y107500D01*
X0Y94000D02*
X0Y75000D01*
X1000Y74000D01*
X4000Y74000D01*
X5000Y73000D01*
X5000Y70000D02*
X4000Y69000D01*
X1000Y69000D01*
X0Y68000D01*
X5000Y70000D02*
X5000Y73000D01*
X0Y68000D02*
X0Y42500D01*
X1000Y41500D01*
X4000Y41500D01*
X5000Y40500D01*
X5000Y37500D02*
X4000Y36500D01*
X1000Y36500D01*
X0Y35500D01*
X5000Y37500D02*
X5000Y40500D01*
X0Y-10000D02*
X0Y-23000D01*
X0Y-3000D02*
X0Y35500D01*
X0Y-3000D02*
X1000Y-4000D01*
X4000Y-4000D02*
X5000Y-5000D01*
X4000Y-4000D02*
X1000Y-4000D01*
X5000Y-5000D02*
X5000Y-8000D01*
X4000Y-9000D01*
X1000Y-9000D01*
X0Y-10000D01*
X1000Y106500D02*
X0Y107500D01*
X1000Y106500D02*
X4000Y106500D01*
X5000Y105500D01*
X5000Y96000D01*
X4000Y95000D01*
X1000Y95000D01*
X0Y94000D01*
X252500Y136500D02*
X294500Y94500D01*
X1427610Y94500D01*
X1466610Y133500D01*
X1490010Y133500D01*
X1494000Y129500D01*
X1494000Y-70000D01*
X1490500Y-73500D01*
X1355000Y-74000D01*
X1293500Y-12500D01*
X390500Y-12000D01*
X368000Y-34500D01*
X128000Y-34500D01*
X110000Y-52500D01*
X43500Y-52500D01*
X17000Y-26000D01*
D11*
X83500Y106000D03*
X83500Y98000D03*
X83500Y90000D03*
X83500Y82000D03*
X99500Y82000D03*
X99500Y90000D03*
X99500Y98000D03*
X99500Y106000D03*
X83500Y64000D03*
X83500Y56000D03*
X83500Y48000D03*
X83500Y40000D03*
X99500Y40000D03*
X99500Y48000D03*
X99500Y56000D03*
X99500Y64000D03*
X83500Y22000D03*
X83500Y14000D03*
X83500Y6000D03*
X83500Y-2000D03*
X99500Y-2000D03*
X99500Y6000D03*
X99500Y14000D03*
X99500Y22000D03*
D12*
X64000Y-42250D03*
X88000Y-41750D03*
D13*
X6500Y0D03*
X6500Y6500D03*
X6500Y19500D03*
X6500Y26000D03*
X6500Y32500D03*
X6500Y45500D03*
X6500Y52000D03*
X6500Y58500D03*
X6500Y65000D03*
X6500Y78000D03*
X6500Y84500D03*
X6500Y91000D03*
X6500Y-19500D03*
X6500Y110500D03*
D14*
X1493690Y38110D03*
X1493690Y-63490D03*
X1493690Y-50790D03*
X1493690Y-38090D03*
X1493690Y-25390D03*
X1493690Y-12690D03*
X1493690Y10D03*
X1493690Y12710D03*
X1493690Y25410D03*
D15*
X1488610Y87640D03*
X1488610Y119390D03*
D14*
X1493690Y50810D03*
X1493690Y63510D03*
D15*
X109650Y125940D03*
D16*
X76000Y124000D03*
X57000Y124000D03*
D13*
X6500Y-13000D03*
X6500Y13000D03*
D17*
X36000Y11000D03*
X49000Y11000D03*
D18*
X34000Y0D03*
X34000Y-6500D03*
X34000Y-13000D03*
X51000Y-13000D03*
X51000Y0D03*
M02*
