G04 EAGLE Gerber RS-274X export*
G75*
%MOMM*%
%FSLAX34Y34*%
%LPD*%
%INpad maske top*%
%IPPOS*%
%AMOC8*
5,1,8,0,0,1.08239X$1,22.5*%
G01*
%ADD10R,1.300000X1.500000*%
%ADD11R,1.600000X0.350000*%
%ADD12R,0.900000X0.500000*%
%ADD13R,1.100000X1.000000*%
%ADD14R,0.990000X0.690000*%


D10*
X722020Y264160D03*
X741020Y264160D03*
D11*
X774640Y277870D03*
X774640Y271370D03*
X774640Y264870D03*
X774640Y258370D03*
X774640Y251870D03*
X774640Y245370D03*
X774640Y238870D03*
X774640Y232370D03*
X774640Y225870D03*
X774640Y219370D03*
X830640Y219370D03*
X830640Y225870D03*
X830640Y232370D03*
X830640Y238870D03*
X830640Y245370D03*
X830640Y251870D03*
X830640Y258370D03*
X830640Y264870D03*
X830640Y271370D03*
X830640Y277870D03*
D12*
X739520Y220410D03*
X739520Y228410D03*
X739520Y236410D03*
X739520Y244410D03*
X723520Y244410D03*
X723520Y236410D03*
X723520Y228410D03*
X723520Y220410D03*
X868300Y238060D03*
X868300Y230060D03*
X868300Y222060D03*
X868300Y214060D03*
X884300Y214060D03*
X884300Y222060D03*
X884300Y230060D03*
X884300Y238060D03*
D13*
X741290Y284480D03*
X724290Y284480D03*
D14*
X863400Y269850D03*
X863400Y260350D03*
X863400Y250850D03*
X889300Y250850D03*
X889300Y269850D03*
D13*
X884800Y285750D03*
X867800Y285750D03*
M02*
