G75*
%MOIN*%
%OFA0B0*%
%FSLAX25Y25*%
%IPPOS*%
%LPD*%
%AMOC8*
5,1,8,0,0,1.08239X$1,22.5*
%
%ADD10R,0.04118X0.04906*%
%ADD11R,0.03543X0.03150*%
%ADD12R,0.03150X0.03543*%
%ADD13R,0.02000X0.08000*%
D10*
X0038760Y0136000D03*
X0046240Y0136000D03*
D11*
G36*
X0087996Y0133231D02*
X0090499Y0130728D01*
X0088272Y0128501D01*
X0085769Y0131004D01*
X0087996Y0133231D01*
G37*
G36*
X0093496Y0138731D02*
X0095999Y0136228D01*
X0093772Y0134001D01*
X0091269Y0136504D01*
X0093496Y0138731D01*
G37*
G36*
X0098996Y0144231D02*
X0101499Y0141728D01*
X0099272Y0139501D01*
X0096769Y0142004D01*
X0098996Y0144231D01*
G37*
G36*
X0103728Y0139499D02*
X0106231Y0136996D01*
X0104004Y0134769D01*
X0101501Y0137272D01*
X0103728Y0139499D01*
G37*
G36*
X0111764Y0147463D02*
X0114267Y0144960D01*
X0112040Y0142733D01*
X0109537Y0145236D01*
X0111764Y0147463D01*
G37*
G36*
X0107031Y0152196D02*
X0109534Y0149693D01*
X0107307Y0147466D01*
X0104804Y0149969D01*
X0107031Y0152196D01*
G37*
G36*
X0098228Y0133999D02*
X0100731Y0131496D01*
X0098504Y0129269D01*
X0096001Y0131772D01*
X0098228Y0133999D01*
G37*
G36*
X0092728Y0128499D02*
X0095231Y0125996D01*
X0093004Y0123769D01*
X0090501Y0126272D01*
X0092728Y0128499D01*
G37*
G36*
X0124269Y0117496D02*
X0126772Y0119999D01*
X0128999Y0117772D01*
X0126496Y0115269D01*
X0124269Y0117496D01*
G37*
G36*
X0129001Y0122228D02*
X0131504Y0124731D01*
X0133731Y0122504D01*
X0131228Y0120001D01*
X0129001Y0122228D01*
G37*
G36*
X0142001Y0109728D02*
X0144504Y0112231D01*
X0146731Y0110004D01*
X0144228Y0107501D01*
X0142001Y0109728D01*
G37*
G36*
X0137269Y0104996D02*
X0139772Y0107499D01*
X0141999Y0105272D01*
X0139496Y0102769D01*
X0137269Y0104996D01*
G37*
G36*
X0158501Y0092728D02*
X0161004Y0095231D01*
X0163231Y0093004D01*
X0160728Y0090501D01*
X0158501Y0092728D01*
G37*
G36*
X0153769Y0087996D02*
X0156272Y0090499D01*
X0158499Y0088272D01*
X0155996Y0085769D01*
X0153769Y0087996D01*
G37*
G36*
X0159769Y0081996D02*
X0162272Y0084499D01*
X0164499Y0082272D01*
X0161996Y0079769D01*
X0159769Y0081996D01*
G37*
G36*
X0164501Y0086728D02*
X0167004Y0089231D01*
X0169231Y0087004D01*
X0166728Y0084501D01*
X0164501Y0086728D01*
G37*
G36*
X0151996Y0077231D02*
X0154499Y0074728D01*
X0152272Y0072501D01*
X0149769Y0075004D01*
X0151996Y0077231D01*
G37*
G36*
X0156728Y0072499D02*
X0159231Y0069996D01*
X0157004Y0067769D01*
X0154501Y0070272D01*
X0156728Y0072499D01*
G37*
G36*
X0145496Y0070731D02*
X0147999Y0068228D01*
X0145772Y0066001D01*
X0143269Y0068504D01*
X0145496Y0070731D01*
G37*
G36*
X0150228Y0065999D02*
X0152731Y0063496D01*
X0150504Y0061269D01*
X0148001Y0063772D01*
X0150228Y0065999D01*
G37*
G36*
X0132996Y0058231D02*
X0135499Y0055728D01*
X0133272Y0053501D01*
X0130769Y0056004D01*
X0132996Y0058231D01*
G37*
G36*
X0137728Y0053499D02*
X0140231Y0050996D01*
X0138004Y0048769D01*
X0135501Y0051272D01*
X0137728Y0053499D01*
G37*
G36*
X0132228Y0047999D02*
X0134731Y0045496D01*
X0132504Y0043269D01*
X0130001Y0045772D01*
X0132228Y0047999D01*
G37*
G36*
X0127496Y0052731D02*
X0129999Y0050228D01*
X0127772Y0048001D01*
X0125269Y0050504D01*
X0127496Y0052731D01*
G37*
G36*
X0134496Y0037731D02*
X0136999Y0035228D01*
X0134772Y0033001D01*
X0132269Y0035504D01*
X0134496Y0037731D01*
G37*
G36*
X0139228Y0032999D02*
X0141731Y0030496D01*
X0139504Y0028269D01*
X0137001Y0030772D01*
X0139228Y0032999D01*
G37*
G36*
X0128272Y0026501D02*
X0125769Y0029004D01*
X0127996Y0031231D01*
X0130499Y0028728D01*
X0128272Y0026501D01*
G37*
G36*
X0133004Y0021769D02*
X0130501Y0024272D01*
X0132728Y0026499D01*
X0135231Y0023996D01*
X0133004Y0021769D01*
G37*
G36*
X0108501Y0022728D02*
X0111004Y0025231D01*
X0113231Y0023004D01*
X0110728Y0020501D01*
X0108501Y0022728D01*
G37*
G36*
X0103769Y0017996D02*
X0106272Y0020499D01*
X0108499Y0018272D01*
X0105996Y0015769D01*
X0103769Y0017996D01*
G37*
G36*
X0096269Y0025496D02*
X0098772Y0027999D01*
X0100999Y0025772D01*
X0098496Y0023269D01*
X0096269Y0025496D01*
G37*
G36*
X0101001Y0030228D02*
X0103504Y0032731D01*
X0105731Y0030504D01*
X0103228Y0028001D01*
X0101001Y0030228D01*
G37*
G36*
X0090769Y0030996D02*
X0093272Y0033499D01*
X0095499Y0031272D01*
X0092996Y0028769D01*
X0090769Y0030996D01*
G37*
G36*
X0095501Y0035728D02*
X0098004Y0038231D01*
X0100231Y0036004D01*
X0097728Y0033501D01*
X0095501Y0035728D01*
G37*
G36*
X0079269Y0042496D02*
X0081772Y0044999D01*
X0083999Y0042772D01*
X0081496Y0040269D01*
X0079269Y0042496D01*
G37*
G36*
X0084001Y0047228D02*
X0086504Y0049731D01*
X0088731Y0047504D01*
X0086228Y0045001D01*
X0084001Y0047228D01*
G37*
X0069346Y0068500D03*
X0062654Y0068500D03*
X0046346Y0084000D03*
X0039654Y0084000D03*
G36*
X0085772Y0086001D02*
X0083269Y0088504D01*
X0085496Y0090731D01*
X0087999Y0088228D01*
X0085772Y0086001D01*
G37*
G36*
X0090504Y0081269D02*
X0088001Y0083772D01*
X0090228Y0085999D01*
X0092731Y0083496D01*
X0090504Y0081269D01*
G37*
G36*
X0096604Y0087269D02*
X0094101Y0089772D01*
X0096328Y0091999D01*
X0098831Y0089496D01*
X0096604Y0087269D01*
G37*
G36*
X0091872Y0092001D02*
X0089369Y0094504D01*
X0091596Y0096731D01*
X0094099Y0094228D01*
X0091872Y0092001D01*
G37*
G36*
X0103504Y0094269D02*
X0101001Y0096772D01*
X0103228Y0098999D01*
X0105731Y0096496D01*
X0103504Y0094269D01*
G37*
G36*
X0098772Y0099001D02*
X0096269Y0101504D01*
X0098496Y0103731D01*
X0100999Y0101228D01*
X0098772Y0099001D01*
G37*
G36*
X0142999Y0143772D02*
X0140496Y0141269D01*
X0138269Y0143496D01*
X0140772Y0145999D01*
X0142999Y0143772D01*
G37*
G36*
X0147731Y0148504D02*
X0145228Y0146001D01*
X0143001Y0148228D01*
X0145504Y0150731D01*
X0147731Y0148504D01*
G37*
X0189654Y0152500D03*
X0196346Y0152500D03*
X0219000Y0100346D03*
X0219000Y0093654D03*
X0217346Y0077000D03*
X0210654Y0077000D03*
X0210654Y0069000D03*
X0217346Y0069000D03*
X0217346Y0060000D03*
X0210654Y0060000D03*
X0202846Y0058000D03*
X0196154Y0058000D03*
X0196154Y0066000D03*
X0202846Y0066000D03*
X0210654Y0052000D03*
X0217346Y0052000D03*
G36*
X0178004Y0051269D02*
X0175501Y0053772D01*
X0177728Y0055999D01*
X0180231Y0053496D01*
X0178004Y0051269D01*
G37*
G36*
X0173272Y0056001D02*
X0170769Y0058504D01*
X0172996Y0060731D01*
X0175499Y0058228D01*
X0173272Y0056001D01*
G37*
D12*
X0008654Y0024000D03*
X0015346Y0024000D03*
X0015346Y0034000D03*
X0008654Y0034000D03*
X0039654Y0055500D03*
X0046346Y0055500D03*
X0046346Y0063500D03*
X0039654Y0063500D03*
X0039654Y0071500D03*
X0046346Y0071500D03*
X0074654Y0024000D03*
X0081346Y0024000D03*
X0227000Y0093654D03*
X0235000Y0093654D03*
X0235000Y0100346D03*
X0227000Y0100346D03*
D13*
X0033000Y0080700D03*
X0028000Y0080700D03*
X0023000Y0080700D03*
X0018000Y0080700D03*
X0018000Y0055300D03*
X0023000Y0055300D03*
X0028000Y0055300D03*
X0033000Y0055300D03*
M02*
