G75*
%MOIN*%
%OFA0B0*%
%FSLAX25Y25*%
%IPPOS*%
%LPD*%
%AMOC8*
5,1,8,0,0,1.08239X$1,22.5*
%
%ADD10C,0.00000*%
%ADD11C,0.00600*%
%ADD12C,0.00500*%
D10*
X0006600Y0044600D02*
X0051600Y0044600D01*
X0053600Y0046600D01*
X0053600Y0053600D01*
X0049600Y0057600D01*
X0049600Y0103100D01*
X0053600Y0107100D01*
X0053600Y0146100D01*
X0051600Y0148100D01*
X0010100Y0148100D01*
X0001600Y0139600D01*
X0001600Y0049600D01*
X0006600Y0044600D01*
D11*
X0030900Y0094493D02*
X0034300Y0094493D01*
X0034300Y0096004D01*
X0032789Y0096004D02*
X0032789Y0094493D01*
X0032411Y0097679D02*
X0032411Y0098623D01*
X0032412Y0098623D02*
X0032414Y0098683D01*
X0032420Y0098744D01*
X0032429Y0098803D01*
X0032443Y0098862D01*
X0032460Y0098920D01*
X0032481Y0098977D01*
X0032505Y0099033D01*
X0032533Y0099086D01*
X0032565Y0099138D01*
X0032599Y0099188D01*
X0032637Y0099235D01*
X0032678Y0099280D01*
X0032721Y0099322D01*
X0032767Y0099361D01*
X0032816Y0099397D01*
X0032867Y0099430D01*
X0032919Y0099460D01*
X0032974Y0099486D01*
X0033030Y0099509D01*
X0033087Y0099528D01*
X0033146Y0099543D01*
X0033205Y0099555D01*
X0033265Y0099563D01*
X0033326Y0099567D01*
X0033386Y0099567D01*
X0033447Y0099563D01*
X0033507Y0099555D01*
X0033566Y0099543D01*
X0033625Y0099528D01*
X0033682Y0099509D01*
X0033738Y0099486D01*
X0033793Y0099460D01*
X0033845Y0099430D01*
X0033896Y0099397D01*
X0033945Y0099361D01*
X0033991Y0099322D01*
X0034034Y0099280D01*
X0034075Y0099235D01*
X0034113Y0099188D01*
X0034147Y0099138D01*
X0034179Y0099086D01*
X0034207Y0099033D01*
X0034231Y0098977D01*
X0034252Y0098920D01*
X0034269Y0098862D01*
X0034283Y0098803D01*
X0034292Y0098744D01*
X0034298Y0098683D01*
X0034300Y0098623D01*
X0034300Y0097679D01*
X0030900Y0097679D01*
X0031656Y0101067D02*
X0033544Y0101067D01*
X0033598Y0101069D01*
X0033652Y0101075D01*
X0033705Y0101084D01*
X0033757Y0101098D01*
X0033808Y0101115D01*
X0033858Y0101135D01*
X0033906Y0101159D01*
X0033953Y0101187D01*
X0033997Y0101218D01*
X0034039Y0101252D01*
X0034079Y0101288D01*
X0034115Y0101328D01*
X0034149Y0101370D01*
X0034180Y0101414D01*
X0034208Y0101461D01*
X0034232Y0101509D01*
X0034252Y0101559D01*
X0034269Y0101610D01*
X0034283Y0101662D01*
X0034292Y0101715D01*
X0034298Y0101769D01*
X0034300Y0101823D01*
X0034300Y0102578D01*
X0031656Y0101067D02*
X0031602Y0101069D01*
X0031548Y0101075D01*
X0031495Y0101084D01*
X0031443Y0101098D01*
X0031392Y0101115D01*
X0031342Y0101135D01*
X0031294Y0101159D01*
X0031247Y0101187D01*
X0031203Y0101218D01*
X0031161Y0101252D01*
X0031121Y0101288D01*
X0031085Y0101328D01*
X0031051Y0101370D01*
X0031020Y0101414D01*
X0030992Y0101461D01*
X0030968Y0101509D01*
X0030948Y0101559D01*
X0030931Y0101610D01*
X0030917Y0101662D01*
X0030908Y0101715D01*
X0030902Y0101769D01*
X0030900Y0101823D01*
X0030900Y0102578D01*
X0030900Y0104082D02*
X0030900Y0105971D01*
X0030900Y0107802D02*
X0034300Y0107802D01*
X0030900Y0109691D01*
X0034300Y0109691D01*
X0032789Y0111522D02*
X0031844Y0111522D01*
X0031844Y0111523D02*
X0031784Y0111525D01*
X0031723Y0111531D01*
X0031664Y0111540D01*
X0031605Y0111554D01*
X0031547Y0111571D01*
X0031490Y0111592D01*
X0031434Y0111616D01*
X0031381Y0111644D01*
X0031329Y0111676D01*
X0031279Y0111710D01*
X0031232Y0111748D01*
X0031187Y0111789D01*
X0031145Y0111832D01*
X0031106Y0111878D01*
X0031070Y0111927D01*
X0031037Y0111978D01*
X0031007Y0112030D01*
X0030981Y0112085D01*
X0030958Y0112141D01*
X0030939Y0112198D01*
X0030924Y0112257D01*
X0030912Y0112316D01*
X0030904Y0112376D01*
X0030900Y0112437D01*
X0030900Y0112497D01*
X0030904Y0112558D01*
X0030912Y0112618D01*
X0030924Y0112677D01*
X0030939Y0112736D01*
X0030958Y0112793D01*
X0030981Y0112849D01*
X0031007Y0112904D01*
X0031037Y0112956D01*
X0031070Y0113007D01*
X0031106Y0113056D01*
X0031145Y0113102D01*
X0031187Y0113145D01*
X0031232Y0113186D01*
X0031279Y0113224D01*
X0031329Y0113258D01*
X0031381Y0113290D01*
X0031434Y0113318D01*
X0031490Y0113342D01*
X0031547Y0113363D01*
X0031605Y0113380D01*
X0031664Y0113394D01*
X0031723Y0113403D01*
X0031784Y0113409D01*
X0031844Y0113411D01*
X0032033Y0113411D01*
X0032033Y0113412D02*
X0032087Y0113410D01*
X0032141Y0113404D01*
X0032194Y0113395D01*
X0032246Y0113381D01*
X0032297Y0113364D01*
X0032347Y0113344D01*
X0032395Y0113320D01*
X0032442Y0113292D01*
X0032486Y0113261D01*
X0032528Y0113227D01*
X0032568Y0113191D01*
X0032604Y0113151D01*
X0032638Y0113109D01*
X0032669Y0113065D01*
X0032697Y0113018D01*
X0032721Y0112970D01*
X0032741Y0112920D01*
X0032758Y0112869D01*
X0032772Y0112817D01*
X0032781Y0112764D01*
X0032787Y0112710D01*
X0032789Y0112656D01*
X0032789Y0111522D01*
X0032866Y0111524D01*
X0032942Y0111530D01*
X0033018Y0111539D01*
X0033093Y0111553D01*
X0033168Y0111570D01*
X0033241Y0111591D01*
X0033314Y0111616D01*
X0033385Y0111644D01*
X0033454Y0111676D01*
X0033522Y0111712D01*
X0033588Y0111751D01*
X0033652Y0111793D01*
X0033714Y0111838D01*
X0033773Y0111887D01*
X0033830Y0111938D01*
X0033884Y0111992D01*
X0033935Y0112049D01*
X0033984Y0112108D01*
X0034029Y0112170D01*
X0034071Y0112234D01*
X0034110Y0112300D01*
X0034146Y0112368D01*
X0034178Y0112437D01*
X0034206Y0112508D01*
X0034231Y0112581D01*
X0034252Y0112654D01*
X0034269Y0112729D01*
X0034283Y0112804D01*
X0034292Y0112880D01*
X0034298Y0112956D01*
X0034300Y0113033D01*
X0034300Y0115878D02*
X0031656Y0115122D01*
X0031656Y0117011D01*
X0032411Y0116444D02*
X0030900Y0116444D01*
X0030900Y0118533D02*
X0034300Y0119667D01*
X0030900Y0120800D01*
X0031750Y0120517D02*
X0031750Y0118817D01*
X0032789Y0105688D02*
X0030900Y0104082D01*
X0033544Y0104082D02*
X0033606Y0104104D01*
X0033666Y0104130D01*
X0033725Y0104159D01*
X0033781Y0104192D01*
X0033836Y0104228D01*
X0033888Y0104267D01*
X0033938Y0104309D01*
X0033985Y0104354D01*
X0034030Y0104402D01*
X0034072Y0104453D01*
X0034110Y0104505D01*
X0034145Y0104561D01*
X0034177Y0104618D01*
X0034205Y0104677D01*
X0034230Y0104737D01*
X0034251Y0104799D01*
X0034269Y0104862D01*
X0034282Y0104926D01*
X0034292Y0104991D01*
X0034298Y0105056D01*
X0034300Y0105121D01*
X0034298Y0105177D01*
X0034293Y0105232D01*
X0034284Y0105287D01*
X0034271Y0105341D01*
X0034255Y0105394D01*
X0034235Y0105446D01*
X0034212Y0105497D01*
X0034186Y0105546D01*
X0034157Y0105593D01*
X0034124Y0105638D01*
X0034089Y0105681D01*
X0034051Y0105722D01*
X0034010Y0105760D01*
X0033967Y0105795D01*
X0033922Y0105828D01*
X0033875Y0105857D01*
X0033826Y0105883D01*
X0033775Y0105906D01*
X0033723Y0105926D01*
X0033670Y0105942D01*
X0033616Y0105955D01*
X0033561Y0105964D01*
X0033506Y0105969D01*
X0033450Y0105971D01*
X0033393Y0105969D01*
X0033337Y0105964D01*
X0033280Y0105955D01*
X0033225Y0105943D01*
X0033170Y0105927D01*
X0033117Y0105908D01*
X0033064Y0105886D01*
X0033014Y0105860D01*
X0032965Y0105831D01*
X0032917Y0105800D01*
X0032872Y0105765D01*
X0032829Y0105728D01*
X0032789Y0105688D01*
D12*
X0040936Y0108050D02*
X0042436Y0108050D01*
X0041686Y0108050D02*
X0041686Y0105350D01*
X0043828Y0106475D02*
X0044653Y0106925D01*
X0044353Y0108050D02*
X0044287Y0108048D01*
X0044222Y0108042D01*
X0044157Y0108033D01*
X0044092Y0108019D01*
X0044029Y0108002D01*
X0043966Y0107981D01*
X0043905Y0107957D01*
X0043846Y0107929D01*
X0043788Y0107898D01*
X0043732Y0107863D01*
X0043678Y0107825D01*
X0044653Y0106925D02*
X0044694Y0106952D01*
X0044733Y0106981D01*
X0044769Y0107014D01*
X0044802Y0107049D01*
X0044833Y0107087D01*
X0044860Y0107127D01*
X0044884Y0107169D01*
X0044905Y0107213D01*
X0044922Y0107259D01*
X0044936Y0107305D01*
X0044945Y0107353D01*
X0044951Y0107401D01*
X0044953Y0107450D01*
X0044951Y0107497D01*
X0044946Y0107544D01*
X0044936Y0107590D01*
X0044924Y0107635D01*
X0044907Y0107680D01*
X0044888Y0107722D01*
X0044865Y0107763D01*
X0044838Y0107803D01*
X0044809Y0107840D01*
X0044777Y0107874D01*
X0044743Y0107906D01*
X0044706Y0107935D01*
X0044666Y0107962D01*
X0044625Y0107985D01*
X0044583Y0108004D01*
X0044538Y0108021D01*
X0044493Y0108033D01*
X0044447Y0108043D01*
X0044400Y0108048D01*
X0044353Y0108050D01*
X0045028Y0105725D02*
X0044979Y0105679D01*
X0044929Y0105635D01*
X0044876Y0105594D01*
X0044821Y0105557D01*
X0044765Y0105522D01*
X0044706Y0105490D01*
X0044646Y0105461D01*
X0044584Y0105435D01*
X0044522Y0105413D01*
X0044458Y0105394D01*
X0044393Y0105378D01*
X0044327Y0105366D01*
X0044261Y0105357D01*
X0044195Y0105352D01*
X0044128Y0105350D01*
X0044081Y0105352D01*
X0044034Y0105357D01*
X0043988Y0105367D01*
X0043943Y0105379D01*
X0043898Y0105396D01*
X0043856Y0105415D01*
X0043815Y0105438D01*
X0043775Y0105465D01*
X0043738Y0105494D01*
X0043704Y0105526D01*
X0043672Y0105560D01*
X0043643Y0105597D01*
X0043616Y0105637D01*
X0043593Y0105678D01*
X0043574Y0105720D01*
X0043557Y0105765D01*
X0043545Y0105810D01*
X0043535Y0105856D01*
X0043530Y0105903D01*
X0043528Y0105950D01*
X0043530Y0105999D01*
X0043536Y0106047D01*
X0043545Y0106095D01*
X0043559Y0106141D01*
X0043576Y0106187D01*
X0043597Y0106231D01*
X0043621Y0106273D01*
X0043648Y0106313D01*
X0043679Y0106351D01*
X0043712Y0106386D01*
X0043748Y0106419D01*
X0043787Y0106448D01*
X0043828Y0106475D01*
X0046285Y0105350D02*
X0046885Y0106550D01*
X0047035Y0106550D02*
X0047785Y0106550D01*
X0047035Y0106550D02*
X0046981Y0106552D01*
X0046928Y0106558D01*
X0046876Y0106567D01*
X0046824Y0106580D01*
X0046773Y0106597D01*
X0046723Y0106618D01*
X0046676Y0106642D01*
X0046630Y0106669D01*
X0046586Y0106700D01*
X0046544Y0106733D01*
X0046505Y0106770D01*
X0046468Y0106809D01*
X0046435Y0106851D01*
X0046404Y0106895D01*
X0046377Y0106941D01*
X0046353Y0106988D01*
X0046332Y0107038D01*
X0046315Y0107089D01*
X0046302Y0107141D01*
X0046293Y0107193D01*
X0046287Y0107246D01*
X0046285Y0107300D01*
X0046287Y0107354D01*
X0046293Y0107407D01*
X0046302Y0107459D01*
X0046315Y0107511D01*
X0046332Y0107562D01*
X0046353Y0107612D01*
X0046377Y0107659D01*
X0046404Y0107705D01*
X0046435Y0107749D01*
X0046468Y0107791D01*
X0046505Y0107830D01*
X0046544Y0107867D01*
X0046586Y0107900D01*
X0046630Y0107931D01*
X0046676Y0107958D01*
X0046723Y0107982D01*
X0046773Y0108003D01*
X0046824Y0108020D01*
X0046876Y0108033D01*
X0046928Y0108042D01*
X0046981Y0108048D01*
X0047035Y0108050D01*
X0047785Y0108050D01*
X0047785Y0105350D01*
X0050350Y0105050D02*
X0049150Y0108350D01*
X0049150Y0110350D02*
X0049750Y0110350D01*
X0049797Y0110352D01*
X0049844Y0110357D01*
X0049890Y0110367D01*
X0049935Y0110379D01*
X0049980Y0110396D01*
X0050022Y0110415D01*
X0050063Y0110438D01*
X0050103Y0110465D01*
X0050140Y0110494D01*
X0050174Y0110526D01*
X0050206Y0110560D01*
X0050235Y0110597D01*
X0050262Y0110637D01*
X0050285Y0110678D01*
X0050304Y0110720D01*
X0050321Y0110765D01*
X0050333Y0110810D01*
X0050343Y0110856D01*
X0050348Y0110903D01*
X0050350Y0110950D01*
X0050350Y0112450D01*
X0050348Y0112497D01*
X0050343Y0112544D01*
X0050333Y0112590D01*
X0050321Y0112635D01*
X0050304Y0112680D01*
X0050285Y0112722D01*
X0050262Y0112763D01*
X0050235Y0112803D01*
X0050206Y0112840D01*
X0050174Y0112874D01*
X0050140Y0112906D01*
X0050103Y0112935D01*
X0050063Y0112962D01*
X0050022Y0112985D01*
X0049980Y0113004D01*
X0049935Y0113021D01*
X0049890Y0113033D01*
X0049844Y0113043D01*
X0049797Y0113048D01*
X0049750Y0113050D01*
X0049150Y0113050D01*
X0048130Y0113050D02*
X0046630Y0113050D01*
X0047380Y0113050D02*
X0047380Y0110350D01*
X0045318Y0110350D02*
X0045318Y0113050D01*
X0044568Y0113050D01*
X0044514Y0113048D01*
X0044461Y0113042D01*
X0044409Y0113033D01*
X0044357Y0113020D01*
X0044306Y0113003D01*
X0044256Y0112982D01*
X0044209Y0112958D01*
X0044163Y0112931D01*
X0044119Y0112900D01*
X0044077Y0112867D01*
X0044038Y0112830D01*
X0044001Y0112791D01*
X0043968Y0112749D01*
X0043937Y0112705D01*
X0043910Y0112659D01*
X0043886Y0112612D01*
X0043865Y0112562D01*
X0043848Y0112511D01*
X0043835Y0112459D01*
X0043826Y0112407D01*
X0043820Y0112354D01*
X0043818Y0112300D01*
X0043820Y0112246D01*
X0043826Y0112193D01*
X0043835Y0112141D01*
X0043848Y0112089D01*
X0043865Y0112038D01*
X0043886Y0111988D01*
X0043910Y0111941D01*
X0043937Y0111895D01*
X0043968Y0111851D01*
X0044001Y0111809D01*
X0044038Y0111770D01*
X0044077Y0111733D01*
X0044119Y0111700D01*
X0044163Y0111669D01*
X0044209Y0111642D01*
X0044256Y0111618D01*
X0044306Y0111597D01*
X0044357Y0111580D01*
X0044409Y0111567D01*
X0044461Y0111558D01*
X0044514Y0111552D01*
X0044568Y0111550D01*
X0045318Y0111550D01*
X0044418Y0111550D02*
X0043818Y0110350D01*
X0042361Y0110350D02*
X0041161Y0110350D01*
X0042361Y0110350D02*
X0042361Y0113050D01*
M02*
