%
M48
M72
T01C0.0157
T02C0.0236
%
T01
X1010Y12110
X2160Y11960
X2660Y11460
X1010Y11360
X1010Y10610
X1010Y9110
X1010Y9860
X660Y6960
X1160Y5960
X1410Y7710
X2660Y5460
X3160Y4960
X3160Y12460
X1660Y13710
T02
X4400Y4930
X5010Y4930
X4400Y11910
X5020Y11900
X5020Y13160
X4400Y13160
X4560Y9660
X4570Y7660
X4560Y10160
X4570Y9160
X4570Y8660
X4570Y8160
X4570Y7160
X4570Y6660
X4570Y6160
M30
