G75*
%MOIN*%
%OFA0B0*%
%FSLAX25Y25*%
%IPPOS*%
%LPD*%
%AMOC8*
5,1,8,0,0,1.08239X$1,22.5*
%
%ADD10C,0.00000*%
%ADD11C,0.03762*%
%ADD12C,0.01200*%
%ADD13C,0.02975*%
D10*
X0006600Y0044600D02*
X0051600Y0044600D01*
X0053600Y0046600D01*
X0053600Y0053600D01*
X0049600Y0057600D01*
X0049600Y0103100D01*
X0053600Y0107100D01*
X0053600Y0146100D01*
X0051600Y0148100D01*
X0010100Y0148100D01*
X0001600Y0139600D01*
X0001600Y0049600D01*
X0006600Y0044600D01*
D11*
X0044000Y0049300D03*
X0050100Y0049300D03*
X0045700Y0061600D03*
X0045700Y0066600D03*
X0045700Y0071600D03*
X0045700Y0076600D03*
X0045700Y0081600D03*
X0045700Y0086600D03*
X0045700Y0091600D03*
X0045600Y0096600D03*
X0045600Y0101600D03*
X0044000Y0119100D03*
X0050200Y0119000D03*
X0050200Y0131600D03*
X0044000Y0131600D03*
D12*
X0036600Y0131436D02*
X0003700Y0131436D01*
X0003700Y0130238D02*
X0036600Y0130238D01*
X0036600Y0129039D02*
X0003700Y0129039D01*
X0003700Y0127841D02*
X0036600Y0127841D01*
X0036600Y0126642D02*
X0003700Y0126642D01*
X0003700Y0125444D02*
X0036600Y0125444D01*
X0036600Y0124245D02*
X0003700Y0124245D01*
X0003700Y0123047D02*
X0036600Y0123047D01*
X0036600Y0121848D02*
X0003700Y0121848D01*
X0003700Y0120650D02*
X0036600Y0120650D01*
X0036600Y0119451D02*
X0003700Y0119451D01*
X0003700Y0118253D02*
X0036600Y0118253D01*
X0036600Y0117054D02*
X0003700Y0117054D01*
X0003700Y0115856D02*
X0036600Y0115856D01*
X0036600Y0114657D02*
X0003700Y0114657D01*
X0003700Y0113459D02*
X0036600Y0113459D01*
X0036600Y0112260D02*
X0003700Y0112260D01*
X0003700Y0111062D02*
X0036600Y0111062D01*
X0036600Y0109863D02*
X0003700Y0109863D01*
X0003700Y0108665D02*
X0036600Y0108665D01*
X0036600Y0107466D02*
X0003700Y0107466D01*
X0003700Y0106268D02*
X0036600Y0106268D01*
X0036600Y0105069D02*
X0003700Y0105069D01*
X0003700Y0103870D02*
X0036600Y0103870D01*
X0036600Y0102672D02*
X0003700Y0102672D01*
X0003700Y0101473D02*
X0036600Y0101473D01*
X0036600Y0100275D02*
X0003700Y0100275D01*
X0003700Y0099076D02*
X0036600Y0099076D01*
X0036600Y0097878D02*
X0003700Y0097878D01*
X0003700Y0096679D02*
X0036600Y0096679D01*
X0036600Y0095481D02*
X0003700Y0095481D01*
X0003700Y0094282D02*
X0036600Y0094282D01*
X0036600Y0093084D02*
X0003700Y0093084D01*
X0003700Y0091885D02*
X0036600Y0091885D01*
X0036600Y0090687D02*
X0003700Y0090687D01*
X0003700Y0089488D02*
X0036600Y0089488D01*
X0036600Y0088290D02*
X0003700Y0088290D01*
X0003700Y0087091D02*
X0036600Y0087091D01*
X0036600Y0085893D02*
X0003700Y0085893D01*
X0003700Y0084694D02*
X0036600Y0084694D01*
X0036600Y0083496D02*
X0003700Y0083496D01*
X0003700Y0082297D02*
X0036600Y0082297D01*
X0036600Y0081099D02*
X0003700Y0081099D01*
X0003700Y0079900D02*
X0036600Y0079900D01*
X0036600Y0078702D02*
X0003700Y0078702D01*
X0003700Y0077503D02*
X0036600Y0077503D01*
X0036600Y0076305D02*
X0003700Y0076305D01*
X0003700Y0075106D02*
X0036600Y0075106D01*
X0036600Y0073908D02*
X0003700Y0073908D01*
X0003700Y0072709D02*
X0036600Y0072709D01*
X0036600Y0071511D02*
X0003700Y0071511D01*
X0003700Y0070312D02*
X0036600Y0070312D01*
X0036600Y0069114D02*
X0003700Y0069114D01*
X0003700Y0067915D02*
X0036600Y0067915D01*
X0036600Y0066717D02*
X0003700Y0066717D01*
X0003700Y0065518D02*
X0036600Y0065518D01*
X0036600Y0064320D02*
X0003700Y0064320D01*
X0003700Y0063121D02*
X0036600Y0063121D01*
X0036600Y0061923D02*
X0003700Y0061923D01*
X0003700Y0060724D02*
X0036600Y0060724D01*
X0036600Y0059526D02*
X0003700Y0059526D01*
X0003700Y0058327D02*
X0036600Y0058327D01*
X0036600Y0057129D02*
X0003700Y0057129D01*
X0003700Y0055930D02*
X0036600Y0055930D01*
X0036600Y0054732D02*
X0003700Y0054732D01*
X0003700Y0053533D02*
X0036600Y0053533D01*
X0036600Y0052334D02*
X0003700Y0052334D01*
X0003700Y0051136D02*
X0036600Y0051136D01*
X0036600Y0049937D02*
X0004232Y0049937D01*
X0003700Y0050470D02*
X0007470Y0046700D01*
X0036600Y0046700D01*
X0036600Y0146000D01*
X0010970Y0146000D01*
X0003700Y0138730D01*
X0003700Y0050470D01*
X0005431Y0048739D02*
X0036600Y0048739D01*
X0036600Y0047540D02*
X0006629Y0047540D01*
X0003700Y0132635D02*
X0036600Y0132635D01*
X0036600Y0133833D02*
X0003700Y0133833D01*
X0003700Y0135032D02*
X0036600Y0135032D01*
X0036600Y0136230D02*
X0003700Y0136230D01*
X0003700Y0137429D02*
X0036600Y0137429D01*
X0036600Y0138627D02*
X0003700Y0138627D01*
X0004796Y0139826D02*
X0036600Y0139826D01*
X0036600Y0141024D02*
X0005994Y0141024D01*
X0007193Y0142223D02*
X0036600Y0142223D01*
X0036600Y0143421D02*
X0008391Y0143421D01*
X0009590Y0144620D02*
X0036600Y0144620D01*
X0036600Y0145818D02*
X0010788Y0145818D01*
D13*
X0016600Y0137100D03*
X0031600Y0124600D03*
X0021600Y0119600D03*
X0026600Y0114600D03*
X0010100Y0113600D03*
X0010100Y0106100D03*
X0010100Y0098600D03*
X0010100Y0091100D03*
X0014100Y0077100D03*
X0006600Y0069600D03*
X0011600Y0059600D03*
X0026600Y0054600D03*
X0031600Y0049600D03*
X0010100Y0121100D03*
M02*
