G75*
%MOIN*%
%OFA0B0*%
%FSLAX25Y25*%
%IPPOS*%
%LPD*%
%AMOC8*
5,1,8,0,0,1.08239X$1,22.5*
%
%ADD10C,0.00000*%
%ADD11R,0.10600X0.05600*%
%ADD12R,0.05512X0.01575*%
%ADD13R,0.12205X0.10236*%
%ADD14R,0.06899X0.03750*%
%ADD15C,0.04362*%
D10*
X0006600Y0044600D02*
X0051600Y0044600D01*
X0053600Y0046600D01*
X0053600Y0053600D01*
X0049600Y0057600D01*
X0049600Y0103100D01*
X0053600Y0107100D01*
X0053600Y0146100D01*
X0051600Y0148100D01*
X0010100Y0148100D01*
X0001600Y0139600D01*
X0001600Y0049600D01*
X0006600Y0044600D01*
D11*
X0012600Y0048600D03*
X0044600Y0144100D03*
D12*
X0016105Y0127238D03*
X0016105Y0125269D03*
X0016105Y0123301D03*
X0016105Y0121332D03*
X0016105Y0119364D03*
X0016105Y0117395D03*
X0016105Y0115427D03*
X0016105Y0113458D03*
X0016105Y0111490D03*
X0016105Y0109521D03*
X0016105Y0107553D03*
X0016105Y0105584D03*
X0016105Y0103616D03*
X0016105Y0101647D03*
X0016105Y0099679D03*
X0016105Y0097710D03*
X0016105Y0095742D03*
X0016105Y0093773D03*
X0016105Y0091805D03*
X0016105Y0089836D03*
X0016105Y0087868D03*
X0016105Y0085899D03*
X0016105Y0083931D03*
X0016105Y0081962D03*
D13*
X0029491Y0074324D03*
X0029491Y0134876D03*
D14*
X0045600Y0111600D03*
X0045600Y0106600D03*
D15*
X0045600Y0101600D03*
X0045600Y0096600D03*
X0045700Y0091600D03*
X0045700Y0086600D03*
X0045700Y0081600D03*
X0045700Y0076600D03*
X0045700Y0071600D03*
X0045700Y0066600D03*
X0045700Y0061600D03*
X0044000Y0049300D03*
X0050100Y0049300D03*
X0050200Y0119000D03*
X0044000Y0119100D03*
X0044000Y0131600D03*
X0050200Y0131600D03*
M02*
