G75*
%MOIN*%
%OFA0B0*%
%FSLAX25Y25*%
%IPPOS*%
%LPD*%
%AMOC8*
5,1,8,0,0,1.08239X$1,22.5*
%
%ADD10C,0.00600*%
%ADD11C,0.00000*%
%ADD12C,0.00800*%
D10*
X0008656Y0052900D02*
X0009789Y0052900D01*
X0009789Y0054789D01*
X0009222Y0054789D01*
X0007900Y0055544D02*
X0007902Y0055598D01*
X0007908Y0055652D01*
X0007917Y0055705D01*
X0007931Y0055757D01*
X0007948Y0055808D01*
X0007968Y0055858D01*
X0007992Y0055906D01*
X0008020Y0055953D01*
X0008051Y0055997D01*
X0008085Y0056039D01*
X0008121Y0056079D01*
X0008161Y0056115D01*
X0008203Y0056149D01*
X0008247Y0056180D01*
X0008294Y0056208D01*
X0008342Y0056232D01*
X0008392Y0056252D01*
X0008443Y0056269D01*
X0008495Y0056283D01*
X0008548Y0056292D01*
X0008602Y0056298D01*
X0008656Y0056300D01*
X0009789Y0056300D01*
X0011740Y0056300D02*
X0013629Y0052900D01*
X0013629Y0056300D01*
X0011740Y0056300D02*
X0011740Y0052900D01*
X0008656Y0052900D02*
X0008602Y0052902D01*
X0008548Y0052908D01*
X0008495Y0052917D01*
X0008443Y0052931D01*
X0008392Y0052948D01*
X0008342Y0052968D01*
X0008294Y0052992D01*
X0008247Y0053020D01*
X0008203Y0053051D01*
X0008161Y0053085D01*
X0008121Y0053121D01*
X0008085Y0053161D01*
X0008051Y0053203D01*
X0008020Y0053247D01*
X0007992Y0053294D01*
X0007968Y0053342D01*
X0007948Y0053392D01*
X0007931Y0053443D01*
X0007917Y0053495D01*
X0007908Y0053548D01*
X0007902Y0053602D01*
X0007900Y0053656D01*
X0007900Y0055544D01*
X0015580Y0056300D02*
X0015580Y0052900D01*
X0016524Y0052900D01*
X0016583Y0052902D01*
X0016642Y0052907D01*
X0016701Y0052917D01*
X0016759Y0052930D01*
X0016816Y0052946D01*
X0016872Y0052966D01*
X0016926Y0052990D01*
X0016979Y0053017D01*
X0017030Y0053047D01*
X0017079Y0053080D01*
X0017126Y0053117D01*
X0017170Y0053156D01*
X0017212Y0053198D01*
X0017251Y0053242D01*
X0017288Y0053289D01*
X0017321Y0053338D01*
X0017351Y0053389D01*
X0017378Y0053442D01*
X0017402Y0053496D01*
X0017422Y0053552D01*
X0017438Y0053609D01*
X0017451Y0053667D01*
X0017461Y0053726D01*
X0017466Y0053785D01*
X0017468Y0053844D01*
X0017469Y0053844D02*
X0017469Y0055356D01*
X0017468Y0055356D02*
X0017466Y0055415D01*
X0017461Y0055474D01*
X0017451Y0055533D01*
X0017438Y0055591D01*
X0017422Y0055648D01*
X0017402Y0055704D01*
X0017378Y0055758D01*
X0017351Y0055811D01*
X0017321Y0055862D01*
X0017288Y0055911D01*
X0017251Y0055958D01*
X0017212Y0056002D01*
X0017170Y0056044D01*
X0017126Y0056083D01*
X0017079Y0056120D01*
X0017030Y0056153D01*
X0016979Y0056183D01*
X0016926Y0056210D01*
X0016872Y0056234D01*
X0016816Y0056254D01*
X0016759Y0056270D01*
X0016701Y0056283D01*
X0016642Y0056293D01*
X0016583Y0056298D01*
X0016524Y0056300D01*
X0015580Y0056300D01*
X0028400Y0082946D02*
X0028400Y0084457D01*
X0029911Y0084457D02*
X0029911Y0082946D01*
X0030100Y0080515D02*
X0030213Y0080517D01*
X0030325Y0080523D01*
X0030438Y0080533D01*
X0030550Y0080546D01*
X0030661Y0080564D01*
X0030772Y0080586D01*
X0030882Y0080611D01*
X0030991Y0080640D01*
X0031099Y0080673D01*
X0031206Y0080710D01*
X0031311Y0080750D01*
X0031415Y0080794D01*
X0031517Y0080842D01*
X0031618Y0080893D01*
X0031716Y0080948D01*
X0031813Y0081006D01*
X0031908Y0081067D01*
X0032000Y0081132D01*
X0032090Y0081200D01*
X0032178Y0081271D01*
X0031800Y0082946D02*
X0028400Y0082946D01*
X0028022Y0081271D02*
X0028110Y0081200D01*
X0028200Y0081132D01*
X0028292Y0081067D01*
X0028387Y0081006D01*
X0028484Y0080948D01*
X0028582Y0080893D01*
X0028683Y0080842D01*
X0028785Y0080794D01*
X0028889Y0080750D01*
X0028994Y0080710D01*
X0029101Y0080673D01*
X0029209Y0080640D01*
X0029318Y0080611D01*
X0029428Y0080586D01*
X0029539Y0080564D01*
X0029650Y0080546D01*
X0029762Y0080533D01*
X0029875Y0080523D01*
X0029987Y0080517D01*
X0030100Y0080515D01*
X0030289Y0086132D02*
X0030289Y0087077D01*
X0030288Y0087077D02*
X0030286Y0087137D01*
X0030280Y0087198D01*
X0030271Y0087257D01*
X0030257Y0087316D01*
X0030240Y0087374D01*
X0030219Y0087431D01*
X0030195Y0087487D01*
X0030167Y0087540D01*
X0030135Y0087592D01*
X0030101Y0087642D01*
X0030063Y0087689D01*
X0030022Y0087734D01*
X0029979Y0087776D01*
X0029933Y0087815D01*
X0029884Y0087851D01*
X0029833Y0087884D01*
X0029781Y0087914D01*
X0029726Y0087940D01*
X0029670Y0087963D01*
X0029613Y0087982D01*
X0029554Y0087997D01*
X0029495Y0088009D01*
X0029435Y0088017D01*
X0029374Y0088021D01*
X0029314Y0088021D01*
X0029253Y0088017D01*
X0029193Y0088009D01*
X0029134Y0087997D01*
X0029075Y0087982D01*
X0029018Y0087963D01*
X0028962Y0087940D01*
X0028907Y0087914D01*
X0028855Y0087884D01*
X0028804Y0087851D01*
X0028755Y0087815D01*
X0028709Y0087776D01*
X0028666Y0087734D01*
X0028625Y0087689D01*
X0028587Y0087642D01*
X0028553Y0087592D01*
X0028521Y0087540D01*
X0028493Y0087487D01*
X0028469Y0087431D01*
X0028448Y0087374D01*
X0028431Y0087316D01*
X0028417Y0087257D01*
X0028408Y0087198D01*
X0028402Y0087137D01*
X0028400Y0087077D01*
X0028400Y0086132D01*
X0031800Y0086132D01*
X0031044Y0089521D02*
X0029156Y0089521D01*
X0029156Y0089520D02*
X0029102Y0089522D01*
X0029048Y0089528D01*
X0028995Y0089537D01*
X0028943Y0089551D01*
X0028892Y0089568D01*
X0028842Y0089588D01*
X0028794Y0089612D01*
X0028747Y0089640D01*
X0028703Y0089671D01*
X0028661Y0089705D01*
X0028621Y0089741D01*
X0028585Y0089781D01*
X0028551Y0089823D01*
X0028520Y0089867D01*
X0028492Y0089914D01*
X0028468Y0089962D01*
X0028448Y0090012D01*
X0028431Y0090063D01*
X0028417Y0090115D01*
X0028408Y0090168D01*
X0028402Y0090222D01*
X0028400Y0090276D01*
X0028400Y0091032D01*
X0031044Y0089520D02*
X0031098Y0089522D01*
X0031152Y0089528D01*
X0031205Y0089537D01*
X0031257Y0089551D01*
X0031308Y0089568D01*
X0031358Y0089588D01*
X0031406Y0089612D01*
X0031453Y0089640D01*
X0031497Y0089671D01*
X0031539Y0089705D01*
X0031579Y0089741D01*
X0031615Y0089781D01*
X0031649Y0089823D01*
X0031680Y0089867D01*
X0031708Y0089914D01*
X0031732Y0089962D01*
X0031752Y0090012D01*
X0031769Y0090063D01*
X0031783Y0090115D01*
X0031792Y0090168D01*
X0031798Y0090222D01*
X0031800Y0090276D01*
X0031800Y0091032D01*
X0029533Y0094877D02*
X0029536Y0094964D01*
X0029543Y0095052D01*
X0029553Y0095139D01*
X0029567Y0095225D01*
X0029584Y0095311D01*
X0029605Y0095396D01*
X0029629Y0095481D01*
X0029657Y0095564D01*
X0029688Y0095646D01*
X0029722Y0095727D01*
X0029533Y0094877D02*
X0029534Y0094833D01*
X0029540Y0094790D01*
X0029549Y0094747D01*
X0029562Y0094705D01*
X0029578Y0094664D01*
X0029598Y0094625D01*
X0029622Y0094588D01*
X0029649Y0094554D01*
X0029679Y0094521D01*
X0029711Y0094492D01*
X0029746Y0094466D01*
X0029783Y0094443D01*
X0029823Y0094423D01*
X0029863Y0094407D01*
X0029905Y0094394D01*
X0029948Y0094386D01*
X0029992Y0094381D01*
X0030036Y0094380D01*
X0030080Y0094383D01*
X0030123Y0094390D01*
X0030165Y0094401D01*
X0030207Y0094416D01*
X0030247Y0094434D01*
X0030285Y0094456D01*
X0030321Y0094481D01*
X0030354Y0094509D01*
X0030385Y0094540D01*
X0030413Y0094574D01*
X0030438Y0094610D01*
X0030460Y0094648D01*
X0030478Y0094688D01*
X0030856Y0095632D01*
X0030855Y0095632D02*
X0030873Y0095672D01*
X0030895Y0095710D01*
X0030920Y0095746D01*
X0030948Y0095780D01*
X0030979Y0095811D01*
X0031012Y0095839D01*
X0031048Y0095864D01*
X0031086Y0095886D01*
X0031126Y0095904D01*
X0031168Y0095919D01*
X0031210Y0095930D01*
X0031253Y0095937D01*
X0031297Y0095940D01*
X0031341Y0095939D01*
X0031384Y0095934D01*
X0031428Y0095926D01*
X0031470Y0095913D01*
X0031510Y0095897D01*
X0031550Y0095877D01*
X0031587Y0095854D01*
X0031622Y0095828D01*
X0031654Y0095799D01*
X0031684Y0095766D01*
X0031711Y0095732D01*
X0031735Y0095695D01*
X0031755Y0095656D01*
X0031771Y0095615D01*
X0031784Y0095573D01*
X0031793Y0095530D01*
X0031799Y0095487D01*
X0031800Y0095443D01*
X0029533Y0097687D02*
X0029533Y0098442D01*
X0029535Y0098489D01*
X0029541Y0098535D01*
X0029550Y0098581D01*
X0029564Y0098626D01*
X0029581Y0098670D01*
X0029601Y0098712D01*
X0029625Y0098752D01*
X0029653Y0098790D01*
X0029683Y0098826D01*
X0029716Y0098859D01*
X0029752Y0098889D01*
X0029790Y0098917D01*
X0029830Y0098941D01*
X0029872Y0098961D01*
X0029916Y0098978D01*
X0029961Y0098992D01*
X0030007Y0099001D01*
X0030053Y0099007D01*
X0030100Y0099009D01*
X0031800Y0099009D01*
X0031800Y0098159D01*
X0031798Y0098108D01*
X0031792Y0098058D01*
X0031783Y0098008D01*
X0031769Y0097960D01*
X0031752Y0097912D01*
X0031731Y0097866D01*
X0031707Y0097821D01*
X0031680Y0097779D01*
X0031649Y0097738D01*
X0031615Y0097701D01*
X0031579Y0097666D01*
X0031540Y0097633D01*
X0031498Y0097604D01*
X0031455Y0097578D01*
X0031409Y0097556D01*
X0031362Y0097537D01*
X0031314Y0097522D01*
X0031265Y0097510D01*
X0031215Y0097502D01*
X0031164Y0097498D01*
X0031114Y0097498D01*
X0031063Y0097502D01*
X0031013Y0097510D01*
X0030964Y0097522D01*
X0030916Y0097537D01*
X0030869Y0097556D01*
X0030823Y0097578D01*
X0030780Y0097604D01*
X0030738Y0097633D01*
X0030699Y0097666D01*
X0030663Y0097701D01*
X0030629Y0097738D01*
X0030598Y0097779D01*
X0030571Y0097821D01*
X0030547Y0097866D01*
X0030526Y0097912D01*
X0030509Y0097960D01*
X0030495Y0098008D01*
X0030486Y0098058D01*
X0030480Y0098108D01*
X0030478Y0098159D01*
X0030478Y0099009D01*
X0029533Y0100987D02*
X0029533Y0102687D01*
X0029535Y0102734D01*
X0029541Y0102780D01*
X0029550Y0102826D01*
X0029564Y0102871D01*
X0029581Y0102915D01*
X0029601Y0102957D01*
X0029625Y0102997D01*
X0029653Y0103035D01*
X0029683Y0103071D01*
X0029716Y0103104D01*
X0029752Y0103134D01*
X0029790Y0103162D01*
X0029830Y0103186D01*
X0029872Y0103206D01*
X0029916Y0103223D01*
X0029961Y0103237D01*
X0030007Y0103246D01*
X0030053Y0103252D01*
X0030100Y0103254D01*
X0030100Y0103253D02*
X0031800Y0103253D01*
X0031800Y0102120D02*
X0029533Y0102120D01*
X0029533Y0100987D02*
X0031800Y0100987D01*
X0025800Y0101233D02*
X0025800Y0102177D01*
X0023533Y0102177D01*
X0023533Y0103573D02*
X0023533Y0104706D01*
X0022400Y0103951D02*
X0025233Y0103951D01*
X0025280Y0103953D01*
X0025326Y0103959D01*
X0025372Y0103968D01*
X0025417Y0103982D01*
X0025461Y0103999D01*
X0025503Y0104019D01*
X0025543Y0104043D01*
X0025581Y0104071D01*
X0025617Y0104101D01*
X0025650Y0104134D01*
X0025680Y0104170D01*
X0025708Y0104208D01*
X0025732Y0104248D01*
X0025752Y0104290D01*
X0025769Y0104334D01*
X0025783Y0104379D01*
X0025792Y0104425D01*
X0025798Y0104471D01*
X0025800Y0104518D01*
X0025800Y0104706D01*
X0025800Y0101233D02*
X0025798Y0101186D01*
X0025792Y0101140D01*
X0025783Y0101094D01*
X0025769Y0101049D01*
X0025752Y0101005D01*
X0025732Y0100963D01*
X0025708Y0100923D01*
X0025680Y0100885D01*
X0025650Y0100849D01*
X0025617Y0100816D01*
X0025581Y0100786D01*
X0025543Y0100758D01*
X0025503Y0100734D01*
X0025461Y0100714D01*
X0025417Y0100697D01*
X0025372Y0100683D01*
X0025326Y0100674D01*
X0025280Y0100668D01*
X0025233Y0100666D01*
X0023533Y0100666D01*
X0024289Y0098937D02*
X0025044Y0098937D01*
X0025044Y0098938D02*
X0025098Y0098936D01*
X0025152Y0098930D01*
X0025205Y0098921D01*
X0025257Y0098907D01*
X0025308Y0098890D01*
X0025358Y0098870D01*
X0025406Y0098846D01*
X0025453Y0098818D01*
X0025497Y0098787D01*
X0025539Y0098753D01*
X0025579Y0098717D01*
X0025615Y0098677D01*
X0025649Y0098635D01*
X0025680Y0098591D01*
X0025708Y0098544D01*
X0025732Y0098496D01*
X0025752Y0098446D01*
X0025769Y0098395D01*
X0025783Y0098343D01*
X0025792Y0098290D01*
X0025798Y0098236D01*
X0025800Y0098182D01*
X0025798Y0098128D01*
X0025792Y0098074D01*
X0025783Y0098021D01*
X0025769Y0097969D01*
X0025752Y0097918D01*
X0025732Y0097868D01*
X0025708Y0097820D01*
X0025680Y0097773D01*
X0025649Y0097729D01*
X0025615Y0097687D01*
X0025579Y0097647D01*
X0025539Y0097611D01*
X0025497Y0097577D01*
X0025453Y0097546D01*
X0025406Y0097518D01*
X0025358Y0097494D01*
X0025308Y0097474D01*
X0025257Y0097457D01*
X0025205Y0097443D01*
X0025152Y0097434D01*
X0025098Y0097428D01*
X0025044Y0097426D01*
X0024289Y0097426D01*
X0024235Y0097428D01*
X0024181Y0097434D01*
X0024128Y0097443D01*
X0024076Y0097457D01*
X0024025Y0097474D01*
X0023975Y0097494D01*
X0023927Y0097518D01*
X0023880Y0097546D01*
X0023836Y0097577D01*
X0023794Y0097611D01*
X0023754Y0097647D01*
X0023718Y0097687D01*
X0023684Y0097729D01*
X0023653Y0097773D01*
X0023625Y0097820D01*
X0023601Y0097868D01*
X0023581Y0097918D01*
X0023564Y0097969D01*
X0023550Y0098021D01*
X0023541Y0098074D01*
X0023535Y0098128D01*
X0023533Y0098182D01*
X0023535Y0098236D01*
X0023541Y0098290D01*
X0023550Y0098343D01*
X0023564Y0098395D01*
X0023581Y0098446D01*
X0023601Y0098496D01*
X0023625Y0098544D01*
X0023653Y0098591D01*
X0023684Y0098635D01*
X0023718Y0098677D01*
X0023754Y0098717D01*
X0023794Y0098753D01*
X0023836Y0098787D01*
X0023880Y0098818D01*
X0023927Y0098846D01*
X0023975Y0098870D01*
X0024025Y0098890D01*
X0024076Y0098907D01*
X0024128Y0098921D01*
X0024181Y0098930D01*
X0024235Y0098936D01*
X0024289Y0098938D01*
X0024100Y0095697D02*
X0025800Y0095697D01*
X0025800Y0094186D02*
X0023533Y0094186D01*
X0023533Y0095131D01*
X0023535Y0095178D01*
X0023541Y0095224D01*
X0023550Y0095270D01*
X0023564Y0095315D01*
X0023581Y0095359D01*
X0023601Y0095401D01*
X0023625Y0095441D01*
X0023653Y0095479D01*
X0023683Y0095515D01*
X0023716Y0095548D01*
X0023752Y0095578D01*
X0023790Y0095606D01*
X0023830Y0095630D01*
X0023872Y0095650D01*
X0023916Y0095667D01*
X0023961Y0095681D01*
X0024007Y0095690D01*
X0024053Y0095696D01*
X0024100Y0095698D01*
X0031612Y0094404D02*
X0031646Y0094505D01*
X0031677Y0094606D01*
X0031704Y0094709D01*
X0031729Y0094812D01*
X0031749Y0094916D01*
X0031767Y0095021D01*
X0031780Y0095126D01*
X0031791Y0095231D01*
X0031797Y0095337D01*
X0031801Y0095443D01*
X0025800Y0092542D02*
X0023533Y0092542D01*
X0022589Y0092636D02*
X0022589Y0092447D01*
X0022400Y0092447D01*
X0022400Y0092636D01*
X0022589Y0092636D01*
X0022400Y0090218D02*
X0022400Y0089274D01*
X0025800Y0089274D01*
X0024289Y0089274D02*
X0024289Y0090218D01*
X0024288Y0090218D02*
X0024286Y0090278D01*
X0024280Y0090339D01*
X0024271Y0090398D01*
X0024257Y0090457D01*
X0024240Y0090515D01*
X0024219Y0090572D01*
X0024195Y0090628D01*
X0024167Y0090681D01*
X0024135Y0090733D01*
X0024101Y0090783D01*
X0024063Y0090830D01*
X0024022Y0090875D01*
X0023979Y0090917D01*
X0023933Y0090956D01*
X0023884Y0090992D01*
X0023833Y0091025D01*
X0023781Y0091055D01*
X0023726Y0091081D01*
X0023670Y0091104D01*
X0023613Y0091123D01*
X0023554Y0091138D01*
X0023495Y0091150D01*
X0023435Y0091158D01*
X0023374Y0091162D01*
X0023314Y0091162D01*
X0023253Y0091158D01*
X0023193Y0091150D01*
X0023134Y0091138D01*
X0023075Y0091123D01*
X0023018Y0091104D01*
X0022962Y0091081D01*
X0022907Y0091055D01*
X0022855Y0091025D01*
X0022804Y0090992D01*
X0022755Y0090956D01*
X0022709Y0090917D01*
X0022666Y0090875D01*
X0022625Y0090830D01*
X0022587Y0090783D01*
X0022553Y0090733D01*
X0022521Y0090681D01*
X0022493Y0090628D01*
X0022469Y0090572D01*
X0022448Y0090515D01*
X0022431Y0090457D01*
X0022417Y0090398D01*
X0022408Y0090339D01*
X0022402Y0090278D01*
X0022400Y0090218D01*
X0030289Y0105084D02*
X0031233Y0105084D01*
X0030667Y0105084D02*
X0030667Y0106596D01*
X0030289Y0106596D01*
X0030235Y0106594D01*
X0030181Y0106588D01*
X0030128Y0106579D01*
X0030076Y0106565D01*
X0030025Y0106548D01*
X0029975Y0106528D01*
X0029927Y0106504D01*
X0029880Y0106476D01*
X0029836Y0106445D01*
X0029794Y0106411D01*
X0029754Y0106375D01*
X0029718Y0106335D01*
X0029684Y0106293D01*
X0029653Y0106249D01*
X0029625Y0106202D01*
X0029601Y0106154D01*
X0029581Y0106104D01*
X0029564Y0106053D01*
X0029550Y0106001D01*
X0029541Y0105948D01*
X0029535Y0105894D01*
X0029533Y0105840D01*
X0029535Y0105786D01*
X0029541Y0105732D01*
X0029550Y0105679D01*
X0029564Y0105627D01*
X0029581Y0105576D01*
X0029601Y0105526D01*
X0029625Y0105478D01*
X0029653Y0105431D01*
X0029684Y0105387D01*
X0029718Y0105345D01*
X0029754Y0105305D01*
X0029794Y0105269D01*
X0029836Y0105235D01*
X0029880Y0105204D01*
X0029927Y0105176D01*
X0029975Y0105152D01*
X0030025Y0105132D01*
X0030076Y0105115D01*
X0030128Y0105101D01*
X0030181Y0105092D01*
X0030235Y0105086D01*
X0030289Y0105084D01*
X0031233Y0105084D02*
X0031280Y0105086D01*
X0031326Y0105092D01*
X0031372Y0105101D01*
X0031417Y0105115D01*
X0031461Y0105132D01*
X0031503Y0105152D01*
X0031543Y0105176D01*
X0031581Y0105204D01*
X0031617Y0105234D01*
X0031650Y0105267D01*
X0031680Y0105303D01*
X0031708Y0105341D01*
X0031732Y0105381D01*
X0031752Y0105423D01*
X0031769Y0105467D01*
X0031783Y0105512D01*
X0031792Y0105558D01*
X0031798Y0105604D01*
X0031800Y0105651D01*
X0031800Y0106596D01*
X0025800Y0108742D02*
X0023533Y0109497D01*
X0023533Y0107986D02*
X0025800Y0108742D01*
X0025800Y0111037D02*
X0025800Y0111982D01*
X0025798Y0112042D01*
X0025792Y0112103D01*
X0025783Y0112162D01*
X0025769Y0112221D01*
X0025752Y0112279D01*
X0025731Y0112336D01*
X0025707Y0112392D01*
X0025679Y0112445D01*
X0025647Y0112497D01*
X0025613Y0112547D01*
X0025575Y0112594D01*
X0025534Y0112639D01*
X0025491Y0112681D01*
X0025445Y0112720D01*
X0025396Y0112756D01*
X0025345Y0112789D01*
X0025293Y0112819D01*
X0025238Y0112845D01*
X0025182Y0112868D01*
X0025125Y0112887D01*
X0025066Y0112902D01*
X0025007Y0112914D01*
X0024947Y0112922D01*
X0024886Y0112926D01*
X0024826Y0112926D01*
X0024765Y0112922D01*
X0024705Y0112914D01*
X0024646Y0112902D01*
X0024587Y0112887D01*
X0024530Y0112868D01*
X0024474Y0112845D01*
X0024419Y0112819D01*
X0024367Y0112789D01*
X0024316Y0112756D01*
X0024267Y0112720D01*
X0024221Y0112681D01*
X0024178Y0112639D01*
X0024137Y0112594D01*
X0024099Y0112547D01*
X0024065Y0112497D01*
X0024033Y0112445D01*
X0024005Y0112392D01*
X0023981Y0112336D01*
X0023960Y0112279D01*
X0023943Y0112221D01*
X0023929Y0112162D01*
X0023920Y0112103D01*
X0023914Y0112042D01*
X0023912Y0111982D01*
X0023911Y0112170D02*
X0023911Y0111415D01*
X0023912Y0112170D02*
X0023910Y0112224D01*
X0023904Y0112278D01*
X0023895Y0112331D01*
X0023881Y0112383D01*
X0023864Y0112434D01*
X0023844Y0112484D01*
X0023820Y0112532D01*
X0023792Y0112579D01*
X0023761Y0112623D01*
X0023727Y0112665D01*
X0023691Y0112705D01*
X0023651Y0112741D01*
X0023609Y0112775D01*
X0023565Y0112806D01*
X0023518Y0112834D01*
X0023470Y0112858D01*
X0023420Y0112878D01*
X0023369Y0112895D01*
X0023317Y0112909D01*
X0023264Y0112918D01*
X0023210Y0112924D01*
X0023156Y0112926D01*
X0023102Y0112924D01*
X0023048Y0112918D01*
X0022995Y0112909D01*
X0022943Y0112895D01*
X0022892Y0112878D01*
X0022842Y0112858D01*
X0022794Y0112834D01*
X0022747Y0112806D01*
X0022703Y0112775D01*
X0022661Y0112741D01*
X0022621Y0112705D01*
X0022585Y0112665D01*
X0022551Y0112623D01*
X0022520Y0112579D01*
X0022492Y0112532D01*
X0022468Y0112484D01*
X0022448Y0112434D01*
X0022431Y0112383D01*
X0022417Y0112331D01*
X0022408Y0112278D01*
X0022402Y0112224D01*
X0022400Y0112170D01*
X0022400Y0111037D01*
X0031612Y0110124D02*
X0031646Y0110225D01*
X0031677Y0110326D01*
X0031704Y0110429D01*
X0031729Y0110532D01*
X0031749Y0110636D01*
X0031767Y0110741D01*
X0031780Y0110846D01*
X0031791Y0110951D01*
X0031797Y0111057D01*
X0031801Y0111163D01*
X0031800Y0111163D02*
X0031799Y0111207D01*
X0031793Y0111250D01*
X0031784Y0111293D01*
X0031771Y0111335D01*
X0031755Y0111376D01*
X0031735Y0111415D01*
X0031711Y0111452D01*
X0031684Y0111486D01*
X0031654Y0111519D01*
X0031622Y0111548D01*
X0031587Y0111574D01*
X0031550Y0111597D01*
X0031510Y0111617D01*
X0031470Y0111633D01*
X0031428Y0111646D01*
X0031384Y0111654D01*
X0031341Y0111659D01*
X0031297Y0111660D01*
X0031253Y0111657D01*
X0031210Y0111650D01*
X0031168Y0111639D01*
X0031126Y0111624D01*
X0031086Y0111606D01*
X0031048Y0111584D01*
X0031012Y0111559D01*
X0030979Y0111531D01*
X0030948Y0111500D01*
X0030920Y0111466D01*
X0030895Y0111430D01*
X0030873Y0111392D01*
X0030855Y0111352D01*
X0030856Y0111352D02*
X0030478Y0110408D01*
X0030460Y0110368D01*
X0030438Y0110330D01*
X0030413Y0110294D01*
X0030385Y0110260D01*
X0030354Y0110229D01*
X0030321Y0110201D01*
X0030285Y0110176D01*
X0030247Y0110154D01*
X0030207Y0110136D01*
X0030165Y0110121D01*
X0030123Y0110110D01*
X0030080Y0110103D01*
X0030036Y0110100D01*
X0029992Y0110101D01*
X0029948Y0110106D01*
X0029905Y0110114D01*
X0029863Y0110127D01*
X0029823Y0110143D01*
X0029783Y0110163D01*
X0029746Y0110186D01*
X0029711Y0110212D01*
X0029679Y0110241D01*
X0029649Y0110274D01*
X0029622Y0110308D01*
X0029598Y0110345D01*
X0029578Y0110384D01*
X0029562Y0110425D01*
X0029549Y0110467D01*
X0029540Y0110510D01*
X0029534Y0110553D01*
X0029533Y0110597D01*
X0029536Y0110684D01*
X0029543Y0110772D01*
X0029553Y0110859D01*
X0029567Y0110945D01*
X0029584Y0111031D01*
X0029605Y0111116D01*
X0029629Y0111201D01*
X0029657Y0111284D01*
X0029688Y0111366D01*
X0029722Y0111447D01*
X0029533Y0113160D02*
X0031800Y0113160D01*
X0031233Y0114658D02*
X0030100Y0114658D01*
X0030100Y0114657D02*
X0030053Y0114659D01*
X0030007Y0114665D01*
X0029961Y0114674D01*
X0029916Y0114688D01*
X0029872Y0114705D01*
X0029830Y0114725D01*
X0029790Y0114749D01*
X0029752Y0114777D01*
X0029716Y0114807D01*
X0029683Y0114840D01*
X0029653Y0114876D01*
X0029625Y0114914D01*
X0029601Y0114954D01*
X0029581Y0114996D01*
X0029564Y0115040D01*
X0029550Y0115085D01*
X0029541Y0115131D01*
X0029535Y0115177D01*
X0029533Y0115224D01*
X0029533Y0116169D01*
X0028400Y0116169D02*
X0031800Y0116169D01*
X0031800Y0115224D01*
X0031798Y0115177D01*
X0031792Y0115131D01*
X0031783Y0115085D01*
X0031769Y0115040D01*
X0031752Y0114996D01*
X0031732Y0114954D01*
X0031708Y0114914D01*
X0031680Y0114876D01*
X0031650Y0114840D01*
X0031617Y0114807D01*
X0031581Y0114777D01*
X0031543Y0114749D01*
X0031503Y0114725D01*
X0031461Y0114705D01*
X0031417Y0114688D01*
X0031372Y0114674D01*
X0031326Y0114665D01*
X0031280Y0114659D01*
X0031233Y0114657D01*
X0028589Y0113254D02*
X0028589Y0113066D01*
X0028400Y0113066D01*
X0028400Y0113254D01*
X0028589Y0113254D01*
X0030289Y0117924D02*
X0031233Y0117924D01*
X0030667Y0117924D02*
X0030667Y0119435D01*
X0030289Y0119435D01*
X0030289Y0119436D02*
X0030235Y0119434D01*
X0030181Y0119428D01*
X0030128Y0119419D01*
X0030076Y0119405D01*
X0030025Y0119388D01*
X0029975Y0119368D01*
X0029927Y0119344D01*
X0029880Y0119316D01*
X0029836Y0119285D01*
X0029794Y0119251D01*
X0029754Y0119215D01*
X0029718Y0119175D01*
X0029684Y0119133D01*
X0029653Y0119089D01*
X0029625Y0119042D01*
X0029601Y0118994D01*
X0029581Y0118944D01*
X0029564Y0118893D01*
X0029550Y0118841D01*
X0029541Y0118788D01*
X0029535Y0118734D01*
X0029533Y0118680D01*
X0029535Y0118626D01*
X0029541Y0118572D01*
X0029550Y0118519D01*
X0029564Y0118467D01*
X0029581Y0118416D01*
X0029601Y0118366D01*
X0029625Y0118318D01*
X0029653Y0118271D01*
X0029684Y0118227D01*
X0029718Y0118185D01*
X0029754Y0118145D01*
X0029794Y0118109D01*
X0029836Y0118075D01*
X0029880Y0118044D01*
X0029927Y0118016D01*
X0029975Y0117992D01*
X0030025Y0117972D01*
X0030076Y0117955D01*
X0030128Y0117941D01*
X0030181Y0117932D01*
X0030235Y0117926D01*
X0030289Y0117924D01*
X0028022Y0120929D02*
X0028110Y0121000D01*
X0028200Y0121068D01*
X0028292Y0121133D01*
X0028387Y0121194D01*
X0028484Y0121252D01*
X0028582Y0121307D01*
X0028683Y0121358D01*
X0028785Y0121406D01*
X0028889Y0121450D01*
X0028994Y0121490D01*
X0029101Y0121527D01*
X0029209Y0121560D01*
X0029318Y0121589D01*
X0029428Y0121614D01*
X0029539Y0121636D01*
X0029650Y0121654D01*
X0029762Y0121667D01*
X0029875Y0121677D01*
X0029987Y0121683D01*
X0030100Y0121685D01*
X0031800Y0119435D02*
X0031800Y0118491D01*
X0031798Y0118444D01*
X0031792Y0118398D01*
X0031783Y0118352D01*
X0031769Y0118307D01*
X0031752Y0118263D01*
X0031732Y0118221D01*
X0031708Y0118181D01*
X0031680Y0118143D01*
X0031650Y0118107D01*
X0031617Y0118074D01*
X0031581Y0118044D01*
X0031543Y0118016D01*
X0031503Y0117992D01*
X0031461Y0117972D01*
X0031417Y0117955D01*
X0031372Y0117941D01*
X0031326Y0117932D01*
X0031280Y0117926D01*
X0031233Y0117924D01*
X0032178Y0120929D02*
X0032090Y0121000D01*
X0032000Y0121068D01*
X0031908Y0121133D01*
X0031813Y0121194D01*
X0031716Y0121252D01*
X0031618Y0121307D01*
X0031517Y0121358D01*
X0031415Y0121406D01*
X0031311Y0121450D01*
X0031206Y0121490D01*
X0031099Y0121527D01*
X0030991Y0121560D01*
X0030882Y0121589D01*
X0030772Y0121614D01*
X0030661Y0121636D01*
X0030550Y0121654D01*
X0030438Y0121667D01*
X0030325Y0121677D01*
X0030213Y0121683D01*
X0030100Y0121685D01*
X0015756Y0131722D02*
X0013868Y0131722D01*
X0014812Y0131722D02*
X0014812Y0135122D01*
X0013868Y0134366D01*
X0012345Y0135122D02*
X0010079Y0131722D01*
X0012345Y0131722D02*
X0010079Y0135122D01*
X0022533Y0143089D02*
X0022533Y0145356D01*
X0021400Y0144222D02*
X0023667Y0144222D01*
X0025429Y0142900D02*
X0026373Y0142900D01*
X0026433Y0142902D01*
X0026494Y0142908D01*
X0026553Y0142917D01*
X0026612Y0142931D01*
X0026670Y0142948D01*
X0026727Y0142969D01*
X0026783Y0142993D01*
X0026836Y0143021D01*
X0026888Y0143053D01*
X0026938Y0143087D01*
X0026985Y0143125D01*
X0027030Y0143166D01*
X0027072Y0143209D01*
X0027111Y0143255D01*
X0027147Y0143304D01*
X0027180Y0143355D01*
X0027210Y0143407D01*
X0027236Y0143462D01*
X0027259Y0143518D01*
X0027278Y0143575D01*
X0027293Y0143634D01*
X0027305Y0143693D01*
X0027313Y0143753D01*
X0027317Y0143814D01*
X0027317Y0143874D01*
X0027313Y0143935D01*
X0027305Y0143995D01*
X0027293Y0144054D01*
X0027278Y0144113D01*
X0027259Y0144170D01*
X0027236Y0144226D01*
X0027210Y0144281D01*
X0027180Y0144333D01*
X0027147Y0144384D01*
X0027111Y0144433D01*
X0027072Y0144479D01*
X0027030Y0144522D01*
X0026985Y0144563D01*
X0026938Y0144601D01*
X0026888Y0144635D01*
X0026836Y0144667D01*
X0026783Y0144695D01*
X0026727Y0144719D01*
X0026670Y0144740D01*
X0026612Y0144757D01*
X0026553Y0144771D01*
X0026494Y0144780D01*
X0026433Y0144786D01*
X0026373Y0144788D01*
X0026562Y0144789D02*
X0025807Y0144789D01*
X0026562Y0144788D02*
X0026616Y0144790D01*
X0026670Y0144796D01*
X0026723Y0144805D01*
X0026775Y0144819D01*
X0026826Y0144836D01*
X0026876Y0144856D01*
X0026924Y0144880D01*
X0026971Y0144908D01*
X0027015Y0144939D01*
X0027057Y0144973D01*
X0027097Y0145009D01*
X0027133Y0145049D01*
X0027167Y0145091D01*
X0027198Y0145135D01*
X0027226Y0145182D01*
X0027250Y0145230D01*
X0027270Y0145280D01*
X0027287Y0145331D01*
X0027301Y0145383D01*
X0027310Y0145436D01*
X0027316Y0145490D01*
X0027318Y0145544D01*
X0027316Y0145598D01*
X0027310Y0145652D01*
X0027301Y0145705D01*
X0027287Y0145757D01*
X0027270Y0145808D01*
X0027250Y0145858D01*
X0027226Y0145906D01*
X0027198Y0145953D01*
X0027167Y0145997D01*
X0027133Y0146039D01*
X0027097Y0146079D01*
X0027057Y0146115D01*
X0027015Y0146149D01*
X0026971Y0146180D01*
X0026924Y0146208D01*
X0026876Y0146232D01*
X0026826Y0146252D01*
X0026775Y0146269D01*
X0026723Y0146283D01*
X0026670Y0146292D01*
X0026616Y0146298D01*
X0026562Y0146300D01*
X0025429Y0146300D01*
X0028799Y0143089D02*
X0028988Y0143089D01*
X0028988Y0142900D01*
X0028799Y0142900D01*
X0028799Y0143089D01*
X0030469Y0142900D02*
X0031413Y0142900D01*
X0031473Y0142902D01*
X0031534Y0142908D01*
X0031593Y0142917D01*
X0031652Y0142931D01*
X0031710Y0142948D01*
X0031767Y0142969D01*
X0031823Y0142993D01*
X0031876Y0143021D01*
X0031928Y0143053D01*
X0031978Y0143087D01*
X0032025Y0143125D01*
X0032070Y0143166D01*
X0032112Y0143209D01*
X0032151Y0143255D01*
X0032187Y0143304D01*
X0032220Y0143355D01*
X0032250Y0143407D01*
X0032276Y0143462D01*
X0032299Y0143518D01*
X0032318Y0143575D01*
X0032333Y0143634D01*
X0032345Y0143693D01*
X0032353Y0143753D01*
X0032357Y0143814D01*
X0032357Y0143874D01*
X0032353Y0143935D01*
X0032345Y0143995D01*
X0032333Y0144054D01*
X0032318Y0144113D01*
X0032299Y0144170D01*
X0032276Y0144226D01*
X0032250Y0144281D01*
X0032220Y0144333D01*
X0032187Y0144384D01*
X0032151Y0144433D01*
X0032112Y0144479D01*
X0032070Y0144522D01*
X0032025Y0144563D01*
X0031978Y0144601D01*
X0031928Y0144635D01*
X0031876Y0144667D01*
X0031823Y0144695D01*
X0031767Y0144719D01*
X0031710Y0144740D01*
X0031652Y0144757D01*
X0031593Y0144771D01*
X0031534Y0144780D01*
X0031473Y0144786D01*
X0031413Y0144788D01*
X0031602Y0144789D02*
X0030847Y0144789D01*
X0031602Y0144788D02*
X0031656Y0144790D01*
X0031710Y0144796D01*
X0031763Y0144805D01*
X0031815Y0144819D01*
X0031866Y0144836D01*
X0031916Y0144856D01*
X0031964Y0144880D01*
X0032011Y0144908D01*
X0032055Y0144939D01*
X0032097Y0144973D01*
X0032137Y0145009D01*
X0032173Y0145049D01*
X0032207Y0145091D01*
X0032238Y0145135D01*
X0032266Y0145182D01*
X0032290Y0145230D01*
X0032310Y0145280D01*
X0032327Y0145331D01*
X0032341Y0145383D01*
X0032350Y0145436D01*
X0032356Y0145490D01*
X0032358Y0145544D01*
X0032356Y0145598D01*
X0032350Y0145652D01*
X0032341Y0145705D01*
X0032327Y0145757D01*
X0032310Y0145808D01*
X0032290Y0145858D01*
X0032266Y0145906D01*
X0032238Y0145953D01*
X0032207Y0145997D01*
X0032173Y0146039D01*
X0032137Y0146079D01*
X0032097Y0146115D01*
X0032055Y0146149D01*
X0032011Y0146180D01*
X0031964Y0146208D01*
X0031916Y0146232D01*
X0031866Y0146252D01*
X0031815Y0146269D01*
X0031763Y0146283D01*
X0031710Y0146292D01*
X0031656Y0146298D01*
X0031602Y0146300D01*
X0030469Y0146300D01*
X0033880Y0146300D02*
X0035013Y0142900D01*
X0036147Y0146300D01*
D11*
X0051600Y0044600D02*
X0006600Y0044600D01*
X0001600Y0049600D01*
X0001600Y0139600D01*
X0010100Y0148100D01*
X0051600Y0148100D01*
X0053600Y0146100D01*
X0053600Y0107100D01*
X0049600Y0103100D01*
X0049600Y0057600D01*
X0053600Y0053600D01*
X0053600Y0046600D01*
X0051600Y0044600D01*
D12*
X0040317Y0075269D02*
X0037561Y0075269D01*
X0037561Y0076450D01*
X0036380Y0076450D01*
X0036380Y0132750D01*
X0036380Y0133931D01*
X0034806Y0133931D01*
X0036380Y0132750D02*
X0037561Y0132750D01*
X0037561Y0133931D01*
X0040317Y0133931D01*
X0040317Y0075269D01*
X0036380Y0075269D02*
X0034806Y0075269D01*
X0036380Y0075269D02*
X0036380Y0076450D01*
X0037561Y0081175D02*
X0037561Y0082750D01*
X0039136Y0081962D01*
X0037561Y0081175D01*
X0037561Y0081847D02*
X0038905Y0081847D01*
X0037770Y0082645D02*
X0037561Y0082645D01*
X0022994Y0075269D02*
X0019057Y0075269D01*
X0019057Y0079994D01*
X0019057Y0129206D02*
X0019057Y0133931D01*
X0022994Y0133931D01*
M02*
