G75*
%MOIN*%
%OFA0B0*%
%FSLAX25Y25*%
%IPPOS*%
%LPD*%
%AMOC8*
5,1,8,0,0,1.08239X$1,22.5*
%
%ADD10C,0.00000*%
%ADD11R,0.10000X0.05000*%
%ADD12R,0.05118X0.01181*%
%ADD13R,0.11811X0.09843*%
%ADD14R,0.06299X0.03150*%
%ADD15C,0.03762*%
%ADD16C,0.01200*%
%ADD17C,0.02975*%
%ADD18C,0.01000*%
%ADD19C,0.03200*%
%ADD20C,0.00800*%
D10*
X0006600Y0044600D02*
X0051600Y0044600D01*
X0053600Y0046600D01*
X0053600Y0053600D01*
X0049600Y0057600D01*
X0049600Y0103100D01*
X0053600Y0107100D01*
X0053600Y0146100D01*
X0051600Y0148100D01*
X0010100Y0148100D01*
X0001600Y0139600D01*
X0001600Y0049600D01*
X0006600Y0044600D01*
D11*
X0012600Y0048600D03*
X0044600Y0144100D03*
D12*
X0016105Y0127238D03*
X0016105Y0125269D03*
X0016105Y0123301D03*
X0016105Y0121332D03*
X0016105Y0119364D03*
X0016105Y0117395D03*
X0016105Y0115427D03*
X0016105Y0113458D03*
X0016105Y0111490D03*
X0016105Y0109521D03*
X0016105Y0107553D03*
X0016105Y0105584D03*
X0016105Y0103616D03*
X0016105Y0101647D03*
X0016105Y0099679D03*
X0016105Y0097710D03*
X0016105Y0095742D03*
X0016105Y0093773D03*
X0016105Y0091805D03*
X0016105Y0089836D03*
X0016105Y0087868D03*
X0016105Y0085899D03*
X0016105Y0083931D03*
X0016105Y0081962D03*
D13*
X0029491Y0074324D03*
X0029491Y0134876D03*
D14*
X0045600Y0111600D03*
X0045600Y0106600D03*
D15*
X0045600Y0101600D03*
X0045600Y0096600D03*
X0045700Y0091600D03*
X0045700Y0086600D03*
X0045700Y0081600D03*
X0045700Y0076600D03*
X0045700Y0071600D03*
X0045700Y0066600D03*
X0045700Y0061600D03*
X0044000Y0049300D03*
X0050100Y0049300D03*
X0050200Y0119000D03*
X0044000Y0119100D03*
X0044000Y0131600D03*
X0050200Y0131600D03*
D16*
X0040100Y0131436D02*
X0036596Y0131436D01*
X0036596Y0130238D02*
X0040100Y0130238D01*
X0040100Y0129039D02*
X0036178Y0129039D01*
X0035893Y0128754D02*
X0036596Y0129457D01*
X0036596Y0140294D01*
X0035893Y0140997D01*
X0023088Y0140997D01*
X0022385Y0140294D01*
X0022385Y0129457D01*
X0023088Y0128754D01*
X0035893Y0128754D01*
X0036596Y0132635D02*
X0040100Y0132635D01*
X0040100Y0133833D02*
X0036596Y0133833D01*
X0036596Y0135032D02*
X0040100Y0135032D01*
X0040100Y0136230D02*
X0036596Y0136230D01*
X0036596Y0137429D02*
X0040100Y0137429D01*
X0040100Y0138627D02*
X0036596Y0138627D01*
X0036596Y0139826D02*
X0040100Y0139826D01*
X0040100Y0140400D02*
X0040100Y0113200D01*
X0038750Y0113200D01*
X0020723Y0130739D01*
X0020263Y0131200D01*
X0020250Y0131200D01*
X0020241Y0131209D01*
X0019589Y0131200D01*
X0011937Y0131200D01*
X0011000Y0130263D01*
X0010000Y0129263D01*
X0010000Y0125437D01*
X0010937Y0124500D01*
X0011768Y0123669D01*
X0011946Y0123669D01*
X0011946Y0123301D01*
X0016105Y0123301D01*
X0020264Y0123301D01*
X0020264Y0123731D01*
X0031163Y0113090D01*
X0020264Y0113090D01*
X0020264Y0113458D01*
X0016105Y0113458D01*
X0016105Y0113458D01*
X0020264Y0113458D01*
X0020264Y0114259D01*
X0020155Y0114666D01*
X0019944Y0115031D01*
X0019864Y0115112D01*
X0019864Y0117710D01*
X0019944Y0117791D01*
X0020155Y0118156D01*
X0020264Y0118563D01*
X0020264Y0119364D01*
X0020264Y0120165D01*
X0020155Y0120572D01*
X0019944Y0120937D01*
X0019864Y0121017D01*
X0019864Y0121647D01*
X0019944Y0121728D01*
X0020155Y0122093D01*
X0020264Y0122500D01*
X0020264Y0123301D01*
X0016105Y0123301D01*
X0016105Y0123301D01*
X0016105Y0123301D01*
X0011946Y0123301D01*
X0011946Y0122500D01*
X0012055Y0122093D01*
X0012265Y0121728D01*
X0012346Y0121647D01*
X0012346Y0121017D01*
X0012265Y0120937D01*
X0012055Y0120572D01*
X0011946Y0120165D01*
X0011946Y0119364D01*
X0016105Y0119364D01*
X0020264Y0119364D01*
X0016105Y0119364D01*
X0016105Y0119364D01*
X0016105Y0119364D01*
X0011946Y0119364D01*
X0011946Y0118563D01*
X0012055Y0118156D01*
X0012265Y0117791D01*
X0012346Y0117710D01*
X0012346Y0115112D01*
X0012265Y0115031D01*
X0012055Y0114666D01*
X0011946Y0114259D01*
X0011946Y0113458D01*
X0011946Y0112657D01*
X0012055Y0112250D01*
X0012265Y0111885D01*
X0012346Y0111805D01*
X0012346Y0111175D01*
X0012265Y0111094D01*
X0012055Y0110729D01*
X0011946Y0110322D01*
X0011946Y0109521D01*
X0011946Y0108720D01*
X0012055Y0108313D01*
X0012265Y0107948D01*
X0012346Y0107868D01*
X0012346Y0107238D01*
X0012265Y0107157D01*
X0012055Y0106792D01*
X0011946Y0106385D01*
X0011946Y0105584D01*
X0011946Y0104783D01*
X0012055Y0104376D01*
X0012265Y0104011D01*
X0012346Y0103931D01*
X0012346Y0091490D01*
X0012265Y0091409D01*
X0012055Y0091044D01*
X0011946Y0090637D01*
X0011946Y0089836D01*
X0011946Y0089035D01*
X0011995Y0088852D01*
X0011946Y0088669D01*
X0011946Y0087868D01*
X0012732Y0087868D01*
X0012732Y0087868D01*
X0011946Y0087868D01*
X0011946Y0087599D01*
X0011005Y0087599D01*
X0007900Y0090704D01*
X0007900Y0136940D01*
X0012760Y0141800D01*
X0038400Y0141800D01*
X0038400Y0141103D01*
X0039103Y0140400D01*
X0040100Y0140400D01*
X0038479Y0141024D02*
X0011984Y0141024D01*
X0010786Y0139826D02*
X0022385Y0139826D01*
X0022385Y0138627D02*
X0009587Y0138627D01*
X0008389Y0137429D02*
X0022385Y0137429D01*
X0022385Y0136230D02*
X0007900Y0136230D01*
X0007900Y0135032D02*
X0022385Y0135032D01*
X0022385Y0133833D02*
X0007900Y0133833D01*
X0007900Y0132635D02*
X0022385Y0132635D01*
X0022385Y0131436D02*
X0007900Y0131436D01*
X0007900Y0130238D02*
X0010975Y0130238D01*
X0010000Y0129039D02*
X0007900Y0129039D01*
X0007900Y0127841D02*
X0010000Y0127841D01*
X0010000Y0126642D02*
X0007900Y0126642D01*
X0007900Y0125444D02*
X0010000Y0125444D01*
X0011192Y0124245D02*
X0007900Y0124245D01*
X0007900Y0123047D02*
X0011946Y0123047D01*
X0012196Y0121848D02*
X0007900Y0121848D01*
X0007900Y0120650D02*
X0012100Y0120650D01*
X0011946Y0119451D02*
X0007900Y0119451D01*
X0007900Y0118253D02*
X0012029Y0118253D01*
X0012346Y0117054D02*
X0007900Y0117054D01*
X0007900Y0115856D02*
X0012346Y0115856D01*
X0012052Y0114657D02*
X0007900Y0114657D01*
X0007900Y0113459D02*
X0011946Y0113459D01*
X0011946Y0113458D02*
X0016105Y0113458D01*
X0011946Y0113458D01*
X0012052Y0112260D02*
X0007900Y0112260D01*
X0007900Y0111062D02*
X0012246Y0111062D01*
X0011946Y0109863D02*
X0007900Y0109863D01*
X0007900Y0108665D02*
X0011961Y0108665D01*
X0011946Y0109521D02*
X0016105Y0109521D01*
X0016105Y0109521D01*
X0020264Y0109521D01*
X0020264Y0109153D01*
X0029984Y0109153D01*
X0031310Y0109153D01*
X0040100Y0100363D01*
X0040100Y0100837D01*
X0040000Y0100937D01*
X0031047Y0109890D01*
X0020264Y0109890D01*
X0020264Y0109521D01*
X0016105Y0109521D01*
X0016105Y0109521D01*
X0011946Y0109521D01*
X0012346Y0107466D02*
X0007900Y0107466D01*
X0007900Y0106268D02*
X0011946Y0106268D01*
X0011946Y0105584D02*
X0016105Y0105584D01*
X0016105Y0105584D01*
X0020264Y0105584D01*
X0020264Y0105216D01*
X0028922Y0105216D01*
X0030247Y0105216D01*
X0040100Y0095363D01*
X0040100Y0095837D01*
X0040000Y0095937D01*
X0029984Y0105953D01*
X0020264Y0105953D01*
X0020264Y0105584D01*
X0016105Y0105584D01*
X0011946Y0105584D01*
X0011946Y0105069D02*
X0007900Y0105069D01*
X0007900Y0103870D02*
X0012346Y0103870D01*
X0012346Y0102672D02*
X0007900Y0102672D01*
X0007900Y0101473D02*
X0012346Y0101473D01*
X0012346Y0100275D02*
X0007900Y0100275D01*
X0007900Y0099076D02*
X0012346Y0099076D01*
X0012346Y0097878D02*
X0007900Y0097878D01*
X0007900Y0096679D02*
X0012346Y0096679D01*
X0012346Y0095481D02*
X0007900Y0095481D01*
X0007900Y0094282D02*
X0012346Y0094282D01*
X0012346Y0093084D02*
X0007900Y0093084D01*
X0007900Y0091885D02*
X0012346Y0091885D01*
X0011959Y0090687D02*
X0007917Y0090687D01*
X0009116Y0089488D02*
X0011946Y0089488D01*
X0011946Y0089836D02*
X0012732Y0089836D01*
X0012732Y0089836D01*
X0011946Y0089836D01*
X0011946Y0088290D02*
X0010314Y0088290D01*
X0016105Y0088290D02*
X0016105Y0088290D01*
X0016105Y0087868D02*
X0016105Y0089836D01*
X0016105Y0089836D01*
X0016105Y0087868D01*
X0016105Y0087868D01*
X0016105Y0089488D02*
X0016105Y0089488D01*
X0006038Y0081258D02*
X0003700Y0083596D01*
X0003700Y0050470D01*
X0006170Y0048000D01*
X0012000Y0048000D01*
X0012000Y0049200D01*
X0012000Y0052700D01*
X0007389Y0052700D01*
X0006982Y0052591D01*
X0006618Y0052380D01*
X0006320Y0052082D01*
X0006109Y0051718D01*
X0006000Y0051311D01*
X0006000Y0049200D01*
X0012000Y0049200D01*
X0013200Y0049200D01*
X0013200Y0052700D01*
X0017811Y0052700D01*
X0018218Y0052591D01*
X0018582Y0052380D01*
X0018880Y0052082D01*
X0019091Y0051718D01*
X0019200Y0051311D01*
X0019200Y0049200D01*
X0013200Y0049200D01*
X0013200Y0048000D01*
X0019200Y0048000D01*
X0019200Y0046700D01*
X0040100Y0046700D01*
X0040100Y0060000D01*
X0024937Y0060000D01*
X0018500Y0066437D01*
X0018500Y0080172D01*
X0013049Y0080172D01*
X0012958Y0080262D01*
X0008192Y0080262D01*
X0007974Y0080137D01*
X0007512Y0080262D01*
X0007034Y0080262D01*
X0006857Y0080439D01*
X0006615Y0080505D01*
X0006376Y0080920D01*
X0006038Y0081258D01*
X0006038Y0081258D01*
X0006197Y0081099D02*
X0003700Y0081099D01*
X0003700Y0082297D02*
X0004999Y0082297D01*
X0003800Y0083496D02*
X0003700Y0083496D01*
X0003700Y0079900D02*
X0018500Y0079900D01*
X0018500Y0078702D02*
X0003700Y0078702D01*
X0003700Y0077503D02*
X0018500Y0077503D01*
X0018500Y0076305D02*
X0003700Y0076305D01*
X0003700Y0075106D02*
X0018500Y0075106D01*
X0018500Y0073908D02*
X0003700Y0073908D01*
X0003700Y0072709D02*
X0018500Y0072709D01*
X0018500Y0071511D02*
X0003700Y0071511D01*
X0003700Y0070312D02*
X0018500Y0070312D01*
X0018500Y0069114D02*
X0003700Y0069114D01*
X0003700Y0067915D02*
X0018500Y0067915D01*
X0018500Y0066717D02*
X0003700Y0066717D01*
X0003700Y0065518D02*
X0019419Y0065518D01*
X0020618Y0064320D02*
X0003700Y0064320D01*
X0003700Y0063121D02*
X0021816Y0063121D01*
X0023015Y0061923D02*
X0003700Y0061923D01*
X0003700Y0060724D02*
X0024213Y0060724D01*
X0018628Y0052334D02*
X0040100Y0052334D01*
X0040100Y0051136D02*
X0019200Y0051136D01*
X0019200Y0049937D02*
X0040100Y0049937D01*
X0040100Y0048739D02*
X0013200Y0048739D01*
X0013200Y0049937D02*
X0012000Y0049937D01*
X0012000Y0048739D02*
X0005431Y0048739D01*
X0006000Y0049937D02*
X0004232Y0049937D01*
X0003700Y0051136D02*
X0006000Y0051136D01*
X0006572Y0052334D02*
X0003700Y0052334D01*
X0003700Y0053533D02*
X0040100Y0053533D01*
X0040100Y0054732D02*
X0003700Y0054732D01*
X0003700Y0055930D02*
X0040100Y0055930D01*
X0040100Y0057129D02*
X0003700Y0057129D01*
X0003700Y0058327D02*
X0040100Y0058327D01*
X0040100Y0059526D02*
X0003700Y0059526D01*
X0012000Y0052334D02*
X0013200Y0052334D01*
X0013200Y0051136D02*
X0012000Y0051136D01*
X0019200Y0047540D02*
X0040100Y0047540D01*
X0039982Y0095481D02*
X0040100Y0095481D01*
X0039258Y0096679D02*
X0038783Y0096679D01*
X0038059Y0097878D02*
X0037585Y0097878D01*
X0036861Y0099076D02*
X0036386Y0099076D01*
X0035662Y0100275D02*
X0035188Y0100275D01*
X0034464Y0101473D02*
X0033989Y0101473D01*
X0033265Y0102672D02*
X0032791Y0102672D01*
X0032067Y0103870D02*
X0031592Y0103870D01*
X0030868Y0105069D02*
X0030394Y0105069D01*
X0034195Y0106268D02*
X0034670Y0106268D01*
X0035394Y0105069D02*
X0035868Y0105069D01*
X0036592Y0103870D02*
X0037067Y0103870D01*
X0037791Y0102672D02*
X0038265Y0102672D01*
X0038989Y0101473D02*
X0039464Y0101473D01*
X0033471Y0107466D02*
X0032997Y0107466D01*
X0032273Y0108665D02*
X0031798Y0108665D01*
X0031074Y0109863D02*
X0020264Y0109863D01*
X0020264Y0113459D02*
X0030785Y0113459D01*
X0029557Y0114657D02*
X0020157Y0114657D01*
X0019864Y0115856D02*
X0028330Y0115856D01*
X0027102Y0117054D02*
X0019864Y0117054D01*
X0020181Y0118253D02*
X0025875Y0118253D01*
X0024647Y0119451D02*
X0020264Y0119451D01*
X0020110Y0120650D02*
X0023420Y0120650D01*
X0022192Y0121848D02*
X0020014Y0121848D01*
X0020264Y0123047D02*
X0020965Y0123047D01*
X0024934Y0126642D02*
X0040100Y0126642D01*
X0040100Y0125444D02*
X0026166Y0125444D01*
X0027398Y0124245D02*
X0040100Y0124245D01*
X0040100Y0123047D02*
X0028630Y0123047D01*
X0029862Y0121848D02*
X0040100Y0121848D01*
X0040100Y0120650D02*
X0031093Y0120650D01*
X0032325Y0119451D02*
X0040100Y0119451D01*
X0040100Y0118253D02*
X0033557Y0118253D01*
X0034789Y0117054D02*
X0040100Y0117054D01*
X0040100Y0115856D02*
X0036021Y0115856D01*
X0037252Y0114657D02*
X0040100Y0114657D01*
X0040100Y0113459D02*
X0038484Y0113459D01*
X0016105Y0113458D02*
X0016105Y0113458D01*
X0016105Y0105584D02*
X0016105Y0105584D01*
X0023703Y0127841D02*
X0040100Y0127841D01*
X0022803Y0129039D02*
X0022471Y0129039D01*
X0022385Y0130238D02*
X0021239Y0130238D01*
D17*
X0016600Y0137100D03*
X0031600Y0124600D03*
X0021600Y0119600D03*
X0026600Y0114600D03*
X0010100Y0113600D03*
X0010100Y0106100D03*
X0010100Y0098600D03*
X0010100Y0091100D03*
X0014100Y0077100D03*
X0006600Y0069600D03*
X0011600Y0059600D03*
X0026600Y0054600D03*
X0031600Y0049600D03*
X0010100Y0121100D03*
D18*
X0010100Y0091100D02*
X0010100Y0089836D01*
X0012069Y0087868D01*
X0016105Y0087868D01*
X0016105Y0089836D02*
X0010100Y0089836D01*
X0008731Y0087469D02*
X0004100Y0087469D01*
X0004100Y0088468D02*
X0007732Y0088468D01*
X0006734Y0089466D02*
X0004100Y0089466D01*
X0004100Y0089600D02*
X0006600Y0089600D01*
X0010600Y0085600D01*
X0012046Y0085600D01*
X0012046Y0085111D01*
X0012098Y0084915D01*
X0012046Y0084719D01*
X0012046Y0083931D01*
X0012932Y0083931D01*
X0012932Y0083931D01*
X0012046Y0083931D01*
X0012046Y0083143D01*
X0012098Y0082946D01*
X0012046Y0082750D01*
X0012046Y0082100D01*
X0007600Y0082100D01*
X0004100Y0085600D01*
X0004100Y0089600D01*
X0005100Y0088100D02*
X0008801Y0085899D01*
X0007738Y0081962D01*
X0016105Y0081962D01*
X0016105Y0082100D02*
X0016105Y0083809D01*
X0016105Y0083931D01*
X0016105Y0083931D01*
X0016105Y0085600D01*
X0016105Y0085600D01*
X0016105Y0083931D01*
X0010769Y0083931D01*
X0008801Y0085899D01*
X0016105Y0085899D01*
X0016105Y0085472D02*
X0016105Y0085472D01*
X0016105Y0084473D02*
X0016105Y0084473D01*
X0016105Y0083931D02*
X0016105Y0083931D01*
X0016105Y0082100D01*
X0016105Y0082100D01*
X0016105Y0082476D02*
X0016105Y0082476D01*
X0016105Y0083475D02*
X0016105Y0083475D01*
X0012932Y0083931D02*
X0012932Y0083931D01*
X0012046Y0083475D02*
X0006225Y0083475D01*
X0005227Y0084473D02*
X0012046Y0084473D01*
X0012046Y0085472D02*
X0004228Y0085472D01*
X0004100Y0086470D02*
X0009730Y0086470D01*
X0012046Y0082476D02*
X0007224Y0082476D01*
D19*
X0005100Y0088100D02*
X0005100Y0138100D01*
X0011600Y0144600D01*
X0042100Y0144600D01*
X0044600Y0144100D01*
X0044000Y0142700D01*
X0044000Y0131600D01*
X0050200Y0131600D01*
X0037100Y0119100D02*
X0031600Y0124600D01*
X0037100Y0119100D02*
X0044000Y0119100D01*
X0044100Y0119000D01*
X0050200Y0119000D01*
X0050100Y0049300D02*
X0044000Y0049300D01*
X0031900Y0049300D01*
X0031600Y0049600D01*
D20*
X0025600Y0061600D02*
X0020100Y0067100D01*
X0020100Y0090600D01*
X0018895Y0091805D01*
X0016105Y0091805D01*
X0016105Y0093773D02*
X0019927Y0093773D01*
X0022100Y0091600D01*
X0022100Y0068100D01*
X0023600Y0066600D01*
X0045700Y0066600D01*
X0045600Y0066600D01*
X0045700Y0061600D02*
X0045600Y0061600D01*
X0025600Y0061600D01*
X0045600Y0071600D02*
X0021458Y0095742D01*
X0016105Y0095742D01*
X0016105Y0097710D02*
X0024490Y0097710D01*
X0045600Y0076600D01*
X0045700Y0076600D01*
X0045700Y0081600D02*
X0043600Y0081600D01*
X0025521Y0099679D01*
X0016105Y0099679D01*
X0016105Y0101647D02*
X0026553Y0101647D01*
X0041600Y0086600D01*
X0045700Y0086600D01*
X0045600Y0086600D01*
X0045700Y0091600D02*
X0045600Y0091600D01*
X0045700Y0091600D02*
X0041600Y0091600D01*
X0029584Y0103616D01*
X0016105Y0103616D01*
X0016105Y0107553D02*
X0030647Y0107553D01*
X0041600Y0096600D01*
X0045600Y0096600D01*
X0045600Y0101600D02*
X0041600Y0101600D01*
X0031710Y0111490D01*
X0016105Y0111490D01*
X0019600Y0129600D02*
X0038100Y0111600D01*
X0045600Y0111600D01*
X0045600Y0106600D02*
X0040100Y0106600D01*
X0018962Y0127238D01*
X0016105Y0127238D01*
X0019600Y0129600D02*
X0012600Y0129600D01*
X0011600Y0128600D01*
X0011600Y0126100D01*
X0012431Y0125269D01*
X0016105Y0125269D01*
X0045600Y0071600D02*
X0045700Y0071600D01*
M02*
